<?xml version="1.0" encoding="utf-8"?>
<!-- Generator: Adobe Illustrator 19.1.0, SVG Export Plug-In . SVG Version: 6.00 Build 0)  -->
<svg version="1.1" id="Layer_1" xmlns="http://www.w3.org/2000/svg" xmlns:xlink="http://www.w3.org/1999/xlink" x="0px" y="0px"
	 width="1780px" height="850px" viewBox="755 -290 1780 850" style="enable-background:new 755 -290 1780 850;"
	 xml:space="preserve">
<style type="text/css">
	.st0{fill:url(#sky_x2F_space_2_);}
	.st1{fill:url(#river_2_);}
	.st2{opacity:0.9;}
	.st3{fill:url(#SVGID_1_);}
	.st4{fill:url(#SVGID_2_);}
	.st5{opacity:0.8;}
	.st6{fill:url(#SVGID_3_);}
	.st7{fill:#FDD8CD;}
	.st8{fill:url(#SVGID_4_);}
	.st9{fill:url(#SVGID_5_);}
	.st10{opacity:0.8;fill:url(#SVGID_6_);enable-background:new    ;}
	.st11{opacity:0.8;fill:url(#SVGID_7_);enable-background:new    ;}
	.st12{fill:#445763;}
	.st13{fill:url(#SVGID_8_);}
	.st14{fill:url(#SVGID_9_);}
	.st15{fill:#575C7A;}
	.st16{display:none;fill:#575C7A;}
	.st17{opacity:0.8;fill:#FFF4CF;enable-background:new    ;}
	.st18{fill:url(#SVGID_10_);}
	.st19{fill:url(#SVGID_11_);}
	.st20{fill:url(#SVGID_12_);}
	.st21{fill:url(#SVGID_13_);}
	.st22{opacity:0.1;fill:#FFFFFF;enable-background:new    ;}
	.st23{clip-path:url(#SVGID_15_);}
	.st24{fill:url(#SVGID_16_);}
	.st25{fill:url(#SVGID_17_);}
	.st26{fill:url(#SVGID_18_);}
	.st27{fill:url(#SVGID_19_);}
	.st28{fill:url(#SVGID_20_);}
	.st29{fill:url(#SVGID_21_);}
	.st30{fill:url(#SVGID_22_);}
	.st31{fill:url(#SVGID_23_);}
	.st32{fill:url(#SVGID_24_);}
	.st33{fill:url(#SVGID_25_);}
	.st34{fill:url(#SVGID_26_);}
	.st35{fill:url(#SVGID_27_);}
	.st36{fill:url(#SVGID_28_);}
	.st37{fill:url(#SVGID_29_);}
	.st38{fill:#293942;}
	.st39{fill:url(#SVGID_30_);}
	.st40{fill:url(#SVGID_31_);}
	.st41{fill:url(#SVGID_32_);}
	.st42{fill:url(#SVGID_33_);}
	.st43{fill:url(#SVGID_34_);}
	.st44{fill:url(#SVGID_35_);}
	.st45{fill:url(#SVGID_36_);}
	.st46{fill:#808184;}
	.st47{fill:url(#SVGID_37_);}
	.st48{fill:url(#SVGID_38_);}
	.st49{fill:url(#SVGID_39_);}
	.st50{fill:url(#SVGID_40_);}
	.st51{fill:url(#SVGID_41_);}
	.st52{fill:url(#SVGID_42_);}
	.st53{fill:url(#SVGID_43_);}
	.st54{fill:url(#SVGID_44_);}
	.st55{opacity:0.17;fill:#EFEFEF;enable-background:new    ;}
	.st56{fill:url(#SVGID_45_);}
	.st57{fill:url(#SVGID_46_);}
	.st58{fill:url(#SVGID_47_);}
	.st59{fill:url(#SVGID_48_);}
	.st60{fill:url(#SVGID_49_);}
	.st61{fill:url(#SVGID_50_);}
	.st62{fill:#273D44;}
	.st63{fill:url(#SVGID_51_);}
	.st64{fill:url(#SVGID_52_);}
	.st65{fill:url(#SVGID_53_);}
	.st66{fill:url(#SVGID_54_);}
	.st67{fill:url(#SVGID_55_);}
	.st68{fill:url(#SVGID_56_);}
	.st69{fill:#929497;}
	.st70{fill:url(#SVGID_57_);}
	.st71{fill:#FFFFFF;}
	.st72{fill:url(#SVGID_58_);}
	.st73{fill:url(#SVGID_59_);}
	.st74{fill:url(#SVGID_60_);}
	.st75{opacity:0.6;fill:#4E4D50;enable-background:new    ;}
	.st76{opacity:0.21;fill:#231F20;enable-background:new    ;}
	.st77{fill:url(#SVGID_61_);}
	.st78{fill:url(#SVGID_62_);}
	.st79{opacity:0.39;fill:url(#SVGID_63_);enable-background:new    ;}
	.st80{opacity:0.39;fill:url(#SVGID_64_);enable-background:new    ;}
	.st81{fill:url(#SVGID_65_);}
	.st82{fill:url(#SVGID_66_);}
	.st83{fill:url(#SVGID_67_);}
	.st84{fill:url(#SVGID_68_);}
	.st85{fill:url(#SVGID_69_);}
	.st86{fill:url(#SVGID_70_);}
	.st87{fill:url(#SVGID_71_);}
	.st88{opacity:0.59;fill:url(#SVGID_72_);enable-background:new    ;}
	.st89{opacity:0.45;fill:#BFBEBE;enable-background:new    ;}
	.st90{fill:url(#SVGID_73_);}
	.st91{fill:url(#SVGID_74_);}
	.st92{fill:url(#SVGID_75_);}
	.st93{opacity:0.1;clip-path:url(#SVGID_77_);fill:url(#SVGID_78_);enable-background:new    ;}
</style>
<linearGradient id="sky_x2F_space_2_" gradientUnits="userSpaceOnUse" x1="1667.2229" y1="-104.8954" x2="1624.295" y2="-911.6224" gradientTransform="matrix(1 0 0 1 0 633.9999)">
	<stop  offset="0" style="stop-color:#F3C187"/>
	<stop  offset="5.274168e-02" style="stop-color:#F4AA8D"/>
	<stop  offset="0.1186" style="stop-color:#DF7D66"/>
	<stop  offset="0.3059" style="stop-color:#4E5763"/>
	<stop  offset="0.5913" style="stop-color:#0C3C4C"/>
	<stop  offset="1" style="stop-color:#0E1C22"/>
</linearGradient>
<rect id="sky_x2F_space_1_" x="745.2" y="-295" class="st0" width="1794.2" height="712.1"/>
<linearGradient id="river_2_" gradientUnits="userSpaceOnUse" x1="1619.3472" y1="-422.1913" x2="1762.5172" y2="82.9561" gradientTransform="matrix(1 0 0 1 0 633.9999)">
	<stop  offset="7.882074e-02" style="stop-color:#C5817E"/>
	<stop  offset="0.3645" style="stop-color:#57606D"/>
	<stop  offset="0.6989" style="stop-color:#33434C"/>
	<stop  offset="1" style="stop-color:#2D3A41"/>
</linearGradient>
<polygon id="river_1_" class="st1" points="2539.4,562.9 1150.8,562.9 849.9,563.3 1016.7,473.6 1150.8,391.7 2539.4,391.7 "/>
<g id="mountain_1_" class="st2">
	
		<linearGradient id="SVGID_1_" gradientUnits="userSpaceOnUse" x1="1321.4" y1="-242.1901" x2="1321.4" y2="-375.3916" gradientTransform="matrix(1 0 0 1 0 633.9999)">
		<stop  offset="0" style="stop-color:#425B6A"/>
		<stop  offset="1" style="stop-color:#30414A"/>
	</linearGradient>
	<polygon class="st3" points="1118.2,393.7 1102.3,393.9 1103,392 1156.6,362.5 1173.9,358 1178.6,349.5 1188.2,346.2 1195.8,341.2 
		1206.9,347.5 1211.5,348.7 1220.7,347.3 1241.3,332.2 1265.8,315.2 1273.8,316.3 1292.8,297 1300.3,300.5 1304,294.9 1312.3,291.5 
		1320.3,282.5 1328,277.7 1337.5,266.7 1343.7,269.7 1353.3,277.6 1363.3,285.7 1371.9,288.7 1376.6,292.6 1378.2,293.2 
		1385.3,291.2 1389.2,295.2 1393.5,299.5 1397.9,303.9 1400.5,302.2 1411,310.9 1422.9,319.2 1433.3,329.7 1433.8,332.2 
		1439.5,331.6 1445.4,335.6 1450,335.6 1468.9,349.2 1540.5,393.7 	"/>
	
		<linearGradient id="SVGID_2_" gradientUnits="userSpaceOnUse" x1="1465.347" y1="-228.6122" x2="1572.5215" y2="-276.7467" gradientTransform="matrix(1 0 0 1 0 633.9999)">
		<stop  offset="0" style="stop-color:#475E6D"/>
		<stop  offset="1" style="stop-color:#30414A"/>
	</linearGradient>
	<polygon class="st4" points="1561.8,393.7 1595,393.7 1550.4,377.5 1514,358.1 1496.2,346.7 1486.6,349.3 1469.3,362.9 
		1458.7,369.7 1442.9,380 1430.2,386.2 1411,393.7 1413.6,393.7 	"/>
	<g class="st5">
		
			<linearGradient id="SVGID_3_" gradientUnits="userSpaceOnUse" x1="1329.2001" y1="-344.8499" x2="1397.9" y2="-344.8499" gradientTransform="matrix(1 0 0 1 0 633.9999)">
			<stop  offset="0" style="stop-color:#FDD8CD"/>
			<stop  offset="1" style="stop-color:#E9B8AD"/>
		</linearGradient>
		<polygon class="st6" points="1351.6,291.3 1344,282.5 1340.6,269.6 1337.5,266.7 1343.7,269.7 1353.3,277.6 1363.3,285.7 
			1371.9,288.7 1376.6,292.6 1379.5,295.6 1382.6,296.9 1385.3,291.2 1397.9,303.9 1392.8,306.7 1391.2,310.2 1387.8,307.3 
			1381.3,310 1373.4,303.9 1366.3,299.1 1377.3,311.2 1375.7,311.6 1367.9,306.7 1362,300.7 1355.6,295.6 1358.3,301.3 
			1354.5,301.5 1339.5,287.5 1329.2,278.6 1336.1,281.7 1340.4,282.6 		"/>
		<polygon class="st7" points="1354.6,311.2 1359.1,316.9 1354.4,314.6 1346.5,312.5 1354.7,320.7 1361.8,325.1 1361.8,325.1 
			1362.8,326.1 1368.6,323.7 1371,322.7 		"/>
		
			<linearGradient id="SVGID_4_" gradientUnits="userSpaceOnUse" x1="1393.8274" y1="-309.5472" x2="1467.2761" y2="-262.035" gradientTransform="matrix(1 0 0 1 0 633.9999)">
			<stop  offset="0" style="stop-color:#FDD8CD"/>
			<stop  offset="1" style="stop-color:#E9B8AD"/>
		</linearGradient>
		<polygon class="st8" points="1472.9,351.9 1460.4,343.1 1450,335.6 1450.6,340.2 1445.4,335.6 1439.5,331.6 1437.7,331.7 
			1433.3,329.7 1427.2,323.5 1422.9,319.2 1414.3,313.1 1411,310.9 1400.5,302.2 1399.3,311.7 1401.2,318.5 1387.8,307.3 
			1385.1,313.7 1386.7,316.3 1398.4,327.2 1388.6,321.7 1378.9,318.7 1381.5,325.5 1387.1,329.5 1399.2,340.3 1395.8,340 
			1399.4,344 1384.2,338.7 1381.4,338.7 1369.6,331 1370.2,335.7 1383.9,344.6 1389,345.3 1421.6,354.2 1413.9,348.7 1432.8,356.7 
			1443.7,357.7 1447.1,358 1421,336.1 1453.6,356.6 1466,361.2 1469.3,362.9 1478.7,355.6 		"/>
		
			<linearGradient id="SVGID_5_" gradientUnits="userSpaceOnUse" x1="1495.7001" y1="-271.8999" x2="1550.3434" y2="-271.8999" gradientTransform="matrix(1 0 0 1 0 633.9999)">
			<stop  offset="0" style="stop-color:#FDD8CD"/>
			<stop  offset="1" style="stop-color:#BF8980"/>
		</linearGradient>
		<polygon class="st9" points="1506.1,367.7 1496.7,360.3 1506.4,365.7 1505.1,363.9 1509.1,366 1497.9,353.7 1495.7,349.6 
			1497.9,350.7 1496.2,346.7 1514,358.1 1550.4,377.5 1529.3,370.7 1518.7,364.9 1525.7,371.1 1519.3,369.3 1515.1,372 		"/>
	</g>
</g>
<g id="mountain_-_foreground_1_">
	
		<linearGradient id="SVGID_6_" gradientUnits="userSpaceOnUse" x1="1098.2001" y1="-272.1499" x2="1420.6" y2="-272.1499" gradientTransform="matrix(1 0 0 1 0 633.9999)">
		<stop  offset="0" style="stop-color:#3B4952"/>
		<stop  offset="0.6358" style="stop-color:#3F515E"/>
		<stop  offset="0.9998" style="stop-color:#4E6271"/>
	</linearGradient>
	<polygon class="st10" points="1420.6,393.7 1374.9,370.6 1357.2,360.2 1343.5,352.1 1338.8,349.2 1329.5,342.1 1318,332.9 
		1314.6,332.7 1309.9,330 1299,337.1 1297.3,335.9 1279.8,345.9 1277,345.9 1271.8,348.3 1271.8,350.6 1267.7,352.5 1260.3,357 
		1254.5,360 1248,363.2 1246.7,363.9 1239.5,365.6 1229.4,360.7 1222.1,355.9 1214.7,349.9 1210.9,348.7 1207,347.5 1195.9,341.2 
		1188.4,346.2 1178.8,349.5 1174,358 1157.4,362.2 1102.5,392.2 1098.2,393.7 1118.1,393.7 	"/>
	
		<linearGradient id="SVGID_7_" gradientUnits="userSpaceOnUse" x1="1316.095" y1="-294.3293" x2="1360.635" y2="-259.0988" gradientTransform="matrix(1 0 0 1 0 633.9999)">
		<stop  offset="2.882479e-02" style="stop-color:#FDD8CD"/>
		<stop  offset="0.4645" style="stop-color:#D9A499"/>
		<stop  offset="1" style="stop-color:#BF8980"/>
	</linearGradient>
	<polygon class="st11" points="1378,372.5 1351.9,357.3 1338.7,348.5 1330.5,342.7 1318,332.9 1322.9,341.9 1316.8,338.7 
		1317.5,340.1 1317.3,341.2 1319,342.9 1323.2,347.6 1333.5,354.7 1334.4,357.3 1320.4,347.6 1316.1,345.1 1305.6,338.2 
		1306.6,340.6 1297.3,335.9 1298.3,338.2 1300.9,340.3 1301.8,342.5 1301.8,344.5 1328.7,360.7 1333.1,362.2 1326.2,356.2 
		1338.1,362.3 1347.8,365 1359.5,367.9 1352.6,362.2 1364.4,369.1 	"/>
</g>
<path id="land-right3_1_" class="st12" d="M2265.3,373.6h-40.2l-59.5-1.1h-10.2l-22.3-1.1l-34.4-3.4l-24.4,4.5l-20.4-3.5l-21.3,4.1
	l-32.5-12l-38.4,7l-51.5,8.3l-54.4-2.3l-28.5,3l-12.9,7l-13.1-6.2l-56.5,3.9l-51.7-3.9l-48.6,8.9l-61.4,2.2l-68.7,3.8l-18.6,1
	l14.9,4.2l8.2,1l23.9,2.5l41.9,3.8l87.8,10.5l93.8-1.6l372.3-7.6c0,0,136.4,5,136.4-23.7L2265.3,373.6z"/>
<linearGradient id="SVGID_8_" gradientUnits="userSpaceOnUse" x1="2254.6899" y1="158.0513" x2="1989.9631" y2="-191.6148" gradientTransform="matrix(1 0 0 -1 0 270)">
	<stop  offset="0" style="stop-color:#F4B49C"/>
	<stop  offset="0.3648" style="stop-color:#5A576C"/>
	<stop  offset="0.9951" style="stop-color:#3D4E59"/>
</linearGradient>
<polygon class="st13" points="2538.6,347.2 2516,351.3 2506.4,347.3 2465.7,346.3 2411,354.7 2353.2,352.3 2322.9,355.3 
	2262.5,349.2 2198.4,361.6 2132.4,365.7 2072.7,363.7 2031.7,375.7 1973.8,377.7 1947.7,384.1 1900.2,388.5 1840.6,391.6 
	1805.3,397.9 1778.6,391.5 1752.5,397.9 1730.5,395.5 1704.4,397.9 1697.3,405.3 1646,409.2 1626.1,414.9 1603.4,420.7 
	1597.3,422.6 1515.8,430.3 1552.7,432.2 1776.2,430.7 1809.2,436 1981.5,436 2327.6,432.3 2327.6,406.2 2539.1,393.9 "/>
<linearGradient id="SVGID_9_" gradientUnits="userSpaceOnUse" x1="2097.3396" y1="96.1881" x2="2024.5461" y2="-592.5472" gradientTransform="matrix(1 0 0 -1 0 270)">
	<stop  offset="0" style="stop-color:#F6D59B"/>
	<stop  offset="0.1469" style="stop-color:#BEA39B"/>
	<stop  offset="0.2595" style="stop-color:#676279"/>
	<stop  offset="0.4019" style="stop-color:#3A4C57"/>
	<stop  offset="1" style="stop-color:#3A4850"/>
</linearGradient>
<polygon class="st14" points="2506.4,347.3 2441.8,343.3 2408.2,352.2 2380,363.1 2361.2,363.2 2326.2,359 2291.3,373.7 
	2270.7,368.3 2247.2,377.7 2193.7,386.6 2174.9,389.7 2163.5,387.5 2163.5,386.5 2154.7,385.7 2152.1,385.2 2151.5,385.3 
	2130.7,383.3 2092,375.9 2074.7,380.3 2046.4,390.2 2028.9,402.9 2004.4,394.2 1985.6,394.3 1969.5,394.3 1950.5,390.2 
	1915.7,404.9 1895.1,399.6 1871.5,409 1846.1,413.2 1818.1,417.7 1799.4,421 1776.5,416.3 1759.2,422 1731.6,439.6 1703.7,449.2 
	1688.6,453.7 1670.5,453.7 1645.6,459.9 1628.2,460.3 1605.5,470.9 1593.5,470.9 1582.2,475 1665.5,475.7 1652.4,480.2 
	1639.1,480.2 1627.9,483.7 1610.4,485.5 1627.9,487.6 1649.2,491.6 1665.5,491.6 1681.2,491.6 1692.9,496.3 1718.5,502.3 
	1733.4,502.3 1746.2,502.3 1757.9,502.7 1761.9,503.2 1785.6,506.5 1801.4,509 1801.4,508.5 1834.4,512.9 1912.9,545.8 1948,541.9 
	2007,557.2 2068.6,561 2185.7,562.9 2539.1,566.9 2539.4,343.3 "/>
<g id="stars_1_">
	
		<rect x="917.3" y="5.7" transform="matrix(0.7071 0.7071 -0.7071 0.7071 275.0574 -647.9456)" class="st15" width="4.8" height="4.8"/>
	
		<rect x="1061.1" y="-51.4" transform="matrix(0.7071 0.7071 -0.7071 0.7071 276.4703 -766.1589)" class="st15" width="4" height="4"/>
	
		<rect x="1325.1" y="35.2" transform="matrix(0.7071 0.7071 -0.7071 0.7071 414.4317 -927.252)" class="st15" width="2.8" height="2.8"/>
	
		<rect x="1238" y="-103.2" transform="matrix(0.7071 0.7071 -0.7071 0.7071 291.6148 -906.4211)" class="st15" width="4" height="4"/>
	
		<rect x="1199.9" y="-17.3" transform="matrix(0.7071 0.7071 -0.7071 0.7071 341.595 -854.5559)" class="st16" width="4.8" height="4.8"/>
	
		<rect x="1738.6" y="-97.4" transform="matrix(0.7071 0.7071 -0.7071 0.7071 442.7327 -1258.8735)" class="st15" width="4.8" height="4.8"/>
	
		<rect x="1327.6" y="89.4" transform="matrix(0.7071 0.7071 -0.7071 0.7071 454.431 -913.5564)" class="st15" width="4.8" height="4.8"/>
	
		<rect x="1477.3" y="-126.1" transform="matrix(0.7071 0.7071 -0.7071 0.7071 345.5388 -1082.3446)" class="st15" width="4" height="4"/>
	
		<rect x="1316.8" y="181" transform="matrix(0.7071 0.7071 -0.7071 0.7071 516.0765 -879.0557)" class="st15" width="4.8" height="4.8"/>
	
		<rect x="1347.7" y="-105.2" transform="matrix(0.7071 0.7071 -0.7071 0.7071 322.3163 -984.6058)" class="st15" width="4" height="4"/>
	
		<rect x="1213.4" y="115.1" transform="matrix(0.7071 0.7071 -0.7071 0.7071 439.1646 -825.2643)" class="st15" width="4.8" height="4.8"/>
	
		<rect x="1388.7" y="9.1" transform="matrix(0.7071 0.7071 -0.7071 0.7071 415.5479 -980.3079)" class="st15" width="4.8" height="4.8"/>
	
		<rect x="887.3" y="121.9" transform="matrix(0.7071 0.7071 -0.7071 0.7071 348.5022 -592.6921)" class="st16" width="4.8" height="4.8"/>
	
		<rect x="989.5" y="-27.6" transform="matrix(0.7071 0.7071 -0.7071 0.7071 272.6648 -708.7709)" class="st15" width="4.8" height="4.8"/>
	
		<rect x="1251.5" y="68.2" transform="matrix(0.7071 0.7071 -0.7071 0.7071 417.2042 -865.9842)" class="st15" width="4.8" height="4.8"/>
	
		<rect x="1097.9" y="11" transform="matrix(0.7071 0.7071 -0.7071 0.7071 331.7326 -774.1089)" class="st15" width="4.8" height="4.8"/>
	
		<rect x="861.1" y="167.3" transform="matrix(0.7071 0.7071 -0.7071 0.7071 372.9091 -560.8914)" class="st15" width="4.8" height="4.8"/>
	
		<rect x="1192.7" y="81.5" transform="matrix(0.7071 0.7071 -0.7071 0.7071 409.3444 -820.504)" class="st15" width="4.8" height="4.8"/>
	
		<rect x="944.9" y="-55.1" transform="matrix(0.7071 0.7071 -0.7071 0.7071 240.2325 -685.2973)" class="st15" width="4.8" height="4.8"/>
	
		<rect x="887.9" y="-105.4" transform="matrix(0.7071 0.7071 -0.7071 0.7071 187.5437 -659.5383)" class="st15" width="4" height="4"/>
	
		<rect x="808" y="20.7" transform="matrix(0.7071 0.7071 -0.7071 0.7071 253.7057 -566.2999)" class="st15" width="4.8" height="4.8"/>
	
		<rect x="806.7" y="-80.5" transform="matrix(0.7071 0.7071 -0.7071 0.7071 181.7537 -595.0215)" class="st15" width="4.8" height="4.8"/>
	
		<rect x="953.7" y="-139" transform="matrix(0.7071 0.7071 -0.7071 0.7071 183.0206 -715.9201)" class="st15" width="4" height="4"/>
	
		<rect x="1056.1" y="-25.6" transform="matrix(0.7071 0.7071 -0.7071 0.7071 293.629 -755.2272)" class="st16" width="4.8" height="4.8"/>
	
		<rect x="1505.3" y="54.6" transform="matrix(0.7071 0.7071 -0.7071 0.7071 481.9423 -1049.4249)" class="st15" width="4.8" height="4.8"/>
	
		<rect x="1128" y="138.1" transform="matrix(0.7071 0.7071 -0.7071 0.7071 430.4242 -758.1628)" class="st15" width="4.8" height="4.8"/>
	
		<rect x="1078" y="-135" transform="matrix(0.7071 0.7071 -0.7071 0.7071 222.6576 -802.7985)" class="st15" width="4.8" height="4.8"/>
	
		<rect x="1744.3" y="-114.1" transform="matrix(0.7071 0.7071 -0.7071 0.7071 432.638 -1267.8142)" class="st15" width="4.8" height="4.8"/>
	
		<rect x="1181.3" y="-33.3" transform="matrix(0.7071 0.7071 -0.7071 0.7071 324.868 -846.0325)" class="st15" width="4.8" height="4.8"/>
	
		<rect x="1051.8" y="112.6" transform="matrix(0.7071 0.7071 -0.7071 0.7071 390.0683 -711.722)" class="st16" width="4.8" height="4.8"/>
	
		<rect x="1003.7" y="21.5" transform="matrix(0.7071 0.7071 -0.7071 0.7071 311.608 -704.4048)" class="st16" width="4.8" height="4.8"/>
	
		<rect x="1282" y="-16.5" transform="matrix(0.7071 0.7071 -0.7071 0.7071 365.2412 -911.9413)" class="st15" width="2.8" height="2.8"/>
	
		<rect x="768.1" y="85.4" transform="matrix(0.7071 0.7071 -0.7071 0.7071 287.7249 -519.1166)" class="st15" width="4.8" height="4.8"/>
	
		<rect x="1068.3" y="125.6" transform="matrix(0.7071 0.7071 -0.7071 0.7071 404.1354 -719.606)" class="st15" width="4.8" height="4.8"/>
	
		<rect x="1124.6" y="-2.2" transform="matrix(0.7071 0.7071 -0.7071 0.7071 330.2622 -796.8366)" class="st15" width="4.8" height="4.8"/>
	
		<rect x="1082.2" y="-4.8" transform="matrix(0.7071 0.7071 -0.7071 0.7071 315.1124 -767.2574)" class="st15" width="3.1" height="3.1"/>
	
		<rect x="897.5" y="100.4" transform="matrix(0.7071 0.7071 -0.7071 0.7071 335.3984 -605.8412)" class="st15" width="3.1" height="3.1"/>
	
		<rect x="875.7" y="-34.5" transform="matrix(0.7071 0.7071 -0.7071 0.7071 233.6538 -629.9757)" class="st15" width="3.1" height="3.1"/>
	
		<rect x="949.2" y="155.9" transform="matrix(0.7071 0.7071 -0.7071 0.7071 389.7595 -626.1567)" class="st15" width="3.1" height="3.1"/>
	
		<rect x="935.4" y="69.1" transform="matrix(0.1174 0.9931 -0.9931 0.1174 897.1119 -868.1587)" class="st15" width="3.1" height="3.1"/>
	
		<rect x="1881.3" y="-105.5" transform="matrix(0.7071 0.7071 -0.7071 0.7071 478.8466 -1362.1382)" class="st15" width="4.8" height="4.8"/>
	
		<rect x="1824.3" y="-156.1" transform="matrix(0.7071 0.7071 -0.7071 0.7071 426.321 -1336.6949)" class="st15" width="4.8" height="4.8"/>
	
		<rect x="1173.2" y="-117.3" transform="matrix(0.7071 0.7071 -0.7071 0.7071 263.0882 -864.9503)" class="st15" width="4.8" height="4.8"/>
	
		<rect x="1298.5" y="-117.4" transform="matrix(0.7071 0.7071 -0.7071 0.7071 299.7117 -953.543)" class="st15" width="4.8" height="4.8"/>
	
		<rect x="904.4" y="54.8" transform="matrix(0.7071 0.7071 -0.7071 0.7071 305.3646 -624.1885)" class="st16" width="3.4" height="3.4"/>
	
		<rect x="798.9" y="125.3" transform="matrix(0.7071 0.7071 -0.7071 0.7071 324.9796 -529.2324)" class="st15" width="4.8" height="4.8"/>
	
		<rect x="1015.4" y="81.5" transform="matrix(0.7071 0.7071 -0.7071 0.7071 356.7742 -694.8303)" class="st15" width="3.4" height="3.4"/>
	
		<rect x="1123.7" y="18.8" transform="matrix(0.7071 0.7071 -0.7071 0.7071 344.7918 -790.0967)" class="st16" width="4.8" height="4.8"/>
	
		<rect x="938" y="61.6" transform="matrix(0.7071 0.7071 -0.7071 0.7071 319.9844 -645.9599)" class="st16" width="3.4" height="3.4"/>
	
		<rect x="1367.9" y="99.4" transform="matrix(0.7071 0.7071 -0.7071 0.7071 473.3313 -939.1024)" class="st15" width="4.8" height="4.8"/>
	
		<rect x="973.5" y="25.9" transform="matrix(0.7071 0.7071 -0.7071 0.7071 305.1443 -681.5265)" class="st16" width="3.4" height="3.4"/>
	
		<rect x="1141.3" y="72.6" transform="matrix(0.7071 0.7071 -0.7071 0.7071 387.9926 -786.7642)" class="st16" width="4.8" height="4.8"/>
	
		<rect x="1222.9" y="14.1" transform="matrix(0.7071 0.7071 -0.7071 0.7071 370.1202 -861.4035)" class="st15" width="4" height="4"/>
	
		<rect x="1164.6" y="-86.9" transform="matrix(0.7071 0.7071 -0.7071 0.7071 282.042 -849.9146)" class="st15" width="4.8" height="4.8"/>
	
		<rect x="1196.1" y="174" transform="matrix(0.7071 0.7071 -0.7071 0.7071 475.7787 -795.8231)" class="st15" width="4.8" height="4.8"/>
	
		<rect x="1015.6" y="-90.8" transform="matrix(0.7071 0.7071 -0.7071 0.7071 235.2361 -745.538)" class="st15" width="4" height="4"/>
	
		<rect x="964.2" y="3" transform="matrix(0.7071 0.7071 -0.7071 0.7071 286.1982 -681.5912)" class="st15" width="3.4" height="3.4"/>
	
		<rect x="1066.1" y="145.3" transform="matrix(0.7071 0.7071 -0.7071 0.7071 416.732 -711.9993)" class="st15" width="3.4" height="3.4"/>
	
		<rect x="1037.4" y="27.3" transform="matrix(0.7071 0.7071 -0.7071 0.7071 324.8549 -726.2841)" class="st15" width="3.4" height="3.4"/>
	
		<rect x="923.4" y="-53.1" transform="matrix(0.7071 0.7071 -0.7071 0.7071 235.3331 -669.5131)" class="st15" width="4.8" height="4.8"/>
	
		<rect x="1488.9" y="128.9" transform="matrix(0.7071 0.7071 -0.7071 0.7071 529.669 -1016.0739)" class="st15" width="4.8" height="4.8"/>
	
		<rect x="1483.4" y="-39" transform="matrix(0.7071 0.7071 -0.7071 0.7071 409.3152 -1061.349)" class="st15" width="4.8" height="4.8"/>
	
		<rect x="892.7" y="28.1" transform="matrix(0.7071 0.7071 -0.7071 0.7071 283.0607 -623.6877)" class="st15" width="3.4" height="3.4"/>
	
		<rect x="1330" y="-65.3" transform="matrix(0.7071 0.7071 -0.7071 0.7071 345.7769 -960.5823)" class="st15" width="4.8" height="4.8"/>
	
		<rect x="1308.6" y="34.9" transform="matrix(0.7071 0.7071 -0.7071 0.7071 409.3157 -915.6729)" class="st15" width="2.8" height="2.8"/>
	
		<rect x="837.4" y="66.7" transform="matrix(0.7071 0.7071 -0.7071 0.7071 294.009 -573.2162)" class="st15" width="3.1" height="3.1"/>
	
		<rect x="2018.7" y="-150.2" transform="matrix(0.7071 0.7071 -0.7071 0.7071 487.4158 -1472.4189)" class="st15" width="4.8" height="4.8"/>
	
		<rect x="1665.1" y="62.3" transform="matrix(-0.9282 -0.3721 0.3721 -0.9282 3189.8735 743.2903)" class="st15" width="3.1" height="3.1"/>
	
		<rect x="1738" y="177.7" transform="matrix(-0.9282 -0.3721 0.3721 -0.9282 3287.4966 992.9451)" class="st15" width="3.1" height="3.1"/>
	
		<rect x="1595.7" y="31.6" transform="matrix(-0.9282 -0.3721 0.3721 -0.9282 3067.458 658.2908)" class="st15" width="3.1" height="3.1"/>
	
		<rect x="1642.4" y="105.8" transform="matrix(-0.4985 -0.8669 0.8669 -0.4985 2370.4429 1585.9579)" class="st15" width="3.1" height="3.1"/>
	
		<rect x="1928" y="71.7" transform="matrix(-0.9282 -0.3721 0.3721 -0.9282 3693.335 859.2374)" class="st15" width="3.1" height="3.1"/>
	
		<rect x="2017.8" y="51.5" transform="matrix(-0.9282 -0.3721 0.3721 -0.9282 3873.9819 853.7292)" class="st15" width="3.1" height="3.1"/>
	
		<rect x="1975.8" y="85.1" transform="matrix(-0.9282 -0.3721 0.3721 -0.9282 3780.7131 903.1976)" class="st15" width="3.4" height="3.4"/>
	
		<rect x="1563.6" y="125.6" transform="matrix(-0.9282 -0.3721 0.3721 -0.9282 2970.8784 827.9191)" class="st15" width="3.4" height="3.4"/>
	
		<rect x="1846.6" y="135.9" transform="matrix(-0.9282 -0.3721 0.3721 -0.9282 3512.6975 953.0504)" class="st15" width="3.4" height="3.4"/>
	
		<rect x="1908.7" y="134.6" transform="matrix(-0.9282 -0.3721 0.3721 -0.9282 3632.9451 973.6919)" class="st15" width="3.4" height="3.4"/>
	
		<rect x="1641.5" y="177.8" transform="matrix(-0.9282 -0.3721 0.3721 -0.9282 3101.6008 957.5433)" class="st15" width="3.4" height="3.4"/>
	
		<rect x="1564.7" y="184.3" transform="matrix(-0.9282 -0.3721 0.3721 -0.9282 2951.1055 941.4881)" class="st15" width="3.4" height="3.4"/>
	
		<rect x="1697.4" y="126.5" transform="matrix(-0.9282 -0.3721 0.3721 -0.9282 3228.5249 879.4512)" class="st15" width="3.4" height="3.4"/>
	
		<rect x="1733.4" y="69.4" transform="matrix(-0.9282 -0.3721 0.3721 -0.9282 3318.9185 782.3911)" class="st15" width="3.1" height="3.1"/>
	
		<rect x="1974.4" y="70.2" transform="matrix(-0.9282 -0.3721 0.3721 -0.9282 3783.335 873.5746)" class="st15" width="3.1" height="3.1"/>
	
		<rect x="2008.6" y="2.6" transform="matrix(-0.9282 -0.3721 0.3721 -0.9282 3874.4241 755.9922)" class="st15" width="3.1" height="3.1"/>
	
		<rect x="1905.2" y="-47.3" transform="matrix(-0.9917 -0.1285 0.1285 -0.9917 3805.1262 155.7076)" class="st15" width="4.8" height="4.8"/>
	
		<rect x="1581" y="-80.3" transform="matrix(-0.9917 -0.1285 0.1285 -0.9917 3163.6404 48.3207)" class="st15" width="4.8" height="4.8"/>
	
		<rect x="1544.1" y="-9.7" transform="matrix(-0.9917 -0.1285 0.1285 -0.9917 3081.0757 184.1922)" class="st15" width="4.8" height="4.8"/>
	
		<rect x="1434.8" y="25.8" transform="matrix(-0.9917 -0.1285 0.1285 -0.9917 2858.822 240.852)" class="st15" width="4.8" height="4.8"/>
	
		<rect x="1728.4" y="-5.3" transform="matrix(-0.9917 -0.1285 0.1285 -0.9917 3447.5789 216.6385)" class="st15" width="4.8" height="4.8"/>
	
		<rect x="1596.1" y="-15.2" transform="matrix(-0.9917 -0.1285 0.1285 -0.9917 3185.3496 179.9194)" class="st15" width="4.8" height="4.8"/>
	
		<rect x="1920.1" y="-17.5" transform="matrix(-0.9917 -0.1285 0.1285 -0.9917 3830.9539 216.9727)" class="st15" width="4.8" height="4.8"/>
	
		<rect x="1388" y="-83" transform="matrix(-0.9917 -0.1285 0.1285 -0.9917 2779.6118 18.144)" class="st15" width="4.8" height="4.8"/>
	
		<rect x="1803.2" y="-10" transform="matrix(-0.9917 -0.1285 0.1285 -0.9917 3597.1812 216.891)" class="st15" width="4.8" height="4.8"/>
	
		<rect x="1612" y="-29.9" transform="matrix(-0.9917 -0.1285 0.1285 -0.9917 3218.907 152.6846)" class="st15" width="4.8" height="4.8"/>
	
		<rect x="1920.3" y="26.3" transform="matrix(-0.9917 -0.1285 0.1285 -0.9917 3825.7434 304.2365)" class="st15" width="4.8" height="4.8"/>
	
		<rect x="1840.3" y="52.8" transform="matrix(0.7071 0.7071 -0.7071 0.7071 578.7258 -1286.8508)" class="st15" width="4.8" height="4.8"/>
	
		<rect x="1784.9" y="80.2" transform="matrix(0.7071 0.7071 -0.7071 0.7071 581.8669 -1239.6199)" class="st15" width="4.8" height="4.8"/>
	
		<rect x="1938.3" y="163.9" transform="matrix(0.7071 0.7071 -0.7071 0.7071 685.9739 -1323.5862)" class="st15" width="4.8" height="4.8"/>
	
		<rect x="1971.6" y="-68.6" transform="matrix(0.7071 0.7071 -0.7071 0.7071 531.3246 -1415.2089)" class="st15" width="4.8" height="4.8"/>
	
		<rect x="1956.2" y="5.7" transform="matrix(0.7071 0.7071 -0.7071 0.7071 579.394 -1382.5256)" class="st15" width="4.8" height="4.8"/>
	
		<rect x="1792.8" y="-126.9" transform="matrix(0.7071 0.7071 -0.7071 0.7071 436.9299 -1305.5466)" class="st15" width="3.1" height="3.1"/>
	
		<rect x="1809.8" y="-64.5" transform="matrix(0.7071 0.7071 -0.7071 0.7071 486.1886 -1299.276)" class="st15" width="3.4" height="3.4"/>
	
		<rect x="1754.6" y="-25.5" transform="matrix(0.7071 0.7071 -0.7071 0.7071 497.4094 -1248.8284)" class="st15" width="3.1" height="3.1"/>
	
		<rect x="1860.4" y="-273.5" transform="matrix(0.7071 0.7071 -0.7071 0.7071 353.9373 -1396.5808)" class="st15" width="4.8" height="4.8"/>
	
		<rect x="1804.9" y="-246.1" transform="matrix(0.7071 0.7071 -0.7071 0.7071 357.0243 -1349.3379)" class="st15" width="4.8" height="4.8"/>
	
		<rect x="2491.7" y="-253.5" transform="matrix(0.7071 0.7071 -0.7071 0.7071 552.9889 -1837.1522)" class="st15" width="4.8" height="4.8"/>
	
		<rect x="2066.9" y="-249.5" transform="matrix(0.7071 0.7071 -0.7071 0.7071 431.3568 -1535.6282)" class="st15" width="4.8" height="4.8"/>
	
		<rect x="2000.9" y="-275.1" transform="matrix(0.7071 0.7071 -0.7071 0.7071 393.925 -1496.4126)" class="st15" width="4.8" height="4.8"/>
	
		<rect x="2234.4" y="-265.7" transform="matrix(0.1174 0.9931 -0.9931 0.1174 1711.0804 -2453.6213)" class="st15" width="3.1" height="3.1"/>
	
		<rect x="2314.5" y="-253.3" transform="matrix(0.7071 0.7071 -0.7071 0.7071 500.4597 -1711.4961)" class="st15" width="3.4" height="3.4"/>
	
		<rect x="2136.5" y="-267.9" transform="matrix(0.7071 0.7071 -0.7071 0.7071 437.8894 -1589.811)" class="st15" width="3.1" height="3.1"/>
	
		<rect x="1508" y="-245.4" transform="matrix(0.7071 0.7071 -0.7071 0.7071 270.5659 -1139.2019)" class="st15" width="4.8" height="4.8"/>
	
		<rect x="1432.1" y="-266.5" transform="matrix(0.7071 0.7071 -0.7071 0.7071 233.3809 -1091.7299)" class="st15" width="4.8" height="4.8"/>
	
		<rect x="1373.3" y="-253.3" transform="matrix(0.7071 0.7071 -0.7071 0.7071 225.4794 -1046.2322)" class="st15" width="4.8" height="4.8"/>
	
		<rect x="1616.6" y="-250.5" transform="matrix(0.7071 0.7071 -0.7071 0.7071 297.9452 -1217.1123)" class="st15" width="3.1" height="3.1"/>
	
		<rect x="2073" y="75.7" transform="matrix(0.7071 0.7071 -0.7071 0.7071 663.0668 -1444.6847)" class="st15" width="4.8" height="4.8"/>
	
		<rect x="2294.6" y="-11.1" transform="matrix(0.7071 0.7071 -0.7071 0.7071 666.5959 -1626.7827)" class="st15" width="4.8" height="4.8"/>
	
		<rect x="2438.4" y="-68.1" transform="matrix(0.7071 0.7071 -0.7071 0.7071 668.0084 -1744.9962)" class="st15" width="4" height="4"/>
	
		<rect x="2057.1" y="-138.1" transform="matrix(0.7071 0.7071 -0.7071 0.7071 506.5136 -1495.7314)" class="st15" width="3.4" height="3.4"/>
	
		<rect x="2367" y="-44.6" transform="matrix(0.7071 0.7071 -0.7071 0.7071 664.1619 -1687.7664)" class="st15" width="4.8" height="4.8"/>
	
		<rect x="2475.2" y="-6" transform="matrix(0.7071 0.7071 -0.7071 0.7071 723.1059 -1753.0291)" class="st15" width="4.8" height="4.8"/>
	
		<rect x="2238.7" y="150.3" transform="matrix(0.7071 0.7071 -0.7071 0.7071 764.4061 -1539.97)" class="st15" width="4.8" height="4.8"/>
	
		<rect x="2088.4" y="-152.6" transform="matrix(0.7071 0.7071 -0.7071 0.7071 506.1487 -1522.4298)" class="st15" width="4.8" height="4.8"/>
	
		<rect x="2322.4" y="-71.9" transform="matrix(0.7071 0.7071 -0.7071 0.7071 631.7593 -1664.2229)" class="st15" width="4.8" height="4.8"/>
	
		<rect x="2265.4" y="-122.1" transform="matrix(0.7071 0.7071 -0.7071 0.7071 579.1652 -1638.5168)" class="st15" width="4" height="4"/>
	
		<rect x="2105.9" y="-119.1" transform="matrix(0.7071 0.7071 -0.7071 0.7071 534.9818 -1524.9918)" class="st15" width="4.8" height="4.8"/>
	
		<rect x="2185.5" y="3.7" transform="matrix(0.7071 0.7071 -0.7071 0.7071 645.1198 -1545.2615)" class="st15" width="4.8" height="4.8"/>
	
		<rect x="2184.3" y="-97.4" transform="matrix(0.7071 0.7071 -0.7071 0.7071 573.2678 -1574.083)" class="st15" width="4.8" height="4.8"/>
	
		<rect x="2331.2" y="-155.9" transform="matrix(0.7071 0.7071 -0.7071 0.7071 574.5718 -1694.8693)" class="st15" width="4" height="4"/>
	
		<rect x="2455.3" y="-151.9" transform="matrix(0.7071 0.7071 -0.7071 0.7071 614.084 -1781.6237)" class="st15" width="4.8" height="4.8"/>
	
		<rect x="2145.3" y="68.5" transform="matrix(0.7071 0.7071 -0.7071 0.7071 679.1517 -1497.8586)" class="st15" width="4.8" height="4.8"/>
	
		<rect x="2079.2" y="43" transform="matrix(0.7071 0.7071 -0.7071 0.7071 641.8201 -1458.6254)" class="st15" width="4.8" height="4.8"/>
	
		<rect x="2446" y="108.6" transform="matrix(0.7071 0.7071 -0.7071 0.7071 795.6203 -1698.7384)" class="st15" width="4.8" height="4.8"/>
	
		<rect x="2459.6" y="-21.5" transform="matrix(0.7071 0.7071 -0.7071 0.7071 706.7634 -1746.1659)" class="st15" width="3.1" height="3.1"/>
	
		<rect x="2275" y="83.5" transform="matrix(0.7071 0.7071 -0.7071 0.7071 726.9077 -1584.8322)" class="st15" width="3.1" height="3.1"/>
	
		<rect x="2253.3" y="-51.3" transform="matrix(0.7071 0.7071 -0.7071 0.7071 625.2753 -1608.9541)" class="st15" width="3.1" height="3.1"/>
	
		<rect x="2326.7" y="139" transform="matrix(0.7071 0.7071 -0.7071 0.7071 781.2691 -1605.1479)" class="st15" width="3.1" height="3.1"/>
	
		<rect x="2313" y="52.2" transform="matrix(0.1174 0.9931 -0.9931 0.1174 2096.2092 -2251.0154)" class="st15" width="3.1" height="3.1"/>
	
		<rect x="2176.5" y="108.4" transform="matrix(0.7071 0.7071 -0.7071 0.7071 716.5183 -1508.2705)" class="st15" width="4.8" height="4.8"/>
	
		<rect x="2392.9" y="64.7" transform="matrix(0.7071 0.7071 -0.7071 0.7071 748.3248 -1673.7803)" class="st15" width="3.4" height="3.4"/>
	
		<rect x="2136.7" y="-56" transform="matrix(0.7071 0.7071 -0.7071 0.7071 587.8957 -1527.9797)" class="st15" width="3.4" height="3.4"/>
	
		<rect x="2079.1" y="-79.3" transform="matrix(0.7071 0.7071 -0.7071 0.7071 554.5881 -1494.1083)" class="st15" width="3.4" height="3.4"/>
	
		<rect x="2393.1" y="-107.8" transform="matrix(0.7071 0.7071 -0.7071 0.7071 626.6622 -1724.5873)" class="st15" width="4" height="4"/>
	
		<rect x="2341.5" y="-13.9" transform="matrix(0.7071 0.7071 -0.7071 0.7071 677.6534 -1660.4867)" class="st15" width="3.4" height="3.4"/>
	
		<rect x="2443.7" y="128.6" transform="matrix(0.7071 0.7071 -0.7071 0.7071 808.3538 -1690.9783)" class="st15" width="3.4" height="3.4"/>
	
		<rect x="2415" y="10.3" transform="matrix(0.7071 0.7071 -0.7071 0.7071 716.3346 -1705.3455)" class="st15" width="3.4" height="3.4"/>
	
		<rect x="2300.9" y="-70" transform="matrix(0.7071 0.7071 -0.7071 0.7071 626.7892 -1648.4924)" class="st15" width="4.8" height="4.8"/>
	
		<rect x="2270.1" y="11.3" transform="matrix(0.7071 0.7071 -0.7071 0.7071 674.558 -1602.6245)" class="st15" width="3.4" height="3.4"/>
	
		<rect x="2105.9" y="8.3" transform="matrix(0.7071 0.7071 -0.7071 0.7071 625.0673 -1487.676)" class="st15" width="4.8" height="4.8"/>
	
		<rect x="2215" y="50.1" transform="matrix(0.7071 0.7071 -0.7071 0.7071 685.7135 -1552.1952)" class="st15" width="3.1" height="3.1"/>
	
		<rect x="2524.3" y="-15.6" transform="matrix(0.7071 0.7071 -0.7071 0.7071 730.7375 -1790.4955)" class="st15" width="4.8" height="4.8"/>
	
		<rect x="2499" y="15.1" transform="matrix(0.7071 0.7071 -0.7071 0.7071 744.312 -1763.3574)" class="st15" width="3.4" height="3.4"/>
	
		<rect x="884.1" y="-282" transform="matrix(0.7071 0.7071 -0.7071 0.7071 61.9039 -708.7484)" class="st15" width="4.8" height="4.8"/>
	
		<rect x="1064.5" y="-276.8" transform="matrix(0.7071 0.7071 -0.7071 0.7071 118.4257 -834.8)" class="st15" width="4.8" height="4.8"/>
	
		<rect x="774.7" y="-267.2" transform="matrix(0.7071 0.7071 -0.7071 0.7071 40.369 -627.0613)" class="st15" width="4.8" height="4.8"/>
	
		<rect x="902.3" y="-218.6" transform="matrix(0.1174 0.9931 -0.9931 0.1174 582.1516 -1089.1753)" class="st15" width="3.1" height="3.1"/>
	
		<rect x="1004.2" y="-260.5" transform="matrix(0.7071 0.7071 -0.7071 0.7071 111.5889 -787.075)" class="st15" width="3.4" height="3.4"/>
	
		<rect x="859.5" y="-259.7" transform="matrix(0.7071 0.7071 -0.7071 0.7071 69.8364 -684.5198)" class="st15" width="3.4" height="3.4"/>
	
		<rect x="804.3" y="-220.9" transform="matrix(0.7071 0.7071 -0.7071 0.7071 80.9213 -634.0606)" class="st15" width="3.1" height="3.1"/>
	
		<rect x="1221.8" y="-247.8" transform="matrix(0.7071 0.7071 -0.7071 0.7071 185.0419 -937.546)" class="st15" width="4.8" height="4.8"/>
	
		<rect x="1248.5" y="-261" transform="matrix(0.7071 0.7071 -0.7071 0.7071 183.4889 -960.2733)" class="st15" width="4.8" height="4.8"/>
	
		<rect x="1206.2" y="-263.4" transform="matrix(0.7071 0.7071 -0.7071 0.7071 168.5634 -930.6947)" class="st15" width="3.1" height="3.1"/>
	
		<rect x="1088.1" y="-255.8" transform="matrix(0.7071 0.7071 -0.7071 0.7071 139.5195 -845.0571)" class="st15" width="3.4" height="3.4"/>
	
		<rect x="1161.3" y="-231.5" transform="matrix(0.7071 0.7071 -0.7071 0.7071 178.147 -889.6797)" class="st15" width="3.4" height="3.4"/>
	
		<rect x="1325" y="-216.5" transform="matrix(0.7071 0.7071 -0.7071 0.7071 236.3616 -1000.9206)" class="st15" width="2.8" height="2.8"/>
	
		<rect x="1327.6" y="-162.4" transform="matrix(0.7071 0.7071 -0.7071 0.7071 276.4437 -987.3082)" class="st15" width="4.8" height="4.8"/>
	
		<rect x="1251.6" y="-183.4" transform="matrix(0.7071 0.7071 -0.7071 0.7071 239.2704 -939.7238)" class="st15" width="4.8" height="4.8"/>
	
		<rect x="1192.8" y="-170.2" transform="matrix(0.7071 0.7071 -0.7071 0.7071 231.3986 -894.2969)" class="st15" width="4.8" height="4.8"/>
	
		<rect x="1505.4" y="-197.2" transform="matrix(0.7071 0.7071 -0.7071 0.7071 303.9135 -1123.218)" class="st15" width="4.8" height="4.8"/>
	
		<rect x="768" y="-166.3" transform="matrix(0.7071 0.7071 -0.7071 0.7071 109.75 -592.7559)" class="st15" width="4.8" height="4.8"/>
	
		<rect x="897.4" y="-151.4" transform="matrix(0.7071 0.7071 -0.7071 0.7071 157.3108 -679.5516)" class="st15" width="3.1" height="3.1"/>
	
		<rect x="935.3" y="-182.5" transform="matrix(0.1174 0.9931 -0.9931 0.1174 647.1036 -1090.0873)" class="st15" width="3.1" height="3.1"/>
	
		<rect x="1015.3" y="-170.2" transform="matrix(0.7071 0.7071 -0.7071 0.7071 178.7453 -768.4579)" class="st15" width="3.4" height="3.4"/>
	
		<rect x="1367.9" y="-152.1" transform="matrix(0.7071 0.7071 -0.7071 0.7071 295.4688 -1012.8128)" class="st15" width="4.8" height="4.8"/>
	
		<rect x="1308.6" y="-216.9" transform="matrix(0.7071 0.7071 -0.7071 0.7071 231.3285 -989.4247)" class="st15" width="2.8" height="2.8"/>
	
		<rect x="837.5" y="-184.9" transform="matrix(0.7071 0.7071 -0.7071 0.7071 116.1339 -646.98)" class="st15" width="3.1" height="3.1"/>
	
		<rect x="1665.1" y="-189.4" transform="matrix(-0.9282 -0.3721 0.3721 -0.9282 3283.5249 257.9478)" class="st15" width="3.1" height="3.1"/>
	
		<rect x="1642.3" y="-145.8" transform="matrix(-0.4985 -0.8669 0.8669 -0.4985 2588.3889 1208.8859)" class="st15" width="3.1" height="3.1"/>
	
		<rect x="1928.1" y="-179.9" transform="matrix(-0.9282 -0.3721 0.3721 -0.9282 3787.113 374.1356)" class="st15" width="3.1" height="3.1"/>
	
		<rect x="2017.9" y="-200.1" transform="matrix(-0.9282 -0.3721 0.3721 -0.9282 3967.7603 368.6271)" class="st15" width="3.1" height="3.1"/>
	
		<rect x="1975.7" y="-166.6" transform="matrix(-0.9282 -0.3721 0.3721 -0.9282 3874.218 417.8448)" class="st15" width="3.4" height="3.4"/>
	
		<rect x="1733.3" y="-182.3" transform="matrix(-0.9282 -0.3721 0.3721 -0.9282 3412.4233 297.0387)" class="st15" width="3.1" height="3.1"/>
	
		<rect x="1974.4" y="-181.5" transform="matrix(-0.9282 -0.3721 0.3721 -0.9282 3876.9744 388.2604)" class="st15" width="3.1" height="3.1"/>
	
		<rect x="1840.4" y="-198.9" transform="matrix(0.7071 0.7071 -0.7071 0.7071 400.7678 -1360.6147)" class="st15" width="4.8" height="4.8"/>
	
		<rect x="1784.8" y="-171.4" transform="matrix(0.7071 0.7071 -0.7071 0.7071 403.9622 -1313.2058)" class="st15" width="4.8" height="4.8"/>
	
		<rect x="2073" y="-176" transform="matrix(0.7071 0.7071 -0.7071 0.7071 485.1208 -1518.3947)" class="st15" width="4.8" height="4.8"/>
	
		<rect x="2145.5" y="-183.1" transform="matrix(0.7071 0.7071 -0.7071 0.7071 501.3178 -1571.7227)" class="st15" width="4.8" height="4.8"/>
	
		<rect x="2079.3" y="-208.6" transform="matrix(0.7071 0.7071 -0.7071 0.7071 463.9448 -1532.365)" class="st15" width="4.8" height="4.8"/>
	
		<rect x="2445.9" y="-142.9" transform="matrix(0.7071 0.7071 -0.7071 0.7071 617.7454 -1772.3372)" class="st15" width="4.8" height="4.8"/>
	
		<rect x="2274.9" y="-168.3" transform="matrix(0.7071 0.7071 -0.7071 0.7071 548.8497 -1658.5547)" class="st15" width="3.1" height="3.1"/>
	
		<rect x="2312.8" y="-199.4" transform="matrix(0.1174 0.9931 -0.9931 0.1174 1846.1921 -2472.9641)" class="st15" width="3.1" height="3.1"/>
	
		<rect x="2176.3" y="-143.2" transform="matrix(0.7071 0.7071 -0.7071 0.7071 538.5725 -1581.839)" class="st15" width="4.8" height="4.8"/>
	
		<rect x="2392.9" y="-186.9" transform="matrix(0.7071 0.7071 -0.7071 0.7071 570.3671 -1747.4612)" class="st15" width="3.4" height="3.4"/>
	
		<rect x="2215" y="-201.7" transform="matrix(0.7071 0.7071 -0.7071 0.7071 507.6845 -1625.9293)" class="st15" width="3.1" height="3.1"/>
</g>
<path id="moon_1_" class="st17" d="M1602.6,168.2c1.5,1.7,2.4,3.9,2.4,6.3c0,5.3-4.3,9.6-9.6,9.6c-1.7,0-3.3-0.4-4.6-1.2
	c1.8,2,4.4,3.3,7.3,3.3c5.3,0,9.6-4.3,9.6-9.6C1607.6,173.1,1605.6,169.9,1602.6,168.2z"/>
<linearGradient id="SVGID_10_" gradientUnits="userSpaceOnUse" x1="1408.9849" y1="124.6989" x2="1638.7164" y2="121.1956" gradientTransform="matrix(0.999 4.384206e-02 4.384206e-02 -0.999 6.7642 -97.0066)">
	<stop  offset="0" style="stop-color:#F2FAFE"/>
	<stop  offset="0.2092" style="stop-color:#F3C187"/>
	<stop  offset="0.4322" style="stop-color:#EB8D80"/>
	<stop  offset="0.4645" style="stop-color:#C77E75"/>
	<stop  offset="0.5125" style="stop-color:#996B66"/>
	<stop  offset="0.5623" style="stop-color:#705A59"/>
	<stop  offset="0.613" style="stop-color:#504C4E"/>
	<stop  offset="0.665" style="stop-color:#364146"/>
	<stop  offset="0.7187" style="stop-color:#243A41"/>
	<stop  offset="0.7754" style="stop-color:#19353D"/>
	<stop  offset="0.8399" style="stop-color:#16343C"/>
</linearGradient>
<path class="st18" d="M1434.5-162.5c-4.3-0.2-8.6-0.3-12.9-0.5l-2.2,1l2,1.2c9.7,0.3,19.6,0.7,29.6,1
	c82.8,3.6,156.1,10.4,201.3,17.6C1610-150.5,1528.5-158.4,1434.5-162.5z"/>
<linearGradient id="SVGID_11_" gradientUnits="userSpaceOnUse" x1="754.2461" y1="387.4903" x2="1256.7953" y2="406.2688">
	<stop  offset="0" style="stop-color:#404F58"/>
	<stop  offset="0.3424" style="stop-color:#41535D"/>
	<stop  offset="0.8823" style="stop-color:#445E6D"/>
	<stop  offset="1" style="stop-color:#456171"/>
</linearGradient>
<polygon class="st19" points="1264.1,406.7 1263.8,406.3 1258,405.2 1250.6,400.5 1248.9,399.7 1257.5,399 1261,396.7 1268.5,397.3 
	1289.6,391.7 1275.4,391.7 1268.9,391.7 1253.8,390.1 1249.2,390.9 1244.3,390.1 1229.4,391.3 1210.3,386.9 1190.7,387.5 
	1183.6,389.7 1169.7,387.9 1164.3,385.2 1150.6,387 1138.8,387.2 1127.7,384.6 1109.2,384.6 1091.9,384.6 1082.4,379.2 
	1058.3,379.2 1027.2,379.2 1016.4,372.2 978.5,379.9 949.1,372.7 868,375.3 822.3,360.3 789.9,362.9 743,357.9 741.2,356.9 
	741.2,408.5 866.6,408.5 920.6,414.2 955.1,425.1 1056.1,418.7 1097.8,426.7 1140.3,425.1 1177.5,427.5 1165,421.2 1179.2,414.9 
	1184.8,416.7 1190.2,413.9 1210.5,412.7 1214.2,411.9 1242.5,411.3 1260.4,411.3 1262.2,411.3 1264.1,411 1272.5,410.2 
	1269.6,408.7 "/>
<linearGradient id="SVGID_12_" gradientUnits="userSpaceOnUse" x1="1119.4683" y1="166.2487" x2="1029.8615" y2="387.7766">
	<stop  offset="0.1139" style="stop-color:#334D5A"/>
	<stop  offset="1" style="stop-color:#384A56"/>
</linearGradient>
<polygon class="st20" points="1294.8,433.3 1270.4,428.7 1236.9,426.2 1214.6,419.2 1197,417.2 1157,421.3 1098,406.9 1041.4,413.9 
	991.4,405.2 948.1,407.5 912.9,403.1 901.4,395.2 864.2,391.7 834.3,391.7 828.8,395.7 808.4,389.2 790.8,387.3 750.9,391.5 
	741.2,386.5 741.2,456.6 753.2,448.7 767,450.7 772.3,479.2 808.3,479 875,477.2 955.7,478.7 1064.7,478.2 1102.8,478.7 1134,459.6 
	1164.9,461.2 1198.2,451.2 1212.8,442.9 1240.6,438.7 1280,439.5 1299.7,435.5 "/>
<linearGradient id="SVGID_13_" gradientUnits="userSpaceOnUse" x1="1596.5793" y1="454.1871" x2="918.2532" y2="491.2384">
	<stop  offset="4.998519e-04" style="stop-color:#303D44"/>
	<stop  offset="0.5639" style="stop-color:#34424A"/>
	<stop  offset="0.9715" style="stop-color:#223239"/>
</linearGradient>
<polygon class="st21" points="1166.8,495.3 1134.2,480.9 1105.8,482.7 1076.5,466.5 1026.5,455.2 980.9,444.6 927.6,445.2 
	851.4,432.9 824,435.3 824,435.2 741.2,427.3 741.2,563.3 814.8,563.3 821.6,563.3 848.1,563.3 864.9,563.3 882.5,563.3 
	919.4,563.3 953.9,562.9 1036.3,546.2 1074,543 1108.1,535 1133.8,521.9 1156.2,519.2 1167.6,520.5 1195.2,518.5 1219.8,514 "/>
<polygon class="st22" points="2078.7,339.7 1531.4,339.7 1526,344 1531.4,348.2 1678.5,348.2 1676.7,351.9 1676.7,351.9 
	1684.2,357.7 2066.8,357.7 2084.1,344 "/>
<path class="st22" d="M1603.3,328.7l6.6-5.1h749c3.6,0,6.6,2.3,6.6,5.1l0,0c0,2.8-3,5.1-6.6,5.1h-749L1603.3,328.7z"/>
<polygon class="st22" points="767.5,335.2 1134.9,335.2 1141.2,330.7 1141.2,330.7 1134.9,326.2 767.5,326.2 761.1,330.7 
	761.1,330.7 "/>
<polygon class="st22" points="1485.8,300.3 1784.8,300.3 1793.1,294.5 1793.1,294.5 1784.8,288.6 1485.8,288.6 1477.4,294.5 
	1477.4,294.5 "/>
<path class="st22" d="M1875.2,293.3h539.3c3.2,0,5.9-1.7,5.9-3.7l0,0c0-2-2.7-3.7-5.9-3.7h-539.3l-5.9,3.7l0,0L1875.2,293.3z"/>
<polygon class="st22" points="2198.4,309.1 1726.5,309.1 1722.7,306.7 1722.7,306.7 1726.5,304.3 2198.4,304.3 2202.2,306.7 
	2202.2,306.7 "/>
<polygon class="st22" points="1266,297.7 1260.3,293.7 756,293.7 756,309.6 1088.4,309.6 1096.8,303.7 1096.4,301.7 1260.3,301.7 
	"/>
<g>
	<g>
		<defs>
			<rect id="SVGID_14_" x="757.1" y="-288" width="1780" height="850"/>
		</defs>
		<clipPath id="SVGID_15_">
			<use xlink:href="#SVGID_14_"  style="overflow:visible;"/>
		</clipPath>
		<g class="st23">
			<g>
				<g>
					
						<linearGradient id="SVGID_16_" gradientUnits="userSpaceOnUse" x1="14547.4424" y1="644.6306" x2="14552.0615" y2="588.6196" gradientTransform="matrix(-1 0 0 1 16546.832 0)">
						<stop  offset="0.2638" style="stop-color:#293942"/>
						<stop  offset="1" style="stop-color:#0F1B21"/>
					</linearGradient>
					<polygon class="st24" points="2184.5,568.4 2172.2,616 2118.7,633.9 1941.4,649.8 1882.8,644.9 1836,633 1808.6,622.3 
						1804.6,603.5 1836,502.3 2113.4,461.2 2177.5,484.2 					"/>
				</g>
				
					<linearGradient id="SVGID_17_" gradientUnits="userSpaceOnUse" x1="14556.165" y1="450.2459" x2="14554.9229" y2="603.0734" gradientTransform="matrix(-1 0 0 1 16546.832 0)">
					<stop  offset="0" style="stop-color:#4E5663"/>
					<stop  offset="0.2722" style="stop-color:#A6A8AB"/>
					<stop  offset="0.8094" style="stop-color:#A6A8AB"/>
					<stop  offset="0.9269" style="stop-color:#CFD0D2"/>
				</linearGradient>
				<polygon class="st25" points="2223.1,423.2 2230.8,459.7 2226.3,500.7 2213.8,543.5 2181.6,591.8 2134.2,610.7 2070.9,632.8 
					2039,616.8 1939.3,584.8 1907.9,584.8 1857.3,602.4 1836.5,619.3 1821.3,627.3 1803.7,625.8 1781.2,575 1750.7,461.2 
					1759.3,413.5 1779,403.2 1862.6,397.9 1924.4,453.1 2177.8,415.2 				"/>
				<g>
					
						<linearGradient id="SVGID_18_" gradientUnits="userSpaceOnUse" x1="1875.5245" y1="-3424.053" x2="1826.5442" y2="-3394.1064" gradientTransform="matrix(0.8368 -0.5475 0.5475 0.8368 2134.6272 4295.5913)">
						<stop  offset="0" style="stop-color:#929497"/>
						<stop  offset="1" style="stop-color:#293942"/>
					</linearGradient>
					<polygon class="st26" points="1822.5,468.5 1814.4,445.1 1810.1,418.1 1812.1,402.7 1808.7,396.7 1804.9,415.7 1808.9,446 
						1815.7,471.2 					"/>
					
						<linearGradient id="SVGID_19_" gradientUnits="userSpaceOnUse" x1="1929.9083" y1="-3524.3191" x2="1871.8751" y2="-3457.7808" gradientTransform="matrix(0.8223 -0.569 0.569 0.8223 2244.0215 4465.5752)">
						<stop  offset="0" style="stop-color:#5B3528"/>
						<stop  offset="0.17" style="stop-color:#5B3427"/>
						<stop  offset="0.2057" style="stop-color:#743A21"/>
						<stop  offset="0.2526" style="stop-color:#8F411C"/>
						<stop  offset="0.3006" style="stop-color:#A24517"/>
						<stop  offset="0.3499" style="stop-color:#AD4815"/>
						<stop  offset="0.4024" style="stop-color:#B14914"/>
						<stop  offset="0.5719" style="stop-color:#5B3528"/>
					</linearGradient>
					<polygon class="st27" points="1837.1,462.9 1844.2,482.7 1857.2,523.3 1812.3,533.7 1798.5,518.9 1787.2,492 1787.5,474.2 
						1824.6,460 					"/>
					
						<linearGradient id="SVGID_20_" gradientUnits="userSpaceOnUse" x1="2325.478" y1="-4097.7651" x2="2263.1694" y2="-4027.8047" gradientTransform="matrix(0.7678 -0.6407 0.6407 0.7678 2646.9338 5037.7534)">
						<stop  offset="0" style="stop-color:#CFD0D2"/>
						<stop  offset="1" style="stop-color:#293942"/>
					</linearGradient>
					<polygon class="st28" points="1783.9,402 1782.9,420.7 1783.8,440.6 1787.2,459.2 1792.1,472.9 1803,503.2 1827.6,490.9 
						1816.1,463.2 1811,450.7 1807.8,434.7 1806.2,415.5 1808.7,396.7 					"/>
					<g>
						
							<linearGradient id="SVGID_21_" gradientUnits="userSpaceOnUse" x1="2301.2244" y1="-4067.3704" x2="2284.8735" y2="-4084.488" gradientTransform="matrix(0.7678 -0.6407 0.6407 0.7678 2646.9338 5037.7534)">
							<stop  offset="0.2638" style="stop-color:#455A65"/>
							<stop  offset="1" style="stop-color:#0F1B21"/>
						</linearGradient>
						<polygon class="st29" points="1808.2,437 1784.4,443.5 1783.9,441.2 1807.8,434.7 						"/>
					</g>
					<g>
						
							<linearGradient id="SVGID_22_" gradientUnits="userSpaceOnUse" x1="2312.5898" y1="-4083.7185" x2="2296.6511" y2="-4100.4043" gradientTransform="matrix(0.7678 -0.6407 0.6407 0.7678 2646.9338 5037.7534)">
							<stop  offset="0.2638" style="stop-color:#455A65"/>
							<stop  offset="1" style="stop-color:#0F1B21"/>
						</linearGradient>
						<polygon class="st30" points="1806.5,416.7 1782.9,423.1 1782.9,420.7 1806.4,415.5 						"/>
					</g>
					<g>
						
							<linearGradient id="SVGID_23_" gradientUnits="userSpaceOnUse" x1="3269.7388" y1="-5061.8018" x2="3252.6096" y2="-5079.7339" gradientTransform="matrix(0.6238 -0.7816 0.7816 0.6238 3728.3506 6168.0278)">
							<stop  offset="0.2638" style="stop-color:#455A65"/>
							<stop  offset="1" style="stop-color:#0F1B21"/>
						</linearGradient>
						<polygon class="st31" points="1811.5,452.5 1787.7,461.2 1787.2,459.2 1811,450.7 						"/>
					</g>
					
						<linearGradient id="SVGID_24_" gradientUnits="userSpaceOnUse" x1="1919.1522" y1="-3524.5127" x2="1875.8027" y2="-3474.8103" gradientTransform="matrix(0.8223 -0.569 0.569 0.8223 2244.0215 4465.5752)">
						<stop  offset="0" style="stop-color:#283840"/>
						<stop  offset="1" style="stop-color:#0F1B21"/>
					</linearGradient>
					<polygon class="st32" points="1790,483 1827.6,469.6 1839.4,503.2 1826.1,525.5 1800.6,515.9 					"/>
				</g>
				<g>
					
						<linearGradient id="SVGID_25_" gradientUnits="userSpaceOnUse" x1="14471.0322" y1="514.45" x2="14561.4316" y2="514.45" gradientTransform="matrix(-1 0 0 1 16546.832 0)">
						<stop  offset="0" style="stop-color:#3B2314"/>
						<stop  offset="1" style="stop-color:#754C28"/>
					</linearGradient>
					<polygon class="st33" points="2068.4,467.2 2073.5,474.3 2075.8,482.6 2060.4,508.9 2066.6,532 2037.9,561.7 1988.4,543 
						1985.4,537.2 2032.6,549.7 2054,531.2 2048,505.6 					"/>
					
						<linearGradient id="SVGID_26_" gradientUnits="userSpaceOnUse" x1="14313.1318" y1="439.65" x2="14509.0322" y2="439.65" gradientTransform="matrix(-1 0 0 1 16546.832 0)">
						<stop  offset="0" style="stop-color:#929497"/>
						<stop  offset="1" style="stop-color:#293942"/>
					</linearGradient>
					<polygon class="st34" points="2226.3,418 2233.7,441.2 2230.8,459.7 2220.4,426.2 2178.1,416 2152.3,419.9 2129.6,427.1 
						2104,440.6 2082.6,456.2 2058.2,478.7 2050.2,477.7 2037.8,476.1 2077.6,432.2 2110.4,413.7 2138.8,404.9 2170.4,400.6 
						2202.5,406.7 					"/>
					
						<linearGradient id="SVGID_27_" gradientUnits="userSpaceOnUse" x1="14523.4053" y1="547.9846" x2="14512.2158" y2="463.1821" gradientTransform="matrix(-1 0 0 1 16546.832 0)">
						<stop  offset="0" style="stop-color:#0F1B21"/>
						<stop  offset="0.17" style="stop-color:#5B3427"/>
						<stop  offset="0.1821" style="stop-color:#683827"/>
						<stop  offset="0.2245" style="stop-color:#924625"/>
						<stop  offset="0.2679" style="stop-color:#B45124"/>
						<stop  offset="0.3118" style="stop-color:#CF5A23"/>
						<stop  offset="0.3564" style="stop-color:#E26023"/>
						<stop  offset="0.4022" style="stop-color:#ED6422"/>
						<stop  offset="0.4509" style="stop-color:#F16522"/>
						<stop  offset="0.7779" style="stop-color:#404041"/>
					</linearGradient>
					<polygon class="st35" points="2068.4,467.2 2073.5,474.3 2052.8,507.7 2061,531 2035.9,556.2 1985.4,537.2 1986.2,524.3 
						1994.6,501.1 2015.3,467.2 2026.4,462.2 					"/>
					
						<linearGradient id="SVGID_28_" gradientUnits="userSpaceOnUse" x1="14320.5322" y1="443.45" x2="14526.0322" y2="443.45" gradientTransform="matrix(-1 0 0 1 16546.832 0)">
						<stop  offset="0" style="stop-color:#FFFFFF"/>
						<stop  offset="1" style="stop-color:#293942"/>
					</linearGradient>
					<polygon class="st36" points="2145.9,397.2 2114.1,402.2 2089,414.1 2066.4,427.7 2048.9,446.2 2031.9,465.2 2020.8,485.6 
						2043.1,489.7 2080.5,448.7 2095.8,434.3 2122,420.3 2152.8,410.2 2179.4,407.2 2226.3,418 2189.9,401.2 					"/>
					
						<linearGradient id="SVGID_29_" gradientUnits="userSpaceOnUse" x1="14539.7725" y1="515.7631" x2="14502.0771" y2="476.3006" gradientTransform="matrix(-1 0 0 1 16546.832 0)">
						<stop  offset="0.2638" style="stop-color:#455A65"/>
						<stop  offset="1" style="stop-color:#0F1B21"/>
					</linearGradient>
					<polygon class="st37" points="2061.2,478.5 2021.8,472.9 2003.4,503.2 2010.2,517.9 2038.1,510.7 					"/>
					<g>
						<polygon class="st38" points="2176.3,407.5 2179.4,407.2 2145.5,397.2 2143.3,397.7 						"/>
					</g>
					<g>
						<polygon class="st38" points="2150.4,411.1 2152.8,410.2 2114.1,402.2 2112.4,403.1 						"/>
					</g>
					<g>
						<polygon class="st38" points="2120.1,421.3 2121.7,420.5 2090.4,413.5 2088.5,414.5 						"/>
					</g>
					<g>
						<polygon class="st38" points="2094,436.1 2095.8,434.3 2066.4,427.7 2065.2,429.2 						"/>
					</g>
					<g>
						<polygon class="st38" points="2078.6,451.1 2080.5,448.7 2051.3,443.6 2049.7,445.3 						"/>
					</g>
				</g>
				<g id="left_arm_3_">
					
						<linearGradient id="SVGID_30_" gradientUnits="userSpaceOnUse" x1="14779.624" y1="1233.4723" x2="14582.0693" y2="1354.2577" gradientTransform="matrix(-0.9939 -0.1105 -0.1105 0.9939 16531.2168 861.026)">
						<stop  offset="0" style="stop-color:#F2C086"/>
						<stop  offset="9.101394e-02" style="stop-color:#BBB3AE"/>
						<stop  offset="0.3157" style="stop-color:#CACCCE"/>
						<stop  offset="0.7498" style="stop-color:#9EA0A3"/>
					</linearGradient>
					<polygon class="st39" points="1780.4,409.2 1779,403.2 1753.9,414.1 1737.8,430.3 1723.9,461.2 1719.7,520.5 1723,556.2 
						1741.3,588.8 1768.3,610.2 1811.7,629.5 1862,625.3 1912.5,604.8 1959.2,568.5 1920.2,535 1896.8,509.2 1844.9,499.3 
						1822.7,502.2 1799.9,508.2 1791.3,482.1 1787.2,465.7 1783.8,440.6 1783.2,414.6 					"/>
					
						<linearGradient id="SVGID_31_" gradientUnits="userSpaceOnUse" x1="14658.582" y1="-35.2176" x2="14743.8008" y2="-35.2176" gradientTransform="matrix(-0.9968 8.036253e-02 8.036253e-02 0.9968 16501.8516 -631.2833)">
						<stop  offset="0" style="stop-color:#794D3A"/>
						<stop  offset="1" style="stop-color:#36444C"/>
					</linearGradient>
					<polygon class="st40" points="1886.4,506.9 1825,530.9 1801.8,511 1802.4,504.2 1886.5,501.1 					"/>
					
						<linearGradient id="SVGID_32_" gradientUnits="userSpaceOnUse" x1="14695.9121" y1="-51.3311" x2="14738.3926" y2="-17.64" gradientTransform="matrix(-0.9968 8.036253e-02 8.036253e-02 0.9968 16501.8516 -631.2833)">
						<stop  offset="0" style="stop-color:#5B3427"/>
						<stop  offset="6.183575e-02" style="stop-color:#663827"/>
						<stop  offset="0.1709" style="stop-color:#844126"/>
						<stop  offset="0.3142" style="stop-color:#B45124"/>
						<stop  offset="0.4737" style="stop-color:#F16522"/>
						<stop  offset="0.6685" style="stop-color:#F28F3F"/>
						<stop  offset="0.8876" style="stop-color:#ED693C"/>
						<stop  offset="1" style="stop-color:#E83E39"/>
					</linearGradient>
					<polygon class="st41" points="1860.5,486.2 1802.4,504.2 1825.5,524.2 1886.5,501.1 					"/>
					<g>
						
							<linearGradient id="SVGID_33_" gradientUnits="userSpaceOnUse" x1="16041.3311" y1="434.1759" x2="15981.7939" y2="456.7588" gradientTransform="matrix(-0.8525 -4.484851e-03 -6.155488e-03 1.1701 15395.2881 3.6908)">
							<stop  offset="0" style="stop-color:#CE9179"/>
							<stop  offset="0.6433" style="stop-color:#929497"/>
							<stop  offset="1" style="stop-color:#293942"/>
						</linearGradient>
						<polygon class="st42" points="1779,403.2 1752.6,425.2 1744,440.3 1741,445.7 1737.6,457.5 1727.2,494.7 1720.5,510.3 
							1717.1,508.7 1721.3,470.6 1734.7,434.1 1755.9,408.2 						"/>
						
							<linearGradient id="SVGID_34_" gradientUnits="userSpaceOnUse" x1="17322.4414" y1="434.1311" x2="17259.5547" y2="457.9848" gradientTransform="matrix(-0.7379 -3.882011e-03 -6.155459e-03 1.1701 14501.6562 -1.01)">
							<stop  offset="0" style="stop-color:#F2C086"/>
							<stop  offset="8.108176e-02" style="stop-color:#F3A98C"/>
							<stop  offset="0.1841" style="stop-color:#D37A6D"/>
							<stop  offset="0.4658" style="stop-color:#CFD0D2"/>
							<stop  offset="0.7773" style="stop-color:#CCD1D0"/>
						</linearGradient>
						<polygon class="st43" points="1772.2,404.7 1749.7,423.1 1740.8,437.6 1734.3,453.6 1723.9,491.7 1717.1,508.7 1715.3,503.9 
							1720.5,471.2 1731.5,437.3 1743.7,418.7 1755.9,408.2 						"/>
					</g>
					
						<linearGradient id="SVGID_35_" gradientUnits="userSpaceOnUse" x1="14610.7324" y1="555.55" x2="14699.5322" y2="555.55" gradientTransform="matrix(-1 0 0 1 16546.832 0)">
						<stop  offset="0" style="stop-color:#4E5663"/>
						<stop  offset="1" style="stop-color:#A6A8AB"/>
					</linearGradient>
					<polygon class="st44" points="1936.1,586.4 1905.4,561.7 1867.7,514.2 1847.3,522.2 1887,568.3 1922.8,596.9 					"/>
				</g>
				<g id="right_arm_3_">
					
						<linearGradient id="SVGID_36_" gradientUnits="userSpaceOnUse" x1="14362.0801" y1="587.9098" x2="14605.6289" y2="424.9839" gradientTransform="matrix(-1 0 0 1 16546.832 0)">
						<stop  offset="0" style="stop-color:#F2C086"/>
						<stop  offset="9.101394e-02" style="stop-color:#947F7E"/>
						<stop  offset="0.3157" style="stop-color:#CFD0D2"/>
						<stop  offset="0.7166" style="stop-color:#A6A8AB"/>
						<stop  offset="0.7463" style="stop-color:#AAACAF"/>
						<stop  offset="0.8691" style="stop-color:#B5B7B9"/>
						<stop  offset="1" style="stop-color:#B9BBBD"/>
					</linearGradient>
					<path class="st45" d="M2223.3,493.7l-11.9,31.9l-34.7,46.3l-51.7,27l-65,28.4l-86.5-10.7l-68.2-54.9l-35.9-45.9l-30.1-22.9
						l19.4-6.8l51.5-17.5l36.3,10.4l101.1,17.8l9.2-18.5l28.3-30.8c0,0,39-22.2,52.7-25.4c13.6-3.2,47.7-3.7,47.7-3.7l37.7,34.1
						L2223.3,493.7L2223.3,493.7z"/>
					<polygon class="st46" points="1895.2,549.3 1944.2,586.9 1974.9,607.2 2057.1,619.5 2137.5,592.3 2125.1,598.9 2060,627.3 
						1973.5,616.7 1905.4,561.7 					"/>
					
						<linearGradient id="SVGID_37_" gradientUnits="userSpaceOnUse" x1="14600.2324" y1="506.55" x2="14707.832" y2="506.55" gradientTransform="matrix(-1 0 0 1 16546.832 0)">
						<stop  offset="0" style="stop-color:#293942"/>
						<stop  offset="1" style="stop-color:#0F1B21"/>
					</linearGradient>
					<path class="st47" d="M1946.6,478.7c0,0-17.2,8.4-31.6,27.9c-12.4,16.7-19.8,42.6-19.8,42.6l-27.4-34.8l-28.8-21.6l32.2-25.6
						l37.9-3.3L1946.6,478.7z"/>
					
						<linearGradient id="SVGID_38_" gradientUnits="userSpaceOnUse" x1="2001.6575" y1="4243.6484" x2="2085.4514" y2="4243.6484" gradientTransform="matrix(0.8356 0.5493 -0.5493 0.8356 2618.5334 -4168.0083)">
						<stop  offset="0" style="stop-color:#3B2314"/>
						<stop  offset="1" style="stop-color:#754C28"/>
					</linearGradient>
					<polygon class="st48" points="1973.3,478.5 1946.8,497.7 1946.7,504.7 2018.5,525.9 2043,503.9 2043,496 					"/>
					
						<linearGradient id="SVGID_39_" gradientUnits="userSpaceOnUse" x1="1968.5673" y1="4168.7363" x2="2037.8308" y2="4201.75" gradientTransform="matrix(0.841 0.5411 -0.5411 0.841 2575.6907 -4105.5039)">
						<stop  offset="0" style="stop-color:#5B3427"/>
						<stop  offset="0.1638" style="stop-color:#914625"/>
						<stop  offset="0.3408" style="stop-color:#C55723"/>
						<stop  offset="0.4745" style="stop-color:#E56122"/>
						<stop  offset="0.5481" style="stop-color:#F16522"/>
						<stop  offset="0.7011" style="stop-color:#F28F3F"/>
						<stop  offset="0.8876" style="stop-color:#ED693C"/>
						<stop  offset="1" style="stop-color:#E83E39"/>
					</linearGradient>
					<polygon class="st49" points="1973.3,478.5 1946.8,497.7 2018.5,518 2043,496 					"/>
				</g>
				<g>
					<g id="neck_tube_3_">
						
							<linearGradient id="SVGID_40_" gradientUnits="userSpaceOnUse" x1="14778.6602" y1="390.5145" x2="14337.9814" y2="412.3302" gradientTransform="matrix(-1 0 0 1 16546.832 0)">
							<stop  offset="0.2638" style="stop-color:#293942"/>
							<stop  offset="1" style="stop-color:#29373E"/>
						</linearGradient>
						<polygon class="st50" points="1762.6,375.2 1777.7,397.5 1780.4,409.2 1786.4,420.7 1793.5,428.2 1796.3,440.5 1817.2,455.2 
							1853.2,453.7 1909.1,464.1 1931.8,471.2 2033.1,455.3 2084.9,429.3 2131.9,408.3 2170.1,402.3 2203.4,408 2220.3,415.2 
							2206.9,397.6 2214.7,370.2 2203.6,363.9 2193.8,339 2190.5,355.9 2124.8,372.2 1869,381.9 1811.7,375.2 						"/>
						
							<linearGradient id="SVGID_41_" gradientUnits="userSpaceOnUse" x1="14522.0322" y1="405.2" x2="14680.4316" y2="405.2" gradientTransform="matrix(-1 0 0 1 16546.832 0)">
							<stop  offset="0" style="stop-color:#293942"/>
							<stop  offset="1" style="stop-color:#0F1B21"/>
						</linearGradient>
						<polygon class="st51" points="1866.4,399.3 1896.7,405.2 1949.9,411.7 1984.8,410.7 2013.9,404.2 2024.8,398.7 2003.1,400.2 
							1987.6,404.9 1943.9,404.5 1900.6,402.2 						"/>
						
							<linearGradient id="SVGID_42_" gradientUnits="userSpaceOnUse" x1="14412.6318" y1="417.4" x2="14594.832" y2="417.4" gradientTransform="matrix(-1 0 0 1 16546.832 0)">
							<stop  offset="0" style="stop-color:#293942"/>
							<stop  offset="1" style="stop-color:#162329"/>
						</linearGradient>
						<polygon class="st52" points="2074.3,400.7 2014.9,405.9 1971.4,421 1952,434.1 1972.6,433.6 2012.3,423.6 2034.8,424 
							2104.2,417.9 2134.2,405.7 						"/>
						
							<linearGradient id="SVGID_43_" gradientUnits="userSpaceOnUse" x1="14499.4316" y1="451.5" x2="14677.332" y2="451.5" gradientTransform="matrix(-1 0 0 1 16546.832 0)">
							<stop  offset="0" style="stop-color:#293942"/>
							<stop  offset="1" style="stop-color:#0F1B21"/>
						</linearGradient>
						<polygon class="st53" points="2047.4,448.1 2010,450.9 1979,449.1 1943.5,453.3 1869.5,439 1896.1,450.7 1937.3,464 
							2033.1,455.3 						"/>
						
							<linearGradient id="SVGID_44_" gradientUnits="userSpaceOnUse" x1="14676.832" y1="411.05" x2="14756.832" y2="411.05" gradientTransform="matrix(-1 0 0 1 16546.832 0)">
							<stop  offset="0" style="stop-color:#293942"/>
							<stop  offset="1" style="stop-color:#0F1B21"/>
						</linearGradient>
						<polygon class="st54" points="1790,392.9 1843.8,415.2 1870,429.2 1834.9,418.2 1815.4,410.2 						"/>
					</g>
				</g>
				<g id="space_yeti">
					<path class="st55" d="M1733.5-35l130.4-26.7L2034.6-14l108.6,88l-15,120.3l-89.8,43.4l-34.2,87.4l-51.1,4.1l-111.4-1.1
						l-82.4-14.2l-2.9-0.5c-36-38.8-67.7-115-67-191c0.4-40.8,3.9-73,18.4-106L1733.5-35z"/>
					
						<linearGradient id="SVGID_45_" gradientUnits="userSpaceOnUse" x1="14745.2598" y1="173.1" x2="14770.7246" y2="173.1" gradientTransform="matrix(-1 0 0 1 16546.832 0)">
						<stop  offset="0.339" style="stop-color:#0D1D24"/>
						<stop  offset="0.7571" style="stop-color:#322E2F"/>
					</linearGradient>
					<polygon class="st56" points="1801.6,169.3 1801.6,182.1 1776.7,177 1776.2,164.1 					"/>
					
						<linearGradient id="SVGID_46_" gradientUnits="userSpaceOnUse" x1="316.4978" y1="-18.1256" x2="413.4458" y2="-18.1256" gradientTransform="matrix(1 9.884079e-03 -9.884079e-03 1 1429.0698 -73.2802)">
						<stop  offset="0" style="stop-color:#4E5663"/>
						<stop  offset="0.5816" style="stop-color:#0D1C21"/>
					</linearGradient>
					<path class="st57" d="M1781.4-158.8c0.6-11.6-7.4-11.6-14.7-0.1c-8.1,12.6-16.3,33.3-18.6,44.3c-8.7,41.7,7.2,77.3,49,105.9
						c0.1,0,0.1,0.1,0.2,0.1l0,0c0.1,0.1,0.1,0.1,0.2,0.2c2.7,1.9,14.9-11.1,27.2-28.9c12.3-17.9,20-33.9,17.3-35.8
						c-0.2-0.1-0.4-0.2-0.6-0.2C1811.1-94,1779.4-121.4,1781.4-158.8z"/>
					
						<linearGradient id="SVGID_47_" gradientUnits="userSpaceOnUse" x1="14325.3945" y1="443.237" x2="14792.5107" y2="443.237" gradientTransform="matrix(-1 -9.884079e-03 -9.884079e-03 1 16548.248 76.1606)">
						<stop  offset="0" style="stop-color:#C9A170"/>
						<stop  offset="9.506252e-02" style="stop-color:#B2675C"/>
						<stop  offset="0.356" style="stop-color:#273D44"/>
						<stop  offset="0.4692" style="stop-color:#3A484E"/>
						<stop  offset="0.6233" style="stop-color:#4D5458"/>
						<stop  offset="0.7821" style="stop-color:#585B5E"/>
						<stop  offset="0.9513" style="stop-color:#5C5D60"/>
					</linearGradient>
					<path class="st58" d="M2218.7,354.9l-0.2,18.5c-0.1,15.1-104.8,26.2-233.8,25s-233.4-14.5-233.3-29.6l0.2-18.5L2218.7,354.9z"
						/>
					
						<linearGradient id="SVGID_48_" gradientUnits="userSpaceOnUse" x1="14807.9824" y1="420.2411" x2="14318.6553" y2="420.2411" gradientTransform="matrix(-1 -9.884079e-03 -9.884079e-03 1 16548.248 76.1606)">
						<stop  offset="0" style="stop-color:#929592"/>
						<stop  offset="0.3887" style="stop-color:#7B797A"/>
						<stop  offset="1" style="stop-color:#273D44"/>
					</linearGradient>
					<path class="st59" d="M1751.6,350.2c-0.1,15.1,104.3,28.3,233.3,29.6c129,1.3,233.7-9.9,233.8-25s-104.3-28.3-233.3-29.6
						C1856.5,324,1751.8,335.2,1751.6,350.2z"/>
					
						<linearGradient id="SVGID_49_" gradientUnits="userSpaceOnUse" x1="14707.0674" y1="192.274" x2="14829.5254" y2="214.1416" gradientTransform="matrix(-1 -9.884079e-03 -9.884079e-03 1 16548.248 76.1606)">
						<stop  offset="0" style="stop-color:#0F1B21"/>
						<stop  offset="1" style="stop-color:#293942"/>
					</linearGradient>
					<polygon class="st60" points="1756,313.2 1748.4,236.2 1813.9,186.3 1810.8,124.6 1810.9,114.7 1758,73.4 1727.6,40.8 
						1711.7,13.5 1709.1,7.5 1713.1,-8.9 1746,-53.2 1833.8,-129.4 1968.7,-162.7 2084.7,-109.6 2224.6,7.3 2219.2,144.9 
						2150.3,286.7 2037.3,353.7 1919.9,362.7 					"/>
					
						<linearGradient id="SVGID_50_" gradientUnits="userSpaceOnUse" x1="14331.6504" y1="413.2412" x2="14773.6748" y2="413.2412" gradientTransform="matrix(-1 -9.884079e-03 -9.884079e-03 1 16548.248 76.1606)">
						<stop  offset="0" style="stop-color:#F2C086"/>
						<stop  offset="9.101394e-02" style="stop-color:#D37A6D"/>
						<stop  offset="0.3157" style="stop-color:#CFD0D2"/>
						<stop  offset="0.9595" style="stop-color:#A6A8AB"/>
						<stop  offset="0.9637" style="stop-color:#B5ADA3"/>
						<stop  offset="0.9723" style="stop-color:#D0B596"/>
						<stop  offset="0.9812" style="stop-color:#E3BB8D"/>
						<stop  offset="0.9903" style="stop-color:#EEBF87"/>
						<stop  offset="1" style="stop-color:#F2C085"/>
					</linearGradient>
					<path class="st61" d="M2206.1,323.6l-0.3,27.2c-0.1,11.6-98.1,20-218.9,18.8c-120.8-1.2-218.6-11.5-218.5-23.1l0.3-27.2
						l37.8,5.9l36.6,4.3L2206.1,323.6z"/>
					<path class="st62" d="M2097.7,301.7c66,5.1,108.4,12.3,108.3,19.9s-42.5,13.9-108.3,17.4V301.7z"/>
					
						<linearGradient id="SVGID_51_" gradientUnits="userSpaceOnUse" x1="14323.876" y1="350.5433" x2="14773.6367" y2="350.5433" gradientTransform="matrix(-1 -9.884079e-03 -9.884079e-03 1 16548.248 76.1606)">
						<stop  offset="0" style="stop-color:#F2C086"/>
						<stop  offset="9.101394e-02" style="stop-color:#C68269"/>
						<stop  offset="0.3157" style="stop-color:#CFD0D2"/>
						<stop  offset="0.9673" style="stop-color:#A6A8AB"/>
					</linearGradient>
					<path class="st63" d="M1845.3,340.2l159.7-8.6l14.7-38.1l22.3-58.1l44.1-21.6l50-18.7l78.3,56l-17.3,26.3
						c0,0-28.5,29.3-39,39.1l-28.5,7.1l-24.4,5.7l-5.6,9.5c77.8-3.9,106.4-11.9,106.5-17.3l-0.3,29.1
						c-0.1,11.6-98.1,22.6-218.9,21.4c-120.8-1.2-218.6-10.4-218.5-22l0.3-30.9C1768.7,320.2,1844.6,339.2,1845.3,340.2z"/>
					
						<linearGradient id="SVGID_52_" gradientUnits="userSpaceOnUse" x1="14309.3418" y1="-83.79" x2="14529.8604" y2="74.0318" gradientTransform="matrix(-1 -9.884079e-03 -9.884079e-03 1 16548.248 76.1606)">
						<stop  offset="0" style="stop-color:#F2C086"/>
						<stop  offset="8.108176e-02" style="stop-color:#F3A98C"/>
						<stop  offset="0.1841" style="stop-color:#A79189"/>
						<stop  offset="0.6682" style="stop-color:#BDBFC1"/>
						<stop  offset="0.8462" style="stop-color:#CCD1D0"/>
						<stop  offset="1" style="stop-color:#A6A8AB"/>
					</linearGradient>
					<path class="st64" d="M2160.5,54.2L1899.6-91.5l-110.7-4.1c24.6-56.7,104.5-88.8,195-83.9c153.1,8.4,278.4,140,276.9,293.3
						C2260.5,144.8,2160.5,54.2,2160.5,54.2z"/>
					
						<linearGradient id="SVGID_53_" gradientUnits="userSpaceOnUse" x1="14286.6426" y1="-21.6604" x2="14390.749" y2="-21.6604" gradientTransform="matrix(-1 -9.884079e-03 -9.884079e-03 1 16548.248 76.1606)">
						<stop  offset="0" style="stop-color:#6C6F71"/>
						<stop  offset="0.4266" style="stop-color:#4E5663"/>
						<stop  offset="1" style="stop-color:#0D1C21"/>
					</linearGradient>
					<path class="st65" d="M2225.6-163.2c0.3-10.3,7.7-11.6,15.6,0.2c9.3,13.9,16.5,35.6,18.7,47.3c8.3,44.3-9.2,81.6-54,111.1
						c-0.1,0-2.1,1.4-2.2,1.5c-2.9,1.9-18.3-11.1-30.9-30.2c-12.6-19.2-17.4-37.1-14.4-39c0.2-0.1,1.8-1.5,2-1.5
						C2192.7-95.3,2224.5-123.4,2225.6-163.2z"/>
					
						<linearGradient id="SVGID_54_" gradientUnits="userSpaceOnUse" x1="14337.5674" y1="363.604" x2="14439.291" y2="363.604" gradientTransform="matrix(-1 -9.884079e-03 -9.884079e-03 1 16548.248 76.1606)">
						<stop  offset="0.4162" style="stop-color:#4E5663"/>
						<stop  offset="0.6682" style="stop-color:#273D44"/>
						<stop  offset="1" style="stop-color:#273D44"/>
					</linearGradient>
					<path class="st66" d="M2207.6,262c0,0-8.3,48.1-9.2,53.4s-1,5.1-4.2,6.5c-3.9,1.6-13.2,3.3-22.7,4.7
						c-18.8,2.8-66.3,6.5-66.3,6.5v-3.7c0,0,41.2-11.7,59-23.3C2189.1,289.7,2207.6,262,2207.6,262z"/>
					
						<linearGradient id="SVGID_55_" gradientUnits="userSpaceOnUse" x1="14757.6162" y1="-23.0566" x2="14622.0781" y2="196.2897" gradientTransform="matrix(-1 0 0 1 16546.832 0)">
						<stop  offset="0" style="stop-color:#273D44"/>
						<stop  offset="0.2046" style="stop-color:#BE918A"/>
						<stop  offset="0.3735" style="stop-color:#C7C9CB"/>
						<stop  offset="0.687" style="stop-color:#CCD1D0"/>
					</linearGradient>
					<path class="st67" d="M1824.7,4l-27.1-8.2l-33.9,10.9l25.2,19.3l-31.4,5.8l-15.2,17.9l25.5,11.4l9.4,11.4
						c0,0,14.1,75.2,15.5,116.3s-3.2,133.9-3.2,133.9l49.7,7.7h108.9l50.8-5.8l32.9-97.8l36.5-17.5c0,0,12.1-81.3,11.3-91.7
						c-0.8-10.4-15.5-41.3-18.1-45.3c-3.2-4.8-27.1-22.7-27.1-22.7s-44.3-27.1-59.9-33.3s-27.7-7.4-27.7-7.4l-106.4-30.5L1824.7,4z"
						/>
					
						<radialGradient id="SVGID_56_" cx="14619.7207" cy="203.0098" r="184.9707" gradientTransform="matrix(-1 -9.884079e-03 -9.884079e-03 1 16548.248 76.1606)" gradientUnits="userSpaceOnUse">
						<stop  offset="0" style="stop-color:#0F1B21;stop-opacity:0"/>
						<stop  offset="0.6763" style="stop-color:#0F1B21;stop-opacity:0.6512"/>
						<stop  offset="0.7582" style="stop-color:#19272E;stop-opacity:0.7396"/>
						<stop  offset="0.8865" style="stop-color:#24343B;stop-opacity:0.8777"/>
						<stop  offset="1" style="stop-color:#283840"/>
					</radialGradient>
					<path class="st68" d="M2067.1,219.2c0,0,14-91.3,12.6-101.6s-14.5-39.9-18.1-45.3c-3.6-5.4-27.1-22.7-27.1-22.7
						s-45.6-27.4-59.9-33.3s-62.8-16.7-62.8-16.7l-67.9-3.2L1824.7,4c0,0-19.9-3.1-28.6-3.1s-32.4,5.9-32.4,5.9l25.2,19.3l-31.4,5.8
						l-15.2,17.9l25.5,11.4l9.4,11.4l3.1,18.2L1758,73.4l-30.5-32.6l-15.9-27.3l-1.7-3.9l14.9-36.3l54.4-28.2l61.8-6.2l37.7,1.7
						l33.5,2.6l55,16.8l162.9,65l6,47.2l-14.3,124.1L2067.1,219.2z"/>
					<g class="st2">
						<polygon class="st69" points="1881,295.3 1873.8,301.6 1864.1,285.9 1863.4,286.9 1872.7,309.2 1881.6,304.5 1892.8,314.2 
							1912.9,305.5 1918.2,312.2 1938.7,283.2 1921,298.9 1914.9,294.2 1893.7,304.7 						"/>
					</g>
					
						<linearGradient id="SVGID_57_" gradientUnits="userSpaceOnUse" x1="14532.7109" y1="-168.491" x2="14680.2559" y2="-62.8955" gradientTransform="matrix(-1 -9.884079e-03 -9.884079e-03 1 16548.248 76.1606)">
						<stop  offset="0" style="stop-color:#F2C086"/>
						<stop  offset="1" style="stop-color:#F1F1F2"/>
					</linearGradient>
					<path class="st70" d="M1938-173.2l-51.8,12.7l-31.8,18.1l-45.3,47.5l-20.2-0.7c24.6-56.7,104.5-88.8,195-83.9
						c2.4,0.1,4.8,0.3,7.2,0.5L1938-173.2z"/>
					<g class="st5">
						<path class="st71" d="M1835.8,206.3c-6.1,0-11.7,1.1-15.9,2.8c-0.2,0-0.5,0.1-0.7,0.1c-6-5.1-10-14.6-10-25.6
							c0-16.3,9-29.5,20-29.5s20,13.2,20,29.5c0,9.3-2.9,17.6-7.5,23C1839.8,206.6,1837.8,206.3,1835.8,206.3z"/>
						
							<linearGradient id="SVGID_58_" gradientUnits="userSpaceOnUse" x1="14701.96" y1="182.6" x2="14723.9199" y2="182.6" gradientTransform="matrix(-1 0 0 1 16546.832 0)">
							<stop  offset="0" style="stop-color:#293942"/>
							<stop  offset="1" style="stop-color:#0F1B21"/>
						</linearGradient>
						<ellipse class="st72" cx="1833.9" cy="182.6" rx="11" ry="18"/>
						<ellipse class="st71" cx="1838" cy="169.3" rx="4.1" ry="6.8"/>
					</g>
					<g class="st2">
						<path class="st71" d="M1953.8,210c-3.5,0-6.8,0.2-10,0.6c-5.3-6.7-8.6-16.2-8.6-26.8c0-20.1,11.8-36.4,26.4-36.4
							s26.4,16.3,26.4,36.4c0,12.4-4.5,23.3-11.3,29.8C1970.4,211.3,1962.5,210,1953.8,210z"/>
						
							<linearGradient id="SVGID_59_" gradientUnits="userSpaceOnUse" x1="14562.9043" y1="182.7" x2="14591.4414" y2="182.7" gradientTransform="matrix(-1 0 0 1 16546.832 0)">
							<stop  offset="0" style="stop-color:#293942"/>
							<stop  offset="1" style="stop-color:#0F1B21"/>
						</linearGradient>
						<ellipse class="st73" cx="1969.7" cy="182.7" rx="14.3" ry="21"/>
						<ellipse class="st71" cx="1976.2" cy="167.7" rx="5.3" ry="7.9"/>
					</g>
					<path class="st69" d="M1957.9,118.1c-10.3,1.4-19.4,5.3-26.3,10.6c3.4-11.3,12.7-20.1,24.7-21.7c12-1.7,23.4,4.2,29.7,14.1
						C1978,117.9,1968.2,116.6,1957.9,118.1z"/>
					
						<linearGradient id="SVGID_60_" gradientUnits="userSpaceOnUse" x1="14697.9316" y1="131.0754" x2="14741.832" y2="131.0754" gradientTransform="matrix(-1 0 0 1 16546.832 0)">
						<stop  offset="0" style="stop-color:#A0A2A4"/>
						<stop  offset="1" style="stop-color:#9D867B"/>
					</linearGradient>
					<path class="st74" d="M1828.6,130.7c-8.3-2.2-16.5-1.7-23.6,0.8c6.6-9.2,16.8-14.1,26.5-11.6s16.2,11.8,17.4,23
						C1843.9,137.2,1836.9,132.8,1828.6,130.7z"/>
					<path class="st75" d="M1927.3,264.2c1.5-0.5-22.9,0-61.3-7.2c0,0,0.3-3.1-0.1-6.5c-0.2-2.1-0.7-4.2-1.7-6
						c0,0-3.4,12.8-6.8,15.2c0,0,7.3,7.2,26,10.4c0,0-10.2-4.5-14.4-7.7C1869.1,262.5,1911.3,270,1927.3,264.2z"/>
					<path class="st76" d="M1815.2,324.6l-11.6-1.8l-14-2.7c0,0,1.9-33.2,2.8-73.9c0.4,3,0.8,6,1.3,8.9
						C1798.5,286.6,1805.3,312.7,1815.2,324.6z"/>
					
						<radialGradient id="SVGID_61_" cx="14593.4609" cy="188.6978" r="156.2983" gradientTransform="matrix(-1 0 0 1.4143 16546.832 -77.6133)" gradientUnits="userSpaceOnUse">
						<stop  offset="0" style="stop-color:#E6E7E8"/>
						<stop  offset="0.17" style="stop-color:#E3E4E5"/>
						<stop  offset="0.3163" style="stop-color:#D8DBDC"/>
						<stop  offset="0.4538" style="stop-color:#C6CBCD"/>
						<stop  offset="0.586" style="stop-color:#ADB5B7"/>
						<stop  offset="0.7143" style="stop-color:#8D989C"/>
						<stop  offset="0.8398" style="stop-color:#66757A"/>
						<stop  offset="0.9607" style="stop-color:#384C52"/>
						<stop  offset="1" style="stop-color:#273D44"/>
					</radialGradient>
					<path class="st77" d="M2014.5,241.6l17.2-40.6l10.3-47.4l4.1-42.7l-12.5-34.2l-12.2-18l-22.3-17.4l-22.3-14.9l-30-17.3
						c0,0,3.9,0.5,8.8,1.7c3,0.7,6.5,1.9,9.4,2.7c9,2.5,16.6,6.3,16.6,6.3l15.5,8.3l37.4,21.7c0,0,24.9,18.6,27.1,22.7
						c2.2,4.1,16.8,32.8,18.1,45.3c1.3,12.5-11.3,91.7-11.3,91.7l-36.5,17.5l-32.3,95.9l-32.7,4.7l-27.3,1.1l39.5-23.3L2014.5,241.6
						z"/>
					<polygon class="st76" points="1871.4,17.2 1846.5,30.4 1812.6,56.8 1814.8,27.8 1819.8,4.9 1825.3,-2.1 1875.3,11.5 1881,14.2 
											"/>
					<g>
						
							<linearGradient id="SVGID_62_" gradientUnits="userSpaceOnUse" x1="14747.46" y1="71.479" x2="14627.1475" y2="94.241" gradientTransform="matrix(-1 -9.884079e-03 -9.884079e-03 1 16548.248 76.1606)">
							<stop  offset="0" style="stop-color:#F2C086"/>
							<stop  offset="8.108176e-02" style="stop-color:#F3A98C"/>
							<stop  offset="0.1841" style="stop-color:#DF9283"/>
							<stop  offset="0.4658" style="stop-color:#CFD0D2"/>
						</linearGradient>
						<path class="st78" d="M1868.9,15.2c0,0-18.3,4.2-27.7,9.3s-28,22.7-28,22.7s1.7-28.5,3.7-34.2c2.4-6.8,5.7-18.1,14.3-27.8
							c3.2-3.6,15.4-15,15.4-15s37,6.1,44.8,7.2c12.5,1.7,55.5,31.7,55.5,31.7"/>
					</g>
					<g class="st5">
						
							<linearGradient id="SVGID_63_" gradientUnits="userSpaceOnUse" x1="14751.3564" y1="193.2976" x2="14480.3447" y2="193.2976" gradientTransform="matrix(-1 0 0 1 16546.832 0)">
							<stop  offset="0" style="stop-color:#E6968B"/>
							<stop  offset="0.4658" style="stop-color:#A4A7A9"/>
							<stop  offset="0.7085" style="stop-color:#A8ACAD"/>
							<stop  offset="0.9757" style="stop-color:#293942"/>
						</linearGradient>
						<path class="st79" d="M1856.8,173.7c0,0,3.9,1.2,6.3,3.4l6.6,4.2l12.7-3.6l0,0c1.1-0.3,2.3-0.5,3.6-0.5
							c6.2,0,14.3,4.6,14.3,4.6l4.5,26.1c0,0,2.4,8.7,6.8,13.7s12.1,6.8,12.1,6.8l37,5.2c0,0,18.4-0.5,28.1-1.5s19.3-5.4,21.2-11.2
							s9.1-34.4,9.1-34.4l1.9-12.5l5.6,0.3l45.7,8.4l2.2-13.2l-34.7-6.9c0,0-40-6.8-63.3-8.7c-60.7-4.9-77.2,11.7-77.2,11.7
							s-6.6-1-12.8-1c-6.2,0-13.4,2.4-13.4,2.4s-20.8-6.9-30.8-7.8c-10-1-28.9-0.2-28.9-0.2l-16.5,2.8l-5.9,1.3l1.1,12.4
							c7-4.4,23.8-7,23.8-7s15.1-0.2,24.4,1.2C1849.6,171,1856.8,173.7,1856.8,173.7z M1911.7,173.7c0.8-2,12.3-4.4,12.3-4.4
							s25.8-6.1,44.5-5.6s34.7,6,34.7,6s5.1,2.3,5.1,7.6c0.1,5.3-8.1,34-9.1,37.3c-1.5,4.8-9.8,6.6-9.8,6.6l-27.6,1.7
							c0,0-35.3-3.6-40.2-7s-6.8-12.6-7.6-19.6C1913.1,189.3,1910.8,175.7,1911.7,173.7z"/>
						
							<linearGradient id="SVGID_64_" gradientUnits="userSpaceOnUse" x1="14760.9336" y1="228.5432" x2="14650.5059" y2="194.0553" gradientTransform="matrix(-1 0 0 1 16546.832 0)">
							<stop  offset="0" style="stop-color:#E6968B"/>
							<stop  offset="0.4658" style="stop-color:#A4A7A9"/>
							<stop  offset="0.7085" style="stop-color:#A8ACAD"/>
							<stop  offset="0.9757" style="stop-color:#293942"/>
						</linearGradient>
						<path class="st80" d="M1793,208.3c1,1.3,9,4.5,10.1,5.1c9.2,5.5,41.1,9.4,50.6,0.2c0.1-0.1,8.7-6.9,8.8-7.1l-5.3,17.8
							c-4.1,0.9-15.8,2.7-15.8,2.7s-11.5,1-17.5,0.6c-4.8-0.3-25-4.7-31.1-6.9L1793,208.3z"/>
					</g>
					
						<linearGradient id="SVGID_65_" gradientUnits="userSpaceOnUse" x1="14475.0576" y1="18.0699" x2="14779.3291" y2="18.0699" gradientTransform="matrix(-0.9997 2.462571e-02 2.462571e-02 0.9997 16545.625 -190.3642)">
						<stop  offset="0.339" style="stop-color:#0D1D24"/>
						<stop  offset="0.7571" style="stop-color:#322E2F"/>
					</linearGradient>
					<path class="st81" d="M1770.8,162c-1.4,1.8,2.2,9.2,2.2,9.2l4.6,6.4c0,0,4.6,19.1,6.2,23.1s5.2,11.3,9,14.4
						c2.6,2.1,20.4,6.6,26.5,7s17.5-0.6,17.5-0.6s14.1-1.4,18.8-5.4c4.6-4.1,6-7.2,7.9-11.7s7.3-28.7,7.3-28.7s4.4-3.9,10.6-3.9
						s14.3,4.6,14.3,4.6l6.7,26.5c0,0,1.1,9.3,5.5,14.3s7.1,5.5,13.5,7.4s20.7,3.6,32.2,3.6s20.5-0.9,28.1-1.5s19.7-5.3,22.7-16.2
						c1.6-5.9,6.4-18.7,7.6-29.3c0.7-6.6,1.9-12.5,1.9-12.5l5.6,0.3l53.7,9.5l1.7-12.8c0,0-27.2-5.6-38.4-7.2
						c-13.6-2-22.5-3.8-30.5-5.2c-12.1-2.2-22.1-5.2-36.2-6.3c-60.7-4.9-73,13.8-73,13.8s-10.2-2.2-16.4-2.2
						c-6.2,0-12.1,3.1-12.1,3.1s-14.9-6.8-24.8-8.3c-12.8-2-24.4-2-36.2-1.1s-29.1,6.4-29.1,6.4S1772.2,160.2,1770.8,162z
						 M1907,168.3c0.9-2,8.5-5.3,13.3-6.4c4.8-1.1,22.2-4.2,40.9-3.6c18.7,0.6,34.7,6,34.7,6s4.1,1.5,3.9,6.9
						c-0.5,11.7-5.7,31.5-6.8,34.7c-3.2,9.1-14,10.1-14,10.1l-24.5,1.5c0,0-30.1,0.1-36.1-4.2c-4.8-3.4-6.6-15.5-8.4-22.7
						C1908.2,183.7,1905.5,171.5,1907,168.3z M1787.2,179.3c-1.3-5.9-2.7-8.9,2.7-11.6c5.1-2.6,12.9-4.2,21.8-5
						c8.1-0.7,14.6-0.8,23.9,0.6c9.4,1.3,16.4,5,16.4,5s7.7,2.5,8.3,6.5c0.6,4.1-5.1,27.3-11.3,33.3c-9.5,9.2-41.4,5.3-50.6-0.2
						C1791.8,203.9,1789,187.6,1787.2,179.3z"/>
					<path class="st55" d="M1733.5-35l130.4-26.7L2034.6-14l108.6,88l-15,120.3l-89.8,43.4l-34.2,87.4l-51.1,4.1l-111.4-1.1
						l-82.4-14.2l-2.9-0.5c-36-38.8-67.7-115-67-191c0.4-40.8,3.9-73,18.4-106L1733.5-35z"/>
					
						<linearGradient id="SVGID_66_" gradientUnits="userSpaceOnUse" x1="14800.2109" y1="330.5962" x2="14412.875" y2="337.26" gradientTransform="matrix(-1 -9.884079e-03 -9.884079e-03 1 16548.248 76.1606)">
						<stop  offset="0.3806" style="stop-color:#293942"/>
						<stop  offset="1" style="stop-color:#1F2C32"/>
					</linearGradient>
					<path class="st82" d="M2120.2,184.5l-88.3,42.3l-32.3,95.9c0,0-34,4.2-60,5.9c-26,1.7-73.8,0.4-99.8-1.1s-83.6-14.4-83.6-14.4
						l12.9,21.2c0,0,44.2,11.6,72.7,13.8c28.6,2.2,76,4,111.2,2c35.2-1.9,68.5-4.2,68.5-4.2l32.7-106.3l96.5-45.3L2120.2,184.5z"/>
					
						<linearGradient id="SVGID_67_" gradientUnits="userSpaceOnUse" x1="14484.6445" y1="770.9514" x2="14631.5391" y2="770.9514" gradientTransform="matrix(-0.9619 -9.226510e-02 -9.727631e-02 1.0142 16263.8145 700.1709)">
						<stop  offset="0.2638" style="stop-color:#455A65"/>
						<stop  offset="1" style="stop-color:#19262C"/>
					</linearGradient>
					<path class="st83" d="M2198.4,21.7c5,0.2,18.6,1.2,18.6,1.2l12.2,16.4c19.9,21.9,31,62.6,26.7,107.8c-4.1,43-21.2,79.3-43.2,98
						l-6.7,8.2c0,0-26.7,3.9-31.7,3.5c-38.2-3.7-62.5-57.8-59.5-123.2C2117.8,67.8,2160.1,20.4,2198.4,21.7z"/>
					
						<linearGradient id="SVGID_68_" gradientUnits="userSpaceOnUse" x1="14977.1787" y1="640.9895" x2="15138.2334" y2="756.3723" gradientTransform="matrix(-0.8946 -7.587446e-02 -8.664025e-02 0.9962 15751.8193 576.5587)">
						<stop  offset="0" style="stop-color:#F2C086"/>
						<stop  offset="7.202049e-02" style="stop-color:#F2C085"/>
						<stop  offset="0.1461" style="stop-color:#E2B39B"/>
						<stop  offset="0.2024" style="stop-color:#DAACA6"/>
						<stop  offset="0.223" style="stop-color:#D9AEA8"/>
						<stop  offset="0.5077" style="stop-color:#D2C7C7"/>
						<stop  offset="0.6682" style="stop-color:#CFD0D2"/>
						<stop  offset="0.7264" style="stop-color:#C4C7C9"/>
						<stop  offset="0.8282" style="stop-color:#A7AEB2"/>
						<stop  offset="0.9608" style="stop-color:#78858D"/>
						<stop  offset="0.9974" style="stop-color:#6A7982"/>
					</linearGradient>
					<path class="st84" d="M2144.2,132.2c-6.1,63.7,17.6,118,53,121.4s69-45.5,75.1-109.1s-17.6-118-53-121.4
						C2184,19.7,2150.3,68.6,2144.2,132.2z"/>
					
						<linearGradient id="SVGID_69_" gradientUnits="userSpaceOnUse" x1="14367.5381" y1="138.3907" x2="14294.1133" y2="149.6292" gradientTransform="matrix(-1 0 0 1 16546.832 0)">
						<stop  offset="0" style="stop-color:#4D6370"/>
						<stop  offset="1" style="stop-color:#212E34"/>
					</linearGradient>
					<path class="st85" d="M2225.7,88.3l-1.2,12.3c15.2,1.5,25.7,22.4,23.4,46.7c-2.3,24.3-16.6,42.9-31.8,41.4l-1.2,12.3
						c-19.5-1.9-32.9-28.6-29.9-59.8S2206.2,86.4,2225.7,88.3z"/>
					
						<linearGradient id="SVGID_70_" gradientUnits="userSpaceOnUse" x1="14688.0566" y1="26.2378" x2="14241.8701" y2="26.2378" gradientTransform="matrix(-1.0216 -1.009815e-02 -9.884084e-03 0.9999 16716.9551 77.8308)">
						<stop  offset="0" style="stop-color:#5B3528"/>
						<stop  offset="1" style="stop-color:#19262C"/>
					</linearGradient>
					<path class="st86" d="M1883.1-153.7c140.7-13.9,250.9,76.3,291.1,182.4c-14.5,5.9-26.6,43.7-26.6,43.7l-11.4,0.4
						c0,0-3.4-0.3-3.4-0.4c-68.2-73-162.9-120.8-294-122.1c-30.2-0.3-76.7,6.4-110.5,25.6l-0.1,0.1l-7.8,14.6l-8,14.8l-2.1,4.4
						c0,0-8.3-12.6-4.4-24.3C1727.3-72.2,1791.4-144.7,1883.1-153.7z"/>
					
						<linearGradient id="SVGID_71_" gradientUnits="userSpaceOnUse" x1="14306.5742" y1="194.7561" x2="14606.1357" y2="-70.9412" gradientTransform="matrix(-1.0216 -1.009815e-02 -9.884084e-03 0.9999 16716.9551 77.8308)">
						<stop  offset="0" style="stop-color:#273D44"/>
						<stop  offset="0.4874" style="stop-color:#F16522"/>
						<stop  offset="0.6685" style="stop-color:#F28F3F"/>
						<stop  offset="0.8876" style="stop-color:#ED693C"/>
						<stop  offset="1" style="stop-color:#E83E39"/>
					</linearGradient>
					<path class="st87" d="M1883.2-161.5c140.7-13.9,261.2,83.1,301.4,189.1c-16.2,9.6-26.7,24.8-37,44.9
						c-68.8-77-170.9-130-306.4-131.3c-21.8-0.2-53.5,3.9-82.2,13.4c-12.4,4.1-24.2,9.3-34.5,15.5c-8.7,5.3-20.3,17.2-19.2,27.8
						c-5-11.9,3.8-25.1,8.2-33.4C1742.4-89.8,1803.6-153.7,1883.2-161.5z"/>
					
						<linearGradient id="SVGID_72_" gradientUnits="userSpaceOnUse" x1="14657.875" y1="-12.5707" x2="14843.666" y2="-12.5707" gradientTransform="matrix(-1 -9.884079e-03 -9.884079e-03 1 16548.248 76.1606)">
						<stop  offset="5.668016e-02" style="stop-color:#F16522"/>
						<stop  offset="1" style="stop-color:#F3DDBD"/>
					</linearGradient>
					<path class="st88" d="M1713.4-35.5c28.2-54.3,88.1-118.2,166-126c4-0.4,8-0.7,11.9-0.9c0,0-65.2,21.5-104.1,56.7
						c-38.5,34.8-53.8,70.7-53.8,70.7c-3.2,1.6-6.2,3.3-9.1,5.2c-8.5,5.3-19.9,17.2-18.8,27.8C1700.5-14,1709.1-27.2,1713.4-35.5z"
						/>
					<path class="st89" d="M1711,8.1l17-32.1l7.8-4.3l10.4-4.6l-20.4,41.1c-14.6,33.4-21.4,69.4-21.8,110.8
						c-0.8,77,31.4,154.2,67.9,193.5l4,4.8l-15.6-3.2l-4.3-1c-36.5-39.3-67.6-117.3-66.9-194.2C1689.6,77.5,1696.4,41.5,1711,8.1z"
						/>
				</g>
				<g>
					
						<linearGradient id="SVGID_73_" gradientUnits="userSpaceOnUse" x1="14324.0771" y1="516.8694" x2="14430.5215" y2="458.7529" gradientTransform="matrix(-1 0 0 1 16546.832 0)">
						<stop  offset="0" style="stop-color:#F3A98C"/>
						<stop  offset="0.8597" style="stop-color:#929497"/>
						<stop  offset="1" style="stop-color:#6E7482"/>
					</linearGradient>
					<path class="st90" d="M2202.2,523c7.9-9.4,12.9-16.6,15.6-30.6c2.7-14,5.9-27.7,1.9-40.2s-5.5-15.7-12.8-22
						c-7.3-6.3-11-8.7-20.6-10.7s-17.2-1.7-27.5,1.7c-12.5,4.1-22.2,16.2-29.9,28.6c-7.6,12.5-12.3,20.3-15.5,41.2
						c-3.2,20.9,3.1,37.1,7.9,44.9c4.8,7.8,11.6,13.9,22.7,15.3c13.1,1.6,23.2-2.1,31.9-6.5C2184.5,540.3,2194.3,532.3,2202.2,523z"
						/>
					
						<linearGradient id="SVGID_74_" gradientUnits="userSpaceOnUse" x1="14317.4658" y1="516.8757" x2="14423.9102" y2="458.7592" gradientTransform="matrix(-1 0 0 1 16546.832 0)">
						<stop  offset="0" style="stop-color:#E8CFBE"/>
						<stop  offset="0.6682" style="stop-color:#D0D2D3"/>
						<stop  offset="0.9974" style="stop-color:#BEB0AD"/>
					</linearGradient>
					<path class="st91" d="M2208.8,523c7.9-9.4,12.9-16.6,15.6-30.6s5.9-27.7,1.9-40.2s-5.5-15.7-12.8-22c-7.3-6.3-11-8.7-20.6-10.7
						c-9.7-2-17.2-1.7-27.5,1.7c-12.5,4.1-22.2,16.2-29.9,28.6c-7.6,12.5-12.3,20.3-15.5,41.2c-3.2,20.9,3.1,37.1,7.9,44.9
						s11.6,13.9,22.7,15.3c13.1,1.6,23.2-2.1,31.9-6.5C2191.2,540.3,2200.9,532.3,2208.8,523z"/>
				</g>
				<g>
					
						<linearGradient id="SVGID_75_" gradientUnits="userSpaceOnUse" x1="2241.5205" y1="196.129" x2="2300.0837" y2="196.129" gradientTransform="matrix(1.0102 -5.115486e-02 0.1058 1.0536 -136.261 395.0413)">
						<stop  offset="0" style="stop-color:#4F5764"/>
						<stop  offset="0.6682" style="stop-color:#293942"/>
						<stop  offset="1" style="stop-color:#0F1C20"/>
					</linearGradient>
					<path class="st92" d="M2158.6,475.7c9.8-18.9,24.6-30.3,38.4-23.5c5.8,2.9,8.8,8,9.5,13.9l-8.2,6.7c-0.7-4.8-2.2-8.3-6.6-10.5
						c-7.9-3.8-17.7,4-23.7,15.4c-0.3,0.4-0.7,1.2-0.9,1.9c4.5-3.2,11.9-5.8,17.4-3c8.4,4.2,12,15.1,4.7,29
						c-6.5,12-18.3,18.6-28.7,13.5C2146.4,512.2,2149,494,2158.6,475.7z M2180.3,502.1c4.3-8,1.6-14.1-3.4-16.5
						c-4-1.9-9.4-1-14.1,2.6c-3.4,7.2-4.9,16.9,2.3,20.5C2171,511.9,2177.5,507.2,2180.3,502.1z"/>
				</g>
			</g>
		</g>
	</g>
	<g>
		<defs>
			<rect id="SVGID_76_" x="757.1" y="-288" width="1780" height="850"/>
		</defs>
		<clipPath id="SVGID_77_">
			<use xlink:href="#SVGID_76_"  style="overflow:visible;"/>
		</clipPath>
		
			<linearGradient id="SVGID_78_" gradientUnits="userSpaceOnUse" x1="11400.4238" y1="418.0563" x2="11659.0674" y2="-321.6015" gradientTransform="matrix(-1 0 0 -1 13526.832 270)">
			<stop  offset="0" style="stop-color:#4E5663"/>
			<stop  offset="0.6682" style="stop-color:#283841"/>
			<stop  offset="1" style="stop-color:#0F1B21"/>
		</linearGradient>
		<path class="st93" d="M1756.9,313.7l12.5,20.6l-0.1,6.5c-10.8,3-16.8,6.4-16.9,10l-0.2,18.5c0,2.2,2.1,4.3,6.1,6.3
			c2.4,1.4,4.9,2,6.9,2.8l13.2,19.6l1.3,5.8h-0.1l-6.8,1.5l0,0l-16.3,3.6l-12.2,10.4L1732,438l-10.9,33.9l-5.2,32.6l1.8,4.8l3.3,1.7
			l-0.7,10.2l3.4,35.6l18.3,32.6l0.6,0.5l-0.6-0.3c0,0,25.5,20.2,26.1,20.7c0,0,0.2,0.1,0.5,0.3l0.4,0.3l10.2,4.6
			c4.3,1.9,9.2,4.2,14,6.4l1,14.3l8.3,5.7l2.9,48.9l7.7,51.5l2.3,40.1l-10.9,9.9l-0.2,3.7l-9.4,10.6l-5.7,7.3h-3.2l-13,16.9
			l-2.3,19.7l9.2,18.4l29,7.9l6.8-0.2l32.4-1l23.7-10.8v-1.5l42.2-20.2l33.4-25.9l2.8-44.8l4.7-24.7l0.3-0.1l4.8-17.9l7-11.3
			l14.4,0.2l15.6,40.9l15.2,46.3l-0.5,0.1l-5.1,11.4l1,2.6l0.8-2.5l-2.9,8.8L1995,852l-1.4,0.4l-5.8,15.3l5.9,21.6l18.3,13.6
			l0.6,0.2v0.2l6.1,1.5l23.5,6.6l4.1-0.4l3-0.2v-0.1l27-2.9v0.1l2-0.3l3-0.3l31.1-9.4l12.1-16.2l9.2-10.5l14.2-19.4l10.3-18
			l5.1-58.9l1.3-26.8h-0.2l7.5-56.4l0.6-51.9l0.3-0.1l7.6-4.5V608l-4.9-1.7l3.3-12.6l3.5-1.4l32.2-48.2l12.5-42.9l4.4-41l2.9-18.4
			l-7.4-23.2l-6.2-2.9l-13.3-17.6l5.1-18.1c4.2-1.9,6.5-3.5,6.5-6.2l0.2-16.6c0-1.6,0.6-3.3-1.1-4.5c-1.6-1.9-6.9-4.6-11.6-6.4
			l0.1-20.8c0,0,0-2.1-0.2-4.2c-0.5-1.4-2.2-2.9-7.6-5c1.4-8.2,9.4-53.9,9.4-53.9s-0.9,1.3-2.5,3.6l9.3-14.3l0,0
			c28.2-10.8,53.7-50.8,58.4-103.6c1.1-12.7,1.1-25.1,0-36.7c-1.9-26.3-9-49.2-19.8-65c-5.4-22.5-15-47-25.5-67.3
			c17.9-17.3,29.3-34.3,32.6-55.2c2.4-12.3,2.3-25.4-0.2-39.1c-2.2-11.7-9.4-33.5-18.7-47.3c-7.9-11.8-15.3-10.5-15.6-0.2
			c0,0.2,0,0.3,0,0.5c-0.6,1.3-1,3.1-1,5.2c-0.1,2.8-0.3,5.6-0.7,8.3c-5.5,25.1-23.3,45-44.2,61.4c-48.6-51.1-115.2-85.3-188.7-91.2
			c-2.4-0.2-4.8-0.4-7.2-0.5c-14.1-0.8-28-0.6-41.5,0.3c-8.1,0.6-16,1.5-23.7,2.7c-2.6,0.4-5.1,0.8-7.7,1.3
			c-15.2,2.8-29.6,6.8-42.8,11.8c-2.2,0.8-4.4,1.7-6.5,2.6c-3.1,1.3-6.1,2.7-9.1,4.1c-23.3,6.4-44.6,17.6-63.5,31.6
			c-1.6-3.1-3.1-6.3-4.2-9.6c-1.1-5.1-1.6-10.3-1.3-15.8c0.2-4.1-0.7-6.7-2.2-7.9c0-0.2,0-0.3,0-0.5c0.6-11.6-7.4-11.6-14.7-0.1
			c-8.1,12.6-16.3,33.3-18.6,44.3c-2.2,10.5-2.8,20.6-1.9,30.3c-13.4,16-24.5,32.7-32.8,48.7c-4.3,8.3-12.9,21.5-8,33.4v-0.1v0.1
			l0,0c1.1,5.1,3.3,9.2,4.2,10.9l0.4,0.8l0.2,0.4c-1.6,3.7-3.1,7.4-4.5,11.1c-9.2,22.5-13.4,44.9-15.2,70.1
			c-0.8,9-1.2,18.2-1.3,27.7c-0.1,7.4,0.2,14.8,0.6,22.2c2.6,45,15.9,88.9,33.8,124c0.3,0.6,0.6,1.2,0.9,1.7
			c0.2,0.3,0.3,0.6,0.5,0.9C1735.3,286.2,1745.9,301.7,1756.9,313.7z M1768.7,61.6l-25.5-11.4l15.2-17.9l31.4-5.8l-25.2-19.3
			l33.9-10.9l23,6.9c2.1-5.3,5.2-11.4,10.5-17.5c0.3-0.3,0.6-0.7,1-1.1c0.1-0.1,0.2-0.2,0.3-0.3c0.4-0.4,0.9-0.9,1.3-1.4l0,0l0,0
			c4.7-4.8,12.7-12.2,12.7-12.2s37,6.1,44.8,7.2c12.5,1.7,55.5,31.7,55.5,31.7s12.1,1.2,27.7,7.4s59.9,33.3,59.9,33.3
			s24,17.9,27.1,22.7c2.6,4,17.3,34.9,18.1,45.3c0.8,10.4-11.3,91.7-11.3,91.7l-36.5,17.5l-32.9,97.8l-50.8,5.8H1840l-49.7-7.7
			c0,0,4.6-92.8,3.2-133.9S1778,73.2,1778,73.2L1768.7,61.6z"/>
	</g>
</g>
</svg>
