<?xml version="1.0" encoding="utf-8"?>
<!-- Generator: Adobe Illustrator 19.2.0, SVG Export Plug-In . SVG Version: 6.00 Build 0)  -->
<svg version="1.1" id="Layer_1" xmlns="http://www.w3.org/2000/svg" xmlns:xlink="http://www.w3.org/1999/xlink" x="0px" y="0px"
	 width="512px" height="462px" viewBox="0 0 512 462" style="enable-background:new 0 0 512 462;" xml:space="preserve">
<style type="text/css">
	.st0{fill:#2CADBE;}
</style>
<g>
	<path class="st0" d="M358.9,155.1l24.5-3.3l39.2,10.9l27.5,21.7l7.7,34.4V231c0,0-18.8-0.2-20.6-2.1c-1.8-1.9-41.1-15.5-41.1-15.5
		L362.3,182l-11.2-26.9H358.9z"/>
	<g>
		<g>
			<path d="M351.4,287.4c3.6,1.8,7.1,3.8,10.9,5.3c4.8,1.9,10.1,2.5,15.2,3.1c10.9,1.3,21.8,1.5,32.6-0.4
				c18.8-3.2,37.1-13.6,46.5-30.8c18.1-32.8,9.3-80.2-22.7-101c-17.5-11.3-38.9-12.7-59-15.4c-5.9-0.8-5.8,8.5,0,9.2
				c15.7,2.1,32.4,3.1,46.8,10.1c14.8,7,25.7,19.7,30.8,35.2c5.2,16.1,5,34.2-0.7,50.1c-6,16.4-20.1,27.5-36.7,32
				c-10.7,3-21.8,3.2-32.8,2.2c-5-0.4-10.1-1-15-2.4c-4-1.2-7.6-3.4-11.3-5.2C350.7,276.7,346,284.8,351.4,287.4L351.4,287.4z"/>
		</g>
	</g>
	<g>
		<g>
			<path d="M369.3,150.1c-30.8-4.3-51.1,30.9-54,56.9c-3.3,28.7,2.4,65.1,30.9,79.2c3.8,1.9,7.2-3.9,3.3-5.7
				c-12.7-6.4-20.5-17-24.3-30.5c-3.5-12.3-4.6-25.7-3.7-38.4c0.9-13.6,4.9-26.4,13.2-37.2c7.5-10,19.5-19.7,32.8-17.9
				C371.7,157,373.5,150.6,369.3,150.1L369.3,150.1z"/>
		</g>
	</g>
	<g>
		<g>
			<path d="M351.7,156.3c-2.9,11.8,7.5,23,14.7,31.2c7.7,8.8,16.6,16.6,26.4,23.1c19.9,13.4,43.1,21.4,67,23.1c3.4,0.3,3.4-5,0-5.3
				c-21.6-1.5-42.5-8.5-60.8-20.1c-9.2-5.7-17.6-12.7-25-20.5c-3.7-3.9-7.1-7.9-10.2-12.1c-3.8-5.1-8.5-11.3-6.8-17.9
				C357.7,154.4,352.5,153,351.7,156.3L351.7,156.3z"/>
		</g>
	</g>
	<g>
		<g>
			<path d="M337.9,212.7c-0.1-0.2-0.1-0.4-0.2-0.4c-0.3,0.9-0.4,1.7-0.7,2.6c0.2-0.1,0.4-0.3,0.4-0.4c-1.1,0.2-2.2,0.3-3.2,0.4
				c1.3,0.7,1.3,6.6,1.7,8.1c0.6,2.3,1.8,4.3,3.7,5.7c4.7,3.7,12.1,3.9,17.7,4.8c3.7,0.6,7.3,1.3,10.9,1.9c2,0.3,4.2,0.4,5.7-1.3
				c1.8-1.9,1.7-5.4,2.1-7.7c0.6-3.9,1.3-7.7,2-11.7c0.3-1.4-0.4-2.8-1.9-3.2c-12.7-4.1-25.8-5.2-39-3.3c-3.3,0.4-2,5.6,1.4,5.1
				c12.2-1.7,24.5-0.4,36.3,3.3c-0.6-1.1-1.3-2.2-1.9-3.2c-0.4,2.8-0.9,5.6-1.3,8.3c-0.3,1.7-0.5,3.3-0.8,5
				c-0.1,0.7-0.3,3.1-0.5,3.5c-0.7,0.7-6.7-1-8-1.3c-3.1-0.5-6.2-1.1-9.2-1.6c-5.1-0.9-10.8-1.1-12.1-7.1c-0.7-3.2-0.4-8.3-3.8-10.1
				c-1.2-0.6-2.2-0.4-3.2,0.4c-0.2,0.1-0.4,0.3-0.4,0.4c-0.6,0.5-1,1.8-0.7,2.6c0.1,0.2,0.1,0.4,0.2,0.4
				C334,217.3,339.2,215.9,337.9,212.7L337.9,212.7z"/>
		</g>
	</g>
	<g>
		<g>
			<path d="M370,226.4c8.3,2.2,16.9,4,25.4,5.4c3.3,0.5,4.8-4.6,1.4-5.1c-8.6-1.3-17.1-3.1-25.4-5.4
				C368.1,220.4,366.7,225.5,370,226.4L370,226.4z"/>
		</g>
	</g>
	<g>
		<g>
			<path d="M396.3,217.4c-2,5.5-3.6,11.1-4.5,16.9c-0.6,3.9,0.2,6.8,3.6,9c7.9,5.1,19.2,7.1,27.9,3.2c6.3-2.8,13.9-11.1,8.4-18
				c-2.8-3.6-8.3-4.8-12.5-6.2c-5.9-2-12-3.3-18.1-4.4c-3.3-0.5-4.8,4.6-1.4,5.1c7.3,1.2,14.4,3,21.4,5.5c3.2,1.2,8.1,2.4,6.7,6.8
				c-1.1,3.5-5,5.8-8.2,6.8c-5.9,2-15.7,1.1-20.7-3.1c-3.2-2.6-1.8-6.2-0.9-9.8c0.8-3.6,2-7.2,3.2-10.7
				C402.6,215.6,397.5,214.2,396.3,217.4L396.3,217.4z"/>
		</g>
	</g>
	<g>
		<g>
			<path d="M359.6,246.2c0.2,10.9,7.3,21,17.6,24.8c10.9,4,23.4,0.1,31.2-8.2c2.3-2.5-1.3-6.2-3.8-3.8c-6.3,6.6-16,10.1-24.9,7.3
				c-8.6-2.8-14.7-11-14.9-20C364.8,242.8,359.5,242.8,359.6,246.2L359.6,246.2z"/>
		</g>
	</g>
	<g>
		<g>
			<path d="M363.1,219c-0.2-3.3-3.6-5.7-6.6-4.2c-2.6,1.3-4.1,6.3-0.4,7.4c1.4,0.4,3.1-0.4,3.9-1.6c0.9-1.6,0.3-3.6-1.3-4.5
				c-1.3-0.7-3.2-0.4-4.4,0.6c-1.3,1.3-1.4,3.1-1,4.7c0.4,1.3,1.9,2.2,3.2,1.9c0.8-0.3,1.6-0.5,2.4-0.7c1.3-0.4,2.2-1.9,1.9-3.2
				c-0.4-1.3-1.9-2.2-3.2-1.9c-0.8,0.3-1.6,0.5-2.4,0.7c1.1,0.6,2.2,1.3,3.2,1.9c-0.1-0.4-0.1-0.4-0.1-0.2c0,0.2-0.2,0.4-0.4,0.5
				c-0.2,0.4-0.5,0.6-1.1,0.6c1-2.8,0.8-4-0.6-3.9c0.4,0,0.9,0,1.4,0c0.1,0.1,0.3,0.1,0.4,0.2c0.4,0.4,0.6,0.6,1,1
				c0.4,0.5,0.3,0.9,0,1.3c0.2-0.4,0.1-0.1-0.2,0.1c-0.4,0.2-0.9-0.1-0.9-0.5c0.1,1.4,1.2,2.7,2.7,2.7
				C361.9,221.7,363.2,220.4,363.1,219L363.1,219z"/>
		</g>
	</g>
	<g>
		<g>
			<path d="M410.5,229.3c-1.5-1.3-3.5-1.5-5.3-0.6c-1.3,0.7-2.5,2.1-2.8,3.5c-0.2,1-0.1,2.1,0.4,3c0.7,1.3,2.1,1.5,3.4,1.4
				c2.2-0.2,3.9-1.3,5.1-3.2c0.7-1.2,0.3-3-1-3.6c-1.3-0.7-2.9-0.4-3.6,1c-0.2,0.3-0.1,0.2,0.1,0c-0.1,0.1-0.2,0.2-0.3,0.4
				c-0.2,0.2-0.2,0.1,0,0c-0.1,0-0.5,0.4-0.3,0.2c0.3-0.2-0.7,0.2-0.4,0.1s-0.1,0-0.2,0c-0.2,0-0.4,0-0.5,0c0.7,0.4,1.5,0.9,2.2,1.3
				c-0.2-0.3-0.1-0.2,0.1,0.2c0,0.4,0.1,0.5,0,0.3c0,0.4-0.2,0.5,0,0.1c-0.2,0.4-0.2,0.4-0.1,0.3c0-0.1,0.1-0.2,0.1-0.2
				c-0.3,0.4-0.3,0.4-0.1,0.2c0.2-0.2,0.2-0.2,0,0c-0.4,0.1,0.3,0,0.3-0.2c0,0.2-0.6,0.2,0,0.1c-0.4,0.1-0.5,0.1-0.3,0.1
				c-0.2,0-0.3,0-0.4-0.1c0.3,0.1,0.2,0-0.2-0.1c0.3,0.2,0.2,0.1-0.2-0.1c1,0.9,2.8,1.1,3.8,0C411.5,232,411.7,230.3,410.5,229.3
				L410.5,229.3z"/>
		</g>
	</g>
	<g>
		<g>
			<path d="M425.6,243.1c10.9,2.2,21.2,5.8,30.9,11.2c3,1.6,5.7-3,2.7-4.6c-10.1-5.6-20.8-9.5-32.1-11.8
				C423.7,237.3,422.3,242.4,425.6,243.1L425.6,243.1z"/>
		</g>
	</g>
	<g>
		<g>
			<path d="M338.4,214.9c-5.2-2.4-10.7-3.5-16.3-3c-3.4,0.3-3.4,5.6,0,5.3c4.8-0.4,9.3,0.3,13.6,2.2
				C338.7,220.9,341.4,216.3,338.4,214.9L338.4,214.9z"/>
		</g>
	</g>
</g>
<g>
	<polygon class="st0" points="120.9,190.3 117.9,200.7 108,216.3 80.6,240.5 53.7,250.2 49,206.9 67.3,174.9 103.8,154.9 
		131.3,158.3 164.3,171.8 191.4,208.1 195.2,239.3 177.2,236.7 152.8,223.8 127.9,200.4 	"/>
	<g>
		<g>
			<path d="M99.7,282.6c-15.1-5.5-26.6-16.4-35-29.9c-7.5-12.1-13-26.6-12.1-41.1c0.9-14.4,10.1-27.5,20.4-36.9
				c10.9-9.9,24.8-16.4,39.6-16.6c4.5-0.1,4.5-7.1,0-7c-25.7,0.3-49.5,17.6-61.1,39.9c-12,23.3-3.7,50.5,10.9,70.7
				c9.2,12.7,20.6,22.2,35.4,27.5C102.1,290.9,103.9,284.2,99.7,282.6L99.7,282.6z"/>
		</g>
	</g>
	<g>
		<g>
			<path d="M119.6,160.8c13.7,1.8,27,6.6,38.5,14.4c5.7,3.9,10.8,8.4,15.3,13.6c3.9,4.3,8.9,9.7,10.9,15.3c2,5.7,1.8,12.3,1.7,18.2
				c-0.1,5.7,0.1,12-1.3,17.6c-3.7,14.9-18.3,27.5-30.8,35.3c-16.3,10.4-35.6,12.2-53.8,6c-6-2.1-8.6,7.4-2.6,9.5
				c17.9,6.1,37.9,5.2,54.9-3.3c8.3-4.1,15.6-9.9,22.3-16.2c6.5-6,12.7-12.8,16.5-20.9c3.3-7,3.9-14.1,4.3-21.6
				c0.4-7.4,0.5-14.8-0.6-22.2c-1.2-7.4-4.9-12.9-9.4-18.7c-4.8-6.2-10.2-11.8-16.3-16.6c-14.4-11.5-31.4-17.9-49.5-20.3
				C113.4,150.2,113.5,160,119.6,160.8L119.6,160.8z"/>
		</g>
	</g>
	<g>
		<g>
			<path d="M116.7,187.4c2.3,8.4-2,16-7.3,22.3c-5.2,6.2-11.2,11.8-17.1,17.3c-11.7,10.9-24.2,18-40,20.5c1.2,0.9,2.3,1.8,3.6,2.7
				c0-12.6-3.8-24.9-3.7-37.4c0.1-12.5,6.8-22.3,15.1-31.1c7.8-8.3,17.1-16,27.4-21c9.6-4.7,21.1-4.4,31.4-2.5
				c10.4,1.9,20.7,5.4,29.8,10.9c10.2,6.2,17.9,15.4,24.9,24.9c3.1,4.3,6.3,8.7,9.4,13c3.5,4.9,2.2,10.6,2.2,16.3
				c-0.1,3.9,1.6,8.7,0.6,12.5c-1.4,5.5-14.4-1.6-17.8-3.1c-22.3-10.1-42.2-25.3-53.3-47.6c-1.6-3.2-6.5-0.4-4.8,2.9
				c11.3,22.6,31.4,38.7,54.1,49c6.9,3.1,24.4,12.8,27.3,0.3c1.2-5.1-0.6-10.7-0.4-15.8s1-11-1.8-15.7c-3.4-5.7-7.9-11-11.8-16.4
				c-3.9-5.3-8.1-10.5-12.7-15.1c-8.8-8.5-19.4-14.4-31-18.3c-11.5-3.9-24.1-5.9-36.2-4.1c-11.8,1.7-22.1,8.9-31.1,16.4
				c-10.5,8.7-22.3,20.6-25.6,34.2c-3.9,15.7,2.5,31.9,2.4,47.7c0,2,1.8,3,3.6,2.7c17.9-2.8,31.7-11.6,44.6-23.9
				c11.5-10.9,28.8-25.2,23.8-43.2C121.2,182.4,115.7,183.9,116.7,187.4z"/>
		</g>
	</g>
	<g>
		<g>
			<path d="M100.8,234c-4,2.5-3.5,9.1,1,10.8c5,1.9,9.5-4.3,7-8.7c-1.8-3.1-6.6-0.4-4.8,2.9c0.3,0.5,0,0.1,0-0.1c0-0.4,0,0.4,0-0.1
				c0,0.4,0.1,0-0.1,0.2c-0.1,0.2-0.4,0.5-0.1,0.2c0,0.1-0.5,0.5-0.4,0.3c0.3-0.2-0.5,0.3,0,0c0.1,0,0.2,0,0.3,0c-0.3,0-0.4,0-0.2,0
				c0.3,0.3-0.5-0.4,0.1,0c0.2,0.1,0.3,0.3,0,0c-0.2-0.2-0.2-0.3-0.1-0.1c0.1,0.2,0.1,0.1,0-0.1c0.2,0,0,0.4,0,0
				c0.1-0.6,0,0.3,0-0.1c0-0.2,0-0.4,0-0.6c-0.1,0.7,0,0,0.1-0.1c0.2-0.1-0.2,0.3,0.1,0c-0.1,0.2-0.6,0.5-0.2,0.3
				C106.6,237,103.9,232.1,100.8,234L100.8,234z"/>
		</g>
	</g>
	<g>
		<g>
			<path d="M142.4,226.2c-1.4,0.2-2.7,0.6-3.7,1.8s-1.5,2.9-1.2,4.4c0.7,2.8,3.7,4.4,6.4,3.7c1.2-0.4,2.1-1.5,2.1-2.7
				c0-1.9,0.1-3.7,0.1-5.6c0.1-3.6-5.6-3.6-5.7,0c0,1.9-0.1,3.7-0.1,5.6c0.7-0.9,1.3-1.8,2.1-2.7c0.2,0,0.3,0,0.4,0.1
				c-0.4-0.1-0.4-0.1-0.1,0c0.1,0.2,0.3,0.3,0.3,0.4c0,0.3-0.1,0.3-0.1,0.4c-0.1,0.1-0.1,0.1-0.3,0.2c0.4-0.3,0.4-0.2-0.4,0
				c1.5-0.2,2.8-1.2,2.8-2.8C145.1,227.6,143.9,226,142.4,226.2L142.4,226.2z"/>
		</g>
	</g>
	<g>
		<g>
			<path d="M110.6,261.5c12.9,13.2,35,7.4,39.7-10.5c0.9-3.5-4.5-5-5.4-1.5c-3.6,13.8-20.3,18.2-30.2,8
				C112,254.9,108.1,258.9,110.6,261.5L110.6,261.5z"/>
		</g>
	</g>
</g>
<g>
	<path class="st0" d="M201.9,293.1c-2.1-3,10.2-18.8,10.2-18.8l24.8-6.6l34.8-1.8l28.2,18.4c0,0,4.8,17.3,4.8,13.4
		s-39.6-13.4-39.6-13.4l-30.8,1.2L201.9,293.1z"/>
	<g>
		<g>
			<path d="M196.6,354.8c-7.2-19.3-5.7-43.4,5.2-61.1c11-17.9,32.8-23.9,52.7-24.1c4.5-0.1,4.5-7,0-7c-22,0.2-45.4,7.2-58,26.5
				c-12.6,19.2-14.5,46.3-6.6,67.6C191.4,360.9,198.2,359,196.6,354.8L196.6,354.8z"/>
		</g>
	</g>
	<g>
		<g>
			<path d="M311.7,315.7c4.3,14.3,4.3,31-2,44.7c-6.3,13.8-19.6,22.6-33.6,27.3c-15.7,5.2-33.5,5.7-48.7-1.5
				c-13.4-6.4-24.1-17.9-29.5-31.7c-2.3-5.7-11.8-3.2-9.4,2.6c10.7,26.7,35.6,44.4,64.6,44.3c27.6-0.1,57.5-14.4,67.3-41.6
				c5.3-14.8,5.2-31.8,0.7-46.8C319.3,307,309.9,309.7,311.7,315.7L311.7,315.7z"/>
		</g>
	</g>
	<g>
		<g>
			<path d="M262.6,269.5c21.4,7,43.3,23.7,50.5,45.8c1.3,4.2,8.2,2.4,6.7-1.9c-8-24.5-31.5-42.9-55.4-50.6
				C260.1,261.4,258.3,268.2,262.6,269.5L262.6,269.5z"/>
		</g>
	</g>
	<g>
		<g>
			<path d="M228.9,310.1c-2.6,1.5-3.9,3.9-4.1,6.9c-0.2,2.6,3.1,3.4,4.8,2c1.6-1.3,1.8-3.7,0.7-5.4c-0.8,1.4-1.6,2.8-2.4,4.2
				c3.6-0.4,5.6-3.7,3.9-7c-1.2-2.4-5.6-1.3-5.2,1.4c0.4,2.9,1.9,6.3,5.4,5.4c2.6-0.6,4-3.9,2.1-6c-2.2-2.2-5.9-0.4-6.1,2.5
				c-0.2,3,3.1,4.3,5.7,3.4c2.3-0.9,3.9-3.6,3.3-6.1c-0.7-2.6-3.4-3.9-5.9-3.5c-2.7,0.4-4.8,2.5-4.8,5.3c-0.1,3.1,2,5.3,4.7,6.5
				c1,0.4,2-0.2,2.7-0.7c2.4-2,4.1-5.2,3.1-8.4c-0.9-3-3.9-4.9-7-4.1c-5.6,1.5-8,10.8-3.9,14.8c5,4.9,13.3-2.5,8-7.6
				c-2.3-2.2-6.1-1.9-7.7,0.9c-1.5,2.5-0.7,5.8,2,7.1c3.4,1.6,6.8-0.9,8.2-3.9c0.7-1.6,1.3-3.4,0.4-5c-0.8-1.7-2.6-2.6-4.5-2.5
				c-3.6,0.2-3.6,5.7,0,5.6c-0.9,0.1-0.2-2.4-1-0.4c-0.2,0.4-0.5,0.8-0.6,1.2c-0.1,0.1-0.4,0.2-0.4,0.2c0,0.7,1.5,0.4,0.4,1
				s-0.1-0.1-0.4-0.4l-0.3,0.1c-0.4-0.4-0.4-0.9-0.4-1.4c0-0.6,0.6-4.4,1.7-4c1.3,0.4-1.2,2.9-1.5,3.2c0.9-0.3,1.8-0.4,2.7-0.7
				c-0.3-0.1-0.6-0.7-0.7-0.8c0.1,0,0.1,0,0.2-0.1c0.4,0.1,0.4-0.2-0.4-0.8c0-0.1,0-0.1,0-0.2c0.6-1.1,0.1-0.1-1.6,3
				c-0.1-0.7-0.2-1.4-0.3-2.2c2.2,0.5,3.1,0.3,2.6-0.9c-1.7,0.4-3.5,0.9-5.2,1.4c-0.4-0.7,0-1.3,0.8-1.4c-2,0.2-3.7,2.2-2.4,4.2
				c0-0.4,0.1-0.9,0.1-1.4c1.6,0.6,3.1,1.3,4.8,2c0.1-1,0.5-1.6,1.3-2.1C234.8,313.2,231.9,308.3,228.9,310.1L228.9,310.1z"/>
		</g>
	</g>
	<g>
		<path d="M276.3,308.5c-3.4,1.8-5.3,6.1-4.3,9.9c0.2,0.8,0.6,1.7,1.3,2.2c1.6,1,3.6-0.4,4.8-1.6c1.7-1.7,3.4-3.7,3.6-6.1
			c0.2-2.4-1.8-5.1-4.1-4.8"/>
		<g>
			<path d="M275,306.2c-3.6,2.1-5.8,5.8-5.9,10c-0.2,4.2,2.6,8.8,7.4,7.4c3.9-1.2,7.6-5.9,8.2-9.9c0.6-4.1-2.4-8.4-6.8-8.3
				c-3.6,0.2-3.6,5.7,0,5.6c2-0.1,1.3,2.4,0.7,3.5c-0.4,0.6-2.7,3.9-3.8,3.8c0.6,0.1,0-0.6,0-1.1c-0.1-0.9,0-1.8,0.3-2.6
				c0.5-1.5,1.5-2.7,2.9-3.5C280.9,309.1,278,304.3,275,306.2L275,306.2z"/>
		</g>
	</g>
	<g>
		<g>
			<path d="M209.5,300.6c-3.7,2.9-1.4,9.1-0.8,12.8c0.5,3.2,1.2,6.6,1.8,9.8c0.4,2,0.5,4.6,2,6.2c2.9,3.2,10.3,3.1,14.3,3.2
				c4.9,0.1,11.5-0.2,16-2.6c4-2.2,4.6-8.1,5.1-12.1c0.7-4.9,0.4-10.6-2.9-14.7c-3.4-4.3-8.7-2.8-13.6-2.3c-7,0.6-13.9,1.3-20.9,2
				c-3.1,0.3-3.1,5.2,0,4.8c8.2-0.8,16.2-1.6,24.4-2.2c1.8-0.2,4.3-0.9,5.9,0.3c1.3,1.1,2,3.6,2.3,5.2c0.7,3.5,0.4,9.8-1.5,13
				c-2.1,3.8-8.8,3.8-12.5,3.9c-3.4,0.1-9,0.5-11.9-1.2c-2.9-1.7-2.9-8.3-3.3-11.1c-0.4-2.2-2.8-10-1-11.4
				C215.4,302.1,211.9,298.7,209.5,300.6L209.5,300.6z"/>
		</g>
	</g>
	<g>
		<g>
			<path d="M256.9,305.2c1.6,7.2-2.1,21.1,6.7,24.9c4.4,1.9,11.2,0.2,15.9-0.3c3.8-0.4,9.4,0,12.1-3.2c4.1-4.9,6-19,0.7-23.8
				c-3-2.7-8.5-1.5-12.1-1.4c-6.3,0.1-12.6,0.3-18.8,0.4c-3.1,0.1-3.1,4.9,0,4.8c7.4-0.2,14.8-0.3,22.3-0.4c1.2,0,3.4-0.5,4.5-0.1
				c2.1,0.9,2,3.7,2.2,5.6c0.2,3.1,0,8.7-2.2,11.4c-1.9,2.3-9.4,2-12.1,2.2c-3.3,0.3-9.8,1.9-12.1-1.2c-2-2.5-1.5-7-1.5-10.1
				c0-3.5-0.1-6.7-0.9-10.1C260.8,300.9,256.2,302.1,256.9,305.2L256.9,305.2z"/>
		</g>
	</g>
	<g>
		<g>
			<path d="M195.6,322.7c5.3-2.5,10.9-4,16.6-4.8c3.1-0.4,3.1-5.2,0-4.8c-6.6,0.7-13,2.5-19,5.4C190.3,319.8,192.8,324,195.6,322.7
				L195.6,322.7z"/>
		</g>
	</g>
	<g>
		<g>
			<path d="M245.7,318.1c4.3-0.3,8.6-0.4,12.9-0.7c3.1-0.2,3.1-5,0-4.8c-4.3,0.3-8.6,0.4-12.9,0.7
				C242.6,313.4,242.6,318.3,245.7,318.1L245.7,318.1z"/>
		</g>
	</g>
	<g>
		<g>
			<path d="M294.2,315.8c4.8,0.2,9.6,0.9,14.4,2.1c3.1,0.7,4.3-3.9,1.3-4.7c-5.1-1.3-10.3-2-15.6-2.2
				C291.1,310.7,291.2,315.6,294.2,315.8L294.2,315.8z"/>
		</g>
	</g>
	<g>
		<g>
			<path d="M198.8,300.8c13.8-9,30.7-12.4,46.9-12.8c17.8-0.5,36,2.3,52.4,9.3c4.1,1.7,7.6-4.3,3.5-6c-17.6-7.4-36.8-10.9-55.9-10.2
				c-17.5,0.5-35.6,4.2-50.5,13.8C191.5,297.2,195,303.2,198.8,300.8L198.8,300.8z"/>
		</g>
	</g>
	<g>
		<path class="st0" d="M253.4,342.6c-2.8-2.2-7-1.6-10.1,0.3c-3.1,1.8-5.5,4.6-8.4,6.7c-5.3,3.9-12.4,5.2-18.8,3.7
			c4,4.1,8.7,7.6,13.7,10.4c1.8,1,3.7,1.9,5.7,1.9c2.1,0,3.9-0.9,5.7-1.8c4.8-2.6,9-6,12.6-10c1.6,4,6.3,5.8,10.6,6.2
			c10.3,0.7,20.7-5.4,25.1-14.7c-5.7,3.2-12.4,4.1-18.8,3.6s-5.8-2.6-12.1-4.4c-0.4-0.1-8-0.2-7.9-0.6c0-0.4,3.9,0.2,3.5,0.4
			L253.4,342.6z"/>
		<g>
			<path d="M255.2,339.6c-5.7-3.6-12-1.3-16.9,2.5c-6.6,5.3-12.2,9.6-21.3,7.7c-3.3-0.7-6,3.2-3.4,5.8c5.4,5.3,13.9,13.3,21.9,13.4
				c7.8,0.1,15.9-7.5,20.8-12.8c-1.8-0.3-3.7-0.4-5.5-0.7c3.8,7.9,13.9,9,21.5,7.3c8.7-1.9,16.2-7.9,20.2-15.8
				c1.5-3.1-1.6-6.5-4.8-4.8c-6.9,3.7-16,4.7-23,1c-2.2-1.2-4.4-2.1-6.9-2.3c-1.2-0.1-2.3-0.1-3.5-0.1c-1.5-0.1-3-0.8-1.3,0.5
				c-0.3,1.8-0.4,3.7-0.7,5.5c-1.3,0.9-0.6,0.2,0.7,0.6c-0.7-0.5-1.4-1.1-2.1-1.6c0,0.1,0.1,0.1,0.1,0.2c2,4,8,0.5,6-3.5
				c-0.3-0.5-0.5-1.1-0.7-1.5c-2-4-8-0.5-6,3.5c0.3,0.5,0.5,1.1,0.7,1.5c2-1.2,4-2.3,6-3.5c-1.2-2.4-6.1-3.1-8.3-1.7
				c-1.7,1.2-2.5,3.9-0.7,5.5c2,1.7,5.1,1.4,7.5,1.5c3.2,0.1,5.3,1.5,8.2,2.9c8.3,3.9,19.7,1.7,27.4-2.4c-1.6-1.6-3.1-3.1-4.8-4.8
				c-2.8,5.7-7.4,10-13.6,11.9c-5.1,1.7-13.4,2.3-16.2-3.4c-1-2-4-2.2-5.5-0.7c-2.2,2.3-4.4,4.5-6.9,6.3c-2.4,1.7-5.8,4.5-8.9,4.5
				c-3.1,0-6.8-3.1-9.2-4.8c-2.8-2-5.3-4.1-7.7-6.6c-1.2,2-2.2,3.9-3.4,5.8c6,1.3,12.2,0.8,17.8-1.9c5.2-2.5,12.7-12.9,18.7-9.1
				C255.4,348.1,258.9,342,255.2,339.6z"/>
		</g>
	</g>
</g>
<g>
	<path d="M229,127.4c-0.4,0.2-0.7,0.4-1.1,0.5c-1.9,0.9-2.2,3.9-0.7,5.2c4.6,4.4,11.3,2.6,17.1,1.9c9.7-1.3,19-2.9,28.8-2
		c4.3,0.4,4.2-6.3,0-6.6c-6.6-0.6-13-0.3-19.7,0.6c-4.2,0.5-18,4.7-21.5,1.4c-0.3,1.7-0.4,3.5-0.7,5.2c0.4-0.2,0.7-0.4,1.1-0.5
		C236.2,131.2,232.9,125.5,229,127.4L229,127.4z"/>
</g>
<g>
	<path class="st0" d="M231.4,64.6l-19.9,12.6l-9.7,17.4V112l15.5,23.8l10.8,11.8l2.3,13.1l0.9,7.3l6.9,4.3l27-3.1l12.3,0.2l3-16.6
		l13.3-19.4l6.6-16.7L295,85.6c0,0-13.5-15.9-14.5-16.3c-1-0.4-20.2-7-20.2-7l-22.2-1.2L231.4,64.6z"/>
	<g>
		<path d="M235.2,59.1c-10.2,0.8-19.8,9.1-26.7,16.3c-7.4,7.9-11.3,17.9-10.6,28.7c0.7,10.8,5.8,20.6,13,28.5
			c4.3,4.7,10.9,8.2,14.1,13.7c3.1,5.4,0.8,11.6,3.7,17.1c1.9,3.6,7.4,0.4,5.4-3.1c-3.5-6.6-0.4-13.2-5.6-19.6
			c-6-7.4-14.2-11.9-19.1-20.6c-5.8-10.3-7.6-23.2-1.4-33.8c4.8-8.3,17.3-20.2,27.3-20.9C239.3,65,239.3,58.7,235.2,59.1L235.2,59.1
			z"/>
	</g>
	<g>
		<path d="M238.1,64.6c30.2-3.3,55.5,12.2,58.7,43.5c1.4,14.2-6.5,23.9-14.3,34.9c-5.8,8.2-11.9,15.9-11.2,26.5c0.3,4,6.6,4,6.3,0
			c-1.1-15.8,16.7-29.5,23.2-43c5.1-10.5,2.7-25.6-1.3-36.1c-9.3-25-36.6-34.7-61.4-32C234.2,58.7,234.2,65,238.1,64.6L238.1,64.6z"
			/>
	</g>
	<g>
		<path d="M255.1,167.7c5.6-10.3,1.2-26.1,0.4-37.2c-0.7-10.9-0.1-24.3-6.6-33.7c-3.3-4.8-9.9-9.8-14.2-3.2
			c-4.4,6.7,1.5,16.7,6.9,20.8c14.2,10.9,36.8-1.7,32.6-20.1c-1.7-7.4-8.3-10.5-14.5-5.8c-7.9,5.8-10.4,18.8-11.4,27.9
			c-0.4,4,5.8,3.9,6.3,0c0.5-4.9,1.4-12.5,4.6-16.7c0.5-0.9,1-1.9,1.5-2.8c6.3-2,8.7-1,7.4,3c-0.1,2.9-1.8,5.7-3.6,7.7
			c-4.9,5.6-12.7,6.4-18.6,2c-2.6-1.9-4.8-4.4-5.3-7.6c-0.8-4.8,1.9-4.3,4.3,0.3c4.3,8.3,3.8,19.3,4.3,28.4
			c0.4,5.5,0.7,10.9,1.1,16.5c0.4,5.4,2,12.7-0.7,17.6C247.8,168,253.2,171.3,255.1,167.7L255.1,167.7z"/>
	</g>
	<g>
		<path d="M232,185.2c4.8,2.4,11.6,0.4,16.7-0.6c3.9-0.8,7.7-1.8,11.7-2.4c5.2-0.8,10.1-0.2,15.2-0.5c4-0.3,4-6.5,0-6.3
			c-6.2,0.4-12-0.1-18.3,1c-5.4,1-17.2,5.8-22.1,3.4C231.6,177.9,228.4,183.4,232,185.2L232,185.2z"/>
	</g>
	<g>
		<path d="M231.4,192.9c0,0.2,0,0.4,0,0.5c0.1,1.1,0.5,2.2,1.5,2.7c3.6,1.8,8.3,0.5,12.1-0.1c9.4-1.7,20.2-5.5,29.7-3.1
			c3.9,0.9,5.6-5.1,1.7-6c-7.6-1.8-15.7-0.1-23.4,1.3c-3.2,0.5-6.5,1.3-9.7,2c-1.3,0.3-2.9,0.3-4.2,0.6c-4,1-1.8-1.6-1.6,2.3
			C237.4,188.9,231.1,188.9,231.4,192.9L231.4,192.9z"/>
	</g>
	<g>
		<path d="M236.5,206c11.8-1.4,23.7-3,35.5-4.4c3.9-0.5,4-6.7,0-6.3c-11.8,1.4-23.7,3-35.5,4.4C232.5,200.3,232.5,206.5,236.5,206
			L236.5,206z"/>
	</g>
	<g>
		<path d="M238.3,209.6c1.7,3.2,3.1,8.2,6.3,10.3c3.2,2.2,7.4,0.8,10.8-0.1c4.1-1.2,9-2.2,12.6-4.8c3.8-2.8,4.8-7.4,7.4-10.9
			c2.2-3.1-2.9-6-5.1-3c-1.4,2-2.2,4.2-3.5,6.3c-2.1,3.6-5.7,4.5-9.5,5.7c-3.1,0.9-7.2,3.1-10.1,0.5c-1.6-1.3-2.7-5.2-3.7-7.1
			C241.6,203.2,236.5,206.3,238.3,209.6L238.3,209.6z"/>
	</g>
	<g>
		<path d="M159.6,93c8.7,0.9,17.3,0.4,25.9-1.3c3.9-0.8,2.2-6.8-1.7-6c-8.1,1.6-16.1,1.9-24.2,1.1C155.5,86.4,155.5,92.6,159.6,93
			L159.6,93z"/>
	</g>
	<g>
		<path d="M165.1,51.7c8.6,0.6,16.7,3.1,24.2,7.3c3.5,2,6.7-3.4,3.1-5.4c-8.5-4.8-17.7-7.4-27.4-8.2C161,45.2,161,51.4,165.1,51.7
			L165.1,51.7z"/>
	</g>
	<g>
		<path d="M217.4,12.7c2.2,8.4,5.5,16.4,9.8,24.1c2,3.5,7.4,0.4,5.4-3.1c-4-7.2-7.1-14.6-9.2-22.5C222.4,7.1,216.4,8.7,217.4,12.7
			L217.4,12.7z"/>
	</g>
	<g>
		<path d="M274.8,11.9c-4.8,9.5-8.7,19.3-11.8,29.5c-1.2,3.9,4.9,5.6,6,1.7c2.9-9.7,6.6-19,11.1-28C282,11.4,276.6,8.3,274.8,11.9
			L274.8,11.9z"/>
	</g>
	<g>
		<path d="M320.7,37.5c-6.9,5.7-13,12-18.4,19.1c-2.4,3.2,3.1,6.4,5.4,3.1c5-6.6,10.9-12.7,17.4-17.9
			C328.2,39.3,323.7,34.9,320.7,37.5L320.7,37.5z"/>
	</g>
	<g>
		<path d="M352.2,80.5c-9.8,3.9-19.4,8.4-28.7,13.5c-3.6,1.9-0.4,7.4,3.1,5.4c8.8-4.8,17.9-9.1,27.2-12.8
			C357.6,85,355.9,79,352.2,80.5L352.2,80.5z"/>
	</g>
</g>
</svg>
