<?xml version="1.0" encoding="utf-8"?>
<!-- Generator: Adobe Illustrator 19.2.0, SVG Export Plug-In . SVG Version: 6.00 Build 0)  -->
<svg version="1.1" id="Layer_1" xmlns="http://www.w3.org/2000/svg" xmlns:xlink="http://www.w3.org/1999/xlink" x="0px" y="0px"
	 width="512px" height="323px" viewBox="0 0 512 323" style="enable-background:new 0 0 512 323;" xml:space="preserve">
<style type="text/css">
	.st0{fill:#C6C8DA;}
	.st1{fill:#2CADBE;}
	.st2{fill:#010101;}
	.st3{fill:#FFFFFF;}
</style>
<g>
	<g>
		<g>
			<path class="st0" d="M437.6,61c2.1,3.4,3.7,7,5.4,10.4c2.9,5.8,6.9,11.2,7,17.9c0.2,7-1.5,14.1-2.5,21c-1,7.6-1.7,15.2-2.1,22.8
				c-1.7,30.1,0.1,60.1-1.3,90.2c-0.4,8.1-1,16.1-2.1,24.2c-0.5,4.1-1.2,8.2-2,12.3c-0.6,3.3-0.9,7-2.9,9.8c1-1,2-2,2.9-2.9
				c-0.3,0.2-0.5,0.4-0.9,0.6c1.4-0.4,2.8-0.7,4.2-1.2c-0.7,0.1-3.5-0.5-4.9-0.4c-2.3,0.1-4.5,1-6.8,1c-1.6,0-2.8-0.3-4.2-1
				c-0.3-0.1-1.7-1.2-1.9-1.2c0.2-0.1,1.4,2.9,1.4,2.9c-4.6,1.2-9.2,2.4-13.8,3.7c4.2,5.3,9.5,10,16.7,10c3.2,0,6.3-0.8,9.4-1.8
				c1-0.4,4.2-1.9,4.8-1.4c-1.2-3.1-2.5-6.2-3.7-9.3c0.2-0.2,0.4-0.4,0.5-0.6c2.4-1.3,4.7-2.8,7.1-4.1c-0.1,0-0.1,0-0.2,0
				c1.4,0.4,2.8,0.7,4.2,1.2c-5.3-3.1-11.8,0.3-12.8,6.2c-1.3,7.7,7.6,14.4,13.8,8c1.6-1.7,3.5-2.9,4.7-4.9c1.7-2.8,1.7-6.2,2.1-9.3
				c0.7-8.2,1.4-16.3,2-24.5c1.2-16.4,1.7-32.7,0.9-49.1s-2.3-32.7-0.7-49.1c0.7-7.7,2-15.3,3.1-22.9c1.2-8.1,2.5-16.2,1.3-24.3
				c-1.2-8.3-5.5-15.4-9.8-22.5c-4.4-7.2-7.3-14.5-8.7-22.9c-0.7-4.4-6.2-6.9-10.2-5.8c-4.6,1.2-6.5,5.7-5.8,10.2
				c1.2,7,3.4,13.8,6.6,20.2c2.9,5.9,7.1,11.2,9.8,17.3c2.8,6.3,2.1,13.1,1.2,19.8c-1,7.6-2.2,15.1-3.2,22.6
				c-4,30.8,1.2,61.7-0.3,92.6c-0.4,8.5-1,16.9-1.7,25.4c-0.4,4.4-0.7,8.7-1.2,13.1c0,0.1-0.2,1.7-0.2,1.7c-3.4-0.6,2.9-2.7,1-1.7
				c-1,0.5-2,1.7-2.8,2.5c4.6,2.7,9.2,5.4,13.8,8c-0.2,0.2-0.4,0.4-0.5,0.6c-2.4,1.3-4.7,2.8-7.1,4.1c0.1,0,0.1,0,0.2,0
				c-1.4-0.4-2.8-0.7-4.2-1.2c5.3,3.1,11.8-0.3,12.8-6.2c0.6-3.6-0.4-7.5-3.7-9.3c-5.9-3.1-11.4-2.1-17.6-0.2
				c-1.4,0.4-3.7,1.6-5.2,1.1c-2-0.7-3.6-3.6-4.8-5.1c-3.9-5-12.3-1.9-13.8,3.7c-2.5,9.5,4.1,15.9,12.4,18.8
				c4.2,1.5,8.7,1.5,13.2,0.8c0.3-0.1,3-0.6,1.7-0.5c-1.3,0.1,1.8,0.4,1.8,0.4c2.7,0.4,5.4,0.2,7.8-1.2c7.7-4.7,8.2-17.5,9.5-25.4
				c1.6-10.2,2.6-20.5,3.1-30.8c2.1-40-1.9-80.3,4.4-120c1.9-11.7,2.4-21.9-2.8-32.8c-3.1-6.6-6.6-13.4-10.3-19.7
				C446.4,43.6,432.1,51.9,437.6,61L437.6,61z"/>
		</g>
	</g>
	<g>
		<g>
			<path class="st0" d="M384.3,67.1c0.1-0.2,0.1-0.4,0.2-0.5c-2,2-3.8,3.8-5.8,5.8c0.2,0,0.4-0.1,0.5-0.1c-1.4,0-2.9,0-4.4,0
				c-1.2-0.4-2.1-1.9-2.1-0.5c0,0.5,0.8,1.6,1,2.1c0.4,1,0.7,1.9,1.1,2.9c0.7,2.1,1.2,4.4,1.4,6.6c0.7,7.5,0.6,15.3,0.5,22.7
				c-0.1,15.7-1,31.4-2.1,47.1c-2.1,31.6-4.7,63.2-2.7,94.8c0.3,4,1.5,8.8,1.1,12.8c-0.2,1.4-0.8,2.2-2.6,2.8
				c-0.1,0-2.5-0.3-3.5-0.1c0.8-0.1,0.1,0.2,0.2,0c-0.6-0.2-0.4-0.1,0.6,0.3c0.6,0.6,1.2,1.2,1.9,1.9c0.4-0.9-2.8-5.4-3.3-6.2
				c-5.4-9.1-19.6-0.8-14.3,8.3c3,5.2,4.7,10.3,11.3,11.7c8.5,1.9,17.6-0.9,22.7-8c5.4-7.3,2.7-16.8,2.1-25.2
				c-0.6-10.2-0.7-20.2-0.5-30.4c0.6-40.4,6.1-80.6,5.3-121.1c-0.2-8.5-0.3-17.2-3.5-25.2c-1.7-4.4-3.5-9.7-7.8-12.2
				c-5.4-3.1-11.6-0.4-13.6,5.4C365,72.8,380.9,77.1,384.3,67.1L384.3,67.1z"/>
		</g>
	</g>
	<g>
		<path class="st1" d="M414.5,201.8c0,0,0.3-42.3,0.4-45.7c0.2-3.4,0-63.5,0-63.5l4,1.4l12.7-5l13.6,1.6l7.3-1.2l-2.7,48.8
			l-2.6,69.1l-12.5-0.2c0,0-15.2,1.6-16.1,1.5c-0.4-0.1-1.5,0-2.4,0"/>
	</g>
	<g>
		<g>
			<path class="st0" d="M298.2,56.7c-1.6,35.9-2.9,71.7-3.4,107.6c-0.3,18.2-0.4,36.4-0.3,54.6c0.2,18.5,0.3,36.9-1.2,55.3
				c2.7-2.7,5.4-5.4,8.1-8.1c-9.3-0.6-18.6-1.3-27.9-1.2c-5.7,0.1-11.3,0.2-17-0.1c-12.9-0.7-25.8-2-38.7-2.6
				c-14-0.6-27.8,1.6-41.8,2.1c-13.2,0.4-26.3-0.1-39.5-0.9c-17.7-1.1-35.5-1.9-53.2-1.7c-10.4,0.1-10.4,16.3,0,16.2
				c29.3-0.3,58.4,3.3,87.7,2.8c14.4-0.3,28.7-2.7,43.1-2.3c12.7,0.4,25.4,1.6,38.1,2.4c5.8,0.4,11.6,0.6,17.4,0.4
				c10.7-0.4,21.4,0.4,32.1,1.2c4.6,0.3,7.8-4,8.1-8.1c1.5-18.4,1.4-36.8,1.2-55.3c-0.2-18.2,0-36.4,0.3-54.6
				c0.5-35.9,1.8-71.8,3.4-107.6C314.8,46.3,298.6,46.3,298.2,56.7L298.2,56.7z"/>
		</g>
	</g>
	<ellipse class="st1" cx="128.4" cy="127.3" rx="25.3" ry="23.6"/>
	<ellipse class="st1" cx="185.8" cy="128.1" rx="25.8" ry="24.4"/>
	<ellipse class="st1" cx="252.1" cy="124" rx="28.1" ry="25.8"/>
	<g>
		<g>
			<path class="st2" d="M80.8,54.5c0-0.9,0-1.8,0-2.8c-1.9,0-3.7,0-5.7,0c6.7,55.2,4.8,111.4,4,167c-0.2,14.8-0.4,29.7-0.4,44.6
				c0,3.7,5.7,3.7,5.7,0c0-55.6,2.4-111.1-0.1-166.7c-0.7-15-1.7-30-3.6-44.9c-0.4-3.5-5.7-3.7-5.7,0c0,0.9,0,1.8,0,2.8
				C75.2,58.2,80.8,58.2,80.8,54.5L80.8,54.5z"/>
		</g>
	</g>
	<g>
		<g>
			<path class="st2" d="M80.8,54.5c55.7,0.4,111.3,1.1,167,1.2c17.3,0.1,34.7,0,52,0c3.7,0,3.7-5.7,0-5.7
				c-52.7,0.1-105.3-0.4-158-0.8c-20.3-0.2-40.6-0.3-60.9-0.4C77.2,48.8,77.2,54.4,80.8,54.5L80.8,54.5z"/>
		</g>
	</g>
	<g>
		<g>
			<path class="st2" d="M90.5,271.9c50.5-2.9,101-4.7,151.5-3.7c16.4,0.4,32.8,0.9,49.2,1.5c3.6,0.2,6.6-3.1,6.6-6.6
				c0.1-47.5,4.1-95,5.3-142.5c0.4-18.3,1.1-36.5,2.2-54.7c0.5-8.5-12.7-8.5-13.2,0c-2.1,31.8-2.1,63.7-3.7,95.4
				c-1.3,24.7-2.8,49.3-3.5,74c-0.3,9.3-0.4,18.5-0.4,27.7c2.2-2.2,4.4-4.4,6.6-6.6c-50.6-2-101-2.6-151.5-0.4
				c-16.4,0.7-32.8,1.6-49.2,2.5C82.1,259.2,82,272.5,90.5,271.9L90.5,271.9z"/>
		</g>
	</g>
	<g>
		<g>
			<path class="st2" d="M108.5,106.2c-6.4,3.7-8.8,8.5-9.2,15.7c-0.3,6.3-0.3,13.3,2.9,19c6.4,11.8,21.6,13.5,32.9,8.4
				c11.4-5.3,20.2-18,15.7-30.9c-3.9-11.1-16.2-15.6-27-14c-4.9,0.7-2.9,8.2,2.1,7.5c7-1.1,15.3,2.2,17.7,9.2c3,8.7-3.6,17-11,20.8
				c-7.4,3.7-17.9,3.7-22.9-3.8c-2.6-3.8-2.5-8.8-2.5-13.3c0.1-5.3,0.4-9,5.4-11.9C116.8,110.5,112.9,103.8,108.5,106.2L108.5,106.2
				z"/>
		</g>
	</g>
	<g>
		<g>
			<path class="st2" d="M186.1,99.8c-14.6,1.8-26.2,13.3-26.1,28.5c0.1,14.4,11.5,25.5,25.7,26c12.8,0.5,30.1-9,30.6-23.3
				c0.2-6.8-3.3-12.8-6.4-18.6c-2.7-5.1-6.2-8.7-11.6-11c-5.5-2.4-10.3,5.8-4.8,8.2c3.1,1.3,5.4,2.9,7.2,5.9
				c2.1,3.4,4.4,7.3,5.4,11.1c2.9,10.2-8.8,17.4-17.7,18.2c-9.5,0.8-18.1-5.4-19-15.2c-0.9-10.1,6.7-19.3,16.7-20.5
				C192.1,108.5,192.2,99,186.1,99.8L186.1,99.8z"/>
		</g>
	</g>
	<g>
		<g>
			<path class="st2" d="M243.5,104c-2.1-5.1-6.9-3.6-10.4-0.9c-4.2,3.2-6.9,7.8-8.8,12.7c-4.6,11.2-4.3,23.9,7.9,29.9
				c18.8,9.2,55.1-3.9,42.4-29.3c-6.3-12.7-20.8-17.2-34-15.3c-4.9,0.7-2.9,8.2,2.1,7.5c9.6-1.4,20.2,2.1,25,11.1
				c2.4,4.6,2.8,9.7-0.9,13.7c-3,3.3-7.1,5.4-11.4,6.4c-7.9,2.1-20.7,2-25.2-6.3c-2.5-4.7-0.4-10.6,1.4-15.2c0.9-2.1,2-4.2,3.3-6
				c0.5-0.8,1.2-1.5,1.9-2.1c0.3-0.3,2.7-1.9,1.9-2.1c-0.9-0.9-1.8-1.8-2.7-2.7c0.1,0.2,0.2,0.4,0.2,0.5
				C237.8,110.7,245.3,108.6,243.5,104L243.5,104z"/>
		</g>
	</g>
	<g>
		<g>
			<path class="st2" d="M105.5,165.7c13.8-0.8,27.7-0.8,41.6-0.9c3.3,0,3.3-5.2,0-5.2c-13.8,0.1-27.7,0.1-41.6,0.9
				C102.2,160.7,102.2,165.9,105.5,165.7L105.5,165.7z"/>
		</g>
	</g>
	<g>
		<g>
			<path class="st2" d="M105.5,175.5c14.6,0.1,29.3-0.4,43.9-0.5c3.9,0,3.9-6.1,0-6.1c-14.6,0-29.3,0.5-43.9,0.5
				C101.7,169.5,101.7,175.5,105.5,175.5L105.5,175.5z"/>
		</g>
	</g>
	<g>
		<g>
			<path class="st2" d="M105.5,186.1c13-0.4,26-0.8,39.2-1.2c3.3-0.1,3.3-5.3,0-5.2c-13,0.4-26,0.8-39.2,1.2
				C102.2,181.1,102.2,186.2,105.5,186.1L105.5,186.1z"/>
		</g>
	</g>
	<g>
		<g>
			<path class="st2" d="M105.5,200.1c11.9-0.4,23.7-0.7,35.5-1.1c4.5-0.1,4.5-7,0-6.9c-11.9,0.4-23.7,0.7-35.5,1.1
				C101.1,193.4,101.1,200.3,105.5,200.1L105.5,200.1z"/>
		</g>
	</g>
	<g>
		<g>
			<path class="st2" d="M105.5,214.3c13-0.8,26-1.3,39.2-1.6c3.3-0.1,3.3-5.3,0-5.2c-13,0.3-26.1,0.8-39.2,1.6
				C102.2,209.3,102.2,214.5,105.5,214.3L105.5,214.3z"/>
		</g>
	</g>
	<g>
		<g>
			<path class="st2" d="M165.7,165.7c11.4-0.4,22.8-0.9,34.3-1.3c3.3-0.1,3.3-5.3,0-5.2c-11.4,0.4-22.8,0.9-34.3,1.3
				C162.3,160.7,162.3,165.9,165.7,165.7L165.7,165.7z"/>
		</g>
	</g>
	<g>
		<g>
			<path class="st2" d="M165.7,176.4c12.2-1.4,24.4-2.2,36.7-2.5c3.3-0.1,3.3-5.3,0-5.2c-12.3,0.3-24.5,1.2-36.7,2.5
				C162.4,171.6,162.4,176.8,165.7,176.4L165.7,176.4z"/>
		</g>
	</g>
	<g>
		<g>
			<path class="st2" d="M165.7,186.9c12.2,0.4,24.4-1,36.7-0.4c4.5,0.2,4.5-6.7,0-6.9c-12.2-0.4-24.4,1-36.7,0.4
				C161.3,179.8,161.3,186.7,165.7,186.9L165.7,186.9z"/>
		</g>
	</g>
	<g>
		<g>
			<path class="st2" d="M165.7,201.4c13.3-0.5,26.5-1.2,39.8-1.7c4.5-0.2,4.5-7,0-6.9c-13.3,0.5-26.5,1.2-39.8,1.7
				C161.3,194.6,161.3,201.6,165.7,201.4L165.7,201.4z"/>
		</g>
	</g>
	<g>
		<g>
			<path class="st2" d="M165.7,215.5c12.2-1.1,24.5-1,36.7,0.3c4.4,0.4,4.4-6.4,0-6.9c-12.2-1.2-24.4-1.3-36.7-0.3
				C161.3,209,161.3,215.8,165.7,215.5L165.7,215.5z"/>
		</g>
	</g>
	<g>
		<g>
			<path class="st2" d="M224,164.9c13-0.9,26-1.5,39.2-1.9c3.3-0.1,3.3-5.3,0-5.2c-13,0.4-26.1,0.9-39.2,1.9
				C220.7,160,220.7,165.2,224,164.9L224,164.9z"/>
		</g>
	</g>
	<g>
		<g>
			<path class="st2" d="M224,176.7c13.8-0.9,27.7-1,41.6-0.4c4.5,0.2,4.5-6.7,0-6.9c-13.8-0.6-27.7-0.5-41.6,0.4
				C219.7,170,219.7,177,224,176.7L224,176.7z"/>
		</g>
	</g>
	<g>
		<g>
			<path class="st2" d="M224,187.8c11-1.2,22-1.4,33.1-0.8c4.5,0.3,4.5-6.7,0-6.9c-11.1-0.6-22.1-0.4-33.1,0.8
				C219.7,181.4,219.7,188.3,224,187.8L224,187.8z"/>
		</g>
	</g>
	<g>
		<g>
			<path class="st2" d="M224,197.3c11.1-0.8,22-0.9,33.1-0.3c3.3,0.2,3.3-5,0-5.2c-11.1-0.6-22.1-0.5-33.1,0.3
				C220.7,192.4,220.7,197.6,224,197.3L224,197.3z"/>
		</g>
	</g>
	<g>
		<g>
			<path class="st2" d="M224,212.5c12.8,0.7,25.7,1,38.5,1c5.5,0,5.5-8.7,0-8.7c-12.8,0.1-25.7-0.3-38.5-1
				C218.5,203.4,218.5,212.1,224,212.5L224,212.5z"/>
		</g>
	</g>
	<g>
		<path d="M374.9,63.1c3.2,31.2,4.1,62.7,2.7,94c-0.2-7.6-8.1-13.6-15.6-12.8c-7.5,0.8-13.6,7.2-15.4,14.6l-1.7-5.7
			c1.3-20.3,1.2-40.7,2.6-60.7c0.6-8.7,2.9-17.5,7.7-24.8c2.3-3.7,5.5-7,9.8-7.9s9.3,2,9.5,6.2"/>
		<g>
			<path d="M371.6,63.1c3.2,31.2,4,62.6,2.7,94c2.2,0,4.4,0,6.6,0c-0.7-9-8.6-16.2-17.7-16.1c-9.8,0.2-17.3,8.1-19.8,17.1
				c2.1,0,4.3,0,6.3,0c-0.5-1.7-1.3-3.5-1.5-5.3c-0.6-4.1,0.5-9.4,0.7-13.6c0.4-10.4,0.6-20.9,1.1-31.3c0.4-9.7,0.4-19.7,3.5-29.1
				c1.5-4.5,3.7-9.1,6.9-12.6c2.1-2.1,10-6.4,10.8-0.4c0.5,4.2,7.1,4.2,6.6,0c-1.2-9.6-12.1-12-19.4-6.7
				c-8.9,6.5-12.8,19.6-13.9,30.1c-1.5,13.6-1.4,27.5-1.9,41.2c-0.3,7-0.8,13.9-1,20.9c-0.1,3,0.9,5.5,1.7,8.4
				c0.9,3.1,5.4,3.2,6.3,0c1.6-5.6,5.8-11.1,12-12.1c5.8-0.9,12.2,3.2,12.7,9.4c0.4,4.2,6.4,4.3,6.6,0c1.4-31.4,0.5-62.8-2.7-94
				C377.8,58.9,371.2,58.8,371.6,63.1L371.6,63.1z"/>
		</g>
	</g>
	<g>
		<path d="M353.9,74.5c-1.2,3.5-5.9,3.9-9.5,3.6c-3.7-0.4-8.1-0.5-10.1,2.6c-0.8,1.2-1,2.7-1.2,4.1c-3.4,26.6-2.9,52.6-1.4,80.3
			c2.8,0,3.7-53.6,6.6-78.7c0.1-1.1-0.6-1.6,0.1-2.5c1.9-2.4,5.5-2.1,8.6-2.3s6.8-2.8,5.5-5.5"/>
		<g>
			<path d="M352.3,73.6c-3,6.1-13.9,0.1-18.6,4.9c-2.4,2.5-2.4,6.4-2.8,9.6c-0.6,5.1-1.1,10.2-1.3,15.3c-1.3,20.5-0.7,41.1,0.4,61.6
				c0.1,1.2,1.2,2.1,2.4,1.9c3.5-0.7,3.1-9.9,3.4-12.3c0.9-9.6,1.3-19.4,1.9-29c0.6-10.7,1.2-21.3,2.1-32c0.2-2.3,0.1-5,0.7-7.2
				c0.4-1.5-1.3-1.4,1.4-2.4c1.7-0.6,3.7-0.3,5.4-0.5c4.2-0.5,8.5-3.2,7.4-7.9c-0.5-2.4-4.2-1.3-3.7,1c0.9,3.8-7,3.1-9,3.6
				c-1.7,0.4-3.6,1-4.7,2.5c-1.2,1.5-0.6,2.9-0.7,4.7c-0.1,1.8-0.4,3.7-0.5,5.4c-0.9,9.6-1.4,19.3-2,29c-0.5,9.2-1,18.5-1.6,27.6
				c-0.3,3.3-0.4,6.6-0.9,9.9c-0.1,1.1-0.4,2.1-0.5,3.2c-0.2,1.6-1,1.2,0.4,0.9c0.8,0.6,1.6,1.2,2.4,1.9
				c-1.1-19.4-1.6-38.8-0.5-58.2c0.3-4.5,0.6-9,1.1-13.6c0.3-2.7,0.4-5.4,0.9-8.1c0.6-3.4,1.9-5.1,5.4-5.3
				c5.4-0.4,12.1,1.7,15.2-4.4C356.7,73.3,353.4,71.4,352.3,73.6L352.3,73.6z"/>
		</g>
	</g>
	<g>
		<path d="M335.4,111.4c-0.2,0.7-0.4,1.3-0.6,2.1c3.4-4.8,7.8-5.7,12.7-2.8c-0.7-7.6,2-15.8,3.4-23.2c0.4-1.8,0.5-4.1-0.9-5
			c-0.4-0.3-0.9-0.4-1.4-0.4c-2.7-0.1-5.2,1.3-7,3.4c-1.9,2.1-3.2,4.5-4.5,7.1c-2.9,5.9-5.7,12.2-5.4,18.9c0,0.4,0.1,1.1,0.5,1.2
			c0.4,0.2,0.8,0,1.2-0.2c1.9-0.9-0.8-1.3,1.1-2.2"/>
		<g>
			<path d="M333.7,110.9c-0.2,0.7-0.4,1.3-0.6,2.1c-0.4,1.6,1.9,3.3,3,1.8c2.9-3.7,6.1-4.8,10.4-2.4c1.2,0.6,2.9-0.2,2.8-1.6
				c-0.4-5.7,0.8-11.1,2-16.7c0.7-3.1,2.7-8.1,1.1-11.3c-3.4-6.8-12.2,1.1-14.5,4.7c-3.9,6.2-9.6,16.9-7.9,24.6
				c0.4,2.1,1.9,3.2,3.9,2.4c2.1-0.8,1.8-2.1,1.8-3.5c-0.3,0.5-0.6,1.1-0.9,1.6c0.2-0.2,0.4-0.4,0.6-0.5c1.9-1.4,0-4.5-1.9-3.1
				c-1.6,1.2-1.3,2-1.3,3.3c0.3-0.5,0.6-1.1,0.9-1.6c-0.4,0.2-0.6,0.3-1,0.4c0.5,0.3,1.1,0.6,1.6,0.9c-2.4-3.3,2.1-12.6,3.6-15.6
				c1.6-3.4,4.6-11.6,9.1-12c4-0.4,2.5,3.5,2.1,5.7c-0.5,2.3-1.1,4.6-1.5,7c-1,4.5-1.6,9.1-1.2,13.7c0.9-0.5,1.8-1.1,2.8-1.6
				c-5.6-3.1-10.9-2.1-14.9,3c1,0.6,2.1,1.2,3,1.8c0.2-0.7,0.4-1.3,0.6-2.1C337.8,109.6,334.3,108.6,333.7,110.9L333.7,110.9z"/>
		</g>
	</g>
	<g>
		<g>
			<path d="M432.6,46.5c-6.2,11.9-10.1,24.7-16,36.7c-1.4,2.9-3.3,5.7-4.1,8.9c-0.6,2.6-0.4,5.3-0.3,7.9c0.3,7,0.6,14.1,0.8,21.1
				s0.3,14.1,0.1,21.1c-0.2,7-0.9,13.9-0.6,20.9c0.4,6.9,1.2,13.6,1.3,20.4c0,7.4-1.3,14.6-2.4,21.9c-0.4,3.1,4.3,4.5,4.7,1.3
				c1-6.2,2.1-12.3,2.5-18.6c0.4-6.7-0.4-13.4-0.8-20.1c-1.1-13.9,0.5-27.8,0.3-41.7c-0.2-7-0.4-14.1-0.7-21.1
				c-0.1-3.2-0.5-6.6-0.4-9.8c0.2-3.8,2.6-7.1,4.2-10.5c5.7-11.8,9.5-24.3,15.6-35.9C438.4,46.2,434.1,43.7,432.6,46.5L432.6,46.5z"
				/>
		</g>
	</g>
	<g>
		<g>
			<path d="M454.1,207.5c-0.4-20.9-0.3-41.7,0.2-62.6c0.2-10.1,0.5-20.2,0.9-30.2c0.2-5.5,0.4-11.1,0.6-16.5
				c0.1-1.2,0.1-2.3,0.2-3.6c0.1-0.6,0.2-1.2,0.2-1.9c0-0.4,0.5-1.3,0.2-0.8c-1.3,0.8-2.7,1.5-4,2.3c0.1,0,0.2,0,0.3,0
				c3.7,0,5.4-3.9,4-7c-5.7-12.4-10.2-25.2-15.2-37.8c-2.1-5.4-11.1-3-8.9,2.5c5.4,13.4,10.1,26.9,16.1,40c1.3-2.3,2.7-4.6,4-7
				c-7.3-0.1-6,12.8-6.2,17.5c-0.4,11.6-0.8,23.3-1.2,34.9c-0.6,23.4-0.7,46.7-0.4,70.1C445,213.3,454.2,213.4,454.1,207.5
				L454.1,207.5z"/>
		</g>
	</g>
	<g>
		<g>
			<path d="M421.1,95.3c1-0.4,1.8-0.8,2.6-1.5c0.5-0.5,1.4-2.2,2.2-2.2c-0.8-0.8-1.6-1.6-2.5-2.5c0.1,2.9,2.1,4.9,5,5.4
				c3.4,0.6,6.3-1.5,8.4-4c-1.2,0-2.3,0-3.5,0c1.7,2.1,3.5,5.6,6.5,5.7c3.1,0.1,4.3-3.3,7.2-3.9c2.3-0.4,4.9-0.4,6.2-2.8
				c1.2-2.1,0.2-4.1-1.6-5.4c-2.6-1.9-5.1,2.4-2.5,4.3c-2.2-1.6-5.3-1.1-7.3,0.5c-0.2,0.2-1.9,2.1-2,2.1c-0.2,0-2.7-3.6-3-4
				c-0.8-1-2.8-1-3.5,0c-0.2,0.2-4.8,5-4.9,2.1c0-1.2-1.1-2.6-2.5-2.5c-3.3,0.2-3.6,2.9-6.2,3.9C416.8,91.7,418,96.5,421.1,95.3
				L421.1,95.3z"/>
		</g>
	</g>
	<g>
		<g>
			<path d="M451.2,241.4c2.5-4.8,1.7-11.5,1.8-16.9c0.2-6.3,0.1-12.7,0-19c-0.1-5.9-9.4-6-9.2,0c0.1,5.4,0.2,11,0.1,16.4
				c0,2.6-0.1,5.2-0.2,7.8c-0.1,2,0.4,5.4-0.4,7C440.5,242,448.4,246.7,451.2,241.4L451.2,241.4z"/>
		</g>
	</g>
	<g>
		<g>
			<path d="M414.5,206.7c-2.5,0.4-4.2,2.4-4.8,4.8c-1,3.7,1.5,6.6,2,10.2c1,7.2-2.7,15,1.2,21.8c0.7,1.3,2.3,1.9,3.7,1.5
				c5.9-1.3,11.8-2.1,17.7-2.3c4.6-0.2,10.2,1.2,14.4-0.7c3.8-1.7,0.5-7.4-3.3-5.7c-1.6,0.7-5.4-0.3-7-0.3c-2.8,0-5.4,0.1-8.1,0.3
				c-5.2,0.4-10.3,1.2-15.4,2.3c1.2,0.5,2.5,1,3.7,1.5c-2.1-3.8-0.5-10.6-0.3-14.8c0.1-2,0.3-3.9-0.2-5.8c-0.2-0.9-2.5-6.2-1.8-6.3
				C420.5,212.4,418.7,205.9,414.5,206.7L414.5,206.7z"/>
		</g>
	</g>
	<g>
		<g>
			<path d="M421,219.5c7.1-1.2,14.3-2.3,21.3-3.5c2.3-0.4,1.3-3.9-1-3.5c-7.1,1.2-14.3,2.3-21.3,3.5
				C417.7,216.4,418.6,219.9,421,219.5L421,219.5z"/>
		</g>
	</g>
	<g>
		<g>
			<path d="M419.7,222.3c-0.4,0.4-0.8,0.8-1.2,1.2c-1.1,1.1-0.4,3.2,1.2,3.1c8-0.5,16-1.5,23.9-2.9c2.3-0.4,1.3-3.9-1-3.5
				c-7.6,1.3-15.3,2.2-22.9,2.8c0.4,1.1,0.9,2.1,1.2,3.1c0.4-0.4,0.8-0.8,1.2-1.2C423.9,223.3,421.3,220.7,419.7,222.3L419.7,222.3z
				"/>
		</g>
	</g>
	<g>
		<g>
			<path d="M419.2,234.7c8.9-1.3,17.9-2.7,26.8-3.9c2.3-0.4,1.3-3.8-1-3.5c-8.9,1.3-17.9,2.7-26.8,3.9
				C415.9,231.4,416.9,235,419.2,234.7L419.2,234.7z"/>
		</g>
	</g>
	<g>
		<g>
			<path d="M411.7,238.4c0,7-1.5,16.4,2.2,22.7c3.8,6.3,12.7,7,19.4,6.8c6.4-0.2,14.7-0.6,16.1-8.2c1.5-8.2,3.6-16.4,1.7-24.8
				c-1.3-5.8-10.3-3.3-8.9,2.5c1.2,5.4,0.1,10.7-1,16c-0.3,1.2-0.4,2.7-0.7,3.8c-0.4,1.2,1.9,0.3-1.1,0.6c-2.3,0.3-4.5,0.8-6.9,0.8
				c-3.7,0.1-10.3,0.4-11.3-4c-1.2-5-0.4-11.1-0.4-16.3C420.9,232.5,411.7,232.5,411.7,238.4L411.7,238.4z"/>
		</g>
	</g>
	<g>
		<g>
			<path d="M416.3,206.9c-0.4,0-0.8,0.1-1.2,0.1c-2.3,0.2-2.4,3.7,0,3.7c11.3-0.4,22.7-1.5,33.9-3.3c2.3-0.4,1.3-3.9-1-3.5
				c-10.9,1.8-21.9,2.8-32.9,3.2c0,1.2,0,2.4,0,3.7c0.4,0,0.8-0.1,1.2-0.1C418.6,210.4,418.6,206.7,416.3,206.9L416.3,206.9z"/>
		</g>
	</g>
	<g>
		<path class="st3" d="M376.2,154.5c-2,35.9-0.7,71.1-2.4,106.5c0,0.9-0.1,1.9-0.7,2.5c-0.7,0.7-8.4,0.7-9.3,0.7
			c-6.6,0-7.9-0.8-10.9-6.8c-0.8-1.6-1.2-3.3-1.3-5.1c-1.7-31.8-6.2-63.3-3.1-94.9c0,0,1.5-12.3,15.5-11.9
			C377.8,146.1,376.4,151.2,376.2,154.5z"/>
		<g>
			<path d="M372.9,154.5c-1.1,21.2-1.2,42.5-1.3,63.9c-0.1,10.4-0.3,20.9-0.5,31.4c-0.1,2.6-0.2,5.3-0.3,7.8c0,1,0.1,2.7-0.2,3.5
				c0.1-0.2,1.5-0.6,0.4-0.4c-2.3,0.6-5.3,0.3-7.7,0.3c-3.1-0.1-4.7-0.3-6.3-3c-2.9-4.7-2.3-10.6-2.7-16
				c-0.7-10.3-1.6-20.7-2.3-31.1c-0.7-10.3-1.2-20.7-1.2-31c0-7.2-0.5-15.5,1.1-22.7c1.2-5.2,5.6-8.1,10.8-8.3
				c2.2-0.1,8.7-0.3,10.2,2.1C373.3,152,373,153.4,372.9,154.5c-0.3,4.3,6.3,4.2,6.6,0c0.3-4.8-1-8.6-5.8-10.5
				c-6.8-2.9-16.4-2.6-22.4,2.1c-3.2,2.6-5.5,6.4-6.2,10.5c-2.1,11.9-1.3,25.1-0.8,37.1c0.4,12.7,1.5,25.3,2.5,37.9
				c0.4,6.3,0.9,12.8,1.2,19.1c0.4,4.7,1.5,9.2,4.5,12.9c4.1,5,11.5,4.3,17.3,3.8c3.2-0.3,5.9-0.6,6.9-4.1c0.8-2.8,0.4-6.3,0.5-9.2
				c0.1-3.5,0.3-7,0.4-10.4c0.8-29.7,0.2-59.4,1.8-89.1C379.8,150.3,373.2,150.3,372.9,154.5z"/>
		</g>
	</g>
</g>
</svg>
