<?xml version="1.0" encoding="utf-8"?>
<!-- Generator: Adobe Illustrator 19.2.0, SVG Export Plug-In . SVG Version: 6.00 Build 0)  -->
<svg version="1.1" id="Layer_1" xmlns="http://www.w3.org/2000/svg" xmlns:xlink="http://www.w3.org/1999/xlink" x="0px" y="0px"
	 width="531.5px" height="507px" viewBox="0 0 531.5 507" style="enable-background:new 0 0 531.5 507;" xml:space="preserve">
<style type="text/css">
	.st0{fill:#020204;}
	.st1{fill:#AFAFC5;}
	.st2{fill:#FBFCFC;}
	.st3{fill:#030306;}
	.st4{fill:#2BADBE;}
	.st5{fill:#030409;}
	.st6{fill:#030407;}
	.st7{fill:#BFBECC;}
	.st8{fill:#B9B9CC;}
	.st9{fill:#04060A;}
	.st10{fill:#050609;}
	.st11{fill:#040507;}
	.st12{fill:#C0C1CF;}
	.st13{fill:#040409;}
	.st14{fill:#06090E;}
	.st15{fill:#150F04;}
	.st16{fill:#0F0F10;}
	.st17{fill:#EEEFF1;}
	.st18{fill:#140A05;}
	.st19{fill:#332408;}
	.st20{fill:#262309;}
	.st21{fill:#342A0F;}
	.st22{fill:#040406;}
	.st23{fill:#030303;}
	.st24{fill:#2E240C;}
	.st25{fill:#050505;}
	.st26{fill:#080808;}
	.st27{fill:#161618;}
	.st28{fill:#0F0F0F;}
	.st29{fill:#151619;}
	.st30{fill:#0A0C0B;}
	.st31{fill:#FAFBFC;}
	.st32{fill:#DADCDE;}
	.st33{fill:#120E06;}
	.st34{fill:#FAFAFB;}
	.st35{fill:#ECEEEF;}
	.st36{fill:#E8EBEC;}
	.st37{fill:#EDEFF1;}
	.st38{fill:#F8F9F9;}
	.st39{fill:#342A08;}
	.st40{fill:#342404;}
	.st41{fill:#CED1D3;}
	.st42{fill:#020205;}
	.st43{fill:#333439;}
	.st44{fill:#FEFEFD;}
	.st45{fill:#ACACC0;}
	.st46{fill:#92949C;}
	.st47{fill:#160C07;}
	.st48{fill:#201605;}
	.st49{fill:#0F0E05;}
	.st50{fill:#181409;}
	.st51{fill:#050509;}
	.st52{fill:#090B0E;}
	.st53{fill:#07070B;}
	.st54{fill:#232526;}
	.st55{fill:#080908;}
	.st56{fill:#121116;}
	.st57{fill:#EFF2F3;}
	.st58{fill:#E1E4E7;}
</style>
<g>
	<path class="st0" d="M180.5,308.6c-24.6-55.4-4.8-107.6,37.4-142.9c16.7-14,36.3-16.1,57.1-12c2,0.4,4.8,0.6,4.5,2.9
		c-0.5,4-3.7,1.1-5.5,1.2c-9.9,0.5-20-1.4-31.9,1.9c23.9,4.4,44.8,11.6,65.2,20.3c27.5,1.7,39.4,22.8,50.5,43
		c7.8,14.2,10.4,30.9,9.4,47.2c-1.2,19.4-9.6,36.6-21.3,52.2c-7.2,9.6-16.6,16.9-25.2,25c-4.5,4.2-10.1,6.7-16.1,8.2
		c-15.8,4.1-31.7,5.9-48,4.1c-6.6-0.8-13.3-0.4-19.9-0.2c-11,0.4-21.4-1.4-30.8-7.2c-4.6-2.8-8.2-2.2-12.6,0.9
		c-15.1,10.5-27.5,23.7-38.7,38.2c-9.5,12.2-21.8,19.5-37.3,21.3c-9,1-15.8-2.2-20.3-10.1c-0.6-10.4,0.5-20.4,5.3-29.8
		c3.6-4.6,5.7-3.1,6.6,1.8c0.4,2-0.6,4-1.5,5.8c-2.6,5-2.7,9.8,2.6,12.9c4.9,2.9,10.4,3.6,15.3-0.5c2-1.7,4-3.4,5.6-5.5
		c12.3-16,28.5-27.7,43.5-40.7c3-2.6,8.2-4.9,3.6-10.3c-3.5-4.2-6.4-7.2-12.9-3.2c-16,10-30.3,22-44.5,34.3c-2.6,2.3-6,6.9-9.4,3.5
		c-4.3-4.3,0.9-7.7,3.6-10.8c4.8-5.5,10.3-10.1,16.9-13.3c8.7-6.3,16.9-13.9,26.4-18.7c8.2-4.1,13-11.8,20.7-16
		c3,1.5,2.9,3.9,1.9,6.6c-2.7,7.1,2,10.6,6.7,14.1c1.4,1.1,3.3,1.5,4.8,0.1c2.1-1.8,0.9-3.6-0.4-5.3
		C187.3,321.6,182.7,315.8,180.5,308.6z"/>
	<path class="st1" d="M97.1,402.4c15.2,12.4,33.8,10.3,49.4-5.9c11.7-12.2,21.1-26.7,34.8-37.1c4.8-3.6,9.3-7.7,13.9-11.6
		c3.3-2.8,6.5-2.1,9.3,0.6c6,5.8,13.8,7.9,21.4,8.2c25.5,1.1,51.1,4,76.6-2.7c12.4-3.3,20.1-11.9,28.9-19.5
		c17.9-15.4,29-35.2,32.7-58.3c3.5-21.4-1.7-41.9-12.8-60.3c-5.7-9.5-12.5-18.4-21.5-25.7c-6.9-5.6-14.3-8.4-22.5-10.2
		c5.1,1,9.7-1.9,14.7-1.7c1.6-0.1,3.1-0.1,4.4,0.8c2.2,2.1,5-0.3,7.3,1c1.6,5,6.9,6.6,9.6,10.6c6.1,8.9,14.6,16.1,17.9,26.8
		c4.4,14.4,10.5,28.3,12.1,43.4c0.4,2.3,0.3,4.7,0.3,7c-1,4.3,5.4,5,4.6,9.3c-3.6-0.3-5.9,0.8-6.6,4.9c-2.3,13.8-8.3,25.6-17.4,36.6
		c-8.9,10.8-16.5,22.9-27.3,31.8c-14.9,12.3-34,12.8-51.8,16.8c-14.8,3.3-29.9,1.8-44.8,1.6c-6.6-0.1-12.8-3.4-18.2-7.2
		c-6.1-4.4-11.1-3.1-16.1,1.7c-4.4,4.3-8,9.1-11.3,14.1c-10.2,15.8-25.3,25.7-41.7,33.6c-11.1,5.4-23.3,3.4-34.9,2.6
		C102.6,413.4,97.3,409.6,97.1,402.4z"/>
	<path class="st2" d="M131.8,346.6c-5.8,5.5-11.7,10.9-17.5,16.4c-2,1.9-5.4,4.6-3.2,7.1c2.9,3.3,4.7-1.2,6.6-2.8
		c14.9-12.7,29-26.3,46.4-35.6c2.8-1.5,4.9-3.8,7.1-6.7c1.8,2.3,3.3,4.3,4.9,6.3c7.4,9.4,7.6,9.7-1.3,17.2
		c-16.8,14.1-33,28.7-47.5,45.2c-4.6,5.2-14.2,5.7-19.6,1.2c-6-5.1-5.5-10.9-1-16.7c1.3-1.7,2.2-3.5,0.9-5.5
		c-1.6-2.5-3.4-0.9-5.2-0.1c-1.7-4,0.6-8.2-1.3-12.5c-1.5-3.4,0.8-5.6,4.7-3.9c3.3,1.4,6.5,0.3,7.3-2.3
		C116.5,343.5,124.8,346.9,131.8,346.6z"/>
	<path class="st3" d="M432.1,240.8c-4.2-5.4-11.5-5.2-16.3-10.8c-15.8-18.5-10.2-44.7,12.6-54.1c11.2-4.6,22.2-3.9,33.2,0.7
		c5.8-1.8,8.5,1,11.2,5.9c8.3,14.4,7.1,29,0.6,43.2c-4.5,9.8-14.2,14.5-24.4,15.9C443.8,242.4,437.7,242.6,432.1,240.8z"/>
	<path class="st4" d="M372.2,281c-1.1-2.3-2.7-4.6-1.4-7.4c5.2-11.2,14.6-11.7,25.1-10.2c18.4,2.6,36.9,2.8,55.4,3.5
		c4.4,0.2,5.2,1.7,3.9,5.9c-3.7,12.4-11,18.5-23.8,17.6c-11.1-0.8-22.8,2.2-33.1-4.3c2.4-3.4,6.1-2.8,9.4-3.1
		c10.6-1.1,21.3-1.3,29.6-2.7c-18,1.2-38.1,4.2-58.5,2.2C376.6,282.2,374.3,282.2,372.2,281z"/>
	<path class="st5" d="M105.9,185.2c-5.5-5.1-0.9-13.7-6.4-18.7c-5.2-4.7-12.5,0.5-18.3-4.1c-6.4-5-10.9-10.3-10.4-18.5
		c0.4-7.6,6.7-10.2,12.5-12.7c6.4-2.7,12.8-5.2,19.8-5.8c7.6-0.6,14.8-0.2,20.5,6.3c5.1,5.9,12.8,0.5,18.8,3.2
		c0.7,0.6,1.1,2,0.7,2.2c-8.1,2.8-5.6,9.8-6.3,15.5c-0.8,6.6-4.3,11.5-9.7,14.3c-6.4,3.3-11.2,7.6-14.6,13.9
		C111.1,183.2,109.6,186.2,105.9,185.2z"/>
	<path class="st4" d="M174.9,197.3c-5.8,12.5-7.7,11.7-18.5,4.8c-8.9-5.8-17.2-12.9-27.1-17.1c-2.6-1.1-4.3-2.4-5.4-4.9
		c-1.5-2.4-1.9-4.7,1-6.4c1.6-2.3,2.9-4.9,4.9-6.8c4.3-4.1,7.3-8.1,15.4-2.9c9.1,5.9,17.5,13.4,28,17.2c3.2,1.1,2.5,5.4,3.2,8.5
		c-3.5,2.7-5.9-0.5-8.2-2c-8.3-5.1-16.5-10.5-24.7-15.7c8.1,6.1,16.8,11.4,25.1,17.1C171.4,191.1,175.6,192.4,174.9,197.3z"/>
	<path class="st6" d="M145.7,134.9c2.9-1.5,4.2,0.9,5.7,2.4c1.6,1.5,3.3,1.5,4.1-0.4c2.5-6,8.6-7.2,13.1-10.4
		c6.2-4.4,7.5-9.3,3.3-16.1c-8.8-14.4-31.5-16.8-42.5-4.2c-6.8,7.8-5.7,16.6,3.6,24.8c-7.2,1.2-10.3-3-11.8-8.3
		c-3.1-10.3,1.5-20,11.2-25.3c15.9-8.7,29.8-4.8,42.7,6.3c12.4,9.6,12.1,22.6-1.1,33.8c-4.3,3.7-9.1,6.8-12.4,11.6
		c-2.3,3.3-5.6,3.7-9.1,1.5c-1.8-2.9-3.6-5.8-5.4-8.7C145.1,140,143.8,137.8,145.7,134.9z"/>
	<path class="st4" d="M482.9,183.7c5.3-1.4,1.9-6,3.2-8.9c3.3-4,7.2-7.3,14-9.6c-6.7,0.2-10.2,6.3-15.6,2.8
		c-1.5-2.7,1.4-4.7,1.3-7.1c3.3-2.7,7.4-4.1,11-6.2c4.3-2.5,7.5-1.4,9.6,3c3.5,2.9,6.4,5.5,2,10.3c-2.7,2.9-2.8,7.8,0.2,9.9
		c8.3,5.8,4.1,8.3-2.1,10.9c-3.1-4-7.2-5.2-13.2-4.5c5.3,1,10,0.7,13.3,4.3c0.1,2.5,1.3,6.3-1,7.2c-13,5.3-0.7,7.4,1.5,9.7
		c1.9,2,3.6,3.8,3.2,6.5c-0.7,4.3-4.5,2.2-6.9,2.9c-0.3-0.2-0.7-0.4-1-0.6c-3.1-4.7-7.1-8.2-12.8-9.4c-0.7-0.4-1.2-1-1.5-1.8
		c-0.6-5.5-1.2-11-5.6-15.2C481.5,186.9,480.7,184.9,482.9,183.7z"/>
	<path class="st7" d="M482.9,183.7c4.1,6.2,8.2,12.4,6.3,20.4c0.1,3.3-1.8,5.8-2.9,8.7c-4.8,15.3-16.9,23.9-29.7,31.8
		c-1.1,0.7-3.2,1.5-4,1c-6.2-4.4-14-1.5-20.4-4.8c6-0.7,12.1,1.1,18-0.7c23.6-7.1,33.9-34.6,21-55.7c-2.3-3.7-3.1-9.1-9.5-7.8
		C471.4,171,476.5,179.4,482.9,183.7z"/>
	<path class="st4" d="M343.4,190.7c-4.8-1.8-10.5-2.7-11-9.5c-1.6-4.8,2.4-7.1,4.5-10.3c7.3-11.2,19-17.9,28-27.5
		c2.2-1.7,4.3-0.1,6.5,0.3c5.6,1.7,4.7,5.9,1.8,8.4c-12,10.6-20.2,23.7-27.5,37.7C345.4,190.3,344.2,190.4,343.4,190.7z"/>
	<path class="st8" d="M145.7,134.9c0.5,2.4,1.1,4.7,1.6,7.1c1.7,12.8-4.1,21-15.5,25.9c-3.5,1.5-5.3,4.3-5.4,8.1c-0.8,2-1.5,4-2.3,6
		c-2.2,2.6-4.2,5.5-6.7,7.7c-5.4,4.8-10,2.9-11.6-4.5c1.2-1.2,2.5-2.3,3.5-3.6c5-6.1,7.6-13.6,16.6-16.8c9.4-3.4,12-16.7,6.5-25.2
		c2.7-2.8,9.3,2.6,9.8-4.7C143.4,135,144.6,134.9,145.7,134.9z"/>
	<path class="st9" d="M411.6,91.9c-1.8-0.8-2.6-1.1-3.4-1.6c-9.7-6-9.8-6.1-12,5.7c-0.7,3.8,0.5,8.7-6.4,7.2c-2-0.5-3,1.6-3.4,3.2
		c-2.3,9.5-7.2,6.6-11.3,1.9c-5.2-5.8-9.2-8.7-12.9,1c-0.8,2.2-2.4,4.4-5.2,2.2c-2.4-1.8-1.9-3.9,0.1-5.8c0.2-0.2,0.4-0.4,0.6-0.6
		c8.9-11.4,8.9-11.4,22.1,1.2c1.3-9.5,12.9-10.8,14.4-20.3c-0.9-0.2-1.4-0.5-1.9-0.4c-3.3,0.2-6.9,6.3-9.5,1c-2.3-4.6,4-4.3,6.4-5.8
		C399.1,74.4,406.2,77.7,411.6,91.9z"/>
	<path class="st10" d="M247.9,103.9c0.1-2.9,0.2-5.7,0.4-8.6c0.4-5.6,11.1-11.3,16-8.5c2.3,1.3,2.9,3.6,2.3,6
		c-1.9,7.6-3.2,15.2-1.1,23c0.3,1.2,0.7,3.1-1.3,3.4c-1.7,0.3-3.5,0.5-4.1-1.9c-1.1-4-2.7-3.5-5.3-1c-4.3,4.1-6.5,2.7-6.6-3
		c0-3.2,0-6.3,0-9.5C248.1,103.9,248,103.9,247.9,103.9z"/>
	<path class="st11" d="M362.9,127c-5.2,0-10.4-0.1-15.6,0c-2.6,0.1-6-1.3-4.9-3.2c5.8-9.5-0.4-19.5,2.2-29c0.7-2.5-1.2-7.2,2.5-7.1
		c4,0,2.2,4.5,2.2,7c0,6.1-0.2,12.1-0.5,18.2c-0.3,6.9,2.3,9.8,9.7,9.6c11.5-0.4,23.1-0.4,34.5,1.4c2.9,0.5,6,1.5,8.8-1.6
		c2.2-2.4,4.5,0.2,5.5,1.9c1.5,2.8-1.2,4.5-3.3,4.9c-2.7,0.5-5.7,0.2-8.5-0.3C384.7,127.2,373.9,126.2,362.9,127z"/>
	<path class="st12" d="M152.7,150.7c1.7,0,4.5,0.6,4.8-0.1c5.4-10,17.3-13.5,22.8-23.6c5.2-9.6-0.8-16.1-5.1-23.3
		c3.8-1.6,6.6-0.2,9,2.8c5.6,6.9,4.2,22.4-2.8,27.8c-6.4,5-12,10.4-15.4,18.1C163.2,158.9,159.4,158.2,152.7,150.7z"/>
	<path class="st4" d="M371.3,143.7c-1.7,1.8-3.3-0.6-5-0.1c-4.3-0.9-7.6,0.8-10.7,3.8c-8.3,8.3-15.9,17.2-22.9,26.6
		c-2,2.6-3.2,6.3-7.4,6.4c-1.1-0.7-2.2-1.4-3.3-2.1c8.3-14.7,18-28.6,30.5-39.7C358.7,133.1,365.9,138.8,371.3,143.7z"/>
	<path class="st13" d="M239.1,98.3c6.4-1,8.7,1.7,6.2,8.4c-0.6,1.6-1,3.6-0.4,5.1c4.5,11.5-5.1,8.3-10.1,9.9
		c-0.7,0.2-1.9-0.2-2.3-0.7c-4.6-5.9-2.5-12.6-1.9-18.9C231,96.9,235.2,98,239.1,98.3z"/>
	<path class="st14" d="M286.8,109.6c0.1,2.6,0.3,5.2,0.4,7.7c0,1.4-0.1,3.1-1.7,3.7c-2.2,0.8-3.2-0.9-3.6-2.7c-1.3-5-3.6-3.2-5.9-1
		c-5.6,5.1-7.4,1.3-6.7-3.5c0.7-5.3-3.6-12.8,4.9-15.5C283.2,95.5,285.6,97.8,286.8,109.6z"/>
	<path class="st15" d="M372.2,281c8.2-2.4,16.4,0.6,24.7-0.1c14.3-1.3,28.6-2,43-3.1c2.7-0.2,5.5-1.5,8.3,2.1
		c-16.9,4.5-33.6,3.9-49.8,6.1c-5.3,0-10.6-0.1-15.9-0.1C378.8,284.7,373.6,286.9,372.2,281z"/>
	<path class="st16" d="M262.9,132.7c-8.3,0-16.7,0.1-25,0c-2.5,0-6,0.4-5.5-3.5c0.4-3.3,3.5-2.7,6.2-2.6c17,0.7,33.9,1.2,50.9,1.6
		c2.1,0.1,4.7-0.4,4.9,2c0.3,3-2.5,3.4-4.8,3.2C280.7,132.6,271.8,132.5,262.9,132.7z"/>
	<path class="st4" d="M159,75.8c-2.7-0.8-6.6-1.5-6-4.9c0.9-5,4.2-9.2,8.7-11.9c1.6-1,3.8-1.3,5.8-1.6c4.1-0.4,8.9-4.2,12,0.1
		c3.2,4.5-3.4,5.5-4.8,8.5c-2.1,4.6-3.2,10-10,9.7c-2.6-2.9-1-5.8-0.3-8.7C161.9,69.4,163.3,74.4,159,75.8z"/>
	<path class="st17" d="M180.5,308.6c5,6.5,8.7,13.9,14.7,19.7c2.6,2.5,1.7,4.4-0.8,6.3c-2.1,1.6-3.8,5-7,1.4
		c-2.8-3.2-5.6-6.4-8.5-9.6c-4-4.3-0.6-7,1.9-10.2c1.2-1.6-1.1-3-1.9-4.3C179.4,310.8,179.9,309.7,180.5,308.6z"/>
	<path class="st18" d="M174.9,197.3c-8.3-8-18.8-12.9-28.1-19.5c-1.9-1.3-3.8-2.6-5.5-4.1c-1.9-1.6-4.9-3.5-2.3-6.1
		c1.8-1.8,3.9,0.1,5.9,1.7c9.8,7.9,20.6,14.4,31.6,20.4c2,2.4,7.2,3.1,5.1,7.6C179.9,200.7,177.1,198.2,174.9,197.3z"/>
	<path class="st4" d="M135.4,58c-5-0.6-4.6-4.8-3-6.9c3.2-4.2,9.5-6.1,13.7-5.6c4.2,0.6,6.7,6.7,7,11.9c0.3,6-4.3,5.7-8.2,6.2
		c-3.6-0.5-3.6-4-5-6.3C137.6,53.8,136.8,57.4,135.4,58z"/>
	<path class="st4" d="M486.3,212.8c-0.1-3.3-0.9-6.7,2.9-8.7l0.2,0.1c4.4,3.4,9,6.6,13.5,10c0.2,0.2,0.5,0.4,0.7,0.7
		c-1.1,2.5,2,7.4-2.8,7.4c-4,0-9.3,0.2-11.1-5.5C489,215.3,490.5,211.6,486.3,212.8z"/>
	<path class="st4" d="M116.6,64.6c4.7-3.2,16.9-2.6,20.7,1.1c2.9,2.8,0.9,4.8-1.9,5.6c-4.7,1.5-9.5,1.9-14.2-0.1
		C122,67.4,116.2,68.2,116.6,64.6z"/>
	<path class="st19" d="M484.6,168.1c4.9,0.2,7.9-4.4,12.4-5.1c2-0.3,4.5-0.3,5.1,1.9c0.6,2.1-1.8,2.6-3.4,2.7
		c-5.5,0.3-6.3,8.4-12.6,7.2C485.5,172.6,481.7,171.1,484.6,168.1z"/>
	<path class="st4" d="M506.5,157.6c-4.2-4-8.6-3.3-12.3,0.2c-2.5,2.4-5.1,3.2-8.3,3c1.6-4.5,15.6-11.5,19.3-9.4
		C507.6,152.8,506.7,155.4,506.5,157.6z"/>
	<path class="st20" d="M135.4,58c1.1-2.4-2-6.5,2-7.2c3.8-0.7,3.1,3.8,4.4,6c1.3,2.1,3.1,4,3,6.8C138.8,66.7,137.2,62.2,135.4,58z"
		/>
	<path class="st21" d="M159,75.8c1.1-6.2,2.9-12,8.7-17.1c1.2,7.2-4.2,11.5-3.1,17.1C162.8,77.9,160.9,77.7,159,75.8z"/>
	<path class="st22" d="M480.9,278.7c0.2,3.3-0.9,4-3,3.8c-2.5-0.2-4.3-1.3-4.5-4c-0.2-2.2,1.1-4.3,3.1-4.1
		C479,274.7,480.7,276.9,480.9,278.7z"/>
	<path class="st23" d="M220.3,62.9c-1.1,2.4-2.7,3.2-4.9,2.7c-2.1-0.4-3.8-1.6-3.6-3.9c0.1-2.2,1.8-3.6,4.1-3.1
		C218.1,59.2,219.4,61,220.3,62.9z"/>
	<path class="st24" d="M116.6,64.6c3.5,0.8,10.5-0.7,4.6,6.6C117.9,70.2,111.2,71.6,116.6,64.6z"/>
	<path class="st0" d="M525.7,232.7c-0.4,2.2-1.6,3.7-3.7,4.2c-2.3,0.5-3.8-1.5-4.3-3.2c-0.8-2.4,1.3-3.4,3.3-3.8
		C523.2,229.7,524.8,230.8,525.7,232.7z"/>
	<path class="st25" d="M60.9,98.5c-2-0.6-3.7-1.5-3.9-3.9c-0.2-2,0.6-3.4,2.8-3.3c2.5,0.1,4.6,1.2,4.6,4
		C64.4,97.1,62.9,98.2,60.9,98.5z"/>
	<path class="st26" d="M465.3,129.1c0,2.4-1.6,2.7-3.4,2.6c-2.3-0.1-3.8-1.3-3.8-3.6c0.1-2.4,1.9-3.6,4-3.2
		C464.2,125.2,465.6,126.7,465.3,129.1z"/>
	<path class="st27" d="M369.5,218.8c-1.9-0.1-3.6-0.6-3.5-2.7c0.2-2.2,1.7-3.4,4-3.3c1.7,0.1,3.6,0.1,3.3,2.5
		C373.1,217.5,371.6,218.6,369.5,218.8z"/>
	<path class="st28" d="M69.5,226c-0.5,1.8-1.9,3.3-4.1,2.8c-1.6-0.4-2.9-1.7-2.8-3.7c0.1-2.6,2.4-3.2,4.2-3
		C68.2,222.3,69.7,223.6,69.5,226z"/>
	<path class="st29" d="M150.9,118.4c-0.8,1.9-1,4.1-3.1,4.2c-2.1,0.1-4.1-1-3.9-3.6c0.1-1.8,1.3-3.2,3.3-3.3
		C149.4,115.4,150,117.2,150.9,118.4z"/>
	<path class="st30" d="M158.9,119.6c-3.6,0.2-4.6-0.8-4.6-2.9c0-1.6,0.6-2.6,2.4-2.7c1.9,0,3.4,0.7,3.7,2.6
		C160.7,118.6,159.3,119.5,158.9,119.6z"/>
	<path class="st31" d="M187.4,211.2c9.1-18.1,22.2-32.6,38.5-44.7c7.7-5.7,15.6-3.4,23.2-1.6c17.1,4.1,34.2,8.8,49.7,16.9
		c26.9,14,44.5,34.9,51.2,66c8.9,41.5-16.9,77.5-59,93c-25.7,9.4-51.1,11.6-76-2.6c-13.2-7.5-23-18.1-30.2-31.3
		c0.6-0.7,1.3-1.3,2.1-1.6c7.1-1.2,9.4,4.6,12.6,8.8c12,15.6,28.1,23.2,47.3,22.9c16.9-0.3,33-5.1,48.2-12.7
		c19.4-9.7,32.3-25.3,36.4-46c6.4-32.4-0.7-61-28.4-82.7c-16.7-13.2-36.3-16.6-56.1-19.9c-11-1.8-20,4.7-28.5,10.7
		c-8.8,6.2-16.5,13.5-23.1,22.1c-1.6,2.1-3.3,4.1-5.9,5C188,213.4,186.8,213.2,187.4,211.2z"/>
	<path class="st32" d="M187.4,211.2c0.5,0.6,1,1.2,1.4,1.8c1.3,6.7-2.5,12.3-4.5,17.9c-8.1,22.3-4.2,44.1,1.5,65.9
		c0.9,3.3,3.1,6.3,1.6,9.9c-0.9,0-1.7,0.1-2.6,0.1C169.5,274.5,170.5,242.6,187.4,211.2z"/>
	<path class="st33" d="M325.3,180.4c9.7-13.3,19.6-26.3,31.8-37.5c3.3-3,6.6-5.6,9.2,0.6c-11,12.8-25.6,22.3-33.9,37.6
		C329.5,185.7,327.2,185.3,325.3,180.4z"/>
	<path class="st34" d="M435.3,179.9c-0.5,8.1-0.7,15.5-1.4,22.9c-0.4,4,0.9,6.3,4.8,7.8c6.1,2.4,12,5.4,17.9,8.3
		c3.3,1.6,3.9,3.6,0.8,6.5c-8.8,8.1-28.8,8.7-37.8,1.3c-8.4-6.8-9.3-15.4-7.2-25C414.8,191.1,423.4,182.8,435.3,179.9z"/>
	<path class="st35" d="M443.4,203.5c4.4-7.3,10.4-11,15.2-15.7c2.1-2.1,3.7-0.8,4.4,1.5c1,3,1.8,6,2.4,9.1c1,4.9-0.8,6.8-6,6
		C454.5,203.6,449.4,203.8,443.4,203.5z"/>
	<path class="st36" d="M438.8,196.8c1-5.3,2-10.5,2.9-15.8c0.5-3.4,2.6-4.3,5.5-3.8c3.6,0.6,8.5,0,10,3.4c1.7,4-3.6,4.9-5.9,7
		c-3.5,3.3-7,6.5-10.5,9.8C440.1,197.2,439.4,197,438.8,196.8z"/>
	<path class="st37" d="M450.5,209.2c3.7,0,7.4,0,11,0c3.8,0,3.2,2.5,2.7,4.8c-0.5,2.3-1.8,3.6-4.3,2.2c-3.2-1.7-6.5-3.5-9.7-5.2
		C450.3,210.4,450.4,209.8,450.5,209.2z"/>
	<path class="st38" d="M107.5,167.3c-2.7-0.7-3.1-2.9-3.9-4.7c-1.5-3.5-3-4.4-7.1-2.7c-8,3.2-16.7-1.3-19.4-9.3
		c-1.6-4.9-1.6-9.7,4.8-11.8c5.7-1.9,11.1-4.6,16.9-6.2c12.1-3.5,19-0.4,25.2,10.4c2.9,5-0.3,13-6.4,13.1
		C109,156,107.9,161,107.5,167.3z"/>
	<path class="st39" d="M506.8,188.7c-5.4-0.4-10.6-2.6-16.2-1.7c-2.5,0.4-4.1-1.5-1.9-3.7c3-3.1,6.9-2.6,10.6-1.4
		c3.5,1.1,8.9,0.5,7.5,7C506.7,188.8,506.8,188.7,506.8,188.7z"/>
	<path class="st40" d="M502.8,214.3c-5.6-1.9-12.3-2.2-13.5-10C497.8,202.2,500.9,207.4,502.8,214.3z"/>
	<path class="st41" d="M260.5,96.7c-0.1,3.1-2.2,5-5,5.9c-1.8,0.6-2.2-1.2-2.2-2.6c0.1-2.9,0.3-5.8,4-6.4
		C259.4,93.3,260.3,94.6,260.5,96.7z"/>
	<path class="st42" d="M187.4,306.7c-13.2-31.5-14.1-62.7,1.4-93.8c7.9-10.7,17.4-19.8,27.7-28.2c15.1-12.3,31.2-14.9,49.1-8.2
		c6.8,2.5,14.3,3.1,20.7,5.9c14.8,6.5,27.5,16.6,36.4,30.2c24.3,36.7,19.3,101.5-41.9,120.3c-14.9,4.6-30,8.5-45.8,5.5
		c-16.2-3-29.4-10.9-38.9-24.7C194.1,310.6,192.9,305.7,187.4,306.7z"/>
	<path class="st43" d="M98.3,146c3.7-2.2,8.2-2.5,12.6-3.5c2.2-0.5,3.3,0.6,3.7,2.3c0.4,1.8-1.1,2.1-2.5,2.6
		C107.1,149.3,102.5,149.1,98.3,146z"/>
	<path class="st44" d="M298,195.9c22.8,13,31.9,34,33,58.8c1.9,44.9-25.3,69-66.6,77.8c-22.2,4.7-42.6,1.9-59.2-14.8
		c-9.8-9.8-16-21.6-16.3-36.1c-0.2-10.7-0.6-21.3,0.7-32c6-7.4,10.3-15.8,16.4-23.3c13.4-16.4,31.2-24,50.7-29.1
		c2.5-0.6,5.2-0.8,7.7-0.3c10.7,2.2,21.1,1.5,31.5-2C296.6,194.7,297.4,195.2,298,195.9z"/>
	<path class="st45" d="M298,195.9c-9.6,4.2-19.3,4.4-30,3.8c-22.5-1.3-41.6,8.4-57.3,24.5c-6.8,7-12.1,15.1-17.2,23.4
		c-1.2,2-2.5,1.8-4.1,2.1c0.5-15.3,7.7-28.1,15.8-40.4c4.8-7.2,12.1-11.7,20.2-14.2c15.5-4.8,31.5-7,47.5-3.8
		C281.3,192.9,290,192.5,298,195.9z"/>
	<path class="st46" d="M240.9,179.6c2.8-6.2,6.2-2.8,9.9-2.3C247.8,180.3,244.8,180.5,240.9,179.6z"/>
	<path class="st4" d="M215.4,282.3c-0.2-4.5-0.4-9-0.6-13.5c5-10.7,7.7-11.6,17.2-5.4c1.6,1.1,2.6,0,3.8-0.6
		c0.7-0.4,1.4-0.6,2.2-0.7c5.3,0.3,10.6-6.1,16,0.5c2.4-5.1-1.6-11.3,3.5-15.3c4-1.1,7.4-0.7,8.8,4c0.6,5.5-2.1,10.5-2.7,16.7
		c5.1-1.7,9.5-4.1,14.9-2.1c-0.3-6.6-5.3-10.7-5.8-16.4c1.3-9.3,9.8-6.7,15.3-8.8c3.1-1.2,4.7,2.2,5.4,5.1c0.8-0.2-0.3,5.1,1.8,0.8
		c2.5-5.2,2.7-11.6,8.7-14.7c0.1,9,4.4,12,13.3,10.7c7.4-1.1,8.5,4.1,8.8,10.4c0.3,6.9-2.6,9.4-9.1,9.1c-5.5-0.2-10.7,1.2-16,2.7
		c-4.9,1.4-7.2,4.2-6.4,9.3c-1.2,4.6-3.9,6.1-8.8,6.2c-9.7,0-19.2,3.5-29,0.7l0,0c-10.9-2-21.7-2-32,2.9
		C221.5,285.2,217.9,287.5,215.4,282.3z"/>
	<path class="st4" d="M265.4,251.1c-1.3-3.1-4.9-2.3-7-3.9c-4.8-2.1-4.2,2.2-5.2,4.5c-3.3,7.5-6.4,8.1-12.9,1.7
		c-1.6,3.3,0.9,7.7-2.9,10h-0.6l-0.6,0.1c-5.4-0.2-4.3-5.1-6-8c-1.6-2.9-1.2-7.6-5.7-7.8c-3.9-0.2-4.4,4-6,6.6
		c-0.7,1.3-1.4,2.5-3.2,2.2c-3.6,0.1-7.8,0-7.3-4.9c0.6-6.3-4.7-13.8,3.8-18.8c10.4-6.2,21.9-8.9,33.4-11c15.9-2.8,32-4.6,48.2-3.4
		c3,0.2,7.3-1.8,8.8,3.2c-10.8,0.5-19.8,6.1-30.4,10.6c3.9,2.7,7.3,2,10.8,1.2c6.8-1.6,11.3,0.6,12.5,7.9c-0.2,2.3-0.5,4.6-3.4,5.1
		c-0.5-3.7-2.1-6.5-5.8-3.4c-3.6,3-11.1-1.1-11.8,6.7C271.3,250.7,268.4,251.1,265.4,251.1z"/>
	<path class="st4" d="M293.4,241.1c-1.2-5.6-4.5-8-9.9-5.6c-3.4,1.5-6.5,1.7-9.9,0.3c-2.1-0.9-5.9,1-5.8-3.2
		c0.1-2.7,2.9-3.2,5.1-3.8c5.5-1.6,10.8-3.6,15.3-7.2c4.7-3.9,9.3,1.6,14,0c1.3,0.8,4,1,1.4,3.4C299,229.5,300.4,237.9,293.4,241.1z
		"/>
	<path class="st47" d="M215.4,256.4c1.3-3.1,2.6-6.2,4-9.2c1.2-2.6,3-3.7,6.1-3.5c3.3,0.2,4.2,2.3,5,4.8c1.5,5.1,1.6,10.7,5.7,14.8
		c-0.1,3-0.9,8.8-4.3,3.7c-7-10.5-10.8-6.1-15.6,1c-0.3,0.4-1,0.4-1.6,0.7C211.9,264.5,213.4,260.4,215.4,256.4z"/>
	<path class="st4" d="M215.4,282.3c4.8,3.8,8.5,0,12.5-1.7c9.7-4.2,19.3-6.2,28.9,0.2c-12.1,3.2-25.1,1.1-37,6.5
		C216.3,288.8,214.8,285.9,215.4,282.3z"/>
	<path class="st48" d="M291.3,244.4c1.6-3.9,3.5-7.8,4.8-11.8c0.9-2.7,2-4.7,5.3-4.3c1.3,2.2,0.6,4.5,0.5,6.8
		c-3.1,4.8-4.9,10.2-6.8,15.6c-0.8,2.2-0.8,6.6-4.4,6.4C287.3,256.9,290.8,246.2,291.3,244.4z"/>
	<path class="st4" d="M256.9,280.7c9.9-0.6,19.8-1.7,29.6-1.8c4.4,0,5.4-3.5,8.2-5.2c1.1,5.5-0.6,7.7-6.7,7.3
		c-8.9-0.6-17.6,3.7-26.8,1.6C259.6,282.2,257.8,282.5,256.9,280.7z"/>
	<path class="st49" d="M265.4,251.1c2.5-3.3,5.4-4,8.8-1.4c2.6,4.8,5.2,9.6,7.7,14.4c0.8,1.5,1.9,3.1,0.1,4.6
		c-1.4,1.1-2.7,0.3-3.9-0.5c-4-2.6-7.6-1.7-10.7,1.5c-1.4,1.4-2.6,3.6-4.9,1.8c-1.8-1.3-1.8-3.7-1.3-5.6
		C262.3,261,263.9,256.1,265.4,251.1z"/>
	<path class="st50" d="M237.4,263.3c-0.1-4-0.3-8-0.4-12c0-1.5,0.6-2.9,2.3-3.2c1.6-0.3,2.8,0.7,3.3,2.1c0.9,2.4-0.2,6.5,4.4,5.8
		c4.8-0.7,3.4-5.2,4.7-8.2c0.8-1.9,0-5.1,3.2-5.4c3.2-0.3,3.5,2.2,3.5,4.7c-2.9,4.8-2.6,9.8-1.1,14.9c0.4,1.5,2.1,3.2,0,4.5
		c-2.1,1.3-4.2,0.3-5-1.6c-2.5-5.7-5.4-5.2-8.6-0.9C241,267.6,239.4,264.4,237.4,263.3z"/>
	<path class="st4" d="M273.8,260c0.3,1.8-0.7,2.8-2.2,2.9c-1.7,0.1-3.7-0.2-3.4-2.5c0.1-1.2,1.2-2.8,2.3-3.2
		C272.6,256.5,273.1,258.6,273.8,260z"/>
	<path class="st48" d="M293.5,264.7c0.3,1.8-0.7,2.8-2.2,2.9c-1.7,0.1-3.7-0.2-3.4-2.5c0.1-1.2,1.2-2.8,2.3-3.2
		C292.3,261.2,292.8,263.3,293.5,264.7z"/>
	<path class="st4" d="M227.5,253.5c0.3,1.8-0.7,2.8-2.2,2.9c-1.7,0.1-3.7-0.2-3.4-2.5c0.1-1.2,1.2-2.8,2.3-3.2
		C226.3,250,226.8,252.1,227.5,253.5z"/>
</g>
<path class="st11" d="M12.9,266.2c-3-7.1-2.2-13.5,3.7-18.8c3.3-1.3,6.4-4.2,10-1.1c0.6,2.9-1.9,2.6-3.1,3.6
	c-5.5,4.4-7.3,10.1-3.7,16c3.6,5.8,10,6.3,16.2,4.7c3-0.8,4.8-3.3,5.2-6.4c0.5-3-0.1-6.3-3.2-7.3c-4.7-1.5-5-5.5-6.8-9
	c10.6-0.8,18.5,5.5,18.6,14.6c0.1,8.4-5.8,12.6-16.6,12.9C24.7,275.6,18,272.9,12.9,266.2z"/>
<path class="st51" d="M400.4,376.1c-11-0.5-17-5.1-16.8-13.1c0.2-8,8.7-16.6,16.1-16.2c6.5,0.3,16.4,11.7,16.3,18.7
	C415.9,372.8,410.4,376.5,400.4,376.1z"/>
<path class="st52" d="M88.9,260.2c7.5-0.2,13.7,5,13.8,12.1c0,5.3-2.5,8.8-8.3,9c-8.5,0.3-14.6-5.4-14.7-13.4
	C79.5,261.7,81.1,260.4,88.9,260.2z"/>
<path class="st53" d="M307.5,48.4c8.2-1.8,10.6,2.7,12,7.8c1.7,6.4-1.2,10.7-7.3,12.6c-6.7,2.1-12.1-0.3-15.4-6.3
	c-3.2-5.7-1.4-11.2,2-16.2c1.2-1.8,2.9-2.8,5.2-1.3c2.9,1.8,2,3.6,0.1,5.6c-0.9,1-1.6,2.4-2.1,3.7c-1.2,3.6-0.7,6.8,2.9,8.9
	c2.5,1.5,5,2.1,7.2,0c3-2.9,2.3-6.3,0.4-9.5C311.4,52.2,309.9,51,307.5,48.4z"/>
<path class="st54" d="M54.6,313.5c2.7,0.4,4.5,1.9,4.4,4.6c-0.1,3.1-2.1,4.6-5.2,4.1c-2.7-0.4-4.3-1.9-3.8-4.6
	C50.4,315.2,52,313.6,54.6,313.5z"/>
<path class="st55" d="M287.8,21.2c1.4,0.4,3.6-0.3,3.8,2.2c0.2,2.4-1.1,3.7-3.4,4c-1.8,0.2-3.4-0.1-3.7-2.4
	C284.2,22.5,285.2,21.2,287.8,21.2z"/>
<path class="st56" d="M517.2,306.9c-1.1,1.8-2.5,3-4.7,2.9c-1.5-0.1-3-1.2-2.9-2.5c0.1-2,1.7-3.5,3.9-3.3
	C515.3,304,516.7,305,517.2,306.9z"/>
<path class="st57" d="M397.9,371.3c-4.1-0.8-9.4-0.6-8.6-6.3c0.7-5.4,4.5-10.3,10.1-10c4.3,0.2,8.9,3.8,9,9.1
	C408.6,371.3,402,369.8,397.9,371.3z"/>
<path class="st58" d="M94.6,272.1c0,2.8-1.9,3.4-4,3.1c-3.2-0.4-5.1-2.4-4.9-5.7c0.1-2.3,1-5.1,3.8-4.5
	C92.7,265.8,94.2,268.8,94.6,272.1z"/>
</svg>
