<?xml version="1.0" encoding="utf-8"?>
<!-- Generator: Adobe Illustrator 19.2.0, SVG Export Plug-In . SVG Version: 6.00 Build 0)  -->
<svg version="1.1" id="Layer_1" xmlns="http://www.w3.org/2000/svg" xmlns:xlink="http://www.w3.org/1999/xlink" x="0px" y="0px"
	 width="489.1px" height="477.1px" viewBox="0 0 489.1 477.1" style="enable-background:new 0 0 489.1 477.1;" xml:space="preserve"
	>
<style type="text/css">
	.st0{fill:#020205;}
	.st1{fill:#020307;}
	.st2{fill:#030306;}
	.st3{fill:#020305;}
	.st4{fill:#BEC2D6;}
	.st5{fill:#ABABC3;}
	.st6{fill:#040508;}
	.st7{fill:#A1A1BB;}
	.st8{fill:#C8CBDE;}
	.st9{fill:#050709;}
	.st10{fill:#040507;}
	.st11{fill:#04050B;}
	.st12{fill:#050509;}
	.st13{fill:#C4C5D7;}
	.st14{fill:#AAABC4;}
	.st15{fill:#9EA0B7;}
	.st16{fill:#07080C;}
	.st17{fill:#ACACBD;}
	.st18{fill:#ADADC5;}
	.st19{fill:#9D9CB2;}
	.st20{fill:#090B0E;}
	.st21{fill:#07070B;}
	.st22{fill:#BFC2CB;}
	.st23{fill:#B9BACD;}
	.st24{fill:#A9A8BF;}
	.st25{fill:#232526;}
	.st26{fill:#202223;}
	.st27{fill:#131112;}
	.st28{fill:#040509;}
	.st29{fill:#212123;}
	.st30{fill:#1D1E20;}
	.st31{fill:#2B2B2F;}
	.st32{fill:#070911;}
	.st33{fill:#14151C;}
	.st34{fill:#171717;}
	.st35{fill:#101011;}
	.st36{fill:#0B0C14;}
	.st37{fill:#1B1E24;}
	.st38{fill:#111111;}
	.st39{fill:#171515;}
	.st40{fill:#0B0607;}
	.st41{fill:#080908;}
	.st42{fill:#121116;}
	.st43{fill:#020110;}
	.st44{fill:#FDFDFD;}
	.st45{fill:#FCFDFD;}
	.st46{fill:#EFF1F3;}
	.st47{fill:#197CB0;}
	.st48{fill:#FBFCFC;}
	.st49{fill:#FCFBFB;}
	.st50{fill:#F3F5F5;}
	.st51{fill:#BEBDCD;}
	.st52{fill:#EAEEEF;}
	.st53{fill:#FDFEFD;}
	.st54{fill:#B7B7CC;}
	.st55{fill:#FDFEFE;}
	.st56{fill:#ABAEC5;}
	.st57{fill:#050609;}
	.st58{fill:#101223;}
	.st59{fill:#EFF2F3;}
	.st60{fill:#E1E4E7;}
	.st61{fill:#0F1115;}
	.st62{fill:#0F1012;}
	.st63{fill:#1B1B1B;}
	.st64{fill:#020302;}
	.st65{fill:#25282C;}
	.st66{fill:#2D2F30;}
	.st67{fill:#1D1F22;}
	.st68{fill:#1F1F20;}
	.st69{fill:#09090B;}
	.st70{fill:#07090F;}
	.st71{fill:#EAEDEF;}
</style>
<g>
	<path class="st0" d="M110.8,204.8c-11.5-5.2-21.5-11.9-23.7-25.6c-2.1-13.3,3.7-23.6,19-34.2c-13.8-12.7-25.8-26.6-28.6-46.2
		c-3.9-13.3-0.8-26,3.6-38.5c0.3-3.5,2-6.5,4-9.2c4.5-8.9,9.7-17.7,19.1-21.8c10-4.4,20.6-7.7,31.7-2.8c-0.4,5.1-4.8,4.7-9.6,6.5
		c12,0.3,22.5-1.4,33,0.3c6.5,1,13,1.7,18.5,5.6c1.5,2.3,3.9,2.2,6.2,2.5c13.9,3.5,19.1,14.4,21.8,26.8c3,13.9,0.2,27.1-7,39.3
		c-10,13.5-23.3,22.9-38.7,29.2c-11.6,3.8-23.1,8.1-35.4,9.2c5,0.1,9.9-0.1,14.5,1.7c16.5,7.9,23.7,22.2,20.2,39.9
		c-1.5,7.6-6.7,12.2-12.9,16.1c-6,4.5-12.1,6.6-19.7,3.6C121.7,205.3,115.9,206.8,110.8,204.8z"/>
	<path class="st1" d="M436.5,92.2c1.1,5.1-5.2,7.5-4.4,12.4c-2.5,2.8-4,6.1-5.3,9.6c-4.1,11.4-11.9,19.6-21.6,26.3
		c-15.7,8.4-32.1,12.7-49.8,8.3c-29.7-7.3-48.4-32.8-46.6-63.5c-1.8-2.5-1.7-4.8,0.5-7c1.4-17,9-31.5,19.9-44.1
		c9.3-10.8,32.3-14.7,45-8.5c2.3,1.1,4.2,2.4,3.3,5c-1,2.7-3,2.7-5.5,1.3c-3.8-2.3-8.2-1.5-12.4-1.4c8.4,1.4,16.1,6.1,25.3,3.3
		c4.7-1.4,9.1,2.1,12.9,5.3c3.2,2.7,6.9,4.9,10.3,7.4c15,6.7,18.9,20.8,22.8,34.7C432.1,85.4,433.5,89.1,436.5,92.2z"/>
	<path class="st2" d="M309.5,251.4c-7.9-10.3-14.2-21.1-12.8-34.8c1.9-18.2,10.6-32.2,27.1-40.3c17.3-8.5,34-6.4,49.4,5.2
		c2.2,1.7,4.6,3.2,6.9,4.8c12.4,7.6,15.7,20.5,15.4,33.1c-0.4,19.6-15.4,38.3-34.7,43.7c-4.6,1.5-9.1,2.9-13.7,4.4
		c-10.4-2.5-21.4-2.6-31-7.9C313,257.7,310,255.5,309.5,251.4z"/>
	<path class="st3" d="M203,118.8c9.4-1.7,18.9-2.6,28.4-2s17.9,4.3,25.3,10.3c10,4.8,17.9,20.2,16.7,33.1c-0.3,3.7-0.7,7.4-1.2,11
		c-0.9,17.6-35,39.5-50,33.4c-14.8-0.4-28.3-5.2-41.4-11.7c-5.9-3-11-7-15-12.2c-7.3-7.5-7.6-22,0.4-30.9c3.8-4.3,6.5-9.2,9.8-13.7
		C182.8,127,190.7,119.3,203,118.8z"/>
	<path class="st1" d="M295.4,291.9c-14.3,27.4-41.5,38.6-67.9,29.2c-16.5-5.9-30.1-25.3-27.5-44c1.5-10.6,4.5-20.4,11-29.1
		c12.9-17.4,30.5-22.1,50.4-13.3c3,1.3,5.7,3.9,9.3,3.6c14.6,2.7,29.2,23.4,28.2,40C298.7,283,297.8,287.6,295.4,291.9z"/>
	<path class="st1" d="M201.3,247.2c-1.4,2-2.8,4.1-4.2,6.1c-7.9,5.4-15.9,10.3-26.1,6.9c-6.6-1.8-12.7-4.5-18.3-8.6
		c-14.2-10.4-16.1-32-3.6-44c4.3-4.1,9.1-5.7,14.6-2.2c0.9,0.6,1.9,1.2,1.7,2.6c-0.2,1.5-1.3,1.4-2.4,1.7c-12.1,3.6-18,11.7-17,23.4
		c0.9,10.1,10.4,19.7,21.2,21.2c11,1.6,20.8-4.3,24.7-15c6.7-18-4.1-32.8-24.3-33.5c5.5-6.6,10.3-6.7,23.5-0.5
		c12.6,6.2,19.5,23.2,14.7,36.3C205,244,204.2,246.4,201.3,247.2z"/>
	<path class="st4" d="M203,118.8c-12.6,4.9-23.2,11.6-28.7,25.3c-2.3,5.6-9.5,8.4-10.6,16.1c-1,7.3-1,13.9,2.3,20.4
		c-3.8,10-9.6,18.4-19.1,23.9c-0.6-0.4-0.7-0.8-0.5-1.2s0.4-0.5,0.6-0.5c18.4-10.8,13.4-45.3-9.5-53.7c4.7-3.9,9.5-7.6,15.5-9.5
		c2.6-0.8,5.3-1.8,6.4-4.8c14.4-6.3,26.9-15.3,37.1-27.3c0.8,0.5,2.5,0.5,2.6,0c0.6-2.7,1.6-5.4,2.7-7.9c1.5-3.4,4-5.7,7.4-1.4
		c-2.6,5.3-4.9,10.8-8.1,15.8C199.3,117.1,200.4,118,203,118.8z"/>
	<path class="st5" d="M360.9,263c7.3-5.2,15.2-9.4,21.2-16.6c15-18.3,14.3-36.8,3.2-53.4c-1.6-2.3-3.4-4.5-5-6.8
		c2.3-1.2,4.3-3,7.2-2.9c2.8,2.4,5,1.3,7.1-1c2.3,6.3,4.7,12.5,6.8,18.8c0.8,2.4,1.5,5.2,1,7.5c-2.9,13.8-4.3,28.3-9.8,41.1
		C387,262.3,373.2,262.7,360.9,263z"/>
	<path class="st6" d="M268.9,127.9c-3-6-4-12.3-2.6-19c1.2-5.3,3.8-9.6,9.2-11.4c2-0.7,5.1-3.1,6.6,0.6c1.3,3.2-2.3,3.4-4,4.4
		c-7.1,4.2-9.5,10.9-7.9,18.3c1.5,6.7,7.3,9.3,14,10.6c8,1.5,10.5-4.5,13.6-9.2c3.1-4.8,2.6-9.8-2.7-13.3c-1.2-0.8-2.3-1.7-3.2-2.8
		c-0.9-1.2-3.2-2.1-2-4.1c1.2-1.8,3.1-0.8,4.6-0.4c10.6,2.9,16.9,14.2,14.1,24.8c-1.4,5.3-5.1,8.5-10.2,9.1
		c-8.4,0.9-16.9,0.8-24.7-3.5C271.9,130.8,269.3,130.7,268.9,127.9z"/>
	<path class="st7" d="M209.3,98.3c-4.5-1.8-6.4-0.1-6.1,4.6c-3.2,0.1,0.6,10.1-6.5,4.7c9.3-18.4,12.3-36.7-0.2-55.1
		c-3.3-4.9-8.2-7.6-12.5-11.1c8.1-4.3,13.4,1.1,18.8,5.5c2.6,2.1,4.1,5.5,8,5.8c0.6,2.8,2.5,4.8,4.2,6.9c-3.1,6.3-0.6,12,2.1,17.6
		c-2.1,6-4.5,11.8-5.3,18.2C210.1,95.7,209.8,97.1,209.3,98.3z"/>
	<path class="st8" d="M222.3,204.6c16.6-1.5,31-7.5,41.7-20.9c3-3.8,5.6-7.8,6.5-12.6c-0.6-7.2,6.1-11.4,7.7-17.7
		c0.4-1.4,2.2-1.4,3.6-0.4c0.8,28.4-26.6,53.7-51.2,58.2c-4.1,0.7-7.1-1.3-10.3-2.6C219.1,208.2,221.9,206.2,222.3,204.6z"/>
	<path class="st9" d="M309.3,78.2c-0.2,2.3-0.3,4.6-0.5,7c-11.6,10.2-14.8,9.6-28.3,1.8c-11.9-6.8-11.3-22.9,0.5-30.1
		c2.9-1.8,7-3.7,9.2-0.4c2.5,3.6-2.7,4-4.5,5.6c-4.5,4-9.7,7.8-8.6,14.5c0.8,5.2,5.5,7.7,10.1,9.4c7.9,2.9,14.2-2.6,12.8-11.1
		c-0.6-4-2.5-7.5-4.8-10.8c-1.4-1.9-3-4.1-0.5-5.8c2.1-1.3,4.1,0.4,5.9,2C305.7,65.4,306.9,72.1,309.3,78.2z"/>
	<path class="st10" d="M211.7,95.4c-2.3-7.2-1-13.4,5.3-18.2c3.3-1,6.6-3.5,9.9-0.2c0.3,2.9-2.1,2.4-3.4,3.2
		c-5.8,3.8-8.1,9.2-5.1,15.3c3,6,9.3,7.1,15.5,6.1c3-0.5,5-2.9,5.7-5.8s0.4-6.2-2.5-7.4c-4.4-1.9-4.5-5.8-5.8-9.5
		c10.5,0.2,17.7,7.1,17,16c-0.6,8.3-6.8,11.8-17.5,11.1C222.5,105.6,216.1,102.4,211.7,95.4z"/>
	<path class="st11" d="M247.1,349.3c-0.4-1.7-0.7-3.4-1.1-5.1c4.2-1.4,8.3-1.7,10.9,2.8c2.9,5.2,4.9,10.7,1.9,16.6
		c-1.3,2.5-3,4.7-5.3,6.4c-9.8,4.2-22.7,0-27.9-9.2c-4.2-7.5-1.6-16.6,6.3-22.4c2.1-1.6,4.5-2.6,7-2.8c1.8-0.2,4.3-1.3,5.1,1.3
		c0.9,2.9-1.8,2.7-3.6,3.4c-3.6,1.3-6.2,3.8-8.6,6.7c-3.6,4.4-5.4,9.2-1.9,14c3.8,5.1,8.8,8.7,15.8,5.4
		C243.8,360.5,247.6,355,247.1,349.3z"/>
	<path class="st12" d="M407.6,174.2c-10.8-1.4-16.2-6.5-15.3-14.3c0.9-7.9,10-15.5,17.3-14.4c6.4,0.9,15.1,13,14.4,19.8
		C423.1,172.3,417.4,175.5,407.6,174.2z"/>
	<path class="st13" d="M309.5,251.4c5.5,5.4,12,8.9,19.6,10.4c6.2,1.2,12.8,1.5,18.1,5.6c-1.1,2.3-4,0.7-5.3,2.5
		c-2.5,1.6-3.8-0.3-5.1-1.9c-1-1.9-2.7-1.7-4.5-1.4c-9,1.6-18,1.1-26.6-1.9c-2.6-0.9-4.3-1.3-5,1.9c-2.9-4.8-6-9.6-3.7-15.6
		C301.1,251.9,305.3,252.1,309.5,251.4z"/>
	<path class="st14" d="M253.4,370.1c4.3-5.4,6.1-11.1,3.6-18c-2-5.5-4.8-8.9-11.1-7.9c1.3-2.4,5.2-1.6,5.7-5.5
		c0.4-3.3,2.1-6.4,6.8-5.9c4.9,0.6,7.7,3,9.1,7.6C270.8,350.9,265.1,363,253.4,370.1z"/>
	<path class="st15" d="M281.7,153c-0.5,0.1-1.5,0.2-1.5,0.4c-0.9,7.2-8.1,10.9-9.7,17.6c2.3-16.8-1-31.9-13.7-44.1
		c4.1,0.3,8.1,0.6,12.2,0.9c1.6,1.3,3.2,2.6,4.8,3.9c0.9,7,8.8,11,7.9,18.7C281.5,151.4,281.7,152.2,281.7,153z"/>
	<path class="st16" d="M265.4,196.2c-0.7,3.7-1.6,6.9-1.9,10.2c-0.4,4.5,1.8,7.7,6,9.3c3,1.2,5.5,0.7,7.3-2.3
		c2.6-4.2,1.9-8-0.9-11.8c-1.4-2-7.2-2.6-3.9-5.6c2.6-2.4,7.9-1,10.7,2.4c3.7,4.5,4.4,10,1.9,15.3c-2.4,5.3-6.1,10.6-12.4,10.2
		c-8.3-0.6-10.4-8.3-12.8-14.7C257.3,203.3,258.8,198.6,265.4,196.2z"/>
	<path class="st17" d="M436.5,92.2c-4.8-1.9-6.7-5.1-7.6-10.5c-2.5-14.1-9.3-26.2-20.7-35.3c3.9,0.2,7.8,0.4,11.7,0.7
		c2.3,2.4,4.7,4.4,8.3,4.1c0.2,2.2-0.3,4.9,0.8,6.5c6.2,9.2,7.1,19.2,6,29.8C434.9,89,436,90.6,436.5,92.2z"/>
	<path class="st18" d="M201.3,247.2c7.4-15.2,3.5-31.4-10.1-41.8c10.7,0.1,18.6,5.1,21.5,15.3c2.6,9,0.7,17.8-5.8,25.2
		C205,247.9,203.7,249,201.3,247.2z"/>
	<path class="st19" d="M297,251c0.6,5.4,3.9,10.1,3.7,15.6c0.5,8.9,1.3,17.9-5.3,25.3c7.2-24.3-8.2-45.2-24.7-53.7
		c6.8-2.3,12.7,0.8,18.6,3.3c-2.6,3.5-1.4,5.2,2.6,5.7C294.6,247.2,295.2,249.9,297,251z"/>
	<path class="st20" d="M314,274c7.4,0.4,13,6.1,12.4,13.1c-0.4,5.2-3.3,8.4-8.9,8.1c-8.3-0.5-13.8-6.6-13.3-14.5
		C304.7,274.6,306.3,273.5,314,274z"/>
	<path class="st21" d="M72.1,122.9c8.2-1.1,10.2,3.6,11.1,8.7c1.1,6.4-2.2,10.4-8.3,11.7c-6.7,1.4-11.8-1.4-14.6-7.5
		c-2.6-5.8-0.3-11.1,3.4-15.7c1.3-1.6,3.1-2.4,5.2-0.8c2.6,2.1,1.6,3.7-0.4,5.5c-1,0.9-1.8,2.2-2.4,3.5c-1.5,3.5-1.3,6.6,2.1,9
		c2.3,1.6,4.7,2.5,7,0.6c3.2-2.6,2.8-6,1.2-9.3C75.6,127,74.2,125.6,72.1,122.9z"/>
	<path class="st16" d="M287.7,159.1c2.9,3.5,4.9,9.8,10,7.2c6.2-3.2-2.2-8.3,0-13c7.7,2.2,10.2,7.5,8.8,14.6
		c-0.9,4.4-4.6,6.8-8.7,6.5C292.6,174.1,286.9,165,287.7,159.1z"/>
	<path class="st22" d="M405.2,140.5c9.3-9.6,18.5-19.1,21.8-32.7c0.6-2.6,2.3-3.8,5.1-3.1c0.5,5.8-1.9,10.9-4.3,16
		c-1,2.1-2.2,3.9-0.9,6.2c-2.2,2-4.8,3.4-7.5,4.6C414.1,133.6,411.6,140,405.2,140.5z"/>
	<path class="st23" d="M147,202.8c0,0.6-0.1,1.1-0.1,1.7c-6,6.6-12.1,10.5-21,4.2c-4.2-3-10.7,0-15.1-3.9
		C122.9,206.2,135.2,208.6,147,202.8z"/>
	<path class="st24" d="M247.1,349.3c1,5.8,2.2,11.6-1.3,17.1c-6.5-1.7-5.8-6-3.3-10.2C243.9,353.8,246.2,352,247.1,349.3z"/>
	<path class="st25" d="M275.6,323.3c2.7,0.7,4.2,2.3,3.9,4.9c-0.4,3-2.5,4.3-5.5,3.6c-2.6-0.6-4.1-2.2-3.3-4.9
		C271.3,324.5,273,323.1,275.6,323.3z"/>
	<path class="st26" d="M336.8,268c2.1-0.4,3.5,1.1,5.1,1.9c1.8,2.3,2.4,4.6-0.5,6.4c-1.5,1-3.2,1-4.7-0.2
		C333.5,273.4,334.8,270.7,336.8,268z"/>
	<path class="st18" d="M170.9,260.2c9.9,2.1,17.8-3,26.1-6.9C190.8,261.5,180.3,264.2,170.9,260.2z"/>
	<path class="st27" d="M428.2,51.2c-5.7,4.5-7.2,3.7-8.3-4.1c1.1-0.7,2.1-1.5,3.2-2.2c1.5,0.7,2.9,1.4,4.3,2
		C427.7,48.3,428,49.7,428.2,51.2z"/>
	<path class="st28" d="M369.2,156.8c2.6,0.8,5,1.9,4.7,5c-0.2,2.3-2.1,3.3-4.2,3.1c-2.7-0.3-4.8-1.7-4.3-4.9
		C365.6,157.7,367,156.6,369.2,156.8z"/>
	<path class="st29" d="M402.8,27.1c-0.2,2.6-1.6,3.8-3.9,3.7c-2.3,0-3.9-1.6-4-3.7c-0.1-2,1.1-4,3.4-4.2
		C401.1,22.8,402.3,24.7,402.8,27.1z"/>
	<path class="st30" d="M422.6,130.6c1.4-3.4,2.6-7,7.5-4.6c1.3,1.9,2.3,4.1-0.3,5.6C427.3,133.2,424.7,133,422.6,130.6z"/>
	<path class="st31" d="M226,220.9c-0.6,2.4-2.2,3.1-4.4,2.8s-3.9-1.2-3.7-3.7c0.1-1.9,1.4-3.1,3.4-3.1
		C223.9,217,225.3,218.5,226,220.9z"/>
	<path class="st32" d="M292,247.2c-3.6,2.9-6.8,1.8-7.9-2.1c-1.5-5.1,2.8-3.4,5.3-3.6C290.3,243.4,291.1,245.3,292,247.2z"/>
	<path class="st33" d="M214.9,59.6c-5.4,0.2-8.5-1.1-4.2-6.9C215.8,52.7,218.7,54.1,214.9,59.6z"/>
	<path class="st34" d="M237.2,386.3c-2.3-0.3-4.4-0.9-3.8-3.5c0.4-2,2.1-3.7,4.2-3.6c2.1,0.1,3.6,2.1,3.6,4.1
		C241.1,385.4,239.3,386.4,237.2,386.3z"/>
	<path class="st35" d="M222.8,331.2c-0.9,1.9-1.8,3.8-4.3,3.6c-2.4-0.2-3.3-2.1-3.2-4.3c0.1-2.3,1.4-3.7,3.9-3.2
		C221.3,327.7,222.7,329,222.8,331.2z"/>
	<path class="st36" d="M394.4,182.3c-0.1,2.4,0.4,5.7-2.8,6c-2.7,0.3-4.2-2.1-4.3-5C389.3,180.1,391.5,178.7,394.4,182.3z"/>
	<path class="st37" d="M193.9,275.3c-0.4,2.5-2.1,3.3-4.2,2.9c-2-0.4-3.5-1.5-3.4-4c0.2-2.8,2-3,4.1-2.7
		C192.5,271.9,194,272.8,193.9,275.3z"/>
	<path class="st38" d="M130.4,218.4c-0.5,1.6-1.6,3.4-3.8,2.8c-1.7-0.5-3.8-1.4-3.1-4.1c0.6-2.4,2.5-2.6,4.6-2.5
		C130.1,214.8,130.8,216,130.4,218.4z"/>
	<path class="st39" d="M109.2,23.5c-1.2-0.2-2.3-0.4-3.5-0.6c-1-1.9-2.7-4.1-0.1-5.7c1.6-1,3.7-0.6,5.2,1.1
		C113.3,21,110.6,22,109.2,23.5z"/>
	<path class="st40" d="M155.7,26.7c-1.5-0.7-3-1.3-4.5-2c0.1-1.9-0.8-4.3,1.7-5.1c1.6-0.5,3.5-0.1,4.6,1.5
		C159.3,23.6,157.5,25.2,155.7,26.7z"/>
	<path class="st41" d="M55.3,94.4c1.3,0.5,3.5,0,3.5,2.5c0,2.4-1.4,3.5-3.7,3.6c-1.8,0-3.3-0.4-3.4-2.7
		C51.6,95.4,52.6,94.2,55.3,94.4z"/>
	<path class="st42" d="M311.8,44.9c-1.2,1.6-2.7,2.8-4.9,2.4c-1.5-0.2-2.9-1.4-2.6-2.7c0.3-2,1.9-3.3,4.2-2.9
		C310.2,42,311.4,43.1,311.8,44.9z"/>
	<path class="st43" d="M77.4,61.1c-0.4,0.9-0.9,1.7-1.3,2.6c-2,0.8-4.3,2.1-5.6-0.8c-0.4-0.8-0.1-2.5,0.6-3
		C73.5,57.5,75.5,59.2,77.4,61.1z"/>
	<path class="st44" d="M101.5,95.3c12.7-10.6,21.4-24.2,29-38.6c2.5-4.8,3.8-7.3,8.4-1.6c6,7.3,15.2,8.6,23.8,10.1
		c6.4,1.2,13,1.1,19.6,1.1c11,0,14.2,3.6,11,14.4c-5.2,17.7-16.4,30.9-31.8,40.8c-13.2,8.4-28.3,11.8-43.2,14.9
		c-11.7,2.5-19.9-4.1-21.8-15.9c-0.7-4.2-1.3-8.5-0.1-12.7C100.6,104.7,98.6,98.9,101.5,95.3z"/>
	<path class="st45" d="M118,201.4c-7.3-0.9-14.9-4.5-20.5-12.1c-8.9-12.1-1.8-33.2,12.5-37.4c0.3-0.1,0.6-0.3,0.8-0.2
		c11.3,4.3,25.5,1.3,33.8,13.1c1.4,2,2.6,4.5,3.1,6.9C150.1,184.6,132.9,202.9,118,201.4z"/>
	<path class="st46" d="M159.5,134.9c1.4,1.2,1.4,3,0.1,3.5c-7.6,3-13.7,9.3-22.1,10.7c-6.2-4-14.1,2.7-21.1-4.3
		C131.7,142.6,145.9,139.8,159.5,134.9z"/>
	<g>
		<path class="st47" d="M177.7,38.9c-5.5-7.2-13.7-8.5-21.6-10.5c-0.1,0-0.3-0.1-0.5-0.1c0.1,0,0.3,0,0.5,0
			c-0.1-0.5-0.3-1.1-0.5-1.6c-1.1-1.6-2.3-3-4.5-2c-14,0.9-27.9-3.2-42-1.2c-0.9-1.5-2.1-1.5-3.4-0.6c-0.6,2.4-2.5,3.3-4.6,4.4
			C91.4,32.2,87.3,41.1,85,51.1c0.7-0.4,1.6-0.6,1.9-1.2C97.4,30.6,113.5,23,135,26.7c0.2,0,0.3,0,0.5,0c-0.2,0-0.3,0-0.5,0.1
			c-3.7,5.6-11.4,1.2-17.6,7.6C138.8,36.2,158.7,32.7,177.7,38.9z"/>
		<path class="st47" d="M77.3,61.2c-1.4,0.4-1.9,1.2-1.3,2.6c1.3,4.3,0.8,8.2-1.5,12.1c-2.5,4.4-0.4,19.8,2.9,23
			c-0.9-13,1.9-25.7,3.6-38.5C79.8,60.6,78.6,60.9,77.3,61.2z"/>
		<path class="st47" d="M149.3,57.7c6.9-4.7,12.1-9.5,16.5-15.5c-7.8-4.2-12.6-0.7-17.5,5.9c4.2,0,5.6-5.3,9.6-3
			C156.3,50,150.5,51.5,149.3,57.7z"/>
		<path class="st47" d="M169.6,50.6c1.9-1,3.9-2.3,4.6-4.7c-0.7-1.7-1.9-3-3.9-1.9c-1.2,0.7-2.2,1.8-3.1,2.9
			c-3.5,4.2-8.9,6.8-10.6,12.5C163,59.5,165,53.2,169.6,50.6z"/>
		<path class="st47" d="M96.8,47.4c6.9-4.7,14.6-8.4,19.9-15.3C107.9,34.2,100.9,38.8,96.8,47.4z"/>
		<path class="st47" d="M180.8,50.2c-0.4-0.5-0.9-1.1-1.3-1.6c-4.6,3.9-9.3,7.9-13.9,11.8C173.1,60.4,175.9,54.1,180.8,50.2z"/>
		<path class="st47" d="M137.5,40.9c-1.7,2.2,0.9,3.9,2.4,4.6c5,2.5,6-3.1,8.9-5.1C144.9,40.4,140.6,36.9,137.5,40.9z"/>
		<path class="st47" d="M87.1,68.3c0.8-6,7.6-8,9.8-13.7C88.6,56,87.3,61.8,87.1,68.3z"/>
		<path class="st47" d="M183.4,54.3c-3.8,0.6-5.3,3.8-7.4,7c5,2.1,7.2-1,9.2-3.8C185.9,56.5,184.5,54.1,183.4,54.3z"/>
		<path class="st47" d="M101.5,95.3c-6.1,2.3-3.7,8.2-5.3,12.4C106.4,107.2,99.6,99.4,101.5,95.3z"/>
	</g>
	<path class="st48" d="M351.9,137.4c-3.9,3-7.3,1.9-11.3-0.6c-21.4-13.9-26.4-32.3-25.5-53.1c0.1-1.8,0.3-3.5,2.5-3.7
		c1.4-0.2,2.8,0,3.6,1.6c0.8,1.8,0.7,3.3-0.9,4.5c-7.7,5.7-0.8,6,2.6,6.2c10.2,0.7,20.2,2.5,30,5.5c1.4,0.4,4,1.4,4.1-1
		c0.7-10.3,7.4-3.6,11.1-3.8c6-0.2,4.2,5,3.9,8.2c-0.6,5.7,1.3,8.4,7.3,8.7c5.1,0.3,10.1,1.5,15.2,2c4.6,0.4,9.5,2,10.8-5.6
		c0.8-4.8,5.8-2.7,8.6-1.4c3.5,1.6,2.8,4.6,0.1,6.7c-1.4,1.1-1.1,2.4-1.6,3.7C400.6,133.2,375.1,142.5,351.9,137.4z"/>
	<path class="st49" d="M397.4,86.2c-5.1-0.4-8.8-0.1-12.1-1.8c-4-2.1-7-2-10.1,2.2c-2.8,3.8-13.1,1.5-14.8-3c-0.5-1.3,1.2-3.7-1.4-4
		c-2.5-0.3-2.7,2.4-3.9,3.9c-0.5,0.6-0.9,1.5-1,2.3c-1,6.7-4.5,6.7-10,4.6c-4.4-1.7-9.4-2-14.2-2.7c-4.5-0.6-5.9-2.7-4.2-7
		c1.2-3,1.3-7.1,6.7-4.9c6.9,2.8,14.2,2.8,21.8,1.6c-9.1-2.5-18.1-5.2-27.2-7.6c-2.4-0.6-3.6,0.5-3.7,3.1s-2.2,2.1-3.8,1.7
		c-1.9-0.4-2.4-1.8-2.5-3.8c-0.1-9.1,15.7-34.5,24.5-36.3c5.1-1,12.4-1.4,16,5.3C371.4,65.2,373.4,67.6,397.4,86.2z"/>
	<path class="st50" d="M405.1,92.4c-1.2,2.4-1.6,3.9-2.5,4.8c-2.8,2.9-1.1,9.5-5.1,9.8c-5.7,0.4-11.9-1.1-17.3-3.1
		c-7.9-2.9-1.2-8.6-1.4-13c-0.1-5,3.3-2.4,5.3-1.9C390.7,90.6,397.3,92.1,405.1,92.4z"/>
	<path class="st51" d="M351.9,137.4c24.1,3.4,43.4-6.6,60.6-22.1c-5.3,16-18.2,21.9-33.2,24.7C370,141.6,360.8,140.8,351.9,137.4z"
		/>
	<path class="st52" d="M419.3,99.6c-4.5,1.2-7.8-0.1-10.3-2.9c-0.5-0.5,0.6-2.5,1-3.7C413.4,94.3,417.3,94.7,419.3,99.6z"/>
	<path class="st47" d="M418.9,86.1C418.9,86.1,418.9,86.1,418.9,86.1c-0.6-10.2-4.6-18.7-11.7-26c-1.2-5.2-5.3-7.6-9.7-9.6
		c0,0,0,0.1,0,0.1c0,0,0,0,0,0c-10.2-8.4-23.2-9.2-36.5-14.1c10.6,26.1,29.8,41.2,52.6,52.8c0,0,0.1,0,0.1,0c1.8,1.1,3.2,3.7,5.5,2
		C421.1,89.9,419.6,87.8,418.9,86.1z"/>
	<path class="st53" d="M322.6,253.2c-10-1.7-15-9.5-18-17.5c-5.5-14.5-3.4-28.5,6.7-40.8c2-2.4,4.2-4.8,7.9-3.5
		c11.2,4,21.4,0.8,31-4.7c4.5-2.6,6.7-2,7.3,3.2c1.8,16.7,6.1,32.5,16.9,45.9c2.2,2.8,1,4.6-1.4,6.3
		C357.9,253.1,340.2,252.8,322.6,253.2z"/>
	<path class="st54" d="M322.6,253.2c13.5-3.5,27.8-2.9,41.1-7.9c3.1-1.2,6.2-2.2,9.4-3.3C361.5,255.7,340,260.5,322.6,253.2z"/>
	<path class="st47" d="M372,220.6c1.1-0.9,1.9-1.8,2.8-2.3c2.3-1.2,4.3-4,7.4-2.2c0.4,0.3,0.4,2.5-0.1,3.1c-2.1,2.3-4.5,4.4-8,2.8
		C373.4,221.7,372.8,221.1,372,220.6z"/>
	<path class="st47" d="M379,234c-2.3-2.4-5.3-3.9-2.5-7.2c1.1-1.4,3.4-2.1,4.4-0.6C382.9,229.1,380.2,231.2,379,234z"/>
	<path class="st47" d="M369.2,214c3.6-1.9,7.2-3.8,10.8-5.8C377.9,212.9,373.7,213.9,369.2,214z"/>
	<path class="st55" d="M171.4,160c1.8,5.3,1.2,11.4,7.5,15.8c-5.9-19.2,0.7-34,14.8-45c16-12.5,46.5-11.2,60.4,8.3
		c6.8,9.5,4.2,27.4-4.6,37.1c-10.2,11.1-24.7,14.7-36.9,22.3c-1.2,0.7-3.3,0.2-4.9-0.1c-9-1.5-17.4-4.9-25.3-9.4
		C171.3,182.6,167.6,173,171.4,160z"/>
	<path class="st48" d="M206,290.6c-3.5-22.6,7.1-41.6,27.8-51.2c7.7-3.6,14.9-1.8,21.2,1.6c12.5,6.7,24.5,14.5,26.7,30.4
		c0.1,12.9-7.7,23.1-19.2,25c-1.4-0.1-3-0.1-3.9,1.1c-3.7,4.3-7.8,7.3-14,5.6c-1.7-0.5-2,1.6-2.7,2.8c-2.8,4-9.1,3.7-10.9,9.3
		c-0.4,1.4-3.5,0.6-5.4-0.1c-9.3-3.4-14.6-10.6-18.6-19.2c1.9-6.1,6.9-4.9,11.1-3.9c7.5,1.7,12.6-0.4,15.5-7.8
		c1.9-4.8,5.3-7.1,10.8-5.9c16.1,3.5,16.3,3.3,24.7-11.1c0.3-0.5,0.7-0.9,1.9-1.9c-6,1.4-11.1-0.2-16.3-0.6
		c-4.8-0.4-8.4,0.9-10.4,5.5c-2.9,6.7-8,8.3-15,6.6c2.5,4.2,4.5,8.3,0.4,12.3c-2.6,2.5-5.9,3.8-9.4,2.1c-4.5-2.2-3.9-6.4-3.3-12.3
		C214.7,285.4,214.4,292.5,206,290.6z"/>
	<path class="st56" d="M262.2,294.1c2.3,1.7,4,0.8,5.9-0.8c6.9-5.9,12.1-12.7,13.7-21.8c3,17.1-1.7,32.1-16.2,41.3
		c-12,7.6-26.2,7.7-39.8,2.3c1.1-0.1,3.2-0.1,3.2-0.3c0.7-7.3,8.3-6.8,12-10.7C251.5,308.2,258,303.7,262.2,294.1z"/>
	<path class="st57" d="M206,290.6c4.1-1.1,7.3-2.8,7.3-7.9c0-1.8,1.2-3.7,2-5.5c1.1-2.1,2.8-4.4,5.2-2.8c2.4,1.7-0.7,3.2-1.2,4.9
		c-0.9,3.4-3.4,7.3,1,10c3.5,2.1,7.3,0.3,9.1-2.4c4.5-6.8-1.2-8.7-6.5-10.6c2.8-3,5.2-2.9,8.7-1.4c4,1.8,8.4,0.6,9.7-3.9
		c2.6-9,9.1-10.9,16.5-8.7c6.3,1.8,12.4-0.2,21.2,0.1c-6.9,3.7-9.4,7.4-11.2,12.3c-2.9,7.7-14.2,10.7-21.9,6.4
		c-5.6-3.1-8.7-2.6-10.2,4.3c-1.6,7-8.7,11.2-15.8,9c-4.8-1.5-8.7-1.3-12.7,1.5C205.3,294.4,205.9,292.5,206,290.6z"/>
	<path class="st58" d="M154.1,156.7c-1.8-1.2-4.5-1.5-4.4-4.5c0.2-3.5,2.6-3.9,5.4-3.8c2.5,0.1,4.7,1.2,4.4,3.9
		C159.2,155.1,156.5,156,154.1,156.7z"/>
	<path class="st59" d="M405.6,169.3c-3.9-1.2-9.1-1.4-7.8-7c1.2-5.2,5.3-9.7,10.8-8.9c4.2,0.6,8.4,4.5,8,9.7
		C416,170.3,409.7,168.2,405.6,169.3z"/>
	<path class="st60" d="M318.5,286.2c-0.2,2.7-2.2,3.1-4.2,2.7c-3.1-0.7-4.8-2.8-4.3-6.1c0.4-2.3,1.4-4.9,4.1-4
		C317.2,279.8,318.4,282.9,318.5,286.2z"/>
	<path class="st61" d="M149.1,120.2c-1.3-0.6-3.6-1.6-5.8-2.7c-2-1-3.1-2.9-2.2-4.9c1.3-2.8,3.2-1,4.8,0c6.8,4.1,11.2,1.4,14.1-5.1
		c0.8-1.8,1.4-4.3,3.9-3.2c1.7,0.7,0.8,3,0.6,4.6C163.4,116.5,157.7,121.1,149.1,120.2z"/>
	<path class="st62" d="M167.8,88.1c-0.4,2.3-1.9,3.3-4.1,3.3c-2.4,0-3.8-1-3.4-3.6c0.3-2.2,1.7-3.6,3.9-3.6
		C166.6,84.2,167.5,85.9,167.8,88.1z"/>
	<path class="st63" d="M134.7,91.3c2.7,0.1,3.9,1.3,3.8,3.7c-0.1,1.9-1.2,3.4-3.1,3.3c-2-0.1-4-1.1-4.2-3.5S132.8,91.6,134.7,91.3z"
		/>
	<path class="st6" d="M355.3,126.6c-7.5-1.2-13.3-4.8-15.3-13.2c-0.5-2.2-2.2-4.1,1.2-5.5c3-1.3,4,0.5,5.2,2.6
		c7.1,11.9,8.4,12.2,20.3,4c2.2-1.5,4.5-2.8,6.8-0.3c2.7,2.8,0.4,4.4-1.5,6.2C367.5,124.7,361.3,127.1,355.3,126.6z"/>
	<path class="st64" d="M341.4,81.1c1.7,0.2,2.2,1.4,1.9,3.4c-0.4,2.4-2.2,2.1-3.7,1.8c-1.7-0.3-3.3-1.3-2.7-3.2
		C337.4,81.4,339.2,81,341.4,81.1z"/>
	<path class="st65" d="M390.4,96.4c1.5,0.7,3.2,1.4,2.9,3.4c-0.3,2-1.7,2.8-3.5,2.2c-1.5-0.5-3.4-1.2-3.1-3.3
		C386.9,96.8,388.8,96.6,390.4,96.4z"/>
	<path class="st66" d="M343,203c-1,2.3-2.7,3.5-5.2,2.9c-2-0.4-3.9-1.8-3.7-3.9c0.2-2.4,2.3-3.9,4.8-3.5
		C341.1,198.9,342.9,200.2,343,203z"/>
	<path class="st67" d="M353,206.8c0,2.5-1.6,3.6-3.8,3.6c-2.2,0-3.8-1.3-3.9-3.7c-0.1-2.6,1.5-3.5,3.8-3.3
		C351.3,203.6,353.2,204,353,206.8z"/>
	<path class="st68" d="M229.6,144.5c-0.9,2.2-2.3,3.6-4.5,3.2c-2.3-0.4-4.5-1.9-3.7-4.5c0.5-1.7,2.5-3,4.7-2.4
		C228.1,141.2,229.6,142.3,229.6,144.5z"/>
	<path class="st69" d="M215.6,150.4c-0.2,3.8-2,4.2-4.1,3.8c-2.2-0.4-3.5-1.8-3.2-4.1c0.3-2.5,2.5-3,4.4-2.9
		C215.1,147.4,215.6,149.4,215.6,150.4z"/>
	<path class="st70" d="M262.2,294.1c-1.7,14.7-9.8,18.5-21.3,10c-0.8-3.5-0.7-7.3,4-4.2c6.1,4.1,9.4,1.9,11.6-3.6
		C257.8,292.9,259.6,293.1,262.2,294.1z"/>
	<path class="st71" d="M252.3,277.8c-5.1,0.6-6.4-2.7-6-6.2c0.6-5.5,5.2-5.9,9.6-5.7c3.8,0.2,8.4,1.1,7.5,5.7
		C262.3,277.1,257.1,278.2,252.3,277.8z"/>
</g>
</svg>
