<?xml version="1.0" encoding="utf-8"?>
<!-- Generator: Adobe Illustrator 19.2.0, SVG Export Plug-In . SVG Version: 6.00 Build 0)  -->
<svg version="1.1" id="Layer_1" xmlns="http://www.w3.org/2000/svg" xmlns:xlink="http://www.w3.org/1999/xlink" x="0px" y="0px"
	 width="531.5px" height="507px" viewBox="0 0 531.5 507" style="enable-background:new 0 0 531.5 507;" xml:space="preserve">
<style type="text/css">
	.st0{fill:#020305;}
	.st1{fill:#FCFDFD;}
	.st2{fill:#020206;}
	.st3{fill:#A8A8BF;}
	.st4{fill:#020306;}
	.st5{fill:#FEFEFE;}
	.st6{fill:#ADAFC3;}
	.st7{fill:#010204;}
	.st8{fill:#B4B4C7;}
	.st9{fill:#ABABBF;}
	.st10{fill:#B3B4CA;}
	.st11{fill:#030407;}
	.st12{fill:#05060D;}
	.st13{fill:#ACADC3;}
	.st14{fill:#B5B7C9;}
	.st15{fill:#0B0A07;}
	.st16{fill:#F46907;}
	.st17{fill:#BEC0CC;}
	.st18{fill:#BFBFD0;}
	.st19{fill:#A6A7BD;}
	.st20{fill:#BBBBCB;}
	.st21{fill:#161719;}
	.st22{fill:#1A0F0E;}
	.st23{fill:#211C0A;}
	.st24{fill:#14161A;}
	.st25{fill:#B4B4BF;}
	.st26{fill:#A5A6B2;}
	.st27{fill:#0F1011;}
	.st28{fill:#07090D;}
	.st29{fill:#03080D;}
	.st30{fill:#313134;}
	.st31{fill:#080B0F;}
	.st32{fill:#2D3237;}
	.st33{fill:#2B3035;}
	.st34{fill:#18191C;}
	.st35{fill:#28282C;}
	.st36{fill:#080810;}
	.st37{fill:#06080B;}
	.st38{fill:#343436;}
	.st39{fill:#111216;}
	.st40{fill:#1E2027;}
	.st41{fill:#020407;}
	.st42{fill:#01040A;}
	.st43{fill:#101512;}
	.st44{fill:#04050A;}
	.st45{fill:#0B0D10;}
	.st46{fill:#0E0F17;}
	.st47{fill:#0E1013;}
	.st48{fill:#0C0F12;}
	.st49{fill:#040509;}
	.st50{fill:#FAFBFB;}
	.st51{fill:#B3B4C6;}
	.st52{fill:#EAEDEF;}
	.st53{fill:#9897AA;}
	.st54{fill:#BFC3CE;}
	.st55{fill:#040609;}
	.st56{fill:#B7B9CB;}
	.st57{fill:#A0A1B5;}
	.st58{fill:#F7F8F9;}
	.st59{fill:#FDFEFE;}
	.st60{fill:#150D08;}
	.st61{fill:#0A0A0E;}
	.st62{fill:#020205;}
	.st63{fill:#FFFFFF;}
</style>
<path class="st0" d="M350,84.5c-2.6-2.6-5.9-6.8-9.1-3.4c-11.4,12.6-27.5,15.3-41.2,22.8c-5.7,2.5-8.4,1.1-9.7-5.9
	c-2-10.7-4.4-21.2-4.6-32.3c-0.3-16.6-17.2-36-32.5-39.1c-8.8-6.6-18.8-4.7-28.6-4.1c-2.9-1.6-5.1,0.8-7.5,1.8
	c-21,2.6-40,36.9-25,51.1c-1.5-7.8-2.4-14.8,1-21.4c6.8-5.2,9.9-14.6,18.1-17.3c-4.5,6.6-7.6,14.2-8.4,22.6
	c-0.7,6.9-2.9,12.2-8.2,16.1c-2.5,0.9-6.1,2.8-3.7,5.7c3.7,4.2,0.8,7.1,0,10.8c-1.2,6-4.4,12.1-1.3,19c4.4-2.2,1.9-7.2,4.6-9.4
	c1.3-1.3,2.5-2.8,3.1-4.6c3.9-12.2,11.9-19.3,23.8-21.2c2-0.4,3.9-1.3,5.9-2c1.2-0.4,2.5-0.7,3.7-1.2c3.7-1.5,8.2-1.4,10.5-5.9
	c-0.5-3.1-2.8-3.4-5.1-3.8c-3.9-0.4-7.6,1.3-11.4,1.5c-4.4,0.2-9.6,5.4-12.4,1.2c-3.2-4.6,1.2-10.2,3.1-15.2
	c0.2-0.6,0.5-1.1,0.9-1.6c7-13.1,8.9-13.2,16.9-1.2c1.4,2.1,2.8,5.1,5.5,4c3.1-1.3,2.4-4.7,2.2-7.7c-0.3-3.7-3.3-6.8-2.2-11
	c5,0.8,8.7,3.8,12.6,5.9c9.8,5.2,14.7,15.5,21.6,23.9c-0.1,4.7,1.6,9.9-1.7,13.9c-3.1,3.7-2.3,6.4,0.1,10.1
	c8.7,14.1,7.7,22.7-2.6,36c-6.4,8.4-15,13.7-23,19.8c-13,10-33.5,3.8-39.8-12c-1.4-3.4,0-11.7-6.2-9.1c-6.2,2.7,0.4,7.9,0.7,12.1
	c0,0.4,0.3,0.6,0.4,0.8c5.5,11.5,5.5,11.5-5.9,17.1c-0.8,0.4-1.6,0.6-2.5,0.9c-4.6,2.2-11.7-0.7-13.4,7.4c-0.1,1.1,0.1,2,0.5,2.9
	c5.1,4.7,9.6,0.2,14.3-1.2c5.1-2.7,10.8-3.9,15.8-6.8c5.7-3.4,11.4-2.5,16,1.3c7.4,6.2,14.8,12.6,17,23.8c1.5,7.9,5.1,15,10.8,20.7
	c4.3,4.4,7.7,3.9,11.1-1.1c5-7.4,5.7-16,6.8-24.7c2.8-22,8.1-42.9,26.1-57c10.8-8.4,23.1-13.4,35.3-19.1
	c-6.9,19.2-15,37.3-29.3,50.5c-7,6.4-9.4,12.8-9.5,22.3c-0.2,27.1-3.6,53.7-11.7,79.6c-1.5-7.9-1.2-16.1-5-23.2
	c-2.1-3.8-4.5-7.1-8.9-7.1c-4.5,0-6.8,3.2-8.5,7.3c-3.9,9.4-9.3,18-13.7,27.1c-2.7,5.4-5.8,10.8-10.9,15.1c-2.7-4.7-2.4-9-2.5-13.1
	c-0.3-13,2-25.7,2.5-38.5c0.2-4.7-0.4-9.1-5.6-9.2c-5.2-0.1-6.5,4.8-5.5,9c2.6,9.8-0.8,19-1.3,28.5c-0.8,12.5-1.4,25.1,6.1,36
	c-3.5,1.1-7.4,0.1-11.2,0.6c-21,2.8-24.6,2.4-24.1,27.9c0.4,16.3,2,40.7,0.4,57.2c-0.8,8.7-2.4,18.6-2.7,27.4
	c9.6,8,20.6,4.9,31.1,4.1c19.7-1.4,39.4-2.6,58.9,1.5c3.3,0.6,6.5,0.8,9.8-0.1c5.5-1.6,8.5-4.8,5.7-11.3c-1.6-3.9-2.7-7.9-2.6-12.1
	c0.5-25.1-1.7-59.7,1.5-84.8c1-7.4-1.5-12-9.3-11.5c-10.8,7.1-22.5,3.2-33.8,2.9c-1.6,0-3.6-0.4-3.9-2.9c7.4-11.4,15.2-22.7,19.7-36
	c1.1,0.2,1.4,0.7,1.6,1.4c1.3,4.9,2.5,10,3.7,15c3.9,13.3,5.1,13.4,15.7,6.8c6.8-4.2,7.9-10.8,9.2-17.8c6.8-24.5,10.4-49.6,11.4-75
	c0.2-3.7,2.1-6.5,4.3-9.3c15-19.4,25.5-41.9,37-63.7C353.8,97.4,355.1,90.7,350,84.5z M258.3,288.2c7.4-1.2,23.7-4.6,26.1,6.6
	c1.4,6.3,0.7,13.8,0.8,20.3c0.1,6.5,0.2,13,0.3,19.5c0.1,13.6-0.3,27.2,0.7,40.7c0.3,4.6,1.3,9.5-2.1,13.1c-3,3.2-7.7,3.9-11.7,3.9
	c-11.9,0.2-23.8-0.1-35.7-0.3c-6.1-0.1-12.2-0.3-18.3-0.3c-3.7,0-7.6,0.5-11.2-0.6c-8.1-2.4-9.7-11-9-19c0.9-10.6,2.6-20.8,2.9-31.4
	c0.4-13.1,0.4-26.2,0.4-39.3c0-1.6,0.5-2.9,1.2-3.9c0.4-1.4,1.4-2.6,3.2-2.6c4.1,0,8.4-0.3,12.6-0.4c5.9-1.2,12-1,18-2.1
	C243.7,291.1,251,289.4,258.3,288.2z"/>
<path class="st1" d="M193.1,160.2c6-4.8,13.5-6.2,20-10.4c5.1-3.3,12.2,0.6,16,4.9c6.8,7.7,16.6,12.6,16.7,26.5
	c0,6.9,6.1,14.2,11.8,19.8c2.5,2.5,3.4,0.5,4.7-1.5c5.6-8.4,6.2-17.9,7.3-27.7c2-17.9,8-35,18-49.3c3.5-4.9,10-9.5,16.2-12.6
	c11.2-5.7,22.4-11.5,34.8-17.9c-3.1,15.9-10.9,28-18.2,40.3c-5.5,9.1-11.4,18-20.5,23.8c-5.1,3.3-3.3,8.6-3.2,13.1
	c0.5,29.2-4.5,57.6-11.4,85.7c-0.4,1.6-0.3,4-3.2,4.7c-2.8-5.8-2.8-12-2.8-18.3c-0.1-6.7-2.1-12.6-6.9-17.1
	c-4.1-3.8-8.2-2.5-9.9,2.5c-6.3,18.5-16.5,34.4-27.9,51.7c-4.9-16.3-3.3-31.1-2.3-45.9c0.3-5.4,1.1-10.8,1.4-16.4
	c0.2-2.9-1.2-5.1-3.8-5.7c-3.1-0.7-3.6,2-3.4,4.2c1.6,17.7-1.5,35.3-0.3,53.1c0.5,9,4.3,13.8,11.4,17.5c-10.4,0-20.2,1.3-30,2.1
	c-7.6,0.7-11.7,3.5-11.3,13c0.5,21.6,0.1,52.6,0.1,74.2c0,7.1-0.1,14.1-5,19.8c8.9,8.6,20.2,10,31.4,10.6
	c12.1,0.6,24.3-0.1,36.4,0.2c3.6,0.1,8-0.9,9.5,4.6c-14.9,11.5-30.8,2-46.1,2.5c-10.8,0.4-20.2-2.7-29.6-7.8c-2.8-1.5-6-2.5-4.9-6.6
	c3.1-11.2,3.4-23.6,1.4-34.9c12.3-17.1-4.6-41.1-2.1-57.8c1-6.8,0.1-12.4,8.2-16.8c5.7-3.2,10.3-7.7,17.3-9
	c4.7-0.8,6.8-7.2,3.9-12.7c-5-10,1.6-20-0.2-30c15.7-6,0.5-16.1,2.6-24.3c-1,9.2-7.7,14.4-12.1,21.1c-1.9,2.8-2.7,6.5-4.8,9.2
	c-4.6,6,3.2,14.8-0.1,16.6c-4.6,2.5-10.3,1.2-12,9c-1,4.6-5.1,3.1-8.3,2.4c7.3-13.1,10.1-28.6,19.2-40.7c7.4-10,9.9-20,3.9-31.9
	c-2.8-5.7-3.1-10.8,5.1-11c1.1-0.1,2.3,0.1,4.4-1.1c-6.1-2.5-12.8-1.9-16.9-7.3c-2.2-3.4-3.6-7.3-5.5-10.8
	C190.8,164.9,189.8,162.2,193.1,160.2z"/>
<path class="st0" d="M412,204.6c1.1-7.7,2.6-16.4,3.3-24c0.4-4.9,2.2-7.8,6.5-6.1c24.5,9.7,49.5,3.4,74.4,2.7
	c5.7-0.1,11.2-1.4,16.9-0.2c3.7,0.8,7.2,1.6,6.5,7.1c-8.2,2.4-10.4,8-10,17c0.7,18.3,0.3,37.7,0.1,55.9c-0.1,6.5,1.1,12,6.1,16
	c0.4,0.6,0.9,1.3,1.4,1.9c-0.1,4.5-1.7,9.2,2.6,12.8c1.6,1.4,1.5,4.5,0,6.2c-10.7,12.2-8.4,28-10.3,42.6c-0.7,4.7,0,9.5-0.1,14.4
	c-0.2,10-3.5,25.9-0.2,35.9c0.7,2.8,1.6,5.5,1.9,8.4c1,11.3-2.1,14.2-12.5,12.5c-11.8-2-23.8-1.4-35.5-1.5
	c-14-0.1-27.7-1.1-41.5-2.2c-2.9-0.2-5-1.8-6.5-4.4c-2-8.8,5-8.2,9.4-10.6c2.1-0.6,4-0.7,6.2-0.7c18.3,2.7,36.6,2.7,55.1-0.1
	c3.9-0.6,7,0.9,7.5-4c2.2-21.8,2.5-51.9,2.3-73.8c-0.1-7.4-1.7-11.3-9.7-10.6c-10.5,0.9-20.6-2.7-31-4c-7.2-0.9-14.3-1.2-21.4-0.2
	c-6.1,0.8-8.8,4.1-10.1,11c-3.8,20.5-1,49.3-1.4,69.8c-0.1,5.1,0.9,8-2.2,12.6c-6.1,2.4-7.7-0.5-9.6-4.7c-3.3-7.9-2.8-16.4-2.4-24.7
	c1.1-18.3,3.6-44.6,3.7-62.9c0-9.7,6.7-11.9,14.1-12.6c-5.2-0.5-7.3-4-7.7-8.7c-0.4-4.9,2-7.9,6.7-8.4c19,3.7,38.1,2.2,57.1,2.7
	c7.5,0.2,10.9-3.5,11.7-11.2c0.4-4.2,0.4-8.4,0.5-12.6c0.3-16.1-0.8-33.4,1.1-49.5c1-8.8-1.2-10-9.7-10.1
	c-18.1-0.2-36.2,3.8-54.4,0.8c-6.3-0.9-7.5,3.5-8.3,8.6c-2.7,17.9-3.1,37.1-1.2,55.1c0.4,4.1,1.1,8.4,0.1,12.5
	c-4.8,5.7-9.3,5.8-10-0.2c-2.4-19-3.5-38.2-0.3-57.2C410.9,205.5,411.5,205,412,204.6z"/>
<path class="st2" d="M197.5,177.3c3.8,3.7,8.8,3.1,13.3,4.7c2.8,1.1,8.1-0.1,7.6,4.4c-0.4,3.8-5.2,2.8-8.5,2.8
	c-6.1-2.5-13.1,1.2-19.7-4.1c-0.3,6.4,0.8,11.1,3.8,15.1c3.9,5.1,3.6,9.9,0.3,15s-4.6,11.2-6.8,16.8c-4.5,11.3-9.1,21.1-22,26
	c-15.5,6-30.8,14.2-44.7,24.3c-3.5,2.5-7,5.4-11.3,1.8c-3.5-2.5-5.1-4.8-4.6-10.6c0.9-9.4-4.9-17.7-7.9-26.4c-2.6-2-3.7-4.8-3.5-8.2
	c0.8-3.8,2.8-5.4,6.3-4.2c2.6,1.5,0.7,4.9,2.4,6.8c1.4,8.2,5.1,15.7,7.4,23.6c1.6,5.7,4.1,4.9,7.9,2.8c13.5-7.3,27.2-14.6,40.8-21.7
	c3.9-2,8.3-3.3,12.4-4.8c-1.6-4.2-3.6-8.4-4.9-12.7c-7-22.1-13.7-44.3-20.6-66.3c-1-3.1,0.5-4.7,2.3-6.6c3.9-4.6,7.6-9.3,13.2-16.1
	c-15.7,6.4-29,11.8-42.2,17.2c-2.5,1.1-5.7,4.7-7.4,0.5c-1.9-4.6,2.6-5.8,5.6-6.9c11-4.6,22.1-9.1,33.3-13.3
	c3.2-1.2,5.9-3.1,8.3-5.4c7.6-3.5,11.9-1.9,15,6.6c2.7,7.4,4.7,15.1,6.3,22.8l-0.2,0.5C181.5,171.7,191,172.6,197.5,177.3z"/>
<path class="st3" d="M109.5,284.2c3.5-0.1,6.5-0.6,9.9-2.9c16.4-11.5,33.7-21.4,52.5-28c3.4-1.2,7.7-1.3,5.1-7.2
	c-0.5-1.2-1.3-2.6,0-3.2c13-6.2,8-23.9,17.8-32.3c1.3-1.2,1.4-5.1-0.3-6.2c-7.4-5.1-5.5-14.4-10.6-24.1c9.7,5.5,18.1,6,26,9.1
	c-2.1,0.2-4,0.4-6.4,0.6c1.7,4.5,3.4,8.5,4.9,12.6c2.6,7.2,3.1,14.1-1.4,20.8c-7.5,11.2-14.6,22.5-17.3,36.4
	c-1,4.9-6.4,6.5-8.5,10.8c-18,3.4-33.8,13.4-50.7,20.3c-5,2-6.1,8-6.2,13.1c-0.4,18-9.5,62.1-15.8,77.7c-1.5,3.7-2,7.3-2.9,11
	c-2.5,9.7-8,11.3-15.5,4.5c9.9-1.2,10.6-9.1,12-17.5c2.6-15.8,4.9-31.7,8.5-47.2c1.3-5.9,1.7-40.6-0.8-46.2
	C109.5,285.3,109.5,284.7,109.5,284.2z"/>
<path class="st4" d="M37.7,212.8c-7.1-2.4-14.4-4.2-20.3-9.3c-19.2-16.4-15.2-57.8,5.2-72.4c15.5-11.1,30.8-13.2,48-8.6
	c4.5,1.2,9.3,1.8,14.1,1.8c10.4,0,22.2,13.5,24.1,26.3c1,7.2,2,14.4-0.2,22.8c8.7-3.5,16-6.5,23.3-9.4
	c-5.1,11.2-17.3,11.5-24.1,19.9c-5.8,8.5-11.8,16.1-20,22.7c-10,8.1-20,10.7-31.6,8.4C50.1,213.6,43.9,213.6,37.7,212.8z"/>
<path class="st5" d="M115,242c-1.3-10.5,4.8-20.5-3.4-28.7c-1.3-1.3,0.1-4.4,1.3-6.2c3.9-6,5.6-12.7,5.5-20c0-4.2,1.7-5.4,5.5-5.7
	c12.2-0.9,16.6,2.4,17.7,15.4c0.7,8.1,2.5,13.3,10.7,14.8c4.7,0.8,6.8,4.8,4.9,10.4c-1.1,3.3-2.4,6.7-2.6,10.1
	c-0.3,5.3-2.5,7.1-7.2,7.7c-6.9,0.8-13.6,1.6-17,10.7c-1.6,4.5-7.1,8.2-12,5.9C111.9,253.1,116.1,245.9,115,242z"/>
<path class="st6" d="M268.7,409.7c-6.5-3.3-13.4-1.6-20.2-2c-13.3-0.6-26.8,1.6-40-1.9c-6.8-1.8-13.3-4.5-17.1-11.5
	c6.9,4.8,14.7,5.1,22.4,4.2c24.1-2.8,48-4.5,72,1.9c3.1,0.8,6.9-1.4,10.1-2.7c2.1-0.8,2.3-3.4,0.4-4.6c-6.1-3.9-4-10-4-15.5
	c0-20.6,0-50.6,0.1-71.2c0-3.5,0.4-7.1,1.1-10.5c2.1-10.8,1.6-11.7-8.7-11.4c2.1-6.7,7.3-8.8,12.3-6.8c5,2,12.3,3.1,12,12
	c-3.7,2.5-4.5,6-4.4,10.7c1.1,31-2.6,68.9-1.2,99.9c0,0.6-0.5,1.2-0.9,1.6C292,408,280.3,409.9,268.7,409.7z"/>
<path class="st7" d="M397.6,287.9c6.3-0.7,8.3,1.9,7.7,9c-2,22.7-0.4,53.8-0.2,76.7c0.1,5.7,0.7,9,4,14.1c2.5,3.9,3.5,9.1-0.8,13.1
	c-2.7,4.2-6.5,3.5-10.5,3.2c-9.2-0.8-18.4-1.9-27.6,0.5c-16.1,1.2-32.4,1.2-48.3,5.2c-7.4,1.8-10.1-2.2-8.8-11.1
	c1.4-3.1,3.1-4.7,6.8-4.9c22.4-1.1,44.6-2.8,67-4c7.2-0.4,10.8,0.9,9.6-9.3c-2.8-25.6-2.1-59.7-1.7-85.5
	C394.8,291.9,395.6,289.7,397.6,287.9z"/>
<path class="st4" d="M110.6,285.9c7,1.9,5.8,36,4.5,41.9c-3.9,19-8,38-10.6,57.2c-1.9,13.7-0.9,13.8-13.6,11.8
	c-2-8.8-2.7-18.1-8.8-25.3c-2.9-1.9-3.8-5.4-6.1-8.7c-3.7,12.1-6.3,24.3-13.5,34.2c-2,1.9-3.4,4.6-6.5,4.5c-2.1-0.1-4.3,0-5.8-2
	c-1.7-2.2-0.2-3.9,0.7-6c6.7-17.1,12.9-34.5,17-52.5c2.9-13,3.4-13.1,12.2-4.1c4.4,8.5,5.5,17.7,5.5,27.1c0.9,5.4,3.1,10,6.7,14.7
	c6.4-15.1,7.6-30.7,11-45.9C104.6,326.6,103.6,289.5,110.6,285.9z"/>
<path class="st8" d="M315.9,210.4c-1.6-4.2,3.4-12.5-3.7-12.5c-6.3,0-2.6,7.8-2.9,11.9c-0.8,11.8-0.7,23.7-1,35.4
	c-5.1-2.7-0.5-7.1-2.4-9.5c-1.1,5.8,4,17.8-9.8,15.3c1.7-14,7-27.3,8-41.5c0.8-10.8,3.4-21.6,2.3-32.6c-0.3-2.7-0.8-5.9,1.5-8.2
	c18.3-18.6,27.4-43.8,40.7-66.1c3.7-6.2,2.1-12.1,1.4-18.4c8.4,0.7,11.1,3.9,9.3,12.8c-3.6,18-13.1,32.9-23.1,47.1
	c-8.3,11.7-15.7,23.4-16.7,38.6c-2.9,1.8-8.5,0.2-8.1,6.2c0.3,5.7,4.6,4.2,8,3.8C319.9,199.3,322.6,206,315.9,210.4z"/>
<path class="st9" d="M514,390.9c-2-2.1-3.4-5.3-7-4c0.3,1.9,0.7,3.8,1,5.7c2.2,12.8,1.5,13.7-9.8,11.3c-2.1-0.5-4.1-0.5-6.2-0.5
	c-15.8,0.1-31.6,0.7-47.4,0.4c-9.8-0.2-20.2,1.3-28.9-6c-1.2,4.7-3.8,5.1-7.4,3.1c-3.2,0.2-6.4,0.6-9.6,0.5
	c-9.6-0.1-19.2-1.6-28.8,0.7c0.7,2.5,4.5,1.9,4.5,5.3c-2.4,3.2-8.8,0.1-9.2,6.6c14.9-0.9,30,3.4,44.8-1.6c2.4-4,5.9-2,9.1-2.1
	c0.8-0.9,1.7-1.8,2.8-2.5c1.5-2,2.9-4.1,5.9-2.9c0.5,0.2,1.1,0.5,1.5,0.6c1.5-0.1,3.2-0.1,4.6,0c2.8,0.2,5.5,1.4,8,2.6
	c6.4,0.6,13,0.4,19.3,1.2c13.2,1.8,26.5,6.1,39.8,4.6C518.6,411.8,521.8,403.7,514,390.9z"/>
<path class="st10" d="M519.9,186.1c0-0.6,0.1-1.2,0.1-1.8c0-1.6-0.4-3.3-1.3-4.7c-1.9-2.9-4.9-3.8-8.1-4.1c-2.6-0.2-5,2.6-4.9,5.3
	c0.1,2,1,3.5,2.3,4.4c-0.3,0.9-0.4,2.1-0.4,3.5c-0.3,24.5-0.4,50.2-1.3,74.5c-0.3,8.5,2.6,10.6,9.5,9.7c0-4.7,4-7.8,3.9-12.6
	C519.3,235.9,523.9,210.4,519.9,186.1z"/>
<path class="st11" d="M100,235.6c-2.9-0.2-4.9,0.9-5,4.5c-2.7-0.5-5.1-1.5-7.2,2.4c-3.3,6-7.7,11.1-10.9,17.2
	c-1.5,3.1-3.5,5.9-6.9,6.9c-1.5,1.4-2.8,3.2-4.6,4.2c-3.3,1.8-6.7,0.9-9.1-1.6c-2.7-2.9,0.1-5.3,1.6-7.4
	c8.1-11.5,17.1-22.3,23.2-35.2c0.7-1.3,1-2.8,1.9-5.2c-13.4,2.6-25.4,6.8-37.5,11c-3.2,1.2-6.9,3.3-7.9-1.9c-0.9-4.5,3.1-4.2,6-4.9
	c4-0.9,8-2.5,11.9-3.7c11.8-6.4,24.2-10,37.4-10.7c1.3,1.1,2.7,2.1,4,3.2C97.3,221.5,99.3,228.5,100,235.6z"/>
<path class="st12" d="M302.6,401.5c-3.5-11.5-1.5-22.3-1.5-33.9c-0.1-21.4,2.5-51.1,0.1-72.5c-0.8-6.9,3.8-7.5,8.6-7.5
	c1.9-1.3,3.5-1.2,5,0.7c13.3,1.4,26.6-0.6,39.8-1.4c9.2-0.6,18.4-1.5,27.6-1.9c1.9-0.1,7.5-2.1,4.3,4.5c-24.1,2-48,5.9-72.2,5.4
	c-4.8-0.1-6.2,1.8-6.2,6.7c-0.5,25.1-3.1,58.4-0.5,83.5c0.5,5.4-1.6,8.2-0.4,13.9C307.8,402.3,304.5,402.3,302.6,401.5z"/>
<path class="st13" d="M313.3,414.8c11.8,0.1,23.6,0.7,35.3,1.2c5.5-1.4,10.9-2.7,16.7-2c1.4-0.9,2.9-2.7,4.4-2.6
	c3.9,0.1,8.5,0.2,8.6-4.8c0.1-5.2-5-3.7-8.2-4.5c-15.9,0.2-31.8,0.7-47.3,5.1c-7.4,2-9.9-1.2-9.6-8.6
	C307.6,408.2,307.2,410.8,313.3,414.8z"/>
<path class="st9" d="M507.2,350c-0.1-14.8,0.5-29.6,3.7-43.9c1.1-4.8,0.1-11.8,7.7-13.2c2.5-0.5,2.1-5.1-0.9-5.7
	c-12.2-2.4-6-6.4-1.1-10.6c0.3-0.4,0.3-1.2,0.4-1.8c6.4,4.1,7.1,10.5,5.7,17.4c-4.4,21-5.8,50.4-6.9,71.7
	C510.1,367.1,510,352,507.2,350z"/>
<path class="st14" d="M300.8,104c-3.6,2-7.2,4.1-11.9,6.7c1.4-17.4-4.4-32.7-5.7-48.9c-1-13.1-10.4-21.9-20.1-29.3
	c-2.8-2.2-6.1-3.9-9.3-5.8c6.3-6.8,12.3-3.8,16.7,2c6.2,8.1,11.8,16.8,16.8,25.8c2.7,4.7,4.9,10.1,2.9,16.4c-1,3.1-0.5,6.4,1,9.3
	c3.4,6.4,6.8,12.7,5.7,20.6C296.9,103.2,299,103.6,300.8,104z"/>
<path class="st11" d="M44.7,389.1c-6.9-9.9-7.1-22.7-9.3-34c-6.1-32.4-9.2-94.8-9.5-128.1c0-2.7-0.1-5.4,0.3-8
	c0.4-2.5,2.1-3.7,4-3.5c2.1,0.2,3.3,1.5,3.1,4.5c-4.7,47.2,4.7,121.9,12.1,167.5C45.5,387.6,45.1,387.9,44.7,389.1z"/>
<path class="st15" d="M267.8,72.9c-1.4,10-7.9,14.2-16.2,15.8c-19.6,3.5-38.6,9-54.6,24.1c0.7-6.2,0.7-6.2,4.6-10.5
	c3.2-6.4,9.8-7.7,14.5-11.7c1.1-0.7,2.2-1.3,3.4-1.8c2.8-1.1,5.7-2.2,8.6-3.2c5.9-2.4,12-3.5,18.1-4.6c6.5-1.1,12-3.2,13.7-11.1
	c0.5-2.2,2.1-3.8,4.5-4.1C268.9,66.3,268.5,69.5,267.8,72.9z"/>
<path class="st16" d="M410,38.1c-1.5-3.4-5.1-1.8-8-1.3c-5.2,3.7-8,11.5-16.1,11.3c1.9-5.2,8.9-5.3,8.4-11.8
	c-4.4,0.1-8.8,0.3-13.2,0.5c1.5-5.9,6.5-8.5,10.2-12.2c1.9-1.8,5.6-2.6,4.5-6.2c-1-3.1-4.4-2.8-6.8-3.7c-10-3.4-17.4,2.1-24,9.2
	c-2.9-2.8-1.2-5.8-1.5-8.5c-0.5-3.5,3.1-9.5-2.8-10.2c-5.8-0.7-14-3.7-16.8,3.9c-2.9,7.7-4.6,17,1.2,25c3.7-3.5,0-9.4,3.6-13.3
	c-0.4,5.7-2.1,11.2,1.9,15.9c8.8,4.7,18.2,2.6,27.4,3.3c-0.5,4-3.8,4.5-6.3,6c-2.2,1.4-5,2.2-4.6,6.1c0.5,4.1,3.7,3.3,6.1,3.9
	c12.4,3.1,23.2,0.1,32.4-9.9C407.8,43.7,411.8,42.3,410,38.1z"/>
<path class="st17" d="M93,211.1c-12.2,4.6-24.6,8.1-37.4,10.7c-3.8-8-11.7-6.6-17.9-9.1c10.1,0.9,20.5-2.4,30.6,1.5
	c1.7,0.7,4.7-0.8,6.5-2.2c10.5-7.7,22.9-12.7,29.3-25.8c0.5-1.2,2.4-1.8,3.6-2.6c-3.8,10-7.5,20-18.3,23.7
	C90.4,209,93.1,208.6,93,211.1z"/>
<path class="st18" d="M70,266.6c6.8-10.6,13.4-21.1,20.4-32c1.6,2,3.2,3.8,4.6,5.5c0.7,2.4,1.4,4.7,2.1,7.2
	c-6.1,4-8.3,11.1-11.8,17.3C80.5,272.9,75.3,273.6,70,266.6z"/>
<path class="st19" d="M179.6,160.9c-6-5.4-6.1-13.5-7.7-20.6c-2-8.4-6.2-10.8-13.5-8.7c3.1-6.1,8.7-7.5,13.6-5.8
	c7.4,2.7,11.8,9.7,12.9,18c0.7,4.8,1,9.2,7,8.4C188.1,155.7,181.1,153.9,179.6,160.9z"/>
<path class="st9" d="M507.2,350c5.5-2.6,3.5,16,8.6,14c1.4,9.9-2,17.1-1.7,26.9c-3.1,0.1-4.5-3.1-7-4
	C504.1,376.5,506.3,360.2,507.2,350z"/>
<path class="st20" d="M62.5,396.9c4.5-13.3,10.3-26.1,12.8-41c4,4.9,5,10.5,6.9,15.5c-5.3,1.3-5.6,7.1-7.2,11
	C72.1,389,68.5,393.9,62.5,396.9z"/>
<path class="st21" d="M485.3,63.4c5.9-0.6,9.8,4.8,15.2,2.1c1.3-0.7,2.3,1.8,1.9,3.5c-0.5,2.6-2.4,4.4-4.6,3.4
	c-7.5-3.3-14.8-3.1-22.5-0.5c-2.4,0.8-4-0.9-4.4-3.5c-0.3-2.7,1.9-3.3,3.5-3.3C478.5,64.8,482.5,64.4,485.3,63.4z"/>
<path class="st22" d="M402,36.9c-1.2,6-10.8,15.1-16,15.3c-2,0.1-3.5-0.7-4.3-2.7c-0.9-2.2,0.4-3.4,2-4.6c3.5-2.7,8-4.1,10.6-8.4
	C396.9,35,399.5,34.1,402,36.9z"/>
<path class="st0" d="M267.8,72.9c-0.8-2.6-0.5-6-4.4-6c-7.6-0.4-15.3,5.2-22.9,0.2c-1.3-2.6-3.9-1.3-5.8-2.2
	c11.4-3.9,23-6.7,34.9-1.9C269,66.3,268.5,69.6,267.8,72.9z"/>
<path class="st23" d="M345,34c-1.5-5.8-0.2-11.3,0.4-17c0.2-2,1-4,3.1-4.1c2.8-0.1,2.9,2.6,2.9,4.8c-0.1,6.2-2.1,12.5-0.9,18.8
	C348.2,37.1,346.3,36.5,345,34z"/>
<path class="st24" d="M447.8,64.2c5.1-0.8,10-2.2,15.3-1.2c2.4,0.5,4.1,1.5,4.3,3.9c0.1,2.7-2,4-4.3,3.5c-4.5-0.9-9.5,0.9-13.5-2.6
	C448.3,67,447,66.2,447.8,64.2z"/>
<path class="st25" d="M100,235.6c-7.4-5.8-4.7-13.2-2.9-20.4c0.1-0.4,0-0.6,0-0.9c7.4,7.8,4.6,17.9,5.2,27.2
	C100,240.2,101.1,237.5,100,235.6z"/>
<path class="st26" d="M85.5,363.9c-1.5-9.1-5.6-17.7-5.5-27.1C88.1,344.3,88.5,353.8,85.5,363.9z"/>
<path class="st27" d="M421.1,63.7c3.1-0.1,7.3,0.4,6.8,4c-0.7,5.3-6.5,1.5-9.6,4c-1.7,1.4-4.3-0.9-3.9-3.4
	C414.9,64.5,418,63.7,421.1,63.7z"/>
<path class="st28" d="M496.1,165.7c0.2,2.2-1.4,2.7-2.6,3.5c-1.6,1.2-3.4,1.4-4.9-0.1c-2.5-2.7-7.6,2.7-8.8-3.4
	c-0.1-0.8,1.3-2.8,2-2.8c4.6,0.2,9.2,0.8,13.6,1.4C495.8,164.3,496,165.2,496.1,165.7z"/>
<path class="st29" d="M513.5,111.2c-1.1,2.1,0.8,7.1-3.3,6.5c-3.9-0.6-3.2-5.5-3.6-8.8c-0.2-2-0.5-5.4,2.5-5.1
	C512.5,104.2,513.7,107.5,513.5,111.2z"/>
<path class="st30" d="M513.9,143.8c-0.5,2.5-0.7,6-3.5,5.9c-3.1-0.1-3.6-3.7-3.7-6.4c-0.1-2.6,0.4-5.5,3.6-5.2
	C513.3,138.2,513.5,141.2,513.9,143.8z"/>
<path class="st31" d="M225.4,22.6c-2.3,1.4-4.7,2.5-7.5,1.8c1.2-1.2,3.4-1.9,1.4-4.2c-1.9-2.2-2.2-4.4,0.2-6.5
	c1.2-1.1,2.6-1.4,4-0.5c2.1,1.3,2.5,3.2,1.9,5.7C225.1,20,225.4,21.3,225.4,22.6z"/>
<path class="st32" d="M511,84.7c-3.4-1.4-3.8-4.5-4-7.7c-0.1-2.4,0.3-5.1,2.8-4.8c3.3,0.2,3.9,3.3,3.8,6.4
	C513.6,81,513.9,83.7,511,84.7z"/>
<path class="st33" d="M513.8,96.2c-0.2,3.2,0,6.2-3.3,6.4c-2.9,0.1-3.7-2.6-3.7-5.4c0-2.6,0.1-7.3,2.6-7.7
	C512.7,89.1,513.2,94,513.8,96.2z"/>
<path class="st34" d="M513.6,163.2c-0.7,3.8-2.7,5.5-5.6,5.7c-2.4,0.1-4-1.5-3.6-4.2c0.4-3.1,2.1-5.3,5.3-5.3
	C512.2,159.4,513.5,161,513.6,163.2z"/>
<path class="st35" d="M422.8,105.4c-0.7,2-0.9,4.7-3.6,4.5c-2.8-0.2-3.7-3.1-4-5.4c-0.3-2.4,1-4.6,3.4-4.4
	C421,100.4,422.4,102.6,422.8,105.4z"/>
<path class="st36" d="M439.5,67.9c-0.8,2.7-3.2,3.4-5.2,3.9c-2.3,0.5-4.3-1.5-4.1-3.7c0.2-3.5,3.7-3.7,6.1-4
	C437.7,63.9,439.2,65.5,439.5,67.9z"/>
<path class="st37" d="M435.3,167c-1.1,2.5-2.8,3.4-5,3.3c-2.5-0.1-4.9-1.3-4.6-4.2c0.3-2.7,2.8-2.6,5-2.5
	C432.9,163.8,434.6,164.6,435.3,167z"/>
<path class="st38" d="M226.4,110.9c-0.5,2.2-1.6,4-4,3.7c-2.3-0.2-3.8-2.1-3.4-4.5c0.4-2.5,2.5-3.2,4.7-3.1
	C225.7,107.3,226.7,108.5,226.4,110.9z"/>
<path class="st39" d="M418.7,83.5c2.7,1.2,3.3,3.4,2.9,6.2c-0.2,1.9-0.7,5.3-3.2,4.6c-2.7-0.8-3.6-4.4-3.3-7.2
	C415.4,85,416.5,83.6,418.7,83.5z"/>
<path class="st40" d="M469.2,165.6c1.6-2.6,3.8-3.7,6.4-1.8c1.4,0.9,1.6,2.7,1.1,4.1c-1.9,4.2-4.8,1.6-7.4,1.3
	C468.3,168,468.2,166.7,469.2,165.6z"/>
<path class="st41" d="M420.9,142.6c0.4,2.9-0.4,4.2-2.7,4.2c-2.4,0-4.1-1.2-4.5-3.7s1.1-4.4,3.5-4.4
	C419.7,138.7,420.6,141,420.9,142.6z"/>
<path class="st13" d="M419.2,410.2C419.3,410.2,419.3,410.2,419.2,410.2c-4.6-7.7-6.9-3.1-9.1,2C413.3,412.3,416.5,413,419.2,410.2z
	"/>
<path class="st42" d="M512.7,126.8c0,2.1-1.1,4.1-2.8,4c-2.2-0.1-3.3-2.4-3.3-4.8c0-2.4,1-4.7,3.4-4.4
	C512.3,121.9,512.7,124.5,512.7,126.8z"/>
<path class="st43" d="M234.8,112c-2-0.6-4-1.6-3.7-4.4c0.2-2.2,2.2-2.8,4.1-2.6c1.9,0.2,3.5,1.1,3.3,3.7
	C238.4,111,237,111.9,234.8,112z"/>
<path class="st44" d="M447.8,64.2c0.5,1.2,1.2,2.4,1.7,3.7c-2.1,2.6-4.5,4.4-7.3,1.4c-0.7-0.7-1.4-2.5-1-3.1
	C442.7,63.2,445.1,62.5,447.8,64.2z"/>
<path class="st45" d="M448.2,168c-0.8,2.5-2.4,3.8-4.6,3.3c-1.7-0.4-3.3-1.6-3.1-3.9c0.2-2.1,1.5-3.5,3.5-3.3
	C446.2,164.3,447.8,165.5,448.2,168z"/>
<path class="st46" d="M469.2,165.6c0,1.2,0,2.5,0.1,3.7c-0.3,0.1-0.5,0.2-0.9,0.2c-2.5,0-5.2,2.1-7.2-1.4c-0.8-1.5,0-2.6,0.8-3.4
	C464.7,162,466.9,164.5,469.2,165.6z"/>
<path class="st47" d="M457.2,167.6c-0.3,2.6-1.5,3.9-3.4,4.1c-2.8,0.2-3.4-2.4-3.4-4.4c0-1.9,1.9-3.2,3.7-3.1
	C456.1,164.4,456.8,166.3,457.2,167.6z"/>
<path class="st48" d="M421.1,159.4c0.1,2.6-1.5,2.9-3.4,3.1c-2,0-3.6-1.1-3.8-2.9c-0.3-2,1.3-3.4,3.1-3.8
	C419.3,155.3,420.4,157.3,421.1,159.4z"/>
<path class="st49" d="M418.4,119.6c2.1,1.1,3.1,2.8,2.7,5.3c-0.2,2-1.3,4.1-3.1,3.8c-2.2-0.4-2.7-2.9-2.7-5.3
	C415.4,121.3,416.5,120.1,418.4,119.6z"/>
<path class="st5" d="M205.8,294.9c4.1,0,8.4-0.3,12.6-0.4c5.9-1.2,12-1,18-2.1c0.4-0.1,0.9-0.2,1.3-0.2c-10.1-0.3-20.2,0-30.2,2.1
	c-1.1,0.2-1.9,0.5-2.6,0.8C205.2,294.9,205.5,294.9,205.8,294.9z"/>
<path class="st50" d="M311.5,282.3c-0.3-0.4-0.8-0.6-1.1-0.9c-1.6,1.5-4.9,0.8-4.8-2.2c0.2-5.1-2.7-9.8-2.5-15c0.1-4,5.8-4,5.7,0
	c-0.1,2.2,0.4,4.5,1.1,6.6c3.2-8.4-0.2-17-0.4-25.4c-3.3-3.2-0.4-8-3.8-14c2.2,11,0.5,17.7-8.3,19.8c-3.1,6.2-0.9,17.2-12.4,15.8
	c-0.2,0-0.7,1.1-0.7,1.5c0.1,2.1,1,4.7-2.6,4.4c-2.8-0.4-2.8-2.8-3.5-4.8c-0.8-2.4-1.5-4.8-2.4-7.2c-1.5-4.9-3.5-4.9-6.3-0.9
	c-6.3,8.7-12.1,18.1-22.2,22.4c-0.8,1.5-6.7,3.5,0.1,4.5c4.1,0.5,8.2,1,12.3,1.3c5.8-1,15.3-2.6,20.8,0.9c2-0.5,3.7-1.8,4.6-4.7
	c6.8-5.9,13.2-7.8,19.7,0.6c1.2,1.5,3.6,1.9,5.3,2.8c1.6,0.2,3.3,0.5,5,0.7c2-0.5,4-0.8,6-1.3C318.4,283,313.6,286,311.5,282.3z"/>
<path class="st51" d="M274.6,260.8c-1.4,0-2.3-4.5-3.7-1.3c-2.8,6.2-8.4,10-11.6,15.7c-3.3,5.8-7.5,7.8-13.3,7.1
	c8.8-13.2,16.8-26.9,22.5-43.9C271.8,246.6,273.3,253.8,274.6,260.8z"/>
<path class="st52" d="M260.3,146.7c2.8,0.1,5-3.4,9.3-1.1c-6.1,4.5-1,14.8-10.3,18c-10.3,3.4-16.4-2-22.5-9.7
	c3.9-3.4,8.2-2.9,12.2-3.9c1.4-0.5,2.9-1.1,4,0.4C260.1,159.7,259.1,150.7,260.3,146.7z"/>
<path class="st53" d="M197.5,177.3c-1.6-0.6-3.4-1.8-5-1.6c-9.9,0.9-12.4-5.7-13.1-14.4c4.6,4,8.5-0.7,12.6-1.2
	C190.5,167.1,196.9,171.1,197.5,177.3z"/>
<path class="st54" d="M260.3,146.7c1,1.9,4.3,2.5,2.5,6.1c-1.5,2.9-3.9,3.8-6.4,4.1c-2.4,0.2-4.8-0.5-4.4-4.1
	c0.2-2.4-1.9-1.9-2.9-2.7C252.8,149,256.5,147.8,260.3,146.7z"/>
<g>
	<path class="st16" d="M238.1,29.7c-4.5-1.6-4.3,1.1-3.4,4.6c1.3,5.4,5.8,10,3.1,17c-4.3-3.1-4.7-8.4-6.9-12.2
		c-3.8-6.7-7.1-5.5-10.9-0.8c-6,7.4-10,15.8-11.9,25.4c-1.1,5.4,0.1,8,5.9,6.1c6.8-2.1,13.5-4.5,20.7-4.8c11.6-1.4,23.3,0.2,35-1.9
		c0.9-0.1,1.9-0.2,2.7-0.4C267,44.4,253.6,35.7,238.1,29.7z"/>
	<path class="st16" d="M194.4,75.6c3.5-1.5,9.2,0.2,9.3-6.5c0.2-13.7,4.3-25.7,12.1-36.5c-10.5,3.8-18.2,10.7-22.9,21.6
		C195.6,61,192.8,68.4,194.4,75.6z"/>
	<path class="st16" d="M254.5,64.9c-4.7,0.4-9.4,1.4-14.1,2.2c-3.5,1.2-7,2.4-10.5,3.4c0,0-0.1,0.1-0.1,0.2c-1.1,0.3-2.2,0.6-3.5,1
		c0,0,0,0,0-0.1c-4,1.2-7.9,2.7-11.9,3.5C201,78,196.3,88.7,194,101.6c1.1,0,2.3,0,3.4,0c1.4,0.1,2.8,0.4,4.3,0.7
		c5.2-3.5,10.4-6.9,15.6-10.4c0.7-0.4,1.3-0.8,2-1.2c0,0,0,0,0,0c3.1-0.5,6.1-1.3,8.8-3.2c0-0.1,0-0.1,0-0.2c0,0,0.1,0,0.1,0
		c4.9-1.2,9.8-3.1,14.7-3.3c10.9-0.5,18.9-4.5,20.6-17.3C261.1,63,257.4,64.6,254.5,64.9z"/>
	<path class="st16" d="M258,170.9c-4.6-0.5-8.4,2.8-8.8,7.4c-0.5,5.9,6.7,9.7,8.5,9.7c6.1,0,2.6-7.4,4.5-10.5
		C264.4,171.9,260.4,171,258,170.9z"/>
</g>
<path class="st55" d="M221.1,187.9c1.1,0.4,1.4,0.4,1.6,0.6c5.3,5.2,4.8,11.9,4.1,18.6c-0.1,1.3-2.2,1.9-2.6,0.6
	C222.2,201.4,218.9,195.1,221.1,187.9z"/>
<path class="st5" d="M424.8,391.1c-1.9-1.3-4.8,0.5-6-2.6c0-11.3,0.9-28.5-0.2-39.7c-1.6-16.6,1.6-32.7,2.7-49.1
	c0.3-4.1,2.1-5.1,5.5-5.9c14.1-3.4,27.9-0.5,41.9,1.1c7.4,0.8,14.7,2.7,22.2,1.6c6.5-0.9,8.4,2.5,8.1,9c-1.1,23.8-2,55.9-2.9,79.7
	c-1.9,4.4-5.1,3.2-9.4,3.5c-17.2,1.8-34.5,3.2-51.8,0.2c-1.9-0.4-3.6,0.1-5.1,1.3C428.1,390.6,426.5,390.9,424.8,391.1z"/>
<path class="st5" d="M424.5,268.5c-1.1-2.6-2.9-4.5-5.2-5.8c-2.8-24-2.6-49.2,0.8-73.3c0.7-4.9,2.1-6.2,7.5-5.5
	c19.6,2.6,39.3,1.3,58.9-0.7c7.3-0.7,11.2-0.2,10.8,9.3c-0.9,21-0.8,43.1-1.6,63.9c-0.7,14.8-1.3,16-14.5,15.8
	C462.2,271.9,443.1,274.7,424.5,268.5z"/>
<path class="st56" d="M429.7,390.4c3.5-6.4,9.1-3.4,13.3-2.6c15.8,3.1,31.3-1.2,46.9-0.9c2.7,0,3.8-0.5,6-1.5
	c-0.1,4-2.1,4.4-5.7,4.8C470.2,392.4,450,394.2,429.7,390.4z"/>
<path class="st57" d="M497.1,286.4c-20.3,0-40.5,0-60.7,0c0-1.2,0-2.4,0-3.5C456.8,281.9,476.9,283.7,497.1,286.4z"/>
<path class="st58" d="M162.6,146c5.2,16.4,9.4,31.6,15,46c5.5,14,0.8,25.9-5.1,39.8c-6.7-23.1-14.6-44-18.8-66.2
	C152.4,158.6,157.6,152.6,162.6,146z"/>
<path class="st5" d="M317,210.4c3.8-5.2-0.2-12.2,3.5-17.4c5.7-4.6,12.5-3.2,18.9-4.1c14.7-2.2,29.6-4.8,44.5-5.1
	c5.2-0.1,6.8,3.1,6.5,8.1c-0.9,21.6-1.6,43.1-2.4,64.7c-0.2,7.1-3.6,10.7-10,10.8c-18.8,0.6-37.5-0.9-56.2,1.1
	c-4.3,0.5-4.4-2.9-4.9-6.2C314,245.1,314.8,227.8,317,210.4z"/>
<path class="st59" d="M52.8,125.4c9.6-0.2,18.8,1.1,26.8,4.6c16.7,7.4,24,35.6,12.6,51c-15.2,20.7-33.6,32.7-60.7,25
	c-13.2-3.8-22.6-16.6-21.6-31.4c1-15.3,3.7-29.1,18.6-38.4C36.8,131.1,43.5,124.8,52.8,125.4z"/>
<path class="st60" d="M369.8,36.7c-2.8-0.7-3.4-3.2-2.2-5.7c2.6-5.4,5.9-10.5,10.7-13.9c2.9-2.1,5.1-0.2,5.2,3.5
	C383.6,23.7,372.7,36.5,369.8,36.7z"/>
<path class="st61" d="M59.1,154.6c-2.2,0.1-3.8-0.2-3.9-2.8c-0.1-2.7,0.8-4.2,3.4-4.2c2,0,3.6,1.1,3.9,3.1
	C62.9,153.4,60.9,154.3,59.1,154.6z"/>
<path class="st61" d="M68.5,144.5c-2.2,0.1-3.8-0.2-3.9-2.8c-0.1-2.7,0.8-4.2,3.4-4.2c2,0,3.6,1.1,3.9,3.1
	C72.3,143.2,70.4,144.1,68.5,144.5z"/>
<path class="st62" d="M403.9,197.7c0.1-4.5,0.4-9.1-2.7-12.8c-6.7-4.8-13.5-9.4-21.9-9.4c-19.6-0.2-38.9,6.7-58.6,5.2
	c-4.9-1.9-8.9,0.1-9.2,5.3c-0.3,6.6,4.8,6.9,9.6,6.5c18.5-3.9,37.2-6.2,56-6.7c10.1-0.2,10.9,0.7,10.8,11.4
	c-0.1,17.4-2.2,34.7-2.1,52.2c0.1,10-3.3,13-13,13.1c-13.4,0.1-26.8-0.5-40.2,0.5c-11.2,0.8-13.3-0.4-14.4-12.5
	c-1.2-14.5-0.8-29,1.2-43.5c0-1.3,0-2.6-0.1-3.8c-0.3-4.2-0.9-9.2-5.7-9.3c-5.8-0.1-5.2,5.4-5.7,9.9c-1.5,12.7-0.5,25.4-0.7,38.2
	c0,6.8,1.3,13.5,1,20.4c0.4,0.5,0.7,1.2,0.7,2c-0.1,5.2,2.7,9.8,2.5,15c0,0.8-0.3,1.5-0.8,2c0.4,0.2,0.9,0.5,1.4,0.7
	c1.2,0.1-0.3,0.1,0.9,0.1c26.4,0.9,52.8-3.1,79.3-0.9c5.9,0.5,9.9-3.7,8.7-11.3c-0.7-4.1-0.4-8.4,0-12.5
	C402.9,237.5,403.5,217.6,403.9,197.7z"/>
<path class="st13" d="M418.9,388.5c-4.8,0.5-6.2-0.9-6.9-4.7c-0.9-4.9-1.4-10.1-1.4-15.2c0-19.9,3.3-47.8,3.4-67.6
	c0-9.8,2.7-13.1,10.5-14.1c1-0.1,2-0.7,3.3-1.2c-11-11.4-11-11.7-3.1-17.1c0.3-4.1-1.4-6-5.2-5.8c0.1,2.5-0.4,4.6-3.3,4.2
	c-3.3-0.4-3.3-2.9-3.3-5.7c-0.2-18.8-2.2-37.7-0.9-56.6c-3.2-2.7-1.6-6.5-1.7-9.8c-0.2-6.8-2.2-10.5-9.2-7.5c0.5,15.9,0,31.7-1,47.5
	c0,0.2-0.1,0.6,0,0.8c-0.3,5.7-0.8,11.2-1.1,16.8c-1,4.6-2,9.2-2,13.9c-0.1,0.7-0.1,1.5-0.1,2.2c-1,0.8-1.6,2-1.9,3.4
	c-23.3,2.4-46.9,2.9-70.3,1.9c-3.4-0.5-6.8-0.6-10-0.1c-0.1,0-0.2,0-0.3,0.1c-1.7-0.9-4.3-0.6-5.2,1.5c-0.9,1.9-0.5,4.5,1.3,5.7l0,0
	c0,0.1,0.1,0.2,0.1,0.4c-0.1,0.1-0.1,0.2-0.2,0.2c0.3,0.6,0.7,1.2,1.2,1.6c0.7,4.4,5.2,2.1,7.2,3.5c-1.5,1.1-4.5-0.8-3.6,3.4
	c2.3,2.6,5.3,2.5,8.3,2.2c18.5-1.8,37.2-3.1,55.7-4.6c2.7-0.2,5.3-0.7,7.3,1.9c4,0.8,6-3.3,9.3-4.4c3.7-1.2,2.1,1.2,1.7,2.8
	c3.9,3.7,4.6,8.2,4.8,13.7c1.2,28.6-4.5,63.6,5.1,91.6c0.7,1.8-0.1,3.8-0.2,5.8c-0.1,2.9-0.3,6.1,3.8,5.4c3.3-0.6,6.4-1.8,4.7-6.7
	c-0.3-7.5,6.8-3.3,9.1-6.7C423.5,388.5,421.2,388.3,418.9,388.5z"/>
<path class="st63" d="M390.5,189.7c-0.1-5.3-7.7-5.3-7.6,0c0.3,15.9-0.1,31.7-1.6,47.5c-0.4,4.1-0.9,8.2-1.4,12.4
	c-0.3,2.1-0.3,4.7-1,6.7c-0.8,2.6,0.2,1.4-1.9,1.9c-6.5,1.5-14.5-0.1-21.2-0.9c-6.8-0.8-13.4-1.9-20.2-2.2
	c-3.6-0.1-7.1-0.1-10.7,0.1c-1.2,0.1-1.9,0-2.2,0c0-1.3,0.2-2.8,0.2-3.9c0.1-7.9,0.5-15.9,1.2-23.8c0.3-3.8,0.7-7.5,1.1-11.3
	c0.3-2.6,0.5-5.3,0.9-7.9c0.1-1.1,0.9-2.8,0.8-3.7c2.4-1.3,3.5-5.4,0.5-7.4c-7.6-4.9-8.4,7.4-9.1,12.1c-1.3,10.5-2.2,21.1-2.6,31.7
	c-0.2,5.1-0.9,10.8-0.4,15.9c0.3,2.8,0.9,4.9,3.4,6.1c3.3,1.5,7.5,0.1,11,0.1c5-0.1,9.9,0.2,14.9,0.8c9.7,1.1,19.4,2.9,29.2,2.6
	c3.1-0.1,7.9,0.2,10.3-2.4c2.3-2.5,2.2-7.1,2.6-10.2C389.7,232.7,390.9,211.3,390.5,189.7z"/>
<path class="st62" d="M398.3,285.2c-29-0.4-57.9,0.6-86.8,2.8c-4.9,0.4-4.9,8.6,0,8.2c28.9-2.2,57.9-3.2,86.8-2.8
	C403.2,293.6,403.2,285.3,398.3,285.2z"/>
<path class="st62" d="M430.3,269.9c-2.7-0.6-5.5-1.1-8.2-1.6c0,0-0.3-0.1-0.5-0.1c0-0.1-0.1-0.1-0.1-0.2c-0.1-0.2-0.1-0.6-0.2-0.8
	c-0.3-1.3-0.2-2.6-0.1-4c0.2-2.2-1.9-4.1-3.8-4.1c-2.2,0-3.6,1.9-3.8,4.1c-0.3,3.8,0.2,9.2,3.3,11.8c1.5,1.2,3.3,1.4,5.1,1.8
	c2.2,0.5,4.3,0.8,6.4,1.3C433,278.9,435.1,270.9,430.3,269.9z"/>
<path class="st62" d="M417.2,374.6c-1.1-5.2-8.5-2.9-7.4,2.2c1.5,7.2,2.5,12,2.9,19.3c0.3,5.3,8,5.3,7.6,0
	C419.9,388.1,418.8,382.5,417.2,374.6z"/>
<path class="st62" d="M322,398.7c-0.5-1.1-1.4-1.6-2.4-1.9c-0.9-0.8-2-1.3-3.4-0.9c-2.9,0.7-5.6-1.8-6.1-4.8c-1-5.2-8.4-2.9-7.4,2.2
	c0,0.1,0,0.2,0.1,0.2c-0.7,4.2-0.5,9.3,2.9,12.1c4.3,3.4,10.7,0.8,14.9-1.3C322.5,403.5,323,400.5,322,398.7z"/>
<path class="st62" d="M287.6,383.6c0-1-0.4-2-1-2.8c0,2.8-0.4,5.5-2.5,7.6c-0.8,0.9-1.8,1.6-2.9,2.1c0.3,0.3,0.7,0.6,1.2,0.8
	c0.1,0,0.2,0.1,0.3,0.1c0.1,0,0.2,0.1,0.3,0.1c0.3,0.1,0.5,0.1,0.9,0.1c1.3,0,2.3-0.6,2.9-1.5c0.5-0.7,0.9-1.5,0.9-2.6v-4H287.6z"/>
<path class="st62" d="M202.6,297.4c0.1-0.3,0.2-0.5,0.3-0.7c-2.6-2.7-8.3-1.5-8.5,3.7c-0.7,28.5-2.1,57-4.3,85.5
	c-0.5,6.8,9.3,6.7,9.8,0c0-0.2,0-0.5,0-0.7c-1.9-3.7-2.3-8.5-1.9-13.1c0.9-10.6,2.6-20.8,2.9-31.4c0.4-13.1,0.4-26.2,0.4-39.3
	C201.4,299.7,201.9,298.4,202.6,297.4z"/>
<path class="st10" d="M518.1,277.9c0.3-3.1,0-6.5,0-9c0-2.6-1.4-4.2-3.3-4.8c0-0.5-0.1-0.9-0.3-1.4l-0.1-0.2
	c-0.1-0.8-0.3-1.8-0.5-2.6c-0.4-1.6-2-2.4-3.4-2c-1.2,0-2.4,0.7-2.7,2.1c-1.3,5.7-1.5,11.2-0.9,17c-1,1.8-2.4,3.2-4.3,3.5
	c-3.1,0.7-7,0-10,0c-3.3,0-6.4,0-9.7,0c-13.3,0-26.6,0-39.9,0c-0.3,0-0.7,0.1-1,0.2c-6.9-0.7-13.8-1.1-20.8-1.1
	c-3.5,0-3.5,5.9,0,5.9c7.1,0,14.1,0.4,21,1.1c0.5,0,1,0,1.3-0.2c17.7,0,35.4,0,53.1,0c0.4,0.4,0.9,0.6,1.5,0.7
	c5,0.6,11.1-2,12.4,5.4c0,0.1,0,0.2,0.1,0.4c-0.5,6.5-0.5,13,0,19.5c0.2,3.1,4.8,4.4,5.3,0.8c0.5-3.8,1.1-8.2,1.1-12.7
	c1-0.1,2-0.7,2.3-2.1c0.8-3.3,0.9-6.5,0.3-9.5c0.1-2.8,0.3-5.5,0.7-8.4C520.7,278.9,519.4,278,518.1,277.9z"/>
<path class="st0" d="M285.2,262.7c0,0.4-0.1,0.7-0.1,1.1c-0.1,0.1-0.1,0.1-0.2,0.2l0,0c-1.1-0.6-2.3-0.6-3.3,0.4
	c-0.9,0.9-1.1,2.8-0.2,3.9c-0.2,0.9-0.1,2,0.4,2.7c0.9,1.2,2.3,1.4,3.5,0.7c3.3-1.6,5.2-5.3,5.3-9.2
	C290.7,259,285.2,258.8,285.2,262.7z"/>
<path class="st0" d="M318,186.5c-0.5-2.4-3.3-2.9-4.6-1.8c-0.7,0.2-1.3,0.6-1.6,1.3c-1.3,0-2.5,0.9-2.6,2.8
	c-0.1,1.4-0.1,2.9-0.2,4.4c0,0.5,0,0.8,0.1,1.2c0,0.2,0,0.5-0.1,0.7c-0.2,1.5,0.4,3.2,1.9,3.7c0.8,0.2,1.6,0,2.3-0.5
	c0.2,0,0.3,0,0.5-0.1v12.2c0,3.8,5.5,3.8,5.5,0v-21.6C319.3,187.7,318.7,186.9,318,186.5z"/>
<path class="st0" d="M508.9,179.1c-0.1-3.8-5.6-3.8-5.5,0v0.1c-0.4-0.2-1-0.4-1.6-0.5c-26.3-2-52.6-2.9-78.8-2.7
	c-3.3,0-4.8,2.9-4.7,5.7c-1.4,0.8-2.4,2.2-2.6,4.4c-1.7,28.4-2.2,56.8-1.4,85.1c0.2,6.8,10,6.8,9.8,0c-0.8-28.3-0.3-56.4,1.4-84.7
	c25.5-0.1,50.9,0.7,76.4,2.7c0.7,0,1.2,0,1.7-0.2c0,6.5-0.2,13-0.8,19.3c-0.3,3.8,5.1,3.8,5.5,0C509,198.7,509.2,188.9,508.9,179.1z
	"/>
<path class="st0" d="M287.9,281c-13.5-3.1-27.4,1.8-40.8,3.2c-14.5,1.5-29,1.8-43.6,0.7c-6.3-0.5-6.3,10.1,0,10.6c0.1,0,0.3,0,0.4,0
	c0.5-0.4,1.2-0.6,1.9-0.6c4.1,0,8.4-0.3,12.6-0.4c5.9-1.2,12-1,18-2.1c7.3-1.3,14.5-2.9,21.8-4.2c6.3-1.1,19.1-3.6,24.2,2.6
	c0.9,0.1,1.8,0.3,2.7,0.5C291.4,292.6,294.1,282.4,287.9,281z"/>
</svg>
