<?xml version="1.0" encoding="utf-8"?>
<!-- Generator: Adobe Illustrator 19.1.0, SVG Export Plug-In . SVG Version: 6.00 Build 0)  -->
<svg version="1.1" id="Layer_1" xmlns="http://www.w3.org/2000/svg" xmlns:xlink="http://www.w3.org/1999/xlink" x="0px" y="0px"
	 width="2560px" height="445.5px" viewBox="1145 -87.5 2560 445.5" style="enable-background:new 1145 -87.5 2560 445.5;"
	 xml:space="preserve">
<style type="text/css">
	.st0{fill:url(#sky_x2F_space_2_);}
	.st1{fill:url(#river_2_);}
	.st2{fill:#445763;}
	.st3{fill:url(#SVGID_1_);}
	.st4{fill:#575C7A;}
	.st5{display:none;fill:#575C7A;}
	.st6{fill:url(#SVGID_2_);}
	.st7{fill:url(#SVGID_3_);}
	.st8{fill:url(#SVGID_4_);}
</style>
<linearGradient id="sky_x2F_space_2_" gradientUnits="userSpaceOnUse" x1="2429.4067" y1="556.765" x2="2420.1987" y2="995.4882" gradientTransform="matrix(1 0 0 -1 0 904.9999)">
	<stop  offset="0" style="stop-color:#F3C187"/>
	<stop  offset="5.274168e-02" style="stop-color:#F4AA8D"/>
	<stop  offset="0.1315" style="stop-color:#D47A66"/>
	<stop  offset="0.3231" style="stop-color:#4E5763"/>
	<stop  offset="0.5913" style="stop-color:#0C3C4C"/>
	<stop  offset="1" style="stop-color:#0E1C22"/>
</linearGradient>
<rect id="sky_x2F_space_1_" x="1136.8" y="-89.5" class="st0" width="2575.3" height="405.5"/>
<linearGradient id="river_2_" gradientUnits="userSpaceOnUse" x1="2946.8176" y1="212.1245" x2="3116.1218" y2="-379.2132" gradientTransform="matrix(1 0 0 -1 0 271)">
	<stop  offset="7.882074e-02" style="stop-color:#C5817E"/>
	<stop  offset="0.3645" style="stop-color:#57606D"/>
	<stop  offset="0.6989" style="stop-color:#33434C"/>
	<stop  offset="1" style="stop-color:#2D3A41"/>
</linearGradient>
<polygon id="river_1_" class="st1" points="3712.1,359.7 2493.9,359.7 2330,359.7 2395.5,307 2493.9,276.8 3712.1,276.8 "/>
<path id="land-right3_1_" class="st2" d="M3712.1,253.3h-37l-54.7-1.1h-9.4l-20.5-1.1l-31.7-3.4l-22.4,4.5l-18.8-3.5l-19.6,4.1
	l-29.9-12.1l-35.3,7l-47.4,8.3l-50.1-2.3l-26.3,3l-11.9,7l-12.1-6.2l-52,3.9l-47.6-3.9l-44.8,9l-73.6-4.4l-46.1,10.6l-20,4.1
	l15.5,3.2h2.5l15.3,5.4l51.4-0.1l17.8,11.7l149.3-2.7l342.6-7.6c0,0,116.7,6.6,116.7-22.3V253.3z"/>
<linearGradient id="SVGID_1_" gradientUnits="userSpaceOnUse" x1="3426.5735" y1="66.3647" x2="3319.8052" y2="382.6214" gradientTransform="matrix(1 0 0 1 0 1.525879e-05)">
	<stop  offset="0" style="stop-color:#F4B49C"/>
	<stop  offset="0.3648" style="stop-color:#5A576C"/>
	<stop  offset="0.9951" style="stop-color:#3D4E59"/>
</linearGradient>
<polygon class="st3" points="3712.1,272.6 3712.1,227.6 3702.1,230.9 3677.1,226.9 3647.6,225.9 3608,234.2 3566.2,231.9 
	3544.2,234.9 3500.4,228.9 3454,241.3 3406.2,245.5 3363,243.4 3333.3,255.5 3291.3,257.6 3272.4,263.9 3238,268.3 3194.9,271.5 
	3169.3,277.8 3150,271.4 3131.1,277.8 3115.1,275.4 3096.2,277.8 3091,285.3 3053.9,289.3 3039.4,294.9 3023,300.8 3018.6,302.6 
	2959.6,310.5 2986.3,312.4 3148.2,310.8 3172,316.1 3296.9,316.1 3311.8,336.8 3245.9,359.7 3569.3,359.7 3712.1,359.7 3712.1,312 
	"/>
<g id="stars_1_">
	
		<rect x="1695.3" y="-66" transform="matrix(-0.7071 -0.7071 0.7071 -0.7071 2942.4443 1090.2906)" class="st4" width="3.4" height="3.4"/>
	
		<rect x="1885.5" y="68.2" transform="matrix(-0.7071 -0.7071 0.7071 -0.7071 3172.8867 1455.4183)" class="st4" width="4.8" height="4.8"/>
	
		<rect x="2108.4" y="-19.2" transform="matrix(-0.7071 -0.7071 0.7071 -0.7071 3615.2451 1463.9105)" class="st4" width="4.8" height="4.8"/>
	
		<rect x="1750.4" y="36.8" transform="matrix(-0.7071 -0.7071 0.7071 -0.7071 2964.4609 1306.3795)" class="st4" width="4.8" height="4.8"/>
	
		<rect x="2253.2" y="-76.6" transform="matrix(-0.7071 -0.7071 0.7071 -0.7071 3902.5857 1467.3018)" class="st4" width="4" height="4"/>
	
		<rect x="2518.6" y="10.6" transform="matrix(-0.7071 -0.7071 0.7071 -0.7071 4293.394 1802.3846)" class="st4" width="2.8" height="2.8"/>
	
		<rect x="2402.9" y="-42.4" transform="matrix(-0.7071 -0.7071 0.7071 -0.7071 4134.3467 1632.4712)" class="st5" width="4.8" height="4.8"/>
	
		<rect x="2521" y="65" transform="matrix(-0.7071 -0.7071 0.7071 -0.7071 4260.1069 1899.3562)" class="st4" width="4.8" height="4.8"/>
	
		<rect x="1694.5" y="64.3" transform="matrix(-0.7071 -0.7071 0.7071 -0.7071 2849.7134 1313.8149)" class="st4" width="4.8" height="4.8"/>
	
		<rect x="1706.1" y="117.3" transform="matrix(-0.7071 -0.7071 0.7071 -0.7071 2832.0352 1412.5375)" class="st4" width="4.8" height="4.8"/>
	
		<rect x="2510.2" y="157.2" transform="matrix(-0.7071 -0.7071 0.7071 -0.7071 4176.479 2049.2646)" class="st4" width="4.8" height="4.8"/>
	
		<rect x="2406.3" y="90.8" transform="matrix(-0.7071 -0.7071 0.7071 -0.7071 4046.0767 1862.2888)" class="st4" width="4.8" height="4.8"/>
	
		<rect x="2582.7" y="-15.8" transform="matrix(-0.7071 -0.7071 0.7071 -0.7071 4422.4941 1805.101)" class="st4" width="4.8" height="4.8"/>
	
		<rect x="2088.3" y="97.7" transform="matrix(-0.7071 -0.7071 0.7071 -0.7071 3498.1912 1649.2415)" class="st5" width="4.8" height="4.8"/>
	
		<rect x="2181.2" y="-52.8" transform="matrix(-0.7071 -0.7071 0.7071 -0.7071 3763.2305 1458.0452)" class="st4" width="4.8" height="4.8"/>
	
		<rect x="2444.7" y="43.7" transform="matrix(-0.7071 -0.7071 0.7071 -0.7071 4144.7896 1809.1565)" class="st4" width="4.8" height="4.8"/>
	
		<rect x="2290.1" y="-14" transform="matrix(-0.7071 -0.7071 0.7071 -0.7071 3921.6536 1601.2987)" class="st4" width="4.8" height="4.8"/>
	
		<rect x="2051.9" y="143.4" transform="matrix(-0.7071 -0.7071 0.7071 -0.7071 3403.8779 1701.5386)" class="st4" width="4.8" height="4.8"/>
	
		<rect x="2385.5" y="57" transform="matrix(-0.7071 -0.7071 0.7071 -0.7071 4034.4297 1790.0181)" class="st4" width="4.8" height="4.8"/>
	
		<rect x="2136.2" y="-80.3" transform="matrix(-0.7071 -0.7071 0.7071 -0.7071 3706.0173 1379.2533)" class="st4" width="4.8" height="4.8"/>
	
		<rect x="1998.5" y="-4.2" transform="matrix(-0.7071 -0.7071 0.7071 -0.7071 3417.103 1411.7874)" class="st4" width="4.8" height="4.8"/>
	
		<rect x="1778.2" y="-14.3" transform="matrix(-0.7071 -0.7071 0.7071 -0.7071 3048.1328 1238.7542)" class="st4" width="4.8" height="4.8"/>
	
		<rect x="2258" y="-50.7" transform="matrix(-0.7071 -0.7071 0.7071 -0.7071 3893.0117 1515.9169)" class="st5" width="4.8" height="4.8"/>
	
		<rect x="2700.1" y="30" transform="matrix(-0.7071 -0.7071 0.7071 -0.7071 4590.5107 1966.3112)" class="st4" width="4.8" height="4.8"/>
	
		<rect x="2320.3" y="113.9" transform="matrix(-0.7071 -0.7071 0.7071 -0.7071 3882.9297 1840.983)" class="st4" width="4.8" height="4.8"/>
	
		<rect x="2374.1" y="-58.2" transform="matrix(-0.7071 -0.7071 0.7071 -0.7071 4096.3789 1585.1154)" class="st4" width="4.8" height="4.8"/>
	
		<rect x="2253.9" y="88.2" transform="matrix(-0.7071 -0.7071 0.7071 -0.7071 3787.6445 1750.1561)" class="st5" width="4.8" height="4.8"/>
	
		<rect x="2205.4" y="-3.3" transform="matrix(-0.7071 -0.7071 0.7071 -0.7071 3769.5334 1559.6567)" class="st5" width="4.8" height="4.8"/>
	
		<rect x="2475.4" y="-41.5" transform="matrix(-0.7071 -0.7071 0.7071 -0.7071 4256.604 1682.8981)" class="st4" width="2.8" height="2.8"/>
	
		<rect x="1841.9" y="113.9" transform="matrix(-0.7071 -0.7071 0.7071 -0.7071 3066.1709 1502.6299)" class="st4" width="4.8" height="4.8"/>
	
		<rect x="1958.2" y="61" transform="matrix(-0.7071 -0.7071 0.7071 -0.7071 3302.1213 1494.5634)" class="st4" width="4.8" height="4.8"/>
	
		<rect x="1891.7" y="35.4" transform="matrix(-0.7071 -0.7071 0.7071 -0.7071 3206.7356 1403.8374)" class="st4" width="4.8" height="4.8"/>
	
		<rect x="2260.5" y="101.4" transform="matrix(-0.7071 -0.7071 0.7071 -0.7071 3789.5239 1777.3633)" class="st4" width="4.8" height="4.8"/>
	
		<rect x="1752.3" y="146.7" transform="matrix(-0.7071 -0.7071 0.7071 -0.7071 2889.99 1495.3436)" class="st4" width="4.8" height="4.8"/>
	
		<rect x="2316.9" y="-27.1" transform="matrix(-0.7071 -0.7071 0.7071 -0.7071 3976.8438 1597.8461)" class="st4" width="4.8" height="4.8"/>
	
		<rect x="1581.8" y="148.6" transform="matrix(-0.7071 -0.7071 0.7071 -0.7071 2597.6748 1378.0729)" class="st4" width="4.8" height="4.8"/>
	
		<rect x="2274.3" y="-29.6" transform="matrix(-0.7071 -0.7071 0.7071 -0.7071 3905.0745 1561.3596)" class="st4" width="3.1" height="3.1"/>
	
		<rect x="2088.5" y="76" transform="matrix(-0.7071 -0.7071 0.7071 -0.7071 3513.2144 1610.2688)" class="st4" width="3.1" height="3.1"/>
	
		<rect x="2066.7" y="-59.8" transform="matrix(-0.7071 -0.7071 0.7071 -0.7071 3571.8176 1363.1029)" class="st4" width="3.1" height="3.1"/>
	
		<rect x="2140.4" y="131.9" transform="matrix(-0.7071 -0.7071 0.7071 -0.7071 3562.2983 1742.3812)" class="st4" width="3.1" height="3.1"/>
	
		<rect x="1565.5" y="8.1" transform="matrix(-0.7071 -0.7071 0.7071 -0.7071 2668.3428 1124.6692)" class="st4" width="3.1" height="3.1"/>
	
		<rect x="2126.7" y="44.6" transform="matrix(-0.1174 -0.9931 0.9931 -0.1174 2332.2256 2165.146)" class="st4" width="3.1" height="3.1"/>
	
		<rect x="1848.8" y="-36.8" transform="matrix(-0.7071 -0.7071 0.7071 -0.7071 3183.7561 1248.1919)" class="st4" width="3.1" height="3.1"/>
	
		<rect x="1757.9" y="-53.7" transform="matrix(-0.7071 -0.7071 0.7071 -0.7071 3040.4944 1155.1014)" class="st4" width="3.1" height="3.1"/>
	
		<rect x="2105.6" y="30.1" transform="matrix(-0.7071 -0.7071 0.7071 -0.7071 3574.9131 1544.3667)" class="st5" width="3.4" height="3.4"/>
	
		<rect x="1810" y="-68.4" transform="matrix(-0.7071 -0.7071 0.7071 -0.7071 3139.9087 1167.2936)" class="st4" width="3.4" height="3.4"/>
	
		<rect x="1989.4" y="101" transform="matrix(-0.7071 -0.7071 0.7071 -0.7071 3327.0811 1585.0406)" class="st4" width="4.8" height="4.8"/>
	
		<rect x="2207.1" y="57.1" transform="matrix(-0.7071 -0.7071 0.7071 -0.7071 3729.1189 1662.3645)" class="st4" width="3.4" height="3.4"/>
	
		<rect x="2326.2" y="-6.1" transform="matrix(-0.7071 -0.7071 0.7071 -0.7071 3977.8076 1640.2931)" class="st5" width="4.8" height="4.8"/>
	
		<rect x="2139.4" y="37.1" transform="matrix(-0.7071 -0.7071 0.7071 -0.7071 3627.6206 1580.1348)" class="st5" width="3.4" height="3.4"/>
	
		<rect x="1949.3" y="-64.3" transform="matrix(-0.7071 -0.7071 0.7071 -0.7071 3374.8992 1272.8245)" class="st4" width="3.4" height="3.4"/>
	
		<rect x="2561.7" y="75.1" transform="matrix(-0.7071 -0.7071 0.7071 -0.7071 4322.2954 1945.4746)" class="st4" width="4.8" height="4.8"/>
	
		<rect x="2175" y="1" transform="matrix(-0.7071 -0.7071 0.7071 -0.7071 3714.0063 1543.8945)" class="st5" width="3.4" height="3.4"/>
	
		<rect x="2343.9" y="48.1" transform="matrix(-0.7071 -0.7071 0.7071 -0.7071 3969.6934 1745.3513)" class="st5" width="4.8" height="4.8"/>
	
		<rect x="2415.9" y="-10.8" transform="matrix(-0.7071 -0.7071 0.7071 -0.7071 4133.8418 1694.6898)" class="st4" width="4" height="4"/>
	
		<rect x="2389" y="150.1" transform="matrix(-0.7071 -0.7071 0.7071 -0.7071 3974.5864 1951.3689)" class="st4" width="4.8" height="4.8"/>
	
		<rect x="1602.5" y="100" transform="matrix(-0.7071 -0.7071 0.7071 -0.7071 2667.3354 1309.6594)" class="st4" width="4.8" height="4.8"/>
	
		<rect x="2155.6" y="-22" transform="matrix(-0.7071 -0.7071 0.7071 -0.7071 3697.0837 1490.7686)" class="st4" width="3.4" height="3.4"/>
	
		<rect x="2258.2" y="121.3" transform="matrix(-0.7071 -0.7071 0.7071 -0.7071 3770.9607 1807.9131)" class="st4" width="3.4" height="3.4"/>
	
		<rect x="2229.2" y="2.4" transform="matrix(-0.7071 -0.7071 0.7071 -0.7071 3805.4873 1584.5668)" class="st4" width="3.4" height="3.4"/>
	
		<rect x="2114.5" y="-78.4" transform="matrix(-0.7071 -0.7071 0.7071 -0.7071 3667.5308 1367.1893)" class="st4" width="4.8" height="4.8"/>
	
		<rect x="2683.4" y="104.8" transform="matrix(-0.7071 -0.7071 0.7071 -0.7071 4509.1177 2082.209)" class="st4" width="4.8" height="4.8"/>
	
		<rect x="2677.9" y="-64.2" transform="matrix(-0.7071 -0.7071 0.7071 -0.7071 4619.1948 1789.7433)" class="st4" width="4.8" height="4.8"/>
	
		<rect x="2083.6" y="3.4" transform="matrix(-0.7071 -0.7071 0.7071 -0.7071 3556.2334 1483.3265)" class="st4" width="3.4" height="3.4"/>
	
		<rect x="2501.9" y="10.1" transform="matrix(-0.7071 -0.7071 0.7071 -0.7071 4265.2466 1789.8073)" class="st4" width="2.8" height="2.8"/>
	
		<rect x="1918.5" y="0.2" transform="matrix(-0.7071 -0.7071 0.7071 -0.7071 3277.291 1362.7834)" class="st4" width="4.8" height="4.8"/>
	
		<rect x="2028.2" y="42.4" transform="matrix(-0.7071 -0.7071 0.7071 -0.7071 3433.9399 1510.2582)" class="st4" width="3.1" height="3.1"/>
	
		<rect x="1805.5" y="-53.6" transform="matrix(-0.7071 -0.7071 0.7071 -0.7071 3121.5935 1188.9395)" class="st4" width="3.1" height="3.1"/>
	
		<rect x="1747.1" y="-4.7" transform="matrix(-0.7071 -0.7071 0.7071 -0.7071 2987.344 1231.0625)" class="st4" width="3.1" height="3.1"/>
	
		<rect x="2860.6" y="37.8" transform="matrix(0.9282 0.3721 -0.3721 0.9282 220.1599 -1062.1903)" class="st4" width="3.1" height="3.1"/>
	
		<rect x="2934" y="153.8" transform="matrix(0.9282 0.3721 -0.3721 0.9282 268.5926 -1081.1704)" class="st4" width="3.1" height="3.1"/>
	
		<rect x="2790.7" y="6.8" transform="matrix(0.9282 0.3721 -0.3721 0.9282 203.6038 -1038.4124)" class="st4" width="3.1" height="3.1"/>
	
		<rect x="2837.9" y="81.5" transform="matrix(0.4985 0.8669 -0.8669 0.4985 1496.0094 -2419.8618)" class="st4" width="3.1" height="3.1"/>
	
		<rect x="3125.3" y="47.3" transform="matrix(0.9282 0.3721 -0.3721 0.9282 242.6896 -1159.9785)" class="st4" width="3.1" height="3.1"/>
	
		<rect x="3215.5" y="26.9" transform="matrix(0.9282 0.3721 -0.3721 0.9282 241.5822 -1195.0023)" class="st4" width="3.1" height="3.1"/>
	
		<rect x="3173.2" y="60.7" transform="matrix(0.9282 0.3721 -0.3721 0.9282 251.2113 -1176.8999)" class="st4" width="3.4" height="3.4"/>
	
		<rect x="2758.7" y="101.5" transform="matrix(0.9282 0.3721 -0.3721 0.9282 236.6119 -1019.7218)" class="st4" width="3.4" height="3.4"/>
	
		<rect x="3043.2" y="111.7" transform="matrix(0.9282 0.3721 -0.3721 0.9282 260.8386 -1124.875)" class="st4" width="3.4" height="3.4"/>
	
		<rect x="3105.8" y="110.5" transform="matrix(0.9282 0.3721 -0.3721 0.9282 264.9025 -1148.2552)" class="st4" width="3.4" height="3.4"/>
	
		<rect x="2837" y="153.9" transform="matrix(0.9282 0.3721 -0.3721 0.9282 261.7371 -1045.1091)" class="st4" width="3.4" height="3.4"/>
	
		<rect x="2759.7" y="160.4" transform="matrix(0.9282 0.3721 -0.3721 0.9282 258.6013 -1015.8677)" class="st4" width="3.4" height="3.4"/>
	
		<rect x="2893.3" y="102.4" transform="matrix(0.9282 0.3721 -0.3721 0.9282 246.6038 -1069.7458)" class="st4" width="3.4" height="3.4"/>
	
		<rect x="2929.4" y="44.9" transform="matrix(0.9282 0.3721 -0.3721 0.9282 227.7498 -1087.2513)" class="st4" width="3.1" height="3.1"/>
	
		<rect x="3171.8" y="45.6" transform="matrix(0.9282 0.3721 -0.3721 0.9282 245.411 -1177.4164)" class="st4" width="3.1" height="3.1"/>
	
		<rect x="3206.2" y="-22.3" transform="matrix(0.9282 0.3721 -0.3721 0.9282 222.6248 -1195.0872)" class="st4" width="3.1" height="3.1"/>
	
		<rect x="3102.2" y="-72.5" transform="matrix(0.9917 0.1285 -0.1285 0.9917 16.7296 -399.5308)" class="st4" width="4.8" height="4.8"/>
	
		<rect x="2738.9" y="-34.8" transform="matrix(0.9917 0.1285 -0.1285 0.9917 18.5645 -352.5258)" class="st4" width="4.8" height="4.8"/>
	<rect x="2629" y="1" transform="matrix(0.9917 0.1285 -0.1285 0.9917 22.2584 -338.1096)" class="st4" width="4.8" height="4.8"/>
	
		<rect x="2924.4" y="-30.4" transform="matrix(0.9917 0.1285 -0.1285 0.9917 20.6739 -376.3264)" class="st4" width="4.8" height="4.8"/>
	
		<rect x="2791.2" y="-40.2" transform="matrix(0.9917 0.1285 -0.1285 0.9917 18.3001 -359.2917)" class="st4" width="4.8" height="4.8"/>
	
		<rect x="3117.1" y="-42.6" transform="matrix(0.9917 0.1285 -0.1285 0.9917 20.6927 -401.1966)" class="st4" width="4.8" height="4.8"/>
	
		<rect x="2999.6" y="-35" transform="matrix(0.9917 0.1285 -0.1285 0.9917 20.7002 -386.0333)" class="st4" width="4.8" height="4.8"/>
	
		<rect x="2807.2" y="-55" transform="matrix(0.9917 0.1285 -0.1285 0.9917 16.5329 -361.4688)" class="st4" width="4.8" height="4.8"/>
	
		<rect x="3117.4" y="1.5" transform="matrix(0.9917 0.1285 -0.1285 0.9917 26.3696 -400.8683)" class="st4" width="4.8" height="4.8"/>
	
		<rect x="3037.1" y="28.2" transform="matrix(-0.7071 -0.7071 0.7071 -0.7071 5167.125 2201.5232)" class="st4" width="4.8" height="4.8"/>
	
		<rect x="2981.2" y="55.8" transform="matrix(-0.7071 -0.7071 0.7071 -0.7071 5052.1348 2209.0002)" class="st4" width="4.8" height="4.8"/>
	
		<rect x="3135.4" y="139.9" transform="matrix(-0.7071 -0.7071 0.7071 -0.7071 5255.9033 2461.7876)" class="st4" width="4.8" height="4.8"/>
	
		<rect x="3153.6" y="-19.2" transform="matrix(-0.7071 -0.7071 0.7071 -0.7071 5399.5439 2202.9563)" class="st4" width="4.8" height="4.8"/>
	
		<rect x="2950.7" y="-50.7" transform="matrix(-0.7071 -0.7071 0.7071 -0.7071 5074.6255 2003.765)" class="st4" width="3.1" height="3.1"/>
	
		<rect x="1393.4" y="10.7" transform="matrix(-0.7071 -0.7071 0.7071 -0.7071 2372.592 1006.9401)" class="st4" width="2.8" height="2.8"/>
	
		<rect x="1396" y="65.2" transform="matrix(-0.7071 -0.7071 0.7071 -0.7071 2339.4175 1104.3263)" class="st4" width="4.8" height="4.8"/>
	
		<rect x="1385.1" y="157.3" transform="matrix(-0.7071 -0.7071 0.7071 -0.7071 2255.6765 1253.8201)" class="st4" width="4.8" height="4.8"/>
	
		<rect x="1281.2" y="91" transform="matrix(-0.7071 -0.7071 0.7071 -0.7071 2125.3162 1067.0873)" class="st4" width="4.8" height="4.8"/>
	
		<rect x="1319.6" y="43.9" transform="matrix(-0.7071 -0.7071 0.7071 -0.7071 2224.0586 1013.8832)" class="st4" width="4.8" height="4.8"/>
	
		<rect x="1164.9" y="-13.9" transform="matrix(-0.7071 -0.7071 0.7071 -0.7071 2000.8516 805.8544)" class="st4" width="4.8" height="4.8"/>
	
		<rect x="1260.5" y="57.2" transform="matrix(-0.7071 -0.7071 0.7071 -0.7071 2113.6992 994.7451)" class="st4" width="4.8" height="4.8"/>
	
		<rect x="1195.2" y="114" transform="matrix(-0.7071 -0.7071 0.7071 -0.7071 1962.1276 1045.5388)" class="st4" width="4.8" height="4.8"/>
	
		<rect x="1248.9" y="-58" transform="matrix(-0.7071 -0.7071 0.7071 -0.7071 2175.4763 789.9139)" class="st4" width="4.8" height="4.8"/>
	
		<rect x="1350.2" y="-41.3" transform="matrix(-0.7071 -0.7071 0.7071 -0.7071 2335.6299 887.667)" class="st4" width="2.8" height="2.8"/>
	
		<rect x="1191.8" y="-26.8" transform="matrix(-0.7071 -0.7071 0.7071 -0.7071 2055.9116 802.7154)" class="st4" width="4.8" height="4.8"/>
	
		<rect x="1436.6" y="75.3" transform="matrix(-0.7071 -0.7071 0.7071 -0.7071 2401.5645 1150.2021)" class="st4" width="4.8" height="4.8"/>
	
		<rect x="1290.7" y="-10.5" transform="matrix(-0.7071 -0.7071 0.7071 -0.7071 2212.8391 899.53)" class="st4" width="4" height="4"/>
	
		<rect x="1263.8" y="150.3" transform="matrix(-0.7071 -0.7071 0.7071 -0.7071 2053.6128 1156.1378)" class="st4" width="4.8" height="4.8"/>
	
		<rect x="1376.9" y="10.4" transform="matrix(-0.7071 -0.7071 0.7071 -0.7071 2344.5576 994.7772)" class="st4" width="2.8" height="2.8"/>
	
		<rect x="1428.6" y="-38.8" transform="matrix(-0.7071 -0.7071 0.7071 -0.7071 2468.688 949.7822)" class="st4" width="4.8" height="4.8"/>
	
		<rect x="1583" y="-62.2" transform="matrix(0.4985 0.8669 -0.8669 0.4985 742.1487 -1404.0703)" class="st4" width="3.1" height="3.1"/>
	
		<rect x="1503.8" y="-42.2" transform="matrix(0.9282 0.3721 -0.3721 0.9282 93.0339 -563.1083)" class="st4" width="3.4" height="3.4"/>
	
		<rect x="1582.1" y="10.2" transform="matrix(0.9282 0.3721 -0.3721 0.9282 118.1592 -588.4957)" class="st4" width="3.4" height="3.4"/>
	
		<rect x="1504.9" y="16.8" transform="matrix(0.9282 0.3721 -0.3721 0.9282 115.0544 -559.2764)" class="st4" width="3.4" height="3.4"/>
	
		<rect x="1638.5" y="-41.3" transform="matrix(0.9282 0.3721 -0.3721 0.9282 103.0569 -613.1544)" class="st4" width="3.4" height="3.4"/>
	
		<rect x="1529" y="161" transform="matrix(-0.7071 -0.7071 0.7071 -0.7071 2498.7722 1361.8376)" class="st4" width="4.8" height="4.8"/>
	
		<rect x="1565.5" y="93.6" transform="matrix(-0.7071 -0.7071 0.7071 -0.7071 2607.8657 1270.6091)" class="st4" width="3.1" height="3.1"/>
	
		<rect x="1466.4" y="118.7" transform="matrix(-0.7071 -0.7071 0.7071 -0.7071 2421.8037 1245.4104)" class="st4" width="4.8" height="4.8"/>
	
		<rect x="1505.2" y="60.1" transform="matrix(-0.7071 -0.7071 0.7071 -0.7071 2528.5916 1170.599)" class="st4" width="3.1" height="3.1"/>
	
		<rect x="3271.1" y="51.1" transform="matrix(-0.7071 -0.7071 0.7071 -0.7071 5550.4165 2406.1704)" class="st4" width="4.8" height="4.8"/>
	
		<rect x="3494.1" y="-36.2" transform="matrix(-0.7071 -0.7071 0.7071 -0.7071 5992.8457 2414.6919)" class="st4" width="4.8" height="4.8"/>
	
		<rect x="3566.8" y="-69.8" transform="matrix(-0.7071 -0.7071 0.7071 -0.7071 6140.7603 2408.7974)" class="st4" width="4.8" height="4.8"/>
	
		<rect x="3675.7" y="-31" transform="matrix(-0.7071 -0.7071 0.7071 -0.7071 6299.1831 2552.0508)" class="st4" width="4.8" height="4.8"/>
	
		<rect x="3437.7" y="126.3" transform="matrix(-0.7071 -0.7071 0.7071 -0.7071 5781.6499 2652.2488)" class="st4" width="4.8" height="4.8"/>
	
		<rect x="3384.3" y="-21.2" transform="matrix(-0.7071 -0.7071 0.7071 -0.7071 5794.7041 2362.7109)" class="st4" width="4.8" height="4.8"/>
	
		<rect x="3344" y="43.9" transform="matrix(-0.7071 -0.7071 0.7071 -0.7071 5679.8936 2445.2732)" class="st4" width="4.8" height="4.8"/>
	
		<rect x="3277.4" y="18.5" transform="matrix(-0.7071 -0.7071 0.7071 -0.7071 5584.3071 2354.8313)" class="st4" width="4.8" height="4.8"/>
	
		<rect x="3646.2" y="84.5" transform="matrix(-0.7071 -0.7071 0.7071 -0.7071 6167.0952 2728.3582)" class="st4" width="4.8" height="4.8"/>
	
		<rect x="3660" y="-46.7" transform="matrix(-0.7071 -0.7071 0.7071 -0.7071 6282.6035 2512.1113)" class="st4" width="3.1" height="3.1"/>
	
		<rect x="3474.2" y="58.9" transform="matrix(-0.7071 -0.7071 0.7071 -0.7071 5890.7441 2561.0203)" class="st4" width="3.1" height="3.1"/>
	
		<rect x="3452.4" y="-76.7" transform="matrix(-0.7071 -0.7071 0.7071 -0.7071 5949.3887 2314.0977)" class="st4" width="3.1" height="3.1"/>
	
		<rect x="3526.2" y="114.9" transform="matrix(-0.7071 -0.7071 0.7071 -0.7071 5939.8989 2693.3047)" class="st4" width="3.1" height="3.1"/>
	
		<rect x="3512.4" y="27.7" transform="matrix(-0.1174 -0.9931 0.9931 -0.1174 3897.3962 3522.3018)" class="st4" width="3.1" height="3.1"/>
	
		<rect x="3375" y="84.1" transform="matrix(-0.7071 -0.7071 0.7071 -0.7071 5704.439 2535.8628)" class="st4" width="4.8" height="4.8"/>
	
		<rect x="3592.8" y="40.1" transform="matrix(-0.7071 -0.7071 0.7071 -0.7071 6106.6479 2613.1157)" class="st4" width="3.4" height="3.4"/>
	
		<rect x="3335" y="-81.3" transform="matrix(-0.7071 -0.7071 0.7071 -0.7071 5752.4282 2223.5764)" class="st4" width="3.4" height="3.4"/>
	
		<rect x="3541.3" y="-38.9" transform="matrix(-0.7071 -0.7071 0.7071 -0.7071 6074.6553 2441.7629)" class="st4" width="3.4" height="3.4"/>
	
		<rect x="3644" y="104.3" transform="matrix(-0.7071 -0.7071 0.7071 -0.7071 6148.603 2758.937)" class="st4" width="3.4" height="3.4"/>
	
		<rect x="3615" y="-14.5" transform="matrix(-0.7071 -0.7071 0.7071 -0.7071 6183.0586 2535.5613)" class="st4" width="3.4" height="3.4"/>
	
		<rect x="3469.4" y="-13.7" transform="matrix(-0.7071 -0.7071 0.7071 -0.7071 5934.0054 2434.0366)" class="st4" width="3.4" height="3.4"/>
	
		<rect x="3304.1" y="-16.7" transform="matrix(-0.7071 -0.7071 0.7071 -0.7071 5654.6479 2313.6062)" class="st4" width="4.8" height="4.8"/>
	
		<rect x="3413.9" y="25.4" transform="matrix(-0.7071 -0.7071 0.7071 -0.7071 5811.4697 2461.0098)" class="st4" width="3.1" height="3.1"/>
</g>
<linearGradient id="SVGID_2_" gradientUnits="userSpaceOnUse" x1="1181.8555" y1="290.713" x2="2753.314" y2="231.9931" gradientTransform="matrix(1 0 0 1 0 1.525879e-05)">
	<stop  offset="0" style="stop-color:#404F58"/>
	<stop  offset="0.3424" style="stop-color:#41535D"/>
	<stop  offset="0.8823" style="stop-color:#445E6D"/>
	<stop  offset="1" style="stop-color:#456171"/>
</linearGradient>
<polygon class="st6" points="2816.4,288.9 2815.8,288.6 2806.6,287.5 2794.8,283.2 2792,282.5 2805.8,281.9 2811.5,279.8 
	2823.6,280.4 2855.8,277.2 2834.4,275.4 2824.1,275.4 2799.9,273.9 2792.6,274.6 2784.7,273.9 2761,275 2730.5,270.9 2699.3,271.5 
	2687.9,273.5 2665.7,271.9 2657,269.4 2635.2,271 2616.4,271.2 2598.7,268.8 2569.1,268.8 2541.6,268.8 2526.4,264.1 2488.1,264.1 
	2438.3,264.1 2421,257.7 2360.4,264.6 2313.6,258.2 2184.2,260.6 2111.3,247.1 2059.4,249.3 1984.6,244.8 1979.7,243.3 
	1941.3,243.3 1891.5,243.3 1874.4,236.8 1813.7,243.8 1767.1,237.3 1637.5,239.8 1564.6,226.2 1475.3,212.7 1381.4,218.6 
	1294.5,209.2 1223.9,216.3 1136.8,204 1136.8,269.6 1635.1,281.8 1721.5,274.8 1776.6,284.5 1910.1,284.5 1948.6,287.8 
	1960.9,290.5 2175.7,301.9 2259.9,311.4 2323.2,305.4 2478.9,316 2576,324.5 2642,324.5 2682.1,310.6 2658.2,301.9 2680.8,296.2 
	2684.2,293.4 2686.1,293.5 2730.7,294.2 2736.7,293.5 2781.8,293.1 2810.5,293.1 2813.4,293.1 2816.4,292.7 2829.9,292.1 
	2825.3,290.6 "/>
<linearGradient id="SVGID_3_" gradientUnits="userSpaceOnUse" x1="2279.5845" y1="1098.9323" x2="2023.6042" y2="466.0919" gradientTransform="matrix(1 0 0 1 0 1.525879e-05)">
	<stop  offset="0.1139" style="stop-color:#334D5A"/>
	<stop  offset="1" style="stop-color:#384A56"/>
</linearGradient>
<polygon class="st7" points="2802.5,322.2 2765.9,318.3 2715.8,316.3 2682.1,310.6 2655.9,309.1 2595.9,312.4 2507,300.5 
	2422,306.3 2347.2,299.2 2282,301 2229.2,297.5 2211.9,291.1 2156.1,288.2 2111,288.2 2102.9,291.4 2072.3,286.1 2045.9,284.5 
	1986,287.9 1927.3,271.5 1837.2,272.8 1758.5,260.8 1693.4,262.7 1649.5,268.9 1601.9,266.6 1474.3,263.7 1371.6,256.6 1228.2,260 
	1150.6,266.6 1136.8,265.8 1136.8,359.7 1190.8,359.7 1562.4,359.7 1683.7,359.7 1847.2,359.7 1904.5,359.7 1942,359.7 
	1973.4,359.7 2000.5,359.7 2018.2,359.7 2072.2,359.7 2172.4,358 2293.5,359.2 2457.1,358.8 2514.4,359.2 2561.1,343.6 
	2607.5,344.9 2657.5,336.7 2679.6,330 2721.2,326.6 2780.6,327.2 2809.9,324 "/>
<linearGradient id="SVGID_4_" gradientUnits="userSpaceOnUse" x1="2201.0115" y1="179.9767" x2="2399.272" y2="176.9532" gradientTransform="matrix(0.999 4.384206e-02 4.384206e-02 -0.999 -11.1433 76.2942)">
	<stop  offset="0" style="stop-color:#F2FAFE"/>
	<stop  offset="0.2092" style="stop-color:#F3C187"/>
	<stop  offset="0.4322" style="stop-color:#EB8D80"/>
	<stop  offset="0.4645" style="stop-color:#C77E75"/>
	<stop  offset="0.5125" style="stop-color:#996B66"/>
	<stop  offset="0.5623" style="stop-color:#705A59"/>
	<stop  offset="0.613" style="stop-color:#504C4E"/>
	<stop  offset="0.665" style="stop-color:#364146"/>
	<stop  offset="0.7187" style="stop-color:#243A41"/>
	<stop  offset="0.7754" style="stop-color:#19353D"/>
	<stop  offset="0.8399" style="stop-color:#16343C"/>
</linearGradient>
<path class="st8" d="M2208.4-9.4c-3.7-0.2-7.4-0.3-11.2-0.5l-1.9,0.9l1.7,1.1c8.4,0.3,16.9,0.6,25.6,0.9
	c71.4,3.1,134.7,9,173.7,15.2C2359.8,1.2,2289.4-5.8,2208.4-9.4z"/>
</svg>
