<?xml version="1.0" encoding="utf-8"?>
<!-- Generator: Adobe Illustrator 19.1.0, SVG Export Plug-In . SVG Version: 6.00 Build 0)  -->
<svg version="1.1" id="Layer_1" xmlns="http://www.w3.org/2000/svg" xmlns:xlink="http://www.w3.org/1999/xlink" x="0px" y="0px"
	 width="2560px" height="445.5px" viewBox="1145 -87.5 2560 445.5" style="enable-background:new 1145 -87.5 2560 445.5;"
	 xml:space="preserve">
<style type="text/css">
	.st0{fill:url(#sky_x2F_space_2_);}
	.st1{fill:#575C7A;}
	.st2{display:none;fill:#575C7A;}
	.st3{fill:url(#SVGID_1_);}
</style>
<linearGradient id="sky_x2F_space_2_" gradientUnits="userSpaceOnUse" x1="2431.8752" y1="451.3605" x2="2420.6145" y2="974.4784" gradientTransform="matrix(1 0 0 -1 0 905.9999)">
	<stop  offset="0" style="stop-color:#F3C187"/>
	<stop  offset="5.274168e-02" style="stop-color:#F4AA8D"/>
	<stop  offset="0.1315" style="stop-color:#D47A66"/>
	<stop  offset="0.3231" style="stop-color:#4E5763"/>
	<stop  offset="0.5913" style="stop-color:#0C3C4C"/>
	<stop  offset="1" style="stop-color:#0E1C22"/>
</linearGradient>
<rect id="sky_x2F_space_1_" x="1141.9" y="-92.4" class="st0" width="2566.1" height="455.4"/>
<g id="stars_1_">
	
		<rect x="1698.6" y="-64.6" transform="matrix(-0.7071 -0.7071 0.7071 -0.7071 2947.0203 1094.8408)" class="st1" width="3.4" height="3.4"/>
	
		<rect x="1888" y="68.9" transform="matrix(-0.7071 -0.7071 0.7071 -0.7071 3176.6396 1458.4581)" class="st1" width="4.8" height="4.8"/>
	
		<rect x="2110.2" y="-18" transform="matrix(-0.7071 -0.7071 0.7071 -0.7071 3617.4202 1467.1167)" class="st1" width="4.8" height="4.8"/>
	
		<rect x="1753.4" y="37.8" transform="matrix(-0.7071 -0.7071 0.7071 -0.7071 2968.8887 1310.0616)" class="st1" width="4.8" height="4.8"/>
	
		<rect x="2254.3" y="-75.3" transform="matrix(-0.7071 -0.7071 0.7071 -0.7071 3903.6196 1470.3898)" class="st1" width="4" height="4"/>
	
		<rect x="2518.7" y="11.6" transform="matrix(-0.7071 -0.7071 0.7071 -0.7071 4292.9214 1804.171)" class="st1" width="2.8" height="2.8"/>
	
		<rect x="2403.5" y="-41.2" transform="matrix(-0.7071 -0.7071 0.7071 -0.7071 4134.5972 1635.0217)" class="st2" width="4.8" height="4.8"/>
	
		<rect x="2521.3" y="65.7" transform="matrix(-0.7071 -0.7071 0.7071 -0.7071 4259.9849 1900.8365)" class="st1" width="4.8" height="4.8"/>
	
		<rect x="1697.6" y="65.1" transform="matrix(-0.7071 -0.7071 0.7071 -0.7071 2854.4297 1317.3486)" class="st1" width="4.8" height="4.8"/>
	
		<rect x="1709.2" y="118" transform="matrix(-0.7071 -0.7071 0.7071 -0.7071 2836.8184 1415.8717)" class="st1" width="4.8" height="4.8"/>
	
		<rect x="2510.5" y="157.8" transform="matrix(-0.7071 -0.7071 0.7071 -0.7071 4176.5127 2050.4321)" class="st1" width="4.8" height="4.8"/>
	
		<rect x="2406.9" y="91.5" transform="matrix(-0.7071 -0.7071 0.7071 -0.7071 4046.5623 1863.9452)" class="st1" width="4.8" height="4.8"/>
	
		<rect x="2582.7" y="-14.6" transform="matrix(-0.7071 -0.7071 0.7071 -0.7071 4421.7773 1807.0896)" class="st1" width="4.8" height="4.8"/>
	
		<rect x="2090" y="98.5" transform="matrix(-0.7071 -0.7071 0.7071 -0.7071 3500.6484 1651.7313)" class="st2" width="4.8" height="4.8"/>
	
		<rect x="2182.6" y="-51.6" transform="matrix(-0.7071 -0.7071 0.7071 -0.7071 3764.8137 1461.1259)" class="st1" width="4.8" height="4.8"/>
	
		<rect x="2445.1" y="44.7" transform="matrix(-0.7071 -0.7071 0.7071 -0.7071 4144.8608 1811.0874)" class="st1" width="4.8" height="4.8"/>
	
		<rect x="2291.1" y="-12.8" transform="matrix(-0.7071 -0.7071 0.7071 -0.7071 3922.5991 1604.0773)" class="st1" width="4.8" height="4.8"/>
	
		<rect x="2053.8" y="144" transform="matrix(-0.7071 -0.7071 0.7071 -0.7071 3406.7065 1703.8486)" class="st1" width="4.8" height="4.8"/>
	
		<rect x="2386.3" y="57.8" transform="matrix(-0.7071 -0.7071 0.7071 -0.7071 4035.1101 1791.8892)" class="st1" width="4.8" height="4.8"/>
	
		<rect x="2137.8" y="-79" transform="matrix(-0.7071 -0.7071 0.7071 -0.7071 3707.7471 1382.6626)" class="st1" width="4.8" height="4.8"/>
	
		<rect x="2000.6" y="-3.2" transform="matrix(-0.7071 -0.7071 0.7071 -0.7071 3419.8286 1414.981)" class="st1" width="4.8" height="4.8"/>
	
		<rect x="1781.1" y="-13.2" transform="matrix(-0.7071 -0.7071 0.7071 -0.7071 3052.2529 1242.7532)" class="st1" width="4.8" height="4.8"/>
	
		<rect x="2259.1" y="-49.5" transform="matrix(-0.7071 -0.7071 0.7071 -0.7071 3893.9773 1518.7223)" class="st2" width="4.8" height="4.8"/>
	
		<rect x="2699.7" y="31" transform="matrix(-0.7071 -0.7071 0.7071 -0.7071 4589.2549 1967.6514)" class="st1" width="4.8" height="4.8"/>
	
		<rect x="2321.2" y="114.6" transform="matrix(-0.7071 -0.7071 0.7071 -0.7071 3883.9329 1842.7898)" class="st1" width="4.8" height="4.8"/>
	
		<rect x="2374.7" y="-57" transform="matrix(-0.7071 -0.7071 0.7071 -0.7071 4096.6313 1587.6755)" class="st1" width="4.8" height="4.8"/>
	
		<rect x="2255" y="89" transform="matrix(-0.7071 -0.7071 0.7071 -0.7071 3788.9973 1752.3243)" class="st2" width="4.8" height="4.8"/>
	
		<rect x="2206.7" y="-2.2" transform="matrix(-0.7071 -0.7071 0.7071 -0.7071 3771.1421 1562.3746)" class="st2" width="4.8" height="4.8"/>
	
		<rect x="2475.8" y="-40.4" transform="matrix(-0.7071 -0.7071 0.7071 -0.7071 4256.4478 1685.1638)" class="st1" width="2.8" height="2.8"/>
	
		<rect x="1844.5" y="114.6" transform="matrix(-0.7071 -0.7071 0.7071 -0.7071 3070.1926 1505.6458)" class="st1" width="4.8" height="4.8"/>
	
		<rect x="1960.3" y="61.8" transform="matrix(-0.7071 -0.7071 0.7071 -0.7071 3305.2024 1497.4458)" class="st1" width="4.8" height="4.8"/>
	
		<rect x="1894.2" y="36.4" transform="matrix(-0.7071 -0.7071 0.7071 -0.7071 3210.3086 1407.281)" class="st1" width="4.8" height="4.8"/>
	
		<rect x="2261.5" y="102.1" transform="matrix(-0.7071 -0.7071 0.7071 -0.7071 3790.8796 1779.2532)" class="st1" width="4.8" height="4.8"/>
	
		<rect x="1755.2" y="147.3" transform="matrix(-0.7071 -0.7071 0.7071 -0.7071 2894.5322 1498.4421)" class="st1" width="4.8" height="4.8"/>
	
		<rect x="2317.9" y="-25.9" transform="matrix(-0.7071 -0.7071 0.7071 -0.7071 3977.5645 1600.6564)" class="st1" width="4.8" height="4.8"/>
	
		<rect x="1585.4" y="149.1" transform="matrix(-0.7071 -0.7071 0.7071 -0.7071 2603.3315 1381.4127)" class="st1" width="4.8" height="4.8"/>
	
		<rect x="2275.4" y="-28.5" transform="matrix(-0.7071 -0.7071 0.7071 -0.7071 3906.0962 1564.1091)" class="st1" width="3.1" height="3.1"/>
	
		<rect x="2090.3" y="76.7" transform="matrix(-0.7071 -0.7071 0.7071 -0.7071 3515.5977 1612.7639)" class="st1" width="3.1" height="3.1"/>
	
		<rect x="2068.6" y="-58.5" transform="matrix(-0.7071 -0.7071 0.7071 -0.7071 3574.1345 1366.6431)" class="st1" width="3.1" height="3.1"/>
	
		<rect x="2142" y="132.5" transform="matrix(-0.7071 -0.7071 0.7071 -0.7071 3564.5757 1744.5377)" class="st1" width="3.1" height="3.1"/>
	
		<rect x="1569.3" y="9.2" transform="matrix(-0.7071 -0.7071 0.7071 -0.7071 2673.9602 1129.0171)" class="st1" width="3.1" height="3.1"/>
	
		<rect x="2128.3" y="45.5" transform="matrix(-0.1174 -0.9931 0.9931 -0.1174 2333.2185 2167.6826)" class="st1" width="3.1" height="3.1"/>
	
		<rect x="1851.5" y="-35.6" transform="matrix(-0.7071 -0.7071 0.7071 -0.7071 3187.4067 1252.0864)" class="st1" width="3.1" height="3.1"/>
	
		<rect x="1760.9" y="-52.5" transform="matrix(-0.7071 -0.7071 0.7071 -0.7071 3044.6414 1159.2957)" class="st1" width="3.1" height="3.1"/>
	
		<rect x="2107.3" y="31.1" transform="matrix(-0.7071 -0.7071 0.7071 -0.7071 3577.082 1547.3452)" class="st2" width="3.4" height="3.4"/>
	
		<rect x="1812.8" y="-67.1" transform="matrix(-0.7071 -0.7071 0.7071 -0.7071 3143.7119 1171.4565)" class="st1" width="3.4" height="3.4"/>
	
		<rect x="1991.5" y="101.7" transform="matrix(-0.7071 -0.7071 0.7071 -0.7071 3330.1235 1587.6061)" class="st1" width="4.8" height="4.8"/>
	
		<rect x="2208.5" y="58" transform="matrix(-0.7071 -0.7071 0.7071 -0.7071 3730.8342 1664.8618)" class="st1" width="3.4" height="3.4"/>
	
		<rect x="2327.1" y="-5.1" transform="matrix(-0.7071 -0.7071 0.7071 -0.7071 3978.6658 1642.7067)" class="st2" width="4.8" height="4.8"/>
	
		<rect x="2141" y="37.9" transform="matrix(-0.7071 -0.7071 0.7071 -0.7071 3629.7336 1582.7333)" class="st2" width="3.4" height="3.4"/>
	
		<rect x="1951.5" y="-63" transform="matrix(-0.7071 -0.7071 0.7071 -0.7071 3377.731 1276.5046)" class="st1" width="3.4" height="3.4"/>
	
		<rect x="2561.7" y="76" transform="matrix(-0.7071 -0.7071 0.7071 -0.7071 4321.854 1946.8905)" class="st1" width="4.8" height="4.8"/>
	
		<rect x="2176.5" y="2.1" transform="matrix(-0.7071 -0.7071 0.7071 -0.7071 3715.7825 1546.7736)" class="st2" width="3.4" height="3.4"/>
	
		<rect x="2344.7" y="49" transform="matrix(-0.7071 -0.7071 0.7071 -0.7071 3970.4651 1747.4067)" class="st2" width="4.8" height="4.8"/>
	
		<rect x="2416.5" y="-9.7" transform="matrix(-0.7071 -0.7071 0.7071 -0.7071 4134.0903 1697.04)" class="st1" width="4" height="4"/>
	
		<rect x="2389.6" y="150.6" transform="matrix(-0.7071 -0.7071 0.7071 -0.7071 3975.2917 1952.6201)" class="st1" width="4.8" height="4.8"/>
	
		<rect x="1606" y="100.7" transform="matrix(-0.7071 -0.7071 0.7071 -0.7071 2672.8435 1313.3921)" class="st1" width="4.8" height="4.8"/>
	
		<rect x="2157" y="-20.9" transform="matrix(-0.7071 -0.7071 0.7071 -0.7071 3698.7527 1493.6744)" class="st1" width="3.4" height="3.4"/>
	
		<rect x="2259.5" y="121.9" transform="matrix(-0.7071 -0.7071 0.7071 -0.7071 3772.6514 1809.8342)" class="st1" width="3.4" height="3.4"/>
	
		<rect x="2230.5" y="3.5" transform="matrix(-0.7071 -0.7071 0.7071 -0.7071 3806.8901 1587.3395)" class="st1" width="3.4" height="3.4"/>
	
		<rect x="2116.1" y="-77" transform="matrix(-0.7071 -0.7071 0.7071 -0.7071 3669.3069 1370.6742)" class="st1" width="4.8" height="4.8"/>
	
		<rect x="2683" y="105.5" transform="matrix(-0.7071 -0.7071 0.7071 -0.7071 4507.9541 2083.1208)" class="st1" width="4.8" height="4.8"/>
	
		<rect x="2677.5" y="-63" transform="matrix(-0.7071 -0.7071 0.7071 -0.7071 4617.7515 1791.6321)" class="st1" width="4.8" height="4.8"/>
	
		<rect x="2085.4" y="4.5" transform="matrix(-0.7071 -0.7071 0.7071 -0.7071 3558.5408 1486.4183)" class="st1" width="3.4" height="3.4"/>
	
		<rect x="2502.1" y="11.2" transform="matrix(-0.7071 -0.7071 0.7071 -0.7071 4264.9043 1791.7722)" class="st1" width="2.8" height="2.8"/>
	
		<rect x="1920.9" y="1.2" transform="matrix(-0.7071 -0.7071 0.7071 -0.7071 3280.6731 1366.1569)" class="st1" width="4.8" height="4.8"/>
	
		<rect x="2030.2" y="43.3" transform="matrix(-0.7071 -0.7071 0.7071 -0.7071 3436.6787 1513.2935)" class="st1" width="3.1" height="3.1"/>
	
		<rect x="1808.2" y="-52.3" transform="matrix(-0.7071 -0.7071 0.7071 -0.7071 3125.3101 1193.1193)" class="st1" width="3.1" height="3.1"/>
	
		<rect x="1750" y="-3.6" transform="matrix(-0.7071 -0.7071 0.7071 -0.7071 2991.5303 1235.0736)" class="st1" width="3.1" height="3.1"/>
	
		<rect x="2859.7" y="38.7" transform="matrix(0.9282 0.3721 -0.3721 0.9282 220.4324 -1061.7605)" class="st1" width="3.1" height="3.1"/>
	
		<rect x="2932.8" y="154.3" transform="matrix(0.9282 0.3721 -0.3721 0.9282 268.6863 -1080.6608)" class="st1" width="3.1" height="3.1"/>
	
		<rect x="2790.1" y="7.8" transform="matrix(0.9282 0.3721 -0.3721 0.9282 203.9458 -1038.0764)" class="st1" width="3.1" height="3.1"/>
	
		<rect x="2836.9" y="82.3" transform="matrix(0.4985 0.8669 -0.8669 0.4985 1496.16 -2418.6135)" class="st1" width="3.1" height="3.1"/>
	
		<rect x="3123.4" y="48.1" transform="matrix(0.9282 0.3721 -0.3721 0.9282 242.8761 -1159.2168)" class="st1" width="3.1" height="3.1"/>
	
		<rect x="3213.2" y="27.8" transform="matrix(0.9282 0.3721 -0.3721 0.9282 241.753 -1194.0978)" class="st1" width="3.1" height="3.1"/>
	
		<rect x="3171.1" y="61.6" transform="matrix(0.9282 0.3721 -0.3721 0.9282 251.3905 -1176.057)" class="st1" width="3.4" height="3.4"/>
	
		<rect x="2758.1" y="102.2" transform="matrix(0.9282 0.3721 -0.3721 0.9282 236.8278 -1019.4372)" class="st1" width="3.4" height="3.4"/>
	
		<rect x="3041.6" y="112.3" transform="matrix(0.9282 0.3721 -0.3721 0.9282 260.9413 -1124.2228)" class="st1" width="3.4" height="3.4"/>
	
		<rect x="3104" y="111.2" transform="matrix(0.9282 0.3721 -0.3721 0.9282 265.0076 -1147.505)" class="st1" width="3.4" height="3.4"/>
	
		<rect x="2836.2" y="154.4" transform="matrix(0.9282 0.3721 -0.3721 0.9282 261.8715 -1044.7479)" class="st1" width="3.4" height="3.4"/>
	
		<rect x="2759" y="160.9" transform="matrix(0.9282 0.3721 -0.3721 0.9282 258.7391 -1015.5927)" class="st1" width="3.4" height="3.4"/>
	
		<rect x="2892.2" y="103" transform="matrix(0.9282 0.3721 -0.3721 0.9282 246.7599 -1069.2996)" class="st1" width="3.4" height="3.4"/>
	
		<rect x="2928.2" y="45.8" transform="matrix(0.9282 0.3721 -0.3721 0.9282 227.9987 -1086.7389)" class="st1" width="3.1" height="3.1"/>
	
		<rect x="3169.7" y="46.5" transform="matrix(0.9282 0.3721 -0.3721 0.9282 245.6089 -1176.5787)" class="st1" width="3.1" height="3.1"/>
	
		<rect x="3204" y="-21.2" transform="matrix(0.9282 0.3721 -0.3721 0.9282 222.8678 -1194.1926)" class="st1" width="3.1" height="3.1"/>
	
		<rect x="3100.3" y="-71.2" transform="matrix(0.9917 0.1285 -0.1285 0.9917 16.8796 -399.274)" class="st1" width="4.8" height="4.8"/>
	
		<rect x="2738.3" y="-33.6" transform="matrix(0.9917 0.1285 -0.1285 0.9917 18.7121 -352.4445)" class="st1" width="4.8" height="4.8"/>
	
		<rect x="2628.8" y="2.1" transform="matrix(0.9917 0.1285 -0.1285 0.9917 22.3912 -338.0781)" class="st1" width="4.8" height="4.8"/>
	
		<rect x="2923.1" y="-29.2" transform="matrix(0.9917 0.1285 -0.1285 0.9917 20.8083 -376.1561)" class="st1" width="4.8" height="4.8"/>
	
		<rect x="2790.4" y="-39.1" transform="matrix(0.9917 0.1285 -0.1285 0.9917 18.4373 -359.1879)" class="st1" width="4.8" height="4.8"/>
	
		<rect x="3115.2" y="-41.5" transform="matrix(0.9917 0.1285 -0.1285 0.9917 20.822 -400.9444)" class="st1" width="4.8" height="4.8"/>
	
		<rect x="2998.1" y="-33.8" transform="matrix(0.9917 0.1285 -0.1285 0.9917 20.8398 -385.8305)" class="st1" width="4.8" height="4.8"/>
	
		<rect x="2806.3" y="-53.8" transform="matrix(0.9917 0.1285 -0.1285 0.9917 16.679 -361.3521)" class="st1" width="4.8" height="4.8"/>
	
		<rect x="3115.4" y="2.5" transform="matrix(0.9917 0.1285 -0.1285 0.9917 26.4747 -400.606)" class="st1" width="4.8" height="4.8"/>
	
		<rect x="3035.4" y="29.2" transform="matrix(-0.7071 -0.7071 0.7071 -0.7071 5163.5684 2202.0239)" class="st1" width="4.8" height="4.8"/>
	
		<rect x="2979.7" y="56.6" transform="matrix(-0.7071 -0.7071 0.7071 -0.7071 5049.0498 2209.4529)" class="st1" width="4.8" height="4.8"/>
	
		<rect x="3133.4" y="140.5" transform="matrix(-0.7071 -0.7071 0.7071 -0.7071 5252.0693 2461.3506)" class="st1" width="4.8" height="4.8"/>
	
		<rect x="3151.6" y="-18" transform="matrix(-0.7071 -0.7071 0.7071 -0.7071 5395.3066 2203.5315)" class="st1" width="4.8" height="4.8"/>
	
		<rect x="2949.4" y="-49.5" transform="matrix(-0.7071 -0.7071 0.7071 -0.7071 5071.5581 2004.8477)" class="st1" width="3.1" height="3.1"/>
	
		<rect x="1397.7" y="11.8" transform="matrix(-0.7071 -0.7071 0.7071 -0.7071 2379.1489 1011.7896)" class="st1" width="2.8" height="2.8"/>
	
		<rect x="1400.3" y="66" transform="matrix(-0.7071 -0.7071 0.7071 -0.7071 2346.113 1108.6146)" class="st1" width="4.8" height="4.8"/>
	
		<rect x="1389.4" y="157.8" transform="matrix(-0.7071 -0.7071 0.7071 -0.7071 2262.6274 1257.6389)" class="st1" width="4.8" height="4.8"/>
	
		<rect x="1285.9" y="91.7" transform="matrix(-0.7071 -0.7071 0.7071 -0.7071 2132.761 1071.694)" class="st1" width="4.8" height="4.8"/>
	
		<rect x="1324" y="44.8" transform="matrix(-0.7071 -0.7071 0.7071 -0.7071 2230.9761 1018.4936)" class="st1" width="4.8" height="4.8"/>
	
		<rect x="1170" y="-12.8" transform="matrix(-0.7071 -0.7071 0.7071 -0.7071 2008.7145 811.284)" class="st1" width="4.8" height="4.8"/>
	
		<rect x="1265.1" y="58.1" transform="matrix(-0.7071 -0.7071 0.7071 -0.7071 2121.0261 999.5779)" class="st1" width="4.8" height="4.8"/>
	
		<rect x="1200.2" y="114.7" transform="matrix(-0.7071 -0.7071 0.7071 -0.7071 1970.1193 1050.1671)" class="st1" width="4.8" height="4.8"/>
	
		<rect x="1253.6" y="-56.7" transform="matrix(-0.7071 -0.7071 0.7071 -0.7071 2182.5889 795.4658)" class="st1" width="4.8" height="4.8"/>
	
		<rect x="1354.6" y="-40.1" transform="matrix(-0.7071 -0.7071 0.7071 -0.7071 2342.2336 892.825)" class="st1" width="2.8" height="2.8"/>
	
		<rect x="1196.7" y="-25.7" transform="matrix(-0.7071 -0.7071 0.7071 -0.7071 2063.5215 808.1641)" class="st1" width="4.8" height="4.8"/>
	
		<rect x="1440.7" y="76.2" transform="matrix(-0.7071 -0.7071 0.7071 -0.7071 2408.012 1154.5388)" class="st1" width="4.8" height="4.8"/>
	
		<rect x="1295.3" y="-9.5" transform="matrix(-0.7071 -0.7071 0.7071 -0.7071 2219.8767 904.5594)" class="st1" width="4" height="4"/>
	
		<rect x="1268.5" y="150.9" transform="matrix(-0.7071 -0.7071 0.7071 -0.7071 2061.1487 1160.4515)" class="st1" width="4.8" height="4.8"/>
	
		<rect x="1381.1" y="11.4" transform="matrix(-0.7071 -0.7071 0.7071 -0.7071 2351.0625 999.4789)" class="st1" width="2.8" height="2.8"/>
	
		<rect x="1432.7" y="-37.6" transform="matrix(-0.7071 -0.7071 0.7071 -0.7071 2474.8035 954.6917)" class="st1" width="4.8" height="4.8"/>
	
		<rect x="1586.6" y="-60.8" transform="matrix(0.4985 0.8669 -0.8669 0.4985 745.0785 -1406.5115)" class="st1" width="3.1" height="3.1"/>
	
		<rect x="1507.7" y="-41" transform="matrix(0.9282 0.3721 -0.3721 0.9282 93.7516 -564.4531)" class="st1" width="3.4" height="3.4"/>
	
		<rect x="1585.8" y="11.2" transform="matrix(0.9282 0.3721 -0.3721 0.9282 118.7954 -589.764)" class="st1" width="3.4" height="3.4"/>
	
		<rect x="1508.8" y="17.7" transform="matrix(0.9282 0.3721 -0.3721 0.9282 115.6873 -560.6581)" class="st1" width="3.4" height="3.4"/>
	
		<rect x="1641.9" y="-40.1" transform="matrix(0.9282 0.3721 -0.3721 0.9282 103.7302 -614.3342)" class="st1" width="3.4" height="3.4"/>
	
		<rect x="1532.9" y="161.5" transform="matrix(-0.7071 -0.7071 0.7071 -0.7071 2505.0134 1365.3237)" class="st1" width="4.8" height="4.8"/>
	
		<rect x="1569.1" y="94.4" transform="matrix(-0.7071 -0.7071 0.7071 -0.7071 2613.4324 1274.4934)" class="st1" width="3.1" height="3.1"/>
	
		<rect x="1470.4" y="119.3" transform="matrix(-0.7071 -0.7071 0.7071 -0.7071 2428.0879 1249.2231)" class="st1" width="4.8" height="4.8"/>
	
		<rect x="1509.1" y="60.9" transform="matrix(-0.7071 -0.7071 0.7071 -0.7071 2534.6436 1174.7111)" class="st1" width="3.1" height="3.1"/>
	
		<rect x="3268.7" y="52.1" transform="matrix(-0.7071 -0.7071 0.7071 -0.7071 5545.6597 2406.0186)" class="st1" width="4.8" height="4.8"/>
	
		<rect x="3490.8" y="-35" transform="matrix(-0.7071 -0.7071 0.7071 -0.7071 5986.3281 2414.4651)" class="st1" width="4.8" height="4.8"/>
	
		<rect x="3563.3" y="-68.5" transform="matrix(-0.7071 -0.7071 0.7071 -0.7071 6133.7637 2408.5161)" class="st1" width="4.8" height="4.8"/>
	
		<rect x="3671.8" y="-29.9" transform="matrix(-0.7071 -0.7071 0.7071 -0.7071 6291.7485 2551.1843)" class="st1" width="4.8" height="4.8"/>
	
		<rect x="3434.6" y="126.9" transform="matrix(-0.7071 -0.7071 0.7071 -0.7071 5775.9561 2651.0559)" class="st1" width="4.8" height="4.8"/>
	
		<rect x="3381.4" y="-20.1" transform="matrix(-0.7071 -0.7071 0.7071 -0.7071 5788.9497 2362.5007)" class="st1" width="4.8" height="4.8"/>
	
		<rect x="3341.3" y="44.7" transform="matrix(-0.7071 -0.7071 0.7071 -0.7071 5674.6929 2444.7522)" class="st1" width="4.8" height="4.8"/>
	
		<rect x="3274.9" y="19.5" transform="matrix(-0.7071 -0.7071 0.7071 -0.7071 5579.229 2354.7996)" class="st1" width="4.8" height="4.8"/>
	
		<rect x="3642.4" y="85.3" transform="matrix(-0.7071 -0.7071 0.7071 -0.7071 6160.083 2726.9731)" class="st1" width="4.8" height="4.8"/>
	
		<rect x="3656.1" y="-45.4" transform="matrix(-0.7071 -0.7071 0.7071 -0.7071 6275.0444 2511.5)" class="st1" width="3.1" height="3.1"/>
	
		<rect x="3471.1" y="59.7" transform="matrix(-0.7071 -0.7071 0.7071 -0.7071 5884.7881 2560.1121)" class="st1" width="3.1" height="3.1"/>
	
		<rect x="3449.3" y="-75.2" transform="matrix(-0.7071 -0.7071 0.7071 -0.7071 5943.1255 2314.334)" class="st1" width="3.1" height="3.1"/>
	
		<rect x="3522.8" y="115.6" transform="matrix(-0.7071 -0.7071 0.7071 -0.7071 5933.6963 2692.0569)" class="st1" width="3.1" height="3.1"/>
	
		<rect x="3508.9" y="28.6" transform="matrix(-0.1174 -0.9931 0.9931 -0.1174 3892.6616 3519.9277)" class="st1" width="3.1" height="3.1"/>
	
		<rect x="3372.1" y="84.9" transform="matrix(-0.7071 -0.7071 0.7071 -0.7071 5698.9424 2535.1667)" class="st1" width="4.8" height="4.8"/>
	
		<rect x="3589.2" y="41.1" transform="matrix(-0.7071 -0.7071 0.7071 -0.7071 6099.7822 2612.2512)" class="st1" width="3.4" height="3.4"/>
	
		<rect x="3332.3" y="-79.9" transform="matrix(-0.7071 -0.7071 0.7071 -0.7071 5746.7505 2224.0659)" class="st1" width="3.4" height="3.4"/>
	
		<rect x="3537.9" y="-37.7" transform="matrix(-0.7071 -0.7071 0.7071 -0.7071 6067.9561 2441.3936)" class="st1" width="3.4" height="3.4"/>
	
		<rect x="3640.2" y="105.1" transform="matrix(-0.7071 -0.7071 0.7071 -0.7071 6141.5713 2757.5544)" class="st1" width="3.4" height="3.4"/>
	
		<rect x="3611.3" y="-13.4" transform="matrix(-0.7071 -0.7071 0.7071 -0.7071 6175.9814 2534.7878)" class="st1" width="3.4" height="3.4"/>
	
		<rect x="3466.2" y="-12.5" transform="matrix(-0.7071 -0.7071 0.7071 -0.7071 5927.8193 2433.696)" class="st1" width="3.4" height="3.4"/>
	
		<rect x="3301.5" y="-15.6" transform="matrix(-0.7071 -0.7071 0.7071 -0.7071 5649.4922 2313.7185)" class="st1" width="4.8" height="4.8"/>
	
		<rect x="3411" y="26.3" transform="matrix(-0.7071 -0.7071 0.7071 -0.7071 5805.7983 2460.6123)" class="st1" width="3.1" height="3.1"/>
</g>
<linearGradient id="SVGID_1_" gradientUnits="userSpaceOnUse" x1="2102.6348" y1="-9.1987" x2="2273.7666" y2="-11.8084" gradientTransform="matrix(0.999 4.384206e-02 4.384206e-02 -0.999 -6.5634 -123.5024)">
	<stop  offset="0" style="stop-color:#F2FAFE"/>
	<stop  offset="0.2092" style="stop-color:#F3C187"/>
	<stop  offset="0.4322" style="stop-color:#EB8D80"/>
	<stop  offset="0.4645" style="stop-color:#C77E75"/>
	<stop  offset="0.5125" style="stop-color:#996B66"/>
	<stop  offset="0.5623" style="stop-color:#705A59"/>
	<stop  offset="0.613" style="stop-color:#504C4E"/>
	<stop  offset="0.665" style="stop-color:#364146"/>
	<stop  offset="0.7187" style="stop-color:#243A41"/>
	<stop  offset="0.7754" style="stop-color:#19353D"/>
	<stop  offset="0.8399" style="stop-color:#16343C"/>
</linearGradient>
<path class="st3" d="M2104.7-24.1c-3.2-0.1-6.4-0.3-9.6-0.4l-1.6,0.8l1.5,0.9c7.2,0.3,14.6,0.5,22.1,0.8
	c61.7,2.7,116.2,7.8,149.9,13.1C2235.4-15,2174.7-21,2104.7-24.1z"/>
</svg>
