<?xml version="1.0" encoding="utf-8"?>
<!-- Generator: Adobe Illustrator 19.1.0, SVG Export Plug-In . SVG Version: 6.00 Build 0)  -->
<svg version="1.1" id="Layer_1" xmlns="http://www.w3.org/2000/svg" xmlns:xlink="http://www.w3.org/1999/xlink" x="0px" y="0px"
	 width="1780px" height="850px" viewBox="690 -290 1780 850" style="enable-background:new 690 -290 1780 850;"
	 xml:space="preserve">
<style type="text/css">
	.st0{fill:url(#sky_x2F_space_2_);}
	.st1{fill:url(#river_2_);}
	.st2{opacity:0.9;}
	.st3{fill:url(#SVGID_1_);}
	.st4{fill:url(#SVGID_2_);}
	.st5{opacity:0.6;}
	.st6{fill:url(#SVGID_3_);}
	.st7{fill:url(#SVGID_4_);}
	.st8{fill:url(#SVGID_5_);}
	.st9{opacity:0.8;fill:url(#SVGID_6_);enable-background:new    ;}
	.st10{opacity:0.6;fill:url(#SVGID_7_);enable-background:new    ;}
	.st11{fill:#445763;}
	.st12{fill:url(#SVGID_8_);}
	.st13{fill:url(#SVGID_9_);}
	.st14{opacity:0.1;fill:#FFFFFF;enable-background:new    ;}
	.st15{fill:#575C7A;}
	.st16{display:none;fill:#575C7A;}
	.st17{fill:url(#SVGID_10_);}
	.st18{fill:url(#SVGID_11_);}
	.st19{fill:url(#SVGID_12_);}
	.st20{fill:url(#SVGID_13_);}
</style>
<linearGradient id="sky_x2F_space_2_" gradientUnits="userSpaceOnUse" x1="1609.7175" y1="21.9801" x2="1560.2217" y2="-908.1791" gradientTransform="matrix(1 0 0 1 0 633.9999)">
	<stop  offset="0" style="stop-color:#F3C187"/>
	<stop  offset="5.274168e-02" style="stop-color:#F4AA8D"/>
	<stop  offset="0.1186" style="stop-color:#DF7D66"/>
	<stop  offset="0.3059" style="stop-color:#4E5763"/>
	<stop  offset="0.5913" style="stop-color:#0C3C4C"/>
	<stop  offset="1" style="stop-color:#0E1C22"/>
</linearGradient>
<rect id="sky_x2F_space_1_" x="688.2" y="-301.8" class="st0" width="1785.6" height="836.1"/>
<linearGradient id="river_2_" gradientUnits="userSpaceOnUse" x1="1552.0245" y1="-323.1646" x2="1695.3894" y2="182.6706" gradientTransform="matrix(1 0 0 1 0 633.9999)">
	<stop  offset="7.882074e-02" style="stop-color:#C5817E"/>
	<stop  offset="0.3645" style="stop-color:#57606D"/>
	<stop  offset="0.6989" style="stop-color:#33434C"/>
	<stop  offset="1" style="stop-color:#2D3A41"/>
</linearGradient>
<polygon id="river_1_" class="st1" points="2473.8,662.2 1082.6,662.2 781.1,662.8 948.2,573 1082.6,491.1 2473.8,491.1 "/>
<g id="mountain_1_" class="st2">
	
		<linearGradient id="SVGID_1_" gradientUnits="userSpaceOnUse" x1="1569.4973" y1="-143.7112" x2="1569.4973" y2="-203.2607" gradientTransform="matrix(1 0 0 1 0 633.9999)">
		<stop  offset="0" style="stop-color:#425B6A"/>
		<stop  offset="1" style="stop-color:#30414A"/>
	</linearGradient>
	<polygon class="st3" points="1478.6,491.1 1471.6,491.2 1471.8,490.2 1495.8,477.2 1503.6,475.1 1505.6,471.4 1510,469.9 
		1513.3,467.8 1518.3,470.5 1520.3,471 1524.4,470.4 1533.6,463.8 1544.6,456 1556.6,447.9 1561.6,447 1565.3,445.5 1569,441.4 
		1572.4,439.2 1576.6,434.4 1579.4,435.8 1583.8,439.2 1588.1,442.9 1592.1,444.2 1594.1,446 1601.6,449 1604,448.3 1609.6,454.1 
		1614.8,457.8 1619.6,462.5 1622.3,463.4 1625,465.2 1627,465.2 1635.4,471.2 1667.4,491.1 	"/>
	
		<linearGradient id="SVGID_2_" gradientUnits="userSpaceOnUse" x1="1633.7733" y1="-137.6813" x2="1681.6873" y2="-159.2005" gradientTransform="matrix(1 0 0 1 0 633.9999)">
		<stop  offset="0" style="stop-color:#475E6D"/>
		<stop  offset="1" style="stop-color:#30414A"/>
	</linearGradient>
	<polygon class="st4" points="1676.8,491.1 1691.8,491.1 1671.8,483.9 1655.6,475.2 1647.6,470.1 1643.3,471.2 1635.6,477.4 
		1630.8,480.4 1623.8,485 1618.1,487.8 1609.6,491.1 1610.8,491.1 	"/>
	<g class="st5">
		
			<linearGradient id="SVGID_3_" gradientUnits="userSpaceOnUse" x1="1572.9248" y1="-190.6999" x2="1598.269" y2="-190.6999" gradientTransform="matrix(1 0 0 1 0 633.9999)">
			<stop  offset="0" style="stop-color:#FDD8CD"/>
			<stop  offset="1" style="stop-color:#E9B8AD"/>
		</linearGradient>
		<polygon class="st6" points="1579.6,441.4 1578.1,435.8 1576.6,434.4 1579.4,435.8 1583.8,439.2 1588.1,442.9 1592.1,444.2 
			1594.1,446 1595.6,446.6 1598.3,447.7 1595.1,452.1 1592.6,451 1590.3,452.2 1587.6,449.5 1586,449.9 1584.3,449.9 1577.6,443.6 
			1573,439.8 1576.1,441 1578,441.5 		"/>
		
			<linearGradient id="SVGID_4_" gradientUnits="userSpaceOnUse" x1="1603.9286" y1="-176.3829" x2="1636.4464" y2="-155.3481" gradientTransform="matrix(1 0 0 1 0 633.9999)">
			<stop  offset="0" style="stop-color:#FDD8CD"/>
			<stop  offset="1" style="stop-color:#E9B8AD"/>
		</linearGradient>
		<polygon class="st7" points="1631.6,468.5 1627,465.2 1627.3,467.2 1625,465.2 1622.3,463.4 1619.6,462.5 1616.8,459.8 
			1614.8,457.8 1611.1,455.1 1609.6,454.1 1604,448.3 1601.8,452.4 1599.4,453 1598,455.4 1598.6,456.5 1599.4,458.9 1595.1,457.6 
			1596.3,460.8 1598.8,462.4 1604.3,467.2 1619.3,474.6 1625.6,475.1 1621.2,471.4 1628.6,474.6 1635.6,477.4 1639.8,474.1 		"/>
		
			<linearGradient id="SVGID_5_" gradientUnits="userSpaceOnUse" x1="1647.3667" y1="-156.9999" x2="1671.8052" y2="-156.9999" gradientTransform="matrix(1 0 0 1 0 633.9999)">
			<stop  offset="0" style="stop-color:#FDD8CD"/>
			<stop  offset="1" style="stop-color:#BF8980"/>
		</linearGradient>
		<polygon class="st8" points="1652,479.5 1647.8,476.2 1647.4,471.4 1647.6,470.1 1655.6,475.2 1671.8,483.9 1660.8,481.1 
			1656.1,481.4 		"/>
	</g>
</g>
<g id="mountain_-_foreground_1_">
	
		<linearGradient id="SVGID_6_" gradientUnits="userSpaceOnUse" x1="1469.5973" y1="-157.0499" x2="1613.7972" y2="-157.0499" gradientTransform="matrix(1 0 0 1 0 633.9999)">
		<stop  offset="0" style="stop-color:#3B4952"/>
		<stop  offset="0.6358" style="stop-color:#3F515E"/>
		<stop  offset="0.9998" style="stop-color:#4E6271"/>
	</linearGradient>
	<polygon class="st9" points="1613.8,491.1 1593.4,480.8 1585.4,476.1 1579.3,472.6 1577.3,471.2 1573.1,468.1 1568,463.9 
		1566.4,463.9 1564.3,462.8 1559.4,465.8 1558.8,465.2 1550.8,469.8 1549.6,469.8 1547.3,470.9 1547.3,471.9 1545.4,472.8 
		1542.1,474.8 1539.6,476.1 1536.6,477.5 1536.1,477.8 1532.8,478.6 1528.3,476.4 1525.1,474.2 1521.8,471.5 1520.1,471 
		1518.3,470.5 1513.3,467.8 1510,469.9 1505.8,471.4 1503.6,475.1 1496.1,477 1471.6,490.5 1469.6,491.1 1478.6,491.1 	"/>
	
		<linearGradient id="SVGID_7_" gradientUnits="userSpaceOnUse" x1="1567.099" y1="-167.0621" x2="1587.0114" y2="-151.3116" gradientTransform="matrix(1 0 0 1 0 633.9999)">
		<stop  offset="2.882479e-02" style="stop-color:#FDD8CD"/>
		<stop  offset="0.4645" style="stop-color:#D9A499"/>
		<stop  offset="1" style="stop-color:#BF8980"/>
	</linearGradient>
	<polygon class="st10" points="1594.8,481.6 1583.1,474.9 1577.3,470.9 1573.6,468.4 1568,463.9 1570.1,467.9 1573,471.3 
		1562.3,466.2 1558.8,465.2 1559.1,466.2 1560.3,467.2 1560.8,468.2 1560.8,469.2 1572.8,476.4 1574.8,477 1577,477.1 1581.3,478.2 
		1586.6,479.6 1588.6,480.1 	"/>
</g>
<path id="land-right3_1_" class="st11" d="M2265,472h-30.3l-44.9-1.1h-7.7l-16.8-1.1l-25.9-3.4l-18.4,4.5l-15.4-3.5l-16,4.1
	l-30.8-7.6l-61.6,10.9l-62.6,0.7l-19.6,0.8l-42.7,3.9l-39-3.9l-36.7,8.9l-46.3,2.2l-51.9,3.8l-14,1l11.3,4.2l6.2,1l18.1,2.5
	l31.7,3.8l66.2,10.5l70.8-1.6l281-7.6c0,0,102.9,5,102.9-23.7L2265,472z"/>
<linearGradient id="SVGID_8_" gradientUnits="userSpaceOnUse" x1="2264.9084" y1="-3.5229" x2="2058.8311" y2="-275.722" gradientTransform="matrix(1 0 0 -1 0 270)">
	<stop  offset="0" style="stop-color:#F4B49C"/>
	<stop  offset="0.3648" style="stop-color:#5A576C"/>
	<stop  offset="0.9951" style="stop-color:#3D4E59"/>
</linearGradient>
<polygon class="st12" points="2471.3,445.6 2454.3,449.8 2447,445.8 2416.3,444.8 2375,453.1 2331.3,450.8 2308.4,453.8 2263,447.6 
	2119.6,462.1 2088.8,474.1 2045.1,476.1 2020.8,480.6 1989.6,486.9 1944.6,490 1897.8,489.9 1878.1,496.2 1861.4,493.9 
	1841.8,496.2 1836.3,503.8 1797.6,507.5 1782.6,513.2 1765.6,519 1761,521 1699.4,528.8 1727.3,530.5 1896,529 1920.8,534.5 
	2050.8,534.5 2312,530.8 2312,504.5 2471.6,492.2 "/>
<linearGradient id="SVGID_9_" gradientUnits="userSpaceOnUse" x1="2147.2603" y1="-22.4016" x2="2078.51" y2="-672.8829" gradientTransform="matrix(1 0 0 -1 0 270)">
	<stop  offset="0" style="stop-color:#676279"/>
	<stop  offset="0.4019" style="stop-color:#3A4C57"/>
	<stop  offset="1" style="stop-color:#3A4850"/>
</linearGradient>
<polygon class="st13" points="2451.1,440.6 2376.8,450.6 2254.4,476.1 2191,484.9 2181.8,483.8 2150,477.4 2102,488.6 2070.1,492.6 
	2029.3,488.6 1987.1,498 1949.8,511.5 1897.1,514.8 1863,538 1841.8,547.5 1830.3,552 1816.6,552 1797.6,558.2 1784.6,558.8 
	1767.3,569.2 1758.1,569.2 1749.6,573.5 1812.8,574 1802.8,578.5 1792.8,578.5 1784.3,582 1771,584 1784.3,586 1800.3,590 
	1812.8,590 1824.8,590 1833.6,594.8 1853.1,600.8 1864.3,600.8 1874.1,600.8 1883,601 1886.1,601.5 1904.1,605 1916,607.5 1916,607 
	1941.1,611.2 2000.6,644.2 2027.3,640.2 2072,655.5 2119,659.5 2207.8,661.2 2476.1,662.5 2476.1,443.6 "/>
<path class="st14" d="M1754.7,460.2l5.1-4h274.5c2.8,0,5.1,1.8,5.1,4l0,0c0,2.2-2.3,4-5.1,4h-274.5L1754.7,460.2z"/>
<polygon class="st14" points="1296.8,468.4 1460.9,468.4 1465.5,465.2 1465.5,465.2 1460.9,462 1296.8,462 1292.2,465.2 
	1292.2,465.2 "/>
<path class="st14" d="M1666.2,450.7h266.6c2.5,0,4.6-1.3,4.6-2.8l0,0c0-1.6-2.1-2.8-4.6-2.8h-266.6l-4.6,2.8h0.5L1666.2,450.7z"/>
<g id="stars_1_">
	<rect x="992" y="-63" transform="matrix(0.7071 0.7071 -0.7071 0.7071 247.9993 -720.7658)" class="st15" width="4" height="4"/>
	
		<rect x="1131" y="-29" transform="matrix(0.7071 0.7071 -0.7071 0.7071 313.1215 -809.223)" class="st16" width="4.8" height="4.8"/>
	
		<rect x="1669.7" y="-109.1" transform="matrix(0.7071 0.7071 -0.7071 0.7071 414.2726 -1213.6107)" class="st15" width="4.8" height="4.8"/>
	
		<rect x="1258.5" y="77.6" transform="matrix(0.7071 0.7071 -0.7071 0.7071 425.8997 -868.1697)" class="st15" width="4.8" height="4.8"/>
	
		<rect x="1408.1" y="-137.7" transform="matrix(0.7071 0.7071 -0.7071 0.7071 317.0751 -1036.8458)" class="st15" width="4" height="4"/>
	
		<rect x="1144.5" y="103.4" transform="matrix(0.7071 0.7071 -0.7071 0.7071 410.7091 -780.004)" class="st15" width="4.8" height="4.8"/>
	
		<rect x="1319.7" y="-2.5" transform="matrix(0.7071 0.7071 -0.7071 0.7071 387.1548 -934.8861)" class="st15" width="4.8" height="4.8"/>
	
		<rect x="818.3" y="110.3" transform="matrix(0.7071 0.7071 -0.7071 0.7071 320.0392 -547.3158)" class="st16" width="4.8" height="4.8"/>
	
		<rect x="1028.9" y="-0.7" transform="matrix(0.7071 0.7071 -0.7071 0.7071 303.2759 -728.7444)" class="st15" width="4.8" height="4.8"/>
	
		<rect x="1123.7" y="69.7" transform="matrix(0.7071 0.7071 -0.7071 0.7071 380.8266 -775.1683)" class="st15" width="4.8" height="4.8"/>
	
		<rect x="819.1" y="-117" transform="matrix(0.7071 0.7071 -0.7071 0.7071 159.1431 -614.2899)" class="st15" width="4" height="4"/>
	
		<rect x="739.2" y="9" transform="matrix(0.7071 0.7071 -0.7071 0.7071 225.302 -521.0566)" class="st15" width="4.8" height="4.8"/>
	
		<rect x="737.9" y="-92.1" transform="matrix(0.7071 0.7071 -0.7071 0.7071 153.3822 -549.7642)" class="st15" width="4.8" height="4.8"/>
	
		<rect x="987.1" y="-37.2" transform="matrix(0.7071 0.7071 -0.7071 0.7071 265.2291 -709.8597)" class="st16" width="4.8" height="4.8"/>
	
		<rect x="1436.3" y="43" transform="matrix(0.7071 0.7071 -0.7071 0.7071 453.4886 -1004.041)" class="st15" width="4.8" height="4.8"/>
	
		<rect x="1059.1" y="126.3" transform="matrix(0.7071 0.7071 -0.7071 0.7071 401.9358 -712.8855)" class="st15" width="4.8" height="4.8"/>
	
		<rect x="1009.1" y="-146.6" transform="matrix(0.7071 0.7071 -0.7071 0.7071 194.3106 -757.454)" class="st15" width="4.8" height="4.8"/>
	
		<rect x="1112.5" y="-44.8" transform="matrix(0.7071 0.7071 -0.7071 0.7071 296.5179 -800.7534)" class="st15" width="4.8" height="4.8"/>
	
		<rect x="982.9" y="101" transform="matrix(0.7071 0.7071 -0.7071 0.7071 361.6909 -666.4588)" class="st16" width="4.8" height="4.8"/>
	
		<rect x="934.8" y="9.8" transform="matrix(0.7071 0.7071 -0.7071 0.7071 283.1507 -659.0892)" class="st16" width="4.8" height="4.8"/>
	
		<rect x="1213.3" y="-28.1" transform="matrix(0.7071 0.7071 -0.7071 0.7071 336.8856 -866.7162)" class="st15" width="2.8" height="2.8"/>
	
		<rect x="880.4" y="144" transform="matrix(0.7071 0.7071 -0.7071 0.7071 361.2414 -580.9727)" class="st15" width="3.1" height="3.1"/>
	
		<rect x="866.6" y="57.2" transform="matrix(0.1174 0.9931 -0.9931 0.1174 824.6131 -810.2698)" class="st15" width="3.1" height="3.1"/>
	
		<rect x="1812.3" y="-117.1" transform="matrix(0.7071 0.7071 -0.7071 0.7071 450.3725 -1316.7878)" class="st15" width="4.8" height="4.8"/>
	
		<rect x="1755.3" y="-167.9" transform="matrix(0.7071 0.7071 -0.7071 0.7071 397.7828 -1291.3888)" class="st15" width="4.8" height="4.8"/>
	
		<rect x="1229.5" y="-129" transform="matrix(0.7071 0.7071 -0.7071 0.7071 271.3215 -908.1718)" class="st15" width="4.8" height="4.8"/>
	
		<rect x="835.6" y="43.1" transform="matrix(0.7071 0.7071 -0.7071 0.7071 276.9455 -578.9061)" class="st16" width="3.4" height="3.4"/>
	
		<rect x="1054.8" y="7.2" transform="matrix(0.7071 0.7071 -0.7071 0.7071 316.4031 -744.7142)" class="st16" width="4.8" height="4.8"/>
	
		<rect x="869.1" y="49.9" transform="matrix(0.7071 0.7071 -0.7071 0.7071 291.575 -600.6342)" class="st16" width="3.4" height="3.4"/>
	
		<rect x="1299" y="87.8" transform="matrix(0.7071 0.7071 -0.7071 0.7071 444.9232 -893.804)" class="st15" width="4.8" height="4.8"/>
	
		<rect x="904.7" y="14.2" transform="matrix(0.7071 0.7071 -0.7071 0.7071 276.6769 -636.2456)" class="st16" width="3.4" height="3.4"/>
	
		<rect x="1072.5" y="60.9" transform="matrix(0.7071 0.7071 -0.7071 0.7071 359.5909 -741.5153)" class="st16" width="4.8" height="4.8"/>
	
		<rect x="1153.9" y="2.4" transform="matrix(0.7071 0.7071 -0.7071 0.7071 341.6832 -816.0727)" class="st15" width="4" height="4"/>
	
		<rect x="1095.7" y="-98.5" transform="matrix(0.7071 0.7071 -0.7071 0.7071 253.6654 -804.6618)" class="st15" width="4.8" height="4.8"/>
	
		<rect x="946.7" y="-102.5" transform="matrix(0.7071 0.7071 -0.7071 0.7071 206.7947 -700.2782)" class="st15" width="4" height="4"/>
	
		<rect x="997.4" y="133.8" transform="matrix(0.7071 0.7071 -0.7071 0.7071 388.4474 -666.7618)" class="st15" width="3.4" height="3.4"/>
	
		<rect x="1419.9" y="117.3" transform="matrix(0.7071 0.7071 -0.7071 0.7071 501.2062 -970.6945)" class="st15" width="4.8" height="4.8"/>
	
		<rect x="1414.5" y="-50.8" transform="matrix(0.7071 0.7071 -0.7071 0.7071 380.8028 -1016.0447)" class="st15" width="4.8" height="4.8"/>
	
		<rect x="1239.6" y="23.1" transform="matrix(0.7071 0.7071 -0.7071 0.7071 380.79 -870.3204)" class="st15" width="2.8" height="2.8"/>
	
		<rect x="768.4" y="55.1" transform="matrix(0.7071 0.7071 -0.7071 0.7071 265.6014 -527.8713)" class="st15" width="3.1" height="3.1"/>
	
		<rect x="1596.2" y="50.7" transform="matrix(-0.9282 -0.3721 0.3721 -0.9282 3061.3057 695.2961)" class="st15" width="3.1" height="3.1"/>
	
		<rect x="1573.4" y="94.1" transform="matrix(-0.4985 -0.8669 0.8669 -0.4985 2277.0693 1508.6906)" class="st15" width="3.1" height="3.1"/>
	
		<rect x="1859" y="60.2" transform="matrix(-0.9282 -0.3721 0.3721 -0.9282 3564.5247 811.373)" class="st15" width="3.1" height="3.1"/>
	
		<rect x="1777.8" y="124.1" transform="matrix(-0.9282 -0.3721 0.3721 -0.9282 3384.4312 904.7371)" class="st15" width="3.4" height="3.4"/>
	
		<rect x="1628.3" y="115" transform="matrix(-0.9282 -0.3721 0.3721 -0.9282 3099.5896 831.5344)" class="st15" width="3.4" height="3.4"/>
	
		<rect x="1905.6" y="58.4" transform="matrix(-0.9282 -0.3721 0.3721 -0.9282 3655.0703 825.2639)" class="st15" width="3.1" height="3.1"/>
	
		<rect x="1939.7" y="-9" transform="matrix(-0.9282 -0.3721 0.3721 -0.9282 3745.8606 707.9982)" class="st15" width="3.1" height="3.1"/>
	
		<rect x="1836.1" y="-58.8" transform="matrix(-0.9917 -0.1285 0.1285 -0.9917 3668.9617 123.9202)" class="st15" width="4.8" height="4.8"/>
	
		<rect x="1511.9" y="-92" transform="matrix(-0.9917 -0.1285 0.1285 -0.9917 3027.5217 16.1365)" class="st15" width="4.8" height="4.8"/>
	
		<rect x="1475" y="-21.4" transform="matrix(-0.9917 -0.1285 0.1285 -0.9917 2944.9563 152.0081)" class="st15" width="4.8" height="4.8"/>
	
		<rect x="1365.7" y="14.1" transform="matrix(-0.9917 -0.1285 0.1285 -0.9917 2722.7026 208.6681)" class="st15" width="4.8" height="4.8"/>
	
		<rect x="1659.3" y="-17" transform="matrix(-0.9917 -0.1285 0.1285 -0.9917 3311.4595 184.454)" class="st15" width="4.8" height="4.8"/>
	
		<rect x="1318.9" y="-94.5" transform="matrix(-0.9917 -0.1285 0.1285 -0.9917 2643.4465 -13.6434)" class="st15" width="4.8" height="4.8"/>
	
		<rect x="1734.1" y="-21.5" transform="matrix(-0.9917 -0.1285 0.1285 -0.9917 3461.0161 185.1032)" class="st15" width="4.8" height="4.8"/>
	
		<rect x="1542.9" y="-41.6" transform="matrix(-0.9917 -0.1285 0.1285 -0.9917 3082.7876 120.5011)" class="st15" width="4.8" height="4.8"/>
	
		<rect x="1716" y="68.6" transform="matrix(0.7071 0.7071 -0.7071 0.7071 553.5457 -1194.3159)" class="st15" width="4.8" height="4.8"/>
	
		<rect x="1869.5" y="152.1" transform="matrix(0.7071 0.7071 -0.7071 0.7071 657.478 -1278.3616)" class="st15" width="4.8" height="4.8"/>
	
		<rect x="1902.7" y="-80.3" transform="matrix(0.7071 0.7071 -0.7071 0.7071 502.91 -1369.9358)" class="st15" width="4.8" height="4.8"/>
	
		<rect x="1791.4" y="-285.2" transform="matrix(0.7071 0.7071 -0.7071 0.7071 325.4347 -1351.2114)" class="st15" width="4.8" height="4.8"/>
	
		<rect x="1735.9" y="-257.8" transform="matrix(0.7071 0.7071 -0.7071 0.7071 328.5536 -1303.9623)" class="st15" width="4.8" height="4.8"/>
	
		<rect x="2422.7" y="-265" transform="matrix(0.7071 0.7071 -0.7071 0.7071 524.5904 -1791.7603)" class="st15" width="4.8" height="4.8"/>
	
		<rect x="1998.1" y="-261.2" transform="matrix(0.7071 0.7071 -0.7071 0.7071 402.8957 -1490.3542)" class="st15" width="4.8" height="4.8"/>
	
		<rect x="1931.7" y="-286.6" transform="matrix(0.7071 0.7071 -0.7071 0.7071 365.5287 -1450.8571)" class="st15" width="4.8" height="4.8"/>
	
		<rect x="2165.5" y="-277.4" transform="matrix(0.1174 0.9931 -0.9931 0.1174 1638.6852 -2395.4771)" class="st15" width="3.1" height="3.1"/>
	
		<rect x="2245.7" y="-265.1" transform="matrix(0.7071 0.7071 -0.7071 0.7071 471.9664 -1666.2916)" class="st15" width="3.4" height="3.4"/>
	
		<rect x="2067.6" y="-279.6" transform="matrix(0.7071 0.7071 -0.7071 0.7071 409.4532 -1544.5225)" class="st15" width="3.1" height="3.1"/>
	
		<rect x="1439.2" y="-257.1" transform="matrix(0.7071 0.7071 -0.7071 0.7071 242.1274 -1093.9939)" class="st15" width="4.8" height="4.8"/>
	
		<rect x="1363.3" y="-278.1" transform="matrix(0.7071 0.7071 -0.7071 0.7071 205.05 -1046.431)" class="st15" width="4.8" height="4.8"/>
	
		<rect x="1304.3" y="-265" transform="matrix(0.7071 0.7071 -0.7071 0.7071 197.0427 -1000.8912)" class="st15" width="4.8" height="4.8"/>
	
		<rect x="1547.8" y="-262" transform="matrix(0.7071 0.7071 -0.7071 0.7071 269.6175 -1171.8678)" class="st15" width="3.1" height="3.1"/>
	
		<rect x="2004.2" y="64.1" transform="matrix(0.7071 0.7071 -0.7071 0.7071 634.7231 -1399.3873)" class="st15" width="4.8" height="4.8"/>
	
		<rect x="2225.8" y="-22.7" transform="matrix(0.7071 0.7071 -0.7071 0.7071 638.2742 -1581.512)" class="st15" width="4.8" height="4.8"/>
	
		<rect x="2369.6" y="-79.6" transform="matrix(0.7071 0.7071 -0.7071 0.7071 639.7411 -1699.7384)" class="st15" width="4" height="4"/>
	
		<rect x="1988.2" y="-149.8" transform="matrix(0.7071 0.7071 -0.7071 0.7071 478.1228 -1450.4186)" class="st15" width="3.4" height="3.4"/>
	
		<rect x="2169.7" y="138.8" transform="matrix(0.7071 0.7071 -0.7071 0.7071 736.0483 -1494.5466)" class="st15" width="4.8" height="4.8"/>
	
		<rect x="2196.7" y="-134" transform="matrix(0.7071 0.7071 -0.7071 0.7071 550.665 -1593.3446)" class="st15" width="4" height="4"/>
	
		<rect x="2036.9" y="-130.7" transform="matrix(0.7071 0.7071 -0.7071 0.7071 506.5854 -1479.5825)" class="st15" width="4.8" height="4.8"/>
	
		<rect x="2386.3" y="-163.6" transform="matrix(0.7071 0.7071 -0.7071 0.7071 585.6395 -1736.2513)" class="st15" width="4.8" height="4.8"/>
	
		<rect x="2076.5" y="56.7" transform="matrix(0.7071 0.7071 -0.7071 0.7071 650.7014 -1452.6526)" class="st15" width="4.8" height="4.8"/>
	
		<rect x="2206.1" y="72" transform="matrix(0.7071 0.7071 -0.7071 0.7071 698.5763 -1539.496)" class="st15" width="3.1" height="3.1"/>
	
		<rect x="2154.5" y="-63" transform="matrix(0.7071 0.7071 -0.7071 0.7071 588.0259 -1542.5494)" class="st15" width="3.1" height="3.1"/>
	
		<rect x="2257.8" y="127.3" transform="matrix(0.7071 0.7071 -0.7071 0.7071 752.8553 -1559.8312)" class="st15" width="3.1" height="3.1"/>
	
		<rect x="2067.8" y="-67.8" transform="matrix(0.7071 0.7071 -0.7071 0.7071 559.4246 -1482.6858)" class="st15" width="3.4" height="3.4"/>
	
		<rect x="2010.3" y="-90.9" transform="matrix(0.7071 0.7071 -0.7071 0.7071 526.2526 -1448.792)" class="st15" width="3.4" height="3.4"/>
	
		<rect x="2374.9" y="116.8" transform="matrix(0.7071 0.7071 -0.7071 0.7071 779.86 -1645.791)" class="st15" width="3.4" height="3.4"/>
	
		<rect x="2345.9" y="-1.2" transform="matrix(0.7071 0.7071 -0.7071 0.7071 687.9496 -1659.8661)" class="st15" width="3.4" height="3.4"/>
	
		<rect x="2232" y="-81.7" transform="matrix(0.7071 0.7071 -0.7071 0.7071 598.4128 -1603.203)" class="st15" width="4.8" height="4.8"/>
	
		<rect x="2201.3" y="-0.4" transform="matrix(0.7071 0.7071 -0.7071 0.7071 646.1946 -1557.3555)" class="st15" width="3.4" height="3.4"/>
	
		<rect x="2037.1" y="-3.6" transform="matrix(0.7071 0.7071 -0.7071 0.7071 596.5279 -1442.4681)" class="st15" width="4.8" height="4.8"/>
	
		<rect x="2455.4" y="-27.2" transform="matrix(0.7071 0.7071 -0.7071 0.7071 702.3589 -1745.1838)" class="st15" width="4.8" height="4.8"/>
	
		<rect x="2430" y="3.5" transform="matrix(0.7071 0.7071 -0.7071 0.7071 715.9099 -1717.951)" class="st15" width="3.4" height="3.4"/>
	
		<rect x="815.2" y="-293.8" transform="matrix(0.7071 0.7071 -0.7071 0.7071 33.4536 -663.4785)" class="st15" width="4.8" height="4.8"/>
	
		<rect x="995.7" y="-288.5" transform="matrix(0.7071 0.7071 -0.7071 0.7071 90.0618 -789.5402)" class="st15" width="4.8" height="4.8"/>
	
		<rect x="705.9" y="-278.8" transform="matrix(0.7071 0.7071 -0.7071 0.7071 12.0072 -581.8288)" class="st15" width="4.8" height="4.8"/>
	
		<rect x="935.4" y="-272.2" transform="matrix(0.7071 0.7071 -0.7071 0.7071 83.1794 -741.8864)" class="st15" width="3.4" height="3.4"/>
	
		<rect x="790.6" y="-271.3" transform="matrix(0.7071 0.7071 -0.7071 0.7071 41.4346 -639.2333)" class="st15" width="3.4" height="3.4"/>
	
		<rect x="1179.6" y="-272.6" transform="matrix(0.7071 0.7071 -0.7071 0.7071 155.1089 -914.9572)" class="st15" width="4.8" height="4.8"/>
	
		<rect x="1019.3" y="-267.4" transform="matrix(0.7071 0.7071 -0.7071 0.7071 111.1374 -799.7903)" class="st15" width="3.4" height="3.4"/>
	
		<rect x="1258.6" y="-173.9" transform="matrix(0.7071 0.7071 -0.7071 0.7071 248.0351 -941.8848)" class="st15" width="4.8" height="4.8"/>
	
		<rect x="1436.5" y="-208.7" transform="matrix(0.7071 0.7071 -0.7071 0.7071 275.5287 -1077.8779)" class="st15" width="4.8" height="4.8"/>
	
		<rect x="698.9" y="-177.7" transform="matrix(0.7071 0.7071 -0.7071 0.7071 81.4177 -547.2557)" class="st15" width="4.8" height="4.8"/>
	
		<rect x="828.5" y="-163.1" transform="matrix(0.7071 0.7071 -0.7071 0.7071 128.8671 -634.2816)" class="st15" width="3.1" height="3.1"/>
	
		<rect x="866.6" y="-194.2" transform="matrix(0.1174 0.9931 -0.9931 0.1174 574.9214 -1032.0948)" class="st15" width="3.1" height="3.1"/>
	
		<rect x="946.5" y="-181.9" transform="matrix(0.7071 0.7071 -0.7071 0.7071 150.2917 -723.231)" class="st15" width="3.4" height="3.4"/>
	
		<rect x="1299" y="-163.8" transform="matrix(0.7071 0.7071 -0.7071 0.7071 267.0695 -967.4905)" class="st15" width="4.8" height="4.8"/>
	
		<rect x="1239.6" y="-228.4" transform="matrix(0.7071 0.7071 -0.7071 0.7071 202.9945 -944.0067)" class="st15" width="2.8" height="2.8"/>
	
		<rect x="1573.4" y="-157.4" transform="matrix(-0.4985 -0.8669 0.8669 -0.4985 2495.1606 1131.8207)" class="st15" width="3.1" height="3.1"/>
	
		<rect x="1949" y="-211.9" transform="matrix(-0.9282 -0.3721 0.3721 -0.9282 3839.3521 320.2055)" class="st15" width="3.1" height="3.1"/>
	
		<rect x="1664.3" y="-193.8" transform="matrix(-0.9282 -0.3721 0.3721 -0.9282 3283.6152 249.1549)" class="st15" width="3.1" height="3.1"/>
	
		<rect x="1771.5" y="-210.5" transform="matrix(0.7071 0.7071 -0.7071 0.7071 372.4445 -1315.2898)" class="st15" width="4.8" height="4.8"/>
	
		<rect x="1715.9" y="-183" transform="matrix(0.7071 0.7071 -0.7071 0.7071 375.5462 -1267.9316)" class="st15" width="4.8" height="4.8"/>
	
		<rect x="2004.2" y="-187.6" transform="matrix(0.7071 0.7071 -0.7071 0.7071 456.793 -1473.1206)" class="st15" width="4.8" height="4.8"/>
	
		<rect x="2076.6" y="-195" transform="matrix(0.7071 0.7071 -0.7071 0.7071 472.7456 -1526.4426)" class="st15" width="4.8" height="4.8"/>
	
		<rect x="2206" y="-179.9" transform="matrix(0.7071 0.7071 -0.7071 0.7071 520.4745 -1613.2268)" class="st15" width="3.1" height="3.1"/>
	
		<rect x="2243.9" y="-211.2" transform="matrix(0.1174 0.9931 -0.9931 0.1174 1773.684 -2414.981)" class="st15" width="3.1" height="3.1"/>
	
		<rect x="2324.1" y="-198.8" transform="matrix(0.7071 0.7071 -0.7071 0.7071 541.8317 -1702.2896)" class="st15" width="3.4" height="3.4"/>
</g>
<linearGradient id="SVGID_10_" gradientUnits="userSpaceOnUse" x1="979.9253" y1="-480.1624" x2="1103.8882" y2="-482.0529" gradientTransform="matrix(0.999 4.384206e-02 4.384206e-02 -0.999 15.0439 -460.0189)">
	<stop  offset="0" style="stop-color:#F2FAFE"/>
	<stop  offset="0.2092" style="stop-color:#F3C187"/>
	<stop  offset="0.4322" style="stop-color:#EB8D80"/>
	<stop  offset="0.4645" style="stop-color:#C77E75"/>
	<stop  offset="0.5125" style="stop-color:#996B66"/>
	<stop  offset="0.5623" style="stop-color:#705A59"/>
	<stop  offset="0.613" style="stop-color:#504C4E"/>
	<stop  offset="0.665" style="stop-color:#364146"/>
	<stop  offset="0.7187" style="stop-color:#243A41"/>
	<stop  offset="0.7754" style="stop-color:#19353D"/>
	<stop  offset="0.8399" style="stop-color:#16343C"/>
</linearGradient>
<path class="st17" d="M980.9,61.1c-2.3-0.1-4.6-0.2-7-0.3l-1.2,0.6l1,0.7c5.3,0.2,10.6,0.4,16,0.6c44.7,2,84.2,5.6,108.6,9.5
	C1075.5,67.6,1031.5,63.4,980.9,61.1z"/>
<linearGradient id="SVGID_11_" gradientUnits="userSpaceOnUse" x1="707.6653" y1="484.8754" x2="1436.5138" y2="512.1099">
	<stop  offset="0" style="stop-color:#2B383F"/>
	<stop  offset="1" style="stop-color:#456171"/>
</linearGradient>
<polygon class="st18" points="1447.1,506 1446.6,505.8 1438.3,504.5 1427.4,499.9 1425,499.1 1437.6,498.4 1453.4,496.8 
	1484.1,491.1 1463.6,491.1 1454.1,491.1 1432.1,489.5 1425.4,490.2 1418.3,489.5 1396.8,490.8 1369,486.2 1340.6,486.9 
	1330.3,489.1 1310.1,487.2 1302.3,484.6 1282.3,486.4 1265.3,486.6 1249.1,484 1222.3,484 1197.1,484 1183.4,478.6 1148.4,478.6 
	1103.1,478.6 1087.4,471.6 1032.6,479.2 990.1,472.1 872.2,474.8 806,459.8 758.9,462.2 690.7,457.2 688.2,456.2 688.2,508 
	870.2,508 948.6,513.5 998.7,524.5 1145.3,518 1205.6,526 1267.3,524.5 1321.3,527 1303.1,520.5 1333.3,521 1349.6,515.5 
	1369.3,512 1374.6,511.2 1415.8,510.8 1441.8,510.8 1444.3,510.8 1447.1,510.5 1459.3,509.5 1455.1,508 "/>
<linearGradient id="SVGID_12_" gradientUnits="userSpaceOnUse" x1="1185.3671" y1="427.7879" x2="1023.3671" y2="571.788">
	<stop  offset="0.1139" style="stop-color:#424F5A"/>
	<stop  offset="1" style="stop-color:#2C3C46"/>
</linearGradient>
<polygon class="st19" points="1491.6,531.8 1456.3,527 1407.6,524.5 1375.1,517.5 1349.6,515.5 1291.6,519.8 1206,505.2 
	1123.8,512.2 1051.3,503.7 988.4,506 937.4,501.5 920.7,493.6 866.7,490.1 823.4,490.1 815.2,494.1 785.7,487.6 760.2,485.8 
	702.2,489.9 688.2,484.9 688.2,555 705.4,547 725.6,549 733.2,577.5 785.6,577.5 882.4,575.5 999.4,577 1157.6,576.5 1213,577 
	1262.5,565.7 1301.3,564.3 1351.3,565.7 1372.6,549.2 1413,545 1470.3,538 1498.8,534 "/>
<linearGradient id="SVGID_13_" gradientUnits="userSpaceOnUse" x1="1929.1383" y1="534.1487" x2="946.347" y2="587.8303">
	<stop  offset="4.998519e-04" style="stop-color:#303D44"/>
	<stop  offset="0.5639" style="stop-color:#34424A"/>
	<stop  offset="0.9715" style="stop-color:#223239"/>
</linearGradient>
<polygon class="st20" points="1306,593.8 1258.6,579.2 1217.3,581 1174.6,565 1102.3,553.5 1036.1,543 958.7,543.5 848,531.2 
	808.4,533.8 808.4,533.5 688.2,525.8 688.2,661.8 795.1,661.8 804.9,661.8 843.4,661.8 867.7,661.8 893.2,661.8 946.7,661.8 
	996.9,661.2 1116.4,644.5 1171.1,641.5 1220.6,633.5 1258,620.2 1290.4,617.5 1307.1,619 1347.1,617 1382.8,612.5 "/>
<polygon class="st14" points="1357,448 1018.3,448 1018.3,454.1 1357,454.1 1361.8,450.9 "/>
</svg>
