<?xml version="1.0" encoding="iso-8859-1"?>
<!-- Generator: Adobe Illustrator 17.1.0, SVG Export Plug-In . SVG Version: 6.00 Build 0)  -->
<!DOCTYPE svg PUBLIC "-//W3C//DTD SVG 1.1//EN" "http://www.w3.org/Graphics/SVG/1.1/DTD/svg11.dtd">
<svg version="1.1" id="Layer_1" xmlns="http://www.w3.org/2000/svg" xmlns:xlink="http://www.w3.org/1999/xlink" x="0px" y="0px"
	 viewBox="0 0 21.492 24.067" style="enable-background:new 0 0 21.492 24.067;" xml:space="preserve">
<g>
	<path style="fill:#231F20;" d="M42.428,279.101v-3.24h0.983v-1.364h-0.983v-4.069h4.173c-0.014,0.365-0.046,0.738-0.09,1.115
		c0.388,0.358,0.796,0.735,1.215,1.121c0.139-0.767,0.216-1.514,0.245-2.236h3.131c-0.108,1.505-0.576,2.912-1.313,4.138
		c0.348,0.32,0.691,0.636,1.026,0.944c1.061-1.666,1.678-3.642,1.678-5.763c0-5.935-4.811-10.746-10.746-10.746
		C35.812,259,31,263.811,31,269.746c0,2.256,0.697,4.349,1.885,6.078v0.037h0.025c1.941,2.798,5.173,4.631,8.836,4.631
		c0.565,0,1.122-0.045,1.664-0.128v-1.388C43.088,279.034,42.761,279.077,42.428,279.101z M49.866,265.055
		c0.693,1.196,1.13,2.558,1.235,4.01h-3.137c-0.069-1.47-0.333-2.819-0.691-4.01H49.866z M48.905,263.691h-2.103
		c-0.388-0.991-0.816-1.831-1.202-2.496C46.88,261.775,48.008,262.632,48.905,263.691z M42.428,260.392
		c0.377,0.027,0.749,0.075,1.112,0.146c0.305,0.411,1.076,1.527,1.77,3.153h-2.882V260.392z M42.428,265.055h3.396
		c0.386,1.173,0.683,2.526,0.765,4.01h-4.161V265.055z M37.99,261.151c-0.39,0.669-0.829,1.525-1.224,2.539h-2.178
		C35.507,262.605,36.669,261.73,37.99,261.151z M33.626,265.055h2.67c-0.059,0.194-0.115,0.392-0.168,0.593
		c-0.261,0.995-0.464,2.147-0.523,3.417h-3.213C32.496,267.612,32.933,266.25,33.626,265.055z M33.66,274.497
		c-0.713-1.21-1.162-2.592-1.269-4.069H35.6c0.049,1.271,0.254,2.637,0.689,4.069H33.66z M34.639,275.861h2.126
		c0.321,0.809,0.722,1.635,1.208,2.473C36.684,277.765,35.547,276.915,34.639,275.861z M41.064,279.101
		c-0.365-0.027-0.724-0.073-1.077-0.141c-0.707-1.019-1.291-2.053-1.752-3.1h2.83V279.101z M41.064,274.497h-3.36
		c-0.45-1.338-0.702-2.696-0.756-4.069h4.116V274.497z M41.064,269.065h-4.106c0.055-0.999,0.213-2.005,0.475-3.017
		c0.089-0.344,0.188-0.675,0.292-0.993h3.339V269.065z M41.064,263.691h-2.823c0.704-1.641,1.49-2.767,1.79-3.167
		c0.338-0.062,0.683-0.107,1.033-0.132V263.691z"/>
	<path style="fill:#231F20;" d="M51.624,278.231l-6.964-6.334v0l0,0v0l-0.006,9.414l2.418-1.626l1.495,3.383l1.72-0.76l-1.494-3.383
		L51.624,278.231z"/>
</g>
<g>
	<path style="fill:#58666E;" d="M11.428,20.101v-3.24h0.983v-1.364h-0.983v-4.069h4.173c-0.014,0.365-0.046,0.738-0.09,1.115
		c0.388,0.358,0.796,0.735,1.215,1.121c0.139-0.767,0.216-1.514,0.245-2.236h3.131c-0.108,1.505-0.576,2.912-1.313,4.138
		c0.348,0.32,0.691,0.636,1.026,0.944c1.061-1.666,1.678-3.642,1.678-5.763C21.492,4.811,16.681,0,10.747,0
		C4.812,0,0,4.811,0,10.746c0,2.256,0.697,4.349,1.885,6.078v0.037h0.025c1.941,2.798,5.173,4.631,8.836,4.631
		c0.565,0,1.122-0.045,1.664-0.128v-1.388C12.088,20.034,11.761,20.077,11.428,20.101z M18.866,6.055
		c0.693,1.196,1.13,2.558,1.235,4.01h-3.137c-0.069-1.47-0.333-2.819-0.691-4.01H18.866z M17.905,4.691h-2.103
		c-0.388-0.991-0.816-1.831-1.202-2.496C15.88,2.775,17.008,3.632,17.905,4.691z M11.428,1.392c0.377,0.027,0.749,0.075,1.112,0.146
		c0.305,0.411,1.076,1.527,1.77,3.153h-2.882V1.392z M11.428,6.055h3.396c0.386,1.173,0.683,2.526,0.765,4.01h-4.161V6.055z
		 M6.99,2.151C6.6,2.821,6.161,3.677,5.766,4.691H3.587C4.507,3.605,5.669,2.73,6.99,2.151z M2.626,6.055h2.67
		C5.237,6.249,5.181,6.446,5.128,6.648c-0.261,0.995-0.464,2.147-0.523,3.417H1.391C1.496,8.612,1.933,7.251,2.626,6.055z
		 M2.66,15.497c-0.713-1.21-1.162-2.592-1.269-4.069H4.6c0.049,1.271,0.254,2.637,0.689,4.069H2.66z M3.639,16.861h2.126
		c0.321,0.809,0.722,1.635,1.208,2.473C5.684,18.765,4.547,17.915,3.639,16.861z M10.064,20.101
		c-0.365-0.027-0.724-0.073-1.077-0.141c-0.707-1.019-1.291-2.053-1.752-3.1h2.83V20.101z M10.064,15.497h-3.36
		c-0.45-1.338-0.702-2.696-0.756-4.069h4.116V15.497z M10.064,10.064H5.958C6.013,9.066,6.171,8.06,6.433,7.048
		c0.089-0.344,0.188-0.675,0.292-0.993h3.339V10.064z M10.064,4.691H7.241c0.704-1.641,1.49-2.767,1.79-3.167
		c0.338-0.062,0.683-0.107,1.033-0.132V4.691z"/>
	<path style="fill:#58666E;" d="M20.624,19.231l-6.964-6.334v-0.001l0,0v0.001l-0.006,9.414l2.418-1.626l1.495,3.383l1.72-0.76
		l-1.494-3.383L20.624,19.231z"/>
</g>
</svg>
