<?xml version="1.0" encoding="utf-8"?>
<!-- Generator: Adobe Illustrator 19.1.0, SVG Export Plug-In . SVG Version: 6.00 Build 0)  -->
<svg version="1.1" id="Layer_1" xmlns="http://www.w3.org/2000/svg" xmlns:xlink="http://www.w3.org/1999/xlink" x="0px" y="0px"
	 width="300px" height="300px" viewBox="40.7 -15 300 300" style="enable-background:new 40.7 -15 300 300;" xml:space="preserve">
<style type="text/css">
	.st0{fill:#E8E8E8;}
	.st1{fill:none;stroke:#738083;stroke-width:10.4437;stroke-linecap:round;stroke-miterlimit:10;}
	.st2{fill:#8E8E8E;}
	.st3{fill:#738083;}
</style>
<path class="st0" d="M240.9,46H103.6c-2.4,0-4.4,2-4.4,4.4v230.2c0,2.4,2,4.4,4.4,4.4h176c2.4,0,4.4-2,4.4-4.4V88.8"/>
<g>
	<path class="st1" d="M257.3,135.5"/>
	<path class="st1" d="M125.7,135.5"/>
</g>
<path class="st2" d="M240.7,46v36.7c0,3.1,2.6,5.7,5.7,5.7h36.7h0.9L240.7,46z"/>
<g>
	<path class="st3" d="M138.7,125.5l-3.9-7.1h-3.1v7.1h-4.3v-20.1h9.4c4.2,0,6.8,2.7,6.8,6.5c0,3.5-2.3,5.4-4.4,6l4.5,7.6H138.7z
		 M139.1,111.9c0-1.7-1.3-2.7-3-2.7h-4.5v5.4h4.5C137.8,114.6,139.1,113.6,139.1,111.9z"/>
	<path class="st3" d="M148.9,125.5v-20.1h14.2v3.8h-9.9v4.2h9.7v3.8h-9.7v4.6h9.9v3.8H148.9z"/>
	<path class="st3" d="M167.4,122.7l2.3-3.3c1.4,1.5,3.6,2.7,6.4,2.7c2.4,0,3.5-1.1,3.5-2.2c0-3.5-11.6-1.1-11.6-8.6
		c0-3.3,2.9-6.1,7.6-6.1c3.2,0,5.8,1,7.8,2.8l-2.4,3.2c-1.6-1.5-3.8-2.2-5.8-2.2c-1.8,0-2.8,0.8-2.8,2c0,3.2,11.5,1,11.5,8.5
		c0,3.7-2.6,6.4-8,6.4C172,125.9,169.3,124.6,167.4,122.7z"/>
	<path class="st3" d="M189.1,117.5v-12h4.3v11.9c0,2.8,1.6,4.7,4.7,4.7s4.7-1.9,4.7-4.7v-11.9h4.4v12c0,5-2.9,8.4-9.1,8.4
		C192,125.9,189.1,122.5,189.1,117.5z"/>
	<path class="st3" d="M230.9,125.5v-14.5l-5.7,14.5h-1.9l-5.7-14.5v14.5h-4.3v-20.1h6l4.9,12.6l4.9-12.6h6v20.1H230.9z"/>
	<path class="st3" d="M241.4,125.5v-20.1h14.2v3.8h-9.9v4.2h9.7v3.8h-9.7v4.6h9.9v3.8H241.4z"/>
</g>
<g>
	<g>
		<g>
			<path class="st3" d="M251.3,164.2H144.8c-2.7,0-4.9-2.2-4.9-4.9s2.2-4.9,4.9-4.9h106.5c2.7,0,4.9,2.2,4.9,4.9
				S254,164.2,251.3,164.2z"/>
		</g>
	</g>
	<g>
		<g>
			<path class="st3" d="M257.3,193H144.8c-2.7,0-4.9-2.2-4.9-4.9s2.2-4.9,4.9-4.9h112.5c2.7,0,4.9,2.2,4.9,4.9S260,193,257.3,193z"
				/>
		</g>
	</g>
	<g>
		<g>
			<path class="st3" d="M245.5,221.5H144.8c-2.7,0-4.9-2.2-4.9-4.9c0-2.7,2.2-4.9,4.9-4.9h100.7c2.7,0,4.9,2.2,4.9,4.9
				C250.4,219.4,248.2,221.5,245.5,221.5z"/>
		</g>
	</g>
	<g>
		<g>
			<path class="st3" d="M127.3,164.2c-1.3,0-2.5-0.5-3.5-1.4c-0.9-0.9-1.4-2.2-1.4-3.5c0-1.3,0.5-2.5,1.4-3.5
				c0.9-0.9,2.2-1.4,3.5-1.4c1.3,0,2.5,0.5,3.5,1.4c0.9,0.9,1.4,2.2,1.4,3.5c0,1.3-0.5,2.5-1.4,3.5
				C129.9,163.7,128.6,164.2,127.3,164.2z"/>
		</g>
	</g>
	<g>
		<g>
			<path class="st3" d="M127.3,193c-1.3,0-2.5-0.5-3.5-1.4c-0.9-0.9-1.4-2.2-1.4-3.5c0-1.3,0.5-2.5,1.4-3.5c0.9-0.9,2.2-1.4,3.5-1.4
				c1.3,0,2.5,0.5,3.5,1.4c0.9,0.9,1.4,2.2,1.4,3.5c0,1.3-0.5,2.5-1.4,3.5C129.9,192.5,128.6,193,127.3,193z"/>
		</g>
	</g>
	<g>
		<g>
			<path class="st3" d="M127.3,221.5c-1.3,0-2.5-0.5-3.5-1.4c-0.9-0.9-1.4-2.2-1.4-3.5c0-1.3,0.5-2.5,1.4-3.5
				c0.9-0.9,2.2-1.4,3.5-1.4c1.3,0,2.5,0.5,3.5,1.4c0.9,0.9,1.4,2.2,1.4,3.5c0,1.3-0.5,2.5-1.4,3.5
				C129.9,221,128.6,221.5,127.3,221.5z"/>
		</g>
	</g>
</g>
</svg>
