<?xml version="1.0" encoding="utf-8"?>
<!-- Generator: Adobe Illustrator 19.1.0, SVG Export Plug-In . SVG Version: 6.00 Build 0)  -->
<svg version="1.1" id="Layer_1" xmlns="http://www.w3.org/2000/svg" xmlns:xlink="http://www.w3.org/1999/xlink" x="0px" y="0px"
	 width="300px" height="300px" viewBox="67.5 -15 300 300" style="enable-background:new 67.5 -15 300 300;" xml:space="preserve">
<style type="text/css">
	.st0{fill:#8E8E8E;}
	.st1{fill:#FFFFFF;}
	.st2{fill:#738083;}
	.st3{fill:#B2B2B2;}
</style>
<path class="st0" d="M302,29.9H133.9c-7.4,0-13.4,6-13.4,13.4v217.6c0,7.4,6,13.4,13.4,13.4H302c7.4,0,13.4-6,13.4-13.4V43.3
	C315.5,35.9,309.4,29.9,302,29.9z"/>
<path class="st1" d="M298.5,251.9c0,3.8-2.9,6.7-6.7,6.7H144c-3.6,0-6.7-2.9-6.7-6.7V52.4c0-3.6,3.1-6.7,6.7-6.7h147.8
	c3.8,0,6.7,3.1,6.7,6.7V251.9L298.5,251.9z"/>
<path class="st2" d="M196,102.2h84c2.5,0,4.4-2,4.4-4.6c0-2.5-2-4.6-4.5-4.6h-84c-2.5,0-4.5,2-4.5,4.6S193.5,102.2,196,102.2z"/>
<path class="st2" d="M196,120.5h43.3c2.5,0,4.4-2,4.4-4.6c0-2.5-2-4.6-4.5-4.6H196c-2.5,0-4.5,2-4.5,4.6S193.5,120.5,196,120.5z"/>
<path class="st2" d="M279.9,148.3h-84c-2.5,0-4.5,2-4.5,4.6c0,2.5,2,4.6,4.5,4.6h84c2.5,0,4.4-2,4.4-4.6
	C284.4,150.3,282.4,148.3,279.9,148.3z"/>
<path class="st2" d="M265.1,167H196c-2.5,0-4.5,2-4.5,4.6c0,2.5,2,4.6,4.5,4.6h69.2c1.2,0,2.3-0.5,3.2-1.3c0.8-0.9,1.3-2,1.2-3.2
	C269.5,169,267.5,167,265.1,167z"/>
<g>
	<path class="st2" d="M159.6,119.8l-10.5-11.5c-1.3-1.5-1-3.6,0.8-4.7c1.8-1.1,4.2-0.9,5.5,0.7l4.4,4.7l16.3-16.6
		c1.3-1.4,3.9-1.5,5.5-0.5c1.6,1.1,1.8,3.4,0.5,4.7L159.6,119.8z"/>
</g>
<g>
	<path class="st2" d="M160.5,175.8l-10.5-11.5c-1.3-1.5-1-3.6,0.8-4.7c1.8-1.1,4.2-0.9,5.5,0.7l4.4,4.9l16.3-16.6
		c1.3-1.4,3.9-1.5,5.5-0.5c1.6,1.1,1.8,3.4,0.5,4.7L160.5,175.8z"/>
</g>
<path class="st3" d="M277.4,44.1c-17.1,0-31.1-12.7-33.5-23c-0.9-13.4-12.1-24-25.7-24c-13.7,0-25,10.7-25.8,24.3
	c-2.3,10.2-16.5,22.8-33.5,22.8L154.4,65H282L277.4,44.1z M218.9,15.9c3.8,0,7,3.1,7,7c0,3.9-3.1,7-7,7c-3.8,0-7-3.1-7-7
	C211.9,19,215.1,15.9,218.9,15.9z"/>
<g>
	<path class="st2" d="M266.9,204h-71c-2.5,0-4.5,2-4.5,4.6c0,2.5,2,4.6,4.5,4.6h71c2.5,0,4.4-2,4.4-4.6
		C271.4,206,269.4,204,266.9,204z"/>
	<path class="st2" d="M274.4,222.7H196c-2.5,0-4.5,2-4.5,4.6c0,2.5,2,4.6,4.5,4.6h78.5c1.2,0,2.3-0.5,3.2-1.3c0.8-0.9,1.3-2,1.2-3.2
		C278.8,224.7,276.8,222.7,274.4,222.7z"/>
</g>
<g>
	<path class="st2" d="M160.5,231.5l-10.5-11.5c-1.3-1.5-1-3.6,0.8-4.7c1.8-1.1,4.2-0.9,5.5,0.7l4.4,4.9l16.3-16.6
		c1.3-1.4,3.9-1.5,5.5-0.5c1.6,1.1,1.8,3.4,0.5,4.7L160.5,231.5z"/>
</g>
</svg>
