<?xml version="1.0" encoding="utf-8"?>
<!-- Generator: Adobe Illustrator 19.1.0, SVG Export Plug-In . SVG Version: 6.00 Build 0)  -->
<svg version="1.1" id="Layer_1" xmlns="http://www.w3.org/2000/svg" xmlns:xlink="http://www.w3.org/1999/xlink" x="0px" y="0px"
	 width="300px" height="300px" viewBox="156.2 -15 300 300" style="enable-background:new 156.2 -15 300 300;" xml:space="preserve"
	>
<style type="text/css">
	.st0{fill:#8E8E8E;}
	.st1{fill:#FFFFFF;}
	.st2{fill:#738083;}
	.st3{fill:#E5E5E5;}
	.st4{fill:#B2B2B2;}
</style>
<path class="st0" d="M416.3,48.3H196.4c-6.7,0-12.1,5.4-12.1,12v153.4c0,6.6,5.4,11.9,12.1,11.9h220c6.7,0,12.1-5.4,12.1-11.9V60
	C428.5,53.5,423.1,48.3,416.3,48.3z"/>
<rect x="199.1" y="63.1" class="st1" width="214.7" height="147.5"/>
<g>
	<g>
		<path class="st2" d="M304.8,91.1c9.6-1.4,17.5,6.5,16.2,16.2c-0.9,6-5.7,10.8-11.6,11.6c-9.6,1.4-17.5-6.5-16.2-16.2
			C294,96.9,298.8,92.1,304.8,91.1z"/>
	</g>
</g>
<polygon class="st3" points="402.3,239.7 402.3,239.7 383.4,199.1 364.5,208 383.4,248.6 389.9,237.9 "/>
<polygon class="st4" points="402.3,239.7 402.3,239.7 383.4,199.1 364.5,208 383.4,248.6 389.9,237.9 "/>
<polygon class="st4" points="369.9,249.2 369.9,249.2 384,206.6 364.3,200.1 350,242.6 362.2,239.2 "/>
<g>
	<path class="st2" d="M404.5,199.4c0.1,1.4-3.1,2.6-3.2,4c-0.1,1.4,2.6,3.1,2.3,4.5c-0.3,1.2-3.6,1.7-4.2,2.8
		c-0.6,1.3,1.6,3.8,0.9,4.9c-0.7,1.1-4,0.5-4.9,1.6c-0.9,1.1,0.5,4.1-0.4,5.1c-1.1,0.9-3.9-0.6-5.1,0.2c-1,0.8-0.6,4-1.8,4.7
		c-1.2,0.6-3.6-1.7-4.8-1.3c-1.2,0.3-1.9,3.8-3.1,4c-1.2,0.2-3-2.6-4.2-2.6c-1.4,0.1-2.8,3-4.1,2.9c-1.4-0.1-2.1-3.5-3.4-3.7
		c-1.2-0.3-3.6,2.1-4.7,1.7c-1.3-0.6-1-3.8-2.2-4.5c-1.1-0.7-4,1-5.1,0.2c-1.1-0.9,0-4-0.8-5c-0.9-1.1-4.1-0.1-5-1.2
		c-0.8-1,1.2-3.9,0.6-4.9c-0.6-1.2-3.9-1.2-4.4-2.4c-0.3-1.2,2.2-3.3,2-4.7c-0.4-1.4-3.6-2.3-3.6-3.7c-0.1-1.4,3.1-2.6,3.2-4
		c0.1-1.4-2.6-3.1-2.3-4.5c0.3-1.2,3.6-1.7,4.2-2.8c0.6-1.3-1.6-3.8-0.9-4.9c0.7-1.1,4-0.5,4.9-1.6s-0.5-4.1,0.4-5.1
		c1.1-0.9,3.9,0.6,5.1-0.2c1-0.8,0.6-4,1.8-4.7s3.6,1.7,4.8,1.3c1.2-0.3,1.9-3.8,3.1-4c1.2-0.2,3,2.6,4.2,2.6c1.4-0.1,2.8-3,4.1-2.9
		c1.4,0.1,2.1,3.5,3.4,3.7s3.6-2.1,4.7-1.7c1.3,0.6,1,3.8,2.2,4.5c1.1,0.7,4-1,5.1-0.2c1.1,0.9,0,4,0.8,5c0.9,1.1,4.1,0.1,5,1.2
		c0.8,1-1.2,3.9-0.6,4.9c0.6,1.2,3.9,1.2,4.4,2.4c0.3,1.2-2.2,3.3-2,4.7C401.3,197.1,404.4,198,404.5,199.4z"/>
</g>
<g>
	<path class="st2" d="M375.8,110.7h-37.7c-3.1,0-5.7-2.5-5.7-5.7c0-3.1,2.5-5.7,5.7-5.7h37.7c3.1,0,5.7,2.5,5.7,5.7
		C381.5,108.2,378.9,110.7,375.8,110.7z"/>
</g>
<g>
	<path class="st2" d="M374.7,143.2H239.4c-3.1,0-5.7-2.5-5.7-5.7c0-3.1,2.5-5.7,5.7-5.7h135.3c3.1,0,5.7,2.5,5.7,5.7
		C380.3,140.7,377.8,143.2,374.7,143.2z"/>
</g>
<g>
	<path class="st2" d="M347,171.2h-79.9c-3.1,0-5.7-2.5-5.7-5.7c0-3.1,2.5-5.7,5.7-5.7H347c3.1,0,5.7,2.5,5.7,5.7
		C352.6,168.7,350.1,171.2,347,171.2z"/>
</g>
<g>
	<path class="st2" d="M276.3,110.7h-37.7c-3.1,0-5.7-2.5-5.7-5.7c0-3.1,2.5-5.7,5.7-5.7h37.7c3.1,0,5.7,2.5,5.7,5.7
		C282,108.2,279.5,110.7,276.3,110.7z"/>
</g>
</svg>
