<?xml version="1.0" encoding="utf-8"?>
<!-- Generator: Adobe Illustrator 17.0.0, SVG Export Plug-In . SVG Version: 6.00 Build 0)  -->
<!DOCTYPE svg PUBLIC "-//W3C//DTD SVG 1.1//EN" "http://www.w3.org/Graphics/SVG/1.1/DTD/svg11.dtd">
<svg version="1.1" id="Layer_1" xmlns="http://www.w3.org/2000/svg" xmlns:xlink="http://www.w3.org/1999/xlink" x="0px" y="0px"
	 width="253px" height="253px" viewBox="0 0 253 253" enable-background="new 0 0 253 253" xml:space="preserve">
<g>
	<circle fill="#074E68" cx="126.053" cy="125.908" r="126"/>
	<g opacity="0.5" enable-background="new    ">
		<g>
			<g>
				<defs>
					<circle id="SVGID_1_" cx="125.656" cy="125.636" r="126"/>
				</defs>
				<clipPath id="SVGID_2_">
					<use xlink:href="#SVGID_1_"  overflow="visible"/>
				</clipPath>
				<g clip-path="url(#SVGID_2_)">
					<g>
						
							<line fill="none" stroke="#FFFFFF" stroke-width="0.5" stroke-miterlimit="10" x1="219.855" y1="344.215" x2="219.855" y2="-78.346"/>
						
							<line fill="none" stroke="#FFFFFF" stroke-width="0.5" stroke-miterlimit="10" x1="202.764" y1="344.215" x2="202.764" y2="-78.346"/>
						
							<line fill="none" stroke="#FFFFFF" stroke-width="0.5" stroke-miterlimit="10" x1="236.946" y1="343.789" x2="236.946" y2="-78.771"/>
						
							<line fill="none" stroke="#FFFFFF" stroke-width="0.5" stroke-miterlimit="10" x1="254.037" y1="344.215" x2="254.037" y2="-78.346"/>
						
							<line fill="none" stroke="#FFFFFF" stroke-width="0.5" stroke-miterlimit="10" x1="151.491" y1="344.215" x2="151.491" y2="-78.346"/>
						
							<line fill="none" stroke="#FFFFFF" stroke-width="0.5" stroke-miterlimit="10" x1="134.4" y1="344.215" x2="134.4" y2="-78.346"/>
						
							<line fill="none" stroke="#FFFFFF" stroke-width="0.5" stroke-miterlimit="10" x1="168.582" y1="343.789" x2="168.582" y2="-78.771"/>
						
							<line fill="none" stroke="#FFFFFF" stroke-width="0.5" stroke-miterlimit="10" x1="185.673" y1="344.215" x2="185.673" y2="-78.346"/>
						
							<line fill="none" stroke="#FFFFFF" stroke-width="0.5" stroke-miterlimit="10" x1="83.485" y1="344.428" x2="83.485" y2="-78.133"/>
						
							<line fill="none" stroke="#FFFFFF" stroke-width="0.5" stroke-miterlimit="10" x1="66.394" y1="346.095" x2="66.394" y2="-76.466"/>
						
							<line fill="none" stroke="#FFFFFF" stroke-width="0.5" stroke-miterlimit="10" x1="100.576" y1="344.002" x2="100.576" y2="-78.558"/>
						
							<line fill="none" stroke="#FFFFFF" stroke-width="0.5" stroke-miterlimit="10" x1="117.667" y1="344.428" x2="117.667" y2="-78.133"/>
						
							<line fill="none" stroke="#FFFFFF" stroke-width="0.5" stroke-miterlimit="10" x1="15.121" y1="344.428" x2="15.121" y2="-78.133"/>
						
							<line fill="none" stroke="#FFFFFF" stroke-width="0.5" stroke-miterlimit="10" x1="-1.97" y1="344.428" x2="-1.97" y2="-78.133"/>
						
							<line fill="none" stroke="#FFFFFF" stroke-width="0.5" stroke-miterlimit="10" x1="32.212" y1="344.002" x2="32.212" y2="-78.558"/>
						
							<line fill="none" stroke="#FFFFFF" stroke-width="0.5" stroke-miterlimit="10" x1="49.303" y1="344.428" x2="49.303" y2="-78.133"/>
					</g>
					<g>
						
							<line fill="none" stroke="#FFFFFF" stroke-width="0.5" stroke-miterlimit="10" x1="-76.987" y1="219.349" x2="345.574" y2="219.349"/>
						
							<line fill="none" stroke="#FFFFFF" stroke-width="0.5" stroke-miterlimit="10" x1="-76.987" y1="202.258" x2="345.574" y2="202.258"/>
						
							<line fill="none" stroke="#FFFFFF" stroke-width="0.5" stroke-miterlimit="10" x1="-76.561" y1="236.44" x2="346" y2="236.44"/>
						
							<line fill="none" stroke="#FFFFFF" stroke-width="0.5" stroke-miterlimit="10" x1="-76.987" y1="253.531" x2="345.574" y2="253.531"/>
						
							<line fill="none" stroke="#FFFFFF" stroke-width="0.5" stroke-miterlimit="10" x1="-76.987" y1="150.985" x2="345.574" y2="150.985"/>
						
							<line fill="none" stroke="#FFFFFF" stroke-width="0.5" stroke-miterlimit="10" x1="-76.987" y1="133.894" x2="345.574" y2="133.894"/>
						
							<line fill="none" stroke="#FFFFFF" stroke-width="0.5" stroke-miterlimit="10" x1="-76.561" y1="168.076" x2="346" y2="168.076"/>
						
							<line fill="none" stroke="#FFFFFF" stroke-width="0.5" stroke-miterlimit="10" x1="-76.987" y1="185.167" x2="345.574" y2="185.167"/>
						
							<line fill="none" stroke="#FFFFFF" stroke-width="0.5" stroke-miterlimit="10" x1="-77.2" y1="82.979" x2="345.361" y2="82.979"/>
						
							<line fill="none" stroke="#FFFFFF" stroke-width="0.5" stroke-miterlimit="10" x1="-77.2" y1="65.888" x2="345.361" y2="65.888"/>
						
							<line fill="none" stroke="#FFFFFF" stroke-width="0.5" stroke-miterlimit="10" x1="-76.774" y1="100.07" x2="345.787" y2="100.07"/>
						
							<line fill="none" stroke="#FFFFFF" stroke-width="0.5" stroke-miterlimit="10" x1="-77.2" y1="117.161" x2="345.361" y2="117.161"/>
						
							<line fill="none" stroke="#FFFFFF" stroke-width="0.5" stroke-miterlimit="10" x1="-77.2" y1="14.615" x2="345.361" y2="14.615"/>
						
							<line fill="none" stroke="#FFFFFF" stroke-width="0.5" stroke-miterlimit="10" x1="-77.2" y1="-2.476" x2="345.361" y2="-2.476"/>
						
							<line fill="none" stroke="#FFFFFF" stroke-width="0.5" stroke-miterlimit="10" x1="-76.774" y1="31.706" x2="345.787" y2="31.706"/>
						
							<line fill="none" stroke="#FFFFFF" stroke-width="0.5" stroke-miterlimit="10" x1="-77.2" y1="48.797" x2="345.361" y2="48.797"/>
					</g>
				</g>
			</g>
		</g>
	</g>
</g>
<g>
	<g>
		<g>
			
				<rect x="58.053" y="78.105" fill="none" stroke="#FFFFFF" stroke-width="3" stroke-miterlimit="10" width="136.037" height="94.172"/>
		</g>
	</g>
	<g enable-background="new    ">
		<path fill="#FFFFFF" d="M65.292,93.312v-8h5.661v1.5h-3.958v1.679h3.874v1.499h-3.874v3.322H65.292z"/>
		<path fill="#FFFFFF" d="M71.76,89.317c0-2.41,1.763-4.138,4.186-4.138c2.411,0,4.174,1.728,4.174,4.138
			c0,2.411-1.763,4.138-4.174,4.138C73.523,93.455,71.76,91.729,71.76,89.317z M78.368,89.317c0-1.499-0.947-2.626-2.423-2.626
			c-1.487,0-2.435,1.127-2.435,2.626c0,1.487,0.948,2.627,2.435,2.627C77.421,91.944,78.368,90.805,78.368,89.317z"/>
		<path fill="#FFFFFF" d="M85.845,93.312l-1.571-2.843h-1.248v2.843h-1.703v-8h3.742c1.667,0,2.698,1.092,2.698,2.579
			c0,1.403-0.899,2.171-1.763,2.375l1.811,3.046H85.845z M86.013,87.879c0-0.66-0.516-1.067-1.188-1.067h-1.799v2.158h1.799
			C85.498,88.97,86.013,88.562,86.013,87.879z"/>
		<path fill="#FFFFFF" d="M89.04,90.109v-4.798h1.727v4.75c0,1.115,0.647,1.883,1.883,1.883s1.871-0.768,1.871-1.883v-4.75h1.739
			v4.798c0,1.979-1.175,3.346-3.61,3.346C90.215,93.455,89.04,92.088,89.04,90.109z"/>
		<path fill="#FFFFFF" d="M104.803,93.312v-5.769l-2.254,5.769h-0.744l-2.255-5.769v5.769h-1.703v-8h2.387l1.943,5.002l1.943-5.002
			h2.399v8H104.803z"/>
	</g>
	<g>
		
			<rect x="67.5" y="109.797" fill="none" stroke="#FFFFFF" stroke-width="3" stroke-miterlimit="10" width="20.035" height="12.798"/>
		<rect x="93.64" y="109.823" fill="#FFFFFF" width="29" height="3"/>
		<rect x="93.64" y="115.57" fill="#FFFFFF" width="36.215" height="3"/>
	</g>
	<g>
		
			<rect x="67.5" y="130.69" fill="none" stroke="#FFFFFF" stroke-width="3" stroke-miterlimit="10" width="20.035" height="12.798"/>
		<rect x="93.64" y="130.716" fill="#FFFFFF" width="29" height="3"/>
		<rect x="93.64" y="136.463" fill="#FFFFFF" width="36.215" height="3"/>
	</g>
	<rect x="58.052" y="98.823" fill="#FFFFFF" width="136.448" height="3"/>
	<rect x="174.5" y="87.645" fill="#FFFFFF" width="11.64" height="3"/>
	<rect x="157.5" y="87.645" fill="#FFFFFF" width="11.64" height="3"/>
	<rect x="140.18" y="87.645" fill="#FFFFFF" width="11.64" height="3"/>
	<rect x="157.5" y="110.449" fill="#FFFFFF" width="22.252" height="3"/>
	<rect x="157.5" y="116.196" fill="#FFFFFF" width="27.788" height="3"/>
	<rect x="157.5" y="121.943" fill="#FFFFFF" width="22.252" height="3"/>
	<rect x="157.5" y="127.691" fill="#FFFFFF" width="27.788" height="3"/>
	<g>
		
			<rect x="67.5" y="151.583" fill="none" stroke="#FFFFFF" stroke-width="3" stroke-miterlimit="10" width="20.035" height="12.798"/>
		<rect x="93.64" y="151.608" fill="#FFFFFF" width="29" height="3"/>
		<rect x="93.64" y="157.356" fill="#FFFFFF" width="36.215" height="3"/>
	</g>
</g>
<g>
	<line fill="none" stroke="#FFFFFF" stroke-miterlimit="10" x1="203.11" y1="171.391" x2="203.11" y2="78.151"/>
	<polygon fill="#FFFFFF" points="203.11,174.308 200.193,171.391 206.027,171.391 	"/>
	<polygon fill="#FFFFFF" points="203.11,76.692 206.027,79.609 200.193,79.609 	"/>
</g>
<g>
	<line fill="none" stroke="#FFFFFF" stroke-miterlimit="10" x1="193.226" y1="182.583" x2="59.052" y2="182.583"/>
	<polygon fill="#FFFFFF" points="194.685,182.583 191.768,185.5 191.768,179.666 	"/>
	<polygon fill="#FFFFFF" points="58.052,182.583 60.969,179.666 60.969,185.5 	"/>
</g>
</svg>
