<?xml version="1.0" encoding="utf-8"?>
<!-- Generator: Adobe Illustrator 17.0.0, SVG Export Plug-In . SVG Version: 6.00 Build 0)  -->
<!DOCTYPE svg PUBLIC "-//W3C//DTD SVG 1.1//EN" "http://www.w3.org/Graphics/SVG/1.1/DTD/svg11.dtd">
<svg version="1.1" id="Layer_1" xmlns="http://www.w3.org/2000/svg" xmlns:xlink="http://www.w3.org/1999/xlink" x="0px" y="0px"
	 width="253px" height="253px" viewBox="0 0 253 253" enable-background="new 0 0 253 253" xml:space="preserve">
<g>
	<g>
		<circle fill="#074E68" cx="127.053" cy="126.636" r="126"/>
		<g opacity="0.5" enable-background="new    ">
			<g>
				<defs>
					<circle id="SVGID_1_" cx="126.656" cy="126.364" r="126"/>
				</defs>
				<clipPath id="SVGID_2_">
					<use xlink:href="#SVGID_1_"  overflow="visible"/>
				</clipPath>
				<g clip-path="url(#SVGID_2_)">
					<g>
						
							<line fill="none" stroke="#FFFFFF" stroke-width="0.5" stroke-miterlimit="10" x1="220.855" y1="344.944" x2="220.855" y2="-77.617"/>
						
							<line fill="none" stroke="#FFFFFF" stroke-width="0.5" stroke-miterlimit="10" x1="203.764" y1="344.944" x2="203.764" y2="-77.617"/>
						
							<line fill="none" stroke="#FFFFFF" stroke-width="0.5" stroke-miterlimit="10" x1="237.946" y1="344.518" x2="237.946" y2="-78.043"/>
						
							<line fill="none" stroke="#FFFFFF" stroke-width="0.5" stroke-miterlimit="10" x1="255.037" y1="344.944" x2="255.037" y2="-77.617"/>
						
							<line fill="none" stroke="#FFFFFF" stroke-width="0.5" stroke-miterlimit="10" x1="152.491" y1="344.944" x2="152.491" y2="-77.617"/>
						
							<line fill="none" stroke="#FFFFFF" stroke-width="0.5" stroke-miterlimit="10" x1="135.4" y1="344.944" x2="135.4" y2="-77.617"/>
						
							<line fill="none" stroke="#FFFFFF" stroke-width="0.5" stroke-miterlimit="10" x1="169.582" y1="344.518" x2="169.582" y2="-78.043"/>
						
							<line fill="none" stroke="#FFFFFF" stroke-width="0.5" stroke-miterlimit="10" x1="186.673" y1="344.944" x2="186.673" y2="-77.617"/>
						
							<line fill="none" stroke="#FFFFFF" stroke-width="0.5" stroke-miterlimit="10" x1="84.485" y1="345.156" x2="84.485" y2="-77.404"/>
						
							<line fill="none" stroke="#FFFFFF" stroke-width="0.5" stroke-miterlimit="10" x1="67.394" y1="346.823" x2="67.394" y2="-75.738"/>
						
							<line fill="none" stroke="#FFFFFF" stroke-width="0.5" stroke-miterlimit="10" x1="101.576" y1="344.731" x2="101.576" y2="-77.83"/>
						
							<line fill="none" stroke="#FFFFFF" stroke-width="0.5" stroke-miterlimit="10" x1="118.667" y1="345.156" x2="118.667" y2="-77.404"/>
						
							<line fill="none" stroke="#FFFFFF" stroke-width="0.5" stroke-miterlimit="10" x1="16.121" y1="345.156" x2="16.121" y2="-77.404"/>
						
							<line fill="none" stroke="#FFFFFF" stroke-width="0.5" stroke-miterlimit="10" x1="-0.97" y1="345.156" x2="-0.97" y2="-77.404"/>
						
							<line fill="none" stroke="#FFFFFF" stroke-width="0.5" stroke-miterlimit="10" x1="33.212" y1="344.731" x2="33.212" y2="-77.83"/>
						
							<line fill="none" stroke="#FFFFFF" stroke-width="0.5" stroke-miterlimit="10" x1="50.303" y1="345.156" x2="50.303" y2="-77.404"/>
					</g>
					<g>
						
							<line fill="none" stroke="#FFFFFF" stroke-width="0.5" stroke-miterlimit="10" x1="-75.987" y1="220.077" x2="346.574" y2="220.077"/>
						
							<line fill="none" stroke="#FFFFFF" stroke-width="0.5" stroke-miterlimit="10" x1="-75.987" y1="202.986" x2="346.574" y2="202.986"/>
						
							<line fill="none" stroke="#FFFFFF" stroke-width="0.5" stroke-miterlimit="10" x1="-75.561" y1="237.168" x2="347" y2="237.168"/>
						
							<line fill="none" stroke="#FFFFFF" stroke-width="0.5" stroke-miterlimit="10" x1="-75.987" y1="254.259" x2="346.574" y2="254.259"/>
						
							<line fill="none" stroke="#FFFFFF" stroke-width="0.5" stroke-miterlimit="10" x1="-75.987" y1="151.713" x2="346.574" y2="151.713"/>
						
							<line fill="none" stroke="#FFFFFF" stroke-width="0.5" stroke-miterlimit="10" x1="-75.987" y1="134.622" x2="346.574" y2="134.622"/>
						
							<line fill="none" stroke="#FFFFFF" stroke-width="0.5" stroke-miterlimit="10" x1="-75.561" y1="168.804" x2="347" y2="168.804"/>
						
							<line fill="none" stroke="#FFFFFF" stroke-width="0.5" stroke-miterlimit="10" x1="-75.987" y1="185.895" x2="346.574" y2="185.895"/>
						
							<line fill="none" stroke="#FFFFFF" stroke-width="0.5" stroke-miterlimit="10" x1="-76.2" y1="83.707" x2="346.361" y2="83.707"/>
						
							<line fill="none" stroke="#FFFFFF" stroke-width="0.5" stroke-miterlimit="10" x1="-76.2" y1="66.617" x2="346.361" y2="66.617"/>
						
							<line fill="none" stroke="#FFFFFF" stroke-width="0.5" stroke-miterlimit="10" x1="-75.774" y1="100.798" x2="346.787" y2="100.798"/>
						
							<line fill="none" stroke="#FFFFFF" stroke-width="0.5" stroke-miterlimit="10" x1="-76.2" y1="117.889" x2="346.361" y2="117.889"/>
						
							<line fill="none" stroke="#FFFFFF" stroke-width="0.5" stroke-miterlimit="10" x1="-76.2" y1="15.344" x2="346.361" y2="15.344"/>
						
							<line fill="none" stroke="#FFFFFF" stroke-width="0.5" stroke-miterlimit="10" x1="-76.2" y1="-1.747" x2="346.361" y2="-1.747"/>
						
							<line fill="none" stroke="#FFFFFF" stroke-width="0.5" stroke-miterlimit="10" x1="-75.774" y1="32.435" x2="346.787" y2="32.435"/>
						
							<line fill="none" stroke="#FFFFFF" stroke-width="0.5" stroke-miterlimit="10" x1="-76.2" y1="49.526" x2="346.361" y2="49.526"/>
					</g>
				</g>
			</g>
		</g>
	</g>
	<g>
		<g>
			<g>
				<polygon fill="none" stroke="#FFFFFF" stroke-width="3" stroke-miterlimit="10" points="179.397,169.135 78.741,169.135 
					78.741,99.456 119.12,128.866 128.646,119.434 138.823,128.895 179.397,99.456 				"/>
			</g>
		</g>
	</g>
	<g>
		<line fill="none" stroke="#FFFFFF" stroke-miterlimit="10" x1="196.11" y1="169.119" x2="196.11" y2="97.859"/>
		<polygon fill="#FFFFFF" points="196.11,172.036 193.193,169.119 199.027,169.119 		"/>
		<polygon fill="#FFFFFF" points="196.11,96.4 199.027,99.317 193.193,99.317 		"/>
	</g>
	<g>
		<line fill="none" stroke="#FFFFFF" stroke-miterlimit="10" x1="179.226" y1="179.311" x2="78.052" y2="179.311"/>
		<polygon fill="#FFFFFF" points="180.685,179.311 177.768,182.228 177.768,176.394 		"/>
		<polygon fill="#FFFFFF" points="77.052,179.311 79.969,176.394 79.969,182.228 		"/>
	</g>
	<line fill="none" stroke="#FFFFFF" stroke-width="3" stroke-miterlimit="10" x1="78.741" y1="169.135" x2="118.971" y2="128.906"/>
	
		<line fill="none" stroke="#FFFFFF" stroke-width="3" stroke-miterlimit="10" x1="179.467" y1="169.505" x2="139.238" y2="129.276"/>
	<polyline fill="none" stroke="#FFFFFF" stroke-width="3" stroke-miterlimit="10" points="89.3,103.063 89.3,94.856 168.717,94.856 
		168.717,103.063 	"/>
	<polyline fill="none" stroke="#FFFFFF" stroke-width="3" stroke-miterlimit="10" points="78.144,97.859 128.105,56.424 
		179.778,97.859 	"/>
</g>
</svg>
