<?xml version="1.0" encoding="utf-8"?>
<!-- Generator: Adobe Illustrator 17.0.0, SVG Export Plug-In . SVG Version: 6.00 Build 0)  -->
<!DOCTYPE svg PUBLIC "-//W3C//DTD SVG 1.1//EN" "http://www.w3.org/Graphics/SVG/1.1/DTD/svg11.dtd">
<svg version="1.1" id="Layer_1" xmlns="http://www.w3.org/2000/svg" xmlns:xlink="http://www.w3.org/1999/xlink" x="0px" y="0px"
	 width="253px" height="253px" viewBox="0 0 253 253" enable-background="new 0 0 253 253" xml:space="preserve">
<g>
	<circle fill="#074E68" cx="126.053" cy="125.908" r="126"/>
	<g opacity="0.5" enable-background="new    ">
		<g>
			<g>
				<g>
					<defs>
						<circle id="SVGID_1_" cx="125.656" cy="125.636" r="126"/>
					</defs>
					<clipPath id="SVGID_2_">
						<use xlink:href="#SVGID_1_"  overflow="visible"/>
					</clipPath>
					<g clip-path="url(#SVGID_2_)">
						<g>
							
								<line fill="none" stroke="#FFFFFF" stroke-width="0.5" stroke-miterlimit="10" x1="219.855" y1="344.215" x2="219.855" y2="-78.346"/>
							
								<line fill="none" stroke="#FFFFFF" stroke-width="0.5" stroke-miterlimit="10" x1="202.764" y1="344.215" x2="202.764" y2="-78.346"/>
							
								<line fill="none" stroke="#FFFFFF" stroke-width="0.5" stroke-miterlimit="10" x1="236.946" y1="343.789" x2="236.946" y2="-78.771"/>
							
								<line fill="none" stroke="#FFFFFF" stroke-width="0.5" stroke-miterlimit="10" x1="254.037" y1="344.215" x2="254.037" y2="-78.346"/>
							
								<line fill="none" stroke="#FFFFFF" stroke-width="0.5" stroke-miterlimit="10" x1="151.491" y1="344.215" x2="151.491" y2="-78.346"/>
							
								<line fill="none" stroke="#FFFFFF" stroke-width="0.5" stroke-miterlimit="10" x1="134.4" y1="344.215" x2="134.4" y2="-78.346"/>
							
								<line fill="none" stroke="#FFFFFF" stroke-width="0.5" stroke-miterlimit="10" x1="168.582" y1="343.789" x2="168.582" y2="-78.771"/>
							
								<line fill="none" stroke="#FFFFFF" stroke-width="0.5" stroke-miterlimit="10" x1="185.673" y1="344.215" x2="185.673" y2="-78.346"/>
							
								<line fill="none" stroke="#FFFFFF" stroke-width="0.5" stroke-miterlimit="10" x1="83.485" y1="344.428" x2="83.485" y2="-78.133"/>
							
								<line fill="none" stroke="#FFFFFF" stroke-width="0.5" stroke-miterlimit="10" x1="66.394" y1="346.095" x2="66.394" y2="-76.466"/>
							
								<line fill="none" stroke="#FFFFFF" stroke-width="0.5" stroke-miterlimit="10" x1="100.576" y1="344.002" x2="100.576" y2="-78.558"/>
							
								<line fill="none" stroke="#FFFFFF" stroke-width="0.5" stroke-miterlimit="10" x1="117.667" y1="344.428" x2="117.667" y2="-78.133"/>
							
								<line fill="none" stroke="#FFFFFF" stroke-width="0.5" stroke-miterlimit="10" x1="15.121" y1="344.428" x2="15.121" y2="-78.133"/>
							
								<line fill="none" stroke="#FFFFFF" stroke-width="0.5" stroke-miterlimit="10" x1="-1.97" y1="344.428" x2="-1.97" y2="-78.133"/>
							
								<line fill="none" stroke="#FFFFFF" stroke-width="0.5" stroke-miterlimit="10" x1="32.212" y1="344.002" x2="32.212" y2="-78.558"/>
							
								<line fill="none" stroke="#FFFFFF" stroke-width="0.5" stroke-miterlimit="10" x1="49.303" y1="344.428" x2="49.303" y2="-78.133"/>
						</g>
						<g>
							
								<line fill="none" stroke="#FFFFFF" stroke-width="0.5" stroke-miterlimit="10" x1="-76.987" y1="219.349" x2="345.574" y2="219.349"/>
							
								<line fill="none" stroke="#FFFFFF" stroke-width="0.5" stroke-miterlimit="10" x1="-76.987" y1="202.258" x2="345.574" y2="202.258"/>
							
								<line fill="none" stroke="#FFFFFF" stroke-width="0.5" stroke-miterlimit="10" x1="-76.561" y1="236.44" x2="346" y2="236.44"/>
							
								<line fill="none" stroke="#FFFFFF" stroke-width="0.5" stroke-miterlimit="10" x1="-76.987" y1="253.531" x2="345.574" y2="253.531"/>
							
								<line fill="none" stroke="#FFFFFF" stroke-width="0.5" stroke-miterlimit="10" x1="-76.987" y1="150.985" x2="345.574" y2="150.985"/>
							
								<line fill="none" stroke="#FFFFFF" stroke-width="0.5" stroke-miterlimit="10" x1="-76.987" y1="133.894" x2="345.574" y2="133.894"/>
							
								<line fill="none" stroke="#FFFFFF" stroke-width="0.5" stroke-miterlimit="10" x1="-76.561" y1="168.076" x2="346" y2="168.076"/>
							
								<line fill="none" stroke="#FFFFFF" stroke-width="0.5" stroke-miterlimit="10" x1="-76.987" y1="185.167" x2="345.574" y2="185.167"/>
							
								<line fill="none" stroke="#FFFFFF" stroke-width="0.5" stroke-miterlimit="10" x1="-77.2" y1="82.979" x2="345.361" y2="82.979"/>
							
								<line fill="none" stroke="#FFFFFF" stroke-width="0.5" stroke-miterlimit="10" x1="-77.2" y1="65.888" x2="345.361" y2="65.888"/>
							
								<line fill="none" stroke="#FFFFFF" stroke-width="0.5" stroke-miterlimit="10" x1="-76.774" y1="100.07" x2="345.787" y2="100.07"/>
							
								<line fill="none" stroke="#FFFFFF" stroke-width="0.5" stroke-miterlimit="10" x1="-77.2" y1="117.161" x2="345.361" y2="117.161"/>
							
								<line fill="none" stroke="#FFFFFF" stroke-width="0.5" stroke-miterlimit="10" x1="-77.2" y1="14.615" x2="345.361" y2="14.615"/>
							
								<line fill="none" stroke="#FFFFFF" stroke-width="0.5" stroke-miterlimit="10" x1="-77.2" y1="-2.476" x2="345.361" y2="-2.476"/>
							
								<line fill="none" stroke="#FFFFFF" stroke-width="0.5" stroke-miterlimit="10" x1="-76.774" y1="31.706" x2="345.787" y2="31.706"/>
							
								<line fill="none" stroke="#FFFFFF" stroke-width="0.5" stroke-miterlimit="10" x1="-77.2" y1="48.797" x2="345.361" y2="48.797"/>
						</g>
					</g>
				</g>
			</g>
		</g>
	</g>
</g>
<g>
	<line fill="none" stroke="#FFFFFF" stroke-miterlimit="10" x1="194.921" y1="184.867" x2="61.264" y2="184.867"/>
	<polygon fill="#FFFFFF" points="197.838,184.867 194.921,187.784 194.921,181.95 	"/>
	<polygon fill="#FFFFFF" points="61.264,184.867 64.181,181.95 64.181,187.784 	"/>
</g>
<g>
	<line fill="none" stroke="#FFFFFF" stroke-miterlimit="10" x1="49.667" y1="180.318" x2="49.667" y2="73.353"/>
	<polygon fill="#FFFFFF" points="49.667,180.318 46.75,177.401 52.584,177.401 	"/>
	<polygon fill="#FFFFFF" points="49.667,73.353 52.584,76.27 46.75,76.27 	"/>
</g>
<g id="_x35_151e0c8492e5103c096af88a5006e1e">
	<path id="XMLID_1_" fill="none" stroke="#FFFFFF" stroke-width="2.5" stroke-miterlimit="10" d="M60.95,129.918
		c6.064-1.514,14.308-3.576,28.753-3.96c-0.399-0.798-0.76-1.625-1.079-2.477c-5.621-0.049-22.931,0.749-28.861,2.214
		c-0.034,0.01-0.07,0.013-0.105,0.013c-0.198,0-0.381-0.136-0.43-0.337c-0.057-0.234,0.088-0.476,0.324-0.536
		c5.876-1.452,22.769-2.258,28.753-2.243c-1.347-3.96-1.941-8.497-1.941-13.562c0-8.996,2.802-12.39,6.566-17.184
		c-2.879-10.253,1.033-17.261,1.033-17.261s6.048-1.254,17.483,6.934c6.198-2.655,22.721-2.876,30.538-0.589
		c4.799-3.172,13.574-7.673,17.117-6.414c0.958,1.545,3.023,6.043,1.251,15.93c1.205,2.168,7.452,6.787,7.477,19.844
		c-0.103,4.815-0.603,8.881-1.529,12.32c14.908-0.126,23.678,1.105,29.718,2.217c0.237,0.049,0.397,0.278,0.355,0.518
		c-0.041,0.211-0.227,0.363-0.432,0.363c-0.031,0-0.057-0.002-0.087-0.005c-6.03-1.117-14.815-2.343-29.811-2.207
		c-0.263,0.873-0.556,1.702-0.876,2.493c5.104,0.17,19.121,0.716,30.553,4.212c0.237,0.072,0.366,0.319,0.294,0.556
		c-0.057,0.188-0.232,0.311-0.422,0.311c-0.041,0-0.088-0.005-0.129-0.02c-11.592-3.543-25.913-4.03-30.676-4.187
		c-4.146,9.107-12.648,12.506-26.392,13.919c4.454,2.804,5.732,6.321,5.732,15.838c0,9.516-0.129,10.794-0.098,12.982
		c0.046,3.592,5.309,5.312,5.114,6.468c-0.196,1.154-4.403,0.968-6.37,0.281c-5.572-1.941-5.016-6.576-5.016-6.576l-0.185-12.724
		c0,0,0.381-6.849-2.147-6.849c0,1.377,0,15.902,0,20.827c0,4.526,3.167,5.902,3.167,7.575c0,2.876-5.788-0.273-7.57-2.068
		c-2.72-2.729-2.411-8.517-2.344-13.095c0.062-4.421-0.041-14.09-0.041-14.09l-1.846,0.039c0,0,0.757,21.121-0.973,24.97
		c-2.237,4.941-8.986,6.641-8.986,4.39c0-1.514,1.663-1.032,2.582-4.426c0.785-2.887,0.518-24.42,0.518-24.42
		s-2.163,1.28-2.163,5.312c0,1.846-0.052,12.39-0.052,15.529c0,3.947-5.605,6.195-8.299,6.195c-1.365,0-3.061-0.067-3.061-0.79
		c0-1.826,5.127-2.897,5.127-6.695c0-3.293-0.072-11.764-0.072-11.764s-2.585,0.442-6.272,0.442c-9.295,0-12.236-5.932-13.634-9.251
		c-1.82-4.323-4.181-6.354-6.689-7.977c-1.54-0.996-1.895-2.173-0.113-2.508c8.229-1.55,10.333,9.331,15.827,11.064
		c3.921,1.239,8.963,0.703,11.471-0.919c0.332-3.324,2.727-6.198,4.722-7.712c-13.976-1.342-22.262-6.195-26.557-13.997
		c-14.62,0.35-22.916,2.425-28.997,3.944c-0.443,0.111-0.875,0.219-1.292,0.325c-0.036,0.008-0.072,0.01-0.108,0.01
		c-0.198,0-0.378-0.134-0.43-0.335c-0.059-0.237,0.088-0.479,0.325-0.538C60.079,130.136,60.509,130.031,60.95,129.918z"/>
</g>
</svg>
