<?xml version="1.0" encoding="utf-8"?>
<!-- Generator: Adobe Illustrator 19.1.0, SVG Export Plug-In . SVG Version: 6.00 Build 0)  -->
<svg version="1.1" id="Layer_1" xmlns="http://www.w3.org/2000/svg" xmlns:xlink="http://www.w3.org/1999/xlink" x="0px" y="0px"
	 width="270px" height="270px" viewBox="0 0 270 270" style="enable-background:new 0 0 270 270;" xml:space="preserve">
<style type="text/css">
	.st0{fill:#D8D8D8;}
	.st1{fill:url(#SVGID_1_);}
</style>
<g>
	<path class="st0" d="M135.5,223c-49.4,0-89.7-40.2-89.7-89.7c0-49.4,40.2-89.7,89.7-89.7s89.7,40.2,89.7,89.7
		C225.2,182.8,184.9,223,135.5,223z M135.5,51.7c-45,0-81.7,36.6-81.7,81.7c0,45,36.6,81.7,81.7,81.7s81.7-36.6,81.7-81.7
		C217.2,88.3,180.5,51.7,135.5,51.7z"/>
</g>
<g>
	<linearGradient id="SVGID_1_" gradientUnits="userSpaceOnUse" x1="115.8677" y1="174.1219" x2="157.3439" y2="83.3669">
		<stop  offset="0" style="stop-color:#3D96D2"/>
		<stop  offset="1" style="stop-color:#069FB0"/>
	</linearGradient>
	<polygon class="st1" points="123.1,177.4 84.7,137.9 94,128.8 123.2,158.9 185.8,96.4 195,105.6 	"/>
</g>
</svg>
