<?xml version="1.0" encoding="utf-8"?>
<!-- Generator: Adobe Illustrator 19.1.0, SVG Export Plug-In . SVG Version: 6.00 Build 0)  -->
<svg version="1.1" id="Layer_1" xmlns="http://www.w3.org/2000/svg" xmlns:xlink="http://www.w3.org/1999/xlink" x="0px" y="0px"
	 width="792px" height="520px" viewBox="261 -125 792 520" style="enable-background:new 261 -125 792 520;" xml:space="preserve">
<style type="text/css">
	.st0{fill:url(#SVGID_1_);}
	.st1{fill:url(#SVGID_2_);}
	.st2{fill:url(#SVGID_3_);}
	.st3{fill:url(#SVGID_4_);}
	.st4{fill:url(#SVGID_5_);}
	.st5{fill:url(#SVGID_6_);}
	.st6{fill:url(#SVGID_7_);}
	.st7{fill:url(#SVGID_8_);}
	.st8{fill:url(#SVGID_9_);}
	.st9{fill:url(#SVGID_10_);}
	.st10{fill:url(#SVGID_11_);}
	.st11{fill:url(#SVGID_12_);}
	.st12{fill:url(#SVGID_13_);}
	.st13{fill:none;stroke:#FFFFFF;stroke-width:8.1181;stroke-miterlimit:10;}
</style>
<linearGradient id="SVGID_1_" gradientUnits="userSpaceOnUse" x1="806.652" y1="18.0501" x2="435.5153" y2="327.7247">
	<stop  offset="0" style="stop-color:#BDBEC0"/>
	<stop  offset="0.994" style="stop-color:#F1F2F2"/>
</linearGradient>
<rect x="430.7" y="13" class="st0" width="387.4" height="314.2"/>
<linearGradient id="SVGID_2_" gradientUnits="userSpaceOnUse" x1="465.2938" y1="292.455" x2="848.2502" y2="-16.0377">
	<stop  offset="0" style="stop-color:#BDBEC0"/>
	<stop  offset="0.994" style="stop-color:#F1F2F2"/>
</linearGradient>
<rect x="460.7" y="-17" class="st1" width="387.4" height="314.2"/>
<g>
	<linearGradient id="SVGID_3_" gradientUnits="userSpaceOnUse" x1="489.8196" y1="264.184" x2="882.6431" y2="-51.8694">
		<stop  offset="0" style="stop-color:#4E5663"/>
		<stop  offset="0.6682" style="stop-color:#283841"/>
		<stop  offset="1" style="stop-color:#0F1B21"/>
	</linearGradient>
	<rect x="491.4" y="-52.7" class="st2" width="391.6" height="316.1"/>
	<linearGradient id="SVGID_4_" gradientUnits="userSpaceOnUse" x1="428.6568" y1="186.8613" x2="629.165" y2="25.5387">
		<stop  offset="0" style="stop-color:#4E5663"/>
		<stop  offset="0.6682" style="stop-color:#283841"/>
		<stop  offset="1" style="stop-color:#0F1B21"/>
	</linearGradient>
	<rect x="491.4" y="-51.8" class="st3" width="76" height="315.3"/>
	<linearGradient id="SVGID_5_" gradientUnits="userSpaceOnUse" x1="494.1755" y1="-58.205" x2="881.3696" y2="-19.6691">
		<stop  offset="0" style="stop-color:#BDBEC0"/>
		<stop  offset="0.994" style="stop-color:#F1F2F2"/>
	</linearGradient>
	<rect x="491.3" y="-52.7" class="st4" width="392.4" height="27.4"/>
	<linearGradient id="SVGID_6_" gradientUnits="userSpaceOnUse" x1="586.9167" y1="-78.6709" x2="501.2667" y2="-34.2598">
		<stop  offset="0" style="stop-color:#BDBEC0"/>
		<stop  offset="0.994" style="stop-color:#F1F2F2"/>
	</linearGradient>
	<circle class="st5" cx="509.6" cy="-38.6" r="3.6"/>
	<linearGradient id="SVGID_7_" gradientUnits="userSpaceOnUse" x1="589.759" y1="-73.1893" x2="504.109" y2="-28.7782">
		<stop  offset="0" style="stop-color:#BDBEC0"/>
		<stop  offset="0.994" style="stop-color:#F1F2F2"/>
	</linearGradient>
	<circle class="st6" cx="523" cy="-38.6" r="3.6"/>
	<linearGradient id="SVGID_8_" gradientUnits="userSpaceOnUse" x1="592.5629" y1="-67.7818" x2="506.9129" y2="-23.3707">
		<stop  offset="0" style="stop-color:#BDBEC0"/>
		<stop  offset="0.994" style="stop-color:#F1F2F2"/>
	</linearGradient>
	<circle class="st7" cx="536.3" cy="-38.6" r="3.6"/>
	<g>
		<g>
			<linearGradient id="SVGID_9_" gradientUnits="userSpaceOnUse" x1="539.1904" y1="-18.7463" x2="420.6713" y2="180.7858">
				<stop  offset="0" style="stop-color:#4E5663"/>
				<stop  offset="0.6682" style="stop-color:#283841"/>
				<stop  offset="1" style="stop-color:#0F1B21"/>
			</linearGradient>
			<rect x="504.2" y="-6.6" class="st8" width="50.2" height="9"/>
		</g>
		<g>
			<linearGradient id="SVGID_10_" gradientUnits="userSpaceOnUse" x1="546.8346" y1="-14.2057" x2="428.3156" y2="185.3263">
				<stop  offset="0" style="stop-color:#4E5663"/>
				<stop  offset="0.6682" style="stop-color:#283841"/>
				<stop  offset="1" style="stop-color:#0F1B21"/>
			</linearGradient>
			<rect x="504.2" y="20" class="st9" width="39.2" height="9"/>
		</g>
		<g>
			<linearGradient id="SVGID_11_" gradientUnits="userSpaceOnUse" x1="562.6113" y1="-4.8346" x2="444.0923" y2="194.6975">
				<stop  offset="0" style="stop-color:#4E5663"/>
				<stop  offset="0.6682" style="stop-color:#283841"/>
				<stop  offset="1" style="stop-color:#0F1B21"/>
			</linearGradient>
			<rect x="504.2" y="46.7" class="st10" width="50.2" height="9"/>
		</g>
		<g>
			<linearGradient id="SVGID_12_" gradientUnits="userSpaceOnUse" x1="571.7342" y1="0.5843" x2="453.2151" y2="200.1163">
				<stop  offset="0" style="stop-color:#4E5663"/>
				<stop  offset="0.6682" style="stop-color:#283841"/>
				<stop  offset="1" style="stop-color:#0F1B21"/>
			</linearGradient>
			<rect x="504.2" y="73.4" class="st11" width="43.2" height="9"/>
		</g>
	</g>
	<linearGradient id="SVGID_13_" gradientUnits="userSpaceOnUse" x1="567.5826" y1="119.0924" x2="883.7296" y2="119.0924">
		<stop  offset="0" style="stop-color:#2099E8"/>
		<stop  offset="1" style="stop-color:#009EAF"/>
	</linearGradient>
	<rect x="567.6" y="-25.3" class="st12" width="316.1" height="288.7"/>
	<g>
		<polyline class="st13" points="617.3,0.4 599.9,17.8 616.8,34.6 		"/>
		<line class="st13" x1="632.7" y1="17.2" x2="685.2" y2="17.2"/>
		<polyline class="st13" points="699.1,0.4 716.4,17.8 699.5,34.6 		"/>
	</g>
	<g>
		<polyline class="st13" points="617.3,178.1 599.9,195.4 616.8,212.2 		"/>
		<line class="st13" x1="659.3" y1="194.8" x2="712.8" y2="194.8"/>
		<polyline class="st13" points="726.6,178.1 743.9,195.4 727.1,212.2 		"/>
		<line class="st13" x1="648.6" y1="175.5" x2="633.4" y2="215.9"/>
	</g>
	<line class="st13" x1="630.1" y1="66.4" x2="816.3" y2="66.4"/>
	<line class="st13" x1="630.1" y1="101.5" x2="839" y2="101.5"/>
	<line class="st13" x1="630.1" y1="136" x2="816.3" y2="136"/>
</g>
</svg>
