<?xml version="1.0" encoding="utf-8"?>
<!-- Generator: Adobe Illustrator 19.1.0, SVG Export Plug-In . SVG Version: 6.00 Build 0)  -->
<svg version="1.1" id="Layer_1" xmlns="http://www.w3.org/2000/svg" xmlns:xlink="http://www.w3.org/1999/xlink" x="0px" y="0px"
	 width="650px" height="483.6px" viewBox="225 -135 650 483.6" style="enable-background:new 225 -135 650 483.6;"
	 xml:space="preserve">
<style type="text/css">
	.st0{fill:url(#SVGID_1_);}
	.st1{fill:url(#SVGID_2_);}
	.st2{fill:url(#SVGID_3_);}
	.st3{fill:url(#SVGID_4_);}
	.st4{fill:#FFFFFF;}
	.st5{clip-path:url(#SVGID_6_);}
	.st6{fill:url(#SVGID_7_);}
	.st7{fill:url(#SVGID_8_);}
	.st8{fill:url(#SVGID_9_);}
	.st9{fill:url(#SVGID_10_);}
	.st10{fill:url(#SVGID_11_);}
	.st11{fill:url(#SVGID_12_);}
	.st12{fill:url(#SVGID_13_);}
	.st13{fill:url(#SVGID_14_);}
	.st14{fill:url(#SVGID_15_);}
	.st15{clip-path:url(#SVGID_17_);}
	.st16{fill:url(#SVGID_18_);}
	.st17{fill:url(#SVGID_19_);}
	.st18{fill:url(#SVGID_20_);}
	.st19{fill:url(#SVGID_21_);}
	.st20{fill:url(#SVGID_22_);}
	.st21{fill:url(#SVGID_23_);}
	.st22{fill:url(#SVGID_24_);}
	.st23{fill:url(#SVGID_25_);}
	.st24{clip-path:url(#SVGID_27_);}
	.st25{fill:url(#SVGID_28_);}
	.st26{fill:url(#SVGID_29_);}
	.st27{fill:url(#SVGID_30_);}
	.st28{fill:url(#SVGID_31_);}
	.st29{fill:url(#SVGID_32_);}
	.st30{fill:url(#SVGID_33_);}
	.st31{fill:url(#SVGID_34_);}
	.st32{fill:url(#SVGID_35_);}
	.st33{fill:url(#SVGID_36_);}
	.st34{fill:url(#SVGID_37_);}
	.st35{fill:url(#SVGID_38_);}
	.st36{fill:url(#SVGID_39_);}
	.st37{fill:url(#SVGID_40_);}
	.st38{fill:url(#SVGID_41_);}
	.st39{fill:url(#SVGID_42_);}
</style>
<g>
	
		<linearGradient id="SVGID_1_" gradientUnits="userSpaceOnUse" x1="564.9872" y1="13.26" x2="564.9872" y2="-71.2778" gradientTransform="matrix(1 0 0 -1 0 270)">
		<stop  offset="0" style="stop-color:#BDBEC0"/>
		<stop  offset="0.994" style="stop-color:#F1F2F2"/>
	</linearGradient>
	<path class="st0" d="M620.8,259.2c0-31.7-111.5-31.7-111.5,0c0,54.8-19.3,80.5-19.3,80.5h70.8h8.4H640
		C640,339.7,620.8,314,620.8,259.2z"/>
	
		<linearGradient id="SVGID_2_" gradientUnits="userSpaceOnUse" x1="484.2514" y1="-63.2796" x2="645.9004" y2="-63.2796" gradientTransform="matrix(1 0 0 -1 0 270)">
		<stop  offset="0" style="stop-color:#BDBEC0"/>
		<stop  offset="0.994" style="stop-color:#F1F2F2"/>
	</linearGradient>
	<rect x="484.3" y="327" class="st1" width="161.6" height="12.6"/>
	<g>
		
			<linearGradient id="SVGID_3_" gradientUnits="userSpaceOnUse" x1="292.9859" y1="196.2633" x2="837.0771" y2="196.2633" gradientTransform="matrix(1 0 0 -1 0 270)">
			<stop  offset="0" style="stop-color:#BDBEC0"/>
			<stop  offset="0.994" style="stop-color:#F1F2F2"/>
		</linearGradient>
		<path class="st2" d="M837.1,256.4c0,4.3-3.4,7.6-7.6,7.6H300.6c-4.3,0-7.6-3.4-7.6-7.6v-363c0-5.5,4.4-9.9,9.9-9.9h526.5
			c4.3,0,7.6,3.4,7.6,7.6L837.1,256.4L837.1,256.4z"/>
	</g>
	
		<linearGradient id="SVGID_4_" gradientUnits="userSpaceOnUse" x1="292.8973" y1="224.7713" x2="837.0771" y2="224.7713" gradientTransform="matrix(1 0 0 -1 0 270)">
		<stop  offset="0" style="stop-color:#4E5663"/>
		<stop  offset="0.6682" style="stop-color:#283841"/>
		<stop  offset="1" style="stop-color:#0F1B21"/>
	</linearGradient>
	<path class="st3" d="M837.1-106.1v313H292.9v-315.5c0-4.4,3.5-7.9,7.9-7.9h525.8C834.2-116.5,837.1-113.6,837.1-106.1z"/>
	<path class="st4" d="M810.5,180.2H319.7c-0.1,0-0.1-0.1-0.1-0.1V-90h490.8L810.5,180.2L810.5,180.2z"/>
</g>
<g>
	<g>
		<g>
			<g>
				<defs>
					<path id="SVGID_5_" d="M810.5,180.2H319.7c-0.1,0-0.1-0.1-0.1-0.1V-90h490.8L810.5,180.2L810.5,180.2z"/>
				</defs>
				<clipPath id="SVGID_6_">
					<use xlink:href="#SVGID_5_"  style="overflow:visible;"/>
				</clipPath>
				<g class="st5">
					
						<linearGradient id="SVGID_7_" gradientUnits="userSpaceOnUse" x1="444.7224" y1="288.9209" x2="638.6163" y2="129.2641" gradientTransform="matrix(1 0 0 -1 0 270)">
						<stop  offset="0" style="stop-color:#BDBEC0"/>
						<stop  offset="0.994" style="stop-color:#F1F2F2"/>
					</linearGradient>
					<rect x="453" y="-36.9" class="st6" width="173.5" height="192.6"/>
					<rect x="459.6" y="-30.2" class="st4" width="160.1" height="179.1"/>
					
						<linearGradient id="SVGID_8_" gradientUnits="userSpaceOnUse" x1="447.0752" y1="152.1264" x2="591.9254" y2="296.9766" gradientTransform="matrix(1 0 0 -1 0 270)">
						<stop  offset="0" style="stop-color:#BDBEC0"/>
						<stop  offset="0.994" style="stop-color:#F1F2F2"/>
					</linearGradient>
					<rect x="468.9" y="-5.4" class="st7" width="142.1" height="60.9"/>
					
						<linearGradient id="SVGID_9_" gradientUnits="userSpaceOnUse" x1="453.8571" y1="305.327" x2="625.8787" y2="288.2063" gradientTransform="matrix(1 0 0 -1 0 270)">
						<stop  offset="0" style="stop-color:#BDBEC0"/>
						<stop  offset="0.994" style="stop-color:#F1F2F2"/>
					</linearGradient>
					<rect x="453" y="-36.9" class="st8" width="173.5" height="20.3"/>
					
						<linearGradient id="SVGID_10_" gradientUnits="userSpaceOnUse" x1="523.8743" y1="326.2035" x2="460.3576" y2="293.2689" gradientTransform="matrix(1 0 0 -1 0 270)">
						<stop  offset="0" style="stop-color:#BDBEC0"/>
						<stop  offset="0.994" style="stop-color:#F1F2F2"/>
					</linearGradient>
					<circle class="st9" cx="466.5" cy="-26.5" r="2.7"/>
					
						<linearGradient id="SVGID_11_" gradientUnits="userSpaceOnUse" x1="525.9787" y1="322.1451" x2="462.4621" y2="289.2105" gradientTransform="matrix(1 0 0 -1 0 270)">
						<stop  offset="0" style="stop-color:#BDBEC0"/>
						<stop  offset="0.994" style="stop-color:#F1F2F2"/>
					</linearGradient>
					<circle class="st10" cx="476.4" cy="-26.5" r="2.7"/>
					
						<linearGradient id="SVGID_12_" gradientUnits="userSpaceOnUse" x1="528.0829" y1="318.0866" x2="464.5664" y2="285.1521" gradientTransform="matrix(1 0 0 -1 0 270)">
						<stop  offset="0" style="stop-color:#BDBEC0"/>
						<stop  offset="0.994" style="stop-color:#F1F2F2"/>
					</linearGradient>
					<circle class="st11" cx="486.4" cy="-26.5" r="2.7"/>
					
						<linearGradient id="SVGID_13_" gradientUnits="userSpaceOnUse" x1="460.0213" y1="139.1803" x2="604.8716" y2="284.0305" gradientTransform="matrix(1 0 0 -1 0 270)">
						<stop  offset="0" style="stop-color:#BDBEC0"/>
						<stop  offset="0.994" style="stop-color:#F1F2F2"/>
					</linearGradient>
					<rect x="468.9" y="65.8" class="st12" width="39.8" height="72.4"/>
					
						<linearGradient id="SVGID_14_" gradientUnits="userSpaceOnUse" x1="485.6032" y1="113.5984" x2="630.4533" y2="258.4485" gradientTransform="matrix(1 0 0 -1 0 270)">
						<stop  offset="0" style="stop-color:#BDBEC0"/>
						<stop  offset="0.994" style="stop-color:#F1F2F2"/>
					</linearGradient>
					<rect x="520.1" y="65.8" class="st13" width="39.8" height="72.4"/>
					
						<linearGradient id="SVGID_15_" gradientUnits="userSpaceOnUse" x1="511.1407" y1="88.061" x2="655.991" y2="232.911" gradientTransform="matrix(1 0 0 -1 0 270)">
						<stop  offset="0" style="stop-color:#BDBEC0"/>
						<stop  offset="0.994" style="stop-color:#F1F2F2"/>
					</linearGradient>
					<rect x="571.1" y="65.8" class="st14" width="39.8" height="72.4"/>
				</g>
			</g>
		</g>
	</g>
	<g>
		<g>
			<g>
				<defs>
					<path id="SVGID_16_" d="M810.5,180.2H319.7c-0.1,0-0.1-0.1-0.1-0.1V-90h490.8L810.5,180.2L810.5,180.2z"/>
				</defs>
				<clipPath id="SVGID_17_">
					<use xlink:href="#SVGID_16_"  style="overflow:visible;"/>
				</clipPath>
				<g class="st15">
					
						<linearGradient id="SVGID_18_" gradientUnits="userSpaceOnUse" x1="324.1997" y1="239.7623" x2="450.5992" y2="135.6821" gradientTransform="matrix(1 0 0 -1 0 270)">
						<stop  offset="0" style="stop-color:#BDBEC0"/>
						<stop  offset="0.994" style="stop-color:#F1F2F2"/>
					</linearGradient>
					<rect x="339.3" y="6.8" class="st16" width="93.8" height="149"/>
					<rect x="345.7" y="13.1" class="st4" width="81" height="136.3"/>
					
						<linearGradient id="SVGID_19_" gradientUnits="userSpaceOnUse" x1="369.7408" y1="124.9675" x2="431.2205" y2="227.9874" gradientTransform="matrix(1 0 0 -1 0 270)">
						<stop  offset="0" style="stop-color:#BDBEC0"/>
						<stop  offset="0.994" style="stop-color:#F1F2F2"/>
					</linearGradient>
					<rect x="356.6" y="94.2" class="st17" width="60.1" height="45"/>
					
						<linearGradient id="SVGID_20_" gradientUnits="userSpaceOnUse" x1="339.3423" y1="258.2069" x2="433.1833" y2="248.8674" gradientTransform="matrix(1 0 0 -1 0 270)">
						<stop  offset="0" style="stop-color:#BDBEC0"/>
						<stop  offset="0.994" style="stop-color:#F1F2F2"/>
					</linearGradient>
					<rect x="339.3" y="6.8" class="st18" width="93.8" height="19.3"/>
					
						<linearGradient id="SVGID_21_" gradientUnits="userSpaceOnUse" x1="406.5907" y1="281.5609" x2="346.2963" y2="250.2971" gradientTransform="matrix(1 0 0 -1 0 270)">
						<stop  offset="0" style="stop-color:#BDBEC0"/>
						<stop  offset="0.994" style="stop-color:#F1F2F2"/>
					</linearGradient>
					<circle class="st19" cx="352.2" cy="16.6" r="2.6"/>
					
						<linearGradient id="SVGID_22_" gradientUnits="userSpaceOnUse" x1="408.5634" y1="277.7561" x2="348.2692" y2="246.4924" gradientTransform="matrix(1 0 0 -1 0 270)">
						<stop  offset="0" style="stop-color:#BDBEC0"/>
						<stop  offset="0.994" style="stop-color:#F1F2F2"/>
					</linearGradient>
					<circle class="st20" cx="361.5" cy="16.6" r="2.6"/>
					
						<linearGradient id="SVGID_23_" gradientUnits="userSpaceOnUse" x1="410.555" y1="273.915" x2="350.2608" y2="242.6514" gradientTransform="matrix(1 0 0 -1 0 270)">
						<stop  offset="0" style="stop-color:#BDBEC0"/>
						<stop  offset="0.994" style="stop-color:#F1F2F2"/>
					</linearGradient>
					<circle class="st21" cx="370.9" cy="16.6" r="2.6"/>
					
						<linearGradient id="SVGID_24_" gradientUnits="userSpaceOnUse" x1="349.6452" y1="136.9599" x2="411.1249" y2="239.9798" gradientTransform="matrix(1 0 0 -1 0 270)">
						<stop  offset="0" style="stop-color:#BDBEC0"/>
						<stop  offset="0.994" style="stop-color:#F1F2F2"/>
					</linearGradient>
					<rect x="356.6" y="55.6" class="st22" width="60.1" height="30.9"/>
					
						<linearGradient id="SVGID_25_" gradientUnits="userSpaceOnUse" x1="336.632" y1="144.7259" x2="398.1116" y2="247.7459" gradientTransform="matrix(1 0 0 -1 0 270)">
						<stop  offset="0" style="stop-color:#BDBEC0"/>
						<stop  offset="0.994" style="stop-color:#F1F2F2"/>
					</linearGradient>
					<rect x="356.6" y="36.7" class="st23" width="60.1" height="9.7"/>
				</g>
			</g>
		</g>
	</g>
	<g>
		<g>
			<g>
				<defs>
					<path id="SVGID_26_" d="M810.5,180.2H319.7c-0.1,0-0.1-0.1-0.1-0.1V-90h490.8L810.5,180.2L810.5,180.2z"/>
				</defs>
				<clipPath id="SVGID_27_">
					<use xlink:href="#SVGID_26_"  style="overflow:visible;"/>
				</clipPath>
				<g class="st24">
					
						<linearGradient id="SVGID_28_" gradientUnits="userSpaceOnUse" x1="663.6111" y1="344.3652" x2="958.6127" y2="101.4541" gradientTransform="matrix(1 0 0 -1 0 270)">
						<stop  offset="0" style="stop-color:#BDBEC0"/>
						<stop  offset="0.994" style="stop-color:#F1F2F2"/>
					</linearGradient>
					<rect x="647" y="-66.2" class="st25" width="322.6" height="221.9"/>
					<rect x="654" y="-59" class="st4" width="308.2" height="207.6"/>
					
						<linearGradient id="SVGID_29_" gradientUnits="userSpaceOnUse" x1="649.3109" y1="341.2334" x2="967.5563" y2="309.5598" gradientTransform="matrix(1 0 0 -1 0 270)">
						<stop  offset="0" style="stop-color:#BDBEC0"/>
						<stop  offset="0.994" style="stop-color:#F1F2F2"/>
					</linearGradient>
					<rect x="647" y="-66.2" class="st26" width="322.6" height="21.5"/>
					
						<linearGradient id="SVGID_30_" gradientUnits="userSpaceOnUse" x1="722.1758" y1="356.6537" x2="654.7327" y2="321.6832" gradientTransform="matrix(1 0 0 -1 0 270)">
						<stop  offset="0" style="stop-color:#BDBEC0"/>
						<stop  offset="0.994" style="stop-color:#F1F2F2"/>
					</linearGradient>
					<circle class="st27" cx="661.3" cy="-55.1" r="2.8"/>
					
						<linearGradient id="SVGID_31_" gradientUnits="userSpaceOnUse" x1="724.4117" y1="352.3418" x2="656.9686" y2="317.3712" gradientTransform="matrix(1 0 0 -1 0 270)">
						<stop  offset="0" style="stop-color:#BDBEC0"/>
						<stop  offset="0.994" style="stop-color:#F1F2F2"/>
					</linearGradient>
					<circle class="st28" cx="671.9" cy="-55.1" r="2.8"/>
					
						<linearGradient id="SVGID_32_" gradientUnits="userSpaceOnUse" x1="726.6288" y1="348.0659" x2="659.1857" y2="313.0954" gradientTransform="matrix(1 0 0 -1 0 270)">
						<stop  offset="0" style="stop-color:#BDBEC0"/>
						<stop  offset="0.994" style="stop-color:#F1F2F2"/>
					</linearGradient>
					<circle class="st29" cx="682.3" cy="-55.1" r="2.8"/>
					
						<linearGradient id="SVGID_33_" gradientUnits="userSpaceOnUse" x1="659.6882" y1="132.1527" x2="948.9572" y2="308.7762" gradientTransform="matrix(1 0 0 -1 0 270)">
						<stop  offset="0" style="stop-color:#BDBEC0"/>
						<stop  offset="0.994" style="stop-color:#F1F2F2"/>
					</linearGradient>
					<rect x="663.2" y="70.8" class="st30" width="85.2" height="77.8"/>
					
						<linearGradient id="SVGID_34_" gradientUnits="userSpaceOnUse" x1="689.1267" y1="87.2687" x2="978.3616" y2="263.8714" gradientTransform="matrix(1 0 0 -1 0 270)">
						<stop  offset="0" style="stop-color:#BDBEC0"/>
						<stop  offset="0.994" style="stop-color:#F1F2F2"/>
					</linearGradient>
					<rect x="766.8" y="70.8" class="st31" width="84" height="77.8"/>
					
						<linearGradient id="SVGID_35_" gradientUnits="userSpaceOnUse" x1="643.3932" y1="156.9107" x2="936.391" y2="335.811" gradientTransform="matrix(1 0 0 -1 0 270)">
						<stop  offset="0" style="stop-color:#BDBEC0"/>
						<stop  offset="0.994" style="stop-color:#F1F2F2"/>
					</linearGradient>
					<rect x="663.2" y="-30.6" class="st32" width="291" height="85.6"/>
					
						<linearGradient id="SVGID_36_" gradientUnits="userSpaceOnUse" x1="717.1123" y1="41.5517" x2="1006.3811" y2="218.1753" gradientTransform="matrix(1 0 0 -1 0 270)">
						<stop  offset="0" style="stop-color:#BDBEC0"/>
						<stop  offset="0.994" style="stop-color:#F1F2F2"/>
					</linearGradient>
					<rect x="869" y="70.8" class="st33" width="85.2" height="77.8"/>
				</g>
			</g>
		</g>
	</g>
</g>
<g>
	<g>
		<g>
			<g>
				<g>
					
						<linearGradient id="SVGID_37_" gradientUnits="userSpaceOnUse" x1="498.3055" y1="233.6914" x2="579.0748" y2="178.1626" gradientTransform="matrix(1 0 0 -1 0 270)">
						<stop  offset="0" style="stop-color:#2099E8"/>
						<stop  offset="1" style="stop-color:#009EAF"/>
					</linearGradient>
					<circle class="st34" cx="505.8" cy="41.5" r="10.4"/>
				</g>
			</g>
		</g>
	</g>
	<g>
		<g>
			
				<linearGradient id="SVGID_38_" gradientUnits="userSpaceOnUse" x1="498.6874" y1="234.6952" x2="583.7673" y2="176.2028" gradientTransform="matrix(1 0 0 -1 0 270)">
				<stop  offset="0" style="stop-color:#2099E8"/>
				<stop  offset="1" style="stop-color:#009EAF"/>
			</linearGradient>
			<path class="st35" d="M585.1,94.4h-82.4v-56h82.4V94.4z M508.8,88.4h70.4v-44h-70.4V88.4z"/>
		</g>
	</g>
</g>
<g>
	<g>
		<g>
			<g>
				<g>
					
						<linearGradient id="SVGID_39_" gradientUnits="userSpaceOnUse" x1="350.1491" y1="227.674" x2="426.7133" y2="175.036" gradientTransform="matrix(1 0 0 -1 0 270)">
						<stop  offset="0" style="stop-color:#2099E8"/>
						<stop  offset="1" style="stop-color:#009EAF"/>
					</linearGradient>
					<circle class="st36" cx="357.3" cy="47.2" r="9.8"/>
				</g>
			</g>
		</g>
	</g>
	<g>
		<g>
			
				<linearGradient id="SVGID_40_" gradientUnits="userSpaceOnUse" x1="351.2639" y1="228.3235" x2="418.4786" y2="182.1134" gradientTransform="matrix(1 0 0 -1 0 270)">
				<stop  offset="0" style="stop-color:#2099E8"/>
				<stop  offset="1" style="stop-color:#009EAF"/>
			</linearGradient>
			<path class="st37" d="M419.7,88h-65.5V44.4h65.5V88z M360,82.2h54V50.1h-54V82.2z"/>
		</g>
	</g>
</g>
<g>
	<g>
		<g>
			<g>
				<g>
					
						<linearGradient id="SVGID_41_" gradientUnits="userSpaceOnUse" x1="675.0743" y1="243.6911" x2="760.7164" y2="184.8123" gradientTransform="matrix(1 0 0 -1 0 270)">
						<stop  offset="0" style="stop-color:#2099E8"/>
						<stop  offset="1" style="stop-color:#009EAF"/>
					</linearGradient>
					<circle class="st38" cx="683.1" cy="31.8" r="11"/>
				</g>
			</g>
		</g>
	</g>
	<g>
		<g>
			
				<linearGradient id="SVGID_42_" gradientUnits="userSpaceOnUse" x1="672.7856" y1="242.6183" x2="780.1265" y2="168.8214" gradientTransform="matrix(1 0 0 -1 0 270)">
				<stop  offset="0" style="stop-color:#2099E8"/>
				<stop  offset="1" style="stop-color:#009EAF"/>
			</linearGradient>
			<path class="st39" d="M780,104.6H679.7v-76H780L780,104.6L780,104.6z M686,98.2h87.5v-63H686V98.2z"/>
		</g>
	</g>
</g>
</svg>
