<?xml version="1.0" encoding="utf-8"?>
<!-- Generator: Adobe Illustrator 19.1.0, SVG Export Plug-In . SVG Version: 6.00 Build 0)  -->
<svg version="1.1" id="Layer_1" xmlns="http://www.w3.org/2000/svg" xmlns:xlink="http://www.w3.org/1999/xlink" x="0px" y="0px"
	 width="146.5px" height="146.5px" viewBox="-126 62.5 146.5 146.5" style="enable-background:new -126 62.5 146.5 146.5;"
	 xml:space="preserve">
<style type="text/css">
	.st0{display:none;stroke:#FFFFFF;stroke-miterlimit:10;}
	.st1{fill:none;stroke:#FFFFFF;stroke-width:2;stroke-miterlimit:10;}
	.st2{fill:#FFFFFF;}
</style>
<rect x="-126" y="61.2" class="st0" width="146.5" height="149"/>
<path class="st1" d="M-26.8,93.1c-1,0-2,0.1-2.9,0.2c-3.9-10.8-14.6-18.1-26.4-18.1c-7.6,0-14.7,2.8-20,8.1c-5.1,5.1-8,11.9-8,19.2
	c0,0.6,0,1.4,0.1,2c-0.1,0-0.2,0-0.3,0c-10.7,0-19.5,8.5-19.5,19.2s8.8,19.2,19.6,19.2h57.5c14,0,25.4-11.2,25.4-24.9
	C-1.4,104.3-12.8,93.1-26.8,93.1z"/>
<path class="st2" d="M-37.7,138.3c0,0.4,0.2,0.6,0.6,0.6h11.7l-12.2-12.9h-0.1V138.3z"/>
<g>
	<path class="st2" d="M-36.1,141.6c-2.5,0-4.4-1.9-4.4-4.4v-11.3h-39.7v57.7h54.8v-42.1H-36.1z M-58.7,165h-11.1v-2.5l6.8-9.3h-6.8
		v-2.7h10.9v2.5l-6.8,9.3h7V165z M-51.7,165h-3.1v-14.5h3.1V165z M-40.5,159.8h-3.7v5.2h-3v0v-14.5h6.7c3.1,0,4.8,2.2,4.8,4.6
		C-35.7,157.7-37.4,159.8-40.5,159.8z"/>
	<path class="st2" d="M-41,153.2h-3.2v3.9h3.2c1.3,0.1,2.2-0.6,2.2-1.9C-38.8,153.9-39.7,153.2-41,153.2z"/>
</g>
<g>
	<g>
		<path class="st2" d="M-46.2,101.7c-0.4,0-0.8-0.2-1.1-0.5l-5.3-5.6l-5.3,5.7c-0.6,0.6-1.5,0.7-2.3,0.1c-0.6-0.6-0.7-1.5-0.1-2.3
			l6.5-7.1c0.3-0.3,0.7-0.5,1.1-0.5c0.4,0,0.8,0.2,1.1,0.5l6.5,6.9c0.6,0.6,0.5,1.7-0.1,2.3C-45.4,101.6-45.7,101.7-46.2,101.7z"/>
	</g>
	<path class="st2" d="M-52.4,119.7c-1.2,0-2.1-0.9-2.1-2.1v-0.2c0-1.2,0.9-2.1,2.1-2.1c1.2,0,2.1,0.9,2.1,2.1v0.2
		C-50.3,118.8-51.2,119.7-52.4,119.7z"/>
	<path class="st2" d="M-52.4,113.3c-1.2,0-2.1-0.9-2.1-2.1v-0.3c0-1.2,0.9-2.1,2.1-2.1c1.2,0,2.1,0.9,2.1,2.1v0.3
		C-50.3,112.3-51.2,113.3-52.4,113.3z"/>
	<path class="st2" d="M-52.4,106.6c-1.2,0-2.1-0.9-2.1-2.1v-0.3c0-1.2,0.9-2.1,2.1-2.1c1.2,0,2.1,0.9,2.1,2.1v0.3
		C-50.3,105.8-51.2,106.6-52.4,106.6z"/>
</g>
</svg>
