<?xml version="1.0" encoding="utf-8"?>
<!-- Generator: Adobe Illustrator 18.1.1, SVG Export Plug-In . SVG Version: 6.00 Build 0)  -->
<svg version="1.1" id="Layer_1" xmlns="http://www.w3.org/2000/svg" xmlns:xlink="http://www.w3.org/1999/xlink" x="0px" y="0px"
	 viewBox="-322 233.5 146.5 146.5" enable-background="new -322 233.5 146.5 146.5" xml:space="preserve">
<rect x="-574" y="357.2" display="none" stroke="#FFFFFF" stroke-miterlimit="10" width="146.5" height="149"/>
<g>
	<linearGradient id="SVGID_1_" gradientUnits="userSpaceOnUse" x1="-301" y1="283.25" x2="-196.5" y2="283.25">
		<stop  offset="0" style="stop-color:#4E5663"/>
		<stop  offset="0.6682" style="stop-color:#283841"/>
		<stop  offset="1" style="stop-color:#0F1B21"/>
	</linearGradient>
	<path fill="url(#SVGID_1_)" d="M-222.9,318.1h-57.5c-11.4,0-20.6-9.1-20.6-20.2c0-10.9,8.8-19.8,19.7-20.2c0-0.4,0-0.7,0-1
		c0-7.5,2.9-14.6,8.3-19.9c5.4-5.4,12.8-8.4,20.7-8.4c12,0,22.8,7.2,27.1,18c0.7-0.1,1.5-0.1,2.2-0.1c14.5,0,26.4,11.6,26.5,25.9
		C-196.5,306.5-208.3,318.1-222.9,318.1z M-280.5,279.7c-10.2,0-18.5,8.2-18.5,18.2s8.3,18.2,18.6,18.2h57.5
		c13.5,0,24.4-10.7,24.4-23.9c-0.1-13.2-11.1-23.9-24.5-23.9c-1,0-1.9,0.1-2.8,0.2l-0.8,0.1l-0.3-0.7c-3.7-10.5-13.9-17.5-25.4-17.5
		c-7.4,0-14.3,2.8-19.3,7.8s-7.7,11.5-7.7,18.5c0,0.6,0,1.3,0.1,1.8l0.2,1.2H-280.5z"/>
</g>
<g>
	<path fill="#1D92CF" d="M-233.9,312.5c0,0.4,0.2,0.6,0.6,0.6h11.7l-12.2-12.9h-0.1V312.5z"/>
</g>
<g>
	<g>
		<linearGradient id="SVGID_2_" gradientUnits="userSpaceOnUse" x1="-276.4" y1="328.95" x2="-221.6" y2="328.95">
			<stop  offset="0" style="stop-color:#2099E8"/>
			<stop  offset="1" style="stop-color:#009EAF"/>
		</linearGradient>
		<path fill="url(#SVGID_2_)" d="M-232.3,315.8c-2.5,0-4.4-1.9-4.4-4.4v-11.3h-39.7v57.7h54.8v-42.1L-232.3,315.8
			C-232.3,315.7-232.3,315.8-232.3,315.8z M-254.9,339.2H-266v-2.5l6.8-9.3h-6.8v-2.7h10.9v2.5l-6.8,9.3h7V339.2z M-247.9,339.2
			h-3.1v-14.5h3.1V339.2z M-236.7,334h-3.7v5.2h-3l0,0v-14.5h6.7c3.1,0,4.8,2.2,4.8,4.6C-231.9,331.9-233.6,334-236.7,334z"/>
	</g>
	<g>
		<path fill="#1D92CF" d="M-237.2,327.4h-3.2v3.9h3.2c1.3,0.1,2.2-0.6,2.2-1.9C-235,328.1-235.9,327.4-237.2,327.4z"/>
	</g>
</g>
<g>
	<g>
		<g>
			<linearGradient id="SVGID_3_" gradientUnits="userSpaceOnUse" x1="-256.9031" y1="270.8516" x2="-240.8969" y2="270.8516">
				<stop  offset="0" style="stop-color:#4E5663"/>
				<stop  offset="0.6682" style="stop-color:#283841"/>
				<stop  offset="1" style="stop-color:#0F1B21"/>
			</linearGradient>
			<path fill="url(#SVGID_3_)" d="M-242.4,275.9c-0.4,0-0.8-0.2-1.1-0.5l-5.3-5.6l-5.3,5.7c-0.6,0.6-1.5,0.7-2.3,0.1
				c-0.6-0.6-0.7-1.5-0.1-2.3l6.5-7.1c0.3-0.3,0.7-0.5,1.1-0.5s0.8,0.2,1.1,0.5l6.5,6.9c0.6,0.6,0.5,1.7-0.1,2.3
				C-241.6,275.8-241.9,275.9-242.4,275.9z"/>
		</g>
	</g>
	<g>
		<linearGradient id="SVGID_4_" gradientUnits="userSpaceOnUse" x1="-250.7" y1="291.7" x2="-246.5" y2="291.7">
			<stop  offset="0" style="stop-color:#4E5663"/>
			<stop  offset="0.6682" style="stop-color:#283841"/>
			<stop  offset="1" style="stop-color:#0F1B21"/>
		</linearGradient>
		<path fill="url(#SVGID_4_)" d="M-248.6,293.9c-1.2,0-2.1-0.9-2.1-2.1v-0.2c0-1.2,0.9-2.1,2.1-2.1c1.2,0,2.1,0.9,2.1,2.1v0.2
			C-246.5,293-247.4,293.9-248.6,293.9z"/>
	</g>
	<g>
		<linearGradient id="SVGID_5_" gradientUnits="userSpaceOnUse" x1="-250.7" y1="285.25" x2="-246.5" y2="285.25">
			<stop  offset="0" style="stop-color:#4E5663"/>
			<stop  offset="0.6682" style="stop-color:#283841"/>
			<stop  offset="1" style="stop-color:#0F1B21"/>
		</linearGradient>
		<path fill="url(#SVGID_5_)" d="M-248.6,287.5c-1.2,0-2.1-0.9-2.1-2.1v-0.3c0-1.2,0.9-2.1,2.1-2.1c1.2,0,2.1,0.9,2.1,2.1v0.3
			C-246.5,286.5-247.4,287.5-248.6,287.5z"/>
	</g>
	<g>
		<linearGradient id="SVGID_6_" gradientUnits="userSpaceOnUse" x1="-250.7" y1="278.55" x2="-246.5" y2="278.55">
			<stop  offset="0" style="stop-color:#4E5663"/>
			<stop  offset="0.6682" style="stop-color:#283841"/>
			<stop  offset="1" style="stop-color:#0F1B21"/>
		</linearGradient>
		<path fill="url(#SVGID_6_)" d="M-248.6,280.8c-1.2,0-2.1-0.9-2.1-2.1v-0.3c0-1.2,0.9-2.1,2.1-2.1c1.2,0,2.1,0.9,2.1,2.1v0.3
			C-246.5,280-247.4,280.8-248.6,280.8z"/>
	</g>
</g>
</svg>
