<?xml version="1.0" encoding="utf-8"?>
<!-- Generator: Adobe Illustrator 19.1.0, SVG Export Plug-In . SVG Version: 6.00 Build 0)  -->
<svg version="1.1" id="Layer_1" xmlns="http://www.w3.org/2000/svg" xmlns:xlink="http://www.w3.org/1999/xlink" x="0px" y="0px"
	 width="184px" height="184px" viewBox="-107 44 184 184" style="enable-background:new -107 44 184 184;" xml:space="preserve">
<style type="text/css">
	.st0{opacity:0.5;enable-background:new    ;}
	.st1{fill:#FFFFFF;}
	.st2{fill:#FFFFFF;enable-background:new    ;}
	.st3{fill:#1D92CF;}
	.st4{fill:none;}
	.st5{enable-background:new    ;}
</style>
<g class="st0">
	<path class="st1" d="M-15,46c49.6,0,90,40.4,90,90s-40.4,90-90,90s-90-40.4-90-90S-64.6,46-15,46 M-15,44c-50.8,0-92,41.2-92,92
		s41.2,92,92,92s92-41.2,92-92S35.8,44-15,44L-15,44z"/>
</g>
<path class="st2" d="M13.6,94.1c-1.2,0-2.2,0.1-3.2,0.2C6.1,82.3-5.7,74.2-18.8,74.2c-8.4,0-16.2,3.1-22.1,9
	c-5.7,5.7-8.9,13.2-8.9,21.2c0,0.7,0,1.5,0.1,2.2c-0.1,0-0.2,0-0.3,0c-11.9,0-21.6,9.5-21.6,21.2c0,11.7,9.7,21.2,21.7,21.2h63.6
	c15.5,0,28.1-12.4,28.1-27.5C41.7,106.4,29.1,94.1,13.6,94.1z"/>
<g>
	<path class="st3" d="M2.7,140.5c-2.6,0-4.6-2-4.6-4.6v-12h-42.2v71.9h58.2v-55.3H2.7z"/>
	<path class="st3" d="M2.1,135.9c0,0.4,0.2,0.6,0.6,0.6h11.4L2.2,123.9H2.1V135.9z"/>
</g>
<rect x="-35.2" y="155" class="st4" width="40.4" height="17.3"/>
<g class="st5">
	<path class="st1" d="M-30.6,169v-2.4l6.6-9h-6.6V155h10.5v2.4l-6.6,9h6.8v2.6H-30.6z"/>
	<path class="st1" d="M-16.1,169v-14h3v14H-16.1z"/>
	<path class="st1" d="M-8.8,169v-14h6.5c3,0,4.7,2.1,4.7,4.5c0,2.4-1.7,4.5-4.7,4.5h-3.6v5H-8.8z M-0.6,159.5c0-1.2-0.9-1.9-2.1-1.9
		h-3.1v3.8h3.1C-1.5,161.4-0.6,160.7-0.6,159.5z"/>
</g>
<g>
	<g>
		<path class="st3" d="M-11.2,103c-0.4,0-0.8-0.2-1.1-0.5l-5.2-5.4l-5.2,5.6c-0.6,0.6-1.5,0.7-2.2,0.1c-0.6-0.6-0.7-1.5-0.1-2.2
			l6.3-6.9c0.3-0.3,0.7-0.5,1.1-0.5c0.4,0,0.8,0.2,1.1,0.5l6.3,6.7c0.6,0.6,0.5,1.6-0.1,2.2C-10.4,102.9-10.8,103-11.2,103z"/>
	</g>
	<path class="st3" d="M-17.3,117c-1,0-1.8-0.8-1.8-1.8v-0.2c0-1,0.8-1.8,1.8-1.8s1.8,0.8,1.8,1.8v0.2C-15.5,116.3-16.3,117-17.3,117
		z"/>
	<path class="st3" d="M-17.3,111.6c-1,0-1.8-0.8-1.8-1.8v-0.3c0-1,0.8-1.8,1.8-1.8s1.8,0.8,1.8,1.8v0.3
		C-15.5,110.8-16.3,111.6-17.3,111.6z"/>
	<path class="st3" d="M-17.3,105.8c-1,0-1.8-0.8-1.8-1.8v-0.3c0-1,0.8-1.8,1.8-1.8s1.8,0.8,1.8,1.8v0.3
		C-15.5,105.1-16.3,105.8-17.3,105.8z"/>
</g>
</svg>
