<?xml version="1.0" encoding="utf-8"?>
<!-- Generator: Adobe Illustrator 18.1.0, SVG Export Plug-In . SVG Version: 6.00 Build 0)  -->
<svg version="1.1" id="Layer_1" xmlns="http://www.w3.org/2000/svg" xmlns:xlink="http://www.w3.org/1999/xlink" x="0px" y="0px"
	 viewBox="-179 270 253 253" enable-background="new -179 270 253 253" xml:space="preserve">
<g>
	<circle fill="#074E68" cx="-51.2" cy="396.6" r="126"/>
	<g opacity="0.5" enable-background="new    ">
		<g>
			<g>
				<defs>
					<circle id="SVGID_1_" cx="-51.6" cy="396.4" r="126"/>
				</defs>
				<clipPath id="SVGID_2_">
					<use xlink:href="#SVGID_1_"  overflow="visible"/>
				</clipPath>
				<g clip-path="url(#SVGID_2_)">
					<g>
						<line fill="none" stroke="#FFFFFF" stroke-width="0.5" stroke-miterlimit="10" x1="42.6" y1="614.9" x2="42.6" y2="192.4"/>
						<line fill="none" stroke="#FFFFFF" stroke-width="0.5" stroke-miterlimit="10" x1="25.5" y1="614.9" x2="25.5" y2="192.4"/>
						<line fill="none" stroke="#FFFFFF" stroke-width="0.5" stroke-miterlimit="10" x1="59.7" y1="614.5" x2="59.7" y2="192"/>
						<line fill="none" stroke="#FFFFFF" stroke-width="0.5" stroke-miterlimit="10" x1="76.8" y1="614.9" x2="76.8" y2="192.4"/>
						<line fill="none" stroke="#FFFFFF" stroke-width="0.5" stroke-miterlimit="10" x1="-25.7" y1="614.9" x2="-25.7" y2="192.4"/>
						<line fill="none" stroke="#FFFFFF" stroke-width="0.5" stroke-miterlimit="10" x1="-42.8" y1="614.9" x2="-42.8" y2="192.4"/>
						<line fill="none" stroke="#FFFFFF" stroke-width="0.5" stroke-miterlimit="10" x1="-8.6" y1="614.5" x2="-8.6" y2="192"/>
						<line fill="none" stroke="#FFFFFF" stroke-width="0.5" stroke-miterlimit="10" x1="8.4" y1="614.9" x2="8.4" y2="192.4"/>
						<line fill="none" stroke="#FFFFFF" stroke-width="0.5" stroke-miterlimit="10" x1="-93.7" y1="615.2" x2="-93.7" y2="192.6"/>
						
							<line fill="none" stroke="#FFFFFF" stroke-width="0.5" stroke-miterlimit="10" x1="-110.8" y1="615.2" x2="-110.8" y2="192.6"/>
						<line fill="none" stroke="#FFFFFF" stroke-width="0.5" stroke-miterlimit="10" x1="-76.6" y1="614.7" x2="-76.6" y2="192.2"/>
						<line fill="none" stroke="#FFFFFF" stroke-width="0.5" stroke-miterlimit="10" x1="-59.6" y1="615.2" x2="-59.6" y2="192.6"/>
						
							<line fill="none" stroke="#FFFFFF" stroke-width="0.5" stroke-miterlimit="10" x1="-162.1" y1="615.2" x2="-162.1" y2="192.6"/>
						
							<line fill="none" stroke="#FFFFFF" stroke-width="0.5" stroke-miterlimit="10" x1="-179.2" y1="615.2" x2="-179.2" y2="192.6"/>
						<line fill="none" stroke="#FFFFFF" stroke-width="0.5" stroke-miterlimit="10" x1="-145" y1="614.7" x2="-145" y2="192.2"/>
						
							<line fill="none" stroke="#FFFFFF" stroke-width="0.5" stroke-miterlimit="10" x1="-127.9" y1="615.2" x2="-127.9" y2="192.6"/>
					</g>
					<g>
						
							<line fill="none" stroke="#FFFFFF" stroke-width="0.5" stroke-miterlimit="10" x1="-254.2" y1="490.1" x2="168.3" y2="490.1"/>
						<line fill="none" stroke="#FFFFFF" stroke-width="0.5" stroke-miterlimit="10" x1="-254.2" y1="473" x2="168.3" y2="473"/>
						
							<line fill="none" stroke="#FFFFFF" stroke-width="0.5" stroke-miterlimit="10" x1="-253.8" y1="507.2" x2="168.8" y2="507.2"/>
						
							<line fill="none" stroke="#FFFFFF" stroke-width="0.5" stroke-miterlimit="10" x1="-254.2" y1="524.3" x2="168.3" y2="524.3"/>
						
							<line fill="none" stroke="#FFFFFF" stroke-width="0.5" stroke-miterlimit="10" x1="-254.2" y1="421.7" x2="168.3" y2="421.7"/>
						
							<line fill="none" stroke="#FFFFFF" stroke-width="0.5" stroke-miterlimit="10" x1="-254.2" y1="404.6" x2="168.3" y2="404.6"/>
						
							<line fill="none" stroke="#FFFFFF" stroke-width="0.5" stroke-miterlimit="10" x1="-253.8" y1="438.8" x2="168.8" y2="438.8"/>
						
							<line fill="none" stroke="#FFFFFF" stroke-width="0.5" stroke-miterlimit="10" x1="-254.2" y1="455.9" x2="168.3" y2="455.9"/>
						
							<line fill="none" stroke="#FFFFFF" stroke-width="0.5" stroke-miterlimit="10" x1="-254.4" y1="353.7" x2="168.1" y2="353.7"/>
						
							<line fill="none" stroke="#FFFFFF" stroke-width="0.5" stroke-miterlimit="10" x1="-254.4" y1="336.6" x2="168.1" y2="336.6"/>
						<line fill="none" stroke="#FFFFFF" stroke-width="0.5" stroke-miterlimit="10" x1="-254" y1="370.8" x2="168.6" y2="370.8"/>
						
							<line fill="none" stroke="#FFFFFF" stroke-width="0.5" stroke-miterlimit="10" x1="-254.4" y1="387.9" x2="168.1" y2="387.9"/>
						
							<line fill="none" stroke="#FFFFFF" stroke-width="0.5" stroke-miterlimit="10" x1="-254.4" y1="285.3" x2="168.1" y2="285.3"/>
						
							<line fill="none" stroke="#FFFFFF" stroke-width="0.5" stroke-miterlimit="10" x1="-254.4" y1="268.3" x2="168.1" y2="268.3"/>
						<line fill="none" stroke="#FFFFFF" stroke-width="0.5" stroke-miterlimit="10" x1="-254" y1="302.4" x2="168.6" y2="302.4"/>
						
							<line fill="none" stroke="#FFFFFF" stroke-width="0.5" stroke-miterlimit="10" x1="-254.4" y1="319.5" x2="168.1" y2="319.5"/>
					</g>
				</g>
			</g>
		</g>
	</g>
</g>
<path fill="none" stroke="#FFFFFF" stroke-width="3" stroke-linecap="round" stroke-miterlimit="10" d="M-53.1,520.8"/>
<g>
	<path fill="none" stroke="#FFFFFF" stroke-width="3" stroke-linecap="round" stroke-miterlimit="10" d="M-52.6,375.2"/>
	
		<rect x="-108" y="360.7" fill="none" stroke="#FFFFFF" stroke-width="3" stroke-linecap="round" stroke-miterlimit="10" width="42.8" height="7.8"/>
	
		<rect x="-92.6" y="397.1" fill="none" stroke="#FFFFFF" stroke-width="3" stroke-linecap="round" stroke-miterlimit="10" width="12.6" height="7.5"/>
	<g>
		<polyline fill="none" stroke="#FFFFFF" stroke-width="3" stroke-linecap="round" stroke-miterlimit="10" points="-73,386.8 
			-69.9,373.3 -103.1,373.3 -99.9,387.2 		"/>
		<g>
			<path fill="none" stroke="#FFFFFF" stroke-width="3" stroke-linecap="round" stroke-miterlimit="10" d="M-99.9,387.2
				c0,0,0.3,1.3,0.6,2.8c0.4,1.5,6.1,2.8,12.7,2.8c6.6,0,12.4-1.4,12.8-3c0.4-1.7,0.7-3,0.7-3"/>
		</g>
	</g>
	<rect x="-94" y="378.5" fill="#FFFFFF" width="15" height="1.8"/>
	<rect x="-94" y="383.6" fill="#FFFFFF" width="15" height="1.8"/>
	<g>
		<g>
			<polyline fill="none" stroke="#FFFFFF" stroke-width="3" stroke-linecap="round" stroke-miterlimit="10" points="-92.6,350.1 
				-92.6,360 -97.1,360 -97.1,350.1 			"/>
			<g>
				<path fill="none" stroke="#FFFFFF" stroke-width="3" stroke-linecap="round" stroke-miterlimit="10" d="M-97.1,350.1
					c0,0,0-2.2,0-5s1-5,2.2-5c1.2,0,2.2,2.2,2.2,5s0,5,0,5"/>
			</g>
		</g>
		<g>
			<polyline fill="none" stroke="#FFFFFF" stroke-width="3" stroke-linecap="round" stroke-miterlimit="10" points="-76.1,350.1 
				-76.1,360 -80.6,360 -80.6,350.1 			"/>
			<g>
				<path fill="none" stroke="#FFFFFF" stroke-width="3" stroke-linecap="round" stroke-miterlimit="10" d="M-80.6,350.1
					c0,0,0-2.2,0-5s1-5,2.2-5c1.2,0,2.2,2.2,2.2,5s0,5,0,5"/>
			</g>
		</g>
	</g>
	<path fill="none" stroke="#FFFFFF" stroke-width="3" stroke-linecap="round" stroke-miterlimit="10" d="M-86.4,406.5
		c0,27,48.3,64,58.4-17c5.8-46.9,23.4-44.3,37.2-33.8"/>
</g>
<g>
	<line fill="none" stroke="#FFFFFF" stroke-miterlimit="10" x1="-122.7" y1="433.9" x2="-122.7" y2="341.7"/>
	<polygon fill="#FFFFFF" points="-122.7,435.4 -125.7,432.5 -119.8,432.5 	"/>
	<polygon fill="#FFFFFF" points="-122.7,340.7 -119.8,343.6 -125.7,343.6 	"/>
</g>
<g>
	<line fill="none" stroke="#FFFFFF" stroke-miterlimit="10" x1="-113.3" y1="449.4" x2="9.6" y2="449.4"/>
	<polygon fill="#FFFFFF" points="-114.8,449.4 -111.9,446.4 -111.9,452.3 	"/>
	<polygon fill="#FFFFFF" points="10.6,449.4 7.7,452.3 7.7,446.4 	"/>
</g>
<g>
	<line fill="none" stroke="#FFFFFF" stroke-miterlimit="10" x1="-107.2" y1="325.7" x2="-62.5" y2="325.7"/>
	<polygon fill="#FFFFFF" points="-109.2,325.7 -105.2,321.7 -105.2,329.7 	"/>
	<polygon fill="#FFFFFF" points="-61.2,325.7 -65.2,329.7 -65.2,321.7 	"/>
</g>
</svg>
