<?xml version="1.0" encoding="utf-8"?>
<!-- Generator: Adobe Illustrator 18.1.0, SVG Export Plug-In . SVG Version: 6.00 Build 0)  -->
<svg version="1.1" id="Layer_1" xmlns="http://www.w3.org/2000/svg" xmlns:xlink="http://www.w3.org/1999/xlink" x="0px" y="0px"
	 viewBox="0 0 603 453" enable-background="new 0 0 603 453" xml:space="preserve">
<path fill="#CCE9F4" d="M246.5,356.1L246.5,356.1V356V356.1z"/>
<path opacity="0.1" fill="#231F20" enable-background="new    " d="M466.6,426.8c0,7.8-51.5,14-115,14s-115-6.2-115-14
	c0-7.8,60.4-14,115-14C416.5,412.8,466.6,419,466.6,426.8z"/>
<path fill="#5B5A5D" d="M420.3,180.9c0.8,0.1,3.3,0.1,3.3,0.1c22.6,1.6,39.2-16,39.2-16s1.7,13.8-8.3,25.6
	c-11.5,13.8-35,14.1-35,14.1s0.2,2.6-1.2-9.7C417.2,186.5,419.7,180.8,420.3,180.9"/>
<path fill="#737F82" d="M420.3,180.9c-3.3,6.2-2.3,11.7-2.3,11.7c34.4,2.3,44.7-27.5,44.7-27.5s-16.7,17.5-39.2,16
	C423.5,180.9,420.9,180.9,420.3,180.9"/>
<path fill="#E9F6FD" d="M501,235.4c8.9,13.8,2.3,20.1,2.3,20.1c1.7,0.4,7.1-3.9,7.1-3.9c-3.6,11.2-11.7,15.9-11.7,15.9
	c1.1,1.1,2.9,1.8,2.9,1.8c-11.2,8.8-33.6,19.2-33.6,19.2c2.1,1.1,1.8,3,1.8,3c-2.3-1.4-4.7-0.1-4.7-0.1c2.3,2.8-0.1,5.1-0.1,5.1
	c-2.1-3-5.6-5.1-17.5-0.1c-11.9,4.9-32.9,11.2-40.1,11c-7.2-0.3-21.3-4.2-21.3-4.2c7.9-14.1,15.9-28.3,23.8-42.4
	c4.8,0.1,10,0.1,15.7-0.3c2.2-0.1,4.3-0.4,6.7-0.8c1-0.1-3-4.2-1.9-4.3c2.4-0.1,10.3,3.3,11.5,3.1c1.9-0.3,1-0.1,3-0.6
	c1.4-0.3,2.9-0.6,4.2-0.9c1.3-0.2-3.8-2.2-2.6-2.6c1.8-0.4,10,0.8,11.7,0.2C477.5,249.4,491.1,242.5,501,235.4z"/>
<path fill="#CCE9F4" d="M302.7,429.4c0,0,0.7-6.9-1.7-11.9c0,0,4.2,0.3,5,11.5C306.1,429,303,429.4,302.7,429.4z"/>
<path fill="#CCE9F4" d="M281.2,406v-0.2C281.3,405.8,281.2,405.9,281.2,406z"/>
<path fill="#CCE9F4" d="M285.3,428.8C285.2,428.8,285.2,428.8,285.3,428.8v-0.1V428.8z"/>
<line fill="none" x1="273.6" y1="395.3" x2="273.7" y2="395.3"/>
<path fill="#CCE9F4" d="M429.5,429.1c0,0-0.3-10-2.6-15c0,0,5.9,3.7,5.9,15.1C432.8,429.2,429.8,429.1,429.5,429.1z"/>
<path fill="#E9F6FD" d="M445,431.5c-0.1-1.9-0.1-1.8-0.4-4.1c-0.1-1.8-1.4-7.2-3.9-9.5c0,0,2.7,1.1,3.4,1.6c-2.7-3.6-3.9-8.5-12-12
	c0,0,1.4-0.8,2.9-0.9c-1.4-0.9-2.4-1.2-4-1.1c0.4-1.4,2.7-4.9,4.4-5.3c0,0-1.1-0.8-2.9-0.1c-0.7,0.3-1.3,0.8-2,1.1
	c-0.2,0.1-0.6,0-0.7-0.2c-0.6-2.1-0.9-4.2-1.3-6.4c-1-6.1-2-15.3-1.2-26.3c0.9-12.8,3.7-22,4.2-24.3c3.6-12.7,3.8-36.6-9.7-86
	c0,0-2.4-6.3-2.4-18.9s8.1-22.4,8.1-22.4c-5.6,0-8.1,4.9-8.1,4.9s0-0.2,0-26.5s13.3-38.1,13.3-38.1c-4.1-0.2-6.8,1.7-6.8,1.7
	c1.9-19.4,7.9-25.2,7.9-25.2c-22-5.8-34.1,7.1-34.1,7.1c-2.4-11.8,7.1-18.7,7.1-18.7c-11.2-2.4-20.5,0.8-20.5,0.8
	c0-17.2,6.8-23,6.8-23c-34.3,0-53.6,25.8-53.6,25.8c-1.4-10.9,1.7-20.5,1.7-20.5c-33.1,14-42,44.9-42,44.9c-2.2-5.2-2.4-17-2.4-17
	s-13.5,23-16,38.9c-2.4,15.9,2.2,61.5,2.2,61.5s-2.2-2.7-6.8-3.3c0,0,4.9,5.6,4.9,17.9c0,0-1.9-1.7-5.2-0.8c0,0,5.2,4.7,5.8,12.5
	l-0.4,7.2c-0.1,7.1,4,102.5,4,102.5l-1.2,26.1c-1.3,5.6-3.8,10.2-9.1,10.4l-0.6,1c-0.1,0-0.2,0-0.3,0c-0.1,1.7-3.3,1.9-4.2,3
	c-2.7,3.3-4.8,8.1-6.2,12.2c-1,3-0.4,3-1.2,6.2c-0.2,1-1.3,2.1-1.7,3.1c3-1,11.2-1.7,15.4-2l0.1,3.9c0,0,0.8,0.7,1.9,1.1h0.1
	c0.4,0,0.8,0.1,1.1,0.1c6.4-0.6,11,0.4,18.5-0.1c1.4-0.1,2.8-0.4,4.1-1.1c0.3-1.1,0.4-1.1,0.6-2.6c0-0.2,0-0.4,0.1-0.8
	c0.1,0,0.2,0,0.3-0.1c0.1,0,0.1,0,0.2,0h0.1c0.1,0,0.2,0,0.3,0c0.1,0,0.1,0,0.2,0c1.4-0.1,3.6-0.2,4.9-0.3c4.4,0,10.2,0.4,10.2,0.4
	c0.3-4.9,0.8-12.7,8.7-35l2-1.2c0,0,24.5,8.7,47.4-0.3c1.8,4.4,7.7,19.4,8.5,28.9c0.8,1.1,0.7,2.4,0.8,4c0,1.2,0.1,2.6,0.1,3.8
	c0.8-0.1,3.8-0.4,7.6-0.4c1.4,0.1,3.6,0.1,4.9,0.3c0.1,0,0.1,0,0.2,0c0.1,0,0.2,0,0.3,0h0.1c0.1,0,0.2,0,0.2,0c0.1,0,0.2,0,0.3,0.1
	c0.1,0.3,0.1,0.6,0.1,0.8c0.1,1.4,0.2,1.4,0.6,2.6c0.1,0.1,0.1,0.1,0.3,0.1c4.1-0.4,8.3-0.7,12.4-0.4c3.2,0.1,6.4,0.8,9.7,1.3v0.1
	c0.3,0,0.7,0.1,1,0.1c1.8,0.3,3.4,0.6,5.2,0.8c0-2.1,0-4,0-5.7c3.4,0.1,8.3,0.8,10.5,1.1c0.8,0.1,1.4,0.3,2.2,0.4
	c0.1,0,0.1,0.1,0.2,0.1l0,0C443.2,430.9,443.9,431,445,431.5z"/>
<path fill="#AADAE1" d="M281.2,266.4"/>
<path fill="#AADAE1" d="M296.6,366.7c0,0,7.1,12.5,13.4,18c6.8,5.9,13.1,14.1,15.7,19.2c0,0,3.3-7.9,5.2-10.5
	C330.9,393.4,310.9,387.5,296.6,366.7z"/>
<path fill="#5B5A5D" d="M293.8,179.3c-0.8,0.1-3.3,0.1-3.3,0.1c-22.6,1.6-39.2-16-39.2-16s-1.4,13.7,8.3,25.6s29.6,14.1,29.6,14.1
	c0.7,2.8-0.8,9-0.8,9s5.9-6.4,7.3-18.7C296.9,185.1,294.4,179.3,293.8,179.3"/>
<path fill="#737F82" d="M293.8,179.3c-0.8,0.1-3.3,0.1-3.3,0.1c-22.6,1.6-39.2-16-39.2-16s10.3,29.9,44.7,27.5
	C296.2,191,297.2,185.5,293.8,179.3"/>
<path fill="#CCE9F4" d="M273.3,400.8c-0.1,0.2-0.4,0.4-0.7,0.2c-0.7-0.4-1.3-0.8-2-1.1c-1.8-0.6-2.9,0.1-2.9,0.1
	c1.8,0.4,4,4,4.4,5.3c-1.4-0.1-2.6,0.2-4,1.1c1.4,0.1,2.9,0.9,2.9,0.9c-8.1,3.4-9.3,8.4-12,12c0.8-0.4,3.4-1.6,3.4-1.6
	c-2.3,2.2-3.7,7.8-3.9,9.5c-0.2,2.3-0.2,2.3-0.4,4.1c2.1-0.8,3.2-0.8,4.9-1.2c2.7-0.4,10.3-1.4,13-1.1l-0.4,5.3h0.1
	c1.4-0.4,2.6-0.3,3.9-0.4c0-1.4,0.1-3,0.2-4.3c-0.1-2.4,0.2-4.8,0.8-7.3c0-0.1,0-0.1,0.1-0.2c1-3.4,2.8-5.4,3.9-6.7
	c0.4-0.4,0.8-0.9,1-1.4c0.7-0.9,1.4-2.1,1.9-3.6c1.1-3,0.7-9.9-1.7-16.4c2.3,3.4,4.6,6.4,5.6,7.4l-0.1-8.3c0,0,4.3,4.3,8.3,7.8
	c1.9,1.7,4.2,3.6,5.9,4.3c0.1,0.1,0.2,0.1,0.3,0.2l0,0c0,0,0,0,0.1,0c2.2,1.2,4.6,2.3,6.7,3.8c0.2,0.1,0.4,0.2,0.7,0.4
	c1,0.7,2.7,1.4,4.2,2.3l1.4,17.5c1.3-18.4,11.9-36,11.9-36l-0.4-0.1c-3.2-1-27-9.2-41-38.5c-0.9-1.9,5.2,2.2,5.2,2.2
	c-5.8-14-8-36.4-8-36.4c0.1,0-2.4-23-1.9-36.8c1.7-38,14.7-67.5,24.5-85.3c-4.3-1.7-9-1.4-9-1.4c5.1-12.2,22-29.2,22-29.2
	c-4.6,0.2-22.2,5.1-22.2,5.1c14.7-38.2,29.4-48.3,29.4-48.3c-1.1,9.2,2.4,18.9,2.4,18.9c31.8-39.3,57.3-37.5,57.3-37.5
	c1.9-4,4-6.7,4-6.7c-34.3,0-53.6,25.8-53.6,25.8c-1.4-10.9,1.7-20.5,1.7-20.5c-33.1,14-42,44.9-42,44.9c-2.2-5.2-2.4-17-2.4-17
	s-13.5,22.8-16,38.6c-2.4,15.9,2.2,61.5,2.2,61.5s-2.2-2.7-6.8-3.3c0,0,4.9,5.6,4.9,17.9c0,0-1.9-1.7-5.2-0.8c0,0,5.2,4.7,5.8,12.5
	l-1.7,28.4c-2.8,13,1.4,53.2,5.2,79.3l-6.4,28.6"/>
<path fill="#CCE9F4" d="M501,266.5c2.4-3.4,5.7,0.4,5.7,0.4c-7.4,3-18.9,19.4-18.9,19.4c0.2-2.3,0.8-4.3,1.8-6.2l-5.3,2.3l-2.1,7.9
	l-5.9-2.9l-20.8,16.8l1.1-7.3c0,0-10.5,1.4-24.5,9.3c0,0-0.1-2.8-0.8-4c0,0-0.3-2,1.4-2.9c14.7-3,32.6-8.4,53.7-25.8
	c4.9-2.2,9.7-6,14.7-8.3"/>
<path fill="#CCE9F4" d="M539,253.9c0,0-9.3,15.9-18.4,11.2c-9-4.6-18,8.4-24.9,3.6c-6.9-4.9-16.2-0.7-29.5-13.1
	c0,0,4.2-6.1,13.8-9.7l1.1,4.2c0,0,3.4-15.5,12.7-27c0,0,4.3,11.5,5.8,21.3c0,0,10.1-17.2,7.8-24.5c0,0,5.2,1.4,8.7,10.9
	c0,0,9.5-11,16.1,1.9C538.6,245.8,540.5,250.7,539,253.9z"/>
<path fill="#E9F6FD" d="M543.4,248.2c0,0-9.3,15.9-18.4,11.2c-9-4.6-18,8.4-24.9,3.6c-6.9-4.9-21.3,4.6-34.6-7.9
	c0,0,9.3-11.2,18.9-14.8l1.1,4.2c0,0,3.4-15.5,12.7-27c0,0,4.3,11.5,5.8,21.3c0,0,5.8-16.7,3.4-23.9c0,0,9.5,0.9,13.1,10.2
	c0,0,9.5-11,16.1,1.9C543.1,239.9,545,244.9,543.4,248.2z"/>
<path fill="#CCE9F4" d="M507.3,215c0,0,9.7,10.7-3,31c0,0-0.1-3.4-0.6-7.1C504.2,238,508.6,218.2,507.3,215z"/>
<path fill="#CCE9F4" d="M520.3,225.3c0,0,3,10.3,2.4,16.1c0,0,7.4-7.6,1-19C523.8,222.3,521,223.8,520.3,225.3z"/>
<path fill="#CCE9F4" d="M497.9,217.5c0,0-7.4,27.6-11.7,34.2c0,0,0.1-2.9-1.1-7.2C485.2,244.6,489.7,225.7,497.9,217.5z"/>
<path fill="#B1DDEE" d="M346.7,286.5c0,0,5.4-3.7,8.7-4.2c0,0,0.8,6.9,3.9,10.3c0,0,6.9-6.2,13.7-6.7c0,0,1.8,3.8,4.6,5.2v0.1
	c1.1,0.7,2.3,1.3,3.6,1.6c0,0,4-2.3,5-6.7c0,0,0.4,9.1-5.3,14.1c0,0-4.3-2.1-7.4-5.6c-0.9-0.9-1.9-2-2.3-2.9c0,0-10.1,7.1-10.4,11.2
	c0,0-7.3-7.1-9.8-12.5c0,0-4.9,1.6-6.2,2.6c0,0-4-6.4-4.7-12.2C339.7,280.8,344.3,285.2,346.7,286.5z"/>
<path fill="#E9F6FD" d="M452.6,275.6"/>
<path fill="#5B5A5D" d="M387.8,265.7"/>
<path fill="#CCE9F4" d="M431.3,301.3c-2.7-18.7-3-15.4-4.6-23.2c7.7,13.7,10.8,22,8.5,23.8C434.6,302.6,433.1,302,431.3,301.3z"/>
<path fill="#CCE9F4" d="M463.8,315.5"/>
<path fill="#CCE9F4" d="M397.1,409.9c-0.2,0.1-0.4,0-0.4-0.1c-0.4,0.1-0.8,0.1-1,0.2l0,0c5.7-4.1,6.2-8.4,6.2-8.4
	c-3.8,1.8-7.8,2.3-9.7,2.6c13.1-11.3,15.3-32.4,15.3-32.4c-5.3,6.6-12.2,11.1-18.1,14.8l-0.9,0.6c0,0-3.3,2.1-6.9,3.8
	c-0.1,0-0.3,0.2-0.9,0.4c-1.9,0.9-3.4,1.4-4.6,1.8c0,0,3,5.8,4.2,8.8l-0.2,0.1c0,0,4.3,10.3,6,20.4c0.1,1.8,0.3,3.2,0.4,4.2
	c0.1,1.4,0.1,2.4,0.1,2.4c5.8-0.8,14,0,14,0c0,0.9,0.4,3.2,0.6,3.7c2.7-0.4,5.6-0.4,8.3-0.6C409.3,422.7,408.8,406.6,397.1,409.9z"
	/>
<path fill="#AADAE1" d="M390.1,391c1-1.4,2.1-2.7,3.2-4c1.8-2.1,3.7-4.3,5.2-6.8c-2.6,1.9-5.2,3.7-8.2,5.4
	c-8.5,5.8-14.2,7.5-14.2,7.5c1.7,3,4.7,10.7,4.7,10.7c1.7-3,4.9-7.4,8.4-11.7C389.4,391.8,389.7,391.5,390.1,391z"/>
<path fill="#E9F6FD" d="M254.4,302"/>
<path fill="#AADAE1" d="M287.2,323.4c-0.4-3.9-1.8-22.4-2.1-25.3c-0.4,1.4-4.3,5.2-5.1,10.2c-1.1,3.7,0.1,13.2,0.1,13.2
	c0,2.1,2.3,26.4,2.9,28c-0.3-1,1.4-3,2.8-3.8c1.3-0.8,4-1.6,5-1.8C290,341.5,287.4,325.2,287.2,323.4z"/>
<path fill="#E9F6FD" d="M255,336.2c-0.3-17.2,0.8-25.4,7.1-37.4l3.4,2l-0.7-6.1c0,0,17.4-33.5,17.3-33.2l-1.1-5.8
	c0,0-23.4,20.5-19.4,22l0,0l0,0c0,0-10.7,8.5-16.5,24.3c0.1,0,4.8-1.4,6.4-0.1l0,0l0,0c0,0-6.2,3.7-8.4,14.4l-6.4,2.3l3.1,9.3l0,0
	l0,0c0,0-3.7,0.2-5.9,7.7c0.1-0.1,3.2-2.1,5.6-2.6c0,0-4.9,0.6-4.3,6.4c3.7,5.4,12.1,12.2,17.2,13.8l6.8-0.3l5.9-8.9
	C261,343.1,258,339,255,336.2z"/>
<path fill="#E9F6FD" d="M295.2,254.1c-2.1,1.4-9.4,14.9-11.5,16.7c-4.6,3.8-4-3.8-8.4,0.4c-10.2,9.9-18.3,19-18.3,19l-0.1,6.8
	l-4.2-3.1c-10.3,11.3-13.2,20.1-15.8,39c-2.1,2.4,15,13.8,22.9,16.4c8.8-16.8,17.4-28.9,20.9-39.3c1.1-3.6,3.8-7.1,5.7-12.7
	c1.1-3.3,1.4-8.1,2.3-11.8c6-24.8,7.1-31.4,7.1-31.4"/>
<path fill="#CCE9F4" d="M278.3,312.1c1.9-3.3,10.3-19.5,11.2-22.4c-1,7.1-5.2,28-5.2,28c-1.4-1.8-1.1-1.4-1.8-3.3l-2,4.9l2.3,4.4
	l-4.9,2.1l-7.8,22.3l-1.8-5.9c-0.8,1.1-1.9,2.8-3.1,4.9c-0.9,2.1-3.6,4.8-7,7c-3.7,2.3-8.4,4.2-12.8,4.2
	c-8.1-0.1-15.3-8.7-17.4-10.9c-4-4.6-2.3-10.7-2-11.5c0.1-0.1,0.1,0.1,0.1,0.1c7.3,10.5,26.8,7.1,31.8,0.7c0.4-0.6,1.4,1.7,2,1
	c4.2-5.9,10.5-17.2,16-28.2c0.1-0.3,0.4-0.8,0.4-0.8C276.6,309,277.8,311.2,278.3,312.1z"/>
<path fill="#AADAE1" d="M296.6,366.7c0,0,7.1,12.5,13.4,18c6.8,5.9,13.1,14.1,15.7,19.2c0,0,3.3-7.9,5.2-10.5
	C330.9,393.4,310.9,387.5,296.6,366.7z"/>
<path fill="#AADAE1" d="M280.7,337.4"/>
<g>
	<path fill="#AADAE1" d="M271.8,323.1c-11,8.5-39,21.3-45.2,14.1c-0.1-0.1-0.1-0.1-0.1-0.1c-0.4,0.4-0.8,3.7,0.7,7.4
		c0.1,0.4,7.6,4.6,12.1,5.6c3.4,0.7,11.4,0.9,16.3-2.3C266.4,340.3,271.9,323,271.8,323.1z"/>
	<path fill="#CCE9F4" d="M268.8,322.5c0.3-0.3,0.7-0.8,0.7-0.8L268.8,322.5z"/>
</g>
<g>
	<path fill="#CCE9F4" d="M204.2,331.8c0,0,10.7,15,19.3,9.7c8.7-5.3,18.8,6.9,25.2,1.4c6.4-5.6,14.4-4.9,23.2-19.8
		c0,0,0.4-1.4-9.3-4.1l-0.8,4.3c0,0-4.8-15.2-15-25.8c0,0-3.3,11.9-4,21.8c0,0-11.5-16.3-10-23.9c0,0-5,1.9-7.8,11.5
		c0,0-10.4-10.1-15.9,3.3C204,323.7,202.4,328.8,204.2,331.8z"/>
	<path fill="#E9F6FD" d="M199.4,326.3c0,0,10.7,15,19.3,9.7c8.7-5.4,18.8,6.9,25.2,1.4c6.4-5.6,15.7,1.8,28-14.4
		c0,0-4.3-6.8-14.2-9.5l-0.8,4.3c0,0-4.8-15.2-15-25.8c0,0-3.3,11.9-4,21.8c0,0-7.1-16-5.6-23.5c0,0-9.3,1.7-12.2,11.3
		c0,0-10.4-10.1-15.9,3.3C199.1,318.3,197.7,323.3,199.4,326.3z"/>
	<path fill="#CCE9F4" d="M232.5,290.2c0,0-8.8,10.7,5.6,29.9c0,0-0.1-3.3,0-7.1C238.1,312.9,231.5,293.7,232.5,290.2z"/>
	<path fill="#CCE9F4" d="M242.1,292c0,0,9.8,27,14.5,33.1c0,0-0.3-2.9,0.4-7.2C257.1,317.8,251,299.4,242.1,292z"/>
	<path fill="#CCE9F4" d="M220.1,301.6c0,0-2.2,10.8-1.3,16.7c0,0-8-7.1-2.3-19.3C216.4,298.8,219.3,300.1,220.1,301.6z"/>
</g>
<ellipse transform="matrix(0.9975 -7.135334e-02 7.135334e-02 0.9975 -16.043 27.6941)" fill="#CCE9F4" cx="379.6" cy="238.4" rx="8.9" ry="11.2"/>
<ellipse transform="matrix(0.9975 -7.135334e-02 7.135334e-02 0.9975 -15.836 27.675)" fill="#FFFFFF" cx="379.4" cy="235.5" rx="8.8" ry="11.1"/>
<path fill="#4E4D50" d="M380.1,227.5c-0.1,0.2-0.1,0.6-0.1,0.9c0.1,1.6,1.2,2.7,2.4,2.7c1.1-0.1,2-1.1,2.1-2.4
	c0.8,0.9,1.3,2.1,1.4,3.6c0.2,2.9-1.4,5.3-3.9,5.6c-2.3,0.1-4.3-2.1-4.6-4.9C377.3,230.3,378.4,228.3,380.1,227.5z"/>
<ellipse transform="matrix(0.9975 -7.135334e-02 7.135334e-02 0.9975 -16.3751 24.6593)" fill="#CCE9F4" cx="337" cy="241.5" rx="8.9" ry="11.2"/>
<ellipse transform="matrix(0.9975 -7.135334e-02 7.135334e-02 0.9975 -16.1594 24.6472)" fill="#FFFFFF" cx="336.9" cy="238.5" rx="8.8" ry="11.1"/>
<path fill="#4E4D50" d="M338.2,231.2c-0.1,0.2-0.1,0.6-0.1,0.9c0.1,1.6,1.2,2.7,2.4,2.7c1.1-0.1,2-1.1,2.1-2.4
	c0.8,0.9,1.3,2.1,1.4,3.6c0.2,2.9-1.4,5.3-3.9,5.6c-2.3,0.1-4.3-2.1-4.6-4.9C335.6,234.1,336.7,232.1,338.2,231.2z"/>
<path fill="#5B5A5D" d="M409.5,221.9c-4-0.3-10.9-0.4-19.2,0.6c-10.8,1.3-19.9,3.4-25.4,4.8c-1.7,0.4-2.9,0.7-3.9,0.9l-1.1,0.2
	c-1.2,0.2-2,0.4-2.7,0.4c-0.7,0-1.4,0-2.7-0.1l-1.1-0.1c-1-0.1-2.3-0.1-4-0.3c-5.6-0.4-15-1.3-25.8-1.1c-8.3,0.1-15.2,1.3-19.1,2.2
	c0,0-4.2,0.8-7.8,2.7l1,4.6c0,0,3.8-1.1,7.4-2c1.1,6.4,3.1,14.7,3.1,14.7v0.2c0.1,0.4,0.2,0.8,0.4,1.2c1,3.2,1.9,5.1,5.1,6
	c3.1,0.9,10.3,1.4,17.5,1.3c2.7-0.1,5.7-0.4,8.7-1.1c4.6-1,8.5-2.6,10-3.8c2.1-1.9,3.1-6.2,3.7-9l0.1-0.8c0.2-1,0.4-2,0.6-3
	c0.2-1.4,0.4-2.9,0.8-3.4c0.1-0.1,0.2-0.4,1.3-0.7c0.3-0.1,0.7-0.1,1.1-0.1s0.8,0,1.1,0c1,0.1,1.3,0.3,1.3,0.4
	c0.3,0.4,0.8,1.9,1.2,3.3c0.3,1,0.7,2,1,2.9l0.3,0.8c1,2.8,2.6,6.9,4.9,8.4c1.7,1.1,5.9,2,10.4,2.3c3.1,0.2,6.2,0.1,8.8-0.1
	c7.1-0.9,14.2-2.4,17.2-3.8c3-1.4,3.7-3.3,4.1-6.7c0.1-0.4,0.1-0.9,0.2-1.3v-0.2c0,0,0.8-8.3,1-15c3.8,0.2,7.7,0.9,7.7,0.9l0.3-4.6
	C413.7,222.3,409.5,221.9,409.5,221.9z M350.7,236.2L350.7,236.2c-0.1,1.6-0.4,9.2-1.9,11.9c-1.4,2.7-1.9,3.3-6.6,4.4
	c-0.1,0.1-0.4,0.1-0.7,0.1c-5.1,1.1-14.5,2-19.9,1.3l-0.4-0.1c-5.6-0.7-7.4-1-8.1-2.7c-0.9-2.2-3.1-12.5-3.3-14.8
	c-0.1-1.8,1.3-2.7,1.8-2.7c0.2-0.1,0.8-0.1,1.3-0.3c3.8-0.8,12-2,15.9-2.1c4.9-0.1,17.2,0.8,20,1.8
	C350.8,233.8,350.8,234.6,350.7,236.2z M404.2,244.8c-0.4,1.8-2.3,2.3-7.7,3.7l-0.3,0.1c-5.2,1.4-14.7,2-19.9,1.6
	c-0.2,0-0.4,0-0.7-0.1c-4.9-0.4-5.4-1.1-7.1-3.4c-1.8-2.4-3.3-10-3.7-11.4V235c-0.3-1.6-0.4-2.3,1.4-3.3c2.7-1.4,14.5-4,19.4-4.6
	c3.9-0.4,12.2-0.4,16-0.2c0.6,0.1,1.1,0.1,1.3,0.1c0.4,0.1,2.1,0.8,2.1,2.4C405.5,231.9,404.7,242.5,404.2,244.8z"/>
<path fill="#9FD3E8" d="M337.9,217.1c0,0-10.2-4-15.2,5.2c0,0-1.2-8.7,6.8-10.2C337.2,210.4,337.9,217.1,337.9,217.1z"/>
<path fill="#9FD3E8" d="M333.3,204.5c0,0-9.4-3.7-13.1,4.9c0,0-1.9-7.1,4.6-9.3C331.1,197.9,333.3,204.5,333.3,204.5z"/>
<path fill="#9FD3E8" d="M373.6,219.8c0,0,7.4-4.2,12.3,2.3c0,0,0-6.8-6.2-7.1C373.4,214.7,373.6,219.8,373.6,219.8z"/>
<path fill="#9FD3E8" d="M378.3,207.4c0,0,7.7-1.8,9.5,5.2c0,0,2.2-5.3-2.4-7.8C380.5,202.4,378.3,207.4,378.3,207.4z"/>
<path fill="#5B5A5D" d="M359.3,268.8c-0.4,0,10.1-1.8,20.1-4.6c0,0,0.1-2.1,0.6-3.3c0,0,0.7,3.3,1.8,3.8c0,0-4.6,3.2-9.7,4.4
	c0,0,5.3-2.3,7-3.7C379,265.4,369,268.5,359.3,268.8z"/>
<polygon fill="#CCE9F4" points="283.5,246.4 290,246.4 286.9,262.3 "/>
<polygon fill="#E9F6FD" points="285.6,285.5 281.1,296.8 285.6,273.5 "/>
<polyline fill="#E9F6FD" points="284.4,259.3 286.4,265.4 287.5,259.9 289.5,274.5 271.8,272.1 "/>
<g>
	
		<rect x="266.3" y="23.7" transform="matrix(0.9736 -0.2284 0.2284 0.9736 1.0459 63.9863)" fill="#FFEED0" width="21.4" height="7.6"/>
	
		<ellipse transform="matrix(-0.9736 0.2284 -0.2284 -0.9736 550.4009 -16.1404)" fill="#FFEED0" cx="276.1" cy="23.8" rx="10.8" ry="1.8"/>
	
		<rect x="292.5" y="17.5" transform="matrix(0.9736 -0.2284 0.2284 0.9736 3.1646 69.8182)" fill="#FFEED0" width="21.4" height="7.6"/>
	
		<ellipse transform="matrix(-0.9736 0.2284 -0.2284 -0.9736 601.0231 -34.1793)" fill="#FFEED0" cx="302.5" cy="17.7" rx="10.8" ry="1.8"/>
	
		<rect x="319" y="11.3" transform="matrix(0.9736 -0.2284 0.2284 0.9736 5.2662 75.7003)" fill="#FFEED0" width="21.4" height="7.6"/>
	
		<ellipse transform="matrix(-0.9736 0.2284 -0.2284 -0.9736 651.61 -52.3744)" fill="#FFEED0" cx="328.8" cy="11.5" rx="10.8" ry="1.8"/>
	
		<rect x="257.2" y="23.7" transform="matrix(0.9736 -0.2284 0.2284 0.9736 -0.9766 71.3347)" fill="#FFEED0" width="101" height="32.3"/>
	<polygon fill="#FCC393" points="356.7,49 267.8,69.8 262.2,67.3 360.5,44.2 	"/>
</g>
<g>
	
		<rect x="491.5" y="81.7" transform="matrix(0.931 0.3651 -0.3651 0.931 65.8605 -177.4477)" fill="#FFEED0" width="21.4" height="7.6"/>
	
		<ellipse transform="matrix(-0.931 -0.3651 0.3651 -0.931 942.2742 342.2427)" fill="#FFEED0" cx="503.5" cy="82" rx="10.8" ry="1.8"/>
	
		<rect x="516.7" y="91.7" transform="matrix(0.931 0.3651 -0.3651 0.931 71.2549 -185.9523)" fill="#FFEED0" width="21.4" height="7.6"/>
	
		<ellipse transform="matrix(-0.931 -0.3651 0.3651 -0.931 987.3848 370.5872)" fill="#FFEED0" cx="528.7" cy="92" rx="10.8" ry="1.8"/>
	
		<rect x="541.9" y="101.6" transform="matrix(0.931 0.3651 -0.3651 0.931 76.605 -194.4977)" fill="#FFEED0" width="21.4" height="7.6"/>
	
		<ellipse transform="matrix(-0.931 -0.3651 0.3651 -0.931 1032.4884 398.7496)" fill="#FFEED0" cx="553.9" cy="101.8" rx="10.8" ry="1.8"/>
	
		<rect x="469.9" y="97.1" transform="matrix(0.931 0.3651 -0.3651 0.931 77.2507 -182.1714)" fill="#FFEED0" width="101" height="32.3"/>
	<polygon fill="#FCC393" points="555.5,148.6 470.7,115.1 467.5,109.9 561.5,146.7 	"/>
</g>
<g>
	
		<rect x="138.7" y="245.4" transform="matrix(0.8166 -0.5772 0.5772 0.8166 -116.3855 131.9563)" fill="#FFEED0" width="21.4" height="7.5"/>
	
		<ellipse transform="matrix(-0.8166 0.5772 -0.5772 -0.8166 409.9599 362.1168)" fill="#FFEED0" cx="147.5" cy="246.2" rx="10.8" ry="1.8"/>
	
		<rect x="160.9" y="229.8" transform="matrix(0.8166 -0.5772 0.5772 0.8166 -103.3201 141.8842)" fill="#FFEED0" width="21.4" height="7.5"/>
	
		<ellipse transform="matrix(-0.8166 0.5772 -0.5772 -0.8166 440.9401 320.9392)" fill="#FFEED0" cx="169.5" cy="230.5" rx="10.8" ry="1.8"/>
	
		<rect x="183.1" y="214.2" transform="matrix(0.8166 -0.5772 0.5772 0.8166 -90.2548 151.8121)" fill="#FFEED0" width="21.4" height="7.5"/>
	
		<ellipse transform="matrix(-0.8166 0.5772 -0.5772 -0.8166 472.138 279.7663)" fill="#FFEED0" cx="191.6" cy="214.9" rx="10.8" ry="1.8"/>
	
		<rect x="132.2" y="233" transform="matrix(0.8166 -0.5772 0.5772 0.8166 -110.2898 151.1339)" fill="#FFEED0" width="101" height="32.3"/>
	<polygon fill="#FCC393" points="231.5,239.2 157,291.9 150.8,291.6 233.3,233.3 	"/>
</g>
</svg>
