<?xml version="1.0" encoding="utf-8"?>
<!-- Generator: Adobe Illustrator 18.1.0, SVG Export Plug-In . SVG Version: 6.00 Build 0)  -->
<svg version="1.1" id="Layer_1" xmlns="http://www.w3.org/2000/svg" xmlns:xlink="http://www.w3.org/1999/xlink" x="0px" y="0px"
	 viewBox="0 0 900 450" enable-background="new 0 0 900 450" xml:space="preserve">
<g id="Layer_2">
	<g>
		<g>
			<path fill="#CFD5D8" d="M628.5,342c0,6.7-5.4,11.9-11.9,11.9H164.9c-6.7,0-11.9-5.4-11.9-11.9V33.2c0-6.7,5.4-11.9,11.9-11.9
				h451.6c6.7,0,11.9,5.4,11.9,11.9V342L628.5,342z"/>
		</g>
		<path fill="#44515A" d="M628.5,33.2V304H152.8V33.2c0-6.7,5.4-11.9,11.9-11.9h451.6C623.3,21.3,628.5,26.7,628.5,33.2z"/>
		<g>
			<path fill="#78888D" d="M605.3,268.7c0,6.7-5.4,11.9-11.9,11.9H188.2c-6.7,0-11.9-5.4-11.9-11.9V56.6c0-6.7,5.4-11.9,11.9-11.9
				h405.2c6.7,0,11.9,5.4,11.9,11.9V268.7L605.3,268.7z"/>
		</g>
		<rect x="219.4" y="54.5" opacity="0.5" fill="#F3F3F3" enable-background="new    " width="369.2" height="6.7"/>
		<path opacity="0.5" fill="#F3F3F3" enable-background="new    " d="M212.7,57.9c0-2-1.3-3.3-3.3-3.3l0,0c-2,0-3.3,1.3-3.3,3.3l0,0
			c0,2,1.3,3.3,3.3,3.3l0,0C211.4,61.2,212.7,59.6,212.7,57.9L212.7,57.9z"/>
		<path opacity="0.5" fill="#F3F3F3" enable-background="new    " d="M199.5,57.9c0-2-1.3-3.3-3.3-3.3l0,0c-2,0-3.3,1.3-3.3,3.3l0,0
			c0,2,1.3,3.3,3.3,3.3l0,0C198.2,61.2,199.5,59.6,199.5,57.9L199.5,57.9z"/>
		<g>
			<g>
				<g>
					<g>
						<g>
							<defs>
								<path id="SVGID_1_" d="M605.3,268.7c0,6.7-5.4,11.9-11.9,11.9H188.2c-6.7,0-11.9-5.4-11.9-11.9V56.6
									c0-6.7,5.4-11.9,11.9-11.9h405.2c6.7,0,11.9,5.4,11.9,11.9V268.7L605.3,268.7z"/>
							</defs>
							<clipPath id="SVGID_2_">
								<use xlink:href="#SVGID_1_"  overflow="visible"/>
							</clipPath>
							
								<rect x="176.2" y="71.2" opacity="0.5" clip-path="url(#SVGID_2_)" fill="#F3F3F3" enable-background="new    " width="429.1" height="212.9"/>
						</g>
					</g>
				</g>
			</g>
		</g>
		<path fill="#CFD5D8" d="M452.3,347.2c0-24.9-46.3-8.3-61.5-2c-15.4-6.4-61.5-22.9-61.5,2c0,43.2-26.7,79.9-26.7,79.9h83.1h10h83.1
			C478.8,427.1,452.3,390.4,452.3,347.2z"/>
		<path fill="#CFD5D8" d="M455.6,373.9H326.1c1.3-6.4,2.6-12.9,2.9-20h123.4C452.9,360.8,453.9,367.5,455.6,373.9z"/>
		<rect x="295.9" y="417.1" fill="#9FAEB4" width="189.7" height="10"/>
		<rect x="199.5" y="111.1" fill="#EEEEEE" width="382.6" height="100"/>
		<rect x="199.5" y="84.4" fill="#EEEEEE" width="49.9" height="13.3"/>
		<rect x="405.7" y="91.1" fill="#EEEEEE" width="36.7" height="6.7"/>
		<rect x="452.3" y="91.1" fill="#EEEEEE" width="36.7" height="6.7"/>
		<rect x="498.8" y="91.1" fill="#EEEEEE" width="36.7" height="6.7"/>
		<rect x="545.4" y="91.1" fill="#EEEEEE" width="36.7" height="6.7"/>
		<path opacity="0.3" fill="#9FAEB4" enable-background="new    " d="M455.6,373.9H326.1c1.3-6.4,2.6-12.9,2.9-20h123.4
			C452.9,360.8,453.9,367.5,455.6,373.9z"/>
		<rect x="199.5" y="227.5" fill="#EEEEEE" width="139.3" height="53.2"/>
		<rect x="354.3" y="227.5" fill="#EEEEEE" width="227.6" height="6.7"/>
		<rect x="354.3" y="246.6" fill="#EEEEEE" width="227.6" height="6.7"/>
		<rect x="354.3" y="265.7" fill="#EEEEEE" width="227.6" height="6.7"/>
	</g>
	<g>
		<g>
			<path fill="#78888D" d="M539.3,427.1c-6.7,0-11.9-5.4-11.9-11.9V173c0-6.7,5.4-11.9,11.9-11.9h195.5c6.7,0,11.9,5.4,11.9,11.9
				v242.2c0,6.7-5.4,11.9-11.9,11.9H539.3L539.3,427.1z"/>
		</g>
		<g opacity="0.6">
			<path fill="#44515A" d="M539.3,427.1c-6.7,0-11.9-5.4-11.9-11.9V173c0-6.7,5.4-11.9,11.9-11.9h195.5c6.7,0,11.9,5.4,11.9,11.9
				v242.2c0,6.7-5.4,11.9-11.9,11.9H539.3L539.3,427.1z"/>
		</g>
		<rect x="550.6" y="191" fill="#78888D" width="169.7" height="26.7"/>
		<rect x="580.6" y="200.9" opacity="0.5" fill="#F3F3F3" enable-background="new    " width="129.4" height="6.7"/>
		<path opacity="0.5" fill="#F3F3F3" enable-background="new    " d="M573.9,204.2c0-2-1.3-3.3-3.3-3.3l0,0c-2,0-3.3,1.3-3.3,3.3
			l0,0c0,2,1.3,3.3,3.3,3.3l0,0C572.6,207.5,573.9,205.9,573.9,204.2L573.9,204.2z"/>
		<path opacity="0.5" fill="#F3F3F3" enable-background="new    " d="M563.9,204.2c0-2-1.3-3.3-3.3-3.3l0,0c-2,0-3.3,1.3-3.3,3.3
			l0,0c0,2,1.3,3.3,3.3,3.3l0,0C562.6,207.5,563.9,205.9,563.9,204.2L563.9,204.2z"/>
		<rect x="550.6" y="217.5" opacity="0.5" fill="#F3F3F3" enable-background="new    " width="169.7" height="176.2"/>
		<rect x="560.6" y="257.4" fill="#EEEEEE" width="149.7" height="68.2"/>
		<rect x="560.6" y="230.9" fill="#EEEEEE" width="29.9" height="13.3"/>
		<rect x="597.3" y="237.4" fill="#EEEEEE" width="23.2" height="6.7"/>
		<rect x="627.2" y="237.4" fill="#EEEEEE" width="23.2" height="6.7"/>
		<rect x="657.2" y="237.4" fill="#EEEEEE" width="23.2" height="6.7"/>
		<rect x="687.1" y="237.4" fill="#EEEEEE" width="23.2" height="6.7"/>
		<rect x="560.6" y="336.9" fill="#EEEEEE" width="59.9" height="39.8"/>
		<rect x="628" y="336.9" fill="#EEEEEE" width="82.3" height="5.9"/>
		<rect x="628" y="353.9" fill="#EEEEEE" width="82.3" height="5.9"/>
		<rect x="628" y="370.8" fill="#EEEEEE" width="82.3" height="5.9"/>
	</g>
	<g>
		<g>
			<path fill="#44515A" d="M479.1,427.1c-6.7,0-11.9-5.4-11.9-11.9V282.8c0-6.7,5.4-11.9,11.9-11.9h79.2c6.7,0,11.9,5.4,11.9,11.9
				v132.4c0,6.7-5.4,11.9-11.9,11.9L479.1,427.1L479.1,427.1z"/>
		</g>
		<rect x="480.4" y="287.3" opacity="0.5" fill="#F3F3F3" enable-background="new    " width="76.6" height="123.1"/>
		<rect x="490.4" y="320.6" fill="#EEEEEE" width="56.6" height="43.2"/>
		<rect x="490.4" y="297.3" fill="#EEEEEE" width="29.9" height="13.3"/>
		<rect x="536.4" y="297.3" fill="#EEEEEE" width="10.6" height="2.3"/>
		<rect x="536.4" y="301.3" fill="#EEEEEE" width="10.6" height="2.3"/>
		<rect x="536.4" y="305" fill="#EEEEEE" width="10.6" height="2.3"/>
		<rect x="490.4" y="371.3" fill="#EEEEEE" width="56.6" height="27.8"/>
	</g>
</g>
</svg>
