<?xml version="1.0" encoding="utf-8"?>
<!-- Generator: Adobe Illustrator 19.1.0, SVG Export Plug-In . SVG Version: 6.00 Build 0)  -->
<svg version="1.1" id="Layer_1" xmlns="http://www.w3.org/2000/svg" xmlns:xlink="http://www.w3.org/1999/xlink" x="0px" y="0px"
	 width="46.2px" height="46.2px" viewBox="-176 177.8 46.2 46.2" style="enable-background:new -176 177.8 46.2 46.2;"
	 xml:space="preserve">
<style type="text/css">
	.st0{display:none;}
	.st1{display:inline;fill:#A0D2E7;}
	.st2{display:inline;}
	.st3{fill:#FFFFFF;}
	.st4{fill:none;stroke:#FFFFFF;stroke-width:2;stroke-miterlimit:10;}
	.st5{fill:#A0D2E7;stroke:#FFFFFF;stroke-width:2;stroke-miterlimit:10;}
	.st6{fill:#FFFFFF;stroke:#FFFFFF;stroke-width:0.75;stroke-miterlimit:10;}
	.st7{display:inline;fill:none;stroke:#FFFFFF;stroke-width:2;stroke-miterlimit:10;}
	.st8{display:inline;fill:#A0D2E7;stroke:#FFFFFF;stroke-width:2;stroke-miterlimit:10;}
	.st9{display:inline;fill:#FFFFFF;}
	.st10{fill:#E8E8E8;}
	.st11{fill:url(#SVGID_1_);}
	.st12{fill:url(#SVGID_2_);}
	.st13{fill:url(#SVGID_3_);}
</style>
<g class="st0">
	<circle class="st1" cx="-153.4" cy="795.6" r="304.8"/>
	<g class="st2">
		<path class="st3" d="M-365.3,812.2v-34.6l139.9-59.6v34.6l-108.1,42.9l108.1,41.6v34.7L-365.3,812.2z"/>
		<path class="st3" d="M-207.4,905l73.4-221.6h34.6L-172.8,905H-207.4z"/>
		<path class="st3" d="M-80,871.8v-34.6l108.1-41.6L-80,752.7v-34.6l139.9,59.6v34.6L-80,871.8z"/>
	</g>
</g>
<g class="st0">
	<circle class="st1" cx="-153.4" cy="795.6" r="304.8"/>
	<g class="st2">
		<path class="st4" d="M-21.8,949.4c0,12.5-11.1,23.5-23.5,23.5h-216.1c-12.5,0-23.5-11.1-23.5-23.5V641.8
			c0-12.5,11.1-23.5,23.5-23.5h216.1c12.5,0,23.5,11.1,23.5,23.5L-21.8,949.4L-21.8,949.4z"/>
		<circle class="st3" cx="-153.4" cy="898.1" r="31.9"/>
	</g>
</g>
<g class="st0">
	<circle class="st1" cx="-153.4" cy="795.6" r="304.8"/>
	<g class="st2">
		<path class="st3" d="M-397.2,839.9l16.6-23.5c9.7,9.7,24.9,19.4,44.3,19.4c16.6,0,23.5-6.9,23.5-15.2c0-23.5-80.3-6.9-80.3-59.6
			c0-23.5,19.4-41.6,52.6-41.6c22.2,0,40.2,6.9,54,19.4l-16.6,22.2c-11.1-11.1-26.3-15.2-40.2-15.2c-12.5,0-19.4,5.5-19.4,13.9
			c0,22.2,79,6.9,79,58.2c0,24.9-18,44.3-55.4,44.3C-365.3,862.1-384.7,853.8-397.2,839.9z"/>
		<path class="st3" d="M-203.3,859.3v-11.1c-6.9,8.3-19.4,12.5-31.9,12.5c-16.6,0-34.6-11.1-34.6-33.2c0-23.5,19.4-31.9,34.6-31.9
			c13.9,0,24.9,4.2,31.9,12.5V797c0-9.7-8.3-16.6-22.2-16.6c-11.1,0-20.8,4.2-29.1,12.5l-11.1-18c12.5-11.1,27.7-15.2,44.3-15.2
			c23.5,0,44.3,9.7,44.3,37.4v65.1L-203.3,859.3L-203.3,859.3z M-203.3,835.8v-12.5c-4.2-5.5-12.5-8.3-20.8-8.3
			c-11.1,0-19.4,5.5-19.4,15.2s8.3,15.2,19.4,15.2C-215.7,844.1-207.4,841.3-203.3,835.8z"/>
		<path class="st3" d="M-160.3,846.9l11.1-19.4c6.9,6.9,22.2,13.9,34.6,13.9c11.1,0,16.6-4.2,16.6-11.1c0-16.6-59.6-2.8-59.6-42.9
			c0-16.6,13.9-31.9,41.6-31.9c16.6,0,30.5,5.5,40.2,13.9l-11.1,19.4c-5.5-5.5-18-11.1-29.1-11.1c-9.7,0-15.2,4.2-15.2,9.7
			c0,15.2,59.6,2.8,59.6,42.9c0,18-15.2,31.9-42.9,31.9C-132.6,862.1-149.2,856.6-160.3,846.9z"/>
		<path class="st3" d="M-60.6,846.9l11.1-19.4c6.9,6.9,22.2,13.9,34.6,13.9c11.1,0,16.6-4.2,16.6-11.1c0-16.6-59.6-2.8-59.6-42.9
			c0-16.6,15.2-31.9,41.6-31.9c16.6,0,30.5,5.5,40.2,13.9l-11.1,19.4c-5.5-5.5-18-11.1-29.1-11.1c-9.7,0-15.2,4.2-15.2,9.7
			c0,15.2,59.6,2.8,59.6,42.9c0,18-15.2,31.9-42.9,31.9C-32.9,862.1-49.5,856.6-60.6,846.9z"/>
		<path class="st3" d="M43.3,845.5c0-9.7,8.3-16.6,16.6-16.6c9.7,0,16.6,8.3,16.6,16.6c0,9.7-8.3,16.6-16.6,16.6
			S43.3,855.2,43.3,845.5z"/>
	</g>
</g>
<g class="st0">
	<circle class="st1" cx="-153.4" cy="795.6" r="304.8"/>
	<g class="st2">
		<path class="st4" d="M-201.9,777.6c0,0,31.9-23.5,55.4-23.5s52.6,23.5,52.6,23.5"/>
		<circle class="st4" cx="-279.4" cy="790.1" r="77.6"/>
		<circle class="st4" cx="-16.2" cy="790.1" r="77.6"/>
	</g>
</g>
<g class="st0">
	<circle class="st1" cx="-153.4" cy="795.6" r="304.8"/>
	<g class="st2">
		<g>
			<line class="st4" x1="-294.7" y1="892.6" x2="33.6" y2="892.6"/>
			<path class="st4" d="M8.7,830.2c0,11.1-9.7,19.4-20.8,19.4h-238.3c-11.1,0-20.8-8.3-20.8-19.4V669.5c0-11.1,9.7-19.4,20.8-19.4
				h238.3c11.1,0,20.8,8.3,20.8,19.4C8.7,668.2,8.7,830.2,8.7,830.2z"/>
		</g>
		<g>
			<path class="st5" d="M-224,931.4c0,5.5-4.2,11.1-9.7,11.1h-94.2c-5.5,0-9.7-4.2-9.7-11.1V797c0-5.5,4.2-9.7,9.7-9.7h94.2
				c5.5,0,9.7,4.2,9.7,9.7C-224,797-224,931.4-224,931.4z"/>
		</g>
	</g>
</g>
<g class="st0">
	<circle class="st1" cx="-153.4" cy="795.6" r="304.8"/>
	<g class="st2">
		<path class="st6" d="M-325.2,839.9l-67.9,9.7l-2.8-15.2l67.9-9.7L-325.2,839.9z"/>
		<path class="st6" d="M-321,758.2l-65.1-22.2l5.5-15.2l65.1,22.2L-321,758.2z"/>
		<path class="st6" d="M-280.8,687.5l-48.5-48.5l11.1-11.1l48.5,48.5L-280.8,687.5z"/>
		<path class="st6" d="M-214.3,643.2l-20.8-65.1l15.2-4.2l20.8,65.1L-214.3,643.2z"/>
		<path class="st6" d="M-134,633.5l11.1-67.9l15.2,2.8l-11.1,67.9L-134,633.5z"/>
		<path class="st6" d="M-57.8,659.8l40.2-55.4l12.5,9.7l-40.2,55.4L-57.8,659.8z"/>
		<path class="st6" d="M-1,719.4l61-31.9l6.9,13.9l-61,31.9L-1,719.4z"/>
		<path class="st6" d="M21.2,797l67.9-1.4v15.2l-67.9,1.4L21.2,797L21.2,797z"/>
	</g>
	<line class="st7" x1="-232.3" y1="888.4" x2="84.9" y2="744.3"/>
	<circle class="st8" cx="-154.8" cy="844.1" r="47.1"/>
</g>
<g class="st0">
	<circle class="st1" cx="-153.4" cy="795.6" r="304.8"/>
	<g class="st2">
		<g>
			<rect x="-265.6" y="903.7" class="st3" width="224.4" height="37.4"/>
			<rect x="-265.6" y="819.2" class="st3" width="224.4" height="37.4"/>
			<rect x="-265.6" y="733.3" class="st3" width="224.4" height="37.4"/>
			<rect x="-265.6" y="648.8" class="st3" width="224.4" height="37.4"/>
		</g>
		<g>
			<line class="st4" x1="-221.3" y1="985.4" x2="-221.3" y2="604.4"/>
			<line class="st4" x1="-85.5" y1="985.4" x2="-85.5" y2="604.4"/>
		</g>
	</g>
</g>
<g class="st0">
	<circle class="st1" cx="-153.4" cy="795.6" r="304.8"/>
	<g class="st2">
		<polyline class="st4" points="-269.7,984 -269.7,859.3 -152,783.1 -35.6,859.3 -35.6,984 		"/>
		<path class="st5" d="M-75.8,917.5h-153.8c0,0-15.2-311.7,77.6-311.7C-60.6,605.8-75.8,917.5-75.8,917.5z"/>
		<rect x="-171.4" y="859.3" class="st3" width="37.4" height="124.7"/>
		<circle class="st3" cx="-153.4" cy="704.2" r="23.5"/>
	</g>
</g>
<g class="st0">
	<circle class="st1" cx="-153.4" cy="795.6" r="304.8"/>
	<path class="st9" d="M-183.9,589.2c0,20.8,1.4,40.2,1.4,61c0,8.3,9.7,16.6,18,16.6c6.9,0,13.9-1.4,19.4,0c5.5,0,9.7-1.4,13.9-5.5
		c4.2-4.2,5.5-8.3,5.5-15.2c-1.4-19.4-1.4-37.4-2.8-58.2c11.1,4.2,20.8,9.7,27.7,18c34.6,34.6,29.1,90-11.1,117.7
		c-2.8,2.8-4.2,4.2-4.2,8.3c1.4,54,4.2,178.7,5.5,232.7c0,15.2-5.5,27.7-18,36c-22.2,12.5-49.9,0-54-24.9c0-2.8,0-76.2-1.4-79
		c-1.4-52.6-4.2-106.7-5.5-159.3c0-5.5-1.4-8.3-6.9-11.1c-24.9-16.6-37.4-40.2-36-70.6c1.4-29.1,16.6-49.9,42.9-63.7
		C-185.2,589.2-185.2,589.2-183.9,589.2z M-157.5,949.4c-6.9,6.9-5.5,18,1.4,24.9c6.9,6.9,19.4,5.5,24.9-1.4
		c6.9-6.9,5.5-19.4-1.4-24.9C-139.5,942.4-152,942.4-157.5,949.4z"/>
</g>
<path class="st10" d="M-144,182c-2.7-1.2-5.6-1.9-8.7-1.9s-6.1,0.7-8.7,1.9c-7.2,3.3-12.2,10.6-12.2,19c0,11.5,9.4,20.9,20.9,20.9
	c11.6,0,20.9-9.4,20.9-20.9C-131.8,192.6-136.8,185.4-144,182z"/>
<path class="st10" d="M-143.8,182.1c-2.7-1.2-5.6-1.9-8.7-1.9s-6.1,0.7-8.7,1.9c-7.2,3.3-12.2,10.6-12.2,19
	c0,11.5,9.4,20.9,20.9,20.9c11.6,0,20.9-9.4,20.9-20.9C-131.6,192.7-136.5,185.4-143.8,182.1z"/>
<g>
	<linearGradient id="SVGID_1_" gradientUnits="userSpaceOnUse" x1="-169.5588" y1="218.8133" x2="-133.0007" y2="182.2551">
		<stop  offset="0" style="stop-color:#F5A742"/>
		<stop  offset="0.4914" style="stop-color:#F78D2E"/>
		<stop  offset="1" style="stop-color:#E83E39"/>
	</linearGradient>
	<path class="st11" d="M-153.8,198.8c0-0.7,0.6-1.2,1.6-1.2s2,0.3,2.8,1.1l1-1.3c-0.8-0.9-2.1-1.4-3.6-1.4c-2.2,0-3.6,1.3-3.6,2.9
		c0,3.6,5.7,2.4,5.7,4.4c0,0.6-0.5,1.3-1.9,1.3c-1.4,0-2.4-0.7-3.1-1.4l-1,1.3c0.9,1,2.2,1.6,4,1.6c2.6,0,3.8-1.4,3.8-3
		C-148.1,199.5-153.8,200.6-153.8,198.8z"/>
	<linearGradient id="SVGID_2_" gradientUnits="userSpaceOnUse" x1="-183.205" y1="223.7122" x2="-146.757" y2="187.2643">
		<stop  offset="0" style="stop-color:#F5A742"/>
		<stop  offset="0.4914" style="stop-color:#F78D2E"/>
		<stop  offset="1" style="stop-color:#E83E39"/>
	</linearGradient>
	<path class="st12" d="M-160.5,204.7c-2,0-3.4-1.5-3.4-3.5s1.5-3.5,3.4-3.5c1.1,0,2,0.6,2.5,1.4l1.4-0.8c-0.7-1.2-1.9-2.2-3.9-2.2
		c-2.9,0-5.1,2-5.1,5s2.2,5,5.1,5c1.9,0,3.1-1,4-2.1l-1.5-0.7C-158.5,204.1-159.5,204.7-160.5,204.7z"/>
	<linearGradient id="SVGID_3_" gradientUnits="userSpaceOnUse" x1="-155.8252" y1="213.7797" x2="-119.2671" y2="177.2215">
		<stop  offset="0" style="stop-color:#F5A742"/>
		<stop  offset="0.4914" style="stop-color:#F78D2E"/>
		<stop  offset="1" style="stop-color:#E83E39"/>
	</linearGradient>
	<path class="st13" d="M-145.1,198.8c0-0.7,0.6-1.2,1.6-1.2s2,0.3,2.8,1.1l1-1.3c-0.8-0.9-2.1-1.4-3.6-1.4c-2.2,0-3.6,1.3-3.6,2.9
		c0,3.6,5.7,2.4,5.7,4.4c0,0.6-0.5,1.3-1.9,1.3c-1.4,0-2.4-0.7-3.1-1.4l-1,1.3c0.9,1,2.2,1.6,4,1.6c2.6,0,3.8-1.4,3.8-3
		C-139.4,199.5-145.1,200.6-145.1,198.8z"/>
</g>
</svg>
