<?xml version="1.0" encoding="utf-8"?>
<!-- Generator: Adobe Illustrator 19.1.0, SVG Export Plug-In . SVG Version: 6.00 Build 0)  -->
<svg version="1.1" id="Layer_1" xmlns="http://www.w3.org/2000/svg" xmlns:xlink="http://www.w3.org/1999/xlink" x="0px" y="0px"
	 width="46.2px" height="46.2px" viewBox="-176 177.8 46.2 46.2" style="enable-background:new -176 177.8 46.2 46.2;"
	 xml:space="preserve">
<style type="text/css">
	.st0{display:none;}
	.st1{display:inline;fill:#A0D2E7;}
	.st2{display:inline;}
	.st3{fill:#FFFFFF;}
	.st4{fill:none;stroke:#FFFFFF;stroke-width:2;stroke-miterlimit:10;}
	.st5{fill:#A0D2E7;stroke:#FFFFFF;stroke-width:2;stroke-miterlimit:10;}
	.st6{fill:#E8E8E8;}
	.st7{fill:url(#SVGID_1_);}
	.st8{fill:url(#SVGID_2_);}
	.st9{fill:url(#SVGID_3_);}
	.st10{fill:url(#SVGID_4_);}
	.st11{fill:url(#SVGID_5_);}
	.st12{fill:url(#SVGID_6_);}
	.st13{fill:url(#SVGID_7_);}
	.st14{fill:url(#SVGID_8_);}
	.st15{fill:url(#SVGID_9_);}
	.st16{fill:#FFFFFF;stroke:#A0D2E7;stroke-width:0.25;stroke-miterlimit:10;}
	.st17{display:inline;fill:#FFFFFF;}
</style>
<g class="st0">
	<circle class="st1" cx="-329" cy="378.7" r="22"/>
	<g class="st2">
		<path class="st3" d="M-344.3,379.9v-2.5l10.1-4.3v2.5l-7.8,3.1l7.8,3v2.5L-344.3,379.9z"/>
		<path class="st3" d="M-332.9,386.6l5.3-16h2.5l-5.3,16H-332.9z"/>
		<path class="st3" d="M-323.7,384.2v-2.5l7.8-3l-7.8-3.1v-2.5l10.1,4.3v2.5L-323.7,384.2z"/>
	</g>
</g>
<g class="st0">
	<circle class="st1" cx="-329" cy="378.7" r="22"/>
	<g class="st2">
		<path class="st4" d="M-319.5,389.8c0,0.9-0.8,1.7-1.7,1.7h-15.6c-0.9,0-1.7-0.8-1.7-1.7v-22.2c0-0.9,0.8-1.7,1.7-1.7h15.6
			c0.9,0,1.7,0.8,1.7,1.7V389.8z"/>
		<circle class="st3" cx="-329" cy="386.1" r="2.3"/>
	</g>
</g>
<g class="st0">
	<circle class="st1" cx="-329" cy="378.7" r="22"/>
	<g class="st2">
		<path class="st3" d="M-346.6,381.9l1.2-1.7c0.7,0.7,1.8,1.4,3.2,1.4c1.2,0,1.7-0.5,1.7-1.1c0-1.7-5.8-0.5-5.8-4.3
			c0-1.7,1.4-3,3.8-3c1.6,0,2.9,0.5,3.9,1.4l-1.2,1.6c-0.8-0.8-1.9-1.1-2.9-1.1c-0.9,0-1.4,0.4-1.4,1c0,1.6,5.7,0.5,5.7,4.2
			c0,1.8-1.3,3.2-4,3.2C-344.3,383.5-345.7,382.9-346.6,381.9z"/>
		<path class="st3" d="M-332.6,383.3v-0.8c-0.5,0.6-1.4,0.9-2.3,0.9c-1.2,0-2.5-0.8-2.5-2.4c0-1.7,1.4-2.3,2.5-2.3
			c1,0,1.8,0.3,2.3,0.9v-0.8c0-0.7-0.6-1.2-1.6-1.2c-0.8,0-1.5,0.3-2.1,0.9l-0.8-1.3c0.9-0.8,2-1.1,3.2-1.1c1.7,0,3.2,0.7,3.2,2.7
			v4.7L-332.6,383.3L-332.6,383.3z M-332.6,381.6v-0.9c-0.3-0.4-0.9-0.6-1.5-0.6c-0.8,0-1.4,0.4-1.4,1.1s0.6,1.1,1.4,1.1
			C-333.5,382.2-332.9,382-332.6,381.6z"/>
		<path class="st3" d="M-329.5,382.4l0.8-1.4c0.5,0.5,1.6,1,2.5,1c0.8,0,1.2-0.3,1.2-0.8c0-1.2-4.3-0.2-4.3-3.1c0-1.2,1.1-2.3,3-2.3
			c1.2,0,2.2,0.4,2.9,1l-0.8,1.3c-0.4-0.4-1.3-0.8-2.1-0.8c-0.7,0-1.1,0.3-1.1,0.7c0,1.1,4.3,0.2,4.3,3.1c0,1.3-1.1,2.3-3.1,2.3
			C-327.5,383.5-328.7,383.1-329.5,382.4z"/>
		<path class="st3" d="M-322.3,382.4l0.8-1.4c0.5,0.5,1.6,1,2.5,1c0.8,0,1.2-0.3,1.2-0.8c0-1.2-4.3-0.2-4.3-3.1c0-1.2,1.1-2.3,3-2.3
			c1.2,0,2.2,0.4,2.9,1l-0.8,1.3c-0.4-0.4-1.3-0.8-2.1-0.8c-0.7,0-1.1,0.3-1.1,0.7c0,1.1,4.3,0.2,4.3,3.1c0,1.3-1.1,2.3-3.1,2.3
			C-320.3,383.5-321.5,383.1-322.3,382.4z"/>
		<path class="st3" d="M-314.8,382.3c0-0.7,0.6-1.2,1.2-1.2c0.7,0,1.2,0.6,1.2,1.2c0,0.7-0.6,1.2-1.2,1.2S-314.8,383-314.8,382.3z"
			/>
	</g>
</g>
<g class="st0">
	<circle class="st1" cx="-329" cy="378.7" r="22"/>
	<g class="st2">
		<path class="st4" d="M-332.5,377.4c0,0,2.3-1.7,4-1.7s3.8,1.7,3.8,1.7"/>
		<circle class="st4" cx="-338.1" cy="378.3" r="5.6"/>
		<circle class="st4" cx="-319.1" cy="378.3" r="5.6"/>
	</g>
</g>
<g class="st0">
	<circle class="st1" cx="-329" cy="378.7" r="22"/>
	<g class="st2">
		<g>
			<line class="st4" x1="-339.2" y1="385.7" x2="-315.5" y2="385.7"/>
			<path class="st4" d="M-317.3,381.2c0,0.8-0.7,1.4-1.5,1.4H-336c-0.8,0-1.5-0.6-1.5-1.4v-11.6c0-0.8,0.7-1.4,1.5-1.4h17.2
				c0.8,0,1.5,0.6,1.5,1.4C-317.3,369.5-317.3,381.2-317.3,381.2z"/>
		</g>
		<g>
			<path class="st5" d="M-334.1,388.5c0,0.4-0.3,0.8-0.7,0.8h-6.8c-0.4,0-0.7-0.3-0.7-0.8v-9.7c0-0.4,0.3-0.7,0.7-0.7h6.8
				c0.4,0,0.7,0.3,0.7,0.7V388.5z"/>
		</g>
	</g>
</g>
<path class="st6" d="M-153,179c-12.2,0-22,9.9-22,22c0,12.2,9.9,22,22,22c12.2,0,22-9.9,22-22C-130.9,188.9-140.8,179-153,179z
	 M-136.6,194.4l-5,2.6l-0.9-1.7l5-2.6L-136.6,194.4z M-143.3,186.8l1.5,1.1l-3.3,4.6l-1.5-1.1L-143.3,186.8z M-151.1,184l1.9,0.3
	l-0.9,5.6l-1.9-0.3L-151.1,184z M-170.6,205.4l-0.3-1.9l5.6-0.8l0.3,1.9L-170.6,205.4z M-164.9,198.9l-5.4-1.8l0.6-1.8l5.4,1.8
	L-164.9,198.9z M-162.2,193.9l-4-4.1l1.3-1.3l4,4.1L-162.2,193.9z M-157.6,184.6l1.7,5.4l-1.8,0.6l-1.7-5.4L-157.6,184.6z
	 M-153.1,209c-1.2,0-2.3-0.5-3.1-1.3l-2.1,0.9l-0.8-1.8l1.8-0.8c-0.2-0.4-0.3-0.9-0.3-1.4c0-2.4,2-4.4,4.4-4.4
	c1.6,0,3.1,0.9,3.8,2.2l13.1-5.9l0.8,1.8l-13.3,6c0,0.1,0,0.2,0,0.3C-148.7,207-150.7,209-153.1,209z M-140.7,202.7v-1.9l5.7-0.1
	v1.9L-140.7,202.7z"/>
<g>
	
		<linearGradient id="SVGID_1_" gradientUnits="userSpaceOnUse" x1="-184.204" y1="188.3819" x2="-132.5374" y2="223.8819" gradientTransform="matrix(1 0 0 -1 0 403.6)">
		<stop  offset="0" style="stop-color:#F5A742"/>
		<stop  offset="0.4914" style="stop-color:#F78D2E"/>
		<stop  offset="1" style="stop-color:#E83E39"/>
	</linearGradient>
	<polygon class="st7" points="-170.9,203.5 -170.6,205.4 -165,204.6 -165.2,202.7 	"/>
	
		<linearGradient id="SVGID_2_" gradientUnits="userSpaceOnUse" x1="-187.2395" y1="192.7997" x2="-135.5728" y2="228.2997" gradientTransform="matrix(1 0 0 -1 0 403.6)">
		<stop  offset="0" style="stop-color:#F5A742"/>
		<stop  offset="0.4914" style="stop-color:#F78D2E"/>
		<stop  offset="1" style="stop-color:#E83E39"/>
	</linearGradient>
	<polygon class="st8" points="-170.3,197.1 -164.9,198.9 -164.3,197.1 -169.7,195.3 	"/>
	
		<linearGradient id="SVGID_3_" gradientUnits="userSpaceOnUse" x1="-188.7906" y1="195.0573" x2="-137.1239" y2="230.5573" gradientTransform="matrix(1 0 0 -1 0 403.6)">
		<stop  offset="0" style="stop-color:#F5A742"/>
		<stop  offset="0.4914" style="stop-color:#F78D2E"/>
		<stop  offset="1" style="stop-color:#E83E39"/>
	</linearGradient>
	<polygon class="st9" points="-166.2,189.8 -162.2,193.9 -160.9,192.5 -164.9,188.5 	"/>
	
		<linearGradient id="SVGID_4_" gradientUnits="userSpaceOnUse" x1="-188.5861" y1="194.7596" x2="-136.9195" y2="230.2596" gradientTransform="matrix(1 0 0 -1 0 403.6)">
		<stop  offset="0" style="stop-color:#F5A742"/>
		<stop  offset="0.4914" style="stop-color:#F78D2E"/>
		<stop  offset="1" style="stop-color:#E83E39"/>
	</linearGradient>
	<polygon class="st10" points="-155.8,190 -157.6,184.6 -159.4,185.1 -157.6,190.6 	"/>
	
		<linearGradient id="SVGID_5_" gradientUnits="userSpaceOnUse" x1="-186.5979" y1="191.866" x2="-134.9312" y2="227.366" gradientTransform="matrix(1 0 0 -1 0 403.6)">
		<stop  offset="0" style="stop-color:#F5A742"/>
		<stop  offset="0.4914" style="stop-color:#F78D2E"/>
		<stop  offset="1" style="stop-color:#E83E39"/>
	</linearGradient>
	<polygon class="st11" points="-149.3,184.3 -151.1,184 -152,189.7 -150.1,190 	"/>
	
		<linearGradient id="SVGID_6_" gradientUnits="userSpaceOnUse" x1="-183.3085" y1="187.0787" x2="-131.6418" y2="222.5787" gradientTransform="matrix(1 0 0 -1 0 403.6)">
		<stop  offset="0" style="stop-color:#F5A742"/>
		<stop  offset="0.4914" style="stop-color:#F78D2E"/>
		<stop  offset="1" style="stop-color:#E83E39"/>
	</linearGradient>
	<polygon class="st12" points="-141.7,187.9 -143.3,186.8 -146.6,191.4 -145.1,192.5 	"/>
	
		<linearGradient id="SVGID_7_" gradientUnits="userSpaceOnUse" x1="-179.3669" y1="181.342" x2="-127.7002" y2="216.842" gradientTransform="matrix(1 0 0 -1 0 403.6)">
		<stop  offset="0" style="stop-color:#F5A742"/>
		<stop  offset="0.4914" style="stop-color:#F78D2E"/>
		<stop  offset="1" style="stop-color:#E83E39"/>
	</linearGradient>
	<polygon class="st13" points="-141.7,197.1 -136.6,194.4 -137.5,192.8 -142.5,195.4 	"/>
	
		<linearGradient id="SVGID_8_" gradientUnits="userSpaceOnUse" x1="-175.6478" y1="175.9292" x2="-123.9812" y2="211.4292" gradientTransform="matrix(1 0 0 -1 0 403.6)">
		<stop  offset="0" style="stop-color:#F5A742"/>
		<stop  offset="0.4914" style="stop-color:#F78D2E"/>
		<stop  offset="1" style="stop-color:#E83E39"/>
	</linearGradient>
	<polygon class="st14" points="-135,200.7 -140.7,200.8 -140.7,202.7 -135,202.6 	"/>
	
		<linearGradient id="SVGID_9_" gradientUnits="userSpaceOnUse" x1="-179.0589" y1="180.8938" x2="-127.3923" y2="216.3938" gradientTransform="matrix(1 0 0 -1 0 403.6)">
		<stop  offset="0" style="stop-color:#F5A742"/>
		<stop  offset="0.4914" style="stop-color:#F78D2E"/>
		<stop  offset="1" style="stop-color:#E83E39"/>
	</linearGradient>
	<path class="st15" d="M-135.4,198.3l-0.8-1.8l-13.1,5.9c-0.8-1.3-2.2-2.2-3.8-2.2c-2.4,0-4.4,2-4.4,4.4c0,0.5,0.1,1,0.3,1.4
		l-1.8,0.8l0.8,1.8l2.1-0.9c0.8,0.8,1.9,1.3,3.1,1.3c2.4,0,4.4-2,4.4-4.4c0-0.1,0-0.2,0-0.3L-135.4,198.3z M-150.7,204.6
		c0,1.3-1.1,2.4-2.4,2.4c-1.3,0-2.4-1.1-2.4-2.4s1.1-2.4,2.4-2.4S-150.7,203.3-150.7,204.6z"/>
	<circle class="st6" cx="-153.1" cy="204.6" r="2.4"/>
</g>
<g class="st0">
	<circle class="st1" cx="-329" cy="378.7" r="22"/>
	<g class="st2">
		<g>
			<rect x="-337.1" y="386.5" class="st3" width="16.2" height="2.7"/>
			<rect x="-337.1" y="380.4" class="st3" width="16.2" height="2.7"/>
			<rect x="-337.1" y="374.2" class="st3" width="16.2" height="2.7"/>
			<rect x="-337.1" y="368.1" class="st3" width="16.2" height="2.7"/>
		</g>
		<g>
			<line class="st4" x1="-333.9" y1="392.4" x2="-333.9" y2="364.9"/>
			<line class="st4" x1="-324.1" y1="392.4" x2="-324.1" y2="364.9"/>
		</g>
	</g>
</g>
<g class="st0">
	<circle class="st1" cx="-329" cy="378.7" r="22"/>
	<g class="st2">
		<polyline class="st4" points="-337.4,392.3 -337.4,383.3 -328.9,377.8 -320.5,383.3 -320.5,392.3 		"/>
		<path class="st5" d="M-323.4,387.5h-11.1c0,0-1.1-22.5,5.6-22.5C-322.3,365-323.4,387.5-323.4,387.5z"/>
		<rect x="-330.3" y="383.3" class="st3" width="2.7" height="9"/>
		<circle class="st3" cx="-329" cy="372.1" r="1.7"/>
	</g>
</g>
<g class="st0">
	<circle class="st1" cx="-329" cy="378.7" r="22"/>
	<g class="st2">
		<path class="st16" d="M-331.3,376.7c0,0.5,0,1,0,1.6c0.3,0,0.6,0,0.9,0c2.2,0,4.3,0,6.5,0c0.4,0,0.6,0.1,0.8,0.5
			c0.8,2.1,1.7,4.2,2.5,6.3c0.1,0.1,0.1,0.3,0.2,0.5c0.6-0.1,1.1-0.3,1.6-0.4c0.3-0.1,0.4,0,0.5,0.2c0.2,0.6,0.5,1.1,0.7,1.7
			c-0.2,0.1-0.3,0.1-0.4,0.2c-1.1,0.3-2.1,0.7-3.2,1c-0.3,0.1-0.5,0-0.6-0.3c-1-2.4-2-4.7-2.9-7.1c-0.1-0.4-0.3-0.5-0.7-0.5
			c-2.5,0-5,0-7.5,0.1c-0.4,0-0.6-0.1-0.6-0.5c-0.3-3.5-0.6-7-0.9-10.5c0-0.2-0.1-0.4-0.2-0.7c-0.6-1.2-0.1-2.6,1.1-3.2
			c1.2-0.5,2.6,0,3.2,1.2c0.5,1.2,0,2.6-1.3,3.1c-0.4,0.1-0.4,0.3-0.4,0.6c0,1.2,0.1,2.4,0.1,3.5c0,0.4,0.1,0.5,0.5,0.5
			c1.4,0,2.8,0,4.3,0c0.4,0,0.6,0.1,0.6,0.5c0,0.4,0,0.8,0,1.2s-0.1,0.5-0.5,0.4c-1.2,0-2.5,0-3.7,0
			C-330.9,376.7-331.1,376.7-331.3,376.7z"/>
		<path class="st16" d="M-335.7,375.8c0,0.8,0.1,1.6,0.1,2.4c0,0.2-0.1,0.4-0.3,0.5c-0.9,1-1.7,2.1-2,3.5c-0.4,1.6-0.1,3,0.9,4.3
			c2.1,2.9,6.4,3.7,9.1,1.6c0.9-0.7,1.6-1.6,2.1-2.6c0.1-0.2,0.2-0.5,0.4-0.8c0.1,0.2,0.2,0.4,0.2,0.5c0.1,0.5,0.2,1,0.5,1.5
			c0.4,0.8,0.1,1.4-0.4,2c-1.4,1.6-3,2.8-5.1,3.1c-2.2,0.4-4.3-0.1-6.1-1.4c-2.8-2-4.3-4.6-4-8.1c0.2-2.1,1.2-3.8,2.7-5.3
			c0.5-0.5,1.2-1,1.7-1.4C-335.8,375.7-335.7,375.8-335.7,375.8z"/>
	</g>
</g>
<g class="st0">
	<circle class="st1" cx="-329" cy="378.7" r="22"/>
	<path class="st17" d="M-331.2,363.8c0,1.5,0.1,2.9,0.1,4.4c0,0.6,0.7,1.2,1.3,1.2c0.5,0,1-0.1,1.4,0c0.4,0,0.7-0.1,1-0.4
		s0.4-0.6,0.4-1.1c-0.1-1.4-0.1-2.7-0.2-4.2c0.8,0.3,1.5,0.7,2,1.3c2.5,2.5,2.1,6.5-0.8,8.5c-0.2,0.2-0.3,0.3-0.3,0.6
		c0.1,3.9,0.3,12.9,0.4,16.8c0,1.1-0.4,2-1.3,2.6c-1.6,0.9-3.6,0-3.9-1.8c0-0.2,0-5.5-0.1-5.7c-0.1-3.8-0.3-7.7-0.4-11.5
		c0-0.4-0.1-0.6-0.5-0.8c-1.8-1.2-2.7-2.9-2.6-5.1c0.1-2.1,1.2-3.6,3.1-4.6C-331.3,363.8-331.3,363.8-331.2,363.8z M-329.3,389.8
		c-0.5,0.5-0.4,1.3,0.1,1.8s1.4,0.4,1.8-0.1c0.5-0.5,0.4-1.4-0.1-1.8C-328,389.3-328.9,389.3-329.3,389.8z"/>
</g>
</svg>
