<?xml version="1.0" encoding="utf-8"?>
<!-- Generator: Adobe Illustrator 19.1.0, SVG Export Plug-In . SVG Version: 6.00 Build 0)  -->
<svg version="1.1" id="Layer_1" xmlns="http://www.w3.org/2000/svg" xmlns:xlink="http://www.w3.org/1999/xlink" x="0px" y="0px"
	 width="46.2px" height="46.2px" viewBox="-176 177.8 46.2 46.2" style="enable-background:new -176 177.8 46.2 46.2;"
	 xml:space="preserve">
<style type="text/css">
	.st0{display:none;}
	.st1{display:inline;fill:#A0D2E7;}
	.st2{display:inline;}
	.st3{fill:#FFFFFF;}
	.st4{fill:none;stroke:#FFFFFF;stroke-width:2;stroke-miterlimit:10;}
	.st5{fill:#A0D2E7;stroke:#FFFFFF;stroke-width:2;stroke-miterlimit:10;}
	.st6{fill:#FFFFFF;stroke:#FFFFFF;stroke-width:0.75;stroke-miterlimit:10;}
	.st7{display:inline;fill:none;stroke:#FFFFFF;stroke-width:2;stroke-miterlimit:10;}
	.st8{display:inline;fill:#A0D2E7;stroke:#FFFFFF;stroke-width:2;stroke-miterlimit:10;}
	.st9{fill:#E8E8E8;}
	.st10{fill:url(#SVGID_1_);}
	.st11{fill:url(#SVGID_2_);}
	.st12{fill:#FFFFFF;stroke:#A0D2E7;stroke-width:0.25;stroke-miterlimit:10;}
	.st13{display:inline;fill:#FFFFFF;}
</style>
<g class="st0">
	<circle class="st1" cx="-329" cy="378.7" r="22"/>
	<g class="st2">
		<path class="st3" d="M-344.3,379.9v-2.5l10.1-4.3v2.5l-7.8,3.1l7.8,3v2.5L-344.3,379.9z"/>
		<path class="st3" d="M-332.9,386.6l5.3-16h2.5l-5.3,16H-332.9z"/>
		<path class="st3" d="M-323.7,384.2v-2.5l7.8-3l-7.8-3.1v-2.5l10.1,4.3v2.5L-323.7,384.2z"/>
	</g>
</g>
<g class="st0">
	<circle class="st1" cx="-329" cy="378.7" r="22"/>
	<g class="st2">
		<path class="st4" d="M-319.5,389.8c0,0.9-0.8,1.7-1.7,1.7h-15.6c-0.9,0-1.7-0.8-1.7-1.7v-22.2c0-0.9,0.8-1.7,1.7-1.7h15.6
			c0.9,0,1.7,0.8,1.7,1.7V389.8z"/>
		<circle class="st3" cx="-329" cy="386.1" r="2.3"/>
	</g>
</g>
<g class="st0">
	<circle class="st1" cx="-329" cy="378.7" r="22"/>
	<g class="st2">
		<path class="st3" d="M-346.6,381.9l1.2-1.7c0.7,0.7,1.8,1.4,3.2,1.4c1.2,0,1.7-0.5,1.7-1.1c0-1.7-5.8-0.5-5.8-4.3
			c0-1.7,1.4-3,3.8-3c1.6,0,2.9,0.5,3.9,1.4l-1.2,1.6c-0.8-0.8-1.9-1.1-2.9-1.1c-0.9,0-1.4,0.4-1.4,1c0,1.6,5.7,0.5,5.7,4.2
			c0,1.8-1.3,3.2-4,3.2C-344.3,383.5-345.7,382.9-346.6,381.9z"/>
		<path class="st3" d="M-332.6,383.3v-0.8c-0.5,0.6-1.4,0.9-2.3,0.9c-1.2,0-2.5-0.8-2.5-2.4c0-1.7,1.4-2.3,2.5-2.3
			c1,0,1.8,0.3,2.3,0.9v-0.8c0-0.7-0.6-1.2-1.6-1.2c-0.8,0-1.5,0.3-2.1,0.9l-0.8-1.3c0.9-0.8,2-1.1,3.2-1.1c1.7,0,3.2,0.7,3.2,2.7
			v4.7L-332.6,383.3L-332.6,383.3z M-332.6,381.6v-0.9c-0.3-0.4-0.9-0.6-1.5-0.6c-0.8,0-1.4,0.4-1.4,1.1s0.6,1.1,1.4,1.1
			C-333.5,382.2-332.9,382-332.6,381.6z"/>
		<path class="st3" d="M-329.5,382.4l0.8-1.4c0.5,0.5,1.6,1,2.5,1c0.8,0,1.2-0.3,1.2-0.8c0-1.2-4.3-0.2-4.3-3.1c0-1.2,1.1-2.3,3-2.3
			c1.2,0,2.2,0.4,2.9,1l-0.8,1.3c-0.4-0.4-1.3-0.8-2.1-0.8c-0.7,0-1.1,0.3-1.1,0.7c0,1.1,4.3,0.2,4.3,3.1c0,1.3-1.1,2.3-3.1,2.3
			C-327.5,383.5-328.7,383.1-329.5,382.4z"/>
		<path class="st3" d="M-322.3,382.4l0.8-1.4c0.5,0.5,1.6,1,2.5,1c0.8,0,1.2-0.3,1.2-0.8c0-1.2-4.3-0.2-4.3-3.1c0-1.2,1.1-2.3,3-2.3
			c1.2,0,2.2,0.4,2.9,1l-0.8,1.3c-0.4-0.4-1.3-0.8-2.1-0.8c-0.7,0-1.1,0.3-1.1,0.7c0,1.1,4.3,0.2,4.3,3.1c0,1.3-1.1,2.3-3.1,2.3
			C-320.3,383.5-321.5,383.1-322.3,382.4z"/>
		<path class="st3" d="M-314.8,382.3c0-0.7,0.6-1.2,1.2-1.2c0.7,0,1.2,0.6,1.2,1.2c0,0.7-0.6,1.2-1.2,1.2S-314.8,383-314.8,382.3z"
			/>
	</g>
</g>
<g class="st0">
	<circle class="st1" cx="-329" cy="378.7" r="22"/>
	<g class="st2">
		<path class="st4" d="M-332.5,377.4c0,0,2.3-1.7,4-1.7s3.8,1.7,3.8,1.7"/>
		<circle class="st4" cx="-338.1" cy="378.3" r="5.6"/>
		<circle class="st4" cx="-319.1" cy="378.3" r="5.6"/>
	</g>
</g>
<g class="st0">
	<circle class="st1" cx="-329" cy="378.7" r="22"/>
	<g class="st2">
		<g>
			<line class="st4" x1="-339.2" y1="385.7" x2="-315.5" y2="385.7"/>
			<path class="st4" d="M-317.3,381.2c0,0.8-0.7,1.4-1.5,1.4H-336c-0.8,0-1.5-0.6-1.5-1.4v-11.6c0-0.8,0.7-1.4,1.5-1.4h17.2
				c0.8,0,1.5,0.6,1.5,1.4C-317.3,369.5-317.3,381.2-317.3,381.2z"/>
		</g>
		<g>
			<path class="st5" d="M-334.1,388.5c0,0.4-0.3,0.8-0.7,0.8h-6.8c-0.4,0-0.7-0.3-0.7-0.8v-9.7c0-0.4,0.3-0.7,0.7-0.7h6.8
				c0.4,0,0.7,0.3,0.7,0.7V388.5z"/>
		</g>
	</g>
</g>
<g class="st0">
	<circle class="st1" cx="-329" cy="378.7" r="22"/>
	<g class="st2">
		<path class="st6" d="M-341.4,381.9l-4.9,0.7l-0.2-1.1l4.9-0.7L-341.4,381.9z"/>
		<path class="st6" d="M-341.1,376l-4.7-1.6l0.4-1.1l4.7,1.6L-341.1,376z"/>
		<path class="st6" d="M-338.2,370.9l-3.5-3.5l0.8-0.8l3.5,3.5L-338.2,370.9z"/>
		<path class="st6" d="M-333.4,367.7l-1.5-4.7l1.1-0.3l1.5,4.7L-333.4,367.7z"/>
		<path class="st6" d="M-327.6,367l0.8-4.9l1.1,0.2l-0.8,4.9L-327.6,367z"/>
		<path class="st6" d="M-322.1,368.9l2.9-4l0.9,0.7l-2.9,4L-322.1,368.9z"/>
		<path class="st6" d="M-318,373.2l4.4-2.3l0.5,1l-4.4,2.3L-318,373.2z"/>
		<path class="st6" d="M-316.4,378.8l4.9-0.1v1.1l-4.9,0.1V378.8z"/>
	</g>
	<line class="st7" x1="-334.7" y1="385.4" x2="-311.8" y2="375"/>
	<circle class="st8" cx="-329.1" cy="382.2" r="3.4"/>
</g>
<g class="st0">
	<circle class="st1" cx="-329" cy="378.7" r="22"/>
	<g class="st2">
		<g>
			<rect x="-337.1" y="386.5" class="st3" width="16.2" height="2.7"/>
			<rect x="-337.1" y="380.4" class="st3" width="16.2" height="2.7"/>
			<rect x="-337.1" y="374.2" class="st3" width="16.2" height="2.7"/>
			<rect x="-337.1" y="368.1" class="st3" width="16.2" height="2.7"/>
		</g>
		<g>
			<line class="st4" x1="-333.9" y1="392.4" x2="-333.9" y2="364.9"/>
			<line class="st4" x1="-324.1" y1="392.4" x2="-324.1" y2="364.9"/>
		</g>
	</g>
</g>
<g>
	<path class="st9" d="M-153,178.8c-12.2,0-22,9.9-22,22c0,12.2,9.9,22,22,22c12.2,0,22-9.9,22-22
		C-130.9,188.7-140.8,178.8-153,178.8z M-143.5,214.5h-2V206l-0.8-0.5c0,2.2-0.1,3.8-0.1,4.3v1h-5.2v3.7h-2.7v-3.7h-5.2v-1
		c0-0.5-0.1-2.1-0.1-4.3l-0.8,0.5v8.5h-2V205l2.9-1.8c0.2-5.5,1-12.7,3.7-15.5c0.8-0.9,1.8-1.3,2.9-1.3s2.1,0.4,2.9,1.3
		c2.7,2.8,3.5,10,3.7,15.5l2.9,1.9L-143.5,214.5L-143.5,214.5z"/>
	<path class="st9" d="M-151.5,188.9c-0.9-0.9-2-1-2.9,0c-3,3.1-3.3,14.6-3.1,19.8h3.3v-3.3h2.7v3.3h3.3
		C-148.2,203.5-148.5,192.1-151.5,188.9z M-153,192.7c0.9,0,1.7,0.7,1.7,1.7c0,0.9-0.7,1.7-1.7,1.7c-0.9,0-1.7-0.7-1.7-1.7
		C-154.6,193.4-153.9,192.7-153,192.7z"/>
	
		<linearGradient id="SVGID_1_" gradientUnits="userSpaceOnUse" x1="-162.8027" y1="189.5027" x2="-143.1488" y2="209.1566" gradientTransform="matrix(1 0 0 -1 0 403.6)">
		<stop  offset="0" style="stop-color:#F5A742"/>
		<stop  offset="0.4914" style="stop-color:#F78D2E"/>
		<stop  offset="1" style="stop-color:#E83E39"/>
	</linearGradient>
	<path class="st10" d="M-150.1,187.6c-0.8-0.9-1.8-1.3-2.9-1.3s-2.1,0.4-2.9,1.3c-2.7,2.8-3.5,10.1-3.7,15.5l-2.9,1.8v9.5h2V206
		l0.8-0.5c0,2.2,0.1,3.8,0.1,4.3v1h5.2v3.7h2.7v-3.7h5.2v-1c0-0.5,0.1-2.1,0.1-4.3l0.8,0.5v8.5h2V205l-2.9-1.9
		C-146.6,197.6-147.3,190.4-150.1,187.6z M-148.4,208.7h-3.3v-3.3h-2.7v3.3h-3.3c-0.2-5.2,0.1-16.7,3.1-19.8c0.9-1,2-0.9,2.9,0
		C-148.5,192.1-148.2,203.5-148.4,208.7z"/>
	
		<linearGradient id="SVGID_2_" gradientUnits="userSpaceOnUse" x1="-154.1748" y1="208.1252" x2="-151.8172" y2="210.4828" gradientTransform="matrix(1 0 0 -1 0 403.6)">
		<stop  offset="0" style="stop-color:#F5A742"/>
		<stop  offset="0.4914" style="stop-color:#F78D2E"/>
		<stop  offset="1" style="stop-color:#E83E39"/>
	</linearGradient>
	<circle class="st11" cx="-153" cy="194.3" r="1.7"/>
</g>
<g class="st0">
	<circle class="st1" cx="-329" cy="378.7" r="22"/>
	<g class="st2">
		<path class="st12" d="M-331.3,376.7c0,0.5,0,1,0,1.6c0.3,0,0.6,0,0.9,0c2.2,0,4.3,0,6.5,0c0.4,0,0.6,0.1,0.8,0.5
			c0.8,2.1,1.7,4.2,2.5,6.3c0.1,0.1,0.1,0.3,0.2,0.5c0.6-0.1,1.1-0.3,1.6-0.4c0.3-0.1,0.4,0,0.5,0.2c0.2,0.6,0.5,1.1,0.7,1.7
			c-0.2,0.1-0.3,0.1-0.4,0.2c-1.1,0.3-2.1,0.7-3.2,1c-0.3,0.1-0.5,0-0.6-0.3c-1-2.4-2-4.7-2.9-7.1c-0.1-0.4-0.3-0.5-0.7-0.5
			c-2.5,0-5,0-7.5,0.1c-0.4,0-0.6-0.1-0.6-0.5c-0.3-3.5-0.6-7-0.9-10.5c0-0.2-0.1-0.4-0.2-0.7c-0.6-1.2-0.1-2.6,1.1-3.2
			c1.2-0.5,2.6,0,3.2,1.2c0.5,1.2,0,2.6-1.3,3.1c-0.4,0.1-0.4,0.3-0.4,0.6c0,1.2,0.1,2.4,0.1,3.5c0,0.4,0.1,0.5,0.5,0.5
			c1.4,0,2.8,0,4.3,0c0.4,0,0.6,0.1,0.6,0.5c0,0.4,0,0.8,0,1.2s-0.1,0.5-0.5,0.4c-1.2,0-2.5,0-3.7,0
			C-330.9,376.7-331.1,376.7-331.3,376.7z"/>
		<path class="st12" d="M-335.7,375.8c0,0.8,0.1,1.6,0.1,2.4c0,0.2-0.1,0.4-0.3,0.5c-0.9,1-1.7,2.1-2,3.5c-0.4,1.6-0.1,3,0.9,4.3
			c2.1,2.9,6.4,3.7,9.1,1.6c0.9-0.7,1.6-1.6,2.1-2.6c0.1-0.2,0.2-0.5,0.4-0.8c0.1,0.2,0.2,0.4,0.2,0.5c0.1,0.5,0.2,1,0.5,1.5
			c0.4,0.8,0.1,1.4-0.4,2c-1.4,1.6-3,2.8-5.1,3.1c-2.2,0.4-4.3-0.1-6.1-1.4c-2.8-2-4.3-4.6-4-8.1c0.2-2.1,1.2-3.8,2.7-5.3
			c0.5-0.5,1.2-1,1.7-1.4C-335.8,375.7-335.7,375.8-335.7,375.8z"/>
	</g>
</g>
<g class="st0">
	<circle class="st1" cx="-329" cy="378.7" r="22"/>
	<path class="st13" d="M-331.2,363.8c0,1.5,0.1,2.9,0.1,4.4c0,0.6,0.7,1.2,1.3,1.2c0.5,0,1-0.1,1.4,0c0.4,0,0.7-0.1,1-0.4
		s0.4-0.6,0.4-1.1c-0.1-1.4-0.1-2.7-0.2-4.2c0.8,0.3,1.5,0.7,2,1.3c2.5,2.5,2.1,6.5-0.8,8.5c-0.2,0.2-0.3,0.3-0.3,0.6
		c0.1,3.9,0.3,12.9,0.4,16.8c0,1.1-0.4,2-1.3,2.6c-1.6,0.9-3.6,0-3.9-1.8c0-0.2,0-5.5-0.1-5.7c-0.1-3.8-0.3-7.7-0.4-11.5
		c0-0.4-0.1-0.6-0.5-0.8c-1.8-1.2-2.7-2.9-2.6-5.1c0.1-2.1,1.2-3.6,3.1-4.6C-331.3,363.8-331.3,363.8-331.2,363.8z M-329.3,389.8
		c-0.5,0.5-0.4,1.3,0.1,1.8s1.4,0.4,1.8-0.1c0.5-0.5,0.4-1.4-0.1-1.8C-328,389.3-328.9,389.3-329.3,389.8z"/>
</g>
</svg>
