<?xml version="1.0" encoding="utf-8"?>
<!-- Generator: Adobe Illustrator 19.1.0, SVG Export Plug-In . SVG Version: 6.00 Build 0)  -->
<svg version="1.1" id="Layer_1" xmlns="http://www.w3.org/2000/svg" xmlns:xlink="http://www.w3.org/1999/xlink" x="0px" y="0px"
	 width="46.2px" height="46.2px" viewBox="-176 177.8 46.2 46.2" style="enable-background:new -176 177.8 46.2 46.2;"
	 xml:space="preserve">
<style type="text/css">
	.st0{display:none;}
	.st1{display:inline;fill:#A0D2E7;}
	.st2{display:inline;}
	.st3{fill:#FFFFFF;}
	.st4{fill:#E8E8E8;}
	.st5{fill:none;stroke:#FFFFFF;stroke-width:2;stroke-miterlimit:10;}
	.st6{fill:#A0D2E7;stroke:#FFFFFF;stroke-width:2;stroke-miterlimit:10;}
	.st7{fill:#FFFFFF;stroke:#FFFFFF;stroke-width:0.75;stroke-miterlimit:10;}
	.st8{display:inline;fill:none;stroke:#FFFFFF;stroke-width:2;stroke-miterlimit:10;}
	.st9{display:inline;fill:#A0D2E7;stroke:#FFFFFF;stroke-width:2;stroke-miterlimit:10;}
	.st10{fill:#FFFFFF;stroke:#A0D2E7;stroke-width:0.25;stroke-miterlimit:10;}
	.st11{display:inline;fill:#FFFFFF;}
	.st12{fill:url(#SVGID_1_);}
</style>
<g class="st0">
	<circle class="st1" cx="-153" cy="200.7" r="22"/>
	<g class="st2">
		<path class="st3" d="M-168.3,201.9v-2.5l10.1-4.3v2.5l-7.8,3.1l7.8,3v2.5L-168.3,201.9z"/>
		<path class="st3" d="M-156.9,208.6l5.3-16h2.5l-5.3,16H-156.9z"/>
		<path class="st3" d="M-147.7,206.2v-2.5l7.8-3l-7.8-3.1v-2.5l10.1,4.3v2.5L-147.7,206.2z"/>
	</g>
</g>
<g>
	<circle class="st4" cx="-152.9" cy="200.7" r="22"/>
</g>
<g class="st0">
	<circle class="st1" cx="-153" cy="200.7" r="22"/>
	<g class="st2">
		<path class="st3" d="M-170.6,203.9l1.2-1.7c0.7,0.7,1.8,1.4,3.2,1.4c1.2,0,1.7-0.5,1.7-1.1c0-1.7-5.8-0.5-5.8-4.3
			c0-1.7,1.4-3,3.8-3c1.6,0,2.9,0.5,3.9,1.4l-1.2,1.6c-0.8-0.8-1.9-1.1-2.9-1.1c-0.9,0-1.4,0.4-1.4,1c0,1.6,5.7,0.5,5.7,4.2
			c0,1.8-1.3,3.2-4,3.2C-168.3,205.5-169.7,204.9-170.6,203.9z"/>
		<path class="st3" d="M-156.6,205.3v-0.8c-0.5,0.6-1.4,0.9-2.3,0.9c-1.2,0-2.5-0.8-2.5-2.4c0-1.7,1.4-2.3,2.5-2.3
			c1,0,1.8,0.3,2.3,0.9v-0.8c0-0.7-0.6-1.2-1.6-1.2c-0.8,0-1.5,0.3-2.1,0.9l-0.8-1.3c0.9-0.8,2-1.1,3.2-1.1c1.7,0,3.2,0.7,3.2,2.7
			v4.7L-156.6,205.3L-156.6,205.3z M-156.6,203.6v-0.9c-0.3-0.4-0.9-0.6-1.5-0.6c-0.8,0-1.4,0.4-1.4,1.1c0,0.7,0.6,1.1,1.4,1.1
			C-157.5,204.2-156.9,204-156.6,203.6z"/>
		<path class="st3" d="M-153.5,204.4l0.8-1.4c0.5,0.5,1.6,1,2.5,1c0.8,0,1.2-0.3,1.2-0.8c0-1.2-4.3-0.2-4.3-3.1c0-1.2,1-2.3,3-2.3
			c1.2,0,2.2,0.4,2.9,1l-0.8,1.4c-0.4-0.5-1.3-0.8-2.1-0.8c-0.7,0-1.1,0.3-1.1,0.7c0,1.1,4.3,0.2,4.3,3.1c0,1.3-1.1,2.3-3.1,2.3
			C-151.5,205.5-152.7,205.1-153.5,204.4z"/>
		<path class="st3" d="M-146.3,204.4l0.8-1.4c0.5,0.5,1.6,1,2.5,1c0.8,0,1.2-0.3,1.2-0.8c0-1.2-4.3-0.2-4.3-3.1c0-1.2,1.1-2.3,3-2.3
			c1.2,0,2.2,0.4,2.9,1l-0.8,1.4c-0.4-0.5-1.3-0.8-2.1-0.8c-0.7,0-1.1,0.3-1.1,0.7c0,1.1,4.3,0.2,4.3,3.1c0,1.3-1.1,2.3-3.1,2.3
			C-144.3,205.5-145.5,205.1-146.3,204.4z"/>
		<path class="st3" d="M-138.8,204.3c0-0.7,0.6-1.2,1.2-1.2c0.7,0,1.2,0.6,1.2,1.2c0,0.7-0.6,1.2-1.2,1.2
			C-138.2,205.5-138.8,205-138.8,204.3z"/>
	</g>
</g>
<g class="st0">
	<circle class="st1" cx="-153" cy="200.7" r="22"/>
	<g class="st2">
		<path class="st5" d="M-156.5,199.4c0,0,2.3-1.7,4-1.7s3.8,1.7,3.8,1.7"/>
		<circle class="st5" cx="-162.1" cy="200.3" r="5.6"/>
		<circle class="st5" cx="-143.1" cy="200.3" r="5.6"/>
	</g>
</g>
<g class="st0">
	<circle class="st1" cx="-153" cy="200.7" r="22"/>
	<g class="st2">
		<g>
			<line class="st5" x1="-163.2" y1="207.7" x2="-139.5" y2="207.7"/>
			<path class="st5" d="M-141.3,203.2c0,0.8-0.7,1.4-1.5,1.4H-160c-0.8,0-1.5-0.6-1.5-1.4v-11.7c0-0.8,0.7-1.4,1.5-1.4h17.2
				c0.8,0,1.5,0.6,1.5,1.4V203.2z"/>
		</g>
		<g>
			<path class="st6" d="M-158.1,210.5c0,0.4-0.3,0.8-0.7,0.8h-6.8c-0.4,0-0.7-0.3-0.7-0.8v-9.7c0-0.4,0.3-0.7,0.7-0.7h6.8
				c0.4,0,0.7,0.3,0.7,0.7V210.5z"/>
		</g>
	</g>
</g>
<g class="st0">
	<circle class="st1" cx="-153" cy="200.7" r="22"/>
	<g class="st2">
		<path class="st7" d="M-165.4,203.9l-4.9,0.7l-0.2-1.1l4.9-0.7L-165.4,203.9z"/>
		<path class="st7" d="M-165.1,198l-4.7-1.6l0.4-1.1l4.7,1.6L-165.1,198z"/>
		<path class="st7" d="M-162.2,192.9l-3.5-3.5l0.8-0.8l3.5,3.5L-162.2,192.9z"/>
		<path class="st7" d="M-157.4,189.7l-1.5-4.7l1.1-0.3l1.5,4.7L-157.4,189.7z"/>
		<path class="st7" d="M-151.6,189l0.8-4.9l1.1,0.2l-0.8,4.9L-151.6,189z"/>
		<path class="st7" d="M-146.1,190.9l2.9-4l0.9,0.7l-2.9,4L-146.1,190.9z"/>
		<path class="st7" d="M-142,195.2l4.4-2.3l0.5,1l-4.4,2.3L-142,195.2z"/>
		<path class="st7" d="M-140.4,200.8l4.9-0.1v1.1l-4.9,0.1V200.8z"/>
	</g>
	<line class="st8" x1="-158.7" y1="207.4" x2="-135.8" y2="197"/>
	<circle class="st9" cx="-153.1" cy="204.2" r="3.4"/>
</g>
<g class="st0">
	<circle class="st1" cx="-153" cy="200.7" r="22"/>
	<g class="st2">
		<g>
			<rect x="-161.1" y="208.5" class="st3" width="16.2" height="2.7"/>
			<rect x="-161.1" y="202.4" class="st3" width="16.2" height="2.7"/>
			<rect x="-161.1" y="196.2" class="st3" width="16.2" height="2.7"/>
			<rect x="-161.1" y="190.1" class="st3" width="16.2" height="2.7"/>
		</g>
		<g>
			<line class="st5" x1="-157.9" y1="214.4" x2="-157.9" y2="186.9"/>
			<line class="st5" x1="-148.1" y1="214.4" x2="-148.1" y2="186.9"/>
		</g>
	</g>
</g>
<g class="st0">
	<circle class="st1" cx="-153" cy="200.7" r="22"/>
	<g class="st2">
		<polyline class="st5" points="-161.4,214.3 -161.4,205.3 -152.9,199.8 -144.5,205.3 -144.5,214.3 		"/>
		<path class="st6" d="M-147.4,209.5h-11.1c0,0-1.1-22.5,5.6-22.5C-146.3,187-147.4,209.5-147.4,209.5z"/>
		<rect x="-154.3" y="205.3" class="st3" width="2.7" height="9"/>
		<circle class="st3" cx="-153" cy="194.1" r="1.7"/>
	</g>
</g>
<g class="st0">
	<circle class="st1" cx="-153" cy="200.7" r="22"/>
	<g class="st2">
		<path class="st10" d="M-155.3,198.7c0,0.5,0,1,0,1.6c0.3,0,0.6,0,0.9,0c2.2,0,4.3,0,6.5,0c0.4,0,0.6,0.1,0.8,0.5
			c0.8,2.1,1.7,4.2,2.5,6.3c0.1,0.1,0.1,0.3,0.2,0.5c0.6-0.1,1.1-0.3,1.6-0.4c0.3-0.1,0.4,0,0.5,0.2c0.2,0.6,0.5,1.1,0.7,1.7
			c-0.2,0.1-0.3,0.1-0.4,0.2c-1.1,0.3-2.1,0.7-3.2,1c-0.3,0.1-0.5,0-0.6-0.3c-1-2.4-2-4.7-2.9-7.1c-0.1-0.4-0.3-0.5-0.7-0.5
			c-2.5,0-5,0-7.5,0.1c-0.4,0-0.6-0.1-0.6-0.5c-0.3-3.5-0.6-7-0.9-10.5c0-0.2-0.1-0.4-0.2-0.7c-0.6-1.2-0.1-2.6,1.1-3.2
			c1.2-0.5,2.6,0,3.2,1.2c0.5,1.2,0,2.6-1.3,3.1c-0.4,0.1-0.4,0.3-0.4,0.6c0,1.2,0.1,2.4,0.1,3.5c0,0.4,0.1,0.5,0.5,0.5
			c1.4,0,2.9,0,4.3,0c0.4,0,0.6,0.1,0.6,0.5c0,0.4,0,0.8,0,1.2c0,0.4-0.1,0.5-0.5,0.4c-1.2,0-2.5,0-3.7,0
			C-154.9,198.7-155.1,198.7-155.3,198.7z"/>
		<path class="st10" d="M-159.7,197.8c0,0.8,0.1,1.6,0.1,2.4c0,0.2-0.1,0.4-0.3,0.5c-0.9,1-1.7,2.1-2,3.5c-0.4,1.6-0.1,3,0.9,4.3
			c2.1,2.9,6.4,3.7,9.1,1.6c0.9-0.7,1.6-1.6,2.1-2.6c0.1-0.2,0.2-0.5,0.4-0.8c0.1,0.2,0.2,0.4,0.2,0.5c0.1,0.5,0.2,1,0.5,1.5
			c0.4,0.8,0.1,1.4-0.4,2c-1.4,1.6-3,2.8-5.1,3.1c-2.2,0.4-4.3-0.1-6.1-1.4c-2.8-2-4.3-4.6-4-8.1c0.2-2.1,1.2-3.8,2.7-5.3
			c0.5-0.5,1.1-1,1.7-1.4C-159.8,197.7-159.7,197.8-159.7,197.8z"/>
	</g>
</g>
<g class="st0">
	<circle class="st1" cx="-153" cy="200.7" r="22"/>
	<path class="st11" d="M-155.2,185.8c0,1.5,0.1,2.9,0.1,4.4c0,0.6,0.7,1.2,1.3,1.2c0.5,0,1-0.1,1.4,0c0.4,0,0.7-0.1,1-0.4
		c0.3-0.3,0.4-0.6,0.4-1.1c0-1.5,0-2.8-0.1-4.3c0.8,0.3,1.5,0.7,2,1.3c2.5,2.5,2.1,6.5-0.8,8.5c-0.2,0.2-0.3,0.3-0.3,0.6
		c0.2,3.9,0.3,12.8,0.4,16.8c0,1.1-0.4,2-1.3,2.6c-1.6,0.9-3.6,0-3.9-1.8c0-0.2,0-5.5-0.1-5.7c-0.1-3.8-0.3-7.7-0.4-11.5
		c0-0.4-0.1-0.6-0.5-0.8c-1.8-1.2-2.7-2.9-2.6-5.1c0.1-2.1,1.2-3.6,3.1-4.6C-155.3,185.8-155.3,185.8-155.2,185.8z M-153.3,211.8
		c-0.5,0.5-0.4,1.3,0.1,1.8s1.4,0.4,1.8-0.1c0.5-0.5,0.4-1.4-0.1-1.8C-152,211.3-152.9,211.3-153.3,211.8z"/>
</g>
<linearGradient id="SVGID_1_" gradientUnits="userSpaceOnUse" x1="-162.8828" y1="192.9049" x2="-142.9363" y2="212.8514" gradientTransform="matrix(1 0 0 -1 0 403.6)">
	<stop  offset="0" style="stop-color:#F5A742"/>
	<stop  offset="0.4914" style="stop-color:#F78D2E"/>
	<stop  offset="1" style="stop-color:#E83E39"/>
</linearGradient>
<path class="st12" d="M-152.9,186.6L-152.9,186.6C-153,186.6-153,186.6-152.9,186.6c-0.1,0-0.1,0-0.1,0c-7.8,0.1-14,6.4-14,14.1
	c0,7.7,6.3,14,14,14.1c0,0,0,0,0.1,0l0,0l0,0c7.8,0,14.1-6.3,14.1-14.1C-138.8,192.9-145.1,186.6-152.9,186.6z M-152.1,195.8
	c1.5,0,3-0.2,4.5-0.5c0.3,1.4,0.6,2.9,0.6,4.6h-5.1V195.8z M-152.1,194.1v-5.6c1.6,0.5,3.1,2.5,4,5.2
	C-149.3,193.9-150.7,194.1-152.1,194.1z M-153.8,188.4v5.7c-1.4,0-2.8-0.2-4.1-0.4C-156.9,190.9-155.4,188.9-153.8,188.4z
	 M-153.8,195.8v4.1h-5.2c0.1-1.6,0.3-3.2,0.6-4.6C-156.9,195.6-155.3,195.8-153.8,195.8z M-160.7,199.9h-4.6c0.2-2.2,0.9-4.3,2.1-6
	c1,0.4,2.1,0.8,3.2,1.1C-160.4,196.4-160.6,198.1-160.7,199.9z M-160.7,201.6c0.1,1.8,0.3,3.5,0.7,5.1c-1.1,0.3-2.1,0.6-3.2,1.1
	c-1.2-1.8-2-3.9-2.1-6.2H-160.7z M-159,201.6h5.2v4.2c-1.6,0-3.1,0.2-4.6,0.5C-158.7,204.8-158.9,203.2-159,201.6z M-153.8,207.5
	v5.5c-1.7-0.5-3.1-2.4-4.1-5.1C-156.5,207.7-155.1,207.5-153.8,207.5z M-152.1,213v-5.5c1.4,0,2.7,0.2,4,0.4
	C-149,210.6-150.5,212.4-152.1,213z M-152.1,205.8v-4.2h5.1c-0.1,1.7-0.3,3.3-0.6,4.7C-149,206-150.5,205.8-152.1,205.8z
	 M-145.2,201.6h4.7c-0.2,2.3-0.9,4.4-2.1,6.2c-1-0.4-2.1-0.8-3.2-1.1C-145.5,205.1-145.3,203.4-145.2,201.6z M-145.2,199.9
	c-0.1-1.8-0.3-3.4-0.6-4.9c1.1-0.3,2.2-0.7,3.3-1.1c1.2,1.8,1.9,3.8,2.1,6H-145.2z M-143.7,192.4c-0.9,0.3-1.7,0.6-2.7,0.9
	c-0.6-1.7-1.3-3.1-2.1-4.2C-146.6,189.8-145,191-143.7,192.4z M-157.5,189.2c-0.8,1.1-1.6,2.5-2.1,4.1c-0.9-0.2-1.7-0.5-2.6-0.8
	C-160.9,191-159.3,189.9-157.5,189.2z M-162,209.1c0.8-0.3,1.6-0.6,2.5-0.8c0.5,1.6,1.2,2.9,2.1,4
	C-159.2,211.6-160.8,210.5-162,209.1z M-148.5,212.3c0.8-1.1,1.6-2.4,2.1-4c0.9,0.2,1.8,0.5,2.6,0.8
	C-145.1,210.5-146.7,211.6-148.5,212.3z"/>
</svg>
