<?xml version="1.0" encoding="utf-8"?>
<!-- Generator: Adobe Illustrator 16.2.1, SVG Export Plug-In . SVG Version: 6.00 Build 0)  -->
<!DOCTYPE svg PUBLIC "-//W3C//DTD SVG 1.1//EN" "http://www.w3.org/Graphics/SVG/1.1/DTD/svg11.dtd">
<svg version="1.1" id="Layer_1" xmlns="http://www.w3.org/2000/svg" xmlns:xlink="http://www.w3.org/1999/xlink" x="0px" y="0px"
	 width="46.167px" height="46.167px" viewBox="0 0 46.167 46.167" enable-background="new 0 0 46.167 46.167" xml:space="preserve">
<g display="none">
	<circle display="inline" fill="#A0D2E7" cx="23.035" cy="23.035" r="22.035"/>
	<g display="inline">
		<path fill="#FFFFFF" d="M7.665,24.265V21.76l10.133-4.287v2.459l-7.764,3.092l7.764,3.047v2.46L7.665,24.265z"/>
		<path fill="#FFFFFF" d="M19.132,31.013l5.349-15.955h2.46l-5.349,15.955H19.132z"/>
		<path fill="#FFFFFF" d="M28.273,28.531v-2.46l7.786-3.047l-7.786-3.092v-2.459l10.133,4.287v2.505L28.273,28.531z"/>
	</g>
</g>
<g display="none">
	<circle display="inline" fill="#A0D2E7" cx="23.035" cy="23.035" r="22.035"/>
	<g display="inline">
		<path fill="none" stroke="#FFFFFF" stroke-width="2" stroke-miterlimit="10" d="M32.535,34.153c0,0.944-0.766,1.71-1.709,1.71
			H15.245c-0.944,0-1.71-0.766-1.71-1.71V11.918c0-0.944,0.766-1.71,1.71-1.71h15.581c0.943,0,1.709,0.766,1.709,1.71V34.153z"/>
		<circle fill="#FFFFFF" cx="23.035" cy="30.51" r="2.268"/>
	</g>
</g>
<g display="none">
	<circle display="inline" fill="#A0D2E7" cx="23.035" cy="23.035" r="22.035"/>
	<g display="inline">
		<path fill="#FFFFFF" d="M5.373,26.3l1.17-1.666C7.248,25.371,8.344,26,9.723,26c1.185,0,1.74-0.524,1.74-1.109
			c0-1.739-5.76-0.523-5.76-4.289c0-1.665,1.44-3.045,3.795-3.045c1.59,0,2.91,0.479,3.9,1.395l-1.185,1.59
			c-0.81-0.75-1.89-1.095-2.91-1.095c-0.9,0-1.41,0.39-1.41,0.99c0,1.574,5.745,0.51,5.745,4.244c0,1.829-1.32,3.21-4.005,3.21
			C7.699,27.89,6.319,27.246,5.373,26.3z"/>
		<path fill="#FFFFFF" d="M19.369,27.71v-0.766c-0.495,0.6-1.35,0.944-2.295,0.944c-1.155,0-2.505-0.779-2.505-2.399
			c0-1.71,1.35-2.34,2.505-2.34c0.975,0,1.815,0.314,2.295,0.885V23.12c0-0.735-0.63-1.215-1.59-1.215
			c-0.765,0-1.485,0.3-2.085,0.854l-0.75-1.335c0.885-0.795,2.025-1.14,3.165-1.14c1.665,0,3.18,0.66,3.18,2.745v4.68h-1.92V27.71z
			 M19.369,25.97v-0.899c-0.315-0.42-0.915-0.646-1.53-0.646c-0.75,0-1.365,0.404-1.365,1.096c0,0.689,0.615,1.079,1.365,1.079
			C18.453,26.6,19.054,26.39,19.369,25.97z"/>
		<path fill="#FFFFFF" d="M22.534,26.765l0.825-1.381c0.54,0.512,1.605,1.006,2.506,1.006c0.824,0,1.215-0.314,1.215-0.766
			c0-1.185-4.291-0.209-4.291-3.06c0-1.215,1.05-2.28,2.97-2.28c1.215,0,2.189,0.42,2.91,0.99l-0.766,1.35
			c-0.436-0.45-1.26-0.84-2.145-0.84c-0.69,0-1.141,0.3-1.141,0.705c0,1.064,4.305,0.165,4.305,3.089
			c0,1.336-1.139,2.311-3.149,2.311C24.514,27.89,23.299,27.47,22.534,26.765z"/>
		<path fill="#FFFFFF" d="M29.688,26.765l0.825-1.381c0.54,0.512,1.605,1.006,2.505,1.006c0.825,0,1.215-0.314,1.215-0.766
			c0-1.185-4.29-0.209-4.29-3.06c0-1.215,1.051-2.28,2.971-2.28c1.215,0,2.189,0.42,2.91,0.99l-0.766,1.35
			c-0.436-0.45-1.26-0.84-2.145-0.84c-0.69,0-1.141,0.3-1.141,0.705c0,1.064,4.305,0.165,4.305,3.089
			c0,1.336-1.14,2.311-3.149,2.311C31.667,27.89,30.453,27.47,29.688,26.765z"/>
		<path fill="#FFFFFF" d="M37.233,26.662c0-0.66,0.556-1.216,1.216-1.216c0.659,0,1.215,0.556,1.215,1.216
			c0,0.659-0.556,1.215-1.215,1.215C37.789,27.876,37.233,27.321,37.233,26.662z"/>
	</g>
</g>
<g display="none">
	<circle display="inline" fill="#A0D2E7" cx="23.035" cy="23.035" r="22.035"/>
	<g display="inline">
		<path fill="none" stroke="#FFFFFF" stroke-width="2" stroke-miterlimit="10" d="M19.518,21.75c0,0,2.269-1.687,3.956-1.687
			c1.688,0,3.805,1.687,3.805,1.687"/>
		<circle fill="none" stroke="#FFFFFF" stroke-width="2" stroke-miterlimit="10" cx="13.911" cy="22.637" r="5.607"/>
		<circle fill="none" stroke="#FFFFFF" stroke-width="2" stroke-miterlimit="10" cx="32.887" cy="22.637" r="5.607"/>
	</g>
</g>
<g display="none">
	<circle display="inline" fill="#A0D2E7" cx="23.035" cy="23.035" r="22.035"/>
	<g display="inline">
		<g>
			<line fill="none" stroke="#FFFFFF" stroke-width="2" stroke-miterlimit="10" x1="12.775" y1="30.087" x2="36.457" y2="30.087"/>
			<path fill="none" stroke="#FFFFFF" stroke-width="2" stroke-miterlimit="10" d="M34.697,25.539c0,0.785-0.668,1.422-1.492,1.422
				H16.026c-0.824,0-1.492-0.637-1.492-1.422V13.914c0-0.785,0.668-1.422,1.492-1.422h17.179c0.824,0,1.492,0.637,1.492,1.422
				V25.539z"/>
		</g>
		<g>
			<path fill="#A0D2E7" stroke="#FFFFFF" stroke-width="2" stroke-miterlimit="10" d="M17.936,32.83c0,0.414-0.335,0.75-0.749,0.75
				h-6.823c-0.414,0-0.749-0.336-0.749-0.75v-9.738c0-0.414,0.335-0.749,0.749-0.749h6.823c0.414,0,0.749,0.335,0.749,0.749V32.83z"
				/>
		</g>
	</g>
</g>
<g display="none">
	<circle display="inline" fill="#A0D2E7" cx="23.035" cy="23.035" r="22.035"/>
	<g display="inline">
		<path fill="#FFFFFF" stroke="#FFFFFF" stroke-width="0.75" stroke-miterlimit="10" d="M10.622,26.235l-4.895,0.704L5.566,25.81
			l4.896-0.703L10.622,26.235z"/>
		<path fill="#FFFFFF" stroke="#FFFFFF" stroke-width="0.75" stroke-miterlimit="10" d="M10.892,20.402l-4.691-1.586l0.364-1.082
			l4.692,1.588L10.892,20.402z"/>
		<path fill="#FFFFFF" stroke="#FFFFFF" stroke-width="0.75" stroke-miterlimit="10" d="M13.767,15.308l-3.479-3.518l0.811-0.803
			l3.479,3.519L13.767,15.308z"/>
		<path fill="#FFFFFF" stroke="#FFFFFF" stroke-width="0.75" stroke-miterlimit="10" d="M18.629,12.053L17.115,7.34l1.086-0.349
			l1.515,4.714L18.629,12.053z"/>
		<path fill="#FFFFFF" stroke="#FFFFFF" stroke-width="0.75" stroke-miterlimit="10" d="M24.425,11.334l0.768-4.895l1.125,0.176
			l-0.766,4.895L24.425,11.334z"/>
		<path fill="#FFFFFF" stroke="#FFFFFF" stroke-width="0.75" stroke-miterlimit="10" d="M29.93,13.307l2.888-4.023l0.928,0.665
			l-2.888,4.023L29.93,13.307z"/>
		<path fill="#FFFFFF" stroke="#FFFFFF" stroke-width="0.75" stroke-miterlimit="10" d="M33.958,17.539l4.383-2.293l0.527,1.012
			l-4.385,2.291L33.958,17.539z"/>
		<path fill="#FFFFFF" stroke="#FFFFFF" stroke-width="0.75" stroke-miterlimit="10" d="M35.647,23.128l4.944-0.085l0.021,1.141
			l-4.945,0.084L35.647,23.128z"/>
	</g>
	
		<line display="inline" fill="none" stroke="#FFFFFF" stroke-width="2" stroke-miterlimit="10" x1="17.271" y1="29.733" x2="40.214" y2="19.39"/>
	
		<circle display="inline" fill="#A0D2E7" stroke="#FFFFFF" stroke-width="2" stroke-miterlimit="10" cx="22.874" cy="26.57" r="3.432"/>
</g>
<g display="none">
	<circle display="inline" fill="#A0D2E7" cx="23.035" cy="23.035" r="22.035"/>
	<g display="inline">
		<g>
			<rect x="14.942" y="30.914" fill="#FFFFFF" width="16.188" height="2.738"/>
			<rect x="14.942" y="24.748" fill="#FFFFFF" width="16.188" height="2.739"/>
			<rect x="14.942" y="18.583" fill="#FFFFFF" width="16.188" height="2.739"/>
			<rect x="14.942" y="12.418" fill="#FFFFFF" width="16.188" height="2.739"/>
		</g>
		<g>
			<line fill="none" stroke="#FFFFFF" stroke-width="2" stroke-miterlimit="10" x1="18.124" y1="36.764" x2="18.124" y2="9.307"/>
			<line fill="none" stroke="#FFFFFF" stroke-width="2" stroke-miterlimit="10" x1="27.947" y1="36.764" x2="27.947" y2="9.307"/>
		</g>
	</g>
</g>
<g display="none">
	<circle display="inline" fill="#A0D2E7" cx="23.035" cy="23.035" r="22.035"/>
	<g display="inline">
		<polyline fill="none" stroke="#FFFFFF" stroke-width="2" stroke-miterlimit="10" points="14.567,36.66 14.567,27.66 23.133,22.16 
			31.503,27.66 31.503,36.66 		"/>
		<path fill="#A0D2E7" stroke="#FFFFFF" stroke-width="2" stroke-miterlimit="10" d="M28.602,31.91H17.469c0,0-1.06-22.5,5.566-22.5
			C29.662,9.41,28.602,31.91,28.602,31.91z"/>
		<rect x="21.689" y="27.66" fill="#FFFFFF" width="2.693" height="9"/>
		<circle fill="#FFFFFF" cx="23.035" cy="16.494" r="1.667"/>
	</g>
</g>
<g display="none">
	<circle display="inline" fill="#A0D2E7" cx="23.035" cy="23.035" r="22.035"/>
	<g display="inline">
		<path fill="#FFFFFF" stroke="#A0D2E7" stroke-width="0.25" stroke-miterlimit="10" d="M20.666,21.042c0,0.54,0,1.026,0,1.558
			c0.314,0,0.593,0,0.871,0c2.154,0,4.306,0.011,6.46-0.01c0.412-0.004,0.611,0.123,0.764,0.509c0.826,2.093,1.68,4.175,2.525,6.26
			c0.062,0.15,0.137,0.296,0.217,0.473c0.561-0.144,1.106-0.269,1.644-0.424c0.274-0.08,0.427-0.031,0.533,0.25
			c0.21,0.555,0.45,1.096,0.694,1.68c-0.174,0.068-0.306,0.129-0.443,0.172c-1.057,0.337-2.119,0.654-3.168,1.011
			c-0.329,0.112-0.46,0.041-0.59-0.274c-0.969-2.356-1.965-4.701-2.928-7.062c-0.15-0.371-0.338-0.481-0.728-0.476
			c-2.485,0.035-4.97,0.035-7.454,0.067c-0.415,0.005-0.559-0.097-0.594-0.541c-0.28-3.499-0.591-6.995-0.903-10.491
			c-0.02-0.223-0.107-0.448-0.204-0.653c-0.573-1.222-0.075-2.622,1.143-3.181c1.197-0.549,2.64,0.002,3.172,1.211
			c0.533,1.211-0.046,2.632-1.314,3.103c-0.364,0.135-0.419,0.308-0.406,0.648c0.045,1.175,0.068,2.351,0.073,3.527
			c0.002,0.373,0.137,0.481,0.498,0.477c1.425-0.016,2.85,0.006,4.274-0.014c0.415-0.006,0.616,0.086,0.571,0.548
			c-0.039,0.394-0.027,0.796-0.004,1.192c0.022,0.359-0.129,0.451-0.465,0.447c-1.226-0.015-2.452-0.006-3.678-0.006
			C21.051,21.042,20.873,21.042,20.666,21.042z"/>
		<path fill="#FFFFFF" stroke="#A0D2E7" stroke-width="0.25" stroke-miterlimit="10" d="M16.342,20.173
			c0.04,0.808,0.095,1.617,0.107,2.426c0.002,0.167-0.13,0.364-0.253,0.5c-0.908,1.01-1.654,2.107-1.971,3.454
			c-0.372,1.579-0.057,3.022,0.886,4.327c2.096,2.902,6.388,3.664,9.146,1.627c0.927-0.684,1.593-1.579,2.086-2.61
			c0.119-0.25,0.23-0.504,0.387-0.849c0.087,0.23,0.152,0.375,0.197,0.523c0.15,0.508,0.23,1.047,0.451,1.52
			c0.381,0.816,0.123,1.4-0.436,2.023c-1.396,1.561-3.004,2.752-5.106,3.129c-2.217,0.398-4.262-0.117-6.077-1.4
			c-2.77-1.957-4.317-4.588-4.032-8.072c0.173-2.111,1.231-3.818,2.738-5.252c0.543-0.517,1.15-0.968,1.728-1.449
			C16.244,20.103,16.293,20.138,16.342,20.173z"/>
	</g>
</g>
<g>
	<circle fill="#A0D2E7" cx="23.035" cy="23.035" r="22.035"/>
	<path fill="#FFFFFF" d="M20.804,8.149c0.049,1.479,0.096,2.924,0.146,4.369c0.02,0.596,0.69,1.224,1.282,1.206
		c0.477-0.015,0.955-0.058,1.432-0.041c0.422,0.015,0.715-0.132,1.006-0.443c0.299-0.321,0.412-0.635,0.39-1.07
		c-0.072-1.37-0.103-2.741-0.151-4.173c0.816,0.263,1.475,0.701,2.033,1.274c2.456,2.524,2.061,6.489-0.848,8.482
		c-0.243,0.167-0.274,0.337-0.266,0.59c0.139,3.937,0.266,12.874,0.404,16.811c0.039,1.108-0.352,1.992-1.316,2.561
		c-1.574,0.929-3.576-0.023-3.884-1.834c-0.04-0.233-0.046-5.475-0.054-5.713c-0.131-3.832-0.265-7.665-0.381-11.498
		c-0.011-0.378-0.119-0.592-0.457-0.806c-1.845-1.169-2.744-2.881-2.608-5.054c0.131-2.103,1.225-3.626,3.084-4.605
		C20.652,8.183,20.698,8.178,20.804,8.149z M22.653,34.192c-0.472,0.509-0.446,1.341,0.056,1.815
		c0.511,0.484,1.384,0.447,1.849-0.076c0.46-0.518,0.418-1.352-0.092-1.814C23.955,33.648,23.125,33.683,22.653,34.192z"/>
</g>
</svg>
