<?xml version="1.0" encoding="utf-8"?>
<!-- Generator: Adobe Illustrator 18.1.1, SVG Export Plug-In . SVG Version: 6.00 Build 0)  -->
<svg version="1.1" id="Layer_1" xmlns="http://www.w3.org/2000/svg" xmlns:xlink="http://www.w3.org/1999/xlink" x="0px" y="0px"
	 viewBox="544.9 296.9 46.2 46.2" enable-background="new 544.9 296.9 46.2 46.2" xml:space="preserve">
<g display="none">
	<circle display="inline" fill="#A0D2E7" cx="22.6" cy="617.8" r="304.8"/>
	<g display="inline">
		<path fill="#FFFFFF" d="M-189.3,634.4v-34.6l139.9-59.6v34.6l-108.1,42.9l108.1,41.6V694L-189.3,634.4z"/>
		<path fill="#FFFFFF" d="M-31.4,727.2L42,505.6h34.6L3.2,727.2H-31.4z"/>
		<path fill="#FFFFFF" d="M96,694v-34.6l108.1-41.6L96,574.9v-34.6l139.9,59.6v34.6L96,694z"/>
	</g>
</g>
<g display="none">
	<circle display="inline" fill="#A0D2E7" cx="22.6" cy="617.8" r="304.8"/>
	<g display="inline">
		<path fill="none" stroke="#FFFFFF" stroke-width="2" stroke-miterlimit="10" d="M154.2,771.6c0,12.5-11.1,23.5-23.5,23.5H-85.4
			c-12.5,0-23.5-11.1-23.5-23.5V464c0-12.5,11.1-23.5,23.5-23.5h216.1c12.5,0,23.5,11.1,23.5,23.5V771.6z"/>
		<circle fill="#FFFFFF" cx="22.6" cy="720.3" r="31.9"/>
	</g>
</g>
<g display="none">
	<circle display="inline" fill="#A0D2E7" cx="22.6" cy="617.8" r="304.8"/>
	<g display="inline">
		<path fill="#FFFFFF" d="M-221.2,662.1l16.6-23.5c9.7,9.7,24.9,19.4,44.3,19.4c16.6,0,23.5-6.9,23.5-15.2
			c0-23.5-80.3-6.9-80.3-59.6c0-23.5,19.4-41.6,52.6-41.6c22.2,0,40.2,6.9,54,19.4l-16.6,22.2c-11.1-11.1-26.3-15.2-40.2-15.2
			c-12.5,0-19.4,5.5-19.4,13.9c0,22.2,79,6.9,79,58.2c0,24.9-18,44.3-55.4,44.3C-189.3,684.3-208.7,676-221.2,662.1z"/>
		<path fill="#FFFFFF" d="M-27.3,681.5v-11.1c-6.9,8.3-19.4,12.5-31.9,12.5c-16.6,0-34.6-11.1-34.6-33.2c0-23.5,19.4-31.9,34.6-31.9
			c13.9,0,24.9,4.2,31.9,12.5v-11.1c0-9.7-8.3-16.6-22.2-16.6c-11.1,0-20.8,4.2-29.1,12.5l-11.1-18c12.5-11.1,27.7-15.2,44.3-15.2
			c23.5,0,44.3,9.7,44.3,37.4v65.1L-27.3,681.5L-27.3,681.5z M-27.3,658v-12.5c-4.2-5.5-12.5-8.3-20.8-8.3
			c-11.1,0-19.4,5.5-19.4,15.2s8.3,15.2,19.4,15.2C-39.7,666.3-31.4,663.5-27.3,658z"/>
		<path fill="#FFFFFF" d="M15.7,669.1l11.1-19.4c6.9,6.9,22.2,13.9,34.6,13.9c11.1,0,16.6-4.2,16.6-11.1c0-16.6-59.6-2.8-59.6-42.9
			c0-16.6,13.9-31.9,41.6-31.9c16.6,0,30.5,5.5,40.2,13.9l-11.1,19.4c-5.5-5.5-18-11.1-29.1-11.1c-9.7,0-15.2,4.2-15.2,9.7
			c0,15.2,59.6,2.8,59.6,42.9c0,18-15.2,31.9-42.9,31.9C43.4,684.3,26.8,678.8,15.7,669.1z"/>
		<path fill="#FFFFFF" d="M115.4,669.1l11.1-19.4c6.9,6.9,22.2,13.9,34.6,13.9c11.1,0,16.6-4.2,16.6-11.1c0-16.6-59.6-2.8-59.6-42.9
			c0-16.6,15.2-31.9,41.6-31.9c16.6,0,30.5,5.5,40.2,13.9l-11.1,19.4c-5.5-5.5-18-11.1-29.1-11.1c-9.7,0-15.2,4.2-15.2,9.7
			c0,15.2,59.6,2.8,59.6,42.9c0,18-15.2,31.9-42.9,31.9C143.1,684.3,126.5,678.8,115.4,669.1z"/>
		<path fill="#FFFFFF" d="M219.3,667.7c0-9.7,8.3-16.6,16.6-16.6c9.7,0,16.6,8.3,16.6,16.6c0,9.7-8.3,16.6-16.6,16.6
			C227.6,684.3,219.3,677.4,219.3,667.7z"/>
	</g>
</g>
<g display="none">
	<circle display="inline" fill="#A0D2E7" cx="22.6" cy="617.8" r="304.8"/>
	<g display="inline">
		<path fill="none" stroke="#FFFFFF" stroke-width="2" stroke-miterlimit="10" d="M-25.9,599.8c0,0,31.9-23.5,55.4-23.5
			s52.6,23.5,52.6,23.5"/>
		<circle fill="none" stroke="#FFFFFF" stroke-width="2" stroke-miterlimit="10" cx="-103.4" cy="612.3" r="77.6"/>
		<circle fill="none" stroke="#FFFFFF" stroke-width="2" stroke-miterlimit="10" cx="159.8" cy="612.3" r="77.6"/>
	</g>
</g>
<g display="none">
	<circle display="inline" fill="#A0D2E7" cx="22.6" cy="617.8" r="304.8"/>
	<g display="inline">
		<g>
			<line fill="none" stroke="#FFFFFF" stroke-width="2" stroke-miterlimit="10" x1="-118.7" y1="714.8" x2="209.6" y2="714.8"/>
			<path fill="none" stroke="#FFFFFF" stroke-width="2" stroke-miterlimit="10" d="M184.7,652.4c0,11.1-9.7,19.4-20.8,19.4H-74.4
				c-11.1,0-20.8-8.3-20.8-19.4V491.7c0-11.1,9.7-19.4,20.8-19.4h238.3c11.1,0,20.8,8.3,20.8,19.4
				C184.7,490.4,184.7,652.4,184.7,652.4z"/>
		</g>
		<g>
			<path fill="#A0D2E7" stroke="#FFFFFF" stroke-width="2" stroke-miterlimit="10" d="M-48,753.6c0,5.5-4.2,11.1-9.7,11.1h-94.2
				c-5.5,0-9.7-4.2-9.7-11.1V619.2c0-5.5,4.2-9.7,9.7-9.7h94.2c5.5,0,9.7,4.2,9.7,9.7V753.6z"/>
		</g>
	</g>
</g>
<g display="none">
	<circle display="inline" fill="#A0D2E7" cx="22.6" cy="617.8" r="304.8"/>
	<g display="inline">
		<path fill="#FFFFFF" stroke="#FFFFFF" stroke-width="0.75" stroke-miterlimit="10" d="M-149.2,662.1l-67.9,9.7l-2.8-15.2l67.9-9.7
			L-149.2,662.1z"/>
		<path fill="#FFFFFF" stroke="#FFFFFF" stroke-width="0.75" stroke-miterlimit="10" d="M-145,580.4l-65.1-22.2l5.5-15.2l65.1,22.2
			L-145,580.4z"/>
		<path fill="#FFFFFF" stroke="#FFFFFF" stroke-width="0.75" stroke-miterlimit="10" d="M-104.8,509.7l-48.5-48.5l11.1-11.1
			l48.5,48.5L-104.8,509.7z"/>
		<path fill="#FFFFFF" stroke="#FFFFFF" stroke-width="0.75" stroke-miterlimit="10" d="M-38.3,465.4l-20.8-65.1l15.2-4.2l20.8,65.1
			L-38.3,465.4z"/>
		<path fill="#FFFFFF" stroke="#FFFFFF" stroke-width="0.75" stroke-miterlimit="10" d="M42,455.7l11.1-67.9l15.2,2.8l-11.1,67.9
			L42,455.7z"/>
		<path fill="#FFFFFF" stroke="#FFFFFF" stroke-width="0.75" stroke-miterlimit="10" d="M118.2,482l40.2-55.4l12.5,9.7l-40.2,55.4
			L118.2,482z"/>
		<path fill="#FFFFFF" stroke="#FFFFFF" stroke-width="0.75" stroke-miterlimit="10" d="M175,541.6l61-31.9l6.9,13.9l-61,31.9
			L175,541.6z"/>
		<path fill="#FFFFFF" stroke="#FFFFFF" stroke-width="0.75" stroke-miterlimit="10" d="M197.2,619.2l67.9-1.4V633l-67.9,1.4V619.2z
			"/>
	</g>
	
		<line display="inline" fill="none" stroke="#FFFFFF" stroke-width="2" stroke-miterlimit="10" x1="-56.3" y1="710.6" x2="260.9" y2="566.5"/>
	
		<circle display="inline" fill="#A0D2E7" stroke="#FFFFFF" stroke-width="2" stroke-miterlimit="10" cx="21.2" cy="666.3" r="47.1"/>
</g>
<g display="none">
	<circle display="inline" fill="#A0D2E7" cx="22.6" cy="617.8" r="304.8"/>
	<g display="inline">
		<g>
			<rect x="-89.6" y="725.9" fill="#FFFFFF" width="224.4" height="37.4"/>
			<rect x="-89.6" y="641.4" fill="#FFFFFF" width="224.4" height="37.4"/>
			<rect x="-89.6" y="555.5" fill="#FFFFFF" width="224.4" height="37.4"/>
			<rect x="-89.6" y="471" fill="#FFFFFF" width="224.4" height="37.4"/>
		</g>
		<g>
			<line fill="none" stroke="#FFFFFF" stroke-width="2" stroke-miterlimit="10" x1="-45.3" y1="807.6" x2="-45.3" y2="426.6"/>
			<line fill="none" stroke="#FFFFFF" stroke-width="2" stroke-miterlimit="10" x1="90.5" y1="807.6" x2="90.5" y2="426.6"/>
		</g>
	</g>
</g>
<g display="none">
	<circle display="inline" fill="#A0D2E7" cx="22.6" cy="617.8" r="304.8"/>
	<g display="inline">
		<polyline fill="none" stroke="#FFFFFF" stroke-width="2" stroke-miterlimit="10" points="-93.7,806.2 -93.7,681.5 24,605.3 
			140.4,681.5 140.4,806.2 		"/>
		<path fill="#A0D2E7" stroke="#FFFFFF" stroke-width="2" stroke-miterlimit="10" d="M100.2,739.7H-53.6c0,0-15.2-311.7,77.6-311.7
			C115.4,428,100.2,739.7,100.2,739.7z"/>
		<rect x="4.6" y="681.5" fill="#FFFFFF" width="37.4" height="124.7"/>
		<circle fill="#FFFFFF" cx="22.6" cy="526.4" r="23.5"/>
	</g>
</g>
<g display="none">
	<circle display="inline" fill="#A0D2E7" cx="22.6" cy="617.8" r="304.8"/>
	<path display="inline" fill="#FFFFFF" d="M-7.9,411.4c0,20.8,1.4,40.2,1.4,61c0,8.3,9.7,16.6,18,16.6c6.9,0,13.9-1.4,19.4,0
		c5.5,0,9.7-1.4,13.9-5.5c4.2-4.2,5.5-8.3,5.5-15.2c-1.4-19.4-1.4-37.4-2.8-58.2c11.1,4.2,20.8,9.7,27.7,18
		c34.6,34.6,29.1,90-11.1,117.7c-2.8,2.8-4.2,4.2-4.2,8.3c1.4,54,4.2,178.7,5.5,232.7c0,15.2-5.5,27.7-18,36
		c-22.2,12.5-49.9,0-54-24.9c0-2.8,0-76.2-1.4-79c-1.4-52.6-4.2-106.7-5.5-159.3c0-5.5-1.4-8.3-6.9-11.1
		c-24.9-16.6-37.4-40.2-36-70.6c1.4-29.1,16.6-49.9,42.9-63.7C-9.2,411.4-9.2,411.4-7.9,411.4z M18.5,771.6
		c-6.9,6.9-5.5,18,1.4,24.9c6.9,6.9,19.4,5.5,24.9-1.4c6.9-6.9,5.5-19.4-1.4-24.9C36.5,764.6,24,764.6,18.5,771.6z"/>
</g>
<path fill="#A0D2E7" d="M568,299.1c-11.6,0-20.9,9.4-20.9,20.9s9.4,20.9,20.9,20.9c11.6,0,20.9-9.4,20.9-20.9S579.6,299.1,568,299.1
	z M564.9,322.9c0,3.7-2.3,5.4-5.4,5.4c-1.7,0-3.1-0.5-4.3-1.7l1.3-2.1c0.6,0.7,1.5,1.3,2.7,1.3c1.7,0,2.8-1.2,2.8-2.9V312h2.8V322.9
	z M573.9,328.3c-3,0-5.1-1.1-6.5-2.6l1.6-2.2c1.1,1.2,2.8,2.2,5.1,2.2c2.3,0,3.2-1.1,3.2-2.2c0-3.4-9.3-1.3-9.3-7.2
	c0-2.7,2.3-4.7,5.9-4.7c2.5,0,4.5,0.8,6,2.3l-1.6,2.1c-1.3-1.3-3-1.9-4.7-1.9c-1.6,0-2.7,0.8-2.7,2c0,3,9.3,1.2,9.3,7.1
	C580.1,326,578.2,328.3,573.9,328.3z"/>
</svg>
