<?xml version="1.0" encoding="utf-8"?>
<!-- Generator: Adobe Illustrator 19.1.0, SVG Export Plug-In . SVG Version: 6.00 Build 0)  -->
<svg version="1.0" id="Layer_1" xmlns="http://www.w3.org/2000/svg" xmlns:xlink="http://www.w3.org/1999/xlink" x="0px" y="0px"
	 viewBox="-476 477.8 46.2 46.2" style="enable-background:new -476 477.8 46.2 46.2;" xml:space="preserve">
<style type="text/css">
	.st0{fill:#A0D2E7;}
	.st1{fill:#FFFFFF;}
</style>
<g>
	<circle class="st0" cx="-452.9" cy="500.9" r="22"/>
	<path id="globe-3-icon" class="st1" d="M-438.5,500.9c0-8.1-6.5-14.3-14.3-14.3s-14.3,6.2-14.3,14.3c0,8.2,6.6,14.3,14.3,14.3
		S-438.5,509-438.5,500.9z M-459.7,495.6c-0.3,1.3-0.4,2.7-0.5,4.2h-4.1c0.2-1.9,0.8-3.7,1.9-5.2
		C-461.5,495-460.6,495.3-459.7,495.6z M-460.1,502c0.1,1.5,0.2,2.9,0.5,4.2c-1,0.3-1.9,0.6-2.8,1.1c-1-1.5-1.7-3.3-1.9-5.3
		L-460.1,502L-460.1,502z M-459,508.3c0.3,1,0.8,2,1.3,3c-1.2-0.6-2.3-1.3-3.3-2.3C-460.4,508.7-459.7,508.5-459,508.3z
		 M-451.8,505.3V502h4c-0.1,1.3-0.2,2.5-0.5,3.7C-449.3,505.4-450.5,505.3-451.8,505.3z M-448.8,507.8c-0.5,1.5-1.5,3.5-3,4.3v-4.6
		C-450.7,507.5-449.8,507.6-448.8,507.8z M-451.8,499.8v-3.3c1.2,0,2.4-0.2,3.6-0.4c0.2,1.2,0.4,2.4,0.4,3.7L-451.8,499.8
		L-451.8,499.8z M-451.8,494.3v-4.8c1.5,0.8,2.5,2.9,3,4.5C-449.7,494.2-450.7,494.3-451.8,494.3z M-454,489.5v4.8c-1,0-2-0.2-3-0.3
		C-456.4,492.4-455.4,490.3-454,489.5z M-454,496.5v3.3h-4c0.1-1.3,0.2-2.5,0.4-3.7C-456.4,496.3-455.2,496.5-454,496.5z
		 M-457.5,505.7c-0.2-1.2-0.4-2.4-0.5-3.7h4v3.3C-455.2,505.3-456.4,505.4-457.5,505.7z M-454,507.5v4.6c-1.4-0.8-2.4-2.8-2.9-4.3
		C-456,507.6-455,507.5-454,507.5z M-446.7,508.3c0.7,0.2,1.3,0.4,1.9,0.7c-0.9,0.9-2,1.7-3.2,2.3
		C-447.4,510.3-447,509.3-446.7,508.3z M-446.1,506.2c0.3-1.3,0.5-2.7,0.5-4.2h4.1c-0.2,1.9-0.8,3.7-1.9,5.3
		C-444.2,506.8-445.1,506.4-446.1,506.2z M-443.3,494.5c1,1.5,1.7,3.3,1.9,5.2h-4.1c-0.1-1.4-0.2-2.8-0.5-4.2
		C-445.1,495.3-444.2,495-443.3,494.5z M-444.7,492.8c-0.6,0.3-1.2,0.5-1.9,0.7c-0.3-1-0.7-2-1.3-2.9
		C-446.7,491.1-445.6,491.9-444.7,492.8z M-457.8,490.5c-0.5,0.9-1,1.9-1.3,2.9c-0.7-0.2-1.3-0.4-1.9-0.7
		C-460.1,491.9-459,491.1-457.8,490.5z"/>
</g>
</svg>
