<?xml version="1.0" encoding="utf-8"?>
<!-- Generator: Adobe Illustrator 17.0.0, SVG Export Plug-In . SVG Version: 6.00 Build 0)  -->
<!DOCTYPE svg PUBLIC "-//W3C//DTD SVG 1.1//EN" "http://www.w3.org/Graphics/SVG/1.1/DTD/svg11.dtd">
<svg version="1.1" id="Layer_1" xmlns="http://www.w3.org/2000/svg" xmlns:xlink="http://www.w3.org/1999/xlink" x="0px" y="0px"
	 width="253px" height="253px" viewBox="0 0 253 253" enable-background="new 0 0 253 253" xml:space="preserve">
<g>
	<circle fill="#074E68" cx="126.053" cy="125.908" r="126"/>
	<g opacity="0.5" enable-background="new    ">
		<g>
			<defs>
				<circle id="SVGID_1_" cx="125.656" cy="125.636" r="126"/>
			</defs>
			<clipPath id="SVGID_2_">
				<use xlink:href="#SVGID_1_"  overflow="visible"/>
			</clipPath>
			<g clip-path="url(#SVGID_2_)">
				<g>
					
						<line fill="none" stroke="#FFFFFF" stroke-width="0.5" stroke-miterlimit="10" x1="219.855" y1="344.215" x2="219.855" y2="-78.346"/>
					
						<line fill="none" stroke="#FFFFFF" stroke-width="0.5" stroke-miterlimit="10" x1="202.764" y1="344.215" x2="202.764" y2="-78.346"/>
					
						<line fill="none" stroke="#FFFFFF" stroke-width="0.5" stroke-miterlimit="10" x1="236.946" y1="343.789" x2="236.946" y2="-78.771"/>
					
						<line fill="none" stroke="#FFFFFF" stroke-width="0.5" stroke-miterlimit="10" x1="254.037" y1="344.215" x2="254.037" y2="-78.346"/>
					
						<line fill="none" stroke="#FFFFFF" stroke-width="0.5" stroke-miterlimit="10" x1="151.491" y1="344.215" x2="151.491" y2="-78.346"/>
					
						<line fill="none" stroke="#FFFFFF" stroke-width="0.5" stroke-miterlimit="10" x1="134.4" y1="344.215" x2="134.4" y2="-78.346"/>
					
						<line fill="none" stroke="#FFFFFF" stroke-width="0.5" stroke-miterlimit="10" x1="168.582" y1="343.789" x2="168.582" y2="-78.771"/>
					
						<line fill="none" stroke="#FFFFFF" stroke-width="0.5" stroke-miterlimit="10" x1="185.673" y1="344.215" x2="185.673" y2="-78.346"/>
					
						<line fill="none" stroke="#FFFFFF" stroke-width="0.5" stroke-miterlimit="10" x1="83.485" y1="344.428" x2="83.485" y2="-78.133"/>
					
						<line fill="none" stroke="#FFFFFF" stroke-width="0.5" stroke-miterlimit="10" x1="66.394" y1="344.428" x2="66.394" y2="-78.133"/>
					
						<line fill="none" stroke="#FFFFFF" stroke-width="0.5" stroke-miterlimit="10" x1="100.576" y1="344.002" x2="100.576" y2="-78.558"/>
					
						<line fill="none" stroke="#FFFFFF" stroke-width="0.5" stroke-miterlimit="10" x1="117.667" y1="344.428" x2="117.667" y2="-78.133"/>
					
						<line fill="none" stroke="#FFFFFF" stroke-width="0.5" stroke-miterlimit="10" x1="15.121" y1="344.428" x2="15.121" y2="-78.133"/>
					
						<line fill="none" stroke="#FFFFFF" stroke-width="0.5" stroke-miterlimit="10" x1="-1.97" y1="344.428" x2="-1.97" y2="-78.133"/>
					
						<line fill="none" stroke="#FFFFFF" stroke-width="0.5" stroke-miterlimit="10" x1="32.212" y1="344.002" x2="32.212" y2="-78.558"/>
					
						<line fill="none" stroke="#FFFFFF" stroke-width="0.5" stroke-miterlimit="10" x1="49.303" y1="344.428" x2="49.303" y2="-78.133"/>
				</g>
				<g>
					
						<line fill="none" stroke="#FFFFFF" stroke-width="0.5" stroke-miterlimit="10" x1="-76.987" y1="219.349" x2="345.574" y2="219.349"/>
					
						<line fill="none" stroke="#FFFFFF" stroke-width="0.5" stroke-miterlimit="10" x1="-76.987" y1="202.258" x2="345.574" y2="202.258"/>
					
						<line fill="none" stroke="#FFFFFF" stroke-width="0.5" stroke-miterlimit="10" x1="-76.561" y1="236.44" x2="346" y2="236.44"/>
					
						<line fill="none" stroke="#FFFFFF" stroke-width="0.5" stroke-miterlimit="10" x1="-76.987" y1="253.531" x2="345.574" y2="253.531"/>
					
						<line fill="none" stroke="#FFFFFF" stroke-width="0.5" stroke-miterlimit="10" x1="-76.987" y1="150.985" x2="345.574" y2="150.985"/>
					
						<line fill="none" stroke="#FFFFFF" stroke-width="0.5" stroke-miterlimit="10" x1="-76.987" y1="133.894" x2="345.574" y2="133.894"/>
					
						<line fill="none" stroke="#FFFFFF" stroke-width="0.5" stroke-miterlimit="10" x1="-76.561" y1="168.076" x2="346" y2="168.076"/>
					
						<line fill="none" stroke="#FFFFFF" stroke-width="0.5" stroke-miterlimit="10" x1="-76.987" y1="185.167" x2="345.574" y2="185.167"/>
					
						<line fill="none" stroke="#FFFFFF" stroke-width="0.5" stroke-miterlimit="10" x1="-77.2" y1="82.979" x2="345.361" y2="82.979"/>
					
						<line fill="none" stroke="#FFFFFF" stroke-width="0.5" stroke-miterlimit="10" x1="-77.2" y1="65.888" x2="345.361" y2="65.888"/>
					
						<line fill="none" stroke="#FFFFFF" stroke-width="0.5" stroke-miterlimit="10" x1="-76.774" y1="100.07" x2="345.787" y2="100.07"/>
					
						<line fill="none" stroke="#FFFFFF" stroke-width="0.5" stroke-miterlimit="10" x1="-77.2" y1="117.161" x2="345.361" y2="117.161"/>
					
						<line fill="none" stroke="#FFFFFF" stroke-width="0.5" stroke-miterlimit="10" x1="-77.2" y1="14.615" x2="345.361" y2="14.615"/>
					
						<line fill="none" stroke="#FFFFFF" stroke-width="0.5" stroke-miterlimit="10" x1="-77.2" y1="-2.476" x2="345.361" y2="-2.476"/>
					
						<line fill="none" stroke="#FFFFFF" stroke-width="0.5" stroke-miterlimit="10" x1="-76.774" y1="31.706" x2="345.787" y2="31.706"/>
					
						<line fill="none" stroke="#FFFFFF" stroke-width="0.5" stroke-miterlimit="10" x1="-77.2" y1="48.797" x2="345.361" y2="48.797"/>
				</g>
			</g>
		</g>
	</g>
</g>
<path fill="none" stroke="#FFFFFF" stroke-width="3" stroke-miterlimit="10" d="M-162.53-246.951"/>
<g>
	
		<rect x="70.454" y="88.989" fill="none" stroke="#FFFFFF" stroke-width="3" stroke-miterlimit="10" width="109.95" height="85.087"/>
	
		<rect x="77.26" y="95.994" fill="none" stroke="#FFFFFF" stroke-width="3" stroke-miterlimit="10" width="96.338" height="71.076"/>
</g>
<rect x="107.196" y="122.959" fill="#FFFFFF" width="17.185" height="3.011"/>
<polyline fill="none" stroke="#FFFFFF" stroke-width="3" stroke-miterlimit="10" points="90.381,107.72 102.207,116.513 
	90.381,125.305 "/>
<g>
	<line fill="none" stroke="#FFFFFF" stroke-miterlimit="10" x1="191.5" y1="174.118" x2="191.5" y2="88.961"/>
	<polygon fill="#FFFFFF" points="191.5,175.576 188.583,172.659 194.417,172.659 	"/>
	<polygon fill="#FFFFFF" points="191.5,87.961 194.417,90.878 188.583,90.878 	"/>
</g>
<g>
	<line fill="none" stroke="#FFFFFF" stroke-miterlimit="10" x1="71.912" y1="185.583" x2="178.946" y2="185.583"/>
	<polygon fill="#FFFFFF" points="70.454,185.583 73.371,182.666 73.371,188.5 	"/>
	<polygon fill="#FFFFFF" points="181.863,185.583 178.946,188.5 178.946,182.666 	"/>
</g>
</svg>
