<?xml version="1.0" encoding="utf-8"?>
<!-- Generator: Adobe Illustrator 19.1.0, SVG Export Plug-In . SVG Version: 6.00 Build 0)  -->
<svg version="1.1" id="Layer_1" xmlns="http://www.w3.org/2000/svg" xmlns:xlink="http://www.w3.org/1999/xlink" x="0px" y="0px"
	 width="270px" height="270px" viewBox="0 0 270 270" style="enable-background:new 0 0 270 270;" xml:space="preserve">
<style type="text/css">
	.st0{opacity:0.16;}
	.st1{fill:none;stroke:#26373E;stroke-width:0.6425;stroke-miterlimit:10;}
	.st2{fill:#4F5764;}
	.st3{fill:url(#SVGID_1_);}
	.st4{fill:url(#SVGID_2_);}
	.st5{fill:url(#SVGID_3_);}
	.st6{fill:#FFFFFF;}
</style>
<g class="st0">
	<polyline class="st1" points="220.7,238 242.8,74 7.1,66.4 217.1,237.9 32.8,208.9 125.3,10.5 260.7,114.5 71.5,250.6 221.3,33.8 	
		"/>
	<polyline class="st1" points="32.8,208.9 7.1,66.4 125.3,10.5 221.3,33.8 242.8,74 	"/>
	<g>
		<circle class="st2" cx="32.8" cy="208.9" r="5.1"/>
		<circle class="st2" cx="7.1" cy="66.4" r="5.1"/>
		<circle class="st2" cx="125.3" cy="10.5" r="5.8"/>
		<circle class="st2" cx="242.8" cy="74" r="5.1"/>
		<circle class="st2" cx="221.3" cy="33.8" r="4.2"/>
		<circle class="st2" cx="260.7" cy="114.5" r="4.8"/>
		<circle class="st2" cx="71.5" cy="250.6" r="5.9"/>
		<circle class="st2" cx="217.1" cy="237.9" r="6.7"/>
	</g>
</g>
<g>
	<g>
		<linearGradient id="SVGID_1_" gradientUnits="userSpaceOnUse" x1="79.0194" y1="100.1606" x2="189.5554" y2="186.4657">
			<stop  offset="0" style="stop-color:#4F5764"/>
			<stop  offset="0.6682" style="stop-color:#293942"/>
			<stop  offset="1" style="stop-color:#111C21"/>
		</linearGradient>
		<rect x="80.4" y="102" class="st3" width="109.2" height="83.6"/>
		<linearGradient id="SVGID_2_" gradientUnits="userSpaceOnUse" x1="90.9672" y1="175.8789" x2="180.8117" y2="110.5375">
			<stop  offset="0" style="stop-color:#3D96D2"/>
			<stop  offset="1" style="stop-color:#069FB0"/>
		</linearGradient>
		<rect x="89.8" y="111.4" class="st4" width="90.5" height="65"/>
		<g>
			<linearGradient id="SVGID_3_" gradientUnits="userSpaceOnUse" x1="80.4064" y1="94.1788" x2="189.5744" y2="94.1788">
				<stop  offset="0" style="stop-color:#D0D1D3"/>
				<stop  offset="1" style="stop-color:#CDD2D1"/>
			</linearGradient>
			<rect x="80.4" y="86.3" class="st5" width="109.2" height="15.7"/>
			<circle class="st6" cx="90.2" cy="94.2" r="2.9"/>
			<circle class="st6" cx="99.6" cy="94.2" r="2.9"/>
			<circle class="st6" cx="109" cy="94.2" r="2.9"/>
		</g>
	</g>
	<g>
		<path class="st6" d="M101.8,146.2v-4.4l21.2-9.4v4.5l-16.8,7.2l16.8,7.1v4.5L101.8,146.2z"/>
		<path class="st6" d="M126.1,164l13.1-40.1h4.4L130.5,164H126.1z"/>
		<path class="st6" d="M147,155.7v-4.5l16.8-7.1l-16.8-7.2v-4.5l21.2,9.4v4.4L147,155.7z"/>
	</g>
</g>
</svg>
