<?xml version="1.0" encoding="utf-8"?>
<!-- Generator: Adobe Illustrator 17.0.0, SVG Export Plug-In . SVG Version: 6.00 Build 0)  -->
<!DOCTYPE svg PUBLIC "-//W3C//DTD SVG 1.1//EN" "http://www.w3.org/Graphics/SVG/1.1/DTD/svg11.dtd">
<svg version="1.1" id="Layer_1" xmlns="http://www.w3.org/2000/svg" xmlns:xlink="http://www.w3.org/1999/xlink" x="0px" y="0px"
	 width="253px" height="253px" viewBox="-69 -69 253 253" enable-background="new -69 -69 253 253" xml:space="preserve">
<g display="none">
	<g display="inline">
		<g>
			<circle opacity="0.5" fill="#738083" enable-background="new    " cx="57.7" cy="56.771" r="55.881"/>
			<circle fill="#0B5068" stroke="#098CBA" stroke-width="3" stroke-miterlimit="10" cx="57.924" cy="54.738" r="52.832"/>
			<circle fill="#FFFFFF" stroke="#098CBA" stroke-width="2" stroke-miterlimit="10" cx="57.924" cy="54.738" r="34.104"/>
			<g>
				<path fill="#FEFFFF" d="M15.445,56.515l2.652-1.093l-1.507,2.449l1.853,2.187l-2.783-0.676l-1.518,2.439l-0.213-2.867
					l-2.795-0.677l2.662-1.093l-0.214-2.868L15.445,56.515z"/>
				<path fill="#FEFFFF" d="M14.833,49.455c-2.002-0.392-3.058-2.162-2.676-4.115c0.278-1.418,1.207-2.094,2.113-2.391l0.351,1.3
					c-0.578,0.169-1.11,0.67-1.24,1.331c-0.232,1.185,0.504,2.217,1.729,2.457c1.224,0.24,2.295-0.439,2.527-1.624
					c0.13-0.661-0.174-1.325-0.645-1.7l0.805-1.073c0.717,0.614,1.342,1.593,1.064,3.012C18.48,48.605,16.825,49.845,14.833,49.455z
					"/>
				<path fill="#FEFFFF" d="M16.463,41.764c-1.846-0.745-2.624-2.629-1.875-4.485c0.745-1.846,2.612-2.663,4.459-1.918
					c1.846,0.745,2.624,2.629,1.879,4.476C20.176,41.692,18.309,42.509,16.463,41.764z M18.505,36.703
					c-1.148-0.464-2.305-0.086-2.761,1.043c-0.459,1.139,0.111,2.214,1.259,2.677c1.139,0.46,2.304,0.086,2.764-1.053
					C20.224,38.24,19.644,37.163,18.505,36.703z"/>
				<path fill="#FEFFFF" d="M24.843,32.228l-2.679-0.172l-0.555,0.869l1.979,1.266l-0.758,1.186l-5.57-3.563l1.666-2.606
					c0.742-1.161,1.962-1.393,2.997-0.731c0.977,0.625,1.112,1.593,0.869,2.286l2.928,0.095L24.843,32.228z M21.135,29.69
					c-0.459-0.293-0.973-0.116-1.272,0.352l-0.802,1.252l1.504,0.962l0.801-1.252C21.666,30.536,21.611,29.995,21.135,29.69z"/>
				<path fill="#FEFFFF" d="M26.633,29.728l-4.892-4.446l2.08-2.288c0.966-1.064,2.212-0.99,3.07-0.21
					c0.851,0.772,1.037,2.013,0.077,3.069L25.833,27.1l1.746,1.587L26.633,29.728z M25.923,23.846
					c-0.411-0.373-0.947-0.284-1.32,0.126l-1,1.1l1.314,1.194l0.999-1.1C26.29,24.756,26.327,24.214,25.923,23.846z"/>
				<path fill="#FEFFFF" d="M28.92,22.445c-1.207-1.584-0.913-3.6,0.679-4.812c1.583-1.207,3.605-0.955,4.812,0.629
					c1.207,1.583,0.913,3.599-0.67,4.807C32.149,24.28,30.126,24.028,28.92,22.445z M33.262,19.138
					c-0.751-0.986-1.937-1.251-2.906-0.513c-0.977,0.744-1.035,1.959-0.285,2.944c0.744,0.978,1.937,1.251,2.914,0.507
					C33.953,21.337,34.005,20.114,33.262,19.138z"/>
				<path fill="#FEFFFF" d="M40.98,18.522l-2.216-1.513l-0.921,0.463L38.9,19.57l-1.257,0.633L34.668,14.3l2.762-1.392
					c1.23-0.62,2.397-0.199,2.95,0.899c0.522,1.036,0.145,1.937-0.417,2.409l2.469,1.574L40.98,18.522z M39.084,14.45
					c-0.245-0.487-0.778-0.596-1.273-0.345l-1.327,0.669l0.803,1.593l1.327-0.67C39.109,15.447,39.338,14.955,39.084,14.45z"/>
				<path fill="#FEFFFF" d="M48.191,15.948l-0.719-0.954l-2.714,0.811l-0.079,1.191l-1.528,0.457l0.549-7.059l1.69-0.504
					l4.329,5.603L48.191,15.948z M44.947,11.489l-0.173,3.018l1.974-0.589L44.947,11.489z"/>
				<path fill="#FEFFFF" d="M51.679,15.285l-0.733-5.313l-1.912,0.263L48.865,9.01l5.216-0.72l0.169,1.225l-1.902,0.263l0.733,5.313
					L51.679,15.285z"/>
				<path fill="#FEFFFF" d="M56.364,14.777l0.114-6.606l4.675,0.081L61.131,9.49l-3.268-0.057l-0.024,1.387l3.199,0.055
					l-0.021,1.238l-3.199-0.055l-0.026,1.505l3.269,0.057l-0.021,1.238L56.364,14.777z"/>
				<path fill="#FEFFFF" d="M65.522,14.503l1.024-0.869c0.328,0.586,0.924,1.171,1.806,1.399c0.758,0.197,1.2-0.047,1.296-0.421
					c0.289-1.112-3.594-1.291-2.969-3.697c0.276-1.065,1.425-1.708,2.931-1.317c1.017,0.264,1.78,0.789,2.261,1.538l-1.021,0.82
					c-0.393-0.614-1.027-1.013-1.678-1.183c-0.575-0.149-0.966,0.015-1.065,0.4c-0.261,1.006,3.587,1.278,2.968,3.666
					c-0.304,1.17-1.376,1.833-3.092,1.387C66.744,15.905,65.97,15.265,65.522,14.503z"/>
				<path fill="#FEFFFF" d="M73.006,14.821l1.656-3.6l1.296,0.596l-1.638,3.565c-0.386,0.837-0.164,1.637,0.763,2.063
					s1.669,0.069,2.054-0.768l1.638-3.565l1.305,0.601l-1.655,3.6c-0.683,1.485-2.037,2.105-3.864,1.265
					C72.733,17.738,72.322,16.307,73.006,14.821z"/>
				<path fill="#FEFFFF" d="M78.793,20.625l3.796-5.408l2.53,1.775c1.176,0.825,1.259,2.07,0.593,3.019
					c-0.66,0.94-1.867,1.28-3.034,0.459L81.3,19.503l-1.354,1.93L78.793,20.625z M84.536,19.184c0.318-0.454,0.163-0.974-0.29-1.292
					l-1.217-0.854L82.01,18.49l1.217,0.853C83.681,19.662,84.223,19.631,84.536,19.184z"/>
				<path fill="#FEFFFF" d="M84.171,24.582l4.639-4.707l2.202,2.17c1.023,1.008,0.899,2.249,0.085,3.075
					c-0.807,0.819-2.053,0.954-3.069-0.047l-1.201-1.182l-1.655,1.679L84.171,24.582z M90.074,24.111
					c0.39-0.395,0.322-0.934-0.074-1.324l-1.058-1.043l-1.245,1.263l1.059,1.044C89.152,24.441,89.691,24.5,90.074,24.111z"/>
				<path fill="#FEFFFF" d="M91.336,27.136c1.63-1.143,3.634-0.771,4.784,0.867c1.144,1.629,0.813,3.641-0.817,4.785
					c-1.63,1.144-3.634,0.771-4.778-0.858C89.376,30.292,89.707,28.28,91.336,27.136z M94.471,31.604
					c1.014-0.712,1.327-1.887,0.626-2.884c-0.706-1.006-1.918-1.112-2.931-0.4c-1.005,0.706-1.326,1.887-0.62,2.893
					C92.246,32.21,93.467,32.31,94.471,31.604z"/>
				<path fill="#FEFFFF" d="M94.777,39.364l1.602-2.152l-0.426-0.938l-2.137,0.97l-0.582-1.281l6.017-2.729l1.277,2.814
					c0.568,1.253,0.1,2.402-1.018,2.91c-1.056,0.479-1.94,0.063-2.388-0.516l-1.674,2.4L94.777,39.364z M98.921,37.636
					c0.496-0.225,0.627-0.751,0.398-1.257l-0.614-1.352l-1.624,0.736l0.613,1.353C97.924,37.621,98.407,37.871,98.921,37.636z"/>
				<path fill="#FEFFFF" d="M96.27,43.646l5.186-1.4l-0.504-1.866l1.195-0.323l1.375,5.09l-1.196,0.323l-0.501-1.856l-5.186,1.4
					L96.27,43.646z"/>
				<path fill="#FEFFFF" d="M100.324,55.828l-2.717,0.916l1.664-2.343l-1.706-2.304l2.733,0.858l1.674-2.334l0.026,2.874
					l2.742,0.858l-2.726,0.915l0.025,2.874L100.324,55.828z"/>
			</g>
			<circle fill="#095069" cx="57.924" cy="54.738" r="30.677"/>
		</g>
		<g opacity="0.4" enable-background="new    ">
			<g>
				<defs>
					<circle id="SVGID_1_" cx="57.924" cy="54.396" r="30.677"/>
				</defs>
				<clipPath id="SVGID_2_">
					<use xlink:href="#SVGID_1_"  overflow="visible"/>
				</clipPath>
				<g clip-path="url(#SVGID_2_)">
					
						<ellipse transform="matrix(0.5568 -0.8307 0.8307 0.5568 -104.13 58.7706)" fill="#E9F7FE" cx="3.007" cy="126.962" rx="71.178" ry="63.471"/>
					
						<ellipse transform="matrix(0.5568 -0.8307 0.8307 0.5568 -104.6349 63.7906)" fill="#CBE6F1" cx="7.459" cy="129.945" rx="71.178" ry="63.471"/>
					
						<ellipse transform="matrix(0.5568 -0.8307 0.8307 0.5568 -105.4044 71.4245)" fill="#A0D2E7" cx="14.227" cy="134.483" rx="71.178" ry="63.471"/>
					
						<ellipse transform="matrix(0.5568 -0.8307 0.8307 0.5568 -106.2985 80.3082)" fill="#098DBA" cx="22.105" cy="139.763" rx="71.178" ry="63.471"/>
				</g>
			</g>
		</g>
		<path fill="#098DBA" d="M63.119,97.015c0.314-0.37,0.472-0.796,0.472-1.282c0-0.582-0.231-1.081-0.692-1.498
			c-0.461-0.418-1.018-0.629-1.672-0.629h-8.895c-0.295,0.066-0.517,0.324-0.522,0.638v1.495h9.375l-7.722,2.207
			c-0.478,0.146-0.873,0.405-1.185,0.778c-0.313,0.374-0.468,0.796-0.468,1.274c0,0.599,0.231,1.11,0.691,1.53
			c0.46,0.422,1.019,0.632,1.673,0.632h8.838c0.307-0.037,0.548-0.281,0.579-0.592v-1.566h-9.416l7.733-2.217
			C62.402,97.642,62.805,97.383,63.119,97.015z"/>
	</g>
	<g display="inline">
		<circle fill="#FFFFFF" stroke="#098CBA" stroke-miterlimit="10" cx="58.393" cy="56.829" r="13.115"/>
		<ellipse fill="#098DBA" cx="62.218" cy="64.495" rx="2.732" ry="1.476"/>
		<g>
			<g>
				<defs>
					<rect id="SVGID_3_" x="37.081" y="50.104" width="6.843" height="19.84"/>
				</defs>
				<clipPath id="SVGID_4_">
					<use xlink:href="#SVGID_3_"  overflow="visible"/>
				</clipPath>
				<circle clip-path="url(#SVGID_4_)" fill="#098DBA" cx="43.912" cy="56.954" r="4.645"/>
			</g>
		</g>
		<g>
			<g>
				<defs>
					<rect id="SVGID_5_" x="73.29" y="43.482" width="6.843" height="19.84"/>
				</defs>
				<clipPath id="SVGID_6_">
					<use xlink:href="#SVGID_5_"  overflow="visible"/>
				</clipPath>
				<circle clip-path="url(#SVGID_6_)" fill="#098DBA" cx="73.302" cy="56.472" r="4.645"/>
			</g>
		</g>
		<path fill="none" stroke="#098CBA" stroke-miterlimit="10" d="M62.218,64.332c0,0,7.495,1.029,9.29,0s3.825-5.802,3.825-5.802"/>
		<g>
			<g>
				<defs>
					<rect id="SVGID_7_" x="35.715" y="38.848" width="44.418" height="20.626"/>
				</defs>
				<clipPath id="SVGID_8_">
					<use xlink:href="#SVGID_7_"  overflow="visible"/>
				</clipPath>
				<path clip-path="url(#SVGID_8_)" fill="none" stroke="#098CBA" stroke-miterlimit="10" d="M74.795,60.103
					c0,7.243-5.872,13.115-13.115,13.115h-5.747c-7.243,0-13.115-5.872-13.115-13.115v-5.747c0-7.243,5.872-13.115,13.115-13.115
					h5.747c7.243,0,13.115,5.872,13.115,13.115V60.103z"/>
			</g>
		</g>
		<g>
			<path fill="#098DBA" d="M52.262,56.488c0-0.465,0.391-0.856,0.856-0.856s0.856,0.391,0.856,0.856s-0.391,0.856-0.856,0.856
				S52.262,56.954,52.262,56.488z"/>
			<path fill="#098DBA" d="M62.8,56.488c0-0.465,0.391-0.856,0.856-0.856c0.465,0,0.856,0.391,0.856,0.856s-0.391,0.856-0.856,0.856
				S62.8,56.954,62.8,56.488z"/>
		</g>
	</g>
	<g display="inline">
		<circle opacity="0.1" fill="#FFFFFF" enable-background="new    " cx="49.503" cy="33.972" r="3.184"/>
		<circle fill="#FFFFFF" cx="49.503" cy="33.972" r="0.598"/>
	</g>
	<g display="inline">
		<circle opacity="0.1" fill="#FFFFFF" enable-background="new    " cx="40.84" cy="43.888" r="2.172"/>
		<circle fill="#FFFFFF" cx="40.76" cy="43.808" r="0.598"/>
	</g>
	<g display="inline">
		<circle opacity="0.1" fill="#FFFFFF" enable-background="new    " cx="71.441" cy="74.49" r="2.172"/>
		<circle fill="#FFFFFF" cx="71.361" cy="74.409" r="0.598"/>
	</g>
	<g display="inline">
		<circle opacity="0.1" fill="#FFFFFF" enable-background="new    " cx="57.407" cy="36.411" r="1.715"/>
		<circle fill="#FFFFFF" cx="57.343" cy="36.348" r="0.472"/>
	</g>
</g>
<g>
	<g>
		<g>
			<circle opacity="0.5" fill="#738083" enable-background="new    " cx="57.7" cy="56.771" r="125.881"/>
			<circle fill="#0B5068" stroke="#098CBA" stroke-width="3" stroke-miterlimit="10" cx="58.205" cy="52.191" r="119.013"/>
			<circle fill="#FFFFFF" stroke="#098CBA" stroke-width="2" stroke-miterlimit="10" cx="58.205" cy="52.191" r="76.825"/>
			<g>
				<path fill="#FEFFFF" d="M-23.211,1.829l6.319,1.316l-5.9,2.656l0.687,6.416l-4.327-4.778l-5.909,2.622l3.224-5.607l-4.35-4.787
					l6.339,1.327l3.221-5.607L-23.211,1.829z"/>
				<path fill="#FEFFFF" d="M-15.433-12.059c-3.244-3.26-2.976-7.898,0.203-11.063c2.313-2.298,4.9-2.388,6.967-1.795l-0.989,2.868
					c-1.293-0.414-2.919-0.151-3.994,0.919c-1.933,1.922-1.861,4.778,0.119,6.769c1.987,1.994,4.839,2.081,6.769,0.162
					c1.075-1.07,1.349-2.694,0.942-3.992l2.861-0.984c0.561,2.052,0.491,4.672-1.82,6.97C-7.551-9.041-12.205-8.815-15.433-12.059z"
					/>
				<path fill="#FEFFFF" d="M-2.674-24.325c-2.5-3.724-1.57-8.22,2.174-10.732c3.721-2.5,8.233-1.665,10.736,2.061
					c2.503,3.724,1.57,8.22-2.151,10.718C4.343-19.761-0.173-20.601-2.674-24.325z M7.535-31.18
					c-1.559-2.316-4.19-3.073-6.467-1.543c-2.298,1.543-2.593,4.267-1.036,6.582c1.541,2.298,4.188,3.075,6.483,1.53
					C8.795-26.14,9.076-28.882,7.535-31.18z"/>
				<path fill="#FEFFFF" d="M26.764-32.238l-10.292-6.226l3.742,8.963l-2.924,1.221l-5.74-13.741l3.005-1.257l9.97,5.974
					l-3.602-8.63l2.924-1.221l5.738,13.739L26.764-32.238z"/>
				<path fill="#FEFFFF" d="M31.891-36.284l1.16-2.796c1.259,0.84,3.052,1.403,5.059,0.957c1.719-0.383,2.354-1.325,2.167-2.174
					c-0.561-2.523-8.531,1.095-9.743-4.37c-0.538-2.419,1.106-4.886,4.526-5.643c2.311-0.511,4.381-0.241,6.111,0.768l-1.207,2.69
					c-1.419-0.827-3.097-0.98-4.575-0.651c-1.309,0.291-1.924,1.02-1.728,1.892c0.505,2.284,8.502-1.113,9.707,4.312
					c0.588,2.656-0.883,5.084-4.78,5.952C35.777-34.725,33.565-35.216,31.891-36.284z"/>
				<path fill="#FEFFFF" d="M47.218-43.337l-0.39-8.923l3.215-0.14l0.385,8.835c0.088,2.075,1.356,3.451,3.652,3.35
					c2.3-0.099,3.42-1.579,3.329-3.654l-0.385-8.835l3.237-0.14l0.387,8.923c0.158,3.679-1.917,6.319-6.445,6.515
					C49.674-37.208,47.376-39.656,47.218-43.337z"/>
				<path fill="#FEFFFF" d="M64.704-37.616l1.816-14.78l3.17,0.387l-1.473,12.011l6.249,0.766l-0.338,2.771L64.704-37.616z"/>
				<path fill="#FEFFFF" d="M78.58-35.412l2.953-11.734l-4.221-1.063l0.68-2.705l11.518,2.897l-0.68,2.708l-4.201-1.056
					l-2.953,11.736L78.58-35.412z"/>
				<path fill="#FEFFFF" d="M88.886-32.356l5.323-13.915l2.962,1.133l-5.325,13.912L88.886-32.356z"/>
				<path fill="#FEFFFF" d="M104.657-24.872l-1.525-11.921l-4.686,8.497l-2.773-1.53l7.184-13.027l2.852,1.575l1.523,11.511
					l4.51-8.184l2.778,1.53l-7.186,13.027L104.657-24.872z"/>
				<path fill="#FEFFFF" d="M114.769-27.352c3.007-3.618,7.661-3.634,11.022-0.84c2.365,1.967,2.861,4.411,2.593,6.476l-2.919-0.57
					c0.14-1.246-0.27-2.746-1.469-3.744c-2.095-1.741-4.929-1.399-6.724,0.761s-1.613,5.01,0.478,6.751
					c1.011,0.842,2.327,1.18,3.147,1.135l1.14-1.374l-3.021-2.507l1.771-2.129l5.454,4.537l-3.649,4.388
					c-2.25,0.333-4.577-0.18-6.636-1.892C112.593-19.155,111.775-23.75,114.769-27.352z"/>
				<path fill="#FEFFFF" d="M138.573,0.522l-3.897,5.154l0.122-6.476l-6.098-2.127l6.177-1.87l0.155-6.47l3.694,5.319l6.195-1.883
					l-3.917,5.168l3.694,5.319L138.573,0.522z"/>
			</g>
			<circle fill="#095069" cx="58.205" cy="52.191" r="69.105"/>
		</g>
		<g opacity="0.4" enable-background="new    ">
			<g>
				<defs>
					<circle id="SVGID_9_" cx="58.205" cy="51.421" r="69.105"/>
				</defs>
				<clipPath id="SVGID_10_">
					<use xlink:href="#SVGID_9_"  overflow="visible"/>
				</clipPath>
				<g clip-path="url(#SVGID_10_)">
					
						<ellipse transform="matrix(0.8391 -0.5439 0.5439 0.8391 -15.1943 61.8584)" fill="#E9F7FE" cx="96.982" cy="56.617" rx="77.493" ry="69.102"/>
					
						<ellipse transform="matrix(0.8391 -0.5439 0.5439 0.8391 -17.3463 64.3726)" fill="#CBE6F1" cx="100.157" cy="61.512" rx="77.493" ry="69.102"/>
					
						<ellipse transform="matrix(0.8391 -0.5439 0.5439 0.8391 -20.6197 68.1961)" fill="#A0D2E7" cx="104.984" cy="68.958" rx="77.493" ry="69.102"/>
					
						<ellipse transform="matrix(0.8391 -0.5439 0.5439 0.8391 -24.4283 72.6442)" fill="#098DBA" cx="110.6" cy="77.621" rx="77.493" ry="69.102"/>
				</g>
			</g>
		</g>
		<g>
			<g>
				<path fill="#FFFFFF" d="M14.875,47.582c-1.239,0-2.253,1.014-2.253,2.253v33.324c0,1.239,1.014,2.253,2.253,2.253h13.018
					c1.239,0,2.969,0.716,3.845,1.593l5.582,5.582c0.876,0.876,2.309,0.876,3.185,0l5.582-5.582
					c0.876-0.876,2.606-1.593,3.845-1.593h13.018c1.239,0,2.253-1.014,2.253-2.253V49.835c0-1.239-1.014-2.253-2.253-2.253H14.875z"
					/>
				<path fill="none" stroke="#098CBA" stroke-miterlimit="10" d="M14.875,47.582c-1.239,0-2.253,1.014-2.253,2.253v33.324
					c0,1.239,1.014,2.253,2.253,2.253h13.018c1.239,0,2.969,0.716,3.845,1.593l5.582,5.582c0.876,0.876,2.309,0.876,3.185,0
					l5.582-5.582c0.876-0.876,2.606-1.593,3.845-1.593h13.018c1.239,0,2.253-1.014,2.253-2.253V49.835
					c0-1.239-1.014-2.253-2.253-2.253H14.875z"/>
			</g>
			<g>
				<path fill="#098DBA" d="M36.93,67.307c0-2.811,3.503-3.142,3.503-4.787c0-0.739-0.572-1.358-1.883-1.358
					c-1.189,0-2.19,0.572-2.928,1.478l-1.931-2.167c1.261-1.5,3.169-2.311,5.217-2.311c3.073,0,4.954,1.548,4.954,3.762
					c0,3.478-3.976,3.739-3.976,5.74c0,0.381,0.189,0.786,0.453,1l-2.62,0.761C37.217,68.879,36.93,68.14,36.93,67.307z
					 M36.93,72.618c0-1.047,0.883-1.928,1.931-1.928c1.047,0,1.928,0.881,1.928,1.928c0,1.047-0.881,1.928-1.928,1.928
					C37.813,74.547,36.93,73.666,36.93,72.618z"/>
			</g>
			<g>
				<path fill="#FFFFFF" d="M51.947,19.361c-1.239,0-2.253,1.014-2.253,2.253v33.324c0,1.239,1.014,2.253,2.253,2.253h13.018
					c1.239,0,2.969,0.716,3.845,1.593l5.582,5.582c0.876,0.876,2.309,0.876,3.185,0l5.582-5.582
					c0.876-0.876,2.606-1.593,3.845-1.593h13.018c1.239,0,2.253-1.014,2.253-2.253V21.614c0-1.239-1.014-2.253-2.253-2.253H51.947z"
					/>
				<path fill="none" stroke="#098CBA" stroke-miterlimit="10" d="M51.947,19.361c-1.239,0-2.253,1.014-2.253,2.253v33.324
					c0,1.239,1.014,2.253,2.253,2.253h13.018c1.239,0,2.969,0.716,3.845,1.593l5.582,5.582c0.876,0.876,2.309,0.876,3.185,0
					l5.582-5.582c0.876-0.876,2.606-1.593,3.845-1.593h13.018c1.239,0,2.253-1.014,2.253-2.253V21.614
					c0-1.239-1.014-2.253-2.253-2.253H51.947z"/>
			</g>
			<g>
				<path fill="#098DBA" d="M66.129,40.991c0-1.047,0.881-1.928,1.928-1.928s1.928,0.881,1.928,1.928s-0.881,1.928-1.928,1.928
					S66.129,42.039,66.129,40.991z"/>
				<path fill="#098DBA" d="M74.041,40.991c0-1.047,0.881-1.928,1.928-1.928c1.047,0,1.928,0.881,1.928,1.928
					s-0.881,1.928-1.928,1.928C74.922,42.919,74.041,42.039,74.041,40.991z"/>
				<path fill="#098DBA" d="M81.954,40.991c0-1.047,0.881-1.928,1.928-1.928c1.047,0,1.928,0.881,1.928,1.928
					s-0.881,1.928-1.928,1.928C82.833,42.919,81.954,42.039,81.954,40.991z"/>
			</g>
		</g>
		<path fill="#098DBA" d="M69.907,147.427c0.707-0.833,1.063-1.793,1.063-2.888c0-1.311-0.52-2.435-1.559-3.374
			c-1.038-0.942-2.293-1.417-3.766-1.417H45.608c-0.665,0.149-1.165,0.73-1.176,1.437v3.368h21.119l-17.395,4.972
			c-1.077,0.329-1.967,0.912-2.669,1.753c-0.705,0.842-1.054,1.793-1.054,2.87c0,1.349,0.52,2.5,1.557,3.447
			c1.036,0.951,2.295,1.424,3.769,1.424h19.909c0.692-0.083,1.234-0.633,1.304-1.334v-3.528H49.759l17.42-4.994
			C68.292,148.84,69.2,148.256,69.907,147.427z"/>
	</g>
	<g>
		<circle opacity="0.1" fill="#FFFFFF" enable-background="new    " cx="21.209" cy="14.68" r="4.893"/>
		<circle fill="#FFFFFF" cx="21.029" cy="14.5" r="1.347"/>
	</g>
	<g>
		<circle opacity="0.1" fill="#FFFFFF" enable-background="new    " cx="12.111" cy="33.627" r="2.818"/>
		<circle fill="#FFFFFF" cx="12.005" cy="33.524" r="0.775"/>
	</g>
</g>
<g display="none">
	<g display="inline">
		<g>
			<circle opacity="0.5" fill="#738083" enable-background="new    " cx="57.7" cy="56.771" r="55.881"/>
			<circle fill="#0B5068" stroke="#098CBA" stroke-width="3" stroke-miterlimit="10" cx="57.924" cy="54.738" r="52.832"/>
			<circle fill="#FFFFFF" stroke="#098CBA" stroke-width="2" stroke-miterlimit="10" cx="57.924" cy="54.738" r="34.104"/>
			<g>
				<path fill="#FEFFFF" d="M15.412,54.799l2.693-0.983L16.501,56.2l1.762,2.26l-2.753-0.79l-1.615,2.375l-0.097-2.872l-2.763-0.788
					l2.702-0.985l-0.097-2.87L15.412,54.799z"/>
				<path fill="#FEFFFF" d="M18.384,48.165l-6.437-1.479l0.692-3.011c0.322-1.4,1.443-1.945,2.572-1.685
					c1.12,0.257,1.887,1.246,1.568,2.636l-0.377,1.641l2.297,0.528L18.384,48.165z M14.889,43.388
					c-0.541-0.124-0.964,0.216-1.089,0.756l-0.332,1.448l1.728,0.397l0.332-1.448C15.653,44.002,15.42,43.511,14.889,43.388z"/>
				<path fill="#FEFFFF" d="M21.45,38.263l-2.668,0.294l-0.396,0.953l2.168,0.903l-0.541,1.299l-6.102-2.542l1.189-2.855
					c0.53-1.271,1.691-1.711,2.825-1.239c1.07,0.446,1.369,1.376,1.25,2.099l2.9-0.414L21.45,38.263z M17.359,36.407
					c-0.503-0.209-0.978,0.054-1.192,0.567l-0.572,1.372l1.647,0.686l0.572-1.372C18.028,37.147,17.88,36.624,17.359,36.407z"/>
				<path fill="#FEFFFF" d="M19.796,33.932c-1.664-1.092-2.057-3.091-0.96-4.764c1.093-1.663,3.083-2.099,4.748-1.006
					c1.664,1.092,2.057,3.092,0.965,4.756C23.451,34.59,21.46,35.025,19.796,33.932z M22.79,29.37
					c-1.035-0.679-2.242-0.536-2.911,0.482c-0.674,1.027-0.325,2.192,0.709,2.871c1.027,0.674,2.243,0.536,2.917-0.49
					C24.174,31.214,23.817,30.044,22.79,29.37z"/>
				<path fill="#FEFFFF" d="M28.224,27.964l-3.917-3.669l-1.319,1.409l-0.903-0.846l3.602-3.845l0.903,0.846l-1.313,1.402
					l3.916,3.669L28.224,27.964z"/>
				<path fill="#FEFFFF" d="M29.07,22.309c-1.202-1.588-0.901-3.604,0.695-4.812c1.588-1.202,3.611-0.942,4.812,0.646
					c1.201,1.589,0.9,3.605-0.687,4.807C32.294,24.157,30.272,23.898,29.07,22.309z M33.424,19.016
					c-0.747-0.987-1.933-1.258-2.906-0.524c-0.979,0.742-1.042,1.957-0.295,2.945c0.741,0.98,1.933,1.258,2.913,0.517
					C34.108,21.218,34.165,19.995,33.424,19.016z"/>
				<path fill="#FEFFFF" d="M39.006,19.528l-2.451-4.779l-1.719,0.882l-0.565-1.102l4.69-2.406l0.565,1.103l-1.711,0.877
					l2.451,4.778L39.006,19.528z"/>
				<path fill="#FEFFFF" d="M44.991,16.931l-0.822-2.576l-3.602-2.947l1.528-0.488l2.361,2.022l0.752-3.016l1.519-0.485l-1.22,4.485
					l0.823,2.576L44.991,16.931z"/>
				<path fill="#FEFFFF" d="M49.782,15.558l-0.934-6.54l3.059-0.437c1.422-0.203,2.334,0.648,2.497,1.795
					c0.162,1.137-0.485,2.211-1.897,2.412l-1.667,0.237l0.334,2.334L49.782,15.558z M52.983,10.579
					c-0.079-0.549-0.548-0.822-1.097-0.744l-1.471,0.21l0.25,1.756l1.471-0.21C52.686,11.512,53.06,11.118,52.983,10.579z"/>
				<path fill="#FEFFFF" d="M56.423,14.774l0.13-6.605l4.674,0.091l-0.023,1.239l-3.269-0.065l-0.027,1.387l3.199,0.062
					l-0.025,1.238l-3.199-0.063l-0.029,1.505l3.268,0.064l-0.023,1.239L56.423,14.774z"/>
				<path fill="#FEFFFF" d="M70.111,16.692l0.745-2.68l-3.004-0.835l-0.745,2.68l-1.354-0.377l1.77-6.361l1.353,0.376l-0.694,2.5
					l3.004,0.836l0.694-2.5l1.364,0.38l-1.768,6.361L70.111,16.692z"/>
				<path fill="#FEFFFF" d="M74.274,14.583c0.895-1.776,2.837-2.394,4.622-1.495c1.778,0.895,2.436,2.824,1.541,4.601
					c-0.895,1.778-2.837,2.395-4.614,1.5C74.037,18.289,73.379,16.361,74.274,14.583z M79.146,17.039
					c0.557-1.106,0.277-2.289-0.811-2.836c-1.096-0.553-2.214-0.074-2.77,1.032c-0.553,1.097-0.278,2.288,0.819,2.84
					C77.472,18.623,78.593,18.135,79.146,17.039z"/>
				<path fill="#FEFFFF" d="M80.331,20.475l1.28-0.411c0.078,0.669,0.404,1.437,1.131,1.988c0.624,0.472,1.126,0.417,1.359,0.109
					c0.693-0.917-2.825-2.574-1.324-4.558c0.664-0.877,1.973-1.029,3.214-0.09c0.837,0.633,1.342,1.413,1.498,2.289l-1.258,0.366
					c-0.128-0.719-0.56-1.331-1.096-1.737c-0.475-0.36-0.899-0.358-1.138-0.041c-0.628,0.829,2.823,2.559,1.334,4.527
					c-0.729,0.964-1.976,1.164-3.39,0.094C80.923,22.24,80.453,21.349,80.331,20.475z"/>
				<path fill="#FEFFFF" d="M86.096,26.484l3.807-3.787l-1.362-1.369l0.878-0.873l3.716,3.737l-0.877,0.873l-1.355-1.363
					l-3.808,3.786L86.096,26.484z"/>
				<path fill="#FEFFFF" d="M89.284,30.053l5.255-4.003l0.852,1.119l-5.255,4.003L89.284,30.053z"/>
				<path fill="#FEFFFF" d="M93.508,36.594l2.212-4.858l-3.755,2.113l-0.69-1.226l5.76-3.239l0.709,1.261l-2.119,4.702l3.619-2.035
					l0.689,1.227l-5.759,3.239L93.508,36.594z"/>
				<path fill="#FEFFFF" d="M97.896,38.015c1.981-0.662,3.741,0.422,4.355,2.263c0.431,1.295,0.046,2.331-0.539,3.048l-0.967-0.898
					c0.344-0.438,0.542-1.099,0.323-1.756c-0.383-1.146-1.532-1.682-2.715-1.287c-1.183,0.394-1.781,1.512-1.399,2.657
					c0.185,0.554,0.601,0.99,0.921,1.165l0.751-0.251l-0.551-1.652l1.164-0.388l0.996,2.986l-2.404,0.802
					c-0.927-0.402-1.684-1.14-2.06-2.267C95.157,40.597,95.924,38.673,97.896,38.015z"/>
				<path fill="#FEFFFF" d="M100.328,54.077l-2.676,1.026l1.567-2.408l-1.797-2.232l2.764,0.745l1.577-2.399l0.142,2.869
					l2.774,0.746l-2.686,1.025l0.141,2.87L100.328,54.077z"/>
			</g>
			<circle fill="#095069" cx="57.924" cy="54.738" r="30.677"/>
		</g>
		<g opacity="0.4" enable-background="new    ">
			<g>
				<defs>
					<circle id="SVGID_11_" cx="57.924" cy="54.396" r="30.677"/>
				</defs>
				<clipPath id="SVGID_12_">
					<use xlink:href="#SVGID_11_"  overflow="visible"/>
				</clipPath>
				<g clip-path="url(#SVGID_12_)">
					
						<ellipse transform="matrix(0.5568 -0.8307 0.8307 0.5568 23.9401 80.5598)" fill="#E9F7FE" cx="87.46" cy="17.846" rx="43.441" ry="38.737"/>
					
						<ellipse transform="matrix(0.5568 -0.8307 0.8307 0.5568 23.6316 83.624)" fill="#CBE6F1" cx="90.177" cy="19.668" rx="43.441" ry="38.737"/>
					
						<ellipse transform="matrix(0.5568 -0.8307 0.8307 0.5568 23.1625 88.283)" fill="#A0D2E7" cx="94.308" cy="22.437" rx="43.441" ry="38.737"/>
					
						<ellipse transform="matrix(0.5568 -0.8307 0.8307 0.5568 22.6166 93.7053)" fill="#098DBA" cx="99.117" cy="25.659" rx="43.441" ry="38.737"/>
				</g>
			</g>
		</g>
		<path fill="#098DBA" d="M63.119,97.015c0.314-0.37,0.472-0.796,0.472-1.282c0-0.582-0.231-1.081-0.692-1.498
			c-0.461-0.418-1.018-0.629-1.672-0.629h-8.895c-0.295,0.066-0.517,0.324-0.522,0.638v1.495h9.375l-7.722,2.207
			c-0.478,0.146-0.873,0.405-1.185,0.778c-0.313,0.374-0.468,0.796-0.468,1.274c0,0.599,0.231,1.11,0.691,1.53
			c0.46,0.422,1.019,0.632,1.673,0.632h8.838c0.307-0.037,0.548-0.281,0.579-0.592v-1.566h-9.416l7.733-2.217
			C62.402,97.642,62.805,97.383,63.119,97.015z"/>
	</g>
	<g display="inline">
		<circle opacity="0.1" fill="#FFFFFF" enable-background="new    " cx="34.202" cy="50.028" r="3.184"/>
		<circle fill="#FFFFFF" cx="34.202" cy="50.028" r="0.598"/>
	</g>
	<g display="inline">
		<circle opacity="0.1" fill="#FFFFFF" enable-background="new    " cx="40.84" cy="43.551" r="2.172"/>
		<circle fill="#FFFFFF" cx="40.76" cy="43.47" r="0.598"/>
	</g>
	<g display="inline">
		<circle opacity="0.1" fill="#FFFFFF" enable-background="new    " cx="62.698" cy="71.966" r="2.172"/>
		<circle fill="#FFFFFF" cx="62.618" cy="71.886" r="0.598"/>
	</g>
	<g display="inline">
		<circle opacity="0.1" fill="#FFFFFF" enable-background="new    " cx="58.499" cy="78.697" r="1.715"/>
		<circle fill="#FFFFFF" cx="58.436" cy="78.633" r="0.472"/>
	</g>
	<g display="inline">
		<g>
			<g>
				<g>
					<defs>
						<rect id="SVGID_13_" x="34.086" y="37.129" width="48.208" height="27.312"/>
					</defs>
					<clipPath id="SVGID_14_">
						<use xlink:href="#SVGID_13_"  overflow="visible"/>
					</clipPath>
					<g clip-path="url(#SVGID_14_)">
						
							<ellipse fill="#FFFFFF" stroke="#098CBA" stroke-width="1.5" stroke-miterlimit="10" cx="44.087" cy="61.745" rx="6.252" ry="6.837"/>
						
							<ellipse fill="#FFFFFF" stroke="#098CBA" stroke-width="1.5" stroke-miterlimit="10" cx="60.493" cy="55.281" rx="14.732" ry="16.11"/>
						
							<ellipse fill="#FFFFFF" stroke="#098CBA" stroke-width="1.5" stroke-miterlimit="10" cx="75.163" cy="62.549" rx="3.984" ry="4.356"/>
						
							<ellipse fill="#FFFFFF" stroke="#098CBA" stroke-width="1.5" stroke-miterlimit="10" cx="45.761" cy="55.517" rx="3.945" ry="4.314"/>
					</g>
				</g>
			</g>
			<line fill="none" stroke="#098CBA" stroke-width="2" stroke-miterlimit="10" x1="37.071" y1="65.265" x2="80.15" y2="65.265"/>
		</g>
		<g>
			<g>
				<defs>
					<rect id="SVGID_15_" x="34.779" y="38.689" width="46.695" height="26.455"/>
				</defs>
				<clipPath id="SVGID_16_">
					<use xlink:href="#SVGID_15_"  overflow="visible"/>
				</clipPath>
				<g clip-path="url(#SVGID_16_)">
					<ellipse fill="#FFFFFF" cx="44.466" cy="62.533" rx="6.055" ry="6.622"/>
					<ellipse fill="#FFFFFF" cx="60.356" cy="56.272" rx="14.27" ry="15.605"/>
					<ellipse fill="#FFFFFF" cx="74.566" cy="63.311" rx="3.859" ry="4.22"/>
					<ellipse fill="#FFFFFF" cx="46.087" cy="56.5" rx="3.821" ry="4.178"/>
				</g>
			</g>
		</g>
		<g>
			<rect x="52.554" y="58.828" fill="#A0D2E7" width="4.315" height="4.03"/>
			<rect x="58.208" y="58.828" fill="#A0D2E7" width="4.315" height="4.03"/>
			<rect x="63.755" y="58.828" fill="#A0D2E7" width="4.315" height="4.03"/>
			<rect x="52.554" y="50.728" fill="#A0D2E7" width="15.516" height="6.808"/>
			<rect x="52.608" y="47.532" fill="#A0D2E7" width="4.261" height="2.018"/>
			<rect x="58.208" y="47.532" fill="#A0D2E7" width="9.862" height="2.018"/>
		</g>
	</g>
	<g display="inline">
		<circle opacity="0.1" fill="#FFFFFF" enable-background="new    " cx="51.942" cy="76.511" r="1.715"/>
		<circle fill="#FFFFFF" cx="51.879" cy="76.447" r="0.472"/>
	</g>
</g>
<g display="none">
	<g display="inline">
		<g>
			<circle opacity="0.5" fill="#738083" enable-background="new    " cx="57.7" cy="56.771" r="55.881"/>
			<circle fill="#0B5068" stroke="#098CBA" stroke-width="3" stroke-miterlimit="10" cx="57.924" cy="54.738" r="52.832"/>
			<circle fill="#FFFFFF" stroke="#098CBA" stroke-width="2" stroke-miterlimit="10" cx="57.924" cy="54.738" r="34.104"/>
			<g>
				<path fill="#FEFFFF" d="M15.484,57.249l2.631-1.137l-1.464,2.473l1.888,2.155l-2.794-0.63l-1.475,2.464l-0.263-2.861
					l-2.803-0.629l2.642-1.137l-0.261-2.861L15.484,57.249z"/>
				<path fill="#FEFFFF" d="M14.744,50.233c-2.01-0.355-3.099-2.108-2.753-4.068c0.252-1.424,1.169-2.117,2.069-2.431l0.376,1.294
					c-0.575,0.18-1.099,0.691-1.216,1.354c-0.21,1.191,0.545,2.21,1.774,2.426c1.23,0.217,2.288-0.481,2.499-1.671
					c0.117-0.663-0.199-1.322-0.677-1.689l0.786-1.088c0.728,0.601,1.373,1.571,1.12,2.995
					C18.376,49.315,16.743,50.586,14.744,50.233z"/>
				<path fill="#FEFFFF" d="M16.239,42.489c-1.861-0.711-2.674-2.583-1.958-4.453c0.712-1.861,2.566-2.713,4.428-2.001
					c1.861,0.712,2.673,2.583,1.961,4.445C19.954,42.35,18.1,43.202,16.239,42.489z M18.191,37.388
					c-1.157-0.443-2.308-0.045-2.743,1.095c-0.44,1.148,0.151,2.212,1.308,2.655c1.149,0.44,2.308,0.045,2.747-1.103
					C19.939,38.895,19.339,37.827,18.191,37.388z"/>
				<path fill="#FEFFFF" d="M24.447,32.823l-2.68-0.125l-0.54,0.877l2,1.231l-0.737,1.197l-5.627-3.461l1.619-2.633
					c0.722-1.172,1.936-1.426,2.982-0.782c0.987,0.607,1.138,1.573,0.908,2.268l2.927,0.044L24.447,32.823z M20.698,30.354
					c-0.464-0.285-0.974-0.099-1.265,0.374l-0.779,1.265l1.518,0.934l0.779-1.265C21.242,31.189,21.178,30.65,20.698,30.354z"/>
				<path fill="#FEFFFF" d="M26.216,30.252l-4.964-4.36l2.04-2.322c0.948-1.079,2.194-1.027,3.065-0.261
					c0.863,0.758,1.07,1.995,0.128,3.066l-1.112,1.266l1.772,1.556L26.216,30.252z M25.409,24.387
					c-0.417-0.366-0.951-0.268-1.318,0.149l-0.981,1.116l1.333,1.171l0.981-1.116C25.791,25.289,25.818,24.747,25.409,24.387z"/>
				<path fill="#FEFFFF" d="M28.36,22.957c-1.235-1.56-0.979-3.582,0.589-4.823c1.56-1.235,3.587-1.02,4.822,0.54
					c1.235,1.56,0.979,3.582-0.581,4.817C31.622,24.732,29.595,24.518,28.36,22.957z M32.638,19.571
					c-0.768-0.971-1.96-1.215-2.914-0.459c-0.963,0.762-0.998,1.978-0.231,2.947c0.763,0.963,1.96,1.215,2.922,0.453
					C33.371,21.757,33.4,20.534,32.638,19.571z"/>
				<path fill="#FEFFFF" d="M40.368,18.811l-2.243-1.474l-0.911,0.48l1.093,2.079l-1.246,0.656l-3.079-5.85l2.737-1.44
					c1.219-0.642,2.393-0.24,2.965,0.847c0.541,1.026,0.178,1.933-0.375,2.414l2.497,1.532L40.368,18.811z M38.401,14.774
					c-0.254-0.483-0.788-0.582-1.28-0.324l-1.315,0.693l0.831,1.58l1.315-0.693C38.443,15.77,38.663,15.273,38.401,14.774z"/>
				<path fill="#FEFFFF" d="M47.492,16.133l-0.736-0.942l-2.702,0.858l-0.058,1.193l-1.52,0.483l0.427-7.072l1.681-0.534
					l4.429,5.531L47.492,16.133z M44.169,11.728l-0.122,3.024l1.965-0.624L44.169,11.728z"/>
				<path fill="#FEFFFF" d="M50.997,15.397l-0.822-5.303l-1.908,0.296l-0.19-1.223l5.205-0.808l0.189,1.223l-1.898,0.294
					l0.823,5.303L50.997,15.397z"/>
				<path fill="#FEFFFF" d="M55.705,14.808l0.019-6.607L60.4,8.215l-0.003,1.239l-3.27-0.01l-0.004,1.386l3.2,0.01l-0.004,1.238
					l-3.2-0.009l-0.005,1.506l3.27,0.01l-0.004,1.239L55.705,14.808z"/>
				<path fill="#FEFFFF" d="M66.529,15.748l1.246-5.224l-1.879-0.448l0.288-1.205l5.127,1.224l-0.288,1.204l-1.87-0.446
					l-1.247,5.224L66.529,15.748z"/>
				<path fill="#FEFFFF" d="M74.522,18.412l-0.284-2.669l-0.951-0.4l-0.911,2.166l-1.298-0.548l2.566-6.093l2.851,1.2
					c1.27,0.535,1.705,1.697,1.228,2.83c-0.45,1.068-1.382,1.365-2.104,1.243l0.401,2.901L74.522,18.412z M76.393,14.327
					c0.211-0.502-0.05-0.978-0.562-1.194l-1.371-0.577l-0.692,1.645l1.371,0.577C75.65,14.994,76.174,14.849,76.393,14.327z"/>
				<path fill="#FEFFFF" d="M81.149,22.229l0.261-1.167l-2.378-1.544l-0.96,0.713l-1.338-0.869l5.738-4.159l1.48,0.961l-1.465,6.934
					L81.149,22.229z M82.446,16.865l-2.415,1.825l1.73,1.123L82.446,16.865z"/>
				<path fill="#FEFFFF" d="M83.285,23.918l4.292-5.022l1.068,0.914l-4.291,5.023L83.285,23.918z"/>
				<path fill="#FEFFFF" d="M88.792,29.408l1.127-5.221l-3.223,2.866l-0.934-1.051l4.939-4.396l0.962,1.082l-1.066,5.049
					l3.103-2.761l0.935,1.051l-4.94,4.395L88.792,29.408z"/>
				<path fill="#FEFFFF" d="M90.669,31.919l5.485-3.683l0.784,1.167l-5.485,3.684L90.669,31.919z"/>
				<path fill="#FEFFFF" d="M94.498,38.678l2.488-4.718l-3.869,1.889L92.5,34.587l5.932-2.898l0.634,1.3l-2.385,4.567l3.727-1.819
					l0.617,1.264l-5.934,2.896L94.498,38.678z"/>
				<path fill="#FEFFFF" d="M98.803,40.376c2.017-0.542,3.709,0.642,4.214,2.516c0.355,1.318-0.091,2.33-0.717,3.01l-0.913-0.953
					c0.37-0.417,0.605-1.065,0.425-1.733c-0.314-1.167-1.429-1.767-2.633-1.444c-1.204,0.324-1.867,1.405-1.553,2.57
					c0.152,0.564,0.542,1.023,0.851,1.216l0.764-0.205l-0.453-1.682l1.185-0.32l0.818,3.04l-2.447,0.658
					c-0.901-0.454-1.614-1.236-1.922-2.383C95.918,42.794,96.796,40.917,98.803,40.376z"/>
				<path fill="#FEFFFF" d="M100.301,56.557l-2.731,0.87l1.702-2.314l-1.666-2.331l2.717,0.903l1.712-2.305l-0.022,2.872
					l2.726,0.903l-2.74,0.87l-0.022,2.873L100.301,56.557z"/>
			</g>
			<circle fill="#095069" cx="57.924" cy="54.738" r="30.677"/>
		</g>
		<g opacity="0.4" enable-background="new    ">
			<g>
				<defs>
					<circle id="SVGID_17_" cx="57.924" cy="54.396" r="30.677"/>
				</defs>
				<clipPath id="SVGID_18_">
					<use xlink:href="#SVGID_17_"  overflow="visible"/>
				</clipPath>
				<g clip-path="url(#SVGID_18_)">
					
						<ellipse transform="matrix(0.94 0.3413 -0.3413 0.94 32.6837 -32.1301)" fill="#E9F7FE" cx="107.66" cy="76.826" rx="43.441" ry="38.737"/>
					
						<ellipse transform="matrix(0.94 0.3413 -0.3413 0.94 33.6659 -31.5647)" fill="#CBE6F1" cx="106.544" cy="79.901" rx="43.441" ry="38.737"/>
					
						<ellipse transform="matrix(0.94 0.3413 -0.3413 0.94 35.1595 -30.7047)" fill="#A0D2E7" cx="104.847" cy="84.576" rx="43.441" ry="38.737"/>
					
						<ellipse transform="matrix(0.94 0.3413 -0.3413 0.94 36.8973 -29.704)" fill="#098DBA" cx="102.872" cy="90.015" rx="43.441" ry="38.737"/>
				</g>
			</g>
		</g>
		<path fill="#098DBA" d="M63.119,97.015c0.314-0.37,0.472-0.796,0.472-1.282c0-0.582-0.231-1.081-0.692-1.498
			c-0.461-0.418-1.018-0.629-1.672-0.629h-8.895c-0.295,0.066-0.517,0.324-0.522,0.638v1.495h9.375l-7.722,2.207
			c-0.478,0.146-0.873,0.405-1.185,0.778c-0.313,0.374-0.468,0.796-0.468,1.274c0,0.599,0.231,1.11,0.691,1.53
			c0.46,0.422,1.019,0.632,1.673,0.632h8.838c0.307-0.037,0.548-0.281,0.579-0.592v-1.566h-9.416l7.733-2.217
			C62.402,97.642,62.805,97.383,63.119,97.015z"/>
	</g>
	<g display="inline">
		<circle opacity="0.1" fill="#FFFFFF" enable-background="new    " cx="34.202" cy="50.028" r="3.184"/>
		<circle fill="#FFFFFF" cx="34.202" cy="50.028" r="0.598"/>
	</g>
	<g display="inline">
		<circle opacity="0.1" fill="#FFFFFF" enable-background="new    " cx="40.84" cy="43.551" r="2.172"/>
		<circle fill="#FFFFFF" cx="40.76" cy="43.47" r="0.598"/>
	</g>
	<g display="inline">
		<g>
			<path fill="#FFFFFF" d="M74.253,61.721c0,0.55-0.45,1-1,1h-27.13c-0.55,0-1-0.45-1-1V42.13c0-0.55,0.45-1,1-1h27.13
				c0.55,0,1,0.45,1,1V61.721z"/>
			<path fill="none" stroke="#098CBA" stroke-width="1.5" stroke-miterlimit="10" d="M74.253,61.721c0,0.55-0.45,1-1,1h-27.13
				c-0.55,0-1-0.45-1-1V42.13c0-0.55,0.45-1,1-1h27.13c0.55,0,1,0.45,1,1V61.721z"/>
		</g>
		<circle fill="#098DBA" cx="42.626" cy="56.017" r="5.24"/>
		<g>
			<path fill="#098DBA" d="M48.051,69.928c0,1.65-1.35,3-3,3h-4.468c-1.65,0-3-1.35-3-3v-6.563c0-1.65,1.35-3,3-3h4.468
				c1.65,0,3,1.35,3,3V69.928z"/>
		</g>
		<rect x="61.194" y="45.5" fill="#098DBA" width="9.632" height="0.685"/>
		<rect x="61.194" y="48.423" fill="#098DBA" width="9.632" height="0.685"/>
		<rect x="48.051" y="45.5" fill="#A0D2E7" width="11.637" height="12.703"/>
		<rect x="61.194" y="51.583" fill="#098DBA" width="9.632" height="0.685"/>
		
			<rect x="48.638" y="55.58" transform="matrix(-0.4241 0.9056 -0.9056 -0.4241 126.8538 31.3669)" fill="#098DBA" width="9.632" height="0.876"/>
		<g>
			<path fill="#098DBA" d="M51.07,59.654c-0.594-0.926-1.837-1.198-2.763-0.605l-2.991,1.916c-0.926,0.594-1.198,1.837-0.605,2.763
				l0.256,0.4c0.594,0.926,1.837,1.198,2.763,0.605l2.991-1.916c0.926-0.594,1.198-1.837,0.605-2.763L51.07,59.654z"/>
		</g>
		<rect x="61.194" y="54.586" fill="#098DBA" width="9.632" height="0.685"/>
		<rect x="61.194" y="57.509" fill="#098DBA" width="9.632" height="0.685"/>
		<circle fill="#098DBA" cx="52.553" cy="58.998" r="2.519"/>
	</g>
	<g display="inline">
		<circle opacity="0.1" fill="#FFFFFF" enable-background="new    " cx="66.989" cy="32.541" r="3.184"/>
		<circle fill="#FFFFFF" cx="66.989" cy="32.541" r="0.598"/>
	</g>
</g>
</svg>
