<?xml version="1.0" encoding="utf-8"?>
<!-- Generator: Adobe Illustrator 17.0.0, SVG Export Plug-In . SVG Version: 6.00 Build 0)  -->
<!DOCTYPE svg PUBLIC "-//W3C//DTD SVG 1.1//EN" "http://www.w3.org/Graphics/SVG/1.1/DTD/svg11.dtd">
<svg version="1.1" id="Layer_1" xmlns="http://www.w3.org/2000/svg" xmlns:xlink="http://www.w3.org/1999/xlink" x="0px" y="0px"
	 width="253px" height="253px" viewBox="-69 -69 253 253" enable-background="new -69 -69 253 253" xml:space="preserve">
<g>
	<g>
		<g>
			<circle opacity="0.5" fill="#738083" enable-background="new    " cx="58.2" cy="57.271" r="126.381"/>
			<circle fill="#0B5068" stroke="#098CBA" stroke-width="3" stroke-miterlimit="10" cx="58.707" cy="52.673" r="119.485"/>
			<circle fill="#FFFFFF" stroke="#098CBA" stroke-width="2" stroke-miterlimit="10" cx="58.707" cy="52.673" r="77.13"/>
			<g>
				<path fill="#FEFFFF" d="M-37.364,56.692l5.998-2.472l-3.408,5.539l4.191,4.946l-6.294-1.529l-3.433,5.516l-0.482-6.484
					l-6.321-1.531l6.02-2.472l-0.484-6.486L-37.364,56.692z"/>
				<path fill="#FEFFFF" d="M-38.748,40.725c-4.528-0.887-6.916-4.89-6.052-9.307c0.629-3.207,2.73-4.736,4.779-5.408l0.794,2.94
					c-1.307,0.382-2.51,1.515-2.804,3.01c-0.525,2.68,1.14,5.014,3.91,5.557c2.768,0.543,5.19-0.993,5.715-3.673
					c0.294-1.495-0.394-2.997-1.459-3.845l1.821-2.427c1.622,1.389,3.035,3.603,2.406,6.812
					C-30.5,38.803-34.243,41.607-38.748,40.725z"/>
				<path fill="#FEFFFF" d="M-35.062,23.331c-4.175-1.685-5.934-5.946-4.241-10.143c1.685-4.175,5.907-6.023,10.085-4.338
					c4.175,1.685,5.934,5.946,4.25,10.123C-26.665,23.168-30.887,25.016-35.062,23.331z M-30.444,11.885
					c-2.596-1.049-5.213-0.194-6.244,2.359c-1.038,2.576,0.251,5.007,2.847,6.054c2.576,1.04,5.211,0.194,6.251-2.381
					C-26.556,15.361-27.868,12.925-30.444,11.885z"/>
				<path fill="#FEFFFF" d="M-16.11,1.764l-6.059-0.389l-1.255,1.965l4.476,2.863l-1.714,2.682l-12.597-8.058l3.768-5.894
					c1.678-2.626,4.437-3.15,6.778-1.653c2.21,1.414,2.515,3.603,1.965,5.17l6.622,0.215L-16.11,1.764z M-24.496-3.976
					c-1.038-0.663-2.201-0.262-2.877,0.796l-1.814,2.832l3.401,2.176l1.812-2.832C-23.295-2.062-23.419-3.286-24.496-3.976z"/>
				<path fill="#FEFFFF" d="M-12.061-3.89l-11.064-10.055l4.704-5.175c2.185-2.406,5.003-2.239,6.943-0.475
					c1.925,1.746,2.345,4.553,0.174,6.941l-2.567,2.82l3.949,3.589L-12.061-3.89z M-13.667-17.192
					c-0.93-0.844-2.142-0.642-2.985,0.285l-2.262,2.488l2.972,2.7l2.259-2.488C-12.837-15.134-12.753-16.36-13.667-17.192z"/>
				<path fill="#FEFFFF" d="M-6.889-20.361c-2.73-3.582-2.065-8.142,1.536-10.883c3.58-2.73,8.153-2.16,10.883,1.423
					c2.73,3.58,2.065,8.14-1.515,10.872C0.414-16.211-4.162-16.781-6.889-20.361z M2.931-27.84C1.232-30.07-1.45-30.669-3.641-29
					c-2.21,1.683-2.341,4.43-0.645,6.658c1.683,2.212,4.381,2.829,6.59,1.147C4.494-22.867,4.611-25.633,2.931-27.84z"/>
				<path fill="#FEFFFF" d="M20.386-29.233l-5.012-3.422l-2.083,1.047l2.391,4.745l-2.843,1.432l-6.728-13.35l6.247-3.148
					c2.782-1.402,5.421-0.45,6.672,2.033c1.181,2.343,0.328,4.381-0.943,5.448l5.584,3.56L20.386-29.233z M16.098-38.443
					c-0.554-1.101-1.76-1.348-2.879-0.78l-3.001,1.513l1.816,3.603l3.001-1.515C16.154-36.188,16.672-37.3,16.098-38.443z"/>
				<path fill="#FEFFFF" d="M36.694-35.055l-1.626-2.158l-6.138,1.834l-0.179,2.694l-3.456,1.034l1.242-15.965l3.822-1.14
					l9.791,12.672L36.694-35.055z M29.358-45.139l-0.391,6.826l4.464-1.332L29.358-45.139z"/>
				<path fill="#FEFFFF" d="M44.583-36.554L42.925-48.57l-4.324,0.595l-0.382-2.77l11.797-1.628l0.382,2.77l-4.302,0.595
					l1.658,12.016L44.583-36.554z"/>
				<path fill="#FEFFFF" d="M55.178-37.703l0.258-14.94l10.573,0.183l-0.05,2.8l-7.391-0.129l-0.054,3.137l7.235,0.124l-0.047,2.8
					l-7.235-0.124l-0.059,3.404l7.393,0.129l-0.047,2.8L55.178-37.703z"/>
				<path fill="#FEFFFF" d="M75.89-38.323l2.316-1.965c0.742,1.325,2.09,2.648,4.084,3.164c1.714,0.446,2.714-0.106,2.931-0.952
					c0.654-2.515-8.128-2.92-6.715-8.361c0.624-2.409,3.223-3.863,6.629-2.979c2.3,0.597,4.026,1.784,5.114,3.478l-2.309,1.855
					c-0.889-1.389-2.323-2.291-3.795-2.675c-1.3-0.337-2.185,0.034-2.409,0.905c-0.59,2.275,8.112,2.89,6.712,8.291
					c-0.688,2.646-3.112,4.146-6.993,3.137C78.654-35.152,76.904-36.599,75.89-38.323z"/>
				<path fill="#FEFFFF" d="M92.816-37.604l3.745-8.142l2.931,1.348l-3.705,8.063c-0.873,1.893-0.371,3.702,1.726,4.666
					c2.097,0.963,3.775,0.156,4.645-1.737l3.705-8.063l2.951,1.359l-3.743,8.142c-1.545,3.358-4.607,4.761-8.739,2.861
					C92.199-31.006,91.269-34.243,92.816-37.604z"/>
				<path fill="#FEFFFF" d="M105.904-24.477l8.585-12.231l5.722,4.014c2.66,1.866,2.847,4.682,1.341,6.828
					c-1.493,2.126-4.222,2.895-6.862,1.038l-3.116-2.187l-3.062,4.365L105.904-24.477z M118.893-27.736
					c0.719-1.027,0.369-2.203-0.656-2.922l-2.752-1.931l-2.305,3.284l2.752,1.929C116.959-26.655,118.185-26.725,118.893-27.736z"/>
				<path fill="#FEFFFF" d="M118.067-15.528l10.492-10.645l4.98,4.908c2.314,2.28,2.033,5.086,0.192,6.954
					c-1.825,1.852-4.643,2.158-6.941-0.106l-2.716-2.673l-3.743,3.797L118.067-15.528z M131.417-16.593
					c0.882-0.893,0.728-2.112-0.167-2.994l-2.393-2.359l-2.816,2.856l2.395,2.361C129.332-15.847,130.551-15.713,131.417-16.593z"/>
				<path fill="#FEFFFF" d="M134.271-9.752c3.686-2.585,8.219-1.744,10.82,1.961c2.587,3.684,1.839,8.235-1.848,10.822
					c-3.686,2.587-8.219,1.744-10.806-1.94C129.839-2.614,130.587-7.165,134.271-9.752z M141.362,0.353
					c2.293-1.61,3.001-4.268,1.416-6.522c-1.597-2.275-4.338-2.515-6.629-0.905c-2.273,1.597-2.999,4.268-1.402,6.543
					C136.33,1.724,139.091,1.95,141.362,0.353z"/>
				<path fill="#FEFFFF" d="M142.054,17.903l3.623-4.867l-0.963-2.121l-4.833,2.194l-1.316-2.897l13.608-6.172l2.888,6.364
					c1.285,2.834,0.226,5.432-2.302,6.581c-2.388,1.083-4.388,0.142-5.401-1.167l-3.786,5.428L142.054,17.903z M151.426,13.995
					c1.122-0.509,1.418-1.698,0.9-2.843l-1.389-3.058l-3.673,1.665l1.386,3.06C149.171,13.961,150.263,14.527,151.426,13.995z"/>
				<path fill="#FEFFFF" d="M145.43,27.587l11.729-3.166l-1.14-4.22l2.703-0.731l3.11,11.512l-2.705,0.731l-1.133-4.198
					l-11.729,3.166L145.43,27.587z"/>
				<path fill="#FEFFFF" d="M154.599,55.138l-6.145,2.072l3.763-5.299l-3.858-5.211l6.181,1.94l3.786-5.279l0.059,6.5l6.201,1.94
					l-6.165,2.069l0.057,6.5L154.599,55.138z"/>
			</g>
			<circle fill="#095069" cx="58.707" cy="52.673" r="69.379"/>
		</g>
		<g opacity="0.4" enable-background="new    ">
			<g>
				<defs>
					<circle id="SVGID_1_" cx="58.707" cy="51.9" r="69.379"/>
				</defs>
				<clipPath id="SVGID_2_">
					<use xlink:href="#SVGID_1_"  overflow="visible"/>
				</clipPath>
				<g clip-path="url(#SVGID_2_)">
					
						<ellipse transform="matrix(0.5568 -0.8307 0.8307 0.5568 -208.4651 41.3401)" fill="#E9F7FE" cx="-65.494" cy="216.016" rx="160.977" ry="143.546"/>
					
						<ellipse transform="matrix(0.5568 -0.8307 0.8307 0.5568 -209.6069 52.6933)" fill="#CBE6F1" cx="-55.426" cy="222.763" rx="160.977" ry="143.546"/>
					
						<ellipse transform="matrix(0.5568 -0.8307 0.8307 0.5568 -211.3474 69.9583)" fill="#A0D2E7" cx="-40.118" cy="233.026" rx="160.977" ry="143.546"/>
					
						<ellipse transform="matrix(0.5568 -0.8307 0.8307 0.5568 -213.3695 90.0498)" fill="#098DBA" cx="-22.302" cy="244.967" rx="160.977" ry="143.546"/>
				</g>
			</g>
		</g>
		<path fill="#098DBA" d="M70.456,148.287c0.71-0.837,1.067-1.8,1.067-2.899c0-1.316-0.522-2.445-1.565-3.388
			c-1.043-0.945-2.302-1.423-3.781-1.423H46.06c-0.667,0.149-1.169,0.733-1.181,1.443v3.381h21.203l-17.464,4.991
			c-1.081,0.33-1.974,0.916-2.68,1.76c-0.708,0.846-1.058,1.8-1.058,2.881c0,1.355,0.522,2.51,1.563,3.46
			c1.04,0.954,2.305,1.429,3.784,1.429h19.988c0.694-0.084,1.239-0.636,1.309-1.339v-3.542H50.228l17.489-5.014
			C68.834,149.705,69.746,149.119,70.456,148.287z"/>
	</g>
	<g>
		<circle fill="#FFFFFF" stroke="#098CBA" stroke-miterlimit="10" cx="59.767" cy="57.402" r="29.661"/>
		<ellipse fill="#098DBA" cx="68.418" cy="74.74" rx="6.179" ry="3.338"/>
		<g>
			<g>
				<defs>
					<rect id="SVGID_3_" x="11.568" y="42.193" width="15.476" height="44.87"/>
				</defs>
				<clipPath id="SVGID_4_">
					<use xlink:href="#SVGID_3_"  overflow="visible"/>
				</clipPath>
				<circle clip-path="url(#SVGID_4_)" fill="#098DBA" cx="27.017" cy="57.685" r="10.505"/>
			</g>
		</g>
		<g>
			<g>
				<defs>
					<rect id="SVGID_5_" x="93.458" y="27.216" width="15.476" height="44.87"/>
				</defs>
				<clipPath id="SVGID_6_">
					<use xlink:href="#SVGID_5_"  overflow="visible"/>
				</clipPath>
				<circle clip-path="url(#SVGID_6_)" fill="#098DBA" cx="93.486" cy="56.595" r="10.505"/>
			</g>
		</g>
		<path fill="none" stroke="#098CBA" stroke-miterlimit="10" d="M68.418,74.371c0,0,16.951,2.327,21.01,0s8.651-13.122,8.651-13.122
			"/>
		<g>
			<g>
				<defs>
					<rect id="SVGID_7_" x="8.479" y="16.736" width="100.456" height="46.648"/>
				</defs>
				<clipPath id="SVGID_8_">
					<use xlink:href="#SVGID_7_"  overflow="visible"/>
				</clipPath>
				<path clip-path="url(#SVGID_8_)" fill="none" stroke="#098CBA" stroke-miterlimit="10" d="M96.862,64.807
					c0,16.381-13.28,29.661-29.661,29.661H54.204c-16.381,0-29.661-13.28-29.661-29.661V51.809c0-16.381,13.28-29.661,29.661-29.661
					h12.997c16.381,0,29.661,13.28,29.661,29.661V64.807z"/>
			</g>
		</g>
		<g>
			<path fill="#098DBA" d="M45.901,56.631c0-1.052,0.884-1.936,1.936-1.936c1.052,0,1.936,0.884,1.936,1.936
				s-0.884,1.936-1.936,1.936C46.786,58.567,45.901,57.685,45.901,56.631z"/>
			<path fill="#098DBA" d="M69.734,56.631c0-1.052,0.884-1.936,1.936-1.936c1.052,0,1.936,0.884,1.936,1.936
				s-0.884,1.936-1.936,1.936S69.734,57.685,69.734,56.631z"/>
		</g>
	</g>
	<g>
		<circle opacity="0.1" fill="#FFFFFF" enable-background="new    " cx="39.662" cy="5.709" r="7.201"/>
		<circle fill="#FFFFFF" cx="39.662" cy="5.709" r="1.352"/>
	</g>
	<g>
		<circle opacity="0.1" fill="#FFFFFF" enable-background="new    " cx="20.069" cy="28.135" r="4.912"/>
		<circle fill="#FFFFFF" cx="19.888" cy="27.954" r="1.352"/>
	</g>
	<g>
		<circle opacity="0.1" fill="#FFFFFF" enable-background="new    " cx="89.277" cy="97.344" r="4.912"/>
		<circle fill="#FFFFFF" cx="89.096" cy="97.161" r="1.352"/>
	</g>
	<g>
		<circle opacity="0.1" fill="#FFFFFF" enable-background="new    " cx="57.537" cy="11.225" r="3.879"/>
		<circle fill="#FFFFFF" cx="57.393" cy="11.082" r="1.067"/>
	</g>
</g>
<g display="none">
	<g display="inline">
		<g>
			<circle opacity="0.5" fill="#738083" enable-background="new    " cx="57.7" cy="56.771" r="55.881"/>
			<circle fill="#0B5068" stroke="#098CBA" stroke-width="3" stroke-miterlimit="10" cx="57.924" cy="54.738" r="52.832"/>
			<circle fill="#FFFFFF" stroke="#098CBA" stroke-width="2" stroke-miterlimit="10" cx="57.924" cy="54.738" r="34.104"/>
			<g>
				<path fill="#FEFFFF" d="M21.782,32.381l2.805,0.584l-2.619,1.179l0.305,2.848l-1.921-2.121l-2.623,1.164l1.431-2.489
					l-1.931-2.125l2.814,0.589l1.43-2.489L21.782,32.381z"/>
				<path fill="#FEFFFF" d="M25.235,26.216c-1.44-1.447-1.321-3.506,0.09-4.911c1.027-1.02,2.175-1.06,3.093-0.797l-0.439,1.273
					c-0.574-0.184-1.296-0.067-1.773,0.408c-0.858,0.853-0.826,2.121,0.053,3.005c0.882,0.885,2.148,0.924,3.005,0.072
					c0.477-0.475,0.599-1.196,0.418-1.772l1.27-0.437c0.249,0.911,0.218,2.074-0.808,3.094
					C28.734,27.556,26.668,27.656,25.235,26.216z"/>
				<path fill="#FEFFFF" d="M30.899,20.771c-1.11-1.653-0.697-3.649,0.965-4.764c1.652-1.11,3.655-0.739,4.766,0.915
					c1.111,1.653,0.697,3.649-0.955,4.758C34.014,22.797,32.009,22.424,30.899,20.771z M35.431,17.728
					c-0.692-1.028-1.86-1.364-2.871-0.685c-1.02,0.685-1.151,1.894-0.46,2.922c0.684,1.02,1.859,1.365,2.878,0.679
					C35.99,19.965,36.115,18.748,35.431,17.728z"/>
				<path fill="#FEFFFF" d="M43.967,17.258l-4.569-2.764l1.661,3.979l-1.298,0.542l-2.548-6.1l1.334-0.558l4.426,2.652l-1.599-3.831
					l1.298-0.542l2.547,6.099L43.967,17.258z"/>
				<path fill="#FEFFFF" d="M46.243,15.462l0.515-1.241c0.559,0.373,1.355,0.623,2.246,0.425c0.763-0.17,1.045-0.588,0.962-0.965
					c-0.249-1.12-3.787,0.486-4.325-1.94c-0.239-1.074,0.491-2.169,2.009-2.505c1.026-0.227,1.945-0.107,2.713,0.341l-0.536,1.194
					c-0.63-0.367-1.375-0.435-2.031-0.289c-0.581,0.129-0.854,0.453-0.767,0.84c0.224,1.014,3.774-0.494,4.309,1.914
					c0.261,1.179-0.392,2.257-2.122,2.642C47.968,16.154,46.986,15.936,46.243,15.462z"/>
				<path fill="#FEFFFF" d="M53.047,12.331L52.874,8.37l1.427-0.062l0.171,3.922c0.039,0.921,0.602,1.532,1.621,1.487
					c1.021-0.044,1.518-0.701,1.478-1.622L57.4,8.173l1.437-0.062l0.172,3.961c0.07,1.633-0.851,2.805-2.861,2.892
					C54.137,15.052,53.117,13.965,53.047,12.331z"/>
				<path fill="#FEFFFF" d="M60.809,14.871l0.806-6.561l1.407,0.172l-0.654,5.332l2.774,0.34l-0.15,1.23L60.809,14.871z"/>
				<path fill="#FEFFFF" d="M66.969,15.849l1.311-5.209l-1.874-0.472l0.302-1.201l5.113,1.286l-0.302,1.202l-1.865-0.469
					l-1.311,5.21L66.969,15.849z"/>
				<path fill="#FEFFFF" d="M71.544,17.206l2.363-6.177l1.315,0.503l-2.364,6.176L71.544,17.206z"/>
				<path fill="#FEFFFF" d="M78.545,20.528l-0.677-5.292l-2.08,3.772l-1.231-0.679l3.189-5.783l1.266,0.699l0.676,5.11l2.002-3.633
					l1.233,0.679l-3.19,5.783L78.545,20.528z"/>
				<path fill="#FEFFFF" d="M83.034,19.427c1.335-1.606,3.401-1.613,4.893-0.373c1.05,0.873,1.27,1.958,1.151,2.875l-1.296-0.253
					c0.062-0.553-0.12-1.219-0.652-1.662c-0.93-0.773-2.188-0.621-2.985,0.338s-0.716,2.224,0.212,2.997
					c0.449,0.374,1.033,0.524,1.397,0.504l0.506-0.61l-1.341-1.113l0.786-0.945l2.421,2.014l-1.62,1.948
					c-0.999,0.148-2.032-0.08-2.946-0.84C82.068,23.066,81.705,21.026,83.034,19.427z"/>
				<path fill="#FEFFFF" d="M93.601,31.801l-1.73,2.288l0.054-2.875l-2.707-0.944l2.742-0.83l0.069-2.872l1.64,2.361l2.75-0.836
					l-1.739,2.294l1.64,2.361L93.601,31.801z"/>
			</g>
			<circle fill="#095069" cx="57.924" cy="54.738" r="30.677"/>
		</g>
		<g opacity="0.4" enable-background="new    ">
			<g>
				<defs>
					<circle id="SVGID_9_" cx="57.924" cy="54.396" r="30.677"/>
				</defs>
				<clipPath id="SVGID_10_">
					<use xlink:href="#SVGID_9_"  overflow="visible"/>
				</clipPath>
				<g clip-path="url(#SVGID_10_)">
					
						<ellipse transform="matrix(0.8391 -0.5439 0.5439 0.8391 -18.7548 49.9907)" fill="#E9F7FE" cx="75.138" cy="56.703" rx="34.401" ry="30.676"/>
					
						<ellipse transform="matrix(0.8391 -0.5439 0.5439 0.8391 -19.7101 51.1069)" fill="#CBE6F1" cx="76.547" cy="58.876" rx="34.401" ry="30.676"/>
					
						<ellipse transform="matrix(0.8391 -0.5439 0.5439 0.8391 -21.1632 52.8042)" fill="#A0D2E7" cx="78.69" cy="62.181" rx="34.401" ry="30.676"/>
					
						<ellipse transform="matrix(0.8391 -0.5439 0.5439 0.8391 -22.854 54.7788)" fill="#098DBA" cx="81.183" cy="66.027" rx="34.401" ry="30.676"/>
				</g>
			</g>
		</g>
		<g>
			<g>
				<path fill="#FFFFFF" d="M38.689,52.692c-0.55,0-1,0.45-1,1v14.793c0,0.55,0.45,1,1,1h5.779c0.55,0,1.318,0.318,1.707,0.707
					l2.478,2.478c0.389,0.389,1.025,0.389,1.414,0l2.478-2.478c0.389-0.389,1.157-0.707,1.707-0.707h5.779c0.55,0,1-0.45,1-1V53.692
					c0-0.55-0.45-1-1-1H38.689z"/>
				<path fill="none" stroke="#098CBA" stroke-miterlimit="10" d="M38.689,52.692c-0.55,0-1,0.45-1,1v14.793c0,0.55,0.45,1,1,1
					h5.779c0.55,0,1.318,0.318,1.707,0.707l2.478,2.478c0.389,0.389,1.025,0.389,1.414,0l2.478-2.478
					c0.389-0.389,1.157-0.707,1.707-0.707h5.779c0.55,0,1-0.45,1-1V53.692c0-0.55-0.45-1-1-1H38.689z"/>
			</g>
			<g>
				<path fill="#098DBA" d="M48.48,61.448c0-1.248,1.555-1.395,1.555-2.125c0-0.328-0.254-0.603-0.836-0.603
					c-0.528,0-0.972,0.254-1.3,0.656l-0.857-0.962c0.56-0.666,1.407-1.026,2.316-1.026c1.364,0,2.199,0.687,2.199,1.67
					c0,1.544-1.765,1.66-1.765,2.548c0,0.169,0.084,0.349,0.201,0.444l-1.163,0.338C48.607,62.146,48.48,61.818,48.48,61.448z
					 M48.48,63.806c0-0.465,0.392-0.856,0.857-0.856s0.856,0.391,0.856,0.856c0,0.465-0.391,0.856-0.856,0.856
					S48.48,64.271,48.48,63.806z"/>
			</g>
			<g>
				<path fill="#FFFFFF" d="M55.146,40.164c-0.55,0-1,0.45-1,1v14.793c0,0.55,0.45,1,1,1h5.779c0.55,0,1.318,0.318,1.707,0.707
					l2.478,2.478c0.389,0.389,1.025,0.389,1.414,0l2.478-2.478c0.389-0.389,1.157-0.707,1.707-0.707h5.779c0.55,0,1-0.45,1-1V41.164
					c0-0.55-0.45-1-1-1H55.146z"/>
				<path fill="none" stroke="#098CBA" stroke-miterlimit="10" d="M55.146,40.164c-0.55,0-1,0.45-1,1v14.793c0,0.55,0.45,1,1,1
					h5.779c0.55,0,1.318,0.318,1.707,0.707l2.478,2.478c0.389,0.389,1.025,0.389,1.414,0l2.478-2.478
					c0.389-0.389,1.157-0.707,1.707-0.707h5.779c0.55,0,1-0.45,1-1V41.164c0-0.55-0.45-1-1-1H55.146z"/>
			</g>
			<g>
				<path fill="#098DBA" d="M61.442,49.766c0-0.465,0.391-0.856,0.856-0.856s0.856,0.391,0.856,0.856s-0.391,0.856-0.856,0.856
					S61.442,50.231,61.442,49.766z"/>
				<path fill="#098DBA" d="M64.954,49.766c0-0.465,0.391-0.856,0.856-0.856c0.465,0,0.856,0.391,0.856,0.856
					s-0.391,0.856-0.856,0.856C65.345,50.622,64.954,50.231,64.954,49.766z"/>
				<path fill="#098DBA" d="M68.467,49.766c0-0.465,0.391-0.856,0.856-0.856c0.465,0,0.856,0.391,0.856,0.856
					s-0.391,0.856-0.856,0.856C68.857,50.622,68.467,50.231,68.467,49.766z"/>
			</g>
		</g>
		<path fill="#098DBA" d="M63.119,97.015c0.314-0.37,0.472-0.796,0.472-1.282c0-0.582-0.231-1.081-0.692-1.498
			c-0.461-0.418-1.018-0.629-1.672-0.629h-8.895c-0.295,0.066-0.517,0.324-0.522,0.638v1.495h9.375l-7.722,2.207
			c-0.478,0.146-0.873,0.405-1.185,0.778c-0.313,0.374-0.468,0.796-0.468,1.274c0,0.599,0.231,1.11,0.691,1.53
			c0.46,0.422,1.019,0.632,1.673,0.632h8.838c0.307-0.037,0.548-0.281,0.579-0.592v-1.566h-9.416l7.733-2.217
			C62.402,97.642,62.805,97.383,63.119,97.015z"/>
	</g>
	<g display="inline">
		<circle opacity="0.1" fill="#FFFFFF" enable-background="new    " cx="41.501" cy="38.086" r="2.172"/>
		<circle fill="#FFFFFF" cx="41.421" cy="38.006" r="0.598"/>
	</g>
	<g display="inline">
		<circle opacity="0.1" fill="#FFFFFF" enable-background="new    " cx="37.462" cy="46.497" r="1.251"/>
		<circle fill="#FFFFFF" cx="37.415" cy="46.451" r="0.344"/>
	</g>
</g>
<g display="none">
	<g display="inline">
		<g>
			<circle opacity="0.5" fill="#738083" enable-background="new    " cx="57.7" cy="56.771" r="55.881"/>
			<circle fill="#0B5068" stroke="#098CBA" stroke-width="3" stroke-miterlimit="10" cx="57.924" cy="54.738" r="52.832"/>
			<circle fill="#FFFFFF" stroke="#098CBA" stroke-width="2" stroke-miterlimit="10" cx="57.924" cy="54.738" r="34.104"/>
			<g>
				<path fill="#FEFFFF" d="M15.412,54.799l2.693-0.983L16.501,56.2l1.762,2.26l-2.753-0.79l-1.615,2.375l-0.097-2.872l-2.763-0.788
					l2.702-0.985l-0.097-2.87L15.412,54.799z"/>
				<path fill="#FEFFFF" d="M18.384,48.165l-6.437-1.479l0.692-3.011c0.322-1.4,1.443-1.945,2.572-1.685
					c1.12,0.257,1.887,1.246,1.568,2.636l-0.377,1.641l2.297,0.528L18.384,48.165z M14.889,43.388
					c-0.541-0.124-0.964,0.216-1.089,0.756l-0.332,1.448l1.728,0.397l0.332-1.448C15.653,44.002,15.42,43.511,14.889,43.388z"/>
				<path fill="#FEFFFF" d="M21.45,38.263l-2.668,0.294l-0.396,0.953l2.168,0.903l-0.541,1.299l-6.102-2.542l1.189-2.855
					c0.53-1.271,1.691-1.711,2.825-1.239c1.07,0.446,1.369,1.376,1.25,2.099l2.9-0.414L21.45,38.263z M17.359,36.407
					c-0.503-0.209-0.978,0.054-1.192,0.567l-0.572,1.372l1.647,0.686l0.572-1.372C18.028,37.147,17.88,36.624,17.359,36.407z"/>
				<path fill="#FEFFFF" d="M19.796,33.932c-1.664-1.092-2.057-3.091-0.96-4.764c1.093-1.663,3.083-2.099,4.748-1.006
					c1.664,1.092,2.057,3.092,0.965,4.756C23.451,34.59,21.46,35.025,19.796,33.932z M22.79,29.37
					c-1.035-0.679-2.242-0.536-2.911,0.482c-0.674,1.027-0.325,2.192,0.709,2.871c1.027,0.674,2.243,0.536,2.917-0.49
					C24.174,31.214,23.817,30.044,22.79,29.37z"/>
				<path fill="#FEFFFF" d="M28.224,27.964l-3.917-3.669l-1.319,1.409l-0.903-0.846l3.602-3.845l0.903,0.846l-1.313,1.402
					l3.916,3.669L28.224,27.964z"/>
				<path fill="#FEFFFF" d="M29.07,22.309c-1.202-1.588-0.901-3.604,0.695-4.812c1.588-1.202,3.611-0.942,4.812,0.646
					c1.201,1.589,0.9,3.605-0.687,4.807C32.294,24.157,30.272,23.898,29.07,22.309z M33.424,19.016
					c-0.747-0.987-1.933-1.258-2.906-0.524c-0.979,0.742-1.042,1.957-0.295,2.945c0.741,0.98,1.933,1.258,2.913,0.517
					C34.108,21.218,34.165,19.995,33.424,19.016z"/>
				<path fill="#FEFFFF" d="M39.006,19.528l-2.451-4.779l-1.719,0.882l-0.565-1.102l4.69-2.406l0.565,1.103l-1.711,0.877
					l2.451,4.778L39.006,19.528z"/>
				<path fill="#FEFFFF" d="M44.991,16.931l-0.822-2.576l-3.602-2.947l1.528-0.488l2.361,2.022l0.752-3.016l1.519-0.485l-1.22,4.485
					l0.823,2.576L44.991,16.931z"/>
				<path fill="#FEFFFF" d="M49.782,15.558l-0.934-6.54l3.059-0.437c1.422-0.203,2.334,0.648,2.497,1.795
					c0.162,1.137-0.485,2.211-1.897,2.412l-1.667,0.237l0.334,2.334L49.782,15.558z M52.983,10.579
					c-0.079-0.549-0.548-0.822-1.097-0.744l-1.471,0.21l0.25,1.756l1.471-0.21C52.686,11.512,53.06,11.118,52.983,10.579z"/>
				<path fill="#FEFFFF" d="M56.423,14.774l0.13-6.605l4.674,0.091l-0.023,1.239l-3.269-0.065l-0.027,1.387l3.199,0.062
					l-0.025,1.238l-3.199-0.063l-0.029,1.505l3.268,0.064l-0.023,1.239L56.423,14.774z"/>
				<path fill="#FEFFFF" d="M70.111,16.692l0.745-2.68l-3.004-0.835l-0.745,2.68l-1.354-0.377l1.77-6.361l1.353,0.376l-0.694,2.5
					l3.004,0.836l0.694-2.5l1.364,0.38l-1.768,6.361L70.111,16.692z"/>
				<path fill="#FEFFFF" d="M74.274,14.583c0.895-1.776,2.837-2.394,4.622-1.495c1.778,0.895,2.436,2.824,1.541,4.601
					c-0.895,1.778-2.837,2.395-4.614,1.5C74.037,18.289,73.379,16.361,74.274,14.583z M79.146,17.039
					c0.557-1.106,0.277-2.289-0.811-2.836c-1.096-0.553-2.214-0.074-2.77,1.032c-0.553,1.097-0.278,2.288,0.819,2.84
					C77.472,18.623,78.593,18.135,79.146,17.039z"/>
				<path fill="#FEFFFF" d="M80.331,20.475l1.28-0.411c0.078,0.669,0.404,1.437,1.131,1.988c0.624,0.472,1.126,0.417,1.359,0.109
					c0.693-0.917-2.825-2.574-1.324-4.558c0.664-0.877,1.973-1.029,3.214-0.09c0.837,0.633,1.342,1.413,1.498,2.289l-1.258,0.366
					c-0.128-0.719-0.56-1.331-1.096-1.737c-0.475-0.36-0.899-0.358-1.138-0.041c-0.628,0.829,2.823,2.559,1.334,4.527
					c-0.729,0.964-1.976,1.164-3.39,0.094C80.923,22.24,80.453,21.349,80.331,20.475z"/>
				<path fill="#FEFFFF" d="M86.096,26.484l3.807-3.787l-1.362-1.369l0.878-0.873l3.716,3.737l-0.877,0.873l-1.355-1.363
					l-3.808,3.786L86.096,26.484z"/>
				<path fill="#FEFFFF" d="M89.284,30.053l5.255-4.003l0.852,1.119l-5.255,4.003L89.284,30.053z"/>
				<path fill="#FEFFFF" d="M93.508,36.594l2.212-4.858l-3.755,2.113l-0.69-1.226l5.76-3.239l0.709,1.261l-2.119,4.702l3.619-2.035
					l0.689,1.227l-5.759,3.239L93.508,36.594z"/>
				<path fill="#FEFFFF" d="M97.896,38.015c1.981-0.662,3.741,0.422,4.355,2.263c0.431,1.295,0.046,2.331-0.539,3.048l-0.967-0.898
					c0.344-0.438,0.542-1.099,0.323-1.756c-0.383-1.146-1.532-1.682-2.715-1.287c-1.183,0.394-1.781,1.512-1.399,2.657
					c0.185,0.554,0.601,0.99,0.921,1.165l0.751-0.251l-0.551-1.652l1.164-0.388l0.996,2.986l-2.404,0.802
					c-0.927-0.402-1.684-1.14-2.06-2.267C95.157,40.597,95.924,38.673,97.896,38.015z"/>
				<path fill="#FEFFFF" d="M100.328,54.077l-2.676,1.026l1.567-2.408l-1.797-2.232l2.764,0.745l1.577-2.399l0.142,2.869
					l2.774,0.746l-2.686,1.025l0.141,2.87L100.328,54.077z"/>
			</g>
			<circle fill="#095069" cx="57.924" cy="54.738" r="30.677"/>
		</g>
		<g opacity="0.4" enable-background="new    ">
			<g>
				<defs>
					<circle id="SVGID_11_" cx="57.924" cy="54.396" r="30.677"/>
				</defs>
				<clipPath id="SVGID_12_">
					<use xlink:href="#SVGID_11_"  overflow="visible"/>
				</clipPath>
				<g clip-path="url(#SVGID_12_)">
					
						<ellipse transform="matrix(0.5568 -0.8307 0.8307 0.5568 23.9401 80.5598)" fill="#E9F7FE" cx="87.46" cy="17.846" rx="43.441" ry="38.737"/>
					
						<ellipse transform="matrix(0.5568 -0.8307 0.8307 0.5568 23.6316 83.624)" fill="#CBE6F1" cx="90.177" cy="19.668" rx="43.441" ry="38.737"/>
					
						<ellipse transform="matrix(0.5568 -0.8307 0.8307 0.5568 23.1625 88.283)" fill="#A0D2E7" cx="94.308" cy="22.437" rx="43.441" ry="38.737"/>
					
						<ellipse transform="matrix(0.5568 -0.8307 0.8307 0.5568 22.6166 93.7053)" fill="#098DBA" cx="99.117" cy="25.659" rx="43.441" ry="38.737"/>
				</g>
			</g>
		</g>
		<path fill="#098DBA" d="M63.119,97.015c0.314-0.37,0.472-0.796,0.472-1.282c0-0.582-0.231-1.081-0.692-1.498
			c-0.461-0.418-1.018-0.629-1.672-0.629h-8.895c-0.295,0.066-0.517,0.324-0.522,0.638v1.495h9.375l-7.722,2.207
			c-0.478,0.146-0.873,0.405-1.185,0.778c-0.313,0.374-0.468,0.796-0.468,1.274c0,0.599,0.231,1.11,0.691,1.53
			c0.46,0.422,1.019,0.632,1.673,0.632h8.838c0.307-0.037,0.548-0.281,0.579-0.592v-1.566h-9.416l7.733-2.217
			C62.402,97.642,62.805,97.383,63.119,97.015z"/>
	</g>
	<g display="inline">
		<circle opacity="0.1" fill="#FFFFFF" enable-background="new    " cx="34.202" cy="50.028" r="3.184"/>
		<circle fill="#FFFFFF" cx="34.202" cy="50.028" r="0.598"/>
	</g>
	<g display="inline">
		<circle opacity="0.1" fill="#FFFFFF" enable-background="new    " cx="40.84" cy="43.551" r="2.172"/>
		<circle fill="#FFFFFF" cx="40.76" cy="43.47" r="0.598"/>
	</g>
	<g display="inline">
		<circle opacity="0.1" fill="#FFFFFF" enable-background="new    " cx="62.698" cy="71.966" r="2.172"/>
		<circle fill="#FFFFFF" cx="62.618" cy="71.886" r="0.598"/>
	</g>
	<g display="inline">
		<circle opacity="0.1" fill="#FFFFFF" enable-background="new    " cx="58.499" cy="78.697" r="1.715"/>
		<circle fill="#FFFFFF" cx="58.436" cy="78.633" r="0.472"/>
	</g>
	<g display="inline">
		<g>
			<g>
				<g>
					<defs>
						<rect id="SVGID_13_" x="34.086" y="37.129" width="48.208" height="27.312"/>
					</defs>
					<clipPath id="SVGID_14_">
						<use xlink:href="#SVGID_13_"  overflow="visible"/>
					</clipPath>
					<g clip-path="url(#SVGID_14_)">
						
							<ellipse fill="#FFFFFF" stroke="#098CBA" stroke-width="1.5" stroke-miterlimit="10" cx="44.087" cy="61.745" rx="6.252" ry="6.837"/>
						
							<ellipse fill="#FFFFFF" stroke="#098CBA" stroke-width="1.5" stroke-miterlimit="10" cx="60.493" cy="55.281" rx="14.732" ry="16.11"/>
						
							<ellipse fill="#FFFFFF" stroke="#098CBA" stroke-width="1.5" stroke-miterlimit="10" cx="75.163" cy="62.549" rx="3.984" ry="4.356"/>
						
							<ellipse fill="#FFFFFF" stroke="#098CBA" stroke-width="1.5" stroke-miterlimit="10" cx="45.761" cy="55.517" rx="3.945" ry="4.314"/>
					</g>
				</g>
			</g>
			<line fill="none" stroke="#098CBA" stroke-width="2" stroke-miterlimit="10" x1="37.071" y1="65.265" x2="80.15" y2="65.265"/>
		</g>
		<g>
			<g>
				<defs>
					<rect id="SVGID_15_" x="34.779" y="38.689" width="46.695" height="26.455"/>
				</defs>
				<clipPath id="SVGID_16_">
					<use xlink:href="#SVGID_15_"  overflow="visible"/>
				</clipPath>
				<g clip-path="url(#SVGID_16_)">
					<ellipse fill="#FFFFFF" cx="44.466" cy="62.533" rx="6.055" ry="6.622"/>
					<ellipse fill="#FFFFFF" cx="60.356" cy="56.272" rx="14.27" ry="15.605"/>
					<ellipse fill="#FFFFFF" cx="74.566" cy="63.311" rx="3.859" ry="4.22"/>
					<ellipse fill="#FFFFFF" cx="46.087" cy="56.5" rx="3.821" ry="4.178"/>
				</g>
			</g>
		</g>
		<g>
			<rect x="52.554" y="58.828" fill="#A0D2E7" width="4.315" height="4.03"/>
			<rect x="58.208" y="58.828" fill="#A0D2E7" width="4.315" height="4.03"/>
			<rect x="63.755" y="58.828" fill="#A0D2E7" width="4.315" height="4.03"/>
			<rect x="52.554" y="50.728" fill="#A0D2E7" width="15.516" height="6.808"/>
			<rect x="52.608" y="47.532" fill="#A0D2E7" width="4.261" height="2.018"/>
			<rect x="58.208" y="47.532" fill="#A0D2E7" width="9.862" height="2.018"/>
		</g>
	</g>
	<g display="inline">
		<circle opacity="0.1" fill="#FFFFFF" enable-background="new    " cx="51.942" cy="76.511" r="1.715"/>
		<circle fill="#FFFFFF" cx="51.879" cy="76.447" r="0.472"/>
	</g>
</g>
<g display="none">
	<g display="inline">
		<g>
			<circle opacity="0.5" fill="#738083" enable-background="new    " cx="57.7" cy="56.771" r="55.881"/>
			<circle fill="#0B5068" stroke="#098CBA" stroke-width="3" stroke-miterlimit="10" cx="57.924" cy="54.738" r="52.832"/>
			<circle fill="#FFFFFF" stroke="#098CBA" stroke-width="2" stroke-miterlimit="10" cx="57.924" cy="54.738" r="34.104"/>
			<g>
				<path fill="#FEFFFF" d="M15.484,57.249l2.631-1.137l-1.464,2.473l1.888,2.155l-2.794-0.63l-1.475,2.464l-0.263-2.861
					l-2.803-0.629l2.642-1.137l-0.261-2.861L15.484,57.249z"/>
				<path fill="#FEFFFF" d="M14.744,50.233c-2.01-0.355-3.099-2.108-2.753-4.068c0.252-1.424,1.169-2.117,2.069-2.431l0.376,1.294
					c-0.575,0.18-1.099,0.691-1.216,1.354c-0.21,1.191,0.545,2.21,1.774,2.426c1.23,0.217,2.288-0.481,2.499-1.671
					c0.117-0.663-0.199-1.322-0.677-1.689l0.786-1.088c0.728,0.601,1.373,1.571,1.12,2.995
					C18.376,49.315,16.743,50.586,14.744,50.233z"/>
				<path fill="#FEFFFF" d="M16.239,42.489c-1.861-0.711-2.674-2.583-1.958-4.453c0.712-1.861,2.566-2.713,4.428-2.001
					c1.861,0.712,2.673,2.583,1.961,4.445C19.954,42.35,18.1,43.202,16.239,42.489z M18.191,37.388
					c-1.157-0.443-2.308-0.045-2.743,1.095c-0.44,1.148,0.151,2.212,1.308,2.655c1.149,0.44,2.308,0.045,2.747-1.103
					C19.939,38.895,19.339,37.827,18.191,37.388z"/>
				<path fill="#FEFFFF" d="M24.447,32.823l-2.68-0.125l-0.54,0.877l2,1.231l-0.737,1.197l-5.627-3.461l1.619-2.633
					c0.722-1.172,1.936-1.426,2.982-0.782c0.987,0.607,1.138,1.573,0.908,2.268l2.927,0.044L24.447,32.823z M20.698,30.354
					c-0.464-0.285-0.974-0.099-1.265,0.374l-0.779,1.265l1.518,0.934l0.779-1.265C21.242,31.189,21.178,30.65,20.698,30.354z"/>
				<path fill="#FEFFFF" d="M26.216,30.252l-4.964-4.36l2.04-2.322c0.948-1.079,2.194-1.027,3.065-0.261
					c0.863,0.758,1.07,1.995,0.128,3.066l-1.112,1.266l1.772,1.556L26.216,30.252z M25.409,24.387
					c-0.417-0.366-0.951-0.268-1.318,0.149l-0.981,1.116l1.333,1.171l0.981-1.116C25.791,25.289,25.818,24.747,25.409,24.387z"/>
				<path fill="#FEFFFF" d="M28.36,22.957c-1.235-1.56-0.979-3.582,0.589-4.823c1.56-1.235,3.587-1.02,4.822,0.54
					c1.235,1.56,0.979,3.582-0.581,4.817C31.622,24.732,29.595,24.518,28.36,22.957z M32.638,19.571
					c-0.768-0.971-1.96-1.215-2.914-0.459c-0.963,0.762-0.998,1.978-0.231,2.947c0.763,0.963,1.96,1.215,2.922,0.453
					C33.371,21.757,33.4,20.534,32.638,19.571z"/>
				<path fill="#FEFFFF" d="M40.368,18.811l-2.243-1.474l-0.911,0.48l1.093,2.079l-1.246,0.656l-3.079-5.85l2.737-1.44
					c1.219-0.642,2.393-0.24,2.965,0.847c0.541,1.026,0.178,1.933-0.375,2.414l2.497,1.532L40.368,18.811z M38.401,14.774
					c-0.254-0.483-0.788-0.582-1.28-0.324l-1.315,0.693l0.831,1.58l1.315-0.693C38.443,15.77,38.663,15.273,38.401,14.774z"/>
				<path fill="#FEFFFF" d="M47.492,16.133l-0.736-0.942l-2.702,0.858l-0.058,1.193l-1.52,0.483l0.427-7.072l1.681-0.534
					l4.429,5.531L47.492,16.133z M44.169,11.728l-0.122,3.024l1.965-0.624L44.169,11.728z"/>
				<path fill="#FEFFFF" d="M50.997,15.397l-0.822-5.303l-1.908,0.296l-0.19-1.223l5.205-0.808l0.189,1.223l-1.898,0.294
					l0.823,5.303L50.997,15.397z"/>
				<path fill="#FEFFFF" d="M55.705,14.808l0.019-6.607L60.4,8.215l-0.003,1.239l-3.27-0.01l-0.004,1.386l3.2,0.01l-0.004,1.238
					l-3.2-0.009l-0.005,1.506l3.27,0.01l-0.004,1.239L55.705,14.808z"/>
				<path fill="#FEFFFF" d="M66.529,15.748l1.246-5.224l-1.879-0.448l0.288-1.205l5.127,1.224l-0.288,1.204l-1.87-0.446
					l-1.247,5.224L66.529,15.748z"/>
				<path fill="#FEFFFF" d="M74.522,18.412l-0.284-2.669l-0.951-0.4l-0.911,2.166l-1.298-0.548l2.566-6.093l2.851,1.2
					c1.27,0.535,1.705,1.697,1.228,2.83c-0.45,1.068-1.382,1.365-2.104,1.243l0.401,2.901L74.522,18.412z M76.393,14.327
					c0.211-0.502-0.05-0.978-0.562-1.194l-1.371-0.577l-0.692,1.645l1.371,0.577C75.65,14.994,76.174,14.849,76.393,14.327z"/>
				<path fill="#FEFFFF" d="M81.149,22.229l0.261-1.167l-2.378-1.544l-0.96,0.713l-1.338-0.869l5.738-4.159l1.48,0.961l-1.465,6.934
					L81.149,22.229z M82.446,16.865l-2.415,1.825l1.73,1.123L82.446,16.865z"/>
				<path fill="#FEFFFF" d="M83.285,23.918l4.292-5.022l1.068,0.914l-4.291,5.023L83.285,23.918z"/>
				<path fill="#FEFFFF" d="M88.792,29.408l1.127-5.221l-3.223,2.866l-0.934-1.051l4.939-4.396l0.962,1.082l-1.066,5.049
					l3.103-2.761l0.935,1.051l-4.94,4.395L88.792,29.408z"/>
				<path fill="#FEFFFF" d="M90.669,31.919l5.485-3.683l0.784,1.167l-5.485,3.684L90.669,31.919z"/>
				<path fill="#FEFFFF" d="M94.498,38.678l2.488-4.718l-3.869,1.889L92.5,34.587l5.932-2.898l0.634,1.3l-2.385,4.567l3.727-1.819
					l0.617,1.264l-5.934,2.896L94.498,38.678z"/>
				<path fill="#FEFFFF" d="M98.803,40.376c2.017-0.542,3.709,0.642,4.214,2.516c0.355,1.318-0.091,2.33-0.717,3.01l-0.913-0.953
					c0.37-0.417,0.605-1.065,0.425-1.733c-0.314-1.167-1.429-1.767-2.633-1.444c-1.204,0.324-1.867,1.405-1.553,2.57
					c0.152,0.564,0.542,1.023,0.851,1.216l0.764-0.205l-0.453-1.682l1.185-0.32l0.818,3.04l-2.447,0.658
					c-0.901-0.454-1.614-1.236-1.922-2.383C95.918,42.794,96.796,40.917,98.803,40.376z"/>
				<path fill="#FEFFFF" d="M100.301,56.557l-2.731,0.87l1.702-2.314l-1.666-2.331l2.717,0.903l1.712-2.305l-0.022,2.872
					l2.726,0.903l-2.74,0.87l-0.022,2.873L100.301,56.557z"/>
			</g>
			<circle fill="#095069" cx="57.924" cy="54.738" r="30.677"/>
		</g>
		<g opacity="0.4" enable-background="new    ">
			<g>
				<defs>
					<circle id="SVGID_17_" cx="57.924" cy="54.396" r="30.677"/>
				</defs>
				<clipPath id="SVGID_18_">
					<use xlink:href="#SVGID_17_"  overflow="visible"/>
				</clipPath>
				<g clip-path="url(#SVGID_18_)">
					
						<ellipse transform="matrix(0.94 0.3413 -0.3413 0.94 32.6837 -32.1301)" fill="#E9F7FE" cx="107.66" cy="76.826" rx="43.441" ry="38.737"/>
					
						<ellipse transform="matrix(0.94 0.3413 -0.3413 0.94 33.6659 -31.5647)" fill="#CBE6F1" cx="106.544" cy="79.901" rx="43.441" ry="38.737"/>
					
						<ellipse transform="matrix(0.94 0.3413 -0.3413 0.94 35.1595 -30.7047)" fill="#A0D2E7" cx="104.847" cy="84.576" rx="43.441" ry="38.737"/>
					
						<ellipse transform="matrix(0.94 0.3413 -0.3413 0.94 36.8973 -29.704)" fill="#098DBA" cx="102.872" cy="90.015" rx="43.441" ry="38.737"/>
				</g>
			</g>
		</g>
		<path fill="#098DBA" d="M63.119,97.015c0.314-0.37,0.472-0.796,0.472-1.282c0-0.582-0.231-1.081-0.692-1.498
			c-0.461-0.418-1.018-0.629-1.672-0.629h-8.895c-0.295,0.066-0.517,0.324-0.522,0.638v1.495h9.375l-7.722,2.207
			c-0.478,0.146-0.873,0.405-1.185,0.778c-0.313,0.374-0.468,0.796-0.468,1.274c0,0.599,0.231,1.11,0.691,1.53
			c0.46,0.422,1.019,0.632,1.673,0.632h8.838c0.307-0.037,0.548-0.281,0.579-0.592v-1.566h-9.416l7.733-2.217
			C62.402,97.642,62.805,97.383,63.119,97.015z"/>
	</g>
	<g display="inline">
		<circle opacity="0.1" fill="#FFFFFF" enable-background="new    " cx="34.202" cy="50.028" r="3.184"/>
		<circle fill="#FFFFFF" cx="34.202" cy="50.028" r="0.598"/>
	</g>
	<g display="inline">
		<circle opacity="0.1" fill="#FFFFFF" enable-background="new    " cx="40.84" cy="43.551" r="2.172"/>
		<circle fill="#FFFFFF" cx="40.76" cy="43.47" r="0.598"/>
	</g>
	<g display="inline">
		<g>
			<path fill="#FFFFFF" d="M74.253,61.721c0,0.55-0.45,1-1,1h-27.13c-0.55,0-1-0.45-1-1V42.13c0-0.55,0.45-1,1-1h27.13
				c0.55,0,1,0.45,1,1V61.721z"/>
			<path fill="none" stroke="#098CBA" stroke-width="1.5" stroke-miterlimit="10" d="M74.253,61.721c0,0.55-0.45,1-1,1h-27.13
				c-0.55,0-1-0.45-1-1V42.13c0-0.55,0.45-1,1-1h27.13c0.55,0,1,0.45,1,1V61.721z"/>
		</g>
		<circle fill="#098DBA" cx="42.626" cy="56.017" r="5.24"/>
		<g>
			<path fill="#098DBA" d="M48.051,69.928c0,1.65-1.35,3-3,3h-4.468c-1.65,0-3-1.35-3-3v-6.563c0-1.65,1.35-3,3-3h4.468
				c1.65,0,3,1.35,3,3V69.928z"/>
		</g>
		<rect x="61.194" y="45.5" fill="#098DBA" width="9.632" height="0.685"/>
		<rect x="61.194" y="48.423" fill="#098DBA" width="9.632" height="0.685"/>
		<rect x="48.051" y="45.5" fill="#A0D2E7" width="11.637" height="12.703"/>
		<rect x="61.194" y="51.583" fill="#098DBA" width="9.632" height="0.685"/>
		
			<rect x="48.638" y="55.58" transform="matrix(-0.4241 0.9056 -0.9056 -0.4241 126.8538 31.3669)" fill="#098DBA" width="9.632" height="0.876"/>
		<g>
			<path fill="#098DBA" d="M51.07,59.654c-0.594-0.926-1.837-1.198-2.763-0.605l-2.991,1.916c-0.926,0.594-1.198,1.837-0.605,2.763
				l0.256,0.4c0.594,0.926,1.837,1.198,2.763,0.605l2.991-1.916c0.926-0.594,1.198-1.837,0.605-2.763L51.07,59.654z"/>
		</g>
		<rect x="61.194" y="54.586" fill="#098DBA" width="9.632" height="0.685"/>
		<rect x="61.194" y="57.509" fill="#098DBA" width="9.632" height="0.685"/>
		<circle fill="#098DBA" cx="52.553" cy="58.998" r="2.519"/>
	</g>
	<g display="inline">
		<circle opacity="0.1" fill="#FFFFFF" enable-background="new    " cx="66.989" cy="32.541" r="3.184"/>
		<circle fill="#FFFFFF" cx="66.989" cy="32.541" r="0.598"/>
	</g>
</g>
</svg>
