<?xml version="1.0" encoding="utf-8"?>
<!-- Generator: Adobe Illustrator 17.0.0, SVG Export Plug-In . SVG Version: 6.00 Build 0)  -->
<!DOCTYPE svg PUBLIC "-//W3C//DTD SVG 1.1//EN" "http://www.w3.org/Graphics/SVG/1.1/DTD/svg11.dtd">
<svg version="1.1" id="Layer_1" xmlns="http://www.w3.org/2000/svg" xmlns:xlink="http://www.w3.org/1999/xlink" x="0px" y="0px"
	 width="253px" height="253px" viewBox="-69 -69 253 253" enable-background="new -69 -69 253 253" xml:space="preserve">
<g display="none">
	<g display="inline">
		<g>
			<circle opacity="0.5" fill="#738083" enable-background="new    " cx="57.7" cy="56.771" r="55.881"/>
			<circle fill="#0B5068" stroke="#098CBA" stroke-width="3" stroke-miterlimit="10" cx="57.924" cy="54.738" r="52.832"/>
			<circle fill="#FFFFFF" stroke="#098CBA" stroke-width="2" stroke-miterlimit="10" cx="57.924" cy="54.738" r="34.104"/>
			<g>
				<path fill="#FEFFFF" d="M15.445,56.515l2.652-1.093l-1.507,2.449l1.853,2.187l-2.783-0.676l-1.518,2.439l-0.213-2.867
					l-2.795-0.677l2.662-1.093l-0.214-2.868L15.445,56.515z"/>
				<path fill="#FEFFFF" d="M14.833,49.455c-2.002-0.392-3.058-2.162-2.676-4.115c0.278-1.418,1.207-2.094,2.113-2.391l0.351,1.3
					c-0.578,0.169-1.11,0.67-1.24,1.331c-0.232,1.185,0.504,2.217,1.729,2.457c1.224,0.24,2.295-0.439,2.527-1.624
					c0.13-0.661-0.174-1.325-0.645-1.7l0.805-1.073c0.717,0.614,1.342,1.593,1.064,3.012C18.48,48.605,16.825,49.845,14.833,49.455z
					"/>
				<path fill="#FEFFFF" d="M16.463,41.764c-1.846-0.745-2.624-2.629-1.875-4.485c0.745-1.846,2.612-2.663,4.459-1.918
					c1.846,0.745,2.624,2.629,1.879,4.476C20.176,41.692,18.309,42.509,16.463,41.764z M18.505,36.703
					c-1.148-0.464-2.305-0.086-2.761,1.043c-0.459,1.139,0.111,2.214,1.259,2.677c1.139,0.46,2.304,0.086,2.764-1.053
					C20.224,38.24,19.644,37.163,18.505,36.703z"/>
				<path fill="#FEFFFF" d="M24.843,32.228l-2.679-0.172l-0.555,0.869l1.979,1.266l-0.758,1.186l-5.57-3.563l1.666-2.606
					c0.742-1.161,1.962-1.393,2.997-0.731c0.977,0.625,1.112,1.593,0.869,2.286l2.928,0.095L24.843,32.228z M21.135,29.69
					c-0.459-0.293-0.973-0.116-1.272,0.352l-0.802,1.252l1.504,0.962l0.801-1.252C21.666,30.536,21.611,29.995,21.135,29.69z"/>
				<path fill="#FEFFFF" d="M26.633,29.728l-4.892-4.446l2.08-2.288c0.966-1.064,2.212-0.99,3.07-0.21
					c0.851,0.772,1.037,2.013,0.077,3.069L25.833,27.1l1.746,1.587L26.633,29.728z M25.923,23.846
					c-0.411-0.373-0.947-0.284-1.32,0.126l-1,1.1l1.314,1.194l0.999-1.1C26.29,24.756,26.327,24.214,25.923,23.846z"/>
				<path fill="#FEFFFF" d="M28.92,22.445c-1.207-1.584-0.913-3.6,0.679-4.812c1.583-1.207,3.605-0.955,4.812,0.629
					c1.207,1.583,0.913,3.599-0.67,4.807C32.149,24.28,30.126,24.028,28.92,22.445z M33.262,19.138
					c-0.751-0.986-1.937-1.251-2.906-0.513c-0.977,0.744-1.035,1.959-0.285,2.944c0.744,0.978,1.937,1.251,2.914,0.507
					C33.953,21.337,34.005,20.114,33.262,19.138z"/>
				<path fill="#FEFFFF" d="M40.98,18.522l-2.216-1.513l-0.921,0.463L38.9,19.57l-1.257,0.633L34.668,14.3l2.762-1.392
					c1.23-0.62,2.397-0.199,2.95,0.899c0.522,1.036,0.145,1.937-0.417,2.409l2.469,1.574L40.98,18.522z M39.084,14.45
					c-0.245-0.487-0.778-0.596-1.273-0.345l-1.327,0.669l0.803,1.593l1.327-0.67C39.109,15.447,39.338,14.955,39.084,14.45z"/>
				<path fill="#FEFFFF" d="M48.191,15.948l-0.719-0.954l-2.714,0.811l-0.079,1.191l-1.528,0.457l0.549-7.059l1.69-0.504
					l4.329,5.603L48.191,15.948z M44.947,11.489l-0.173,3.018l1.974-0.589L44.947,11.489z"/>
				<path fill="#FEFFFF" d="M51.679,15.285l-0.733-5.313l-1.912,0.263L48.865,9.01l5.216-0.72l0.169,1.225l-1.902,0.263l0.733,5.313
					L51.679,15.285z"/>
				<path fill="#FEFFFF" d="M56.364,14.777l0.114-6.606l4.675,0.081L61.131,9.49l-3.268-0.057l-0.024,1.387l3.199,0.055
					l-0.021,1.238l-3.199-0.055l-0.026,1.505l3.269,0.057l-0.021,1.238L56.364,14.777z"/>
				<path fill="#FEFFFF" d="M65.522,14.503l1.024-0.869c0.328,0.586,0.924,1.171,1.806,1.399c0.758,0.197,1.2-0.047,1.296-0.421
					c0.289-1.112-3.594-1.291-2.969-3.697c0.276-1.065,1.425-1.708,2.931-1.317c1.017,0.264,1.78,0.789,2.261,1.538l-1.021,0.82
					c-0.393-0.614-1.027-1.013-1.678-1.183c-0.575-0.149-0.966,0.015-1.065,0.4c-0.261,1.006,3.587,1.278,2.968,3.666
					c-0.304,1.17-1.376,1.833-3.092,1.387C66.744,15.905,65.97,15.265,65.522,14.503z"/>
				<path fill="#FEFFFF" d="M73.006,14.821l1.656-3.6l1.296,0.596l-1.638,3.565c-0.386,0.837-0.164,1.637,0.763,2.063
					s1.669,0.069,2.054-0.768l1.638-3.565l1.305,0.601l-1.655,3.6c-0.683,1.485-2.037,2.105-3.864,1.265
					C72.733,17.738,72.322,16.307,73.006,14.821z"/>
				<path fill="#FEFFFF" d="M78.793,20.625l3.796-5.408l2.53,1.775c1.176,0.825,1.259,2.07,0.593,3.019
					c-0.66,0.94-1.867,1.28-3.034,0.459L81.3,19.503l-1.354,1.93L78.793,20.625z M84.536,19.184c0.318-0.454,0.163-0.974-0.29-1.292
					l-1.217-0.854L82.01,18.49l1.217,0.853C83.681,19.662,84.223,19.631,84.536,19.184z"/>
				<path fill="#FEFFFF" d="M84.171,24.582l4.639-4.707l2.202,2.17c1.023,1.008,0.899,2.249,0.085,3.075
					c-0.807,0.819-2.053,0.954-3.069-0.047l-1.201-1.182l-1.655,1.679L84.171,24.582z M90.074,24.111
					c0.39-0.395,0.322-0.934-0.074-1.324l-1.058-1.043l-1.245,1.263l1.059,1.044C89.152,24.441,89.691,24.5,90.074,24.111z"/>
				<path fill="#FEFFFF" d="M91.336,27.136c1.63-1.143,3.634-0.771,4.784,0.867c1.144,1.629,0.813,3.641-0.817,4.785
					c-1.63,1.144-3.634,0.771-4.778-0.858C89.376,30.292,89.707,28.28,91.336,27.136z M94.471,31.604
					c1.014-0.712,1.327-1.887,0.626-2.884c-0.706-1.006-1.918-1.112-2.931-0.4c-1.005,0.706-1.326,1.887-0.62,2.893
					C92.246,32.21,93.467,32.31,94.471,31.604z"/>
				<path fill="#FEFFFF" d="M94.777,39.364l1.602-2.152l-0.426-0.938l-2.137,0.97l-0.582-1.281l6.017-2.729l1.277,2.814
					c0.568,1.253,0.1,2.402-1.018,2.91c-1.056,0.479-1.94,0.063-2.388-0.516l-1.674,2.4L94.777,39.364z M98.921,37.636
					c0.496-0.225,0.627-0.751,0.398-1.257l-0.614-1.352l-1.624,0.736l0.613,1.353C97.924,37.621,98.407,37.871,98.921,37.636z"/>
				<path fill="#FEFFFF" d="M96.27,43.646l5.186-1.4l-0.504-1.866l1.195-0.323l1.375,5.09l-1.196,0.323l-0.501-1.856l-5.186,1.4
					L96.27,43.646z"/>
				<path fill="#FEFFFF" d="M100.324,55.828l-2.717,0.916l1.664-2.343l-1.706-2.304l2.733,0.858l1.674-2.334l0.026,2.874
					l2.742,0.858l-2.726,0.915l0.025,2.874L100.324,55.828z"/>
			</g>
			<circle fill="#095069" cx="57.924" cy="54.738" r="30.677"/>
		</g>
		<g opacity="0.4" enable-background="new    ">
			<g>
				<defs>
					<circle id="SVGID_1_" cx="57.924" cy="54.396" r="30.677"/>
				</defs>
				<clipPath id="SVGID_2_">
					<use xlink:href="#SVGID_1_"  overflow="visible"/>
				</clipPath>
				<g clip-path="url(#SVGID_2_)">
					
						<ellipse transform="matrix(0.5568 -0.8307 0.8307 0.5568 -104.13 58.7706)" fill="#E9F7FE" cx="3.007" cy="126.962" rx="71.178" ry="63.471"/>
					
						<ellipse transform="matrix(0.5568 -0.8307 0.8307 0.5568 -104.6349 63.7906)" fill="#CBE6F1" cx="7.459" cy="129.945" rx="71.178" ry="63.471"/>
					
						<ellipse transform="matrix(0.5568 -0.8307 0.8307 0.5568 -105.4044 71.4245)" fill="#A0D2E7" cx="14.227" cy="134.483" rx="71.178" ry="63.471"/>
					
						<ellipse transform="matrix(0.5568 -0.8307 0.8307 0.5568 -106.2985 80.3082)" fill="#098DBA" cx="22.105" cy="139.763" rx="71.178" ry="63.471"/>
				</g>
			</g>
		</g>
		<path fill="#098DBA" d="M63.119,97.015c0.314-0.37,0.472-0.796,0.472-1.282c0-0.582-0.231-1.081-0.692-1.498
			c-0.461-0.418-1.018-0.629-1.672-0.629h-8.895c-0.295,0.066-0.517,0.324-0.522,0.638v1.495h9.375l-7.722,2.207
			c-0.478,0.146-0.873,0.405-1.185,0.778c-0.313,0.374-0.468,0.796-0.468,1.274c0,0.599,0.231,1.11,0.691,1.53
			c0.46,0.422,1.019,0.632,1.673,0.632h8.838c0.307-0.037,0.548-0.281,0.579-0.592v-1.566h-9.416l7.733-2.217
			C62.402,97.642,62.805,97.383,63.119,97.015z"/>
	</g>
	<g display="inline">
		<circle fill="#FFFFFF" stroke="#098CBA" stroke-miterlimit="10" cx="58.393" cy="56.829" r="13.115"/>
		<ellipse fill="#098DBA" cx="62.218" cy="64.495" rx="2.732" ry="1.476"/>
		<g>
			<g>
				<defs>
					<rect id="SVGID_3_" x="37.081" y="50.104" width="6.843" height="19.84"/>
				</defs>
				<clipPath id="SVGID_4_">
					<use xlink:href="#SVGID_3_"  overflow="visible"/>
				</clipPath>
				<circle clip-path="url(#SVGID_4_)" fill="#098DBA" cx="43.912" cy="56.954" r="4.645"/>
			</g>
		</g>
		<g>
			<g>
				<defs>
					<rect id="SVGID_5_" x="73.29" y="43.482" width="6.843" height="19.84"/>
				</defs>
				<clipPath id="SVGID_6_">
					<use xlink:href="#SVGID_5_"  overflow="visible"/>
				</clipPath>
				<circle clip-path="url(#SVGID_6_)" fill="#098DBA" cx="73.302" cy="56.472" r="4.645"/>
			</g>
		</g>
		<path fill="none" stroke="#098CBA" stroke-miterlimit="10" d="M62.218,64.332c0,0,7.495,1.029,9.29,0s3.825-5.802,3.825-5.802"/>
		<g>
			<g>
				<defs>
					<rect id="SVGID_7_" x="35.715" y="38.848" width="44.418" height="20.626"/>
				</defs>
				<clipPath id="SVGID_8_">
					<use xlink:href="#SVGID_7_"  overflow="visible"/>
				</clipPath>
				<path clip-path="url(#SVGID_8_)" fill="none" stroke="#098CBA" stroke-miterlimit="10" d="M74.795,60.103
					c0,7.243-5.872,13.115-13.115,13.115h-5.747c-7.243,0-13.115-5.872-13.115-13.115v-5.747c0-7.243,5.872-13.115,13.115-13.115
					h5.747c7.243,0,13.115,5.872,13.115,13.115V60.103z"/>
			</g>
		</g>
		<g>
			<path fill="#098DBA" d="M52.262,56.488c0-0.465,0.391-0.856,0.856-0.856s0.856,0.391,0.856,0.856s-0.391,0.856-0.856,0.856
				S52.262,56.954,52.262,56.488z"/>
			<path fill="#098DBA" d="M62.8,56.488c0-0.465,0.391-0.856,0.856-0.856c0.465,0,0.856,0.391,0.856,0.856s-0.391,0.856-0.856,0.856
				S62.8,56.954,62.8,56.488z"/>
		</g>
	</g>
	<g display="inline">
		<circle opacity="0.1" fill="#FFFFFF" enable-background="new    " cx="49.503" cy="33.972" r="3.184"/>
		<circle fill="#FFFFFF" cx="49.503" cy="33.972" r="0.598"/>
	</g>
	<g display="inline">
		<circle opacity="0.1" fill="#FFFFFF" enable-background="new    " cx="40.84" cy="43.888" r="2.172"/>
		<circle fill="#FFFFFF" cx="40.76" cy="43.808" r="0.598"/>
	</g>
	<g display="inline">
		<circle opacity="0.1" fill="#FFFFFF" enable-background="new    " cx="71.441" cy="74.49" r="2.172"/>
		<circle fill="#FFFFFF" cx="71.361" cy="74.409" r="0.598"/>
	</g>
	<g display="inline">
		<circle opacity="0.1" fill="#FFFFFF" enable-background="new    " cx="57.407" cy="36.411" r="1.715"/>
		<circle fill="#FFFFFF" cx="57.343" cy="36.348" r="0.472"/>
	</g>
</g>
<g display="none">
	<g display="inline">
		<g>
			<circle opacity="0.5" fill="#738083" enable-background="new    " cx="57.7" cy="56.771" r="55.881"/>
			<circle fill="#0B5068" stroke="#098CBA" stroke-width="3" stroke-miterlimit="10" cx="57.924" cy="54.738" r="52.832"/>
			<circle fill="#FFFFFF" stroke="#098CBA" stroke-width="2" stroke-miterlimit="10" cx="57.924" cy="54.738" r="34.104"/>
			<g>
				<path fill="#FEFFFF" d="M21.782,32.381l2.805,0.584l-2.619,1.179l0.305,2.848l-1.921-2.121l-2.623,1.164l1.431-2.489
					l-1.931-2.125l2.814,0.589l1.43-2.489L21.782,32.381z"/>
				<path fill="#FEFFFF" d="M25.235,26.216c-1.44-1.447-1.321-3.506,0.09-4.911c1.027-1.02,2.175-1.06,3.093-0.797l-0.439,1.273
					c-0.574-0.184-1.296-0.067-1.773,0.408c-0.858,0.853-0.826,2.121,0.053,3.005c0.882,0.885,2.148,0.924,3.005,0.072
					c0.477-0.475,0.599-1.196,0.418-1.772l1.27-0.437c0.249,0.911,0.218,2.074-0.808,3.094
					C28.734,27.556,26.668,27.656,25.235,26.216z"/>
				<path fill="#FEFFFF" d="M30.899,20.771c-1.11-1.653-0.697-3.649,0.965-4.764c1.652-1.11,3.655-0.739,4.766,0.915
					c1.111,1.653,0.697,3.649-0.955,4.758C34.014,22.797,32.009,22.424,30.899,20.771z M35.431,17.728
					c-0.692-1.028-1.86-1.364-2.871-0.685c-1.02,0.685-1.151,1.894-0.46,2.922c0.684,1.02,1.859,1.365,2.878,0.679
					C35.99,19.965,36.115,18.748,35.431,17.728z"/>
				<path fill="#FEFFFF" d="M43.967,17.258l-4.569-2.764l1.661,3.979l-1.298,0.542l-2.548-6.1l1.334-0.558l4.426,2.652l-1.599-3.831
					l1.298-0.542l2.547,6.099L43.967,17.258z"/>
				<path fill="#FEFFFF" d="M46.243,15.462l0.515-1.241c0.559,0.373,1.355,0.623,2.246,0.425c0.763-0.17,1.045-0.588,0.962-0.965
					c-0.249-1.12-3.787,0.486-4.325-1.94c-0.239-1.074,0.491-2.169,2.009-2.505c1.026-0.227,1.945-0.107,2.713,0.341l-0.536,1.194
					c-0.63-0.367-1.375-0.435-2.031-0.289c-0.581,0.129-0.854,0.453-0.767,0.84c0.224,1.014,3.774-0.494,4.309,1.914
					c0.261,1.179-0.392,2.257-2.122,2.642C47.968,16.154,46.986,15.936,46.243,15.462z"/>
				<path fill="#FEFFFF" d="M53.047,12.331L52.874,8.37l1.427-0.062l0.171,3.922c0.039,0.921,0.602,1.532,1.621,1.487
					c1.021-0.044,1.518-0.701,1.478-1.622L57.4,8.173l1.437-0.062l0.172,3.961c0.07,1.633-0.851,2.805-2.861,2.892
					C54.137,15.052,53.117,13.965,53.047,12.331z"/>
				<path fill="#FEFFFF" d="M60.809,14.871l0.806-6.561l1.407,0.172l-0.654,5.332l2.774,0.34l-0.15,1.23L60.809,14.871z"/>
				<path fill="#FEFFFF" d="M66.969,15.849l1.311-5.209l-1.874-0.472l0.302-1.201l5.113,1.286l-0.302,1.202l-1.865-0.469
					l-1.311,5.21L66.969,15.849z"/>
				<path fill="#FEFFFF" d="M71.544,17.206l2.363-6.177l1.315,0.503l-2.364,6.176L71.544,17.206z"/>
				<path fill="#FEFFFF" d="M78.545,20.528l-0.677-5.292l-2.08,3.772l-1.231-0.679l3.189-5.783l1.266,0.699l0.676,5.11l2.002-3.633
					l1.233,0.679l-3.19,5.783L78.545,20.528z"/>
				<path fill="#FEFFFF" d="M83.034,19.427c1.335-1.606,3.401-1.613,4.893-0.373c1.05,0.873,1.27,1.958,1.151,2.875l-1.296-0.253
					c0.062-0.553-0.12-1.219-0.652-1.662c-0.93-0.773-2.188-0.621-2.985,0.338s-0.716,2.224,0.212,2.997
					c0.449,0.374,1.033,0.524,1.397,0.504l0.506-0.61l-1.341-1.113l0.786-0.945l2.421,2.014l-1.62,1.948
					c-0.999,0.148-2.032-0.08-2.946-0.84C82.068,23.066,81.705,21.026,83.034,19.427z"/>
				<path fill="#FEFFFF" d="M93.601,31.801l-1.73,2.288l0.054-2.875l-2.707-0.944l2.742-0.83l0.069-2.872l1.64,2.361l2.75-0.836
					l-1.739,2.294l1.64,2.361L93.601,31.801z"/>
			</g>
			<circle fill="#095069" cx="57.924" cy="54.738" r="30.677"/>
		</g>
		<g opacity="0.4" enable-background="new    ">
			<g>
				<defs>
					<circle id="SVGID_9_" cx="57.924" cy="54.396" r="30.677"/>
				</defs>
				<clipPath id="SVGID_10_">
					<use xlink:href="#SVGID_9_"  overflow="visible"/>
				</clipPath>
				<g clip-path="url(#SVGID_10_)">
					
						<ellipse transform="matrix(0.8391 -0.5439 0.5439 0.8391 -18.7548 49.9907)" fill="#E9F7FE" cx="75.138" cy="56.703" rx="34.401" ry="30.676"/>
					
						<ellipse transform="matrix(0.8391 -0.5439 0.5439 0.8391 -19.7101 51.1069)" fill="#CBE6F1" cx="76.547" cy="58.876" rx="34.401" ry="30.676"/>
					
						<ellipse transform="matrix(0.8391 -0.5439 0.5439 0.8391 -21.1632 52.8042)" fill="#A0D2E7" cx="78.69" cy="62.181" rx="34.401" ry="30.676"/>
					
						<ellipse transform="matrix(0.8391 -0.5439 0.5439 0.8391 -22.854 54.7788)" fill="#098DBA" cx="81.183" cy="66.027" rx="34.401" ry="30.676"/>
				</g>
			</g>
		</g>
		<g>
			<g>
				<path fill="#FFFFFF" d="M38.689,52.692c-0.55,0-1,0.45-1,1v14.793c0,0.55,0.45,1,1,1h5.779c0.55,0,1.318,0.318,1.707,0.707
					l2.478,2.478c0.389,0.389,1.025,0.389,1.414,0l2.478-2.478c0.389-0.389,1.157-0.707,1.707-0.707h5.779c0.55,0,1-0.45,1-1V53.692
					c0-0.55-0.45-1-1-1H38.689z"/>
				<path fill="none" stroke="#098CBA" stroke-miterlimit="10" d="M38.689,52.692c-0.55,0-1,0.45-1,1v14.793c0,0.55,0.45,1,1,1
					h5.779c0.55,0,1.318,0.318,1.707,0.707l2.478,2.478c0.389,0.389,1.025,0.389,1.414,0l2.478-2.478
					c0.389-0.389,1.157-0.707,1.707-0.707h5.779c0.55,0,1-0.45,1-1V53.692c0-0.55-0.45-1-1-1H38.689z"/>
			</g>
			<g>
				<path fill="#098DBA" d="M48.48,61.448c0-1.248,1.555-1.395,1.555-2.125c0-0.328-0.254-0.603-0.836-0.603
					c-0.528,0-0.972,0.254-1.3,0.656l-0.857-0.962c0.56-0.666,1.407-1.026,2.316-1.026c1.364,0,2.199,0.687,2.199,1.67
					c0,1.544-1.765,1.66-1.765,2.548c0,0.169,0.084,0.349,0.201,0.444l-1.163,0.338C48.607,62.146,48.48,61.818,48.48,61.448z
					 M48.48,63.806c0-0.465,0.392-0.856,0.857-0.856s0.856,0.391,0.856,0.856c0,0.465-0.391,0.856-0.856,0.856
					S48.48,64.271,48.48,63.806z"/>
			</g>
			<g>
				<path fill="#FFFFFF" d="M55.146,40.164c-0.55,0-1,0.45-1,1v14.793c0,0.55,0.45,1,1,1h5.779c0.55,0,1.318,0.318,1.707,0.707
					l2.478,2.478c0.389,0.389,1.025,0.389,1.414,0l2.478-2.478c0.389-0.389,1.157-0.707,1.707-0.707h5.779c0.55,0,1-0.45,1-1V41.164
					c0-0.55-0.45-1-1-1H55.146z"/>
				<path fill="none" stroke="#098CBA" stroke-miterlimit="10" d="M55.146,40.164c-0.55,0-1,0.45-1,1v14.793c0,0.55,0.45,1,1,1
					h5.779c0.55,0,1.318,0.318,1.707,0.707l2.478,2.478c0.389,0.389,1.025,0.389,1.414,0l2.478-2.478
					c0.389-0.389,1.157-0.707,1.707-0.707h5.779c0.55,0,1-0.45,1-1V41.164c0-0.55-0.45-1-1-1H55.146z"/>
			</g>
			<g>
				<path fill="#098DBA" d="M61.442,49.766c0-0.465,0.391-0.856,0.856-0.856s0.856,0.391,0.856,0.856s-0.391,0.856-0.856,0.856
					S61.442,50.231,61.442,49.766z"/>
				<path fill="#098DBA" d="M64.954,49.766c0-0.465,0.391-0.856,0.856-0.856c0.465,0,0.856,0.391,0.856,0.856
					s-0.391,0.856-0.856,0.856C65.345,50.622,64.954,50.231,64.954,49.766z"/>
				<path fill="#098DBA" d="M68.467,49.766c0-0.465,0.391-0.856,0.856-0.856c0.465,0,0.856,0.391,0.856,0.856
					s-0.391,0.856-0.856,0.856C68.857,50.622,68.467,50.231,68.467,49.766z"/>
			</g>
		</g>
		<path fill="#098DBA" d="M63.119,97.015c0.314-0.37,0.472-0.796,0.472-1.282c0-0.582-0.231-1.081-0.692-1.498
			c-0.461-0.418-1.018-0.629-1.672-0.629h-8.895c-0.295,0.066-0.517,0.324-0.522,0.638v1.495h9.375l-7.722,2.207
			c-0.478,0.146-0.873,0.405-1.185,0.778c-0.313,0.374-0.468,0.796-0.468,1.274c0,0.599,0.231,1.11,0.691,1.53
			c0.46,0.422,1.019,0.632,1.673,0.632h8.838c0.307-0.037,0.548-0.281,0.579-0.592v-1.566h-9.416l7.733-2.217
			C62.402,97.642,62.805,97.383,63.119,97.015z"/>
	</g>
	<g display="inline">
		<circle opacity="0.1" fill="#FFFFFF" enable-background="new    " cx="41.501" cy="38.086" r="2.172"/>
		<circle fill="#FFFFFF" cx="41.421" cy="38.006" r="0.598"/>
	</g>
	<g display="inline">
		<circle opacity="0.1" fill="#FFFFFF" enable-background="new    " cx="37.462" cy="46.497" r="1.251"/>
		<circle fill="#FFFFFF" cx="37.415" cy="46.451" r="0.344"/>
	</g>
</g>
<g display="none">
	<g display="inline">
		<g>
			<circle opacity="0.5" fill="#738083" enable-background="new    " cx="57.7" cy="56.771" r="55.881"/>
			<circle fill="#0B5068" stroke="#098CBA" stroke-width="3" stroke-miterlimit="10" cx="57.924" cy="54.738" r="52.832"/>
			<circle fill="#FFFFFF" stroke="#098CBA" stroke-width="2" stroke-miterlimit="10" cx="57.924" cy="54.738" r="34.104"/>
			<g>
				<path fill="#FEFFFF" d="M15.412,54.799l2.693-0.983L16.501,56.2l1.762,2.26l-2.753-0.79l-1.615,2.375l-0.097-2.872l-2.763-0.788
					l2.702-0.985l-0.097-2.87L15.412,54.799z"/>
				<path fill="#FEFFFF" d="M18.384,48.165l-6.437-1.479l0.692-3.011c0.322-1.4,1.443-1.945,2.572-1.685
					c1.12,0.257,1.887,1.246,1.568,2.636l-0.377,1.641l2.297,0.528L18.384,48.165z M14.889,43.388
					c-0.541-0.124-0.964,0.216-1.089,0.756l-0.332,1.448l1.728,0.397l0.332-1.448C15.653,44.002,15.42,43.511,14.889,43.388z"/>
				<path fill="#FEFFFF" d="M21.45,38.263l-2.668,0.294l-0.396,0.953l2.168,0.903l-0.541,1.299l-6.102-2.542l1.189-2.855
					c0.53-1.271,1.691-1.711,2.825-1.239c1.07,0.446,1.369,1.376,1.25,2.099l2.9-0.414L21.45,38.263z M17.359,36.407
					c-0.503-0.209-0.978,0.054-1.192,0.567l-0.572,1.372l1.647,0.686l0.572-1.372C18.028,37.147,17.88,36.624,17.359,36.407z"/>
				<path fill="#FEFFFF" d="M19.796,33.932c-1.664-1.092-2.057-3.091-0.96-4.764c1.093-1.663,3.083-2.099,4.748-1.006
					c1.664,1.092,2.057,3.092,0.965,4.756C23.451,34.59,21.46,35.025,19.796,33.932z M22.79,29.37
					c-1.035-0.679-2.242-0.536-2.911,0.482c-0.674,1.027-0.325,2.192,0.709,2.871c1.027,0.674,2.243,0.536,2.917-0.49
					C24.174,31.214,23.817,30.044,22.79,29.37z"/>
				<path fill="#FEFFFF" d="M28.224,27.964l-3.917-3.669l-1.319,1.409l-0.903-0.846l3.602-3.845l0.903,0.846l-1.313,1.402
					l3.916,3.669L28.224,27.964z"/>
				<path fill="#FEFFFF" d="M29.07,22.309c-1.202-1.588-0.901-3.604,0.695-4.812c1.588-1.202,3.611-0.942,4.812,0.646
					c1.201,1.589,0.9,3.605-0.687,4.807C32.294,24.157,30.272,23.898,29.07,22.309z M33.424,19.016
					c-0.747-0.987-1.933-1.258-2.906-0.524c-0.979,0.742-1.042,1.957-0.295,2.945c0.741,0.98,1.933,1.258,2.913,0.517
					C34.108,21.218,34.165,19.995,33.424,19.016z"/>
				<path fill="#FEFFFF" d="M39.006,19.528l-2.451-4.779l-1.719,0.882l-0.565-1.102l4.69-2.406l0.565,1.103l-1.711,0.877
					l2.451,4.778L39.006,19.528z"/>
				<path fill="#FEFFFF" d="M44.991,16.931l-0.822-2.576l-3.602-2.947l1.528-0.488l2.361,2.022l0.752-3.016l1.519-0.485l-1.22,4.485
					l0.823,2.576L44.991,16.931z"/>
				<path fill="#FEFFFF" d="M49.782,15.558l-0.934-6.54l3.059-0.437c1.422-0.203,2.334,0.648,2.497,1.795
					c0.162,1.137-0.485,2.211-1.897,2.412l-1.667,0.237l0.334,2.334L49.782,15.558z M52.983,10.579
					c-0.079-0.549-0.548-0.822-1.097-0.744l-1.471,0.21l0.25,1.756l1.471-0.21C52.686,11.512,53.06,11.118,52.983,10.579z"/>
				<path fill="#FEFFFF" d="M56.423,14.774l0.13-6.605l4.674,0.091l-0.023,1.239l-3.269-0.065l-0.027,1.387l3.199,0.062
					l-0.025,1.238l-3.199-0.063l-0.029,1.505l3.268,0.064l-0.023,1.239L56.423,14.774z"/>
				<path fill="#FEFFFF" d="M70.111,16.692l0.745-2.68l-3.004-0.835l-0.745,2.68l-1.354-0.377l1.77-6.361l1.353,0.376l-0.694,2.5
					l3.004,0.836l0.694-2.5l1.364,0.38l-1.768,6.361L70.111,16.692z"/>
				<path fill="#FEFFFF" d="M74.274,14.583c0.895-1.776,2.837-2.394,4.622-1.495c1.778,0.895,2.436,2.824,1.541,4.601
					c-0.895,1.778-2.837,2.395-4.614,1.5C74.037,18.289,73.379,16.361,74.274,14.583z M79.146,17.039
					c0.557-1.106,0.277-2.289-0.811-2.836c-1.096-0.553-2.214-0.074-2.77,1.032c-0.553,1.097-0.278,2.288,0.819,2.84
					C77.472,18.623,78.593,18.135,79.146,17.039z"/>
				<path fill="#FEFFFF" d="M80.331,20.475l1.28-0.411c0.078,0.669,0.404,1.437,1.131,1.988c0.624,0.472,1.126,0.417,1.359,0.109
					c0.693-0.917-2.825-2.574-1.324-4.558c0.664-0.877,1.973-1.029,3.214-0.09c0.837,0.633,1.342,1.413,1.498,2.289l-1.258,0.366
					c-0.128-0.719-0.56-1.331-1.096-1.737c-0.475-0.36-0.899-0.358-1.138-0.041c-0.628,0.829,2.823,2.559,1.334,4.527
					c-0.729,0.964-1.976,1.164-3.39,0.094C80.923,22.24,80.453,21.349,80.331,20.475z"/>
				<path fill="#FEFFFF" d="M86.096,26.484l3.807-3.787l-1.362-1.369l0.878-0.873l3.716,3.737l-0.877,0.873l-1.355-1.363
					l-3.808,3.786L86.096,26.484z"/>
				<path fill="#FEFFFF" d="M89.284,30.053l5.255-4.003l0.852,1.119l-5.255,4.003L89.284,30.053z"/>
				<path fill="#FEFFFF" d="M93.508,36.594l2.212-4.858l-3.755,2.113l-0.69-1.226l5.76-3.239l0.709,1.261l-2.119,4.702l3.619-2.035
					l0.689,1.227l-5.759,3.239L93.508,36.594z"/>
				<path fill="#FEFFFF" d="M97.896,38.015c1.981-0.662,3.741,0.422,4.355,2.263c0.431,1.295,0.046,2.331-0.539,3.048l-0.967-0.898
					c0.344-0.438,0.542-1.099,0.323-1.756c-0.383-1.146-1.532-1.682-2.715-1.287c-1.183,0.394-1.781,1.512-1.399,2.657
					c0.185,0.554,0.601,0.99,0.921,1.165l0.751-0.251l-0.551-1.652l1.164-0.388l0.996,2.986l-2.404,0.802
					c-0.927-0.402-1.684-1.14-2.06-2.267C95.157,40.597,95.924,38.673,97.896,38.015z"/>
				<path fill="#FEFFFF" d="M100.328,54.077l-2.676,1.026l1.567-2.408l-1.797-2.232l2.764,0.745l1.577-2.399l0.142,2.869
					l2.774,0.746l-2.686,1.025l0.141,2.87L100.328,54.077z"/>
			</g>
			<circle fill="#095069" cx="57.924" cy="54.738" r="30.677"/>
		</g>
		<g opacity="0.4" enable-background="new    ">
			<g>
				<defs>
					<circle id="SVGID_11_" cx="57.924" cy="54.396" r="30.677"/>
				</defs>
				<clipPath id="SVGID_12_">
					<use xlink:href="#SVGID_11_"  overflow="visible"/>
				</clipPath>
				<g clip-path="url(#SVGID_12_)">
					
						<ellipse transform="matrix(0.5568 -0.8307 0.8307 0.5568 23.9401 80.5598)" fill="#E9F7FE" cx="87.46" cy="17.846" rx="43.441" ry="38.737"/>
					
						<ellipse transform="matrix(0.5568 -0.8307 0.8307 0.5568 23.6316 83.624)" fill="#CBE6F1" cx="90.177" cy="19.668" rx="43.441" ry="38.737"/>
					
						<ellipse transform="matrix(0.5568 -0.8307 0.8307 0.5568 23.1625 88.283)" fill="#A0D2E7" cx="94.308" cy="22.437" rx="43.441" ry="38.737"/>
					
						<ellipse transform="matrix(0.5568 -0.8307 0.8307 0.5568 22.6166 93.7053)" fill="#098DBA" cx="99.117" cy="25.659" rx="43.441" ry="38.737"/>
				</g>
			</g>
		</g>
		<path fill="#098DBA" d="M63.119,97.015c0.314-0.37,0.472-0.796,0.472-1.282c0-0.582-0.231-1.081-0.692-1.498
			c-0.461-0.418-1.018-0.629-1.672-0.629h-8.895c-0.295,0.066-0.517,0.324-0.522,0.638v1.495h9.375l-7.722,2.207
			c-0.478,0.146-0.873,0.405-1.185,0.778c-0.313,0.374-0.468,0.796-0.468,1.274c0,0.599,0.231,1.11,0.691,1.53
			c0.46,0.422,1.019,0.632,1.673,0.632h8.838c0.307-0.037,0.548-0.281,0.579-0.592v-1.566h-9.416l7.733-2.217
			C62.402,97.642,62.805,97.383,63.119,97.015z"/>
	</g>
	<g display="inline">
		<circle opacity="0.1" fill="#FFFFFF" enable-background="new    " cx="34.202" cy="50.028" r="3.184"/>
		<circle fill="#FFFFFF" cx="34.202" cy="50.028" r="0.598"/>
	</g>
	<g display="inline">
		<circle opacity="0.1" fill="#FFFFFF" enable-background="new    " cx="40.84" cy="43.551" r="2.172"/>
		<circle fill="#FFFFFF" cx="40.76" cy="43.47" r="0.598"/>
	</g>
	<g display="inline">
		<circle opacity="0.1" fill="#FFFFFF" enable-background="new    " cx="62.698" cy="71.966" r="2.172"/>
		<circle fill="#FFFFFF" cx="62.618" cy="71.886" r="0.598"/>
	</g>
	<g display="inline">
		<circle opacity="0.1" fill="#FFFFFF" enable-background="new    " cx="58.499" cy="78.697" r="1.715"/>
		<circle fill="#FFFFFF" cx="58.436" cy="78.633" r="0.472"/>
	</g>
	<g display="inline">
		<g>
			<g>
				<g>
					<defs>
						<rect id="SVGID_13_" x="34.086" y="37.129" width="48.208" height="27.312"/>
					</defs>
					<clipPath id="SVGID_14_">
						<use xlink:href="#SVGID_13_"  overflow="visible"/>
					</clipPath>
					<g clip-path="url(#SVGID_14_)">
						
							<ellipse fill="#FFFFFF" stroke="#098CBA" stroke-width="1.5" stroke-miterlimit="10" cx="44.087" cy="61.745" rx="6.252" ry="6.837"/>
						
							<ellipse fill="#FFFFFF" stroke="#098CBA" stroke-width="1.5" stroke-miterlimit="10" cx="60.493" cy="55.281" rx="14.732" ry="16.11"/>
						
							<ellipse fill="#FFFFFF" stroke="#098CBA" stroke-width="1.5" stroke-miterlimit="10" cx="75.163" cy="62.549" rx="3.984" ry="4.356"/>
						
							<ellipse fill="#FFFFFF" stroke="#098CBA" stroke-width="1.5" stroke-miterlimit="10" cx="45.761" cy="55.517" rx="3.945" ry="4.314"/>
					</g>
				</g>
			</g>
			<line fill="none" stroke="#098CBA" stroke-width="2" stroke-miterlimit="10" x1="37.071" y1="65.265" x2="80.15" y2="65.265"/>
		</g>
		<g>
			<g>
				<defs>
					<rect id="SVGID_15_" x="34.779" y="38.689" width="46.695" height="26.455"/>
				</defs>
				<clipPath id="SVGID_16_">
					<use xlink:href="#SVGID_15_"  overflow="visible"/>
				</clipPath>
				<g clip-path="url(#SVGID_16_)">
					<ellipse fill="#FFFFFF" cx="44.466" cy="62.533" rx="6.055" ry="6.622"/>
					<ellipse fill="#FFFFFF" cx="60.356" cy="56.272" rx="14.27" ry="15.605"/>
					<ellipse fill="#FFFFFF" cx="74.566" cy="63.311" rx="3.859" ry="4.22"/>
					<ellipse fill="#FFFFFF" cx="46.087" cy="56.5" rx="3.821" ry="4.178"/>
				</g>
			</g>
		</g>
		<g>
			<rect x="52.554" y="58.828" fill="#A0D2E7" width="4.315" height="4.03"/>
			<rect x="58.208" y="58.828" fill="#A0D2E7" width="4.315" height="4.03"/>
			<rect x="63.755" y="58.828" fill="#A0D2E7" width="4.315" height="4.03"/>
			<rect x="52.554" y="50.728" fill="#A0D2E7" width="15.516" height="6.808"/>
			<rect x="52.608" y="47.532" fill="#A0D2E7" width="4.261" height="2.018"/>
			<rect x="58.208" y="47.532" fill="#A0D2E7" width="9.862" height="2.018"/>
		</g>
	</g>
	<g display="inline">
		<circle opacity="0.1" fill="#FFFFFF" enable-background="new    " cx="51.942" cy="76.511" r="1.715"/>
		<circle fill="#FFFFFF" cx="51.879" cy="76.447" r="0.472"/>
	</g>
</g>
<g>
	<g>
		<g>
			<circle opacity="0.5" fill="#738083" enable-background="new    " cx="57.239" cy="57.409" r="126.409"/>
			<circle fill="#0B5068" stroke="#098CBA" stroke-width="3" stroke-miterlimit="10" cx="57.746" cy="52.81" r="119.512"/>
			<circle fill="#FFFFFF" stroke="#098CBA" stroke-width="2" stroke-miterlimit="10" cx="57.746" cy="52.81" r="77.147"/>
			<g>
				<path fill="#FEFFFF" d="M-38.258,58.491l5.952-2.572l-3.312,5.594l4.271,4.875l-6.32-1.425l-3.337,5.574l-0.595-6.472
					l-6.341-1.423l5.977-2.572l-0.59-6.472L-38.258,58.491z"/>
				<path fill="#FEFFFF" d="M-39.932,42.62c-4.547-0.803-7.01-4.769-6.228-9.202c0.57-3.221,2.644-4.789,4.68-5.499l0.851,2.927
					c-1.301,0.407-2.486,1.563-2.751,3.063c-0.475,2.694,1.233,4.999,4.013,5.488c2.782,0.491,5.176-1.088,5.653-3.78
					c0.265-1.5-0.45-2.991-1.531-3.821l1.778-2.461c1.647,1.36,3.106,3.554,2.534,6.775C-31.716,40.543-35.41,43.418-39.932,42.62z"
					/>
				<path fill="#FEFFFF" d="M-36.55,25.102c-4.21-1.608-6.049-5.843-4.429-10.073c1.611-4.21,5.805-6.137,10.017-4.526
					c4.21,1.611,6.047,5.843,4.436,10.055C-28.146,24.787-32.34,26.715-36.55,25.102z M-32.134,13.563
					c-2.617-1.002-5.221-0.102-6.205,2.477c-0.995,2.597,0.342,5.004,2.959,6.006c2.599,0.995,5.221,0.102,6.214-2.495
					C-28.18,16.972-29.538,14.556-32.134,13.563z"/>
				<path fill="#FEFFFF" d="M-17.983,3.236l-6.062-0.283l-1.222,1.984l4.524,2.785l-1.667,2.708L-35.139,2.6l3.662-5.956
					c1.633-2.651,4.379-3.226,6.746-1.769c2.233,1.373,2.574,3.558,2.054,5.13l6.621,0.1L-17.983,3.236z M-26.463-2.349
					c-1.05-0.645-2.203-0.224-2.862,0.846l-1.762,2.862l3.434,2.113l1.762-2.862C-25.233-0.46-25.377-1.679-26.463-2.349z"/>
				<path fill="#FEFFFF" d="M-13.981-2.58l-11.229-9.863l4.615-5.253c2.144-2.441,4.963-2.323,6.933-0.59
					c1.952,1.715,2.42,4.513,0.29,6.936l-2.515,2.864l4.008,3.52L-13.981-2.58z M-15.806-15.847
					c-0.943-0.828-2.151-0.606-2.981,0.337l-2.219,2.525l3.015,2.649l2.219-2.525C-14.942-13.807-14.881-15.033-15.806-15.847z"/>
				<path fill="#FEFFFF" d="M-9.131-19.082c-2.794-3.529-2.215-8.103,1.332-10.91c3.529-2.794,8.114-2.307,10.908,1.222
					c2.794,3.529,2.215,8.103-1.314,10.897C-1.752-15.067-6.337-15.551-9.131-19.082z M0.546-26.741
					c-1.737-2.197-4.434-2.748-6.592-1.038c-2.178,1.724-2.258,4.474-0.523,6.666c1.726,2.178,4.434,2.748,6.61,1.025
					C2.204-21.796,2.27-24.563,0.546-26.741z"/>
				<path fill="#FEFFFF" d="M18.032-28.461l-5.074-3.334l-2.061,1.086l2.472,4.703l-2.819,1.484L3.587-37.756l6.191-3.257
					c2.758-1.452,5.413-0.543,6.707,1.916c1.224,2.321,0.403,4.373-0.848,5.461l5.649,3.466L18.032-28.461z M13.583-37.593
					c-0.575-1.093-1.783-1.317-2.896-0.733l-2.975,1.568l1.88,3.574l2.975-1.568C13.678-35.34,14.176-36.464,13.583-37.593z"/>
				<path fill="#FEFFFF" d="M34.148-34.519l-1.665-2.131l-6.112,1.941l-0.131,2.699l-3.438,1.093l0.966-15.998l3.803-1.208
					l10.019,12.512L34.148-34.519z M26.631-44.483l-0.276,6.841l4.445-1.412L26.631-44.483z"/>
				<path fill="#FEFFFF" d="M42.077-36.183l-1.859-11.996l-4.316,0.67l-0.43-2.767l11.774-1.828l0.428,2.767l-4.293,0.665
					l1.862,11.996L42.077-36.183z"/>
				<path fill="#FEFFFF" d="M52.727-37.516l0.043-14.946l10.578,0.032l-0.007,2.803l-7.397-0.023l-0.009,3.135l7.239,0.023
					l-0.009,2.8l-7.239-0.02l-0.011,3.407l7.397,0.023l-0.009,2.803L52.727-37.516z"/>
				<path fill="#FEFFFF" d="M77.212-35.389l2.819-11.817L75.78-48.22l0.651-2.726l11.598,2.769l-0.651,2.724l-4.23-1.009
					l-2.821,11.817L77.212-35.389z"/>
				<path fill="#FEFFFF" d="M95.293-29.363l-0.642-6.038l-2.151-0.905l-2.061,4.9l-2.936-1.24l5.805-13.783l6.449,2.715
					c2.873,1.21,3.857,3.839,2.778,6.402c-1.018,2.416-3.126,3.088-4.759,2.812l0.907,6.562L95.293-29.363z M99.525-38.604
					c0.477-1.136-0.113-2.212-1.271-2.701l-3.101-1.305l-1.565,3.721l3.101,1.305C97.844-37.095,99.03-37.423,99.525-38.604z"/>
				<path fill="#FEFFFF" d="M110.284-20.729l0.59-2.64l-5.379-3.493l-2.172,1.613l-3.027-1.966l12.98-9.408l3.348,2.174
					l-3.314,15.686L110.284-20.729z M113.218-32.863l-5.463,4.128l3.913,2.54L113.218-32.863z"/>
				<path fill="#FEFFFF" d="M115.116-16.908l9.709-11.36l2.416,2.068l-9.707,11.363L115.116-16.908z"/>
				<path fill="#FEFFFF" d="M127.573-4.489l2.549-11.811l-7.291,6.483l-2.113-2.377l11.173-9.944l2.176,2.448l-2.411,11.421
					l7.019-6.246l2.115,2.377l-11.175,9.942L127.573-4.489z"/>
				<path fill="#FEFFFF" d="M131.819,1.191l12.408-8.331L146-4.5l-12.408,8.334L131.819,1.191z"/>
				<path fill="#FEFFFF" d="M140.481,16.481l5.628-10.673l-8.752,4.273l-1.396-2.855l13.419-6.556l1.434,2.941l-5.395,10.331
					l8.431-4.115l1.396,2.859l-13.423,6.551L140.481,16.481z"/>
				<path fill="#FEFFFF" d="M150.219,20.322c4.563-1.226,8.39,1.452,9.533,5.691c0.803,2.981-0.206,5.271-1.622,6.809l-2.065-2.156
					c0.837-0.943,1.369-2.409,0.961-3.92c-0.71-2.64-3.233-3.997-5.956-3.266c-2.724,0.733-4.223,3.178-3.513,5.814
					c0.344,1.276,1.226,2.314,1.925,2.751l1.728-0.464l-1.025-3.805l2.681-0.724l1.85,6.877l-5.535,1.488
					c-2.038-1.027-3.651-2.796-4.348-5.391C143.693,25.792,145.679,21.546,150.219,20.322z"/>
				<path fill="#FEFFFF" d="M153.608,56.925l-6.178,1.968l3.85-5.235l-3.769-5.273l6.146,2.043l3.873-5.214l-0.05,6.497l6.167,2.043
					l-6.198,1.968l-0.05,6.499L153.608,56.925z"/>
			</g>
			<circle fill="#095069" cx="57.746" cy="52.81" r="69.395"/>
		</g>
		<g opacity="0.4" enable-background="new    ">
			<g>
				<defs>
					<circle id="SVGID_17_" cx="57.746" cy="52.037" r="69.395"/>
				</defs>
				<clipPath id="SVGID_18_">
					<use xlink:href="#SVGID_17_"  overflow="visible"/>
				</clipPath>
				<g clip-path="url(#SVGID_18_)">
					
						<ellipse transform="matrix(0.94 0.3413 -0.3413 0.94 45.2984 -51.9347)" fill="#E9F7FE" cx="170.255" cy="102.777" rx="98.268" ry="87.627"/>
					
						<ellipse transform="matrix(0.94 0.3413 -0.3413 0.94 47.5202 -50.6557)" fill="#CBE6F1" cx="167.73" cy="109.731" rx="98.268" ry="87.627"/>
					
						<ellipse transform="matrix(0.94 0.3413 -0.3413 0.94 50.8989 -48.7103)" fill="#A0D2E7" cx="163.891" cy="120.307" rx="98.268" ry="87.627"/>
					
						<ellipse transform="matrix(0.94 0.3413 -0.3413 0.94 54.8301 -46.4466)" fill="#098DBA" cx="159.423" cy="132.611" rx="98.268" ry="87.627"/>
				</g>
			</g>
		</g>
		<path fill="#098DBA" d="M69.498,148.446c0.71-0.837,1.068-1.801,1.068-2.9c0-1.317-0.523-2.445-1.565-3.389
			c-1.043-0.946-2.303-1.423-3.782-1.423H45.096c-0.667,0.149-1.17,0.733-1.181,1.443v3.382h21.207l-17.468,4.992
			c-1.081,0.33-1.975,0.916-2.681,1.76c-0.708,0.846-1.059,1.801-1.059,2.882c0,1.355,0.523,2.511,1.563,3.461
			c1.041,0.955,2.305,1.43,3.785,1.43h19.993c0.694-0.084,1.24-0.636,1.31-1.339v-3.542h-21.3l17.493-5.015
			C67.876,149.864,68.788,149.278,69.498,148.446z"/>
	</g>
	<g>
		<circle opacity="0.1" fill="#FFFFFF" enable-background="new    " cx="4.084" cy="42.156" r="7.203"/>
		<circle fill="#FFFFFF" cx="4.084" cy="42.156" r="1.353"/>
	</g>
	<g>
		<circle opacity="0.1" fill="#FFFFFF" enable-background="new    " cx="19.1" cy="27.504" r="4.913"/>
		<circle fill="#FFFFFF" cx="18.919" cy="27.321" r="1.353"/>
	</g>
	<g>
		<g>
			<path fill="#FFFFFF" d="M94.684,68.607c0,1.244-1.018,2.262-2.262,2.262H31.051c-1.244,0-2.262-1.018-2.262-2.262V24.29
				c0-1.244,1.018-2.262,2.262-2.262h61.371c1.244,0,2.262,1.018,2.262,2.262V68.607z"/>
			<path fill="none" stroke="#098CBA" stroke-width="1.5" stroke-miterlimit="10" d="M94.684,68.607
				c0,1.244-1.018,2.262-2.262,2.262H31.051c-1.244,0-2.262-1.018-2.262-2.262V24.29c0-1.244,1.018-2.262,2.262-2.262h61.371
				c1.244,0,2.262,1.018,2.262,2.262V68.607z"/>
		</g>
		<circle fill="#098DBA" cx="23.14" cy="55.704" r="11.853"/>
		<g>
			<path fill="#098DBA" d="M35.412,87.172c0,3.732-3.054,6.786-6.786,6.786H18.519c-3.732,0-6.786-3.054-6.786-6.786V72.326
				c0-3.732,3.054-6.786,6.786-6.786h10.107c3.732,0,6.786,3.054,6.786,6.786V87.172z"/>
		</g>
		<rect x="65.143" y="31.913" fill="#098DBA" width="21.789" height="1.55"/>
		<rect x="65.143" y="38.525" fill="#098DBA" width="21.789" height="1.55"/>
		<rect x="35.412" y="31.913" fill="#A0D2E7" width="26.324" height="28.736"/>
		<rect x="65.143" y="45.673" fill="#098DBA" width="21.789" height="1.55"/>
		
			<rect x="36.739" y="54.714" transform="matrix(-0.4241 0.9056 -0.9056 -0.4241 118.2824 36.1925)" fill="#098DBA" width="21.788" height="1.982"/>
		<g>
			<path fill="#098DBA" d="M42.242,63.931c-1.344-2.095-4.156-2.71-6.25-1.369l-6.766,4.334c-2.095,1.344-2.71,4.156-1.369,6.25
				l0.579,0.905c1.344,2.095,4.156,2.71,6.25,1.369l6.766-4.334c2.095-1.344,2.71-4.156,1.369-6.25L42.242,63.931z"/>
		</g>
		<rect x="65.143" y="52.467" fill="#098DBA" width="21.789" height="1.55"/>
		<rect x="65.143" y="59.079" fill="#098DBA" width="21.789" height="1.55"/>
		<circle fill="#098DBA" cx="45.596" cy="62.447" r="5.698"/>
	</g>
	<g>
		<circle opacity="0.1" fill="#FFFFFF" enable-background="new    " cx="78.252" cy="2.598" r="7.203"/>
		<circle fill="#FFFFFF" cx="78.252" cy="2.598" r="1.353"/>
	</g>
</g>
</svg>
