<?xml version="1.0" encoding="utf-8"?>
<!-- Generator: Adobe Illustrator 19.1.0, SVG Export Plug-In . SVG Version: 6.00 Build 0)  -->
<svg version="1.1" id="Layer_1" xmlns="http://www.w3.org/2000/svg" xmlns:xlink="http://www.w3.org/1999/xlink" x="0px" y="0px"
	 width="700px" height="700px" viewBox="0 0 700 700" style="enable-background:new 0 0 700 700;" xml:space="preserve">
<style type="text/css">
	.st0{clip-path:url(#SVGID_2_);}
	.st1{fill:url(#sky_x2F_space_3_);}
	.st2{opacity:7.000000e-02;}
	.st3{fill:#FFFFFF;}
	.st4{clip-path:url(#SVGID_4_);}
	.st5{fill:url(#sky_x2F_space_4_);}
	.st6{fill:url(#river_2_);}
	.st7{opacity:0.9;}
	.st8{fill:url(#SVGID_5_);}
	.st9{fill:url(#SVGID_6_);}
	.st10{opacity:0.8;}
	.st11{fill:url(#SVGID_7_);}
	.st12{fill:#FDD8CD;}
	.st13{fill:url(#SVGID_8_);}
	.st14{fill:url(#SVGID_9_);}
	.st15{opacity:0.8;fill:url(#SVGID_10_);enable-background:new    ;}
	.st16{opacity:0.8;fill:url(#SVGID_11_);enable-background:new    ;}
	.st17{fill:#445763;}
	.st18{fill:url(#land-right2_2_);}
	.st19{fill:url(#land-right1_2_);}
	.st20{opacity:3.000000e-02;fill:#FFFFFF;enable-background:new    ;}
	.st21{opacity:5.000000e-02;fill:#FFFFFF;enable-background:new    ;}
	.st22{opacity:7.000000e-02;fill:#FFFFFF;enable-background:new    ;}
	.st23{opacity:4.000000e-02;fill:#FFFFFF;enable-background:new    ;}
	.st24{opacity:6.000000e-02;fill:#FFFFFF;enable-background:new    ;}
	.st25{opacity:0.1;fill:#FFFFFF;enable-background:new    ;}
	.st26{fill:#575C7A;}
	.st27{display:none;fill:#575C7A;}
	.st28{fill:url(#SVGID_12_);}
	.st29{fill:url(#land-left2_2_);}
	.st30{fill:url(#land-left1_2_);}
	.st31{fill:url(#SVGID_13_);}
	.st32{opacity:0.2;fill:#1C292E;}
	.st33{fill:url(#SVGID_14_);}
	.st34{fill:url(#SVGID_15_);}
	.st35{fill:url(#SVGID_16_);}
	.st36{fill:url(#SVGID_17_);}
	.st37{fill:url(#SVGID_18_);}
	.st38{fill:url(#SVGID_19_);}
	.st39{fill:url(#SVGID_20_);}
	.st40{fill:url(#SVGID_21_);}
	.st41{fill:url(#SVGID_22_);}
	.st42{fill:url(#SVGID_23_);}
	.st43{fill:url(#SVGID_24_);}
	.st44{fill:url(#SVGID_25_);}
	.st45{fill:url(#SVGID_26_);}
	.st46{fill:url(#SVGID_27_);}
	.st47{opacity:0.55;fill:url(#SVGID_28_);}
	.st48{fill:url(#SVGID_29_);}
	.st49{fill:url(#SVGID_30_);}
	.st50{fill:url(#SVGID_31_);}
	.st51{fill:url(#SVGID_32_);}
	.st52{opacity:0.17;fill:#EFEFEF;}
	.st53{fill:url(#SVGID_33_);}
	.st54{fill:url(#SVGID_34_);}
	.st55{fill:url(#SVGID_35_);}
	.st56{fill:url(#SVGID_36_);}
	.st57{fill:url(#SVGID_37_);}
	.st58{fill:url(#SVGID_38_);}
	.st59{fill:#273D44;}
	.st60{fill:url(#SVGID_39_);}
	.st61{fill:url(#SVGID_40_);}
	.st62{fill:url(#SVGID_41_);}
	.st63{fill:url(#SVGID_42_);}
	.st64{fill:url(#SVGID_43_);}
	.st65{fill:url(#SVGID_44_);}
	.st66{fill:#939598;}
	.st67{fill:url(#SVGID_45_);}
	.st68{fill:url(#SVGID_46_);}
	.st69{fill:url(#SVGID_47_);}
	.st70{opacity:0.6;fill:#4F4E51;}
	.st71{opacity:0.21;fill:#231F20;}
	.st72{fill:url(#SVGID_48_);}
	.st73{fill:url(#SVGID_49_);}
	.st74{opacity:0.39;fill:url(#SVGID_50_);}
	.st75{opacity:0.39;fill:url(#SVGID_51_);}
	.st76{fill:url(#SVGID_52_);}
	.st77{display:none;opacity:0.17;fill:#EFEFEF;}
	.st78{fill:url(#SVGID_53_);}
	.st79{fill:url(#SVGID_54_);}
	.st80{fill:url(#SVGID_55_);}
	.st81{fill:url(#SVGID_56_);}
	.st82{fill:url(#SVGID_57_);}
	.st83{fill:url(#SVGID_58_);}
	.st84{opacity:0.45;fill:#F2C186;}
	.st85{fill:url(#SVGID_59_);}
	.st86{fill:url(#SVGID_60_);}
	.st87{fill:url(#SVGID_61_);}
	.st88{fill:url(#SVGID_62_);}
	.st89{fill:url(#SVGID_63_);}
	.st90{fill:#293942;}
	.st91{fill:url(#SVGID_64_);}
	.st92{fill:#808184;}
	.st93{fill:url(#SVGID_65_);}
	.st94{fill:url(#SVGID_66_);}
	.st95{fill:url(#SVGID_67_);}
	.st96{fill:url(#SVGID_68_);}
	.st97{fill:url(#SVGID_69_);}
	.st98{fill:url(#SVGID_70_);}
	.st99{clip-path:url(#SVGID_72_);}
	.st100{fill:url(#SVGID_73_);}
	.st101{fill:none;stroke:#FFFFFF;stroke-width:1.85;stroke-miterlimit:10;}
	.st102{opacity:0.15;fill:#FFFFFF;}
	.st103{opacity:0.25;}
	.st104{fill:#F26522;stroke:#F26522;stroke-width:0.7484;stroke-miterlimit:10;}
	.st105{fill:none;stroke:#FFFFFF;stroke-width:1.5386;stroke-miterlimit:10;}
	.st106{fill:none;stroke:#F26522;stroke-width:1.5386;stroke-miterlimit:10;}
	.st107{fill:url(#SVGID_74_);}
	.st108{fill:url(#SVGID_75_);}
</style>
<g>
	<defs>
		<circle id="SVGID_1_" cx="350.9" cy="349.5" r="343.8"/>
	</defs>
	<clipPath id="SVGID_2_">
		<use xlink:href="#SVGID_1_"  style="overflow:visible;"/>
	</clipPath>
	<g class="st0">
		<linearGradient id="sky_x2F_space_3_" gradientUnits="userSpaceOnUse" x1="378.5957" y1="693" x2="378.5957" y2="2.8775">
			<stop  offset="0" style="stop-color:#4E5763"/>
			<stop  offset="1" style="stop-color:#0E1C22"/>
		</linearGradient>
		<rect id="sky_x2F_space_1_" x="-393" y="4.6" class="st1" width="1543.1" height="684.1"/>
	</g>
</g>
<g class="st2">
	<polygon class="st3" points="698.5,389.8 101,389.8 236.8,118.8 692.5,118.8 692.5,127.8 242.4,127.8 115.5,380.8 698.5,380.8 	"/>
</g>
<g>
	<defs>
		<path id="SVGID_3_" d="M108.2,385.3l584.6-0.1c1.2-11.7,1.8-23.7,1.8-35.7c0-86.6-32-165.7-84.9-226.2H239.6L108.2,385.3z"/>
	</defs>
	<clipPath id="SVGID_4_">
		<use xlink:href="#SVGID_3_"  style="overflow:visible;"/>
	</clipPath>
	<g class="st4">
		
			<linearGradient id="sky_x2F_space_4_" gradientUnits="userSpaceOnUse" x1="383.6322" y1="389.8444" x2="374.3549" y2="564.1905" gradientTransform="matrix(1 0 0 -1 0 702)">
			<stop  offset="0" style="stop-color:#F3C187"/>
			<stop  offset="5.274168e-02" style="stop-color:#F4AA8D"/>
			<stop  offset="0.1315" style="stop-color:#D47A6D"/>
			<stop  offset="0.3231" style="stop-color:#4E5763"/>
			<stop  offset="0.5913" style="stop-color:#0C3C4C"/>
			<stop  offset="1" style="stop-color:#0E1C22"/>
		</linearGradient>
		<rect id="sky_x2F_space_2_" x="41.3" y="122.8" class="st5" width="674" height="179.5"/>
		
			<linearGradient id="river_2_" gradientUnits="userSpaceOnUse" x1="438.9364" y1="486.8926" x2="500.0168" y2="271.3824" gradientTransform="matrix(1 0 0 -1 0 702)">
			<stop  offset="7.882074e-02" style="stop-color:#C5817E"/>
			<stop  offset="0.3645" style="stop-color:#57606D"/>
			<stop  offset="0.6989" style="stop-color:#33434C"/>
			<stop  offset="1" style="stop-color:#2D3A41"/>
		</linearGradient>
		<polygon id="river_1_" class="st6" points="777.1,385.2 258.4,385.2 170.6,385.3 211.3,320 258.4,291.3 777.1,291.3 		"/>
		<g id="mountain_1_" class="st7">
			
				<linearGradient id="SVGID_5_" gradientUnits="userSpaceOnUse" x1="501.9883" y1="410.6919" x2="501.9883" y2="466.7458" gradientTransform="matrix(1 0 0 -1 0 702)">
				<stop  offset="0" style="stop-color:#425B6A"/>
				<stop  offset="1" style="stop-color:#30414A"/>
			</linearGradient>
			<polygon class="st8" points="416.5,292.1 409.8,292.2 410.1,291.4 432.6,279 439.9,277 441.9,273.5 445.9,272.1 449.1,270 
				453.8,272.6 455.7,273.2 459.6,272.6 468.3,266.2 478.6,259.1 482,259.6 489.9,251.4 493.1,252.9 494.7,250.5 498.2,249.1 
				501.5,245.3 504.8,243.3 508.8,238.7 511.4,239.9 515.4,243.2 519.6,246.6 523.3,248 525.2,249.5 525.9,249.8 528.9,249 
				530.5,250.6 532.3,252.4 534.2,254.3 535.3,253.6 539.7,257.2 544.7,260.7 549.1,265.1 549.3,266.2 551.7,266 554.2,267.6 
				556.1,267.6 564.1,273.4 594.2,292.1 			"/>
			
				<linearGradient id="SVGID_6_" gradientUnits="userSpaceOnUse" x1="562.5778" y1="404.9486" x2="607.679" y2="425.2046" gradientTransform="matrix(1 0 0 -1 0 702)">
				<stop  offset="0" style="stop-color:#475E6D"/>
				<stop  offset="1" style="stop-color:#30414A"/>
			</linearGradient>
			<polygon class="st9" points="603.2,292.1 617.1,292.1 598.3,285.3 583,277.1 575.6,272.3 571.5,273.4 564.3,279.1 559.8,282 
				553.1,286.3 547.8,288.9 539.7,292.1 540.8,292.1 			"/>
			<g class="st10">
				
					<linearGradient id="SVGID_7_" gradientUnits="userSpaceOnUse" x1="505.2595" y1="453.8991" x2="534.1686" y2="453.8991" gradientTransform="matrix(1 0 0 -1 0 702)">
					<stop  offset="0" style="stop-color:#FDD8CD"/>
					<stop  offset="1" style="stop-color:#E9B8AD"/>
				</linearGradient>
				<polygon class="st11" points="514.7,249 511.5,245.3 510.1,239.9 508.8,238.7 511.4,239.9 515.4,243.2 519.6,246.6 523.3,248 
					525.2,249.5 526.5,250.8 527.7,251.3 528.9,249 534.2,254.3 532,255.5 531.4,257 529.9,255.8 527.2,256.9 523.9,254.3 
					520.9,252.3 525.5,257.4 524.8,257.5 521.6,255.5 519.1,252.9 516.4,250.8 517.5,253.2 515.9,253.3 509.6,247.4 505.3,243.7 
					508.2,244.9 510,245.3 				"/>
				<polygon class="st12" points="516,257.4 517.9,259.7 515.9,258.8 512.6,257.9 516,261.4 519,263.2 519,263.2 519.4,263.6 
					521.9,262.6 522.9,262.2 				"/>
				
					<linearGradient id="SVGID_8_" gradientUnits="userSpaceOnUse" x1="532.4712" y1="439.0429" x2="563.3799" y2="419.0488" gradientTransform="matrix(1 0 0 -1 0 702)">
					<stop  offset="0" style="stop-color:#FDD8CD"/>
					<stop  offset="1" style="stop-color:#E9B8AD"/>
				</linearGradient>
				<polygon class="st13" points="565.8,274.5 560.5,270.8 556.1,267.6 556.4,269.6 554.2,267.6 551.7,266 550.9,266 549.1,265.1 
					546.5,262.5 544.7,260.7 541.1,258.2 539.7,257.2 535.3,253.6 534.8,257.6 535.6,260.4 529.9,255.8 528.8,258.5 529.5,259.6 
					534.4,264.1 530.3,261.8 526.2,260.5 527.3,263.4 529.7,265.1 534.7,269.7 533.3,269.5 534.8,271.2 528.4,268.9 527.3,269 
					522.3,265.7 522.5,267.7 528.3,271.4 530.4,271.8 544.2,275.5 540.9,273.2 548.9,276.6 553.5,276.9 554.9,277 543.9,267.9 
					557.6,276.5 562.9,278.4 564.3,279.1 568.2,276.1 				"/>
				
					<linearGradient id="SVGID_9_" gradientUnits="userSpaceOnUse" x1="575.3467" y1="423.19" x2="598.3417" y2="423.19" gradientTransform="matrix(1 0 0 -1 0 702)">
					<stop  offset="0" style="stop-color:#FDD8CD"/>
					<stop  offset="1" style="stop-color:#BF8980"/>
				</linearGradient>
				<polygon class="st14" points="579.7,281.2 575.8,278.1 579.8,280.4 579.3,279.5 581,280.4 576.3,275.2 575.3,273.5 576.3,274 
					575.6,272.3 583,277.1 598.3,285.3 589.5,282.4 585,279.9 588,282.6 585.3,281.9 583.5,283 				"/>
			</g>
		</g>
		<g id="mountain_-_foreground_1_">
			
				<linearGradient id="SVGID_10_" gradientUnits="userSpaceOnUse" x1="408.0868" y1="423.3186" x2="543.7193" y2="423.3186" gradientTransform="matrix(1 0 0 -1 0 702)">
				<stop  offset="0" style="stop-color:#3B4952"/>
				<stop  offset="0.6358" style="stop-color:#3F515E"/>
				<stop  offset="0.9998" style="stop-color:#4E6271"/>
			</linearGradient>
			<polygon class="st15" points="543.7,292.1 524.5,282.4 517.1,278 511.3,274.6 509.3,273.4 505.4,270.4 500.6,266.5 499.1,266.5 
				497.1,265.3 492.5,268.3 491.9,267.8 484.5,272 483.3,272 481.1,273 481.1,274 479.4,274.7 476.3,276.6 473.9,277.9 471.1,279.3 
				470.5,279.5 467.5,280.2 463.3,278.2 460.2,276.2 457.1,273.7 455.5,273.2 453.9,272.6 449.2,270 446,272.1 442,273.5 439.9,277 
				433,278.8 409.9,291.5 408.1,292.1 416.4,292.1 			"/>
			
				<linearGradient id="SVGID_11_" gradientUnits="userSpaceOnUse" x1="499.7691" y1="432.6495" x2="518.5125" y2="417.8238" gradientTransform="matrix(1 0 0 -1 0 702)">
				<stop  offset="2.882479e-02" style="stop-color:#FDD8CD"/>
				<stop  offset="0.4645" style="stop-color:#D9A499"/>
				<stop  offset="1" style="stop-color:#BF8980"/>
			</linearGradient>
			<polygon class="st16" points="525.8,283.1 514.8,276.8 509.3,273.1 505.8,270.7 500.6,266.5 502.6,270.3 500,269 500.3,269.5 
				500.3,270 501,270.7 502.8,272.7 507.1,275.7 507.5,276.8 501.6,272.7 499.7,271.6 495.3,268.7 495.8,269.7 491.9,267.8 
				492.3,268.7 493.4,269.7 493.7,270.5 493.8,271.4 505.1,278.2 506.9,278.8 504,276.3 509,278.9 513.1,280 518,281.2 515.1,278.9 
				520.1,281.7 			"/>
		</g>
		<path id="land-right3_1_" class="st17" d="M784.8,283.3h-16.1l-23.8-0.5h-4.1l-8.9-0.5l-13.8-1.5l-9.7,2l-8.2-1.5l-8.5,1.8
			l-13-5.2l-15.3,3.1l-20.6,3.6l-21.8-1l-11.4,1.3l-5.2,3.1l-5.2-2.7l-22.6,1.7l-20.7-1.7l-19.4,3.9l-32-1.9l-20,4.6l-7.4,1.4
			l5.5,1.7h1.1l6.6,2.4l22.3,0l7.7,5.1l64.8-1.2l148.8-3.3c0,0,54.5,2.2,54.5-10.4L784.8,283.3z"/>
		
			<linearGradient id="land-right2_2_" gradientUnits="userSpaceOnUse" x1="641.0234" y1="473.0467" x2="612.2896" y2="394.2948" gradientTransform="matrix(1 0 0 -1 0 702)">
			<stop  offset="0" style="stop-color:#F4B49C"/>
			<stop  offset="0.3648" style="stop-color:#5A576C"/>
			<stop  offset="0.9951" style="stop-color:#3D4E59"/>
		</linearGradient>
		<polygon id="land-right2_1_" class="st18" points="764.8,276 716.1,278.1 691.3,279.9 668.8,279 653.4,284.2 631.6,285.1 
			621.8,287.9 603.9,289.8 581.4,291.2 568.2,293.9 558.1,291.1 548.3,293.9 540,292.9 530.2,293.9 527.5,297.2 508.2,298.9 
			500.7,301.4 492.2,303.9 489.9,304.7 459.2,308.1 473.1,309 557.2,308.3 569.6,310.6 634.5,310.6 764.8,309 		"/>
		
			<linearGradient id="land-right1_2_" gradientUnits="userSpaceOnUse" x1="643.7306" y1="477.4182" x2="603.5786" y2="377.6465" gradientTransform="matrix(1 0 0 -1 0 702)">
			<stop  offset="0" style="stop-color:#F6D59B"/>
			<stop  offset="0.1469" style="stop-color:#BEA39B"/>
			<stop  offset="0.3744" style="stop-color:#676279"/>
			<stop  offset="0.6445" style="stop-color:#4B5F6D"/>
			<stop  offset="1" style="stop-color:#3A4850"/>
		</linearGradient>
		<polygon id="land-right1_1_" class="st19" points="764.8,288.9 746,287.6 723.7,284.3 713.9,286.3 697.7,290.6 687.7,296.1 
			673.6,292.4 662.9,292.4 653.6,292.4 642.8,290.6 622.8,297 611,294.7 597.5,298.8 582.9,300.7 566.9,302.6 556.2,304 543.1,302 
			533.1,304.5 517.3,312.1 501.3,316.3 492.7,318.3 482.3,318.3 468.1,321 458.1,321.2 445.1,325.8 438.3,325.8 431.8,327.6 
			479.5,328 471.9,329.9 464.3,329.9 458,331.4 447.9,332.2 458,333.1 470.1,334.9 479.5,334.9 488.5,334.9 495.2,336.9 
			509.8,339.6 518.4,339.6 525.7,339.6 532.4,339.7 534.7,340 548.3,341.4 557.3,342.5 557.3,342.2 576.3,344.2 605.3,345 
			642.6,344.2 662.4,345 697.7,346.7 764.8,347.5 		"/>
		<polygon class="st20" points="649.1,272.7 464.6,272.7 462.8,274.5 464.6,276.4 514.2,276.4 513.6,278 513.6,278 516.1,280.6 
			645.1,280.6 650.9,274.5 		"/>
		<path class="st20" d="M468.9,267.9l2.2-2.2h252.5c1.2,0,2.2,1,2.2,2.2l0,0c0,1.2-1,2.2-2.2,2.2H471.2L468.9,267.9z"/>
		<polygon class="st21" points="386.2,267.5 181.4,267.5 179.5,265.6 179.5,265.6 181.4,263.8 386.2,263.8 388.1,265.6 388.1,265.6 
					"/>
		<path class="st20" d="M75.7,274.3h272.6l2.4-2.4l0,0l-2.4-2.4H75.7c-1.3,0-2.4,1.1-2.4,2.4l0,0C73.3,273.3,74.4,274.3,75.7,274.3z
			"/>
		<polygon class="st20" points="225.6,278.1 338.6,278.1 340.6,276.1 340.6,276.1 338.6,274.2 225.6,274.2 223.7,276.1 223.7,276.1 
					"/>
		<polygon class="st21" points="277.5,251 227.1,251 227.2,250.1 227.2,250.1 224.6,247.5 103.5,247.5 98.4,252.7 100.1,254.4 
			277.5,254.4 279.2,252.7 		"/>
		<polygon class="st21" points="18.6,262.7 176,262.7 177.8,260.9 177.8,260.9 176,259.2 18.6,259.2 16.8,260.9 16.8,260.9 		"/>
		<polygon class="st22" points="537,279.1 642,279.1 643.3,277.8 643.3,277.8 642,276.7 537,276.7 535.8,277.8 535.8,277.8 		"/>
		<polygon class="st23" points="316.9,258.1 408.8,258.1 411.4,255.5 411.4,255.5 408.8,252.9 316.9,252.9 314.3,255.5 314.3,255.5 
					"/>
		<path class="st24" d="M550.7,252.4h147c0.9,0,1.6-0.7,1.6-1.6l0,0c0-0.9-0.7-1.6-1.6-1.6h-147l-1.6,1.6l0,0L550.7,252.4z"/>
		<polygon class="st25" points="638.8,259.3 510.2,259.3 509.2,258.3 509.2,258.3 510.2,257.2 638.8,257.2 639.8,258.3 639.8,258.3 
					"/>
		<g id="stars_1_">
			
				<rect x="72.8" y="115.5" transform="matrix(-0.7071 -0.7071 0.7071 -0.7071 43.4369 250.3994)" class="st26" width="1.5" height="1.5"/>
			
				<rect x="54.6" y="137.1" transform="matrix(-0.7071 -0.7071 0.7071 -0.7071 -3.0431 274.5005)" class="st26" width="1.5" height="1.5"/>
			
				<rect x="137.1" y="195.4" transform="matrix(-0.7071 -0.7071 0.7071 -0.7071 96.9962 433.0095)" class="st26" width="2.1" height="2.1"/>
			
				<rect x="234" y="157.4" transform="matrix(-0.7071 -0.7071 0.7071 -0.7071 289.1199 436.7252)" class="st26" width="2.1" height="2.1"/>
			
				<rect x="78.5" y="181.8" transform="matrix(-0.7071 -0.7071 0.7071 -0.7071 6.5376 368.3728)" class="st26" width="2.1" height="2.1"/>
			
				<rect x="296.8" y="132.5" transform="matrix(-0.7071 -0.7071 0.7071 -0.7071 413.7674 438.216)" class="st26" width="1.7" height="1.7"/>
			
				<rect x="130.2" y="102" transform="matrix(-0.7071 -0.7071 0.7071 -0.7071 150.8219 267.8981)" class="st26" width="1.5" height="1.5"/>
			
				<rect x="412.1" y="170.4" transform="matrix(-0.7071 -0.7071 0.7071 -0.7071 583.5775 583.6577)" class="st26" width="1.2" height="1.2"/>
			
				<rect x="374" y="109.9" transform="matrix(-0.7071 -0.7071 0.7071 -0.7071 561.72 454.1432)" class="st26" width="1.7" height="1.7"/>
			
				<rect x="361.8" y="147.4" transform="matrix(-0.7071 -0.7071 0.7071 -0.7071 514.4281 509.9676)" class="st27" width="2.1" height="2.1"/>
			
				<rect x="592.7" y="112.4" transform="matrix(-0.7071 -0.7071 0.7071 -0.7071 933.3337 613.4572)" class="st26" width="2.1" height="2.1"/>
			
				<rect x="413.1" y="194" transform="matrix(-0.7071 -0.7071 0.7071 -0.7071 569.1567 625.8208)" class="st26" width="2.1" height="2.1"/>
			
				<rect x="478.5" y="99.9" transform="matrix(-0.7071 -0.7071 0.7071 -0.7071 747.0856 511.0138)" class="st26" width="1.7" height="1.7"/>
			
				<rect x="54.3" y="193.7" transform="matrix(-0.7071 -0.7071 0.7071 -0.7071 -43.3162 371.6215)" class="st26" width="2.1" height="2.1"/>
			
				<rect x="59.3" y="216.7" transform="matrix(-0.7071 -0.7071 0.7071 -0.7071 -50.8985 414.4044)" class="st26" width="2.1" height="2.1"/>
			
				<rect x="408.4" y="234" transform="matrix(-0.7071 -0.7071 0.7071 -0.7071 532.8133 690.8613)" class="st26" width="2.1" height="2.1"/>
			
				<rect x="421.9" y="109" transform="matrix(-0.7071 -0.7071 0.7071 -0.7071 644.054 486.5291)" class="st26" width="1.7" height="1.7"/>
			
				<rect x="363.3" y="205.2" transform="matrix(-0.7071 -0.7071 0.7071 -0.7071 476.1665 609.7043)" class="st26" width="2.1" height="2.1"/>
			
				<rect x="439.9" y="158.9" transform="matrix(-0.7071 -0.7071 0.7071 -0.7071 639.5903 584.8883)" class="st26" width="2.1" height="2.1"/>
			
				<rect x="225.2" y="208.2" transform="matrix(-0.7071 -0.7071 0.7071 -0.7071 238.3089 517.1778)" class="st27" width="2.1" height="2.1"/>
			
				<rect x="265.5" y="142.9" transform="matrix(-0.7071 -0.7071 0.7071 -0.7071 353.3335 434.157)" class="st26" width="2.1" height="2.1"/>
			
				<rect x="380" y="184.8" transform="matrix(-0.7071 -0.7071 0.7071 -0.7071 519.0493 586.6263)" class="st26" width="2.1" height="2.1"/>
			
				<rect x="312.8" y="159.7" transform="matrix(-0.7071 -0.7071 0.7071 -0.7071 422.1324 496.3987)" class="st26" width="2.1" height="2.1"/>
			
				<rect x="209.4" y="228" transform="matrix(-0.7071 -0.7071 0.7071 -0.7071 197.364 539.8763)" class="st26" width="2.1" height="2.1"/>
			
				<rect x="143.8" y="95.6" transform="matrix(-0.7071 -0.7071 0.7071 -0.7071 178.9411 267.4706)" class="st26" width="2.1" height="2.1"/>
			
				<rect x="354.3" y="190.5" transform="matrix(-0.7071 -0.7071 0.7071 -0.7071 471.1286 578.3148)" class="st26" width="2.1" height="2.1"/>
			
				<rect x="246" y="130.9" transform="matrix(-0.7071 -0.7071 0.7071 -0.7071 328.4983 399.9793)" class="st26" width="2.1" height="2.1"/>
			
				<rect x="221.2" y="108.9" transform="matrix(-0.7071 -0.7071 0.7071 -0.7071 301.388 344.4657)" class="st26" width="1.7" height="1.7"/>
			
				<rect x="101.1" y="107.6" transform="matrix(-0.7071 -0.7071 0.7071 -0.7071 97.4779 257.6653)" class="st26" width="2.1" height="2.1"/>
			
				<rect x="151.5" y="110.3" transform="matrix(-0.7071 -0.7071 0.7071 -0.7071 181.6688 297.8859)" class="st26" width="2.1" height="2.1"/>
			
				<rect x="186.3" y="164" transform="matrix(-0.7071 -0.7071 0.7071 -0.7071 203.0721 414.1307)" class="st26" width="2.1" height="2.1"/>
			
				<rect x="185.7" y="119.8" transform="matrix(-0.7071 -0.7071 0.7071 -0.7071 233.3889 338.3718)" class="st26" width="2.1" height="2.1"/>
			
				<rect x="249.8" y="94.3" transform="matrix(-0.7071 -0.7071 0.7071 -0.7071 360.6942 339.6792)" class="st26" width="1.7" height="1.7"/>
			
				<rect x="90.6" y="159.5" transform="matrix(-0.7071 -0.7071 0.7071 -0.7071 42.8701 338.9098)" class="st26" width="2.1" height="2.1"/>
			
				<rect x="298.9" y="143.8" transform="matrix(-0.7071 -0.7071 0.7071 -0.7071 409.7132 459.3469)" class="st27" width="2.1" height="2.1"/>
			
				<rect x="490.8" y="178.8" transform="matrix(-0.7071 -0.7071 0.7071 -0.7071 712.5002 654.8306)" class="st26" width="2.1" height="2.1"/>
			
				<rect x="326" y="215.2" transform="matrix(-0.7071 -0.7071 0.7071 -0.7071 405.3204 600.4604)" class="st26" width="2.1" height="2.1"/>
			
				<rect x="304.1" y="96" transform="matrix(-0.7071 -0.7071 0.7071 -0.7071 452.3416 381.4393)" class="st26" width="2.1" height="2.1"/>
			
				<rect x="595.1" y="105.2" transform="matrix(-0.7071 -0.7071 0.7071 -0.7071 942.6608 602.8813)" class="st26" width="2.1" height="2.1"/>
			
				<rect x="349.3" y="140.5" transform="matrix(-0.7071 -0.7071 0.7071 -0.7071 498.0207 489.3519)" class="st26" width="2.1" height="2.1"/>
			
				<rect x="297.1" y="204.1" transform="matrix(-0.7071 -0.7071 0.7071 -0.7071 363.9345 561.0496)" class="st27" width="2.1" height="2.1"/>
			
				<rect x="276" y="164.4" transform="matrix(-0.7071 -0.7071 0.7071 -0.7071 356.0413 478.3434)" class="st27" width="2.1" height="2.1"/>
			
				<rect x="393.3" y="147.7" transform="matrix(-0.7071 -0.7071 0.7071 -0.7071 567.5376 531.7911)" class="st26" width="1.2" height="1.2"/>
			
				<rect x="118.3" y="215.2" transform="matrix(-0.7071 -0.7071 0.7071 -0.7071 50.7507 453.5366)" class="st26" width="2.1" height="2.1"/>
			
				<rect x="168.7" y="192.2" transform="matrix(-0.7071 -0.7071 0.7071 -0.7071 153.1826 450.0295)" class="st26" width="2.1" height="2.1"/>
			
				<rect x="139.9" y="181.1" transform="matrix(-0.7071 -0.7071 0.7071 -0.7071 111.7221 410.6495)" class="st26" width="2.1" height="2.1"/>
			
				<rect x="300" y="209.8" transform="matrix(-0.7071 -0.7071 0.7071 -0.7071 364.7768 572.829)" class="st26" width="2.1" height="2.1"/>
			
				<rect x="79.3" y="229.5" transform="matrix(-0.7071 -0.7071 0.7071 -0.7071 -25.8316 450.416)" class="st26" width="2.1" height="2.1"/>
			
				<rect x="324.5" y="154" transform="matrix(-0.7071 -0.7071 0.7071 -0.7071 446.048 494.9234)" class="st26" width="2.1" height="2.1"/>
			
				<rect x="5.3" y="230.3" transform="matrix(-0.7071 -0.7071 0.7071 -0.7071 -152.6655 399.4356)" class="st26" width="2.1" height="2.1"/>
			
				<rect x="306" y="152.9" transform="matrix(-0.7071 -0.7071 0.7071 -0.7071 414.9075 479.0181)" class="st26" width="1.4" height="1.4"/>
			
				<rect x="225.3" y="198.8" transform="matrix(-0.7071 -0.7071 0.7071 -0.7071 244.776 500.2627)" class="st26" width="1.4" height="1.4"/>
			
				<rect x="215.8" y="139.9" transform="matrix(-0.7071 -0.7071 0.7071 -0.7071 270.231 393.0601)" class="st26" width="1.4" height="1.4"/>
			
				<rect x="247.9" y="223" transform="matrix(-0.7071 -0.7071 0.7071 -0.7071 266.1604 557.6425)" class="st26" width="1.4" height="1.4"/>
			
				<rect x="241.9" y="185.2" transform="matrix(-0.1174 -0.9931 0.9931 -0.1174 86.4724 448.5217)" class="st26" width="1.4" height="1.4"/>
			
				<rect x="121.3" y="149.8" transform="matrix(-0.7071 -0.7071 0.7071 -0.7071 101.8011 343.0809)" class="st26" width="1.4" height="1.4"/>
			
				<rect x="81.8" y="142.5" transform="matrix(-0.7071 -0.7071 0.7071 -0.7071 39.5491 302.7499)" class="st26" width="1.4" height="1.4"/>
			
				<rect x="655" y="108.9" transform="matrix(-0.7071 -0.7071 0.7071 -0.7071 1042.1425 651.4977)" class="st26" width="2.1" height="2.1"/>
			
				<rect x="630.1" y="86.7" transform="matrix(-0.7071 -0.7071 0.7071 -0.7071 1015.3412 596.1588)" class="st26" width="2.1" height="2.1"/>
			
				<rect x="345.8" y="103.7" transform="matrix(-0.7071 -0.7071 0.7071 -0.7071 518.0087 424.0032)" class="st26" width="2.1" height="2.1"/>
			
				<rect x="400.4" y="103.7" transform="matrix(-0.7071 -0.7071 0.7071 -0.7071 611.3467 462.6816)" class="st26" width="2.1" height="2.1"/>
			
				<rect x="232.7" y="178.9" transform="matrix(-0.7071 -0.7071 0.7071 -0.7071 271.5397 471.7264)" class="st27" width="1.5" height="1.5"/>
			
				<rect x="104.4" y="136.1" transform="matrix(-0.7071 -0.7071 0.7071 -0.7071 82.6862 307.9219)" class="st26" width="1.5" height="1.5"/>
			
				<rect x="90.1" y="90.4" transform="matrix(-0.7071 -0.7071 0.7071 -0.7071 90.698 219.8414)" class="st26" width="1.5" height="1.5"/>
			
				<rect x="182.3" y="209.7" transform="matrix(-0.7071 -0.7071 0.7071 -0.7071 163.9645 489.3334)" class="st26" width="2.1" height="2.1"/>
			
				<rect x="276.8" y="190.6" transform="matrix(-0.7071 -0.7071 0.7071 -0.7071 338.5237 522.8812)" class="st26" width="1.5" height="1.5"/>
			
				<rect x="328.5" y="163.1" transform="matrix(-0.7071 -0.7071 0.7071 -0.7071 446.4882 513.3261)" class="st27" width="2.1" height="2.1"/>
			
				<rect x="247.4" y="181.9" transform="matrix(-0.7071 -0.7071 0.7071 -0.7071 294.5002 487.1714)" class="st27" width="1.5" height="1.5"/>
			
				<rect x="164.9" y="137.9" transform="matrix(-0.7071 -0.7071 0.7071 -0.7071 184.7363 353.7899)" class="st26" width="1.5" height="1.5"/>
			
				<rect x="430.8" y="198.4" transform="matrix(-0.7071 -0.7071 0.7071 -0.7071 596.1198 645.804)" class="st26" width="2.1" height="2.1"/>
			
				<rect x="262.9" y="166.2" transform="matrix(-0.7071 -0.7071 0.7071 -0.7071 332.0186 471.43)" class="st27" width="1.5" height="1.5"/>
			
				<rect x="139.8" y="127.7" transform="matrix(-0.7071 -0.7071 0.7071 -0.7071 149.0689 318.6437)" class="st26" width="1.5" height="1.5"/>
			
				<rect x="336.2" y="186.7" transform="matrix(-0.7071 -0.7071 0.7071 -0.7071 442.9393 558.9757)" class="st27" width="2.1" height="2.1"/>
			
				<rect x="367.4" y="161.1" transform="matrix(-0.7071 -0.7071 0.7071 -0.7071 514.2247 536.957)" class="st26" width="1.7" height="1.7"/>
			
				<rect x="342" y="117" transform="matrix(-0.7071 -0.7071 0.7071 -0.7071 502.0939 444.0631)" class="st26" width="2.1" height="2.1"/>
			
				<rect x="355.8" y="230.9" transform="matrix(-0.7071 -0.7071 0.7071 -0.7071 445.0948 648.3541)" class="st26" width="2.1" height="2.1"/>
			
				<rect x="276.9" y="115.2" transform="matrix(-0.7071 -0.7071 0.7071 -0.7071 392.0492 394.6204)" class="st26" width="1.7" height="1.7"/>
			
				<rect x="14.3" y="209.2" transform="matrix(-0.7071 -0.7071 0.7071 -0.7071 -122.4318 369.7647)" class="st26" width="2.1" height="2.1"/>
			
				<rect x="254.5" y="156.2" transform="matrix(-0.7071 -0.7071 0.7071 -0.7071 324.6487 448.4488)" class="st26" width="1.5" height="1.5"/>
			
				<rect x="299" y="218.4" transform="matrix(-0.7071 -0.7071 0.7071 -0.7071 356.7137 586.1343)" class="st26" width="1.5" height="1.5"/>
			
				<rect x="286.4" y="166.9" transform="matrix(-0.7071 -0.7071 0.7071 -0.7071 371.7186 489.1693)" class="st26" width="1.5" height="1.5"/>
			
				<rect x="47.3" y="113.4" transform="matrix(-0.7071 -0.7071 0.7071 -0.7071 1.2838 228.7412)" class="st26" width="1.5" height="1.5"/>
			
				<rect x="236.6" y="131.7" transform="matrix(-0.7071 -0.7071 0.7071 -0.7071 311.8729 394.777)" class="st26" width="2.1" height="2.1"/>
			
				<rect x="483.6" y="211.3" transform="matrix(-0.7071 -0.7071 0.7071 -0.7071 677.2601 705.2024)" class="st26" width="2.1" height="2.1"/>
			
				<rect x="481.2" y="137.9" transform="matrix(-0.7071 -0.7071 0.7071 -0.7071 725.0576 578.2367)" class="st26" width="2.1" height="2.1"/>
			
				<rect x="223.2" y="167.3" transform="matrix(-0.7071 -0.7071 0.7071 -0.7071 263.5165 445.1482)" class="st26" width="1.5" height="1.5"/>
			
				<rect x="414.2" y="126.4" transform="matrix(-0.7071 -0.7071 0.7071 -0.7071 618.7855 511.1662)" class="st26" width="2.1" height="2.1"/>
			
				<rect x="404.8" y="170.2" transform="matrix(-0.7071 -0.7071 0.7071 -0.7071 571.3891 578.2622)" class="st26" width="1.2" height="1.2"/>
			
				<rect x="151.5" y="165.9" transform="matrix(-0.7071 -0.7071 0.7071 -0.7071 142.3222 392.8757)" class="st26" width="2.1" height="2.1"/>
			
				<rect x="199.1" y="184.2" transform="matrix(-0.7071 -0.7071 0.7071 -0.7071 210.3502 456.8367)" class="st26" width="1.4" height="1.4"/>
			
				<rect x="48.4" y="129.5" transform="matrix(-0.7071 -0.7071 0.7071 -0.7071 -8.1882 256.9058)" class="st26" width="1.4" height="1.4"/>
			
				<rect x="102.4" y="142.5" transform="matrix(-0.7071 -0.7071 0.7071 -0.7071 74.7373 317.3315)" class="st26" width="1.4" height="1.4"/>
			
				<rect x="77.1" y="163.8" transform="matrix(-0.7071 -0.7071 0.7071 -0.7071 16.4624 335.6742)" class="st26" width="1.4" height="1.4"/>
			
				<rect x="560.6" y="182.2" transform="matrix(0.9282 0.3721 -0.3721 0.9282 108.3341 -195.7044)" class="st26" width="1.4" height="1.4"/>
			
				<rect x="592.4" y="232.6" transform="matrix(0.9282 0.3721 -0.3721 0.9282 129.3716 -203.937)" class="st26" width="1.4" height="1.4"/>
			
				<rect x="530.2" y="168.7" transform="matrix(0.9282 0.3721 -0.3721 0.9282 101.1543 -185.3813)" class="st26" width="1.4" height="1.4"/>
			
				<rect x="550.7" y="201.2" transform="matrix(0.4985 0.8669 -0.8669 0.4985 451.4864 -376.7298)" class="st26" width="1.4" height="1.4"/>
			
				<rect x="675.4" y="186.3" transform="matrix(0.9282 0.3721 -0.3721 0.9282 118.1229 -238.1499)" class="st26" width="1.4" height="1.4"/>
			
				<rect x="696.3" y="192.1" transform="matrix(0.9282 0.3721 -0.3721 0.9282 121.8181 -245.503)" class="st26" width="1.5" height="1.5"/>
			
				<rect x="516.3" y="209.8" transform="matrix(0.9282 0.3721 -0.3721 0.9282 115.4823 -177.2545)" class="st26" width="1.5" height="1.5"/>
			
				<rect x="639.9" y="214.3" transform="matrix(0.9282 0.3721 -0.3721 0.9282 126.0023 -222.9251)" class="st26" width="1.5" height="1.5"/>
			
				<rect x="667" y="213.8" transform="matrix(0.9282 0.3721 -0.3721 0.9282 127.7681 -233.063)" class="st26" width="1.5" height="1.5"/>
			
				<rect x="550.3" y="232.6" transform="matrix(0.9282 0.3721 -0.3721 0.9282 126.3868 -188.2814)" class="st26" width="1.5" height="1.5"/>
			
				<rect x="516.7" y="235.4" transform="matrix(0.9282 0.3721 -0.3721 0.9282 125.036 -175.5902)" class="st26" width="1.5" height="1.5"/>
			
				<rect x="574.7" y="210.2" transform="matrix(0.9282 0.3721 -0.3721 0.9282 119.8247 -198.9781)" class="st26" width="1.5" height="1.5"/>
			
				<rect x="590.4" y="185.3" transform="matrix(0.9282 0.3721 -0.3721 0.9282 111.6335 -206.5844)" class="st26" width="1.4" height="1.4"/>
			
				<rect x="695.7" y="185.6" transform="matrix(0.9282 0.3721 -0.3721 0.9282 119.3047 -245.736)" class="st26" width="1.4" height="1.4"/>
			
				<rect x="665.4" y="134.3" transform="matrix(0.9917 0.1285 -0.1285 0.9917 22.921 -84.5232)" class="st26" width="2.1" height="2.1"/>
			
				<rect x="523.8" y="119.9" transform="matrix(0.9917 0.1285 -0.1285 0.9917 19.892 -66.4438)" class="st26" width="2.1" height="2.1"/>
			
				<rect x="507.7" y="150.7" transform="matrix(0.9917 0.1285 -0.1285 0.9917 23.718 -64.1156)" class="st26" width="2.1" height="2.1"/>
			
				<rect x="460" y="166.2" transform="matrix(0.9917 0.1285 -0.1285 0.9917 25.3162 -57.8529)" class="st26" width="2.1" height="2.1"/>
			
				<rect x="588.2" y="152.6" transform="matrix(0.9917 0.1285 -0.1285 0.9917 24.633 -74.4447)" class="st26" width="2.1" height="2.1"/>
			
				<rect x="530.4" y="148.3" transform="matrix(0.9917 0.1285 -0.1285 0.9917 23.6011 -67.0534)" class="st26" width="2.1" height="2.1"/>
			
				<rect x="671.9" y="147.3" transform="matrix(0.9917 0.1285 -0.1285 0.9917 24.642 -85.2458)" class="st26" width="2.1" height="2.1"/>
			
				<rect x="439.6" y="118.7" transform="matrix(0.9917 0.1285 -0.1285 0.9917 19.0428 -55.6246)" class="st26" width="2.1" height="2.1"/>
			
				<rect x="620.9" y="150.6" transform="matrix(0.9917 0.1285 -0.1285 0.9917 24.6436 -78.6641)" class="st26" width="2.1" height="2.1"/>
			
				<rect x="537.3" y="141.9" transform="matrix(0.9917 0.1285 -0.1285 0.9917 22.8323 -67.9982)" class="st26" width="2.1" height="2.1"/>
			
				<rect x="672" y="166.5" transform="matrix(0.9917 0.1285 -0.1285 0.9917 27.1053 -85.1044)" class="st26" width="2.1" height="2.1"/>
			
				<rect x="637.1" y="178" transform="matrix(-0.7071 -0.7071 0.7071 -0.7071 962.8394 756.9574)" class="st26" width="2.1" height="2.1"/>
			
				<rect x="612.9" y="190" transform="matrix(-0.7071 -0.7071 0.7071 -0.7071 912.9855 760.2061)" class="st26" width="2.1" height="2.1"/>
			
				<rect x="679.9" y="226.5" transform="matrix(-0.7071 -0.7071 0.7071 -0.7071 1001.4462 869.9672)" class="st26" width="2.1" height="2.1"/>
			
				<rect x="694.4" y="124.9" transform="matrix(-0.7071 -0.7071 0.7071 -0.7071 1098.2019 706.8181)" class="st26" width="2.1" height="2.1"/>
			
				<rect x="687.8" y="157.4" transform="matrix(-0.7071 -0.7071 0.7071 -0.7071 1063.8108 757.6019)" class="st26" width="2.1" height="2.1"/>
			
				<rect x="616.4" y="99.5" transform="matrix(-0.7071 -0.7071 0.7071 -0.7071 982.5795 607.3112)" class="st26" width="1.4" height="1.4"/>
			
				<rect x="623.8" y="126.8" transform="matrix(-0.7071 -0.7071 0.7071 -0.7071 975.9395 659.3685)" class="st26" width="1.5" height="1.5"/>
			
				<rect x="599.7" y="143.8" transform="matrix(-0.7071 -0.7071 0.7071 -0.7071 922.6987 671.0878)" class="st26" width="1.4" height="1.4"/>
		</g>
		
			<linearGradient id="SVGID_12_" gradientUnits="userSpaceOnUse" x1="46.9636" y1="413.4945" x2="344.1642" y2="402.3891" gradientTransform="matrix(1 0 0 -1 0 702)">
			<stop  offset="0" style="stop-color:#404F58"/>
			<stop  offset="0.3424" style="stop-color:#41535D"/>
			<stop  offset="0.8823" style="stop-color:#445E6D"/>
			<stop  offset="1" style="stop-color:#456171"/>
		</linearGradient>
		<polygon class="st28" points="352,298.6 348.8,297.8 348.6,297.6 345.3,297.2 341,295.1 340,294.7 345,294.4 347,293.4 
			351.4,293.7 363.6,291.2 355.3,291.3 351.6,291.3 342.9,290.5 340.2,290.9 337.4,290.5 328.8,291.1 317.7,289.1 306.4,289.4 
			302.3,290.3 294.2,289.6 291.1,288.4 283.2,289.2 276.4,289.3 270,288.1 259.3,288.1 249.3,288.1 243.8,285.8 229.9,285.8 
			211.9,285.8 205.6,282.7 183.7,286.1 166.8,282.9 119.9,284.1 93.5,277.5 74.7,278.6 39.1,275.8 39.1,298.6 119.1,298.6 
			150.3,301 170.3,305.8 228.6,303 252.7,306.6 277.3,305.8 298.8,306.9 291.5,304.1 299.7,301.4 301,300 301.7,300 317.8,300.4 
			320,300 336.3,299.8 346.6,299.8 347.7,299.8 348.8,299.6 353.7,299.3 		"/>
		
			<linearGradient id="land-left2_2_" gradientUnits="userSpaceOnUse" x1="238.2819" y1="534.1194" x2="190.317" y2="415.5393" gradientTransform="matrix(1 0 0 -1 0 702)">
			<stop  offset="0.1139" style="stop-color:#334D5A"/>
			<stop  offset="1" style="stop-color:#384A56"/>
		</linearGradient>
		<polygon id="land-left2_1_" class="st29" points="328.1,309.4 314.5,307.4 296,306.3 283.6,303.2 273.8,302.4 251.6,304.2 
			218.7,297.9 187.2,300.9 159.5,297.1 135.5,298.1 115.9,296.2 109.5,292.8 88.8,291.2 72.2,291.2 63.3,296.2 42.9,292.8 
			37.7,292.4 37.7,329.5 57.7,329.3 94.8,328.6 139.7,329.2 200.3,329 221.4,329.2 238.7,320.9 255.9,321.6 274.4,317.2 
			282.6,313.6 298,311.8 320,312.1 330.9,310.4 		"/>
		
			<linearGradient id="land-left1_2_" gradientUnits="userSpaceOnUse" x1="591.447" y1="378.8821" x2="153.2284" y2="354.9458" gradientTransform="matrix(1 0 0 -1 0 702)">
			<stop  offset="4.998519e-04" style="stop-color:#303D44"/>
			<stop  offset="0.5639" style="stop-color:#34424A"/>
			<stop  offset="0.9715" style="stop-color:#223239"/>
		</linearGradient>
		<polygon id="land-left1_1_" class="st30" points="313.7,329.5 290.1,324.1 270.5,324.5 252.9,320 224.2,319 196.8,314.3 
			164.8,314.6 119,309.2 102.6,310.3 102.6,310.3 38.4,305.8 38.4,385.3 97.1,385.3 97.1,385.3 101.2,385.3 117.1,385.3 
			127.2,385.3 137.8,385.3 159.9,385.3 324.6,385.2 293.6,371.7 267.4,367.9 241.6,360.1 229,355.4 248,356.3 252.1,352.2 
			271.2,350.9 288.6,352.5 305.6,351.3 312.4,347.5 321,347.5 329.6,343.3 347,342.6 328.5,334.8 		"/>
		
			<linearGradient id="SVGID_13_" gradientUnits="userSpaceOnUse" x1="387.7376" y1="167.2928" x2="460.0088" y2="168.3949" gradientTransform="matrix(0.999 4.384206e-02 -4.384206e-02 0.999 5.9016 -2.9009)">
			<stop  offset="0" style="stop-color:#F2FAFE"/>
			<stop  offset="0.2092" style="stop-color:#F3C187"/>
			<stop  offset="0.4322" style="stop-color:#EB8D80"/>
			<stop  offset="0.4645" style="stop-color:#C77E75"/>
			<stop  offset="0.5125" style="stop-color:#996B66"/>
			<stop  offset="0.5623" style="stop-color:#705A59"/>
			<stop  offset="0.613" style="stop-color:#504C4E"/>
			<stop  offset="0.665" style="stop-color:#364146"/>
			<stop  offset="0.7187" style="stop-color:#243A41"/>
			<stop  offset="0.7754" style="stop-color:#19353D"/>
			<stop  offset="0.8399" style="stop-color:#16343C"/>
		</linearGradient>
		<path class="st31" d="M390.6,180.3c-1.4-0.1-2.7-0.1-4.1-0.2l-0.7,0.3l0.6,0.4c3.1,0.1,6.2,0.2,9.3,0.4
			c26.1,1.1,49.1,3.3,63.3,5.6C445.8,184.2,420.1,181.6,390.6,180.3z"/>
	</g>
</g>
<path class="st32" d="M108.2,385.3l584.6-0.1c1.2-11.7,1.8-23.7,1.8-35.7c0-86.6-32-165.7-84.9-226.2H239.6L108.2,385.3z"/>
<g>
	
		<linearGradient id="SVGID_14_" gradientUnits="userSpaceOnUse" x1="692.9384" y1="4.6907" x2="732.2864" y2="113.0406" gradientTransform="matrix(-0.7937 -3.776829e-02 -4.753026e-02 0.9989 906.7684 543.5277)">
		<stop  offset="0" style="stop-color:#F3C187"/>
		<stop  offset="9.101394e-02" style="stop-color:#957F7E"/>
		<stop  offset="0.3157" style="stop-color:#6E7173"/>
		<stop  offset="0.7166" style="stop-color:#A7A9AC"/>
		<stop  offset="0.7463" style="stop-color:#ABADB0"/>
		<stop  offset="0.8691" style="stop-color:#B6B8BA"/>
		<stop  offset="1" style="stop-color:#BABCBE"/>
	</linearGradient>
	<polygon class="st33" points="268.8,549.7 273,567 286.6,592.4 307.9,607.9 334.8,624.4 371.8,620.5 396.7,599.2 420.7,578.2 
		425,570.1 395,569.8 377.8,533 366.2,538.9 343.3,554.8 338,546.9 326.4,531.6 306.7,511.8 283.7,512.3 269.8,527.6 	"/>
	<g>
		
			<linearGradient id="SVGID_15_" gradientUnits="userSpaceOnUse" x1="631.3553" y1="91.9997" x2="531.0015" y2="44.3543" gradientTransform="matrix(-1.1312 4.092877e-02 3.615890e-02 0.9993 1095.42 423.144)">
			<stop  offset="0" style="stop-color:#293942"/>
			<stop  offset="1" style="stop-color:#0F1C21"/>
		</linearGradient>
		<path class="st34" d="M450.6,523.3l3.3,12.9l5,8.9c0,0-8.4,2.3-9.2,4.5c-0.9,2.2-8,8.5-8,8.5s-9.9,15.9-10.5,16.3
			s-11.6,4.7-11.6,4.7l-7.1,6.2l-19.5-4l-18.8-11.5l-14-26.7l6.1-4.2l0.3-13.3l3.6-15.7l0.1-12l-0.6-7.4l6.2-0.7l7.1,2l7.5,8.4
			l0.3,13.7l6.1-18.4l10.4-12l11.9-3.2l12.3-1.1l16.8,8.2l-2.7,5.1c0,0-3.5,5.4-9.6,6c-3.9,0.4-11.3,2.5-11.3,2.5l-2,4l-2.7,4.6
			l2.7,1.3l4.7-3.5l9.3-2.4l11.2,10.4l-1.8,8.1L450.6,523.3z"/>
		
			<linearGradient id="SVGID_16_" gradientUnits="userSpaceOnUse" x1="394.1301" y1="549.767" x2="422.0515" y2="544.3378" gradientTransform="matrix(1.1317 -4.766682e-03 -4.766682e-03 1.0002 -45.6722 1.6526)">
			<stop  offset="0" style="stop-color:#293942"/>
			<stop  offset="1" style="stop-color:#0F1C21"/>
		</linearGradient>
		<path class="st35" d="M425.7,513.5l-2.4,20.6l2,5.7l2.5,4.7l12.6-2.5l-0.1,6.9l2.2,1.9l2,0.7l-0.4,2.9l-2.5,3.9l-10.5,16.3
			l-16.5,4.8c0,0-19,1.2-19.6,0.7c-0.6-0.5-6.8-5.8-6.8-5.8l20.9-6.4l2.2-14.6l0.4-11.9l5.4-13.9c0,0,2.7-8.3,3.1-8.6
			c0.4-0.3,2.4-6,2.4-6L425.7,513.5z"/>
		<g>
			
				<linearGradient id="SVGID_17_" gradientUnits="userSpaceOnUse" x1="564.0602" y1="83.8843" x2="599.4192" y2="83.8843" gradientTransform="matrix(-1.1312 4.092877e-02 3.615890e-02 0.9993 1095.42 423.144)">
				<stop  offset="0" style="stop-color:#293942"/>
				<stop  offset="1" style="stop-color:#243137"/>
			</linearGradient>
			<polygon class="st36" points="436.3,504.9 447.5,515.6 445.8,523.7 450.6,523.5 459.4,531 461,545.9 456,552.9 442.5,556.7 
				439.6,548.6 440.5,542 429.6,545.9 423.1,540.6 421.1,533.4 423.9,518.7 419.6,509.6 426.3,506.5 			"/>
			
				<linearGradient id="SVGID_18_" gradientUnits="userSpaceOnUse" x1="637.2222" y1="117.3671" x2="637.3232" y2="117.3671" gradientTransform="matrix(-1.1312 4.092877e-02 3.615890e-02 0.9993 1095.42 423.144)">
				<stop  offset="0" style="stop-color:#293942"/>
				<stop  offset="1" style="stop-color:#243137"/>
			</linearGradient>
			<path class="st37" d="M378.7,566.5c0,0,0.1,0.1,0.1,0.1L378.7,566.5z"/>
		</g>
	</g>
	<linearGradient id="SVGID_19_" gradientUnits="userSpaceOnUse" x1="210.3789" y1="540.6968" x2="241.3789" y2="632.1968">
		<stop  offset="0" style="stop-color:#4E5763"/>
		<stop  offset="0.6083" style="stop-color:#A7A9AC"/>
		<stop  offset="1" style="stop-color:#A7A9AC"/>
	</linearGradient>
	<polygon class="st38" points="100.3,526.1 95.1,545.6 97.3,565.8 103.5,587 120.5,605.9 142.8,617.3 168.4,615.9 189.9,613.6 
		239.1,604.5 254.6,607.4 278.5,613.8 288.8,622.2 296.3,623.7 304.9,623 317.3,602.6 332.3,546.3 329.4,530.3 318.4,517.7 
		277,515.1 246.5,542.3 122.9,513.1 	"/>
	<g>
		
			<linearGradient id="SVGID_20_" gradientUnits="userSpaceOnUse" x1="523.6307" y1="584.1248" x2="497.9009" y2="599.856" gradientTransform="matrix(-0.8368 -0.5475 -0.5475 0.8368 1059.403 315.4362)">
			<stop  offset="0" style="stop-color:#939598"/>
			<stop  offset="1" style="stop-color:#293942"/>
		</linearGradient>
		<polygon class="st39" points="305.5,551.7 309.2,539.4 311.2,525.3 310.3,517.3 311.9,514.1 313.6,524.1 311.8,539.9 308.6,553.1 
					"/>
		
			<linearGradient id="SVGID_21_" gradientUnits="userSpaceOnUse" x1="493.3656" y1="610.7786" x2="463.0574" y2="645.5285" gradientTransform="matrix(-0.8223 -0.569 -0.569 0.8223 1060.9698 330.8505)">
			<stop  offset="0" style="stop-color:#5B3528"/>
			<stop  offset="0.17" style="stop-color:#5B3528"/>
			<stop  offset="0.2068" style="stop-color:#753B22"/>
			<stop  offset="0.2534" style="stop-color:#90421C"/>
			<stop  offset="0.3012" style="stop-color:#A34617"/>
			<stop  offset="0.3502" style="stop-color:#AE4915"/>
			<stop  offset="0.4024" style="stop-color:#B24A14"/>
			<stop  offset="0.5719" style="stop-color:#5B3528"/>
		</linearGradient>
		<polygon class="st40" points="301.7,550.2 295.5,572.3 295.8,580.4 314,586 322.8,575 320.6,568.5 323.2,556.7 322.7,552.8 
			305.5,547.7 		"/>
		
			<linearGradient id="SVGID_22_" gradientUnits="userSpaceOnUse" x1="501.8926" y1="585.131" x2="469.3539" y2="621.6656" gradientTransform="matrix(-0.7678 -0.6407 -0.6407 0.7678 1073.276 388.9995)">
			<stop  offset="0" style="stop-color:#CFD1D2"/>
			<stop  offset="1" style="stop-color:#293942"/>
		</linearGradient>
		<polygon class="st41" points="323.3,518 323.7,526.7 323.3,537.1 321.7,546.9 319.5,553.9 314.5,569.8 304.2,563.9 308.5,548.9 
			310.8,542.3 312.3,534 313,524 311.9,514.1 		"/>
		<g>
			
				<linearGradient id="SVGID_23_" gradientUnits="userSpaceOnUse" x1="489.5149" y1="601.1413" x2="482.0349" y2="593.3106" gradientTransform="matrix(-0.7678 -0.6407 -0.6407 0.7678 1073.276 388.9995)">
				<stop  offset="0.2638" style="stop-color:#465A65"/>
				<stop  offset="1" style="stop-color:#0F1C21"/>
			</linearGradient>
			<polygon class="st42" points="312.1,535.2 323,538.6 323.2,537.4 312.3,534 			"/>
		</g>
		<g>
			
				<linearGradient id="SVGID_24_" gradientUnits="userSpaceOnUse" x1="495.5447" y1="592.662" x2="488.2511" y2="585.0264" gradientTransform="matrix(-0.7678 -0.6407 -0.6407 0.7678 1073.276 388.9995)">
				<stop  offset="0.2638" style="stop-color:#465A65"/>
				<stop  offset="1" style="stop-color:#0F1C21"/>
			</linearGradient>
			<polygon class="st43" points="312.9,524.6 323.7,527.9 323.7,526.7 312.9,524 			"/>
		</g>
		<g>
			
				<linearGradient id="SVGID_25_" gradientUnits="userSpaceOnUse" x1="457.4861" y1="617.378" x2="449.6046" y2="609.127" gradientTransform="matrix(-0.6238 -0.7816 -0.7816 0.6238 1078.3876 517.0347)">
				<stop  offset="0.2638" style="stop-color:#465A65"/>
				<stop  offset="1" style="stop-color:#0F1C21"/>
			</linearGradient>
			<polygon class="st44" points="310.6,543.3 321.5,547.8 321.7,546.9 310.8,542.3 			"/>
		</g>
		
			<linearGradient id="SVGID_26_" gradientUnits="userSpaceOnUse" x1="489.7688" y1="610.6393" x2="473.2946" y2="629.5279" gradientTransform="matrix(-0.8223 -0.569 -0.569 0.8223 1060.9698 330.8505)">
			<stop  offset="0" style="stop-color:#283841"/>
			<stop  offset="1" style="stop-color:#0F1C21"/>
		</linearGradient>
		<polygon class="st45" points="320.2,556.1 306.4,552.1 302.6,564.3 307.4,573.3 316.4,569.5 		"/>
	</g>
	<g>
		<g id="neck_tube_3_">
			
				<linearGradient id="SVGID_27_" gradientUnits="userSpaceOnUse" x1="53.2055" y1="513.9082" x2="-164.5467" y2="524.688" gradientTransform="matrix(1 0 0 1 270.4788 0)">
				<stop  offset="0.2638" style="stop-color:#293942"/>
				<stop  offset="1" style="stop-color:#2A373E"/>
			</linearGradient>
			<polygon class="st46" points="326.4,506.3 319,517.3 317.6,523.2 314.7,528.8 311.2,532.5 309.8,538.5 299.5,545.8 281.7,545.1 
				254.1,550.2 242.8,553.8 192.8,545.9 167.2,533.1 144,522.7 125.1,519.8 108.6,522.5 100.3,526.1 106.9,517.4 103.1,503.9 
				108.5,500.7 113.4,488.4 115,496.8 147.5,504.9 273.9,509.6 302.2,506.3 			"/>
			
				<linearGradient id="SVGID_28_" gradientUnits="userSpaceOnUse" x1="44.181" y1="517.5284" x2="55.9552" y2="517.5284" gradientTransform="matrix(1 0 0 1 270.4788 0)">
				<stop  offset="0" style="stop-color:#F3C187"/>
				<stop  offset="1" style="stop-color:#F1F2F2"/>
			</linearGradient>
			<polygon class="st47" points="319.7,509.2 315.1,517.5 314.7,528.8 317.6,523.2 319,517.3 326.4,506.3 			"/>
			
				<linearGradient id="SVGID_29_" gradientUnits="userSpaceOnUse" x1="-73.6208" y1="521.163" x2="4.6595" y2="521.163" gradientTransform="matrix(1 0 0 1 270.4788 0)">
				<stop  offset="0" style="stop-color:#293942"/>
				<stop  offset="1" style="stop-color:#0F1C21"/>
			</linearGradient>
			<polygon class="st48" points="275.1,518.3 260.2,521.2 233.9,524.4 216.7,523.9 202.3,520.6 196.9,518 207.6,518.7 215.3,521 
				236.9,520.8 258.3,519.6 			"/>
			
				<linearGradient id="SVGID_30_" gradientUnits="userSpaceOnUse" x1="-127.6784" y1="527.1689" x2="-37.6455" y2="527.1689" gradientTransform="matrix(1 0 0 1 270.4788 0)">
				<stop  offset="0" style="stop-color:#293942"/>
				<stop  offset="1" style="stop-color:#162329"/>
			</linearGradient>
			<polygon class="st49" points="172.4,518.9 201.8,521.5 223.3,528.9 232.8,535.4 222.6,535.2 203.1,530.2 192,530.4 157.7,527.4 
				142.8,521.4 			"/>
			
				<linearGradient id="SVGID_31_" gradientUnits="userSpaceOnUse" x1="-84.7899" y1="544.0137" x2="3.1574" y2="544.0137" gradientTransform="matrix(1 0 0 1 270.4788 0)">
				<stop  offset="0" style="stop-color:#293942"/>
				<stop  offset="1" style="stop-color:#0F1C21"/>
			</linearGradient>
			<polygon class="st50" points="185.7,542.3 204.2,543.7 219.5,542.8 237.1,545 273.6,537.9 260.5,543.7 240.1,550.2 192.8,545.9 
							"/>
			
				<linearGradient id="SVGID_32_" gradientUnits="userSpaceOnUse" x1="2.9102" y1="524.0178" x2="42.4387" y2="524.0178" gradientTransform="matrix(1 0 0 1 270.4788 0)">
				<stop  offset="0" style="stop-color:#293942"/>
				<stop  offset="1" style="stop-color:#0F1C21"/>
			</linearGradient>
			<polygon class="st51" points="312.9,515.1 286.3,526.1 273.4,533 290.7,527.6 300.4,523.6 			"/>
		</g>
	</g>
	<g id="space_yeti">
		<path class="st52" d="M341,303.2L276.4,290L192,313.7l-53.8,43.5l7.4,59.6l44.5,21.5l16.9,43.2l25.3,2l55.1-0.5l40.8-7l1.4-0.2
			c17.8-19.2,33.5-56.9,33.2-94.5c-0.2-20.2-2-36.1-9.1-52.4L341,303.2z"/>
		
			<linearGradient id="SVGID_33_" gradientUnits="userSpaceOnUse" x1="-1358.3661" y1="406.2854" x2="-1345.7601" y2="406.2854" gradientTransform="matrix(1 0 0 1 1665.6588 0)">
			<stop  offset="0.339" style="stop-color:#0E1D24"/>
			<stop  offset="0.7571" style="stop-color:#322E2F"/>
		</linearGradient>
		<polygon class="st53" points="307.3,404.4 307.3,410.7 319.6,408.2 319.9,401.8 		"/>
		
			<linearGradient id="SVGID_34_" gradientUnits="userSpaceOnUse" x1="1781.0238" y1="260.1147" x2="1829.0066" y2="260.1147" gradientTransform="matrix(-1 9.884078e-03 9.884078e-03 1 2113.3491 -0.7797)">
			<stop  offset="0" style="stop-color:#A77B5E"/>
			<stop  offset="0.291" style="stop-color:#4E5763"/>
			<stop  offset="0.5816" style="stop-color:#0E1C22"/>
		</linearGradient>
		<path class="st54" d="M317.3,242c-0.3-5.7,3.6-5.7,7.3-0.1c4,6.2,8.1,16.5,9.2,22c4.3,20.7-3.6,38.2-24.2,52.4c0,0-0.1,0-0.1,0.1
			l0,0c0,0-0.1,0.1-0.1,0.1c-1.4,0.9-7.4-5.5-13.5-14.3c-6.1-8.8-9.9-16.8-8.5-17.7c0.1-0.1,0.2-0.1,0.3-0.1
			C302.6,274.1,318.3,260.5,317.3,242z"/>
		
			<linearGradient id="SVGID_35_" gradientUnits="userSpaceOnUse" x1="-1566.0302" y1="488.4436" x2="-1334.7902" y2="488.4436" gradientTransform="matrix(1 -9.884079e-03 9.884079e-03 1 1662.0432 3.6813)">
			<stop  offset="0" style="stop-color:#686D71"/>
			<stop  offset="0.356" style="stop-color:#273D44"/>
			<stop  offset="0.4785" style="stop-color:#3A484E"/>
			<stop  offset="0.6452" style="stop-color:#4D5458"/>
			<stop  offset="0.817" style="stop-color:#585B5E"/>
			<stop  offset="1" style="stop-color:#5C5D60"/>
		</linearGradient>
		<path class="st55" d="M100.8,496.3l0.1,9.2c0.1,7.5,51.9,13,115.7,12.4c63.9-0.6,115.6-7.2,115.5-14.6L332,494L100.8,496.3z"/>
		
			<linearGradient id="SVGID_36_" gradientUnits="userSpaceOnUse" x1="-1327.1714" y1="477.1194" x2="-1569.4028" y2="477.1194" gradientTransform="matrix(1 -9.884079e-03 9.884079e-03 1 1662.0432 3.6813)">
			<stop  offset="0" style="stop-color:#939692"/>
			<stop  offset="0.3887" style="stop-color:#7A7979"/>
			<stop  offset="1" style="stop-color:#273D44"/>
		</linearGradient>
		<path class="st56" d="M332,494c0.1,7.5-51.6,14-115.5,14.6c-63.9,0.6-115.7-4.9-115.7-12.4s51.6-14,115.5-14.6
			C280.1,481,332,486.5,332,494z"/>
		
			<linearGradient id="SVGID_37_" gradientUnits="userSpaceOnUse" x1="-1377.1309" y1="364.2781" x2="-1316.5106" y2="375.1031" gradientTransform="matrix(1 -9.884079e-03 9.884079e-03 1 1662.0432 3.6813)">
			<stop  offset="0" style="stop-color:#0F1C21"/>
			<stop  offset="1" style="stop-color:#293942"/>
		</linearGradient>
		<polygon class="st57" points="329.9,475.6 333.6,437.5 301.2,412.8 302.7,382.3 302.7,377.4 328.9,356.9 343.9,340.8 351.8,327.3 
			353.1,324.3 351.1,316.2 334.8,294.2 291.4,256.5 224.6,240.1 167.2,266.3 97.9,324.2 100.6,392.3 134.7,462.6 190.6,495.8 
			248.8,500.2 		"/>
		
			<linearGradient id="SVGID_38_" gradientUnits="userSpaceOnUse" x1="-1562.97" y1="473.6076" x2="-1344.1547" y2="473.6076" gradientTransform="matrix(1 -9.884079e-03 9.884079e-03 1 1662.0432 3.6813)">
			<stop  offset="0" style="stop-color:#F3C187"/>
			<stop  offset="9.101394e-02" style="stop-color:#D47A6D"/>
			<stop  offset="0.3157" style="stop-color:#CFD1D2"/>
			<stop  offset="0.9595" style="stop-color:#A7A9AC"/>
			<stop  offset="0.9634" style="stop-color:#B5AEA5"/>
			<stop  offset="0.9722" style="stop-color:#D0B697"/>
			<stop  offset="0.9811" style="stop-color:#E3BC8E"/>
			<stop  offset="0.9902" style="stop-color:#EEC088"/>
			<stop  offset="1" style="stop-color:#F2C186"/>
		</linearGradient>
		<path class="st58" d="M107.1,480.8l0.1,13.5c0.1,5.7,48.6,9.9,108.4,9.3s108.2-5.7,108.2-11.4l-0.1-13.5l-18.7,2.9l-18.1,2.1
			L107.1,480.8z"/>
		<path class="st59" d="M160.7,470c-32.7,2.5-53.7,6.1-53.6,9.8c0,3.8,21,6.9,53.6,8.6V470z"/>
		
			<linearGradient id="SVGID_39_" gradientUnits="userSpaceOnUse" x1="-1566.8184" y1="442.641" x2="-1344.1733" y2="442.641" gradientTransform="matrix(1 -9.884079e-03 9.884079e-03 1 1662.0432 3.6813)">
			<stop  offset="0" style="stop-color:#585C5F"/>
			<stop  offset="0.3157" style="stop-color:#CFD1D2"/>
			<stop  offset="0.9673" style="stop-color:#A7A9AC"/>
		</linearGradient>
		<path class="st60" d="M285.7,489l-79-4.2l-7.3-18.9l-11-28.8l-21.8-10.7l-24.8-9.3l-38.8,27.7l8.6,13c0,0,14.1,14.5,19.3,19.3
			l14.1,3.5l12.1,2.8l2.8,4.7c-38.5-1.9-52.7-5.9-52.7-8.6l0.1,14.4c0.1,5.7,48.6,11.2,108.4,10.6c59.8-0.6,108.2-5.2,108.2-10.9
			l-0.1-15.3C323.6,479.1,286,488.5,285.7,489z"/>
		
			<linearGradient id="SVGID_40_" gradientUnits="userSpaceOnUse" x1="-1573.9824" y1="227.5533" x2="-1464.8193" y2="305.6798" gradientTransform="matrix(1 -9.884079e-03 9.884079e-03 1 1662.0432 3.6813)">
			<stop  offset="0" style="stop-color:#494C4F"/>
			<stop  offset="0.6682" style="stop-color:#BEC0C2"/>
			<stop  offset="0.8462" style="stop-color:#CDD1D1"/>
			<stop  offset="1" style="stop-color:#A7A9AC"/>
		</linearGradient>
		<path class="st61" d="M129.7,347.4l129.1-72.1l54.8-2c-12.2-28.1-51.7-44-96.5-41.5C141.3,235.9,79.3,301,80,376.9
			C80.2,392.3,129.7,347.4,129.7,347.4z"/>
		
			<linearGradient id="SVGID_41_" gradientUnits="userSpaceOnUse" x1="-1585.2109" y1="258.2753" x2="-1533.6562" y2="258.2753" gradientTransform="matrix(1 -9.884079e-03 9.884079e-03 1 1662.0432 3.6813)">
			<stop  offset="0" style="stop-color:#5A5C5D"/>
			<stop  offset="0.3203" style="stop-color:#4E5763"/>
			<stop  offset="1" style="stop-color:#0E1C22"/>
		</linearGradient>
		<path class="st62" d="M97.4,239.8c-0.1-5.1-3.8-5.8-7.7,0.1c-4.6,6.9-8.2,17.6-9.3,23.4c-4.1,21.9,4.6,40.4,26.7,55
			c0,0,1.1,0.7,1.1,0.7c1.5,1,9-5.5,15.3-15c6.2-9.5,8.6-18.4,7.2-19.3c-0.1-0.1-0.9-0.8-1-0.8C113.7,273.4,97.9,259.5,97.4,239.8z"
			/>
		
			<linearGradient id="SVGID_42_" gradientUnits="userSpaceOnUse" x1="-1560.0409" y1="449.0435" x2="-1509.6854" y2="449.0435" gradientTransform="matrix(1 -9.884079e-03 9.884079e-03 1 1662.0432 3.6813)">
			<stop  offset="0" style="stop-color:#4E5763"/>
			<stop  offset="0.6682" style="stop-color:#273D44"/>
			<stop  offset="1" style="stop-color:#273D44"/>
		</linearGradient>
		<path class="st63" d="M106.3,450.3c0,0,4.1,23.8,4.6,26.4c0.5,2.6,0.5,2.5,2.1,3.2c1.9,0.8,6.5,1.7,11.3,2.3
			c9.3,1.4,32.8,3.2,32.8,3.2v-1.8c0,0-20.4-5.8-29.2-11.5C115.5,464,106.3,450.3,106.3,450.3z"/>
		
			<linearGradient id="SVGID_43_" gradientUnits="userSpaceOnUse" x1="-1352.2347" y1="309.1929" x2="-1419.3302" y2="417.7759" gradientTransform="matrix(1 0 0 1 1665.6588 0)">
			<stop  offset="0" style="stop-color:#273D44"/>
			<stop  offset="0.2046" style="stop-color:#ADA7A5"/>
			<stop  offset="0.3735" style="stop-color:#C6C8CA"/>
			<stop  offset="0.687" style="stop-color:#CDD1D1"/>
		</linearGradient>
		<path class="st64" d="M295.9,322.5l13.4-4l16.8,5.4l-12.5,9.6l15.5,2.9l7.5,8.9l-12.6,5.6l-4.7,5.7c0,0-7,37.2-7.7,57.6
			c-0.7,20.3,1.6,66.3,1.6,66.3l-24.6,3.8h-53.9l-25.1-2.9l-16.3-48.4l-18.1-8.7c0,0-6-40.3-5.6-45.4s7.7-20.4,9-22.4
			c1.6-2.4,13.4-11.2,13.4-11.2s21.9-13.4,29.7-16.5c7.7-3.1,13.7-3.7,13.7-3.7l52.7-15.1L295.9,322.5z"/>
		
			<radialGradient id="SVGID_44_" cx="-1420.3666" cy="369.5702" r="91.5661" gradientTransform="matrix(1 -9.884079e-03 9.884079e-03 1 1662.0432 3.6813)" gradientUnits="userSpaceOnUse">
			<stop  offset="0" style="stop-color:#0F1C21;stop-opacity:0"/>
			<stop  offset="0.6763" style="stop-color:#0F1C21;stop-opacity:0.6512"/>
			<stop  offset="0.7625" style="stop-color:#1A282F;stop-opacity:0.7441"/>
			<stop  offset="0.8885" style="stop-color:#24343C;stop-opacity:0.8799"/>
			<stop  offset="1" style="stop-color:#283841"/>
		</radialGradient>
		<path class="st65" d="M175.9,429.1c0,0-6.9-45.2-6.2-50.3s7.2-19.7,9-22.4s13.4-11.2,13.4-11.2s22.6-13.6,29.7-16.5
			c7.1-2.9,31.1-8.3,31.1-8.3l33.6-1.6l9.4,3.7c0,0,9.8-1.5,14.2-1.6c4.3,0,16.1,2.9,16.1,2.9l-12.5,9.6l15.5,2.9l7.5,8.9l-12.6,5.6
			l-4.7,5.7l-1.5,9l11-8.6l15.1-16.1l7.9-13.5l0.8-1.9l-7.4-18l-26.9-14l-30.6-3.1l-18.7,0.8l-16.6,1.3l-27.2,8.3L144.7,333l-3,23.3
			l7.1,61.4L175.9,429.1z"/>
		<g class="st7">
			<polygon class="st66" points="249.8,465.8 246.2,468.9 241.4,461.1 241,461.6 245.6,472.7 250,470.3 255.6,475.1 265.5,470.8 
				268.2,474.2 278.3,459.8 269.5,467.5 266.5,465.3 256,470.4 			"/>
		</g>
		<g class="st10">
			<path class="st3" d="M290.4,422.8c3,0,5.8,0.5,7.9,1.4c0.1,0,0.2,0,0.4,0.1c3-2.5,5-7.2,5-12.7c0-8.1-4.4-14.6-9.9-14.6
				s-9.9,6.5-9.9,14.6c0,4.6,1.5,8.7,3.7,11.4C288.4,422.8,289.4,422.8,290.4,422.8z"/>
			
				<linearGradient id="SVGID_45_" gradientUnits="userSpaceOnUse" x1="-1376.7012" y1="412.4137" x2="-1365.8303" y2="412.4137" gradientTransform="matrix(1 0 0 1 1665.6588 0)">
				<stop  offset="0" style="stop-color:#293942"/>
				<stop  offset="1" style="stop-color:#0F1C21"/>
			</linearGradient>
			<ellipse class="st67" cx="294.4" cy="412.4" rx="5.4" ry="8.9"/>
			<ellipse class="st3" cx="292.4" cy="405.9" rx="2" ry="3.4"/>
		</g>
		<g class="st7">
			<path class="st3" d="M232,424.5c1.7,0,3.4,0.1,4.9,0.3c2.6-3.3,4.2-8,4.2-13.3c0-10-5.9-18-13.1-18c-7.2,0-13.1,8.1-13.1,18
				c0,6.1,2.2,11.5,5.6,14.8C223.7,425.2,227.7,424.5,232,424.5z"/>
			
				<linearGradient id="SVGID_46_" gradientUnits="userSpaceOnUse" x1="-1442.1543" y1="411.4691" x2="-1428.0276" y2="411.4691" gradientTransform="matrix(1 0 0 1 1665.6588 0)">
				<stop  offset="0" style="stop-color:#293942"/>
				<stop  offset="1" style="stop-color:#0F1C21"/>
			</linearGradient>
			<ellipse class="st68" cx="230.6" cy="411.5" rx="7.1" ry="10.4"/>
			<ellipse class="st3" cx="227.4" cy="404" rx="2.6" ry="3.9"/>
		</g>
		<path class="st66" d="M229.9,379c5.1,0.7,9.6,2.6,13,5.2c-1.7-5.6-6.3-9.9-12.2-10.8c-5.9-0.8-11.6,2.1-14.7,7
			C220,378.9,224.8,378.3,229.9,379z"/>
		
			<linearGradient id="SVGID_47_" gradientUnits="userSpaceOnUse" x1="-1381.7635" y1="385.4676" x2="-1360.0328" y2="385.4676" gradientTransform="matrix(1 0 0 1 1665.6588 0)">
			<stop  offset="0" style="stop-color:#A1A3A6"/>
			<stop  offset="1" style="stop-color:#9D867B"/>
		</linearGradient>
		<path class="st69" d="M293.9,385.3c4.1-1.1,8.2-0.8,11.7,0.4c-3.3-4.6-8.3-7-13.1-5.7c-4.8,1.2-8,5.8-8.6,11.4
			C286.4,388.5,289.8,386.3,293.9,385.3z"/>
		<path class="st70" d="M244.3,451.4c-0.7-0.3,11.3,0,30.3-3.5c0,0-0.2-1.5,0-3.2c0.1-1,0.4-2.1,0.8-2.9c0,0,1.7,6.3,3.4,7.5
			c0,0-3.6,3.6-12.9,5.2c0,0,5.1-2.2,7.1-3.8C273.1,450.5,252.2,454.3,244.3,451.4z"/>
		<path class="st71" d="M300.6,481.3l5.7-0.9l6.9-1.3c0,0-0.9-16.4-1.4-36.6c-0.2,1.5-0.4,3-0.6,4.4
			C308.8,462.5,305.5,475.4,300.6,481.3z"/>
		
			<radialGradient id="SVGID_48_" cx="-1433.4891" cy="414.3051" r="77.3724" gradientTransform="matrix(1 0 0 1.4143 1665.6588 -171.6622)" gradientUnits="userSpaceOnUse">
			<stop  offset="0" style="stop-color:#E6E7E8"/>
			<stop  offset="0.17" style="stop-color:#E3E4E5"/>
			<stop  offset="0.3163" style="stop-color:#D8DBDC"/>
			<stop  offset="0.4538" style="stop-color:#C6CBCD"/>
			<stop  offset="0.586" style="stop-color:#ADB5B7"/>
			<stop  offset="0.7143" style="stop-color:#8D989C"/>
			<stop  offset="0.8398" style="stop-color:#66757A"/>
			<stop  offset="0.9607" style="stop-color:#384C52"/>
			<stop  offset="1" style="stop-color:#273D44"/>
		</radialGradient>
		<path class="st72" d="M201.9,440.2l-8.5-20.1l-5.1-23.5l-2-21.1l6.2-16.9l6-8.9l11.1-8.6l11-7.4l14.9-8.6c0,0-1.9,0.3-4.4,0.8
			c-1.5,0.4-3.2,0.9-4.6,1.3c-4.4,1.2-8.2,3.1-8.2,3.1l-7.7,4.1l-18.5,10.7c0,0-12.3,9.2-13.4,11.2s-8.3,16.2-9,22.4
			s5.6,45.4,5.6,45.4l18.1,8.7l16,47.5l16.2,2.3l13.5,0.6l-19.6-11.5L201.9,440.2z"/>
		<polygon class="st71" points="272.8,329.1 285.1,335.6 301.9,348.7 300.8,334.3 298.3,323 295.6,319.5 270.8,326.3 268,327.6 		
			"/>
		<g>
			
				<linearGradient id="SVGID_49_" gradientUnits="userSpaceOnUse" x1="-1357.1316" y1="304.4589" x2="-1416.6902" y2="315.7268" gradientTransform="matrix(1 -9.884079e-03 9.884079e-03 1 1662.0432 3.6813)">
				<stop  offset="0" style="stop-color:#F3C187"/>
				<stop  offset="8.108176e-02" style="stop-color:#F4AA8D"/>
				<stop  offset="0.4658" style="stop-color:#CFD1D2"/>
			</linearGradient>
			<path class="st73" d="M274,328.1c0,0,9,2.1,13.7,4.6c4.7,2.5,13.8,11.2,13.8,11.2s-0.9-14.1-1.8-16.9c-1.2-3.4-2.8-8.9-7.1-13.8
				c-1.6-1.8-7.6-7.4-7.6-7.4s-18.3,3-22.2,3.6c-6.2,0.9-27.5,15.7-27.5,15.7"/>
		</g>
		<g class="st10">
			
				<linearGradient id="SVGID_50_" gradientUnits="userSpaceOnUse" x1="-1355.3263" y1="416.325" x2="-1489.4856" y2="416.325" gradientTransform="matrix(1 0 0 1 1665.6588 0)">
				<stop  offset="0" style="stop-color:#E6978C"/>
				<stop  offset="0.4658" style="stop-color:#A5A7AA"/>
				<stop  offset="0.7085" style="stop-color:#A9ADAE"/>
				<stop  offset="0.9757" style="stop-color:#293942"/>
			</linearGradient>
			<path class="st74" d="M288.2,404.5c4.6-0.7,12.1-0.6,12.1-0.6s8.3,1.3,11.8,3.5l0.5-6.1l-2.9-0.6l-8.2-1.4c0,0-9.4-0.4-14.3,0.1
				c-4.9,0.5-15.2,3.9-15.2,3.9s-3.6-1.1-6.7-1.1c-3.1,0-6.3,0.5-6.3,0.5s-8.2-8.3-38.2-5.8c-11.5,0.9-31.4,4.3-31.4,4.3l-17.2,3.4
				l1.1,6.6l22.6-4.2l2.8-0.2l0.9,6.2c0,0,3.5,14.2,4.5,17c1,2.9,5.7,5,10.5,5.5c4.8,0.5,13.9,0.7,13.9,0.7l18.3-2.6
				c0,0,3.8-0.9,6-3.4c2.2-2.5,3.4-6.8,3.4-6.8l2.2-12.9c0,0,4-2.2,7.1-2.3c0.7,0,1.3,0.1,1.8,0.3l0,0l6.3,1.8l3.3-2.1
				c1.2-1.1,3.1-1.7,3.1-1.7S283.5,405.2,288.2,404.5z M251.7,417.8c-0.4,3.5-1.4,8-3.8,9.7c-2.4,1.7-19.9,3.5-19.9,3.5l-13.7-0.9
				c0,0-4.1-0.9-4.9-3.3c-0.5-1.6-4.6-15.8-4.5-18.5c0-2.6,2.5-3.8,2.5-3.8s8-2.7,17.2-3c9.2-0.3,22,2.7,22,2.7s5.7,1.2,6.1,2.2
				C253.2,407.6,252.1,414.4,251.7,417.8z"/>
			
				<linearGradient id="SVGID_51_" gradientUnits="userSpaceOnUse" x1="-1350.5739" y1="433.7098" x2="-1405.2389" y2="416.6373" gradientTransform="matrix(1 0 0 1 1665.6588 0)">
				<stop  offset="0" style="stop-color:#E6978C"/>
				<stop  offset="0.4658" style="stop-color:#A5A7AA"/>
				<stop  offset="0.7085" style="stop-color:#A9ADAE"/>
				<stop  offset="0.9757" style="stop-color:#293942"/>
			</linearGradient>
			<path class="st75" d="M311.6,423.7c-0.5,0.6-4.5,2.2-5,2.5c-4.5,2.7-20.4,4.6-25.1,0.1c-0.1-0.1-4.3-3.4-4.4-3.5l2.6,8.8
				c2,0.4,7.8,1.3,7.8,1.3s5.7,0.5,8.7,0.3c2.4-0.1,12.4-2.3,15.4-3.4L311.6,423.7z"/>
		</g>
		
			<linearGradient id="SVGID_52_" gradientUnits="userSpaceOnUse" x1="-1487.3318" y1="458.1367" x2="-1336.7272" y2="458.1367" gradientTransform="matrix(0.9997 2.462571e-02 -2.462571e-02 0.9997 1669.981 -9.6938)">
			<stop  offset="0.339" style="stop-color:#0E1D24"/>
			<stop  offset="0.7571" style="stop-color:#322E2F"/>
		</linearGradient>
		<path class="st76" d="M318.9,399c0,0-8.5-2.7-14.4-3.2c-5.9-0.5-11.6-0.5-17.9,0.5c-4.9,0.8-12.3,4.1-12.3,4.1s-2.9-1.5-6-1.5
			c-3.1,0-8.1,1.1-8.1,1.1s-6.1-9.3-36.1-6.8c-7,0.6-11.9,2.1-17.9,3.1c-3.9,0.7-8.3,1.6-15.1,2.6c-5.6,0.8-19,3.6-19,3.6l0.9,6.3
			l26.6-4.7l2.8-0.2c0,0,0.6,2.9,0.9,6.2c0.6,5.3,3,11.6,3.8,14.5c1.5,5.4,7.5,7.7,11.2,8s8.2,0.7,13.9,0.7s12.8-0.9,15.9-1.8
			s4.5-1.2,6.7-3.7c2.2-2.5,2.7-7.1,2.7-7.1l3.3-13.1c0,0,4-2.2,7.1-2.3c3.1,0,5.3,1.9,5.3,1.9s2.6,12,3.6,14.2s1.6,3.8,3.9,5.8
			c2.3,2,9.3,2.7,9.3,2.7s5.7,0.5,8.7,0.3s11.8-2.4,13.1-3.4c1.9-1.5,3.7-5.1,4.5-7.1c0.8-2,3.1-11.4,3.1-11.4l2.3-3.2
			c0,0,1.8-3.7,1.1-4.5C321.9,399.9,318.9,399,318.9,399z M253.7,415c-0.9,3.6-1.8,9.6-4.2,11.3c-3,2.1-17.9,2.1-17.9,2.1l-12.1-0.8
			c0,0-5.4-0.5-6.9-5c-0.6-1.6-3.1-11.4-3.4-17.2c-0.1-2.6,1.9-3.4,1.9-3.4s8-2.7,17.2-3c9.2-0.3,17.9,1.2,20.2,1.8
			c2.4,0.5,6.1,2.2,6.6,3.1C255.8,405.5,254.5,411.5,253.7,415z M308.9,423.5c-4.5,2.7-20.4,4.6-25.1,0.1c-3.1-3-5.9-14.5-5.6-16.5
			c0.3-2,4.1-3.2,4.1-3.2s3.5-1.8,8.1-2.5c4.6-0.7,7.9-0.7,11.8-0.3c4.4,0.4,8.3,1.2,10.8,2.5c2.7,1.4,2,2.9,1.4,5.8
			C313.5,413.4,312.1,421.5,308.9,423.5z M182.7,400.3"/>
		<path class="st77" d="M341,303.2L276.4,290L192,313.7l-53.8,43.5l7.4,59.6l44.5,21.5l16.9,43.2l25.3,2l55.1-0.5l40.8-7l1.4-0.2
			c17.8-19.2,33.5-56.9,33.2-94.5c-0.2-20.2-2-36.1-9.1-52.4L341,303.2z"/>
		
			<linearGradient id="SVGID_53_" gradientUnits="userSpaceOnUse" x1="-1331.0186" y1="432.7097" x2="-1522.7616" y2="436.0085" gradientTransform="matrix(1 -9.884079e-03 9.884079e-03 1 1662.0432 3.6813)">
			<stop  offset="0" style="stop-color:#F2C186"/>
			<stop  offset="0.3806" style="stop-color:#293942"/>
			<stop  offset="1" style="stop-color:#1F2C32"/>
		</linearGradient>
		<path class="st78" d="M149.6,411.9l43.7,21l16,47.5c0,0,16.8,2.1,29.7,2.9s36.6,0.2,49.4-0.5c12.9-0.7,41.4-7.1,41.4-7.1
			l-6.4,10.5c0,0-21.9,5.7-36,6.8s-37.6,2-55,1c-17.4-0.9-33.9-2.1-33.9-2.1l-16.2-52.6l-47.8-22.4L149.6,411.9z"/>
		
			<linearGradient id="SVGID_54_" gradientUnits="userSpaceOnUse" x1="-1649.8394" y1="216.9862" x2="-1577.1008" y2="216.9862" gradientTransform="matrix(0.9619 -9.226510e-02 9.727631e-02 1.0142 1648.2845 20.4357)">
			<stop  offset="0.2638" style="stop-color:#465A65"/>
			<stop  offset="1" style="stop-color:#1A262C"/>
		</linearGradient>
		<path class="st79" d="M110.9,331.3c-2.5,0.1-9.2,0.6-9.2,0.6l-6,8.1c-9.9,10.9-15.4,31-13.2,53.4c2,21.3,10.5,39.3,21.4,48.5
			l3.3,4.1c0,0,13.2,1.9,15.7,1.7c18.9-1.8,31-28.6,29.4-61C150.8,354.2,129.8,330.7,110.9,331.3z"/>
		
			<linearGradient id="SVGID_55_" gradientUnits="userSpaceOnUse" x1="-1816.1592" y1="201.6093" x2="-1736.432" y2="258.7274" gradientTransform="matrix(0.8946 -7.587446e-02 8.664025e-02 0.9962 1668.9191 20.9097)">
			<stop  offset="0" style="stop-color:#5E6260"/>
			<stop  offset="0.2439" style="stop-color:#7E8180"/>
			<stop  offset="0.5151" style="stop-color:#9B9D9F"/>
			<stop  offset="0.6682" style="stop-color:#A6A8AA"/>
			<stop  offset="0.7554" style="stop-color:#9B9FA3"/>
			<stop  offset="0.9074" style="stop-color:#7E8990"/>
			<stop  offset="0.9974" style="stop-color:#6A7983"/>
		</linearGradient>
		<path class="st80" d="M137.7,386c3,31.5-8.7,58.4-26.2,60.1s-34.2-22.5-37.2-54c-3-31.5,8.7-58.4,26.2-60.1
			C118,330.3,134.7,354.5,137.7,386z"/>
		
			<linearGradient id="SVGID_56_" gradientUnits="userSpaceOnUse" x1="-1545.3292" y1="389.1113" x2="-1581.6766" y2="394.6747" gradientTransform="matrix(1 0 0 1 1665.6588 0)">
			<stop  offset="0" style="stop-color:#4D6370"/>
			<stop  offset="1" style="stop-color:#212E34"/>
		</linearGradient>
		<path class="st81" d="M97.4,364.3l0.6,6.1c-7.5,0.7-12.7,11.1-11.6,23.1c1.2,12.1,8.2,21.2,15.8,20.5l0.6,6.1
			c9.6-0.9,16.3-14.2,14.8-29.6S107,363.4,97.4,364.3z"/>
		
			<linearGradient id="SVGID_57_" gradientUnits="userSpaceOnUse" x1="-1275.0826" y1="282.0123" x2="-1495.9581" y2="282.0123" gradientTransform="matrix(1.0216 -1.009815e-02 9.884084e-03 0.9999 1651.8302 3.782)">
			<stop  offset="0" style="stop-color:#5B3528"/>
			<stop  offset="1" style="stop-color:#1A262C"/>
		</linearGradient>
		<path class="st82" d="M267,244.5c-69.6-6.9-124.2,37.8-144.1,90.3c7.2,2.9,13.2,21.6,13.2,21.6l5.7,0.2c0,0,1.7-0.1,1.7-0.2
			c33.7-36.1,80.6-59.8,145.5-60.4c15-0.1,38,3.2,54.7,12.7c0,0,0.1,0,0.1,0l3.9,7.2l3.9,7.3l1,2.2c0,0,4.1-6.3,2.2-12
			C344.1,284.8,312.4,249,267,244.5z"/>
		
			<linearGradient id="SVGID_58_" gradientUnits="userSpaceOnUse" x1="-1463.9523" y1="365.4521" x2="-1315.6606" y2="233.9239" gradientTransform="matrix(1.0216 -1.009815e-02 9.884084e-03 0.9999 1651.8302 3.782)">
			<stop  offset="0" style="stop-color:#273D44"/>
			<stop  offset="0.4874" style="stop-color:#F26522"/>
			<stop  offset="0.6685" style="stop-color:#F3903F"/>
			<stop  offset="0.8876" style="stop-color:#ED683C"/>
			<stop  offset="1" style="stop-color:#E93E3A"/>
		</linearGradient>
		<path class="st83" d="M266.9,240.6c-69.6-6.9-129.3,41.2-149.2,93.6c8,4.8,13.2,12.3,18.3,22.2c34-38.1,84.6-64.3,151.7-65
			c10.8-0.1,26.5,1.9,40.7,6.6c6.1,2,12,4.6,17.1,7.7c4.3,2.6,10,8.5,9.5,13.7c2.5-5.9-1.9-12.4-4.1-16.5
			C336.6,276.1,306.3,244.5,266.9,240.6z"/>
		<path class="st84" d="M352.2,324.6l-8.4-15.9l-3.9-2.1l-5.2-2.3l10.1,20.3c7.2,16.5,10.6,34.4,10.8,54.9
			c0.4,38.1-15.5,76.3-33.6,95.8l-2,2.4l7.7-1.6l2.1-0.5c18.1-19.5,33.5-58.1,33.1-96.2C362.7,359,359.4,341.1,352.2,324.6z"/>
	</g>
	<g>
		<linearGradient id="SVGID_59_" gradientUnits="userSpaceOnUse" x1="167.5047" y1="568.5071" x2="207.3228" y2="568.5071">
			<stop  offset="0" style="stop-color:#3C2415"/>
			<stop  offset="1" style="stop-color:#754C29"/>
		</linearGradient>
		<polygon class="st85" points="170.8,547.7 168.5,550.9 167.5,554.5 174.3,566.1 171.5,576.3 184.2,589.3 206,581.1 207.3,578.5 
			186.5,584 177.1,575.9 179.7,564.6 		"/>
		<linearGradient id="SVGID_60_" gradientUnits="userSpaceOnUse" x1="97.9242" y1="535.582" x2="184.2508" y2="535.582">
			<stop  offset="0" style="stop-color:#939598"/>
			<stop  offset="1" style="stop-color:#293942"/>
		</linearGradient>
		<polygon class="st86" points="101.2,526 97.9,536.3 99.2,544.4 103.8,529.6 122.4,525.2 133.8,526.9 143.8,530 155.1,536 
			164.5,542.9 175.3,552.8 178.8,552.3 184.3,551.6 166.7,532.3 152.2,524.1 139.8,520.2 125.8,518.4 111.7,521.1 		"/>
		<linearGradient id="SVGID_61_" gradientUnits="userSpaceOnUse" x1="190.5694" y1="583.2982" x2="185.6398" y2="545.9368">
			<stop  offset="0.4509" style="stop-color:#F26522"/>
			<stop  offset="0.7779" style="stop-color:#414042"/>
		</linearGradient>
		<polygon class="st87" points="170.8,547.7 168.5,550.9 177.6,565.5 174,575.9 185.1,586.9 207.3,578.5 207,572.9 201.7,562 
			192,547.7 187.1,545.6 		"/>
		<linearGradient id="SVGID_62_" gradientUnits="userSpaceOnUse" x1="101.1807" y1="537.2783" x2="191.7195" y2="537.2783">
			<stop  offset="0" style="stop-color:#FFFFFF"/>
			<stop  offset="1" style="stop-color:#293942"/>
		</linearGradient>
		<polygon class="st88" points="136.6,516.9 150.6,519.1 161.7,524.3 171.7,530.3 179.3,538.5 186.8,546.8 191.7,555.8 181.9,557.6 
			165.4,539.6 158.7,533.2 147.1,527.1 133.6,522.6 121.9,521.3 101.2,526 117.2,518.6 		"/>
		<linearGradient id="SVGID_63_" gradientUnits="userSpaceOnUse" x1="197.789" y1="569.0936" x2="181.1839" y2="551.7102">
			<stop  offset="0.2638" style="stop-color:#465A65"/>
			<stop  offset="1" style="stop-color:#0F1C21"/>
		</linearGradient>
		<polygon class="st89" points="173.9,552.7 191.3,550.2 199.4,563.6 196.4,570.1 184.1,566.9 		"/>
		<g>
			<polygon class="st90" points="123.2,521.4 121.9,521.3 136.8,516.9 137.7,517.1 			"/>
		</g>
		<g>
			<polygon class="st90" points="134.6,523 133.6,522.6 150.6,519.1 151.4,519.5 			"/>
		</g>
		<g>
			<polygon class="st90" points="148,527.5 147.3,527.1 161.1,524 161.9,524.5 			"/>
		</g>
		<g>
			<polygon class="st90" points="159.5,534 158.7,533.2 171.7,530.3 172.2,531 			"/>
		</g>
		<g>
			<polygon class="st90" points="166.2,540.6 165.4,539.6 178.3,537.3 179,538.1 			"/>
		</g>
	</g>
	<g>
		
			<linearGradient id="SVGID_64_" gradientUnits="userSpaceOnUse" x1="107.5666" y1="618.0276" x2="238.5744" y2="530.3879" gradientTransform="matrix(0.9943 0.1068 -0.1068 0.9943 61.9891 -15.3389)">
			<stop  offset="0" style="stop-color:#6B6C6F"/>
			<stop  offset="0.3157" style="stop-color:#CFD0D2"/>
			<stop  offset="0.7166" style="stop-color:#A6A8AB"/>
			<stop  offset="0.7463" style="stop-color:#AAACAF"/>
			<stop  offset="0.8691" style="stop-color:#B5B7B9"/>
			<stop  offset="1" style="stop-color:#B9BBBD"/>
		</linearGradient>
		<polygon class="st91" points="88.2,558.9 92.7,576.6 114.7,601 135,617.9 168.9,630.2 215.7,629.5 254.1,615.4 279.7,603 
			293.6,580.5 283.6,575.7 264.6,566.2 238.9,568 181.9,570.6 178.1,560.1 164.6,544 137.8,524.1 108.8,522.6 90.6,536.8 		"/>
		<polygon class="st92" points="260.6,612.3 230.7,620.8 215.5,625.3 170.8,627.2 122.4,607.5 137.7,618.1 168.8,631.2 215.7,630.5 
			253.4,615.7 		"/>
		
			<linearGradient id="SVGID_65_" gradientUnits="userSpaceOnUse" x1="238.2593" y1="579.255" x2="305.819" y2="579.255" gradientTransform="matrix(0.9674 0.2533 -0.2533 0.9674 153.8049 -36.432)">
			<stop  offset="0" style="stop-color:#293942"/>
			<stop  offset="1" style="stop-color:#0F1B21"/>
		</linearGradient>
		<path class="st93" d="M242,567.3c0,0,6.3,6.5,11.2,18.6c4.2,10.4,3.5,28.6,3.5,28.6L276,618l27.6-19l-22.2-27.6l-17.6-5.4
			L242,567.3z"/>
		
			<linearGradient id="SVGID_66_" gradientUnits="userSpaceOnUse" x1="462.2837" y1="486.4444" x2="507.3382" y2="486.4444" gradientTransform="matrix(-0.9447 0.3281 0.3281 0.9447 508.2892 -42.9548)">
			<stop  offset="0" style="stop-color:#3B2314"/>
			<stop  offset="1" style="stop-color:#754C28"/>
		</linearGradient>
		<polygon class="st94" points="224.2,567 235.4,580.5 234.5,584.2 194.3,585.8 184.5,571.1 185.5,566.9 		"/>
		
			<linearGradient id="SVGID_67_" gradientUnits="userSpaceOnUse" x1="464.6287" y1="477.4565" x2="501.8864" y2="495.2148" gradientTransform="matrix(-0.9479 0.3187 0.3187 0.9479 512.9124 -40.6634)">
			<stop  offset="0" style="stop-color:#5B3427"/>
			<stop  offset="0.1638" style="stop-color:#914625"/>
			<stop  offset="0.3408" style="stop-color:#C55723"/>
			<stop  offset="0.4745" style="stop-color:#E56122"/>
			<stop  offset="0.5481" style="stop-color:#F16522"/>
			<stop  offset="0.7011" style="stop-color:#F28F3F"/>
			<stop  offset="0.8876" style="stop-color:#ED693C"/>
			<stop  offset="1" style="stop-color:#E83E39"/>
		</linearGradient>
		<polygon class="st95" points="224.2,567 235.4,580.5 195.4,581.7 185.5,566.9 		"/>
		<g>
			
				<linearGradient id="SVGID_68_" gradientUnits="userSpaceOnUse" x1="69.9463" y1="515.3594" x2="123.2974" y2="515.3594" gradientTransform="matrix(1.0143 -0.1482 0.1365 1.0315 -47.9872 42.706)">
				<stop  offset="0" style="stop-color:#F3A98C"/>
				<stop  offset="0.8597" style="stop-color:#929497"/>
				<stop  offset="1" style="stop-color:#3E515C"/>
			</linearGradient>
			<polygon class="st96" points="110.9,590.4 92.8,560.5 90.4,537.7 109.4,523.1 127.2,524.6 141.2,539.9 147.5,557.5 148.5,564.5 
				141.9,590.5 131.9,596.8 			"/>
			
				<linearGradient id="SVGID_69_" gradientUnits="userSpaceOnUse" x1="86.9624" y1="581.1688" x2="142.3164" y2="550.9467" gradientTransform="matrix(0.9943 0.1068 -0.1068 0.9943 61.9891 -15.3389)">
				<stop  offset="0" style="stop-color:#E8CFBE"/>
				<stop  offset="0.6682" style="stop-color:#D0D2D3"/>
				<stop  offset="0.9974" style="stop-color:#BEB0AD"/>
			</linearGradient>
			<polygon class="st97" points="95.3,575.4 90.9,563.4 90.4,537.7 99.1,527.6 109,523.1 124.1,524.3 124.1,524.3 138.6,541.6 
				144.5,564.5 137.7,588.1 130.1,593 110.9,590.4 			"/>
			<g>
				
					<linearGradient id="SVGID_70_" gradientUnits="userSpaceOnUse" x1="100.9156" y1="565.2875" x2="129.6045" y2="565.2875" gradientTransform="matrix(0.9943 0.1068 -0.1068 0.9943 61.9891 -15.3389)">
					<stop  offset="0" style="stop-color:#4E5663"/>
					<stop  offset="0.6682" style="stop-color:#283841"/>
					<stop  offset="1" style="stop-color:#0F1B21"/>
				</linearGradient>
				<path class="st98" d="M106.6,565c-5-10-5.5-20.1,1.2-24.1c2.8-1.7,5.8-1.5,8.5-0.1l0.4,5.7c-2.1-1.1-4.1-1.5-6.2-0.2
					c-3.9,2.3-3.4,9.1-0.3,15.2c0.2,0.3,0.3,0.6,0.5,1c-0.1-3,1-7,3.7-8.7c4.1-2.5,9.6-0.8,13.3,6.6c3.2,6.4,2.5,13.7-2.6,16.9
					C118.3,581.4,111.4,574.7,106.6,565z M123.7,563.1c-2.1-4.3-5.3-4.9-7.8-3.4c-2,1.2-3.1,3.9-3,7.1c2.1,3.6,5.7,7.2,9.2,5.1
					C125.1,570.1,125,565.9,123.7,563.1z"/>
			</g>
		</g>
	</g>
</g>
<g>
	<defs>
		<circle id="SVGID_71_" cx="350.9" cy="349.5" r="343.8"/>
	</defs>
	<clipPath id="SVGID_72_">
		<use xlink:href="#SVGID_71_"  style="overflow:visible;"/>
	</clipPath>
	<g class="st99">
		<g>
			
				<linearGradient id="SVGID_73_" gradientUnits="userSpaceOnUse" x1="514.5749" y1="470.2732" x2="456.4818" y2="592.7863" gradientTransform="matrix(-1 0 -0.364 1 1103.1924 0)">
				<stop  offset="0" style="stop-color:#1C292E"/>
				<stop  offset="1" style="stop-color:#0F1C21"/>
			</linearGradient>
			<polygon class="st100" points="292.2,502.1 294.6,505.5 260.1,582.3 567.3,582.3 598.9,504 620.6,504 623,507.4 589,582.3 
				583.3,596.6 581.1,602.2 232.9,605.6 230.5,602.2 231.8,599.1 238.4,582.3 270.5,502.1 			"/>
			<g>
				<path class="st101" d="M247.7,595.8h328.6L683.4,327c0.7-1.8-0.3-3.3-2.3-3.3H359c-1.6,0-3.4,1.2-3.9,2.6L247.7,595.8z"/>
				<path class="st102" d="M247.7,595.8h328.6L683.4,327c0.7-1.8-0.3-3.3-2.3-3.3H359.7c-2,0-4.1,1.5-4.8,3.2L247.7,595.8z"/>
				<g>
					<g class="st103">
						<polygon class="st104" points="539.8,568.5 556.7,568.5 645.8,345 628.9,345 						"/>
						<polygon class="st104" points="517,568.5 533.9,568.5 623,345 606.1,345 						"/>
						<polygon class="st104" points="494.2,568.5 511.2,568.5 600.2,345 583.3,345 						"/>
						<polygon class="st104" points="471.4,568.5 488.4,568.5 577.4,345 560.5,345 						"/>
						<polygon class="st104" points="448.6,568.5 465.6,568.5 554.6,345 537.7,345 						"/>
						<polygon class="st104" points="425.8,568.5 442.8,568.5 531.8,345 514.9,345 						"/>
						<polygon class="st104" points="403.1,568.5 420,568.5 509,345 492.1,345 						"/>
						<polygon class="st104" points="380.3,568.5 397.2,568.5 486.2,345 469.3,345 						"/>
						<polygon class="st104" points="357.5,568.5 374.4,568.5 463.4,345 446.5,345 						"/>
						<polygon class="st104" points="334.7,568.5 351.6,568.5 440.6,345 423.7,345 						"/>
						<polygon class="st104" points="311.9,568.5 328.8,568.5 417.8,345 400.9,345 						"/>
						<polygon class="st104" points="289.1,568.5 306,568.5 395.1,345 378.1,345 						"/>
					</g>
					<g>
						<polygon class="st105" points="369.7,366.8 637.1,366.8 642.4,353.6 375,353.6 						"/>
						<polygon class="st106" points="612.5,386 629.4,386 634.7,372.9 617.7,372.9 						"/>
						<polygon class="st106" points="567.2,499.8 584.1,499.8 589.3,486.7 572.4,486.7 						"/>
						<polygon class="st106" points="536.8,518.8 553.7,518.8 559,505.7 542,505.7 						"/>
						<polygon class="st106" points="506.4,537.9 523.4,537.9 528.6,524.7 511.7,524.7 						"/>
						<polygon class="st106" points="475.9,557.4 492.8,557.4 498,544.3 481.1,544.3 						"/>
						<polygon class="st105" points="361.8,386 606.6,386 611.8,372.9 367,372.9 						"/>
						<polygon class="st106" points="582,405.3 621.8,405.3 627,392.2 587.3,392.2 						"/>
						<polygon class="st105" points="354.1,405.3 576.2,405.3 581.4,392.2 359.3,392.2 						"/>
						<polygon class="st106" points="551.6,424.6 614.1,424.6 619.3,411.5 556.8,411.5 						"/>
						<polygon class="st105" points="346.4,424.6 545.7,424.6 550.9,411.5 351.6,411.5 						"/>
						<polygon class="st106" points="521.4,443.1 606.7,443.1 612,429.9 526.6,429.9 						"/>
						<polygon class="st105" points="339.1,443.1 515.5,443.1 520.8,429.9 344.3,429.9 						"/>
						<polygon class="st106" points="491.3,461.6 599.4,461.6 604.6,448.4 496.5,448.4 						"/>
						<polygon class="st105" points="331.7,461.6 485.4,461.6 490.6,448.4 336.9,448.4 						"/>
						<polygon class="st106" points="460.8,480.8 591.7,480.8 596.9,467.7 466,467.7 						"/>
						<polygon class="st105" points="324,480.8 454.9,480.8 460.1,467.7 329.2,467.7 						"/>
					</g>
				</g>
			</g>
			
				<linearGradient id="SVGID_74_" gradientUnits="userSpaceOnUse" x1="295.5087" y1="555.5665" x2="649.835" y2="555.5665" gradientTransform="matrix(-1 0 -0.364 1 1103.1924 0)">
				<stop  offset="0" style="stop-color:#293942"/>
				<stop  offset="1" style="stop-color:#0F1C21"/>
			</linearGradient>
			<polygon class="st107" points="294.6,505.5 262.5,585.8 569.7,585.8 601.3,507.4 623,507.4 591.4,585.8 585.7,600 583.5,605.6 
				232.9,605.6 234.2,602.5 240.8,585.8 272.8,505.5 			"/>
		</g>
		<linearGradient id="SVGID_75_" gradientUnits="userSpaceOnUse" x1="434.8037" y1="513.282" x2="325.8968" y2="791.6489">
			<stop  offset="0" style="stop-color:#293942"/>
			<stop  offset="1" style="stop-color:#0F1C21"/>
		</linearGradient>
		<polygon class="st108" points="669.4,693.7 153.2,693.7 93.8,605.1 669.4,605.1 		"/>
	</g>
</g>
</svg>
