<?xml version="1.0" encoding="utf-8"?>
<!-- Generator: Adobe Illustrator 17.1.0, SVG Export Plug-In . SVG Version: 6.00 Build 0)  -->
<!DOCTYPE svg PUBLIC "-//W3C//DTD SVG 1.1//EN" "http://www.w3.org/Graphics/SVG/1.1/DTD/svg11.dtd">
<svg version="1.1" id="Layer_1" xmlns="http://www.w3.org/2000/svg" xmlns:xlink="http://www.w3.org/1999/xlink" x="0px" y="0px"
	 viewBox="203.1 1.3 551.6 551.6" enable-background="new 203.1 1.3 551.6 551.6" xml:space="preserve">
<g>
	<g>
		<g>
			<circle opacity="0.5" fill="#737F82" enable-background="new    " cx="478.9" cy="277.1" r="275.8"/>
			<circle fill="#0A4F68" stroke="#048BB9" stroke-width="3" stroke-miterlimit="10" cx="480" cy="267.2" r="260.7"/>
			<circle fill="#FFFFFF" stroke="#048BB9" stroke-width="2" stroke-miterlimit="10" cx="480" cy="267.2" r="168.4"/>
			<g>
				<path fill="#FFFFFF" d="M293.3,155.9l13.3-4.7l-8.1,11.6L307,174l-13.5-4.1l-8.1,11.9l-0.3-14.2l-13.7-4.1l13.3-4.7l-0.3-14.2
					L293.3,155.9z"/>
				<path fill="#FFFFFF" d="M663.5,171l-13.3,5l7.9-11.9l-8.7-11.2l13.7,3.9l7.9-11.9l0.5,14.2l13.7,3.9l-13.3,5l0.5,14.2L663.5,171
					z"/>
			</g>
			<circle fill="#074F68" cx="480" cy="267.2" r="151.4"/>
		</g>
		<g opacity="0.4" enable-background="new    ">
			<g>
				<g>
					<g>
						<defs>
							<circle id="SVGID_1_" cx="480" cy="265.4" r="151.4"/>
						</defs>
						<clipPath id="SVGID_2_">
							<use xlink:href="#SVGID_1_"  overflow="visible"/>
						</clipPath>
						<g clip-path="url(#SVGID_2_)">
							
								<ellipse transform="matrix(-0.5568 0.8307 -0.8307 -0.5568 1044.9678 -387.5221)" fill="#E8F6FD" cx="625.9" cy="85" rx="214.5" ry="191.2"/>
							
								<ellipse transform="matrix(-0.5568 0.8307 -0.8307 -0.5568 1073.5468 -384.8741)" fill="#CAE5F0" cx="639.5" cy="94" rx="214.5" ry="191.2"/>
							
								<ellipse transform="matrix(-0.5568 0.8307 -0.8307 -0.5568 1116.2426 -380.509)" fill="#9FD1E6" cx="659.6" cy="107.5" rx="214.5" ry="191.2"/>
							
								<ellipse transform="matrix(-0.5568 0.8307 -0.8307 -0.5568 1166.4996 -375.4326)" fill="#048CB9" cx="683.4" cy="123.5" rx="214.5" ry="191.2"/>
						</g>
					</g>
				</g>
			</g>
		</g>
		<path fill="#048CB9" d="M505.7,475.9c1.5-1.8,2.4-4,2.4-6.4c0-2.9-1.1-5.3-3.3-7.3c-2.2-2-5.1-3.1-8.2-3.1h-43.8
			c-1.5,0.2-2.7,1.5-2.7,3.1v7.3h46.3l-38.1,10.8c-2.4,0.7-4.2,2-5.8,3.8c-1.5,1.8-2.2,4-2.2,6.2c0,2.9,1.1,5.5,3.3,7.5
			c2.2,2,5.1,3.1,8.2,3.1h43.6c1.5-0.2,2.7-1.3,2.9-2.9v-7.7h-46.5l38.1-10.8C502.1,479,504.1,477.7,505.7,475.9z"/>
	</g>
	<g>
		<circle opacity="0.1" fill="#FFFFFF" enable-background="new    " cx="366.2" cy="245.5" r="15.7"/>
		<circle fill="#FFFFFF" cx="366.2" cy="245.5" r="2.9"/>
	</g>
	<g>
		<circle opacity="0.1" fill="#FFFFFF" enable-background="new    " cx="399" cy="213.6" r="10.6"/>
		<circle fill="#FFFFFF" cx="398.5" cy="213.2" r="2.9"/>
	</g>
	<g>
		<circle opacity="0.1" fill="#FFFFFF" enable-background="new    " cx="507" cy="353.9" r="10.6"/>
		<circle fill="#FFFFFF" cx="506.6" cy="353.5" r="2.9"/>
	</g>
	<g>
		<circle opacity="0.1" fill="#FFFFFF" enable-background="new    " cx="486.2" cy="387.1" r="8.4"/>
		<circle fill="#FFFFFF" cx="486" cy="386.7" r="2.4"/>
	</g>
	<g>
		<circle opacity="0.1" fill="#FFFFFF" enable-background="new    " cx="453.9" cy="376.3" r="8.4"/>
		<circle fill="#FFFFFF" cx="453.4" cy="376.1" r="2.4"/>
	</g>
	<g>
		<path fill="#FFFFFF" d="M354.4,125.2l-17.9-22.5l8.9-7c7-5.5,15.4-5,21,1.8c5.5,6.8,4.2,15.2-2.9,20.7L354.4,125.2z M361.3,101.3
			c-3.2-3.9-8-5.1-12.6-1.5l-4.1,3.2l11.3,14.1l4.1-3.2C364.4,110.5,364.3,105.2,361.3,101.3z"/>
		<path fill="#FFFFFF" d="M380,105.9l-14.5-25l17.6-10.1l2.7,4.7l-12.4,7.1l2.9,5.2l12.2-6.9l2.7,4.7L379,92.5l3.4,5.6l12.4-7.1
			l2.7,4.7L380,105.9z"/>
		<path fill="#FFFFFF" d="M399.6,90.1l1.3-5.7c2.6,1.2,6.4,1.8,10,0.3c3.1-1.2,4.1-3.2,3.5-4.8c-1.8-4.7-15.9,4.8-20-5.3
			c-1.9-4.5,0.5-9.7,6.8-12.2c4.3-1.6,8.2-1.7,12-0.5l-1.5,5.5c-3.1-1.2-6.2-0.9-8.9,0.2c-2.5,1-3.4,2.5-2.8,4.1
			c1.6,4.3,15.9-4.8,20,5.3c2.1,4.9-0.1,10-7.3,12.8C407.5,91.9,403,91.6,399.6,90.1z"/>
		<path fill="#FFFFFF" d="M428.5,83.7L420.8,56l5.8-1.6l7.8,27.7L428.5,83.7z"/>
		<path fill="#FFFFFF" d="M437.7,66.1c-1.5-8.9,4.5-15.8,12.9-17.1c5.8-0.9,10.1,1.4,12.7,4.6l-4.5,3.4c-1.7-1.8-4.3-3.2-7.2-2.7
			c-5.1,0.7-8.4,5.3-7.4,10.6c0.7,5.3,5.3,8.8,10.4,7.9c2.4-0.4,4.7-1.8,5.6-3.1l-0.6-3.3l-7.6,1.1l-0.7-5.3l13.6-2l1.6,10.9
			c-2.3,3.7-6.2,6.4-11.3,7.2C446.8,79.7,439,75,437.7,66.1z"/>
		<path fill="#FFFFFF" d="M492.8,76l-13.3-19l-0.4,18.8l-6.2-0.2l0.5-28.8l6.2,0.2l12.9,18.3l0.4-18.1l6.2,0.2l-0.5,28.8L492.8,76z"
			/>
		<path fill="#FFFFFF" d="M537.3,83.9l-0.5-5.1l-11.9-3l-3,4.3l-6.8-1.8l17.8-25.1l7.5,2l3.7,30.7L537.3,83.9z M535.2,59.9
			l-7.4,10.8l8.8,2.3L535.2,59.9z"/>
		<path fill="#FFFFFF" d="M547.6,87.1l11.2-26.4l12.5,5.3c5.7,2.4,7.3,7.8,5.1,12.3c-1.9,4.6-6.9,7.1-12.6,4.7l-6.8-2.9l-4.1,9.4
			L547.6,87.1z M570.7,75.8c1-2.2-0.1-4.2-2.5-5.2l-5.9-2.6l-3.1,7.2l5.9,2.6C567.6,78.6,569.8,78,570.7,75.8z"/>
		<path fill="#FFFFFF" d="M573.1,98.5L588.3,74l11.5,7c5.4,3.3,5.9,8.6,3.4,13c-2.6,4.3-7.7,6-13.2,2.7l-6.3-4l-5.4,8.7L573.1,98.5z
			 M597.7,90.9c1.2-2,0.4-4.2-1.6-5.6l-5.4-3.5l-4,6.5l5.4,3.5C594.3,93.2,596.6,92.8,597.7,90.9z"/>
		<path fill="#FFFFFF" d="M598,109.5l5.6-1.6c0.1,2.9,1.4,6.2,4.4,9c2.6,2.3,4.8,2.1,6,0.9c3.2-3.9-11.8-11.9-4.7-20.1
			c3-3.7,8.8-3.9,13.9,0.2c3.4,3,5.6,6.4,6.1,10.4l-5.6,1.4c-0.3-3.1-2-5.8-4.4-7.9c-1.9-1.6-3.9-1.7-4.9-0.4
			c-3,3.4,11.8,11.7,4.7,20.1c-3.5,4.1-8.8,4.6-14.8-0.2C600.2,117.3,598.4,113.3,598,109.5z"/>
	</g>
	<g>
		<g>
			<path fill="#FFFFFF" d="M550.8,319.8c0,1.3-0.9,2.2-2.2,2.2H409.2c-1.3,0-2.2-0.9-2.2-2.2v-102c0-1.3,0.9-2.2,2.2-2.2h139.4
				c1.3,0,2.2,0.9,2.2,2.2V319.8L550.8,319.8z"/>
			<path fill="none" stroke="#048BB9" stroke-width="1.5" stroke-miterlimit="10" d="M550.8,319.8c0,1.3-0.9,2.2-2.2,2.2H409.2
				c-1.3,0-2.2-0.9-2.2-2.2v-102c0-1.3,0.9-2.2,2.2-2.2h139.4c1.3,0,2.2,0.9,2.2,2.2V319.8L550.8,319.8z"/>
		</g>
		<g>
			<rect x="420.9" y="286.9" fill="#9FD1E6" width="32.3" height="19.9"/>
			<rect x="463.2" y="286.9" fill="#9FD1E6" width="32.3" height="19.9"/>
			<rect x="504.8" y="286.9" fill="#9FD1E6" width="32.3" height="19.9"/>
			<rect x="420.9" y="246.8" fill="#9FD1E6" width="116.4" height="33.6"/>
			<rect x="421.1" y="231.1" fill="#9FD1E6" width="31.9" height="10"/>
			<rect x="463.2" y="231.1" fill="#9FD1E6" width="73.9" height="10"/>
		</g>
	</g>
	<g>
		<circle fill="#048CB9" cx="419.6" cy="258.1" r="29.7"/>
		<g>
			<path fill="#FFFFFF" d="M420.7,272.5v-20.8l-4.9,4.9l-3.5-3.8l9.1-9.1h5.3v28.8C426.9,272.5,420.7,272.5,420.7,272.5z"/>
		</g>
	</g>
	<g>
		<circle fill="#048CB9" cx="511.4" cy="307.7" r="29.7"/>
		<g>
			<path fill="#FFFFFF" d="M500.8,322.3v-4.9c11.7-8.6,15.3-11.7,15.3-15.3c0-2.4-2.2-3.8-4.6-3.8c-3.3,0-5.8,1.3-7.7,3.3l-3.5-4
				c2.9-3.3,7.1-4.6,11.1-4.6c6.2,0,11.1,3.5,11.1,9.3c0,4.9-4,9.3-11.5,14.6h11.7v5.3h-21.9V322.3z"/>
		</g>
	</g>
</g>
</svg>
