<?xml version="1.0" encoding="utf-8"?>
<!-- Generator: Adobe Illustrator 17.0.0, SVG Export Plug-In . SVG Version: 6.00 Build 0)  -->
<!DOCTYPE svg PUBLIC "-//W3C//DTD SVG 1.1//EN" "http://www.w3.org/Graphics/SVG/1.1/DTD/svg11.dtd">
<svg version="1.1" id="Layer_1" xmlns="http://www.w3.org/2000/svg" xmlns:xlink="http://www.w3.org/1999/xlink" x="0px" y="0px"
	 width="733.463px" height="606.604px" viewBox="0 0 733.463 606.604" enable-background="new 0 0 733.463 606.604"
	 xml:space="preserve">
<g>
	
		<circle opacity="0.1" fill="#FFFFFF" stroke="#FFFFFF" stroke-miterlimit="10" enable-background="new    " cx="58.177" cy="473.308" r="58.177"/>
	
		<circle opacity="0.1" fill="#FFFFFF" stroke="#FFFFFF" stroke-miterlimit="10" enable-background="new    " cx="58.177" cy="473.308" r="44.694"/>
	<g>
		<g>
			<path id="Shape_61_" fill="#5C5B5E" d="M60.613,437.276c-0.01,0.002-0.019,0.008-0.029,0.011
				c-0.878-1.433-4.386-3.555-18.414,3.227c-15.291,7.393-14.648,11.312-13.955,12.457c-0.02,0.012-0.045,0.019-0.063,0.035
				l26.096,53.874l0.014-0.019c0.715,1.329,3.921,3.533,18.325-3.431c15.535-7.51,14.499-11.693,13.756-12.852L60.613,437.276
				L60.613,437.276L60.613,437.276L60.613,437.276z"/>
			
				<rect id="Rectangle_7_" x="41.078" y="445.347" transform="matrix(-0.9003 0.4352 -0.4352 -0.9003 313.8997 871.3255)" fill="#404040" width="32.193" height="52.522"/>
			
				<rect id="Rectangle_6_" x="40.708" y="447.124" transform="matrix(-0.9003 0.4352 -0.4352 -0.9003 312.8649 870.0345)" fill="#747F83" width="32.193" height="47.439"/>
			
				<rect id="Rectangle_5_" x="31.495" y="449.239" transform="matrix(-0.9003 0.4352 -0.4352 -0.9003 287.0594 837.8188)" fill="#8C989B" width="32.193" height="5.083"/>
			
				<rect id="Rectangle_4_" x="54.563" y="496.821" transform="matrix(-0.9003 0.4352 -0.4352 -0.9003 327.0872 922.1204)" fill="#5C5B5D" width="6.776" height="3.388"/>
			
				<rect id="Rectangle_3_" x="63.716" y="492.399" transform="matrix(-0.9003 0.4352 -0.4352 -0.9003 342.5558 909.7335)" fill="#5C5B5D" width="6.776" height="3.388"/>
			
				<rect id="Rectangle_2_" x="72.866" y="487.973" transform="matrix(-0.9003 0.4352 -0.4352 -0.9003 358.0177 897.34)" fill="#5C5B5D" width="6.776" height="3.388"/>
		</g>
		
			<rect x="36.257" y="455.434" transform="matrix(-0.8982 0.4397 -0.4397 -0.8982 297.14 846.2913)" fill="#E9F7FE" width="28.596" height="4.251"/>
		
			<rect x="42.298" y="460.074" transform="matrix(-0.8982 0.4397 -0.4397 -0.8982 314.0338 867.06)" fill="#E9F7FE" width="28.596" height="19.652"/>
		
			<rect x="50.783" y="483.521" transform="matrix(-0.8982 0.4397 -0.4397 -0.8982 323.8471 903.0335)" fill="#E9F7FE" width="13.108" height="11.006"/>
		
			<rect x="64.693" y="476.711" transform="matrix(-0.8982 0.4397 -0.4397 -0.8982 347.257 883.991)" fill="#E9F7FE" width="13.108" height="11.006"/>
	</g>
</g>
<g>
	
		<circle opacity="0.1" fill="#FFFFFF" stroke="#FFFFFF" stroke-miterlimit="10" enable-background="new    " cx="629.411" cy="102.414" r="97.414"/>
	
		<circle opacity="0.1" fill="#FFFFFF" stroke="#FFFFFF" stroke-miterlimit="10" enable-background="new    " cx="629.411" cy="102.414" r="84.966"/>
	<g>
		<g>
			<path fill="#5C5B5D" d="M682.491,145.857c0.675,3.43-2.269,6.902-6.574,7.754l-70.166,13.871c-4.304,0.852-8.342-1.24-9.017-4.67
				L576.335,58.966c-0.675-3.43,2.269-6.902,6.574-7.754l70.166-13.871c4.304-0.852,8.342,1.24,9.016,4.67L682.491,145.857
				L682.491,145.857L682.491,145.857L682.491,145.857z"/>
			<path fill="#747F83" d="M605.43,169.373c-5.303,0.763-10.103-1.926-10.926-6.12L574.105,59.407
				c-0.419-2.133,0.229-4.345,1.827-6.23c1.596-1.883,3.951-3.21,6.628-3.739l70.166-13.871c5.565-1.11,10.737,1.637,11.592,6.007
				l20.399,103.846c0.419,2.133-0.229,4.345-1.827,6.23c-1.596,1.883-3.951,3.21-6.63,3.741l-70.166,13.871
				C605.875,169.301,605.653,169.34,605.43,169.373C605.43,169.373,605.653,169.34,605.43,169.373L605.43,169.373L605.43,169.373z
				 M653.795,39.052c-0.122,0.017-0.249,0.039-0.372,0.064l-70.166,13.871c-1.488,0.295-2.796,1.033-3.683,2.079
				s-1.248,2.275-1.015,3.46l20.399,103.846c0.478,2.428,3.345,3.963,6.441,3.338l70.166-13.871
				c1.488-0.295,2.796-1.033,3.683-2.079c0.887-1.046,1.248-2.275,1.015-3.46L659.864,42.454
				C659.405,40.121,656.743,38.627,653.795,39.052C653.795,39.052,656.743,38.627,653.795,39.052L653.795,39.052L653.795,39.052z"/>
			<polygon id="Rectangle_14_" fill="#747F83" points="669.66,133.592 603.962,146.578 588.798,69.37 654.496,56.384 			"/>
			<path id="Shape_2_" fill="#404040" d="M629.597,53.29c0.081,0.422-0.261,0.729-1.338,0.942l-18.228,3.603
				c-1.076,0.213-1.513,0.06-1.594-0.362l-0.072-0.358c-0.081-0.422,0.239-0.841,1.316-1.054l18.228-3.603
				c1.076-0.213,1.536,0.052,1.616,0.474L629.597,53.29L629.597,53.29L629.597,53.29L629.597,53.29z"/>
			<circle id="Oval_1_" fill="#404040" cx="638.534" cy="149.592" r="5.766"/>
		</g>
		<polygon fill="#E9F7FE" points="652.309,67.403 594.102,78.644 593.004,72.843 651.212,61.602 		"/>
		<polygon fill="#E9F7FE" points="655.164,82.486 596.957,93.728 594.541,80.965 652.749,69.724 		"/>
		<polygon fill="#E9F7FE" points="616.478,109.2 600.471,112.292 597.616,97.208 613.623,94.117 		"/>
		<polygon fill="#E9F7FE" points="638.305,104.985 619.389,108.638 616.534,93.555 635.451,89.901 		"/>
		<polygon fill="#E9F7FE" points="658.678,101.05 642.671,104.142 639.816,89.058 655.823,85.967 		"/>
		<polygon fill="#E9F7FE" points="659.638,105.961 602.091,117.075 601.787,115.466 659.334,104.352 		"/>
		<polygon fill="#E9F7FE" points="660.448,110.239 602.901,121.353 602.596,119.744 660.143,108.63 		"/>
		<polygon fill="#E9F7FE" points="661.257,114.517 603.71,125.63 603.406,124.021 660.953,112.908 		"/>
		<polygon fill="#E9F7FE" points="662.067,118.794 604.52,129.908 604.215,128.299 661.763,117.185 		"/>
		<polygon fill="#E9F7FE" points="664.827,133.537 606.62,144.779 604.424,133.176 662.631,121.935 		"/>
	</g>
</g>
<g>
	
		<circle opacity="0.1" fill="#FFFFFF" stroke="#FFFFFF" stroke-miterlimit="10" enable-background="new    " cx="556.497" cy="295.821" r="30.651"/>
	
		<circle opacity="0.1" fill="#FFFFFF" stroke="#FFFFFF" stroke-miterlimit="10" enable-background="new    " cx="556.497" cy="295.821" r="25.649"/>
	<g>
		<g>
			<path fill="#5C5B5D" d="M561.188,315.711c-0.387,1.06-1.56,1.604-2.62,1.217l-17.267-6.312c-1.06-0.387-1.604-1.56-1.217-2.62
				l11.723-32.067c0.387-1.06,1.56-1.604,2.62-1.217l17.267,6.312c1.06,0.387,1.604,1.56,1.217,2.62L561.188,315.711
				L561.188,315.711L561.188,315.711L561.188,315.711z"/>
			<path fill="#747F83" d="M540.939,311.1c-1.261-0.557-1.877-2.008-1.403-3.303l11.723-32.067c0.241-0.659,0.724-1.185,1.36-1.48
				c0.636-0.296,1.349-0.325,2.008-0.085l17.267,6.312c1.371,0.498,2.059,2.019,1.565,3.369l-11.723,32.067
				c-0.241,0.659-0.724,1.185-1.36,1.48c-0.636,0.296-1.349,0.325-2.009,0.085l-17.267-6.312
				C541.046,311.145,540.992,311.123,540.939,311.1C540.939,311.1,540.992,311.123,540.939,311.1L540.939,311.1L540.939,311.1z
				 M571.583,281.609c-0.029-0.013-0.06-0.025-0.09-0.036l-17.267-6.312c-0.366-0.134-0.763-0.117-1.116,0.047
				c-0.353,0.164-0.622,0.456-0.755,0.822l-11.723,32.067c-0.274,0.75,0.105,1.597,0.87,1.872l17.267,6.312
				c0.366,0.134,0.763,0.117,1.116-0.047s0.622-0.456,0.755-0.822l11.723-32.067C572.626,282.725,572.284,281.919,571.583,281.609
				C571.583,281.609,572.284,281.919,571.583,281.609L571.583,281.609L571.583,281.609z"/>
			
				<rect id="Rectangle_8_" x="547.992" y="282.853" transform="matrix(-0.9392 -0.3434 0.3434 -0.9392 977.862 764.2523)" fill="#747F83" width="17.214" height="25.385"/>
			<path id="Shape_67_" fill="#404040" d="M564.161,282.082c-0.048,0.13-0.17,0.166-0.435,0.07l-4.485-1.64
				c-0.265-0.097-0.335-0.203-0.287-0.334l0.04-0.11c0.048-0.13,0.182-0.201,0.447-0.104l4.485,1.64
				c0.265,0.097,0.323,0.237,0.275,0.368L564.161,282.082L564.161,282.082L564.161,282.082L564.161,282.082z"/>
			<circle id="Oval_4_" fill="#404040" cx="551.14" cy="310.368" r="1.86"/>
		</g>
		
			<rect x="552.227" y="284.67" transform="matrix(-0.9373 -0.3485 0.3485 -0.9373 985.3911 748.4913)" fill="#E9F7FE" width="15.584" height="1.889"/>
		
			<rect x="550.005" y="287.104" transform="matrix(-0.9373 -0.3485 0.3485 -0.9373 979.0042 759.2946)" fill="#E9F7FE" width="15.584" height="8.973"/>
		
			<rect x="547.63" y="294.64" transform="matrix(-0.9373 -0.3485 0.3485 -0.9373 961.9963 767.0565)" fill="#E9F7FE" width="4.722" height="4.722"/>
		
			<rect x="552.779" y="297.521" transform="matrix(-0.9373 -0.3485 0.3485 -0.9373 975.9993 775.3362)" fill="#E9F7FE" width="9.917" height="4.722"/>
		
			<rect x="545.573" y="299.937" transform="matrix(-0.9373 -0.3485 0.3485 -0.9373 956.0822 777.059)" fill="#E9F7FE" width="4.722" height="5.195"/>
		
			<rect x="550.722" y="302.817" transform="matrix(-0.9373 -0.3485 0.3485 -0.9373 970.0858 785.3379)" fill="#E9F7FE" width="9.917" height="5.195"/>
	</g>
</g>
<g>
	
		<circle opacity="0.1" fill="#FFFFFF" stroke="#FFFFFF" stroke-miterlimit="10" enable-background="new    " cx="623.492" cy="387.39" r="52.032"/>
	
		<circle opacity="0.1" fill="#FFFFFF" stroke="#FFFFFF" stroke-miterlimit="10" enable-background="new    " cx="623.492" cy="387.39" r="46.402"/>
	<g>
		<g>
			<path id="Shape_1_" fill="#5C5B5E" d="M625.025,356.262c-0.009,0.002-0.017,0.008-0.026,0.011
				c-0.841-1.247-4.057-3.005-16.327,3.603c-13.373,7.204-12.646,10.68-11.982,11.676c-0.018,0.011-0.039,0.019-0.055,0.034
				l25.424,47.117l0.012-0.018c0.691,1.159,3.642,3.003,16.24-3.782c13.587-7.318,12.498-11.015,11.789-12.021L625.025,356.262
				L625.025,356.262L625.025,356.262L625.025,356.262z"/>
			
				<rect id="Rectangle_13_" x="608.901" y="363.575" transform="matrix(-0.8804 0.4742 -0.4742 -0.8804 1355.6039 432.2646)" fill="#404040" width="28.792" height="46.975"/>
			
				<rect id="Rectangle_12_" x="608.541" y="365.18" transform="matrix(-0.8804 0.4742 -0.4742 -0.8804 1354.6099 431.1797)" fill="#747F83" width="28.792" height="42.429"/>
			
				<rect id="Rectangle_11_" x="599.562" y="367.449" transform="matrix(-0.8804 0.4742 -0.4742 -0.8804 1329.8199 404.0857)" fill="#8C989B" width="28.792" height="4.545"/>
			
				<rect id="Rectangle_10_" x="622.015" y="409.558" transform="matrix(-0.8804 0.4742 -0.4742 -0.8804 1370.278 476.587)" fill="#5C5B5D" width="6.061" height="3.03"/>
			
				<rect id="Rectangle_9_" x="630.02" y="405.249" transform="matrix(-0.8804 0.4742 -0.4742 -0.8804 1383.2869 464.6869)" fill="#5C5B5D" width="6.061" height="3.03"/>
			
				<rect id="Rectangle_1_" x="638.022" y="400.936" transform="matrix(-0.8804 0.4742 -0.4742 -0.8804 1396.2885 452.7826)" fill="#5C5B5D" width="6.061" height="3.03"/>
		</g>
		
			<rect x="605.243" y="377.601" transform="matrix(-0.8781 0.4785 -0.4785 -0.8781 1323.7959 421.7316)" fill="#E9F7FE" width="5.862" height="3.802"/>
		
			<rect x="608.293" y="377.203" transform="matrix(-0.8781 0.4785 -0.4785 -0.8781 1349.5118 421.352)" fill="#E9F7FE" width="25.575" height="10.77"/>
		
			<rect x="614.397" y="392.372" transform="matrix(-0.8781 0.4785 -0.4785 -0.8781 1350.5027 448.095)" fill="#E9F7FE" width="7.544" height="7.428"/>
		
			<rect x="622.313" y="388.058" transform="matrix(-0.8781 0.4785 -0.4785 -0.8781 1363.3054 436.2054)" fill="#E9F7FE" width="7.544" height="7.428"/>
		
			<rect x="610.872" y="371.145" transform="matrix(-0.8781 0.4785 -0.4785 -0.8781 1342.9584 403.9365)" fill="#E9F7FE" width="18.301" height="3.802"/>
		
			<rect x="630.229" y="383.744" transform="matrix(-0.8781 0.4785 -0.4785 -0.8781 1376.1089 424.3151)" fill="#E9F7FE" width="7.544" height="7.428"/>
		
			<rect x="616.062" y="396.396" transform="matrix(-0.8781 0.4785 -0.4785 -0.8781 1370.9236 444.408)" fill="#E9F7FE" width="25.575" height="0.897"/>
		
			<rect x="617.203" y="398.49" transform="matrix(-0.8781 0.4785 -0.4785 -0.8781 1374.0686 447.7947)" fill="#E9F7FE" width="25.575" height="0.897"/>
		
			<rect x="618.344" y="400.583" transform="matrix(-0.8781 0.4785 -0.4785 -0.8781 1377.2129 451.1807)" fill="#E9F7FE" width="25.575" height="0.897"/>
		
			<rect x="619.485" y="402.677" transform="matrix(-0.8781 0.4785 -0.4785 -0.8781 1380.3573 454.5668)" fill="#E9F7FE" width="25.575" height="0.897"/>
	</g>
</g>
<g>
	
		<circle opacity="0.1" fill="#FFFFFF" stroke="#FFFFFF" stroke-miterlimit="10" enable-background="new    " cx="509.374" cy="359.778" r="21.194"/>
	
		<circle opacity="0.1" fill="#FFFFFF" stroke="#FFFFFF" stroke-miterlimit="10" enable-background="new    " cx="509.374" cy="359.778" r="17.735"/>
	<g>
		<g>
			<path fill="#5C5B5D" d="M521.576,366.903c0.347,0.699,0.061,1.546-0.638,1.893l-11.389,5.646
				c-0.699,0.347-1.546,0.061-1.893-0.638l-10.486-21.151c-0.347-0.699-0.061-1.546,0.638-1.893l11.389-5.646
				c0.699-0.347,1.546-0.061,1.893,0.638L521.576,366.903L521.576,366.903L521.576,366.903L521.576,366.903z"/>
			<path fill="#747F83" d="M509.619,374.854c-0.88,0.366-1.901-0.016-2.324-0.87l-10.486-21.151
				c-0.215-0.435-0.249-0.927-0.094-1.387c0.155-0.46,0.48-0.831,0.914-1.046l11.389-5.646c0.902-0.45,1.993-0.07,2.434,0.82
				l10.486,21.151c0.215,0.435,0.249,0.927,0.094,1.387c-0.155,0.46-0.48,0.831-0.914,1.047l-11.389,5.646
				C509.692,374.821,509.656,374.838,509.619,374.854C509.619,374.854,509.656,374.838,509.619,374.854L509.619,374.854
				L509.619,374.854z M509.438,345.447c-0.02,0.008-0.042,0.018-0.061,0.028l-11.389,5.646c-0.241,0.12-0.422,0.326-0.508,0.582
				c-0.086,0.255-0.068,0.529,0.052,0.77l10.486,21.151c0.245,0.495,0.85,0.708,1.352,0.456l11.389-5.646
				c0.241-0.12,0.422-0.326,0.508-0.582c0.086-0.255,0.068-0.529-0.052-0.77l-10.486-21.151
				C510.494,345.456,509.927,345.243,509.438,345.447C509.438,345.447,509.927,345.243,509.438,345.447L509.438,345.447
				L509.438,345.447z"/>
			
				<rect id="Rectangle_16_" x="503.336" y="350.839" transform="matrix(-0.896 0.4441 -0.4441 -0.896 1125.301 455.6531)" fill="#747F83" width="11.903" height="17.553"/>
			<path id="Shape_3_" fill="#404040" d="M506.139,349.392c0.042,0.086,0.003,0.164-0.172,0.251l-2.959,1.467
				c-0.175,0.087-0.261,0.071-0.304-0.015l-0.036-0.073c-0.042-0.086-0.014-0.187,0.16-0.273l2.959-1.467
				c0.175-0.087,0.273-0.049,0.315,0.038L506.139,349.392L506.139,349.392L506.139,349.392L506.139,349.392z"/>
			<circle id="Oval_3_" fill="#404040" cx="514.112" cy="369.393" r="1.286"/>
		</g>
		
			<rect x="500.555" y="352.517" transform="matrix(-0.8984 0.4392 -0.4392 -0.8984 1115.5881 448.2466)" fill="#E9F7FE" width="10.776" height="1.306"/>
		
			<rect x="502.491" y="354.028" transform="matrix(-0.8984 0.4392 -0.4392 -0.8984 1121.0035 454.9152)" fill="#E9F7FE" width="10.776" height="6.205"/>
		
			<rect x="505.239" y="361.987" transform="matrix(-0.8984 0.4392 -0.4392 -0.8984 1121.9412 467.6774)" fill="#E9F7FE" width="3.265" height="3.265"/>
		
			<rect x="508.577" y="359.477" transform="matrix(-0.8984 0.4392 -0.4392 -0.8984 1130.5853 460.6576)" fill="#E9F7FE" width="6.857" height="3.265"/>
		
			<rect x="507.032" y="365.491" transform="matrix(-0.8984 0.4392 -0.4392 -0.8984 1126.9561 473.8515)" fill="#E9F7FE" width="3.265" height="3.592"/>
		
			<rect x="510.37" y="362.982" transform="matrix(-0.8984 0.4392 -0.4392 -0.8984 1135.5994 466.8324)" fill="#E9F7FE" width="6.857" height="3.592"/>
	</g>
</g>
</svg>
