<?xml version="1.0" encoding="utf-8"?>
<!-- Generator: Adobe Illustrator 17.0.0, SVG Export Plug-In . SVG Version: 6.00 Build 0)  -->
<!DOCTYPE svg PUBLIC "-//W3C//DTD SVG 1.1//EN" "http://www.w3.org/Graphics/SVG/1.1/DTD/svg11.dtd">
<svg version="1.1" id="Layer_1" xmlns="http://www.w3.org/2000/svg" xmlns:xlink="http://www.w3.org/1999/xlink" x="0px" y="0px"
	 width="253px" height="253px" viewBox="0 0 253 253" enable-background="new 0 0 253 253" xml:space="preserve">
<g>
	<g>
		<circle fill="#074E68" cx="126.699" cy="126.636" r="126"/>
		<g opacity="0.5" enable-background="new    ">
			<g>
				<defs>
					<circle id="SVGID_1_" cx="126.301" cy="126.364" r="126"/>
				</defs>
				<clipPath id="SVGID_2_">
					<use xlink:href="#SVGID_1_"  overflow="visible"/>
				</clipPath>
				<g clip-path="url(#SVGID_2_)">
					<g>
						
							<line fill="none" stroke="#FFFFFF" stroke-width="0.5" stroke-miterlimit="10" x1="220.5" y1="344.944" x2="220.5" y2="-77.617"/>
						
							<line fill="none" stroke="#FFFFFF" stroke-width="0.5" stroke-miterlimit="10" x1="203.409" y1="344.944" x2="203.409" y2="-77.617"/>
						
							<line fill="none" stroke="#FFFFFF" stroke-width="0.5" stroke-miterlimit="10" x1="237.591" y1="344.518" x2="237.591" y2="-78.043"/>
						
							<line fill="none" stroke="#FFFFFF" stroke-width="0.5" stroke-miterlimit="10" x1="254.682" y1="344.944" x2="254.682" y2="-77.617"/>
						
							<line fill="none" stroke="#FFFFFF" stroke-width="0.5" stroke-miterlimit="10" x1="152.136" y1="344.944" x2="152.136" y2="-77.617"/>
						
							<line fill="none" stroke="#FFFFFF" stroke-width="0.5" stroke-miterlimit="10" x1="135.045" y1="344.944" x2="135.045" y2="-77.617"/>
						
							<line fill="none" stroke="#FFFFFF" stroke-width="0.5" stroke-miterlimit="10" x1="169.227" y1="344.518" x2="169.227" y2="-78.043"/>
						
							<line fill="none" stroke="#FFFFFF" stroke-width="0.5" stroke-miterlimit="10" x1="186.318" y1="344.944" x2="186.318" y2="-77.617"/>
						
							<line fill="none" stroke="#FFFFFF" stroke-width="0.5" stroke-miterlimit="10" x1="84.131" y1="345.156" x2="84.131" y2="-77.404"/>
						
							<line fill="none" stroke="#FFFFFF" stroke-width="0.5" stroke-miterlimit="10" x1="67.04" y1="346.823" x2="67.04" y2="-75.738"/>
						
							<line fill="none" stroke="#FFFFFF" stroke-width="0.5" stroke-miterlimit="10" x1="101.222" y1="344.731" x2="101.222" y2="-77.83"/>
						
							<line fill="none" stroke="#FFFFFF" stroke-width="0.5" stroke-miterlimit="10" x1="118.313" y1="345.156" x2="118.313" y2="-77.404"/>
						
							<line fill="none" stroke="#FFFFFF" stroke-width="0.5" stroke-miterlimit="10" x1="15.767" y1="345.156" x2="15.767" y2="-77.404"/>
						
							<line fill="none" stroke="#FFFFFF" stroke-width="0.5" stroke-miterlimit="10" x1="-1.324" y1="345.156" x2="-1.324" y2="-77.404"/>
						
							<line fill="none" stroke="#FFFFFF" stroke-width="0.5" stroke-miterlimit="10" x1="32.858" y1="344.731" x2="32.858" y2="-77.83"/>
						
							<line fill="none" stroke="#FFFFFF" stroke-width="0.5" stroke-miterlimit="10" x1="49.949" y1="345.156" x2="49.949" y2="-77.404"/>
					</g>
					<g>
						
							<line fill="none" stroke="#FFFFFF" stroke-width="0.5" stroke-miterlimit="10" x1="-76.342" y1="220.077" x2="346.219" y2="220.077"/>
						
							<line fill="none" stroke="#FFFFFF" stroke-width="0.5" stroke-miterlimit="10" x1="-76.342" y1="202.986" x2="346.219" y2="202.986"/>
						
							<line fill="none" stroke="#FFFFFF" stroke-width="0.5" stroke-miterlimit="10" x1="-75.916" y1="237.168" x2="346.645" y2="237.168"/>
						
							<line fill="none" stroke="#FFFFFF" stroke-width="0.5" stroke-miterlimit="10" x1="-76.342" y1="254.259" x2="346.219" y2="254.259"/>
						
							<line fill="none" stroke="#FFFFFF" stroke-width="0.5" stroke-miterlimit="10" x1="-76.342" y1="151.713" x2="346.219" y2="151.713"/>
						
							<line fill="none" stroke="#FFFFFF" stroke-width="0.5" stroke-miterlimit="10" x1="-76.342" y1="134.622" x2="346.219" y2="134.622"/>
						
							<line fill="none" stroke="#FFFFFF" stroke-width="0.5" stroke-miterlimit="10" x1="-75.916" y1="168.804" x2="346.645" y2="168.804"/>
						
							<line fill="none" stroke="#FFFFFF" stroke-width="0.5" stroke-miterlimit="10" x1="-76.342" y1="185.895" x2="346.219" y2="185.895"/>
						
							<line fill="none" stroke="#FFFFFF" stroke-width="0.5" stroke-miterlimit="10" x1="-76.555" y1="83.707" x2="346.006" y2="83.707"/>
						
							<line fill="none" stroke="#FFFFFF" stroke-width="0.5" stroke-miterlimit="10" x1="-76.555" y1="66.616" x2="346.006" y2="66.616"/>
						
							<line fill="none" stroke="#FFFFFF" stroke-width="0.5" stroke-miterlimit="10" x1="-76.129" y1="100.798" x2="346.432" y2="100.798"/>
						
							<line fill="none" stroke="#FFFFFF" stroke-width="0.5" stroke-miterlimit="10" x1="-76.555" y1="117.889" x2="346.006" y2="117.889"/>
						
							<line fill="none" stroke="#FFFFFF" stroke-width="0.5" stroke-miterlimit="10" x1="-76.555" y1="15.344" x2="346.006" y2="15.344"/>
						
							<line fill="none" stroke="#FFFFFF" stroke-width="0.5" stroke-miterlimit="10" x1="-76.555" y1="-1.747" x2="346.006" y2="-1.747"/>
						
							<line fill="none" stroke="#FFFFFF" stroke-width="0.5" stroke-miterlimit="10" x1="-76.129" y1="32.435" x2="346.432" y2="32.435"/>
						
							<line fill="none" stroke="#FFFFFF" stroke-width="0.5" stroke-miterlimit="10" x1="-76.555" y1="49.526" x2="346.006" y2="49.526"/>
					</g>
				</g>
			</g>
		</g>
	</g>
	<g>
		<line fill="none" stroke="#FFFFFF" stroke-miterlimit="10" x1="161.49" y1="58.311" x2="84.316" y2="58.311"/>
		<polygon fill="#FFFFFF" points="162.948,58.311 160.031,61.228 160.031,55.394 		"/>
		<polygon fill="#FFFFFF" points="83.316,58.311 86.233,55.394 86.233,61.228 		"/>
	</g>
	<g>
		<line fill="none" stroke="#FFFFFF" stroke-miterlimit="10" x1="74.145" y1="170.132" x2="74.145" y2="67.524"/>
		<polygon fill="#FFFFFF" points="74.145,171.59 71.228,168.673 77.062,168.673 		"/>
		<polygon fill="#FFFFFF" points="74.145,66.524 77.062,69.441 71.228,69.441 		"/>
	</g>
	<g>
		
			<rect x="85.301" y="68.103" fill="none" stroke="#FFFFFF" stroke-width="3" stroke-miterlimit="10" width="75.997" height="101.329"/>
		<polyline fill="none" stroke="#FFFFFF" stroke-width="3" stroke-miterlimit="10" points="85.708,176.633 168.699,176.633 
			168.699,69.001 		"/>
		
			<rect x="91.708" y="88.133" fill="none" stroke="#FFFFFF" stroke-width="3" stroke-miterlimit="10" width="20.035" height="73.798"/>
		<rect x="118.744" y="141.689" fill="#FFFFFF" width="36.215" height="3"/>
		<rect x="118.744" y="147.436" fill="#FFFFFF" width="29" height="3"/>
		<rect x="118.744" y="153.184" fill="#FFFFFF" width="36.215" height="3"/>
		<rect x="118.744" y="158.931" fill="#FFFFFF" width="29" height="3"/>
		<g>
			<path fill="#FFFFFF" d="M90.036,83.133v-8h3.154c2.506,0,4.245,1.595,4.245,3.994c0,2.423-1.739,4.006-4.233,4.006H90.036z
				 M95.696,79.127c0-1.403-0.863-2.495-2.494-2.495h-1.464v5.001h1.452C94.773,81.634,95.696,80.494,95.696,79.127z"/>
			<path fill="#FFFFFF" d="M98.586,79.139c0-2.411,1.763-4.138,4.186-4.138c2.41,0,4.174,1.727,4.174,4.138
				s-1.764,4.138-4.174,4.138C100.349,83.277,98.586,81.55,98.586,79.139z M105.195,79.139c0-1.5-0.948-2.626-2.423-2.626
				c-1.487,0-2.435,1.127-2.435,2.626c0,1.487,0.947,2.626,2.435,2.626C104.247,81.766,105.195,80.626,105.195,79.139z"/>
			<path fill="#FFFFFF" d="M107.995,79.139c0-2.471,1.858-4.138,4.27-4.138c1.751,0,2.771,0.947,3.334,1.955l-1.463,0.72
				c-0.336-0.647-1.056-1.163-1.871-1.163c-1.464,0-2.519,1.115-2.519,2.626s1.055,2.626,2.519,2.626
				c0.815,0,1.535-0.516,1.871-1.164l1.463,0.708c-0.563,0.996-1.583,1.967-3.334,1.967
				C109.854,83.277,107.995,81.598,107.995,79.139z"/>
			<path fill="#FFFFFF" d="M116.524,82.005l0.936-1.331c0.563,0.587,1.438,1.091,2.542,1.091c0.947,0,1.392-0.42,1.392-0.888
				c0-1.391-4.605-0.419-4.605-3.43c0-1.331,1.151-2.435,3.034-2.435c1.271,0,2.327,0.384,3.118,1.116l-0.947,1.271
				c-0.647-0.6-1.512-0.875-2.327-0.875c-0.72,0-1.127,0.312-1.127,0.792c0,1.259,4.594,0.408,4.594,3.394
				c0,1.463-1.056,2.567-3.203,2.567C118.382,83.277,117.279,82.761,116.524,82.005z"/>
		</g>
		<rect x="118.744" y="87.068" fill="#FFFFFF" width="29" height="3"/>
		<rect x="118.744" y="92.816" fill="#FFFFFF" width="36.215" height="3"/>
		<rect x="118.744" y="98.563" fill="#FFFFFF" width="29" height="3"/>
		<rect x="118.744" y="104.31" fill="#FFFFFF" width="36.215" height="3"/>
		<rect x="118.744" y="113.31" fill="#FFFFFF" width="36.215" height="3"/>
		<rect x="118.744" y="119.057" fill="#FFFFFF" width="29" height="3"/>
		<rect x="118.744" y="124.805" fill="#FFFFFF" width="36.215" height="3"/>
		<rect x="118.744" y="130.552" fill="#FFFFFF" width="29" height="3"/>
		<polyline fill="none" stroke="#FFFFFF" stroke-width="3" stroke-miterlimit="10" points="92.708,183.633 175.699,183.633 
			175.699,76.001 		"/>
	</g>
</g>
</svg>
