<?xml version="1.0" encoding="utf-8"?>
<!-- Generator: Adobe Illustrator 17.1.0, SVG Export Plug-In . SVG Version: 6.00 Build 0)  -->
<!DOCTYPE svg PUBLIC "-//W3C//DTD SVG 1.1//EN" "http://www.w3.org/Graphics/SVG/1.1/DTD/svg11.dtd">
<svg version="1.1" id="Layer_1" xmlns="http://www.w3.org/2000/svg" xmlns:xlink="http://www.w3.org/1999/xlink" x="0px" y="0px"
	 viewBox="0 0 253 253" enable-background="new 0 0 253 253" xml:space="preserve">
<g>
	<g>
		<g>
			<circle opacity="0.5" fill="#737F82" enable-background="new    " cx="126" cy="125.2" r="124.6"/>
			<circle fill="#0A4F68" stroke="#048BB9" stroke-width="3" stroke-miterlimit="10" cx="126.5" cy="120.7" r="117.8"/>
			<circle fill="#FFFFFF" stroke="#048BB9" stroke-width="2" stroke-miterlimit="10" cx="126.5" cy="120.7" r="76.1"/>
			<circle fill="#074F68" cx="126.5" cy="120.7" r="68.4"/>
		</g>
		<g opacity="0.4" enable-background="new    ">
			<g>
				<defs>
					<circle id="SVGID_1_" cx="126.5" cy="119.9" r="68.4"/>
				</defs>
				<clipPath id="SVGID_2_">
					<use xlink:href="#SVGID_1_"  overflow="visible"/>
				</clipPath>
				<g clip-path="url(#SVGID_2_)">
					
						<ellipse transform="matrix(0.8391 -0.5439 0.5439 0.8391 -41.4896 109.8328)" fill="#E8F6FD" cx="164.9" cy="125.1" rx="76.7" ry="68.4"/>
					
						<ellipse transform="matrix(0.8391 -0.5439 0.5439 0.8391 -43.6207 112.3222)" fill="#CAE5F0" cx="168.1" cy="129.9" rx="76.7" ry="68.4"/>
					
						<ellipse transform="matrix(0.8391 -0.5439 0.5439 0.8391 -46.8614 116.1067)" fill="#9FD1E6" cx="172.9" cy="137.3" rx="76.7" ry="68.4"/>
					
						<ellipse transform="matrix(0.8391 -0.5439 0.5439 0.8391 -50.6319 120.5109)" fill="#048CB9" cx="178.4" cy="145.9" rx="76.7" ry="68.4"/>
				</g>
			</g>
		</g>
		<g>
			<g>
				<path fill="#FFFFFF" d="M82.4,116.1c-0.6,0-1,0.4-1,1v35.5c0,0.6,0.4,1,1,1h15.3c0.6,0,1.3,0.3,1.7,0.7l7.3,7.3
					c0.4,0.4,1,0.4,1.4,0l7.3-7.3c0.4-0.4,1.2-0.7,1.7-0.7h15.4c0.6,0,1-0.4,1-1v-35.5c0-0.6-0.4-1-1-1H82.4z"/>
				<path fill="none" stroke="#048BB9" stroke-miterlimit="10" d="M82.4,116.1c-0.6,0-1,0.4-1,1v35.5c0,0.6,0.4,1,1,1h15.3
					c0.6,0,1.3,0.3,1.7,0.7l7.3,7.3c0.4,0.4,1,0.4,1.4,0l7.3-7.3c0.4-0.4,1.2-0.7,1.7-0.7h15.4c0.6,0,1-0.4,1-1v-35.5
					c0-0.6-0.4-1-1-1H82.4z"/>
			</g>
			<g>
				<path fill="#048CB9" d="M105.5,135.6c0-2.8,3.5-3.1,3.5-4.7c0-0.7-0.6-1.3-1.9-1.3c-1.2,0-2.2,0.6-2.9,1.5l-1.9-2.1
					c1.2-1.5,3.1-2.3,5.2-2.3c3,0,4.9,1.5,4.9,3.7c0,3.4-3.9,3.7-3.9,5.7c0,0.4,0.2,0.8,0.4,1l-2.6,0.8
					C105.8,137.2,105.5,136.5,105.5,135.6z M105.5,140.9c0-1,0.9-1.9,1.9-1.9c1,0,1.9,0.9,1.9,1.9c0,1-0.9,1.9-1.9,1.9
					C106.4,142.8,105.5,141.9,105.5,140.9z"/>
			</g>
			<g>
				<path fill="#FFFFFF" d="M119.1,88.2c-0.6,0-1,0.4-1,1v35.5c0,0.6,0.4,1,1,1h15.3c0.6,0,1.3,0.3,1.7,0.7l7.3,7.3
					c0.4,0.4,1,0.4,1.4,0l7.3-7.3c0.4-0.4,1.2-0.7,1.7-0.7h15.4c0.6,0,1-0.4,1-1V89.2c0-0.6-0.4-1-1-1H119.1z"/>
				<path fill="none" stroke="#048BB9" stroke-miterlimit="10" d="M119.1,88.2c-0.6,0-1,0.4-1,1v35.5c0,0.6,0.4,1,1,1h15.3
					c0.6,0,1.3,0.3,1.7,0.7l7.3,7.3c0.4,0.4,1,0.4,1.4,0l7.3-7.3c0.4-0.4,1.2-0.7,1.7-0.7h15.4c0.6,0,1-0.4,1-1V89.2
					c0-0.6-0.4-1-1-1H119.1z"/>
			</g>
			<g>
				<path fill="#048CB9" d="M134.4,109.6c0-1,0.9-1.9,1.9-1.9s1.9,0.9,1.9,1.9s-0.9,1.9-1.9,1.9S134.4,110.6,134.4,109.6z"/>
				<path fill="#048CB9" d="M142.2,109.6c0-1,0.9-1.9,1.9-1.9s1.9,0.9,1.9,1.9s-0.9,1.9-1.9,1.9S142.2,110.6,142.2,109.6z"/>
				<path fill="#048CB9" d="M150.1,109.6c0-1,0.9-1.9,1.9-1.9s1.9,0.9,1.9,1.9s-0.9,1.9-1.9,1.9
					C150.9,111.5,150.1,110.6,150.1,109.6z"/>
			</g>
		</g>
		<path fill="#048CB9" d="M138.1,215c0.7-0.8,1.1-1.8,1.1-2.9c0-1.3-0.5-2.4-1.5-3.3c-1-0.9-2.3-1.4-3.7-1.4h-19.8
			c-0.7,0.1-1.2,0.7-1.2,1.4v3.3h20.9l-17.2,4.9c-1.1,0.3-1.9,0.9-2.6,1.7c-0.7,0.8-1,1.8-1,2.8c0,1.3,0.5,2.5,1.5,3.4
			c1,0.9,2.3,1.4,3.7,1.4h19.7c0.7-0.1,1.2-0.6,1.3-1.3v-3.5h-21l17.2-4.9C136.5,216.4,137.4,215.8,138.1,215z"/>
	</g>
	<g>
		<circle opacity="0.1" fill="#FFFFFF" enable-background="new    " cx="89.9" cy="83.7" r="4.8"/>
		<circle fill="#FFFFFF" cx="89.7" cy="83.5" r="1.3"/>
	</g>
	<g>
		<circle opacity="0.1" fill="#FFFFFF" enable-background="new    " cx="80.9" cy="102.5" r="2.8"/>
		<circle fill="#FFFFFF" cx="80.8" cy="102.4" r="0.8"/>
	</g>
	<g>
		<path fill="#FFFFFF" d="M44.1,98.8l-12.3-4.1l2.9-8.7l2.3,0.8l-2,6.1l2.6,0.9l2-6l2.3,0.8l-2,6l2.8,0.9l2-6.1L47,90L44.1,98.8z"/>
		<path fill="#FFFFFF" d="M52.1,79.6l-10.4,1.6l7.5,3.9L48,87.5l-11.6-6l1.3-2.5l10-1.6l-7.3-3.7l1.3-2.5l11.6,6L52.1,79.6z"/>
		<path fill="#FFFFFF" d="M49.3,71.2c-3.3-2.5-3.5-6.5-1.2-9.6c1.6-2.1,3.7-2.7,5.5-2.5l-0.4,2.6c-1.1-0.1-2.4,0.4-3.2,1.4
			c-1.4,1.9-1,4.4,0.9,5.8c2,1.5,4.4,1.2,5.9-0.7c0.7-0.9,0.9-2.1,0.9-2.8l-1.2-0.9l-2.1,2.7l-1.9-1.5l3.7-5l4,3c0.4,2,0,4-1.4,5.9
			C56.6,72.8,52.6,73.7,49.3,71.2z"/>
		<path fill="#FFFFFF" d="M64,63.2l-9.4-9l1.9-2l9.4,9L64,63.2z"/>
		<path fill="#FFFFFF" d="M75.1,53.2l-10.2-2.7l5.4,6.6l-2.2,1.7l-8.2-10.1l2.2-1.8l9.8,2.5l-5.2-6.3l2.1-1.7l8.2,10.1L75.1,53.2z"
			/>
		<path fill="#FFFFFF" d="M79.8,49.9l-6.5-11.2l8-4.6l1.2,2.1l-5.6,3.2l1.4,2.4l5.4-3.2l1.2,2.1l-5.4,3.2l1.5,2.6l5.6-3.2l1.2,2.1
			L79.8,49.9z"/>
		<path fill="#FFFFFF" d="M90.1,44.1l-4.9-12l8.5-3.5l0.9,2.3l-6,2.4l1,2.5l5.8-2.4l0.9,2.3L90.7,38l1.1,2.7l6-2.4l0.9,2.3
			L90.1,44.1z"/>
		<path fill="#FFFFFF" d="M108.3,37.9l-3.6-3.9l-2,0.5l1.1,4.5l-2.7,0.7l-3.2-12.6l5.9-1.5c2.6-0.7,4.7,0.7,5.3,3
			c0.6,2.2-0.6,3.8-1.8,4.4l4.1,4.1L108.3,37.9z M106.5,29.3c-0.3-1-1.2-1.5-2.3-1.2l-2.8,0.7l0.9,3.4l2.8-0.7
			C106.1,31.2,106.7,30.4,106.5,29.3z"/>
		<path fill="#FFFFFF" d="M114,36.9L112.3,24l2.7-0.4l1.7,12.9L114,36.9z"/>
		<path fill="#FFFFFF" d="M128.9,35.9l-6.3-8.4l0.1,8.5l-2.8,0l-0.2-13l2.8,0l6.1,8.1l-0.1-8.2l2.8,0l0.2,13L128.9,35.9z"/>
		<path fill="#FFFFFF" d="M135,29.6c0.7-4.1,4.1-6.1,7.9-5.5c2.7,0.4,4.1,2,4.8,3.7l-2.4,0.9c-0.5-1-1.4-1.9-2.8-2.2
			c-2.3-0.4-4.3,1.1-4.7,3.6c-0.4,2.4,1,4.5,3.4,4.9c1.1,0.2,2.3-0.1,2.9-0.5l0.2-1.5l-3.4-0.5l0.4-2.4l6.1,1l-0.8,4.9
			c-1.5,1.3-3.5,1.9-5.8,1.5C137,36.7,134.3,33.6,135,29.6z"/>
		<path fill="#FFFFFF" d="M154.2,38.4l2.2-1.4c0.5,1.2,1.5,2.5,3.2,3.2c1.4,0.6,2.4,0.2,2.6-0.5c0.8-2.1-6.7-3.4-4.9-8
			c0.8-2,3.2-3,6.1-1.8c1.9,0.8,3.3,2,4,3.6l-2.2,1.3c-0.6-1.3-1.7-2.2-3-2.7c-1.1-0.4-1.9-0.2-2.2,0.5c-0.8,1.9,6.7,3.4,4.9,7.9
			c-0.9,2.2-3.1,3.2-6.4,1.9C156.3,41.4,154.9,40,154.2,38.4z"/>
		<path fill="#FFFFFF" d="M168,46.6l5.2-9.2l-3.3-1.9l1.2-2.1l9,5.1l-1.2,2.1l-3.3-1.9l-5.2,9.2L168,46.6z"/>
		<path fill="#FFFFFF" d="M178.9,47l4.9-6.1l2.2,1.8l-4.8,6c-1.1,1.4-1.1,3,0.5,4.3c1.6,1.3,3.2,0.9,4.3-0.5l4.8-6l2.2,1.8l-4.9,6.1
			c-2,2.5-4.9,3.1-8,0.6C177,52.4,176.9,49.5,178.9,47z"/>
		<path fill="#FFFFFF" d="M187,60.5l9.7-8.6l3.4,3.8c2.7,3,2.6,6.9-0.3,9.5c-2.9,2.6-6.7,2.2-9.4-0.8L187,60.5z M198,63
			c1.7-1.5,2.1-3.7,0.3-5.7l-1.6-1.8l-6.1,5.4l1.6,1.8C194,64.6,196.3,64.5,198,63z"/>
		<path fill="#FFFFFF" d="M196.4,71.7l10.7-7.4l1.6,2.3l-10.7,7.4L196.4,71.7z"/>
		<path fill="#FFFFFF" d="M205.3,72.9c3.5-1.8,7.3-0.6,9.1,2.9c1.8,3.5,0.7,7.3-2.8,9.1c-3.5,1.8-7.3,0.6-9.1-2.9
			C200.7,78.6,201.8,74.7,205.3,72.9z M210.3,82.4c2.2-1.1,3.1-3.3,2-5.5c-1.1-2.1-3.5-2.7-5.6-1.5c-2.1,1.1-3.1,3.3-2,5.5
			C205.8,83.1,208.1,83.6,210.3,82.4z"/>
		<path fill="#FFFFFF" d="M208.1,88.9l2.5,0.8c-0.6,1.2-0.9,2.8-0.4,4.5c0.5,1.5,1.4,1.9,2.1,1.7c2.1-0.7-1.7-7.3,2.9-8.9
			c2.1-0.7,4.3,0.5,5.3,3.4c0.7,2,0.6,3.8-0.1,5.4L218,95c0.6-1.3,0.6-2.8,0.2-4c-0.4-1.1-1.1-1.6-1.8-1.3c-1.9,0.6,1.7,7.3-2.9,8.8
			c-2.3,0.7-4.5-0.3-5.6-3.6C207.1,92.4,207.3,90.4,208.1,88.9z"/>
	</g>
	<g>
		<path fill="#FFFFFF" d="M30.9,121.4l6-2.2l-3.6,5.3l3.9,5l-6.1-1.8l-3.6,5.3l-0.2-6.4l-6.2-1.8l6-2.2l-0.2-6.4L30.9,121.4z"/>
		<path fill="#FFFFFF" d="M220.1,127.6l-6.1,1.8l3.9-5.1l-3.6-5.3l6,2.2l3.9-5.1l-0.2,6.4l6,2.2l-6.2,1.8l-0.2,6.4L220.1,127.6z"/>
	</g>
</g>
</svg>
