<?xml version="1.0" encoding="utf-8"?>
<!-- Generator: Adobe Illustrator 17.1.0, SVG Export Plug-In . SVG Version: 6.00 Build 0)  -->
<!DOCTYPE svg PUBLIC "-//W3C//DTD SVG 1.1//EN" "http://www.w3.org/Graphics/SVG/1.1/DTD/svg11.dtd">
<svg version="1.1" id="Layer_1" xmlns="http://www.w3.org/2000/svg" xmlns:xlink="http://www.w3.org/1999/xlink" x="0px" y="0px"
	 viewBox="0 0 253 253" enable-background="new 0 0 253 253" xml:space="preserve">
<g>
	<g>
		<g>
			<circle opacity="0.5" fill="#737F82" enable-background="new    " cx="126" cy="125.2" r="124.6"/>
			<circle fill="#0A4F68" stroke="#048BB9" stroke-width="3" stroke-miterlimit="10" cx="126.6" cy="120.7" r="117.8"/>
			<circle fill="#FFFFFF" stroke="#048BB9" stroke-width="2" stroke-miterlimit="10" cx="126.7" cy="120.1" r="76.1"/>
			<circle fill="#074F68" cx="126.7" cy="120.1" r="68.4"/>
			<g opacity="0.4">
				<defs>
					<circle id="SVGID_1_" opacity="0.4" cx="126.7" cy="120.1" r="68.4"/>
				</defs>
				<clipPath id="SVGID_2_">
					<use xlink:href="#SVGID_1_"  overflow="visible"/>
				</clipPath>
				<g clip-path="url(#SVGID_2_)">
					
						<ellipse transform="matrix(-0.19 0.9818 -0.9818 -0.19 327.946 187.4313)" fill="#E8F6FD" cx="86.7" cy="229" rx="96.9" ry="86.4"/>
					
						<ellipse transform="matrix(-0.19 0.9818 -0.9818 -0.19 318.0627 192.8132)" fill="#CAE5F0" cx="79.5" cy="227.6" rx="96.9" ry="86.4"/>
					
						<ellipse transform="matrix(-0.19 0.9818 -0.9818 -0.19 303.035 200.9994)" fill="#9FD1E6" cx="68.6" cy="225.5" rx="96.9" ry="86.4"/>
					
						<ellipse transform="matrix(-0.19 0.9818 -0.9818 -0.19 285.547 210.5212)" fill="#048CB9" cx="55.9" cy="223.1" rx="96.9" ry="86.4"/>
				</g>
			</g>
			<g>
				<path fill="#FFFFFF" d="M36.8,150.9l5-3.9l-1.8,6.2l5.3,3.6l-6.4,0.2l-1.8,6.1l-2.2-6l-6.4,0.2l5.1-3.9l-2.2-6L36.8,150.9z"/>
				<path fill="#FFFFFF" d="M214.5,157.7l-6.4,0.3l5-4l-2.2-6l5.3,3.5l5-4l-1.7,6.2l5.3,3.5l-6.4,0.3l-1.7,6.2L214.5,157.7z"/>
			</g>
		</g>
		<g opacity="0.4" enable-background="new    ">
			<g>
				<defs>
					<circle id="SVGID_3_" cx="126.6" cy="119.9" r="68.4"/>
				</defs>
				<clipPath id="SVGID_4_">
					<use xlink:href="#SVGID_3_"  overflow="visible"/>
				</clipPath>
			</g>
		</g>
		<path fill="#008CBA" d="M138.2,215c0.7-0.8,1.1-1.8,1.1-2.9c0-1.3-0.5-2.4-1.5-3.3s-2.3-1.4-3.7-1.4h-19.8
			c-0.7,0.1-1.2,0.7-1.2,1.4v3.3h20.9l-17.2,4.9c-1.1,0.3-1.9,0.9-2.6,1.7c-0.7,0.8-1,1.8-1,2.8c0,1.3,0.5,2.5,1.5,3.4
			c1,0.9,2.3,1.4,3.7,1.4H138c0.7-0.1,1.2-0.6,1.3-1.3v-3.5h-21l17.2-4.9C136.6,216.4,137.5,215.8,138.2,215z"/>
	</g>
	<g>
		<circle opacity="0.1" fill="#FFFFFF" enable-background="new    " cx="176.7" cy="145.4" r="7.1"/>
		<circle fill="#FFFFFF" cx="176.7" cy="145.4" r="1.3"/>
	</g>
	<g>
		<circle opacity="0.1" fill="#FFFFFF" enable-background="new    " cx="91.5" cy="87.2" r="4.4"/>
		<circle fill="#FFFFFF" cx="91.5" cy="87.2" r="0.8"/>
	</g>
	<g>
		<circle opacity="0.1" fill="#FFFFFF" enable-background="new    " cx="164.1" cy="157" r="2.7"/>
		<circle fill="#FFFFFF" cx="164.1" cy="156.8" r="0.7"/>
	</g>
	<g>
		<circle opacity="0.1" fill="#FFFFFF" enable-background="new    " cx="176.2" cy="101.4" r="7.1"/>
		<circle fill="#FFFFFF" cx="176.2" cy="101.4" r="1.3"/>
	</g>
	<g>
		<path fill="#FFFFFF" d="M41,136.4l-14.4,1.8L25.3,128l2.7-0.3l0.9,7.1l3.1-0.4l-0.9-7l2.7-0.3l0.9,7l6-0.8L41,136.4z"/>
		<path fill="#FFFFFF" d="M32.2,124.3c-4.4-0.2-7.4-3.5-7.2-7.9c0.2-4.4,3.5-7.5,7.8-7.3c4.4,0.2,7.4,3.5,7.2,7.9
			C39.9,121.4,36.6,124.5,32.2,124.3z M32.7,112.3c-2.7-0.1-4.8,1.5-5,4.2c-0.1,2.7,1.9,4.5,4.6,4.6c2.7,0.1,4.8-1.5,5-4.2
			C37.4,114.2,35.4,112.4,32.7,112.3z"/>
		<path fill="#FFFFFF" d="M34.8,105.9l-8.5-2l0.7-3.1l8.4,2c2,0.5,3.6-0.4,4.1-2.6c0.5-2.2-0.6-3.6-2.6-4.1l-8.4-2l0.7-3.1l8.5,2
			c3.5,0.8,5.4,3.5,4.4,7.8C41.2,105.2,38.3,106.8,34.8,105.9z"/>
		<path fill="#FFFFFF" d="M48.4,82.5l-11.5,2.5l8.7,3.8l-1.2,2.8l-13.3-5.9l1.3-2.9l11.1-2.5L35,76.8l1.2-2.8l13.3,5.9L48.4,82.5z"
			/>
		<path fill="#FFFFFF" d="M51,77.3l-12-8.2l3.2-4.8c2.6-3.8,6.7-4.8,10.4-2.3c3.6,2.5,4.2,6.7,1.7,10.5L51,77.3z M50.8,64.7
			c-2.1-1.4-4.7-1.3-6.3,1.2L43,68.1l7.5,5.1L52,71C53.6,68.6,52.8,66,50.8,64.7z"/>
		<path fill="#FFFFFF" d="M66.6,57.7l-2.4-1.1l-4.3,4.5l1.1,2.4l-2.4,2.6L51.9,52l2.7-2.8l14.4,6L66.6,57.7z M55.5,52.7l3,6l3.1-3.3
			L55.5,52.7z"/>
		<path fill="#FFFFFF" d="M71.9,53.2l-7.3-9.3l-3.3,2.6l-1.7-2.1l9.1-7.1l1.7,2.1L67,41.9l7.3,9.3L71.9,53.2z"/>
		<path fill="#FFFFFF" d="M79.6,47.5L72,35.2l2.6-1.6l7.6,12.4L79.6,47.5z"/>
		<path fill="#FFFFFF" d="M81.2,37.8c-1.8-4-0.1-8.2,3.9-10c4-1.8,8.2-0.2,10,3.8c1.8,4,0.1,8.2-3.9,10C87.2,43.3,83,41.8,81.2,37.8
			z M92.2,32.9c-1.1-2.5-3.5-3.6-6-2.6c-2.4,1.1-3.2,3.7-2.1,6.2c1.1,2.5,3.5,3.7,6,2.6C92.6,38,93.3,35.3,92.2,32.9z"/>
		<path fill="#FFFFFF" d="M110,35.3l-8.9-7.6l2.2,9.2l-3,0.7l-3.4-14.2l3.1-0.7l8.7,7.3l-2.1-8.9l3-0.7l3.4,14.2L110,35.3z"/>
		<path fill="#FFFFFF" d="M121.2,26.3c0.1-4.5,3.6-7.4,7.9-7.3c3.2,0.1,5,1.9,6,3.7l-2.7,1.2c-0.6-1.2-1.9-2.2-3.4-2.2
			c-2.6-0.1-4.6,1.9-4.7,4.7c-0.1,2.7,1.8,4.8,4.4,4.9c1.5,0,2.8-0.8,3.5-2l2.6,1.4c-1.1,1.8-3,3.5-6.2,3.4
			C124.4,34,121.1,30.8,121.2,26.3z"/>
		<path fill="#FFFFFF" d="M136.8,34.2l2.5-14.3l10.1,1.8l-0.5,2.7l-7.1-1.2l-0.5,3l6.9,1.2l-0.5,2.7l-6.9-1.2l-0.6,3.2l7.1,1.2
			L147,36L136.8,34.2z"/>
		<path fill="#FFFFFF" d="M157.2,39.3l-1-5.8l-2.1-0.7l-1.7,4.9l-2.9-1l4.7-13.8l6.4,2.2c2.9,1,4,3.5,3.1,6
			c-0.8,2.4-2.8,3.2-4.4,3.1l1.3,6.3L157.2,39.3z M160.7,30c0.4-1.2-0.3-2.2-1.4-2.6l-3.1-1l-1.3,3.7l3.1,1
			C159.2,31.6,160.3,31.2,160.7,30z"/>
		<path fill="#FFFFFF" d="M165.5,42.9l5.5-10.5l-3.8-2l1.3-2.4l10.3,5.4l-1.3,2.4l-3.7-2l-5.5,10.5L165.5,42.9z"/>
		<path fill="#FFFFFF" d="M173.8,47.7l8.1-12.1l2.6,1.7l-8.1,12.1L173.8,47.7z"/>
		<path fill="#FFFFFF" d="M179,51.2l9.4-11.1l7.9,6.6l-1.8,2.1l-5.5-4.6l-2,2.3l5.4,4.5l-1.8,2.1l-5.4-4.5l-3.9,4.6L179,51.2z"/>
		<path fill="#FFFFFF" d="M188.5,59.6l10.5-10l2.1,2.2l-10.5,10L188.5,59.6z"/>
		<path fill="#FFFFFF" d="M198.3,59.2c3.6-2.7,8.1-1.8,10.7,1.7c1.9,2.6,1.6,5.1,0.8,7l-2.6-1.4c0.6-1.2,0.6-2.8-0.3-4
			c-1.6-2.1-4.3-2.5-6.6-0.8c-2.2,1.6-2.7,4.4-1.1,6.5c0.9,1.2,2.4,1.7,3.7,1.5l0.6,2.9c-2.1,0.2-4.6-0.2-6.5-2.8
			C194.3,66.4,194.7,61.9,198.3,59.2z"/>
		<path fill="#FFFFFF" d="M206.1,85.2l1.8-1.9l-2.8-5.6l-2.6,0.3l-1.6-3.2l15.5-1.5l1.8,3.5l-10.5,11.6L206.1,85.2z M214.5,76.4
			l-6.6,0.8l2,4.1L214.5,76.4z"/>
		<path fill="#FFFFFF" d="M208.6,91.7l11.2-3.7l-1.3-4L221,83l3.7,11l-2.6,0.9l-1.3-4l-11.2,3.7L208.6,91.7z"/>
		<path fill="#FFFFFF" d="M211.3,100.9l14.2-3l0.6,3l-14.2,3L211.3,100.9z"/>
		<path fill="#FFFFFF" d="M219.9,105.6c4.4-0.3,7.8,2.6,8.1,7c0.3,4.4-2.5,7.8-6.9,8.2c-4.4,0.3-7.8-2.6-8.1-7
			C212.7,109.4,215.5,106,219.9,105.6z M220.8,117.6c2.7-0.2,4.6-2.1,4.4-4.8c-0.2-2.7-2.4-4.2-5.1-4c-2.7,0.2-4.6,2.1-4.4,4.8
			C215.9,116.3,218.1,117.8,220.8,117.6z"/>
		<path fill="#FFFFFF" d="M212.6,133.6l10.2-5.9l-9.4-1l0.3-3.1l14.5,1.6l-0.3,3.2L218,134l9.1,1l-0.3,3.1l-14.5-1.6L212.6,133.6z"
			/>
	</g>
	<g>
		<path display="none" fill="#048BB9" d="M131.2,186.5l-3.9-2l-3.9,2l-3.7-2.4l-4.1,1.4l-3.3-2.9l-4.2,1l-3-3.2l-4.3,0.4l-2.5-3.5
			l-4.3-0.1l-2.1-3.9l-4.3-0.6l-1.7-4.1l-4.2-1.1l-1.1-4.2l-4.1-1.6l-0.6-4.3l-3.9-2.1L72,151l-3.5-2.5l0.4-4.3l-3.2-3l1-4.2
			l-2.9-3.3l1.4-4.1l-2.4-3.7l2-3.9l-2-3.9l2.4-3.7l-1.4-4.1l2.9-3.3l-1-4.2l3.2-3l-0.4-4.3L72,93l0.1-4.3l3.9-2.1l0.6-4.3l4.1-1.7
			l1.1-4.2l4.2-1.1l1.6-4.1l4.3-0.6l2.1-3.9l4.3-0.1l2.5-3.5l4.3,0.4l3-3.2l4.2,1l3.3-2.9l4.1,1.4l3.7-2.4l3.9,2l3.9-2l3.7,2.4
			l4.1-1.4l3.3,2.9l4.2-1l3,3.2l4.3-0.4l2.5,3.5l4.3,0.1l2.1,3.9l4.3,0.6l1.7,4.1l4.2,1.1l1.1,4.2l4.1,1.6l0.6,4.3l3.9,2.1l0.1,4.3
			l3.5,2.5l-0.4,4.3l3.2,3l-1,4.2l2.9,3.3l-1.4,4.1l2.4,3.7l-2,3.9l2,3.9l-2.4,3.7l1.4,4.1l-2.9,3.3l1,4.2l-3.2,3l0.4,4.3l-3.5,2.5
			l-0.1,4.3l-3.9,2.1l-0.6,4.3l-4.1,1.7l-1.1,4.2l-4.2,1.1l-1.6,4.1l-4.3,0.6l-2.1,3.9l-4.3,0.1l-2.5,3.5l-4.3-0.4l-3,3.2l-4.2-1
			l-3.3,2.9l-4.1-1.4L131.2,186.5z"/>
		<path fill="#048BB9" d="M120.6,75.1c3.8,4,6.4,31.1,6,32.9c-0.8,0.1-4.7,0.8-10.1,2.2c-4.9,1.3-14.4,6.9-17.1,14.2
			c-2.7,7.1,2.1,16.8,2.1,16.8c-0.3-3,0.2-0.4,3.4,6.9c3.2,7.3,11.1,11.9,11.1,11.9c-1.4-2.2,0-5.9,0-5.9c5.5,7.8,15.5,9,23.7,6.8
			c8.2-2.2,7.3-6.5,7.3-6.5l-0.4-1c3.9-0.4,7.1-1.7,9.3-5.6c2.4-4.4-2.5-9.7-2.5-9.7c10.1-1.7,10.9-6.3,10.6-9.4
			c-0.2-4.1-4.2-9-4.2-9c1.9,0.2-6-5-14.1-4.3c-2.2,0.2-4.1,0-5.6-0.3h0.1c-0.6-2.1,2-5.8,3.1-9.7c1.1-4,1.1-6.6,1-7.1
			c1,1,1.9,3.5,1.9,3.5s0.6-4.4-0.9-10.3s-4.2-7.6-4.2-7.6c1.3,0.1,2.9-0.3,2.9-0.3S135.2,72.7,120.6,75.1z"/>
		<path fill="#FFFFFF" d="M117.9,76.7c5.2,4.3,6.2,16.7,6.2,16.7c-1.1-1.4-3.9-2.5-3.9-2.5c1.1,1.9,1.6,5,1.4,9.2
			c-0.1,2.9-0.6,5.9-1.3,7c-0.8,0.1-2.2,0.6-7.6,2.1c-4.9,1.3-14.3,6.9-17.1,14.2c-2.7,7.1,2.1,16.8,2.1,16.8
			c-0.3-3,0.2-0.4,3.4,6.9c3.2,7.3,12.7,12.3,12.7,12.3c-1.4-2.2-1.7-6.4-1.7-6.4c5.5,7.8,15.5,9,23.7,6.8c8.2-2.2,7.3-6.5,7.3-6.5
			l-0.4-1c3.9-0.4,7.1-1.7,9.3-5.6c2.4-4.4-2.5-9.7-2.5-9.7c10.1-1.7,10.9-6.3,10.6-9.4c-0.2-4.1-4.2-9-4.2-9c1.9,0.2,4.9,3,4.9,3
			s-0.7-2.7-3.3-5.5c-2.5-3-7.5-2.4-15.6-1.8c-2.2,0.2-4.1,0-5.6-0.3h0.1c-0.6-2.1,2-5.8,3.1-9.7c1.1-4,1.1-6.6,1-7.1
			c1,1,1.9,3.5,1.9,3.5s0.6-4.4-0.9-10.3c-1.4-5.9-4.3-7.4-4.3-7.4c1.3,0.1,2.2,0.2,2.2,0.2C132.1,74.2,123,75.1,117.9,76.7z"/>
		<g>
			<g>
				<path fill="#048BB9" d="M143.4,153.1c0.3,1.6-0.6,3.1-1.7,4.1c-1.1,1.1-2.5,1.8-4,2.4c-2.9,1.1-5.9,1.8-9,2
					c-3.1,0.2-6.3-0.1-9.3-1.3c-3-1.2-5.6-3.3-7.6-5.9l2.5-1.1c0.3,1.2,0.7,2.4,1.1,3.5c0.4,1.1,0.9,2.3,1.4,3.2l4.4,6.8l-6.5-4.7
					c-2.8-2-5.4-4-8-6.2c-2.5-2.2-5-4.5-7.1-7.3c-0.6-0.7-1-1.4-1.4-2.2c-0.2-0.4-0.4-0.8-0.7-1.2l-0.6-1.1
					c-0.7-1.6-1.3-3.1-1.9-4.7c-1.1-3.2-2.1-6.6-1.9-10.2c0.1-3.5,1.2-7.1,3.3-10c2.1-2.9,4.8-5.1,7.5-6.9c2.9-1.8,6-3.2,9.3-3.9
					c3.2-0.9,4.1-1.1,7.4-1.4c-3.2,0.8-4,1.4-7.2,2.3c-3.1,0.9-5.9,2.7-8.4,4.5c-2.5,1.9-4.9,4.2-6.5,6.8c-1.7,2.5-2.3,5.6-2.3,8.6
					c0.1,3,0.9,6.1,2,9c0.6,1.4,1.2,3,1.8,4.4l0.4,1.1c0.1,0.3,0.3,0.7,0.4,1c0.3,0.7,0.8,1.3,1.2,1.9c1.9,2.4,4.2,4.8,6.5,6.9
					c2.4,2.1,5,4.2,7.5,6.1l-2.1,2.1c-0.9-1.3-1.2-2.7-1.7-4c-0.4-1.3-0.8-2.5-1-3.9l-1.6-7.1l4,6c1.6,2.3,3.8,4.2,6.3,5.3
					c2.5,1.2,5.4,1.7,8.3,1.8c2.9,0,5.9-0.3,8.7-1.1c1.4-0.4,2.8-1,3.9-1.9C142.5,156,143.4,154.7,143.4,153.1z"/>
			</g>
		</g>
		<g>
			<path fill="#048BB9" d="M130.5,111.1c2.3,1.8,5.3,2.5,8.1,2.7c2.9,0.1,5.8-0.4,8.7-0.7c1.4-0.1,3-0.2,4.4-0.2
				c1.6,0,3.1,0.2,4.5,0.9c0.8,0.3,1.4,0.9,2,1.4c0.6,0.6,1,1.1,1.4,1.8c0.9,1.2,1.7,2.5,2.1,4.1l1.6,5.1l-2.9-4.3
				c-0.7-0.6-1.4-1.2-2.2-1.7s-1.7-1-2.2-1l0.8-1.4c1.2,1.4,2.1,3,3,4.8c0.8,1.7,1.6,3.5,1.3,5.6c0.8,1.2-0.5,2.9-2.9,5.1
				c-1.4,1.3-3.1,2.2-4.9,2.9c-3.5,1.3-7.2,1.8-10.7,1.9c-3.7,0-7.3-0.2-10.7-1.7c3.4,1,7.1,1.1,10.6,0.8c3.5-0.3,7.1-0.9,10.3-2.3
				c1.6-0.7,3.1-1.6,4.3-2.8c1.2-1.1,2.1-2.7,2.3-4.2c0.1-1.6-0.4-3.2-1.2-4.8s-1.8-3-2.8-4.4l-1.2-1.6l2,0.2
				c0.7,0.1,1.2,0.3,1.7,0.6c0.4,0.2,0.9,0.6,1.3,0.8c0.9,0.6,1.7,1.2,2.3,1.9l-1.3,0.8c-0.3-1.2-1.1-2.5-1.9-3.7
				c-0.4-0.6-0.8-1.1-1.3-1.7c-0.4-0.4-0.9-0.9-1.6-1.1c-2.4-1.1-5.4-1-8.3-0.9l-4.3,0.2c-1.4,0.1-3,0.1-4.4,0
				C135.6,114.1,132.6,113.2,130.5,111.1z"/>
		</g>
		<g>
			<path fill="#048BB9" d="M149.6,136.6c1.4,1.3,2.7,3,3.3,4.9c0.3,1,0.6,2,0.3,3.1c-0.1,1.1-0.6,2.1-1.1,3
				c-1.1,1.8-2.7,3.3-4.7,4.1c-2,0.9-4,1.1-6,1.2l-2.3,0.1l1.7-1.6l1.4-1.3l0.7-0.7c0.2-0.2,0.4-0.6,0.6-0.7l1.2,1
				c-1.3,0.9-2.7,1.3-4.1,1.6c-1.4,0.2-2.9,0.2-4.2,0c-1.4-0.2-2.7-0.4-4-0.8c-1.3-0.3-2.7-0.7-3.9-1.2c1.3,0.3,2.7,0.4,4,0.6
				c1.3,0.1,2.7,0.3,4,0.3c1.3,0,2.7-0.1,3.9-0.3c1.2-0.2,2.5-0.8,3.3-1.4l3.7-2.9l-2.4,3.9c-0.3,0.4-0.6,0.7-0.8,0.9l-0.8,0.8
				l-1.4,1.4l-0.7-1.4c1.9-0.1,3.8-0.3,5.4-1c1.7-0.7,3.1-1.9,4.1-3.4c0.6-0.8,1-1.6,1.1-2.3c0.2-0.9,0.1-1.8-0.1-2.7
				C151.7,140,150.7,138.3,149.6,136.6z"/>
		</g>
		<path fill="#048BB9" d="M136.4,113.6c-0.2-0.7-0.1-1.4,0-2.2c0.1-0.7,0.3-1.4,0.6-2.1c0.4-1.3,1-2.8,1.4-4.1
			c0.2-0.7,0.4-1.3,0.6-2.1c0.1-0.3,0.2-0.7,0.2-1.1l0.2-1c0.1-0.7,0.2-1.4,0.2-2.1c0-0.3,0-0.7,0-1c0-0.2,0-0.3,0-0.6v-0.2
			c0-0.1,0-0.1,0-0.1l-0.1-1.9l1.2,1.2c0.6,0.6,0.9,1.2,1.2,1.9c0.3,0.7,0.6,1.2,0.8,2l-1.4,0.1c0.1-0.8,0.1-1.7,0.1-2.4
			c0-0.9-0.1-1.7-0.1-2.5c-0.1-0.9-0.2-1.7-0.3-2.4c-0.1-0.8-0.3-1.7-0.6-2.4c-0.2-0.8-0.4-1.6-0.8-2.3c-0.3-0.8-0.7-1.6-1-2.2
			l-0.6-1.1l-0.7-1c-0.1-0.1-0.2-0.3-0.3-0.6l-0.3-0.6c-0.2-0.3-0.4-0.7-0.8-0.9c-2.1-2.4-5.1-4-8.2-4.7c-1.6-0.3-3.2-0.3-4.9-0.2
			c-1.7,0.1-3.2,0.4-4.8,0.9l0.3-1.9c1.3,1.1,2.2,2.5,3,3.9c0.8,1.4,1.3,2.9,1.8,4.4c0.4,1.6,0.8,3,1.1,4.5s0.6,3,0.7,4.7l0.2,3
			l-1.8-2.3c-0.3-0.4-1-0.9-1.6-1.3c-0.3-0.2-0.7-0.4-1-0.6c-0.3-0.2-0.7-0.3-1-0.6l1-1.1c0.3,0.6,0.4,1.1,0.6,1.7
			c0.1,0.6,0.2,1.1,0.3,1.6c0.1,1.1,0.2,2.1,0.3,3.2c0,1.1,0.1,2.1,0.1,3.1v1.6c0,0.6,0,1.1-0.1,1.6c0,0.6-0.1,1.1-0.2,1.6
			c-0.1,0.6-0.2,1-0.3,1.6c-0.1,0.6-0.3,1-0.6,1.6c-0.2,0.4-0.4,1-0.7,1.4c-0.6,0.9-1.1,1.8-1.9,2.5c-0.3,0.4-0.8,0.8-1.1,1.1
			c-0.3,0.3-0.8,0.7-1.1,1.1c0.3-0.4,0.7-0.8,1-1.2c0.3-0.4,0.7-0.8,1-1.2c0.7-0.8,1.2-1.7,1.7-2.7c0.2-0.4,0.4-0.9,0.6-1.4
			c0.2-0.4,0.3-1,0.4-1.4c0.1-0.4,0.2-1,0.2-1.4c0-0.4,0.1-1,0.1-1.6c0-0.6,0-1,0-1.6l-0.1-1.6c-0.1-1-0.1-2.1-0.2-3.1
			c-0.1-1-0.2-2-0.4-3c-0.1-0.6-0.2-1-0.3-1.4c-0.1-0.4-0.3-0.9-0.4-1.2l-1.1-2l2.2,0.9c0.4,0.2,0.8,0.3,1.1,0.6
			c0.3,0.2,0.8,0.3,1.1,0.6c0.7,0.4,1.4,0.9,2,1.7l-1.6,0.7c-0.1-0.7-0.2-1.4-0.3-2.2c-0.1-0.8-0.2-1.4-0.4-2.2
			c-0.3-1.4-0.7-2.9-1.1-4.3c-0.4-1.4-1-2.8-1.7-4c-0.7-1.2-1.6-2.4-2.5-3.3l-1.4-1.2l1.8-0.6c1.8-0.6,3.5-0.9,5.3-1.1
			c1.8-0.1,3.7,0,5.4,0.3c1.8,0.3,3.5,1,5.1,1.9c1.7,0.9,3.1,2.1,4.2,3.4c0.3,0.3,0.6,0.8,0.9,1.1l0.3,0.6c0.1,0.2,0.2,0.4,0.3,0.6
			l0.7,1.1l0.6,1.2c0.4,0.8,0.8,1.7,1,2.4c0.3,0.9,0.6,1.7,0.8,2.5c0.2,0.9,0.3,1.8,0.6,2.7c0.1,0.9,0.2,1.8,0.2,2.7
			c0.1,0.9,0.1,1.8,0.1,2.7c0,0.9-0.1,1.8-0.2,2.7l-0.4,3.4l-1-3.3c-0.2-0.6-0.4-1.2-0.7-1.8c-0.2-0.6-0.6-1.1-0.9-1.6l1.1-0.7v0.3
			v0.3c0,0.2,0,0.4,0,0.6c0,0.3-0.1,0.8-0.1,1.1c-0.1,0.8-0.2,1.4-0.3,2.2c-0.2,0.8-0.3,1.4-0.6,2.1c-0.2,0.7-0.4,1.4-0.8,2.1
			c-0.6,1.3-1.2,2.7-1.8,4c-0.3,0.7-0.6,1.3-0.8,2C136.4,112.2,136.3,112.9,136.4,113.6z"/>
	</g>
	<g>
		<circle opacity="0.1" fill="#FFFFFF" enable-background="new    " cx="82.2" cy="114.1" r="3.5"/>
		<circle fill="#FFFFFF" cx="82.1" cy="113.9" r="1"/>
	</g>
</g>
</svg>
