<?xml version="1.0" encoding="utf-8"?>
<!-- Generator: Adobe Illustrator 17.1.0, SVG Export Plug-In . SVG Version: 6.00 Build 0)  -->
<!DOCTYPE svg PUBLIC "-//W3C//DTD SVG 1.1//EN" "http://www.w3.org/Graphics/SVG/1.1/DTD/svg11.dtd">
<svg version="1.1" id="Layer_1" xmlns="http://www.w3.org/2000/svg" xmlns:xlink="http://www.w3.org/1999/xlink" x="0px" y="0px"
	 viewBox="0 0 253 253" enable-background="new 0 0 253 253" xml:space="preserve">
<g display="none">
	<g display="inline">
		<g>
			<circle opacity="0.5" fill="#738083" enable-background="new    " cx="57.7" cy="56.8" r="55.9"/>
			<circle fill="#0B5068" stroke="#098CBA" stroke-width="3" stroke-miterlimit="10" cx="57.9" cy="54.7" r="52.8"/>
			<circle fill="#FFFFFF" stroke="#098CBA" stroke-width="2" stroke-miterlimit="10" cx="57.9" cy="54.7" r="34.1"/>
			<g>
				<path fill="#FEFFFF" d="M15.4,56.5l2.7-1.1l-1.5,2.4l1.9,2.2l-2.8-0.7l-1.5,2.4L13.9,59l-2.8-0.7l2.7-1.1l-0.2-2.9L15.4,56.5z"
					/>
				<path fill="#FEFFFF" d="M14.8,49.5c-2-0.4-3.1-2.2-2.7-4.1c0.3-1.4,1.2-2.1,2.1-2.4l0.4,1.3c-0.6,0.2-1.1,0.7-1.2,1.3
					c-0.2,1.2,0.5,2.2,1.7,2.5c1.2,0.2,2.3-0.4,2.5-1.6c0.1-0.7-0.2-1.3-0.6-1.7l0.8-1.1c0.7,0.6,1.3,1.6,1.1,3
					C18.5,48.6,16.8,49.8,14.8,49.5z"/>
				<path fill="#FEFFFF" d="M16.5,41.8c-1.8-0.7-2.6-2.6-1.9-4.5c0.7-1.8,2.6-2.7,4.5-1.9c1.8,0.7,2.6,2.6,1.9,4.5
					C20.2,41.7,18.3,42.5,16.5,41.8z M18.5,36.7c-1.1-0.5-2.3-0.1-2.8,1c-0.5,1.1,0.1,2.2,1.3,2.7c1.1,0.5,2.3,0.1,2.8-1.1
					C20.2,38.2,19.6,37.2,18.5,36.7z"/>
				<path fill="#FEFFFF" d="M24.8,32.2l-2.7-0.2l-0.6,0.9l2,1.3l-0.8,1.2l-5.6-3.6l1.7-2.6c0.7-1.2,2-1.4,3-0.7
					c1,0.6,1.1,1.6,0.9,2.3l2.9,0.1L24.8,32.2z M21.1,29.7c-0.5-0.3-1-0.1-1.3,0.4l-0.8,1.3l1.5,1l0.8-1.3
					C21.7,30.5,21.6,30,21.1,29.7z"/>
				<path fill="#FEFFFF" d="M26.6,29.7l-4.9-4.4l2.1-2.3c1-1.1,2.2-1,3.1-0.2c0.9,0.8,1,2,0.1,3.1l-1.1,1.2l1.7,1.6L26.6,29.7z
					 M25.9,23.8c-0.4-0.4-0.9-0.3-1.3,0.1l-1,1.1l1.3,1.2l1-1.1C26.3,24.8,26.3,24.2,25.9,23.8z"/>
				<path fill="#FEFFFF" d="M28.9,22.4c-1.2-1.6-0.9-3.6,0.7-4.8c1.6-1.2,3.6-1,4.8,0.6c1.2,1.6,0.9,3.6-0.7,4.8
					C32.1,24.3,30.1,24,28.9,22.4z M33.3,19.1c-0.8-1-1.9-1.3-2.9-0.5c-1,0.7-1,2-0.3,2.9c0.7,1,1.9,1.3,2.9,0.5
					C34,21.3,34,20.1,33.3,19.1z"/>
				<path fill="#FEFFFF" d="M41,18.5L38.8,17l-0.9,0.5l1.1,2.1l-1.3,0.6l-3-5.9l2.8-1.4c1.2-0.6,2.4-0.2,3,0.9
					c0.5,1,0.1,1.9-0.4,2.4l2.5,1.6L41,18.5z M39.1,14.4c-0.2-0.5-0.8-0.6-1.3-0.3l-1.3,0.7l0.8,1.6l1.3-0.7
					C39.1,15.4,39.3,15,39.1,14.4z"/>
				<path fill="#FEFFFF" d="M48.2,15.9l-0.7-1l-2.7,0.8L44.7,17l-1.5,0.5l0.5-7.1l1.7-0.5l4.3,5.6L48.2,15.9z M44.9,11.5l-0.2,3
					l2-0.6L44.9,11.5z"/>
				<path fill="#FEFFFF" d="M51.7,15.3L50.9,10L49,10.2L48.9,9l5.2-0.7l0.2,1.2l-1.9,0.3l0.7,5.3L51.7,15.3z"/>
				<path fill="#FEFFFF" d="M56.4,14.8l0.1-6.6l4.7,0.1l0,1.2l-3.3-0.1l0,1.4l3.2,0.1l0,1.2l-3.2-0.1l0,1.5l3.3,0.1l0,1.2L56.4,14.8
					z"/>
				<path fill="#FEFFFF" d="M65.5,14.5l1-0.9c0.3,0.6,0.9,1.2,1.8,1.4c0.8,0.2,1.2,0,1.3-0.4c0.3-1.1-3.6-1.3-3-3.7
					c0.3-1.1,1.4-1.7,2.9-1.3c1,0.3,1.8,0.8,2.3,1.5l-1,0.8c-0.4-0.6-1-1-1.7-1.2c-0.6-0.1-1,0-1.1,0.4c-0.3,1,3.6,1.3,3,3.7
					c-0.3,1.2-1.4,1.8-3.1,1.4C66.7,15.9,66,15.3,65.5,14.5z"/>
				<path fill="#FEFFFF" d="M73,14.8l1.7-3.6l1.3,0.6l-1.6,3.6c-0.4,0.8-0.2,1.6,0.8,2.1s1.7,0.1,2.1-0.8l1.6-3.6l1.3,0.6l-1.7,3.6
					c-0.7,1.5-2,2.1-3.9,1.3C72.7,17.7,72.3,16.3,73,14.8z"/>
				<path fill="#FEFFFF" d="M78.8,20.6l3.8-5.4l2.5,1.8c1.2,0.8,1.3,2.1,0.6,3c-0.7,0.9-1.9,1.3-3,0.5l-1.4-1l-1.4,1.9L78.8,20.6z
					 M84.5,19.2c0.3-0.5,0.2-1-0.3-1.3L83,17l-1,1.5l1.2,0.9C83.7,19.7,84.2,19.6,84.5,19.2z"/>
				<path fill="#FEFFFF" d="M84.2,24.6l4.6-4.7L91,22c1,1,0.9,2.2,0.1,3.1c-0.8,0.8-2.1,1-3.1,0l-1.2-1.2l-1.7,1.7L84.2,24.6z
					 M90.1,24.1c0.4-0.4,0.3-0.9-0.1-1.3l-1.1-1L87.7,23l1.1,1C89.2,24.4,89.7,24.5,90.1,24.1z"/>
				<path fill="#FEFFFF" d="M91.3,27.1C93,26,95,26.4,96.1,28c1.1,1.6,0.8,3.6-0.8,4.8c-1.6,1.1-3.6,0.8-4.8-0.9
					C89.4,30.3,89.7,28.3,91.3,27.1z M94.5,31.6c1-0.7,1.3-1.9,0.6-2.9c-0.7-1-1.9-1.1-2.9-0.4c-1,0.7-1.3,1.9-0.6,2.9
					C92.2,32.2,93.5,32.3,94.5,31.6z"/>
				<path fill="#FEFFFF" d="M94.8,39.4l1.6-2.2L96,36.3l-2.1,1L93.2,36l6-2.7l1.3,2.8c0.6,1.3,0.1,2.4-1,2.9
					c-1.1,0.5-1.9,0.1-2.4-0.5l-1.7,2.4L94.8,39.4z M98.9,37.6c0.5-0.2,0.6-0.8,0.4-1.3L98.7,35l-1.6,0.7l0.6,1.4
					C97.9,37.6,98.4,37.9,98.9,37.6z"/>
				<path fill="#FEFFFF" d="M96.3,43.6l5.2-1.4l-0.5-1.9l1.2-0.3l1.4,5.1l-1.2,0.3l-0.5-1.9L96.6,45L96.3,43.6z"/>
				<path fill="#FEFFFF" d="M100.3,55.8l-2.7,0.9l1.7-2.3l-1.7-2.3l2.7,0.9l1.7-2.3l0,2.9l2.7,0.9l-2.7,0.9l0,2.9L100.3,55.8z"/>
			</g>
			<circle fill="#095069" cx="57.9" cy="54.7" r="30.7"/>
		</g>
		<g opacity="0.4" enable-background="new    ">
			<g>
				<g>
					<g>
						<defs>
							<circle id="SVGID_1_" cx="57.9" cy="54.4" r="30.7"/>
						</defs>
						<clipPath id="SVGID_2_">
							<use xlink:href="#SVGID_1_"  overflow="visible"/>
						</clipPath>
						<g clip-path="url(#SVGID_2_)">
							
								<ellipse transform="matrix(-0.5568 0.8307 -0.8307 -0.5568 110.1538 195.1448)" fill="#E9F7FE" cx="3" cy="127" rx="71.2" ry="63.5"/>
							
								<ellipse transform="matrix(-0.5568 0.8307 -0.8307 -0.5568 119.5618 196.0892)" fill="#CBE6F1" cx="7.5" cy="129.9" rx="71.2" ry="63.5"/>
							
								<ellipse transform="matrix(-0.5568 0.8307 -0.8307 -0.5568 133.8695 197.5326)" fill="#A0D2E7" cx="14.2" cy="134.5" rx="71.2" ry="63.5"/>
							
								<ellipse transform="matrix(-0.5568 0.8307 -0.8307 -0.5568 150.5184 199.2052)" fill="#098DBA" cx="22.1" cy="139.8" rx="71.2" ry="63.5"/>
						</g>
					</g>
				</g>
			</g>
		</g>
		<path fill="#098DBA" d="M63.1,97c0.3-0.4,0.5-0.8,0.5-1.3c0-0.6-0.2-1.1-0.7-1.5c-0.5-0.4-1-0.6-1.7-0.6h-8.9
			c-0.3,0.1-0.5,0.3-0.5,0.6v1.5h9.4l-7.7,2.2c-0.5,0.1-0.9,0.4-1.2,0.8c-0.3,0.4-0.5,0.8-0.5,1.3c0,0.6,0.2,1.1,0.7,1.5
			c0.5,0.4,1,0.6,1.7,0.6H63c0.3,0,0.5-0.3,0.6-0.6V100h-9.4l7.7-2.2C62.4,97.6,62.8,97.4,63.1,97z"/>
	</g>
	<g display="inline">
		<circle fill="#FFFFFF" stroke="#098CBA" stroke-miterlimit="10" cx="58.4" cy="56.8" r="13.1"/>
		<ellipse fill="#098DBA" cx="62.2" cy="64.5" rx="2.7" ry="1.5"/>
		<g>
			<g>
				<g>
					<g>
						<defs>
							<rect id="SVGID_3_" x="37.1" y="50.1" width="6.8" height="19.8"/>
						</defs>
						<clipPath id="SVGID_4_">
							<use xlink:href="#SVGID_3_"  overflow="visible"/>
						</clipPath>
						<circle clip-path="url(#SVGID_4_)" fill="#098DBA" cx="43.9" cy="57" r="4.6"/>
					</g>
				</g>
			</g>
		</g>
		<g>
			<g>
				<g>
					<g>
						<defs>
							<rect id="SVGID_5_" x="73.3" y="43.5" width="6.8" height="19.8"/>
						</defs>
						<clipPath id="SVGID_6_">
							<use xlink:href="#SVGID_5_"  overflow="visible"/>
						</clipPath>
						<circle clip-path="url(#SVGID_6_)" fill="#098DBA" cx="73.3" cy="56.5" r="4.6"/>
					</g>
				</g>
			</g>
		</g>
		<path fill="none" stroke="#098CBA" stroke-miterlimit="10" d="M62.2,64.3c0,0,7.5,1,9.3,0s3.8-5.8,3.8-5.8"/>
		<g>
			<g>
				<g>
					<g>
						<defs>
							<rect id="SVGID_7_" x="35.7" y="38.8" width="44.4" height="20.6"/>
						</defs>
						<clipPath id="SVGID_8_">
							<use xlink:href="#SVGID_7_"  overflow="visible"/>
						</clipPath>
						<path clip-path="url(#SVGID_8_)" fill="none" stroke="#098CBA" stroke-miterlimit="10" d="M74.8,60.1
							c0,7.2-5.9,13.1-13.1,13.1h-5.7c-7.2,0-13.1-5.9-13.1-13.1v-5.7c0-7.2,5.9-13.1,13.1-13.1h5.7c7.2,0,13.1,5.9,13.1,13.1V60.1z
							"/>
					</g>
				</g>
			</g>
		</g>
		<g>
			<path fill="#098DBA" d="M52.3,56.5c0-0.5,0.4-0.9,0.9-0.9S54,56,54,56.5s-0.4,0.9-0.9,0.9S52.3,57,52.3,56.5z"/>
			<path fill="#098DBA" d="M62.8,56.5c0-0.5,0.4-0.9,0.9-0.9c0.5,0,0.9,0.4,0.9,0.9s-0.4,0.9-0.9,0.9S62.8,57,62.8,56.5z"/>
		</g>
	</g>
	<g display="inline">
		<circle opacity="0.1" fill="#FFFFFF" enable-background="new    " cx="49.5" cy="34" r="3.2"/>
		<circle fill="#FFFFFF" cx="49.5" cy="34" r="0.6"/>
	</g>
	<g display="inline">
		<circle opacity="0.1" fill="#FFFFFF" enable-background="new    " cx="40.8" cy="43.9" r="2.2"/>
		<circle fill="#FFFFFF" cx="40.8" cy="43.8" r="0.6"/>
	</g>
	<g display="inline">
		<circle opacity="0.1" fill="#FFFFFF" enable-background="new    " cx="71.4" cy="74.5" r="2.2"/>
		<circle fill="#FFFFFF" cx="71.4" cy="74.4" r="0.6"/>
	</g>
	<g display="inline">
		<circle opacity="0.1" fill="#FFFFFF" enable-background="new    " cx="57.4" cy="36.4" r="1.7"/>
		<circle fill="#FFFFFF" cx="57.3" cy="36.3" r="0.5"/>
	</g>
</g>
<g display="none">
	<g display="inline">
		<g>
			<circle opacity="0.5" fill="#738083" enable-background="new    " cx="57.7" cy="56.8" r="55.9"/>
			<circle fill="#0B5068" stroke="#098CBA" stroke-width="3" stroke-miterlimit="10" cx="57.9" cy="54.7" r="52.8"/>
			<circle fill="#FFFFFF" stroke="#098CBA" stroke-width="2" stroke-miterlimit="10" cx="57.9" cy="54.7" r="34.1"/>
			<g>
				<path fill="#FEFFFF" d="M21.8,32.4l2.8,0.6L22,34.1l0.3,2.8l-1.9-2.1L17.7,36l1.4-2.5l-1.9-2.1L20,32l1.4-2.5L21.8,32.4z"/>
				<path fill="#FEFFFF" d="M25.2,26.2c-1.4-1.4-1.3-3.5,0.1-4.9c1-1,2.2-1.1,3.1-0.8L28,21.8c-0.6-0.2-1.3-0.1-1.8,0.4
					c-0.9,0.9-0.8,2.1,0.1,3c0.9,0.9,2.1,0.9,3,0.1c0.5-0.5,0.6-1.2,0.4-1.8l1.3-0.4c0.2,0.9,0.2,2.1-0.8,3.1
					C28.7,27.6,26.7,27.7,25.2,26.2z"/>
				<path fill="#FEFFFF" d="M30.9,20.8c-1.1-1.7-0.7-3.6,1-4.8c1.7-1.1,3.7-0.7,4.8,0.9c1.1,1.7,0.7,3.6-1,4.8
					C34,22.8,32,22.4,30.9,20.8z M35.4,17.7c-0.7-1-1.9-1.4-2.9-0.7c-1,0.7-1.2,1.9-0.5,2.9c0.7,1,1.9,1.4,2.9,0.7
					C36,20,36.1,18.7,35.4,17.7z"/>
				<path fill="#FEFFFF" d="M44,17.3l-4.6-2.8l1.7,4L39.8,19l-2.5-6.1l1.3-0.6L43,15l-1.6-3.8l1.3-0.5l2.5,6.1L44,17.3z"/>
				<path fill="#FEFFFF" d="M46.2,15.5l0.5-1.2c0.6,0.4,1.4,0.6,2.2,0.4c0.8-0.2,1-0.6,1-1c-0.2-1.1-3.8,0.5-4.3-1.9
					c-0.2-1.1,0.5-2.2,2-2.5c1-0.2,1.9-0.1,2.7,0.3l-0.5,1.2c-0.6-0.4-1.4-0.4-2-0.3c-0.6,0.1-0.9,0.5-0.8,0.8
					c0.2,1,3.8-0.5,4.3,1.9c0.3,1.2-0.4,2.3-2.1,2.6C48,16.2,47,15.9,46.2,15.5z"/>
				<path fill="#FEFFFF" d="M53,12.3l-0.2-4l1.4-0.1l0.2,3.9c0,0.9,0.6,1.5,1.6,1.5c1,0,1.5-0.7,1.5-1.6l-0.2-3.9l1.4-0.1l0.2,4
					c0.1,1.6-0.9,2.8-2.9,2.9C54.1,15.1,53.1,14,53,12.3z"/>
				<path fill="#FEFFFF" d="M60.8,14.9l0.8-6.6L63,8.5l-0.7,5.3l2.8,0.3L65,15.4L60.8,14.9z"/>
				<path fill="#FEFFFF" d="M67,15.8l1.3-5.2l-1.9-0.5L66.7,9l5.1,1.3l-0.3,1.2L69.7,11l-1.3,5.2L67,15.8z"/>
				<path fill="#FEFFFF" d="M71.5,17.2l2.4-6.2l1.3,0.5l-2.4,6.2L71.5,17.2z"/>
				<path fill="#FEFFFF" d="M78.5,20.5l-0.7-5.3L75.8,19l-1.2-0.7l3.2-5.8l1.3,0.7l0.7,5.1l2-3.6l1.2,0.7l-3.2,5.8L78.5,20.5z"/>
				<path fill="#FEFFFF" d="M83,19.4c1.3-1.6,3.4-1.6,4.9-0.4c1.1,0.9,1.3,2,1.2,2.9l-1.3-0.3c0.1-0.6-0.1-1.2-0.7-1.7
					c-0.9-0.8-2.2-0.6-3,0.3s-0.7,2.2,0.2,3c0.4,0.4,1,0.5,1.4,0.5l0.5-0.6l-1.3-1.1l0.8-0.9l2.4,2l-1.6,1.9c-1,0.1-2-0.1-2.9-0.8
					C82.1,23.1,81.7,21,83,19.4z"/>
				<path fill="#FEFFFF" d="M93.6,31.8l-1.7,2.3l0.1-2.9l-2.7-0.9l2.7-0.8l0.1-2.9l1.6,2.4l2.8-0.8l-1.7,2.3l1.6,2.4L93.6,31.8z"/>
			</g>
			<circle fill="#095069" cx="57.9" cy="54.7" r="30.7"/>
		</g>
		<g opacity="0.4" enable-background="new    ">
			<g>
				<g>
					<g>
						<defs>
							<circle id="SVGID_9_" cx="57.9" cy="54.4" r="30.7"/>
						</defs>
						<clipPath id="SVGID_10_">
							<use xlink:href="#SVGID_9_"  overflow="visible"/>
						</clipPath>
						<g clip-path="url(#SVGID_10_)">
							
								<ellipse transform="matrix(-0.8391 0.5439 -0.5439 -0.8391 169.0263 63.4238)" fill="#E9F7FE" cx="75.1" cy="56.7" rx="34.4" ry="30.7"/>
							
								<ellipse transform="matrix(-0.8391 0.5439 -0.5439 -0.8391 172.7991 66.6546)" fill="#CBE6F1" cx="76.5" cy="58.9" rx="34.4" ry="30.7"/>
							
								<ellipse transform="matrix(-0.8391 0.5439 -0.5439 -0.8391 178.5371 71.5672)" fill="#A0D2E7" cx="78.7" cy="62.2" rx="34.4" ry="30.7"/>
							
								<ellipse transform="matrix(-0.8391 0.5439 -0.5439 -0.8391 185.2136 77.2844)" fill="#098DBA" cx="81.2" cy="66" rx="34.4" ry="30.7"/>
						</g>
					</g>
				</g>
			</g>
		</g>
		<g>
			<g>
				<path fill="#FFFFFF" d="M38.7,52.7c-0.5,0-1,0.5-1,1v14.8c0,0.6,0.5,1,1,1h5.8c0.5,0,1.3,0.3,1.7,0.7l2.5,2.5
					c0.4,0.4,1,0.4,1.4,0l2.5-2.5c0.4-0.4,1.2-0.7,1.7-0.7H60c0.5,0,1-0.4,1-1V53.7c0-0.5-0.5-1-1-1H38.7z"/>
				<path fill="none" stroke="#098CBA" stroke-miterlimit="10" d="M38.7,52.7c-0.5,0-1,0.5-1,1v14.8c0,0.6,0.5,1,1,1h5.8
					c0.5,0,1.3,0.3,1.7,0.7l2.5,2.5c0.4,0.4,1,0.4,1.4,0l2.5-2.5c0.4-0.4,1.2-0.7,1.7-0.7H60c0.5,0,1-0.4,1-1V53.7c0-0.5-0.5-1-1-1
					H38.7z"/>
			</g>
			<g>
				<path fill="#098DBA" d="M48.5,61.4c0-1.2,1.6-1.4,1.6-2.1c0-0.3-0.3-0.6-0.8-0.6c-0.5,0-1,0.3-1.3,0.7l-0.9-1
					c0.6-0.7,1.4-1,2.3-1c1.4,0,2.2,0.7,2.2,1.7c0,1.5-1.8,1.7-1.8,2.5c0,0.2,0.1,0.3,0.2,0.4l-1.2,0.3
					C48.6,62.1,48.5,61.8,48.5,61.4z M48.5,63.8c0-0.5,0.4-0.9,0.9-0.9s0.9,0.4,0.9,0.9c0,0.5-0.4,0.9-0.9,0.9S48.5,64.3,48.5,63.8z
					"/>
			</g>
			<g>
				<path fill="#FFFFFF" d="M55.1,40.2c-0.5,0-1,0.5-1,1V56c0,0.5,0.5,1,1,1h5.8c0.5,0,1.3,0.3,1.7,0.7l2.5,2.5c0.4,0.4,1,0.4,1.4,0
					l2.5-2.5c0.4-0.4,1.2-0.7,1.7-0.7h5.8c0.6,0,1-0.5,1-1V41.2c0-0.5-0.4-1-1-1H55.1z"/>
				<path fill="none" stroke="#098CBA" stroke-miterlimit="10" d="M55.1,40.2c-0.5,0-1,0.5-1,1V56c0,0.5,0.5,1,1,1h5.8
					c0.5,0,1.3,0.3,1.7,0.7l2.5,2.5c0.4,0.4,1,0.4,1.4,0l2.5-2.5c0.4-0.4,1.2-0.7,1.7-0.7h5.8c0.6,0,1-0.5,1-1V41.2c0-0.5-0.4-1-1-1
					H55.1z"/>
			</g>
			<g>
				<path fill="#098DBA" d="M61.4,49.8c0-0.5,0.4-0.9,0.9-0.9s0.9,0.4,0.9,0.9s-0.4,0.9-0.9,0.9S61.4,50.2,61.4,49.8z"/>
				<path fill="#098DBA" d="M65,49.8c0-0.5,0.4-0.9,0.9-0.9c0.5,0,0.9,0.4,0.9,0.9s-0.4,0.9-0.9,0.9C65.3,50.6,65,50.2,65,49.8z"/>
				<path fill="#098DBA" d="M68.5,49.8c0-0.5,0.4-0.9,0.9-0.9c0.5,0,0.9,0.4,0.9,0.9s-0.4,0.9-0.9,0.9
					C68.9,50.6,68.5,50.2,68.5,49.8z"/>
			</g>
		</g>
		<path fill="#098DBA" d="M63.1,97c0.3-0.4,0.5-0.8,0.5-1.3c0-0.6-0.2-1.1-0.7-1.5c-0.5-0.4-1-0.6-1.7-0.6h-8.9
			c-0.3,0.1-0.5,0.3-0.5,0.6v1.5h9.4l-7.7,2.2c-0.5,0.1-0.9,0.4-1.2,0.8c-0.3,0.4-0.5,0.8-0.5,1.3c0,0.6,0.2,1.1,0.7,1.5
			c0.5,0.4,1,0.6,1.7,0.6H63c0.3,0,0.5-0.3,0.6-0.6V100h-9.4l7.7-2.2C62.4,97.6,62.8,97.4,63.1,97z"/>
	</g>
	<g display="inline">
		<circle opacity="0.1" fill="#FFFFFF" enable-background="new    " cx="41.5" cy="38.1" r="2.2"/>
		<circle fill="#FFFFFF" cx="41.4" cy="38" r="0.6"/>
	</g>
	<g display="inline">
		<circle opacity="0.1" fill="#FFFFFF" enable-background="new    " cx="37.5" cy="46.5" r="1.3"/>
		<circle fill="#FFFFFF" cx="37.4" cy="46.5" r="0.3"/>
	</g>
</g>
<g display="none">
	<g display="inline">
		<g>
			<circle opacity="0.5" fill="#738083" enable-background="new    " cx="57.7" cy="56.8" r="55.9"/>
			<circle fill="#0B5068" stroke="#098CBA" stroke-width="3" stroke-miterlimit="10" cx="57.9" cy="54.7" r="52.8"/>
			<circle fill="#FFFFFF" stroke="#098CBA" stroke-width="2" stroke-miterlimit="10" cx="57.9" cy="54.7" r="34.1"/>
			<g>
				<path fill="#FEFFFF" d="M15.4,54.8l2.7-1l-1.6,2.4l1.8,2.3l-2.8-0.8L13.9,60l-0.1-2.9L11,56.4l2.7-1l-0.1-2.9L15.4,54.8z"/>
				<path fill="#FEFFFF" d="M18.4,48.2l-6.4-1.5l0.7-3c0.3-1.4,1.4-1.9,2.6-1.7c1.1,0.3,1.9,1.2,1.6,2.6l-0.4,1.6l2.3,0.5L18.4,48.2
					z M14.9,43.4c-0.5-0.1-1,0.2-1.1,0.8l-0.3,1.4l1.7,0.4l0.3-1.4C15.7,44,15.4,43.5,14.9,43.4z"/>
				<path fill="#FEFFFF" d="M21.5,38.3l-2.7,0.3l-0.4,1l2.2,0.9L20,41.7l-6.1-2.5l1.2-2.9c0.5-1.3,1.7-1.7,2.8-1.2
					c1.1,0.4,1.4,1.4,1.2,2.1l2.9-0.4L21.5,38.3z M17.4,36.4c-0.5-0.2-1,0.1-1.2,0.6l-0.6,1.4l1.6,0.7l0.6-1.4
					C18,37.1,17.9,36.6,17.4,36.4z"/>
				<path fill="#FEFFFF" d="M19.8,33.9c-1.7-1.1-2.1-3.1-1-4.8c1.1-1.7,3.1-2.1,4.7-1c1.7,1.1,2.1,3.1,1,4.8
					C23.5,34.6,21.5,35,19.8,33.9z M22.8,29.4c-1-0.7-2.2-0.5-2.9,0.5c-0.7,1-0.3,2.2,0.7,2.9c1,0.7,2.2,0.5,2.9-0.5
					C24.2,31.2,23.8,30,22.8,29.4z"/>
				<path fill="#FEFFFF" d="M28.2,28l-3.9-3.7L23,25.7l-0.9-0.8l3.6-3.8l0.9,0.8l-1.3,1.4l3.9,3.7L28.2,28z"/>
				<path fill="#FEFFFF" d="M29.1,22.3c-1.2-1.6-0.9-3.6,0.7-4.8c1.6-1.2,3.6-0.9,4.8,0.6c1.2,1.6,0.9,3.6-0.7,4.8
					C32.3,24.2,30.3,23.9,29.1,22.3z M33.4,19c-0.7-1-1.9-1.3-2.9-0.5c-1,0.7-1,2-0.3,2.9c0.7,1,1.9,1.3,2.9,0.5
					C34.1,21.2,34.2,20,33.4,19z"/>
				<path fill="#FEFFFF" d="M39,19.5l-2.5-4.8l-1.7,0.9l-0.6-1.1l4.7-2.4l0.6,1.1l-1.7,0.9l2.5,4.8L39,19.5z"/>
				<path fill="#FEFFFF" d="M45,16.9l-0.8-2.6l-3.6-2.9l1.5-0.5l2.4,2l0.8-3l1.5-0.5l-1.2,4.5l0.8,2.6L45,16.9z"/>
				<path fill="#FEFFFF" d="M49.8,15.6L48.8,9l3.1-0.4c1.4-0.2,2.3,0.6,2.5,1.8c0.2,1.1-0.5,2.2-1.9,2.4L50.8,13l0.3,2.3L49.8,15.6z
					 M53,10.6c-0.1-0.5-0.5-0.8-1.1-0.7L50.4,10l0.2,1.8l1.5-0.2C52.7,11.5,53.1,11.1,53,10.6z"/>
				<path fill="#FEFFFF" d="M56.4,14.8l0.1-6.6l4.7,0.1l0,1.2l-3.3-0.1l0,1.4l3.2,0.1l0,1.2l-3.2-0.1l0,1.5l3.3,0.1l0,1.2L56.4,14.8
					z"/>
				<path fill="#FEFFFF" d="M70.1,16.7l0.7-2.7l-3-0.8l-0.7,2.7l-1.4-0.4l1.8-6.4l1.4,0.4L68.2,12l3,0.8l0.7-2.5l1.4,0.4l-1.8,6.4
					L70.1,16.7z"/>
				<path fill="#FEFFFF" d="M74.3,14.6c0.9-1.8,2.8-2.4,4.6-1.5c1.8,0.9,2.4,2.8,1.5,4.6c-0.9,1.8-2.8,2.4-4.6,1.5
					C74,18.3,73.4,16.4,74.3,14.6z M79.1,17c0.6-1.1,0.3-2.3-0.8-2.8c-1.1-0.6-2.2-0.1-2.8,1c-0.6,1.1-0.3,2.3,0.8,2.8
					C77.5,18.6,78.6,18.1,79.1,17z"/>
				<path fill="#FEFFFF" d="M80.3,20.5l1.3-0.4c0.1,0.7,0.4,1.4,1.1,2c0.6,0.5,1.1,0.4,1.4,0.1c0.7-0.9-2.8-2.6-1.3-4.6
					c0.7-0.9,2-1,3.2-0.1c0.8,0.6,1.3,1.4,1.5,2.3l-1.3,0.4c-0.1-0.7-0.6-1.3-1.1-1.7c-0.5-0.4-0.9-0.4-1.1,0
					c-0.6,0.8,2.8,2.6,1.3,4.5c-0.7,1-2,1.2-3.4,0.1C80.9,22.2,80.5,21.3,80.3,20.5z"/>
				<path fill="#FEFFFF" d="M86.1,26.5l3.8-3.8l-1.4-1.4l0.9-0.9l3.7,3.7l-0.9,0.9l-1.4-1.4l-3.8,3.8L86.1,26.5z"/>
				<path fill="#FEFFFF" d="M89.3,30.1l5.3-4l0.9,1.1l-5.3,4L89.3,30.1z"/>
				<path fill="#FEFFFF" d="M93.5,36.6l2.2-4.9L92,33.8l-0.7-1.2l5.8-3.2l0.7,1.3l-2.1,4.7l3.6-2l0.7,1.2l-5.8,3.2L93.5,36.6z"/>
				<path fill="#FEFFFF" d="M97.9,38c2-0.7,3.7,0.4,4.4,2.3c0.4,1.3,0,2.3-0.5,3l-1-0.9c0.3-0.4,0.5-1.1,0.3-1.8
					c-0.4-1.1-1.5-1.7-2.7-1.3c-1.2,0.4-1.8,1.5-1.4,2.7c0.2,0.6,0.6,1,0.9,1.2l0.8-0.3l-0.6-1.7l1.2-0.4l1,3l-2.4,0.8
					c-0.9-0.4-1.7-1.1-2.1-2.3C95.2,40.6,95.9,38.7,97.9,38z"/>
				<path fill="#FEFFFF" d="M100.3,54.1l-2.7,1l1.6-2.4l-1.8-2.2l2.8,0.7l1.6-2.4l0.1,2.9l2.8,0.7l-2.7,1l0.1,2.9L100.3,54.1z"/>
			</g>
			<circle fill="#095069" cx="57.9" cy="54.7" r="30.7"/>
		</g>
		<g opacity="0.4" enable-background="new    ">
			<g>
				<g>
					<g>
						<defs>
							<circle id="SVGID_11_" cx="57.9" cy="54.4" r="30.7"/>
						</defs>
						<clipPath id="SVGID_12_">
							<use xlink:href="#SVGID_11_"  overflow="visible"/>
						</clipPath>
						<g clip-path="url(#SVGID_12_)">
							
								<ellipse transform="matrix(-0.5568 0.8307 -0.8307 -0.5568 150.9738 -44.875)" fill="#E9F7FE" cx="87.5" cy="17.8" rx="43.4" ry="38.7"/>
							
								<ellipse transform="matrix(-0.5568 0.8307 -0.8307 -0.5568 156.7194 -44.2973)" fill="#CBE6F1" cx="90.2" cy="19.7" rx="43.4" ry="38.7"/>
							
								<ellipse transform="matrix(-0.5568 0.8307 -0.8307 -0.5568 165.4494 -43.4181)" fill="#A0D2E7" cx="94.3" cy="22.4" rx="43.4" ry="38.7"/>
							
								<ellipse transform="matrix(-0.5568 0.8307 -0.8307 -0.5568 175.6109 -42.3983)" fill="#098DBA" cx="99.1" cy="25.7" rx="43.4" ry="38.7"/>
						</g>
					</g>
				</g>
			</g>
		</g>
		<path fill="#098DBA" d="M63.1,97c0.3-0.4,0.5-0.8,0.5-1.3c0-0.6-0.2-1.1-0.7-1.5c-0.5-0.4-1-0.6-1.7-0.6h-8.9
			c-0.3,0.1-0.5,0.3-0.5,0.6v1.5h9.4l-7.7,2.2c-0.5,0.1-0.9,0.4-1.2,0.8c-0.3,0.4-0.5,0.8-0.5,1.3c0,0.6,0.2,1.1,0.7,1.5
			c0.5,0.4,1,0.6,1.7,0.6H63c0.3,0,0.5-0.3,0.6-0.6V100h-9.4l7.7-2.2C62.4,97.6,62.8,97.4,63.1,97z"/>
	</g>
	<g display="inline">
		<circle opacity="0.1" fill="#FFFFFF" enable-background="new    " cx="34.2" cy="50" r="3.2"/>
		<circle fill="#FFFFFF" cx="34.2" cy="50" r="0.6"/>
	</g>
	<g display="inline">
		<circle opacity="0.1" fill="#FFFFFF" enable-background="new    " cx="40.8" cy="43.6" r="2.2"/>
		<circle fill="#FFFFFF" cx="40.8" cy="43.5" r="0.6"/>
	</g>
	<g display="inline">
		<circle opacity="0.1" fill="#FFFFFF" enable-background="new    " cx="62.7" cy="72" r="2.2"/>
		<circle fill="#FFFFFF" cx="62.6" cy="71.9" r="0.6"/>
	</g>
	<g display="inline">
		<circle opacity="0.1" fill="#FFFFFF" enable-background="new    " cx="58.5" cy="78.7" r="1.7"/>
		<circle fill="#FFFFFF" cx="58.4" cy="78.6" r="0.5"/>
	</g>
	<g display="inline">
		<g>
			<g>
				<g>
					<g>
						<g>
							<defs>
								<rect id="SVGID_13_" x="34.1" y="37.1" width="48.2" height="27.3"/>
							</defs>
							<clipPath id="SVGID_14_">
								<use xlink:href="#SVGID_13_"  overflow="visible"/>
							</clipPath>
							<g clip-path="url(#SVGID_14_)">
								
									<ellipse fill="#FFFFFF" stroke="#098CBA" stroke-width="1.5" stroke-miterlimit="10" cx="44.1" cy="61.7" rx="6.3" ry="6.8"/>
								
									<ellipse fill="#FFFFFF" stroke="#098CBA" stroke-width="1.5" stroke-miterlimit="10" cx="60.5" cy="55.3" rx="14.7" ry="16.1"/>
								<ellipse fill="#FFFFFF" stroke="#098CBA" stroke-width="1.5" stroke-miterlimit="10" cx="75.2" cy="62.5" rx="4" ry="4.4"/>
								
									<ellipse fill="#FFFFFF" stroke="#098CBA" stroke-width="1.5" stroke-miterlimit="10" cx="45.8" cy="55.5" rx="3.9" ry="4.3"/>
							</g>
						</g>
					</g>
				</g>
			</g>
			<line fill="none" stroke="#098CBA" stroke-width="2" stroke-miterlimit="10" x1="37.1" y1="65.3" x2="80.2" y2="65.3"/>
		</g>
		<g>
			<g>
				<g>
					<g>
						<defs>
							<rect id="SVGID_15_" x="34.8" y="38.7" width="46.7" height="26.5"/>
						</defs>
						<clipPath id="SVGID_16_">
							<use xlink:href="#SVGID_15_"  overflow="visible"/>
						</clipPath>
						<g clip-path="url(#SVGID_16_)">
							<ellipse fill="#FFFFFF" cx="44.5" cy="62.5" rx="6.1" ry="6.6"/>
							<ellipse fill="#FFFFFF" cx="60.4" cy="56.3" rx="14.3" ry="15.6"/>
							<ellipse fill="#FFFFFF" cx="74.6" cy="63.3" rx="3.9" ry="4.2"/>
							<ellipse fill="#FFFFFF" cx="46.1" cy="56.5" rx="3.8" ry="4.2"/>
						</g>
					</g>
				</g>
			</g>
		</g>
		<g>
			<rect x="52.6" y="58.8" fill="#A0D2E7" width="4.3" height="4"/>
			<rect x="58.2" y="58.8" fill="#A0D2E7" width="4.3" height="4"/>
			<rect x="63.8" y="58.8" fill="#A0D2E7" width="4.3" height="4"/>
			<rect x="52.6" y="50.7" fill="#A0D2E7" width="15.5" height="6.8"/>
			<rect x="52.6" y="47.5" fill="#A0D2E7" width="4.3" height="2"/>
			<rect x="58.2" y="47.5" fill="#A0D2E7" width="9.9" height="2"/>
		</g>
	</g>
	<g display="inline">
		<circle opacity="0.1" fill="#FFFFFF" enable-background="new    " cx="51.9" cy="76.5" r="1.7"/>
		<circle fill="#FFFFFF" cx="51.9" cy="76.4" r="0.5"/>
	</g>
</g>
<g>
	<g>
		<g>
			<circle opacity="0.5" fill="#737F82" enable-background="new    " cx="126" cy="125.2" r="124.6"/>
			<circle fill="#0A4F68" stroke="#048BB9" stroke-width="3" stroke-miterlimit="10" cx="126.5" cy="120.7" r="117.8"/>
			<circle fill="#FFFFFF" stroke="#048BB9" stroke-width="2" stroke-miterlimit="10" cx="126.5" cy="120.7" r="76.1"/>
			<g>
				<path fill="#FFFFFF" d="M31.9,120.8l6-2.2l-3.6,5.3l3.9,5l-6.1-1.8l-3.6,5.3l-0.2-6.4l-6.2-1.8l6-2.2l-0.2-6.4L31.9,120.8z"/>
				<path fill="#FFFFFF" d="M221.1,127l-6.1,1.8l3.9-5.1l-3.6-5.3l6,2.2l3.9-5l-0.2,6.4l6,2.2l-6.2,1.8l-0.2,6.4L221.1,127z"/>
			</g>
			<circle fill="#074F68" cx="126.5" cy="120.7" r="68.4"/>
		</g>
		<g opacity="0.4" enable-background="new    ">
			<g>
				<defs>
					<circle id="SVGID_17_" cx="126.5" cy="120.7" r="68.4"/>
				</defs>
				<clipPath id="SVGID_18_">
					<use xlink:href="#SVGID_17_"  overflow="visible"/>
				</clipPath>
				<g clip-path="url(#SVGID_18_)">
					
						<ellipse transform="matrix(0.5568 -0.8307 0.8307 0.5568 -232.2435 128.2603)" fill="#E8F6FD" cx="4.1" cy="281.8" rx="158.7" ry="141.6"/>
					
						<ellipse transform="matrix(0.5568 -0.8307 0.8307 0.5568 -233.3707 139.457)" fill="#CAE5F0" cx="14" cy="288.4" rx="158.7" ry="141.6"/>
					
						<ellipse transform="matrix(0.5568 -0.8307 0.8307 0.5568 -235.0859 156.4833)" fill="#9FD1E6" cx="29.1" cy="298.5" rx="158.7" ry="141.6"/>
					
						<ellipse transform="matrix(0.5568 -0.8307 0.8307 0.5568 -237.0811 176.2963)" fill="#048CB9" cx="46.7" cy="310.3" rx="158.7" ry="141.6"/>
				</g>
			</g>
		</g>
		<path fill="#048CB9" d="M138.1,215c0.7-0.8,1.1-1.8,1.1-2.9c0-1.3-0.5-2.4-1.5-3.3c-1-0.9-2.3-1.4-3.7-1.4h-19.8
			c-0.7,0.1-1.2,0.7-1.2,1.4v3.3h20.9l-17.2,4.9c-1.1,0.3-1.9,0.9-2.6,1.7c-0.7,0.8-1,1.8-1,2.8c0,1.3,0.5,2.5,1.5,3.4
			c1,0.9,2.3,1.4,3.7,1.4h19.7c0.7-0.1,1.2-0.6,1.3-1.3v-3.5h-21l17.2-4.9C136.5,216.4,137.4,215.8,138.1,215z"/>
	</g>
	<g>
		<circle fill="#FFFFFF" stroke="#048BB9" stroke-miterlimit="10" cx="127.6" cy="125.3" r="29.2"/>
		<ellipse fill="#048CB9" cx="136.1" cy="142.4" rx="6.1" ry="3.3"/>
		<g>
			<g>
				<defs>
					<rect id="SVGID_19_" x="80.1" y="110.3" width="15.3" height="44.2"/>
				</defs>
				<clipPath id="SVGID_20_">
					<use xlink:href="#SVGID_19_"  overflow="visible"/>
				</clipPath>
				<circle clip-path="url(#SVGID_20_)" fill="#048CB9" cx="95.3" cy="125.6" r="10.4"/>
			</g>
		</g>
		<g>
			<g>
				<defs>
					<rect id="SVGID_21_" x="160.8" y="95.6" width="15.3" height="44.2"/>
				</defs>
				<clipPath id="SVGID_22_">
					<use xlink:href="#SVGID_21_"  overflow="visible"/>
				</clipPath>
				<circle clip-path="url(#SVGID_22_)" fill="#048CB9" cx="160.8" cy="124.5" r="10.4"/>
			</g>
		</g>
		<path fill="none" stroke="#048BB9" stroke-miterlimit="10" d="M136.1,142.1c0,0,16.7,2.3,20.7,0c4-2.3,8.5-12.9,8.5-12.9"/>
		<g>
			<g>
				<defs>
					<rect id="SVGID_23_" x="77" y="85.2" width="99.1" height="46"/>
				</defs>
				<clipPath id="SVGID_24_">
					<use xlink:href="#SVGID_23_"  overflow="visible"/>
				</clipPath>
				<path clip-path="url(#SVGID_24_)" fill="none" stroke="#048BB9" stroke-miterlimit="10" d="M164.2,132.6
					c0,16.2-13.1,29.2-29.2,29.2h-12.8c-16.2,0-29.2-13.1-29.2-29.2v-12.8c0-16.2,13.1-29.2,29.2-29.2h12.8
					c16.2,0,29.2,13.1,29.2,29.2V132.6z"/>
			</g>
		</g>
		<g>
			<path fill="#048CB9" d="M113.9,124.6c0-1,0.9-1.9,1.9-1.9s1.9,0.9,1.9,1.9s-0.9,1.9-1.9,1.9S113.9,125.6,113.9,124.6z"/>
			<path fill="#048CB9" d="M137.4,124.6c0-1,0.9-1.9,1.9-1.9s1.9,0.9,1.9,1.9s-0.9,1.9-1.9,1.9C138.3,126.5,137.4,125.6,137.4,124.6
				z"/>
		</g>
	</g>
	<g>
		<circle opacity="0.1" fill="#FFFFFF" enable-background="new    " cx="107.8" cy="74.4" r="7.1"/>
		<circle fill="#FFFFFF" cx="107.8" cy="74.4" r="1.3"/>
	</g>
	<g>
		<circle opacity="0.1" fill="#FFFFFF" enable-background="new    " cx="88.4" cy="96.5" r="4.8"/>
		<circle fill="#FFFFFF" cx="88.3" cy="96.3" r="1.3"/>
	</g>
	<g>
		<circle opacity="0.1" fill="#FFFFFF" enable-background="new    " cx="156.7" cy="164.7" r="4.8"/>
		<circle fill="#FFFFFF" cx="156.5" cy="164.6" r="1.3"/>
	</g>
	<g>
		<circle opacity="0.1" fill="#FFFFFF" enable-background="new    " cx="125.4" cy="79.8" r="3.8"/>
		<circle fill="#FFFFFF" cx="125.3" cy="79.7" r="1.1"/>
	</g>
	<g>
		<path fill="#FFFFFF" d="M44.1,98l-12.4-4.1l2.9-8.7l2.3,0.8l-2,6.1l2.6,0.9l2-6l2.3,0.8l-2,6l5.1,1.7L44.1,98z"/>
		<path fill="#FFFFFF" d="M41.8,84.6c-3.5-1.8-4.7-5.6-2.9-9.1c1.8-3.5,5.6-4.8,9.1-3c3.5,1.8,4.7,5.6,2.9,9.1
			C49,85.1,45.2,86.4,41.8,84.6z M46.7,75c-2.2-1.1-4.5-0.6-5.6,1.6c-1.1,2.2-0.2,4.4,2,5.5c2.2,1.1,4.5,0.6,5.6-1.6
			C49.8,78.3,48.8,76.1,46.7,75z"/>
		<path fill="#FFFFFF" d="M50.9,70.3l-6.2-4.7l1.7-2.2l6.1,4.7c1.4,1.1,3.1,1,4.3-0.6c1.2-1.6,0.8-3.2-0.6-4.3l-6.1-4.7l1.7-2.3
			L58,61c2.6,1.9,3.2,4.8,0.8,8C56.4,72.1,53.5,72.3,50.9,70.3z"/>
		<path fill="#FFFFFF" d="M70.8,55.8l-10.3-2l5.8,6.2l-2,1.9l-8.8-9.5l2.1-1.9l10,1.9l-5.6-6l2-1.9l8.8,9.5L70.8,55.8z"/>
		<path fill="#FFFFFF" d="M75.1,52.1L68,41.2l4.3-2.8c3.4-2.2,7.2-1.6,9.3,1.7c2.2,3.3,1.2,7-2.2,9.2L75.1,52.1z M79.3,41.6
			c-1.2-1.9-3.4-2.6-5.6-1.2l-2,1.3l4.4,6.8l2-1.3C80.3,45.9,80.5,43.5,79.3,41.6z"/>
		<path fill="#FFFFFF" d="M95,41.1l-1.6-1.7l-5.1,2.3l0.2,2.3l-2.9,1.3l-0.7-13.9L88,30l9.9,9.8L95,41.1z M87.6,33.2l0.4,5.9
			l3.7-1.7L87.6,33.2z"/>
		<path fill="#FFFFFF" d="M101.3,38.9l-3-10.1l-3.6,1.1L94,27.5l9.9-2.9l0.7,2.3L101,28l3,10.1L101.3,38.9z"/>
		<path fill="#FFFFFF" d="M110.1,36.7l-2.4-12.8l2.7-0.5l2.4,12.8L110.1,36.7z"/>
		<path fill="#FFFFFF" d="M114.9,29.1c-0.2-3.9,2.5-6.9,6.4-7.1c3.9-0.2,6.9,2.4,7.2,6.3c0.2,3.9-2.5,6.9-6.4,7.1
			C118.1,35.6,115.1,33,114.9,29.1z M125.6,28.5c-0.1-2.4-1.8-4.2-4.2-4c-2.4,0.1-3.8,2.1-3.7,4.5c0.1,2.4,1.8,4.2,4.2,4
			C124.3,32.8,125.7,30.9,125.6,28.5z"/>
		<path fill="#FFFFFF" d="M140.1,36l-5.1-9.2l-1,8.4l-2.7-0.3l1.6-12.9l2.8,0.3l5,8.8l1-8.1l2.7,0.3l-1.6,12.9L140.1,36z"/>
		<path fill="#FFFFFF" d="M151.1,36.5l2.2-1.5c0.5,1.2,1.6,2.5,3.3,3.1c1.5,0.5,2.4,0.1,2.6-0.6c0.8-2.1-6.8-3.2-5.2-7.8
			c0.7-2,3.1-3.1,6-2.1c1.9,0.7,3.3,1.9,4.2,3.4l-2.1,1.4c-0.7-1.3-1.8-2.2-3.1-2.6c-1.1-0.4-1.9-0.1-2.2,0.6
			c-0.7,1.9,6.8,3.1,5.2,7.7c-0.8,2.2-3,3.3-6.3,2.2C153.2,39.4,151.8,38,151.1,36.5z"/>
		<path fill="#FFFFFF" d="M165.3,38.2l3.7-6.8l2.5,1.3l-3.7,6.8c-0.9,1.6-0.5,3.2,1.2,4.2s3.3,0.4,4.1-1.2l3.7-6.8l2.5,1.4l-3.7,6.8
			c-1.5,2.8-4.3,3.9-7.8,2C164.3,43.9,163.7,41,165.3,38.2z"/>
		<path fill="#FFFFFF" d="M175.6,50.1l8-10.3l4.8,3.7c2.2,1.7,2.3,4.2,0.9,6c-1.4,1.8-3.8,2.3-6,0.6l-2.6-2l-2.8,3.7L175.6,50.1z
			 M187,47.8c0.7-0.9,0.4-1.9-0.4-2.6l-2.3-1.8l-2.1,2.8l2.3,1.8C185.3,48.7,186.3,48.7,187,47.8z"/>
		<path fill="#FFFFFF" d="M185.5,58.1l9.4-9l4.2,4.4c2,2,1.6,4.5,0,6.1c-1.6,1.6-4.1,1.8-6-0.3l-2.3-2.4l-3.4,3.2L185.5,58.1z
			 M197.1,57.5c0.8-0.8,0.7-1.8-0.1-2.6l-2-2.1l-2.5,2.4l2,2.1C195.3,58.1,196.3,58.2,197.1,57.5z"/>
		<path fill="#FFFFFF" d="M199.1,63.2c3.2-2.2,7.2-1.4,9.4,1.8c2.2,3.2,1.5,7.2-1.7,9.4c-3.2,2.2-7.2,1.4-9.4-1.8
			C195.2,69.3,195.9,65.4,199.1,63.2z M205.2,72c2-1.4,2.7-3.7,1.3-5.7c-1.4-2-3.7-2.2-5.8-0.9c-2,1.4-2.7,3.7-1.3,5.7
			C200.8,73.2,203.2,73.4,205.2,72z"/>
		<path fill="#FFFFFF" d="M205.5,86.9l3.1-4.3l-0.9-1.8l-4.2,1.9l-1.2-2.5l11.8-5.5l2.6,5.5c1.1,2.5,0.2,4.7-2,5.7
			c-2.1,1-3.8,0.2-4.7-1l-3.3,4.7L205.5,86.9z M213.7,83.4c1-0.5,1.2-1.5,0.8-2.5l-1.2-2.7l-3.2,1.5l1.2,2.7
			C211.7,83.4,212.7,83.9,213.7,83.4z"/>
		<path fill="#FFFFFF" d="M208.5,94.9l10.1-3l-1.1-3.6l2.3-0.7l3,9.9l-2.3,0.7l-1.1-3.6l-10.1,3L208.5,94.9z"/>
	</g>
</g>
<g display="none">
	<g display="inline">
		<g>
			<circle opacity="0.5" fill="#737F82" enable-background="new    " cx="126" cy="125.2" r="124.6"/>
			<circle fill="#0A4F68" stroke="#048BB9" stroke-width="3" stroke-miterlimit="10" cx="126.5" cy="120.7" r="117.8"/>
			<circle fill="#FFFFFF" stroke="#048BB9" stroke-width="2" stroke-miterlimit="10" cx="126.5" cy="120.7" r="76.1"/>
			<circle fill="#074F68" cx="126.5" cy="120.7" r="68.4"/>
		</g>
		<g opacity="0.4" enable-background="new    ">
			<g>
				<defs>
					<circle id="SVGID_25_" cx="126.5" cy="119.9" r="68.4"/>
				</defs>
				<clipPath id="SVGID_26_">
					<use xlink:href="#SVGID_25_"  overflow="visible"/>
				</clipPath>
				<g clip-path="url(#SVGID_26_)">
					
						<ellipse transform="matrix(0.8391 -0.5439 0.5439 0.8391 -41.4896 109.8328)" fill="#E8F6FD" cx="164.9" cy="125.1" rx="76.7" ry="68.4"/>
					
						<ellipse transform="matrix(0.8391 -0.5439 0.5439 0.8391 -43.6207 112.3222)" fill="#CAE5F0" cx="168.1" cy="129.9" rx="76.7" ry="68.4"/>
					
						<ellipse transform="matrix(0.8391 -0.5439 0.5439 0.8391 -46.8614 116.1067)" fill="#9FD1E6" cx="172.9" cy="137.3" rx="76.7" ry="68.4"/>
					
						<ellipse transform="matrix(0.8391 -0.5439 0.5439 0.8391 -50.6319 120.5109)" fill="#048CB9" cx="178.4" cy="145.9" rx="76.7" ry="68.4"/>
				</g>
			</g>
		</g>
		<g>
			<g>
				<path fill="#FFFFFF" d="M82.4,116.1c-0.6,0-1,0.4-1,1v35.5c0,0.6,0.4,1,1,1h15.3c0.6,0,1.3,0.3,1.7,0.7l7.3,7.3
					c0.4,0.4,1,0.4,1.4,0l7.3-7.3c0.4-0.4,1.2-0.7,1.7-0.7h15.4c0.6,0,1-0.4,1-1v-35.5c0-0.6-0.4-1-1-1H82.4z"/>
				<path fill="none" stroke="#048BB9" stroke-miterlimit="10" d="M82.4,116.1c-0.6,0-1,0.4-1,1v35.5c0,0.6,0.4,1,1,1h15.3
					c0.6,0,1.3,0.3,1.7,0.7l7.3,7.3c0.4,0.4,1,0.4,1.4,0l7.3-7.3c0.4-0.4,1.2-0.7,1.7-0.7h15.4c0.6,0,1-0.4,1-1v-35.5
					c0-0.6-0.4-1-1-1H82.4z"/>
			</g>
			<g>
				<path fill="#048CB9" d="M105.5,135.6c0-2.8,3.5-3.1,3.5-4.7c0-0.7-0.6-1.3-1.9-1.3c-1.2,0-2.2,0.6-2.9,1.5l-1.9-2.1
					c1.2-1.5,3.1-2.3,5.2-2.3c3,0,4.9,1.5,4.9,3.7c0,3.4-3.9,3.7-3.9,5.7c0,0.4,0.2,0.8,0.4,1l-2.6,0.8
					C105.8,137.2,105.5,136.5,105.5,135.6z M105.5,140.9c0-1,0.9-1.9,1.9-1.9c1,0,1.9,0.9,1.9,1.9c0,1-0.9,1.9-1.9,1.9
					C106.4,142.8,105.5,141.9,105.5,140.9z"/>
			</g>
			<g>
				<path fill="#FFFFFF" d="M119.1,88.2c-0.6,0-1,0.4-1,1v35.5c0,0.6,0.4,1,1,1h15.3c0.6,0,1.3,0.3,1.7,0.7l7.3,7.3
					c0.4,0.4,1,0.4,1.4,0l7.3-7.3c0.4-0.4,1.2-0.7,1.7-0.7h15.4c0.6,0,1-0.4,1-1V89.2c0-0.6-0.4-1-1-1H119.1z"/>
				<path fill="none" stroke="#048BB9" stroke-miterlimit="10" d="M119.1,88.2c-0.6,0-1,0.4-1,1v35.5c0,0.6,0.4,1,1,1h15.3
					c0.6,0,1.3,0.3,1.7,0.7l7.3,7.3c0.4,0.4,1,0.4,1.4,0l7.3-7.3c0.4-0.4,1.2-0.7,1.7-0.7h15.4c0.6,0,1-0.4,1-1V89.2
					c0-0.6-0.4-1-1-1H119.1z"/>
			</g>
			<g>
				<path fill="#048CB9" d="M134.4,109.6c0-1,0.9-1.9,1.9-1.9s1.9,0.9,1.9,1.9s-0.9,1.9-1.9,1.9S134.4,110.6,134.4,109.6z"/>
				<path fill="#048CB9" d="M142.2,109.6c0-1,0.9-1.9,1.9-1.9s1.9,0.9,1.9,1.9s-0.9,1.9-1.9,1.9S142.2,110.6,142.2,109.6z"/>
				<path fill="#048CB9" d="M150.1,109.6c0-1,0.9-1.9,1.9-1.9s1.9,0.9,1.9,1.9s-0.9,1.9-1.9,1.9
					C150.9,111.5,150.1,110.6,150.1,109.6z"/>
			</g>
		</g>
		<path fill="#048CB9" d="M138.1,215c0.7-0.8,1.1-1.8,1.1-2.9c0-1.3-0.5-2.4-1.5-3.3c-1-0.9-2.3-1.4-3.7-1.4h-19.8
			c-0.7,0.1-1.2,0.7-1.2,1.4v3.3h20.9l-17.2,4.9c-1.1,0.3-1.9,0.9-2.6,1.7c-0.7,0.8-1,1.8-1,2.8c0,1.3,0.5,2.5,1.5,3.4
			c1,0.9,2.3,1.4,3.7,1.4h19.7c0.7-0.1,1.2-0.6,1.3-1.3v-3.5h-21l17.2-4.9C136.5,216.4,137.4,215.8,138.1,215z"/>
	</g>
	<g display="inline">
		<circle opacity="0.1" fill="#FFFFFF" enable-background="new    " cx="89.9" cy="83.7" r="4.8"/>
		<circle fill="#FFFFFF" cx="89.7" cy="83.5" r="1.3"/>
	</g>
	<g display="inline">
		<circle opacity="0.1" fill="#FFFFFF" enable-background="new    " cx="80.9" cy="102.5" r="2.8"/>
		<circle fill="#FFFFFF" cx="80.8" cy="102.4" r="0.8"/>
	</g>
	<g display="inline">
		<path fill="#FFFFFF" d="M42.7,103.5l-12.6-3.4l2.4-8.9l2.4,0.6L33.2,98l2.6,0.7l1.7-6.1l2.4,0.6l-1.6,6.1l2.9,0.8l1.7-6.2l2.4,0.6
			L42.7,103.5z"/>
		<path fill="#FFFFFF" d="M49.6,83.9l-10.3,2.2l7.7,3.4L45.9,92l-11.9-5.3l1.2-2.6l9.9-2.2l-7.5-3.3l1.1-2.5l11.9,5.3L49.6,83.9z"/>
		<path fill="#FFFFFF" d="M46.4,75.7c-3.4-2.3-3.9-6.3-1.7-9.5c1.5-2.2,3.6-2.9,5.4-2.8l-0.2,2.6c-1.1,0-2.4,0.5-3.1,1.6
			c-1.3,2-0.8,4.4,1.3,5.8c2,1.4,4.5,0.9,5.8-1c0.6-1,0.8-2.1,0.7-2.8l-1.3-0.9l-1.9,2.9l-2-1.3l3.4-5.2l4.2,2.8
			c0.5,1.9,0.3,4-1,5.9C53.7,76.8,49.8,78,46.4,75.7z"/>
		<path fill="#FFFFFF" d="M60.6,66.9l-9.9-8.5l1.8-2.1l9.9,8.5L60.6,66.9z"/>
		<path fill="#FFFFFF" d="M71.1,56.2l-10.3-2.1l5.7,6.3l-2,1.9l-8.8-9.6l2.1-1.9l10,2l-5.5-6l2-1.9l8.8,9.6L71.1,56.2z"/>
		<path fill="#FFFFFF" d="M75.5,52.6l-7.2-10.8l7.7-5.1l1.3,2L72,42.3l1.5,2.3l5.3-3.5l1.3,2l-5.3,3.5l1.6,2.5l5.4-3.6l1.3,2
			L75.5,52.6z"/>
		<path fill="#FFFFFF" d="M85.6,46.2L80,34.5l8.3-4l1.1,2.2l-5.8,2.8l1.2,2.5l5.7-2.7l1.1,2.2l-5.7,2.7l1.3,2.7l5.8-2.8l1.1,2.2
			L85.6,46.2z"/>
		<path fill="#FFFFFF" d="M103.4,39.1l-3.8-3.7L97.6,36l1.4,4.4l-2.6,0.8l-3.9-12.4l5.8-1.8c2.6-0.8,4.7,0.4,5.4,2.7
			c0.7,2.2-0.3,3.8-1.6,4.5l4.3,3.9L103.4,39.1z M101,30.6c-0.3-1-1.3-1.4-2.4-1.1l-2.8,0.9l1,3.4l2.8-0.9
			C100.7,32.5,101.3,31.6,101,30.6z"/>
		<path fill="#FFFFFF" d="M109,37.7L106.5,25l2.7-0.5l2.5,12.8L109,37.7z"/>
		<path fill="#FFFFFF" d="M123.8,35.9l-6.8-8l0.6,8.5l-2.8,0.2l-0.9-13l2.8-0.2l6.6,7.7l-0.6-8.1l2.8-0.2l0.9,13L123.8,35.9z"/>
		<path fill="#FFFFFF" d="M129.5,29.2c0.4-4.1,3.8-6.4,7.6-6c2.7,0.3,4.2,1.8,5,3.4l-2.4,1c-0.5-1-1.5-1.9-2.9-2
			c-2.4-0.2-4.3,1.4-4.5,3.8c-0.2,2.4,1.3,4.4,3.6,4.7c1.1,0.1,2.3-0.3,2.8-0.7l0.2-1.6l-3.4-0.3l0.2-2.4l6.2,0.6l-0.5,5
			c-1.5,1.3-3.4,2.1-5.7,1.9C131.9,36.3,129.1,33.3,129.5,29.2z"/>
		<path fill="#FFFFFF" d="M149.2,36.9l2.1-1.6c0.6,1.2,1.7,2.4,3.4,3c1.5,0.5,2.4,0.1,2.6-0.6c0.7-2.1-6.9-3-5.3-7.7
			c0.7-2.1,3-3.2,5.9-2.2c2,0.7,3.4,1.8,4.2,3.3l-2.1,1.5c-0.7-1.3-1.9-2.1-3.1-2.6c-1.1-0.4-1.9-0.1-2.1,0.6
			c-0.7,1.9,6.9,3,5.3,7.6c-0.8,2.3-3,3.4-6.3,2.3C151.4,39.8,150,38.5,149.2,36.9z"/>
		<path fill="#FFFFFF" d="M163.5,44.3l4.7-9.5l-3.4-1.7l1.1-2.2l9.3,4.6l-1.1,2.2l-3.4-1.7l-4.7,9.5L163.5,44.3z"/>
		<path fill="#FFFFFF" d="M174.4,44.1l4.5-6.4l2.3,1.6l-4.5,6.3c-1,1.5-0.9,3.1,0.7,4.3c1.6,1.2,3.2,0.7,4.2-0.7l4.5-6.3l2.3,1.6
			l-4.5,6.4c-1.9,2.6-4.7,3.3-7.9,1C172.8,49.6,172.5,46.7,174.4,44.1z"/>
		<path fill="#FFFFFF" d="M183.2,57.1l9.2-9.2l3.6,3.6c2.9,2.9,3,6.7,0.3,9.5c-2.8,2.8-6.6,2.6-9.5-0.3L183.2,57.1z M194.3,59
			c1.6-1.6,1.9-3.9,0-5.7l-1.7-1.7l-5.8,5.7l1.7,1.7C190.4,60.8,192.8,60.6,194.3,59z"/>
		<path fill="#FFFFFF" d="M193.2,67.7l10.2-8l1.7,2.2l-10.2,8L193.2,67.7z"/>
		<path fill="#FFFFFF" d="M202.2,68.5c3.4-2,7.2-1,9.3,2.4c2,3.4,1.1,7.3-2.3,9.3c-3.4,2-7.2,1-9.3-2.4
			C197.9,74.4,198.8,70.5,202.2,68.5z M207.7,77.7c2.1-1.2,2.9-3.5,1.6-5.6c-1.2-2.1-3.6-2.5-5.7-1.2c-2.1,1.2-2.9,3.5-1.6,5.6
			C203.2,78.6,205.6,79,207.7,77.7z"/>
		<path fill="#FFFFFF" d="M205.9,84.2l2.6,0.6c-0.6,1.2-0.8,2.8-0.1,4.5c0.6,1.4,1.5,1.9,2.2,1.6c2.1-0.8-2.1-7.2,2.4-9
			c2-0.8,4.4,0.3,5.5,3.1c0.8,1.9,0.8,3.7,0.2,5.4l-2.5-0.7c0.5-1.3,0.4-2.8-0.1-4c-0.4-1.1-1.1-1.5-1.9-1.2c-1.9,0.8,2.1,7.2-2.4,9
			c-2.2,0.9-4.5-0.1-5.8-3.3C205.1,87.8,205.2,85.8,205.9,84.2z"/>
	</g>
	<g display="inline">
		<path fill="#FFFFFF" d="M30.8,125.3l5.9-2.4l-3.4,5.5l4.1,4.9l-6.2-1.5l-3.4,5.4l-0.5-6.4l-6.2-1.5l5.9-2.4l-0.5-6.4L30.8,125.3z"
			/>
		<path fill="#FFFFFF" d="M220.1,123.8l-6.1,2l3.7-5.2l-3.8-5.1l6.1,1.9l3.7-5.2l0.1,6.4l6.1,1.9l-6.1,2l0.1,6.4L220.1,123.8z"/>
	</g>
</g>
<g display="none">
	<g display="inline">
		<g>
			<circle opacity="0.5" fill="#737F82" enable-background="new    " cx="126" cy="125.2" r="124.6"/>
			<circle fill="#0A4F68" stroke="#048BB9" stroke-width="3" stroke-miterlimit="10" cx="126.5" cy="120.7" r="117.8"/>
			<circle fill="#FFFFFF" stroke="#048BB9" stroke-width="2" stroke-miterlimit="10" cx="126.5" cy="120.7" r="76.1"/>
			<g>
				<path fill="#FFFFFF" d="M31.9,126.3l5.9-2.5l-3.3,5.5l4.2,4.8l-6.2-1.4l-3.3,5.5l-0.6-6.4l-6.3-1.4l5.9-2.5l-0.6-6.4L31.9,126.3
					z"/>
				<path fill="#FFFFFF" d="M221.1,124.7l-6.1,1.9l3.8-5.2l-3.7-5.2l6.1,2l3.8-5.1l0,6.4l6.1,2l-6.1,1.9l0,6.4L221.1,124.7z"/>
			</g>
			<circle fill="#074F68" cx="126.5" cy="120.7" r="68.4"/>
		</g>
		<g opacity="0.4" enable-background="new    ">
			<g>
				<defs>
					<circle id="SVGID_27_" cx="126.5" cy="119.9" r="68.4"/>
				</defs>
				<clipPath id="SVGID_28_">
					<use xlink:href="#SVGID_27_"  overflow="visible"/>
				</clipPath>
				<g clip-path="url(#SVGID_28_)">
					
						<ellipse transform="matrix(0.94 0.3413 -0.3413 0.94 72.2569 -70.8435)" fill="#E8F6FD" cx="237.5" cy="169.9" rx="96.9" ry="86.4"/>
					
						<ellipse transform="matrix(0.94 0.3413 -0.3413 0.94 74.4473 -69.582)" fill="#CAE5F0" cx="235" cy="176.8" rx="96.9" ry="86.4"/>
					
						<ellipse transform="matrix(0.94 0.3413 -0.3413 0.94 77.7782 -67.6644)" fill="#9FD1E6" cx="231.2" cy="187.2" rx="96.9" ry="86.4"/>
					
						<ellipse transform="matrix(0.94 0.3413 -0.3413 0.94 81.6542 -65.4323)" fill="#048CB9" cx="226.8" cy="199.4" rx="96.9" ry="86.4"/>
				</g>
			</g>
		</g>
		<path fill="#048CB9" d="M138.1,215c0.7-0.8,1.1-1.8,1.1-2.9c0-1.3-0.5-2.4-1.5-3.3c-1-0.9-2.3-1.4-3.7-1.4h-19.8
			c-0.7,0.1-1.2,0.7-1.2,1.4v3.3h20.9l-17.2,4.9c-1.1,0.3-1.9,0.9-2.6,1.7c-0.7,0.8-1,1.8-1,2.8c0,1.3,0.5,2.5,1.5,3.4
			c1,0.9,2.3,1.4,3.7,1.4h19.7c0.7-0.1,1.2-0.6,1.3-1.3v-3.5h-21l17.2-4.9C136.5,216.4,137.4,215.8,138.1,215z"/>
	</g>
	<g display="inline">
		<circle opacity="0.1" fill="#FFFFFF" enable-background="new    " cx="73.6" cy="110.9" r="7.1"/>
		<circle fill="#FFFFFF" cx="73.6" cy="110.9" r="1.3"/>
	</g>
	<g display="inline">
		<circle opacity="0.1" fill="#FFFFFF" enable-background="new    " cx="88.4" cy="96.5" r="4.8"/>
		<circle fill="#FFFFFF" cx="88.3" cy="96.3" r="1.3"/>
	</g>
	<g display="inline">
		<g>
			<path fill="#FFFFFF" d="M163,137.5c0,0.6-0.4,1-1,1H99c-0.6,0-1-0.4-1-1V91.3c0-0.6,0.4-1,1-1h63c0.6,0,1,0.4,1,1V137.5z"/>
			<path fill="none" stroke="#048BB9" stroke-width="1.5" stroke-miterlimit="10" d="M163,137.5c0,0.6-0.4,1-1,1H99
				c-0.6,0-1-0.4-1-1V91.3c0-0.6,0.4-1,1-1h63c0.6,0,1,0.4,1,1V137.5z"/>
		</g>
		<circle fill="#048CB9" cx="92.4" cy="123.5" r="11.7"/>
		<g>
			<path fill="#048CB9" d="M104.5,158.2c0,1.6-1.3,3-3,3H84.2c-1.7,0-3-1.4-3-3v-22c0-1.6,1.3-3,3-3h17.3c1.7,0,3,1.4,3,3
				L104.5,158.2L104.5,158.2z"/>
		</g>
		<rect x="133.8" y="100.1" fill="#048CB9" width="21.5" height="1.5"/>
		<rect x="133.8" y="106.6" fill="#048CB9" width="21.5" height="1.5"/>
		<rect x="104.5" y="100.1" fill="#9FD1E6" width="26" height="28.3"/>
		<rect x="133.8" y="113.6" fill="#048CB9" width="21.5" height="1.5"/>
		
			<rect x="105.8" y="122.6" transform="matrix(-0.4241 0.9056 -0.9056 -0.4241 277.8901 70.3466)" fill="#048CB9" width="21.5" height="2"/>
		<g>
			<path fill="#048CB9" d="M109.9,129.6c-0.6-0.9-1.8-1.2-2.8-0.6l-10.8,6.9c-0.9,0.6-1.2,1.8-0.6,2.8l3.2,5
				c0.6,0.9,1.8,1.2,2.8,0.6l10.8-6.9c0.9-0.6,1.2-1.8,0.6-2.8L109.9,129.6z"/>
		</g>
		<rect x="133.8" y="120.3" fill="#048CB9" width="21.5" height="1.5"/>
		<rect x="133.8" y="126.9" fill="#048CB9" width="21.5" height="1.5"/>
		<circle fill="#048CB9" cx="114.6" cy="130.2" r="5.6"/>
	</g>
	<g display="inline">
		<circle opacity="0.1" fill="#FFFFFF" enable-background="new    " cx="146.8" cy="71.9" r="7.1"/>
		<circle fill="#FFFFFF" cx="146.8" cy="71.9" r="1.3"/>
	</g>
	<g display="inline">
		<path fill="#FFFFFF" d="M42.2,103.7l-12.6-3.4l2.4-8.9l2.4,0.6l-1.7,6.2l2.6,0.7l1.6-6.1l2.4,0.6l-1.6,6.1l5.2,1.4L42.2,103.7z"/>
		<path fill="#FFFFFF" d="M39.1,90.5c-3.6-1.6-5-5.4-3.4-9c1.6-3.6,5.3-5.1,8.9-3.5c3.6,1.6,5,5.4,3.4,8.9
			C46.5,90.6,42.7,92.1,39.1,90.5z M43.5,80.6c-2.2-1-4.5-0.3-5.5,1.9c-1,2.2,0.1,4.4,2.3,5.4c2.2,1,4.5,0.3,5.5-1.9
			C46.8,83.8,45.7,81.6,43.5,80.6z"/>
		<path fill="#FFFFFF" d="M47.5,75.7l-6.5-4.4l1.6-2.3l6.4,4.3c1.5,1,3.1,0.8,4.3-0.8c1.1-1.7,0.7-3.2-0.8-4.2L46.1,64l1.6-2.3
			l6.5,4.4c2.7,1.8,3.4,4.6,1.2,7.9C53.1,77.2,50.2,77.5,47.5,75.7z"/>
		<path fill="#FFFFFF" d="M66.6,60.1l-10.4-1.4l6.1,5.9l-1.9,2l-9.4-9l2-2L63,56.8l-5.9-5.7l1.9-2l9.4,9L66.6,60.1z"/>
		<path fill="#FFFFFF" d="M70.7,56.2L63,45.7l4.1-3c3.3-2.4,7.1-2,9.4,1.2c2.3,3.2,1.6,6.9-1.7,9.3L70.7,56.2z M74.3,45.5
			c-1.3-1.8-3.5-2.4-5.7-0.9l-1.9,1.4l4.8,6.6l1.9-1.4C75.5,49.7,75.6,47.3,74.3,45.5z"/>
		<path fill="#FFFFFF" d="M90,44.1l-1.7-1.6l-5,2.6l0.3,2.3l-2.8,1.4L79.3,35l3.1-1.6l10.4,9.3L90,44.1z M82.1,36.6l0.8,5.9l3.6-1.9
			L82.1,36.6z"/>
		<path fill="#FFFFFF" d="M96.1,41.6l-3.5-10L89,32.9l-0.8-2.3l9.8-3.5l0.8,2.3l-3.6,1.3l3.5,10L96.1,41.6z"/>
		<path fill="#FFFFFF" d="M104.7,38.9l-3.1-12.6l2.7-0.6l3.1,12.6L104.7,38.9z"/>
		<path fill="#FFFFFF" d="M109.1,31c-0.4-3.9,2.1-7,6-7.4c3.9-0.4,7.1,2,7.5,5.9c0.4,3.9-2.1,7-6,7.4
			C112.7,37.4,109.5,34.9,109.1,31z M119.8,29.8c-0.3-2.4-2-4.1-4.4-3.8c-2.4,0.3-3.7,2.3-3.5,4.7c0.3,2.4,2,4.1,4.4,3.8
			C118.7,34.2,120.1,32.2,119.8,29.8z"/>
		<path fill="#FFFFFF" d="M134.7,36.6l-5.6-8.9l-0.5,8.5l-2.8-0.2l0.8-13l2.8,0.2l5.5,8.5l0.5-8.2l2.8,0.2l-0.8,13L134.7,36.6z"/>
		<path fill="#FFFFFF" d="M148.9,39.3l3-10.1l-3.6-1.1l0.7-2.3l9.9,2.9l-0.7,2.3l-3.6-1.1l-3,10.1L148.9,39.3z"/>
		<path fill="#FFFFFF" d="M164,45l-0.4-5.3l-1.8-0.8l-1.9,4.2l-2.5-1.2l5.4-11.8l5.5,2.5c2.5,1.1,3.2,3.4,2.2,5.6
			c-1,2.1-2.8,2.6-4.2,2.3l0.6,5.7L164,45z M168,37.1c0.4-1,0-1.9-1-2.4l-2.7-1.2l-1.5,3.2l2.7,1.2C166.5,38.4,167.5,38.1,168,37.1z
			"/>
		<path fill="#FFFFFF" d="M176.6,52.6l0.5-2.3l-4.6-3.1l-1.9,1.4l-2.6-1.7l11.4-8.1l2.9,1.9l-3,13.6L176.6,52.6z M179.3,42.1
			l-4.8,3.5l3.4,2.2L179.3,42.1z"/>
		<path fill="#FFFFFF" d="M180.5,55.7l8.4-9.9l2.1,1.8l-8.4,9.9L180.5,55.7z"/>
		<path fill="#FFFFFF" d="M191.1,66l2-10.3l-6.2,5.8l-1.9-2l9.6-8.8l1.9,2.1l-1.9,10l6-5.5l1.9,2l-9.6,8.8L191.1,66z"/>
		<path fill="#FFFFFF" d="M194.7,70.6l10.6-7.6l1.6,2.2l-10.6,7.6L194.7,70.6z"/>
		<path fill="#FFFFFF" d="M202.6,83.3l4.4-9.5l-7.4,4.1l-1.3-2.4l11.4-6.3l1.4,2.5l-4.2,9.2l7.2-3.9l1.3,2.4l-11.4,6.3L202.6,83.3z"
			/>
		<path fill="#FFFFFF" d="M211,85.7c3.9-1.3,7.4,0.7,8.6,4.3c0.9,2.5,0.1,4.6-1,6l-1.9-1.7c0.7-0.9,1-2.2,0.6-3.5
			c-0.8-2.2-3.1-3.3-5.4-2.5c-2.3,0.8-3.5,3-2.7,5.3c0.4,1.1,1.2,1.9,1.8,2.3l1.5-0.5l-1.1-3.2l2.3-0.8l2,5.9l-4.7,1.6
			c-1.8-0.8-3.3-2.2-4.1-4.4C205.7,90.8,207.2,87,211,85.7z"/>
	</g>
</g>
<g display="none">
	<g display="inline">
		<g>
			<circle opacity="0.5" fill="#737F82" enable-background="new    " cx="126" cy="125.2" r="124.6"/>
			<circle fill="#0A4F68" stroke="#048BB9" stroke-width="3" stroke-miterlimit="10" cx="126.5" cy="120.7" r="117.8"/>
			<circle fill="#FFFFFF" stroke="#048BB9" stroke-width="2" stroke-miterlimit="10" cx="126.5" cy="120.7" r="76.1"/>
			<g>
				<path fill="#FFFFFF" d="M41.6,71.3l6-2.2l-3.6,5.3l3.9,5l-6.1-1.8L38.2,83L38,76.6l-6.2-1.8l6-2.2l-0.2-6.4L41.6,71.3z"/>
				<path fill="#FFFFFF" d="M208.9,76.4l-6,2.3l3.5-5.4l-4-5l6.2,1.7l3.5-5.4l0.3,6.4l6.2,1.7l-6,2.3l0.3,6.4L208.9,76.4z"/>
			</g>
			<circle fill="#074F68" cx="126.5" cy="120.7" r="68.4"/>
		</g>
		<g opacity="0.4" enable-background="new    ">
			<g>
				<defs>
					<circle id="SVGID_29_" cx="126.5" cy="119.9" r="68.4"/>
				</defs>
				<clipPath id="SVGID_30_">
					<use xlink:href="#SVGID_29_"  overflow="visible"/>
				</clipPath>
				<g clip-path="url(#SVGID_30_)">
					
						<ellipse transform="matrix(0.5568 -0.8307 0.8307 0.5568 53.3895 176.8579)" fill="#E8F6FD" cx="192.4" cy="38.4" rx="96.9" ry="86.4"/>
					
						<ellipse transform="matrix(0.5568 -0.8307 0.8307 0.5568 52.7016 183.6912)" fill="#CAE5F0" cx="198.5" cy="42.5" rx="96.9" ry="86.4"/>
					
						<ellipse transform="matrix(0.5568 -0.8307 0.8307 0.5568 51.655 194.0836)" fill="#9FD1E6" cx="207.7" cy="48.6" rx="96.9" ry="86.4"/>
					
						<ellipse transform="matrix(0.5568 -0.8307 0.8307 0.5568 50.4368 206.1747)" fill="#048CB9" cx="218.4" cy="55.8" rx="96.9" ry="86.4"/>
				</g>
			</g>
		</g>
		<path fill="#048CB9" d="M138.1,215c0.7-0.8,1.1-1.8,1.1-2.9c0-1.3-0.5-2.4-1.5-3.3c-1-0.9-2.3-1.4-3.7-1.4h-19.8
			c-0.7,0.1-1.2,0.7-1.2,1.4v3.3h20.9l-17.2,4.9c-1.1,0.3-1.9,0.9-2.6,1.7c-0.7,0.8-1,1.8-1,2.8c0,1.3,0.5,2.5,1.5,3.4
			c1,0.9,2.3,1.4,3.7,1.4h19.7c0.7-0.1,1.2-0.6,1.3-1.3v-3.5h-21l17.2-4.9C136.5,216.4,137.4,215.8,138.1,215z"/>
	</g>
	<g display="inline">
		<circle opacity="0.1" fill="#FFFFFF" enable-background="new    " cx="75.1" cy="110.9" r="7.1"/>
		<circle fill="#FFFFFF" cx="75.1" cy="110.9" r="1.3"/>
	</g>
	<g display="inline">
		<circle opacity="0.1" fill="#FFFFFF" enable-background="new    " cx="89.9" cy="96.5" r="4.8"/>
		<circle fill="#FFFFFF" cx="89.7" cy="96.3" r="1.3"/>
	</g>
	<g display="inline">
		<circle opacity="0.1" fill="#FFFFFF" enable-background="new    " cx="138.7" cy="159.9" r="4.8"/>
		<circle fill="#FFFFFF" cx="138.5" cy="159.7" r="1.3"/>
	</g>
	<g display="inline">
		<circle opacity="0.1" fill="#FFFFFF" enable-background="new    " cx="129.3" cy="174.9" r="3.8"/>
		<circle fill="#FFFFFF" cx="129.2" cy="174.7" r="1.1"/>
	</g>
	<g display="inline">
		<circle opacity="0.1" fill="#FFFFFF" enable-background="new    " cx="114.7" cy="170" r="3.8"/>
		<circle fill="#FFFFFF" cx="114.5" cy="169.9" r="1.1"/>
	</g>
	<g display="inline">
		<path fill="#FFFFFF" d="M67.6,58.4l-8.4-9.9l3.9-3.3c3.1-2.6,6.9-2.5,9.5,0.5c2.6,3,2.1,6.8-1,9.4L67.6,58.4z M70.4,47.5
			c-1.5-1.7-3.7-2.2-5.7-0.5l-1.8,1.5l5.3,6.2l1.8-1.5C71.9,51.6,71.8,49.2,70.4,47.5z"/>
		<path fill="#FFFFFF" d="M78.9,49.3L72,38.2l7.8-4.8l1.3,2.1l-5.5,3.4l1.4,2.3l5.4-3.3l1.3,2.1l-5.4,3.3l1.6,2.5l5.5-3.4l1.3,2.1
			L78.9,49.3z"/>
		<path fill="#FFFFFF" d="M87.5,41.9l0.5-2.6c1.2,0.5,2.9,0.7,4.5,0c1.4-0.6,1.8-1.5,1.5-2.2c-0.9-2.1-7.1,2.4-9.1-2.1
			c-0.9-2,0.1-4.4,2.9-5.6c1.9-0.8,3.7-0.9,5.4-0.4l-0.6,2.5c-1.4-0.5-2.8-0.3-4,0.2c-1.1,0.5-1.5,1.2-1.2,1.9
			c0.8,1.9,7.1-2.4,9.1,2.1c1,2.2,0.1,4.5-3.1,5.9C91.1,42.6,89.1,42.5,87.5,41.9z"/>
		<path fill="#FFFFFF" d="M100.5,38.6l-3.9-12.4l2.6-0.8l3.9,12.4L100.5,38.6z"/>
		<path fill="#FFFFFF" d="M104.4,30.5c-0.8-4,1.8-7.2,5.6-7.9c2.6-0.5,4.6,0.5,5.8,1.9l-2,1.6c-0.8-0.8-2-1.4-3.3-1.1
			c-2.3,0.4-3.7,2.5-3.2,4.9c0.4,2.4,2.5,3.9,4.8,3.4c1.1-0.2,2.1-0.9,2.5-1.5l-0.3-1.5l-3.4,0.6l-0.4-2.4l6.1-1.1l0.9,4.9
			c-1,1.7-2.7,3-5,3.4C108.7,36.5,105.1,34.5,104.4,30.5z"/>
		<path fill="#FFFFFF" d="M129.4,34.2l-6.3-8.4l0.1,8.5l-2.8,0l-0.2-13l2.8,0l6.1,8.1l-0.1-8.2l2.8,0l0.2,13L129.4,34.2z"/>
		<path fill="#FFFFFF" d="M149.6,37.1l-0.3-2.3l-5.4-1.2l-1.3,2l-3.1-0.7l7.7-11.6l3.4,0.8l2.1,13.8L149.6,37.1z M148.3,26.3l-3.2,5
			l4,0.9L148.3,26.3z"/>
		<path fill="#FFFFFF" d="M154.3,38.4l4.7-12.1l5.7,2.2c2.6,1,3.4,3.4,2.5,5.5c-0.8,2.1-3,3.3-5.6,2.3l-3.1-1.2l-1.7,4.3L154.3,38.4
			z M164.6,33c0.4-1-0.1-1.9-1.2-2.3l-2.7-1.1l-1.3,3.3l2.7,1.1C163.2,34.3,164.2,34,164.6,33z"/>
		<path fill="#FFFFFF" d="M166,43.2l6.5-11.3l5.3,3c2.5,1.4,2.8,3.8,1.7,5.8c-1.1,2-3.4,2.8-5.9,1.4l-2.9-1.7l-2.3,4L166,43.2z
			 M177,39.4c0.5-0.9,0.1-1.9-0.8-2.5l-2.5-1.5l-1.7,3l2.5,1.5C175.5,40.5,176.5,40.3,177,39.4z"/>
		<path fill="#FFFFFF" d="M177.4,47.8l2.5-0.8c0.1,1.3,0.7,2.8,2.1,4c1.2,1,2.2,0.9,2.7,0.3c1.4-1.8-5.5-5.2-2.4-9
			c1.3-1.7,3.9-1.9,6.3-0.1c1.6,1.3,2.6,2.8,2.9,4.6l-2.5,0.7c-0.2-1.4-1-2.6-2.1-3.5c-0.9-0.7-1.8-0.7-2.2-0.1
			c-1.3,1.6,5.5,5.1,2.4,9c-1.5,1.9-3.9,2.2-6.7,0.1C178.5,51.3,177.6,49.5,177.4,47.8z"/>
	</g>
	<g display="inline">
		<g>
			<path fill="#FFFFFF" d="M158.5,144.5c0,0.6-0.4,1-1,1h-63c-0.6,0-1-0.4-1-1V98.4c0-0.6,0.4-1,1-1h63c0.6,0,1,0.4,1,1L158.5,144.5
				L158.5,144.5z"/>
			<path fill="none" stroke="#048BB9" stroke-width="1.5" stroke-miterlimit="10" d="M158.5,144.5c0,0.6-0.4,1-1,1h-63
				c-0.6,0-1-0.4-1-1V98.4c0-0.6,0.4-1,1-1h63c0.6,0,1,0.4,1,1L158.5,144.5L158.5,144.5z"/>
		</g>
		<g>
			<rect x="99.8" y="129.6" fill="#9FD1E6" width="14.6" height="9"/>
			<rect x="118.9" y="129.6" fill="#9FD1E6" width="14.6" height="9"/>
			<rect x="137.7" y="129.6" fill="#9FD1E6" width="14.6" height="9"/>
			<rect x="99.8" y="111.5" fill="#9FD1E6" width="52.6" height="15.2"/>
			<rect x="99.9" y="104.4" fill="#9FD1E6" width="14.4" height="4.5"/>
			<rect x="118.9" y="104.4" fill="#9FD1E6" width="33.4" height="4.5"/>
		</g>
	</g>
	<g display="inline">
		<circle fill="#048CB9" cx="99.2" cy="116.6" r="13.4"/>
		<g>
			<path fill="#FFFFFF" d="M99.7,123.1v-9.4l-2.2,2.2l-1.6-1.7l4.1-4.1h2.4v13C102.5,123.1,99.7,123.1,99.7,123.1z"/>
		</g>
	</g>
	<g display="inline">
		<circle fill="#048CB9" cx="140.7" cy="139" r="13.4"/>
		<g>
			<path fill="#FFFFFF" d="M135.9,145.6v-2.2c5.3-3.9,6.9-5.3,6.9-6.9c0-1.1-1-1.7-2.1-1.7c-1.5,0-2.6,0.6-3.5,1.5l-1.6-1.8
				c1.3-1.5,3.2-2.1,5-2.1c2.8,0,5,1.6,5,4.2c0,2.2-1.8,4.2-5.2,6.6h5.3v2.4L135.9,145.6L135.9,145.6z"/>
		</g>
	</g>
</g>
</svg>
