<?xml version="1.0" encoding="utf-8"?>
<!-- Generator: Adobe Illustrator 17.1.0, SVG Export Plug-In . SVG Version: 6.00 Build 0)  -->
<!DOCTYPE svg PUBLIC "-//W3C//DTD SVG 1.1//EN" "http://www.w3.org/Graphics/SVG/1.1/DTD/svg11.dtd">
<svg version="1.1" id="Layer_1" xmlns="http://www.w3.org/2000/svg" xmlns:xlink="http://www.w3.org/1999/xlink" x="0px" y="0px"
	 viewBox="0 0 253 253" enable-background="new 0 0 253 253" xml:space="preserve">
<g>
	<g>
		<g>
			<circle opacity="0.5" fill="#737F82" enable-background="new    " cx="126" cy="125.2" r="124.6"/>
			<circle fill="#0A4F68" stroke="#048BB9" stroke-width="3" stroke-miterlimit="10" cx="126.5" cy="120.7" r="117.8"/>
			<circle fill="#FFFFFF" stroke="#048BB9" stroke-width="2" stroke-miterlimit="10" cx="126.5" cy="120.7" r="76.1"/>
			<g>
				<path fill="#FFFFFF" d="M31.9,122.3l6-2.3l-3.5,5.4l4,5l-6.2-1.7l-3.5,5.4l-0.3-6.4l-6.2-1.7l6-2.3l-0.3-6.4L31.9,122.3z"/>
				<path fill="#FFFFFF" d="M221,128.7l-6.2,1.7l4-5l-3.5-5.3l6,2.3l4-5l-0.3,6.4l6,2.3l-6.2,1.7l-0.3,6.4L221,128.7z"/>
			</g>
			<circle fill="#074F68" cx="126.5" cy="120.7" r="68.4"/>
		</g>
		<g opacity="0.4" enable-background="new    ">
			<g>
				<defs>
					<circle id="SVGID_1_" cx="126.5" cy="119.9" r="68.4"/>
				</defs>
				<clipPath id="SVGID_2_">
					<use xlink:href="#SVGID_1_"  overflow="visible"/>
				</clipPath>
				<g clip-path="url(#SVGID_2_)">
					
						<ellipse transform="matrix(0.94 0.3413 -0.3413 0.94 72.2569 -70.8435)" fill="#E8F6FD" cx="237.5" cy="169.9" rx="96.9" ry="86.4"/>
					
						<ellipse transform="matrix(0.94 0.3413 -0.3413 0.94 74.4473 -69.582)" fill="#CAE5F0" cx="235" cy="176.8" rx="96.9" ry="86.4"/>
					
						<ellipse transform="matrix(0.94 0.3413 -0.3413 0.94 77.7782 -67.6644)" fill="#9FD1E6" cx="231.2" cy="187.2" rx="96.9" ry="86.4"/>
					
						<ellipse transform="matrix(0.94 0.3413 -0.3413 0.94 81.6542 -65.4323)" fill="#048CB9" cx="226.8" cy="199.4" rx="96.9" ry="86.4"/>
				</g>
			</g>
		</g>
		<path fill="#048CB9" d="M138.1,215c0.7-0.8,1.1-1.8,1.1-2.9c0-1.3-0.5-2.4-1.5-3.3c-1-0.9-2.3-1.4-3.7-1.4h-19.8
			c-0.7,0.1-1.2,0.7-1.2,1.4v3.3h20.9l-17.2,4.9c-1.1,0.3-1.9,0.9-2.6,1.7c-0.7,0.8-1,1.8-1,2.8c0,1.3,0.5,2.5,1.5,3.4
			c1,0.9,2.3,1.4,3.7,1.4h19.7c0.7-0.1,1.2-0.6,1.3-1.3v-3.5h-21l17.2-4.9C136.5,216.4,137.4,215.8,138.1,215z"/>
	</g>
	<g>
		<circle opacity="0.1" fill="#FFFFFF" enable-background="new    " cx="73.6" cy="110.9" r="7.1"/>
		<circle fill="#FFFFFF" cx="73.6" cy="110.9" r="1.3"/>
	</g>
	<g>
		<circle opacity="0.1" fill="#FFFFFF" enable-background="new    " cx="88.4" cy="96.5" r="4.8"/>
		<circle fill="#FFFFFF" cx="88.3" cy="96.3" r="1.3"/>
	</g>
	<g>
		<g>
			<path fill="#FFFFFF" d="M163,137.5c0,0.6-0.4,1-1,1H99c-0.6,0-1-0.4-1-1V91.3c0-0.6,0.4-1,1-1h63c0.6,0,1,0.4,1,1V137.5z"/>
			<path fill="none" stroke="#048BB9" stroke-width="1.5" stroke-miterlimit="10" d="M163,137.5c0,0.6-0.4,1-1,1H99
				c-0.6,0-1-0.4-1-1V91.3c0-0.6,0.4-1,1-1h63c0.6,0,1,0.4,1,1V137.5z"/>
		</g>
		<circle fill="#048CB9" cx="92.4" cy="123.5" r="11.7"/>
		<g>
			<path fill="#048CB9" d="M104.5,158.2c0,1.6-1.3,3-3,3H84.2c-1.7,0-3-1.4-3-3v-22c0-1.6,1.3-3,3-3h17.3c1.7,0,3,1.4,3,3
				L104.5,158.2L104.5,158.2z"/>
		</g>
		<rect x="133.8" y="100.1" fill="#048CB9" width="21.5" height="1.5"/>
		<rect x="133.8" y="106.6" fill="#048CB9" width="21.5" height="1.5"/>
		<rect x="104.5" y="100.1" fill="#9FD1E6" width="26" height="28.3"/>
		<rect x="133.8" y="113.6" fill="#048CB9" width="21.5" height="1.5"/>
		
			<rect x="105.8" y="122.6" transform="matrix(-0.4241 0.9056 -0.9056 -0.4241 277.8901 70.3466)" fill="#048CB9" width="21.5" height="2"/>
		<g>
			<path fill="#048CB9" d="M109.9,129.6c-0.6-0.9-1.8-1.2-2.8-0.6l-10.8,6.9c-0.9,0.6-1.2,1.8-0.6,2.8l3.2,5
				c0.6,0.9,1.8,1.2,2.8,0.6l10.8-6.9c0.9-0.6,1.2-1.8,0.6-2.8L109.9,129.6z"/>
		</g>
		<rect x="133.8" y="120.3" fill="#048CB9" width="21.5" height="1.5"/>
		<rect x="133.8" y="126.9" fill="#048CB9" width="21.5" height="1.5"/>
		<circle fill="#048CB9" cx="114.6" cy="130.2" r="5.6"/>
	</g>
	<g>
		<circle opacity="0.1" fill="#FFFFFF" enable-background="new    " cx="146.8" cy="71.9" r="7.1"/>
		<circle fill="#FFFFFF" cx="146.8" cy="71.9" r="1.3"/>
	</g>
	<g>
		<path fill="#FFFFFF" d="M42.9,101.4l-12.5-3.8l2.7-8.8l2.3,0.7l-1.9,6.2l2.6,0.8l1.8-6l2.3,0.7l-1.8,6l5.2,1.6L42.9,101.4z"/>
		<path fill="#FFFFFF" d="M40.2,88c-3.5-1.7-4.8-5.5-3.1-9c1.7-3.5,5.5-4.9,9-3.2c3.5,1.7,4.8,5.5,3.1,9
			C47.5,88.3,43.7,89.7,40.2,88z M44.8,78.3c-2.2-1.1-4.5-0.5-5.6,1.7c-1,2.2-0.1,4.4,2.1,5.4c2.2,1,4.5,0.5,5.6-1.7
			C48,81.6,47,79.4,44.8,78.3z"/>
		<path fill="#FFFFFF" d="M49,73.5l-6.3-4.6l1.6-2.3l6.3,4.5c1.5,1.1,3.1,0.9,4.3-0.7c1.2-1.6,0.8-3.2-0.7-4.3l-6.3-4.5l1.7-2.3
			l6.3,4.6c2.6,1.9,3.3,4.7,1,7.9C54.5,75.1,51.6,75.4,49,73.5z"/>
		<path fill="#FFFFFF" d="M68.4,58.5l-10.4-1.7l5.9,6.1l-2,1.9l-9.1-9.3l2-2l10,1.6l-5.7-5.8l2-1.9l9.1,9.3L68.4,58.5z"/>
		<path fill="#FFFFFF" d="M72.7,54.7L65.3,44l4.2-2.9c3.4-2.3,7.2-1.8,9.4,1.4c2.2,3.2,1.4,7-2,9.3L72.7,54.7z M76.6,44.1
			c-1.3-1.9-3.5-2.5-5.6-1l-2,1.4l4.6,6.7l1.9-1.3C77.6,48.3,77.8,45.9,76.6,44.1z"/>
		<path fill="#FFFFFF" d="M92.3,43.1l-1.7-1.6l-5,2.4l0.2,2.3L83,47.6l-1.1-13.9l3.1-1.5l10.1,9.6L92.3,43.1z M84.6,35.4l0.6,5.9
			l3.7-1.8L84.6,35.4z"/>
		<path fill="#FFFFFF" d="M98.5,40.8l-3.3-10.1l-3.6,1.2l-0.8-2.3l9.9-3.2l0.8,2.3l-3.6,1.2l3.3,10.1L98.5,40.8z"/>
		<path fill="#FFFFFF" d="M107.2,38.3l-2.7-12.7l2.7-0.6l2.7,12.7L107.2,38.3z"/>
		<path fill="#FFFFFF" d="M111.8,30.6c-0.3-3.9,2.3-6.9,6.2-7.3c3.9-0.3,7,2.2,7.3,6.1c0.3,3.9-2.3,6.9-6.2,7.3
			C115.2,37,112.1,34.5,111.8,30.6z M122.5,29.7c-0.2-2.4-1.9-4.1-4.3-3.9c-2.4,0.2-3.8,2.2-3.6,4.6c0.2,2.4,1.9,4.1,4.3,3.9
			C121.3,34.1,122.7,32.1,122.5,29.7z"/>
		<path fill="#FFFFFF" d="M137.2,36.8l-5.4-9l-0.8,8.4l-2.8-0.3l1.2-12.9l2.8,0.3l5.2,8.7l0.8-8.1l2.8,0.3l-1.2,12.9L137.2,36.8z"/>
		<path fill="#FFFFFF" d="M151.3,40l3.3-10l-3.6-1.2l0.8-2.3l9.9,3.2l-0.8,2.3l-3.6-1.2l-3.3,10L151.3,40z"/>
		<path fill="#FFFFFF" d="M166.3,46.2l-0.2-5.3l-1.8-0.9l-2,4.1l-2.5-1.2l5.8-11.7l5.5,2.7c2.4,1.2,3.1,3.5,2.1,5.7
			c-1,2-2.9,2.5-4.3,2.2l0.4,5.7L166.3,46.2z M170.5,38.4c0.5-1,0-1.9-1-2.4l-2.6-1.3l-1.6,3.1l2.6,1.3
			C168.9,39.6,170,39.4,170.5,38.4z"/>
		<path fill="#FFFFFF" d="M178.6,54l0.6-2.3l-4.6-3.2l-1.9,1.3l-2.6-1.8l11.6-7.7l2.8,2l-3.4,13.5L178.6,54z M181.6,43.6l-4.9,3.4
			l3.3,2.3L181.6,43.6z"/>
		<path fill="#FFFFFF" d="M182.4,57.2l8.7-9.7l2.1,1.9l-8.7,9.7L182.4,57.2z"/>
		<path fill="#FFFFFF" d="M192.8,67.9l2.3-10.2l-6.4,5.6l-1.8-2.1l9.8-8.5l1.9,2.1l-2.2,9.9l6.2-5.4l1.8,2.1l-9.8,8.5L192.8,67.9z"
			/>
		<path fill="#FFFFFF" d="M196.3,72.6l10.8-7.3l1.6,2.3l-10.8,7.3L196.3,72.6z"/>
		<path fill="#FFFFFF" d="M203.8,85.5l4.7-9.4l-7.5,3.9l-1.3-2.5l11.6-5.9l1.3,2.5l-4.5,9.1l7.3-3.7l1.3,2.5L205,87.8L203.8,85.5z"
			/>
		<path fill="#FFFFFF" d="M212.1,88.1c3.9-1.2,7.4,0.9,8.5,4.6c0.8,2.6,0,4.6-1.2,6l-1.9-1.8c0.7-0.9,1.1-2.1,0.7-3.4
			c-0.7-2.3-3-3.4-5.3-2.6c-2.3,0.7-3.6,2.9-2.8,5.2c0.3,1.1,1.2,2,1.8,2.3l1.5-0.5l-1-3.3l2.3-0.7l1.9,5.9l-4.8,1.5
			c-1.8-0.8-3.3-2.3-4-4.5C206.7,93.1,208.2,89.3,212.1,88.1z"/>
	</g>
</g>
</svg>
