<?xml version="1.0" encoding="utf-8"?>
<!-- Generator: Adobe Illustrator 17.0.0, SVG Export Plug-In . SVG Version: 6.00 Build 0)  -->
<!DOCTYPE svg PUBLIC "-//W3C//DTD SVG 1.1//EN" "http://www.w3.org/Graphics/SVG/1.1/DTD/svg11.dtd">
<svg version="1.1" id="Layer_1" xmlns="http://www.w3.org/2000/svg" xmlns:xlink="http://www.w3.org/1999/xlink" x="0px" y="0px"
	 width="606px" height="290.167px" viewBox="-106.167 0 606 290.167" enable-background="new -106.167 0 606 290.167"
	 xml:space="preserve">
<g>
	<g>
		<path fill="#5B5A5D" stroke="#737F82" stroke-width="4" stroke-miterlimit="10" d="M377.62,188.475
			c0,4.231-3.462,7.692-7.692,7.692H94.095c-4.231,0-7.692-3.462-7.692-7.692V34.394c0-4.231,3.462-7.692,7.692-7.692h275.833
			c4.231,0,7.692,3.462,7.692,7.692V188.475z"/>
	</g>
</g>
<g>
	<defs>
		<rect id="SVGID_1_" x="84.833" y="112.531" width="113.5" height="101.623"/>
	</defs>
	<clipPath id="SVGID_2_">
		<use xlink:href="#SVGID_1_"  overflow="visible"/>
	</clipPath>
	<g clip-path="url(#SVGID_2_)">
		<path opacity="0.2" d="M148.524,137.516c-0.691-0.932-7.521,4.659-26.967,6.935c-4.034,0.472-7.687,0.716-11.712,0.774
			c2.765-1.215,4.917-4.586,4.917-4.586c-2.619,2.143-9.085,3.554-12.762,4.254l0.221-1.878l-3.093,1.878
			c-5.396-0.272-9.789-0.664-14.589-1.328c1.677-1.048,1.551-2.595,1.551-2.595c-2.049,1.171-7.327,1.308-8.533,1.324l-15.995-3.147
			l8.95,45.577c0,0,7.417,0.704,13.88,0.456c0.06-0.003,1.202,0,1.865-0.083c1.841-0.13,3.609-0.3,5.297-0.496
			c0.147-0.011,0.312-0.025,0.504-0.043c5.801-0.539,12.927,0.829,12.927,0.829c-0.719-1.233-1.883-2.082-2.664-2.551
			c6.047-1.29,9.625-2.587,9.625-2.587c7.955,5.966,17.568,0.331,17.568,0.331c0.331,1.326-0.331,5.304-0.331,5.304
			c-0.663,1.657-4.309,8.287-4.309,8.287c9.613-1.326,16.684-11.822,16.684-11.822l0.221,5.69c0,0,7.471-6.086,9.944-16.076
			c0.067-0.271,0.12-0.533,0.172-0.796l0.822,0.686c0.07-2.229-0.343-4.193-0.658-5.341c-1.048-6.828-7.849-9.023-7.849-9.023
			C148.524,155.118,149.215,138.448,148.524,137.516z"/>
		<g opacity="0.2">
			<g>
				<path d="M151.617,126.965c0.652,0.402,1.69,1.103,2.307,1.557c0.617,0.454,0.287,2.061-0.636,3.429l-8.55,12.67
					c-0.923,1.368-1.943,2.377-2.266,2.244c-0.323-0.134-2.366-1.474-2.983-1.928c-0.617-0.454-0.287-2.061,0.636-3.429l8.55-12.67
					C149.597,127.469,150.965,126.562,151.617,126.965z"/>
			</g>
			<g>
				<defs>
					<polygon id="SVGID_3_" points="140.333,147.208 153.958,127.435 156.083,130.583 144.184,147.668 					"/>
				</defs>
				<use xlink:href="#SVGID_3_"  overflow="visible"/>
				<clipPath id="SVGID_4_">
					<use xlink:href="#SVGID_3_"  overflow="visible"/>
				</clipPath>
				<g opacity="0.1" clip-path="url(#SVGID_4_)">
					<path d="M151.617,127.057c0.652,0.402,1.69,1.103,2.307,1.557c0.617,0.454,0.287,2.061-0.636,3.429l-8.55,12.67
						c-0.923,1.368-1.943,2.377-2.266,2.244s-2.366-1.474-2.983-1.928c-0.617-0.454-0.287-2.061,0.636-3.429l8.55-12.67
						C149.597,127.562,150.965,126.655,151.617,127.057z"/>
				</g>
			</g>
		</g>
	</g>
</g>
<path fill="#737F82" d="M386.883,196.083c0,1.537-1.623,2.783-3.625,2.783H80.764c-2.002,0-3.625-1.246-3.625-2.783l0,0
	c0-1.537,1.623-2.783,3.625-2.783h302.493C385.26,193.3,386.883,194.546,386.883,196.083L386.883,196.083z"/>
<path fill="#EAF6FD" d="M146.524,134.516c-0.691-0.932-7.521,4.659-26.967,6.935c-4.034,0.472-7.687,0.716-11.712,0.774
	c2.765-1.215,4.917-4.586,4.917-4.586c-2.619,2.143-9.085,3.554-12.762,4.254l0.221-1.878l-3.093,1.878
	c-5.396-0.272-9.789-0.664-14.589-1.328c1.677-1.048,1.551-2.595,1.551-2.595c-2.049,1.171-7.327,1.308-8.533,1.324l-15.995-3.147
	l8.95,45.577c0,0,7.417,0.704,13.88,0.456c0.06-0.003,1.202,0,1.865-0.083c1.841-0.13,3.609-0.3,5.297-0.496
	c0.147-0.011,0.312-0.025,0.504-0.043c5.801-0.539,12.927,0.829,12.927,0.829c-0.719-1.233-1.883-2.082-2.664-2.551
	c6.047-1.29,9.625-2.587,9.625-2.587c7.955,5.966,17.568,0.331,17.568,0.331c0.331,1.326-0.331,5.304-0.331,5.304
	c-0.663,1.657-4.309,8.287-4.309,8.287c9.613-1.326,16.684-11.822,16.684-11.822l0.221,5.69c0,0,7.471-6.086,9.944-16.076
	c0.067-0.271,0.12-0.533,0.172-0.796l0.822,0.686c0.07-2.229-0.343-4.193-0.658-5.341c-1.048-6.828-7.849-9.023-7.849-9.023
	C146.524,152.118,147.215,135.448,146.524,134.516z"/>
<path fill="#5B5A5C" d="M51.458,72.552c15.838-1.766,26.505-14.144,26.505-14.144s1.726,10.951-5.715,20.977
	c-5.25,7.071-14.72,10.357-19.851,11.682C52.459,84.874,52.314,78.679,51.458,72.552z"/>
<path fill="#737F83" d="M51.458,72.552c15.838-1.766,26.505-14.144,26.505-14.144s-5.516,18.847-25.706,23.071
	C52.119,78.492,51.871,75.514,51.458,72.552z"/>
<ellipse fill="#E5E5E5" cx="10.134" cy="269.73" rx="99.033" ry="11.27"/>
<path fill="#CDEAF5" d="M72.047,172.94c2.873-1.326,4.862-6.85,4.862-6.85c-9.502-5.083-12.596-17.458-12.596-17.458
	c2.652-1.326,7.071-7.071,7.071-7.071l-5.523-4.017c-6.573-1.473-10.608-2.723-10.608-2.723c-2.057,3.085-5.609,9.045-8.256,15.694
	c0.405,10.065,3.433,22.154,5.212,28.77c1.705,0.723,3.697,1.274,6.028,1.611c4.982,0.721,9.852,1.056,14.493,1.13
	c1.462-4.274,1.97-9.527,1.97-9.527L72.047,172.94z"/>
<path fill="#A0D5E9" d="M65.566,262.813c-0.282-1.008-0.519-2.06-0.695-2.968c-0.023-3.139-0.6-7.101-3.161-10.906
	c0.908,0.25,1.914,0.596,1.914,0.596c-3.208-3.95-6.451-6.065-8.551-7.136c0.531-0.552,2.094-0.798,2.094-0.798
	c-1.867-0.727-7.466-1.555-12.131-2.225l1.929-1.135l-8.298,0.157c-3.863-1.048-8.453-1.844-13.899-2.298
	c0.414-0.901,1.622-1.868,1.622-1.868c-5.173-0.195-13.486,1.068-15.968,1.47c-0.822,0.016-1.657,0.038-2.506,0.065
	c0,0-12.936-5.994-13.142,6.932c-0.155,9.765,0.459,19.655,0.768,23.909c3.394-0.522,6.831-0.744,10.265-0.824
	c4.689-0.11,9.398-0.24,14.088-0.229c1.455,0.004,2.907,0.036,4.357,0.086c6.564-0.078,19.95,0.498,29.011,1.106l0.015-2.021
	l0.869-0.142h5.604l0.132-1.36c0.009-0.306-0.019-0.463,0.01-0.66C61.786,262.577,63.675,262.755,65.566,262.813z"/>
<path fill="#84C0CE" d="M59.943,262.629c0.835,0.006,1.669,0.034,2.503,0.066c-0.197-16.266-15.909-19.998-15.909-19.998
	C60.191,247.972,60.04,260.756,59.943,262.629z"/>
<path fill="#EAF6FD" d="M71.248,41.726c-8.306-5.873-21.843-1.579-21.843-1.579l6.124-11.053L40.811,27.03
	c0.755-6.597,6.662-13.603,6.662-13.603C19.597,9.835,3.743,25.234,3.743,25.234c0.307-6.153,6.331-16.836,6.331-16.836
	c-25.042,7.106-40.223,30.709-40.223,30.709c-1.059-3.251-0.289-13.156-0.289-13.156s-11.48,11.537-16.017,27.467
	c-1.554,5.46-4.78,42.138-4.452,50.416c0,0-3.359-0.498-6.744,0.575c0,0,6.228,5.448,7.387,8.331c0.374,0.929,0.472,2.97,0.385,6.33
	c-0.037,0.002-0.073,0.005-0.111,0.007c1.326,35.302-3.764,89.156,20.522,105.772c9.504,6.503,17.836,10.028,25.735,11.809
	l-2.834,0.423c39.047,8.577,48.204-1.237,52.161-6.149c1.514-1.753,2.054-3.247,2.054-3.247c0.795,1.516-0.156,4.733-0.156,4.733
	c1.323-0.818,4.881-5.128,7.334-9.15c2.453-4.023,3.123-13.464,3.123-13.464c1.4,0.647,2.479,3.278,2.479,3.278
	s1.323-3.374,1.285-7.938c-0.038-4.564-2.03-12.964-2.466-14.455c-0.437-1.491,0.175-4.157,0.921-6.172
	c0.581-1.572,1.461-6.162,1.461-6.162s-2.889,2.532-3.865,1.003c-0.976-1.529-1.463-7.362-1.463-7.362
	c2.889,0.023,7.564-4.755,7.564-4.755c-1.888-1.411-5.738-5.699-6.996-8.342c-1.257-2.645-0.269-14.848-0.269-14.848
	c2.182-0.21,4.43-3.883,4.43-3.883c-1.22-0.634-3.774-2.822-5.686-6.425c-1.075-2.026-0.251-9.524-1.508-16.277
	c0.101-4.454,0.681-14.012,3.849-17.008c0,0-1.516,0.523-2.858,1.389c1.676-13.154,2.147-26.251,5.638-35.505
	c3.62-6.899,9.367-12.221,9.367-12.221c-2.537,0.202-4.678,1.013-5.625,1.424C68.097,46.683,71.248,41.726,71.248,41.726z"/>
<g>
	<path fill="#B2E1EE" d="M53.484,184.21c0.01,0.007,0.015-0.003,0.015-0.028C53.47,184.185,53.458,184.192,53.484,184.21z"/>
</g>
<ellipse fill="#CDEAF5" cx="33.817" cy="130.399" rx="7.182" ry="9.09"/>
<ellipse fill="#FFFFFF" cx="33.927" cy="127.971" rx="7.072" ry="8.95"/>
<path fill="#4E4D50" d="M32.05,124.02c-0.056,0.22-0.095,0.449-0.095,0.691c0,1.261,0.822,2.282,1.835,2.282
	c0.9,0,1.646-0.808,1.801-1.871c0.577,0.757,0.934,1.778,0.934,2.904c0,2.334-1.521,4.226-3.398,4.226
	c-1.876,0-3.398-1.892-3.398-4.226C29.729,126.16,30.701,124.58,32.05,124.02z"/>
<ellipse fill="#CDEAF5" cx="-0.657" cy="130.399" rx="7.182" ry="9.09"/>
<path fill="#CDEAF5" d="M6.758,250.183l-1.971,0.013c-7.287-0.17-12.217-1.14-19.472-0.535c-0.318,0.027-0.631,0.053-0.948,0.08
	c0.74-0.21,1.477-0.409,2.205-0.59c2.761-0.688,5.632-2.661,8.462-2.844c0.54-0.095,1.117,0.311,1.657,0.221l0.607-10.553
	c0,0-17.927-11.297-28.534-21.904c-10.607-10.607-15.938,7.099-15.938,7.099l-2.694,24.853c-0.41,2.117-1.406,6.511-2.775,7.632
	c0,0,0.852,0.845,1.884,0.595l-1.38,12.664c0,0-0.228,6.671,4.413,6.671h10.008c0.28,1,0.582,0.17,0.93,0.173l14.245,0.789
	c0.754,0.007,1.207,0.027,1.207,0.027l13.905,0.139l-0.009-2.189l7.972,0.395l1.158-3.15l12.027,0.079
	C14.696,255.69,11.142,250.773,6.758,250.183z"/>
<ellipse fill="#FFFFFF" cx="-0.546" cy="127.971" rx="7.072" ry="8.95"/>
<path fill="#4E4D50" d="M-2.423,123.357c-0.056,0.22-0.095,0.449-0.095,0.691c0,1.261,0.822,2.282,1.835,2.282
	c0.9,0,1.646-0.808,1.801-1.871c0.577,0.757,0.934,1.778,0.934,2.904c0,2.334-1.521,4.226-3.398,4.226s-3.398-1.892-3.398-4.226
	C-4.744,125.497-3.772,123.917-2.423,123.357z"/>
<path fill="#5B5A5C" d="M-27.851,125.534c0,0,3.088-0.736,6.105-1.138c0.561,5.239,1.652,11.971,1.652,11.971l0.018,0.209
	c0.083,0.339,0.16,0.668,0.243,1.027c0.622,2.648,1.238,4.204,3.721,5.137c2.438,0.92,8.207,1.772,14.025,2.072
	c2.163,0.112,4.619-0.021,7.102-0.382c3.683-0.538,7.014-1.53,8.287-2.471c1.852-1.368,2.843-4.812,3.499-7.091l0.196-0.672
	c0.232-0.777,0.433-1.593,0.628-2.384c0.28-1.136,0.568-2.31,0.815-2.716c0.045-0.071,0.253-0.316,1.062-0.435
	c0.561-0.081,1.27-0.083,2.109-0.006c0.631,0.061,0.633,0.061,0.783,0.676c0.058,0.237,0.118,0.47,0.204,0.718
	c0.032,0.099,0.138,0.666,0.209,1.051c0.501,2.729,1.547,8.409,3.937,10.04c2.54,1.734,5.494,2.573,13.789,2.043
	c1.159-0.074,2.235-0.179,3.173-0.316c4.984-0.726,6.456-2.247,7.1-4.316c0.748-2.43,1.369-6.492,1.394-6.665
	c0.118-0.857,0.354-1.302,0.875-1.645c0.726-0.474,1.681-1.042,1.739-2.302l-0.003-2.984c-0.024-0.953-0.085-1.839-0.533-2.502
	c-0.278-0.412-0.671-0.668-1.199-0.782c-2.187-0.472-6.842-1.291-13.443-1.468c-2.9-0.079-5.7,0.085-8.561,0.503
	c-2.633,0.384-4.731,0.897-6.419,1.308c-0.337,0.083-0.651,0.159-0.945,0.228c-0.945,0.225-1.555,0.36-2.069,0.435
	c-1.007,0.147-1.677,0.055-3.468-0.19l-0.873-0.119c-0.8-0.106-1.848-0.276-3.182-0.492c-4.469-0.724-11.95-1.936-20.682-2.385
	c-6.71-0.343-12.299,0.188-15.502,0.656c0,0-3.418,0.435-6.341,1.672L-27.851,125.534z M32.084,124.477
	c0.172-0.025,0.348-0.049,0.527-0.072l0.381-0.048c2.174-0.279,7.951-1.024,11.963-0.754c2.061,0.139,4.238,0.363,4.758,0.985
	c0.041,0.049,0.137,0.162,0.155,0.549c0.093,1.87-1.098,11.331-1.632,12.156c-0.62,0.954-3.036,2.333-7.711,2.758
	c-4.925,0.443-9.528,0.034-10.968-0.6c-1.205-0.53-1.569-0.69-2.454-4.049c-0.813-3.093-1.145-5.511-1.046-7.612
	C26.133,126.209,28.274,125.033,32.084,124.477z M-16.75,123.969c0.219-0.058,0.575-0.123,1.055-0.193
	c3.061-0.447,9.754-0.887,12.912-0.748c4,0.18,13.761,1.558,15.96,2.544c1.635,0.732,1.559,1.37,1.404,2.642l-0.008,0.062
	c-0.146,1.204-0.937,7.311-2.225,9.391c-1.247,2.01-1.688,2.511-5.566,3.166c-0.166,0.028-0.34,0.055-0.52,0.081
	c-4.183,0.611-11.82,0.718-16.093-0.103l-0.296-0.057c-4.36-0.843-5.891-1.204-6.341-2.56c-0.609-1.833-1.778-10.305-1.865-12.122
	C-18.399,124.693-17.103,124.062-16.75,123.969z"/>
<path fill="#A0D5E9" d="M1.56,105.435c0,0-7.988-3.81-12.56,3.265c0,0-0.472-7.035,5.979-7.821
	C1.431,100.092,1.56,105.435,1.56,105.435z"/>
<path fill="#A0D5E9" d="M-1.436,95.099c0,0-7.405-3.495-10.779,3.222c0,0-1.102-5.868,4.183-7.285
	C-2.748,89.619-1.436,95.099-1.436,95.099z"/>
<path fill="#A0D5E9" d="M28.85,113.063c0,0,6.204-2.959,9.755,2.536c0,0,0.366-5.464-4.644-6.075
	C28.95,108.913,28.85,113.063,28.85,113.063z"/>
<path fill="#A0D5E9" d="M31.176,104.006c0,0,5.752-2.714,8.372,2.502c0,0,0.856-4.558-3.249-5.658
	C32.195,99.75,31.176,104.006,31.176,104.006z"/>
<path fill="#CDEAF5" d="M-30.149,39.107c-1.059-3.251-0.289-13.156-0.289-13.156s-11.48,11.537-16.017,27.467
	c-1.554,5.46-4.78,42.138-4.452,50.416c0,0-3.359-0.498-6.744,0.575c0,0,2.94,2.572,5.157,5.117
	c0.757,3.589,0.516,9.218,0.516,9.218c-0.994-1.823-6.629-3.812-6.629-3.812c2.155,2.486,4.475,10.939,4.475,10.939l-4.309-0.166
	l5.856,7.348c2.486-1.326,11.546-1.215,11.546-1.215c1.05-12.596,3.039-16.794,7.017-26.297
	c7.955-13.038,10.828-17.458,10.828-17.458l-3.715-1.486c3.837-7.692,8.003-13.896,8.003-13.896c-2.487-0.226-6.784,0-6.784,0
	c0-3.392,4.07-13.567,4.07-13.567c-4.476,0.358-13.199,2.416-16.64,3.258c1.193-9.955,2.283-15.079,2.283-15.079
	c-0.599,3.955,3.937,9.276,3.937,9.276C-26.122,39.861,0.677,21.324,5.61,17.899c1.871-4.902,4.464-9.501,4.464-9.501
	C-14.968,15.503-30.149,39.107-30.149,39.107z"/>
<path fill="#5B5A5C" d="M-33.822,68.418c-0.622,0.097-2.623,0.312-2.623,0.312c-18.054,2.759-32.557-10.216-32.557-10.216
	s-0.291,11.081,8.388,20.059c8.682,8.977,24.805,9.311,24.805,9.311c0.704,2.208-0.008,7.32-0.008,7.32s4.25-5.556,4.632-15.453
	C-30.916,72.816-33.437,68.358-33.822,68.418"/>
<path fill="#737F83" d="M-33.822,68.418c-0.599,0.084-2.623,0.312-2.623,0.312c-18.054,2.759-32.557-10.216-32.557-10.216
	s10.268,23.326,37.816,19.153C-31.186,77.667-30.785,73.163-33.822,68.418"/>
<path fill="#5B5A5C" d="M32.015,149.198c0,0-5.019-0.151-6.435-1.429c0,0-11.073,4.842-20.319,1.961
	C5.261,149.731,19.157,165.235,32.015,149.198z"/>
<path fill="#B1DFF0" d="M37.682,166.468c0,0-4.383-2.946-6.971-3.352c0,0-0.564,5.559-3.135,8.298c0,0-5.548-5.002-11.035-5.357
	c0,0-1.417,3.048-3.716,4.178l0.013,0.036c-0.83,0.518-1.846,1.042-2.831,1.261c0,0-3.149-1.906-4.061-5.386
	c0,0-0.303,7.348,4.309,11.353c0,0,3.517-1.716,6.051-4.464c0.761-0.741,1.552-1.603,1.936-2.304c0,0,8.137,5.757,8.434,9.04
	c0,0,5.874-5.727,7.877-10.14c0,0,3.92,1.237,5.008,2.035c0,0,3.151-5.153,3.791-9.804C43.352,161.861,39.563,165.48,37.682,166.468
	z"/>
<path fill="#BFE5F3" d="M-57.669,141.119c0,0,9.281-7.845,16.629-9.281l-7.127-2.762"/>
<path fill="#CDEAF5" d="M3.322,234.373c2.989-0.206,5.193-1.602,5.193-1.602c-10.386-0.221-26.517-10.662-26.517-10.662l3.811-1.271
	c-3.646-0.331-11.877-4.916-11.877-4.916c-6.987-6.743-8.998-17.165-10.53-27.336l-1.182,0.928
	c-0.553-3.315,0.221-8.287,0.221-8.287l0.19,1.013c-0.71-7.575-0.356-11.123-0.356-11.123c-2.486,1.823-11.104,5.635-11.104,5.635
	s-3.646,15.248,9.944,38.285c18.562,29.17,64.306,25.358,64.306,25.358C21.516,240.31,13.416,238.615,3.322,234.373z"/>
<path fill="#EAF6FD" d="M-44.254,224.945c-0.573,1.693-0.975,3.252-1.127,4.432c0.459-0.824,0.949-1.619,1.612-2.331
	c1.246-1.338,2.855-2.59,3.3-4.451c0.319-1.336,0.343-2.805,0.918-4.066c0.638-1.4,1.609-2.517,2.516-3.741
	c0.43-0.581,0.82-1.189,1.141-1.821c0.099-0.214,0.194-0.422,0.282-0.62c0.385-0.94,0.575-1.938,0.45-3.001
	c-0.574-10.716-6.093-18.454-18.142-28.782c0,0,2.652-1.989,8.121-5.304c6.321-3.831,2.085-38.733-3.357-44.346
	c0.008,0.729-0.152,1.618-0.51,2.691c0,0-21.241,18.01-25.882,23.756c0,0,3.757,0.469,6.629,1.574c0,0-12.099,11.795-14.75,15.331
	c0,0,1.768-0.138,3.978,0.083c0,0-5.58,5.58-6.464,7.79c0,0,2.735-1.436,4.723-1.657c0,0-0.58,12.071,3.398,19.805
	c0,0,0.718-2.9,1.823-3.563c0,0,1.934,7.734,6.132,13.259C-65.616,215.046-55.637,226.422-44.254,224.945z"/>
<path fill="#CDEAF5" d="M-50.341,236.129c1.735-1.479,3.119-3.379,4.226-5.408c0.708-1.299,1.328-2.581,2.346-3.675
	c0.837-0.899,1.83-1.763,2.532-2.794c-1.115,0.369-2.35,0.605-3.417,0.727c-0.016,0.002-0.198,0.003-0.198,0.003v0.002
	c-10.607,1.262-20.213-10.336-24.032-15.36c-4.198-5.525-6.768-14.363-6.768-14.363c-1.105,0.663-1.726,4.198-1.726,4.198
	c-3.978-7.735-2.852-19.446-2.852-19.446c-1.989,0.221-4.63,1.547-4.63,1.547c0.884-2.21,6.856-7.513,6.856-7.513
	c-2.21-0.221-4.196,0-4.196,0c2.652-3.535,14.807-15.469,14.807-15.469c-2.873-1.105-6.85-1.326-6.85-1.326
	c19.282-19.115,24.834-22.346,24.834-22.346c0.414-1.492,0.877-3.26,0.869-3.989c-0.453-0.467-0.919-0.76-1.394-0.845l0.442,0.773
	l-19.225,6.961l4.419,3.094c0,0-20.108,15.911-25.633,22.54c0,0,6.409-0.442,7.955,0.221c0,0-11.27,10.165-13.259,13.259
	c0,0,4.198-0.442,5.745,0.663c0,0-7.071,3.757-8.176,11.27c0,0,3.978-1.104,5.304-0.884c0,0,9.226,17.706,16.767,24.667l-4.613-3.01
	c0,0,0.221,5.304,3.315,8.176c0,0-3.978-0.884-8.176-5.304c0,0,0.884,13.48,12.596,19.005l-2.652,0.221
	c0,0,10.829,6.629,24.971,0.663C-50.156,232.384-49.613,234.568-50.341,236.129z"/>
<path fill="#AADAE2" d="M-75.762,212.302c0,0,7.375,10.69,18.866,14.888c0,0-23.231,4.641-28.175-14.695
	c0,0,5.303,4.834,8.176,5.304c0,0-3.785-3.728-3.315-8.176C-80.21,209.624-77.751,211.059-75.762,212.302z"/>
<path fill="#CDEAF5" d="M140.33,157.03c0,0-1.663-0.872-3.204-1.215c3.237-4.118,4.806-9.06,4.806-9.06s-7.127,9.874-20.766,13.231
	l2.812,1.022c-3.278,0.482-8.658,0.123-9.976,0.023c-2.222,0.113-4.564,0.055-7.04-0.244c0,0-3.646,12.595,2.983,16.463
	c7.734,5.524,15.138,1.878,17.568,0.331c0,0-0.111,4.088-1.105,6.077s-3.535,7.513-3.535,7.513s9.723-6.298,11.602-11.602
	c1.878-5.304,2.21-9.723,2.21-9.723s3.536,6.629,3.094,15.193C139.777,185.039,154.583,164.985,140.33,157.03z"/>
<path fill="#AADAE2" d="M-44.18,174.59c-1.61,0.938-3.214,1.888-4.799,2.87c-0.69,3.682-0.142,7.413-0.142,7.413
	c6.132-0.829,11.643-4.226,11.643-4.226l-0.249-9.53C-39.07,172.054-41.776,173.431-44.18,174.59z"/>
<path fill="#AADAE2" d="M-48.664,234.594c0,0,6.611-4.443,8.195-12c0,0,0.092-4.684,3.959-8.441c0,0-2.21,9.668-2.541,13.48
	s-4.309,12.762-10.441,14.916L-48.664,234.594z"/>
<path fill="#91CADB" d="M36.773,237.743c0,0-14.06,9.227-43.064,9.393l0.628-9.98C-5.664,237.156,17.216,244.455,36.773,237.743z"/>
<path fill="#AADAE2" d="M141.197,150.451c0,0-6.149,6.687-12.201,8.249l2.843,0.573c0,0-14.241,4.919-20.072-0.547
	c0,0,14.031-0.782,16.936-1.661l-2.907-0.705c0,0,12.021-4.31,19.177-15.444c0,0,0.303-0.284,0.769-0.586
	C145.243,142.202,142.854,148.48,141.197,150.451z"/>
<g>
	<path fill="#EAF6FD" d="M-9.92,258.248c-1.813-1.482-4.621-1.593-6.088-1.535c-0.422-0.052-0.858-0.089-1.321-0.094
		c0,0,4.819,4.822,4.823,18.052l5.076,0.048c0,0,1.414-10.491-3.416-15.498L-9.92,258.248z"/>
	<path fill="#EAF6FD" d="M17.055,269.167c-0.922-1.313-1.655-3.615-1.883-4.43c-0.105-1.345-0.278-2.844-0.559-4.36l1,0.486
		c-0.551-2.888-2.385-5.599-2.631-5.952c-1.321-2.896-3.375-5.063-6.573-5.094l0.814-1.383c-1.931-0.427-3.273-0.812-5.219-0.763
		c-0.186,0.018-0.37,0.041-0.556,0.056c-0.358,0.032-0.717,0.052-1.075,0.076c-0.394,0.05-0.813,0.115-1.263,0.196
		c0,0,0.013-1.472,1.007-2.134c0,0-3.934,0.243-6.396,0.931c0.262-3.229,0.599-6.989,0.615-9.64
		c-1.66-0.344-3.844-0.811-6.058-1.327c-0.313-0.177-0.688-0.318-1.143-0.407c-6.795-1.326-19.06-5.927-19.06-5.927
		c-0.829,5.801-1.657,21.088-1.657,21.088h8.177c-1.81,1-2.95,1.943-2.95,1.943s0.657-0.11,8.321-1.157
		c7.663-1.048,12.509,2.578,12.509,2.578l0.023-0.178c0.601,0.349,2.684,1.749,4.4,5.269c0.234,0.833,1.624,5.984,0.795,7.786
		l1.305-0.523c0.272,1.921,0.41,4.111,0.348,6.618l5.626,0.034c0,0,0.123-7.691-1.565-13.762l1.529,0.034
		c-0.903-2.968-3.246-5.038-4.738-6.106c-0.403-0.352-0.838-0.642-1.312-0.837c0,0,11.187-1.376,11.626,17.557l1.955,0.017
		l4.969,0.23C17.288,269.789,17.159,269.483,17.055,269.167z M-3.043,259.16c0.424,0.885,0.824,1.897,1.17,3.061L-3.043,259.16z"/>
</g>
<path fill="#84C0CE" d="M56.247,258.957c-0.951-2.717-3.236-5.208-4.029-6.02c-5.2-7.314-14.122-8.013-14.122-8.013
	c16.184,3.793,15.184,19.801,15.184,19.801l0.869-0.142h1.705c-0.065-2-0.383-4.152-0.885-5.936L56.247,258.957z"/>
<g>
	<path fill="#FFFFFF" d="M359.878,189.327c0.031,0.765,0.031,2.018,0,2.783s-1.548,1.391-3.198,1.391h-15.285
		c-1.65,0-3.057-0.28-3.128-0.623c-0.07-0.343-0.102-2.786-0.07-3.551c0.031-0.765,1.548-1.391,3.198-1.391h15.285
		C358.33,187.936,359.847,188.562,359.878,189.327z"/>
</g>
<g>
	<path fill="#FFFFFF" d="M126.1,82.896c0-5.058,3.835-8.271,8.534-8.271c3.308,0,5.394,1.678,6.592,3.572l-2.805,1.534
		c-0.743-1.126-2.109-2.085-3.787-2.085c-2.925,0-5.034,2.229-5.034,5.25s2.109,5.25,5.034,5.25c1.414,0,2.732-0.623,3.38-1.222
		v-1.918h-4.219v-2.973h7.623v6.137c-1.63,1.822-3.907,2.997-6.784,2.997C129.936,91.166,126.1,87.929,126.1,82.896z"/>
	<path fill="#FFFFFF" d="M144.371,90.878V74.889h11.314v2.997h-7.91v3.356h7.743v2.997h-7.743v3.644h7.91v2.997H144.371z"/>
	<path fill="#FFFFFF" d="M162.282,90.878V77.885h-4.675v-2.997h12.753v2.997h-4.65v12.993H162.282z"/>
	<path fill="#FFFFFF" d="M176.477,90.878V77.885h-4.675v-2.997h12.753v2.997h-4.65v12.993H176.477z"/>
	<path fill="#FFFFFF" d="M186.979,90.878V74.889h3.404v15.989H186.979z"/>
	<path fill="#FFFFFF" d="M204.816,90.878l-7.623-10.428v10.428h-3.404V74.889h3.5l7.407,10.044V74.889h3.404v15.989H204.816z"/>
	<path fill="#FFFFFF" d="M210.742,82.896c0-5.058,3.835-8.271,8.534-8.271c3.309,0,5.394,1.678,6.593,3.572l-2.805,1.534
		c-0.743-1.126-2.109-2.085-3.789-2.085c-2.924,0-5.034,2.229-5.034,5.25s2.109,5.25,5.034,5.25c1.415,0,2.734-0.623,3.38-1.222
		v-1.918h-4.219v-2.973h7.624v6.137c-1.63,1.822-3.907,2.997-6.785,2.997C214.577,91.166,210.742,87.929,210.742,82.896z"/>
	<path fill="#FFFFFF" d="M234.312,88.625l1.87-2.661c1.126,1.174,2.876,2.181,5.082,2.181c1.894,0,2.78-0.839,2.78-1.774
		c0-2.781-9.205-0.839-9.205-6.855c0-2.661,2.301-4.866,6.064-4.866c2.541,0,4.65,0.767,6.233,2.229l-1.895,2.541
		c-1.294-1.198-3.021-1.75-4.65-1.75c-1.438,0-2.253,0.624-2.253,1.583c0,2.517,9.181,0.815,9.181,6.784
		c0,2.925-2.109,5.13-6.4,5.13C238.028,91.166,235.822,90.135,234.312,88.625z"/>
	<path fill="#FFFFFF" d="M253.421,90.878V77.885h-4.674v-2.997H261.5v2.997h-4.65v12.993H253.421z"/>
	<path fill="#FFFFFF" d="M273.441,90.878l-1.007-2.709h-6.855l-1.007,2.709h-3.859l6.16-15.989h4.268l6.16,15.989H273.441z
		 M269.006,78.293l-2.493,6.88h4.986L269.006,78.293z"/>
	<path fill="#FFFFFF" d="M288.068,90.878l-3.14-5.681h-2.493v5.681h-3.404V74.889h7.479c3.332,0,5.394,2.182,5.394,5.154
		c0,2.805-1.798,4.339-3.524,4.746l3.62,6.089H288.068z M288.404,80.019c0-1.319-1.031-2.134-2.373-2.134h-3.596V82.2h3.596
		C287.373,82.2,288.404,81.385,288.404,80.019z"/>
	<path fill="#FFFFFF" d="M298.14,90.878V77.885h-4.674v-2.997h12.753v2.997h-4.65v12.993H298.14z"/>
	<path fill="#FFFFFF" d="M308.644,90.878V74.889h11.314v2.997h-7.91v3.356h7.742v2.997h-7.742v3.644h7.91v2.997H308.644z"/>
	<path fill="#FFFFFF" d="M322.863,90.878V74.889h6.305c5.01,0,8.486,3.188,8.486,7.983c0,4.842-3.477,8.006-8.463,8.006H322.863z
		 M334.177,82.872c0-2.805-1.726-4.986-4.986-4.986h-2.924v9.996h2.9C332.332,87.881,334.177,85.604,334.177,82.872z"/>
	<path fill="#FFFFFF" d="M133.542,119.652l-2.805-10.979l-2.781,10.979h-3.62l-4.579-15.989h3.812l2.805,11.555l3.044-11.555h2.661
		l3.021,11.555l2.805-11.555h3.812l-4.555,15.989H133.542z"/>
	<path fill="#FFFFFF" d="M143.568,119.652v-15.989h3.404v15.989H143.568z"/>
	<path fill="#FFFFFF" d="M154.069,119.652v-12.993h-4.675v-2.997h12.753v2.997h-4.65v12.993H154.069z"/>
	<path fill="#FFFFFF" d="M175.527,119.652v-6.736h-7.551v6.736h-3.404v-15.989h3.404v6.281h7.551v-6.281h3.428v15.989H175.527z"/>
	<path fill="#FFFFFF" d="M188.742,119.652v-15.989h11.314v2.997h-7.911v3.356h7.743v2.997h-7.743v6.64H188.742z"/>
	<path fill="#FFFFFF" d="M201.906,111.669c0-4.818,3.524-8.271,8.366-8.271c4.818,0,8.342,3.452,8.342,8.271s-3.524,8.27-8.342,8.27
		C205.43,119.939,201.906,116.488,201.906,111.669z M215.114,111.669c0-2.997-1.894-5.25-4.842-5.25
		c-2.973,0-4.866,2.253-4.866,5.25c0,2.972,1.894,5.25,4.866,5.25C213.22,116.919,215.114,114.642,215.114,111.669z"/>
	<path fill="#FFFFFF" d="M221.256,113.251v-9.589h3.452v9.493c0,2.229,1.294,3.763,3.764,3.763c2.469,0,3.739-1.534,3.739-3.763
		v-9.493h3.476v9.589c0,3.955-2.349,6.688-7.215,6.688S221.256,117.207,221.256,113.251z"/>
	<path fill="#FFFFFF" d="M250.124,119.652l-7.623-10.428v10.428h-3.404v-15.989h3.5l7.407,10.044v-10.044h3.404v15.989H250.124z"/>
	<path fill="#FFFFFF" d="M256.816,119.652v-15.989h6.305c5.01,0,8.486,3.188,8.486,7.983c0,4.842-3.477,8.006-8.463,8.006H256.816z
		 M268.13,111.646c0-2.805-1.726-4.986-4.986-4.986h-2.924v9.996h2.9C266.285,116.655,268.13,114.378,268.13,111.646z"/>
	<path fill="#FFFFFF" d="M284.507,119.652l-1.007-2.709h-6.855l-1.007,2.709h-3.859l6.16-15.989h4.268l6.16,15.989H284.507z
		 M280.073,107.067l-2.493,6.88h4.986L280.073,107.067z"/>
	<path fill="#FFFFFF" d="M292.254,119.652v-12.993h-4.674v-2.997h12.753v2.997h-4.65v12.993H292.254z"/>
	<path fill="#FFFFFF" d="M302.757,119.652v-15.989h3.404v15.989H302.757z"/>
	<path fill="#FFFFFF" d="M308.8,111.669c0-4.818,3.523-8.271,8.365-8.271c4.818,0,8.343,3.452,8.343,8.271s-3.524,8.27-8.343,8.27
		C312.324,119.939,308.8,116.488,308.8,111.669z M322.008,111.669c0-2.997-1.894-5.25-4.843-5.25c-2.972,0-4.866,2.253-4.866,5.25
		c0,2.972,1.895,5.25,4.866,5.25C320.115,116.919,322.008,114.642,322.008,111.669z"/>
	<path fill="#FFFFFF" d="M339.178,119.652l-7.623-10.428v10.428h-3.404v-15.989h3.5l7.407,10.044v-10.044h3.404v15.989H339.178z"/>
</g>
<g>
	<defs>
		<polygon id="SVGID_5_" points="134.453,140.543 143.341,140.329 154.958,127.068 146.083,121.443 138.083,125.318 		"/>
	</defs>
	<clipPath id="SVGID_6_">
		<use xlink:href="#SVGID_5_"  overflow="visible"/>
	</clipPath>
	<g clip-path="url(#SVGID_6_)">
		<path fill="#FFFFFF" d="M149.617,123.965c0.652,0.402,1.69,1.103,2.307,1.557c0.617,0.454,0.287,2.061-0.636,3.429l-8.55,12.67
			c-0.923,1.368-1.943,2.377-2.266,2.244c-0.323-0.134-2.366-1.474-2.983-1.928c-0.617-0.454-0.287-2.061,0.636-3.429l8.55-12.67
			C147.597,124.469,148.965,123.562,149.617,123.965z"/>
	</g>
	<g clip-path="url(#SVGID_6_)">
		<defs>
			<polygon id="SVGID_7_" points="138.333,144.208 151.958,124.435 154.083,127.583 142.184,144.668 			"/>
		</defs>
		<clipPath id="SVGID_8_">
			<use xlink:href="#SVGID_7_"  overflow="visible"/>
		</clipPath>
		<g opacity="0.1" clip-path="url(#SVGID_8_)">
			<path d="M149.617,124.057c0.652,0.402,1.69,1.103,2.307,1.557c0.617,0.454,0.287,2.061-0.636,3.429l-8.55,12.67
				c-0.923,1.368-1.943,2.377-2.266,2.244s-2.366-1.474-2.983-1.928c-0.617-0.454-0.287-2.061,0.636-3.429l8.55-12.67
				C147.597,124.562,148.965,123.655,149.617,124.057z"/>
		</g>
	</g>
</g>
<path fill="#CDEAF5" d="M144.891,141.675c0,0-15.402-2.04-32.157,5.493c0,0,1.171-1.464,2.535-1.949l-1.254-0.027
	c0,0,12.363-7.294,31.727-4.861L144.891,141.675z"/>
<g>
	<path fill="#FFFFFF" d="M333.901,189.327c0.019,0.765,0.019,2.018,0,2.783c-0.019,0.765-1.469,1.391-3.119,1.391h-6.795
		c-1.65,0-3.034-0.28-3.077-0.623c-0.042-0.343-0.061-2.786-0.042-3.551c0.019-0.765,1.469-1.391,3.119-1.391h6.795
		C332.432,187.936,333.882,188.562,333.901,189.327z"/>
</g>
<path fill="#FFFFFF" d="M287.672,134.272c-37.187-0.58-74.285,0.603-111.333,1.409c-6.393,0.139-6.438,3.16,0,3.02
	c37.048-0.806,74.146-1.99,111.333-1.409C294.119,137.393,294.087,134.372,287.672,134.272z"/>
</svg>
