<?xml version="1.0" encoding="utf-8"?>
<!-- Generator: Adobe Illustrator 17.0.0, SVG Export Plug-In . SVG Version: 6.00 Build 0)  -->
<!DOCTYPE svg PUBLIC "-//W3C//DTD SVG 1.1//EN" "http://www.w3.org/Graphics/SVG/1.1/DTD/svg11.dtd">
<svg version="1.1" id="Layer_1" xmlns="http://www.w3.org/2000/svg" xmlns:xlink="http://www.w3.org/1999/xlink" x="0px" y="0px"
	 width="734.667px" height="290.167px" viewBox="0 55.167 734.667 290.167" enable-background="new 0 55.167 734.667 290.167"
	 xml:space="preserve">
<path fill="#E5E5E5" d="M263.774,251.111c0,1.475-1.342,2.671-2.996,2.671H10.683c-1.655,0-2.996-1.196-2.996-2.671l0,0
	c0-1.475,1.342-2.671,2.996-2.671h250.094C262.432,248.441,263.774,249.636,263.774,251.111L263.774,251.111z"/>
<g>
	<line fill="none" stroke="#737F82" stroke-miterlimit="10" x1="9.424" y1="269.941" x2="380.9" y2="269.941"/>
	<polygon fill="#737F82" points="8.445,269.941 11.292,267.094 11.292,272.788 	"/>
	<polygon fill="#064F68" points="383.747,269.941 380.9,272.788 380.9,267.094 	"/>
</g>
<rect x="27" y="259.414" fill="#FFFFFF" width="130.851" height="18.871"/>
<g>
	<g>
		<g>
			<path fill="#064F68" d="M269.667,239.267c0,5.5-4.5,10-10,10H17.863c-5.5,0-10-4.5-10-10V106.918c0-5.5,4.5-10,10-10h241.804
				c5.5,0,10,4.5,10,10V239.267z"/>
		</g>
	</g>
	<g>
		<g opacity="0.6">
			<circle opacity="0.05" fill="#FFFFFF" enable-background="new    " cx="112.1" cy="119.424" r="4.528"/>
			<circle fill="#9FD2E7" cx="112.1" cy="119.424" r="1.601"/>
		</g>
		<g>
			<circle opacity="0.6" fill="#028CB9" enable-background="new    " cx="150.843" cy="184.783" r="1.238"/>
			<circle opacity="0.6" fill="#028CB9" enable-background="new    " cx="205.728" cy="209.543" r="1.238"/>
			<circle opacity="0.6" fill="#028CB9" enable-background="new    " cx="175.603" cy="225.225" r="1.238"/>
			<circle opacity="0.6" fill="#028CB9" enable-background="new    " cx="169.413" cy="154.803" r="1.238"/>
			<g opacity="0.6">
				<circle opacity="0.05" fill="#FFFFFF" enable-background="new    " cx="198.491" cy="191.265" r="4.528"/>
				<circle fill="#9FD2E7" cx="198.491" cy="191.265" r="1.601"/>
			</g>
			<g opacity="0.6">
				<circle opacity="0.05" fill="#FFFFFF" enable-background="new    " cx="195.209" cy="222.867" r="9.281"/>
				<circle fill="#9FD2E7" cx="195.209" cy="222.867" r="3.282"/>
				<circle opacity="0.1" fill="#FFFFFF" enable-background="new    " cx="195.209" cy="223.008" r="5.858"/>
			</g>
			<g opacity="0.6">
				<circle opacity="0.05" fill="#FFFFFF" enable-background="new    " cx="182.675" cy="207.269" r="5.561"/>
				<circle fill="#9FD2E7" cx="182.675" cy="207.269" r="1.967"/>
			</g>
			<g>
				<circle opacity="0.6" fill="#028CB9" enable-background="new    " cx="223.901" cy="200.07" r="0.872"/>
				<circle opacity="0.6" fill="#028CB9" enable-background="new    " cx="249.439" cy="189.169" r="0.872"/>
				<circle opacity="0.6" fill="#028CB9" enable-background="new    " cx="241.35" cy="228.57" r="0.872"/>
				<circle opacity="0.6" fill="#028CB9" enable-background="new    " cx="204.707" cy="126.014" r="0.872"/>
				<circle opacity="0.6" fill="#028CB9" enable-background="new    " cx="166.029" cy="108.565" r="0.872"/>
				<circle opacity="0.6" fill="#028CB9" enable-background="new    " cx="222.156" cy="154.514" r="0.872"/>
				<circle opacity="0.6" fill="#028CB9" enable-background="new    " cx="144.799" cy="166.146" r="0.872"/>
				<circle opacity="0.6" fill="#028CB9" enable-background="new    " cx="183.478" cy="137.065" r="0.872"/>
				<g opacity="0.6">
					<circle opacity="0.05" fill="#FFFFFF" enable-background="new    " cx="241.494" cy="181.41" r="3.919"/>
					<circle fill="#9FD2E7" cx="241.494" cy="181.41" r="1.386"/>
				</g>
				<g opacity="0.6">
					<circle opacity="0.05" fill="#FFFFFF" enable-background="new    " cx="256.763" cy="176.624" r="6.165"/>
					<circle fill="#9FD2E7" cx="256.763" cy="176.624" r="2.18"/>
					<circle opacity="0.1" fill="#FFFFFF" enable-background="new    " cx="256.67" cy="176.624" r="3.891"/>
				</g>
				<g opacity="0.6">
					<circle opacity="0.05" fill="#FFFFFF" enable-background="new    " cx="191.884" cy="120.837" r="6.541"/>
					<circle fill="#9FD2E7" cx="191.884" cy="120.837" r="2.313"/>
					<circle opacity="0.1" fill="#FFFFFF" enable-background="new    " cx="191.967" cy="120.784" r="4.128"/>
				</g>
				<g opacity="0.6">
					<circle opacity="0.05" fill="#FFFFFF" enable-background="new    " cx="203.046" cy="136.567" r="3.919"/>
					<circle fill="#9FD2E7" cx="203.046" cy="136.567" r="1.386"/>
				</g>
				<g opacity="0.6">
					<circle opacity="0.05" fill="#FFFFFF" enable-background="new    " cx="233.506" cy="115.364" r="3.191"/>
					<circle fill="#9FD2E7" cx="233.506" cy="115.364" r="1.128"/>
				</g>
				<g opacity="0.6">
					<circle opacity="0.05" fill="#FFFFFF" enable-background="new    " cx="227.964" cy="234.992" r="3.191"/>
					<circle fill="#9FD2E7" cx="227.964" cy="234.992" r="1.128"/>
				</g>
				<g opacity="0.6">
					<circle opacity="0.05" fill="#FFFFFF" enable-background="new    " cx="161.966" cy="176.751" r="3.191"/>
					<circle fill="#9FD2E7" cx="161.966" cy="176.751" r="1.128"/>
				</g>
			</g>
			<circle opacity="0.6" fill="#028CB9" enable-background="new    " cx="48.317" cy="205.681" r="1.238"/>
			<circle opacity="0.6" fill="#028CB9" enable-background="new    " cx="68.734" cy="234.325" r="1.238"/>
			<circle opacity="0.6" fill="#028CB9" enable-background="new    " cx="21.751" cy="203.906" r="1.238"/>
			<circle opacity="0.6" fill="#028CB9" enable-background="new    " cx="101.658" cy="151.48" r="1.238"/>
			<g opacity="0.6">
				<circle opacity="0.05" fill="#FFFFFF" enable-background="new    " cx="35.836" cy="210.538" r="3.888"/>
				<circle fill="#9FD2E7" cx="35.836" cy="210.538" r="1.375"/>
			</g>
			<g opacity="0.6">
				<circle opacity="0.05" fill="#FFFFFF" enable-background="new    " cx="23.915" cy="220.442" r="6.117"/>
				<circle fill="#9FD2E7" cx="23.915" cy="220.442" r="2.163"/>
				<circle opacity="0.1" fill="#FFFFFF" enable-background="new    " cx="23.877" cy="220.527" r="3.861"/>
			</g>
			<circle opacity="0.6" fill="#028CB9" enable-background="new    " cx="113.251" cy="132.801" r="1.238"/>
			<g opacity="0.6">
				<circle opacity="0.05" fill="#FFFFFF" enable-background="new    " cx="103.384" cy="126.594" r="1.779"/>
				<circle fill="#9FD2E7" cx="103.384" cy="126.594" r="0.629"/>
			</g>
			<g>
				<circle opacity="0.6" fill="#028CB9" enable-background="new    " cx="64.357" cy="146.428" r="0.872"/>
				<circle opacity="0.6" fill="#028CB9" enable-background="new    " cx="38.82" cy="157.329" r="0.872"/>
				<circle opacity="0.6" fill="#028CB9" enable-background="new    " cx="46.908" cy="117.928" r="0.872"/>
				<circle opacity="0.6" fill="#028CB9" enable-background="new    " cx="83.551" cy="220.484" r="0.872"/>
				<circle opacity="0.6" fill="#028CB9" enable-background="new    " cx="122.23" cy="237.933" r="0.872"/>
				<circle opacity="0.6" fill="#028CB9" enable-background="new    " cx="66.102" cy="191.985" r="0.872"/>
				<circle opacity="0.6" fill="#028CB9" enable-background="new    " cx="143.459" cy="180.352" r="0.872"/>
				<circle opacity="0.6" fill="#028CB9" enable-background="new    " cx="104.781" cy="209.433" r="0.872"/>
				<g opacity="0.6">
					<circle opacity="0.05" fill="#FFFFFF" enable-background="new    " cx="46.765" cy="165.088" r="3.919"/>
					<circle fill="#9FD2E7" cx="46.765" cy="165.088" r="1.386"/>
				</g>
				<g opacity="0.6">
					<circle opacity="0.05" fill="#FFFFFF" enable-background="new    " cx="31.495" cy="169.874" r="6.165"/>
					<circle fill="#9FD2E7" cx="31.495" cy="169.874" r="2.18"/>
					<circle opacity="0.1" fill="#FFFFFF" enable-background="new    " cx="31.589" cy="169.874" r="3.891"/>
				</g>
				<g opacity="0.6">
					<circle opacity="0.05" fill="#FFFFFF" enable-background="new    " cx="96.375" cy="225.661" r="6.541"/>
					<circle fill="#9FD2E7" cx="96.375" cy="225.661" r="2.313"/>
					<circle opacity="0.1" fill="#FFFFFF" enable-background="new    " cx="96.291" cy="225.714" r="4.128"/>
				</g>
				<g opacity="0.6">
					<circle opacity="0.05" fill="#FFFFFF" enable-background="new    " cx="85.212" cy="209.932" r="3.919"/>
					<circle fill="#9FD2E7" cx="85.212" cy="209.932" r="1.386"/>
				</g>
				<g opacity="0.6">
					<circle opacity="0.05" fill="#FFFFFF" enable-background="new    " cx="54.752" cy="231.134" r="3.191"/>
					<circle fill="#9FD2E7" cx="54.752" cy="231.134" r="1.128"/>
				</g>
				<g opacity="0.6">
					<circle opacity="0.05" fill="#FFFFFF" enable-background="new    " cx="60.294" cy="111.506" r="3.191"/>
					<circle fill="#9FD2E7" cx="60.294" cy="111.506" r="1.128"/>
				</g>
				<g opacity="0.6">
					<circle opacity="0.05" fill="#FFFFFF" enable-background="new    " cx="126.293" cy="169.747" r="3.191"/>
					<circle fill="#9FD2E7" cx="126.293" cy="169.747" r="1.128"/>
				</g>
			</g>
		</g>
	</g>
	<g>
		<g>
			
				<circle opacity="0.1" fill="#FFFFFF" stroke="#FFFFFF" stroke-miterlimit="10" enable-background="new    " cx="203.025" cy="153.576" r="49.534"/>
			
				<circle opacity="0.1" fill="#FFFFFF" stroke="#FFFFFF" stroke-miterlimit="10" enable-background="new    " cx="203.025" cy="153.576" r="43.204"/>
			<g>
				<g>
					<path fill="#5B5A5C" d="M230.016,175.666c0.343,1.744-1.154,3.51-3.343,3.943l-35.679,7.053
						c-2.189,0.433-4.242-0.63-4.585-2.375l-10.372-52.804c-0.343-1.744,1.154-3.51,3.343-3.943l35.679-7.053
						c2.189-0.433,4.242,0.631,4.585,2.375L230.016,175.666L230.016,175.666L230.016,175.666L230.016,175.666z"/>
					<path fill="#737F83" d="M190.831,187.624c-2.697,0.388-5.137-0.979-5.556-3.112l-10.373-52.804
						c-0.213-1.085,0.116-2.209,0.929-3.168c0.811-0.957,2.009-1.633,3.37-1.901l35.679-7.053c2.83-0.565,5.46,0.832,5.894,3.054
						l10.372,52.804c0.213,1.085-0.116,2.209-0.929,3.168c-0.811,0.957-2.009,1.633-3.371,1.902l-35.679,7.053
						C191.058,187.587,190.944,187.607,190.831,187.624C190.831,187.624,190.944,187.607,190.831,187.624L190.831,187.624
						L190.831,187.624z M215.424,121.357c-0.062,0.009-0.127,0.02-0.189,0.033l-35.679,7.053c-0.757,0.15-1.422,0.525-1.873,1.057
						c-0.451,0.532-0.635,1.157-0.516,1.76l10.372,52.804c0.243,1.235,1.701,2.015,3.275,1.697l35.679-7.053
						c0.757-0.15,1.422-0.525,1.873-1.057c0.451-0.532,0.635-1.157,0.516-1.76l-10.373-52.804
						C218.277,121.901,216.923,121.141,215.424,121.357C215.424,121.357,216.923,121.141,215.424,121.357L215.424,121.357
						L215.424,121.357z"/>
					<polygon id="Rectangle_27_" fill="#737F83" points="223.491,169.43 190.085,176.033 182.374,136.774 215.78,130.171 					"/>
					<path id="Shape_11_" fill="#3F3F3F" d="M203.12,128.597c0.041,0.215-0.133,0.371-0.68,0.479l-9.269,1.832
						c-0.547,0.108-0.769,0.03-0.81-0.184l-0.036-0.182c-0.041-0.215,0.122-0.428,0.669-0.536l9.269-1.832
						c0.547-0.108,0.781,0.026,0.822,0.241L203.12,128.597L203.12,128.597L203.12,128.597L203.12,128.597z"/>
					<circle id="Oval_9_" fill="#3F3F3F" cx="207.664" cy="177.565" r="2.932"/>
				</g>
				<polygon fill="#E8F6FD" points="214.669,135.774 185.071,141.49 184.513,138.54 214.11,132.824 				"/>
				<polygon fill="#E8F6FD" points="216.12,143.443 186.523,149.159 185.295,142.67 214.892,136.953 				"/>
				<polygon fill="#E8F6FD" points="196.449,157.027 188.31,158.599 186.858,150.929 194.997,149.357 				"/>
				<polygon fill="#E8F6FD" points="207.548,154.883 197.929,156.741 196.477,149.071 206.096,147.214 				"/>
				<polygon fill="#E8F6FD" points="217.907,152.883 209.768,154.455 208.316,146.785 216.455,145.213 				"/>
				<polygon fill="#E8F6FD" points="218.395,155.38 189.133,161.031 188.979,160.213 218.24,154.562 				"/>
				<polygon fill="#E8F6FD" points="218.807,157.555 189.545,163.206 189.39,162.388 218.652,156.737 				"/>
				<polygon fill="#E8F6FD" points="219.219,159.73 189.957,165.381 189.802,164.563 219.064,158.912 				"/>
				<polygon fill="#E8F6FD" points="219.63,161.905 190.368,167.557 190.214,166.738 219.476,161.087 				"/>
				<polygon fill="#E8F6FD" points="221.034,169.402 191.436,175.118 190.32,169.218 219.917,163.502 				"/>
			</g>
		</g>
		<g>
			
				<circle opacity="0.1" fill="#FFFFFF" stroke="#FFFFFF" stroke-miterlimit="10" enable-background="new    " cx="100.189" cy="166.793" r="15.586"/>
			
				<circle opacity="0.1" fill="#FFFFFF" stroke="#FFFFFF" stroke-miterlimit="10" enable-background="new    " cx="100.189" cy="166.793" r="13.042"/>
			<g>
				<g>
					<path fill="#5B5A5C" d="M102.575,176.907c-0.197,0.539-0.793,0.816-1.332,0.619l-8.78-3.21
						c-0.539-0.197-0.816-0.793-0.619-1.332l5.961-16.306c0.197-0.539,0.793-0.816,1.332-0.619l8.78,3.21
						c0.539,0.197,0.816,0.793,0.619,1.332L102.575,176.907L102.575,176.907L102.575,176.907L102.575,176.907z"/>
					<path fill="#737F83" d="M92.278,174.562c-0.641-0.283-0.955-1.021-0.714-1.68l5.961-16.306
						c0.123-0.335,0.368-0.602,0.692-0.753c0.323-0.15,0.686-0.165,1.021-0.043l8.78,3.21c0.697,0.253,1.047,1.027,0.796,1.713
						l-5.961,16.306c-0.123,0.335-0.368,0.602-0.692,0.753c-0.323,0.15-0.686,0.165-1.021,0.043l-8.78-3.21
						C92.333,174.585,92.305,174.574,92.278,174.562C92.278,174.562,92.305,174.574,92.278,174.562L92.278,174.562L92.278,174.562z
						 M107.861,159.567c-0.015-0.007-0.03-0.013-0.046-0.018l-8.78-3.21c-0.186-0.068-0.388-0.059-0.567,0.024
						c-0.18,0.083-0.316,0.232-0.384,0.418l-5.961,16.306c-0.139,0.381,0.054,0.812,0.442,0.952l8.78,3.21
						c0.186,0.068,0.388,0.059,0.567-0.024c0.18-0.083,0.316-0.232,0.384-0.418l5.961-16.306
						C108.391,160.134,108.217,159.724,107.861,159.567C107.861,159.567,108.217,159.724,107.861,159.567L107.861,159.567
						L107.861,159.567z"/>
					
						<rect id="Rectangle_26_" x="95.863" y="160.196" transform="matrix(-0.9392 -0.3434 0.3434 -0.9392 137.1563 357.5879)" fill="#737F83" width="8.753" height="12.908"/>
					<path id="Shape_10_" fill="#3F3F3F" d="M104.086,159.807c-0.024,0.066-0.086,0.085-0.221,0.035l-2.281-0.834
						c-0.135-0.049-0.17-0.103-0.146-0.169l0.02-0.056c0.024-0.066,0.093-0.102,0.227-0.053l2.281,0.834
						c0.135,0.049,0.164,0.121,0.14,0.187L104.086,159.807L104.086,159.807L104.086,159.807L104.086,159.807z"/>
					<circle id="Oval_8_" fill="#3F3F3F" cx="97.465" cy="174.19" r="0.946"/>
				</g>
				
					<rect x="98.02" y="161.125" transform="matrix(-0.9373 -0.3485 0.3485 -0.9373 141.2509 348.6204)" fill="#E8F6FD" width="7.925" height="0.961"/>
				
					<rect x="96.89" y="162.363" transform="matrix(-0.9373 -0.3485 0.3485 -0.9373 138.0026 354.114)" fill="#E8F6FD" width="7.925" height="4.563"/>
				
					<rect x="95.682" y="166.195" transform="matrix(-0.9373 -0.3485 0.3485 -0.9373 129.3532 358.0598)" fill="#E8F6FD" width="2.401" height="2.401"/>
				
					<rect x="98.301" y="167.659" transform="matrix(-0.9373 -0.3485 0.3485 -0.9373 136.4761 362.2699)" fill="#E8F6FD" width="5.043" height="2.401"/>
				
					<rect x="94.636" y="168.888" transform="matrix(-0.9373 -0.3485 0.3485 -0.9373 126.3464 363.146)" fill="#E8F6FD" width="2.401" height="2.642"/>
				
					<rect x="97.254" y="170.353" transform="matrix(-0.9373 -0.3485 0.3485 -0.9373 133.4666 367.3568)" fill="#E8F6FD" width="5.043" height="2.642"/>
			</g>
		</g>
		<g>
			
				<circle opacity="0.1" fill="#FFFFFF" stroke="#FFFFFF" stroke-miterlimit="10" enable-background="new    " cx="134.256" cy="213.355" r="26.458"/>
			
				<circle opacity="0.1" fill="#FFFFFF" stroke="#FFFFFF" stroke-miterlimit="10" enable-background="new    " cx="134.256" cy="213.355" r="23.595"/>
			<g>
				<g>
					<path id="Shape_9_" fill="#5B5A5D" d="M135.035,197.526c-0.005,0.001-0.009,0.004-0.013,0.006
						c-0.428-0.634-2.063-1.528-8.302,1.832c-6.8,3.663-6.43,5.431-6.093,5.937c-0.009,0.006-0.02,0.01-0.028,0.017l12.928,23.958
						l0.006-0.009c0.351,0.59,1.852,1.527,8.258-1.923c6.909-3.721,6.355-5.601,5.994-6.113L135.035,197.526L135.035,197.526
						L135.035,197.526L135.035,197.526z"/>
					
						<rect id="Rectangle_25_" x="126.84" y="201.244" transform="matrix(-0.8804 0.4742 -0.4742 -0.8804 353.3707 337.259)" fill="#3F3F3F" width="14.641" height="23.886"/>
					
						<rect id="Rectangle_24_" x="126.657" y="202.059" transform="matrix(-0.8804 0.4742 -0.4742 -0.8804 352.8657 336.7072)" fill="#737F83" width="14.641" height="21.575"/>
					
						<rect id="Rectangle_23_" x="122.091" y="203.214" transform="matrix(-0.8804 0.4742 -0.4742 -0.8804 340.2596 322.9309)" fill="#8C989B" width="14.641" height="2.311"/>
					
						<rect id="Rectangle_22_" x="133.508" y="224.626" transform="matrix(-0.8804 0.4742 -0.4742 -0.8804 360.8325 359.7979)" fill="#5B5A5C" width="3.082" height="1.541"/>
					
						<rect id="Rectangle_21_" x="137.577" y="222.435" transform="matrix(-0.8804 0.4742 -0.4742 -0.8804 367.4457 353.7469)" fill="#5B5A5C" width="3.082" height="1.541"/>
					
						<rect id="Rectangle_20_" x="141.647" y="220.241" transform="matrix(-0.8804 0.4742 -0.4742 -0.8804 374.0586 347.6922)" fill="#5B5A5C" width="3.082" height="1.541"/>
				</g>
				
					<rect x="124.972" y="208.377" transform="matrix(-0.8781 0.4785 -0.4785 -0.8781 337.6788 332.6545)" fill="#E8F6FD" width="2.981" height="1.933"/>
				
					<rect x="126.524" y="208.174" transform="matrix(-0.8781 0.4785 -0.4785 -0.8781 350.7548 332.4615)" fill="#E8F6FD" width="13.004" height="5.477"/>
				
					<rect x="129.627" y="215.887" transform="matrix(-0.8781 0.4785 -0.4785 -0.8781 351.2585 346.0592)" fill="#E8F6FD" width="3.836" height="3.777"/>
				
					<rect x="133.653" y="213.694" transform="matrix(-0.8781 0.4785 -0.4785 -0.8781 357.7694 340.0145)" fill="#E8F6FD" width="3.836" height="3.777"/>
				
					<rect x="127.834" y="205.093" transform="matrix(-0.8781 0.4785 -0.4785 -0.8781 347.4217 323.6046)" fill="#E8F6FD" width="9.306" height="1.933"/>
				
					<rect x="137.678" y="211.501" transform="matrix(-0.8781 0.4785 -0.4785 -0.8781 364.2789 333.9684)" fill="#E8F6FD" width="3.836" height="3.777"/>
				
					<rect x="130.473" y="217.934" transform="matrix(-0.8781 0.4785 -0.4785 -0.8781 361.6417 344.1857)" fill="#E8F6FD" width="13.004" height="0.456"/>
				
					<rect x="131.054" y="218.999" transform="matrix(-0.8781 0.4785 -0.4785 -0.8781 363.241 345.9083)" fill="#E8F6FD" width="13.004" height="0.456"/>
				
					<rect x="131.633" y="220.063" transform="matrix(-0.8781 0.4785 -0.4785 -0.8781 364.8391 347.6295)" fill="#E8F6FD" width="13.004" height="0.456"/>
				
					<rect x="132.215" y="221.128" transform="matrix(-0.8781 0.4785 -0.4785 -0.8781 366.4398 349.3508)" fill="#E8F6FD" width="13.004" height="0.456"/>
			</g>
		</g>
		<g>
			
				<circle opacity="0.1" fill="#FFFFFF" stroke="#FFFFFF" stroke-miterlimit="10" enable-background="new    " cx="76.228" cy="199.314" r="10.777"/>
			
				<circle opacity="0.1" fill="#FFFFFF" stroke="#FFFFFF" stroke-miterlimit="10" enable-background="new    " cx="76.228" cy="199.314" r="9.018"/>
			<g>
				<g>
					<path fill="#5B5A5C" d="M82.433,202.937c0.176,0.355,0.031,0.786-0.324,0.962l-5.791,2.871
						c-0.355,0.176-0.786,0.031-0.962-0.324l-5.332-10.755c-0.176-0.355-0.031-0.786,0.324-0.962l5.791-2.871
						c0.355-0.176,0.786-0.031,0.962,0.324L82.433,202.937L82.433,202.937L82.433,202.937L82.433,202.937z"/>
					<path fill="#737F83" d="M76.353,206.98c-0.447,0.186-0.967-0.008-1.182-0.443l-5.332-10.755
						c-0.109-0.221-0.126-0.471-0.048-0.705c0.079-0.234,0.244-0.423,0.465-0.532l5.791-2.871c0.459-0.229,1.013-0.035,1.237,0.417
						l5.332,10.755c0.109,0.221,0.126,0.471,0.048,0.705c-0.079,0.234-0.244,0.423-0.465,0.532l-5.791,2.871
						C76.39,206.964,76.371,206.972,76.353,206.98C76.353,206.98,76.371,206.972,76.353,206.98L76.353,206.98L76.353,206.98z
						 M76.261,192.027c-0.01,0.004-0.021,0.009-0.031,0.014l-5.791,2.871c-0.123,0.061-0.215,0.166-0.258,0.296
						c-0.044,0.13-0.034,0.269,0.026,0.392l5.332,10.755c0.125,0.251,0.432,0.36,0.688,0.232l5.791-2.871
						c0.123-0.061,0.215-0.166,0.258-0.296c0.044-0.13,0.034-0.269-0.026-0.392l-5.332-10.755
						C76.797,192.032,76.509,191.924,76.261,192.027C76.261,192.027,76.509,191.924,76.261,192.027L76.261,192.027L76.261,192.027z"
						/>
					
						<rect id="Rectangle_19_" x="73.149" y="194.767" transform="matrix(-0.896 0.4441 -0.4441 -0.896 232.9025 343.9063)" fill="#737F83" width="6.052" height="8.925"/>
					<path id="Shape_8_" fill="#3F3F3F" d="M74.583,194.033c0.021,0.044,0.001,0.084-0.088,0.128l-1.504,0.746
						c-0.089,0.044-0.133,0.036-0.154-0.008l-0.018-0.037c-0.021-0.044-0.007-0.095,0.082-0.139l1.504-0.746
						c0.089-0.044,0.139-0.025,0.16,0.019L74.583,194.033L74.583,194.033L74.583,194.033L74.583,194.033z"/>
					<circle id="Oval_7_" fill="#3F3F3F" cx="78.637" cy="204.203" r="0.654"/>
				</g>
				
					<rect x="71.739" y="195.621" transform="matrix(-0.8984 0.4392 -0.4392 -0.8984 227.4515 339.285)" fill="#E8F6FD" width="5.479" height="0.664"/>
				
					<rect x="72.724" y="196.389" transform="matrix(-0.8984 0.4392 -0.4392 -0.8984 230.2052 342.6747)" fill="#E8F6FD" width="5.479" height="3.155"/>
				
					<rect x="74.121" y="200.436" transform="matrix(-0.8984 0.4392 -0.4392 -0.8984 230.6812 349.1641)" fill="#E8F6FD" width="1.66" height="1.66"/>
				
					<rect x="75.818" y="199.16" transform="matrix(-0.8984 0.4392 -0.4392 -0.8984 235.0768 345.5952)" fill="#E8F6FD" width="3.487" height="1.66"/>
				
					<rect x="75.033" y="202.218" transform="matrix(-0.8984 0.4392 -0.4392 -0.8984 233.2317 352.3038)" fill="#E8F6FD" width="1.66" height="1.826"/>
				
					<rect x="76.73" y="200.942" transform="matrix(-0.8984 0.4392 -0.4392 -0.8984 237.6274 348.7347)" fill="#E8F6FD" width="3.487" height="1.826"/>
			</g>
		</g>
	</g>
</g>
<path fill="#EAF6FD" d="M202.443,266.299c0,0-1.118-15.261,0.773-20.936c1.891-5.675-33.445-12.768-33.445-12.768
	s0.859,16.508,2.407,21.667"/>
<path fill="#E5E5E5" d="M236.931,264.094c-60.961,0.367-108.887,4.14-108.887,8.74c0,4.638,48.721,8.435,110.4,8.748
	C237.871,275.758,237.315,269.932,236.931,264.094z"/>
<g>
	<g>
		<defs>
			<rect id="SVGID_1_" x="51.843" y="96.66" width="216.209" height="151.891"/>
		</defs>
		<clipPath id="SVGID_2_">
			<use xlink:href="#SVGID_1_"  overflow="visible"/>
		</clipPath>
		<g opacity="0.2" clip-path="url(#SVGID_2_)">
			<path d="M143.666,178.773l-4.643,6.878l-2.923,1.376l2.408,0.86c0,0-9.114,11.006-10.146,17.54c0,0,3.096-1.548,4.471-1.892
				c0,0-4.299,7.566-4.299,11.693c0,0,2.752-1.72,3.955-1.548c0,0-4.299,4.471-6.535,5.503c0,0,2.579,0.344,3.611,0
				c0,0-5.159,6.019-4.643,18.4c0,0,1.72-1.892,2.923-2.408c0,0,1.376,13.069,21.667,20.119c0,0-2.235-5.675-2.235-8.77
				c0,0,3.955,1.708,8.426,1.881c0,0-3.009-4.405-2.666-7.405h3.87l-0.345-7.212c0,0-5.804-2.316-4.6-8.506
				c0,0-1.311-2.103-4.922-11.389C143.688,205.272,150.278,174.84,143.666,178.773z"/>
			<path d="M198.908,75.77c0,0-8.555,0.516-14.488,7.738l-1.795-7.48l-8.179,3.697c0,0-6.016-10.661-3.178-16.336
				c0,0-14.703-0.516-26.569,24.246c0,0-5.418-6.964-3.612-13.671c0,0-20.119,15.218-15.476,36.369c0,0-4.385-1.29-5.675-6.191
				c0,0-2.321,25.536,16.766,60.873c0,0-3.525-2.923-4.729-2.751c0,0,3.783,5.159,5.331,8.77c0,0-2.408-0.688-3.955-0.172
				c0,0,8.254,2.751,10.318,7.91c1.488,3.108,2.982,13.056,3.783,35.079c5.547,11.093,13.541,33.96,51.244,31.468L198.908,75.77z"/>
			<path d="M194.415,245.557c0,0-20.313-2.382-33.209-14.505l3.353,0.436c0,0-8.512-7.488-12.897-21.488h2.321
				c0,0-1.716-8.262-5.312-17.919c-0.025-0.84-0.019-1.203-0.019-1.203c-1.764-4.74-5.094-15.789-6.23-21.943
				c-1.065-10.182-5.932-19.172-6.161-22.061c1.146-3.349,4.137-9.729,4.137-9.729c-1.204,0.344-4.986,2.414-4.986,2.414
				c-1.548-11.521,6.534-23.383,6.534-23.383c-4.987-0.516-11.349,3.957-11.349,3.957c-2.236-15.992,5.847-29.748,5.847-29.748
				c-0.344,5.847,7.91,13.929,7.91,13.929c5.87-26.26,22.699-36.144,26.062-37.883c0.111-1.053,0.373-2.085,0.852-3.042
				c0,0-14.703-0.516-26.569,24.246c0,0-5.418-6.964-3.612-13.671c0,0-9.816,7.428-14.152,19.115
				c-1.526-1.598-2.872-6.132-2.872-6.132c-2.579,8.77,1.375,23.043,1.375,23.043s0.019-0.096,0.051-0.256
				c0.04,0.2,0.077,0.399,0.121,0.6c0,0-4.385-1.29-5.675-6.19c0,0-2.321,25.536,16.766,60.873c0,0-3.525-2.923-4.729-2.751
				c0,0,3.783,5.159,5.331,8.77c0,0-2.408-0.688-3.955-0.172c0,0,5.409,2.24,7.582,6.455c0.01,0.029,0.017,0.049,0.027,0.079
				c1.548,4.385,2.708,8.77,2.708,8.77l-2.064,5.159l1.677,0.516c0.258,1.032,1.161,11.349,1.161,11.349s0.067-0.415,0.161-1.054
				c0.117,0.884,0.253,1.809,0.412,2.769c-0.609-0.147-1.425-0.335-1.687-0.353c-0.511-0.148-0.946-0.243-1.196-0.201
				c0,0,0.207,1.156,1.813,3.358c0.029,0.206,0.09,0.408,0.163,0.607c1.043,4.965,2.71,10.535,5.369,15.911
				c0.586,1.925,0.656,4.963,1.026,5.919l1.16-1.548c0.725,1.089,0.516,0.817,0.946,2.021l1.763,4.299l0.252-2.391
				c1.944,2.512,4.198,4.86,6.807,6.941c0.444,0.364,0.905,0.711,1.378,1.046c0.154,0.112,0.305,0.226,0.462,0.337
				c0,0-0.013-0.016-0.028-0.036c0.345,0.233,0.702,0.454,1.066,0.672c2.952,3.807,5.071,6.845,5.152,8.263
				c0,0,4.901,4.836,6.706,6.642l1.806-3.643c0,0,7.738,8.754,15.734,9.012C193.706,261.759,193.061,252.973,194.415,245.557z
				 M135.907,148.846c-0.015-0.228-0.029-0.445-0.041-0.643c0.038-0.141,0.063-0.211,0.063-0.211
				c0.008-0.03,0.018-0.065,0.026-0.097C135.935,148.191,135.92,148.509,135.907,148.846z"/>
			<path d="M126.213,122.871c-0.438,0.219-1.87,0.852-1.87,0.852c-12.732,6.317-26.552,0.129-26.552,0.129
				s2.406,8.284,10.963,12.886c8.559,4.601,20.592,1.034,20.592,1.034c1.044,1.47,1.725,5.428,1.725,5.428s1.837-5.124-0.221-12.551
				C129.409,125.444,126.485,122.735,126.213,122.871"/>
			<path d="M126.213,122.871c-0.424,0.204-1.87,0.852-1.87,0.852c-12.732,6.317-26.552,0.129-26.552,0.129
				s13.13,14.863,32.565,5.253C130.356,129.104,129.588,125.67,126.213,122.871"/>
			<path d="M148.295,274.658l-1.323,0.089c-1.07-14.982,12.755-14.833,12.755-14.833c-12.369,3.784-10.756,14.712-10.756,14.712
				L148.295,274.658z"/>
			<path d="M170.492,254.95c-0.859-3.095-1.376-11.349-1.376-11.349l-7.825-4.729c0,4.836,1.784,14.681,1.784,14.681
				c-5.288,0.258-18.829,4.772-18.829,4.772c0.838-0.129,2.167,0.507,2.167,0.507c-3.12,1.346-6.746,6.328-6.746,6.328
				c0.451-0.258,1.931-0.906,1.931-0.906c-1.357,1.286-2.189,5.807-2.189,6.839s-0.58,2.837-0.58,2.837l2.912-0.505
				c0.646-0.068,1.293-0.133,1.94-0.181c-0.173-1.449-0.953-9.819,9.375-14.623c0,0-0.082,0.026-0.218,0.075
				C158.901,255.641,170.492,254.95,170.492,254.95z"/>
		</g>
	</g>
</g>
<g>
	<g>
		<path fill="#737F82" d="M41.693,272.788v-5.029l-1.992,5.029h-0.488l-2.002-5.029v5.029h-1.143v-6.514h1.611l1.777,4.473
			l1.768-4.473h1.611v6.514H41.693z"/>
		<path fill="#737F82" d="M44.413,272.788v-6.514h1.143v6.514H44.413z"/>
		<path fill="#737F82" d="M51.678,272.788l-3.398-4.658v4.658h-1.143v-6.514h1.172l3.33,4.512v-4.512h1.143v6.514H51.678z"/>
		<path fill="#737F82" d="M53.959,269.897v-0.879h2.344v0.879H53.959z"/>
		<path fill="#737F82" d="M62.415,272.788l-1.26-4.814l-1.27,4.814h-1.221l-1.855-6.514h1.27l1.27,5.01l1.348-5.01h0.908l1.348,5.01
			l1.27-5.01h1.279l-1.865,6.514H62.415z"/>
		<path fill="#737F82" d="M66.444,272.788v-6.514h1.143v6.514H66.444z"/>
		<path fill="#737F82" d="M69.167,272.788v-6.514h2.422c2.041,0,3.408,1.348,3.408,3.252c0,1.924-1.367,3.262-3.398,3.262H69.167z
			 M73.825,269.526c0-1.25-0.781-2.246-2.227-2.246h-1.289v4.502h1.279C73.005,271.782,73.825,270.767,73.825,269.526z"/>
		<path fill="#737F82" d="M77.601,272.788v-5.508h-1.973v-1.006h5.088v1.006h-1.973v5.508H77.601z"/>
		<path fill="#737F82" d="M86.406,272.788v-2.852h-3.389v2.852h-1.143v-6.514h1.143v2.656h3.389v-2.656h1.143v6.514H86.406z"/>
		<path fill="#737F82" d="M88.952,268.687c0-0.371,0.312-0.684,0.684-0.684s0.684,0.312,0.684,0.684
			c0,0.361-0.312,0.674-0.684,0.674S88.952,269.048,88.952,268.687z M88.952,272.202c0-0.361,0.312-0.674,0.684-0.674
			s0.684,0.312,0.684,0.674c0,0.371-0.312,0.693-0.684,0.693S88.952,272.573,88.952,272.202z"/>
		<path fill="#737F82" d="M97.035,272.788v-1.475H93.93v-0.918l2.676-4.121h1.572v4.033h0.869v1.006h-0.869v1.475H97.035z
			 M97.035,267.3l-1.982,3.008h1.982V267.3z"/>
		<path fill="#737F82" d="M99.923,269.536c0-1.641,0.771-3.359,2.607-3.359c1.826,0,2.598,1.719,2.598,3.359
			c0,1.631-0.771,3.369-2.598,3.369C100.694,272.905,99.923,271.167,99.923,269.536z M103.965,269.536
			c0-1.25-0.371-2.344-1.436-2.344s-1.445,1.094-1.445,2.344c0,1.24,0.381,2.354,1.445,2.354
			C103.585,271.89,103.965,270.776,103.965,269.536z"/>
		<path fill="#737F82" d="M106.14,269.536c0-1.641,0.771-3.359,2.607-3.359c1.826,0,2.598,1.719,2.598,3.359
			c0,1.631-0.771,3.369-2.598,3.369C106.912,272.905,106.14,271.167,106.14,269.536z M110.183,269.536
			c0-1.25-0.371-2.344-1.436-2.344s-1.445,1.094-1.445,2.344c0,1.24,0.381,2.354,1.445,2.354
			C109.802,271.89,110.183,270.776,110.183,269.536z"/>
		<path fill="#737F82" d="M112.641,272.788v-6.514h2.871c1.367,0,2.119,0.928,2.119,2.041c0,1.104-0.762,2.031-2.119,2.031h-1.729
			v2.441h-1.142V272.788z M116.459,268.315c0-0.625-0.459-1.035-1.104-1.035h-1.572v2.061h1.572
			C116,269.341,116.459,268.931,116.459,268.315z"/>
		<path fill="#737F82" d="M122.999,272.788l-1.826-2.549l-1.826,2.549h-1.367l2.432-3.34l-2.285-3.174h1.367l1.68,2.383l1.67-2.383
			h1.377l-2.295,3.164l2.441,3.35H122.999z"/>
	</g>
</g>
<path fill="#A0D5E9" d="M153.403,178.773l-4.643,6.878l-2.923,1.376l2.408,0.86c0,0-9.114,11.006-10.146,17.54
	c0,0,3.096-1.548,4.471-1.892c0,0-4.299,7.566-4.299,11.693c0,0,2.752-1.72,3.955-1.548c0,0-4.299,4.471-6.535,5.503
	c0,0,2.579,0.344,3.611,0c0,0-5.159,6.019-4.643,18.4c0,0,1.72-1.892,2.923-2.408c0,0,1.376,13.069,21.667,20.119
	c0,0-2.235-5.675-2.235-8.77c0,0,3.955,1.708,8.426,1.881c0,0-3.009-4.405-2.666-7.405h3.87l-0.345-7.212c0,0-5.804-2.316-4.6-8.506
	c0,0-1.311-2.103-4.922-11.389C153.425,205.272,160.015,174.84,153.403,178.773z"/>
<path fill="#EAF6FD" d="M203.185,251.941c0.023-1.388-0.942-1.59-2.59-0.969c-3.137-2.175-8.164,0.576-8.164,0.576
	c-0.661,0.022-1.31,0.049-1.949,0.079c-1.948-0.183-8.468-0.734-12.474-0.314c0,0,0.989,0.688,1.357,1.366
	c-4.206,0.635-12.37,1.491-15.316,2.505c-2.302,0.639-7.309,2.08-9.565,3.137c0,0,1.226,0.11,1.667,0.511
	c-1.575,0.94-3.983,2.75-6.27,5.983c0,0,0.763-0.32,1.455-0.562c-1.791,3.087-2.034,4.646-1.889,7.084
	c-0.09,0.714-0.219,1.544-0.386,2.341c1.465-0.143,2.926-0.33,4.395-0.438c0.032,0.151,0.022,0.324,0.045,0.561l0.18,1.147
	l4.351-0.291l0.676-0.033l0.11,1.47c0,0,29.837-1.026,43.336-1.198c0,0,2.063,0.064,1.999-1.483
	C204.077,271.606,203.056,259.679,203.185,251.941z"/>
<path fill="#EAF6FD" d="M208.645,75.77c0,0-8.555,0.516-14.488,7.738l-1.795-7.48l-8.179,3.697c0,0-6.016-10.661-3.178-16.336
	c0,0-14.703-0.516-26.569,24.246c0,0-5.418-6.964-3.612-13.671c0,0-20.119,15.218-15.476,36.369c0,0-4.385-1.29-5.675-6.191
	c0,0-2.321,25.536,16.766,60.873c0,0-3.525-2.923-4.729-2.751c0,0,3.783,5.159,5.331,8.77c0,0-2.408-0.688-3.955-0.172
	c0,0,8.254,2.751,10.318,7.91c1.488,3.108,2.982,13.056,3.783,35.079c5.547,11.093,13.541,33.96,51.244,31.468L208.645,75.77z"/>
<ellipse transform="matrix(0.2052 0.9787 -0.9787 0.2052 302.9494 -38.691)" fill="#CDEAF5" cx="175.297" cy="167.182" rx="7.073" ry="5.589"/>
<ellipse transform="matrix(0.2052 0.9787 -0.9787 0.2052 315.3708 -70.4967)" fill="#CDEAF5" cx="201.091" cy="158.927" rx="7.073" ry="5.589"/>
<ellipse transform="matrix(0.2052 0.9787 -0.9787 0.2052 313.4794 -72.1996)" fill="#FFFFFF" cx="201.193" cy="156.911" rx="6.964" ry="5.503"/>
<path fill="#4E4D50" d="M200.051,153.183c-0.008,0.177-0.001,0.357,0.038,0.542c0.201,0.961,0.99,1.607,1.761,1.445
	c0.686-0.144,1.125-0.878,1.073-1.713c0.561,0.485,0.995,1.205,1.175,2.063c0.373,1.777-0.484,3.461-1.912,3.761
	c-1.429,0.3-2.89-0.897-3.262-2.676C198.626,155.183,199.114,153.825,200.051,153.183z"/>
<ellipse transform="matrix(0.2052 0.9787 -0.9787 0.2052 301.0569 -40.3929)" fill="#FFFFFF" cx="175.399" cy="165.166" rx="6.964" ry="5.503"/>
<path fill="#4E4D50" d="M174.774,161.437c-0.008,0.177-0.001,0.357,0.038,0.542c0.201,0.961,0.99,1.607,1.761,1.445
	c0.686-0.144,1.125-0.878,1.073-1.713c0.561,0.485,0.995,1.205,1.175,2.063c0.373,1.777-0.484,3.461-1.912,3.761
	c-1.429,0.3-2.89-0.897-3.262-2.676C173.348,163.437,173.836,162.079,174.774,161.437z"/>
<path fill="#5B5A5C" d="M190.546,181.438c0,0,3.009-2.493,3.267-3.955c0,0,9.113-2.322,13.413-8.512
	C207.226,168.971,206.108,185.135,190.546,181.438z"/>
<path fill="#A0D5E9" d="M171.115,144.897c0,0-6.878,0.344-7.394,6.878c0,0-2.923-4.643,1.204-7.566S171.115,144.897,171.115,144.897
	z"/>
<path fill="#A0D5E9" d="M164.752,138.019c0,0-6.362,0.344-6.19,6.19c0,0-2.923-3.611,0.172-6.535
	C161.829,134.751,164.752,138.019,164.752,138.019z"/>
<path fill="#CDEAF5" d="M204.152,245.557c0,0-20.313-2.382-33.209-14.505l3.353,0.436c0,0-8.512-7.488-12.897-21.488h2.321
	c0,0-1.716-8.262-5.312-17.919c-0.025-0.84-0.019-1.203-0.019-1.203c-1.764-4.74-5.094-15.789-6.23-21.943
	c-1.065-10.182-5.932-19.172-6.161-22.061c1.146-3.349,4.137-9.729,4.137-9.729c-1.204,0.344-4.986,2.414-4.986,2.414
	c-1.548-11.521,6.534-23.383,6.534-23.383c-4.987-0.516-11.349,3.957-11.349,3.957c-2.236-15.992,5.847-29.748,5.847-29.748
	c-0.344,5.847,7.91,13.929,7.91,13.929c5.87-26.26,22.699-36.144,26.062-37.883c0.111-1.053,0.373-2.085,0.852-3.042
	c0,0-14.703-0.516-26.569,24.246c0,0-5.418-6.964-3.612-13.671c0,0-9.816,7.428-14.152,19.115c-1.526-1.598-2.872-6.132-2.872-6.132
	c-2.579,8.77,1.375,23.043,1.375,23.043s0.019-0.096,0.051-0.256c0.04,0.2,0.077,0.399,0.121,0.6c0,0-4.385-1.29-5.675-6.19
	c0,0-2.321,25.536,16.766,60.873c0,0-3.525-2.923-4.729-2.751c0,0,3.783,5.159,5.331,8.77c0,0-2.408-0.688-3.955-0.172
	c0,0,5.409,2.24,7.582,6.455c0.01,0.029,0.017,0.049,0.027,0.079c1.548,4.385,2.708,8.77,2.708,8.77l-2.064,5.159l1.677,0.516
	c0.258,1.032,1.161,11.349,1.161,11.349s0.067-0.415,0.161-1.054c0.117,0.884,0.253,1.809,0.412,2.769
	c-0.609-0.147-1.425-0.335-1.687-0.353c-0.511-0.148-0.946-0.243-1.196-0.201c0,0,0.207,1.156,1.813,3.358
	c0.029,0.206,0.09,0.408,0.163,0.607c1.043,4.965,2.71,10.535,5.369,15.911c0.586,1.925,0.656,4.963,1.026,5.919l1.16-1.548
	c0.725,1.089,0.516,0.817,0.946,2.021l1.763,4.299l0.252-2.391c1.944,2.512,4.198,4.86,6.807,6.941
	c0.444,0.364,0.905,0.711,1.378,1.046c0.154,0.112,0.305,0.226,0.462,0.337c0,0-0.013-0.016-0.028-0.036
	c0.345,0.233,0.702,0.454,1.066,0.672c2.952,3.807,5.071,6.845,5.152,8.263c0,0,4.901,4.836,6.706,6.642l1.806-3.643
	c0,0,7.738,8.754,15.734,9.012C203.443,261.759,202.798,252.973,204.152,245.557z M145.644,148.846
	c-0.015-0.228-0.029-0.445-0.041-0.643c0.038-0.141,0.063-0.211,0.063-0.211c0.008-0.03,0.018-0.065,0.026-0.097
	C145.672,148.191,145.657,148.509,145.644,148.846z"/>
<path fill="#BFE5F3" d="M153.695,173.363c-0.019-0.172-0.038-0.343-0.056-0.514l0.148,1.045
	C153.756,173.716,153.725,173.538,153.695,173.363z"/>
<path fill="#A0D5E9" d="M194.673,145.929c0,0,3.611-2.064,6.191-0.387c0,0,0.258-2.837-3.095-2.579
	C194.415,143.22,194.673,145.929,194.673,145.929z"/>
<path fill="#5B5A5C" d="M218.222,157.884c0,0-0.503-5.284-1.111-9.337c2.351-0.29,4.821-0.344,4.821-0.344l-0.311-2.907
	c-2.443-0.355-5.102-0.011-5.102-0.011c-2.504,0.277-6.817,0.977-11.802,2.555c-6.485,2.055-11.879,4.44-15.101,5.864
	c-0.962,0.425-1.718,0.759-2.299,0.996l-0.634,0.261c-1.14,0.47-1.653,0.683-2.293,0.787c-0.012,0.037-0.028,0.072-0.04,0.108
	c-0.348,0.094-0.766,0.188-1.335,0.316l-0.67,0.15c-0.612,0.139-1.422,0.3-2.454,0.504c-3.456,0.684-9.241,1.829-15.731,3.87
	c-4.987,1.57-8.92,3.474-11.129,4.684c0,0-2.375,1.244-4.171,2.939l1.414,2.559c0,0,2.053-1.374,4.145-2.486
	c1.829,3.669,4.451,8.283,4.451,8.283l0.069,0.147c0.152,0.225,0.298,0.444,0.456,0.684c1.172,1.763,2.044,2.73,4.107,2.738
	c2.028,0.01,6.466-0.934,10.791-2.293c1.609-0.506,3.363-1.269,5.077-2.205c2.54-1.392,4.701-3.019,5.374-4.05
	c0.979-1.5,0.767-4.281,0.628-6.122l-0.039-0.543c-0.043-0.629-0.117-1.279-0.189-1.91c-0.104-0.905-0.212-1.839-0.142-2.201
	c0.013-0.064,0.099-0.299,0.656-0.606c0.261-0.142,0.584-0.275,0.957-0.4c0.097-0.017,0.192-0.033,0.281-0.043
	c0.633-0.069,0.838,0.075,0.885,0.119c0.266,0.256,0.713,1.083,1.148,1.883c0.303,0.558,0.615,1.134,0.942,1.672l0.28,0.467
	c0.942,1.587,2.366,3.985,4.029,4.651c1.143,0.458,3.846,0.549,6.725,0.231c1.94-0.217,3.815-0.6,5.422-1.11
	c4.321-1.37,8.496-3.147,10.151-4.318c1.685-1.191,1.843-2.484,1.791-4.6c-0.008-0.286-0.015-0.55-0.019-0.821L218.222,157.884z
	 M182.885,168.821c-0.365,1.804-0.551,2.289-3.201,3.82c-0.113,0.065-0.232,0.132-0.357,0.199c-2.885,1.581-8.426,3.731-11.765,4.29
	l-0.231,0.04c-3.409,0.567-4.623,0.72-5.32-0.147c-0.941-1.173-4.092-7.034-4.648-8.335c-0.422-0.988,0.353-1.8,0.584-1.963
	c0.144-0.102,0.386-0.246,0.717-0.427c2.111-1.156,6.874-3.294,9.216-4.048c2.965-0.954,10.458-2.596,12.33-2.473
	c1.391,0.09,1.509,0.575,1.741,1.545l0.011,0.047C182.18,162.286,183.259,166.955,182.885,168.821z M215.853,159.973
	c-0.073,1.11-1.155,1.682-4.272,3.175l-0.213,0.1c-3.054,1.459-8.826,2.88-12.096,3.243c-0.141,0.016-0.277,0.03-0.407,0.042
	c-3.048,0.268-3.48-0.022-4.814-1.29c-1.378-1.313-3.175-5.755-3.522-6.633l-0.018-0.045c-0.367-0.927-0.549-1.392,0.539-2.265
	c1.461-1.175,8.539-4.132,11.514-5.054c2.351-0.727,7.477-1.712,9.87-1.977c0.374-0.041,0.655-0.062,0.832-0.062
	c0.284,0.001,1.384,0.221,1.605,1.272C215.164,151.864,215.95,158.472,215.853,159.973z"/>
<g>
	<path fill="#E5E5E5" d="M705.807,234.192c0,1.475-1.341,2.671-2.996,2.671H452.717c-1.655,0-2.996-1.196-2.996-2.671l0,0
		c0-1.475,1.342-2.671,2.996-2.671h250.094C704.466,231.522,705.807,232.717,705.807,234.192L705.807,234.192z"/>
	<g>
		<g>
			<g>
				<path fill="#064F68" d="M707.061,221.698c0,5.5-4.5,10-10,10H540.068c-5.5,0-10-4.5-10-10v-82.996c0-5.5,4.5-10,10-10h156.993
					c5.5,0,10,4.5,10,10V221.698z"/>
			</g>
		</g>
		<g>
			<g opacity="0.6">
				<circle opacity="0.05" fill="#FFFFFF" enable-background="new    " cx="600.538" cy="143.917" r="3.061"/>
				<circle fill="#9FD2E7" cx="600.538" cy="143.917" r="1.083"/>
			</g>
			<g>
				<circle opacity="0.6" fill="#028CB9" enable-background="new    " cx="626.73" cy="188.103" r="0.837"/>
				<circle opacity="0.6" fill="#028CB9" enable-background="new    " cx="663.835" cy="204.842" r="0.837"/>
				<circle opacity="0.6" fill="#028CB9" enable-background="new    " cx="643.469" cy="215.444" r="0.837"/>
				<circle opacity="0.6" fill="#028CB9" enable-background="new    " cx="639.284" cy="167.835" r="0.837"/>
				<g opacity="0.6">
					<circle opacity="0.05" fill="#FFFFFF" enable-background="new    " cx="658.943" cy="192.485" r="3.061"/>
					<circle fill="#9FD2E7" cx="658.943" cy="192.485" r="1.083"/>
				</g>
				<g opacity="0.6">
					<circle opacity="0.05" fill="#FFFFFF" enable-background="new    " cx="656.724" cy="213.85" r="6.275"/>
					<circle fill="#9FD2E7" cx="656.724" cy="213.85" r="2.219"/>
					<circle opacity="0.1" fill="#FFFFFF" enable-background="new    " cx="656.724" cy="213.945" r="3.96"/>
				</g>
				<g opacity="0.6">
					<circle opacity="0.05" fill="#FFFFFF" enable-background="new    " cx="648.25" cy="203.305" r="3.76"/>
					<circle fill="#9FD2E7" cx="648.25" cy="203.305" r="1.33"/>
				</g>
				<g>
					<circle opacity="0.6" fill="#028CB9" enable-background="new    " cx="676.121" cy="198.438" r="0.59"/>
					<circle opacity="0.6" fill="#028CB9" enable-background="new    " cx="693.386" cy="191.068" r="0.59"/>
					<circle opacity="0.6" fill="#028CB9" enable-background="new    " cx="687.917" cy="217.705" r="0.59"/>
					<circle opacity="0.6" fill="#028CB9" enable-background="new    " cx="663.145" cy="148.372" r="0.59"/>
					<circle opacity="0.6" fill="#028CB9" enable-background="new    " cx="636.996" cy="136.576" r="0.59"/>
					<circle opacity="0.6" fill="#028CB9" enable-background="new    " cx="674.941" cy="167.639" r="0.59"/>
					<circle opacity="0.6" fill="#028CB9" enable-background="new    " cx="622.644" cy="175.504" r="0.59"/>
					<circle opacity="0.6" fill="#028CB9" enable-background="new    " cx="648.793" cy="155.843" r="0.59"/>
					<g opacity="0.6">
						<circle opacity="0.05" fill="#FFFFFF" enable-background="new    " cx="688.014" cy="185.823" r="2.649"/>
						<circle fill="#9FD2E7" cx="688.014" cy="185.823" r="0.937"/>
					</g>
					<g opacity="0.6">
						<circle opacity="0.05" fill="#FFFFFF" enable-background="new    " cx="698.338" cy="182.587" r="4.168"/>
						<circle fill="#9FD2E7" cx="698.338" cy="182.587" r="1.474"/>
						<circle opacity="0.1" fill="#FFFFFF" enable-background="new    " cx="698.274" cy="182.587" r="2.631"/>
					</g>
					<g opacity="0.6">
						<circle opacity="0.05" fill="#FFFFFF" enable-background="new    " cx="654.476" cy="144.873" r="4.422"/>
						<circle fill="#9FD2E7" cx="654.476" cy="144.873" r="1.564"/>
						<circle opacity="0.1" fill="#FFFFFF" enable-background="new    " cx="654.532" cy="144.836" r="2.791"/>
					</g>
					<g opacity="0.6">
						<circle opacity="0.05" fill="#FFFFFF" enable-background="new    " cx="662.022" cy="155.506" r="2.649"/>
						<circle fill="#9FD2E7" cx="662.022" cy="155.506" r="0.937"/>
					</g>
					<g opacity="0.6">
						<circle opacity="0.05" fill="#FFFFFF" enable-background="new    " cx="682.615" cy="141.172" r="2.157"/>
						<circle fill="#9FD2E7" cx="682.615" cy="141.172" r="0.763"/>
					</g>
					<g opacity="0.6">
						<circle opacity="0.05" fill="#FFFFFF" enable-background="new    " cx="678.868" cy="222.047" r="2.157"/>
						<circle fill="#9FD2E7" cx="678.868" cy="222.047" r="0.763"/>
					</g>
					<g opacity="0.6">
						<circle opacity="0.05" fill="#FFFFFF" enable-background="new    " cx="634.249" cy="182.673" r="2.157"/>
						<circle fill="#9FD2E7" cx="634.249" cy="182.673" r="0.763"/>
					</g>
				</g>
				<circle opacity="0.6" fill="#028CB9" enable-background="new    " cx="557.417" cy="202.231" r="0.837"/>
				<circle opacity="0.6" fill="#028CB9" enable-background="new    " cx="571.22" cy="221.596" r="0.837"/>
				<circle opacity="0.6" fill="#028CB9" enable-background="new    " cx="539.457" cy="201.031" r="0.837"/>
				<circle opacity="0.6" fill="#028CB9" enable-background="new    " cx="593.478" cy="165.589" r="0.837"/>
				<g opacity="0.6">
					<circle opacity="0.05" fill="#FFFFFF" enable-background="new    " cx="548.98" cy="205.515" r="2.629"/>
					<circle fill="#9FD2E7" cx="548.98" cy="205.515" r="0.93"/>
				</g>
				<g opacity="0.6">
					<circle opacity="0.05" fill="#FFFFFF" enable-background="new    " cx="540.92" cy="212.211" r="4.136"/>
					<circle fill="#9FD2E7" cx="540.92" cy="212.211" r="1.463"/>
					<circle opacity="0.1" fill="#FFFFFF" enable-background="new    " cx="540.894" cy="212.268" r="2.61"/>
				</g>
				<circle opacity="0.6" fill="#028CB9" enable-background="new    " cx="601.316" cy="152.96" r="0.837"/>
				<g opacity="0.6">
					<circle opacity="0.05" fill="#FFFFFF" enable-background="new    " cx="594.645" cy="148.765" r="1.203"/>
					<circle fill="#9FD2E7" cx="594.645" cy="148.765" r="0.425"/>
				</g>
				<g>
					<circle opacity="0.6" fill="#028CB9" enable-background="new    " cx="568.261" cy="162.173" r="0.59"/>
					<circle opacity="0.6" fill="#028CB9" enable-background="new    " cx="550.996" cy="169.543" r="0.59"/>
					<circle opacity="0.6" fill="#028CB9" enable-background="new    " cx="556.465" cy="142.906" r="0.59"/>
					<circle opacity="0.6" fill="#028CB9" enable-background="new    " cx="581.237" cy="212.239" r="0.59"/>
					<circle opacity="0.6" fill="#028CB9" enable-background="new    " cx="607.386" cy="224.035" r="0.59"/>
					<circle opacity="0.6" fill="#028CB9" enable-background="new    " cx="569.441" cy="192.972" r="0.59"/>
					<circle opacity="0.6" fill="#028CB9" enable-background="new    " cx="621.738" cy="185.107" r="0.59"/>
					<circle opacity="0.6" fill="#028CB9" enable-background="new    " cx="595.589" cy="204.768" r="0.59"/>
					<g opacity="0.6">
						<circle opacity="0.05" fill="#FFFFFF" enable-background="new    " cx="556.368" cy="174.788" r="2.649"/>
						<circle fill="#9FD2E7" cx="556.368" cy="174.788" r="0.937"/>
					</g>
					<g opacity="0.6">
						<circle opacity="0.05" fill="#FFFFFF" enable-background="new    " cx="546.045" cy="178.024" r="4.168"/>
						<circle fill="#9FD2E7" cx="546.045" cy="178.024" r="1.474"/>
						<circle opacity="0.1" fill="#FFFFFF" enable-background="new    " cx="546.108" cy="178.024" r="2.631"/>
					</g>
					<g opacity="0.6">
						<circle opacity="0.05" fill="#FFFFFF" enable-background="new    " cx="589.907" cy="215.739" r="4.422"/>
						<circle fill="#9FD2E7" cx="589.907" cy="215.739" r="1.564"/>
						<circle opacity="0.1" fill="#FFFFFF" enable-background="new    " cx="589.85" cy="215.775" r="2.791"/>
					</g>
					<g opacity="0.6">
						<circle opacity="0.05" fill="#FFFFFF" enable-background="new    " cx="582.36" cy="205.105" r="2.649"/>
						<circle fill="#9FD2E7" cx="582.36" cy="205.105" r="0.937"/>
					</g>
					<g opacity="0.6">
						<circle opacity="0.05" fill="#FFFFFF" enable-background="new    " cx="561.768" cy="219.439" r="2.157"/>
						<circle fill="#9FD2E7" cx="561.768" cy="219.439" r="0.763"/>
					</g>
					<g opacity="0.6">
						<circle opacity="0.05" fill="#FFFFFF" enable-background="new    " cx="565.514" cy="138.564" r="2.157"/>
						<circle fill="#9FD2E7" cx="565.514" cy="138.564" r="0.763"/>
					</g>
					<g opacity="0.6">
						<circle opacity="0.05" fill="#FFFFFF" enable-background="new    " cx="610.133" cy="177.938" r="2.157"/>
						<circle fill="#9FD2E7" cx="610.133" cy="177.938" r="0.763"/>
					</g>
				</g>
			</g>
		</g>
		<g>
			<g>
				
					<circle opacity="0.1" fill="#FFFFFF" stroke="#FFFFFF" stroke-miterlimit="10" enable-background="new    " cx="662.008" cy="167.006" r="33.487"/>
				
					<circle opacity="0.1" fill="#FFFFFF" stroke="#FFFFFF" stroke-miterlimit="10" enable-background="new    " cx="662.008" cy="167.006" r="29.208"/>
				<g>
					<g>
						<path fill="#5B5A5C" d="M680.255,181.94c0.232,1.179-0.78,2.373-2.26,2.665l-24.121,4.768c-1.48,0.293-2.868-0.426-3.1-1.605
							l-7.012-35.698c-0.232-1.179,0.78-2.373,2.26-2.665l24.12-4.768c1.48-0.293,2.868,0.426,3.1,1.605L680.255,181.94
							L680.255,181.94L680.255,181.94L680.255,181.94z"/>
						<path fill="#737F83" d="M653.764,190.023c-1.823,0.262-3.473-0.662-3.756-2.104l-7.012-35.698
							c-0.144-0.733,0.079-1.494,0.628-2.141s1.358-1.104,2.278-1.285l24.121-4.768c1.913-0.382,3.691,0.563,3.985,2.065
							l7.012,35.698c0.144,0.733-0.079,1.494-0.628,2.141s-1.358,1.104-2.279,1.286l-24.121,4.768
							C653.917,189.999,653.84,190.012,653.764,190.023C653.764,190.023,653.84,190.012,653.764,190.023L653.764,190.023
							L653.764,190.023z M670.39,145.224c-0.042,0.006-0.086,0.013-0.128,0.022l-24.121,4.768c-0.511,0.101-0.961,0.355-1.266,0.715
							s-0.429,0.782-0.349,1.19l7.012,35.698c0.164,0.835,1.15,1.362,2.214,1.147l24.12-4.768c0.512-0.101,0.961-0.355,1.266-0.715
							s0.429-0.782,0.349-1.19l-7.012-35.698C672.318,145.592,671.403,145.078,670.39,145.224
							C670.39,145.224,671.403,145.078,670.39,145.224L670.39,145.224L670.39,145.224z"/>
						<polygon id="Rectangle_18_" fill="#737F83" points="675.844,177.724 653.259,182.188 648.046,155.646 670.631,151.182 						
							"/>
						<path id="Shape_7_" fill="#3F3F3F" d="M662.072,150.119c0.028,0.145-0.09,0.251-0.46,0.324l-6.266,1.238
							c-0.37,0.073-0.52,0.02-0.548-0.125l-0.025-0.123c-0.028-0.145,0.082-0.289,0.452-0.362l6.266-1.238
							c0.37-0.073,0.528,0.018,0.556,0.163L662.072,150.119L662.072,150.119L662.072,150.119L662.072,150.119z"/>
						<circle id="Oval_6_" fill="#3F3F3F" cx="665.144" cy="183.223" r="1.982"/>
					</g>
					<polygon fill="#E8F6FD" points="669.879,154.97 649.87,158.835 649.492,156.84 669.502,152.976 					"/>
					<polygon fill="#E8F6FD" points="670.861,160.155 650.851,164.02 650.021,159.632 670.03,155.768 					"/>
					<polygon fill="#E8F6FD" points="657.562,169.338 652.059,170.401 651.078,165.216 656.58,164.153 					"/>
					<polygon fill="#E8F6FD" points="665.065,167.889 658.562,169.145 657.581,163.96 664.084,162.704 					"/>
					<polygon fill="#E8F6FD" points="672.069,166.537 666.566,167.6 665.585,162.414 671.087,161.352 					"/>
					
						<rect x="652.405" y="169.599" transform="matrix(-0.9819 0.1896 -0.1896 -0.9819 1345.1516 211.0793)" fill="#E8F6FD" width="20.149" height="0.563"/>
					
						<rect x="652.683" y="171.07" transform="matrix(-0.9819 0.1896 -0.1896 -0.9819 1345.9817 213.942)" fill="#E8F6FD" width="20.149" height="0.563"/>
					
						<rect x="652.962" y="172.54" transform="matrix(-0.9819 0.1896 -0.1896 -0.9819 1346.8131 216.8024)" fill="#E8F6FD" width="20.149" height="0.563"/>
					
						<rect x="653.24" y="174.012" transform="matrix(-0.9819 0.1896 -0.1896 -0.9819 1347.6433 219.6654)" fill="#E8F6FD" width="20.149" height="0.563"/>
					<polygon fill="#E8F6FD" points="674.182,177.705 654.173,181.569 653.418,177.58 673.428,173.716 					"/>
				</g>
			</g>
			<g>
				
					<circle opacity="0.1" fill="#FFFFFF" stroke="#FFFFFF" stroke-miterlimit="10" enable-background="new    " cx="592.485" cy="175.941" r="10.537"/>
				
					<circle opacity="0.1" fill="#FFFFFF" stroke="#FFFFFF" stroke-miterlimit="10" enable-background="new    " cx="592.485" cy="175.941" r="8.817"/>
				<g>
					<g>
						<path fill="#5B5A5C" d="M594.098,182.778c-0.133,0.364-0.536,0.552-0.9,0.418l-5.936-2.17c-0.364-0.133-0.552-0.536-0.419-0.9
							l4.03-11.023c0.133-0.364,0.536-0.552,0.9-0.418l5.936,2.17c0.364,0.133,0.552,0.536,0.419,0.9L594.098,182.778
							L594.098,182.778L594.098,182.778L594.098,182.778z"/>
						<path fill="#737F83" d="M587.137,181.193c-0.433-0.191-0.645-0.69-0.483-1.136l4.03-11.023
							c0.083-0.226,0.249-0.407,0.468-0.509s0.464-0.112,0.69-0.029l5.936,2.17c0.471,0.171,0.708,0.694,0.538,1.158l-4.03,11.023
							c-0.083,0.226-0.249,0.407-0.468,0.509s-0.464,0.112-0.691,0.029l-5.936-2.17
							C587.174,181.209,587.155,181.201,587.137,181.193C587.137,181.193,587.155,181.201,587.137,181.193L587.137,181.193
							L587.137,181.193z M597.672,171.055c-0.01-0.004-0.021-0.009-0.031-0.012l-5.936-2.17c-0.126-0.046-0.262-0.04-0.384,0.016
							c-0.121,0.056-0.214,0.157-0.26,0.283l-4.03,11.023c-0.094,0.258,0.036,0.549,0.299,0.643l5.936,2.17
							c0.126,0.046,0.262,0.04,0.384-0.016c0.121-0.056,0.214-0.157,0.26-0.283l4.03-11.023
							C598.03,171.439,597.913,171.162,597.672,171.055C597.672,171.055,597.913,171.162,597.672,171.055L597.672,171.055
							L597.672,171.055z"/>
						
							<rect id="Rectangle_17_" x="589.56" y="171.494" transform="matrix(-0.9392 -0.3434 0.3434 -0.9392 1088.6168 544.4889)" fill="#737F83" width="5.917" height="8.726"/>
						<path id="Shape_6_" fill="#3F3F3F" d="M595.12,171.218c-0.017,0.045-0.058,0.057-0.149,0.024l-1.542-0.564
							c-0.091-0.033-0.115-0.07-0.099-0.115l0.014-0.038c0.017-0.045,0.063-0.069,0.154-0.036l1.542,0.564
							c0.091,0.033,0.111,0.082,0.094,0.126L595.12,171.218L595.12,171.218L595.12,171.218L595.12,171.218z"/>
						<circle id="Oval_5_" fill="#3F3F3F" cx="590.644" cy="180.942" r="0.639"/>
					</g>
					
						<rect x="591.019" y="172.099" transform="matrix(-0.9373 -0.3485 0.3485 -0.9373 1090.0848 540.9426)" fill="#E8F6FD" width="5.357" height="0.649"/>
					
						<rect x="590.255" y="172.936" transform="matrix(-0.9373 -0.3485 0.3485 -0.9373 1087.8883 544.6573)" fill="#E8F6FD" width="5.357" height="3.085"/>
					
						<rect x="589.438" y="175.527" transform="matrix(-0.9373 -0.3485 0.3485 -0.9373 1082.0404 547.3251)" fill="#E8F6FD" width="1.623" height="1.623"/>
					
						<rect x="591.209" y="176.517" transform="matrix(-0.9373 -0.3485 0.3485 -0.9373 1086.8564 550.1721)" fill="#E8F6FD" width="3.409" height="1.623"/>
					
						<rect x="588.731" y="177.348" transform="matrix(-0.9373 -0.3485 0.3485 -0.9373 1080.0076 550.7645)" fill="#E8F6FD" width="1.623" height="1.786"/>
					
						<rect x="590.501" y="178.338" transform="matrix(-0.9373 -0.3485 0.3485 -0.9373 1084.8217 553.6107)" fill="#E8F6FD" width="3.409" height="1.786"/>
				</g>
			</g>
			<g>
				
					<circle opacity="0.1" fill="#FFFFFF" stroke="#FFFFFF" stroke-miterlimit="10" enable-background="new    " cx="615.516" cy="207.419" r="17.887"/>
				
					<circle opacity="0.1" fill="#FFFFFF" stroke="#FFFFFF" stroke-miterlimit="10" enable-background="new    " cx="615.516" cy="207.419" r="15.951"/>
				<g>
					<g>
						<path id="Shape_5_" fill="#5B5A5D" d="M616.043,196.718c-0.003,0.001-0.006,0.003-0.009,0.004
							c-0.289-0.429-1.395-1.033-5.613,1.239c-4.597,2.476-4.347,3.671-4.119,4.014c-0.006,0.004-0.014,0.006-0.019,0.012
							l8.74,16.197l0.004-0.006c0.237,0.399,1.252,1.033,5.583-1.3c4.671-2.516,4.296-3.787,4.053-4.132L616.043,196.718
							L616.043,196.718L616.043,196.718L616.043,196.718z"/>
						
							<rect id="Rectangle_15_" x="610.492" y="199.227" transform="matrix(-0.8804 0.4742 -0.4742 -0.8804 1255.5858 97.9641)" fill="#3F3F3F" width="9.898" height="16.148"/>
						
							<rect id="Rectangle_7_" x="610.368" y="199.778" transform="matrix(-0.8804 0.4742 -0.4742 -0.8804 1255.2445 97.5921)" fill="#737F83" width="9.898" height="14.586"/>
						
							<rect id="Rectangle_6_" x="607.282" y="200.558" transform="matrix(-0.8804 0.4742 -0.4742 -0.8804 1246.7235 88.2776)" fill="#8C989B" width="9.898" height="1.563"/>
						
							<rect id="Rectangle_5_" x="615" y="215.034" transform="matrix(-0.8804 0.4742 -0.4742 -0.8804 1260.63 113.2018)" fill="#5B5A5C" width="2.083" height="1.042"/>
						
							<rect id="Rectangle_4_" x="617.751" y="213.552" transform="matrix(-0.8804 0.4742 -0.4742 -0.8804 1265.1016 109.1102)" fill="#5B5A5C" width="2.083" height="1.042"/>
						
							<rect id="Rectangle_3_" x="620.503" y="212.07" transform="matrix(-0.8804 0.4742 -0.4742 -0.8804 1269.5721 105.0187)" fill="#5B5A5C" width="2.083" height="1.042"/>
					</g>
					
						<rect x="609.249" y="204.063" transform="matrix(-0.8781 0.4785 -0.4785 -0.8781 1244.0735 92.4714)" fill="#E8F6FD" width="2.015" height="1.307"/>
					
						<rect x="610.298" y="203.926" transform="matrix(-0.8781 0.4785 -0.4785 -0.8781 1252.9146 92.3397)" fill="#E8F6FD" width="8.792" height="3.702"/>
					
						<rect x="612.397" y="209.141" transform="matrix(-0.8781 0.4785 -0.4785 -0.8781 1253.2549 101.5346)" fill="#E8F6FD" width="2.593" height="2.553"/>
					
						<rect x="615.119" y="207.658" transform="matrix(-0.8781 0.4785 -0.4785 -0.8781 1257.6571 97.4462)" fill="#E8F6FD" width="2.593" height="2.553"/>
					
						<rect x="611.185" y="201.844" transform="matrix(-0.8781 0.4785 -0.4785 -0.8781 1250.6617 86.3548)" fill="#E8F6FD" width="6.291" height="1.307"/>
					
						<rect x="617.84" y="206.175" transform="matrix(-0.8781 0.4785 -0.4785 -0.8781 1262.0581 93.3593)" fill="#E8F6FD" width="2.593" height="2.553"/>
					
						<rect x="612.969" y="210.524" transform="matrix(-0.8781 0.4785 -0.4785 -0.8781 1260.2762 100.2657)" fill="#E8F6FD" width="8.792" height="0.308"/>
					
						<rect x="613.362" y="211.244" transform="matrix(-0.8781 0.4785 -0.4785 -0.8781 1261.3574 101.4305)" fill="#E8F6FD" width="8.792" height="0.308"/>
					
						<rect x="613.753" y="211.963" transform="matrix(-0.8781 0.4785 -0.4785 -0.8781 1262.4373 102.5938)" fill="#E8F6FD" width="8.792" height="0.308"/>
					
						<rect x="614.145" y="212.683" transform="matrix(-0.8781 0.4785 -0.4785 -0.8781 1263.5182 103.7585)" fill="#E8F6FD" width="8.792" height="0.308"/>
				</g>
			</g>
			<g>
				
					<circle opacity="0.1" fill="#FFFFFF" stroke="#FFFFFF" stroke-miterlimit="10" enable-background="new    " cx="576.286" cy="197.927" r="7.286"/>
				
					<circle opacity="0.1" fill="#FFFFFF" stroke="#FFFFFF" stroke-miterlimit="10" enable-background="new    " cx="576.286" cy="197.927" r="6.097"/>
				<g>
					<g>
						<path fill="#5B5A5C" d="M580.481,200.376c0.119,0.24,0.021,0.532-0.219,0.651l-3.915,1.941
							c-0.24,0.119-0.531,0.021-0.651-0.219l-3.604-7.271c-0.119-0.24-0.021-0.532,0.219-0.651l3.915-1.941
							c0.24-0.119,0.531-0.021,0.651,0.219L580.481,200.376L580.481,200.376L580.481,200.376L580.481,200.376z"/>
						<path fill="#737F83" d="M576.371,203.109c-0.302,0.126-0.653-0.005-0.799-0.299l-3.605-7.271
							c-0.074-0.149-0.086-0.319-0.032-0.477c0.053-0.158,0.165-0.286,0.314-0.36l3.915-1.941c0.31-0.155,0.685-0.024,0.837,0.282
							l3.605,7.271c0.074,0.149,0.086,0.319,0.032,0.477c-0.053,0.158-0.165,0.286-0.314,0.36l-3.915,1.941
							C576.396,203.098,576.383,203.104,576.371,203.109C576.371,203.109,576.383,203.104,576.371,203.109L576.371,203.109
							L576.371,203.109z M576.308,193.001c-0.007,0.003-0.014,0.006-0.021,0.01l-3.915,1.941c-0.083,0.041-0.145,0.112-0.175,0.2
							s-0.023,0.182,0.018,0.265l3.605,7.271c0.084,0.17,0.292,0.243,0.465,0.157l3.915-1.941c0.083-0.041,0.145-0.112,0.175-0.2
							s0.023-0.182-0.018-0.265l-3.605-7.271C576.671,193.004,576.477,192.93,576.308,193.001
							C576.308,193.001,576.477,192.93,576.308,193.001L576.308,193.001L576.308,193.001z"/>
						
							<rect id="Rectangle_2_" x="574.225" y="194.877" transform="matrix(-0.896 0.4441 -0.4441 -0.896 1180.4818 119.2865)" fill="#737F83" width="4.092" height="6.034"/>
						<path id="Shape_4_" fill="#3F3F3F" d="M575.174,194.357c0.015,0.03,0.001,0.056-0.059,0.086l-1.017,0.504
							c-0.06,0.03-0.09,0.024-0.104-0.005l-0.012-0.025c-0.015-0.03-0.005-0.064,0.055-0.094l1.017-0.504
							c0.06-0.03,0.094-0.017,0.108,0.013L575.174,194.357L575.174,194.357L575.174,194.357L575.174,194.357z"/>
						<circle id="Oval_2_" fill="#3F3F3F" cx="577.915" cy="201.232" r="0.442"/>
					</g>
					
						<rect x="573.262" y="195.443" transform="matrix(-0.8984 0.4392 -0.4392 -0.8984 1177.7283 118.8664)" fill="#E8F6FD" width="3.704" height="0.449"/>
					
						<rect x="573.927" y="195.963" transform="matrix(-0.8984 0.4392 -0.4392 -0.8984 1179.5881 121.1589)" fill="#E8F6FD" width="3.704" height="2.133"/>
					
						<rect x="574.872" y="198.699" transform="matrix(-0.8984 0.4392 -0.4392 -0.8984 1179.9131 125.5469)" fill="#E8F6FD" width="1.123" height="1.123"/>
					
						<rect x="576.019" y="197.837" transform="matrix(-0.8984 0.4392 -0.4392 -0.8984 1182.8831 123.1347)" fill="#E8F6FD" width="2.357" height="1.123"/>
					
						<rect x="575.488" y="199.904" transform="matrix(-0.8984 0.4392 -0.4392 -0.8984 1181.6354 127.6689)" fill="#E8F6FD" width="1.123" height="1.235"/>
					
						<rect x="576.636" y="199.041" transform="matrix(-0.8984 0.4392 -0.4392 -0.8984 1184.6069 125.2554)" fill="#E8F6FD" width="2.357" height="1.235"/>
				</g>
			</g>
		</g>
	</g>
	<g>
		<g>
			<defs>
				<rect id="SVGID_3_" x="586.377" y="128.956" width="123.758" height="102.284"/>
			</defs>
			<clipPath id="SVGID_4_">
				<use xlink:href="#SVGID_3_"  overflow="visible"/>
			</clipPath>
			<g opacity="0.2" clip-path="url(#SVGID_4_)">
				<g>
					<path d="M595.704,279.637c0,5.5-4.5,10-10,10H227.12c-5.5,0-10-4.5-10-10V83.101c0-5.5,4.5-10,10-10h358.584
						c5.5,0,10,4.5,10,10V279.637z"/>
				</g>
			</g>
		</g>
	</g>
</g>
<path fill="#A0D5E9" d="M193.77,139.867c0,0,4.127-3.095,7.351-0.516c0,0,0.129-2.45-3.224-2.579S193.77,139.867,193.77,139.867z"/>
<path fill="#B1DFF0" d="M184.528,190.122c0,0,3.697,1.719,5.331,1.977c0,0,2.493-3.267,4.299-4.213c0,0,1.806,3.955,4.385,5.331
	c0,0,2.838-5.073,6.793-6.706c0,0,1.806,1.892,3.783,2.15l-0.086,3.697c0,0-2.751-1.032-3.783-1.977c0,0-4.557,6.277-3.955,8.77
	c0,0-5.76-2.752-8.34-5.503c0,0-2.579,1.892-3.181,2.752C189.772,196.399,186.162,193.389,184.528,190.122z"/>
<path fill="#84C0CE" d="M149.792,222.407c0,0,6.062,12.123,5.804,17.669c0,0-6.062-0.129-11.349-4.514c0,0,8.125,7.996,15.476,6.964
	C159.722,242.526,158.304,230.661,149.792,222.407z"/>
<g>
	<g>
		<path fill="#064F68" d="M586.377,272.454c0,5.5-4.5,10-10,10H217.793c-5.5,0-10-4.5-10-10V72.148c0-5.5,4.5-10,10-10h358.584
			c5.5,0,10,4.5,10,10V272.454z"/>
	</g>
</g>
<path fill="#CDEAF5" d="M217.145,143.994c0,0-6.319,8.125-10.189,10.575c0,0,1.118,1.677,2.365,2.192
	C209.322,156.762,215.985,148.959,217.145,143.994z"/>
<g>
	<line fill="none" stroke="#737F82" stroke-miterlimit="10" x1="595.884" y1="251.051" x2="704.173" y2="251.051"/>
	<polygon fill="#737F82" points="707.02,251.051 704.173,253.898 704.173,248.204 	"/>
</g>
<rect x="587.059" y="241.615" fill="#FFFFFF" width="101.406" height="18.871"/>
<g>
	<path fill="#737F82" d="M597.303,254.094v-5.029l-1.992,5.029h-0.488l-2.002-5.029v5.029h-1.143v-6.514h1.611l1.777,4.473
		l1.768-4.473h1.611v6.514H597.303z"/>
	<path fill="#737F82" d="M600.024,254.094v-6.514h1.143v6.514H600.024z"/>
	<path fill="#737F82" d="M607.288,254.094l-3.398-4.658v4.658h-1.143v-6.514h1.172l3.33,4.512v-4.512h1.143v6.514H607.288z"/>
	<path fill="#737F82" d="M609.57,251.203v-0.879h2.344v0.879H609.57z"/>
	<path fill="#737F82" d="M618.025,254.094l-1.26-4.814l-1.27,4.814h-1.221l-1.855-6.514h1.27l1.27,5.01l1.348-5.01h0.908l1.348,5.01
		l1.27-5.01h1.279l-1.865,6.514H618.025z"/>
	<path fill="#737F82" d="M622.053,254.094v-6.514h1.143v6.514H622.053z"/>
	<path fill="#737F82" d="M624.777,254.094v-6.514h2.422c2.041,0,3.408,1.348,3.408,3.252c0,1.924-1.367,3.262-3.398,3.262
		L624.777,254.094L624.777,254.094z M629.435,250.832c0-1.25-0.781-2.246-2.227-2.246h-1.289v4.502h1.279
		C628.615,253.088,629.435,252.072,629.435,250.832z"/>
	<path fill="#737F82" d="M633.212,254.094v-5.508h-1.973v-1.006h5.088v1.006h-1.973v5.508H633.212z"/>
	<path fill="#737F82" d="M642.017,254.094v-2.852h-3.389v2.852h-1.143v-6.514h1.143v2.656h3.389v-2.656h1.143v6.514H642.017z"/>
	<path fill="#737F82" d="M644.562,249.992c0-0.371,0.312-0.684,0.684-0.684s0.684,0.312,0.684,0.684
		c0,0.361-0.312,0.674-0.684,0.674S644.562,250.354,644.562,249.992z M644.562,253.508c0-0.361,0.312-0.674,0.684-0.674
		s0.684,0.312,0.684,0.674c0,0.371-0.312,0.693-0.684,0.693S644.562,253.879,644.562,253.508z"/>
	<path fill="#737F82" d="M649.755,254.094v-0.908c2.529-1.914,3.525-2.754,3.525-3.701c0-0.684-0.596-0.986-1.191-0.986
		c-0.762,0-1.338,0.303-1.758,0.771l-0.664-0.742c0.576-0.703,1.494-1.045,2.412-1.045c1.26,0,2.354,0.703,2.354,2.002
		c0,1.211-1.104,2.285-2.842,3.604h2.881v1.006L649.755,254.094L649.755,254.094z"/>
	<path fill="#737F82" d="M655.679,252.414c0-0.82,0.674-1.416,1.465-1.68c-0.732-0.234-1.357-0.723-1.357-1.543
		c0-1.211,1.24-1.709,2.393-1.709s2.393,0.498,2.393,1.709c0,0.82-0.625,1.309-1.357,1.543c0.791,0.264,1.465,0.859,1.465,1.68
		c0,1.172-1.172,1.797-2.5,1.797C656.841,254.211,655.679,253.586,655.679,252.414z M659.517,252.268
		c0-0.674-0.938-0.967-1.338-1.025c-0.41,0.059-1.338,0.352-1.338,1.025c0,0.576,0.596,0.928,1.338,0.928
		C658.902,253.195,659.517,252.844,659.517,252.268z M659.41,249.367c0-0.557-0.527-0.869-1.23-0.869s-1.23,0.312-1.23,0.869
		c0,0.605,0.84,0.84,1.23,0.908C658.58,250.207,659.41,249.973,659.41,249.367z"/>
	<path fill="#737F82" d="M661.692,250.842c0-1.641,0.771-3.359,2.607-3.359c1.826,0,2.598,1.719,2.598,3.359
		c0,1.631-0.771,3.369-2.598,3.369C662.464,254.211,661.692,252.473,661.692,250.842z M665.735,250.842
		c0-1.25-0.371-2.344-1.436-2.344s-1.445,1.094-1.445,2.344c0,1.24,0.381,2.354,1.445,2.354
		C665.354,253.195,665.735,252.082,665.735,250.842z"/>
	<path fill="#737F82" d="M668.193,254.094v-6.514h2.871c1.367,0,2.119,0.928,2.119,2.041c0,1.104-0.762,2.031-2.119,2.031h-1.729
		v2.441h-1.142V254.094z M672.011,249.621c0-0.625-0.459-1.035-1.104-1.035h-1.572v2.061h1.572
		C671.552,250.646,672.011,250.236,672.011,249.621z"/>
	<path fill="#737F82" d="M678.551,254.094l-1.826-2.549l-1.826,2.549h-1.367l2.432-3.34l-2.285-3.174h1.367l1.68,2.383l1.67-2.383
		h1.377l-2.295,3.164l2.441,3.35L678.551,254.094L678.551,254.094z"/>
</g>
<path fill="#5B5A5C" d="M135.95,122.871c-0.438,0.219-1.87,0.852-1.87,0.852c-12.732,6.317-26.552,0.129-26.552,0.129
	s2.406,8.284,10.963,12.886c8.559,4.601,20.592,1.034,20.592,1.034c1.044,1.47,1.725,5.428,1.725,5.428s1.837-5.124-0.221-12.551
	C139.146,125.444,136.222,122.735,135.95,122.871"/>
<path fill="#737F83" d="M135.95,122.871c-0.424,0.204-1.87,0.852-1.87,0.852c-12.732,6.317-26.552,0.129-26.552,0.129
	s13.13,14.863,32.565,5.253C140.093,129.104,139.325,125.67,135.95,122.871"/>
<path fill="#CDEAF5" d="M158.032,274.658l-1.323,0.089c-1.07-14.982,12.755-14.833,12.755-14.833
	c-12.369,3.784-10.756,14.712-10.756,14.712L158.032,274.658z"/>
<path fill="#CDEAF5" d="M180.229,254.95c-0.859-3.095-1.376-11.349-1.376-11.349l-7.825-4.729c0,4.836,1.784,14.681,1.784,14.681
	c-5.288,0.258-18.829,4.772-18.829,4.772c0.838-0.129,2.167,0.507,2.167,0.507c-3.12,1.346-6.746,6.328-6.746,6.328
	c0.451-0.258,1.931-0.906,1.931-0.906c-1.357,1.286-2.189,5.807-2.189,6.839s-0.58,2.837-0.58,2.837l2.912-0.505
	c0.646-0.068,1.293-0.133,1.94-0.181c-0.173-1.449-0.953-9.819,9.375-14.623c0,0-0.082,0.026-0.218,0.075
	C168.637,255.641,180.229,254.95,180.229,254.95z"/>
<path fill="#AADAE2" d="M204.152,245.557c0,0-15.67-1.612-30.372-11.93c0,0,10.328,10.255,18.571,12.897
	s10.962,12.316,10.962,12.316S203.249,250.2,204.152,245.557z"/>
<path fill="#CDEAF5" d="M202.788,105.346c0,0-10.146,8.082-6.019,13.929s-4.127,13.413,0,17.712s-1.032,15.304,8.942,23.386
	c0,0,6.879-7.566,8.426-14.616l-3.095-0.344c0,0,10.49-3.955,17.54-11.521c0,0-8.426-1.892-15.476-1.892
	c0,0,11.005-5.674,16.336-4.815c0,0-1.548-6.535-8.426-8.082c0,0,6.706-7.738-2.923-11.005S204.851,103.971,202.788,105.346z"/>
<path fill="#EAF6FD" d="M206.399,101.735c0,0-10.146,8.082-6.019,13.929s-4.127,13.413,0,17.712s-1.032,15.304,8.942,23.386
	c0,0,6.879-7.566,8.426-14.616l-3.095-0.344c0,0,10.49-3.955,17.54-11.521c0,0-8.426-1.892-15.476-1.892
	c0,0,11.005-5.674,16.336-4.815c0,0-1.548-6.535-8.426-8.082c0,0,6.706-7.738-2.923-11.005S208.462,100.36,206.399,101.735z"/>
<path fill="#CDEAF5" d="M233.052,123.574c0,0-8.426-5.761-21.323,5.073c0,0,2.366-0.387,4.987-0.258
	C216.716,128.389,228.71,122.629,233.052,123.574z"/>
<path fill="#CDEAF5" d="M224.626,115.492c0,0-7.481-1.032-11.479-0.129c0,0,4.514-5.933,13.155-2.579
	C226.302,112.784,225.529,114.847,224.626,115.492z"/>
<path fill="#CDEAF5" d="M232.192,130.281c0,0-18.529,7.91-22.656,11.521c0,0,2.021-0.344,5.116,0
	C214.653,141.802,227.378,136.815,232.192,130.281z"/>
<path fill="#E5E5E5" d="M586.377,285.125c0,1.475-1.988,2.671-4.44,2.671H211.396c-2.452,0-4.44-1.196-4.44-2.671l0,0
	c0-1.475,1.988-2.671,4.44-2.671h370.541C584.39,282.454,586.377,283.65,586.377,285.125L586.377,285.125z"/>
<g>
	<g opacity="0.6">
		<circle opacity="0.05" fill="#FFFFFF" enable-background="new    " cx="358.526" cy="94.694" r="6.547"/>
		<circle fill="#9FD2E7" cx="358.526" cy="94.694" r="2.316"/>
	</g>
	<g>
		<circle opacity="0.6" fill="#028CB9" enable-background="new    " cx="414.552" cy="189.207" r="1.79"/>
		<circle opacity="0.6" fill="#028CB9" enable-background="new    " cx="493.918" cy="225.011" r="1.79"/>
		<circle opacity="0.6" fill="#028CB9" enable-background="new    " cx="450.356" cy="247.687" r="1.79"/>
		<circle opacity="0.6" fill="#028CB9" enable-background="new    " cx="441.405" cy="145.854" r="1.79"/>
		<g opacity="0.6">
			<circle opacity="0.05" fill="#FFFFFF" enable-background="new    " cx="483.453" cy="198.58" r="6.547"/>
			<circle fill="#9FD2E7" cx="483.453" cy="198.58" r="2.316"/>
		</g>
		<g opacity="0.6">
			<circle opacity="0.05" fill="#FFFFFF" enable-background="new    " cx="478.707" cy="244.278" r="13.421"/>
			<circle fill="#9FD2E7" cx="478.707" cy="244.278" r="4.746"/>
			<circle opacity="0.1" fill="#FFFFFF" enable-background="new    " cx="478.707" cy="244.482" r="8.471"/>
		</g>
		<g opacity="0.6">
			<circle opacity="0.05" fill="#FFFFFF" enable-background="new    " cx="460.582" cy="221.722" r="8.042"/>
			<circle fill="#9FD2E7" cx="460.582" cy="221.722" r="2.844"/>
		</g>
		<g>
			<circle opacity="0.6" fill="#028CB9" enable-background="new    " cx="520.198" cy="211.312" r="1.262"/>
			<circle opacity="0.6" fill="#028CB9" enable-background="new    " cx="557.127" cy="195.548" r="1.262"/>
			<circle opacity="0.6" fill="#028CB9" enable-background="new    " cx="545.43" cy="252.524" r="1.262"/>
			<circle opacity="0.6" fill="#028CB9" enable-background="new    " cx="492.442" cy="104.222" r="1.262"/>
			<circle opacity="0.6" fill="#028CB9" enable-background="new    " cx="436.511" cy="78.99" r="1.262"/>
			<circle opacity="0.6" fill="#028CB9" enable-background="new    " cx="517.674" cy="145.435" r="1.262"/>
			<circle opacity="0.6" fill="#028CB9" enable-background="new    " cx="405.812" cy="162.256" r="1.262"/>
			<circle opacity="0.6" fill="#028CB9" enable-background="new    " cx="461.743" cy="120.203" r="1.262"/>
			<g opacity="0.6">
				<circle opacity="0.05" fill="#FFFFFF" enable-background="new    " cx="545.638" cy="184.329" r="5.667"/>
				<circle fill="#9FD2E7" cx="545.638" cy="184.329" r="2.004"/>
			</g>
			<g opacity="0.6">
				<circle opacity="0.05" fill="#FFFFFF" enable-background="new    " cx="567.718" cy="177.408" r="8.915"/>
				<circle fill="#9FD2E7" cx="567.718" cy="177.408" r="3.153"/>
				<circle opacity="0.1" fill="#FFFFFF" enable-background="new    " cx="567.583" cy="177.408" r="5.627"/>
			</g>
			<g opacity="0.6">
				<circle opacity="0.05" fill="#FFFFFF" enable-background="new    " cx="473.898" cy="96.737" r="9.458"/>
				<circle fill="#9FD2E7" cx="473.898" cy="96.737" r="3.345"/>
				<circle opacity="0.1" fill="#FFFFFF" enable-background="new    " cx="474.02" cy="96.66" r="5.969"/>
			</g>
			<g opacity="0.6">
				<circle opacity="0.05" fill="#FFFFFF" enable-background="new    " cx="490.04" cy="119.482" r="5.667"/>
				<circle fill="#9FD2E7" cx="490.04" cy="119.482" r="2.004"/>
			</g>
			<g opacity="0.6">
				<circle opacity="0.05" fill="#FFFFFF" enable-background="new    " cx="534.087" cy="88.822" r="4.614"/>
				<circle fill="#9FD2E7" cx="534.087" cy="88.822" r="1.632"/>
			</g>
			<g opacity="0.6">
				<circle opacity="0.05" fill="#FFFFFF" enable-background="new    " cx="526.073" cy="261.811" r="4.614"/>
				<circle fill="#9FD2E7" cx="526.073" cy="261.811" r="1.632"/>
			</g>
			<g opacity="0.6">
				<circle opacity="0.05" fill="#FFFFFF" enable-background="new    " cx="430.635" cy="177.592" r="4.614"/>
				<circle fill="#9FD2E7" cx="430.635" cy="177.592" r="1.632"/>
			</g>
		</g>
		<circle opacity="0.6" fill="#028CB9" enable-background="new    " cx="266.292" cy="219.425" r="1.79"/>
		<circle opacity="0.6" fill="#028CB9" enable-background="new    " cx="295.817" cy="260.847" r="1.79"/>
		<circle opacity="0.6" fill="#028CB9" enable-background="new    " cx="227.877" cy="216.859" r="1.79"/>
		<circle opacity="0.6" fill="#028CB9" enable-background="new    " cx="343.426" cy="141.049" r="1.79"/>
		<g opacity="0.6">
			<circle opacity="0.05" fill="#FFFFFF" enable-background="new    " cx="248.245" cy="226.449" r="5.623"/>
			<circle fill="#9FD2E7" cx="248.245" cy="226.449" r="1.989"/>
		</g>
		<g opacity="0.6">
			<circle opacity="0.05" fill="#FFFFFF" enable-background="new    " cx="231.006" cy="240.772" r="8.846"/>
			<circle fill="#9FD2E7" cx="231.006" cy="240.772" r="3.128"/>
			<circle opacity="0.1" fill="#FFFFFF" enable-background="new    " cx="230.95" cy="240.894" r="5.583"/>
		</g>
		<circle opacity="0.6" fill="#028CB9" enable-background="new    " cx="360.19" cy="114.036" r="1.79"/>
		<g opacity="0.6">
			<circle opacity="0.05" fill="#FFFFFF" enable-background="new    " cx="345.923" cy="105.062" r="2.573"/>
			<circle fill="#9FD2E7" cx="345.923" cy="105.062" r="0.91"/>
		</g>
		<g>
			<circle opacity="0.6" fill="#028CB9" enable-background="new    " cx="289.488" cy="133.743" r="1.262"/>
			<circle opacity="0.6" fill="#028CB9" enable-background="new    " cx="252.559" cy="149.507" r="1.262"/>
			<circle opacity="0.6" fill="#028CB9" enable-background="new    " cx="264.256" cy="92.53" r="1.262"/>
			<circle opacity="0.6" fill="#028CB9" enable-background="new    " cx="317.243" cy="240.833" r="1.262"/>
			<circle opacity="0.6" fill="#028CB9" enable-background="new    " cx="373.175" cy="266.065" r="1.262"/>
			<circle opacity="0.6" fill="#028CB9" enable-background="new    " cx="292.011" cy="199.62" r="1.262"/>
			<circle opacity="0.6" fill="#028CB9" enable-background="new    " cx="403.874" cy="182.798" r="1.262"/>
			<circle opacity="0.6" fill="#028CB9" enable-background="new    " cx="347.942" cy="224.852" r="1.262"/>
			<g opacity="0.6">
				<circle opacity="0.05" fill="#FFFFFF" enable-background="new    " cx="264.048" cy="160.726" r="5.667"/>
				<circle fill="#9FD2E7" cx="264.048" cy="160.726" r="2.004"/>
			</g>
			<g opacity="0.6">
				<circle opacity="0.05" fill="#FFFFFF" enable-background="new    " cx="241.967" cy="167.647" r="8.915"/>
				<circle fill="#9FD2E7" cx="241.967" cy="167.647" r="3.153"/>
				<circle opacity="0.1" fill="#FFFFFF" enable-background="new    " cx="242.103" cy="167.647" r="5.627"/>
			</g>
			<g opacity="0.6">
				<circle opacity="0.05" fill="#FFFFFF" enable-background="new    " cx="335.787" cy="248.318" r="9.458"/>
				<circle fill="#9FD2E7" cx="335.787" cy="248.318" r="3.345"/>
				<circle opacity="0.1" fill="#FFFFFF" enable-background="new    " cx="335.666" cy="248.395" r="5.969"/>
			</g>
			<g opacity="0.6">
				<circle opacity="0.05" fill="#FFFFFF" enable-background="new    " cx="319.645" cy="225.572" r="5.667"/>
				<circle fill="#9FD2E7" cx="319.645" cy="225.572" r="2.004"/>
			</g>
			<g opacity="0.6">
				<circle opacity="0.05" fill="#FFFFFF" enable-background="new    " cx="275.598" cy="256.233" r="4.614"/>
				<circle fill="#9FD2E7" cx="275.598" cy="256.233" r="1.632"/>
			</g>
			<g opacity="0.6">
				<circle opacity="0.05" fill="#FFFFFF" enable-background="new    " cx="283.612" cy="83.243" r="4.614"/>
				<circle fill="#9FD2E7" cx="283.612" cy="83.243" r="1.632"/>
			</g>
			<g opacity="0.6">
				<circle opacity="0.05" fill="#FFFFFF" enable-background="new    " cx="379.05" cy="167.463" r="4.614"/>
				<circle fill="#9FD2E7" cx="379.05" cy="167.463" r="1.632"/>
			</g>
		</g>
	</g>
</g>
<g>
	<g>
		
			<circle opacity="0.1" fill="#FFFFFF" stroke="#FFFFFF" stroke-miterlimit="10" enable-background="new    " cx="490.01" cy="144.079" r="71.629"/>
		
			<circle opacity="0.1" fill="#FFFFFF" stroke="#FFFFFF" stroke-miterlimit="10" enable-background="new    " cx="490.01" cy="144.079" r="62.476"/>
		<g>
			<g>
				<path fill="#5B5A5C" d="M529.04,176.022c0.496,2.522-1.669,5.075-4.834,5.701l-51.593,10.199
					c-3.165,0.626-6.134-0.912-6.63-3.434l-14.999-76.358c-0.496-2.522,1.669-5.075,4.834-5.701l51.593-10.199
					c3.165-0.626,6.134,0.912,6.63,3.434L529.04,176.022L529.04,176.022L529.04,176.022L529.04,176.022z"/>
				<path fill="#737F83" d="M472.376,193.314c-3.9,0.561-7.429-1.416-8.034-4.5l-14.999-76.358
					c-0.308-1.569,0.168-3.195,1.344-4.581c1.173-1.384,2.905-2.361,4.873-2.75l51.593-10.199c4.092-0.817,7.895,1.204,8.524,4.417
					l14.999,76.358c0.308,1.569-0.168,3.195-1.344,4.581c-1.173,1.384-2.905,2.361-4.875,2.751l-51.593,10.199
					C472.704,193.261,472.54,193.29,472.376,193.314C472.376,193.314,472.54,193.29,472.376,193.314L472.376,193.314
					L472.376,193.314z M507.94,97.489c-0.09,0.013-0.184,0.029-0.274,0.047l-51.593,10.199c-1.094,0.217-2.056,0.759-2.708,1.529
					c-0.652,0.769-0.918,1.673-0.746,2.544l14.999,76.358c0.351,1.785,2.459,2.914,4.736,2.454l51.593-10.199
					c1.094-0.217,2.056-0.759,2.708-1.529c0.652-0.769,0.918-1.673,0.746-2.544L512.402,99.99
					C512.064,98.275,510.107,97.176,507.94,97.489C507.94,97.489,510.107,97.176,507.94,97.489L507.94,97.489L507.94,97.489z"/>
				<polygon id="Rectangle_14_" fill="#737F83" points="519.605,167.005 471.297,176.553 460.147,119.782 508.454,110.233 				"/>
				<path id="Shape_2_" fill="#3F3F3F" d="M490.147,107.958c0.06,0.31-0.192,0.536-0.984,0.693L475.76,111.3
					c-0.791,0.157-1.112,0.044-1.172-0.267l-0.052-0.263c-0.06-0.31,0.176-0.618,0.967-0.775l13.403-2.649
					c0.791-0.157,1.129,0.038,1.188,0.348L490.147,107.958L490.147,107.958L490.147,107.958L490.147,107.958z"/>
				<circle id="Oval_1_" fill="#3F3F3F" cx="496.718" cy="178.769" r="4.239"/>
			</g>
			<polygon fill="#E8F6FD" points="506.847,118.335 464.047,126.601 463.24,122.336 506.04,114.07 			"/>
			<polygon fill="#E8F6FD" points="508.946,129.426 466.146,137.692 464.37,128.308 507.17,120.042 			"/>
			<polygon fill="#E8F6FD" points="480.5,149.069 468.73,151.342 466.631,140.251 478.401,137.978 			"/>
			<polygon fill="#E8F6FD" points="496.55,145.969 482.64,148.656 480.541,137.565 494.451,134.879 			"/>
			<polygon fill="#E8F6FD" points="511.53,143.076 499.76,145.349 497.661,134.259 509.431,131.986 			"/>
			<polygon fill="#E8F6FD" points="512.236,146.687 469.921,154.86 469.697,153.676 512.012,145.504 			"/>
			<polygon fill="#E8F6FD" points="512.831,149.833 470.517,158.005 470.293,156.822 512.607,148.65 			"/>
			<polygon fill="#E8F6FD" points="513.427,152.978 471.112,161.15 470.888,159.967 513.203,151.795 			"/>
			<polygon fill="#E8F6FD" points="514.022,156.124 471.707,164.296 471.483,163.112 513.798,154.94 			"/>
			<polygon fill="#E8F6FD" points="516.051,166.964 473.251,175.23 471.637,166.698 514.437,158.433 			"/>
		</g>
	</g>
	<g>
		
			<circle opacity="0.1" fill="#FFFFFF" stroke="#FFFFFF" stroke-miterlimit="10" enable-background="new    " cx="341.303" cy="163.192" r="22.538"/>
		
			<circle opacity="0.1" fill="#FFFFFF" stroke="#FFFFFF" stroke-miterlimit="10" enable-background="new    " cx="341.303" cy="163.192" r="18.86"/>
		<g>
			<g>
				<path fill="#5B5A5C" d="M344.752,177.817c-0.285,0.779-1.147,1.18-1.926,0.895l-12.696-4.641
					c-0.779-0.285-1.18-1.147-0.895-1.926l8.62-23.579c0.285-0.779,1.147-1.18,1.926-0.895l12.696,4.641
					c0.779,0.285,1.18,1.147,0.895,1.926L344.752,177.817L344.752,177.817L344.752,177.817L344.752,177.817z"/>
				<path fill="#737F83" d="M329.863,174.426c-0.927-0.41-1.38-1.477-1.032-2.429l8.62-23.579c0.177-0.484,0.532-0.871,1-1.088
					s0.992-0.239,1.476-0.062l12.696,4.641c1.008,0.366,1.514,1.485,1.151,2.477l-8.62,23.579c-0.177,0.484-0.532,0.871-1,1.088
					s-0.992,0.239-1.477,0.062l-12.696-4.641C329.942,174.459,329.902,174.443,329.863,174.426
					C329.863,174.426,329.902,174.443,329.863,174.426L329.863,174.426L329.863,174.426z M352.396,152.742
					c-0.021-0.009-0.044-0.019-0.066-0.027l-12.696-4.641c-0.269-0.098-0.561-0.086-0.821,0.035s-0.457,0.335-0.556,0.605
					l-8.62,23.579c-0.201,0.551,0.078,1.174,0.639,1.376l12.696,4.641c0.269,0.098,0.561,0.086,0.821-0.035s0.457-0.335,0.556-0.605
					l8.62-23.579C353.162,153.561,352.911,152.969,352.396,152.742C352.396,152.742,352.911,152.969,352.396,152.742
					L352.396,152.742L352.396,152.742z"/>
				
					<rect id="Rectangle_8_" x="335.049" y="153.656" transform="matrix(-0.9392 -0.3434 0.3434 -0.9392 606.0258 433.2932)" fill="#737F83" width="12.657" height="18.665"/>
				<path id="Shape_67_" fill="#3F3F3F" d="M346.938,153.089c-0.035,0.096-0.125,0.122-0.319,0.051l-3.298-1.206
					c-0.195-0.071-0.246-0.149-0.211-0.245l0.03-0.081c0.035-0.096,0.134-0.148,0.329-0.077l3.298,1.206
					c0.195,0.071,0.237,0.175,0.202,0.27L346.938,153.089L346.938,153.089L346.938,153.089L346.938,153.089z"/>
				<circle id="Oval_4_" fill="#3F3F3F" cx="337.364" cy="173.888" r="1.368"/>
			</g>
			
				<rect x="338.164" y="154.992" transform="matrix(-0.9373 -0.3485 0.3485 -0.9373 611.9708 421.4597)" fill="#E8F6FD" width="11.459" height="1.389"/>
			
				<rect x="336.53" y="156.782" transform="matrix(-0.9373 -0.3485 0.3485 -0.9373 607.2737 429.4037)" fill="#E8F6FD" width="11.459" height="6.598"/>
			
				<rect x="334.783" y="162.323" transform="matrix(-0.9373 -0.3485 0.3485 -0.9373 594.7672 435.111)" fill="#E8F6FD" width="3.473" height="3.473"/>
			
				<rect x="338.569" y="164.44" transform="matrix(-0.9373 -0.3485 0.3485 -0.9373 605.0632 441.1987)" fill="#E8F6FD" width="7.292" height="3.473"/>
			
				<rect x="333.271" y="166.218" transform="matrix(-0.9373 -0.3485 0.3485 -0.9373 590.4201 442.4665)" fill="#E8F6FD" width="3.473" height="3.82"/>
			
				<rect x="337.057" y="168.336" transform="matrix(-0.9373 -0.3485 0.3485 -0.9373 600.7161 448.5542)" fill="#E8F6FD" width="7.292" height="3.82"/>
		</g>
	</g>
	<g>
		
			<circle opacity="0.1" fill="#FFFFFF" stroke="#FFFFFF" stroke-miterlimit="10" enable-background="new    " cx="390.565" cy="230.523" r="38.259"/>
		
			<circle opacity="0.1" fill="#FFFFFF" stroke="#FFFFFF" stroke-miterlimit="10" enable-background="new    " cx="390.565" cy="230.523" r="34.12"/>
		<g>
			<g>
				<path id="Shape_1_" fill="#5B5A5D" d="M391.692,207.634c-0.007,0.001-0.012,0.006-0.019,0.008
					c-0.618-0.917-2.984-2.21-12.005,2.649c-9.833,5.297-9.298,7.853-8.81,8.586c-0.013,0.008-0.029,0.014-0.04,0.025l18.694,34.645
					l0.009-0.013c0.508,0.853,2.678,2.209,11.941-2.781c9.99-5.381,9.19-8.1,8.668-8.839L391.692,207.634L391.692,207.634
					L391.692,207.634L391.692,207.634z"/>
				
					<rect id="Rectangle_13_" x="379.835" y="213.01" transform="matrix(-0.8804 0.4742 -0.4742 -0.8804 843.3538 247.8811)" fill="#3F3F3F" width="21.172" height="34.54"/>
				
					<rect id="Rectangle_12_" x="379.571" y="214.19" transform="matrix(-0.8804 0.4742 -0.4742 -0.8804 842.6229 247.0834)" fill="#737F83" width="21.172" height="31.199"/>
				
					<rect id="Rectangle_11_" x="372.969" y="215.859" transform="matrix(-0.8804 0.4742 -0.4742 -0.8804 824.395 227.1615)" fill="#8C989B" width="21.172" height="3.342"/>
				
					<rect id="Rectangle_10_" x="389.479" y="246.822" transform="matrix(-0.8804 0.4742 -0.4742 -0.8804 854.1436 280.4724)" fill="#5B5A5C" width="4.456" height="2.228"/>
				
					<rect id="Rectangle_9_" x="395.364" y="243.653" transform="matrix(-0.8804 0.4742 -0.4742 -0.8804 863.7084 271.7226)" fill="#5B5A5C" width="4.456" height="2.228"/>
				
					<rect id="Rectangle_1_" x="401.248" y="240.482" transform="matrix(-0.8804 0.4742 -0.4742 -0.8804 873.2692 262.9697)" fill="#5B5A5C" width="4.456" height="2.228"/>
			</g>
			
				<rect x="377.146" y="223.325" transform="matrix(-0.8781 0.4785 -0.4785 -0.8781 819.8914 240.5571)" fill="#E8F6FD" width="4.31" height="2.796"/>
			
				<rect x="379.388" y="223.033" transform="matrix(-0.8781 0.4785 -0.4785 -0.8781 838.7993 240.278)" fill="#E8F6FD" width="18.805" height="7.919"/>
			
				<rect x="383.877" y="234.187" transform="matrix(-0.8781 0.4785 -0.4785 -0.8781 839.528 259.9439)" fill="#E8F6FD" width="5.547" height="5.462"/>
			
				<rect x="389.698" y="231.015" transform="matrix(-0.8781 0.4785 -0.4785 -0.8781 848.9429 251.2008)" fill="#E8F6FD" width="5.547" height="5.462"/>
			
				<rect x="381.284" y="218.578" transform="matrix(-0.8781 0.4785 -0.4785 -0.8781 833.9807 227.4721)" fill="#E8F6FD" width="13.457" height="2.796"/>
			
				<rect x="395.519" y="227.843" transform="matrix(-0.8781 0.4785 -0.4785 -0.8781 858.3577 242.458)" fill="#E8F6FD" width="5.547" height="5.462"/>
			
				<rect x="385.101" y="237.145" transform="matrix(-0.8781 0.4785 -0.4785 -0.8781 854.5447 257.2313)" fill="#E8F6FD" width="18.805" height="0.66"/>
			
				<rect x="385.941" y="238.685" transform="matrix(-0.8781 0.4785 -0.4785 -0.8781 856.8577 259.722)" fill="#E8F6FD" width="18.805" height="0.66"/>
			
				<rect x="386.779" y="240.224" transform="matrix(-0.8781 0.4785 -0.4785 -0.8781 859.1696 262.2111)" fill="#E8F6FD" width="18.805" height="0.66"/>
			
				<rect x="387.617" y="241.763" transform="matrix(-0.8781 0.4785 -0.4785 -0.8781 861.4799 264.7015)" fill="#E8F6FD" width="18.805" height="0.66"/>
		</g>
	</g>
	<g>
		
			<circle opacity="0.1" fill="#FFFFFF" stroke="#FFFFFF" stroke-miterlimit="10" enable-background="new    " cx="306.653" cy="210.219" r="15.584"/>
		
			<circle opacity="0.1" fill="#FFFFFF" stroke="#FFFFFF" stroke-miterlimit="10" enable-background="new    " cx="306.653" cy="210.219" r="13.041"/>
		<g>
			<g>
				<path fill="#5B5A5C" d="M315.626,215.458c0.255,0.514,0.045,1.137-0.469,1.392l-8.374,4.152
					c-0.514,0.255-1.137,0.045-1.392-0.469l-7.71-15.553c-0.255-0.514-0.045-1.137,0.469-1.392l8.374-4.152
					c0.514-0.255,1.137-0.045,1.392,0.469L315.626,215.458L315.626,215.458L315.626,215.458L315.626,215.458z"/>
				<path fill="#737F83" d="M306.834,221.304c-0.647,0.27-1.398-0.012-1.709-0.64l-7.71-15.553c-0.158-0.32-0.183-0.682-0.069-1.02
					s0.353-0.611,0.672-0.77l8.374-4.152c0.664-0.331,1.465-0.051,1.789,0.603l7.71,15.553c0.158,0.32,0.183,0.682,0.069,1.02
					s-0.353,0.611-0.672,0.77l-8.374,4.152C306.888,221.281,306.861,221.293,306.834,221.304
					C306.834,221.304,306.861,221.293,306.834,221.304L306.834,221.304L306.834,221.304z M306.701,199.682
					c-0.015,0.006-0.03,0.013-0.045,0.021l-8.374,4.152c-0.178,0.088-0.31,0.24-0.374,0.428s-0.05,0.389,0.038,0.566l7.71,15.553
					c0.18,0.364,0.625,0.52,0.994,0.335l8.374-4.152c0.178-0.088,0.31-0.24,0.374-0.428s0.05-0.389-0.038-0.566l-7.71-15.553
					C307.477,199.688,307.06,199.532,306.701,199.682C306.701,199.682,307.06,199.532,306.701,199.682L306.701,199.682
					L306.701,199.682z"/>
				
					<rect id="Rectangle_16_" x="302.213" y="203.648" transform="matrix(-0.896 0.4441 -0.4441 -0.896 674.5909 262.1951)" fill="#737F83" width="8.752" height="12.906"/>
				<path id="Shape_3_" fill="#3F3F3F" d="M304.275,202.582c0.031,0.063,0.002,0.121-0.127,0.184l-2.176,1.078
					c-0.128,0.064-0.192,0.052-0.223-0.011l-0.027-0.053c-0.031-0.063-0.01-0.137,0.118-0.201l2.176-1.078
					c0.128-0.064,0.201-0.036,0.232,0.028L304.275,202.582L304.275,202.582L304.275,202.582L304.275,202.582z"/>
				<circle id="Oval_3_" fill="#3F3F3F" cx="310.137" cy="217.289" r="0.946"/>
			</g>
			
				<rect x="300.168" y="204.882" transform="matrix(-0.8984 0.4392 -0.4392 -0.8984 667.5517 256.284)" fill="#E8F6FD" width="7.924" height="0.96"/>
			
				<rect x="301.592" y="205.993" transform="matrix(-0.8984 0.4392 -0.4392 -0.8984 671.5339 261.1867)" fill="#E8F6FD" width="7.924" height="4.562"/>
			
				<rect x="303.613" y="211.845" transform="matrix(-0.8984 0.4392 -0.4392 -0.8984 672.2231 270.5703)" fill="#E8F6FD" width="2.401" height="2.401"/>
			
				<rect x="306.067" y="210" transform="matrix(-0.8984 0.4392 -0.4392 -0.8984 678.5792 265.4102)" fill="#E8F6FD" width="5.042" height="2.401"/>
			
				<rect x="304.931" y="214.422" transform="matrix(-0.8984 0.4392 -0.4392 -0.8984 675.9102 275.1116)" fill="#E8F6FD" width="2.401" height="2.641"/>
			
				<rect x="307.385" y="212.576" transform="matrix(-0.8984 0.4392 -0.4392 -0.8984 682.2652 269.9499)" fill="#E8F6FD" width="5.042" height="2.641"/>
		</g>
	</g>
</g>
<line fill="none" stroke="#737F82" stroke-miterlimit="10" x1="209.71" y1="302.237" x2="581.186" y2="302.237"/>
<polygon fill="#737F82" points="208.731,302.237 211.578,299.389 211.578,305.084 "/>
<polygon fill="#737F82" points="584.033,302.237 581.186,305.084 581.186,299.389 "/>
<rect x="334.656" y="291.709" fill="#FFFFFF" width="123.453" height="18.871"/>
<g>
	<path fill="#737F82" d="M350.402,305.084v-6.035l-2.391,6.035h-0.586l-2.402-6.035v6.035h-1.371v-7.816h1.934l2.133,5.367
		l2.121-5.367h1.934v7.816H350.402z"/>
	<path fill="#737F82" d="M353.666,305.084v-7.816h1.371v7.816H353.666z"/>
	<path fill="#737F82" d="M362.383,305.084l-4.078-5.59v5.59h-1.371v-7.816h1.406l3.996,5.414v-5.414h1.371v7.816H362.383z"/>
	<path fill="#737F82" d="M365.121,301.615v-1.055h2.812v1.055H365.121z"/>
	<path fill="#737F82" d="M375.267,305.084l-1.512-5.777l-1.523,5.777h-1.465l-2.227-7.816h1.523l1.523,6.012l1.617-6.012h1.09
		l1.617,6.012l1.523-6.012h1.535l-2.238,7.816H375.267z"/>
	<path fill="#737F82" d="M380.102,305.084v-7.816h1.371v7.816H380.102z"/>
	<path fill="#737F82" d="M383.37,305.084v-7.816h2.906c2.449,0,4.09,1.617,4.09,3.902c0,2.309-1.641,3.914-4.078,3.914H383.37z
		 M388.96,301.17c0-1.5-0.938-2.695-2.672-2.695h-1.547v5.402h1.535C387.975,303.877,388.96,302.658,388.96,301.17z"/>
	<path fill="#737F82" d="M393.491,305.084v-6.609h-2.367v-1.207h6.105v1.207h-2.367v6.609H393.491z"/>
	<path fill="#737F82" d="M404.057,305.084v-3.422h-4.066v3.422h-1.371v-7.816h1.371v3.188h4.066v-3.188h1.371v7.816H404.057z"/>
	<path fill="#737F82" d="M407.112,300.162c0-0.445,0.375-0.82,0.82-0.82s0.82,0.375,0.82,0.82c0,0.434-0.375,0.809-0.82,0.809
		S407.112,300.596,407.112,300.162z M407.112,304.381c0-0.434,0.375-0.809,0.82-0.809s0.82,0.375,0.82,0.809
		c0,0.445-0.375,0.832-0.82,0.832S407.112,304.826,407.112,304.381z"/>
	<path fill="#737F82" d="M413.25,303.068c0-0.984,0.809-1.699,1.758-2.016c-0.879-0.281-1.629-0.867-1.629-1.852
		c0-1.453,1.488-2.051,2.871-2.051s2.871,0.598,2.871,2.051c0,0.984-0.75,1.57-1.629,1.852c0.949,0.316,1.758,1.031,1.758,2.016
		c0,1.406-1.406,2.156-3,2.156C414.644,305.225,413.25,304.475,413.25,303.068z M417.855,302.893c0-0.809-1.125-1.16-1.605-1.23
		c-0.492,0.07-1.605,0.422-1.605,1.23c0,0.691,0.715,1.113,1.605,1.113C417.117,304.006,417.855,303.584,417.855,302.893z
		 M417.726,299.412c0-0.668-0.633-1.043-1.477-1.043s-1.477,0.375-1.477,1.043c0,0.727,1.008,1.008,1.477,1.09
		C416.73,300.42,417.726,300.139,417.726,299.412z"/>
	<path fill="#737F82" d="M420.465,301.182c0-1.969,0.926-4.031,3.129-4.031c2.191,0,3.117,2.062,3.117,4.031
		c0,1.957-0.926,4.043-3.117,4.043C421.39,305.225,420.465,303.139,420.465,301.182z M425.316,301.182
		c0-1.5-0.445-2.812-1.723-2.812s-1.734,1.312-1.734,2.812c0,1.488,0.457,2.824,1.734,2.824
		C424.859,304.006,425.316,302.67,425.316,301.182z"/>
	<path fill="#737F82" d="M427.925,301.182c0-1.969,0.926-4.031,3.129-4.031c2.191,0,3.117,2.062,3.117,4.031
		c0,1.957-0.926,4.043-3.117,4.043C428.851,305.225,427.925,303.139,427.925,301.182z M432.777,301.182
		c0-1.5-0.445-2.812-1.723-2.812s-1.734,1.312-1.734,2.812c0,1.488,0.457,2.824,1.734,2.824
		C432.32,304.006,432.777,302.67,432.777,301.182z"/>
	<path fill="#737F82" d="M435.726,305.084v-7.816h3.445c1.641,0,2.543,1.113,2.543,2.449c0,1.324-0.914,2.438-2.543,2.438h-2.074
		v2.93L435.726,305.084L435.726,305.084z M440.308,299.717c0-0.75-0.551-1.242-1.324-1.242h-1.887v2.473h1.887
		C439.757,300.947,440.308,300.455,440.308,299.717z"/>
	<path fill="#737F82" d="M448.157,305.084l-2.191-3.059l-2.191,3.059h-1.641l2.918-4.008l-2.742-3.809h1.641l2.016,2.859
		l2.004-2.859h1.652l-2.754,3.797l2.93,4.02H448.157z"/>
</g>
</svg>
