<?xml version="1.0" encoding="utf-8"?>
<!-- Generator: Adobe Illustrator 16.2.1, SVG Export Plug-In . SVG Version: 6.00 Build 0)  -->
<!DOCTYPE svg PUBLIC "-//W3C//DTD SVG 1.1//EN" "http://www.w3.org/Graphics/SVG/1.1/DTD/svg11.dtd">
<svg version="1.1" id="Layer_1" xmlns="http://www.w3.org/2000/svg" xmlns:xlink="http://www.w3.org/1999/xlink" x="0px" y="0px"
	 width="717px" height="321px" viewBox="0 0 717 321" enable-background="new 0 0 717 321" xml:space="preserve">
<path fill="#E5E5E5" d="M563.406,307.932c0,1.51-4.28,2.735-9.56,2.735h-108.14c-5.279,0-9.559-1.226-9.559-2.735l0,0
	c0-1.512,4.279-2.736,9.559-2.736h108.14C559.126,305.195,563.406,306.42,563.406,307.932L563.406,307.932z"/>
<g>
	<rect x="448" y="261" fill="#737F82" width="102" height="40"/>
	<g>
		<path fill="#5B5A5C" d="M702.529,264.784c0,5.5-4.5,10-10,10H307.025c-5.5,0-10-4.5-10-10V30.102c0-5.5,4.5-10,10-10h385.504
			c5.5,0,10,4.5,10,10V264.784z"/>
		<path fill="none" stroke="#737F82" stroke-width="2" stroke-miterlimit="10" d="M702.529,264.784c0,5.5-4.5,10-10,10H307.025
			c-5.5,0-10-4.5-10-10V30.102c0-5.5,4.5-10,10-10h385.504c5.5,0,10,4.5,10,10V264.784z"/>
	</g>
	<rect x="308.992" y="32.357" fill="#737F83" width="381.57" height="209.428"/>
	<rect x="439" y="298" fill="#737F82" width="120" height="8"/>
</g>
<g opacity="0.3">
	<rect x="321" y="41" fill="#E8F6FD" width="77" height="19"/>
	<rect x="321" y="66" fill="#E8F6FD" width="358" height="120"/>
	<rect x="404" y="41" fill="#E8F6FD" width="275" height="19"/>
	<rect x="321" y="193" fill="#E8F6FD" width="84" height="40"/>
	<rect x="502" y="193" fill="#E8F6FD" width="85" height="40"/>
	<rect x="593" y="193" fill="#E8F6FD" width="86" height="40"/>
	<rect x="411" y="193" fill="#E8F6FD" width="85" height="40"/>
</g>
<g>
	<g>
		<g>
			<defs>
				<rect id="SVGID_1_" x="258.205" y="133.463" width="167.519" height="143.096"/>
			</defs>
			<clipPath id="SVGID_2_">
				<use xlink:href="#SVGID_1_"  overflow="visible"/>
			</clipPath>
			<g opacity="0.2" clip-path="url(#SVGID_2_)">
				<g>
					<path fill="#5B5A5C" d="M344.436,294.65c0,5.5-4.5,10-10,10H124.618c-5.5,0-10-4.5-10-10V146.679c0-5.5,4.5-10,10-10h209.817
						c5.5,0,10,4.5,10,10V294.65L344.436,294.65z"/>
					<path fill="none" stroke="#000000" stroke-width="6" stroke-miterlimit="10" d="M344.436,294.65c0,5.5-4.5,10-10,10H124.618
						c-5.5,0-10-4.5-10-10V146.679c0-5.5,4.5-10,10-10h209.817c5.5,0,10,4.5,10,10V294.65L344.436,294.65z"/>
				</g>
				<rect x="134.669" y="151.127" fill="#737F83" stroke="#000000" stroke-miterlimit="10" width="189.259" height="139.075"/>
			</g>
		</g>
	</g>
</g>
<g>
	<g>
		<g>
			<path fill="#5B5A5C" d="M341.584,294.139c0,5.5-4.5,10-10,10H121.766c-5.5,0-10-4.5-10-10V146.166c0-5.5,4.5-10,10-10h209.818
				c5.5,0,10,4.5,10,10V294.139L341.584,294.139z"/>
			<path fill="none" stroke="#737F82" stroke-width="2" stroke-miterlimit="10" d="M341.584,294.139c0,5.5-4.5,10-10,10H121.766
				c-5.5,0-10-4.5-10-10V146.166c0-5.5,4.5-10,10-10h209.818c5.5,0,10,4.5,10,10V294.139L341.584,294.139z"/>
		</g>
		<rect x="131.817" y="150.614" fill="#737F83" width="189.259" height="139.075"/>
	</g>
	<path fill="#3F3F3F" d="M128.055,220.152c0,2.55-2.067,4.617-4.617,4.617l0,0c-2.55,0-4.617-2.067-4.617-4.617l0,0
		c0-2.551,2.067-4.617,4.617-4.617l0,0C125.988,215.535,128.055,217.602,128.055,220.152L128.055,220.152z"/>
	
		<line fill="none" stroke="#3F3F3F" stroke-width="2" stroke-linecap="round" stroke-miterlimit="10" x1="329.91" y1="210.918" x2="329.91" y2="229.387"/>
</g>
<rect x="137" y="156" opacity="0.3" fill="#E8F6FD" width="180" height="12"/>
<rect x="137" y="174.5" opacity="0.3" fill="#E8F6FD" width="180" height="63.5"/>
<rect x="136.938" y="244.918" opacity="0.3" fill="#E8F6FD" width="86.094" height="38.094"/>
<rect x="230.438" y="244.994" opacity="0.3" fill="#E8F6FD" width="86.428" height="38.094"/>
<path fill="#5B5A5C" d="M260.614,72.384c0,0-1.581-0.578-2.067-0.782c-0.301-0.126-3.247,2.987-4.425,8.674
	c-0.905,4.36-0.648,7.916-0.218,10.284c0.377-0.25,0.758-0.49,1.159-0.703c0.148-0.079,0.297-0.025,0.383,0.077
	c0.211-0.824,0.474-1.603,0.793-2.121c0,0,13.164,2.978,22.024-2.565c8.858-5.543,10.855-14.602,10.855-14.602
	S274.724,78.263,260.614,72.384z"/>
<path fill="#737F83" d="M258.547,71.602c0.47,0.189,2.067,0.782,2.067,0.782c14.109,5.879,28.504-1.738,28.504-1.738
	s-13.04,16.877-34.576,7.937C254.542,78.584,255.124,74.845,258.547,71.602"/>
<path fill="#EAF6FD" d="M312.545,118.108l0.186-1.604l-2.22,0.539l-0.094-3.707l-4.068,2.215
	c-9.523-7.398-22.378-6.383-22.378-6.383c0.093-0.277,2.032-1.296,2.032-1.296c-3.884-0.647-10.733,0.274-10.733,0.274
	c0.092-0.462,1.746-1.485,1.746-1.485c-7.028,0-19.072,2.947-19.072,2.947c0.277-0.555,1.064-1.78,1.064-1.78
	c-4.942,0.248-10.335,2.537-13.373,4.029c3.376-9.01,9.822-17.876,13.095-22.846c4.993-7.582,12.576-14.055,13.685-14.795
	c1.109-0.74,8.137-3.884,8.137-3.884c-1.664-0.925-4.993-0.924-4.993-0.924c1.664-1.849,9.062-5.178,9.062-5.178
	c-2.404-4.624-7.398-6.842-7.398-6.842c3.329-2.034,10.726-3.884,10.726-3.884c-3.514-4.068-11.836-2.959-11.836-2.959
	c2.589-3.698,9.247-7.767,9.247-7.767c-4.068-3.514-11.651-6.103-11.651-6.103c1.48-2.589,8.507-8.322,8.507-8.322
	c-13.685-9.061-34.766-2.959-34.766-2.959c1.48-3.514,8.507-10.726,8.507-10.726c-16.459-1.48-35.691,11.466-35.691,11.466
	c0-2.034,2.775-7.767,2.775-7.767c-8.691,2.219-22.004,14.979-22.004,14.979c-0.925-1.664-0.549-5.918-0.549-5.918
	c-7.397,6.842-22.18,38.651-22.18,38.651c-0.925-0.924-1.457-2.404-1.457-2.404c-7.028,10.726-10.864,35.877-10.864,35.877
	l-0.352,1.891l-5.52,0.42c0,0-4.862-2.568-11.601-2.782c-3.436-0.296-8.565-0.401-13.919,0.701c0,0-2.26,3.2-4,8.275
	c-2.406,3.155-4.375,6.825-5.986,10.449c0,0,2.635-1.11,4.022-0.832c0,0-1.11,14.563,0.971,19.695c0,0,1.387-2.913,2.635-3.745
	c0,0,9.848,12.344,19.002,17.199c0,0-0.832-3.329-0.416-4.438l10.68,1.387c0,0,1.387,2.913,4.022,4.438l0.693-3.884
	c0,0,0.555,0.971,1.248,1.942l1.803-2.774c0,0,3.745-1.11,5.964-0.971c0,0,1.11,1.942,9.432,1.248
	c8.322-0.693,23.717-2.635,28.849-0.832c0,0-0.416-8.877-8.045-10.957c0,0,10.125,0.619,15.118,3.254c0,0-0.311-1.236-1.259-4.236
	h24.976h1.295h34.212h3.699c1.055,3,3.285,6.043,7.397,8.969c0,0,0.432-3.969,2.555-8.969H332.7
	C326.97,118,312.545,118.108,312.545,118.108z"/>
<path fill="#B1DFF0" d="M221.577,125.142c0.627,0.429,1.005,0.731,1.005,0.731c1.956-2.326,2.165-6.842,2.165-6.842
	c2.108,0.214,5.779,2.399,5.779,2.399c1.476-0.881,4.376-3.971,4.376-3.971c-0.31,3.784-2.628,8.086-2.628,8.086
	c-0.914-0.597-4.134-1.422-4.134-1.422c-1.422,3.652-5.287,7.883-5.287,7.883c-1.756-4.068-6.796-6.842-6.796-6.842L221.577,125.142
	z"/>
<path fill="#CDEAF5" d="M247.45,25.393c1.48-3.514,8.507-10.726,8.507-10.726c-16.459-1.48-35.691,11.466-35.691,11.466
	c0-2.034,2.775-7.767,2.775-7.767c-8.691,2.219-22.004,14.979-22.004,14.979c-0.925-1.664-0.549-5.918-0.549-5.918
	c-7.397,6.842-22.18,38.651-22.18,38.651c-0.925-0.924-1.457-2.404-1.457-2.404c-7.028,10.726-10.864,35.877-10.864,35.877
	l-0.22,1.187l-1.63-4.423l-1.664,4.161l-3.19-3.329l0.277,4.3c0,0-3.329-1.387-5.687-1.664c0,0,8.599,1.734,10.819,9.986l0.92-4.995
	l5.83,2.915c7.397-23.856,12.252-30.93,12.252-30.93c-1.803,0-4.3,0.971-4.3,0.971c12.344-30.514,34.259-39.945,34.259-39.945
	c-0.971,2.08-0.693,7.074-0.693,7.074c11.512-14.286,25.937-17.476,25.937-17.476c-1.248,1.248-2.497,8.877-2.497,8.877
	c23.44-11.789,40.561-3.268,40.561-3.268c2.442-2.342,5.256-4.637,5.256-4.637C268.531,19.291,247.45,25.393,247.45,25.393z"/>
<path fill="#CDEAF5" d="M286.381,119.923c-1.317,0.766-6.846,3.146-6.523,11.514l-25.014,0.26l-1.111-1.673l-1.529,1.242
	l0.411-3.612l-2.763,1.256c-1.248-4.716-3.606-6.797-3.606-6.797l-1.248-9.154l-3.097,10.882c3.005,5.409,3.514,11.16,3.514,11.16
	h38.097C281.077,128,284.897,121.954,286.381,119.923z"/>
<path fill="#CDEAF5" d="M323.849,135c0,0-0.692-7.628-9.153-14.147c0,0,9.015,3.147,11.512,14.147H323.849z"/>
<path fill="#CDEAF5" d="M293.463,135c0,0,1.19-4.508,4.727-5.062c3.537-0.555,14.633,1.062,18.378,5.062H293.463z"/>
<path fill="#CDEAF5" d="M211.942,125.441c0,0,8.345-0.601,10.657,0.416c0,0-4.349-11.047-22.862-11.974
	c-3.358-0.2-8.484-0.301-12.021,2.057c0.008,0.012,0,0,0,0s21.36-2.011,30.237,7.282c0,0-8.877-0.462-13.222,2.034
	c0,0,9.687,0.832,14.599,9.616h2.784C222.113,134.872,218.415,127.106,211.942,125.441z"/>
<path fill="#CDEAF5" d="M200.846,114.068c-6.935-4.531-12.021-5.178-14.61-5.364c-3.698,1.017-5.086,2.867-7.028,4.808
	c0,0-16.459,0.371-20.25,0.371c0,0-3.791-0.833-8.091-3.145c0,0,3.722,4.022,7.05,5.271c0,0,15.373-0.277,22.586-0.092
	c0,0,2.773-3.422,5.547-4.716c0,0,4.808,0.277,10.078,2.867H200.846z"/>
<path fill="#CDEAF5" d="M235.195,109.128c0.17,0.062,0.34,0.122,0.51,0.186c1.926,0.636,3.834,1.317,5.695,2.118
	c1.15-0.959,2.098-2.343,2.628-4.01c1.229-3.872-0.255-7.796-3.313-8.767c-3.058-0.97-6.533,1.381-7.762,5.252
	c-0.43,1.354-0.521,2.711-0.336,3.95C233.481,108.272,234.341,108.695,235.195,109.128z"/>
<path fill="#FFFFFF" d="M235.195,109.128c0.17,0.062,0.34,0.122,0.51,0.186c1.35,0.445,2.691,0.913,4.013,1.428
	c2.119-0.589,4.056-2.52,4.904-5.192c1.21-3.812-0.251-7.676-3.262-8.631c-3.011-0.956-6.433,1.358-7.642,5.169
	c-0.782,2.465-0.443,4.947,0.706,6.655C234.681,108.871,234.939,108.998,235.195,109.128z"/>
<path fill="#4E4D50" d="M239.245,102.531c-0.098,0.155-0.184,0.323-0.243,0.51c-0.308,0.972,0.075,1.96,0.856,2.208
	c0.693,0.22,1.467-0.22,1.846-1.001c0.261,0.725,0.285,1.598,0.009,2.467c-0.572,1.8-2.207,2.887-3.654,2.427
	c-1.446-0.459-2.156-2.29-1.585-4.09C236.931,103.614,238.068,102.634,239.245,102.531z"/>
<path fill="#CDEAF5" d="M217.257,103.359c1.052-0.949,1.917-2.256,2.413-3.818c1.228-3.872-0.255-7.797-3.313-8.767
	c-3.058-0.971-6.533,1.38-7.761,5.251c-0.526,1.655-0.552,3.318-0.174,4.757C211.358,101.658,214.365,102.354,217.257,103.359z"/>
<ellipse transform="matrix(0.9531 0.3025 -0.3025 0.9531 39.0934 -60.4979)" fill="#FFFFFF" cx="214.825" cy="95.938" rx="5.72" ry="7.238"/>
<path fill="#4E4D50" d="M214.493,95.249c-0.097,0.156-0.183,0.323-0.242,0.51c-0.309,0.972,0.075,1.96,0.856,2.208
	c0.694,0.221,1.466-0.22,1.846-1.002c0.261,0.725,0.285,1.599,0.01,2.467c-0.572,1.8-2.208,2.887-3.654,2.427
	c-1.447-0.459-2.156-2.289-1.585-4.089C212.18,96.332,213.316,95.352,214.493,95.249z"/>
<path fill="#5B5A5C" d="M192.692,81.274c0,0,2.56,0.189,4.986,0.616c-0.85,4.177-1.656,9.634-1.656,9.634l-0.037,0.165
	c-0.019,0.282-0.041,0.555-0.064,0.852c-0.169,2.193-0.073,3.544,1.612,4.871c1.655,1.306,5.894,3.375,10.305,5.029
	c1.641,0.615,3.567,1.114,5.569,1.443c2.972,0.487,5.782,0.536,6.994,0.123c1.762-0.602,3.369-3.015,4.432-4.612l0.316-0.47
	c0.368-0.542,0.723-1.122,1.067-1.684c0.494-0.807,1.003-1.642,1.293-1.894c0.052-0.043,0.272-0.182,0.925-0.075
	c0.453,0.075,1,0.246,1.628,0.511c0.471,0.2,0.472,0.201,0.438,0.712c-0.013,0.197-0.024,0.391-0.019,0.604
	c0.001,0.084-0.056,0.547-0.095,0.861c-0.282,2.227-0.865,6.861,0.578,8.704c1.534,1.958,3.606,3.328,10.132,4.949
	c0.912,0.226,1.767,0.409,2.524,0.533c4.021,0.66,5.527-0.153,6.53-1.591c1.171-1.69,2.644-4.67,2.706-4.797
	c0.301-0.632,0.592-0.917,1.077-1.054c0.677-0.189,1.551-0.392,1.904-1.349l0.728-2.302c0.215-0.741,0.385-1.439,0.201-2.059
	c-0.114-0.386-0.354-0.679-0.733-0.896c-1.571-0.899-4.96-2.669-10.005-4.422c-2.216-0.77-4.416-1.328-6.723-1.707
	c-2.124-0.348-3.867-0.466-5.269-0.562c-0.28-0.018-0.54-0.037-0.785-0.055c-0.783-0.059-1.287-0.103-1.702-0.171
	c-0.812-0.134-1.306-0.368-2.627-0.995l-0.644-0.305c-0.591-0.277-1.357-0.665-2.333-1.158c-3.269-1.651-8.74-4.417-15.362-6.9
	c-5.089-1.906-9.529-2.864-12.113-3.286c0,0-2.741-0.501-5.298-0.263L192.692,81.274z M239.159,95.126
	c0.139,0.023,0.28,0.047,0.424,0.073l0.305,0.056c1.745,0.317,6.38,1.156,9.408,2.345c1.555,0.612,3.179,1.317,3.428,1.924
	c0.02,0.048,0.066,0.158-0.016,0.462c-0.386,1.464-3.619,8.467-4.233,8.972c-0.711,0.584-2.911,1.056-6.62,0.24
	c-3.906-0.864-7.354-2.305-8.31-3.146c-0.799-0.703-1.04-0.916-0.9-3.722c0.131-2.584,0.465-4.529,1.056-6.124
	C234.147,95.004,236.086,94.622,239.159,95.126z M201.633,82.784c0.183,0.009,0.473,0.046,0.86,0.109
	c2.469,0.404,7.737,1.703,10.139,2.583c3.039,1.118,10.228,4.568,11.682,5.867c1.082,0.965,0.867,1.437,0.436,2.381l-0.021,0.045
	c-0.407,0.893-2.512,5.408-4.014,6.696c-1.453,1.244-1.916,1.523-5.066,1.08c-0.134-0.019-0.275-0.041-0.421-0.066
	c-3.375-0.552-9.289-2.339-12.382-4.017l-0.216-0.117c-3.155-1.716-4.247-2.369-4.262-3.525c-0.021-1.563,1.15-8.381,1.528-9.802
	C200.184,82.938,201.338,82.77,201.633,82.784z"/>
<path fill="#A0D5E9" d="M224.181,70.951c0,0-6.953-1.703-9.41,4.651c0,0-1.531-5.494,3.449-7.178
	C223.2,66.739,224.181,70.951,224.181,70.951z"/>
<path fill="#A0D5E9" d="M217.959,62.589c0,0-4.274,0.448-3.961,4.38c0,0-2.091-2.334-0.106-4.409
	C215.88,60.487,217.959,62.589,217.959,62.589z"/>
<path fill="#A0D5E9" d="M244.579,77.401c0,0,6.105,2.156,6.789,9.195c0,0,2.428-4.145-1.329-8.309S244.579,77.401,244.579,77.401z"
	/>
<path fill="#A0D5E9" d="M252.077,75.089c0,0,4.398,0.567,3.977,4.615c0,0,2.215-2.355,0.218-4.544
	C254.275,72.972,252.077,75.089,252.077,75.089z"/>
<path fill="#5B5A5C" d="M209.228,46.11c-0.454-0.267-1.864-1.188-1.864-1.188c-13.156-7.782-15.67-23.872-15.67-23.872
	s-6.062,7.023-5.2,17.436c0.864,10.415,11.129,19.177,11.129,19.177c-0.713,1.803-3.885,4.736-3.885,4.736s5.698-1.346,11.191-7.552
	C208.779,50.499,209.509,46.276,209.228,46.11"/>
<path fill="#737F83" d="M209.228,46.11c-0.433-0.264-1.864-1.188-1.864-1.188c-13.156-7.782-15.67-23.872-15.67-23.872
	s-5.714,20.549,14.339,32.447C206.032,53.497,208.68,50.794,209.228,46.11"/>
<g>
	<path fill="#CDEAF5" d="M143.901,98.886c0.173-0.002,0.344-0.005,0.519-0.005C144.419,98.881,144.231,98.872,143.901,98.886z"/>
	<path fill="#CDEAF5" d="M161.502,147.771c-3.884-1.526-6.241-3.467-6.241-3.467c4.161-0.416,7.212-2.774,7.212-2.774
		c-15.118,0-22.885-12.483-22.885-12.483c1.942-0.277,3.606-0.971,3.606-0.971c-2.635-3.051-5.271-6.935-5.548-8.322
		c-0.277-2.913,0.693-8.461,0.693-8.461c-2.219,0.139-5.271,1.526-5.271,1.526c-0.555-3.329-0.568-5.35,0.277-7.074
		c2.979-6.074,8.793-6.786,10.555-6.86c-5.128,0.055-9.306,0.896-9.306,0.896s-6.149,2.635-9.986,18.724c0,0,2.635-1.11,4.022-0.832
		c0,0-1.11,14.563,0.971,19.695c0,0,1.387-2.913,2.635-3.745c0,0,9.848,12.344,19.002,17.199c0,0-0.832-3.329-0.416-4.438
		L161.502,147.771z"/>
</g>
<path fill="#5B5A5C" d="M228.327,115.572c-7.778-0.378-14.062-4.422-14.062-4.422c-0.5-0.328-1.041-0.693-1.639-1.105
	c0.38-0.519,0.798-0.88,0.807-0.888c0.061-0.052,0.068-0.135,0.018-0.201c-0.051-0.066-0.145-0.095-0.226-0.073
	c-0.95,0.274-1.549,0.725-1.784,1.338c-0.369,0.969,0.281,2.107,0.31,2.149c0.028,0.04,0.034,0.196,0.081,0.21l0.01,0.003
	c0.099,0.03,0.239-0.155,0.261-0.242c0.011-0.045,0.017-0.157-0.014-0.195c-0.174-0.456-0.074-0.95,0.127-1.388
	c0.248,0.254,0.88,0.853,1.798,1.592c2.03,1.608,4.279,2.503,6.384,2.983C226.583,117.036,228.327,115.572,228.327,115.572z"/>
<g>
	<g>
		<path fill="#5B5A5C" d="M92.895,298.551c0,3.301-2.7,6-6,6H26.051c-3.3,0-6-2.699-6-6V179.271c0-3.301,2.7-6,6-6h60.844
			c3.3,0,6,2.699,6,6V298.551z"/>
		<path fill="none" stroke="#737F82" stroke-width="2" stroke-miterlimit="10" d="M92.895,298.551c0,3.301-2.7,6-6,6H26.051
			c-3.3,0-6-2.699-6-6V179.271c0-3.301,2.7-6,6-6h60.844c3.3,0,6,2.699,6,6V298.551z"/>
	</g>
	<rect x="26.036" y="196.141" fill="#737F83" width="60.874" height="88.233"/>
	<path fill="#3F3F3F" d="M61.09,294.925c0,2.55-2.067,4.617-4.617,4.617l0,0c-2.55,0-4.617-2.067-4.617-4.617l0,0
		c0-2.55,2.067-4.616,4.617-4.616l0,0C59.023,290.309,61.09,292.375,61.09,294.925L61.09,294.925z"/>
	
		<line fill="none" stroke="#3F3F3F" stroke-width="2" stroke-linecap="round" stroke-miterlimit="10" x1="47.24" y1="186.281" x2="65.707" y2="186.281"/>
</g>
<rect x="29.584" y="211.037" opacity="0.3" fill="#E8F6FD" width="54.035" height="46.986"/>
<g opacity="0.3">
	<rect x="29.584" y="264.104" fill="#E8F6FD" width="21.89" height="13.977"/>
	<g>
		<rect x="55.285" y="264.104" fill="#E8F6FD" width="28.334" height="5.306"/>
		<rect x="55.285" y="272.775" fill="#E8F6FD" width="28.334" height="5.306"/>
	</g>
</g>
<rect x="29.328" y="200.211" opacity="0.3" fill="#E8F6FD" width="54.035" height="5.489"/>
<path fill="#E5E5E5" d="M92.833,308.369c0,1.51-2.45,2.735-5.472,2.735h-61.9c-3.022,0-5.472-1.226-5.472-2.735l0,0
	c0-1.512,2.45-2.736,5.472-2.736h61.9C90.383,305.633,92.833,306.857,92.833,308.369L92.833,308.369z"/>
<path fill="#E5E5E5" d="M343.587,307.932c0,1.51-1.225,2.735-2.736,2.735H112.499c-1.511,0-2.736-1.226-2.736-2.735l0,0
	c0-1.512,1.225-2.736,2.736-2.736h228.352C342.362,305.195,343.587,306.42,343.587,307.932L343.587,307.932z"/>
<g>
	<path fill="#FFFFFF" d="M184.386,209.943v-7.529l-2.943,7.529h-0.971l-2.942-7.529v7.529h-2.223v-10.44h3.115l2.535,6.528
		l2.536-6.528h3.13v10.44H184.386L184.386,209.943z"/>
	<path fill="#FFFFFF" d="M188.69,209.943v-10.44h7.388v1.956h-5.166v2.193h5.055v1.955h-5.055v2.38h5.166v1.956H188.69
		L188.69,209.943z"/>
	<path fill="#FFFFFF" d="M197.814,209.943v-10.44h4.116c3.272,0,5.541,2.081,5.541,5.213c0,3.161-2.269,5.228-5.525,5.228H197.814z
		 M205.203,204.716c0-1.832-1.127-3.257-3.256-3.257h-1.909v6.528h1.894C203.997,207.987,205.203,206.5,205.203,204.716z"/>
	<path fill="#FFFFFF" d="M209.052,209.943v-10.44h2.223v10.44H209.052z"/>
	<path fill="#FFFFFF" d="M213.34,205.765v-6.262h2.254v6.199c0,1.455,0.844,2.457,2.458,2.457c1.612,0,2.441-1.002,2.441-2.457
		v-6.199h2.27v6.262c0,2.582-1.534,4.366-4.711,4.366S213.34,208.347,213.34,205.765z"/>
	<path fill="#FFFFFF" d="M233.907,209.943v-7.529l-2.942,7.529h-0.971l-2.942-7.529v7.529h-2.223v-10.44h3.115l2.535,6.528
		l2.536-6.528h3.13v10.44H233.907L233.907,209.943z"/>
	<path fill="#FFFFFF" d="M241.732,204.73c0-3.302,2.504-5.399,5.572-5.399c2.16,0,3.521,1.095,4.305,2.332l-1.832,1.003
		c-0.485-0.737-1.377-1.362-2.473-1.362c-1.909,0-3.287,1.456-3.287,3.429c0,1.972,1.378,3.427,3.287,3.427
		c0.924,0,1.785-0.406,2.208-0.799v-1.252h-2.755v-1.941h4.978v4.008c-1.064,1.189-2.551,1.956-4.43,1.956
		C244.236,210.131,241.732,208.018,241.732,204.73z"/>
	<path fill="#FFFFFF" d="M259.403,209.943l-2.051-3.71h-1.628v3.71h-2.223v-10.44h4.884c2.176,0,3.521,1.424,3.521,3.364
		c0,1.832-1.174,2.835-2.301,3.101l2.364,3.975L259.403,209.943L259.403,209.943z M259.622,202.853c0-0.861-0.674-1.394-1.55-1.394
		h-2.347v2.818h2.347C258.948,204.277,259.622,203.744,259.622,202.853z"/>
	<path fill="#FFFFFF" d="M263.566,209.943v-10.44h2.222v10.44H263.566z"/>
	<path fill="#FFFFFF" d="M267.854,209.943v-10.44h4.116c3.272,0,5.542,2.081,5.542,5.213c0,3.161-2.27,5.228-5.526,5.228H267.854z
		 M275.242,204.716c0-1.832-1.127-3.257-3.257-3.257h-1.909v6.528h1.894C274.037,207.987,275.242,206.5,275.242,204.716z"/>
</g>
<g enable-background="new    ">
	<path fill="#FFFFFF" d="M413.635,135.391v-19.989h4.285v16.243h8.451v3.746H413.635z"/>
	<path fill="#FFFFFF" d="M443.063,135.391l-1.258-3.387h-8.571l-1.259,3.387h-4.825l7.702-19.989h5.334l7.703,19.989H443.063z
		 M437.52,119.658l-3.116,8.601h6.234L437.52,119.658z"/>
	<path fill="#FFFFFF" d="M461.045,135.391l-3.926-7.102h-3.116v7.102h-4.256v-19.989h9.35c4.166,0,6.743,2.727,6.743,6.443
		c0,3.506-2.247,5.425-4.405,5.934l4.525,7.612H461.045z M461.465,121.815c0-1.648-1.289-2.667-2.967-2.667h-4.495v5.394h4.495
		C460.176,124.542,461.465,123.523,461.465,121.815z"/>
	<path fill="#FFFFFF" d="M468.058,125.412c0-6.324,4.796-10.339,10.669-10.339c4.136,0,6.743,2.098,8.241,4.465l-3.506,1.918
		c-0.929-1.409-2.638-2.607-4.734-2.607c-3.657,0-6.294,2.786-6.294,6.562s2.637,6.563,6.294,6.563c1.768,0,3.416-0.779,4.225-1.528
		v-2.398h-5.274v-3.716h9.53v7.672c-2.037,2.278-4.884,3.747-8.48,3.747C472.853,135.751,468.058,131.706,468.058,125.412z"/>
	<path fill="#FFFFFF" d="M490.594,135.391v-19.989h14.146v3.746h-9.89v4.196h9.68v3.746h-9.68v4.555h9.89v3.746H490.594z"/>
	<path fill="#FFFFFF" d="M514.808,125.412c0-6.324,4.795-10.339,10.668-10.339c4.136,0,6.743,2.098,8.242,4.465l-3.506,1.918
		c-0.929-1.409-2.638-2.607-4.735-2.607c-3.656,0-6.294,2.786-6.294,6.562s2.638,6.563,6.294,6.563c1.769,0,3.416-0.779,4.226-1.528
		v-2.398h-5.275v-3.716h9.53v7.672c-2.036,2.278-4.884,3.747-8.48,3.747C519.603,135.751,514.808,131.706,514.808,125.412z"/>
	<path fill="#FFFFFF" d="M548.642,135.391l-3.927-7.102H541.6v7.102h-4.257v-19.989h9.35c4.167,0,6.744,2.727,6.744,6.443
		c0,3.506-2.248,5.425-4.405,5.934l4.524,7.612H548.642z M549.062,121.815c0-1.648-1.288-2.667-2.967-2.667H541.6v5.394h4.495
		C547.773,124.542,549.062,123.523,549.062,121.815z"/>
	<path fill="#FFFFFF" d="M556.613,135.391v-19.989h4.257v19.989H556.613z"/>
	<path fill="#FFFFFF" d="M564.824,135.391v-19.989h7.882c6.264,0,10.608,3.986,10.608,9.979c0,6.055-4.345,10.01-10.578,10.01
		H564.824z M578.97,125.381c0-3.506-2.158-6.234-6.233-6.234h-3.657v12.497h3.627C576.662,131.645,578.97,128.797,578.97,125.381z"
		/>
</g>
<g enable-background="new    ">
	<path fill="#FFFFFF" d="M37.979,230.779l0.899-1.28c0.542,0.565,1.384,1.05,2.443,1.05c0.911,0,1.337-0.403,1.337-0.852
		c0-1.339-4.426-0.405-4.426-3.298c0-1.28,1.106-2.34,2.917-2.34c1.221,0,2.236,0.369,2.996,1.072l-0.911,1.222
		c-0.623-0.577-1.452-0.842-2.236-0.842c-0.691,0-1.084,0.299-1.084,0.761c0,1.21,4.415,0.392,4.415,3.262
		c0,1.406-1.015,2.467-3.078,2.467C39.767,232.001,38.706,231.506,37.979,230.779z"/>
	<path fill="#FFFFFF" d="M52.111,231.864v-5.546l-2.167,5.546h-0.715l-2.168-5.546v5.546h-1.637v-7.689h2.293l1.867,4.806
		l1.868-4.806h2.306v7.688L52.111,231.864L52.111,231.864z"/>
	<path fill="#FFFFFF" d="M60.594,231.864l-0.484-1.305h-3.296l-0.483,1.305h-1.856l2.963-7.689h2.051l2.962,7.688L60.594,231.864
		L60.594,231.864z M58.461,225.811l-1.198,3.309h2.398L58.461,225.811z"/>
	<path fill="#FFFFFF" d="M63.095,231.864v-7.689h1.648v6.247h3.251v1.441L63.095,231.864L63.095,231.864z"/>
	<path fill="#FFFFFF" d="M69.031,231.864v-7.689h1.649v6.247h3.25v1.441L69.031,231.864L69.031,231.864z"/>
</g>
<g enable-background="new    ">
	<path fill="#FFFFFF" d="M42.947,240.529c0-2.432,1.844-3.976,4.104-3.976c1.591,0,2.593,0.807,3.17,1.719l-1.349,0.737
		c-0.357-0.543-1.014-1.003-1.821-1.003c-1.406,0-2.421,1.071-2.421,2.522c0,1.453,1.015,2.524,2.421,2.524
		c0.68,0,1.314-0.299,1.625-0.586v-0.922h-2.029v-1.43h3.666v2.95c-0.784,0.876-1.879,1.441-3.262,1.441
		C44.792,244.507,42.947,242.951,42.947,240.529z"/>
	<path fill="#FFFFFF" d="M55.96,244.369l-1.51-2.732h-1.199v2.732h-1.637v-7.689h3.596c1.602,0,2.594,1.05,2.594,2.479
		c0,1.349-0.865,2.086-1.694,2.282l1.741,2.928H55.96z M56.122,239.147c0-0.635-0.496-1.026-1.141-1.026h-1.729v2.074h1.729
		C55.625,240.195,56.122,239.804,56.122,239.147z"/>
	<path fill="#FFFFFF" d="M59.026,244.369v-7.689h1.636v7.689H59.026z"/>
	<path fill="#FFFFFF" d="M62.184,244.369v-7.689h3.031c2.409,0,4.081,1.533,4.081,3.84c0,2.327-1.671,3.85-4.069,3.85H62.184z
		 M67.625,240.52c0-1.351-0.83-2.398-2.398-2.398h-1.406v4.807h1.395C66.737,242.928,67.625,241.833,67.625,240.52z"/>
</g>
</svg>
