<?xml version="1.0" encoding="utf-8"?>
<!-- Generator: Adobe Illustrator 17.0.0, SVG Export Plug-In . SVG Version: 6.00 Build 0)  -->
<!DOCTYPE svg PUBLIC "-//W3C//DTD SVG 1.1//EN" "http://www.w3.org/Graphics/SVG/1.1/DTD/svg11.dtd">
<svg version="1.1" id="Layer_1" xmlns="http://www.w3.org/2000/svg" xmlns:xlink="http://www.w3.org/1999/xlink" x="0px" y="0px"
	 width="483px" height="400px" viewBox="0 0 483 400" enable-background="new 0 0 483 400" xml:space="preserve">
<g>
	<ellipse fill="#E5E5E5" cx="252.388" cy="373.702" rx="210.096" ry="24.106"/>
	<path fill="#EAF7FE" d="M188.537,360.378c0,0-1.952-26.645,1.35-36.553c3.302-9.908-58.394-22.292-58.394-22.292
		s1.501,28.822,4.203,37.829"/>
	<path fill="#A1D4E9" d="M101.169,207.562l-8.106,12.009l-5.104,2.402l4.204,1.501c0,0-15.913,19.215-17.714,30.624
		c0,0,5.405-2.702,7.806-3.303c0,0-7.506,13.21-7.506,20.415c0,0,4.804-3.003,6.906-2.702c0,0-7.506,7.806-11.409,9.608
		c0,0,4.503,0.601,6.305,0c0,0-9.007,10.508-8.106,32.125c0,0,3.003-3.303,5.104-4.204c0,0,2.402,22.817,37.829,35.127
		c0,0-3.903-9.908-3.903-15.312c0,0,6.905,2.879,14.711,3.18c0,0-5.254-9.032-4.654-13.032h6.757l-0.602-12.488
		c0,0-10.133-3.991-8.031-14.8c0,0-2.289-3.647-8.593-19.859C101.208,253.802,112.713,200.695,101.169,207.562z"/>
	<path fill="#EAF7FE" d="M188.086,335.31c0.04-2.424-1.645-2.777-4.522-1.691c-5.476-3.797-14.254,1.005-14.254,1.005
		c-1.154,0.039-2.288,0.085-3.403,0.138c-3.4-0.32-14.784-1.281-21.779-0.548c0,0,1.727,1.201,2.369,2.385
		c-7.343,1.108-21.598,2.604-26.74,4.373c-4.019,1.115-12.762,3.632-16.701,5.476c0,0,2.14,0.193,2.911,0.893
		c-2.75,1.641-6.955,4.801-10.946,10.447c0,0,1.332-0.559,2.541-0.981c-3.127,5.39-3.552,8.111-3.298,12.369
		c-0.157,1.247-0.383,2.695-0.674,4.087c2.559-0.25,5.109-0.577,7.673-0.765c0.056,0.264,0.039,0.566,0.078,0.98l0.314,2.003
		l7.596-0.508l1.18-0.057l0.192,2.567c0,0,52.094-1.792,75.662-2.092c0,0,3.603,0.113,3.49-2.59
		C189.642,369.643,187.86,348.82,188.086,335.31z"/>
	<path fill="#EAF7FE" d="M197.618,27.723c0,0-14.937,0.901-25.295,13.51l-3.134-13.06l-14.28,6.455c0,0-10.503-18.614-5.549-28.522
		c0,0-25.672-0.901-46.387,42.333c0,0-9.459-12.159-6.307-23.868c0,0-35.127,26.57-27.021,63.499c0,0-7.657-2.252-9.909-10.808
		c0,0-4.053,44.584,29.272,106.282c0,0-6.155-5.103-8.257-4.803c0,0,6.606,9.007,9.308,15.312c0,0-4.204-1.201-6.906-0.3
		c0,0,14.411,4.804,18.014,13.811c2.597,5.426,5.207,22.795,6.605,61.247c9.684,19.368,23.641,59.292,89.469,54.942L197.618,27.723z
		"/>
	
		<ellipse transform="matrix(-0.9787 0.2052 -0.2052 -0.9787 314.2412 342.0692)" fill="#CDEAF5" cx="139.381" cy="187.331" rx="9.758" ry="12.349"/>
	<path fill="#CDEAF5" d="M189.138,79.363c0,0-17.714,14.111-10.508,24.319s-7.206,23.418,0,30.924
		c7.206,7.505-1.802,26.72,15.612,40.831c0,0,12.01-13.21,14.712-25.519l-5.404-0.601c0,0,18.315-6.905,30.624-20.115
		c0,0-14.711-3.303-27.021-3.303c0,0,19.214-9.907,28.521-8.406c0,0-2.702-11.409-14.711-14.111c0,0,11.708-13.51-5.104-19.214
		C199.045,78.462,192.74,76.961,189.138,79.363z"/>
	
		<ellipse transform="matrix(-0.9787 0.2052 -0.2052 -0.9787 400.3941 304.3113)" fill="#CDEAF5" cx="184.416" cy="172.92" rx="9.758" ry="12.349"/>
	
		<ellipse transform="matrix(-0.9787 0.2052 -0.2052 -0.9787 400.027 297.3025)" fill="#FFFFFF" cx="184.596" cy="169.396" rx="9.608" ry="12.159"/>
	<path fill="#4F4E51" d="M182.615,162.882c-0.014,0.308-0.001,0.624,0.066,0.946c0.352,1.677,1.728,2.805,3.075,2.523
		c1.198-0.252,1.964-1.533,1.874-2.99c0.98,0.847,1.737,2.104,2.051,3.602c0.652,3.103-0.844,6.043-3.339,6.566
		c-2.495,0.523-5.045-1.567-5.696-4.672C180.125,166.376,180.978,164.004,182.615,162.882z"/>
	
		<ellipse transform="matrix(-0.9787 0.2052 -0.2052 -0.9787 313.8739 335.0599)" fill="#FFFFFF" cx="139.562" cy="183.807" rx="9.608" ry="12.159"/>
	<path fill="#4F4E51" d="M138.481,177.294c-0.014,0.308-0.001,0.624,0.066,0.946c0.352,1.677,1.728,2.805,3.075,2.523
		c1.198-0.252,1.964-1.533,1.874-2.99c0.98,0.847,1.737,2.104,2.051,3.602c0.652,3.103-0.844,6.043-3.339,6.566
		c-2.495,0.523-5.045-1.567-5.696-4.672C135.991,180.787,136.844,178.415,138.481,177.294z"/>
	<path fill="#5C5B5D" d="M166.019,212.215c0,0,5.254-4.352,5.704-6.905c0,0,15.912-4.054,23.418-14.862
		C195.141,190.448,193.19,218.669,166.019,212.215z"/>
	<path fill="#A1D4E9" d="M132.092,148.416c0,0-12.009,0.601-12.91,12.009c0,0-5.104-8.106,2.101-13.21
		S132.092,148.416,132.092,148.416z"/>
	<path fill="#A1D4E9" d="M120.984,136.407c0,0-11.108,0.601-10.808,10.808c0,0-5.104-6.305,0.3-11.409
		C115.88,130.703,120.984,136.407,120.984,136.407z"/>
	<path fill="#CDEAF5" d="M189.774,324.163c0,0-35.465-4.159-57.982-25.325l5.855,0.72c0,0-14.861-12.559-22.517-37.559h4.053
		c0,0-2.996-14.384-9.274-31.244c-0.044-1.467-0.033-2.08-0.033-2.08c-3.079-8.276-8.894-27.556-10.877-38.3
		c-1.859-17.777-10.356-33.467-10.757-38.512c2-5.848,7.223-16.983,7.223-16.983c-2.102,0.6-8.706,4.216-8.706,4.216
		c-2.702-20.116,11.408-40.825,11.408-40.825c-8.707-0.901-19.815,6.908-19.815,6.908C74.448,77.258,88.56,53.241,88.56,53.241
		c-0.6,10.208,13.81,24.319,13.81,24.319c10.249-45.849,39.632-63.106,45.502-66.142c0.194-1.838,0.651-3.639,1.487-5.312
		c0,0-25.672-0.901-46.387,42.333c0,0-9.459-12.159-6.307-23.868c0,0-17.139,12.969-24.709,33.374
		c-2.665-2.79-5.014-10.707-5.014-10.707c-4.503,15.312,2.401,40.231,2.401,40.231s0.033-0.167,0.089-0.447
		c0.07,0.349,0.135,0.697,0.212,1.048c0,0-7.657-2.252-9.909-10.808c0,0-4.053,44.584,29.272,106.282c0,0-6.155-5.103-8.257-4.803
		c0,0,6.606,9.007,9.308,15.312c0,0-4.204-1.201-6.906-0.3c0,0,9.444,3.912,13.238,11.271c0.018,0.05,0.029,0.086,0.047,0.138
		c2.702,7.656,4.729,15.312,4.729,15.312l-3.603,9.007l2.927,0.901c0.45,1.801,2.027,19.815,2.027,19.815s0.117-0.725,0.281-1.841
		c0.204,1.544,0.442,3.159,0.719,4.835c-1.063-0.257-2.488-0.584-2.945-0.616c-0.892-0.258-1.651-0.425-2.088-0.352
		c0,0,0.362,2.018,3.165,5.862c0.05,0.36,0.157,0.712,0.285,1.059c1.821,8.668,4.732,18.394,9.375,27.779
		c1.023,3.361,1.146,8.666,1.792,10.334l2.026-2.702c1.266,1.902,0.901,1.427,1.651,3.528l3.078,7.505l0.44-4.175
		c3.394,4.386,7.33,8.485,11.885,12.119c0.776,0.635,1.58,1.241,2.406,1.827c0.269,0.195,0.533,0.395,0.807,0.588
		c0,0-0.022-0.028-0.048-0.062c0.602,0.406,1.226,0.793,1.861,1.172c5.154,6.647,8.854,11.951,8.995,14.427
		c0,0,8.557,8.444,11.709,11.596l3.152-6.361c0,0,13.51,15.284,27.471,15.734C188.536,352.451,187.41,337.111,189.774,324.163z
		 M87.622,155.311c-0.026-0.398-0.05-0.776-0.072-1.123c0.067-0.245,0.11-0.368,0.11-0.368c0.013-0.053,0.031-0.114,0.046-0.17
		C87.672,154.168,87.644,154.723,87.622,155.311z"/>
	<path fill="#C0E5F3" d="M103.424,198.116c-0.033-0.3-0.066-0.598-0.099-0.898l0.259,1.824
		C103.531,198.732,103.477,198.423,103.424,198.116z"/>
	<path fill="#A1D4E9" d="M173.224,150.217c0,0,6.305-3.603,10.808-0.676c0,0,0.45-4.954-5.404-4.503
		C172.774,145.489,173.224,150.217,173.224,150.217z"/>
	<path fill="#5C5B5D" d="M214.34,171.09c0,0-0.878-9.225-1.94-16.302c4.105-0.507,8.417-0.601,8.417-0.601l-0.544-5.076
		c-4.266-0.621-8.907-0.019-8.907-0.019c-4.372,0.484-11.902,1.705-20.605,4.461c-11.323,3.588-20.74,7.752-26.366,10.238
		c-1.679,0.742-2.999,1.325-4.014,1.739l-1.106,0.456c-1.99,0.821-2.887,1.192-4.003,1.373c-0.02,0.065-0.049,0.125-0.07,0.189
		c-0.608,0.164-1.338,0.329-2.331,0.551l-1.169,0.262c-1.068,0.243-2.483,0.523-4.284,0.88c-6.034,1.195-16.134,3.193-27.465,6.756
		c-8.708,2.741-15.574,6.065-19.431,8.178c0,0-4.146,2.172-7.283,5.131l2.469,4.468c0,0,3.584-2.399,7.236-4.341
		c3.194,6.405,7.771,14.462,7.771,14.462l0.121,0.256c0.266,0.392,0.52,0.776,0.796,1.194c2.046,3.078,3.568,4.766,7.171,4.78
		c3.54,0.017,11.289-1.63,18.84-4.003c2.809-0.883,5.872-2.216,8.864-3.85c4.435-2.431,8.207-5.271,9.383-7.072
		c1.709-2.619,1.34-7.474,1.096-10.688l-0.068-0.948c-0.075-1.098-0.204-2.233-0.331-3.334c-0.182-1.58-0.37-3.211-0.247-3.843
		c0.023-0.111,0.172-0.522,1.145-1.057c0.456-0.248,1.02-0.48,1.671-0.698c0.169-0.029,0.335-0.057,0.49-0.075
		c1.105-0.121,1.463,0.13,1.545,0.208c0.464,0.447,1.245,1.891,2.004,3.288c0.529,0.975,1.074,1.979,1.644,2.92l0.489,0.815
		c1.644,2.771,4.13,6.958,7.034,8.121c1.996,0.799,6.715,0.958,11.742,0.403c3.387-0.379,6.661-1.048,9.467-1.937
		c7.544-2.392,14.834-5.494,17.724-7.539c2.942-2.08,3.218-4.337,3.127-8.031c-0.013-0.5-0.025-0.96-0.033-1.434L214.34,171.09z
		 M152.643,190.187c-0.637,3.149-0.962,3.997-5.589,6.669c-0.198,0.113-0.405,0.23-0.624,0.348
		c-5.037,2.76-14.712,6.514-20.542,7.491l-0.404,0.069c-5.952,0.99-8.072,1.257-9.288-0.257c-1.643-2.048-7.145-12.281-8.115-14.553
		c-0.736-1.725,0.616-3.142,1.019-3.428c0.252-0.178,0.675-0.429,1.252-0.746c3.686-2.019,12.002-5.75,16.09-7.068
		c5.177-1.665,18.259-4.532,21.527-4.318c2.429,0.157,2.635,1.004,3.04,2.698l0.019,0.082
		C151.412,178.777,153.296,186.928,152.643,190.187z M210.203,174.738c-0.128,1.938-2.016,2.937-7.458,5.543l-0.371,0.175
		c-5.333,2.548-15.409,5.029-21.119,5.661c-0.246,0.029-0.484,0.052-0.71,0.073c-5.322,0.468-6.075-0.039-8.405-2.252
		c-2.407-2.293-5.543-10.048-6.15-11.58l-0.031-0.078c-0.641-1.619-0.959-2.431,0.94-3.954c2.552-2.052,14.909-7.215,20.104-8.824
		c4.104-1.269,13.054-2.988,17.232-3.452c0.654-0.072,1.144-0.109,1.452-0.108c0.495,0.002,2.416,0.386,2.802,2.221
		C209.001,160.581,210.372,172.118,210.203,174.738z"/>
	<path fill="#A1D4E9" d="M171.648,139.634c0,0,7.206-5.404,12.835-0.901c0,0,0.225-4.278-5.629-4.503
		C172.999,134.005,171.648,139.634,171.648,139.634z"/>
	<path fill="#FFFFFF" stroke="#E5E5E5" stroke-miterlimit="10" d="M421.299,371.061c0,6.627-5.373,12-12,12H209.92
		c-6.627,0-12-5.373-12-12V19.744c0-6.627,5.373-12,12-12h199.378c6.627,0,12,5.373,12,12V371.061z"/>
	<path fill="#B2DEEF" d="M155.511,227.377c0,0,6.455,3.002,9.307,3.452c0,0,4.353-5.703,7.505-7.355c0,0,3.152,6.905,7.656,9.307
		c0,0,4.955-8.857,11.859-11.709c0,0,3.152,3.303,6.605,3.753l-0.15,6.454c0,0-4.803-1.801-6.605-3.452
		c0,0-7.957,10.959-6.906,15.312c0,0-10.057-4.804-14.561-9.608c0,0-4.503,3.304-5.555,4.804
		C164.668,238.336,158.364,233.081,155.511,227.377z"/>
	<path fill="#85C1CE" d="M94.864,283.745c0,0,10.583,21.166,10.133,30.849c0,0-10.583-0.225-19.815-7.881
		c0,0,14.186,13.961,27.021,12.159C112.202,318.872,109.725,298.156,94.864,283.745z"/>
	<path fill="#5C5B5D" d="M70.697,109.96c-0.765,0.382-3.265,1.487-3.265,1.487c-22.229,11.029-46.359,0.225-46.359,0.225
		s4.201,14.463,19.142,22.498c14.944,8.033,35.952,1.805,35.952,1.805c1.823,2.566,3.012,9.478,3.012,9.478
		s3.207-8.947-0.386-21.914C76.277,114.452,71.172,109.723,70.697,109.96"/>
	<path fill="#747F83" d="M70.697,109.96c-0.741,0.357-3.265,1.487-3.265,1.487c-22.229,11.029-46.359,0.225-46.359,0.225
		s22.924,25.95,56.857,9.171C77.93,120.843,76.589,114.847,70.697,109.96"/>
	<path fill="#CDEAF5" d="M109.251,374.972l-2.311,0.155c-1.868-26.158,22.269-25.898,22.269-25.898
		c-21.595,6.607-18.779,25.686-18.779,25.686L109.251,374.972z"/>
	<path fill="#CDEAF5" d="M148.006,340.563c-1.501-5.404-2.402-19.815-2.402-19.815l-13.662-8.256c0,8.444,3.115,25.632,3.115,25.632
		c-9.232,0.45-32.875,8.331-32.875,8.331c1.464-0.225,3.784,0.886,3.784,0.886c-5.448,2.349-11.778,11.048-11.778,11.048
		c0.788-0.45,3.372-1.582,3.372-1.582c-2.37,2.246-3.823,10.139-3.823,11.94s-1.013,4.954-1.013,4.954l5.084-0.882
		c1.128-0.119,2.257-0.232,3.387-0.316c-0.302-2.53-1.663-17.144,16.369-25.532c0,0-0.142,0.046-0.381,0.13
		C127.767,341.769,148.006,340.563,148.006,340.563z"/>
	<path fill="#ACDBE3" d="M189.774,324.163c0,0-27.359-2.815-53.028-20.828c0,0,18.032,17.904,32.425,22.517
		c14.393,4.613,19.14,21.504,19.14,21.504S188.198,332.27,189.774,324.163z"/>
	<g>
		<defs>
			<rect id="SVGID_1_" x="171.648" y="-1.349" width="290.835" height="38.349"/>
		</defs>
		<clipPath id="SVGID_2_">
			<use xlink:href="#SVGID_1_"  overflow="visible"/>
		</clipPath>
		<path clip-path="url(#SVGID_2_)" fill="#5C5B5D" d="M421.299,371.061c0,6.627-5.373,12-12,12H209.92c-6.627,0-12-5.373-12-12
			V19.744c0-6.627,5.373-12,12-12h199.378c6.627,0,12,5.373,12,12V371.061z"/>
	</g>
</g>
<g>
	<g>
		<g>
			<path fill="#747F83" d="M222.311,210.042v-12.01h4.933c2.017,0,3.313,1.171,3.313,3.062c0,1.512-1.026,2.538-2.106,2.755
				c1.278,0.197,2.341,1.53,2.341,2.952c0,1.999-1.296,3.241-3.439,3.241H222.311z M229.477,201.201c0-1.225-0.81-2.232-2.359-2.232
				h-3.781v4.447h3.781C228.667,203.416,229.477,202.443,229.477,201.201z M229.711,206.729c0-1.225-0.846-2.377-2.521-2.377h-3.854
				v4.753h3.854C228.775,209.105,229.711,208.188,229.711,206.729z"/>
			<path fill="#747F83" d="M239.214,210.042v-1.278c-0.702,0.792-1.873,1.494-3.133,1.494c-1.765,0-2.737-0.828-2.737-2.791v-6.121
				h0.936v5.905c0,1.692,0.846,2.161,2.107,2.161c1.116,0,2.25-0.667,2.827-1.44v-6.626h0.937v8.696H239.214z"/>
			<path fill="#747F83" d="M243.245,208.367v-6.193h-1.44v-0.828h1.44v-2.377h0.954v2.377h1.765v0.828h-1.765v6.05
				c0,0.702,0.288,1.188,0.9,1.188c0.414,0,0.774-0.198,0.972-0.414l0.36,0.72c-0.342,0.324-0.756,0.54-1.477,0.54
				C243.803,210.258,243.245,209.556,243.245,208.367z"/>
			<path fill="#747F83" d="M248.195,208.367v-6.193h-1.44v-0.828h1.44v-2.377h0.954v2.377h1.765v0.828h-1.765v6.05
				c0,0.702,0.288,1.188,0.9,1.188c0.414,0,0.774-0.198,0.972-0.414l0.36,0.72c-0.342,0.324-0.756,0.54-1.477,0.54
				C248.753,210.258,248.195,209.556,248.195,208.367z"/>
			<path fill="#747F83" d="M252.478,205.685c0-2.539,1.621-4.556,4.159-4.556c2.575,0,4.195,2.017,4.195,4.556
				s-1.621,4.573-4.195,4.573C254.099,210.258,252.478,208.224,252.478,205.685z M259.824,205.685c0-1.927-1.134-3.709-3.187-3.709
				c-2.017,0-3.169,1.782-3.169,3.709c0,1.944,1.152,3.728,3.169,3.728C258.69,209.412,259.824,207.629,259.824,205.685z"/>
			<path fill="#747F83" d="M269.112,210.042v-5.888c0-1.675-0.846-2.179-2.106-2.179c-1.117,0-2.269,0.702-2.827,1.494v6.572h-0.936
				v-8.696h0.936v1.314c0.63-0.757,1.873-1.531,3.133-1.531c1.764,0,2.737,0.864,2.737,2.827v6.086H269.112z"/>
			<path fill="#747F83" d="M272.206,208.872l0.558-0.685c0.558,0.702,1.584,1.278,2.809,1.278c1.458,0,2.323-0.756,2.323-1.765
				c0-2.377-5.492-1.026-5.492-4.159c0-1.332,1.134-2.413,3.097-2.413c1.495,0,2.485,0.576,3.115,1.278l-0.522,0.667
				c-0.504-0.685-1.44-1.152-2.593-1.152c-1.35,0-2.161,0.684-2.161,1.584c0,2.179,5.474,0.847,5.474,4.195
				c0,1.404-1.08,2.557-3.259,2.557C274.151,210.258,273.07,209.844,272.206,208.872z"/>
		</g>
		<g>
			<g>
				<path fill="#ED432E" d="M401.302,266.905c0,1.657-1.343,3-3,3h-49.807c-1.657,0-3-1.343-3-3v-11.303c0-1.657,1.343-3,3-3h49.807
					c1.657,0,3,1.343,3,3V266.905z"/>
				<rect x="360.887" y="260.247" fill="#FFFFFF" width="25.022" height="2.012"/>
			</g>
			<g>
				<path fill="#098DBA" d="M276.623,266.905c0,1.657-1.343,3-3,3h-49.807c-1.657,0-3-1.343-3-3v-11.303c0-1.657,1.343-3,3-3h49.807
					c1.657,0,3,1.343,3,3V266.905z"/>
				<rect x="236.209" y="260.247" fill="#FFFFFF" width="25.022" height="2.012"/>
			</g>
			<g>
				<path fill="#48AC64" d="M338.963,266.905c0,1.657-1.343,3-3,3h-49.807c-1.657,0-3-1.343-3-3v-11.303c0-1.657,1.343-3,3-3h49.807
					c1.657,0,3,1.343,3,3V266.905z"/>
				<rect x="298.548" y="260.247" fill="#FFFFFF" width="25.022" height="2.012"/>
			</g>
		</g>
		<g>
			<g>
				<path fill="#098DBA" d="M265.211,242.365c0,1.318-1.068,2.386-2.386,2.386h-39.621c-1.318,0-2.386-1.068-2.386-2.386v-8.992
					c0-1.318,1.068-2.386,2.386-2.386h39.621c1.318,0,2.386,1.068,2.386,2.386V242.365z"/>
				<rect x="230.502" y="237.255" fill="#FFFFFF" width="25.022" height="1.229"/>
			</g>
			<g>
				<path fill="#F0EFEF" d="M316.398,242.365c0,1.318-1.068,2.386-2.387,2.386H274.39c-1.318,0-2.387-1.068-2.387-2.386v-8.992
					c0-1.318,1.068-2.386,2.387-2.386h39.621c1.318,0,2.387,1.068,2.387,2.386V242.365z"/>
				<rect x="281.69" y="237.255" fill="#FFFFFF" width="25.022" height="1.229"/>
			</g>
		</g>
	</g>
	<line fill="none" stroke="#E5E5E5" stroke-miterlimit="10" x1="220.816" y1="290" x2="404.969" y2="290"/>
	<line fill="none" stroke="#E5E5E5" stroke-miterlimit="10" x1="220.816" y1="177.882" x2="404.969" y2="177.882"/>
	<g>
		<g>
			<path fill="#747F83" d="M225.726,324.767v-12.01h1.044v11.073h5.816v0.937H225.726z"/>
			<path fill="#747F83" d="M239.875,324.767v-1.026c-0.774,0.847-1.746,1.242-2.953,1.242c-1.495,0-3.043-1.026-3.043-2.898
				c0-1.891,1.531-2.881,3.043-2.881c1.207,0,2.197,0.396,2.953,1.242v-1.765c0-1.296-1.044-1.998-2.322-1.998
				c-1.099,0-1.945,0.378-2.737,1.278l-0.522-0.648c0.9-0.973,1.909-1.459,3.349-1.459c1.765,0,3.169,0.847,3.169,2.791v6.122
				H239.875z M239.875,323.056v-1.908c-0.612-0.811-1.584-1.206-2.628-1.206c-1.422,0-2.377,0.918-2.377,2.16
				c0,1.225,0.955,2.143,2.377,2.143C238.292,324.244,239.264,323.849,239.875,323.056z"/>
			<path fill="#747F83" d="M243.726,324.767v-12.01h0.936v4.718c0.703-0.99,1.801-1.621,3.025-1.621
				c2.323,0,3.889,1.819,3.889,4.574c0,2.79-1.584,4.555-3.889,4.555c-1.296,0-2.413-0.702-3.025-1.603v1.387H243.726z
				 M247.525,324.137c1.945,0,3.043-1.603,3.043-3.709c0-2.107-1.098-3.728-3.043-3.728c-1.206,0-2.358,0.756-2.863,1.584v4.304
				C245.167,323.416,246.319,324.137,247.525,324.137z"/>
			<path fill="#747F83" d="M253.518,320.409c0-2.521,1.765-4.556,4.177-4.556c2.647,0,4.105,2.089,4.105,4.609v0.253h-7.274
				c0.09,1.891,1.351,3.457,3.403,3.457c1.098,0,2.106-0.414,2.845-1.207l0.486,0.612c-0.864,0.9-1.962,1.404-3.403,1.404
				C255.319,324.982,253.518,323.092,253.518,320.409z M257.677,316.664c-2.052,0-3.079,1.801-3.151,3.313h6.32
				C260.829,318.501,259.856,316.664,257.677,316.664z"/>
			<path fill="#747F83" d="M264.21,324.767v-12.01h0.936v12.01H264.21z"/>
			<path fill="#747F83" d="M267.305,323.597l0.558-0.685c0.558,0.702,1.584,1.278,2.809,1.278c1.458,0,2.323-0.756,2.323-1.765
				c0-2.377-5.492-1.026-5.492-4.159c0-1.332,1.134-2.413,3.097-2.413c1.495,0,2.485,0.576,3.115,1.278l-0.522,0.667
				c-0.504-0.685-1.44-1.152-2.593-1.152c-1.35,0-2.161,0.684-2.161,1.584c0,2.179,5.474,0.847,5.474,4.195
				c0,1.404-1.08,2.557-3.259,2.557C269.25,324.982,268.169,324.568,267.305,323.597z"/>
		</g>
		<g>
			<path fill="#098DBA" d="M277.54,345.595c0,3.624-2.938,6.562-6.562,6.562h-39.015c-3.624,0-6.562-2.938-6.562-6.562l0,0
				c0-3.624,2.938-6.562,6.562-6.562h39.015C274.602,339.032,277.54,341.97,277.54,345.595L277.54,345.595z"/>
			<rect x="238.959" y="344.589" fill="#FFFFFF" width="25.022" height="2.012"/>
		</g>
		<g>
			<path fill="#48AC64" d="M338.504,345.346c0,3.624-2.938,6.562-6.562,6.562h-39.015c-3.624,0-6.562-2.938-6.562-6.562l0,0
				c0-3.624,2.938-6.562,6.562-6.562h39.015C335.566,338.783,338.504,341.721,338.504,345.346L338.504,345.346z"/>
			<rect x="299.923" y="344.34" fill="#FFFFFF" width="25.022" height="2.012"/>
		</g>
		<g>
			<path fill="#ED432E" d="M399.468,345.346c0,3.624-2.938,6.562-6.562,6.562H353.89c-3.624,0-6.562-2.938-6.562-6.562l0,0
				c0-3.624,2.938-6.562,6.562-6.562h39.015C396.53,338.783,399.468,341.721,399.468,345.346L399.468,345.346z"/>
			<rect x="360.887" y="344.34" fill="#FFFFFF" width="25.022" height="2.012"/>
		</g>
	</g>
</g>
<g opacity="0.5">
	<path fill="#747F83" d="M245.337,104.531V99.26c0-1.489-0.753-1.906-1.875-1.906c-0.994,0-2.019,0.625-2.516,1.33v5.848h-0.833
		V93.845h0.833v4.117c0.561-0.673,1.667-1.361,2.788-1.361c1.57,0,2.436,0.737,2.436,2.483v5.447H245.337z"/>
	<path fill="#747F83" d="M250.157,104.531v-9.437l-1.714,1.826l-0.561-0.593l2.355-2.483h0.833v10.687H250.157z"/>
	<path fill="#747F83" d="M253.44,103.971c0-0.369,0.336-0.689,0.721-0.689c0.385,0,0.705,0.32,0.705,0.689
		c0,0.385-0.32,0.705-0.705,0.705C253.777,104.676,253.44,104.355,253.44,103.971z"/>
	<path fill="#747F83" d="M264.669,104.531l-4.374-10.687h1.058l3.893,9.661l3.877-9.661h1.057l-4.374,10.687H264.669z"/>
	<path fill="#747F83" d="M270.322,100.654c0-2.243,1.57-4.054,3.717-4.054c2.355,0,3.653,1.858,3.653,4.102v0.225h-6.473
		c0.08,1.682,1.202,3.076,3.028,3.076c0.977,0,1.875-0.369,2.531-1.074l0.433,0.545c-0.769,0.802-1.746,1.25-3.028,1.25
		C271.924,104.724,270.322,103.041,270.322,100.654z M274.023,97.321c-1.827,0-2.74,1.603-2.804,2.948h5.624
		C276.827,98.956,275.962,97.321,274.023,97.321z"/>
	<path fill="#747F83" d="M279.836,104.531v-7.738h0.833v1.33c0.657-0.865,1.538-1.49,2.612-1.49v0.913
		c-0.145-0.032-0.257-0.032-0.417-0.032c-0.785,0-1.842,0.705-2.195,1.378v5.64H279.836z"/>
	<path fill="#747F83" d="M284.545,106.79c0.176,0.08,0.48,0.129,0.673,0.129c0.513,0,0.865-0.209,1.186-0.945l0.609-1.378
		l-3.284-7.803h0.929l2.82,6.761l2.788-6.761h0.945l-4.005,9.437c-0.417,0.978-1.073,1.442-1.971,1.442
		c-0.272,0-0.625-0.049-0.833-0.112L284.545,106.79z"/>
	<path fill="#747F83" d="M296.766,104.531V93.845h0.833v10.687H296.766z"/>
	<path fill="#747F83" d="M305.112,104.531v-0.913c-0.689,0.753-1.554,1.105-2.627,1.105c-1.33,0-2.708-0.913-2.708-2.58
		c0-1.682,1.362-2.563,2.708-2.563c1.073,0,1.955,0.353,2.627,1.105v-1.569c0-1.154-0.929-1.778-2.067-1.778
		c-0.977,0-1.73,0.336-2.435,1.137l-0.465-0.576c0.801-0.865,1.698-1.298,2.98-1.298c1.57,0,2.819,0.753,2.819,2.483v5.447H305.112z
		 M305.112,103.009v-1.698c-0.544-0.721-1.41-1.073-2.339-1.073c-1.266,0-2.115,0.817-2.115,1.923c0,1.09,0.849,1.906,2.115,1.906
		C303.703,104.066,304.568,103.714,305.112,103.009z"/>
	<path fill="#747F83" d="M308.539,104.531v-7.738h0.833v1.33c0.657-0.865,1.538-1.49,2.612-1.49v0.913
		c-0.145-0.032-0.257-0.032-0.417-0.032c-0.785,0-1.842,0.705-2.195,1.378v5.64H308.539z"/>
	<path fill="#747F83" d="M313.632,106.502l0.48-0.673c0.673,0.801,1.41,1.09,2.58,1.09c1.394,0,2.627-0.705,2.627-2.452v-1.233
		c-0.545,0.801-1.538,1.458-2.691,1.458c-2.051,0-3.445-1.554-3.445-4.037c0-2.451,1.394-4.054,3.445-4.054
		c1.105,0,2.066,0.561,2.691,1.441v-1.249h0.849v7.674c0,2.355-1.602,3.205-3.477,3.205
		C315.378,107.672,314.545,107.432,313.632,106.502z M319.32,102.528v-3.765c-0.449-0.753-1.474-1.41-2.547-1.41
		c-1.714,0-2.708,1.426-2.708,3.301c0,1.874,0.993,3.284,2.708,3.284C317.846,103.938,318.871,103.281,319.32,102.528z"/>
	<path fill="#747F83" d="M322.313,100.654c0-2.243,1.57-4.054,3.717-4.054c2.355,0,3.653,1.858,3.653,4.102v0.225h-6.473
		c0.08,1.682,1.202,3.076,3.028,3.076c0.978,0,1.875-0.369,2.531-1.074l0.433,0.545c-0.769,0.802-1.746,1.25-3.028,1.25
		C323.915,104.724,322.313,103.041,322.313,100.654z M326.014,97.321c-1.827,0-2.74,1.603-2.804,2.948h5.624
		C328.818,98.956,327.953,97.321,326.014,97.321z"/>
	<path fill="#747F83" d="M341.199,104.531V99.26c0-1.489-0.753-1.906-1.875-1.906c-0.994,0-2.019,0.625-2.516,1.33v5.848h-0.833
		V93.845h0.833v4.117c0.561-0.673,1.667-1.361,2.788-1.361c1.57,0,2.436,0.737,2.436,2.483v5.447H341.199z"/>
	<path fill="#747F83" d="M344.192,100.654c0-2.243,1.57-4.054,3.717-4.054c2.355,0,3.653,1.858,3.653,4.102v0.225h-6.473
		c0.08,1.682,1.202,3.076,3.028,3.076c0.977,0,1.875-0.369,2.531-1.074l0.433,0.545c-0.769,0.802-1.746,1.25-3.028,1.25
		C345.794,104.724,344.192,103.041,344.192,100.654z M347.894,97.321c-1.827,0-2.74,1.603-2.804,2.948h5.624
		C350.697,98.956,349.832,97.321,347.894,97.321z"/>
	<path fill="#747F83" d="M358.625,104.531v-0.913c-0.689,0.753-1.554,1.105-2.627,1.105c-1.33,0-2.708-0.913-2.708-2.58
		c0-1.682,1.362-2.563,2.708-2.563c1.073,0,1.955,0.353,2.627,1.105v-1.569c0-1.154-0.929-1.778-2.067-1.778
		c-0.977,0-1.73,0.336-2.435,1.137l-0.465-0.576c0.801-0.865,1.698-1.298,2.98-1.298c1.57,0,2.819,0.753,2.819,2.483v5.447H358.625z
		 M358.625,103.009v-1.698c-0.544-0.721-1.41-1.073-2.339-1.073c-1.266,0-2.115,0.817-2.115,1.923c0,1.09,0.849,1.906,2.115,1.906
		C357.215,104.066,358.081,103.714,358.625,103.009z"/>
	<path fill="#747F83" d="M367.755,104.531v-1.233c-0.545,0.801-1.538,1.426-2.691,1.426c-2.051,0-3.445-1.57-3.445-4.054
		c0-2.451,1.394-4.069,3.445-4.069c1.105,0,2.083,0.561,2.691,1.441v-4.197h0.849v10.687H367.755z M367.755,102.593v-3.829
		c-0.449-0.753-1.458-1.41-2.547-1.41c-1.714,0-2.708,1.442-2.708,3.316c0,1.875,0.993,3.301,2.708,3.301
		C366.297,103.971,367.306,103.33,367.755,102.593z"/>
	<path fill="#747F83" d="M370.765,100.654c0-2.243,1.57-4.054,3.717-4.054c2.355,0,3.653,1.858,3.653,4.102v0.225h-6.473
		c0.08,1.682,1.202,3.076,3.028,3.076c0.977,0,1.875-0.369,2.531-1.074l0.433,0.545c-0.769,0.802-1.746,1.25-3.028,1.25
		C372.367,104.724,370.765,103.041,370.765,100.654z M374.466,97.321c-1.827,0-2.74,1.603-2.804,2.948h5.624
		C377.27,98.956,376.404,97.321,374.466,97.321z"/>
	<path fill="#747F83" d="M380.279,104.531v-7.738h0.833v1.33c0.657-0.865,1.538-1.49,2.612-1.49v0.913
		c-0.145-0.032-0.257-0.032-0.417-0.032c-0.785,0-1.842,0.705-2.195,1.378v5.64H380.279z"/>
	<path fill="#747F83" d="M244.406,121.531v-4.519c0-1.276-0.646-1.634-1.607-1.634c-0.852,0-1.73,0.535-2.156,1.14v5.013h-0.714
		v-9.16h0.714v3.529c0.48-0.576,1.428-1.167,2.389-1.167c1.346,0,2.087,0.632,2.087,2.129v4.669H244.406z"/>
	<path fill="#747F83" d="M246.999,121.531v-0.646c3.117-2.513,5.205-4.298,5.205-6.07c0-1.318-1.084-1.867-2.087-1.867
		c-1.14,0-2.019,0.494-2.513,1.194l-0.536-0.494c0.645-0.879,1.758-1.414,3.048-1.414c1.346,0,2.884,0.769,2.884,2.581
		c0,2.02-2.129,3.859-4.779,6.002h4.82v0.714H246.999z"/>
	<path fill="#747F83" d="M255.113,121.051c0-0.316,0.289-0.591,0.618-0.591s0.604,0.274,0.604,0.591
		c0,0.329-0.274,0.604-0.604,0.604S255.113,121.38,255.113,121.051z"/>
	<path fill="#747F83" d="M261.73,121.531v-9.16h0.796v8.446h4.436v0.714H261.73z"/>
	<path fill="#747F83" d="M272.522,121.531v-0.783c-0.591,0.646-1.333,0.948-2.252,0.948c-1.14,0-2.321-0.783-2.321-2.211
		c0-1.442,1.167-2.197,2.321-2.197c0.92,0,1.675,0.302,2.252,0.947v-1.346c0-0.989-0.797-1.524-1.772-1.524
		c-0.837,0-1.483,0.288-2.087,0.975l-0.398-0.494c0.687-0.741,1.456-1.112,2.554-1.112c1.346,0,2.417,0.646,2.417,2.129v4.669
		H272.522z M272.522,120.227v-1.456c-0.467-0.617-1.209-0.92-2.005-0.92c-1.085,0-1.812,0.7-1.812,1.648
		c0,0.934,0.728,1.634,1.812,1.634C271.313,121.133,272.055,120.831,272.522,120.227z"/>
	<path fill="#747F83" d="M275.459,121.531v-6.633h0.714v1.14c0.563-0.741,1.318-1.277,2.238-1.277v0.783
		c-0.124-0.027-0.22-0.027-0.357-0.027c-0.673,0-1.58,0.604-1.881,1.181v4.834H275.459z"/>
	<path fill="#747F83" d="M279.825,123.221l0.412-0.577c0.577,0.687,1.208,0.934,2.211,0.934c1.195,0,2.252-0.604,2.252-2.101v-1.058
		c-0.467,0.687-1.318,1.25-2.307,1.25c-1.758,0-2.953-1.332-2.953-3.461c0-2.102,1.195-3.475,2.953-3.475
		c0.947,0,1.771,0.48,2.307,1.236v-1.071h0.728v6.578c0,2.019-1.373,2.746-2.98,2.746
		C281.322,124.223,280.607,124.017,279.825,123.221z M284.7,119.814v-3.227c-0.385-0.646-1.264-1.209-2.184-1.209
		c-1.47,0-2.321,1.223-2.321,2.829s0.851,2.815,2.321,2.815C283.437,121.023,284.315,120.46,284.7,119.814z"/>
	<path fill="#747F83" d="M287.266,118.208c0-1.923,1.346-3.475,3.186-3.475c2.019,0,3.131,1.593,3.131,3.516v0.192h-5.548
		c0.068,1.441,1.03,2.637,2.595,2.637c0.838,0,1.607-0.316,2.17-0.92l0.371,0.467c-0.659,0.687-1.497,1.071-2.595,1.071
		C288.639,121.696,287.266,120.254,287.266,118.208z M290.438,115.352c-1.566,0-2.349,1.373-2.403,2.526h4.82
		C292.842,116.752,292.1,115.352,290.438,115.352z"/>
	<path fill="#747F83" d="M303.454,121.531v-4.519c0-1.276-0.646-1.634-1.607-1.634c-0.852,0-1.73,0.535-2.156,1.14v5.013h-0.714
		v-9.16h0.714v3.529c0.48-0.576,1.428-1.167,2.389-1.167c1.346,0,2.087,0.632,2.087,2.129v4.669H303.454z"/>
	<path fill="#747F83" d="M306.02,118.208c0-1.923,1.346-3.475,3.186-3.475c2.019,0,3.131,1.593,3.131,3.516v0.192h-5.548
		c0.068,1.441,1.03,2.637,2.595,2.637c0.838,0,1.607-0.316,2.17-0.92l0.371,0.467c-0.659,0.687-1.497,1.071-2.596,1.071
		C307.393,121.696,306.02,120.254,306.02,118.208z M309.192,115.352c-1.566,0-2.349,1.373-2.403,2.526h4.82
		C311.595,116.752,310.854,115.352,309.192,115.352z"/>
	<path fill="#747F83" d="M318.391,121.531v-0.783c-0.591,0.646-1.333,0.948-2.252,0.948c-1.14,0-2.321-0.783-2.321-2.211
		c0-1.442,1.167-2.197,2.321-2.197c0.92,0,1.675,0.302,2.252,0.947v-1.346c0-0.989-0.797-1.524-1.772-1.524
		c-0.837,0-1.483,0.288-2.087,0.975l-0.398-0.494c0.687-0.741,1.456-1.112,2.554-1.112c1.346,0,2.417,0.646,2.417,2.129v4.669
		H318.391z M318.391,120.227v-1.456c-0.467-0.617-1.209-0.92-2.005-0.92c-1.085,0-1.812,0.7-1.812,1.648
		c0,0.934,0.728,1.634,1.812,1.634C317.182,121.133,317.923,120.831,318.391,120.227z"/>
	<path fill="#747F83" d="M326.216,121.531v-1.058c-0.467,0.687-1.318,1.223-2.307,1.223c-1.758,0-2.953-1.346-2.953-3.475
		c0-2.102,1.195-3.488,2.953-3.488c0.947,0,1.785,0.48,2.307,1.236v-3.599h0.728v9.16H326.216z M326.216,119.869v-3.281
		c-0.385-0.646-1.25-1.209-2.184-1.209c-1.47,0-2.321,1.236-2.321,2.843s0.851,2.829,2.321,2.829
		C324.966,121.051,325.832,120.501,326.216,119.869z"/>
	<path fill="#747F83" d="M328.796,118.208c0-1.923,1.346-3.475,3.186-3.475c2.019,0,3.131,1.593,3.131,3.516v0.192h-5.548
		c0.068,1.441,1.03,2.637,2.595,2.637c0.838,0,1.607-0.316,2.17-0.92l0.371,0.467c-0.659,0.687-1.497,1.071-2.596,1.071
		C330.169,121.696,328.796,120.254,328.796,118.208z M331.968,115.352c-1.566,0-2.349,1.373-2.403,2.526h4.82
		C334.371,116.752,333.63,115.352,331.968,115.352z"/>
	<path fill="#747F83" d="M336.951,121.531v-6.633h0.714v1.14c0.563-0.741,1.318-1.277,2.238-1.277v0.783
		c-0.124-0.027-0.22-0.027-0.357-0.027c-0.673,0-1.58,0.604-1.881,1.181v4.834H336.951z"/>
	<path fill="#869296" d="M243.474,138.531v-3.765c0-1.064-0.538-1.362-1.339-1.362c-0.709,0-1.442,0.446-1.797,0.95v4.177h-0.595
		v-7.633h0.595v2.94c0.401-0.48,1.19-0.973,1.991-0.973c1.122,0,1.74,0.526,1.74,1.774v3.891H243.474z"/>
	<path fill="#869296" d="M245.361,137.398l0.446-0.39c0.423,0.606,1.167,1.064,2.14,1.064c1.179,0,1.922-0.618,1.922-1.625
		c0-1.099-0.904-1.557-2.048-1.557c-0.309,0-0.595,0.012-0.709,0.023v-0.618c0.114,0.012,0.4,0.012,0.709,0.012
		c1.019,0,1.934-0.436,1.934-1.453c0-0.95-0.847-1.477-1.831-1.477c-0.87,0-1.488,0.343-2.048,0.973l-0.412-0.412
		c0.538-0.652,1.385-1.156,2.495-1.156c1.328,0,2.46,0.722,2.46,2.015c0,1.167-0.984,1.671-1.636,1.785
		c0.664,0.068,1.751,0.641,1.751,1.899s-0.95,2.187-2.575,2.187C246.711,138.669,245.807,138.085,245.361,137.398z"/>
	<path fill="#869296" d="M251.962,138.131c0-0.264,0.241-0.492,0.515-0.492c0.275,0,0.503,0.229,0.503,0.492
		c0,0.274-0.229,0.503-0.503,0.503C252.203,138.634,251.962,138.405,251.962,138.131z"/>
	<path fill="#869296" d="M264.114,138.531v-6.81l-2.781,6.81h-0.252l-2.792-6.81v6.81h-0.652v-7.633h0.973l2.598,6.352l2.586-6.352
		h0.984v7.633H264.114z"/>
	<path fill="#869296" d="M266.343,135.762c0-1.603,1.122-2.896,2.655-2.896c1.682,0,2.609,1.328,2.609,2.93v0.16h-4.624
		c0.057,1.202,0.858,2.197,2.163,2.197c0.698,0,1.339-0.263,1.808-0.767l0.309,0.39c-0.549,0.571-1.248,0.893-2.163,0.893
		C267.487,138.669,266.343,137.467,266.343,135.762z M268.987,133.382c-1.305,0-1.957,1.144-2.003,2.105h4.017
		C270.989,134.549,270.372,133.382,268.987,133.382z"/>
	<path fill="#869296" d="M277.213,138.531v-0.881c-0.389,0.572-1.099,1.019-1.922,1.019c-1.465,0-2.46-1.122-2.46-2.896
		c0-1.751,0.996-2.907,2.46-2.907c0.79,0,1.488,0.4,1.922,1.03v-2.998h0.606v7.633H277.213z M277.213,137.146v-2.735
		c-0.32-0.538-1.042-1.007-1.819-1.007c-1.225,0-1.934,1.03-1.934,2.369s0.709,2.357,1.934,2.357
		C276.171,138.131,276.893,137.673,277.213,137.146z"/>
	<path fill="#869296" d="M279.511,131.676c0-0.251,0.218-0.446,0.458-0.446c0.251,0,0.458,0.195,0.458,0.446
		c0,0.252-0.206,0.458-0.458,0.458C279.729,132.134,279.511,131.928,279.511,131.676z M279.671,138.531v-5.527h0.595v5.527H279.671z
		"/>
	<path fill="#869296" d="M285.851,138.531v-0.812c-0.446,0.504-1.19,0.95-1.991,0.95c-1.122,0-1.74-0.526-1.74-1.774v-3.891h0.595
		v3.754c0,1.075,0.538,1.373,1.339,1.373c0.71,0,1.431-0.424,1.797-0.916v-4.211h0.595v5.527H285.851z"/>
	<path fill="#869296" d="M294.878,138.531v-3.868c0-0.778-0.332-1.259-1.11-1.259c-0.595,0-1.271,0.435-1.58,0.938v4.188h-0.606
		v-3.868c0-0.778-0.32-1.259-1.099-1.259c-0.595,0-1.259,0.446-1.591,0.95v4.177h-0.595v-5.527h0.595v0.835
		c0.229-0.354,0.984-0.973,1.785-0.973c0.858,0,1.316,0.504,1.454,1.042c0.309-0.516,1.053-1.042,1.831-1.042
		c1.019,0,1.511,0.572,1.511,1.683v3.982H294.878z"/>
	<path fill="#869296" d="M304.019,138.531v-3.765c0-1.064-0.538-1.362-1.339-1.362c-0.709,0-1.442,0.446-1.797,0.95v4.177h-0.595
		v-7.633h0.595v2.94c0.4-0.48,1.19-0.973,1.991-0.973c1.122,0,1.74,0.526,1.74,1.774v3.891H304.019z"/>
	<path fill="#869296" d="M306.157,135.762c0-1.603,1.121-2.896,2.655-2.896c1.682,0,2.609,1.328,2.609,2.93v0.16h-4.624
		c0.057,1.202,0.858,2.197,2.163,2.197c0.698,0,1.339-0.263,1.808-0.767l0.309,0.39c-0.549,0.571-1.248,0.893-2.163,0.893
		C307.301,138.669,306.157,137.467,306.157,135.762z M308.801,133.382c-1.305,0-1.957,1.144-2.003,2.105h4.017
		C310.803,134.549,310.186,133.382,308.801,133.382z"/>
	<path fill="#869296" d="M316.466,138.531v-0.652c-0.492,0.538-1.11,0.79-1.877,0.79c-0.95,0-1.934-0.652-1.934-1.843
		c0-1.202,0.973-1.831,1.934-1.831c0.767,0,1.396,0.252,1.877,0.79v-1.122c0-0.824-0.664-1.271-1.477-1.271
		c-0.698,0-1.236,0.24-1.739,0.812l-0.332-0.412c0.572-0.617,1.213-0.927,2.128-0.927c1.122,0,2.015,0.538,2.015,1.774v3.891
		H316.466z M316.466,137.444v-1.213c-0.389-0.516-1.007-0.768-1.671-0.768c-0.904,0-1.511,0.584-1.511,1.374
		c0,0.777,0.606,1.361,1.511,1.361C315.459,138.199,316.077,137.947,316.466,137.444z"/>
	<path fill="#869296" d="M322.987,138.531v-0.881c-0.389,0.572-1.099,1.019-1.922,1.019c-1.465,0-2.46-1.122-2.46-2.896
		c0-1.751,0.996-2.907,2.46-2.907c0.79,0,1.488,0.4,1.922,1.03v-2.998h0.606v7.633H322.987z M322.987,137.146v-2.735
		c-0.32-0.538-1.042-1.007-1.819-1.007c-1.225,0-1.934,1.03-1.934,2.369s0.709,2.357,1.934,2.357
		C321.946,138.131,322.667,137.673,322.987,137.146z"/>
	<path fill="#869296" d="M325.137,135.762c0-1.603,1.122-2.896,2.655-2.896c1.682,0,2.609,1.328,2.609,2.93v0.16h-4.624
		c0.057,1.202,0.858,2.197,2.163,2.197c0.698,0,1.339-0.263,1.808-0.767l0.309,0.39c-0.549,0.571-1.248,0.893-2.163,0.893
		C326.281,138.669,325.137,137.467,325.137,135.762z M327.781,133.382c-1.305,0-1.957,1.144-2.003,2.105h4.017
		C329.783,134.549,329.166,133.382,327.781,133.382z"/>
	<path fill="#869296" d="M331.933,138.531v-5.527h0.595v0.949c0.469-0.617,1.099-1.063,1.866-1.063v0.652
		c-0.103-0.023-0.184-0.023-0.298-0.023c-0.561,0-1.316,0.504-1.568,0.984v4.028H331.933z"/>
	<path fill="#747F83" d="M242.853,152.531v-3.263c0-0.923-0.466-1.181-1.16-1.181c-0.615,0-1.25,0.387-1.557,0.823v3.62h-0.516
		v-6.615h0.516v2.549c0.347-0.417,1.031-0.843,1.726-0.843c0.972,0,1.507,0.456,1.507,1.537v3.372H242.853z"/>
	<path fill="#747F83" d="M247.652,152.531v-1.805h-3.134v-0.506l2.936-4.305h0.764v4.294h0.972v0.517h-0.972v1.805H247.652z
		 M247.652,146.481l-2.549,3.729h2.549V146.481z"/>
	<path fill="#747F83" d="M250.179,152.185c0-0.229,0.208-0.427,0.446-0.427c0.238,0,0.437,0.198,0.437,0.427
		c0,0.237-0.198,0.436-0.437,0.436C250.388,152.62,250.179,152.422,250.179,152.185z"/>
	<path fill="#747F83" d="M260.711,152.531v-5.901l-2.41,5.901h-0.218l-2.42-5.901v5.901h-0.565v-6.615h0.843l2.251,5.504
		l2.242-5.504h0.853v6.615H260.711z"/>
	<path fill="#747F83" d="M262.643,150.131c0-1.398,0.893-2.509,2.291-2.509c1.418,0,2.311,1.11,2.311,2.509s-0.893,2.52-2.311,2.52
		C263.536,152.65,262.643,151.529,262.643,150.131z M266.689,150.131c0-1.062-0.625-2.043-1.755-2.043
		c-1.111,0-1.746,0.981-1.746,2.043c0,1.071,0.635,2.054,1.746,2.054C266.065,152.185,266.689,151.202,266.689,150.131z"/>
	<path fill="#747F83" d="M272.104,152.531v-0.764c-0.337,0.496-0.952,0.883-1.667,0.883c-1.27,0-2.132-0.972-2.132-2.51
		c0-1.518,0.863-2.519,2.132-2.519c0.685,0,1.29,0.347,1.667,0.893v-2.599h0.525v6.615H272.104z M272.104,151.331v-2.37
		c-0.278-0.467-0.903-0.873-1.577-0.873c-1.062,0-1.676,0.893-1.676,2.053c0,1.161,0.615,2.044,1.676,2.044
		C271.201,152.185,271.826,151.787,272.104,151.331z"/>
	<path fill="#747F83" d="M273.967,150.131c0-1.389,0.972-2.509,2.301-2.509c1.458,0,2.262,1.15,2.262,2.539v0.139h-4.007
		c0.05,1.041,0.744,1.904,1.875,1.904c0.605,0,1.161-0.229,1.567-0.665l0.268,0.338c-0.476,0.496-1.081,0.773-1.875,0.773
		C274.958,152.65,273.967,151.608,273.967,150.131z M276.258,148.068c-1.131,0-1.696,0.991-1.736,1.824h3.481
		C277.994,149.08,277.458,148.068,276.258,148.068z"/>
	<path fill="#747F83" d="M279.856,152.531v-4.79h0.516v0.823c0.406-0.536,0.952-0.923,1.616-0.923v0.565
		c-0.089-0.02-0.158-0.02-0.258-0.02c-0.486,0-1.141,0.436-1.358,0.853v3.491H279.856z"/>
	<path fill="#747F83" d="M286.044,152.531v-0.565c-0.426,0.466-0.962,0.685-1.626,0.685c-0.823,0-1.676-0.565-1.676-1.597
		c0-1.042,0.843-1.587,1.676-1.587c0.665,0,1.21,0.218,1.626,0.684v-0.972c0-0.714-0.575-1.101-1.279-1.101
		c-0.605,0-1.071,0.208-1.508,0.704l-0.288-0.357c0.496-0.535,1.051-0.803,1.845-0.803c0.972,0,1.745,0.466,1.745,1.537v3.372
		H286.044z M286.044,151.589v-1.051c-0.337-0.446-0.873-0.665-1.448-0.665c-0.784,0-1.31,0.506-1.31,1.19
		c0,0.675,0.526,1.18,1.31,1.18C285.171,152.243,285.707,152.025,286.044,151.589z"/>
	<path fill="#747F83" d="M288.264,151.608v-3.411h-0.793v-0.456h0.793v-1.31h0.526v1.31h0.972v0.456h-0.972v3.332
		c0,0.387,0.159,0.655,0.496,0.655c0.228,0,0.426-0.109,0.535-0.229l0.199,0.396c-0.188,0.179-0.417,0.298-0.813,0.298
		C288.572,152.65,288.264,152.264,288.264,151.608z"/>
	<path fill="#747F83" d="M290.624,150.131c0-1.389,0.972-2.509,2.301-2.509c1.458,0,2.262,1.15,2.262,2.539v0.139h-4.007
		c0.05,1.041,0.744,1.904,1.875,1.904c0.605,0,1.161-0.229,1.567-0.665l0.268,0.338c-0.476,0.496-1.081,0.773-1.875,0.773
		C291.616,152.65,290.624,151.608,290.624,150.131z M292.915,148.068c-1.131,0-1.696,0.991-1.736,1.824h3.481
		C294.651,149.08,294.115,148.068,292.915,148.068z"/>
	<path fill="#747F83" d="M302.315,152.531v-3.263c0-0.923-0.466-1.181-1.16-1.181c-0.615,0-1.25,0.387-1.557,0.823v3.62h-0.516
		v-6.615h0.516v2.549c0.347-0.417,1.031-0.843,1.726-0.843c0.972,0,1.507,0.456,1.507,1.537v3.372H302.315z"/>
	<path fill="#747F83" d="M304.168,150.131c0-1.389,0.972-2.509,2.301-2.509c1.458,0,2.262,1.15,2.262,2.539v0.139h-4.007
		c0.05,1.041,0.744,1.904,1.875,1.904c0.605,0,1.161-0.229,1.567-0.665l0.268,0.338c-0.476,0.496-1.081,0.773-1.875,0.773
		C305.16,152.65,304.168,151.608,304.168,150.131z M306.459,148.068c-1.131,0-1.696,0.991-1.736,1.824h3.481
		C308.195,149.08,307.66,148.068,306.459,148.068z"/>
	<path fill="#747F83" d="M313.103,152.531v-0.565c-0.426,0.466-0.962,0.685-1.626,0.685c-0.823,0-1.676-0.565-1.676-1.597
		c0-1.042,0.843-1.587,1.676-1.587c0.665,0,1.21,0.218,1.626,0.684v-0.972c0-0.714-0.575-1.101-1.279-1.101
		c-0.605,0-1.071,0.208-1.508,0.704l-0.288-0.357c0.496-0.535,1.052-0.803,1.845-0.803c0.972,0,1.746,0.466,1.746,1.537v3.372
		H313.103z M313.103,151.589v-1.051c-0.337-0.446-0.873-0.665-1.448-0.665c-0.784,0-1.31,0.506-1.31,1.19
		c0,0.675,0.526,1.18,1.31,1.18C312.23,152.243,312.766,152.025,313.103,151.589z"/>
	<path fill="#747F83" d="M318.755,152.531v-0.764c-0.337,0.496-0.952,0.883-1.667,0.883c-1.27,0-2.132-0.972-2.132-2.51
		c0-1.518,0.863-2.519,2.132-2.519c0.685,0,1.29,0.347,1.667,0.893v-2.599h0.525v6.615H318.755z M318.755,151.331v-2.37
		c-0.278-0.467-0.903-0.873-1.577-0.873c-1.062,0-1.676,0.893-1.676,2.053c0,1.161,0.615,2.044,1.676,2.044
		C317.853,152.185,318.478,151.787,318.755,151.331z"/>
	<path fill="#747F83" d="M320.618,150.131c0-1.389,0.972-2.509,2.301-2.509c1.458,0,2.262,1.15,2.262,2.539v0.139h-4.007
		c0.05,1.041,0.744,1.904,1.875,1.904c0.605,0,1.161-0.229,1.567-0.665l0.268,0.338c-0.476,0.496-1.081,0.773-1.875,0.773
		C321.61,152.65,320.618,151.608,320.618,150.131z M322.909,148.068c-1.131,0-1.696,0.991-1.736,1.824h3.481
		C324.645,149.08,324.109,148.068,322.909,148.068z"/>
	<path fill="#747F83" d="M326.508,152.531v-4.79h0.516v0.823c0.406-0.536,0.952-0.923,1.617-0.923v0.565
		c-0.089-0.02-0.159-0.02-0.258-0.02c-0.486,0-1.141,0.436-1.358,0.853v3.491H326.508z"/>
	<path fill="#747F83" d="M241.921,166.531v-2.51c0-0.71-0.358-0.908-0.893-0.908c-0.473,0-0.961,0.298-1.198,0.633v2.785h-0.396
		v-5.089h0.396v1.961c0.267-0.32,0.793-0.648,1.328-0.648c0.748,0,1.16,0.351,1.16,1.183v2.594H241.921z"/>
	<path fill="#747F83" d="M243.5,165.791l0.29-0.29c0.328,0.466,0.771,0.726,1.427,0.726c0.74,0,1.274-0.534,1.274-1.229
		c0-0.771-0.534-1.244-1.267-1.244c-0.465,0-0.862,0.152-1.236,0.496l-0.328-0.138v-2.67h2.938v0.396h-2.502v1.991
		c0.252-0.244,0.687-0.473,1.213-0.473c0.854,0,1.625,0.564,1.625,1.625c0,1.015-0.778,1.641-1.716,1.641
		C244.369,166.623,243.851,166.295,243.5,165.791z"/>
	<path fill="#747F83" d="M247.87,166.265c0-0.176,0.16-0.328,0.343-0.328s0.335,0.152,0.335,0.328c0,0.183-0.152,0.335-0.335,0.335
		S247.87,166.447,247.87,166.265z"/>
	<path fill="#747F83" d="M251.371,165.814l0.282-0.328c0.328,0.373,0.862,0.74,1.595,0.74c1.037,0,1.335-0.58,1.335-1.016
		c0-1.495-3.052-0.717-3.052-2.494c0-0.832,0.748-1.358,1.671-1.358c0.755,0,1.335,0.268,1.724,0.718l-0.29,0.32
		c-0.366-0.443-0.885-0.642-1.457-0.642c-0.679,0-1.19,0.39-1.19,0.938c0,1.305,3.052,0.588,3.052,2.487
		c0,0.656-0.435,1.442-1.808,1.442C252.394,166.623,251.76,166.279,251.371,165.814z"/>
	<path fill="#747F83" d="M260.456,166.531v-2.579c0-0.519-0.221-0.839-0.74-0.839c-0.396,0-0.847,0.29-1.053,0.626v2.792h-0.404
		v-2.579c0-0.519-0.214-0.839-0.732-0.839c-0.396,0-0.839,0.298-1.061,0.633v2.785h-0.396v-3.685h0.396v0.557
		c0.153-0.236,0.656-0.648,1.19-0.648c0.572,0,0.877,0.336,0.969,0.694c0.206-0.344,0.702-0.694,1.221-0.694
		c0.679,0,1.007,0.381,1.007,1.121v2.655H260.456z"/>
	<path fill="#747F83" d="M264.43,166.531v-0.435c-0.328,0.358-0.74,0.526-1.251,0.526c-0.633,0-1.29-0.436-1.29-1.229
		c0-0.801,0.648-1.221,1.29-1.221c0.511,0,0.931,0.168,1.251,0.526v-0.748c0-0.549-0.443-0.847-0.984-0.847
		c-0.465,0-0.824,0.16-1.16,0.542l-0.221-0.274c0.381-0.412,0.809-0.618,1.419-0.618c0.748,0,1.343,0.358,1.343,1.183v2.594H264.43z
		 M264.43,165.807v-0.809c-0.26-0.344-0.672-0.512-1.114-0.512c-0.603,0-1.007,0.39-1.007,0.916c0,0.519,0.404,0.907,1.007,0.907
		C263.758,166.31,264.17,166.143,264.43,165.807z"/>
	<path fill="#747F83" d="M266.061,166.531v-5.089h0.396v5.089H266.061z"/>
	<path fill="#747F83" d="M267.693,166.531v-5.089h0.396v5.089H267.693z"/>
	<path fill="#747F83" d="M274.978,166.531v-2.419h-3.227v2.419h-0.435v-5.089h0.435v2.273h3.227v-2.273h0.435v5.089H274.978z"/>
	<path fill="#747F83" d="M276.457,164.685c0-1.067,0.748-1.93,1.77-1.93c1.122,0,1.739,0.885,1.739,1.953v0.106h-3.082
		c0.038,0.801,0.572,1.465,1.442,1.465c0.465,0,0.893-0.176,1.206-0.511l0.206,0.259c-0.366,0.382-0.832,0.596-1.442,0.596
		C277.219,166.623,276.457,165.821,276.457,164.685z M278.219,163.098c-0.87,0-1.305,0.764-1.335,1.404h2.678
		C279.554,163.876,279.142,163.098,278.219,163.098z"/>
	<path fill="#747F83" d="M283.329,166.531v-0.435c-0.328,0.358-0.74,0.526-1.251,0.526c-0.633,0-1.29-0.436-1.29-1.229
		c0-0.801,0.649-1.221,1.29-1.221c0.511,0,0.931,0.168,1.251,0.526v-0.748c0-0.549-0.442-0.847-0.984-0.847
		c-0.465,0-0.824,0.16-1.16,0.542l-0.221-0.274c0.381-0.412,0.809-0.618,1.419-0.618c0.748,0,1.343,0.358,1.343,1.183v2.594H283.329
		z M283.329,165.807v-0.809c-0.259-0.344-0.671-0.512-1.114-0.512c-0.603,0-1.007,0.39-1.007,0.916c0,0.519,0.404,0.907,1.007,0.907
		C282.658,166.31,283.07,166.143,283.329,165.807z"/>
	<path fill="#747F83" d="M287.677,166.531v-0.588c-0.259,0.382-0.732,0.68-1.282,0.68c-0.977,0-1.64-0.748-1.64-1.931
		c0-1.167,0.664-1.938,1.64-1.938c0.526,0,0.992,0.267,1.282,0.687v-1.999h0.404v5.089H287.677z M287.677,165.608v-1.823
		c-0.213-0.359-0.694-0.672-1.213-0.672c-0.816,0-1.29,0.687-1.29,1.579s0.473,1.572,1.29,1.572
		C286.982,166.265,287.463,165.959,287.677,165.608z"/>
	<path fill="#747F83" d="M289.11,164.685c0-1.067,0.748-1.93,1.77-1.93c1.122,0,1.739,0.885,1.739,1.953v0.106h-3.082
		c0.038,0.801,0.572,1.465,1.442,1.465c0.465,0,0.893-0.176,1.206-0.511l0.206,0.259c-0.366,0.382-0.832,0.596-1.442,0.596
		C289.873,166.623,289.11,165.821,289.11,164.685z M290.872,163.098c-0.87,0-1.305,0.764-1.335,1.404h2.678
		C292.207,163.876,291.795,163.098,290.872,163.098z"/>
	<path fill="#747F83" d="M293.641,166.531v-3.685h0.396v0.633c0.313-0.412,0.732-0.71,1.244-0.71v0.436
		c-0.069-0.016-0.122-0.016-0.198-0.016c-0.374,0-0.877,0.336-1.045,0.656v2.686H293.641z"/>
</g>
<g>
	<path fill="#747F83" d="M225.372,74.952V63.879h-3.925v-0.937h8.895v0.937h-3.925v11.073H225.372z"/>
	<path fill="#747F83" d="M230.789,77.491c0.198,0.09,0.54,0.144,0.756,0.144c0.576,0,0.973-0.233,1.333-1.062l0.684-1.548
		l-3.691-8.769h1.044l3.169,7.598l3.133-7.598h1.062l-4.501,10.604c-0.468,1.099-1.207,1.621-2.215,1.621
		c-0.306,0-0.702-0.055-0.936-0.126L230.789,77.491z"/>
	<path fill="#747F83" d="M240.797,73.548v4.717h-0.936V66.256h0.936v1.368c0.612-0.883,1.729-1.585,3.025-1.585
		c2.323,0,3.889,1.765,3.889,4.556c0,2.773-1.566,4.573-3.889,4.573C242.598,75.168,241.499,74.538,240.797,73.548z M246.703,70.595
		c0-2.106-1.098-3.709-3.042-3.709c-1.207,0-2.359,0.721-2.863,1.549v4.303c0.504,0.828,1.657,1.585,2.863,1.585
		C245.604,74.322,246.703,72.701,246.703,70.595z"/>
	<path fill="#747F83" d="M249.58,70.595c0-2.539,1.621-4.556,4.159-4.556c2.575,0,4.195,2.017,4.195,4.556s-1.62,4.573-4.195,4.573
		C251.201,75.168,249.58,73.134,249.58,70.595z M256.926,70.595c0-1.927-1.134-3.709-3.187-3.709c-2.017,0-3.169,1.782-3.169,3.709
		c0,1.944,1.152,3.728,3.169,3.728C255.792,74.322,256.926,72.539,256.926,70.595z"/>
	<path fill="#747F83" d="M260.362,77.167l0.54-0.757c0.756,0.9,1.584,1.225,2.899,1.225c1.566,0,2.953-0.792,2.953-2.755v-1.386
		c-0.612,0.899-1.729,1.638-3.025,1.638c-2.305,0-3.871-1.746-3.871-4.537c0-2.755,1.566-4.556,3.871-4.556
		c1.243,0,2.323,0.631,3.025,1.621v-1.404h0.955v8.624c0,2.647-1.801,3.602-3.907,3.602
		C262.325,78.481,261.389,78.211,260.362,77.167z M266.754,72.701V68.47c-0.504-0.846-1.656-1.584-2.863-1.584
		c-1.926,0-3.043,1.603-3.043,3.709s1.117,3.691,3.043,3.691C265.098,74.286,266.25,73.548,266.754,72.701z"/>
	<path fill="#747F83" d="M270.604,74.952v-8.696h0.936v1.494c0.738-0.973,1.729-1.675,2.935-1.675v1.026
		c-0.162-0.036-0.288-0.036-0.468-0.036c-0.882,0-2.07,0.793-2.467,1.549v6.338H270.604z"/>
	<path fill="#747F83" d="M281.838,74.952v-1.026c-0.774,0.847-1.747,1.242-2.953,1.242c-1.495,0-3.043-1.026-3.043-2.898
		c0-1.891,1.53-2.881,3.043-2.881c1.207,0,2.197,0.396,2.953,1.242v-1.765c0-1.296-1.044-1.998-2.323-1.998
		c-1.099,0-1.945,0.378-2.737,1.278l-0.522-0.648c0.9-0.973,1.909-1.459,3.349-1.459c1.765,0,3.169,0.847,3.169,2.791v6.122H281.838
		z M281.838,73.241v-1.908c-0.612-0.811-1.585-1.206-2.629-1.206c-1.422,0-2.377,0.918-2.377,2.16c0,1.225,0.955,2.143,2.377,2.143
		C280.253,74.43,281.226,74.034,281.838,73.241z"/>
	<path fill="#747F83" d="M286.624,73.548v4.717h-0.936V66.256h0.936v1.368c0.612-0.883,1.729-1.585,3.025-1.585
		c2.323,0,3.889,1.765,3.889,4.556c0,2.773-1.566,4.573-3.889,4.573C288.425,75.168,287.326,74.538,286.624,73.548z M292.53,70.595
		c0-2.106-1.098-3.709-3.042-3.709c-1.207,0-2.359,0.721-2.863,1.549v4.303c0.504,0.828,1.657,1.585,2.863,1.585
		C291.432,74.322,292.53,72.701,292.53,70.595z"/>
	<path fill="#747F83" d="M301.763,74.952v-5.924c0-1.675-0.846-2.143-2.106-2.143c-1.117,0-2.269,0.702-2.827,1.494v6.572h-0.936
		v-12.01h0.936v4.628c0.63-0.757,1.873-1.531,3.133-1.531c1.764,0,2.737,0.829,2.737,2.791v6.122H301.763z"/>
	<path fill="#747F83" d="M305.2,77.491c0.198,0.09,0.54,0.144,0.756,0.144c0.576,0,0.972-0.233,1.332-1.062l0.685-1.548
		l-3.691-8.769h1.044l3.169,7.598l3.133-7.598h1.062l-4.501,10.604c-0.468,1.099-1.207,1.621-2.215,1.621
		c-0.306,0-0.702-0.055-0.936-0.126L305.2,77.491z"/>
</g>
<g>
	<path fill="#EAF7FE" d="M195.442,79.058c0,0-17.714,14.111-10.508,24.319s-7.206,23.418,0,30.924
		c7.206,7.505-1.802,26.72,15.612,40.831c0,0,12.01-13.21,14.712-25.519l-5.404-0.601c0,0,18.315-6.905,30.624-20.115
		c0,0-14.711-3.303-27.021-3.303c0,0,19.214-9.907,28.521-8.406c0,0-2.702-11.409-14.711-14.111c0,0,11.708-13.51-5.104-19.214
		S199.045,76.657,195.442,79.058z"/>
	<path fill="#CDEAF5" d="M241.978,117.188c0,0-14.712-10.058-37.229,8.857c0,0,4.13-0.676,8.708-0.45
		C213.456,125.594,234.397,115.537,241.978,117.188z"/>
	<path fill="#CDEAF5" d="M227.267,103.077c0,0-13.061-1.801-20.041-0.225c0,0,7.881-10.358,22.968-4.503
		C230.193,98.348,228.844,101.951,227.267,103.077z"/>
	<path fill="#CDEAF5" d="M240.477,128.897c0,0-32.351,13.81-39.557,20.115c0,0,3.529-0.601,8.933,0
		C209.854,149.012,232.072,140.306,240.477,128.897z"/>
	<path fill="#CDEAF5" d="M214.206,152.84c0,0-11.033,14.186-17.789,18.464c0,0,1.953,2.927,4.129,3.828
		C200.546,175.132,212.179,161.509,214.206,152.84z"/>
</g>
<g>
	<rect x="212.416" y="21.946" fill="#FFFFFF" width="14.929" height="2.167"/>
	<rect x="212.416" y="27.315" fill="#FFFFFF" width="14.929" height="2.167"/>
	<rect x="212.416" y="16.578" fill="#FFFFFF" width="14.929" height="2.167"/>
</g>
</svg>
