<?xml version="1.0" encoding="utf-8"?>
<!-- Generator: Adobe Illustrator 19.1.0, SVG Export Plug-In . SVG Version: 6.00 Build 0)  -->
<svg version="1.1" id="Layer_1" xmlns="http://www.w3.org/2000/svg" xmlns:xlink="http://www.w3.org/1999/xlink" x="0px" y="0px"
	 width="270px" height="270px" viewBox="0 0 270 270" style="enable-background:new 0 0 270 270;" xml:space="preserve">
<style type="text/css">
	.st0{fill:#FFFFFF;}
	.st1{opacity:0.2;}
	.st2{fill:none;stroke:#3F5D69;stroke-width:0.5238;stroke-miterlimit:10;}
	.st3{fill:#4F5764;}
	.st4{fill:url(#SVGID_1_);}
	.st5{fill:url(#SVGID_2_);}
	.st6{fill:url(#SVGID_3_);}
</style>
<rect x="-1" y="-1.5" class="st0" width="272" height="272"/>
<g class="st1">
	<polyline class="st2" points="9.9,191.2 198.6,245.7 200.9,25.3 9,188.5 55.1,32.2 262,79.6 30.5,80.5 74.6,242.6 250.8,177.8 	"/>
	<polyline class="st2" points="55.1,32.2 200.9,25.3 262,79.6 250.8,177.8 198.6,245.7 	"/>
	<g>
		<circle class="st3" cx="55.1" cy="32.2" r="4.2"/>
		<circle class="st3" cx="200.9" cy="25.3" r="4.2"/>
		<circle class="st3" cx="262" cy="79.6" r="4.7"/>
		<circle class="st3" cx="198.6" cy="245.7" r="4.2"/>
		<circle class="st3" cx="250.8" cy="177.8" r="3.4"/>
		<circle class="st3" cx="30.5" cy="80.5" r="3.9"/>
		<circle class="st3" cx="74.6" cy="242.6" r="4.8"/>
		<circle class="st3" cx="9" cy="188.5" r="5.5"/>
	</g>
</g>
<g>
	<linearGradient id="SVGID_1_" gradientUnits="userSpaceOnUse" x1="91.1918" y1="128.1471" x2="171.486" y2="128.1471">
		<stop  offset="0" style="stop-color:#2092CE"/>
		<stop  offset="1" style="stop-color:#069FB0"/>
	</linearGradient>
	<circle class="st4" cx="131.3" cy="128.1" r="40.1"/>
	<linearGradient id="SVGID_2_" gradientUnits="userSpaceOnUse" x1="102.2313" y1="128.1471" x2="160.4465" y2="128.1471">
		<stop  offset="0" style="stop-color:#4F5764"/>
		<stop  offset="0.6682" style="stop-color:#293942"/>
		<stop  offset="1" style="stop-color:#111C21"/>
	</linearGradient>
	<circle class="st5" cx="131.3" cy="128.1" r="29.1"/>
	<linearGradient id="SVGID_3_" gradientUnits="userSpaceOnUse" x1="128.8556" y1="192.5691" x2="178.8842" y2="117.5261">
		<stop  offset="0" style="stop-color:#D0D1D3"/>
		<stop  offset="0.8579" style="stop-color:#CDD2D1"/>
		<stop  offset="0.994" style="stop-color:#F2F2F2"/>
	</linearGradient>
	<polygon class="st6" points="170.5,205.4 155.6,211 146,185.6 128.6,196 128.7,117.5 180.8,176.2 160.8,179.8 	"/>
</g>
</svg>
