<?xml version="1.0" encoding="utf-8"?>
<!-- Generator: Adobe Illustrator 17.0.0, SVG Export Plug-In . SVG Version: 6.00 Build 0)  -->
<!DOCTYPE svg PUBLIC "-//W3C//DTD SVG 1.1//EN" "http://www.w3.org/Graphics/SVG/1.1/DTD/svg11.dtd">
<svg version="1.1" id="Layer_1" xmlns="http://www.w3.org/2000/svg" xmlns:xlink="http://www.w3.org/1999/xlink" x="0px" y="0px"
	 width="253px" height="253px" viewBox="-69 -69 253 253" enable-background="new -69 -69 253 253" xml:space="preserve">
<g display="none">
	<g display="inline">
		<g>
			<circle opacity="0.5" fill="#738083" enable-background="new    " cx="57.7" cy="56.771" r="55.881"/>
			<circle fill="#0B5068" stroke="#098CBA" stroke-width="3" stroke-miterlimit="10" cx="57.924" cy="54.738" r="52.832"/>
			<circle fill="#FFFFFF" stroke="#098CBA" stroke-width="2" stroke-miterlimit="10" cx="57.924" cy="54.738" r="34.104"/>
			<g>
				<path fill="#FEFFFF" d="M15.445,56.515l2.652-1.093l-1.507,2.449l1.853,2.187l-2.783-0.676l-1.518,2.439l-0.213-2.867
					l-2.795-0.677l2.662-1.093l-0.214-2.868L15.445,56.515z"/>
				<path fill="#FEFFFF" d="M14.833,49.455c-2.002-0.392-3.058-2.162-2.676-4.115c0.278-1.418,1.207-2.094,2.113-2.391l0.351,1.3
					c-0.578,0.169-1.11,0.67-1.24,1.331c-0.232,1.185,0.504,2.217,1.729,2.457c1.224,0.24,2.295-0.439,2.527-1.624
					c0.13-0.661-0.174-1.325-0.645-1.7l0.805-1.073c0.717,0.614,1.342,1.593,1.064,3.012C18.48,48.605,16.825,49.845,14.833,49.455z
					"/>
				<path fill="#FEFFFF" d="M16.463,41.764c-1.846-0.745-2.624-2.629-1.875-4.485c0.745-1.846,2.612-2.663,4.459-1.918
					c1.846,0.745,2.624,2.629,1.879,4.476C20.176,41.692,18.309,42.509,16.463,41.764z M18.505,36.703
					c-1.148-0.464-2.305-0.086-2.761,1.043c-0.459,1.139,0.111,2.214,1.259,2.677c1.139,0.46,2.304,0.086,2.764-1.053
					C20.224,38.24,19.644,37.163,18.505,36.703z"/>
				<path fill="#FEFFFF" d="M24.843,32.228l-2.679-0.172l-0.555,0.869l1.979,1.266l-0.758,1.186l-5.57-3.563l1.666-2.606
					c0.742-1.161,1.962-1.393,2.997-0.731c0.977,0.625,1.112,1.593,0.869,2.286l2.928,0.095L24.843,32.228z M21.135,29.69
					c-0.459-0.293-0.973-0.116-1.272,0.352l-0.802,1.252l1.504,0.962l0.801-1.252C21.666,30.536,21.611,29.995,21.135,29.69z"/>
				<path fill="#FEFFFF" d="M26.633,29.728l-4.892-4.446l2.08-2.288c0.966-1.064,2.212-0.99,3.07-0.21
					c0.851,0.772,1.037,2.013,0.077,3.069L25.833,27.1l1.746,1.587L26.633,29.728z M25.923,23.846
					c-0.411-0.373-0.947-0.284-1.32,0.126l-1,1.1l1.314,1.194l0.999-1.1C26.29,24.756,26.327,24.214,25.923,23.846z"/>
				<path fill="#FEFFFF" d="M28.92,22.445c-1.207-1.584-0.913-3.6,0.679-4.812c1.583-1.207,3.605-0.955,4.812,0.629
					c1.207,1.583,0.913,3.599-0.67,4.807C32.149,24.28,30.126,24.028,28.92,22.445z M33.262,19.138
					c-0.751-0.986-1.937-1.251-2.906-0.513c-0.977,0.744-1.035,1.959-0.285,2.944c0.744,0.978,1.937,1.251,2.914,0.507
					C33.953,21.337,34.005,20.114,33.262,19.138z"/>
				<path fill="#FEFFFF" d="M40.98,18.522l-2.216-1.513l-0.921,0.463L38.9,19.57l-1.257,0.633L34.668,14.3l2.762-1.392
					c1.23-0.62,2.397-0.199,2.95,0.899c0.522,1.036,0.145,1.937-0.417,2.409l2.469,1.574L40.98,18.522z M39.084,14.45
					c-0.245-0.487-0.778-0.596-1.273-0.345l-1.327,0.669l0.803,1.593l1.327-0.67C39.109,15.447,39.338,14.955,39.084,14.45z"/>
				<path fill="#FEFFFF" d="M48.191,15.948l-0.719-0.954l-2.714,0.811l-0.079,1.191l-1.528,0.457l0.549-7.059l1.69-0.504
					l4.329,5.603L48.191,15.948z M44.947,11.489l-0.173,3.018l1.974-0.589L44.947,11.489z"/>
				<path fill="#FEFFFF" d="M51.679,15.285l-0.733-5.313l-1.912,0.263L48.865,9.01l5.216-0.72l0.169,1.225l-1.902,0.263l0.733,5.313
					L51.679,15.285z"/>
				<path fill="#FEFFFF" d="M56.364,14.777l0.114-6.606l4.675,0.081L61.131,9.49l-3.268-0.057l-0.024,1.387l3.199,0.055
					l-0.021,1.238l-3.199-0.055l-0.026,1.505l3.269,0.057l-0.021,1.238L56.364,14.777z"/>
				<path fill="#FEFFFF" d="M65.522,14.503l1.024-0.869c0.328,0.586,0.924,1.171,1.806,1.399c0.758,0.197,1.2-0.047,1.296-0.421
					c0.289-1.112-3.594-1.291-2.969-3.697c0.276-1.065,1.425-1.708,2.931-1.317c1.017,0.264,1.78,0.789,2.261,1.538l-1.021,0.82
					c-0.393-0.614-1.027-1.013-1.678-1.183c-0.575-0.149-0.966,0.015-1.065,0.4c-0.261,1.006,3.587,1.278,2.968,3.666
					c-0.304,1.17-1.376,1.833-3.092,1.387C66.744,15.905,65.97,15.265,65.522,14.503z"/>
				<path fill="#FEFFFF" d="M73.006,14.821l1.656-3.6l1.296,0.596l-1.638,3.565c-0.386,0.837-0.164,1.637,0.763,2.063
					s1.669,0.069,2.054-0.768l1.638-3.565l1.305,0.601l-1.655,3.6c-0.683,1.485-2.037,2.105-3.864,1.265
					C72.733,17.738,72.322,16.307,73.006,14.821z"/>
				<path fill="#FEFFFF" d="M78.793,20.625l3.796-5.408l2.53,1.775c1.176,0.825,1.259,2.07,0.593,3.019
					c-0.66,0.94-1.867,1.28-3.034,0.459L81.3,19.503l-1.354,1.93L78.793,20.625z M84.536,19.184c0.318-0.454,0.163-0.974-0.29-1.292
					l-1.217-0.854L82.01,18.49l1.217,0.853C83.681,19.662,84.223,19.631,84.536,19.184z"/>
				<path fill="#FEFFFF" d="M84.171,24.582l4.639-4.707l2.202,2.17c1.023,1.008,0.899,2.249,0.085,3.075
					c-0.807,0.819-2.053,0.954-3.069-0.047l-1.201-1.182l-1.655,1.679L84.171,24.582z M90.074,24.111
					c0.39-0.395,0.322-0.934-0.074-1.324l-1.058-1.043l-1.245,1.263l1.059,1.044C89.152,24.441,89.691,24.5,90.074,24.111z"/>
				<path fill="#FEFFFF" d="M91.336,27.136c1.63-1.143,3.634-0.771,4.784,0.867c1.144,1.629,0.813,3.641-0.817,4.785
					c-1.63,1.144-3.634,0.771-4.778-0.858C89.376,30.292,89.707,28.28,91.336,27.136z M94.471,31.604
					c1.014-0.712,1.327-1.887,0.626-2.884c-0.706-1.006-1.918-1.112-2.931-0.4c-1.005,0.706-1.326,1.887-0.62,2.893
					C92.246,32.21,93.467,32.31,94.471,31.604z"/>
				<path fill="#FEFFFF" d="M94.777,39.364l1.602-2.152l-0.426-0.938l-2.137,0.97l-0.582-1.281l6.017-2.729l1.277,2.814
					c0.568,1.253,0.1,2.402-1.018,2.91c-1.056,0.479-1.94,0.063-2.388-0.516l-1.674,2.4L94.777,39.364z M98.921,37.636
					c0.496-0.225,0.627-0.751,0.398-1.257l-0.614-1.352l-1.624,0.736l0.613,1.353C97.924,37.621,98.407,37.871,98.921,37.636z"/>
				<path fill="#FEFFFF" d="M96.27,43.646l5.186-1.4l-0.504-1.866l1.195-0.323l1.375,5.09l-1.196,0.323l-0.501-1.856l-5.186,1.4
					L96.27,43.646z"/>
				<path fill="#FEFFFF" d="M100.324,55.828l-2.717,0.916l1.664-2.343l-1.706-2.304l2.733,0.858l1.674-2.334l0.026,2.874
					l2.742,0.858l-2.726,0.915l0.025,2.874L100.324,55.828z"/>
			</g>
			<circle fill="#095069" cx="57.924" cy="54.738" r="30.677"/>
		</g>
		<g opacity="0.4" enable-background="new    ">
			<g>
				<defs>
					<circle id="SVGID_1_" cx="57.924" cy="54.396" r="30.677"/>
				</defs>
				<clipPath id="SVGID_2_">
					<use xlink:href="#SVGID_1_"  overflow="visible"/>
				</clipPath>
				<g clip-path="url(#SVGID_2_)">
					
						<ellipse transform="matrix(0.5568 -0.8307 0.8307 0.5568 -104.13 58.7706)" fill="#E9F7FE" cx="3.007" cy="126.962" rx="71.178" ry="63.471"/>
					
						<ellipse transform="matrix(0.5568 -0.8307 0.8307 0.5568 -104.6349 63.7906)" fill="#CBE6F1" cx="7.459" cy="129.945" rx="71.178" ry="63.471"/>
					
						<ellipse transform="matrix(0.5568 -0.8307 0.8307 0.5568 -105.4044 71.4245)" fill="#A0D2E7" cx="14.227" cy="134.483" rx="71.178" ry="63.471"/>
					
						<ellipse transform="matrix(0.5568 -0.8307 0.8307 0.5568 -106.2985 80.3082)" fill="#098DBA" cx="22.105" cy="139.763" rx="71.178" ry="63.471"/>
				</g>
			</g>
		</g>
		<path fill="#098DBA" d="M63.119,97.015c0.314-0.37,0.472-0.796,0.472-1.282c0-0.582-0.231-1.081-0.692-1.498
			c-0.461-0.418-1.018-0.629-1.672-0.629h-8.895c-0.295,0.066-0.517,0.324-0.522,0.638v1.495h9.375l-7.722,2.207
			c-0.478,0.146-0.873,0.405-1.185,0.778c-0.313,0.374-0.468,0.796-0.468,1.274c0,0.599,0.231,1.11,0.691,1.53
			c0.46,0.422,1.019,0.632,1.673,0.632h8.838c0.307-0.037,0.548-0.281,0.579-0.592v-1.566h-9.416l7.733-2.217
			C62.402,97.642,62.805,97.383,63.119,97.015z"/>
	</g>
	<g display="inline">
		<circle fill="#FFFFFF" stroke="#098CBA" stroke-miterlimit="10" cx="58.393" cy="56.829" r="13.115"/>
		<ellipse fill="#098DBA" cx="62.218" cy="64.495" rx="2.732" ry="1.476"/>
		<g>
			<g>
				<defs>
					<rect id="SVGID_3_" x="37.081" y="50.104" width="6.843" height="19.84"/>
				</defs>
				<clipPath id="SVGID_4_">
					<use xlink:href="#SVGID_3_"  overflow="visible"/>
				</clipPath>
				<circle clip-path="url(#SVGID_4_)" fill="#098DBA" cx="43.912" cy="56.954" r="4.645"/>
			</g>
		</g>
		<g>
			<g>
				<defs>
					<rect id="SVGID_5_" x="73.29" y="43.482" width="6.843" height="19.84"/>
				</defs>
				<clipPath id="SVGID_6_">
					<use xlink:href="#SVGID_5_"  overflow="visible"/>
				</clipPath>
				<circle clip-path="url(#SVGID_6_)" fill="#098DBA" cx="73.302" cy="56.472" r="4.645"/>
			</g>
		</g>
		<path fill="none" stroke="#098CBA" stroke-miterlimit="10" d="M62.218,64.332c0,0,7.495,1.029,9.29,0s3.825-5.802,3.825-5.802"/>
		<g>
			<g>
				<defs>
					<rect id="SVGID_7_" x="35.715" y="38.848" width="44.418" height="20.626"/>
				</defs>
				<clipPath id="SVGID_8_">
					<use xlink:href="#SVGID_7_"  overflow="visible"/>
				</clipPath>
				<path clip-path="url(#SVGID_8_)" fill="none" stroke="#098CBA" stroke-miterlimit="10" d="M74.795,60.103
					c0,7.243-5.872,13.115-13.115,13.115h-5.747c-7.243,0-13.115-5.872-13.115-13.115v-5.747c0-7.243,5.872-13.115,13.115-13.115
					h5.747c7.243,0,13.115,5.872,13.115,13.115V60.103z"/>
			</g>
		</g>
		<g>
			<path fill="#098DBA" d="M52.262,56.488c0-0.465,0.391-0.856,0.856-0.856s0.856,0.391,0.856,0.856s-0.391,0.856-0.856,0.856
				S52.262,56.954,52.262,56.488z"/>
			<path fill="#098DBA" d="M62.8,56.488c0-0.465,0.391-0.856,0.856-0.856c0.465,0,0.856,0.391,0.856,0.856s-0.391,0.856-0.856,0.856
				S62.8,56.954,62.8,56.488z"/>
		</g>
	</g>
	<g display="inline">
		<circle opacity="0.1" fill="#FFFFFF" enable-background="new    " cx="49.503" cy="33.972" r="3.184"/>
		<circle fill="#FFFFFF" cx="49.503" cy="33.972" r="0.598"/>
	</g>
	<g display="inline">
		<circle opacity="0.1" fill="#FFFFFF" enable-background="new    " cx="40.84" cy="43.888" r="2.172"/>
		<circle fill="#FFFFFF" cx="40.76" cy="43.808" r="0.598"/>
	</g>
	<g display="inline">
		<circle opacity="0.1" fill="#FFFFFF" enable-background="new    " cx="71.441" cy="74.49" r="2.172"/>
		<circle fill="#FFFFFF" cx="71.361" cy="74.409" r="0.598"/>
	</g>
	<g display="inline">
		<circle opacity="0.1" fill="#FFFFFF" enable-background="new    " cx="57.407" cy="36.411" r="1.715"/>
		<circle fill="#FFFFFF" cx="57.343" cy="36.348" r="0.472"/>
	</g>
</g>
<g display="none">
	<g display="inline">
		<g>
			<circle opacity="0.5" fill="#738083" enable-background="new    " cx="57.7" cy="56.771" r="55.881"/>
			<circle fill="#0B5068" stroke="#098CBA" stroke-width="3" stroke-miterlimit="10" cx="57.924" cy="54.738" r="52.832"/>
			<circle fill="#FFFFFF" stroke="#098CBA" stroke-width="2" stroke-miterlimit="10" cx="57.924" cy="54.738" r="34.104"/>
			<g>
				<path fill="#FEFFFF" d="M21.782,32.381l2.805,0.584l-2.619,1.179l0.305,2.848l-1.921-2.121l-2.623,1.164l1.431-2.489
					l-1.931-2.125l2.814,0.589l1.43-2.489L21.782,32.381z"/>
				<path fill="#FEFFFF" d="M25.235,26.216c-1.44-1.447-1.321-3.506,0.09-4.911c1.027-1.02,2.175-1.06,3.093-0.797l-0.439,1.273
					c-0.574-0.184-1.296-0.067-1.773,0.408c-0.858,0.853-0.826,2.121,0.053,3.005c0.882,0.885,2.148,0.924,3.005,0.072
					c0.477-0.475,0.599-1.196,0.418-1.772l1.27-0.437c0.249,0.911,0.218,2.074-0.808,3.094
					C28.734,27.556,26.668,27.656,25.235,26.216z"/>
				<path fill="#FEFFFF" d="M30.899,20.771c-1.11-1.653-0.697-3.649,0.965-4.764c1.652-1.11,3.655-0.739,4.766,0.915
					c1.111,1.653,0.697,3.649-0.955,4.758C34.014,22.797,32.009,22.424,30.899,20.771z M35.431,17.728
					c-0.692-1.028-1.86-1.364-2.871-0.685c-1.02,0.685-1.151,1.894-0.46,2.922c0.684,1.02,1.859,1.365,2.878,0.679
					C35.99,19.965,36.115,18.748,35.431,17.728z"/>
				<path fill="#FEFFFF" d="M43.967,17.258l-4.569-2.764l1.661,3.979l-1.298,0.542l-2.548-6.1l1.334-0.558l4.426,2.652l-1.599-3.831
					l1.298-0.542l2.547,6.099L43.967,17.258z"/>
				<path fill="#FEFFFF" d="M46.243,15.462l0.515-1.241c0.559,0.373,1.355,0.623,2.246,0.425c0.763-0.17,1.045-0.588,0.962-0.965
					c-0.249-1.12-3.787,0.486-4.325-1.94c-0.239-1.074,0.491-2.169,2.009-2.505c1.026-0.227,1.945-0.107,2.713,0.341l-0.536,1.194
					c-0.63-0.367-1.375-0.435-2.031-0.289c-0.581,0.129-0.854,0.453-0.767,0.84c0.224,1.014,3.774-0.494,4.309,1.914
					c0.261,1.179-0.392,2.257-2.122,2.642C47.968,16.154,46.986,15.936,46.243,15.462z"/>
				<path fill="#FEFFFF" d="M53.047,12.331L52.874,8.37l1.427-0.062l0.171,3.922c0.039,0.921,0.602,1.532,1.621,1.487
					c1.021-0.044,1.518-0.701,1.478-1.622L57.4,8.173l1.437-0.062l0.172,3.961c0.07,1.633-0.851,2.805-2.861,2.892
					C54.137,15.052,53.117,13.965,53.047,12.331z"/>
				<path fill="#FEFFFF" d="M60.809,14.871l0.806-6.561l1.407,0.172l-0.654,5.332l2.774,0.34l-0.15,1.23L60.809,14.871z"/>
				<path fill="#FEFFFF" d="M66.969,15.849l1.311-5.209l-1.874-0.472l0.302-1.201l5.113,1.286l-0.302,1.202l-1.865-0.469
					l-1.311,5.21L66.969,15.849z"/>
				<path fill="#FEFFFF" d="M71.544,17.206l2.363-6.177l1.315,0.503l-2.364,6.176L71.544,17.206z"/>
				<path fill="#FEFFFF" d="M78.545,20.528l-0.677-5.292l-2.08,3.772l-1.231-0.679l3.189-5.783l1.266,0.699l0.676,5.11l2.002-3.633
					l1.233,0.679l-3.19,5.783L78.545,20.528z"/>
				<path fill="#FEFFFF" d="M83.034,19.427c1.335-1.606,3.401-1.613,4.893-0.373c1.05,0.873,1.27,1.958,1.151,2.875l-1.296-0.253
					c0.062-0.553-0.12-1.219-0.652-1.662c-0.93-0.773-2.188-0.621-2.985,0.338s-0.716,2.224,0.212,2.997
					c0.449,0.374,1.033,0.524,1.397,0.504l0.506-0.61l-1.341-1.113l0.786-0.945l2.421,2.014l-1.62,1.948
					c-0.999,0.148-2.032-0.08-2.946-0.84C82.068,23.066,81.705,21.026,83.034,19.427z"/>
				<path fill="#FEFFFF" d="M93.601,31.801l-1.73,2.288l0.054-2.875l-2.707-0.944l2.742-0.83l0.069-2.872l1.64,2.361l2.75-0.836
					l-1.739,2.294l1.64,2.361L93.601,31.801z"/>
			</g>
			<circle fill="#095069" cx="57.924" cy="54.738" r="30.677"/>
		</g>
		<g opacity="0.4" enable-background="new    ">
			<g>
				<defs>
					<circle id="SVGID_9_" cx="57.924" cy="54.396" r="30.677"/>
				</defs>
				<clipPath id="SVGID_10_">
					<use xlink:href="#SVGID_9_"  overflow="visible"/>
				</clipPath>
				<g clip-path="url(#SVGID_10_)">
					
						<ellipse transform="matrix(0.8391 -0.5439 0.5439 0.8391 -18.7548 49.9907)" fill="#E9F7FE" cx="75.138" cy="56.703" rx="34.401" ry="30.676"/>
					
						<ellipse transform="matrix(0.8391 -0.5439 0.5439 0.8391 -19.7101 51.1069)" fill="#CBE6F1" cx="76.547" cy="58.876" rx="34.401" ry="30.676"/>
					
						<ellipse transform="matrix(0.8391 -0.5439 0.5439 0.8391 -21.1632 52.8042)" fill="#A0D2E7" cx="78.69" cy="62.181" rx="34.401" ry="30.676"/>
					
						<ellipse transform="matrix(0.8391 -0.5439 0.5439 0.8391 -22.854 54.7788)" fill="#098DBA" cx="81.183" cy="66.027" rx="34.401" ry="30.676"/>
				</g>
			</g>
		</g>
		<g>
			<g>
				<path fill="#FFFFFF" d="M38.689,52.692c-0.55,0-1,0.45-1,1v14.793c0,0.55,0.45,1,1,1h5.779c0.55,0,1.318,0.318,1.707,0.707
					l2.478,2.478c0.389,0.389,1.025,0.389,1.414,0l2.478-2.478c0.389-0.389,1.157-0.707,1.707-0.707h5.779c0.55,0,1-0.45,1-1V53.692
					c0-0.55-0.45-1-1-1H38.689z"/>
				<path fill="none" stroke="#098CBA" stroke-miterlimit="10" d="M38.689,52.692c-0.55,0-1,0.45-1,1v14.793c0,0.55,0.45,1,1,1
					h5.779c0.55,0,1.318,0.318,1.707,0.707l2.478,2.478c0.389,0.389,1.025,0.389,1.414,0l2.478-2.478
					c0.389-0.389,1.157-0.707,1.707-0.707h5.779c0.55,0,1-0.45,1-1V53.692c0-0.55-0.45-1-1-1H38.689z"/>
			</g>
			<g>
				<path fill="#098DBA" d="M48.48,61.448c0-1.248,1.555-1.395,1.555-2.125c0-0.328-0.254-0.603-0.836-0.603
					c-0.528,0-0.972,0.254-1.3,0.656l-0.857-0.962c0.56-0.666,1.407-1.026,2.316-1.026c1.364,0,2.199,0.687,2.199,1.67
					c0,1.544-1.765,1.66-1.765,2.548c0,0.169,0.084,0.349,0.201,0.444l-1.163,0.338C48.607,62.146,48.48,61.818,48.48,61.448z
					 M48.48,63.806c0-0.465,0.392-0.856,0.857-0.856s0.856,0.391,0.856,0.856c0,0.465-0.391,0.856-0.856,0.856
					S48.48,64.271,48.48,63.806z"/>
			</g>
			<g>
				<path fill="#FFFFFF" d="M55.146,40.164c-0.55,0-1,0.45-1,1v14.793c0,0.55,0.45,1,1,1h5.779c0.55,0,1.318,0.318,1.707,0.707
					l2.478,2.478c0.389,0.389,1.025,0.389,1.414,0l2.478-2.478c0.389-0.389,1.157-0.707,1.707-0.707h5.779c0.55,0,1-0.45,1-1V41.164
					c0-0.55-0.45-1-1-1H55.146z"/>
				<path fill="none" stroke="#098CBA" stroke-miterlimit="10" d="M55.146,40.164c-0.55,0-1,0.45-1,1v14.793c0,0.55,0.45,1,1,1
					h5.779c0.55,0,1.318,0.318,1.707,0.707l2.478,2.478c0.389,0.389,1.025,0.389,1.414,0l2.478-2.478
					c0.389-0.389,1.157-0.707,1.707-0.707h5.779c0.55,0,1-0.45,1-1V41.164c0-0.55-0.45-1-1-1H55.146z"/>
			</g>
			<g>
				<path fill="#098DBA" d="M61.442,49.766c0-0.465,0.391-0.856,0.856-0.856s0.856,0.391,0.856,0.856s-0.391,0.856-0.856,0.856
					S61.442,50.231,61.442,49.766z"/>
				<path fill="#098DBA" d="M64.954,49.766c0-0.465,0.391-0.856,0.856-0.856c0.465,0,0.856,0.391,0.856,0.856
					s-0.391,0.856-0.856,0.856C65.345,50.622,64.954,50.231,64.954,49.766z"/>
				<path fill="#098DBA" d="M68.467,49.766c0-0.465,0.391-0.856,0.856-0.856c0.465,0,0.856,0.391,0.856,0.856
					s-0.391,0.856-0.856,0.856C68.857,50.622,68.467,50.231,68.467,49.766z"/>
			</g>
		</g>
		<path fill="#098DBA" d="M63.119,97.015c0.314-0.37,0.472-0.796,0.472-1.282c0-0.582-0.231-1.081-0.692-1.498
			c-0.461-0.418-1.018-0.629-1.672-0.629h-8.895c-0.295,0.066-0.517,0.324-0.522,0.638v1.495h9.375l-7.722,2.207
			c-0.478,0.146-0.873,0.405-1.185,0.778c-0.313,0.374-0.468,0.796-0.468,1.274c0,0.599,0.231,1.11,0.691,1.53
			c0.46,0.422,1.019,0.632,1.673,0.632h8.838c0.307-0.037,0.548-0.281,0.579-0.592v-1.566h-9.416l7.733-2.217
			C62.402,97.642,62.805,97.383,63.119,97.015z"/>
	</g>
	<g display="inline">
		<circle opacity="0.1" fill="#FFFFFF" enable-background="new    " cx="41.501" cy="38.086" r="2.172"/>
		<circle fill="#FFFFFF" cx="41.421" cy="38.006" r="0.598"/>
	</g>
	<g display="inline">
		<circle opacity="0.1" fill="#FFFFFF" enable-background="new    " cx="37.462" cy="46.497" r="1.251"/>
		<circle fill="#FFFFFF" cx="37.415" cy="46.451" r="0.344"/>
	</g>
</g>
<g>
	<g>
		<g>
			<circle opacity="0.5" fill="#738083" enable-background="new    " cx="57.7" cy="56.771" r="125.881"/>
			<circle fill="#0B5068" stroke="#098CBA" stroke-width="3" stroke-miterlimit="10" cx="58.205" cy="52.191" r="119.013"/>
			<circle fill="#FFFFFF" stroke="#098CBA" stroke-width="2" stroke-miterlimit="10" cx="58.205" cy="52.191" r="76.825"/>
			<g>
				<path fill="#FEFFFF" d="M-37.561,52.329l6.066-2.214l-3.613,5.37l3.969,5.091l-6.202-1.78l-3.638,5.35l-0.219-6.47l-6.224-1.775
					l6.087-2.219l-0.219-6.465L-37.561,52.329z"/>
				<path fill="#FEFFFF" d="M-30.866,37.385l-14.5-3.332l1.559-6.783c0.725-3.154,3.251-4.381,5.794-3.796
					c2.523,0.579,4.251,2.807,3.532,5.938l-0.849,3.697l5.174,1.189L-30.866,37.385z M-38.739,26.624
					c-1.219-0.279-2.172,0.487-2.453,1.703l-0.748,3.262l3.893,0.894l0.748-3.262C-37.018,28.007-37.543,26.901-38.739,26.624z"/>
				<path fill="#FEFFFF" d="M-23.959,15.079l-6.01,0.662l-0.892,2.147l4.884,2.034l-1.219,2.926l-13.746-5.726l2.678-6.431
					c1.194-2.863,3.809-3.854,6.364-2.791c2.41,1.005,3.084,3.1,2.816,4.728l6.533-0.933L-23.959,15.079z M-33.175,10.898
					c-1.133-0.471-2.203,0.122-2.685,1.277l-1.289,3.091l3.71,1.545l1.289-3.091C-31.668,12.565-32.001,11.387-33.175,10.898z"/>
				<path fill="#FEFFFF" d="M-27.685,5.322c-3.748-2.46-4.634-6.963-2.163-10.732c2.462-3.746,6.945-4.728,10.696-2.266
					c3.748,2.46,4.634,6.965,2.174,10.714C-19.451,6.805-23.936,7.785-27.685,5.322z M-20.94-4.954
					c-2.332-1.53-5.05-1.207-6.557,1.086c-1.518,2.313-0.732,4.938,1.597,6.467c2.313,1.518,5.053,1.207,6.571-1.104
					C-17.823-0.8-18.627-3.436-20.94-4.954z"/>
				<path fill="#FEFFFF" d="M-8.699-8.121l-8.824-8.265l-2.971,3.174l-2.034-1.906l8.114-8.661l2.034,1.906l-2.958,3.158
					l8.821,8.265L-8.699-8.121z"/>
				<path fill="#FEFFFF" d="M-6.794-20.86c-2.708-3.577-2.03-8.119,1.566-10.84c3.577-2.708,8.134-2.122,10.84,1.455
					c2.705,3.579,2.027,8.121-1.548,10.829C0.469-16.697-4.086-17.281-6.794-20.86z M3.014-28.278
					c-1.683-2.223-4.354-2.834-6.546-1.18c-2.205,1.671-2.347,4.408-0.665,6.634c1.669,2.208,4.354,2.834,6.562,1.165
					C4.555-23.318,4.684-26.073,3.014-28.278z"/>
				<path fill="#FEFFFF" d="M15.589-27.125L10.067-37.89l-3.872,1.987l-1.273-2.482l10.565-5.42l1.273,2.485l-3.854,1.976
					l5.521,10.763L15.589-27.125z"/>
				<path fill="#FEFFFF" d="M29.071-32.975l-1.852-5.803l-8.114-6.639l3.442-1.099l5.319,4.555l1.694-6.794l3.422-1.093
					l-2.748,10.103l1.854,5.803L29.071-32.975z"/>
				<path fill="#FEFFFF" d="M39.863-36.068L37.759-50.8l6.891-0.984c3.203-0.457,5.258,1.46,5.625,4.044
					c0.365,2.561-1.093,4.981-4.273,5.433l-3.755,0.534l0.752,5.258L39.863-36.068z M47.074-47.284
					c-0.178-1.237-1.234-1.852-2.471-1.676l-3.314,0.473l0.563,3.956l3.314-0.473C46.405-45.182,47.248-46.07,47.074-47.284z"/>
				<path fill="#FEFFFF" d="M54.823-37.834l0.293-14.879l10.529,0.205l-0.052,2.791l-7.364-0.146l-0.061,3.124l7.206,0.14
					l-0.056,2.789l-7.206-0.142l-0.065,3.39l7.362,0.144l-0.052,2.791L54.823-37.834z"/>
				<path fill="#FEFFFF" d="M85.658-33.513l1.678-6.037l-6.767-1.881l-1.678,6.037l-3.05-0.849l3.987-14.329l3.048,0.847
					l-1.563,5.632l6.767,1.883l1.563-5.632l3.073,0.856l-3.983,14.329L85.658-33.513z"/>
				<path fill="#FEFFFF" d="M95.036-38.264c2.016-4.001,6.391-5.393,10.412-3.368c4.005,2.016,5.487,6.362,3.471,10.364
					c-2.016,4.005-6.391,5.395-10.394,3.379C94.502-29.916,93.019-34.259,95.036-38.264z M106.011-32.732
					c1.255-2.491,0.624-5.156-1.827-6.389c-2.469-1.246-4.987-0.167-6.24,2.325c-1.246,2.471-0.626,5.154,1.845,6.398
					C102.24-29.164,104.765-30.263,106.011-32.732z"/>
				<path fill="#FEFFFF" d="M108.68-24.992l2.883-0.926c0.176,1.507,0.91,3.237,2.548,4.478c1.406,1.063,2.536,0.939,3.061,0.246
					c1.561-2.066-6.364-5.798-2.983-10.268c1.496-1.976,4.445-2.318,7.24-0.203c1.885,1.426,3.023,3.183,3.374,5.156l-2.834,0.824
					c-0.288-1.62-1.261-2.998-2.469-3.913c-1.07-0.811-2.025-0.806-2.564-0.092c-1.415,1.867,6.359,5.765,3.005,10.198
					c-1.642,2.172-4.451,2.622-7.637,0.212C110.014-21.016,108.955-23.023,108.68-24.992z"/>
				<path fill="#FEFFFF" d="M121.667-11.455l8.576-8.531l-3.068-3.084l1.978-1.967l8.371,8.418l-1.976,1.967l-3.052-3.07
					l-8.578,8.529L121.667-11.455z"/>
				<path fill="#FEFFFF" d="M128.848-3.416l11.838-9.017l1.919,2.521l-11.838,9.017L128.848-3.416z"/>
				<path fill="#FEFFFF" d="M138.363,11.319l4.983-10.943l-8.459,4.76l-1.554-2.762l12.975-7.296l1.597,2.841L143.132,8.51
					l8.152-4.584l1.552,2.764l-12.973,7.296L138.363,11.319z"/>
				<path fill="#FEFFFF" d="M148.248,14.52c4.463-1.491,8.427,0.951,9.81,5.098c0.971,2.917,0.104,5.251-1.214,6.866l-2.178-2.023
					c0.775-0.987,1.221-2.476,0.728-3.956c-0.863-2.582-3.451-3.789-6.116-2.899c-2.665,0.888-4.012,3.406-3.151,5.985
					c0.417,1.248,1.354,2.23,2.075,2.624l1.692-0.565l-1.241-3.721l2.622-0.874l2.244,6.726l-5.415,1.807
					c-2.088-0.906-3.793-2.568-4.64-5.107C142.078,20.336,143.806,16.002,148.248,14.52z"/>
				<path fill="#FEFFFF" d="M153.726,50.702l-6.028,2.311l3.53-5.424l-4.048-5.028l6.226,1.678l3.552-5.404l0.32,6.463l6.249,1.68
					l-6.051,2.309l0.318,6.465L153.726,50.702z"/>
			</g>
			<circle fill="#095069" cx="58.205" cy="52.191" r="69.105"/>
		</g>
		<g opacity="0.4" enable-background="new    ">
			<g>
				<defs>
					<circle id="SVGID_11_" cx="58.205" cy="51.421" r="69.105"/>
				</defs>
				<clipPath id="SVGID_12_">
					<use xlink:href="#SVGID_11_"  overflow="visible"/>
				</clipPath>
				<g clip-path="url(#SVGID_12_)">
					
						<ellipse transform="matrix(0.5568 -0.8307 0.8307 0.5568 80.9659 89.915)" fill="#E9F7FE" cx="124.739" cy="-30.913" rx="97.858" ry="87.261"/>
					
						<ellipse transform="matrix(0.5568 -0.8307 0.8307 0.5568 80.2708 96.8176)" fill="#CBE6F1" cx="130.86" cy="-26.81" rx="97.858" ry="87.261"/>
					
						<ellipse transform="matrix(0.5568 -0.8307 0.8307 0.5568 79.2142 107.3127)" fill="#A0D2E7" cx="140.166" cy="-20.573" rx="97.858" ry="87.261"/>
					
						<ellipse transform="matrix(0.5568 -0.8307 0.8307 0.5568 77.9844 119.5273)" fill="#098DBA" cx="150.997" cy="-13.313" rx="97.858" ry="87.261"/>
				</g>
			</g>
		</g>
		<path fill="#098DBA" d="M69.907,147.427c0.707-0.833,1.063-1.793,1.063-2.888c0-1.311-0.52-2.435-1.559-3.374
			c-1.038-0.942-2.293-1.417-3.766-1.417H45.608c-0.665,0.149-1.165,0.73-1.176,1.437v3.368h21.119l-17.395,4.972
			c-1.077,0.329-1.967,0.912-2.669,1.753c-0.705,0.842-1.054,1.793-1.054,2.87c0,1.349,0.52,2.5,1.557,3.447
			c1.036,0.951,2.295,1.424,3.769,1.424h19.909c0.692-0.083,1.234-0.633,1.304-1.334v-3.528H49.759l17.42-4.994
			C68.292,148.84,69.2,148.256,69.907,147.427z"/>
	</g>
	<g>
		<circle opacity="0.1" fill="#FFFFFF" enable-background="new    " cx="4.767" cy="41.581" r="7.172"/>
		<circle fill="#FFFFFF" cx="4.767" cy="41.581" r="1.347"/>
	</g>
	<g>
		<circle opacity="0.1" fill="#FFFFFF" enable-background="new    " cx="19.72" cy="26.991" r="4.893"/>
		<circle fill="#FFFFFF" cx="19.54" cy="26.808" r="1.347"/>
	</g>
	<g>
		<circle opacity="0.1" fill="#FFFFFF" enable-background="new    " cx="68.959" cy="91" r="4.893"/>
		<circle fill="#FFFFFF" cx="68.779" cy="90.82" r="1.347"/>
	</g>
	<g>
		<circle opacity="0.1" fill="#FFFFFF" enable-background="new    " cx="59.5" cy="106.163" r="3.863"/>
		<circle fill="#FFFFFF" cx="59.358" cy="106.019" r="1.063"/>
	</g>
	<g>
		<g>
			<g>
				<g>
					<defs>
						<rect id="SVGID_13_" x="4.506" y="12.524" width="108.596" height="61.525"/>
					</defs>
					<clipPath id="SVGID_14_">
						<use xlink:href="#SVGID_13_"  overflow="visible"/>
					</clipPath>
					<g clip-path="url(#SVGID_14_)">
						
							<ellipse fill="#FFFFFF" stroke="#098CBA" stroke-width="1.5" stroke-miterlimit="10" cx="27.035" cy="67.976" rx="14.084" ry="15.401"/>
						
							<ellipse fill="#FFFFFF" stroke="#098CBA" stroke-width="1.5" stroke-miterlimit="10" cx="63.992" cy="53.415" rx="33.186" ry="36.29"/>
						
							<ellipse fill="#FFFFFF" stroke="#098CBA" stroke-width="1.5" stroke-miterlimit="10" cx="97.038" cy="69.787" rx="8.975" ry="9.813"/>
						
							<ellipse fill="#FFFFFF" stroke="#098CBA" stroke-width="1.5" stroke-miterlimit="10" cx="30.805" cy="53.946" rx="8.887" ry="9.718"/>
					</g>
				</g>
			</g>
			<line fill="none" stroke="#098CBA" stroke-width="2" stroke-miterlimit="10" x1="11.23" y1="75.905" x2="108.272" y2="75.905"/>
		</g>
		<g>
			<g>
				<defs>
					<rect id="SVGID_15_" x="6.067" y="16.038" width="105.188" height="59.594"/>
				</defs>
				<clipPath id="SVGID_16_">
					<use xlink:href="#SVGID_15_"  overflow="visible"/>
				</clipPath>
				<g clip-path="url(#SVGID_16_)">
					<ellipse fill="#FFFFFF" cx="27.888" cy="69.751" rx="13.64" ry="14.917"/>
					<ellipse fill="#FFFFFF" cx="63.683" cy="55.647" rx="32.145" ry="35.153"/>
					<ellipse fill="#FFFFFF" cx="95.693" cy="71.503" rx="8.693" ry="9.506"/>
					<ellipse fill="#FFFFFF" cx="31.54" cy="56.161" rx="8.607" ry="9.412"/>
				</g>
			</g>
		</g>
		<g>
			<rect x="46.108" y="61.405" fill="#A0D2E7" width="9.72" height="9.078"/>
			<rect x="58.844" y="61.405" fill="#A0D2E7" width="9.72" height="9.078"/>
			<rect x="71.34" y="61.405" fill="#A0D2E7" width="9.72" height="9.078"/>
			<rect x="46.108" y="43.158" fill="#A0D2E7" width="34.952" height="15.336"/>
			<rect x="46.229" y="35.959" fill="#A0D2E7" width="9.599" height="4.546"/>
			<rect x="58.844" y="35.959" fill="#A0D2E7" width="22.216" height="4.546"/>
		</g>
	</g>
	<g>
		<circle opacity="0.1" fill="#FFFFFF" enable-background="new    " cx="44.729" cy="101.239" r="3.863"/>
		<circle fill="#FFFFFF" cx="44.587" cy="101.094" r="1.063"/>
	</g>
</g>
<g display="none">
	<g display="inline">
		<g>
			<circle opacity="0.5" fill="#738083" enable-background="new    " cx="57.7" cy="56.771" r="55.881"/>
			<circle fill="#0B5068" stroke="#098CBA" stroke-width="3" stroke-miterlimit="10" cx="57.924" cy="54.738" r="52.832"/>
			<circle fill="#FFFFFF" stroke="#098CBA" stroke-width="2" stroke-miterlimit="10" cx="57.924" cy="54.738" r="34.104"/>
			<g>
				<path fill="#FEFFFF" d="M15.484,57.249l2.631-1.137l-1.464,2.473l1.888,2.155l-2.794-0.63l-1.475,2.464l-0.263-2.861
					l-2.803-0.629l2.642-1.137l-0.261-2.861L15.484,57.249z"/>
				<path fill="#FEFFFF" d="M14.744,50.233c-2.01-0.355-3.099-2.108-2.753-4.068c0.252-1.424,1.169-2.117,2.069-2.431l0.376,1.294
					c-0.575,0.18-1.099,0.691-1.216,1.354c-0.21,1.191,0.545,2.21,1.774,2.426c1.23,0.217,2.288-0.481,2.499-1.671
					c0.117-0.663-0.199-1.322-0.677-1.689l0.786-1.088c0.728,0.601,1.373,1.571,1.12,2.995
					C18.376,49.315,16.743,50.586,14.744,50.233z"/>
				<path fill="#FEFFFF" d="M16.239,42.489c-1.861-0.711-2.674-2.583-1.958-4.453c0.712-1.861,2.566-2.713,4.428-2.001
					c1.861,0.712,2.673,2.583,1.961,4.445C19.954,42.35,18.1,43.202,16.239,42.489z M18.191,37.388
					c-1.157-0.443-2.308-0.045-2.743,1.095c-0.44,1.148,0.151,2.212,1.308,2.655c1.149,0.44,2.308,0.045,2.747-1.103
					C19.939,38.895,19.339,37.827,18.191,37.388z"/>
				<path fill="#FEFFFF" d="M24.447,32.823l-2.68-0.125l-0.54,0.877l2,1.231l-0.737,1.197l-5.627-3.461l1.619-2.633
					c0.722-1.172,1.936-1.426,2.982-0.782c0.987,0.607,1.138,1.573,0.908,2.268l2.927,0.044L24.447,32.823z M20.698,30.354
					c-0.464-0.285-0.974-0.099-1.265,0.374l-0.779,1.265l1.518,0.934l0.779-1.265C21.242,31.189,21.178,30.65,20.698,30.354z"/>
				<path fill="#FEFFFF" d="M26.216,30.252l-4.964-4.36l2.04-2.322c0.948-1.079,2.194-1.027,3.065-0.261
					c0.863,0.758,1.07,1.995,0.128,3.066l-1.112,1.266l1.772,1.556L26.216,30.252z M25.409,24.387
					c-0.417-0.366-0.951-0.268-1.318,0.149l-0.981,1.116l1.333,1.171l0.981-1.116C25.791,25.289,25.818,24.747,25.409,24.387z"/>
				<path fill="#FEFFFF" d="M28.36,22.957c-1.235-1.56-0.979-3.582,0.589-4.823c1.56-1.235,3.587-1.02,4.822,0.54
					c1.235,1.56,0.979,3.582-0.581,4.817C31.622,24.732,29.595,24.518,28.36,22.957z M32.638,19.571
					c-0.768-0.971-1.96-1.215-2.914-0.459c-0.963,0.762-0.998,1.978-0.231,2.947c0.763,0.963,1.96,1.215,2.922,0.453
					C33.371,21.757,33.4,20.534,32.638,19.571z"/>
				<path fill="#FEFFFF" d="M40.368,18.811l-2.243-1.474l-0.911,0.48l1.093,2.079l-1.246,0.656l-3.079-5.85l2.737-1.44
					c1.219-0.642,2.393-0.24,2.965,0.847c0.541,1.026,0.178,1.933-0.375,2.414l2.497,1.532L40.368,18.811z M38.401,14.774
					c-0.254-0.483-0.788-0.582-1.28-0.324l-1.315,0.693l0.831,1.58l1.315-0.693C38.443,15.77,38.663,15.273,38.401,14.774z"/>
				<path fill="#FEFFFF" d="M47.492,16.133l-0.736-0.942l-2.702,0.858l-0.058,1.193l-1.52,0.483l0.427-7.072l1.681-0.534
					l4.429,5.531L47.492,16.133z M44.169,11.728l-0.122,3.024l1.965-0.624L44.169,11.728z"/>
				<path fill="#FEFFFF" d="M50.997,15.397l-0.822-5.303l-1.908,0.296l-0.19-1.223l5.205-0.808l0.189,1.223l-1.898,0.294
					l0.823,5.303L50.997,15.397z"/>
				<path fill="#FEFFFF" d="M55.705,14.808l0.019-6.607L60.4,8.215l-0.003,1.239l-3.27-0.01l-0.004,1.386l3.2,0.01l-0.004,1.238
					l-3.2-0.009l-0.005,1.506l3.27,0.01l-0.004,1.239L55.705,14.808z"/>
				<path fill="#FEFFFF" d="M66.529,15.748l1.246-5.224l-1.879-0.448l0.288-1.205l5.127,1.224l-0.288,1.204l-1.87-0.446
					l-1.247,5.224L66.529,15.748z"/>
				<path fill="#FEFFFF" d="M74.522,18.412l-0.284-2.669l-0.951-0.4l-0.911,2.166l-1.298-0.548l2.566-6.093l2.851,1.2
					c1.27,0.535,1.705,1.697,1.228,2.83c-0.45,1.068-1.382,1.365-2.104,1.243l0.401,2.901L74.522,18.412z M76.393,14.327
					c0.211-0.502-0.05-0.978-0.562-1.194l-1.371-0.577l-0.692,1.645l1.371,0.577C75.65,14.994,76.174,14.849,76.393,14.327z"/>
				<path fill="#FEFFFF" d="M81.149,22.229l0.261-1.167l-2.378-1.544l-0.96,0.713l-1.338-0.869l5.738-4.159l1.48,0.961l-1.465,6.934
					L81.149,22.229z M82.446,16.865l-2.415,1.825l1.73,1.123L82.446,16.865z"/>
				<path fill="#FEFFFF" d="M83.285,23.918l4.292-5.022l1.068,0.914l-4.291,5.023L83.285,23.918z"/>
				<path fill="#FEFFFF" d="M88.792,29.408l1.127-5.221l-3.223,2.866l-0.934-1.051l4.939-4.396l0.962,1.082l-1.066,5.049
					l3.103-2.761l0.935,1.051l-4.94,4.395L88.792,29.408z"/>
				<path fill="#FEFFFF" d="M90.669,31.919l5.485-3.683l0.784,1.167l-5.485,3.684L90.669,31.919z"/>
				<path fill="#FEFFFF" d="M94.498,38.678l2.488-4.718l-3.869,1.889L92.5,34.587l5.932-2.898l0.634,1.3l-2.385,4.567l3.727-1.819
					l0.617,1.264l-5.934,2.896L94.498,38.678z"/>
				<path fill="#FEFFFF" d="M98.803,40.376c2.017-0.542,3.709,0.642,4.214,2.516c0.355,1.318-0.091,2.33-0.717,3.01l-0.913-0.953
					c0.37-0.417,0.605-1.065,0.425-1.733c-0.314-1.167-1.429-1.767-2.633-1.444c-1.204,0.324-1.867,1.405-1.553,2.57
					c0.152,0.564,0.542,1.023,0.851,1.216l0.764-0.205l-0.453-1.682l1.185-0.32l0.818,3.04l-2.447,0.658
					c-0.901-0.454-1.614-1.236-1.922-2.383C95.918,42.794,96.796,40.917,98.803,40.376z"/>
				<path fill="#FEFFFF" d="M100.301,56.557l-2.731,0.87l1.702-2.314l-1.666-2.331l2.717,0.903l1.712-2.305l-0.022,2.872
					l2.726,0.903l-2.74,0.87l-0.022,2.873L100.301,56.557z"/>
			</g>
			<circle fill="#095069" cx="57.924" cy="54.738" r="30.677"/>
		</g>
		<g opacity="0.4" enable-background="new    ">
			<g>
				<defs>
					<circle id="SVGID_17_" cx="57.924" cy="54.396" r="30.677"/>
				</defs>
				<clipPath id="SVGID_18_">
					<use xlink:href="#SVGID_17_"  overflow="visible"/>
				</clipPath>
				<g clip-path="url(#SVGID_18_)">
					
						<ellipse transform="matrix(0.94 0.3413 -0.3413 0.94 32.6837 -32.1301)" fill="#E9F7FE" cx="107.66" cy="76.826" rx="43.441" ry="38.737"/>
					
						<ellipse transform="matrix(0.94 0.3413 -0.3413 0.94 33.6659 -31.5647)" fill="#CBE6F1" cx="106.544" cy="79.901" rx="43.441" ry="38.737"/>
					
						<ellipse transform="matrix(0.94 0.3413 -0.3413 0.94 35.1595 -30.7047)" fill="#A0D2E7" cx="104.847" cy="84.576" rx="43.441" ry="38.737"/>
					
						<ellipse transform="matrix(0.94 0.3413 -0.3413 0.94 36.8973 -29.704)" fill="#098DBA" cx="102.872" cy="90.015" rx="43.441" ry="38.737"/>
				</g>
			</g>
		</g>
		<path fill="#098DBA" d="M63.119,97.015c0.314-0.37,0.472-0.796,0.472-1.282c0-0.582-0.231-1.081-0.692-1.498
			c-0.461-0.418-1.018-0.629-1.672-0.629h-8.895c-0.295,0.066-0.517,0.324-0.522,0.638v1.495h9.375l-7.722,2.207
			c-0.478,0.146-0.873,0.405-1.185,0.778c-0.313,0.374-0.468,0.796-0.468,1.274c0,0.599,0.231,1.11,0.691,1.53
			c0.46,0.422,1.019,0.632,1.673,0.632h8.838c0.307-0.037,0.548-0.281,0.579-0.592v-1.566h-9.416l7.733-2.217
			C62.402,97.642,62.805,97.383,63.119,97.015z"/>
	</g>
	<g display="inline">
		<circle opacity="0.1" fill="#FFFFFF" enable-background="new    " cx="34.202" cy="50.028" r="3.184"/>
		<circle fill="#FFFFFF" cx="34.202" cy="50.028" r="0.598"/>
	</g>
	<g display="inline">
		<circle opacity="0.1" fill="#FFFFFF" enable-background="new    " cx="40.84" cy="43.551" r="2.172"/>
		<circle fill="#FFFFFF" cx="40.76" cy="43.47" r="0.598"/>
	</g>
	<g display="inline">
		<g>
			<path fill="#FFFFFF" d="M74.253,61.721c0,0.55-0.45,1-1,1h-27.13c-0.55,0-1-0.45-1-1V42.13c0-0.55,0.45-1,1-1h27.13
				c0.55,0,1,0.45,1,1V61.721z"/>
			<path fill="none" stroke="#098CBA" stroke-width="1.5" stroke-miterlimit="10" d="M74.253,61.721c0,0.55-0.45,1-1,1h-27.13
				c-0.55,0-1-0.45-1-1V42.13c0-0.55,0.45-1,1-1h27.13c0.55,0,1,0.45,1,1V61.721z"/>
		</g>
		<circle fill="#098DBA" cx="42.626" cy="56.017" r="5.24"/>
		<g>
			<path fill="#098DBA" d="M48.051,69.928c0,1.65-1.35,3-3,3h-4.468c-1.65,0-3-1.35-3-3v-6.563c0-1.65,1.35-3,3-3h4.468
				c1.65,0,3,1.35,3,3V69.928z"/>
		</g>
		<rect x="61.194" y="45.5" fill="#098DBA" width="9.632" height="0.685"/>
		<rect x="61.194" y="48.423" fill="#098DBA" width="9.632" height="0.685"/>
		<rect x="48.051" y="45.5" fill="#A0D2E7" width="11.637" height="12.703"/>
		<rect x="61.194" y="51.583" fill="#098DBA" width="9.632" height="0.685"/>
		
			<rect x="48.638" y="55.58" transform="matrix(-0.4241 0.9056 -0.9056 -0.4241 126.8538 31.3669)" fill="#098DBA" width="9.632" height="0.876"/>
		<g>
			<path fill="#098DBA" d="M51.07,59.654c-0.594-0.926-1.837-1.198-2.763-0.605l-2.991,1.916c-0.926,0.594-1.198,1.837-0.605,2.763
				l0.256,0.4c0.594,0.926,1.837,1.198,2.763,0.605l2.991-1.916c0.926-0.594,1.198-1.837,0.605-2.763L51.07,59.654z"/>
		</g>
		<rect x="61.194" y="54.586" fill="#098DBA" width="9.632" height="0.685"/>
		<rect x="61.194" y="57.509" fill="#098DBA" width="9.632" height="0.685"/>
		<circle fill="#098DBA" cx="52.553" cy="58.998" r="2.519"/>
	</g>
	<g display="inline">
		<circle opacity="0.1" fill="#FFFFFF" enable-background="new    " cx="66.989" cy="32.541" r="3.184"/>
		<circle fill="#FFFFFF" cx="66.989" cy="32.541" r="0.598"/>
	</g>
</g>
</svg>
