<?xml version="1.0" encoding="utf-8"?>
<!-- Generator: Adobe Illustrator 17.0.0, SVG Export Plug-In . SVG Version: 6.00 Build 0)  -->
<!DOCTYPE svg PUBLIC "-//W3C//DTD SVG 1.1//EN" "http://www.w3.org/Graphics/SVG/1.1/DTD/svg11.dtd">
<svg version="1.1" id="Layer_1" xmlns="http://www.w3.org/2000/svg" xmlns:xlink="http://www.w3.org/1999/xlink" x="0px" y="0px"
	 width="483px" height="400px" viewBox="0 0 483 400" enable-background="new 0 0 483 400" xml:space="preserve">
<path fill="#EAF7FE" d="M316.464,92.147C324.475,80.608,330.5,73.5,330.5,73.5c-9.75-11-29.75-9-29.75-9l11.75-14L292.75,43
	c3-9.25,13.25-17.5,13.25-17.5c-37.5-13.75-64,3.5-64,3.5c2.25-8.75,13.75-22.25,13.75-22.25C219,9.25,191,38.5,191,38.5
	c-0.5-5,3.5-19,3.5-19S175,33.5,164,55c-3.77,7.368-19.5,61-21.5,73c0,0-4.5-1.75-9.5-1.25c0,0,7,9.75,7.75,14.25
	s-7.25,32.75-10.25,37.5s-6.75,7.5-8.5,8.25c0,0,2.75,5.25,5.75,5.75c0,0-0.75,16.75-2.75,20.25s-7.75,9-10.5,10.75c0,0,6,7,10,7.25
	c0,0-4,7.75-5.5,9.75s-5.25-1.75-5.25-1.75s0.766,6.373,1.416,8.584c0.834,2.833-0.416,6.416-1.166,8.416s-5.25,15.25-5.75,21.5
	s1,11,1,11s1.75-3.5,3.75-4.25c0,0,0,13,3,18.75s7.5,12,9.25,13.25c0,0-1-4.5,0.25-6.5c0,0,3.158,11.061,18.25,13.25
	C176.5,327.5,200,333.5,238,311.5c35.371-20.478,30.5-96,42-144c5.343-22.301,16.621-44.166,27.167-61.191
	c7.054-8.801,17.5-14.475,17.5-14.475C321.097,91.341,317.895,91.849,316.464,92.147z"/>
<ellipse fill="#E5E5E5" cx="248" cy="377" rx="230" ry="17"/>
<path fill="#A1D4E9" d="M83.166,368.566c0.425-1.521,0.782-3.107,1.048-4.478c0.034-4.734,0.905-10.711,4.767-16.451
	c-1.369,0.377-2.887,0.898-2.887,0.898c4.839-5.959,9.73-9.148,12.898-10.764c-0.802-0.832-3.158-1.204-3.158-1.204
	c2.816-1.097,11.262-2.346,18.299-3.356l-2.91-1.712l12.518,0.237c5.827-1.58,12.75-2.782,20.966-3.467
	c-0.624-1.359-1.374-6.271-1.374-6.271c7.803-0.294,19.257,2.394,23,3c1.239,0.024,2.511,4.728,3.793,4.77
	c0,0,19.513-11.042,19.823,8.456c0.233,14.73-0.692,29.647-1.159,36.065c-5.119-0.787-10.305-1.122-15.484-1.243
	c-7.073-0.166-14.176-0.362-21.25-0.346c-2.195,0.006-4.385,0.055-6.572,0.129c-9.901-0.118-30.094,0.752-43.761,1.669l-0.022-2.667
	L100.39,372h-8.453l-0.199-2.433c-0.014-0.461,0.028-0.89-0.015-1.187C88.868,368.4,86.019,368.478,83.166,368.566z"/>
<path fill="#85C1CE" d="M91.648,368.288c-1.259,0.009-2.517,0.051-3.775,0.1c0.298-24.536,23.997-30.166,23.997-30.166
	C91.273,346.18,91.501,365.463,91.648,368.288z"/>
<path fill="#85C1CE" d="M97.224,362.75c1.435-4.099,4.881-7.856,6.078-9.08c7.844-11.032,21.302-12.087,21.302-12.087
	c-24.412,5.722-22.903,30.25-22.903,30.25L100.39,372h-2.571c0.099-4,0.578-6.645,1.335-9.335L97.224,362.75z"/>
<path fill="#4F4E51" d="M162.365,82.236c-22.671-7.986-34.135-29.805-34.135-29.805s-6.263,15.504,1.259,32.771
	c5.307,12.177,18.104,20.23,25.195,23.924C156.701,100.003,159.023,90.949,162.365,82.236z"/>
<path fill="#5C5B5D" d="M162.365,82.236c-22.671-7.986-34.135-29.805-34.135-29.805s1.691,29.573,29.923,42.652
	C159.373,90.741,160.749,86.449,162.365,82.236z"/>
<g>
	<path fill="#A1D4E9" d="M128.25,208.25c0,0-3.171-3.735-7.821-8.472c-4.924-6.761-5.679-15.028-5.679-15.028
		c-1.515,1.948-1.905,6.512-1.983,7.705c-5.807-5.167-12.305-10.002-17.726-11.627c2.739,1.344,4.709,2.422,4.709,2.422
		s-4.304,0.626-8.053,0.652L95,245l21.25,9.75C116.25,254.75,136,224,128.25,208.25z"/>
	<path fill="#A1D4E9" d="M95.041,180.828c-3.588-1.76-8.498-3.977-12.041-4.828c0,0,3.5,3.25,3.25,6.25
		c-0.11,1.321,2.497,1.672,5.447,1.652L91.5,180.25C92.609,180.25,93.797,180.455,95.041,180.828z"/>
	<path fill="#A1D4E9" d="M95.041,180.828c-1.245-0.373-2.432-0.578-3.541-0.578l0.197,3.652c3.748-0.026,8.053-0.652,8.053-0.652
		S97.78,182.172,95.041,180.828z"/>
</g>
<path fill="#CDEAF5" d="M183,64c13.151-22.222,55.919-41.564,63.758-44.969c4.041-6.469,8.992-12.281,8.992-12.281
	C219,9.25,191,38.5,191,38.5c-0.5-5,3.5-19,3.5-19S175,33.5,164,55c-3.77,7.368-19.5,61-21.5,73c0,0-4.5-1.75-9.5-1.25
	c0,0,7,9.75,7.75,14.25s-7.25,32.75-10.25,37.5s-6.75,7.5-8.5,8.25c0,0,2.75,5.25,5.75,5.75c0,0-0.75,16.75-2.75,20.25
	s-7.75,9-10.5,10.75c0,0,5.75,7.75,9.75,8c0,0-3.75,7-5.25,9s-5.25-1.75-5.25-1.75s0.766,6.373,1.416,8.584
	c0.834,2.833-0.416,6.416-1.166,8.416s-5.25,15.25-5.75,21.5s1,11,1,11s1.75-3.5,3.75-4.25c0,0,0,13,3,18.75s7.5,12,9.25,13.25
	c0,0-1-2.25,0.25-4.25c0,0,4.476,9.103,19,13.75c12.5,4,22.666,5.5,36.166,1.5c9.625-3.125,15.335-12.666,15.335-12.666
	c-62.335,19.666-79.668-22.667-72.668-49.667c3.368-12.991,18.417-34.917,18.417-34.917c-7,2-11.083-4.416-11.083-4.416
	s3.334-0.667,9-6C145.333,214.001,144,185,144,185c-2.58,0.86-5.154,0.98-5.826,0.997C138.058,186.023,138,186,138,186
	s0.064-0.001,0.174-0.003c0.522-0.113,2.241-1.192,5.429-9.575c-0.81-0.437-1.592-0.929-2.379-1.45
	c-0.199-0.132-0.328-0.376-0.251-0.618c1.981-6.225,1.225-12.877,2.683-19.199c0.384-1.663,0.917-4.238,2.542-5.212
	c1.647-0.988,3.544-0.568,5.413-0.305c1.206-4.737,2.501-10.089,3.889-16.139c12.5-54.5,25-85,25-85C178.5,54,183,64,183,64z"/>
<g>
	<g>
		<g>
			<path fill="#5D5C5E" d="M119.679,234.602c1.537,2.031,1.133,4.95-0.897,6.487l-37.441,28.346
				c-2.031,1.538-4.95,1.133-6.487-0.897l-55.571-73.401c-1.537-2.031-1.133-4.95,0.897-6.487l37.441-28.346
				c2.031-1.537,4.95-1.133,6.487,0.897L119.679,234.602z"/>
			<path fill="none" stroke="#738083" stroke-width="2" stroke-miterlimit="10" d="M119.679,234.602
				c1.537,2.031,1.133,4.95-0.897,6.487l-37.441,28.346c-2.031,1.538-4.95,1.133-6.487-0.897l-55.571-73.401
				c-1.537-2.031-1.133-4.95,0.897-6.487l37.441-28.346c2.031-1.537,4.95-1.133,6.487,0.897L119.679,234.602z"/>
		</g>
		
			<rect x="46.616" y="181.647" transform="matrix(-0.7973 0.6036 -0.6036 -0.7973 256.2018 345.351)" fill="#747F84" width="46.984" height="68.101"/>
		<path fill="#414141" d="M98.418,247.187c1.188,1.569,0.879,3.804-0.69,4.992l0,0c-1.569,1.188-3.804,0.879-4.992-0.69l0,0
			c-1.188-1.569-0.879-3.804,0.69-4.992l0,0C94.995,245.309,97.23,245.618,98.418,247.187L98.418,247.187z"/>
		
			<line fill="none" stroke="#414141" stroke-width="2" stroke-linecap="round" stroke-miterlimit="10" x1="39.28" y1="186.784" x2="50.644" y2="178.181"/>
	</g>
	<g opacity="0.5">
		
			<rect x="44.415" y="193.966" transform="matrix(-0.7973 0.6036 -0.6036 -0.7973 243.5438 336.4866)" fill="#E9F7FE" width="41.706" height="30.349"/>
		<g>
			
				<rect x="61.249" y="232.212" transform="matrix(-0.7973 0.6036 -0.6036 -0.7973 263.4401 384.2921)" fill="#E9F7FE" width="11.879" height="8.344"/>
			<g>
				
					<rect x="70.154" y="219.204" transform="matrix(-0.7973 0.6036 -0.6036 -0.7973 283.344 346.416)" fill="#E9F7FE" width="26.693" height="3.168"/>
				
					<rect x="73.279" y="223.331" transform="matrix(-0.7973 0.6036 -0.6036 -0.7973 291.4512 351.9477)" fill="#E9F7FE" width="26.693" height="3.168"/>
			</g>
		</g>
		<g>
			
				<rect x="68.198" y="241.39" transform="matrix(-0.7973 0.6036 -0.6036 -0.7973 281.4687 396.5935)" fill="#E9F7FE" width="11.879" height="8.344"/>
			<g>
				
					<rect x="77.103" y="228.382" transform="matrix(-0.7973 0.6036 -0.6036 -0.7973 301.3726 358.7174)" fill="#E9F7FE" width="26.693" height="3.168"/>
				
					<rect x="80.228" y="232.509" transform="matrix(-0.7973 0.6036 -0.6036 -0.7973 309.4798 364.2491)" fill="#E9F7FE" width="26.693" height="3.168"/>
			</g>
		</g>
		
			<rect x="31.799" y="190.685" transform="matrix(-0.7973 0.6036 -0.6036 -0.7973 211.0078 314.7398)" fill="#E9F7FE" width="41.706" height="4.236"/>
	</g>
</g>
<path fill="#A1D4E9" d="M99.25,207.25c-19.5,14.75-41,2.25-41,2.25c2.75-6,20.25-29.25,33.25-29.25
	C91.5,180.25,110.75,188,99.25,207.25z"/>
<path fill="#A1D4E9" d="M87.25,224.25C62,216.75,40,223,40,223c-10.371,2.497-7.019,14.285-2.416,23.244
	c-0.028,0.003-0.058,0-0.084,0.006c0,0,4.25,11,4.25,14l2.88-3.291c5.856,6.625,15.094,11.783,28.62,3.541
	C89.25,250.75,87.25,224.25,87.25,224.25z"/>
<ellipse fill="#CDEAF5" cx="214.166" cy="173.955" rx="10.834" ry="13.712"/>
<ellipse fill="#CDEAF5" cx="160.334" cy="165.83" rx="10.834" ry="13.712"/>
<ellipse fill="#FFFFFF" cx="213.167" cy="170.167" rx="10.667" ry="13.5"/>
<ellipse fill="#FFFFFF" cx="160.167" cy="162.167" rx="10.667" ry="13.5"/>
<path fill="#4F4E51" d="M165.999,156.207c0.085,0.331,0.143,0.677,0.143,1.043c0,1.901-1.239,3.442-2.767,3.442
	c-1.358,0-2.482-1.218-2.717-2.823c-0.871,1.143-1.408,2.682-1.408,4.381c0,3.521,2.294,6.375,5.125,6.375
	c2.831,0,5.125-2.854,5.125-6.375C169.5,159.436,168.033,157.052,165.999,156.207z"/>
<path fill="#5C5B5D" d="M255.333,164.5c-4.083-2.5-9.083-3.917-9.083-3.917c-4.673-1.416-12.891-3.463-22.977-4.457
	c-13.125-1.29-24.556-1.161-31.385-1.084c-2.039,0.022-3.641,0.042-4.857,0.02l-1.329-0.018c-2.725-0.037-3.745-0.05-5.214-0.495
	c-0.751-0.228-1.629-0.566-2.99-1.114c-0.423-0.17-0.875-0.354-1.358-0.552c-2.426-0.993-5.44-2.229-9.281-3.392
	c-4.173-1.264-8.314-2.138-12.656-2.671c-9.886-1.218-17.014-1.042-20.382-0.828c-0.813,0.052-1.456,0.344-1.964,0.897
	c-0.819,0.888-1.107,2.195-1.357,3.612l-0.675,4.45c-0.196,1.893,1.1,2.954,2.077,3.824c0.7,0.628,0.951,1.345,0.936,2.649
	c-0.002,0.263,0.013,6.462,0.585,10.255c0.495,3.23,2.349,5.83,9.621,8.032c1.369,0.415,2.948,0.812,4.661,1.183
	c12.255,2.652,16.85,2.063,21.028,0.047c3.93-1.896,6.765-10.134,8.125-14.092c0.193-0.557,0.477-1.379,0.547-1.52
	c0.184-0.35,0.326-0.685,0.465-1.025c0.364-0.884,0.365-0.884,1.321-0.833c1.268,0.073,2.325,0.235,3.144,0.482
	c1.181,0.359,1.435,0.771,1.486,0.887c0.277,0.66,0.445,2.475,0.607,4.233c0.113,1.224,0.23,2.487,0.401,3.698l0.141,1.046
	c0.467,3.546,1.172,8.906,3.627,11.363c1.688,1.69,6.433,3.917,11.807,5.546c3.623,1.096,7.256,1.845,10.507,2.164
	c8.747,0.858,17.541,0.882,21.386,0.057c3.912-0.835,5.181-3.018,6.702-6.828c0.206-0.517,0.394-0.991,0.594-1.478l0.073-0.308
	c0,0,3.138-9.796,5.15-17.485c4.41,1.278,8.851,3.068,8.851,3.068L255.333,164.5z M172.752,161.185
	c-0.324,3.155-1.363,6.687-3.269,11.119c-2.074,4.812-2.652,4.97-4.569,5.489c-2.291,0.622-9.248,0.198-16.495-1.568
	c-6.878-1.683-10.172-4.282-10.883-5.845c-0.611-1.351-0.265-15.73,0.293-18.499c0.114-0.574,0.282-0.721,0.354-0.785
	c0.916-0.811,4.214-0.657,7.319-0.4c6.044,0.498,14.494,2.905,17.675,3.809l0.557,0.157c0.263,0.075,0.519,0.15,0.77,0.226
	C170.061,156.574,172.992,158.808,172.752,161.185z M239.349,168.585c-0.536,2.69-4.181,15.064-5.501,17.663
	c-0.977,1.922-3.341,2.116-10.035,2.395l-0.454,0.018c-6.557,0.265-17.925-1.608-24.027-3.458c-0.264-0.08-0.517-0.158-0.758-0.237
	c-5.637-1.848-6.183-2.695-7.592-5.973c-1.453-3.392-1.264-12.679-1.21-14.507l0.002-0.094c0.055-1.932,0.084-2.9,2.688-3.625
	c3.501-0.977,18.37-0.842,24.376-0.212c4.742,0.501,14.628,2.66,19.095,4.014c0.699,0.212,1.214,0.39,1.529,0.525
	C237.965,165.31,239.758,166.542,239.349,168.585z"/>
<path fill="#4F4E51" d="M215.999,163.207c0.085,0.331,0.143,0.677,0.143,1.043c0,1.901-1.239,3.442-2.767,3.442
	c-1.358,0-2.482-1.218-2.717-2.823c-0.871,1.143-1.408,2.682-1.408,4.381c0,3.521,2.294,6.375,5.125,6.375
	c2.831,0,5.125-2.854,5.125-6.375C219.5,166.436,218.033,164.052,215.999,163.207z"/>
<path fill="#A1D4E9" d="M207.167,120.834c0,0,18.958-8.084,27.333,0.666c0,0,0-8.666-11.685-8.238
	C214.667,113.334,211.167,116.5,207.167,120.834z"/>
<path fill="#A1D4E9" d="M211.125,111c0,0,6.125-6,17-4.5c0,0-4.275-3.637-9.625-2.25C215.125,105.125,212.875,107.25,211.125,111z"
	/>
<path fill="#A1D4E9" d="M153.875,126.625c0,0,9.75,3.5,14,10.125c0,0,1.062-5.705-4.375-8.75
	C159.333,125.666,157.5,126.166,153.875,126.625z"/>
<path fill="#A1D4E9" d="M171.375,126.375c0,0-2.75-4.375-7.25-4.625c0,0,3.708-1.564,5.5,0
	C170.433,122.455,171.75,123.875,171.375,126.375z"/>
<path fill="#5C5B5D" d="M175.833,198.333c-0.468-0.177,12.167,2.792,24.792,4.292c0,0,1.042-2.292,2.208-3.458c0,0-0.833,4,0.167,5
	c0,0-6.667,1.5-13,0.5c0,0,7.083-0.084,9.583-0.917C199.583,203.75,186.875,202.5,175.833,198.333z"/>
<path fill="#5C5B5D" d="M279.732,102.256c0.879,0.36,3.737,1.379,3.737,1.379c25.516,10.39,51.349-3.549,51.349-3.549
	s-3.466,16.358-19.351,26.479c-15.889,10.119-39.659,4.945-39.659,4.945C274,134.5,273.25,142.25,273.25,142.25
	s-4.283-9.643-1.367-24.295C273.923,107.688,279.188,102.033,279.732,102.256"/>
<path fill="#747F83" d="M279.732,102.256c0.85,0.334,3.737,1.379,3.737,1.379c25.516,10.39,51.349-3.549,51.349-3.549
	s-23.256,30.611-62.202,14.813C272.616,114.899,273.61,108.15,279.732,102.256"/>
<path fill="#CDEAF5" d="M125.386,230.75c0,0,9.783,1.75,15.986-1.5c0,0,1.432,8.5,9.305,14.75c0,0,7.635-12.25,14.793-14
	c0,0,0.435,6.167,0.197,11.167c0,0,13.642,0.833,25.333-8.917c0,0-2.667,13.416-30.167,14.25c0,0,0.62-6.541,0.461-7.875
	c0,0-5.858,7.5-9.795,15.875c0,0-14.065-9.5-16.57-18.75c0,0-1.193,1.5-11.93-0.25L125.386,230.75z"/>
<path fill="#85C1CE" d="M76,221.834c0,0-13.334,10.333-22.5,13.333c0,0,22.333-5.167,29.5-8.5c0,0-6.167,15.167-24.5,21.167
	c0,0,17.333-1.667,24.333-8.167c0,0-7.333,23-24.666,25c0,0,10.166,1.666,19.166-7.167c9-8.833,10.833-26.5,9.917-33.25
	C87.25,224.25,80.333,222.168,76,221.834z"/>
<path fill="#85C1CE" d="M100,207.167c0,0,4.499-2.666,6.666-4.999c0,0,0.167,5-4.499,7.666L100,207.167z"/>
<path fill="#EAF7FE" d="M331.167,263c2.472-2.135,4.861-1.031,4-10.5c-0.667-7.333-6.5-16.333-6.5-16.333"/>
<polygon fill="#EAF7FE" points="279.156,221.266 274.375,223.234 280,225.484 "/>
<path fill="#EAF7FE" d="M334.25,227.75c0,0,11.923-2.385,15.5-9.837"/>
<path fill="#85C1CE" d="M129.5,330.375c0,0,16.25,9.125,39.564,7.022l-0.314-8.062c0,0-13.25,0.251-25.584-4.25L143,328l-4-2.5
	l0.25,3.125L129.5,330.375z"/>
<path fill="#CDEAF5" d="M221.567,347.218l-2.967-0.064c-10.951-0.526-18.287-2.013-29.252-1.513
	c-6.995,0.317-14.577,0.635-22.036,1.009c4.096-3.035,5.817-5.435,9.62-9.719l1.568,2.693c1.28-1.792,3.886-7.07,5.15-9.48
	c6.609-8.132,11.35-15.478,11.35-15.478l-17,6c-0.783,2.22-2.25,4.45-4.093,6.605c-0.133,0.318-0.255,0.655-0.373,1
	c-1.486-1.987-3.422-3.72-3.867-0.938c-0.07,0.435-0.13,0.893-0.185,1.357c-3.527,5.337-17.66,14.137-17.66,14.137
	c-0.938,0.542-1.489,0.839-1.489,0.839l3,0.834l-0.579,2.993c-0.086,0.006-0.175,0.011-0.26,0.017
	c-0.194,1.427-0.46,2.847-0.795,4.258c0.012,0.73-0.002,1.19-0.002,1.19l-0.311,10.398c-0.853,1.27-2.529,3.453-4.244,3.919
	c0,0,1.644,1.494,3.263,0.5l-0.244,1.098c0,0-1.117,8.447,5.854,8.696l19.429,0.694c1.132,0.04,1.814,0.066,1.814,0.066
	l20.911,0.747l0.17-2.899l11.962,0.849l2.006-4.119l18.089,0.6C233.051,354.829,228.113,348.178,221.567,347.218z"/>
<path fill="#EAF7FE" d="M233.013,366.811c-0.046-1.782-0.181-3.772-0.478-5.789l1.463,0.684c-0.588-3.844-3.121-7.504-3.461-7.979
	c-1.747-3.885-4.655-6.836-9.466-7.007l1.341-1.796c-4.615-1.038-6.951-1.868-14.611-0.537c4.249-1.328,8.354-4.25,12.101-7.824
	L221.5,338l2.25-5l-0.842,0.487c2.601-2.848,4.976-5.909,7.029-8.821l2.313,3.084c2-3.5,5.75-16.25,5.75-16.25l-28.187,9.26
	c-0.689,0.971-1.608,2.006-2.706,3.086l-11.273-10.845c0,0-6.444,9.695-14.332,18.875c-0.844,0.981-2.001,5.374-3.001,7.124
	c-0.625-1.25-0.899-2.768-1.568-2.068c-4.054,4.234-8.228,7.883-11.932,9.735l7.601,0.292c-2.484,1.383-4.026,2.202-4.026,2.202
	s0.997-0.092,12.615-1.16c11.618-1.068,18.589,3.766,18.589,3.766l0.042-0.315c0.874,0.486,3.888,2.385,6.175,7.11
	c0.283,1.111,1.941,7.96,0.545,10.31l2.006-0.647c0.248,2.552,0.273,5.448-0.03,8.762l8.461,0.274c0,0,0.828-10.168-1.206-18.266
	l2.297,0.109c-1.111-3.964-4.464-6.798-6.62-8.27c-0.578-0.483-1.207-0.886-1.906-1.162c0,0,16.947-1.357,16.028,23.696l2.94,0.105
	l7.457,0.511c-0.194-0.404-0.363-0.813-0.493-1.234C234.198,370.974,233.286,367.898,233.013,366.811z M206.071,358.684
	c0.563,1.188,1.08,2.543,1.504,4.096L206.071,358.684z"/>
<path fill="#EAF7FE" d="M194.325,358.442l1.475-1.251c-2.604-2.032-6.819-2.295-9.031-2.278c-0.631-0.089-1.283-0.155-1.98-0.181
	c0,0,6.849,6.576,5.747,24.072l7.634,0.272C198.17,379.077,201.173,365.262,194.325,358.442z"/>
<g>
	<g>
		<g>
			<g>
				<path fill="#5D5C5E" d="M451.52,371.538c0,5.374-4.397,9.772-9.772,9.772H236.713c-5.374,0-9.772-4.397-9.772-9.772V226.939
					c0-5.374,4.397-9.772,9.772-9.772h205.035c5.374,0,9.772,4.397,9.772,9.772L451.52,371.538L451.52,371.538z"/>
				<path fill="none" stroke="#738083" stroke-width="2" stroke-miterlimit="10" d="M451.52,371.538
					c0,5.374-4.397,9.772-9.772,9.772H236.713c-5.374,0-9.772-4.397-9.772-9.772V226.939c0-5.374,4.397-9.772,9.772-9.772h205.035
					c5.374,0,9.772,4.397,9.772,9.772L451.52,371.538L451.52,371.538z"/>
			</g>
			<rect x="246.535" y="231.286" fill="#747F84" width="184.945" height="135.905"/>
		</g>
		<path fill="#414141" d="M242.859,299.239c0,2.492-2.02,4.512-4.512,4.512l0,0c-2.492,0-4.512-2.02-4.512-4.512l0,0
			c0-2.492,2.02-4.512,4.512-4.512l0,0C240.839,294.727,242.859,296.747,242.859,299.239L242.859,299.239z"/>
		
			<line fill="none" stroke="#414141" stroke-width="2" stroke-linecap="round" stroke-miterlimit="10" x1="440.112" y1="290.215" x2="440.112" y2="308.262"/>
	</g>
	<g opacity="0.5">
		<rect x="251.6" y="236.549" fill="#E9F7FE" width="175.897" height="11.727"/>
		<rect x="251.6" y="252.185" fill="#E9F7FE" width="175.897" height="57.655"/>
		<g>
			<rect x="252.241" y="316.639" fill="#E9F7FE" width="27.912" height="20.402"/>
			<rect x="284.245" y="316.639" fill="#E9F7FE" width="52.477" height="4.692"/>
			<rect x="284.245" y="324.38" fill="#E9F7FE" width="52.477" height="4.692"/>
			<rect x="284.245" y="332.121" fill="#E9F7FE" width="52.477" height="4.692"/>
		</g>
		<g>
			<rect x="341.704" y="316.639" fill="#E9F7FE" width="27.912" height="20.402"/>
			<rect x="373.708" y="316.639" fill="#E9F7FE" width="52.477" height="4.692"/>
			<rect x="373.708" y="324.38" fill="#E9F7FE" width="52.477" height="4.692"/>
			<rect x="373.708" y="332.121" fill="#E9F7FE" width="52.477" height="4.692"/>
		</g>
		<g>
			<rect x="252.241" y="342.9" fill="#E9F7FE" width="27.912" height="20.402"/>
			<rect x="284.245" y="342.9" fill="#E9F7FE" width="52.477" height="4.692"/>
			<rect x="284.245" y="350.64" fill="#E9F7FE" width="52.477" height="4.692"/>
			<rect x="284.245" y="358.382" fill="#E9F7FE" width="52.477" height="4.692"/>
		</g>
		<g>
			<rect x="341.704" y="342.9" fill="#E9F7FE" width="27.912" height="20.402"/>
			<rect x="373.708" y="342.9" fill="#E9F7FE" width="52.477" height="4.692"/>
			<rect x="373.708" y="350.64" fill="#E9F7FE" width="52.477" height="4.692"/>
			<rect x="373.708" y="358.382" fill="#E9F7FE" width="52.477" height="4.692"/>
		</g>
	</g>
</g>
<g>
	<path fill="#EAF7FE" d="M381.5,187c2.5-0.25,8,2.5,8,2.5c-1.25-3-9.75-10.25-9.75-10.25s-0.003,0.034-0.006,0.073
		c-4.57-2.83-9.734-5.087-15.236-6.894l2.159-2.429l-9.633,0.283c-9.83-2.419-20.362-3.622-30.425-4.121l2.058-2.829
		c-10.895-0.287-33.074,0.815-39.107,2.056l0.94-4.139l-5.25,3.25c0-3.25,4.25-9.5,4.25-9.5c-6,1.5-10.5,9.5-10.5,9.5l-1.25,4.75
		l0.429-0.093L271,216h18l93.834,0.167c1.248-9.201-0.107-21.642-1.402-29.174C381.455,186.992,381.476,187.002,381.5,187z
		 M288.174,166.984c0.007,0.018,0.016,0.034,0.023,0.052c-0.139,0.012-0.287,0.023-0.423,0.035L288.174,166.984z"/>
	<path opacity="0.3" fill="#4F4E51" d="M330.25,260l-4.5,4.75L318,258l-11.75,8.5c0,0-5.25-6.25-7-9.75S296.5,243,296.5,243
		l-2.75,2.25c3.27-12.321,3.158-12.102,5.25-15.5C299,229.75,329.25,223.75,330.25,260z"/>
	<path fill="#EAF7FE" d="M333.453,245.75c0.207-3.805-1.722-7.613-1.278-11.4c0.215-1.843,0.532-4.048,1.837-5.496
		c1.346-1.493,3.213-2.2,4.978-3.075c0.775-0.385,1.553-0.765,2.329-1.144c1.375-1.225,2.926-2.282,4.681-3.135
		c9.879-4.799,36.969-7.344,36.969-7.344c-39.031-15.094-94.636-0.656-94.636-0.656c-11.166,7.667-16.834,30.88-16.834,30.88
		c8.5-7.25,34.251-22.63,35.001-22.38c-1.559,10.683-16.533,10.52,24.667,41c0.266-5.567,1.6-11.323,2.473-16.832
		C333.522,246.081,333.442,245.945,333.453,245.75z"/>
	<g>
		<path fill="#CDEAF5" d="M289.453,197.457c-7.578,4.168-13.461,11.386-18.402,18.543h15.283c0,0,5.268-4.448,13.021-10.428
			c0,0-9.855,0.595-15.355-0.239c0,0,20.573-5.383,28.87-9.775c10.308-7.304,17.092-12.15,26.38-15.892c0,0,0.416-0.5-1.084-1
			c0,0,1.75-0.417,3.417-0.167c0,0,7.418-3,10.751-3.167C352.334,175.333,332,173.333,289.453,197.457z"/>
	</g>
	<path opacity="0.3" fill="#4F4E51" d="M284.76,228.755c-6.239-0.124-12.482-0.015-18.72-0.197c-1.055,2.124-1.716,4.287-1.79,6.442
		c0,4,0.248,8.26-0.751,9.38L284.76,228.755z"/>
	<path fill="#EAF7FE" d="M299.355,205.572c0,0-26.605,14.928-27.105,29.428c0,4,0.248,8.26-0.751,9.38l27.751-21.13L299.355,205.572
		z"/>
	<path fill="#EAF7FE" d="M305.25,223.75c-4.839,16.299-4.757,15.884-4.25,24.5c0.25,3.75,0.5,5.5,2.25,7.25s10.25,11.25,10.25,11.25
		s10.109-6.893,9.25-14C320,230,305.25,223.75,305.25,223.75z"/>
	<path fill="#EAF7FE" d="M292.75,229.75c0.308-0.213,4.275-4.787,14.25-5.5c7-0.5,0-5,0-5L293.5,220"/>
	<path fill="#EAF7FE" d="M301.5,251.5c0,0-1.5-6.75-1.25-11.75l-2.25,2c3.42-14.711,2.336-14.507,4.5-19c3.25-6.75,3.75,21,3.75,21"
		/>
	<path fill="#CDEAF5" d="M317.25,240c0.575-4.791,0.885-13.242,2.366-18.283c-0.729,0.939-1.409,1.909-2.032,2.908
		c-2.053,4.448-3.316,10.715-3.584,17.125c-0.5,8.5,7.125,17.626,7.125,17.626s1.042-1.542,1.542-2.875l-3.917-7.751
		C318.75,248.75,316.5,246.25,317.25,240z"/>
</g>
</svg>
