<?xml version="1.0" encoding="utf-8"?>
<!-- Generator: Adobe Illustrator 17.0.0, SVG Export Plug-In . SVG Version: 6.00 Build 0)  -->
<!DOCTYPE svg PUBLIC "-//W3C//DTD SVG 1.1//EN" "http://www.w3.org/Graphics/SVG/1.1/DTD/svg11.dtd">
<svg version="1.1" id="Layer_1" xmlns="http://www.w3.org/2000/svg" xmlns:xlink="http://www.w3.org/1999/xlink" x="0px" y="0px"
	 width="275.589px" height="536.973px" viewBox="0 0 275.589 536.973" enable-background="new 0 0 275.589 536.973"
	 xml:space="preserve">
<circle fill="#637378" cx="207.662" cy="146.718" r="59.214"/>
<circle fill="#435457" cx="207.662" cy="146.718" r="55.197"/>
<circle fill="#637378" cx="110.149" cy="130.054" r="59.214"/>
<circle fill="#435457" cx="110.149" cy="130.054" r="55.143"/>
<path fill="#098DBA" d="M236.16,69.811c0,0-18.752-37.179-31.391-51.934c-5.946-6.942-10.618-11.31-15.44-13.111
	c-0.004-0.035,0.005,0.035,0,0c-7.166-3.364-14.286-1.184-26.019,5.597c-16.821,9.722-46.855,38.563-46.855,38.563l59.109,3.473
	L236.16,69.811z"/>
<path fill="#1281A8" d="M229.581,68.686c0,0-16.6-33.635-27.815-46.97c-5.277-6.274-9.425-10.218-13.715-11.837
	c-0.004-0.032,0.004,0.032,0,0c-6.373-3.028-12.72-1.034-23.187,5.142c-15.007,8.854-41.834,35.068-41.834,35.068l52.633,2.986
	L229.581,68.686z"/>
<path fill="#095069" d="M177.932,47.765c-0.024,0.142-0.964,0.252-1.047,0.325c0.354,1.908,2.187,4.184,2.575,6.085l50.121,14.512
	c0,0-16.6-33.635-27.815-46.97c-5.277-6.274-9.425-10.218-13.715-11.837c-1.983-0.942-3.964-1.397-6.067-1.392
	C187.358,16.34,179.431,39.067,177.932,47.765z"/>
<path fill="#8E989C" d="M243.21,76.769c0.23-1.667-0.415-4.004-3.476-7.032c-7.484-7.404-23.284-15.588-42.169-20.036
	c-0.011-0.011-0.034-0.036-0.034-0.036c-27.425-6.276-43.193-7.537-48.702-7.789c-16.959-1.055-32.044,1.35-40.592,5.39
	c-3.654,1.727-5.095,3.574-5.535,5.147c-0.583,1.805-0.896,5.052-0.896,5.052c0.341,2.217,1.266,0.025,1.575-0.731
	c0.035-0.085,0.071-0.239,0.107-0.431l137.706,23.599c-0.023,0.16-0.037,0.296-0.033,0.376c0.04,0.816,0.202,3.115,1.259,1.137
	C242.42,81.415,243.075,78.675,243.21,76.769z"/>
<path fill="#626E71" d="M239.017,73.931c-7.484-7.404-23.284-15.588-42.169-20.036c-0.011-0.011-0.034-0.036-0.034-0.036
	c-27.425-6.276-43.193-7.537-48.702-7.789c-16.959-1.055-32.044,1.35-40.592,5.39c-8.805,4.161-4.781,9.03-4.781,9.03
	l136.157,23.334c-0.067,0.507,0.048,0.983,0.574,0.841c0.458-0.123,0.838-0.378,1.104-0.601
	C241.139,83.678,245.513,80.357,239.017,73.931z"/>
<path fill="#F4F4F4" d="M238.318,80.179c0,0-9.63-17.861-61.533-26.73c-51.902-8.869-71.04,3.998-71.04,3.998
	s-77.549,75.288-30.013,291.686l13.914,2.378c7.464,0.007,14.892-0.954,22.353-0.911c6.682,0.039,13.021,1.105,19.396,3.1
	c6.405,2.005,12.523,4.605,18.135,8.044l16.627,2.841c0.52-0.135,1.023-0.33,1.496-0.593c0.648-0.359,1.285,0.589,0.655,0.96
	l1.471,0.251C286.478,176.871,238.318,80.179,238.318,80.179z"/>
<path fill="#D7DFE2" d="M230.827,72.768c0,0-15.809-12.787-54.215-19.348c-39.969-7.337-61.165,0.198-61.165,0.198
	S33.836,128.55,81.919,349.767l10.441,1.709c6.552-0.175,13.083-0.914,19.64-0.876c6.682,0.039,13.021,1.105,19.396,3.1
	c5.599,1.752,10.979,3.959,15.993,6.783l16.966,2.777C282.061,175.904,230.827,72.768,230.827,72.768z"/>
<g>
	<path fill="#C9D3D6" d="M195.207,307.974c-55.173-41.526-122.931-17.778-123.603-17.536l-0.466-3.57
		c0.706-0.254,17.429-5.952,41.475-6.751c22.229-0.743,54.935,3.044,84.514,25.306L195.207,307.974z"/>
	<path fill="#C9D3D6" d="M175.224,346.003c-42.705-29.612-96.505-14.754-97.036-14.614l-0.67-3.127
		c0.548-0.143,54.734-16.65,99.455,15.071L175.224,346.003z"/>
	<path fill="#C9D3D6" d="M136.748,234.376c0.045,1.071,0.074,2.141,0.077,3.211c22.818,2.046,50.303,9.626,76.157,30.037
		l1.978-2.505C188.382,244.135,160.134,236.416,136.748,234.376z"/>
	<path fill="#C9D3D6" d="M120.56,235.911c-1.696,0.025-3.349,0.075-4.953,0.147c-27.989,1.265-48.022,9.232-48.22,9.312l0.155,3.479
		c0.195-0.079,20.75-8.367,48.208-9.603c1.461-0.066,2.966-0.111,4.505-0.136C120.223,237.999,120.288,236.972,120.56,235.911z"/>
	<path fill="#C9D3D6" d="M228.43,223.856c0.043-0.217,0.081-0.43,0.12-0.644c0.025-0.442,0.054-0.884,0.125-1.322
		c0.006-0.038,0.034-0.055,0.046-0.089c-37.317-24.835-78.718-28.952-107.283-28.729c-31.142,0.237-53.834,7.648-54.058,7.712
		l-0.205,3.474c0.884-0.249,90.019-26.853,160.557,20.711l0.696-1.031C228.429,223.909,228.424,223.885,228.43,223.856z"/>
	<path fill="#C9D3D6" d="M238.146,181.761c0.112-0.652,0.133-1.315,0.245-1.967c0.01-0.058,0.03-0.105,0.051-0.152
		c-37.727-28.24-81.028-33.044-110.815-32.064c-32.459,1.069-55.701,8.802-55.938,8.882l-0.541,3.426
		c0.233-0.079,24.589-8.068,56.583-9.118c29.497-0.97,72.463,3.804,109.645,32.052l0.762-1.004
		C238.144,181.797,238.139,181.781,238.146,181.761z"/>
	<path fill="#C9D3D6" d="M241.496,137.337l-0.079-1.416c-0.007-0.128,0.031-0.232,0.087-0.321
		c-39.31-31.647-80.607-35.87-108.516-33.778c-30.449,2.282-50.687,11.939-50.9,12.04l-1.256,3.733
		c0.209-0.1,22.635-10.383,52.518-12.6c27.503-2.045,68.434,2.189,107.206,33.929l1.05-1.283
		C241.547,137.56,241.503,137.463,241.496,137.337z"/>
	<path fill="#C9D3D6" d="M237.965,95.81c-0.059-0.221-0.104-0.447-0.155-0.671c-34.149-25.259-70.167-29.919-94.552-29.317
		c-20.058,0.495-35.404,4.415-42.209,6.489c-1.07,1.278-1.823,2.741-2.581,4.209c1.608-0.579,19.71-6.903,44.989-7.51
		c24.263-0.581,60.3,4.149,94.193,29.983l0.582-0.764C238.18,97.419,238.114,96.609,237.965,95.81z"/>
</g>
<path fill="#C9D3D6" d="M230.827,72.768c0,0-15.657-13.239-54.042-19.319c-1.797,5.96-3.129,13.87-5.096,20.205
	c-3.529,11.365-7.599,22.523-10.832,33.991c-6.575,23.326-11.696,47.049-15.631,70.959c-9.518,57.84-17.658,115.957-22.115,174.27
	c1.532,0.371,6.798,1.143,8.329,1.622c5.599,1.752,10.979,3.959,15.993,6.783l16.966,2.777
	C282.106,176.701,230.827,72.768,230.827,72.768z"/>
<circle fill="#C9D3D6" cx="162.876" cy="123.613" r="62.76"/>
<circle fill="#EEF4F6" cx="160.864" cy="130.087" r="62.76"/>
<circle fill="#F4F4F4" cx="160.864" cy="130.087" r="62.76"/>
<path fill="#5C5B5E" d="M193.44,382.261c-0.301-1.876-0.73-3.602-1.244-5.215c-4.899-19.188-21.85-14.029-25.381-12.72
	c-29.699-22.315-76.196-17.166-87.269-15.542c-7.442-6.251-19.108-4.695-26.518,1.071c-2.122,1.999-4.06,4.439-5.66,7.443
	c-11.683,21.94-2.702,58.667-2.702,58.667s6.827-47.648,34.309-44.635l81.455,16.984l1.315-2.019
	c25.116,6.263,14.939,52.315,14.939,52.315S197.383,406.804,193.44,382.261z"/>
<circle fill="#435457" cx="160.864" cy="130.087" r="59.214"/>
<path fill="#637378" d="M154.94,75.438c32.575-2.894,61.328,21.167,64.222,53.742c0.366,4.124,0.297,8.185-0.163,12.141
	c1.022-5.302,1.347-10.827,0.846-16.474c-2.894-32.575-31.647-56.636-64.222-53.742c-28.451,2.528-50.404,24.783-53.579,52.081
	C106.919,97.9,128.012,77.83,154.94,75.438z"/>
<path fill="#C9D3D6" d="M143.195,238.572c-11.829-2.998-18.806-2.341-18.806-2.341l-0.183-12.774
	c22.853-3.364,42.563,6.918,51.282,13.458c2.231-4.152,4.586-8.243,6.841-12.384c-36.206-25.434-70.033-12.427-70.033-12.427
	l-1.005,5.879l-2.01,33.834c0,0,12.52-2.84,30.522,1.193s17.214,16.684,16.235,21.042c-0.978,4.358-6.138,14.195-20.603,10.955
	c-14.465-3.24-23.885-9.407-27.443-15.613l-8.987,12.966c0,0-0.575,3.181-1.053,6.164c5.659,4.307,22.172,8.902,36.001,10.61
	c22.776,2.813,34.755-8.443,37.305-21.811C171.258,277.322,180.368,246.735,143.195,238.572z"/>
<path fill="#1281A8" d="M142.235,245.6c-12.869-2.829-18.018-1.951-18.018-1.951l0.818-14.151
	c22.858-3.393,40.724,6.79,49.439,13.35c2.234-4.17,4.593-8.278,6.85-12.437c-36.193-25.51-70.033-12.429-70.033-12.429
	l-2.392,39.781c0,0,11.874-2.769,29.875,1.267s17.204,16.738,16.223,21.114c-0.981,4.376-6.148,14.255-20.613,11.012
	s-23.881-9.428-27.436-15.656l-8.997,13.023c0,0,12.164,14.008,34.941,16.816c22.777,2.809,34.765-8.499,37.324-21.922
	C170.216,283.417,179.407,253.771,142.235,245.6z"/>
<path fill="#095069" d="M142.235,245.6c-4.482-0.985-8.008-1.515-10.726-1.794c-0.421,3.471-0.828,6.943-1.185,10.422
	c-0.112,1.089-0.213,2.18-0.319,3.27c2.721,0.34,5.651,0.832,8.769,1.531c18.001,4.036,17.204,16.738,16.223,21.114
	c-0.981,4.376-6.148,14.255-20.613,11.012c-2.228-0.5-6.367-1.723-8.353-2.352c-0.412,4.422-1.019,9.295-1.212,13.705
	c-0.014,0.323,3.122,0.96,2.871,0.959c-0.006,0.332-0.012,0.664-0.018,0.996c1.675,0.352,3.41,0.652,5.219,0.876
	c22.777,2.809,34.765-8.499,37.324-21.922C170.216,283.417,179.407,253.771,142.235,245.6z"/>
<path fill="#095069" d="M135.857,214.675c-0.684,4.33-1.072,8.861-1.63,13.622c18.868-0.245,32.617,8.808,40.248,14.552
	c2.234-4.17,4.593-8.278,6.85-12.437C164.639,218.651,148.457,215.095,135.857,214.675z"/>
<g>
	<defs>
		<circle id="SVGID_1_" cx="160.864" cy="130.087" r="59.214"/>
	</defs>
	<clipPath id="SVGID_2_">
		<use xlink:href="#SVGID_1_"  overflow="visible"/>
	</clipPath>
	<g clip-path="url(#SVGID_2_)">
		<path fill="#EAF7FE" d="M107.756,181.262c0,0-0.848,0.733-2.035,2.153c2.638,0.418,5.499,0.103,7.917,1.239
			c24.381,11.453,47.499,17.202,77.584,12.17c-0.304-3.023-0.612-5.215-0.612-5.215c1.976,0.338,3.234-0.337,3.234-0.337
			c-1.253-0.849-3.857-3.454-5.389-6.384c-1.532-2.93-5.877-7.993-5.877-7.993s0.464-2.716,1.435-8.395
			c0.97-5.679,5.372-9.501,5.372-9.501c-2.469-0.422-4.022,1.599-4.022,1.599s0.021-0.123,2.046-11.975
			c2.025-11.852,8.92-16.137,8.92-16.137c-1.831-0.44-3.213,0.213-3.213,0.213c2.362-8.617,5.49-10.751,5.49-10.751
			c-9.433-4.28-15.934,0.581-15.934,0.581c-0.204-5.498,4.668-7.843,4.668-7.843c-4.872-1.976-9.311-1.21-9.311-1.21
			c1.329-7.778,4.864-9.843,4.864-9.843c-15.432-2.637-26.177,7.469-26.177,7.469c0.227-5.044,2.325-9.137,2.325-9.137
			c-16.014,3.744-22.346,17.012-22.346,17.012c-0.587-2.514,0.2-7.86,0.2-7.86s-7.94,9.285-10.274,16.255
			c-2.335,6.971-3.749,27.885-3.749,27.885s-0.776-1.403-2.833-2.008c0,0,1.8,2.849,0.851,8.404c0,0-0.738-0.888-2.283-0.771
			c0,0,1.987,2.499,1.622,6.122c0,0-3.032,1.388-4.83,2.986c0,0-2.367-0.278-3.665-0.118c0,0,1.786,1.449,1.987,2.5
			c0,0-6.815,4.934-10.601,9.243C103.122,181.614,105.989,180.452,107.756,181.262z"/>
	</g>
	<path clip-path="url(#SVGID_2_)" fill="#CDEAF5" d="M156.718,111.102c0.227-5.044,2.325-9.137,2.325-9.137
		c-16.014,3.744-22.346,17.012-22.346,17.012c-0.587-2.514,0.2-7.86,0.2-7.86s-7.94,9.285-10.274,16.255
		c-2.335,6.971-3.749,27.885-3.749,27.885s-0.776-1.403-2.833-2.008c0,0,1.8,2.849,0.851,8.404c0,0-0.738-0.888-2.283-0.771
		c0,0,1.987,2.499,1.622,6.122c0,0-3.032,1.388-4.83,2.986c0,0-2.367-0.278-3.665-0.118c0,0,1.786,1.449,1.987,2.5
		c0,0-3.946,2.858-7.501,6.122c4.414,0.712,8.858,1.231,13.268,1.962c0.098-0.704,0.206-1.402,0.323-2.089
		c4.844-31.318,17.61-36.506,17.61-36.506c-1.849-1.078-3.958-1.375-3.958-1.375c3.223-5.103,12.123-11.46,12.123-11.46
		c-2.058-0.224-10.39,0.575-10.39,0.575c9.548-16.093,16.995-19.522,16.995-19.522c-1.2,4.051-0.345,8.708-0.345,8.708
		c17.348-15.269,28.713-12.476,28.713-12.476c1.157-1.631,2.333-2.677,2.333-2.677C167.463,100.996,156.718,111.102,156.718,111.102
		z"/>
	<path clip-path="url(#SVGID_2_)" fill="#5C5B5D" d="M131.891,131.986c-0.355-0.035-1.483-0.198-1.483-0.198
		c-10.3-1.029-16.434-10.195-16.434-10.195s-1.721,6.043,1.779,12.193c3.501,6.151,12.306,8.606,12.306,8.606
		c0.076,1.311-1.036,4.017-1.036,4.017s3.116-2.451,4.72-7.83C132.867,134.81,132.111,132.007,131.891,131.986"/>
	<path clip-path="url(#SVGID_2_)" fill="#747F83" d="M131.891,131.986c-0.341-0.038-1.483-0.198-1.483-0.198
		c-10.3-1.029-16.434-10.195-16.434-10.195s2.351,14.252,18.062,15.842C132.035,137.435,132.89,135.019,131.891,131.986"/>
	<path clip-path="url(#SVGID_2_)" fill="#5C5B5D" d="M182.711,140.67c0.347,0.085,1.465,0.306,1.465,0.306
		c10.057,2.45,18.887-4.159,18.887-4.159s-0.383,6.271-5.727,10.911c-5.345,4.639-14.465,4.031-14.465,4.031
		c-0.507,1.212-0.357,4.133-0.357,4.133s-2.125-3.347-1.852-8.953C180.852,143.01,182.496,140.617,182.711,140.67"/>
	<path clip-path="url(#SVGID_2_)" fill="#747F83" d="M182.711,140.67c0.334,0.077,1.465,0.306,1.465,0.306
		c10.057,2.45,18.887-4.159,18.887-4.159s-6.95,12.663-22.298,8.945C180.766,145.762,180.762,143.2,182.711,140.67"/>
	
		<ellipse transform="matrix(-0.9857 -0.1684 0.1684 -0.9857 290.1848 373.1603)" clip-path="url(#SVGID_2_)" fill="#CDEAF5" cx="160.92" cy="174.272" rx="4.071" ry="5.152"/>
	
		<ellipse transform="matrix(-0.9857 -0.1684 0.1684 -0.9857 290.9947 370.5367)" clip-path="url(#SVGID_2_)" fill="#FFFFFF" cx="161.213" cy="172.926" rx="4.008" ry="5.072"/>
	<path clip-path="url(#SVGID_2_)" fill="#4F4E51" d="M159.736,168.941c-0.052,0.117-0.096,0.242-0.119,0.377
		c-0.12,0.704,0.241,1.353,0.807,1.45c0.503,0.086,0.996-0.294,1.185-0.873c0.25,0.478,0.352,1.082,0.244,1.712
		c-0.223,1.304-1.253,2.216-2.302,2.037s-1.718-1.381-1.495-2.685C158.235,169.916,158.929,169.126,159.736,168.941z"/>
	
		<ellipse transform="matrix(-0.9857 -0.1684 0.1684 -0.9857 258.6521 364.9783)" clip-path="url(#SVGID_2_)" fill="#CDEAF5" cx="144.806" cy="171.519" rx="4.071" ry="5.152"/>
	
		<ellipse transform="matrix(-0.9857 -0.1684 0.1684 -0.9857 259.462 362.3548)" clip-path="url(#SVGID_2_)" fill="#FFFFFF" cx="145.1" cy="170.173" rx="4.008" ry="5.072"/>
	<path clip-path="url(#SVGID_2_)" fill="#A1D4E9" d="M162.511,165.339c0,0,3.748-1.061,5.208,2.348c0,0,0.726-3.017-2.014-3.837
		C162.963,163.03,162.511,165.339,162.511,165.339z"/>
	<path clip-path="url(#SVGID_2_)" fill="#4F4E51" d="M146.46,166.673c-0.052,0.117-0.096,0.242-0.119,0.377
		c-0.12,0.704,0.241,1.353,0.807,1.45c0.503,0.086,0.996-0.294,1.185-0.873c0.25,0.478,0.352,1.082,0.244,1.712
		c-0.223,1.304-1.253,2.216-2.302,2.037c-1.048-0.179-1.718-1.381-1.495-2.685C144.959,167.647,145.653,166.857,146.46,166.673z"/>
	<path clip-path="url(#SVGID_2_)" fill="#5C5B5D" d="M177.458,169.743c-1.745-0.567-4.899-1.804-8.616-2.632
		c-5.198-1.158-8.563-1.463-11.219-0.658c-0.733,0.222-1.913,0.79-2.37,0.773l-0.499-0.017c-0.458-0.015-0.784-0.028-1.058-0.052
		c-0.266-0.068-0.578-0.165-1.015-0.303l-0.476-0.149c-0.437-0.135-1.361-1.063-1.979-1.516c-2.237-1.641-5.513-2.471-10.8-3.105
		c-3.781-0.453-7.167-0.334-9.001-0.378c0,0-1.951-0.083-3.702,0.329l-0.043,2.128c0,0,1.795-0.116,3.519-0.053
		c-0.187,2.98-0.22,6.845-0.22,6.845l-0.01,0.118c0.014,0.197-0.154,1.437-0.141,1.646c0.095,1.538,0.291,2.466,1.588,3.225
		c1.274,0.747,4.416,1.774,7.637,2.497c1.198,0.269,2.582,0.429,4.004,0.464c2.109,0.051,4.064-0.185,4.865-0.589
		c1.165-0.588,2.227-3.466,2.811-4.676l0.174-0.357c0.204-0.412,0.394-0.848,0.578-1.272c0.265-0.608,0.538-1.237,0.715-1.439
		c0.032-0.035,0.171-0.152,0.635-0.141c0.09,0.002,0.196,0.018,0.297,0.029c0.1,0.023,0.205,0.043,0.29,0.071
		c0.441,0.143,0.533,0.3,0.552,0.344c0.099,0.25,0.148,0.934,0.196,1.595c0.033,0.461,0.068,0.936,0.123,1.392l0.045,0.394
		c0.149,1.336,0.194,4.403,1.098,5.344c0.621,0.647,2.387,1.519,4.394,2.171c1.353,0.439,2.712,0.748,3.931,0.892
		c3.279,0.388,6.583,0.462,8.033,0.181c1.476-0.285,1.969-1.095,2.569-2.514c0.081-0.193,0.335-1.418,0.413-1.6l0.03-0.115
		c0,0,1.252-3.657,2.065-6.53c1.647,0.513,3.302,1.219,3.302,1.219l0.666-2.022C179.326,170.312,177.458,169.743,177.458,169.743z
		 M150.119,169.744c-0.196,0.659-1.401,5.044-2.319,6.083c-0.888,1.004-1.183,1.242-3.412,1.238c-0.095,0-0.195-0.002-0.298-0.005
		c-2.395-0.058-6.672-0.727-8.981-1.593l-0.16-0.06c-2.356-0.887-3.176-1.235-3.298-2.035c-0.165-1.082,0.169-6.976,0.295-7.999
		c0.095-0.777,0.879-1.005,1.085-1.024c0.128-0.012,0.333-0.014,0.608-0.007c1.753,0.042,5.647,0.043,7.424,0.27
		c2.773,0.355,6.323,0.361,8.441,2.702c0.681,0.753,0.833,1.702,0.625,2.398L150.119,169.744z M172.428,180.339
		c-0.381,0.715-1.271,0.77-3.787,0.825l-0.171,0.004c-2.465,0.05-6.722-0.738-9-1.479c-0.098-0.032-0.193-0.063-0.283-0.095
		c-2.104-0.737-2.302-1.059-2.807-2.301c-0.521-1.285-0.201-5.821-0.167-6.508l0.001-0.035c0.035-0.726,0.493-1.57,1.386-2.054
		c2.775-1.504,6.126-0.331,8.859,0.255c1.752,0.375,5.425,1.668,7.093,2.21c0.261,0.085,0.454,0.155,0.571,0.209
		c0.188,0.086,0.852,0.562,0.684,1.326C174.584,173.703,172.943,179.373,172.428,180.339z"/>
	<path clip-path="url(#SVGID_2_)" fill="#A1D4E9" d="M146.936,160.197c0,0-4.099-2.891-7.329,0.625c0,0,0.408-3.975,4.087-3.798
		C147.374,157.199,146.936,160.197,146.936,160.197z"/>
	<path clip-path="url(#SVGID_2_)" fill="#A1D4E9" d="M146.249,154.136c0,0-3.803-2.659-6.33,0.771c0,0-0.055-3.384,3.032-3.67
		C146.04,150.95,146.249,154.136,146.249,154.136z"/>
	<path clip-path="url(#SVGID_2_)" fill="#A1D4E9" d="M165.91,160.293c0,0,3.604,0.031,3.657,3.34c0,0,1.56-2.115-0.264-3.688
		C167.478,158.372,165.91,160.293,165.91,160.293z"/>
	<path clip-path="url(#SVGID_2_)" fill="#5C5B5D" d="M152.54,181.906c0,0,17.924,8.11,23.343,0.752c0,0-2.444,9.564-10.03,9.752
		C160.742,191.536,154.677,193.872,152.54,181.906z"/>
	<path clip-path="url(#SVGID_2_)" fill="#EAF7FE" d="M205.94,152.178c0,0-7.643,1.168-7.244,5.415s-6.113,5.71-5.255,9.157
		s-5.075,7.605-2.316,14.743c0,0,5.801-1.87,8.693-5.056l-1.498-1.096c0,0,6.596,1.068,12.486-0.752c0,0-3.795-3.478-7.44-5.57
		c0,0,7.373,0.332,9.874,2.358c0,0,1.139-3.837-1.958-6.678c0,0,5.763-2.011,1.754-6.557S207.415,152.079,205.94,152.178z"/>
	<path clip-path="url(#SVGID_2_)" fill="#CDEAF5" d="M213.239,171.377c0,0-2.647-5.478-12.529-3.704c0,0,1.338,0.502,2.655,1.346
		C203.365,169.019,211.275,169.6,213.239,171.377z"/>
	<path clip-path="url(#SVGID_2_)" fill="#CDEAF5" d="M211.281,164.698c0,0-3.561-2.753-5.896-3.473c0,0,4.094-1.728,7.566,2.57
		C212.951,163.796,211.939,164.633,211.281,164.698z"/>
	<path clip-path="url(#SVGID_2_)" fill="#CDEAF5" d="M210.805,174.589c0,0-11.926-1.409-15.131-0.766c0,0,1.147,0.422,2.645,1.518
		C198.319,175.341,206.377,176.539,210.805,174.589z"/>
	<path clip-path="url(#SVGID_2_)" fill="#CDEAF5" d="M198.957,177.214c0,0-5.678,2.325-8.405,2.444c0,0,0.081,1.199,0.572,1.835
		C191.124,181.493,196.884,179.436,198.957,177.214z"/>
	<path clip-path="url(#SVGID_2_)" fill="#EAF7FE" d="M107.744,146.94c0,0,7.697,0.733,7.54,4.995
		c-0.157,4.263,6.427,5.354,5.766,8.844c-0.661,3.49,5.498,7.306,3.149,14.588c0,0-5.898-1.538-8.966-4.555l1.434-1.179
		c0,0-6.525,1.44-12.509-0.043c0,0,3.591-3.688,7.112-5.983c0,0-7.342,0.749-9.724,2.914c0,0-1.355-3.767,1.576-6.779
		c0,0-5.867-1.681-2.123-6.447S106.266,146.925,107.744,146.94z"/>
	<path clip-path="url(#SVGID_2_)" fill="#CDEAF5" d="M101.546,166.521c0,0,2.332-5.62,12.298-4.409c0,0-1.307,0.577-2.574,1.495
		C111.27,163.607,103.406,164.636,101.546,166.521z"/>
	<path clip-path="url(#SVGID_2_)" fill="#CDEAF5" d="M103.122,159.743c0,0,3.399-2.95,5.69-3.801c0,0-4.185-1.493-7.408,2.995
		C101.403,158.936,102.461,159.715,103.122,159.743z"/>
	<path clip-path="url(#SVGID_2_)" fill="#CDEAF5" d="M104.158,169.59c0,0,11.827-2.083,15.063-1.623c0,0-1.121,0.486-2.555,1.666
		C116.667,169.633,108.689,171.286,104.158,169.59z"/>
	<path clip-path="url(#SVGID_2_)" fill="#CDEAF5" d="M116.136,171.539c0,0,5.801,2,8.53,1.964c0,0-0.013,1.201-0.467,1.865
		C124.199,175.367,118.332,173.641,116.136,171.539z"/>
</g>
<ellipse transform="matrix(0.9857 0.1684 -0.1684 0.9857 18.8932 -26.6084)" opacity="0.2" fill="#F3F3F3" cx="166.284" cy="98.058" rx="17.729" ry="11.346"/>
<path fill="#FFFFFF" d="M165.548,424.963l-0.029-0.005c3.186-3.772,5.494-9.03,6.413-14.408
	c3.955-23.144-17.951-46.107-48.91-51.398s-59.24,9.052-63.195,32.196c-0.919,5.378-0.495,11.148,1.257,15.764l-0.029-0.005
	c0.038,0.007,0.028,0.296,0.057,0.356c0.842,2.562,1.956,5.155,3.359,7.575c18.246,43.83,29.237,95.986,29.237,95.986l7.706-13.411
	l1.814,8.347c8.571-17.46,30.541-45.797,56.472-74.588c2.116-1.81,4.032-3.961,5.67-6.088
	C165.42,425.236,165.508,424.956,165.548,424.963z"/>
<path fill="#FFEED0" d="M160.58,418.719l-0.026-0.004c2.73-2.771,4.832-7.747,5.635-12.45c3.459-20.242-16.043-40.311-43.527-45.007
	c-27.484-4.697-52.531,7.684-55.99,27.925c-0.804,4.704-0.486,10.169,1.169,13.689l-0.026-0.004
	c0.034,0.006,0.001,0.401,0.027,0.453c0.753,2.244,1.735,4.585,2.986,6.706c16.288,38.39,26.149,84.083,26.149,84.083l6.806-11.699
	l1.626,7.316c7.568-15.258,27.001-40,49.949-65.133c1.873-1.579,3.593-3.597,5.042-5.454
	C160.443,419.097,160.545,418.713,160.58,418.719z"/>
<path fill="#FCC393" d="M150.215,406.156l-0.019-0.003c1.976-1.821,3.54-5.567,4.133-9.038
	c2.552-14.936-11.851-29.671-32.131-33.136c-20.281-3.466-38.744,5.558-41.296,20.494c-0.593,3.471-0.378,7.616,0.881,9.989
	l-0.019-0.003c0.025,0.004-0.025,0.445-0.005,0.483c0.555,1.656,1.268,3.458,2.19,5.023c12.019,28.328,19.289,62.082,19.289,62.082
	l5.019-8.614l1.198,5.408c5.584-11.259,19.923-29.511,36.857-48.057c1.382-1.165,2.677-2.8,3.745-4.171
	C150.089,406.582,150.189,406.151,150.215,406.156z"/>
<path opacity="0.1" fill="#FFFFFF" d="M165.091,368.045c-0.078,0.008-0.153,0.025-0.231,0.031c-0.4,0.031-0.608-0.261-0.613-0.561
	c-13.246-8.191-28.773-13.754-45.748-15.722c-56.565-6.556-107.75,29.267-114.324,80.013
	c-6.574,50.746,33.951,97.198,90.516,103.754c56.565,6.556,107.75-29.267,114.324-80.013
	C213.575,420.355,195.477,387.233,165.091,368.045z"/>
<path opacity="0.1" fill="#FFFFFF" d="M193.51,453.751c-5.579,43.063-49.015,73.463-97.016,67.9s-82.392-44.983-76.813-88.047
	s49.015-73.463,97.016-67.9S199.089,410.687,193.51,453.751z"/>
<path fill="#5C5B5E" d="M108.727,438.225c0,0,22.269-73.291,24.422-86.231c1.885-11.329-10.169-12.293-10.169-12.293
	s-9.71-0.835-11.088,8.201C110.324,358.188,108.727,438.225,108.727,438.225z"/>
<path fill="#098DBA" d="M125.035,229.499l0.332-4.331c0,0,22.93-5.901,51.527,13.272l-2.42,4.409
	C174.475,242.848,153.11,225.922,125.035,229.499z"/>
<path fill="#098DBA" d="M108.915,257.962c0,0,46.36-6.06,46.716,19.312l-0.208-3.717c0,0,0.372-25.058-46.063-20.325
	L108.915,257.962z"/>
<path fill="#098DBA" d="M97.952,288.523c0,0,13.476,15.769,38.767,17.245c27.168,1.585,32.449-18.243,32.449-18.243
	s-5.466,14.955-30.647,13.969c-21.708-0.85-34.775-13.766-38.287-16.233L97.952,288.523z"/>
</svg>
