<?xml version="1.0" encoding="utf-8"?>
<!-- Generator: Adobe Illustrator 17.0.0, SVG Export Plug-In . SVG Version: 6.00 Build 0)  -->
<!DOCTYPE svg PUBLIC "-//W3C//DTD SVG 1.1//EN" "http://www.w3.org/Graphics/SVG/1.1/DTD/svg11.dtd">
<svg version="1.1" id="Layer_1" xmlns="http://www.w3.org/2000/svg" xmlns:xlink="http://www.w3.org/1999/xlink" x="0px" y="0px"
	 width="253px" height="253px" viewBox="0 0 253 253" enable-background="new 0 0 253 253" xml:space="preserve">
<g>
	<circle fill="#074E68" cx="127.829" cy="126.636" r="126"/>
	<g opacity="0.5" enable-background="new    ">
		<g>
			<defs>
				<circle id="SVGID_1_" cx="127.431" cy="126.364" r="126"/>
			</defs>
			<clipPath id="SVGID_2_">
				<use xlink:href="#SVGID_1_"  overflow="visible"/>
			</clipPath>
			<g clip-path="url(#SVGID_2_)">
				<g>
					
						<line fill="none" stroke="#FFFFFF" stroke-width="0.5" stroke-miterlimit="10" x1="221.63" y1="344.944" x2="221.63" y2="-77.617"/>
					
						<line fill="none" stroke="#FFFFFF" stroke-width="0.5" stroke-miterlimit="10" x1="204.539" y1="344.944" x2="204.539" y2="-77.617"/>
					
						<line fill="none" stroke="#FFFFFF" stroke-width="0.5" stroke-miterlimit="10" x1="238.721" y1="344.518" x2="238.721" y2="-78.043"/>
					
						<line fill="none" stroke="#FFFFFF" stroke-width="0.5" stroke-miterlimit="10" x1="255.812" y1="344.944" x2="255.812" y2="-77.617"/>
					
						<line fill="none" stroke="#FFFFFF" stroke-width="0.5" stroke-miterlimit="10" x1="153.266" y1="344.944" x2="153.266" y2="-77.617"/>
					
						<line fill="none" stroke="#FFFFFF" stroke-width="0.5" stroke-miterlimit="10" x1="136.175" y1="344.944" x2="136.175" y2="-77.617"/>
					
						<line fill="none" stroke="#FFFFFF" stroke-width="0.5" stroke-miterlimit="10" x1="170.357" y1="344.518" x2="170.357" y2="-78.043"/>
					
						<line fill="none" stroke="#FFFFFF" stroke-width="0.5" stroke-miterlimit="10" x1="187.448" y1="344.944" x2="187.448" y2="-77.617"/>
					
						<line fill="none" stroke="#FFFFFF" stroke-width="0.5" stroke-miterlimit="10" x1="85.261" y1="345.156" x2="85.261" y2="-77.404"/>
					
						<line fill="none" stroke="#FFFFFF" stroke-width="0.5" stroke-miterlimit="10" x1="68.17" y1="345.156" x2="68.17" y2="-77.404"/>
					
						<line fill="none" stroke="#FFFFFF" stroke-width="0.5" stroke-miterlimit="10" x1="102.352" y1="344.731" x2="102.352" y2="-77.83"/>
					
						<line fill="none" stroke="#FFFFFF" stroke-width="0.5" stroke-miterlimit="10" x1="119.443" y1="345.156" x2="119.443" y2="-77.404"/>
					
						<line fill="none" stroke="#FFFFFF" stroke-width="0.5" stroke-miterlimit="10" x1="16.897" y1="345.156" x2="16.897" y2="-77.404"/>
					
						<line fill="none" stroke="#FFFFFF" stroke-width="0.5" stroke-miterlimit="10" x1="-0.194" y1="345.156" x2="-0.194" y2="-77.404"/>
					
						<line fill="none" stroke="#FFFFFF" stroke-width="0.5" stroke-miterlimit="10" x1="33.988" y1="344.731" x2="33.988" y2="-77.83"/>
					
						<line fill="none" stroke="#FFFFFF" stroke-width="0.5" stroke-miterlimit="10" x1="51.079" y1="345.156" x2="51.079" y2="-77.404"/>
				</g>
				<g>
					
						<line fill="none" stroke="#FFFFFF" stroke-width="0.5" stroke-miterlimit="10" x1="-75.212" y1="220.077" x2="347.349" y2="220.077"/>
					
						<line fill="none" stroke="#FFFFFF" stroke-width="0.5" stroke-miterlimit="10" x1="-75.212" y1="202.986" x2="347.349" y2="202.986"/>
					
						<line fill="none" stroke="#FFFFFF" stroke-width="0.5" stroke-miterlimit="10" x1="-74.786" y1="237.168" x2="347.775" y2="237.168"/>
					
						<line fill="none" stroke="#FFFFFF" stroke-width="0.5" stroke-miterlimit="10" x1="-75.212" y1="254.259" x2="347.349" y2="254.259"/>
					
						<line fill="none" stroke="#FFFFFF" stroke-width="0.5" stroke-miterlimit="10" x1="-75.212" y1="151.713" x2="347.349" y2="151.713"/>
					
						<line fill="none" stroke="#FFFFFF" stroke-width="0.5" stroke-miterlimit="10" x1="-75.212" y1="134.622" x2="347.349" y2="134.622"/>
					
						<line fill="none" stroke="#FFFFFF" stroke-width="0.5" stroke-miterlimit="10" x1="-74.786" y1="168.804" x2="347.775" y2="168.804"/>
					
						<line fill="none" stroke="#FFFFFF" stroke-width="0.5" stroke-miterlimit="10" x1="-75.212" y1="185.895" x2="347.349" y2="185.895"/>
					
						<line fill="none" stroke="#FFFFFF" stroke-width="0.5" stroke-miterlimit="10" x1="-75.425" y1="83.707" x2="347.136" y2="83.707"/>
					
						<line fill="none" stroke="#FFFFFF" stroke-width="0.5" stroke-miterlimit="10" x1="-75.425" y1="66.616" x2="347.136" y2="66.616"/>
					
						<line fill="none" stroke="#FFFFFF" stroke-width="0.5" stroke-miterlimit="10" x1="-74.999" y1="100.798" x2="347.562" y2="100.798"/>
					
						<line fill="none" stroke="#FFFFFF" stroke-width="0.5" stroke-miterlimit="10" x1="-75.425" y1="117.889" x2="347.136" y2="117.889"/>
					
						<line fill="none" stroke="#FFFFFF" stroke-width="0.5" stroke-miterlimit="10" x1="-75.425" y1="15.344" x2="347.136" y2="15.344"/>
					
						<line fill="none" stroke="#FFFFFF" stroke-width="0.5" stroke-miterlimit="10" x1="-75.425" y1="-1.747" x2="347.136" y2="-1.747"/>
					
						<line fill="none" stroke="#FFFFFF" stroke-width="0.5" stroke-miterlimit="10" x1="-74.999" y1="32.435" x2="347.562" y2="32.435"/>
					
						<line fill="none" stroke="#FFFFFF" stroke-width="0.5" stroke-miterlimit="10" x1="-75.425" y1="49.526" x2="347.136" y2="49.526"/>
				</g>
			</g>
		</g>
	</g>
</g>
<g>
	<path fill="none" stroke="#FFFFFF" stroke-width="3" stroke-miterlimit="10" d="M63.485,129.569v-8.419l40.812-18.21v8.602
		l-32.485,13.909l32.485,13.726v8.602L63.485,129.569z"/>
	<path fill="none" stroke="#FFFFFF" stroke-width="3" stroke-miterlimit="10" d="M111.947,157.845l21.687-64.695h8.419
		l-21.688,64.695H111.947z"/>
	<path fill="none" stroke="#FFFFFF" stroke-width="3" stroke-miterlimit="10" d="M150.703,147.779v-8.602l32.485-13.726
		l-32.485-13.909v-8.602l40.812,18.21v8.419L150.703,147.779z"/>
</g>
<g>
	<line fill="none" stroke="#FFFFFF" stroke-miterlimit="10" x1="61.548" y1="82.916" x2="192.974" y2="82.916"/>
	<polygon fill="#FFFFFF" points="60.545,82.916 63.462,79.999 63.462,85.833 	"/>
	<polygon fill="#FFFFFF" points="192.974,82.916 190.057,85.833 190.057,79.999 	"/>
</g>
<g>
	<line fill="none" stroke="#FFFFFF" stroke-miterlimit="10" x1="54.06" y1="97.963" x2="54.06" y2="157.845"/>
	<polygon fill="#FFFFFF" points="54.06,96.96 56.977,99.877 51.143,99.877 	"/>
	<polygon fill="#FFFFFF" points="54.06,159.285 51.143,156.368 56.977,156.368 	"/>
</g>
<g>
	<line fill="none" stroke="#FFFFFF" stroke-miterlimit="10" x1="104.297" y1="73.845" x2="63.462" y2="73.845"/>
	<polygon fill="#FFFFFF" points="105.755,73.845 102.838,76.762 102.838,70.927 	"/>
	<polygon fill="#FFFFFF" points="60.545,73.845 63.462,70.927 63.462,76.762 	"/>
</g>
</svg>
