<?xml version="1.0" encoding="utf-8"?>
<!-- Generator: Adobe Illustrator 17.0.0, SVG Export Plug-In . SVG Version: 6.00 Build 0)  -->
<!DOCTYPE svg PUBLIC "-//W3C//DTD SVG 1.1//EN" "http://www.w3.org/Graphics/SVG/1.1/DTD/svg11.dtd">
<svg version="1.1" id="Layer_1" xmlns="http://www.w3.org/2000/svg" xmlns:xlink="http://www.w3.org/1999/xlink" x="0px" y="0px"
	 width="253px" height="253px" viewBox="0 0 253 253" enable-background="new 0 0 253 253" xml:space="preserve">
<g>
	<circle fill="#074E68" cx="126.053" cy="125.908" r="126"/>
	<g opacity="0.5" enable-background="new    ">
		<g>
			<defs>
				<circle id="SVGID_1_" cx="125.656" cy="125.636" r="126"/>
			</defs>
			<clipPath id="SVGID_2_">
				<use xlink:href="#SVGID_1_"  overflow="visible"/>
			</clipPath>
			<g clip-path="url(#SVGID_2_)">
				<g>
					
						<line fill="none" stroke="#FFFFFF" stroke-width="0.5" stroke-miterlimit="10" x1="219.855" y1="344.215" x2="219.855" y2="-78.346"/>
					
						<line fill="none" stroke="#FFFFFF" stroke-width="0.5" stroke-miterlimit="10" x1="202.764" y1="344.215" x2="202.764" y2="-78.346"/>
					
						<line fill="none" stroke="#FFFFFF" stroke-width="0.5" stroke-miterlimit="10" x1="236.946" y1="343.789" x2="236.946" y2="-78.771"/>
					
						<line fill="none" stroke="#FFFFFF" stroke-width="0.5" stroke-miterlimit="10" x1="254.037" y1="344.215" x2="254.037" y2="-78.346"/>
					
						<line fill="none" stroke="#FFFFFF" stroke-width="0.5" stroke-miterlimit="10" x1="151.491" y1="344.215" x2="151.491" y2="-78.346"/>
					
						<line fill="none" stroke="#FFFFFF" stroke-width="0.5" stroke-miterlimit="10" x1="134.4" y1="344.215" x2="134.4" y2="-78.346"/>
					
						<line fill="none" stroke="#FFFFFF" stroke-width="0.5" stroke-miterlimit="10" x1="168.582" y1="343.789" x2="168.582" y2="-78.771"/>
					
						<line fill="none" stroke="#FFFFFF" stroke-width="0.5" stroke-miterlimit="10" x1="185.673" y1="344.215" x2="185.673" y2="-78.346"/>
					
						<line fill="none" stroke="#FFFFFF" stroke-width="0.5" stroke-miterlimit="10" x1="83.485" y1="344.428" x2="83.485" y2="-78.133"/>
					
						<line fill="none" stroke="#FFFFFF" stroke-width="0.5" stroke-miterlimit="10" x1="66.394" y1="344.428" x2="66.394" y2="-78.133"/>
					
						<line fill="none" stroke="#FFFFFF" stroke-width="0.5" stroke-miterlimit="10" x1="100.576" y1="344.002" x2="100.576" y2="-78.558"/>
					
						<line fill="none" stroke="#FFFFFF" stroke-width="0.5" stroke-miterlimit="10" x1="117.667" y1="344.428" x2="117.667" y2="-78.133"/>
					
						<line fill="none" stroke="#FFFFFF" stroke-width="0.5" stroke-miterlimit="10" x1="15.121" y1="344.428" x2="15.121" y2="-78.133"/>
					
						<line fill="none" stroke="#FFFFFF" stroke-width="0.5" stroke-miterlimit="10" x1="-1.97" y1="344.428" x2="-1.97" y2="-78.133"/>
					
						<line fill="none" stroke="#FFFFFF" stroke-width="0.5" stroke-miterlimit="10" x1="32.212" y1="344.002" x2="32.212" y2="-78.558"/>
					
						<line fill="none" stroke="#FFFFFF" stroke-width="0.5" stroke-miterlimit="10" x1="49.303" y1="344.428" x2="49.303" y2="-78.133"/>
				</g>
				<g>
					
						<line fill="none" stroke="#FFFFFF" stroke-width="0.5" stroke-miterlimit="10" x1="-76.987" y1="219.349" x2="345.574" y2="219.349"/>
					
						<line fill="none" stroke="#FFFFFF" stroke-width="0.5" stroke-miterlimit="10" x1="-76.987" y1="202.258" x2="345.574" y2="202.258"/>
					
						<line fill="none" stroke="#FFFFFF" stroke-width="0.5" stroke-miterlimit="10" x1="-76.561" y1="236.44" x2="346" y2="236.44"/>
					
						<line fill="none" stroke="#FFFFFF" stroke-width="0.5" stroke-miterlimit="10" x1="-76.987" y1="253.531" x2="345.574" y2="253.531"/>
					
						<line fill="none" stroke="#FFFFFF" stroke-width="0.5" stroke-miterlimit="10" x1="-76.987" y1="150.985" x2="345.574" y2="150.985"/>
					
						<line fill="none" stroke="#FFFFFF" stroke-width="0.5" stroke-miterlimit="10" x1="-76.987" y1="133.894" x2="345.574" y2="133.894"/>
					
						<line fill="none" stroke="#FFFFFF" stroke-width="0.5" stroke-miterlimit="10" x1="-76.561" y1="168.076" x2="346" y2="168.076"/>
					
						<line fill="none" stroke="#FFFFFF" stroke-width="0.5" stroke-miterlimit="10" x1="-76.987" y1="185.167" x2="345.574" y2="185.167"/>
					
						<line fill="none" stroke="#FFFFFF" stroke-width="0.5" stroke-miterlimit="10" x1="-77.2" y1="82.979" x2="345.361" y2="82.979"/>
					
						<line fill="none" stroke="#FFFFFF" stroke-width="0.5" stroke-miterlimit="10" x1="-77.2" y1="65.888" x2="345.361" y2="65.888"/>
					
						<line fill="none" stroke="#FFFFFF" stroke-width="0.5" stroke-miterlimit="10" x1="-76.774" y1="100.07" x2="345.787" y2="100.07"/>
					
						<line fill="none" stroke="#FFFFFF" stroke-width="0.5" stroke-miterlimit="10" x1="-77.2" y1="117.161" x2="345.361" y2="117.161"/>
					
						<line fill="none" stroke="#FFFFFF" stroke-width="0.5" stroke-miterlimit="10" x1="-77.2" y1="14.615" x2="345.361" y2="14.615"/>
					
						<line fill="none" stroke="#FFFFFF" stroke-width="0.5" stroke-miterlimit="10" x1="-77.2" y1="-2.476" x2="345.361" y2="-2.476"/>
					
						<line fill="none" stroke="#FFFFFF" stroke-width="0.5" stroke-miterlimit="10" x1="-76.774" y1="31.706" x2="345.787" y2="31.706"/>
					
						<line fill="none" stroke="#FFFFFF" stroke-width="0.5" stroke-miterlimit="10" x1="-77.2" y1="48.797" x2="345.361" y2="48.797"/>
				</g>
			</g>
		</g>
	</g>
</g>
<path fill="none" stroke="#FFFFFF" stroke-width="3" stroke-miterlimit="10" d="M-162.53-246.951"/>
<g>
	<line fill="none" stroke="#FFFFFF" stroke-miterlimit="10" x1="195.11" y1="175.494" x2="195.11" y2="85.194"/>
	<polygon fill="#FFFFFF" points="195.111,176.953 192.194,174.036 198.028,174.036 	"/>
	<polygon fill="#FFFFFF" points="195.111,84.194 198.028,87.111 192.194,87.111 	"/>
</g>
<polygon fill="none" stroke="#FFFFFF" stroke-width="3" stroke-miterlimit="10" points="169.682,153.087 81.582,153.087 
	85.75,85.692 165.513,85.692 "/>
<rect x="79.362" y="158.723" fill="#FFFFFF" width="92.236" height="3"/>
<polyline fill="none" stroke="#FFFFFF" stroke-width="3" stroke-miterlimit="10" points="80.863,91.528 73.421,169.762 
	177.843,169.762 170.818,91.528 "/>
<g>
	<g>
		<g>
			<path fill="none" stroke="#FFFFFF" stroke-width="3" stroke-miterlimit="10" d="M108.814,131.298l0.565-0.64
				c2.012-2.316,5.715-2.967,8.321-1.447c0,0,2.743,1.569,7.558,1.569c4.892,0,7.402-1.682,7.326-4.14
				c-0.189-6.145-21.912-1.746-20.617-13.777c0.55-5.11,5.415-9.443,13.306-9.443c5.305,0,9.409,1.876,12.403,4.333l-0.266,0.489
				c-1.316,2.364-4.437,2.999-6.843,1.41c0,0-1.287-0.864-5.389-0.864c-3.698,0-6.083,1.682-6.214,3.881
				c-0.329,5.498,20.273,1.358,21.25,13.777c0.437,5.562-4.929,9.767-15.357,9.767C118.198,136.214,112.421,134.467,108.814,131.298
				z"/>
		</g>
	</g>
</g>
<g>
	<line fill="none" stroke="#FFFFFF" stroke-miterlimit="10" x1="165.736" y1="71.916" x2="82.582" y2="71.916"/>
	<polygon fill="#FFFFFF" points="167.195,71.916 164.278,74.833 164.278,68.999 	"/>
	<polygon fill="#FFFFFF" points="81.582,71.916 84.499,68.999 84.499,74.833 	"/>
</g>
<rect x="72.042" y="175.536" fill="#FFFFFF" width="108.125" height="3"/>
</svg>
