<?xml version="1.0" encoding="utf-8"?>
<!-- Generator: Adobe Illustrator 17.0.0, SVG Export Plug-In . SVG Version: 6.00 Build 0)  -->
<!DOCTYPE svg PUBLIC "-//W3C//DTD SVG 1.1//EN" "http://www.w3.org/Graphics/SVG/1.1/DTD/svg11.dtd">
<svg version="1.1" id="Layer_1" xmlns="http://www.w3.org/2000/svg" xmlns:xlink="http://www.w3.org/1999/xlink" x="0px" y="0px"
	 width="253px" height="253px" viewBox="0 0 253 253" enable-background="new 0 0 253 253" xml:space="preserve">
<g>
	<circle fill="#074E68" cx="126.053" cy="125.908" r="126"/>
	<g opacity="0.5" enable-background="new    ">
		<g>
			<defs>
				<circle id="SVGID_1_" cx="125.656" cy="125.636" r="126"/>
			</defs>
			<clipPath id="SVGID_2_">
				<use xlink:href="#SVGID_1_"  overflow="visible"/>
			</clipPath>
			<g clip-path="url(#SVGID_2_)">
				<g>
					
						<line fill="none" stroke="#FFFFFF" stroke-width="0.5" stroke-miterlimit="10" x1="219.855" y1="344.215" x2="219.855" y2="-78.346"/>
					
						<line fill="none" stroke="#FFFFFF" stroke-width="0.5" stroke-miterlimit="10" x1="202.764" y1="344.215" x2="202.764" y2="-78.346"/>
					
						<line fill="none" stroke="#FFFFFF" stroke-width="0.5" stroke-miterlimit="10" x1="236.946" y1="343.789" x2="236.946" y2="-78.771"/>
					
						<line fill="none" stroke="#FFFFFF" stroke-width="0.5" stroke-miterlimit="10" x1="254.037" y1="344.215" x2="254.037" y2="-78.346"/>
					
						<line fill="none" stroke="#FFFFFF" stroke-width="0.5" stroke-miterlimit="10" x1="151.491" y1="344.215" x2="151.491" y2="-78.346"/>
					
						<line fill="none" stroke="#FFFFFF" stroke-width="0.5" stroke-miterlimit="10" x1="134.4" y1="344.215" x2="134.4" y2="-78.346"/>
					
						<line fill="none" stroke="#FFFFFF" stroke-width="0.5" stroke-miterlimit="10" x1="168.582" y1="343.789" x2="168.582" y2="-78.771"/>
					
						<line fill="none" stroke="#FFFFFF" stroke-width="0.5" stroke-miterlimit="10" x1="185.673" y1="344.215" x2="185.673" y2="-78.346"/>
					
						<line fill="none" stroke="#FFFFFF" stroke-width="0.5" stroke-miterlimit="10" x1="83.485" y1="344.428" x2="83.485" y2="-78.133"/>
					
						<line fill="none" stroke="#FFFFFF" stroke-width="0.5" stroke-miterlimit="10" x1="66.394" y1="346.095" x2="66.394" y2="-76.466"/>
					
						<line fill="none" stroke="#FFFFFF" stroke-width="0.5" stroke-miterlimit="10" x1="100.576" y1="344.002" x2="100.576" y2="-78.558"/>
					
						<line fill="none" stroke="#FFFFFF" stroke-width="0.5" stroke-miterlimit="10" x1="117.667" y1="344.428" x2="117.667" y2="-78.133"/>
					
						<line fill="none" stroke="#FFFFFF" stroke-width="0.5" stroke-miterlimit="10" x1="15.121" y1="344.428" x2="15.121" y2="-78.133"/>
					
						<line fill="none" stroke="#FFFFFF" stroke-width="0.5" stroke-miterlimit="10" x1="-1.97" y1="344.428" x2="-1.97" y2="-78.133"/>
					
						<line fill="none" stroke="#FFFFFF" stroke-width="0.5" stroke-miterlimit="10" x1="32.212" y1="344.002" x2="32.212" y2="-78.558"/>
					
						<line fill="none" stroke="#FFFFFF" stroke-width="0.5" stroke-miterlimit="10" x1="49.303" y1="344.428" x2="49.303" y2="-78.133"/>
				</g>
				<g>
					
						<line fill="none" stroke="#FFFFFF" stroke-width="0.5" stroke-miterlimit="10" x1="-76.987" y1="219.349" x2="345.574" y2="219.349"/>
					
						<line fill="none" stroke="#FFFFFF" stroke-width="0.5" stroke-miterlimit="10" x1="-76.987" y1="202.258" x2="345.574" y2="202.258"/>
					
						<line fill="none" stroke="#FFFFFF" stroke-width="0.5" stroke-miterlimit="10" x1="-76.561" y1="236.44" x2="346" y2="236.44"/>
					
						<line fill="none" stroke="#FFFFFF" stroke-width="0.5" stroke-miterlimit="10" x1="-76.987" y1="253.531" x2="345.574" y2="253.531"/>
					
						<line fill="none" stroke="#FFFFFF" stroke-width="0.5" stroke-miterlimit="10" x1="-76.987" y1="150.985" x2="345.574" y2="150.985"/>
					
						<line fill="none" stroke="#FFFFFF" stroke-width="0.5" stroke-miterlimit="10" x1="-76.987" y1="133.894" x2="345.574" y2="133.894"/>
					
						<line fill="none" stroke="#FFFFFF" stroke-width="0.5" stroke-miterlimit="10" x1="-76.561" y1="168.076" x2="346" y2="168.076"/>
					
						<line fill="none" stroke="#FFFFFF" stroke-width="0.5" stroke-miterlimit="10" x1="-76.987" y1="185.167" x2="345.574" y2="185.167"/>
					
						<line fill="none" stroke="#FFFFFF" stroke-width="0.5" stroke-miterlimit="10" x1="-77.2" y1="82.979" x2="345.361" y2="82.979"/>
					
						<line fill="none" stroke="#FFFFFF" stroke-width="0.5" stroke-miterlimit="10" x1="-77.2" y1="65.888" x2="345.361" y2="65.888"/>
					
						<line fill="none" stroke="#FFFFFF" stroke-width="0.5" stroke-miterlimit="10" x1="-76.774" y1="100.07" x2="345.787" y2="100.07"/>
					
						<line fill="none" stroke="#FFFFFF" stroke-width="0.5" stroke-miterlimit="10" x1="-77.2" y1="117.161" x2="345.361" y2="117.161"/>
					
						<line fill="none" stroke="#FFFFFF" stroke-width="0.5" stroke-miterlimit="10" x1="-77.2" y1="14.615" x2="345.361" y2="14.615"/>
					
						<line fill="none" stroke="#FFFFFF" stroke-width="0.5" stroke-miterlimit="10" x1="-77.2" y1="-2.476" x2="345.361" y2="-2.476"/>
					
						<line fill="none" stroke="#FFFFFF" stroke-width="0.5" stroke-miterlimit="10" x1="-76.774" y1="31.706" x2="345.787" y2="31.706"/>
					
						<line fill="none" stroke="#FFFFFF" stroke-width="0.5" stroke-miterlimit="10" x1="-77.2" y1="48.797" x2="345.361" y2="48.797"/>
				</g>
			</g>
		</g>
	</g>
</g>
<g>
	<line fill="none" stroke="#FFFFFF" stroke-miterlimit="10" x1="164.339" y1="184.25" x2="87.165" y2="184.25"/>
	<polygon fill="#FFFFFF" points="165.798,184.25 162.881,187.167 162.881,181.333 	"/>
	<polygon fill="#FFFFFF" points="86.165,184.25 89.082,181.333 89.082,187.167 	"/>
</g>
<rect x="88.342" y="73.746" fill="none" stroke="#FFFFFF" stroke-width="3" stroke-miterlimit="10" width="75.997" height="101.329"/>
<polyline fill="none" stroke="#FFFFFF" stroke-width="3" stroke-miterlimit="10" points="83.833,163.916 75.268,163.916 
	75.268,78.18 83.833,78.18 "/>
<rect x="67.5" y="81.25" fill="#FFFFFF" width="3" height="72.97"/>
<polyline fill="none" stroke="#FFFFFF" stroke-width="3" stroke-miterlimit="10" points="169.176,163.381 177.741,163.381 
	177.741,77.645 169.176,77.645 "/>
<rect x="182.509" y="80.715" fill="#FFFFFF" width="3" height="72.97"/>
<rect x="94.75" y="82.833" fill="none" stroke="#FFFFFF" stroke-width="3" stroke-miterlimit="10" width="61.75" height="37.68"/>
<rect x="94.75" y="126.76" fill="none" stroke="#FFFFFF" stroke-width="3" stroke-miterlimit="10" width="16.25" height="16.25"/>
<rect x="117.5" y="126.375" fill="none" stroke="#FFFFFF" stroke-width="3" stroke-miterlimit="10" width="16.25" height="16.25"/>
<rect x="140.25" y="126.76" fill="none" stroke="#FFFFFF" stroke-width="3" stroke-miterlimit="10" width="16.25" height="16.25"/>
<rect x="93.015" y="147.333" fill="#FFFFFF" width="64.985" height="3"/>
<rect x="93.015" y="153.08" fill="#FFFFFF" width="64.985" height="3"/>
<rect x="93.015" y="158.827" fill="#FFFFFF" width="64.985" height="3"/>
<rect x="93.015" y="164.575" fill="#FFFFFF" width="64.985" height="3"/>
<g>
	<line fill="none" stroke="#FFFFFF" stroke-miterlimit="10" x1="195.798" y1="175.076" x2="195.798" y2="72.468"/>
	<polygon fill="#FFFFFF" points="195.798,176.534 192.881,173.617 198.715,173.617 	"/>
	<polygon fill="#FFFFFF" points="195.798,71.468 198.715,74.385 192.881,74.385 	"/>
</g>
</svg>
