<?xml version="1.0" encoding="utf-8"?>
<!-- Generator: Adobe Illustrator 17.0.0, SVG Export Plug-In . SVG Version: 6.00 Build 0)  -->
<!DOCTYPE svg PUBLIC "-//W3C//DTD SVG 1.1//EN" "http://www.w3.org/Graphics/SVG/1.1/DTD/svg11.dtd">
<svg version="1.1" id="Layer_1" xmlns="http://www.w3.org/2000/svg" xmlns:xlink="http://www.w3.org/1999/xlink" x="0px" y="0px"
	 width="253px" height="253px" viewBox="0 0 253 253" enable-background="new 0 0 253 253" xml:space="preserve">
<g>
	<g>
		<circle fill="#074E68" cx="126.416" cy="126.636" r="126"/>
		<g opacity="0.5" enable-background="new    ">
			<g>
				<g>
					<defs>
						<circle id="SVGID_1_" cx="126.019" cy="126.364" r="126"/>
					</defs>
					<clipPath id="SVGID_2_">
						<use xlink:href="#SVGID_1_"  overflow="visible"/>
					</clipPath>
					<g clip-path="url(#SVGID_2_)">
						<g>
							
								<line fill="none" stroke="#FFFFFF" stroke-width="0.5" stroke-miterlimit="10" x1="220.218" y1="344.944" x2="220.218" y2="-77.617"/>
							
								<line fill="none" stroke="#FFFFFF" stroke-width="0.5" stroke-miterlimit="10" x1="203.127" y1="344.944" x2="203.127" y2="-77.617"/>
							
								<line fill="none" stroke="#FFFFFF" stroke-width="0.5" stroke-miterlimit="10" x1="237.309" y1="344.518" x2="237.309" y2="-78.043"/>
							
								<line fill="none" stroke="#FFFFFF" stroke-width="0.5" stroke-miterlimit="10" x1="254.4" y1="344.944" x2="254.4" y2="-77.617"/>
							
								<line fill="none" stroke="#FFFFFF" stroke-width="0.5" stroke-miterlimit="10" x1="151.854" y1="344.944" x2="151.854" y2="-77.617"/>
							
								<line fill="none" stroke="#FFFFFF" stroke-width="0.5" stroke-miterlimit="10" x1="134.763" y1="344.944" x2="134.763" y2="-77.617"/>
							
								<line fill="none" stroke="#FFFFFF" stroke-width="0.5" stroke-miterlimit="10" x1="168.945" y1="344.518" x2="168.945" y2="-78.043"/>
							
								<line fill="none" stroke="#FFFFFF" stroke-width="0.5" stroke-miterlimit="10" x1="186.036" y1="344.944" x2="186.036" y2="-77.617"/>
							
								<line fill="none" stroke="#FFFFFF" stroke-width="0.5" stroke-miterlimit="10" x1="83.848" y1="345.156" x2="83.848" y2="-77.404"/>
							
								<line fill="none" stroke="#FFFFFF" stroke-width="0.5" stroke-miterlimit="10" x1="66.757" y1="346.823" x2="66.757" y2="-75.738"/>
							
								<line fill="none" stroke="#FFFFFF" stroke-width="0.5" stroke-miterlimit="10" x1="100.939" y1="344.731" x2="100.939" y2="-77.83"/>
							
								<line fill="none" stroke="#FFFFFF" stroke-width="0.5" stroke-miterlimit="10" x1="118.03" y1="345.156" x2="118.03" y2="-77.404"/>
							
								<line fill="none" stroke="#FFFFFF" stroke-width="0.5" stroke-miterlimit="10" x1="15.484" y1="345.156" x2="15.484" y2="-77.404"/>
							
								<line fill="none" stroke="#FFFFFF" stroke-width="0.5" stroke-miterlimit="10" x1="-1.607" y1="345.156" x2="-1.607" y2="-77.404"/>
							
								<line fill="none" stroke="#FFFFFF" stroke-width="0.5" stroke-miterlimit="10" x1="32.575" y1="344.731" x2="32.575" y2="-77.83"/>
							
								<line fill="none" stroke="#FFFFFF" stroke-width="0.5" stroke-miterlimit="10" x1="49.666" y1="345.156" x2="49.666" y2="-77.404"/>
						</g>
						<g>
							
								<line fill="none" stroke="#FFFFFF" stroke-width="0.5" stroke-miterlimit="10" x1="-76.624" y1="220.077" x2="345.937" y2="220.077"/>
							
								<line fill="none" stroke="#FFFFFF" stroke-width="0.5" stroke-miterlimit="10" x1="-76.624" y1="202.986" x2="345.937" y2="202.986"/>
							
								<line fill="none" stroke="#FFFFFF" stroke-width="0.5" stroke-miterlimit="10" x1="-76.198" y1="237.168" x2="346.363" y2="237.168"/>
							
								<line fill="none" stroke="#FFFFFF" stroke-width="0.5" stroke-miterlimit="10" x1="-76.624" y1="254.259" x2="345.937" y2="254.259"/>
							
								<line fill="none" stroke="#FFFFFF" stroke-width="0.5" stroke-miterlimit="10" x1="-76.624" y1="151.713" x2="345.937" y2="151.713"/>
							
								<line fill="none" stroke="#FFFFFF" stroke-width="0.5" stroke-miterlimit="10" x1="-76.624" y1="134.622" x2="345.937" y2="134.622"/>
							
								<line fill="none" stroke="#FFFFFF" stroke-width="0.5" stroke-miterlimit="10" x1="-76.198" y1="168.804" x2="346.363" y2="168.804"/>
							
								<line fill="none" stroke="#FFFFFF" stroke-width="0.5" stroke-miterlimit="10" x1="-76.624" y1="185.895" x2="345.937" y2="185.895"/>
							
								<line fill="none" stroke="#FFFFFF" stroke-width="0.5" stroke-miterlimit="10" x1="-76.837" y1="83.707" x2="345.724" y2="83.707"/>
							
								<line fill="none" stroke="#FFFFFF" stroke-width="0.5" stroke-miterlimit="10" x1="-76.837" y1="66.617" x2="345.724" y2="66.617"/>
							
								<line fill="none" stroke="#FFFFFF" stroke-width="0.5" stroke-miterlimit="10" x1="-76.411" y1="100.798" x2="346.15" y2="100.798"/>
							
								<line fill="none" stroke="#FFFFFF" stroke-width="0.5" stroke-miterlimit="10" x1="-76.837" y1="117.889" x2="345.724" y2="117.889"/>
							
								<line fill="none" stroke="#FFFFFF" stroke-width="0.5" stroke-miterlimit="10" x1="-76.837" y1="15.344" x2="345.724" y2="15.344"/>
							
								<line fill="none" stroke="#FFFFFF" stroke-width="0.5" stroke-miterlimit="10" x1="-76.837" y1="-1.747" x2="345.724" y2="-1.747"/>
							
								<line fill="none" stroke="#FFFFFF" stroke-width="0.5" stroke-miterlimit="10" x1="-76.411" y1="32.435" x2="346.15" y2="32.435"/>
							
								<line fill="none" stroke="#FFFFFF" stroke-width="0.5" stroke-miterlimit="10" x1="-76.837" y1="49.526" x2="345.724" y2="49.526"/>
						</g>
					</g>
				</g>
			</g>
		</g>
	</g>
	<g>
		<line fill="none" stroke="#FFFFFF" stroke-miterlimit="10" x1="196.11" y1="167" x2="196.11" y2="84.99"/>
		<polygon fill="#FFFFFF" points="196.11,169.036 193.193,166.119 199.027,166.119 		"/>
		<polygon fill="#FFFFFF" points="196.11,82.073 199.027,84.99 193.193,84.99 		"/>
	</g>
	<g>
		<line fill="none" stroke="#FFFFFF" stroke-miterlimit="10" x1="187.227" y1="179.311" x2="64.97" y2="179.311"/>
		<polygon fill="#FFFFFF" points="188.685,179.311 185.768,182.228 185.768,176.394 		"/>
		<polygon fill="#FFFFFF" points="63.512,179.311 66.429,176.394 66.429,182.228 		"/>
	</g>
	<g>
		
			<rect x="64.97" y="83.532" fill="none" stroke="#FFFFFF" stroke-width="3" stroke-miterlimit="10" width="122.495" height="84.797"/>
		<g>
			<circle fill="none" stroke="#FFFFFF" stroke-width="3" stroke-miterlimit="10" cx="126.218" cy="122.685" r="21.905"/>
			<polygon fill="none" stroke="#FFFFFF" stroke-width="3" stroke-miterlimit="10" points="120.608,135.598 120.238,109.772 
				138.557,122.587 			"/>
		</g>
		<line fill="none" stroke="#FFFFFF" stroke-width="3" stroke-miterlimit="10" x1="64.97" y1="160.816" x2="187.465" y2="160.816"/>
	</g>
</g>
</svg>
