<?xml version="1.0" encoding="utf-8"?>
<!-- Generator: Adobe Illustrator 19.1.0, SVG Export Plug-In . SVG Version: 6.00 Build 0)  -->
<svg version="1.1" id="Layer_1" xmlns="http://www.w3.org/2000/svg" xmlns:xlink="http://www.w3.org/1999/xlink" x="0px" y="0px"
	 width="700px" height="700px" viewBox="215 -215 700 700" style="enable-background:new 215 -215 700 700;" xml:space="preserve">
<style type="text/css">
	.st0{fill:url(#SVGID_1_);}
	.st1{fill:url(#SVGID_2_);}
	.st2{opacity:0.2;fill:#FFFFFF;enable-background:new    ;}
	.st3{fill:#FFFFFF;}
	.st4{opacity:0.15;fill:#FFFFFF;enable-background:new    ;}
	.st5{clip-path:url(#SVGID_4_);}
	.st6{fill:url(#SVGID_5_);}
	.st7{clip-path:url(#SVGID_7_);}
	.st8{fill:url(#SVGID_8_);}
	.st9{fill:url(#SVGID_9_);}
	.st10{fill:url(#SVGID_10_);}
	.st11{fill:url(#SVGID_11_);}
	.st12{fill:url(#SVGID_12_);}
	.st13{fill:url(#SVGID_13_);}
	.st14{fill:url(#SVGID_14_);}
	.st15{fill:url(#SVGID_15_);}
	.st16{opacity:0.6;fill:url(#SVGID_16_);enable-background:new    ;}
	.st17{opacity:0.6;fill:#FFFFFF;enable-background:new    ;}
	.st18{opacity:0.1;clip-path:url(#SVGID_4_);fill:#FFFFFF;enable-background:new    ;}
	.st19{fill:#585C7A;}
</style>
<linearGradient id="SVGID_1_" gradientUnits="userSpaceOnUse" x1="281.3176" y1="-230.0187" x2="608.3176" y2="189.9813" gradientTransform="matrix(1 0 0 -1 0 270)">
	<stop  offset="0" style="stop-color:#1C292E"/>
	<stop  offset="1" style="stop-color:#1C292E"/>
</linearGradient>
<circle class="st0" cx="565.9" cy="134.5" r="343.8"/>
<g id="sun">
	
		<radialGradient id="SVGID_2_" cx="690.6" cy="274.5" r="151.1" gradientTransform="matrix(1 0 0 -1 0 270)" gradientUnits="userSpaceOnUse">
		<stop  offset="0" style="stop-color:#FFFFFF"/>
		<stop  offset="5.347797e-02" style="stop-color:#C4C7CD"/>
		<stop  offset="0.1292" style="stop-color:#8E96A1"/>
		<stop  offset="0.2062" style="stop-color:#677482"/>
		<stop  offset="0.2829" style="stop-color:#495D6C"/>
		<stop  offset="0.3594" style="stop-color:#324E5D"/>
		<stop  offset="0.4355" style="stop-color:#204453"/>
		<stop  offset="0.5113" style="stop-color:#123E4E"/>
		<stop  offset="0.5862" style="stop-color:#0C3C4C"/>
		<stop  offset="1" style="stop-color:#1C292E;stop-opacity:0.95"/>
	</radialGradient>
	<circle class="st1" cx="690.6" cy="-4.5" r="151.1"/>
	<circle class="st2" cx="688.7" cy="-2.2" r="22.9"/>
	<circle class="st3" cx="688.7" cy="-2.2" r="8.5"/>
	<circle class="st4" cx="688.7" cy="-2.2" r="39.6"/>
</g>
<g>
	<g>
		<defs>
			<circle id="SVGID_3_" cx="565.9" cy="134.5" r="343.8"/>
		</defs>
		<clipPath id="SVGID_4_">
			<use xlink:href="#SVGID_3_"  style="overflow:visible;"/>
		</clipPath>
		<g class="st5">
			
				<linearGradient id="SVGID_5_" gradientUnits="userSpaceOnUse" x1="670.376" y1="277.7338" x2="333.9126" y2="-163.2963" gradientTransform="matrix(1 0 0 -1 0 270)">
				<stop  offset="0" style="stop-color:#FFFFFF"/>
				<stop  offset="0.16" style="stop-color:#0381B4"/>
				<stop  offset="0.3257" style="stop-color:#0C3C4C"/>
				<stop  offset="0.5183" style="stop-color:#1C292E"/>
				<stop  offset="0.767" style="stop-color:#1C292E"/>
				<stop  offset="0.9214" style="stop-color:#D37A58"/>
				<stop  offset="0.9746" style="stop-color:#F3AA8C"/>
				<stop  offset="1" style="stop-color:#F2C086"/>
			</linearGradient>
			<circle class="st6" cx="497.4" cy="219" r="275.3"/>
			<g>
				<g>
					<defs>
						<circle id="SVGID_6_" cx="497.4" cy="219" r="275.3"/>
					</defs>
					<clipPath id="SVGID_7_">
						<use xlink:href="#SVGID_6_"  style="overflow:visible;"/>
					</clipPath>
					<g class="st7">
						
							<linearGradient id="SVGID_8_" gradientUnits="userSpaceOnUse" x1="507.2431" y1="336.885" x2="278.9058" y2="28.5321" gradientTransform="matrix(1 0 0 -1 0 270)">
							<stop  offset="0" style="stop-color:#FFFFFF"/>
							<stop  offset="0.2442" style="stop-color:#1C7FC0"/>
							<stop  offset="0.3715" style="stop-color:#0C3C4C"/>
							<stop  offset="0.6372" style="stop-color:#1C292E"/>
						</linearGradient>
						<path class="st8" d="M415.7,224.8l-31.5-9.7l-3.2-13.8l-30.4-14.4l-3.2-12.3h-21.9l-8-5.9l-7.5,5.9c0,0-10.1,3.7-11.7,3.7
							s-16,4.3-16,4.3l-6.9,8l-23.5-5.9l-6.9-7.5l-2.7-11.7l1.6-36.3l17.1-13.8l11.7-1.6v-6.9l12.3,1.6l10.7,20.3l3.7-4.3l-0.5-17.1
							l9.6-10.7l6.9-10.7l3.2-8l6.4-5.9h13.3l2.1-3.7L342,62l9.6-6.4l2.1,8.5l4.3-3.7l9.6-6.4l-8-7.5l2.1-5.3l5.3,1.6l3.7-2.7
							l7.5-1.6l-2.1,5.9l11.7,5.9l8-1.1l-9.6-10.1l4.8-5.9l-4.8-8.5l-6.4-17.1l-11.2,2.7L368.1-3h-15.5l-6.4,16.5l-8.5,12.3
							l-10.4,1.6v-5.9l-6.1-3.7l-9.8-1.8L300,7.1l-55,51.7l-22.9,75.8l3.8,38.7c0,0,9.5,8.8,10.1,11.5c0.5,2.7,12.3,13.9,12.3,13.9
							l35.2,8.5l7.5,17.1l110.4,69.4h8l5.9-11.7l5.3-25.6l9.6-11.7l2.7-6.9L415.7,224.8z"/>
						
							<linearGradient id="SVGID_9_" gradientUnits="userSpaceOnUse" x1="465.7287" y1="444.0016" x2="132.8221" y2="-5.5646" gradientTransform="matrix(1 0 0 -1 0 270)">
							<stop  offset="0" style="stop-color:#FFFFFF"/>
							<stop  offset="0.2442" style="stop-color:#1C7FC0"/>
							<stop  offset="0.3715" style="stop-color:#0C3C4C"/>
							<stop  offset="0.6372" style="stop-color:#1C292E"/>
						</linearGradient>
						<polygon class="st9" points="332.1,-1.1 340,1.2 346.9,0.1 346.9,-8.4 337.3,-14.2 						"/>
						
							<linearGradient id="SVGID_10_" gradientUnits="userSpaceOnUse" x1="481.6852" y1="432.1859" x2="148.7785" y2="-17.3803" gradientTransform="matrix(1 0 0 -1 0 270)">
							<stop  offset="0" style="stop-color:#FFFFFF"/>
							<stop  offset="0.2442" style="stop-color:#1C7FC0"/>
							<stop  offset="0.3715" style="stop-color:#0C3C4C"/>
							<stop  offset="0.6372" style="stop-color:#1C292E"/>
						</linearGradient>
						<polygon class="st10" points="351.7,-19.6 363.5,-16.9 369.3,-16.9 357,-10.5 358.1,-6.5 366.7,-6.5 377.9,-3 385.3,-6.5 
							385.3,-11.3 390.1,-11.3 396.5,-14.2 385.9,-19.6 389.1,-23.8 389.1,-27.6 374.1,-31.3 						"/>
						
							<linearGradient id="SVGID_11_" gradientUnits="userSpaceOnUse" x1="524.0844" y1="400.7888" x2="191.1779" y2="-48.7773" gradientTransform="matrix(1 0 0 -1 0 270)">
							<stop  offset="0" style="stop-color:#FFFFFF"/>
							<stop  offset="0.2442" style="stop-color:#1C7FC0"/>
							<stop  offset="0.3715" style="stop-color:#0C3C4C"/>
							<stop  offset="0.6372" style="stop-color:#1C292E"/>
						</linearGradient>
						<path class="st11" d="M410.9-49.5l6.4,10.1V-26l-3.2,8.8v12.5l11.7,10.1H437l12.8-19.7h10.7l5.3-2.9c0,0,10.7,1.9,12.8,0
							c2.1-1.9,13.3-4.8,13.3-4.8l-4.3-9.3l-4.3-4.8l8.5-1.1l5.3,2.1l12.3-4.3l-8.5-6.4l3.7-3.7l11.8-6.1l-55-11.5L410.9-49.5z"/>
						
							<linearGradient id="SVGID_12_" gradientUnits="userSpaceOnUse" x1="559.4208" y1="374.6221" x2="226.5142" y2="-74.9441" gradientTransform="matrix(1 0 0 -1 0 270)">
							<stop  offset="0" style="stop-color:#FFFFFF"/>
							<stop  offset="0.2442" style="stop-color:#1C7FC0"/>
							<stop  offset="0.3715" style="stop-color:#0C3C4C"/>
							<stop  offset="0.6372" style="stop-color:#1C292E"/>
						</linearGradient>
						<polygon class="st12" points="488.3,-14.2 478.2,-11.6 478.2,-3 488.3,-3 495.4,-3 504.8,-14.2 497.4,-14.2 						"/>
						
							<linearGradient id="SVGID_13_" gradientUnits="userSpaceOnUse" x1="720.0121" y1="255.7032" x2="387.1055" y2="-193.8631" gradientTransform="matrix(1 0 0 -1 0 270)">
							<stop  offset="0" style="stop-color:#FFFFFF"/>
							<stop  offset="0.2442" style="stop-color:#1C7FC0"/>
							<stop  offset="0.3715" style="stop-color:#0C3C4C"/>
							<stop  offset="0.6372" style="stop-color:#1C292E"/>
						</linearGradient>
						<path class="st13" d="M641.9-17.2h-7.5c0,0-19.2-2.4-20.8-2.9s-14.9-5.3-14.9-5.3L572-21.3L553.9-3v8.5h9.1l5.9,19.2
							c0,0,11.7-4.8,11.7-8.5s-1.1-16-1.1-19.2s13.9-5.6,13.9-5.6l-5.3,14.1l3.7,8.5l-8,10.7l-5.9,2.7h-19.7l-4.3,2.1l-16,9.1
							l-13.3,3.2l3.7,15.5l-11.6,5.9H508l-3.2,17.1l14.9,12.3c0,0,18.7-13.3,18.7-15.5c0-2.1,8-13.9,8-13.9l9.1-7.5l17.9,11.2
							l2.9,15.5l4.8-5.3l4.8-5.3l-8-10.7l-4.5-8.5l8.3,0.5l18.7,26.7l16,1.6l12.3-1.1L642,92.6l20.8,16h14.9l20.3,12.3h16.5
							l13.9,6.4l10.1,11.7h16l11.7,45.9h6.4c0,0,5.9-20.3,6.9-25.1s-18.1-69.9-18.1-69.9L696.8-8.5L641.9-17.2z"/>
						
							<linearGradient id="SVGID_14_" gradientUnits="userSpaceOnUse" x1="598.082" y1="345.9932" x2="265.1754" y2="-103.573" gradientTransform="matrix(1 0 0 -1 0 270)">
							<stop  offset="0" style="stop-color:#FFFFFF"/>
							<stop  offset="0.2442" style="stop-color:#1C7FC0"/>
							<stop  offset="0.3715" style="stop-color:#0C3C4C"/>
							<stop  offset="0.6372" style="stop-color:#1C292E"/>
						</linearGradient>
						<polygon class="st14" points="521.9,36.4 532,36.4 539,29 534.2,22 530.4,17.2 533.1,11.9 527.2,11.9 516.7,8.7 516.7,15.1 
							518.7,22.6 512.3,22.6 508,31.6 508,36.4 516.7,32.2 523.5,25.8 						"/>
						
							<linearGradient id="SVGID_15_" gradientUnits="userSpaceOnUse" x1="719.0156" y1="256.4411" x2="386.1089" y2="-193.1251" gradientTransform="matrix(1 0 0 -1 0 270)">
							<stop  offset="0" style="stop-color:#FFFFFF"/>
							<stop  offset="0.2442" style="stop-color:#1C7FC0"/>
							<stop  offset="0.3715" style="stop-color:#0C3C4C"/>
							<stop  offset="0.6372" style="stop-color:#1C292E"/>
						</linearGradient>
						<path class="st15" d="M512.3,96.7l-7.5,5.3c0,0,3.2,7.5,0,7.5S488.3,125,488.3,125l-3.2,22.4v23.5l3.2,8.5l16.5,5.3l3.2,9.1
							h31l23.5,7.5v13.8l9.1,10.8l4.8,17.6l-7.5,17.1l7.5,37.3l13.3,10.7l14.4,22.9v9.1l12.8,11.7l8-11.7v-11.7l11.7-19.7
							c0,0,18.1-17.1,18.1-19.2s0-17.6,0-17.6l9.6-12.8v-9.1c0,0-4.8-7.5-6.4-9.1c-1.6-1.6-3.2-8-3.2-8l21.9-25.1
							c0,0,11.7-16.5,11.7-18.7c0-2.1,0-15.5,0-15.5l-16.5-1.1l-7.5-5.9l-22.1-35.2l-6.2-14.4l6.2-3.7l7.2,18.1l3.2,10.9l11.7,20
							c0,0,10.7,7.5,14.4,6.9c3.7-0.5,33.1-21.9,33.1-21.9l6.4-12.8l-14.9-14.4l-9.1,8l-12.8-12.3l-0.7-6.2l-6.3-5l-32.5-12.8
							l-6.7-6.2l-9.3,3l1.1,6.4l5.9-1.1l0.5,5.9l-5.9,1.1l-41.1-2.7l-2.1,4.3l-9.6-4.3l-8-0.5V86.1H547h-13.3l-17,6.7L512.3,96.7z"
							/>
					</g>
				</g>
				
					<linearGradient id="SVGID_16_" gradientUnits="userSpaceOnUse" x1="739.0201" y1="322.309" x2="578.2073" y2="131.7807" gradientTransform="matrix(1 0 0 -1 0 270)">
					<stop  offset="0" style="stop-color:#37BCEA"/>
					<stop  offset="1" style="stop-color:#0C3C4C"/>
				</linearGradient>
				<path class="st16" d="M497.4-56.2c-40.2,0-78.4,8.6-112.9,24.1s23.8-4.9,95.4-4.9c152,0,271.8,121.5,271.8,273.5
					c0,71.6-30.7,145.5-16.7,121.6c23.9-40.8,37.7-88.3,37.7-139.1C772.6,67,649.4-56.2,497.4-56.2z"/>
				<path class="st17" d="M491-49.8c153.9,0,278.6,123.3,278.6,275.3c0,20.7-2.3,40.8-6.7,60.2c-5.4,24.1,9.8-17.6,9.8-66.6
					c0-152-123.3-275.3-275.3-275.3c-38.4,0-74.9,7.8-108,22C366.4-24.4,429.2-49.8,491-49.8z"/>
			</g>
		</g>
		<polygon class="st18" points="1124.5,28.2 742.4,28.2 738.6,32 742.4,35.8 845.1,35.8 843.9,39.2 843.9,39.2 849.1,44.4 
			1116.2,44.4 1128.4,32 		"/>
		<polygon class="st18" points="941,114.9 702.5,114.9 696.5,108.9 696.5,108.9 702.5,102.8 941,102.8 947,108.9 947,108.9 		"/>
		<path class="st18" d="M717.7-12.5l4.6-4.6h523c2.5,0,4.6,2.1,4.6,4.6l0,0c0,2.5-2.1,4.6-4.6,4.6h-523L717.7-12.5z"/>
		<polygon class="st18" points="468.3,-5.5 44,-5.5 40.1,-9.4 40.1,-9.4 44,-13.3 468.3,-13.3 472.2,-9.4 472.2,-9.4 		"/>
		<path class="st18" d="M96.1,91.5h564.7l5-5l0,0l-5-5H96.1c-2.7,0-5,2.2-5,5l0,0C91.1,89.2,93.4,91.5,96.1,91.5z"/>
		<path class="st18" d="M118.6,63.1H465l1.8-1.8l0,0l-1.8-1.8H118.6c-1,0-1.8,0.8-1.8,1.8l0,0C116.8,62.3,117.6,63.1,118.6,63.1z"/>
		<path class="st18" d="M230.9,118.7h257.7l4.6-4.6l0,0l-4.6-4.6H230.9c-2.5,0-4.6,2.1-4.6,4.6l0,0
			C226.3,116.6,228.4,118.7,230.9,118.7z"/>
		<polygon class="st18" points="272.1,105.6 506.2,105.6 510.3,101.4 510.3,101.4 506.2,97.3 272.1,97.3 268,101.4 268,101.4 		"/>
		<polygon class="st18" points="490.2,157.9 385.7,157.9 386.1,156.1 386.1,156.1 380.7,150.7 129.8,150.7 119.1,161.4 122.6,165 
			490.2,165 493.8,161.4 		"/>
		<polygon class="st18" points="96.1,224.6 422.3,224.6 425.8,221 425.8,221 422.3,217.5 96.1,217.5 92.5,221 92.5,221 		"/>
		<polygon class="st18" points="411.9,174.8 573,174.8 576.6,171.2 576.6,171.2 573,167.6 411.9,167.6 408.3,171.2 408.3,171.2 		
			"/>
		<polygon class="st18" points="544.2,129.6 761.7,129.6 764.2,127.1 764.2,127.1 761.7,124.6 544.2,124.6 541.7,127.1 541.7,127.1 
					"/>
		<polygon class="st18" points="632.9,74.1 823.3,74.1 828.7,68.7 828.7,68.7 823.3,63.4 632.9,63.4 627.5,68.7 627.5,68.7 		"/>
		<path class="st18" d="M730.3,156.4h304.4c1.8,0,3.3-1.5,3.3-3.3l0,0c0-1.8-1.5-3.3-3.3-3.3H730.3l-3.3,3.3l0,0L730.3,156.4z"/>
		<polygon class="st18" points="913.2,193.1 646.7,193.1 644.6,191 644.6,191 646.7,188.8 913.2,188.8 915.3,191 915.3,191 		"/>
	</g>
	<g id="star">
		
			<rect x="843.4" y="93" transform="matrix(0.6316 0.7753 -0.7753 0.6316 384.1496 -620.126)" class="st19" width="2.4" height="2.4"/>
		
			<rect x="812.6" y="7.3" transform="matrix(0.6316 0.7753 -0.7753 0.6316 306.4061 -627.7689)" class="st19" width="2.4" height="2.4"/>
		
			<rect x="428.8" y="-78.7" transform="matrix(0.6316 0.7753 -0.7753 0.6316 98.8412 -362.1086)" class="st19" width="3.3" height="3.3"/>
		
			<rect x="605" y="-158" transform="matrix(0.6316 0.7753 -0.7753 0.6316 102.2915 -527.9243)" class="st19" width="3.3" height="3.3"/>
		
			<rect x="327.4" y="-66.8" transform="matrix(0.6316 0.7753 -0.7753 0.6316 70.4067 -279.0332)" class="st19" width="2.8" height="2.8"/>
		
			<rect x="482.8" y="-171.9" transform="matrix(0.6316 0.7753 -0.7753 0.6316 46.5345 -438.3326)" class="st19" width="3.3" height="3.3"/>
		
			<rect x="282.9" y="-25.3" transform="matrix(0.6316 0.7753 -0.7753 0.6316 86.1945 -229.2555)" class="st19" width="2.8" height="2.8"/>
		
			<rect x="628.6" y="-102.8" transform="matrix(0.6316 0.7753 -0.7753 0.6316 153.7719 -525.9188)" class="st19" width="3.3" height="3.3"/>
		
			<rect x="378.2" y="-78.7" transform="matrix(0.6316 0.7753 -0.7753 0.6316 80.215 -322.8452)" class="st19" width="3.3" height="3.3"/>
		
			<rect x="505.6" y="-81.3" transform="matrix(0.6316 0.7753 -0.7753 0.6316 125.1163 -422.6332)" class="st19" width="3.3" height="3.3"/>
		
			<rect x="564.5" y="-105.2" transform="matrix(0.6316 0.7753 -0.7753 0.6316 128.3153 -477.106)" class="st19" width="3.3" height="3.3"/>
		
			<rect x="325.1" y="-27.9" transform="matrix(0.6316 0.7753 -0.7753 0.6316 100.0598 -263.0069)" class="st19" width="3.3" height="3.3"/>
		
			<rect x="424.2" y="-158" transform="matrix(0.6316 0.7753 -0.7753 0.6316 35.7162 -387.7801)" class="st19" width="3.3" height="3.3"/>
		
			<rect x="339.4" y="-89.2" transform="matrix(0.6316 0.7753 -0.7753 0.6316 56.9769 -296.3393)" class="st19" width="1.9" height="1.9"/>
		
			<rect x="538" y="-123.4" transform="matrix(0.6316 0.7753 -0.7753 0.6316 104.4492 -463.2717)" class="st19" width="3.3" height="3.3"/>
		
			<rect x="580.1" y="-81.2" transform="matrix(0.6316 0.7753 -0.7753 0.6316 152.6001 -480.3178)" class="st19" width="3.3" height="3.3"/>
		
			<rect x="480.5" y="-137.2" transform="matrix(0.6316 0.7753 -0.7753 0.6316 72.5458 -423.7173)" class="st19" width="3.3" height="3.3"/>
		
			<rect x="554" y="-169.5" transform="matrix(0.6316 0.7753 -0.7753 0.6316 74.5442 -492.5988)" class="st19" width="3.3" height="3.3"/>
		
			<rect x="810.9" y="14.3" transform="matrix(0.6316 0.7753 -0.7753 0.6316 311.0961 -623.8984)" class="st19" width="2.2" height="2.2"/>
		
			<rect x="818.4" y="-65.1" transform="matrix(0.6316 0.7753 -0.7753 0.6316 252.9227 -659.1359)" class="st19" width="3.3" height="3.3"/>
		
			<rect x="766.1" y="-125.8" transform="matrix(0.6316 0.7753 -0.7753 0.6316 186.6344 -640.9905)" class="st19" width="3.3" height="3.3"/>
		
			<rect x="421.9" y="-123.2" transform="matrix(0.6316 0.7753 -0.7753 0.6316 61.8073 -373.1251)" class="st19" width="3.3" height="3.3"/>
		
			<rect x="754.9" y="377.1" transform="matrix(0.6316 0.7753 -0.7753 0.6316 571.8632 -446.8389)" class="st19" width="2.4" height="2.4"/>
		
			<rect x="466.8" y="-120.8" transform="matrix(0.6316 0.7753 -0.7753 0.6316 80.2522 -407.1027)" class="st19" width="3.3" height="3.3"/>
		
			<rect x="361.8" y="-123.2" transform="matrix(0.6316 0.7753 -0.7753 0.6316 39.683 -326.5446)" class="st19" width="3.3" height="3.3"/>
		
			<rect x="812.6" y="174.3" transform="matrix(0.6316 0.7753 -0.7753 0.6316 435.8734 -566.2507)" class="st19" width="2.4" height="2.4"/>
		
			<rect x="471.5" y="-83.5" transform="matrix(0.6316 0.7753 -0.7753 0.6316 110.8696 -397.0029)" class="st19" width="3.3" height="3.3"/>
		
			<rect x="448.3" y="-91.7" transform="matrix(0.6316 0.7753 -0.7753 0.6316 95.4877 -381.8527)" class="st19" width="2.4" height="2.4"/>
		
			<rect x="297.1" y="-69" transform="matrix(0.6316 0.7753 -0.7753 0.6316 57.8267 -256.4592)" class="st19" width="3.3" height="3.3"/>
		
			<rect x="783.6" y="53.3" transform="matrix(0.6316 0.7753 -0.7753 0.6316 331.079 -588.2676)" class="st19" width="1.9" height="1.9"/>
		
			<rect x="875.1" y="224.7" transform="matrix(-6.326268e-03 1 -1 -6.326268e-03 1108.6302 -648.9279)" class="st19" width="3.3" height="3.3"/>
		
			<rect x="793.4" y="118.8" transform="matrix(-6.326268e-03 1 -1 -6.326268e-03 919.9839 -673.8018)" class="st19" width="2.8" height="2.8"/>
		
			<rect x="838.2" y="134.6" transform="matrix(-6.326268e-03 1 -1 -6.326268e-03 980.9655 -702.6979)" class="st19" width="2.8" height="2.8"/>
		
			<rect x="792.7" y="211.1" transform="matrix(-6.326268e-03 1 -1 -6.326268e-03 1012.1363 -580.3024)" class="st19" width="3.3" height="3.3"/>
		
			<rect x="791.1" y="136.1" transform="matrix(-6.326268e-03 1 -1 -6.326268e-03 935.4728 -654.1376)" class="st19" width="3.3" height="3.3"/>
		
			<rect x="858.8" y="1.5" transform="matrix(-6.326268e-03 1 -1 -6.326268e-03 868.5713 -857.218)" class="st19" width="2.8" height="2.8"/>
		
			<rect x="856.4" y="283.9" transform="matrix(-6.326268e-03 1 -1 -6.326268e-03 1148.9879 -570.6263)" class="st19" width="3.3" height="3.3"/>
		
			<rect x="841.4" y="208.8" transform="matrix(-6.326268e-03 1 -1 -6.326268e-03 1058.7651 -631.2165)" class="st19" width="3.3" height="3.3"/>
		
			<rect x="793.6" y="104.8" transform="matrix(-6.326268e-03 1 -1 -6.326268e-03 906.1616 -688.1122)" class="st19" width="2.8" height="2.8"/>
		
			<rect x="815" y="63.2" transform="matrix(-6.326268e-03 1 -1 -6.326268e-03 886.6604 -751.4282)" class="st19" width="3.3" height="3.3"/>
		
			<rect x="876.5" y="31.3" transform="matrix(-6.326268e-03 1 -1 -6.326268e-03 916.6801 -844.9352)" class="st19" width="3.3" height="3.3"/>
		
			<rect x="857" y="172.7" transform="matrix(-6.326268e-03 1 -1 -6.326268e-03 1037.9869 -683.2042)" class="st19" width="2.8" height="2.8"/>
		
			<rect x="816.7" y="273.3" transform="matrix(-6.326268e-03 1 -1 -6.326268e-03 1098.4208 -541.6862)" class="st19" width="3.3" height="3.3"/>
		
			<rect x="880.5" y="101.7" transform="matrix(-6.326268e-03 1 -1 -6.326268e-03 991.1451 -778.1245)" class="st19" width="3.3" height="3.3"/>
		
			<rect x="886.8" y="136" transform="matrix(-6.326268e-03 1 -1 -6.326268e-03 1031.7513 -749.9385)" class="st19" width="3.3" height="3.3"/>
		
			<rect x="566.8" y="-190.3" transform="matrix(0.6316 0.7753 -0.7753 0.6316 62.845 -510.0935)" class="st19" width="2.8" height="2.8"/>
		
			<rect x="268.2" y="9.8" transform="matrix(0.6316 0.7753 -0.7753 0.6316 108.2991 -204.9576)" class="st19" width="3.3" height="3.3"/>
		
			<rect x="703.3" y="-134.6" transform="matrix(0.6316 0.7753 -0.7753 0.6316 156.3302 -595.3856)" class="st19" width="2.8" height="2.8"/>
		
			<rect x="396.9" y="-100" transform="matrix(0.6316 0.7753 -0.7753 0.6316 70.5881 -345.2198)" class="st19" width="3.3" height="3.3"/>
		
			<rect x="519" y="-148.2" transform="matrix(0.6316 0.7753 -0.7753 0.6316 78.1474 -457.6543)" class="st19" width="3.3" height="3.3"/>
		
			<rect x="788.9" y="346.2" transform="matrix(0.6316 0.7753 -0.7753 0.6316 560.9626 -484.7752)" class="st19" width="3.3" height="3.3"/>
		
			<rect x="789.1" y="249.6" transform="matrix(0.6316 0.7753 -0.7753 0.6316 485.8512 -520.4254)" class="st19" width="2.8" height="2.8"/>
		
			<rect x="782.4" y="287.9" transform="matrix(0.6316 0.7753 -0.7753 0.6316 513.3519 -501.1589)" class="st19" width="3.3" height="3.3"/>
		
			<rect x="662.6" y="-155.6" transform="matrix(0.6316 0.7753 -0.7753 0.6316 125.3275 -571.7241)" class="st19" width="3.3" height="3.3"/>
	</g>
</g>
</svg>
