<?xml version="1.0" encoding="utf-8"?>
<!-- Generator: Adobe Illustrator 19.1.0, SVG Export Plug-In . SVG Version: 6.00 Build 0)  -->
<svg version="1.1" id="Layer_1" xmlns="http://www.w3.org/2000/svg" xmlns:xlink="http://www.w3.org/1999/xlink" x="0px" y="0px"
	 width="700px" height="700px" viewBox="215 -215 700 700" style="enable-background:new 215 -215 700 700;" xml:space="preserve">
<style type="text/css">
	.st0{clip-path:url(#SVGID_2_);fill:url(#sky_x2F_space_3_);}
	.st1{opacity:0.1;fill:#FFFFFF;}
	.st2{clip-path:url(#SVGID_4_);}
	.st3{fill:url(#sky_x2F_space_4_);}
	.st4{fill:url(#river_2_);}
	.st5{opacity:0.9;}
	.st6{fill:url(#SVGID_5_);}
	.st7{fill:url(#SVGID_6_);}
	.st8{opacity:0.8;}
	.st9{fill:url(#SVGID_7_);}
	.st10{fill:#FDD8CD;}
	.st11{fill:url(#SVGID_8_);}
	.st12{fill:url(#SVGID_9_);}
	.st13{opacity:0.8;fill:url(#SVGID_10_);enable-background:new    ;}
	.st14{opacity:0.8;fill:url(#SVGID_11_);enable-background:new    ;}
	.st15{fill:#445763;}
	.st16{fill:url(#land-right2_2_);}
	.st17{fill:url(#land-right1_2_);}
	.st18{opacity:0.1;fill:#FFFFFF;enable-background:new    ;}
	.st19{fill:#575C7A;}
	.st20{display:none;fill:#575C7A;}
	.st21{fill:url(#SVGID_12_);}
	.st22{fill:url(#land-left2_2_);}
	.st23{fill:url(#land-left1_2_);}
	.st24{fill:url(#SVGID_13_);}
	.st25{opacity:0.2;fill:#1C292E;enable-background:new    ;}
	.st26{fill:url(#SVGID_14_);}
	.st27{fill:url(#SVGID_15_);}
	.st28{fill:url(#SVGID_16_);}
	.st29{fill:url(#SVGID_17_);}
	.st30{fill:url(#SVGID_18_);}
	.st31{fill:url(#SVGID_19_);}
	.st32{fill:url(#SVGID_20_);}
	.st33{fill:url(#SVGID_21_);}
	.st34{fill:url(#SVGID_22_);}
	.st35{fill:url(#SVGID_23_);}
	.st36{fill:url(#SVGID_24_);}
	.st37{fill:url(#SVGID_25_);}
	.st38{fill:url(#SVGID_26_);}
	.st39{fill:url(#SVGID_27_);}
	.st40{opacity:0.55;fill:url(#SVGID_28_);enable-background:new    ;}
	.st41{fill:url(#SVGID_29_);}
	.st42{fill:url(#SVGID_30_);}
	.st43{fill:url(#SVGID_31_);}
	.st44{fill:url(#SVGID_32_);}
	.st45{opacity:0.17;fill:#EFEFEF;enable-background:new    ;}
	.st46{fill:url(#SVGID_33_);}
	.st47{fill:url(#SVGID_34_);}
	.st48{fill:url(#SVGID_35_);}
	.st49{fill:url(#SVGID_36_);}
	.st50{fill:url(#SVGID_37_);}
	.st51{fill:url(#SVGID_38_);}
	.st52{fill:#273D44;}
	.st53{fill:url(#SVGID_39_);}
	.st54{fill:url(#SVGID_40_);}
	.st55{fill:url(#SVGID_41_);}
	.st56{fill:url(#SVGID_42_);}
	.st57{fill:url(#SVGID_43_);}
	.st58{fill:url(#SVGID_44_);}
	.st59{fill:#939598;}
	.st60{fill:#FFFFFF;}
	.st61{fill:url(#SVGID_45_);}
	.st62{fill:url(#SVGID_46_);}
	.st63{fill:url(#SVGID_47_);}
	.st64{opacity:0.6;fill:#4F4E51;enable-background:new    ;}
	.st65{opacity:0.21;fill:#231F20;enable-background:new    ;}
	.st66{fill:url(#SVGID_48_);}
	.st67{fill:url(#SVGID_49_);}
	.st68{opacity:0.39;fill:url(#SVGID_50_);enable-background:new    ;}
	.st69{opacity:0.39;fill:url(#SVGID_51_);enable-background:new    ;}
	.st70{fill:url(#SVGID_52_);}
	.st71{display:none;opacity:0.17;fill:#EFEFEF;enable-background:new    ;}
	.st72{fill:url(#SVGID_53_);}
	.st73{fill:url(#SVGID_54_);}
	.st74{fill:url(#SVGID_55_);}
	.st75{fill:url(#SVGID_56_);}
	.st76{fill:url(#SVGID_57_);}
	.st77{fill:url(#SVGID_58_);}
	.st78{opacity:0.45;fill:#F2C186;enable-background:new    ;}
	.st79{fill:url(#SVGID_59_);}
	.st80{fill:url(#SVGID_60_);}
	.st81{fill:url(#SVGID_61_);}
	.st82{fill:url(#SVGID_62_);}
	.st83{fill:url(#SVGID_63_);}
	.st84{fill:#293942;}
	.st85{fill:url(#SVGID_64_);}
	.st86{fill:#808184;}
	.st87{fill:url(#SVGID_65_);}
	.st88{fill:url(#SVGID_66_);}
	.st89{fill:url(#SVGID_67_);}
	.st90{fill:url(#SVGID_68_);}
	.st91{fill:url(#SVGID_69_);}
	.st92{fill:url(#SVGID_70_);}
	.st93{clip-path:url(#SVGID_72_);}
	.st94{fill:url(#SVGID_73_);}
	.st95{fill:none;stroke:#FFFFFF;stroke-width:1.85;stroke-miterlimit:10;}
	.st96{opacity:0.15;fill:#FFFFFF;enable-background:new    ;}
	.st97{opacity:0.25;}
	.st98{fill:#F26522;stroke:#F26522;stroke-width:0.7484;stroke-miterlimit:10;}
	.st99{fill:none;stroke:#FFFFFF;stroke-width:1.5386;stroke-miterlimit:10;}
	.st100{fill:none;stroke:#F26522;stroke-width:1.5386;stroke-miterlimit:10;}
	.st101{fill:url(#SVGID_74_);}
	.st102{fill:url(#SVGID_75_);}
</style>
<g id="bg">
	<g>
		<defs>
			<circle id="SVGID_1_" cx="563.5" cy="134.7" r="343.8"/>
		</defs>
		<clipPath id="SVGID_2_">
			<use xlink:href="#SVGID_1_"  style="overflow:visible;"/>
		</clipPath>
		<linearGradient id="sky_x2F_space_3_" gradientUnits="userSpaceOnUse" x1="591.2" y1="478.2" x2="591.2" y2="-211.9225">
			<stop  offset="0" style="stop-color:#4E5763"/>
			<stop  offset="1" style="stop-color:#0E1C22"/>
		</linearGradient>
		<rect id="sky_x2F_space_1_" x="-180.4" y="-210.2" class="st0" width="1543.1" height="684.1"/>
	</g>
	<polygon id="frame" class="st1" points="907.1,175 313.6,175 449.4,-96 835.1,-96 835.1,-87 907.1,166 	"/>
</g>
<g id="window">
	<g>
		<g>
			<defs>
				<path id="SVGID_3_" d="M320.8,170.5l584.6-0.1c1.2-11.7,1.8-23.7,1.8-35.7c0-86.6-32-165.7-84.9-226.2H452.2L320.8,170.5z"/>
			</defs>
			<clipPath id="SVGID_4_">
				<use xlink:href="#SVGID_3_"  style="overflow:visible;"/>
			</clipPath>
			<g class="st2">
				
					<linearGradient id="sky_x2F_space_4_" gradientUnits="userSpaceOnUse" x1="596.2502" y1="604.6427" x2="586.973" y2="778.9888" gradientTransform="matrix(1 0 0 -1 0 702)">
					<stop  offset="0" style="stop-color:#F3C187"/>
					<stop  offset="5.274168e-02" style="stop-color:#F4AA8D"/>
					<stop  offset="0.1315" style="stop-color:#D47A6D"/>
					<stop  offset="0.3231" style="stop-color:#4E5763"/>
					<stop  offset="0.5913" style="stop-color:#0C3C4C"/>
					<stop  offset="1" style="stop-color:#0E1C22"/>
				</linearGradient>
				<rect id="sky_x2F_space_2_" x="253.9" y="-92" class="st3" width="674" height="179.5"/>
				
					<linearGradient id="river_2_" gradientUnits="userSpaceOnUse" x1="651.5845" y1="701.6921" x2="712.665" y2="486.1819" gradientTransform="matrix(1 0 0 -1 0 702)">
					<stop  offset="7.882074e-02" style="stop-color:#C5817E"/>
					<stop  offset="0.3645" style="stop-color:#57606D"/>
					<stop  offset="0.6989" style="stop-color:#33434C"/>
					<stop  offset="1" style="stop-color:#2D3A41"/>
				</linearGradient>
				<polygon id="river_1_" class="st4" points="989.7,170.4 471,170.4 383.2,170.5 423.9,105.2 471,76.5 989.7,76.5 				"/>
				<g id="mountain_1_" class="st5">
					
						<linearGradient id="SVGID_5_" gradientUnits="userSpaceOnUse" x1="714.65" y1="625.4919" x2="714.65" y2="681.5458" gradientTransform="matrix(1 0 0 -1 0 702)">
						<stop  offset="0" style="stop-color:#425B6A"/>
						<stop  offset="1" style="stop-color:#30414A"/>
					</linearGradient>
					<polygon class="st6" points="629.1,77.3 622.4,77.4 622.7,76.6 645.2,64.2 652.5,62.2 654.5,58.7 658.5,57.3 661.7,55.2 
						666.4,57.8 668.3,58.4 672.2,57.8 680.9,51.4 691.2,44.3 694.6,44.8 702.5,36.6 705.7,38.1 707.3,35.7 710.8,34.3 714.1,30.5 
						717.4,28.5 721.4,23.9 724,25.1 728,28.4 732.2,31.8 735.9,33.2 737.8,34.7 738.5,35 741.5,34.2 743.1,35.8 744.9,37.6 
						746.8,39.5 747.9,38.8 752.3,42.4 757.3,45.9 761.7,50.3 761.9,51.4 764.3,51.2 766.8,52.8 768.7,52.8 776.7,58.6 806.8,77.3 
											"/>
					
						<linearGradient id="SVGID_6_" gradientUnits="userSpaceOnUse" x1="775.2076" y1="619.7938" x2="820.3088" y2="640.0497" gradientTransform="matrix(1 0 0 -1 0 702)">
						<stop  offset="0" style="stop-color:#475E6D"/>
						<stop  offset="1" style="stop-color:#30414A"/>
					</linearGradient>
					<polygon class="st7" points="815.8,77.3 829.7,77.3 810.9,70.5 795.6,62.3 788.2,57.5 784.1,58.6 776.9,64.3 772.4,67.2 
						765.7,71.5 760.4,74.1 752.3,77.3 753.4,77.3 					"/>
					<g class="st8">
						
							<linearGradient id="SVGID_7_" gradientUnits="userSpaceOnUse" x1="717.9095" y1="668.7" x2="746.8095" y2="668.7" gradientTransform="matrix(1 0 0 -1 0 702)">
							<stop  offset="0" style="stop-color:#FDD8CD"/>
							<stop  offset="1" style="stop-color:#E9B8AD"/>
						</linearGradient>
						<polygon class="st9" points="727.3,34.2 724.1,30.5 722.7,25.1 721.4,23.9 724,25.1 728,28.4 732.2,31.8 735.9,33.2 
							737.8,34.7 739.1,36 740.3,36.5 741.5,34.2 746.8,39.5 744.6,40.7 744,42.2 742.5,41 739.8,42.1 736.5,39.5 733.5,37.5 
							738.1,42.6 737.4,42.7 734.2,40.7 731.7,38.1 729,36 730.1,38.4 728.5,38.5 722.2,32.6 717.9,28.9 720.8,30.1 722.6,30.5 
													"/>
						<polygon class="st10" points="728.6,42.6 730.5,44.9 728.5,44 725.2,43.1 728.6,46.6 731.6,48.4 731.6,48.4 732,48.8 
							734.5,47.8 735.5,47.4 						"/>
						
							<linearGradient id="SVGID_8_" gradientUnits="userSpaceOnUse" x1="745.1198" y1="653.8408" x2="776.0284" y2="633.8467" gradientTransform="matrix(1 0 0 -1 0 702)">
							<stop  offset="0" style="stop-color:#FDD8CD"/>
							<stop  offset="1" style="stop-color:#E9B8AD"/>
						</linearGradient>
						<polygon class="st11" points="778.4,59.7 773.1,56 768.7,52.8 769,54.8 766.8,52.8 764.3,51.2 763.5,51.2 761.7,50.3 
							759.1,47.7 757.3,45.9 753.7,43.4 752.3,42.4 747.9,38.8 747.4,42.8 748.2,45.6 742.5,41 741.4,43.7 742.1,44.8 747,49.3 
							742.9,47 738.8,45.7 739.9,48.6 742.3,50.3 747.3,54.9 745.9,54.7 747.4,56.4 741,54.1 739.9,54.2 734.9,50.9 735.1,52.9 
							740.9,56.6 743,57 756.8,60.7 753.5,58.4 761.5,61.8 766.1,62.1 767.5,62.2 756.5,53.1 770.2,61.7 775.5,63.6 776.9,64.3 
							780.8,61.3 						"/>
						
							<linearGradient id="SVGID_9_" gradientUnits="userSpaceOnUse" x1="787.9966" y1="638" x2="810.9966" y2="638" gradientTransform="matrix(1 0 0 -1 0 702)">
							<stop  offset="0" style="stop-color:#FDD8CD"/>
							<stop  offset="1" style="stop-color:#BF8980"/>
						</linearGradient>
						<polygon class="st12" points="792.3,66.4 788.4,63.3 792.4,65.6 791.9,64.7 793.6,65.6 788.9,60.4 787.9,58.7 788.9,59.2 
							788.2,57.5 795.6,62.3 810.9,70.5 802.1,67.6 797.6,65.1 800.6,67.8 797.9,67.1 796.1,68.2 						"/>
					</g>
				</g>
				<g id="mountain_-_foreground_1_">
					
						<linearGradient id="SVGID_10_" gradientUnits="userSpaceOnUse" x1="620.7499" y1="638.1" x2="756.35" y2="638.1" gradientTransform="matrix(1 0 0 -1 0 702)">
						<stop  offset="0" style="stop-color:#3B4952"/>
						<stop  offset="0.6358" style="stop-color:#3F515E"/>
						<stop  offset="0.9998" style="stop-color:#4E6271"/>
					</linearGradient>
					<polygon class="st13" points="756.3,77.3 737.1,67.6 729.7,63.2 723.9,59.8 721.9,58.6 718,55.6 713.2,51.7 711.7,51.7 
						709.7,50.5 705.1,53.5 704.5,53 697.1,57.2 695.9,57.2 693.7,58.2 693.7,59.2 692,59.9 688.9,61.8 686.5,63.1 683.7,64.5 
						683.1,64.7 680.1,65.4 675.9,63.4 672.8,61.4 669.7,58.9 668.1,58.4 666.5,57.8 661.8,55.2 658.6,57.3 654.6,58.7 652.5,62.2 
						645.6,64 622.5,76.7 620.7,77.3 629,77.3 					"/>
					
						<linearGradient id="SVGID_11_" gradientUnits="userSpaceOnUse" x1="712.436" y1="647.4709" x2="731.1794" y2="632.6452" gradientTransform="matrix(1 0 0 -1 0 702)">
						<stop  offset="2.882479e-02" style="stop-color:#FDD8CD"/>
						<stop  offset="0.4645" style="stop-color:#D9A499"/>
						<stop  offset="1" style="stop-color:#BF8980"/>
					</linearGradient>
					<polygon class="st14" points="738.4,68.3 727.4,62 721.9,58.3 718.4,55.9 713.2,51.7 715.2,55.5 712.6,54.2 712.9,54.7 
						712.9,55.2 713.6,55.9 715.4,57.9 719.7,60.9 720.1,62 714.2,57.9 712.3,56.8 707.9,53.9 708.4,54.9 704.5,53 704.9,53.9 
						706,54.9 706.3,55.7 706.4,56.6 717.7,63.4 719.5,64 716.6,61.5 721.6,64.1 725.7,65.2 730.6,66.4 727.7,64.1 732.7,66.9 					
						"/>
				</g>
				<path id="land-right3_1_" class="st15" d="M997.4,68.5h-16.1L957.5,68h-4.1l-8.9-0.5L930.8,66l-9.7,2l-8.2-1.5l-8.5,1.8l-13-5.2
					L876,66.2l-20.6,3.6l-21.8-1l-11.4,1.3l-5.2,3.1l-5.2-2.7l-22.6,1.7l-20.7-1.7l-19.4,3.9l-32-1.9l-20,4.6l-7.4,1.4l5.5,1.7h1.1
					l6.6,2.4h22.3l7.7,5.1l64.8-1.2l148.8-3.3c0,0,54.5,2.2,54.5-10.4L997.4,68.5z"/>
				
					<linearGradient id="land-right2_2_" gradientUnits="userSpaceOnUse" x1="853.6898" y1="687.8407" x2="824.956" y2="609.0887" gradientTransform="matrix(1 0 0 -1 0 702)">
					<stop  offset="0" style="stop-color:#F4B49C"/>
					<stop  offset="0.3648" style="stop-color:#5A576C"/>
					<stop  offset="0.9951" style="stop-color:#3D4E59"/>
				</linearGradient>
				<polygon id="land-right2_1_" class="st16" points="977.4,61.2 928.7,63.3 903.9,65.1 881.4,64.2 866,69.4 844.2,70.3 
					834.4,73.1 816.5,75 794,76.4 780.8,79.1 770.7,76.3 760.9,79.1 752.6,78.1 742.8,79.1 740.1,82.4 720.8,84.1 713.3,86.6 
					704.8,89.1 702.5,89.9 671.8,93.3 685.7,94.2 769.8,93.5 782.2,95.8 847.1,95.8 977.4,94.2 				"/>
				
					<linearGradient id="land-right1_2_" gradientUnits="userSpaceOnUse" x1="856.4081" y1="692.2071" x2="816.2563" y2="592.4354" gradientTransform="matrix(1 0 0 -1 0 702)">
					<stop  offset="0" style="stop-color:#F6D59B"/>
					<stop  offset="0.1469" style="stop-color:#BEA39B"/>
					<stop  offset="0.3744" style="stop-color:#676279"/>
					<stop  offset="0.6445" style="stop-color:#4B5F6D"/>
					<stop  offset="1" style="stop-color:#3A4850"/>
				</linearGradient>
				<polygon id="land-right1_1_" class="st17" points="977.4,74.1 958.6,72.8 936.3,69.5 926.5,71.5 910.3,75.8 900.3,81.3 
					886.2,77.6 875.5,77.6 866.2,77.6 855.4,75.8 835.4,82.2 823.6,79.9 810.1,84 795.5,85.9 779.5,87.8 768.8,89.2 755.7,87.2 
					745.7,89.7 729.9,97.3 713.9,101.5 705.3,103.5 694.9,103.5 680.7,106.2 670.7,106.4 657.7,111 650.9,111 644.4,112.8 
					692.1,113.2 684.5,115.1 676.9,115.1 670.6,116.6 660.5,117.4 670.6,118.3 682.7,120.1 692.1,120.1 701.1,120.1 707.8,122.1 
					722.4,124.8 731,124.8 738.3,124.8 745,124.9 747.3,125.2 760.9,126.6 769.9,127.7 769.9,127.4 788.9,129.4 817.9,130.2 
					855.2,129.4 875,130.2 910.3,131.9 977.4,132.7 				"/>
				<g id="clouds">
					<polygon class="st18" points="931.7,57.9 747.2,57.9 745.4,59.7 747.2,61.6 796.8,61.6 796.2,63.2 796.2,63.2 798.7,65.8 
						927.7,65.8 933.5,59.7 					"/>
					<path class="st18" d="M751.5,53.1l2.2-2.2h252.5c1.2,0,2.2,1,2.2,2.2l0,0c0,1.2-1,2.2-2.2,2.2H753.8L751.5,53.1z"/>
					<polygon class="st18" points="668.8,52.7 464,52.7 462.1,50.8 462.1,50.8 464,49 668.8,49 670.7,50.8 670.7,50.8 					"/>
					<path class="st18" d="M358.3,59.5H631l2.4-2.4l0,0l-2.4-2.4H358.3c-1.3,0-2.4,1.1-2.4,2.4l0,0C355.9,58.5,357,59.5,358.3,59.5z
						"/>
					<polygon class="st18" points="508.2,63.3 621.2,63.3 623.2,61.3 623.2,61.3 621.2,59.4 508.2,59.4 506.3,61.3 506.3,61.3 					
						"/>
					<polygon class="st18" points="560.1,36.2 509.7,36.2 509.8,35.3 509.8,35.3 507.2,32.7 386.1,32.7 381,37.9 382.8,39.6 
						560.1,39.6 561.8,37.9 					"/>
					<polygon class="st18" points="301.2,47.9 458.6,47.9 460.4,46.1 460.4,46.1 458.6,44.4 301.2,44.4 299.4,46.1 299.4,46.1 					
						"/>
					<polygon class="st18" points="819.6,64.3 924.6,64.3 925.9,63 925.9,63 924.6,61.9 819.6,61.9 818.4,63 818.4,63 					"/>
					<polygon class="st18" points="599.5,43.3 691.4,43.3 694,40.7 694,40.7 691.4,38.1 599.5,38.1 596.9,40.7 596.9,40.7 					"/>
					<path class="st18" d="M833.3,37.6h147c0.9,0,1.6-0.7,1.6-1.6l0,0c0-0.9-0.7-1.6-1.6-1.6h-147l-1.6,1.6l0,0L833.3,37.6z"/>
					<polygon class="st18" points="921.4,45.5 792.8,45.5 791.8,44.5 791.8,44.5 792.8,43.4 921.4,43.4 922.4,44.5 922.4,44.5 					
						"/>
				</g>
				<g id="stars_1_">
					
						<rect x="285.6" y="-99.4" transform="matrix(-0.7071 -0.7071 0.7071 -0.7071 558.519 34.0963)" class="st19" width="1.5" height="1.5"/>
					
						<rect x="267.2" y="-77.7" transform="matrix(-0.7071 -0.7071 0.7071 -0.7071 511.824 58.0643)" class="st19" width="1.5" height="1.5"/>
					
						<rect x="349.8" y="-19.4" transform="matrix(-0.7071 -0.7071 0.7071 -0.7071 611.9304 216.7865)" class="st19" width="2.1" height="2.1"/>
					
						<rect x="446.6" y="-57.4" transform="matrix(-0.7071 -0.7071 0.7071 -0.7071 803.9797 220.3238)" class="st19" width="2.1" height="2.1"/>
					
						<rect x="291.1" y="-33" transform="matrix(-0.7071 -0.7071 0.7071 -0.7071 521.4169 152.0186)" class="st19" width="2.1" height="2.1"/>
					
						<rect x="509.4" y="-82.2" transform="matrix(-0.7071 -0.7071 0.7071 -0.7071 928.5309 221.8499)" class="st19" width="1.7" height="1.7"/>
					
						<rect x="342.8" y="-112.9" transform="matrix(-0.7071 -0.7071 0.7071 -0.7071 665.7195 51.4013)" class="st19" width="1.5" height="1.5"/>
					
						<rect x="624.8" y="-44.5" transform="matrix(-0.7071 -0.7071 0.7071 -0.7071 1098.571 367.2893)" class="st19" width="1.2" height="1.2"/>
					
						<rect x="586.8" y="-104.9" transform="matrix(-0.7071 -0.7071 0.7071 -0.7071 1076.7148 237.863)" class="st19" width="1.7" height="1.7"/>
					
						<rect x="574.4" y="-67.4" transform="matrix(-0.7071 -0.7071 0.7071 -0.7071 1029.3047 293.6657)" class="st20" width="2.1" height="2.1"/>
					
						<rect x="805.4" y="-102.5" transform="matrix(-0.7071 -0.7071 0.7071 -0.7071 1448.3494 397.0947)" class="st19" width="2.1" height="2.1"/>
					
						<rect x="625.8" y="-20.8" transform="matrix(-0.7071 -0.7071 0.7071 -0.7071 1084.1324 409.584)" class="st19" width="2.1" height="2.1"/>
					
						<rect x="691.1" y="-114.8" transform="matrix(-0.7071 -0.7071 0.7071 -0.7071 1261.8887 294.73)" class="st19" width="1.7" height="1.7"/>
					
						<rect x="266.9" y="-21.1" transform="matrix(-0.7071 -0.7071 0.7071 -0.7071 471.5386 155.2245)" class="st19" width="2.1" height="2.1"/>
					
						<rect x="272" y="1.9" transform="matrix(-0.7071 -0.7071 0.7071 -0.7071 464.0112 198.0323)" class="st19" width="2.1" height="2.1"/>
					
						<rect x="621" y="19.3" transform="matrix(-0.7071 -0.7071 0.7071 -0.7071 1047.6279 474.5606)" class="st19" width="2.1" height="2.1"/>
					
						<rect x="634.6" y="-105.7" transform="matrix(-0.7071 -0.7071 0.7071 -0.7071 1158.9305 270.3917)" class="st19" width="1.7" height="1.7"/>
					
						<rect x="575.9" y="-9.6" transform="matrix(-0.7071 -0.7071 0.7071 -0.7071 991.0492 393.3543)" class="st19" width="2.1" height="2.1"/>
					
						<rect x="652.5" y="-55.9" transform="matrix(-0.7071 -0.7071 0.7071 -0.7071 1154.4608 368.4458)" class="st19" width="2.1" height="2.1"/>
					
						<rect x="437.8" y="-6.6" transform="matrix(-0.7071 -0.7071 0.7071 -0.7071 753.1945 300.8151)" class="st20" width="2.1" height="2.1"/>
					
						<rect x="478.3" y="-72" transform="matrix(-0.7071 -0.7071 0.7071 -0.7071 868.4166 217.8391)" class="st19" width="2.1" height="2.1"/>
					
						<rect x="592.7" y="-30.1" transform="matrix(-0.7071 -0.7071 0.7071 -0.7071 1034.0409 370.2561)" class="st19" width="2.1" height="2.1"/>
					
						<rect x="525.4" y="-55" transform="matrix(-0.7071 -0.7071 0.7071 -0.7071 936.9199 280.1187)" class="st19" width="2.1" height="2.1"/>
					
						<rect x="422.1" y="13.3" transform="matrix(-0.7071 -0.7071 0.7071 -0.7071 712.2198 323.7272)" class="st19" width="2.1" height="2.1"/>
					
						<rect x="356.4" y="-119.1" transform="matrix(-0.7071 -0.7071 0.7071 -0.7071 693.725 51.2086)" class="st19" width="2.1" height="2.1"/>
					
						<rect x="566.9" y="-24.2" transform="matrix(-0.7071 -0.7071 0.7071 -0.7071 985.9094 362.1042)" class="st19" width="2.1" height="2.1"/>
					
						<rect x="458.8" y="-83.9" transform="matrix(-0.7071 -0.7071 0.7071 -0.7071 843.5063 183.7642)" class="st19" width="2.1" height="2.1"/>
					
						<rect x="433.8" y="-105.8" transform="matrix(-0.7071 -0.7071 0.7071 -0.7071 816.1452 128.1106)" class="st19" width="1.7" height="1.7"/>
					
						<rect x="313.6" y="-107.2" transform="matrix(-0.7071 -0.7071 0.7071 -0.7071 612.2646 41.2473)" class="st19" width="2.1" height="2.1"/>
					
						<rect x="364.2" y="-104.6" transform="matrix(-0.7071 -0.7071 0.7071 -0.7071 696.6705 81.5051)" class="st19" width="2.1" height="2.1"/>
					
						<rect x="398.9" y="-50.9" transform="matrix(-0.7071 -0.7071 0.7071 -0.7071 718.0408 197.7821)" class="st19" width="2.1" height="2.1"/>
					
						<rect x="398.4" y="-95" transform="matrix(-0.7071 -0.7071 0.7071 -0.7071 748.3057 122.0067)" class="st19" width="2.1" height="2.1"/>
					
						<rect x="462.6" y="-120.5" transform="matrix(-0.7071 -0.7071 0.7071 -0.7071 875.6776 123.435)" class="st19" width="1.7" height="1.7"/>
					
						<rect x="303.2" y="-55.3" transform="matrix(-0.7071 -0.7071 0.7071 -0.7071 557.7279 122.4765)" class="st19" width="2.1" height="2.1"/>
					
						<rect x="511.6" y="-71" transform="matrix(-0.7071 -0.7071 0.7071 -0.7071 924.6619 243.1004)" class="st20" width="2.1" height="2.1"/>
					
						<rect x="703.5" y="-36" transform="matrix(-0.7071 -0.7071 0.7071 -0.7071 1227.4213 438.4686)" class="st19" width="2.1" height="2.1"/>
					
						<rect x="538.6" y="0.4" transform="matrix(-0.7071 -0.7071 0.7071 -0.7071 920.1925 384.0404)" class="st19" width="2.1" height="2.1"/>
					
						<rect x="516.8" y="-118.8" transform="matrix(-0.7071 -0.7071 0.7071 -0.7071 967.2339 165.0698)" class="st19" width="2.1" height="2.1"/>
					
						<rect x="807.8" y="-109.6" transform="matrix(-0.7071 -0.7071 0.7071 -0.7071 1457.5947 386.6213)" class="st19" width="2.1" height="2.1"/>
					
						<rect x="561.9" y="-74.3" transform="matrix(-0.7071 -0.7071 0.7071 -0.7071 1012.8992 272.998)" class="st19" width="2.1" height="2.1"/>
					
						<rect x="509.8" y="-10.7" transform="matrix(-0.7071 -0.7071 0.7071 -0.7071 878.8504 344.7001)" class="st20" width="2.1" height="2.1"/>
					
						<rect x="488.7" y="-50.4" transform="matrix(-0.7071 -0.7071 0.7071 -0.7071 871.0131 262.1102)" class="st20" width="2.1" height="2.1"/>
					
						<rect x="605.9" y="-67" transform="matrix(-0.7071 -0.7071 0.7071 -0.7071 1082.3677 315.5618)" class="st19" width="1.2" height="1.2"/>
					
						<rect x="330.8" y="0.4" transform="matrix(-0.7071 -0.7071 0.7071 -0.7071 565.5637 237.1237)" class="st19" width="2.1" height="2.1"/>
					
						<rect x="381.4" y="-22.5" transform="matrix(-0.7071 -0.7071 0.7071 -0.7071 668.0139 233.7268)" class="st19" width="2.1" height="2.1"/>
					
						<rect x="352.5" y="-33.7" transform="matrix(-0.7071 -0.7071 0.7071 -0.7071 626.5864 194.2504)" class="st19" width="2.1" height="2.1"/>
					
						<rect x="512.6" y="-5" transform="matrix(-0.7071 -0.7071 0.7071 -0.7071 879.6204 356.3867)" class="st19" width="2.1" height="2.1"/>
					
						<rect x="292" y="14.7" transform="matrix(-0.7071 -0.7071 0.7071 -0.7071 489.097 234.068)" class="st19" width="2.1" height="2.1"/>
					
						<rect x="537.1" y="-60.8" transform="matrix(-0.7071 -0.7071 0.7071 -0.7071 960.9177 278.4899)" class="st19" width="2.1" height="2.1"/>
					
						<rect x="218" y="15.5" transform="matrix(-0.7071 -0.7071 0.7071 -0.7071 362.313 183.202)" class="st19" width="2.1" height="2.1"/>
					
						<rect x="518.7" y="-62" transform="matrix(-0.7071 -0.7071 0.7071 -0.7071 929.9174 262.6717)" class="st19" width="1.4" height="1.4"/>
					
						<rect x="438" y="-16.1" transform="matrix(-0.7071 -0.7071 0.7071 -0.7071 759.738 283.8296)" class="st19" width="1.4" height="1.4"/>
					
						<rect x="428.5" y="-74.9" transform="matrix(-0.7071 -0.7071 0.7071 -0.7071 785.1555 176.8443)" class="st19" width="1.4" height="1.4"/>
					
						<rect x="460.5" y="8.2" transform="matrix(-0.7071 -0.7071 0.7071 -0.7071 781.0394 341.3642)" class="st19" width="1.4" height="1.4"/>
					
						<rect x="454.5" y="-29.7" transform="matrix(-0.1174 -0.9931 0.9931 -0.1174 537.4994 419.647)" class="st19" width="1.4" height="1.4"/>
					
						<rect x="333.9" y="-65.1" transform="matrix(-0.7071 -0.7071 0.7071 -0.7071 616.7672 126.7332)" class="st19" width="1.4" height="1.4"/>
					
						<rect x="294.4" y="-72.3" transform="matrix(-0.7071 -0.7071 0.7071 -0.7071 554.4056 86.4567)" class="st19" width="1.4" height="1.4"/>
					
						<rect x="867.6" y="-106" transform="matrix(-0.7071 -0.7071 0.7071 -0.7071 1557.0503 434.9825)" class="st19" width="2.1" height="2.1"/>
					
						<rect x="842.7" y="-128" transform="matrix(-0.7071 -0.7071 0.7071 -0.7071 1530.1437 379.948)" class="st19" width="2.1" height="2.1"/>
					
						<rect x="558.5" y="-111.2" transform="matrix(-0.7071 -0.7071 0.7071 -0.7071 1033.0051 207.637)" class="st19" width="2.1" height="2.1"/>
					
						<rect x="613.1" y="-111.1" transform="matrix(-0.7071 -0.7071 0.7071 -0.7071 1126.3137 246.426)" class="st19" width="2.1" height="2.1"/>
					
						<rect x="445.3" y="-35.9" transform="matrix(-0.7071 -0.7071 0.7071 -0.7071 786.4125 255.3542)" class="st20" width="1.5" height="1.5"/>
					
						<rect x="317" y="-78.7" transform="matrix(-0.7071 -0.7071 0.7071 -0.7071 597.539 91.6474)" class="st19" width="1.5" height="1.5"/>
					
						<rect x="302.8" y="-124.4" transform="matrix(-0.7071 -0.7071 0.7071 -0.7071 605.6666 3.6288)" class="st19" width="1.5" height="1.5"/>
					
						<rect x="395" y="-5.2" transform="matrix(-0.7071 -0.7071 0.7071 -0.7071 678.9503 272.9496)" class="st19" width="2.1" height="2.1"/>
					
						<rect x="489.4" y="-24.2" transform="matrix(-0.7071 -0.7071 0.7071 -0.7071 853.3954 306.5345)" class="st19" width="1.5" height="1.5"/>
					
						<rect x="541.1" y="-51.6" transform="matrix(-0.7071 -0.7071 0.7071 -0.7071 961.2977 297.0875)" class="st20" width="2.1" height="2.1"/>
					
						<rect x="460.1" y="-33" transform="matrix(-0.7071 -0.7071 0.7071 -0.7071 809.4731 270.7407)" class="st20" width="1.5" height="1.5"/>
					
						<rect x="377.5" y="-76.9" transform="matrix(-0.7071 -0.7071 0.7071 -0.7071 699.6048 137.4714)" class="st19" width="1.5" height="1.5"/>
					
						<rect x="643.3" y="-16.4" transform="matrix(-0.7071 -0.7071 0.7071 -0.7071 1110.9105 429.367)" class="st19" width="2.1" height="2.1"/>
					
						<rect x="475.5" y="-48.6" transform="matrix(-0.7071 -0.7071 0.7071 -0.7071 846.9207 255.1131)" class="st20" width="1.5" height="1.5"/>
					
						<rect x="352.4" y="-87.1" transform="matrix(-0.7071 -0.7071 0.7071 -0.7071 663.9517 102.357)" class="st19" width="1.5" height="1.5"/>
					
						<rect x="548.8" y="-28.1" transform="matrix(-0.7071 -0.7071 0.7071 -0.7071 957.8371 342.6723)" class="st20" width="2.1" height="2.1"/>
					
						<rect x="580.1" y="-53.6" transform="matrix(-0.7071 -0.7071 0.7071 -0.7071 1029.1267 320.7725)" class="st19" width="1.7" height="1.7"/>
					
						<rect x="554.5" y="-97.8" transform="matrix(-0.7071 -0.7071 0.7071 -0.7071 1016.8914 227.6205)" class="st19" width="2.1" height="2.1"/>
					
						<rect x="568.3" y="16.2" transform="matrix(-0.7071 -0.7071 0.7071 -0.7071 959.817 432.0004)" class="st19" width="2.1" height="2.1"/>
					
						<rect x="489.5" y="-99.5" transform="matrix(-0.7071 -0.7071 0.7071 -0.7071 906.8917 178.4049)" class="st19" width="1.7" height="1.7"/>
					
						<rect x="227" y="-5.6" transform="matrix(-0.7071 -0.7071 0.7071 -0.7071 392.461 153.4102)" class="st19" width="2.1" height="2.1"/>
					
						<rect x="467.1" y="-58.6" transform="matrix(-0.7071 -0.7071 0.7071 -0.7071 839.5095 232.0625)" class="st19" width="1.5" height="1.5"/>
					
						<rect x="511.6" y="3.7" transform="matrix(-0.7071 -0.7071 0.7071 -0.7071 871.513 369.9083)" class="st19" width="1.5" height="1.5"/>
					
						<rect x="499.2" y="-48" transform="matrix(-0.7071 -0.7071 0.7071 -0.7071 886.7896 272.874)" class="st19" width="1.5" height="1.5"/>
					
						<rect x="259.9" y="-101.5" transform="matrix(-0.7071 -0.7071 0.7071 -0.7071 516.253 12.3746)" class="st19" width="1.5" height="1.5"/>
					
						<rect x="449.3" y="-83" transform="matrix(-0.7071 -0.7071 0.7071 -0.7071 826.7183 178.4751)" class="st19" width="2.1" height="2.1"/>
					
						<rect x="696.3" y="-3.5" transform="matrix(-0.7071 -0.7071 0.7071 -0.7071 1192.2343 488.9794)" class="st19" width="2.1" height="2.1"/>
					
						<rect x="694" y="-76.9" transform="matrix(-0.7071 -0.7071 0.7071 -0.7071 1240.0635 362.0202)" class="st19" width="2.1" height="2.1"/>
					
						<rect x="435.9" y="-47.6" transform="matrix(-0.7071 -0.7071 0.7071 -0.7071 778.5016 228.7133)" class="st19" width="1.5" height="1.5"/>
					
						<rect x="626.8" y="-88.4" transform="matrix(-0.7071 -0.7071 0.7071 -0.7071 1133.6576 294.8076)" class="st19" width="2.1" height="2.1"/>
					
						<rect x="617.6" y="-44.6" transform="matrix(-0.7071 -0.7071 0.7071 -0.7071 1086.3904 362.0033)" class="st19" width="1.2" height="1.2"/>
					
						<rect x="364.1" y="-48.9" transform="matrix(-0.7071 -0.7071 0.7071 -0.7071 657.2288 176.5974)" class="st19" width="2.1" height="2.1"/>
					
						<rect x="411.8" y="-30.7" transform="matrix(-0.7071 -0.7071 0.7071 -0.7071 725.3357 240.4272)" class="st19" width="1.4" height="1.4"/>
					
						<rect x="261.2" y="-85.4" transform="matrix(-0.7071 -0.7071 0.7071 -0.7071 506.875 40.6254)" class="st19" width="1.4" height="1.4"/>
					
						<rect x="315" y="-72.3" transform="matrix(-0.7071 -0.7071 0.7071 -0.7071 589.6093 101.0162)" class="st19" width="1.4" height="1.4"/>
					
						<rect x="289.8" y="-51.2" transform="matrix(-0.7071 -0.7071 0.7071 -0.7071 531.5471 119.2417)" class="st19" width="1.4" height="1.4"/>
					
						<rect x="773.2" y="-32.6" transform="matrix(0.9282 0.3721 -0.3721 0.9282 43.7128 -290.2505)" class="st19" width="1.4" height="1.4"/>
					
						<rect x="805" y="17.8" transform="matrix(0.9282 0.3721 -0.3721 0.9282 64.7372 -298.4696)" class="st19" width="1.4" height="1.4"/>
					
						<rect x="742.8" y="-46.1" transform="matrix(0.9282 0.3721 -0.3721 0.9282 36.5005 -279.9317)" class="st19" width="1.4" height="1.4"/>
					
						<rect x="763.3" y="-13.5" transform="matrix(0.4985 0.8669 -0.8669 0.4985 372.0055 -668.7203)" class="st19" width="1.4" height="1.4"/>
					
						<rect x="888" y="-28.5" transform="matrix(0.9282 0.3721 -0.3721 0.9282 53.4715 -332.6931)" class="st19" width="1.4" height="1.4"/>
					
						<rect x="909" y="-22.7" transform="matrix(0.9282 0.3721 -0.3721 0.9282 57.172 -340.0721)" class="st19" width="1.5" height="1.5"/>
					
						<rect x="729" y="-5" transform="matrix(0.9282 0.3721 -0.3721 0.9282 50.8335 -271.8255)" class="st19" width="1.5" height="1.5"/>
					
						<rect x="852.5" y="-0.5" transform="matrix(0.9282 0.3721 -0.3721 0.9282 61.3736 -317.474)" class="st19" width="1.5" height="1.5"/>
					
						<rect x="879.6" y="-1" transform="matrix(0.9282 0.3721 -0.3721 0.9282 63.1226 -327.6028)" class="st19" width="1.5" height="1.5"/>
					
						<rect x="762.9" y="17.8" transform="matrix(0.9282 0.3721 -0.3721 0.9282 61.7443 -282.8289)" class="st19" width="1.5" height="1.5"/>
					
						<rect x="729.4" y="20.6" transform="matrix(0.9282 0.3721 -0.3721 0.9282 60.3704 -270.1425)" class="st19" width="1.5" height="1.5"/>
					
						<rect x="787.4" y="-4.6" transform="matrix(0.9282 0.3721 -0.3721 0.9282 55.1609 -293.5335)" class="st19" width="1.5" height="1.5"/>
					
						<rect x="803" y="-29.5" transform="matrix(0.9282 0.3721 -0.3721 0.9282 46.9982 -301.1245)" class="st19" width="1.4" height="1.4"/>
					
						<rect x="908.3" y="-29.2" transform="matrix(0.9282 0.3721 -0.3721 0.9282 54.6768 -340.2815)" class="st19" width="1.4" height="1.4"/>
					
						<rect x="878.1" y="-80.5" transform="matrix(0.9917 0.1285 -0.1285 0.9917 -2.9231 -113.6247)" class="st19" width="2.1" height="2.1"/>
					
						<rect x="736.4" y="-94.9" transform="matrix(0.9917 0.1285 -0.1285 0.9917 -5.9468 -95.5472)" class="st19" width="2.1" height="2.1"/>
					
						<rect x="720.3" y="-64.1" transform="matrix(0.9917 0.1285 -0.1285 0.9917 -2.1214 -93.2233)" class="st19" width="2.1" height="2.1"/>
					
						<rect x="672.7" y="-48.6" transform="matrix(0.9917 0.1285 -0.1285 0.9917 -0.5238 -86.9656)" class="st19" width="2.1" height="2.1"/>
					
						<rect x="800.9" y="-62.2" transform="matrix(0.9917 0.1285 -0.1285 0.9917 -1.2099 -103.5527)" class="st19" width="2.1" height="2.1"/>
					
						<rect x="743.1" y="-66.5" transform="matrix(0.9917 0.1285 -0.1285 0.9917 -2.2417 -96.161)" class="st19" width="2.1" height="2.1"/>
					
						<rect x="884.5" y="-67.5" transform="matrix(0.9917 0.1285 -0.1285 0.9917 -1.1976 -114.3511)" class="st19" width="2.1" height="2.1"/>
					
						<rect x="652.3" y="-96.1" transform="matrix(0.9917 0.1285 -0.1285 0.9917 -6.7965 -84.7379)" class="st19" width="2.1" height="2.1"/>
					
						<rect x="833.5" y="-64.2" transform="matrix(0.9917 0.1285 -0.1285 0.9917 -1.1961 -107.7703)" class="st19" width="2.1" height="2.1"/>
					
						<rect x="749.9" y="-72.9" transform="matrix(0.9917 0.1285 -0.1285 0.9917 -3.0083 -97.0999)" class="st19" width="2.1" height="2.1"/>
					
						<rect x="884.6" y="-48.3" transform="matrix(0.9917 0.1285 -0.1285 0.9917 1.269 -114.2037)" class="st19" width="2.1" height="2.1"/>
					
						<rect x="849.8" y="-36.7" transform="matrix(-0.7071 -0.7071 0.7071 -0.7071 1477.7043 540.8104)" class="st19" width="2.1" height="2.1"/>
					
						<rect x="825.6" y="-24.9" transform="matrix(-0.7071 -0.7071 0.7071 -0.7071 1427.9965 543.8042)" class="st19" width="2.1" height="2.1"/>
					
						<rect x="892.5" y="11.7" transform="matrix(-0.7071 -0.7071 0.7071 -0.7071 1516.2924 653.5705)" class="st19" width="2.1" height="2.1"/>
					
						<rect x="907.1" y="-89.8" transform="matrix(-0.7071 -0.7071 0.7071 -0.7071 1613.057 490.672)" class="st19" width="2.1" height="2.1"/>
					
						<rect x="900.4" y="-57.4" transform="matrix(-0.7071 -0.7071 0.7071 -0.7071 1578.6654 541.1873)" class="st19" width="2.1" height="2.1"/>
					
						<rect x="829" y="-115.4" transform="matrix(-0.7071 -0.7071 0.7071 -0.7071 1497.5574 390.9327)" class="st19" width="1.4" height="1.4"/>
					
						<rect x="836.4" y="-88" transform="matrix(-0.7071 -0.7071 0.7071 -0.7071 1490.8472 443.0793)" class="st19" width="1.5" height="1.5"/>
					
						<rect x="812.2" y="-71.1" transform="matrix(-0.7071 -0.7071 0.7071 -0.7071 1437.5668 454.5864)" class="st19" width="1.4" height="1.4"/>
				</g>
				
					<linearGradient id="SVGID_12_" gradientUnits="userSpaceOnUse" x1="259.6147" y1="628.3237" x2="556.8152" y2="617.2183" gradientTransform="matrix(1 0 0 -1 0 702)">
					<stop  offset="0" style="stop-color:#404F58"/>
					<stop  offset="0.3424" style="stop-color:#41535D"/>
					<stop  offset="0.8823" style="stop-color:#445E6D"/>
					<stop  offset="1" style="stop-color:#456171"/>
				</linearGradient>
				<polygon class="st21" points="564.6,83.8 561.4,83 561.2,82.8 557.9,82.4 553.6,80.3 552.6,79.9 557.6,79.6 559.6,78.6 
					564,78.9 576.2,76.4 567.9,76.5 564.2,76.5 555.5,75.7 552.8,76.1 550,75.7 541.4,76.3 530.3,74.3 519,74.6 514.9,75.5 
					506.8,74.8 503.8,73.6 495.8,74.4 489,74.5 482.6,73.3 471.9,73.3 461.9,73.3 456.4,71 442.5,71 424.5,71 418.2,67.9 
					396.3,71.3 379.4,68.1 332.5,69.3 306.1,62.7 287.3,63.8 251.7,61 251.7,83.8 331.8,83.8 362.9,86.2 382.9,91 441.2,88.2 
					465.3,91.8 489.9,91 511.4,92.1 504.1,89.3 512.3,86.6 513.6,85.2 514.3,85.2 530.4,85.6 532.6,85.2 548.9,85 559.2,85 
					560.3,85 561.4,84.8 566.3,84.5 				"/>
				
					<linearGradient id="land-left2_2_" gradientUnits="userSpaceOnUse" x1="450.9541" y1="748.9104" x2="402.9892" y2="630.3303" gradientTransform="matrix(1 0 0 -1 0 702)">
					<stop  offset="0.1139" style="stop-color:#334D5A"/>
					<stop  offset="1" style="stop-color:#384A56"/>
				</linearGradient>
				<polygon id="land-left2_1_" class="st22" points="540.7,94.6 527.1,92.6 508.6,91.5 496.2,88.4 486.4,87.6 464.2,89.4 
					431.3,83.1 399.8,86.1 372.1,82.3 348.1,83.3 328.5,81.4 322.1,78 301.4,76.4 284.8,76.4 275.9,81.4 255.5,78 250.3,77.6 
					250.3,114.7 270.3,114.5 307.4,113.8 352.3,114.4 412.9,114.2 434,114.4 451.3,106.1 468.5,106.8 487,102.4 495.2,98.8 
					510.6,97 532.6,97.3 543.5,95.6 				"/>
				
					<linearGradient id="land-left1_2_" gradientUnits="userSpaceOnUse" x1="804.0964" y1="593.692" x2="365.8778" y2="569.7557" gradientTransform="matrix(1 0 0 -1 0 702)">
					<stop  offset="4.998519e-04" style="stop-color:#303D44"/>
					<stop  offset="0.5639" style="stop-color:#34424A"/>
					<stop  offset="0.9715" style="stop-color:#223239"/>
				</linearGradient>
				<polygon id="land-left1_1_" class="st23" points="526.3,114.7 502.8,109.3 483.1,109.7 465.5,105.2 436.8,104.2 409.4,99.5 
					377.4,99.8 331.6,94.4 315.2,95.5 315.2,95.5 251,91 251,170.5 309.8,170.5 309.8,170.5 313.8,170.5 329.8,170.5 339.8,170.5 
					350.4,170.5 372.5,170.5 537.2,170.4 506.2,156.9 480,153.1 454.2,145.3 441.6,140.6 460.6,141.5 464.8,137.4 483.8,136.1 
					501.2,137.7 518.2,136.5 525,132.7 533.6,132.7 542.2,128.5 559.6,127.8 541.1,120 				"/>
				
					<linearGradient id="SVGID_13_" gradientUnits="userSpaceOnUse" x1="591.5676" y1="-18.9504" x2="663.8388" y2="-17.8483" gradientTransform="matrix(0.999 4.384206e-02 -4.384206e-02 0.999 6.7616 -40.6051)">
					<stop  offset="0" style="stop-color:#F2FAFE"/>
					<stop  offset="0.2092" style="stop-color:#F3C187"/>
					<stop  offset="0.4322" style="stop-color:#EB8D80"/>
					<stop  offset="0.4645" style="stop-color:#C77E75"/>
					<stop  offset="0.5125" style="stop-color:#996B66"/>
					<stop  offset="0.5623" style="stop-color:#705A59"/>
					<stop  offset="0.613" style="stop-color:#504C4E"/>
					<stop  offset="0.665" style="stop-color:#364146"/>
					<stop  offset="0.7187" style="stop-color:#243A41"/>
					<stop  offset="0.7754" style="stop-color:#19353D"/>
					<stop  offset="0.8399" style="stop-color:#16343C"/>
				</linearGradient>
				<path class="st24" d="M603.2-34.5c-1.4-0.1-2.7-0.1-4.1-0.2l-0.7,0.3L599-34c3.1,0.1,6.2,0.2,9.3,0.4
					c26.1,1.1,49.1,3.3,63.3,5.6C658.4-30.6,632.7-33.2,603.2-34.5z"/>
			</g>
		</g>
	</g>
</g>
<path class="st25" d="M320.8,170.5l584.6-0.1c1.2-11.7,1.8-23.7,1.8-35.7c0-86.6-32-165.7-84.9-226.2H452.2L320.8,170.5z"/>
<g id="yeti">
	
		<linearGradient id="SVGID_14_" gradientUnits="userSpaceOnUse" x1="2379.5808" y1="-179.0999" x2="2418.929" y2="-70.7499" gradientTransform="matrix(-0.7937 -3.776829e-02 -4.753026e-02 0.9989 2449.3503 576.0085)">
		<stop  offset="0" style="stop-color:#F3C187"/>
		<stop  offset="9.101394e-02" style="stop-color:#957F7E"/>
		<stop  offset="0.3157" style="stop-color:#6E7173"/>
		<stop  offset="0.7166" style="stop-color:#A7A9AC"/>
		<stop  offset="0.7463" style="stop-color:#ABADB0"/>
		<stop  offset="0.8691" style="stop-color:#B6B8BA"/>
		<stop  offset="1" style="stop-color:#BABCBE"/>
	</linearGradient>
	<polygon class="st26" points="481.4,334.9 485.6,352.2 499.2,377.6 520.5,393.1 547.4,409.6 584.4,405.7 609.3,384.4 633.3,363.4 
		637.6,355.3 607.6,355 590.4,318.2 578.8,324.1 555.9,340 550.6,332.1 539,316.8 519.3,297 496.3,297.5 482.4,312.8 	"/>
	<g>
		
			<linearGradient id="SVGID_15_" gradientUnits="userSpaceOnUse" x1="2056.011" y1="-146.0724" x2="1955.6572" y2="-193.7178" gradientTransform="matrix(-1.1312 4.092877e-02 3.615890e-02 0.9993 2928.252 387.9453)">
			<stop  offset="0" style="stop-color:#293942"/>
			<stop  offset="1" style="stop-color:#0F1C21"/>
		</linearGradient>
		<path class="st27" d="M663.2,308.5l3.3,12.9l5,8.9c0,0-8.4,2.3-9.2,4.5c-0.9,2.2-8,8.5-8,8.5s-9.9,15.9-10.5,16.3
			s-11.6,4.7-11.6,4.7l-7.1,6.2l-19.5-4L586.8,355l-14-26.7l6.1-4.2l0.3-13.3l3.6-15.7l0.1-12l-0.6-7.4l6.2-0.7l7.1,2l7.5,8.4
			l0.3,13.7l6.1-18.4l10.4-12l11.9-3.2l12.3-1.1l16.8,8.2l-2.7,5.1c0,0-3.5,5.4-9.6,6c-3.9,0.4-11.3,2.5-11.3,2.5l-2,4l-2.7,4.6
			l2.7,1.3l4.7-3.5l9.3-2.4l11.2,10.4l-1.8,8.1L663.2,308.5z"/>
		
			<linearGradient id="SVGID_16_" gradientUnits="userSpaceOnUse" x1="681.23" y1="332.4416" x2="709.1515" y2="327.0124" gradientTransform="matrix(1.1317 -4.766682e-03 -4.766682e-03 1.0002 -158.9342 5.752)">
			<stop  offset="0" style="stop-color:#293942"/>
			<stop  offset="1" style="stop-color:#0F1C21"/>
		</linearGradient>
		<path class="st28" d="M638.3,298.7l-2.4,20.6l2,5.7l2.5,4.7l12.6-2.5l-0.1,6.9l2.2,1.9l2,0.7l-0.4,2.9l-2.5,3.9l-10.5,16.3
			l-16.5,4.8c0,0-19,1.2-19.6,0.7s-6.8-5.8-6.8-5.8l20.9-6.4l2.2-14.6l0.4-11.9l5.4-13.9c0,0,2.7-8.3,3.1-8.6c0.4-0.3,2.4-6,2.4-6
			L638.3,298.7z"/>
		<g>
			
				<linearGradient id="SVGID_17_" gradientUnits="userSpaceOnUse" x1="1988.6846" y1="-154.2085" x2="2024.0754" y2="-154.2085" gradientTransform="matrix(-1.1312 4.092877e-02 3.615890e-02 0.9993 2928.252 387.9453)">
				<stop  offset="0" style="stop-color:#293942"/>
				<stop  offset="1" style="stop-color:#243137"/>
			</linearGradient>
			<polygon class="st29" points="648.9,290.1 660.1,300.8 658.4,308.9 663.2,308.7 672,316.2 673.6,331.1 668.6,338.1 655.1,341.9 
				652.2,333.8 653.1,327.2 642.2,331.1 635.7,325.8 633.7,318.6 636.5,303.9 632.2,294.8 638.9,291.7 			"/>
			
				<linearGradient id="SVGID_18_" gradientUnits="userSpaceOnUse" x1="2061.8806" y1="-120.6733" x2="2061.9814" y2="-120.6733" gradientTransform="matrix(-1.1312 4.092877e-02 3.615890e-02 0.9993 2928.252 387.9453)">
				<stop  offset="0" style="stop-color:#293942"/>
				<stop  offset="1" style="stop-color:#243137"/>
			</linearGradient>
			<path class="st30" d="M591.3,351.7l0.1,0.1L591.3,351.7z"/>
		</g>
	</g>
	<linearGradient id="SVGID_19_" gradientUnits="userSpaceOnUse" x1="423.0186" y1="325.9002" x2="454.0186" y2="417.4003">
		<stop  offset="0" style="stop-color:#4E5763"/>
		<stop  offset="0.6083" style="stop-color:#A7A9AC"/>
		<stop  offset="1" style="stop-color:#A7A9AC"/>
	</linearGradient>
	<polygon class="st31" points="312.9,311.3 307.8,330.8 309.9,351 316.1,372.2 333.1,391.1 355.4,402.5 381,401.1 402.5,398.8 
		451.8,389.7 467.2,392.6 491.1,399 501.4,407.4 508.9,408.9 517.5,408.2 529.9,387.8 544.9,331.5 542,315.5 531,302.9 489.6,300.3 
		459.1,327.5 335.5,298.3 	"/>
	<g>
		
			<linearGradient id="SVGID_20_" gradientUnits="userSpaceOnUse" x1="2042.9424" y1="758.8058" x2="2017.2125" y2="774.537" gradientTransform="matrix(-0.8368 -0.5475 -0.5475 0.8368 2639.051 786.2862)">
			<stop  offset="0" style="stop-color:#939598"/>
			<stop  offset="1" style="stop-color:#293942"/>
		</linearGradient>
		<polygon class="st32" points="518.1,336.9 521.8,324.6 523.8,310.5 522.9,302.5 524.5,299.3 526.2,309.3 524.4,325.1 521.2,338.3 
					"/>
		
			<linearGradient id="SVGID_21_" gradientUnits="userSpaceOnUse" x1="2007.9888" y1="802.5423" x2="1977.6805" y2="837.2922" gradientTransform="matrix(-0.8223 -0.569 -0.569 0.8223 2628.1479 820.1905)">
			<stop  offset="0" style="stop-color:#5B3528"/>
			<stop  offset="0.17" style="stop-color:#5B3528"/>
			<stop  offset="0.2068" style="stop-color:#753B22"/>
			<stop  offset="0.2534" style="stop-color:#90421C"/>
			<stop  offset="0.3012" style="stop-color:#A34617"/>
			<stop  offset="0.3502" style="stop-color:#AE4915"/>
			<stop  offset="0.4024" style="stop-color:#B24A14"/>
			<stop  offset="0.5719" style="stop-color:#5B3528"/>
		</linearGradient>
		<polygon class="st33" points="514.3,335.4 508.1,357.5 508.4,365.6 526.6,371.2 535.4,360.2 533.2,353.7 535.8,341.9 535.3,338 
			518.1,332.9 		"/>
		
			<linearGradient id="SVGID_22_" gradientUnits="userSpaceOnUse" x1="1996.5426" y1="834.962" x2="1964.0039" y2="871.4966" gradientTransform="matrix(-0.7678 -0.6407 -0.6407 0.7678 2593.584 940.0015)">
			<stop  offset="0" style="stop-color:#CFD1D2"/>
			<stop  offset="1" style="stop-color:#293942"/>
		</linearGradient>
		<polygon class="st34" points="535.9,303.2 536.3,311.9 535.9,322.3 534.3,332.1 532.1,339.1 527.1,355 516.8,349.1 521.1,334.1 
			523.4,327.5 524.9,319.2 525.6,309.2 524.5,299.3 		"/>
		<g>
			
				<linearGradient id="SVGID_23_" gradientUnits="userSpaceOnUse" x1="1984.1744" y1="850.962" x2="1976.6945" y2="843.1313" gradientTransform="matrix(-0.7678 -0.6407 -0.6407 0.7678 2593.584 940.0015)">
				<stop  offset="0.2638" style="stop-color:#465A65"/>
				<stop  offset="1" style="stop-color:#0F1C21"/>
			</linearGradient>
			<polygon class="st35" points="524.7,320.4 535.6,323.8 535.8,322.6 524.9,319.2 			"/>
		</g>
		<g>
			
				<linearGradient id="SVGID_24_" gradientUnits="userSpaceOnUse" x1="1990.1996" y1="842.487" x2="1982.906" y2="834.8514" gradientTransform="matrix(-0.7678 -0.6407 -0.6407 0.7678 2593.584 940.0015)">
				<stop  offset="0.2638" style="stop-color:#465A65"/>
				<stop  offset="1" style="stop-color:#0F1C21"/>
			</linearGradient>
			<polygon class="st36" points="525.5,309.8 536.3,313.1 536.3,311.9 525.5,309.2 			"/>
		</g>
		<g>
			
				<linearGradient id="SVGID_25_" gradientUnits="userSpaceOnUse" x1="1889.2058" y1="989.3172" x2="1881.3243" y2="981.0662" gradientTransform="matrix(-0.6238 -0.7816 -0.7816 0.6238 2474.8555 1189.2107)">
				<stop  offset="0.2638" style="stop-color:#465A65"/>
				<stop  offset="1" style="stop-color:#0F1C21"/>
			</linearGradient>
			<polygon class="st37" points="523.2,328.5 534.1,333 534.3,332.1 523.4,327.5 			"/>
		</g>
		
			<linearGradient id="SVGID_26_" gradientUnits="userSpaceOnUse" x1="2004.3779" y1="802.3908" x2="1987.9037" y2="821.2794" gradientTransform="matrix(-0.8223 -0.569 -0.569 0.8223 2628.1479 820.1905)">
			<stop  offset="0" style="stop-color:#283841"/>
			<stop  offset="1" style="stop-color:#0F1C21"/>
		</linearGradient>
		<polygon class="st38" points="532.8,341.3 519,337.3 515.2,349.5 520,358.5 529,354.7 		"/>
	</g>
	<g>
		<g id="neck_tube_3_">
			
				<linearGradient id="SVGID_27_" gradientUnits="userSpaceOnUse" x1="265.8547" y1="299.0929" x2="48.1025" y2="309.8727" gradientTransform="matrix(1 0 0 1 270.4788 0)">
				<stop  offset="0.2638" style="stop-color:#293942"/>
				<stop  offset="1" style="stop-color:#2A373E"/>
			</linearGradient>
			<polygon class="st39" points="539,291.5 531.6,302.5 530.2,308.4 527.3,314 523.8,317.7 522.4,323.7 512.1,331 494.3,330.3 
				466.8,335.4 455.4,339 405.4,331.1 379.8,318.3 356.6,307.9 337.8,305 321.2,307.7 312.9,311.3 319.5,302.6 315.8,289.1 
				321.1,285.9 326,273.6 327.6,282 360.1,290.1 486.5,294.8 514.8,291.5 			"/>
			
				<linearGradient id="SVGID_28_" gradientUnits="userSpaceOnUse" x1="256.831" y1="302.75" x2="268.6052" y2="302.75" gradientTransform="matrix(1 0 0 1 270.4788 0)">
				<stop  offset="0" style="stop-color:#F3C187"/>
				<stop  offset="1" style="stop-color:#F1F2F2"/>
			</linearGradient>
			<polygon class="st40" points="532.3,294.4 527.7,302.7 527.3,314 530.2,308.4 531.6,302.5 539,291.5 			"/>
			
				<linearGradient id="SVGID_29_" gradientUnits="userSpaceOnUse" x1="139.0712" y1="306.4" x2="217.3515" y2="306.4" gradientTransform="matrix(1 0 0 1 270.4788 0)">
				<stop  offset="0" style="stop-color:#293942"/>
				<stop  offset="1" style="stop-color:#0F1C21"/>
			</linearGradient>
			<polygon class="st41" points="487.8,303.5 472.8,306.4 446.5,309.6 429.3,309.1 414.9,305.8 409.5,303.2 420.2,303.9 
				427.9,306.2 449.5,306 470.9,304.8 			"/>
			
				<linearGradient id="SVGID_30_" gradientUnits="userSpaceOnUse" x1="84.9712" y1="312.35" x2="174.9712" y2="312.35" gradientTransform="matrix(1 0 0 1 270.4788 0)">
				<stop  offset="0" style="stop-color:#293942"/>
				<stop  offset="1" style="stop-color:#162329"/>
			</linearGradient>
			<polygon class="st42" points="385,304.1 414.4,306.7 435.9,314.1 445.4,320.6 435.2,320.4 415.8,315.4 404.6,315.6 370.3,312.6 
				355.4,306.6 			"/>
			
				<linearGradient id="SVGID_31_" gradientUnits="userSpaceOnUse" x1="127.8712" y1="329.25" x2="215.7712" y2="329.25" gradientTransform="matrix(1 0 0 1 270.4788 0)">
				<stop  offset="0" style="stop-color:#293942"/>
				<stop  offset="1" style="stop-color:#0F1C21"/>
			</linearGradient>
			<polygon class="st43" points="398.3,327.5 416.8,328.9 432.1,328 449.8,330.2 486.2,323.1 473.1,328.9 452.8,335.4 405.4,331.1 
							"/>
			
				<linearGradient id="SVGID_32_" gradientUnits="userSpaceOnUse" x1="215.5712" y1="309.25" x2="255.0712" y2="309.25" gradientTransform="matrix(1 0 0 1 270.4788 0)">
				<stop  offset="0" style="stop-color:#293942"/>
				<stop  offset="1" style="stop-color:#0F1C21"/>
			</linearGradient>
			<polygon class="st44" points="525.5,300.3 498.9,311.3 486,318.2 503.3,312.8 513,308.8 			"/>
		</g>
	</g>
	<g id="space_yeti">
		<path class="st45" d="M553.6,88.4L489,75.2l-84.4,23.7l-53.8,43.5l7.4,59.6l44.5,21.5l16.9,43.2l25.3,2l55.1-0.5l40.8-7l1.4-0.2
			c17.8-19.2,33.5-56.9,33.2-94.5c-0.2-20.2-2-36.1-9.1-52.4L553.6,88.4z"/>
		
			<linearGradient id="SVGID_33_" gradientUnits="userSpaceOnUse" x1="-1145.7089" y1="191.45" x2="-1133.1088" y2="191.45" gradientTransform="matrix(1 0 0 1 1665.6588 0)">
			<stop  offset="0.339" style="stop-color:#0E1D24"/>
			<stop  offset="0.7571" style="stop-color:#322E2F"/>
		</linearGradient>
		<polygon class="st46" points="519.9,189.6 519.9,195.9 532.2,193.4 532.5,187 		"/>
		
			<linearGradient id="SVGID_34_" gradientUnits="userSpaceOnUse" x1="3286.1877" y1="38.9436" x2="3334.1707" y2="38.9436" gradientTransform="matrix(-1 9.884078e-03 9.884078e-03 1 3833.3491 -9.2799)">
			<stop  offset="0" style="stop-color:#A77B5E"/>
			<stop  offset="0.291" style="stop-color:#4E5763"/>
			<stop  offset="0.5816" style="stop-color:#0E1C22"/>
		</linearGradient>
		<path class="st47" d="M529.9,27.2c-0.3-5.7,3.6-5.7,7.3-0.1c4,6.2,8.1,16.5,9.2,22c4.3,20.7-3.6,38.2-24.2,52.4c0,0-0.1,0-0.1,0.1
			l0,0l-0.1,0.1c-1.4,0.9-7.4-5.5-13.5-14.3s-9.9-16.8-8.5-17.7c0.1-0.1,0.2-0.1,0.3-0.1C515.2,59.3,530.9,45.7,529.9,27.2z"/>
		
			<linearGradient id="SVGID_35_" gradientUnits="userSpaceOnUse" x1="-1351.1232" y1="267.3276" x2="-1119.915" y2="267.3276" gradientTransform="matrix(1 -9.884079e-03 9.884079e-03 1 1662.0432 12.1816)">
			<stop  offset="0" style="stop-color:#686D71"/>
			<stop  offset="0.356" style="stop-color:#273D44"/>
			<stop  offset="0.4785" style="stop-color:#3A484E"/>
			<stop  offset="0.6452" style="stop-color:#4D5458"/>
			<stop  offset="0.817" style="stop-color:#585B5E"/>
			<stop  offset="1" style="stop-color:#5C5D60"/>
		</linearGradient>
		<path class="st48" d="M313.4,281.5l0.1,9.2c0.1,7.5,51.9,13,115.7,12.4c63.9-0.6,115.6-7.2,115.5-14.6l-0.1-9.3L313.4,281.5z"/>
		
			<linearGradient id="SVGID_36_" gradientUnits="userSpaceOnUse" x1="-1112.3353" y1="255.9064" x2="-1354.5668" y2="255.9064" gradientTransform="matrix(1 -9.884079e-03 9.884079e-03 1 1662.0432 12.1816)">
			<stop  offset="0" style="stop-color:#939692"/>
			<stop  offset="0.3887" style="stop-color:#7A7979"/>
			<stop  offset="1" style="stop-color:#273D44"/>
		</linearGradient>
		<path class="st49" d="M544.6,279.2c0.1,7.5-51.6,14-115.5,14.6s-115.7-4.9-115.7-12.4s51.6-14,115.5-14.6
			C492.8,266.2,544.6,271.7,544.6,279.2z"/>
		
			<linearGradient id="SVGID_37_" gradientUnits="userSpaceOnUse" x1="-1162.2954" y1="143.1049" x2="-1101.6752" y2="153.9299" gradientTransform="matrix(1 -9.884079e-03 9.884079e-03 1 1662.0432 12.1816)">
			<stop  offset="0" style="stop-color:#0F1C21"/>
			<stop  offset="1" style="stop-color:#293942"/>
		</linearGradient>
		<polygon class="st50" points="542.5,260.8 546.2,222.7 513.8,198 515.3,167.5 515.3,162.6 541.5,142.1 556.5,126 564.4,112.5 
			565.7,109.5 563.7,101.4 547.4,79.4 504,41.7 437.2,25.3 379.8,51.5 310.5,109.4 313.2,177.5 347.3,247.8 403.2,281 461.4,285.4 
					"/>
		
			<linearGradient id="SVGID_38_" gradientUnits="userSpaceOnUse" x1="-1348.1339" y1="252.4626" x2="-1129.3186" y2="252.4626" gradientTransform="matrix(1 -9.884079e-03 9.884079e-03 1 1662.0432 12.1816)">
			<stop  offset="0" style="stop-color:#F3C187"/>
			<stop  offset="9.101394e-02" style="stop-color:#D47A6D"/>
			<stop  offset="0.3157" style="stop-color:#CFD1D2"/>
			<stop  offset="0.9595" style="stop-color:#A7A9AC"/>
			<stop  offset="0.9634" style="stop-color:#B5AEA5"/>
			<stop  offset="0.9722" style="stop-color:#D0B697"/>
			<stop  offset="0.9811" style="stop-color:#E3BC8E"/>
			<stop  offset="0.9902" style="stop-color:#EEC088"/>
			<stop  offset="1" style="stop-color:#F2C186"/>
		</linearGradient>
		<path class="st51" d="M319.8,266l0.1,13.5c0.1,5.7,48.6,9.9,108.4,9.3s108.2-5.7,108.2-11.4l-0.1-13.5l-18.7,2.9l-18.1,2.1
			L319.8,266z"/>
		<path class="st52" d="M373.3,255.2c-32.7,2.5-53.7,6.1-53.6,9.8c0,3.8,21,6.9,53.6,8.6V255.2z"/>
		
			<linearGradient id="SVGID_39_" gradientUnits="userSpaceOnUse" x1="-1351.9823" y1="221.2376" x2="-1129.3373" y2="221.2376" gradientTransform="matrix(1 -9.884079e-03 9.884079e-03 1 1662.0432 12.1816)">
			<stop  offset="0" style="stop-color:#585C5F"/>
			<stop  offset="0.3157" style="stop-color:#CFD1D2"/>
			<stop  offset="0.9673" style="stop-color:#A7A9AC"/>
		</linearGradient>
		<path class="st53" d="M498.3,274.2l-79-4.2l-7.3-18.9l-11-28.8l-21.8-10.7l-24.8-9.3L315.6,230l8.6,13c0,0,14.1,14.5,19.3,19.3
			l14.1,3.5l12.1,2.8l2.8,4.7c-38.5-1.9-52.7-5.9-52.7-8.6l0.1,14.4c0.1,5.7,48.6,11.2,108.4,10.6s108.2-5.2,108.2-10.9l-0.1-15.3
			C536.2,264.3,498.6,273.7,498.3,274.2z"/>
		
			<linearGradient id="SVGID_40_" gradientUnits="userSpaceOnUse" x1="-1359.1093" y1="6.3247" x2="-1249.9462" y2="84.4512" gradientTransform="matrix(1 -9.884079e-03 9.884079e-03 1 1662.0432 12.1816)">
			<stop  offset="0" style="stop-color:#494C4F"/>
			<stop  offset="0.6682" style="stop-color:#BEC0C2"/>
			<stop  offset="0.8462" style="stop-color:#CDD1D1"/>
			<stop  offset="1" style="stop-color:#A7A9AC"/>
		</linearGradient>
		<path class="st54" d="M342.3,132.6l129.1-72.1l54.8-2c-12.2-28.1-51.7-44-96.5-41.5c-75.8,4.1-137.8,69.2-137.1,145.1
			C292.8,177.5,342.3,132.6,342.3,132.6z"/>
		
			<linearGradient id="SVGID_41_" gradientUnits="userSpaceOnUse" x1="-1370.3749" y1="37.1059" x2="-1318.8308" y2="37.1059" gradientTransform="matrix(1 -9.884079e-03 9.884079e-03 1 1662.0432 12.1816)">
			<stop  offset="0" style="stop-color:#5A5C5D"/>
			<stop  offset="0.3203" style="stop-color:#4E5763"/>
			<stop  offset="1" style="stop-color:#0E1C22"/>
		</linearGradient>
		<path class="st55" d="M310,25c-0.1-5.1-3.8-5.8-7.7,0.1c-4.6,6.9-8.2,17.6-9.3,23.4c-4.1,21.9,4.6,40.4,26.7,55l1.1,0.7
			c1.5,1,9-5.5,15.3-15c6.2-9.5,8.6-18.4,7.2-19.3c-0.1-0.1-0.9-0.8-1-0.8C326.3,58.6,310.5,44.7,310,25z"/>
		
			<linearGradient id="SVGID_42_" gradientUnits="userSpaceOnUse" x1="-1345.1691" y1="227.8219" x2="-1294.8136" y2="227.8219" gradientTransform="matrix(1 -9.884079e-03 9.884079e-03 1 1662.0432 12.1816)">
			<stop  offset="0" style="stop-color:#4E5763"/>
			<stop  offset="0.6682" style="stop-color:#273D44"/>
			<stop  offset="1" style="stop-color:#273D44"/>
		</linearGradient>
		<path class="st56" d="M318.9,235.5c0,0,4.1,23.8,4.6,26.4s0.5,2.5,2.1,3.2c1.9,0.8,6.5,1.7,11.3,2.3c9.3,1.4,32.8,3.2,32.8,3.2
			v-1.8c0,0-20.4-5.8-29.2-11.5C328.1,249.2,318.9,235.5,318.9,235.5z"/>
		
			<linearGradient id="SVGID_43_" gradientUnits="userSpaceOnUse" x1="-1139.5717" y1="94.401" x2="-1206.6671" y2="202.984" gradientTransform="matrix(1 0 0 1 1665.6588 0)">
			<stop  offset="0" style="stop-color:#273D44"/>
			<stop  offset="0.2046" style="stop-color:#ADA7A5"/>
			<stop  offset="0.3735" style="stop-color:#C6C8CA"/>
			<stop  offset="0.687" style="stop-color:#CDD1D1"/>
		</linearGradient>
		<path class="st57" d="M508.5,107.7l13.4-4l16.8,5.4l-12.5,9.6l15.5,2.9l7.5,8.9l-12.6,5.6l-4.7,5.7c0,0-7,37.2-7.7,57.6
			c-0.7,20.3,1.6,66.3,1.6,66.3l-24.6,3.8h-53.9l-25.1-2.9l-16.3-48.4l-18.1-8.7c0,0-6-40.3-5.6-45.4c0.4-5.1,7.7-20.4,9-22.4
			c1.6-2.4,13.4-11.2,13.4-11.2s21.9-13.4,29.7-16.5c7.7-3.1,13.7-3.7,13.7-3.7l52.7-15.1L508.5,107.7z"/>
		
			<radialGradient id="SVGID_44_" cx="-1205.5305" cy="148.3933" r="91.5661" gradientTransform="matrix(1 -9.884079e-03 9.884079e-03 1 1662.0432 12.1816)" gradientUnits="userSpaceOnUse">
			<stop  offset="0" style="stop-color:#0F1C21;stop-opacity:0"/>
			<stop  offset="0.6763" style="stop-color:#0F1C21;stop-opacity:0.6512"/>
			<stop  offset="0.7625" style="stop-color:#1A282F;stop-opacity:0.7441"/>
			<stop  offset="0.8885" style="stop-color:#24343C;stop-opacity:0.8799"/>
			<stop  offset="1" style="stop-color:#283841"/>
		</radialGradient>
		<path class="st58" d="M388.5,214.3c0,0-6.9-45.2-6.2-50.3s7.2-19.7,9-22.4s13.4-11.2,13.4-11.2s22.6-13.6,29.7-16.5
			c7.1-2.9,31.1-8.3,31.1-8.3l33.6-1.6l9.4,3.7c0,0,9.8-1.5,14.2-1.6c4.3,0,16.1,2.9,16.1,2.9l-12.5,9.6l15.5,2.9l7.5,8.9l-12.6,5.6
			l-4.7,5.7l-1.5,9l11-8.6l15.1-16.1l7.9-13.5l0.8-1.9l-7.4-18l-26.9-14l-30.6-3.1l-18.7,0.8l-16.6,1.3l-27.2,8.3l-80.6,32.3
			l-3,23.3l7.1,61.4L388.5,214.3z"/>
		<g class="st5">
			<polygon class="st59" points="462.4,251 458.8,254.1 454,246.3 453.6,246.8 458.2,257.9 462.6,255.5 468.2,260.3 478.1,256 
				480.8,259.4 490.9,245 482.1,252.7 479.1,250.5 468.6,255.6 			"/>
		</g>
		<g class="st8">
			<path class="st60" d="M503,208c3,0,5.8,0.5,7.9,1.4c0.1,0,0.2,0,0.4,0.1c3-2.5,5-7.2,5-12.7c0-8.1-4.4-14.6-9.9-14.6
				c-5.5,0-9.9,6.5-9.9,14.6c0,4.6,1.5,8.7,3.7,11.4C501,208,502,208,503,208z"/>
			
				<linearGradient id="SVGID_45_" gradientUnits="userSpaceOnUse" x1="-1164.0511" y1="197.6" x2="-1153.1803" y2="197.6" gradientTransform="matrix(1 0 0 1 1665.6588 0)">
				<stop  offset="0" style="stop-color:#293942"/>
				<stop  offset="1" style="stop-color:#0F1C21"/>
			</linearGradient>
			<ellipse class="st61" cx="507" cy="197.6" rx="5.4" ry="8.9"/>
			<ellipse class="st60" cx="505" cy="191.1" rx="2" ry="3.4"/>
		</g>
		<g class="st5">
			<path class="st60" d="M444.6,209.7c1.7,0,3.4,0.1,4.9,0.3c2.6-3.3,4.2-8,4.2-13.3c0-10-5.9-18-13.1-18s-13.1,8.1-13.1,18
				c0,6.1,2.2,11.5,5.6,14.8C436.3,210.4,440.3,209.7,444.6,209.7z"/>
			
				<linearGradient id="SVGID_46_" gradientUnits="userSpaceOnUse" x1="-1229.5088" y1="196.7" x2="-1215.3821" y2="196.7" gradientTransform="matrix(1 0 0 1 1665.6588 0)">
				<stop  offset="0" style="stop-color:#293942"/>
				<stop  offset="1" style="stop-color:#0F1C21"/>
			</linearGradient>
			<ellipse class="st62" cx="443.2" cy="196.7" rx="7.1" ry="10.4"/>
			<ellipse class="st60" cx="440" cy="189.2" rx="2.6" ry="3.9"/>
		</g>
		<path class="st59" d="M442.5,164.2c5.1,0.7,9.6,2.6,13,5.2c-1.7-5.6-6.3-9.9-12.2-10.8c-5.9-0.8-11.6,2.1-14.7,7
			C432.6,164.1,437.4,163.5,442.5,164.2z"/>
		
			<linearGradient id="SVGID_47_" gradientUnits="userSpaceOnUse" x1="-1169.1089" y1="170.7244" x2="-1147.3782" y2="170.7244" gradientTransform="matrix(1 0 0 1 1665.6588 0)">
			<stop  offset="0" style="stop-color:#A1A3A6"/>
			<stop  offset="1" style="stop-color:#9D867B"/>
		</linearGradient>
		<path class="st63" d="M506.5,170.5c4.1-1.1,8.2-0.8,11.7,0.4c-3.3-4.6-8.3-7-13.1-5.7c-4.8,1.2-8,5.8-8.6,11.4
			C499,173.7,502.4,171.5,506.5,170.5z"/>
		<path class="st64" d="M456.9,236.6c-0.7-0.3,11.3,0,30.3-3.5c0,0-0.2-1.5,0-3.2c0.1-1,0.4-2.1,0.8-2.9c0,0,1.7,6.3,3.4,7.5
			c0,0-3.6,3.6-12.9,5.2c0,0,5.1-2.2,7.1-3.8C485.8,235.7,464.8,239.5,456.9,236.6z"/>
		<path class="st65" d="M513.2,266.5l5.7-0.9l6.9-1.3c0,0-0.9-16.4-1.4-36.6c-0.2,1.5-0.4,3-0.6,4.4
			C521.4,247.7,518.1,260.6,513.2,266.5z"/>
		
			<radialGradient id="SVGID_48_" cx="-1220.8391" cy="262.4278" r="77.3724" gradientTransform="matrix(1 0 0 1.4143 1665.6588 -171.6622)" gradientUnits="userSpaceOnUse">
			<stop  offset="0" style="stop-color:#E6E7E8"/>
			<stop  offset="0.17" style="stop-color:#E3E4E5"/>
			<stop  offset="0.3163" style="stop-color:#D8DBDC"/>
			<stop  offset="0.4538" style="stop-color:#C6CBCD"/>
			<stop  offset="0.586" style="stop-color:#ADB5B7"/>
			<stop  offset="0.7143" style="stop-color:#8D989C"/>
			<stop  offset="0.8398" style="stop-color:#66757A"/>
			<stop  offset="0.9607" style="stop-color:#384C52"/>
			<stop  offset="1" style="stop-color:#273D44"/>
		</radialGradient>
		<path class="st66" d="M414.5,225.4l-8.5-20.1l-5.1-23.5l-2-21.1l6.2-16.9l6-8.9l11.1-8.6l11-7.4l14.9-8.6c0,0-1.9,0.3-4.4,0.8
			c-1.5,0.4-3.2,0.9-4.6,1.3c-4.4,1.2-8.2,3.1-8.2,3.1l-7.7,4.1l-18.5,10.7c0,0-12.3,9.2-13.4,11.2c-1.1,2-8.3,16.2-9,22.4
			s5.6,45.4,5.6,45.4L406,218l16,47.5l16.2,2.3l13.5,0.6l-19.6-11.5L414.5,225.4z"/>
		<polygon class="st65" points="485.4,114.3 497.8,120.8 514.5,133.9 513.4,119.5 510.9,108.2 508.2,104.7 483.4,111.5 480.6,112.8 
					"/>
		<g>
			
				<linearGradient id="SVGID_49_" gradientUnits="userSpaceOnUse" x1="-1142.3043" y1="83.2357" x2="-1201.8629" y2="94.5037" gradientTransform="matrix(1 -9.884079e-03 9.884079e-03 1 1662.0432 12.1816)">
				<stop  offset="0" style="stop-color:#F3C187"/>
				<stop  offset="8.108176e-02" style="stop-color:#F4AA8D"/>
				<stop  offset="0.4658" style="stop-color:#CFD1D2"/>
			</linearGradient>
			<path class="st67" d="M486.6,113.3c0,0,9,2.1,13.7,4.6s13.8,11.2,13.8,11.2s-0.9-14.1-1.8-16.9c-1.2-3.4-2.8-8.9-7.1-13.8
				c-1.6-1.8-7.6-7.4-7.6-7.4s-18.3,3-22.2,3.6c-6.2,0.9-27.5,15.7-27.5,15.7"/>
		</g>
		<g class="st8">
			
				<linearGradient id="SVGID_50_" gradientUnits="userSpaceOnUse" x1="-1142.6763" y1="201.5153" x2="-1276.8356" y2="201.5153" gradientTransform="matrix(1 0 0 1 1665.6588 0)">
				<stop  offset="0" style="stop-color:#E6978C"/>
				<stop  offset="0.4658" style="stop-color:#A5A7AA"/>
				<stop  offset="0.7085" style="stop-color:#A9ADAE"/>
				<stop  offset="0.9757" style="stop-color:#293942"/>
			</linearGradient>
			<path class="st68" d="M500.8,189.7c4.6-0.7,12.1-0.6,12.1-0.6s8.3,1.3,11.8,3.5l0.5-6.1l-2.9-0.6l-8.2-1.4c0,0-9.4-0.4-14.3,0.1
				c-4.9,0.5-15.2,3.9-15.2,3.9s-3.6-1.1-6.7-1.1c-3.1,0-6.3,0.5-6.3,0.5s-8.2-8.3-38.2-5.8c-11.5,0.9-31.4,4.3-31.4,4.3l-17.2,3.4
				l1.1,6.6l22.6-4.2l2.8-0.2l0.9,6.2c0,0,3.5,14.2,4.5,17c1,2.9,5.7,5,10.5,5.5s13.9,0.7,13.9,0.7l18.3-2.6c0,0,3.8-0.9,6-3.4
				s3.4-6.8,3.4-6.8l2.2-12.9c0,0,4-2.2,7.1-2.3c0.7,0,1.3,0.1,1.8,0.3l0,0l6.3,1.8l3.3-2.1c1.2-1.1,3.1-1.7,3.1-1.7
				S496.1,190.4,500.8,189.7z M464.3,203c-0.4,3.5-1.4,8-3.8,9.7c-2.4,1.7-19.9,3.5-19.9,3.5l-13.7-0.9c0,0-4.1-0.9-4.9-3.3
				c-0.5-1.6-4.6-15.8-4.5-18.5c0-2.6,2.5-3.8,2.5-3.8s8-2.7,17.2-3s22,2.7,22,2.7s5.7,1.2,6.1,2.2
				C465.8,192.8,464.8,199.6,464.3,203z"/>
			
				<linearGradient id="SVGID_51_" gradientUnits="userSpaceOnUse" x1="-1137.9266" y1="218.9189" x2="-1192.5917" y2="201.8464" gradientTransform="matrix(1 0 0 1 1665.6588 0)">
				<stop  offset="0" style="stop-color:#E6978C"/>
				<stop  offset="0.4658" style="stop-color:#A5A7AA"/>
				<stop  offset="0.7085" style="stop-color:#A9ADAE"/>
				<stop  offset="0.9757" style="stop-color:#293942"/>
			</linearGradient>
			<path class="st69" d="M524.2,208.9c-0.5,0.6-4.5,2.2-5,2.5c-4.5,2.7-20.4,4.6-25.1,0.1c-0.1-0.1-4.3-3.4-4.4-3.5l2.6,8.8
				c2,0.4,7.8,1.3,7.8,1.3s5.7,0.5,8.7,0.3c2.4-0.1,12.4-2.3,15.4-3.4V208.9z"/>
		</g>
		
			<linearGradient id="SVGID_52_" gradientUnits="userSpaceOnUse" x1="-1279.7125" y1="259.1988" x2="-1129.1079" y2="259.1988" gradientTransform="matrix(0.9997 2.462571e-02 -2.462571e-02 0.9997 1670.239 -30.8719)">
			<stop  offset="0.339" style="stop-color:#0E1D24"/>
			<stop  offset="0.7571" style="stop-color:#322E2F"/>
		</linearGradient>
		<path class="st70" d="M531.5,184.2c0,0-8.5-2.7-14.4-3.2s-11.6-0.5-17.9,0.5c-4.9,0.8-12.3,4.1-12.3,4.1s-2.9-1.5-6-1.5
			c-3.1,0-8.1,1.1-8.1,1.1s-6.1-9.3-36.1-6.8c-7,0.6-11.9,2.1-17.9,3.1c-3.9,0.7-8.3,1.6-15.1,2.6c-5.6,0.8-19,3.6-19,3.6l0.9,6.3
			l26.6-4.7l2.8-0.2c0,0,0.6,2.9,0.9,6.2c0.6,5.3,3,11.6,3.8,14.5c1.5,5.4,7.5,7.7,11.2,8s8.2,0.7,13.9,0.7s12.8-0.9,15.9-1.8
			c3.1-0.9,4.5-1.2,6.7-3.7s2.7-7.1,2.7-7.1l3.3-13.1c0,0,4-2.2,7.1-2.3c3.1,0,5.3,1.9,5.3,1.9s2.6,12,3.6,14.2s1.6,3.8,3.9,5.8
			s9.3,2.7,9.3,2.7s5.7,0.5,8.7,0.3c3-0.2,11.8-2.4,13.1-3.4c1.9-1.5,3.7-5.1,4.5-7.1s3.1-11.4,3.1-11.4l2.3-3.2
			c0,0,1.8-3.7,1.1-4.5C534.5,185.1,531.5,184.2,531.5,184.2z M466.3,200.2c-0.9,3.6-1.8,9.6-4.2,11.3c-3,2.1-17.9,2.1-17.9,2.1
			l-12.1-0.8c0,0-5.4-0.5-6.9-5c-0.6-1.6-3.1-11.4-3.4-17.2c-0.1-2.6,1.9-3.4,1.9-3.4s8-2.7,17.2-3s17.9,1.2,20.2,1.8
			c2.4,0.5,6.1,2.2,6.6,3.1C468.4,190.7,467.1,196.7,466.3,200.2z M521.5,208.7c-4.5,2.7-20.4,4.6-25.1,0.1
			c-3.1-3-5.9-14.5-5.6-16.5s4.1-3.2,4.1-3.2s3.5-1.8,8.1-2.5c4.6-0.7,7.9-0.7,11.8-0.3c4.4,0.4,8.3,1.2,10.8,2.5
			c2.7,1.4,2,2.9,1.4,5.8C526.1,198.6,524.7,206.7,521.5,208.7z"/>
		<path class="st71" d="M553.6,88.4L489,75.2l-84.4,23.7l-53.8,43.5l7.4,59.6l44.5,21.5l16.9,43.2l25.3,2l55.1-0.5l40.8-7l1.4-0.2
			c17.8-19.2,33.5-56.9,33.2-94.5c-0.2-20.2-2-36.1-9.1-52.4L553.6,88.4z"/>
		
			<linearGradient id="SVGID_53_" gradientUnits="userSpaceOnUse" x1="-1116.182" y1="211.5605" x2="-1307.925" y2="214.8593" gradientTransform="matrix(1 -9.884079e-03 9.884079e-03 1 1662.0432 12.1816)">
			<stop  offset="0" style="stop-color:#F2C186"/>
			<stop  offset="0.3806" style="stop-color:#293942"/>
			<stop  offset="1" style="stop-color:#1F2C32"/>
		</linearGradient>
		<path class="st72" d="M362.2,197.1l43.7,21l16,47.5c0,0,16.8,2.1,29.7,2.9s36.6,0.2,49.4-0.5c12.9-0.7,41.4-7.1,41.4-7.1
			l-6.4,10.5c0,0-21.9,5.7-36,6.8s-37.6,2-55,1c-17.4-0.9-33.9-2.1-33.9-2.1L395,224.5l-47.8-22.4L362.2,197.1z"/>
		
			<linearGradient id="SVGID_54_" gradientUnits="userSpaceOnUse" x1="-1435.448" y1="-53.5991" x2="-1362.782" y2="-53.5991" gradientTransform="matrix(0.9619 -9.226510e-02 9.727631e-02 1.0142 1681.0505 99.7837)">
			<stop  offset="0.2638" style="stop-color:#465A65"/>
			<stop  offset="1" style="stop-color:#1A262C"/>
		</linearGradient>
		<path class="st73" d="M323.5,116.5c-2.5,0.1-9.2,0.6-9.2,0.6l-6,8.1c-9.9,10.9-15.4,31-13.2,53.4c2,21.3,10.5,39.3,21.4,48.5
			l3.3,4.1c0,0,13.2,1.9,15.7,1.7c18.9-1.8,31-28.6,29.4-61C363.4,139.4,342.4,115.9,323.5,116.5z"/>
		
			<linearGradient id="SVGID_55_" gradientUnits="userSpaceOnUse" x1="-1653.7148" y1="-67.1915" x2="-1573.9877" y2="-10.0734" gradientTransform="matrix(0.8946 -7.587446e-02 8.664025e-02 0.9962 1759.5631 86.1617)">
			<stop  offset="0" style="stop-color:#5E6260"/>
			<stop  offset="0.2439" style="stop-color:#7E8180"/>
			<stop  offset="0.5151" style="stop-color:#9B9D9F"/>
			<stop  offset="0.6682" style="stop-color:#A6A8AA"/>
			<stop  offset="0.7554" style="stop-color:#9B9FA3"/>
			<stop  offset="0.9074" style="stop-color:#7E8990"/>
			<stop  offset="0.9974" style="stop-color:#6A7983"/>
		</linearGradient>
		<path class="st74" d="M350.3,171.2c3,31.5-8.7,58.4-26.2,60.1s-34.2-22.5-37.2-54s8.7-58.4,26.2-60.1S347.3,139.7,350.3,171.2z"/>
		
			<linearGradient id="SVGID_56_" gradientUnits="userSpaceOnUse" x1="-1332.679" y1="174.3131" x2="-1369.0264" y2="179.8765" gradientTransform="matrix(1 0 0 1 1665.6588 0)">
			<stop  offset="0" style="stop-color:#4D6370"/>
			<stop  offset="1" style="stop-color:#212E34"/>
		</linearGradient>
		<path class="st75" d="M310,149.5l0.6,6.1c-7.5,0.7-12.7,11.1-11.6,23.1c1.2,12.1,8.2,21.2,15.8,20.5l0.6,6.1
			c9.6-0.9,16.3-14.2,14.8-29.6S319.6,148.6,310,149.5z"/>
		
			<linearGradient id="SVGID_57_" gradientUnits="userSpaceOnUse" x1="-1046.6055" y1="60.8357" x2="-1267.481" y2="60.8357" gradientTransform="matrix(1.0216 -1.009815e-02 9.884084e-03 0.9999 1633.2543 12.4664)">
			<stop  offset="0" style="stop-color:#5B3528"/>
			<stop  offset="1" style="stop-color:#1A262C"/>
		</linearGradient>
		<path class="st76" d="M479.6,29.7C410,22.8,355.4,67.5,335.5,120c7.2,2.9,13.2,21.6,13.2,21.6l5.7,0.2c0,0,1.7-0.1,1.7-0.2
			c33.7-36.1,80.6-59.8,145.5-60.4c15-0.1,38,3.2,54.7,12.7h0.1l3.9,7.2l3.9,7.3l1,2.2c0,0,4.1-6.3,2.2-12
			C556.7,70,525,34.2,479.6,29.7z"/>
		
			<linearGradient id="SVGID_58_" gradientUnits="userSpaceOnUse" x1="-1235.501" y1="144.2236" x2="-1087.2094" y2="12.6954" gradientTransform="matrix(1.0216 -1.009815e-02 9.884084e-03 0.9999 1633.2543 12.4664)">
			<stop  offset="0" style="stop-color:#273D44"/>
			<stop  offset="0.4874" style="stop-color:#F26522"/>
			<stop  offset="0.6685" style="stop-color:#F3903F"/>
			<stop  offset="0.8876" style="stop-color:#ED683C"/>
			<stop  offset="1" style="stop-color:#E93E3A"/>
		</linearGradient>
		<path class="st77" d="M479.5,25.8c-69.6-6.9-129.3,41.2-149.2,93.6c8,4.8,13.2,12.3,18.3,22.2c34-38.1,84.6-64.3,151.7-65
			c10.8-0.1,26.5,1.9,40.7,6.6c6.1,2,12,4.6,17.1,7.7c4.3,2.6,10,8.5,9.5,13.7c2.5-5.9-1.9-12.4-4.1-16.5
			C549.2,61.3,518.9,29.7,479.5,25.8z"/>
		<path class="st78" d="M564.8,109.8l-8.4-15.9l-3.9-2.1l-5.2-2.3l10.1,20.3c7.2,16.5,10.6,34.4,10.8,54.9
			c0.4,38.1-15.5,76.3-33.6,95.8l-2,2.4l7.7-1.6l2.1-0.5c18.1-19.5,33.5-58.1,33.1-96.2C575.3,144.2,572,126.3,564.8,109.8z"/>
	</g>
	<g>
		<linearGradient id="SVGID_59_" gradientUnits="userSpaceOnUse" x1="380.15" y1="353.7" x2="419.95" y2="353.7">
			<stop  offset="0" style="stop-color:#3C2415"/>
			<stop  offset="1" style="stop-color:#754C29"/>
		</linearGradient>
		<polygon class="st79" points="383.4,332.9 381.1,336.1 380.1,339.7 386.9,351.3 384.1,361.5 396.8,374.5 418.6,366.3 419.9,363.7 
			399.1,369.2 389.8,361.1 392.3,349.8 		"/>
		<linearGradient id="SVGID_60_" gradientUnits="userSpaceOnUse" x1="310.55" y1="320.8" x2="396.95" y2="320.8">
			<stop  offset="0" style="stop-color:#939598"/>
			<stop  offset="1" style="stop-color:#293942"/>
		</linearGradient>
		<polygon class="st80" points="313.8,311.2 310.5,321.5 311.8,329.6 316.4,314.8 335,310.4 346.4,312.1 356.4,315.2 367.8,321.2 
			377.1,328.1 387.9,338 391.4,337.5 396.9,336.8 379.3,317.5 364.8,309.3 352.4,305.4 338.4,303.6 324.3,306.3 		"/>
		<linearGradient id="SVGID_61_" gradientUnits="userSpaceOnUse" x1="403.2233" y1="368.4977" x2="398.2937" y2="331.1363">
			<stop  offset="0.4509" style="stop-color:#F26522"/>
			<stop  offset="0.7779" style="stop-color:#414042"/>
		</linearGradient>
		<polygon class="st81" points="383.4,332.9 381.1,336.1 390.2,350.7 386.6,361.1 397.8,372.1 419.9,363.7 419.6,358.1 414.3,347.2 
			404.6,332.9 399.8,330.8 		"/>
		<linearGradient id="SVGID_62_" gradientUnits="userSpaceOnUse" x1="313.85" y1="322.45" x2="404.35" y2="322.45">
			<stop  offset="0" style="stop-color:#FFFFFF"/>
			<stop  offset="1" style="stop-color:#293942"/>
		</linearGradient>
		<polygon class="st82" points="349.2,302.1 363.2,304.3 374.3,309.5 384.3,315.5 391.9,323.7 399.4,332 404.3,341 394.5,342.8 
			378,324.8 371.3,318.4 359.8,312.3 346.2,307.8 334.5,306.5 313.8,311.2 329.8,303.8 		"/>
		<linearGradient id="SVGID_63_" gradientUnits="userSpaceOnUse" x1="410.4298" y1="354.3023" x2="393.8247" y2="336.9189">
			<stop  offset="0.2638" style="stop-color:#465A65"/>
			<stop  offset="1" style="stop-color:#0F1C21"/>
		</linearGradient>
		<polygon class="st83" points="386.5,337.9 403.9,335.4 412,348.8 409,355.3 396.8,352.1 		"/>
		<g>
			<polygon class="st84" points="335.8,306.6 334.5,306.5 349.4,302.1 350.3,302.3 			"/>
		</g>
		<g>
			<polygon class="st84" points="347.2,308.2 346.2,307.8 363.2,304.3 364,304.7 			"/>
		</g>
		<g>
			<polygon class="st84" points="360.6,312.7 359.9,312.3 373.8,309.2 374.5,309.7 			"/>
		</g>
		<g>
			<polygon class="st84" points="372.1,319.2 371.3,318.4 384.3,315.5 384.8,316.2 			"/>
		</g>
		<g>
			<polygon class="st84" points="378.8,325.8 378,324.8 390.9,322.5 391.6,323.3 			"/>
		</g>
	</g>
	<g>
		
			<linearGradient id="SVGID_64_" gradientUnits="userSpaceOnUse" x1="300.9845" y1="473.5838" x2="431.9923" y2="385.9441" gradientTransform="matrix(0.9943 0.1068 -0.1068 0.9943 66.8911 -107.1869)">
			<stop  offset="0" style="stop-color:#6B6C6F"/>
			<stop  offset="0.3157" style="stop-color:#CFD0D2"/>
			<stop  offset="0.7166" style="stop-color:#A6A8AB"/>
			<stop  offset="0.7463" style="stop-color:#AAACAF"/>
			<stop  offset="0.8691" style="stop-color:#B5B7B9"/>
			<stop  offset="1" style="stop-color:#B9BBBD"/>
		</linearGradient>
		<polygon class="st85" points="300.8,344.1 305.3,361.8 327.3,386.2 347.6,403.1 381.5,415.4 428.3,414.7 466.8,400.6 492.3,388.2 
			506.2,365.7 496.2,360.9 477.2,351.4 451.5,353.2 394.5,355.8 390.8,345.3 377.2,329.2 350.4,309.3 321.4,307.8 303.2,322 		"/>
		<polygon class="st86" points="473.2,397.5 443.3,406 428.1,410.5 383.4,412.4 335,392.7 350.3,403.3 381.4,416.4 428.3,415.7 
			466,400.9 		"/>
		
			<linearGradient id="SVGID_65_" gradientUnits="userSpaceOnUse" x1="417.6005" y1="535.4532" x2="485.2203" y2="535.4532" gradientTransform="matrix(0.9674 0.2533 -0.2533 0.9674 181.8409 -254.27)">
			<stop  offset="0" style="stop-color:#293942"/>
			<stop  offset="1" style="stop-color:#0F1B21"/>
		</linearGradient>
		<path class="st87" d="M454.6,352.5c0,0,6.3,6.5,11.2,18.6c4.2,10.4,3.5,28.6,3.5,28.6l19.3,3.5l27.6-19L494,356.6l-17.6-5.4
			L454.6,352.5z"/>
		
			<linearGradient id="SVGID_66_" gradientUnits="userSpaceOnUse" x1="1863.3215" y1="71.1081" x2="1908.3761" y2="71.1081" gradientTransform="matrix(-0.9447 0.3281 0.3281 0.9447 2180.7312 -325.1208)">
			<stop  offset="0" style="stop-color:#3B2314"/>
			<stop  offset="1" style="stop-color:#754C28"/>
		</linearGradient>
		<polygon class="st88" points="436.8,352.2 448,365.7 447.1,369.4 406.9,371 397.1,356.3 398.1,352.1 		"/>
		
			<linearGradient id="SVGID_67_" gradientUnits="userSpaceOnUse" x1="1869.7634" y1="67.5418" x2="1907.0211" y2="85.3001" gradientTransform="matrix(-0.9479 0.3187 0.3187 0.9479 2188.1064 -314.7454)">
			<stop  offset="0" style="stop-color:#5B3427"/>
			<stop  offset="0.1638" style="stop-color:#914625"/>
			<stop  offset="0.3408" style="stop-color:#C55723"/>
			<stop  offset="0.4745" style="stop-color:#E56122"/>
			<stop  offset="0.5481" style="stop-color:#F16522"/>
			<stop  offset="0.7011" style="stop-color:#F28F3F"/>
			<stop  offset="0.8876" style="stop-color:#ED693C"/>
			<stop  offset="1" style="stop-color:#E83E39"/>
		</linearGradient>
		<polygon class="st89" points="436.8,352.2 448,365.7 408,366.9 398.1,352.1 		"/>
		<g>
			
				<linearGradient id="SVGID_68_" gradientUnits="userSpaceOnUse" x1="331.2715" y1="221.1235" x2="384.6326" y2="221.1235" gradientTransform="matrix(1.0143 -0.1482 0.1365 1.0315 -60.2852 170.158)">
				<stop  offset="0" style="stop-color:#F3A98C"/>
				<stop  offset="0.8597" style="stop-color:#929497"/>
				<stop  offset="1" style="stop-color:#3E515C"/>
			</linearGradient>
			<polygon class="st90" points="323.5,375.6 305.4,345.7 303,322.9 322,308.3 339.8,309.8 353.8,325.1 360.1,342.7 361.1,349.7 
				354.5,375.7 344.5,382 			"/>
			
				<linearGradient id="SVGID_69_" gradientUnits="userSpaceOnUse" x1="280.3802" y1="436.7225" x2="335.7342" y2="406.5004" gradientTransform="matrix(0.9943 0.1068 -0.1068 0.9943 66.8911 -107.1869)">
				<stop  offset="0" style="stop-color:#E8CFBE"/>
				<stop  offset="0.6682" style="stop-color:#D0D2D3"/>
				<stop  offset="0.9974" style="stop-color:#BEB0AD"/>
			</linearGradient>
			<polygon class="st91" points="307.9,360.6 303.5,348.6 303,322.9 311.8,312.8 321.6,308.3 336.8,309.5 336.8,309.5 351.2,326.8 
				357.1,349.7 350.3,373.3 342.8,378.2 323.5,375.6 			"/>
			<g>
				
					<linearGradient id="SVGID_70_" gradientUnits="userSpaceOnUse" x1="294.3407" y1="420.8964" x2="323.0253" y2="420.8964" gradientTransform="matrix(0.9943 0.1068 -0.1068 0.9943 66.8911 -107.1869)">
					<stop  offset="0" style="stop-color:#4E5663"/>
					<stop  offset="0.6682" style="stop-color:#283841"/>
					<stop  offset="1" style="stop-color:#0F1B21"/>
				</linearGradient>
				<path class="st92" d="M319.2,350.2c-5-10-5.5-20.1,1.2-24.1c2.8-1.7,5.8-1.5,8.5-0.1l0.4,5.7c-2.1-1.1-4.1-1.5-6.2-0.2
					c-3.9,2.3-3.4,9.1-0.3,15.2c0.2,0.3,0.3,0.6,0.5,1c-0.1-3,1-7,3.7-8.7c4.1-2.5,9.6-0.8,13.3,6.6c3.2,6.4,2.5,13.7-2.6,16.9
					C330.9,366.6,324,359.9,319.2,350.2z M336.3,348.3c-2.1-4.3-5.3-4.9-7.8-3.4c-2,1.2-3.1,3.9-3,7.1c2.1,3.6,5.7,7.2,9.2,5.1
					C337.8,355.3,337.6,351.1,336.3,348.3z"/>
			</g>
		</g>
	</g>
</g>
<g id="screen">
	<g>
		<g>
			<defs>
				<circle id="SVGID_71_" cx="563.5" cy="134.7" r="343.8"/>
			</defs>
			<clipPath id="SVGID_72_">
				<use xlink:href="#SVGID_71_"  style="overflow:visible;"/>
			</clipPath>
			<g class="st93">
				<g>
					
						<linearGradient id="SVGID_73_" gradientUnits="userSpaceOnUse" x1="2100.113" y1="255.4736" x2="2042.0199" y2="377.9867" gradientTransform="matrix(-1 0 -0.364 1 2823.1924 0)">
						<stop  offset="0" style="stop-color:#1C292E"/>
						<stop  offset="1" style="stop-color:#0F1C21"/>
					</linearGradient>
					<polygon class="st94" points="504.8,287.3 507.2,290.7 472.8,367.5 779.9,367.5 811.5,289.2 833.2,289.2 835.6,292.6 
						801.6,367.5 795.9,381.8 793.7,387.4 445.5,390.8 443.1,387.4 444.4,384.3 451,367.5 483.1,287.3 					"/>
					<g>
						<path class="st95" d="M460.3,381H789L896,112.2c0.7-1.8-0.3-3.3-2.3-3.3H571.6c-1.6,0-3.4,1.2-3.9,2.6L460.3,381z"/>
						<path class="st96" d="M460.3,381H789L896,112.2c0.7-1.8-0.3-3.3-2.3-3.3H572.3c-2,0-4.1,1.5-4.8,3.2L460.3,381z"/>
						<g>
							<g class="st97">
								<polygon class="st98" points="752.4,353.7 769.3,353.7 858.4,130.2 841.5,130.2 								"/>
								<polygon class="st98" points="729.6,353.7 746.5,353.7 835.6,130.2 818.7,130.2 								"/>
								<polygon class="st98" points="706.8,353.7 723.8,353.7 812.8,130.2 795.9,130.2 								"/>
								<polygon class="st98" points="684,353.7 701,353.7 790,130.2 773.1,130.2 								"/>
								<polygon class="st98" points="661.2,353.7 678.2,353.7 767.2,130.2 750.3,130.2 								"/>
								<polygon class="st98" points="638.4,353.7 655.4,353.7 744.4,130.2 727.5,130.2 								"/>
								<polygon class="st98" points="615.7,353.7 632.6,353.7 721.6,130.2 704.7,130.2 								"/>
								<polygon class="st98" points="592.9,353.7 609.8,353.7 698.8,130.2 681.9,130.2 								"/>
								<polygon class="st98" points="570.1,353.7 587,353.7 676,130.2 659.1,130.2 								"/>
								<polygon class="st98" points="547.3,353.7 564.2,353.7 653.2,130.2 636.3,130.2 								"/>
								<polygon class="st98" points="524.5,353.7 541.4,353.7 630.4,130.2 613.5,130.2 								"/>
								<polygon class="st98" points="501.8,353.7 518.6,353.7 607.7,130.2 590.7,130.2 								"/>
							</g>
							<g>
								<polygon class="st99" points="582.3,152 849.7,152 855,138.8 587.6,138.8 								"/>
								<polygon class="st100" points="825.1,171.2 842,171.2 847.3,158.1 830.3,158.1 								"/>
								<polygon class="st100" points="779.8,285 796.7,285 801.9,271.9 785,271.9 								"/>
								<polygon class="st100" points="749.4,304 766.3,304 771.6,290.9 754.6,290.9 								"/>
								<polygon class="st100" points="719,323.1 736,323.1 741.2,309.9 724.3,309.9 								"/>
								<polygon class="st100" points="688.5,342.6 705.4,342.6 710.6,329.5 693.7,329.5 								"/>
								<polygon class="st99" points="574.4,171.2 819.2,171.2 824.4,158.1 579.6,158.1 								"/>
								<polygon class="st100" points="794.6,190.5 834.4,190.5 839.6,177.4 799.9,177.4 								"/>
								<polygon class="st99" points="566.7,190.5 788.8,190.5 794,177.4 571.9,177.4 								"/>
								<polygon class="st100" points="764.2,209.8 826.7,209.8 831.9,196.7 769.4,196.7 								"/>
								<polygon class="st99" points="559,209.8 758.3,209.8 763.5,196.7 564.2,196.7 								"/>
								<polygon class="st100" points="734,228.3 819.3,228.3 824.6,215.1 739.2,215.1 								"/>
								<polygon class="st99" points="551.7,228.3 728.1,228.3 733.4,215.1 556.9,215.1 								"/>
								<polygon class="st100" points="703.9,246.8 812,246.8 817.2,233.6 709.1,233.6 								"/>
								<polygon class="st99" points="544.3,246.8 698,246.8 703.2,233.6 549.5,233.6 								"/>
								<polygon class="st100" points="673.4,266 804.3,266 809.5,252.9 678.6,252.9 								"/>
								<polygon class="st99" points="536.6,266 667.5,266 672.7,252.9 541.8,252.9 								"/>
							</g>
						</g>
					</g>
					
						<linearGradient id="SVGID_74_" gradientUnits="userSpaceOnUse" x1="1881.036" y1="340.75" x2="2235.3911" y2="340.75" gradientTransform="matrix(-1 0 -0.364 1 2823.1924 0)">
						<stop  offset="0" style="stop-color:#293942"/>
						<stop  offset="1" style="stop-color:#0F1C21"/>
					</linearGradient>
					<polygon class="st101" points="507.2,290.7 475.1,371 782.3,371 813.9,292.6 835.6,292.6 804,371 798.3,385.2 796.1,390.8 
						445.5,390.8 446.8,387.7 453.4,371 485.4,290.7 					"/>
				</g>
				<linearGradient id="SVGID_75_" gradientUnits="userSpaceOnUse" x1="647.4852" y1="298.5302" x2="538.5784" y2="576.8972">
					<stop  offset="0" style="stop-color:#293942"/>
					<stop  offset="1" style="stop-color:#0F1C21"/>
				</linearGradient>
				<polygon class="st102" points="882,478.9 365.8,478.9 306.4,390.3 882,390.3 				"/>
			</g>
		</g>
	</g>
</g>
</svg>
