<?xml version="1.0" encoding="utf-8"?>
<!-- Generator: Adobe Illustrator 19.1.0, SVG Export Plug-In . SVG Version: 6.00 Build 0)  -->
<svg version="1.1" id="Layer_1" xmlns="http://www.w3.org/2000/svg" xmlns:xlink="http://www.w3.org/1999/xlink" x="0px" y="0px"
	 width="700px" height="700px" viewBox="215 -215 700 700" style="enable-background:new 215 -215 700 700;" xml:space="preserve">
<style type="text/css">
	.st0{clip-path:url(#SVGID_2_);}
	.st1{fill:url(#sky_x2F_space_1_);}
	.st2{fill:#575B79;}
	.st3{display:none;fill:#575B79;}
	.st4{fill:url(#river_2_);}
	.st5{opacity:0.9;}
	.st6{fill:url(#SVGID_3_);}
	.st7{fill:url(#SVGID_4_);}
	.st8{opacity:0.8;}
	.st9{fill:url(#SVGID_5_);}
	.st10{fill:#FCD7CB;}
	.st11{fill:url(#SVGID_6_);}
	.st12{fill:url(#SVGID_7_);}
	.st13{opacity:0.8;fill:url(#SVGID_8_);enable-background:new    ;}
	.st14{opacity:0.8;fill:url(#SVGID_9_);enable-background:new    ;}
	.st15{fill:url(#land-left_1_);}
	.st16{fill:url(#land-left2_2_);}
	.st17{fill:url(#land-left1_2_);}
	.st18{fill:#4B5E6D;}
	.st19{fill:url(#land-right2_2_);}
	.st20{fill:url(#land-right1_2_);}
	.st21{opacity:0.1;fill:#FFFFFF;enable-background:new    ;}
	.st22{fill:#1C292E;}
	.st23{opacity:0.43;fill:#1C292E;enable-background:new    ;}
	.st24{opacity:0.6;fill:#1C292E;enable-background:new    ;}
	.st25{opacity:0.37;fill:#1C292E;enable-background:new    ;}
	.st26{opacity:0.55;fill:#1C292E;enable-background:new    ;}
	.st27{opacity:0.2;fill:#1C292E;enable-background:new    ;}
	.st28{opacity:0.8;fill:#1C292E;enable-background:new    ;}
	.st29{opacity:0.13;fill:#1C292E;enable-background:new    ;}
	.st30{opacity:0.15;fill:#FFFFFF;enable-background:new    ;}
	.st31{fill:url(#SVGID_10_);}
	.st32{fill:url(#SVGID_11_);}
	.st33{opacity:0.2;fill:url(#SVGID_12_);enable-background:new    ;}
	.st34{fill:url(#SVGID_13_);}
	.st35{fill:url(#SVGID_14_);}
	.st36{opacity:0.2;fill:url(#SVGID_15_);enable-background:new    ;}
	.st37{fill:url(#SVGID_16_);}
	.st38{opacity:0.2;fill:url(#SVGID_17_);enable-background:new    ;}
	.st39{opacity:0.5;fill:url(#SVGID_18_);enable-background:new    ;}
	.st40{fill:url(#SVGID_19_);}
	.st41{opacity:0.8;fill:url(#SVGID_20_);enable-background:new    ;}
	.st42{opacity:0.3;fill:url(#SVGID_21_);enable-background:new    ;}
	.st43{opacity:0.3;fill:url(#SVGID_22_);enable-background:new    ;}
	.st44{opacity:0.8;fill:url(#SVGID_23_);enable-background:new    ;}
	.st45{opacity:0.3;fill:url(#SVGID_24_);enable-background:new    ;}
	.st46{fill:url(#SVGID_25_);}
	.st47{fill:url(#SVGID_26_);}
	.st48{fill:url(#SVGID_27_);}
	.st49{opacity:0.8;fill:#FFF3CE;enable-background:new    ;}
</style>
<g>
	<defs>
		<circle id="SVGID_1_" cx="565.9" cy="134.5" r="343.8"/>
	</defs>
	<clipPath id="SVGID_2_">
		<use xlink:href="#SVGID_1_"  style="overflow:visible;"/>
	</clipPath>
	<g class="st0">
		
			<linearGradient id="sky_x2F_space_1_" gradientUnits="userSpaceOnUse" x1="597.054" y1="-59.45" x2="547.4565" y2="379.8422" gradientTransform="matrix(1 0 0 -1 0 270)">
			<stop  offset="0" style="stop-color:#F3C187"/>
			<stop  offset="5.274168e-02" style="stop-color:#F4AA8D"/>
			<stop  offset="0.1315" style="stop-color:#D47A6D"/>
			<stop  offset="0.3231" style="stop-color:#4E5763"/>
			<stop  offset="0.5913" style="stop-color:#0C3C4C"/>
			<stop  offset="1" style="stop-color:#0E1C22"/>
		</linearGradient>
		<rect id="sky_x2F_space" x="214" y="-215.3" class="st1" width="703.3" height="533.2"/>
		<g id="stars_1_">
			
				<rect x="262.8" y="-168.2" transform="matrix(-0.7071 -0.7071 0.7071 -0.7071 568.8768 -98.2151)" class="st2" width="2.6" height="2.6"/>
			
				<rect x="230.6" y="-130" transform="matrix(-0.7071 -0.7071 0.7071 -0.7071 486.9179 -55.6718)" class="st2" width="2.6" height="2.6"/>
			
				<rect x="376.2" y="-27.2" transform="matrix(-0.7071 -0.7071 0.7071 -0.7071 663.3054 223.9852)" class="st2" width="3.7" height="3.7"/>
			
				<rect x="547.2" y="-94.1" transform="matrix(-0.7071 -0.7071 0.7071 -0.7071 1002.431 230.7425)" class="st2" width="3.7" height="3.7"/>
			
				<rect x="272.8" y="-51.2" transform="matrix(-0.7071 -0.7071 0.7071 -0.7071 503.7445 109.9658)" class="st2" width="3.7" height="3.7"/>
			
				<rect x="658" y="-138.1" transform="matrix(-0.7071 -0.7071 0.7071 -0.7071 1222.4778 233.2793)" class="st2" width="3.1" height="3.1"/>
			
				<rect x="363.9" y="-192" transform="matrix(-0.7071 -0.7071 0.7071 -0.7071 758.3359 -67.3695)" class="st2" width="2.6" height="2.6"/>
			
				<rect x="861.5" y="-71.4" transform="matrix(-0.7071 -0.7071 0.7071 -0.7071 1522.2834 489.8407)" class="st2" width="2.1" height="2.1"/>
			
				<rect x="794.4" y="-178.1" transform="matrix(-0.7071 -0.7071 0.7071 -0.7071 1483.6049 261.4697)" class="st2" width="3.1" height="3.1"/>
			
				<rect x="772.8" y="-111.9" transform="matrix(-0.7071 -0.7071 0.7071 -0.7071 1400.1605 359.9279)" class="st3" width="3.7" height="3.7"/>
			
				<rect x="863.4" y="-29.7" transform="matrix(-0.7071 -0.7071 0.7071 -0.7071 1496.7859 564.2731)" class="st2" width="3.7" height="3.7"/>
			
				<rect x="230" y="-30.1" transform="matrix(-0.7071 -0.7071 0.7071 -0.7071 415.7834 115.6492)" class="st2" width="3.7" height="3.7"/>
			
				<rect x="239" y="10.4" transform="matrix(-0.7071 -0.7071 0.7071 -0.7071 402.5186 191.2201)" class="st2" width="3.7" height="3.7"/>
			
				<rect x="855.1" y="41" transform="matrix(-0.7071 -0.7071 0.7071 -0.7071 1432.6345 679.1086)" class="st2" width="3.7" height="3.7"/>
			
				<rect x="878.8" y="-179.6" transform="matrix(-0.7071 -0.7071 0.7071 -0.7071 1628.7775 318.5175)" class="st2" width="3.1" height="3.1"/>
			
				<rect x="775.4" y="-9.9" transform="matrix(-0.7071 -0.7071 0.7071 -0.7071 1332.5278 535.7894)" class="st2" width="3.7" height="3.7"/>
			
				<rect x="910.5" y="-91.5" transform="matrix(-0.7071 -0.7071 0.7071 -0.7071 1620.9421 492.1507)" class="st2" width="3.7" height="3.7"/>
			
				<rect x="531.8" y="-4.6" transform="matrix(-0.7071 -0.7071 0.7071 -0.7071 912.8857 372.7024)" class="st3" width="3.7" height="3.7"/>
			
				<rect x="602.9" y="-119.9" transform="matrix(-0.7071 -0.7071 0.7071 -0.7071 1115.8274 226.1225)" class="st2" width="3.7" height="3.7"/>
			
				<rect x="804.9" y="-45.9" transform="matrix(-0.7071 -0.7071 0.7071 -0.7071 1408.3063 495.2863)" class="st2" width="3.7" height="3.7"/>
			
				<rect x="686.3" y="-90.1" transform="matrix(-0.7071 -0.7071 0.7071 -0.7071 1237.1055 335.8664)" class="st2" width="3.7" height="3.7"/>
			
				<rect x="503.9" y="30.4" transform="matrix(-0.7071 -0.7071 0.7071 -0.7071 840.5649 412.6369)" class="st2" width="3.7" height="3.7"/>
			
				<rect x="388.1" y="-203.2" transform="matrix(-0.7071 -0.7071 0.7071 -0.7071 808.0419 -67.9888)" class="st2" width="3.7" height="3.7"/>
			
				<rect x="759.5" y="-35.7" transform="matrix(-0.7071 -0.7071 0.7071 -0.7071 1323.6394 480.5045)" class="st2" width="3.7" height="3.7"/>
			
				<rect x="568.5" y="-141" transform="matrix(-0.7071 -0.7071 0.7071 -0.7071 1072.0808 165.7278)" class="st2" width="3.7" height="3.7"/>
			
				<rect x="524.6" y="-179.7" transform="matrix(-0.7071 -0.7071 0.7071 -0.7071 1024.1333 67.8901)" class="st2" width="3.1" height="3.1"/>
			
				<rect x="312.6" y="-182.1" transform="matrix(-0.7071 -0.7071 0.7071 -0.7071 664.2845 -85.3739)" class="st2" width="3.7" height="3.7"/>
			
				<rect x="401.6" y="-177.4" transform="matrix(-0.7071 -0.7071 0.7071 -0.7071 812.8456 -14.4408)" class="st2" width="3.7" height="3.7"/>
			
				<rect x="463" y="-82.7" transform="matrix(-0.7071 -0.7071 0.7071 -0.7071 850.701 190.7583)" class="st2" width="3.7" height="3.7"/>
			
				<rect x="462" y="-160.6" transform="matrix(-0.7071 -0.7071 0.7071 -0.7071 904.1035 56.9532)" class="st2" width="3.7" height="3.7"/>
			
				<rect x="575.2" y="-205.6" transform="matrix(-0.7071 -0.7071 0.7071 -0.7071 1128.8223 59.5034)" class="st2" width="3.1" height="3.1"/>
			
				<rect x="294.1" y="-90.4" transform="matrix(-0.7071 -0.7071 0.7071 -0.7071 567.8243 58.0388)" class="st2" width="3.7" height="3.7"/>
			
				<rect x="661.8" y="-118.3" transform="matrix(-0.7071 -0.7071 0.7071 -0.7071 1215.3092 270.4512)" class="st3" width="3.7" height="3.7"/>
			
				<rect x="709.5" y="7.8" transform="matrix(-0.7071 -0.7071 0.7071 -0.7071 1207.5516 519.4611)" class="st2" width="3.7" height="3.7"/>
			
				<rect x="671" y="-202.6" transform="matrix(-0.7071 -0.7071 0.7071 -0.7071 1290.5155 133.0276)" class="st2" width="3.7" height="3.7"/>
			
				<rect x="750.7" y="-124" transform="matrix(-0.7071 -0.7071 0.7071 -0.7071 1371.0322 323.5072)" class="st2" width="3.7" height="3.7"/>
			
				<rect x="658.6" y="-11.8" transform="matrix(-0.7071 -0.7071 0.7071 -0.7071 1134.4561 450.0338)" class="st3" width="3.7" height="3.7"/>
			
				<rect x="621.4" y="-81.9" transform="matrix(-0.7071 -0.7071 0.7071 -0.7071 1120.5522 303.9707)" class="st3" width="3.7" height="3.7"/>
			
				<rect x="828.4" y="-111.2" transform="matrix(-0.7071 -0.7071 0.7071 -0.7071 1493.7911 398.4736)" class="st2" width="2.1" height="2.1"/>
			
				<rect x="343" y="7.8" transform="matrix(-0.7071 -0.7071 0.7071 -0.7071 581.8839 260.3279)" class="st2" width="3.7" height="3.7"/>
			
				<rect x="432.1" y="-32.7" transform="matrix(-0.7071 -0.7071 0.7071 -0.7071 762.5745 254.1633)" class="st2" width="3.7" height="3.7"/>
			
				<rect x="381.1" y="-52.3" transform="matrix(-0.7071 -0.7071 0.7071 -0.7071 689.4789 184.736)" class="st2" width="3.7" height="3.7"/>
			
				<rect x="663.7" y="-1.8" transform="matrix(-0.7071 -0.7071 0.7071 -0.7071 1136.1176 470.7746)" class="st2" width="3.7" height="3.7"/>
			
				<rect x="274.3" y="33" transform="matrix(-0.7071 -0.7071 0.7071 -0.7071 446.7273 254.7793)" class="st2" width="3.7" height="3.7"/>
			
				<rect x="706.9" y="-100.2" transform="matrix(-0.7071 -0.7071 0.7071 -0.7071 1279.4608 333.2405)" class="st2" width="3.7" height="3.7"/>
			
				<rect x="674.2" y="-102.2" transform="matrix(-0.7071 -0.7071 0.7071 -0.7071 1224.4802 305.1553)" class="st2" width="2.4" height="2.4"/>
			
				<rect x="531.9" y="-21.2" transform="matrix(-0.7071 -0.7071 0.7071 -0.7071 924.1713 342.8059)" class="st2" width="2.4" height="2.4"/>
			
				<rect x="515.2" y="-125.1" transform="matrix(-0.7071 -0.7071 0.7071 -0.7071 969.1069 153.6659)" class="st2" width="2.4" height="2.4"/>
			
				<rect x="571.8" y="21.6" transform="matrix(-0.7071 -0.7071 0.7071 -0.7071 962.0408 444.1133)" class="st2" width="2.4" height="2.4"/>
			
				<rect x="561.1" y="-45.2" transform="matrix(-0.1174 -0.9931 0.9931 -0.1174 672.0775 509.2211)" class="st2" width="2.4" height="2.4"/>
			
				<rect x="348.3" y="-107.6" transform="matrix(-0.7071 -0.7071 0.7071 -0.7071 671.8469 65.4269)" class="st2" width="2.4" height="2.4"/>
			
				<rect x="278.6" y="-120.5" transform="matrix(-0.7071 -0.7071 0.7071 -0.7071 562.0198 -5.8019)" class="st2" width="2.4" height="2.4"/>
			
				<rect x="744.5" y="-189" transform="matrix(-0.7071 -0.7071 0.7071 -0.7071 1406.3746 208.2409)" class="st2" width="3.7" height="3.7"/>
			
				<rect x="841" y="-189" transform="matrix(-0.7071 -0.7071 0.7071 -0.7071 1571.0917 276.4934)" class="st2" width="3.7" height="3.7"/>
			
				<rect x="545" y="-56.3" transform="matrix(-0.7071 -0.7071 0.7071 -0.7071 971.4654 292.3822)" class="st3" width="2.6" height="2.6"/>
			
				<rect x="318.4" y="-131.8" transform="matrix(-0.7071 -0.7071 0.7071 -0.7071 638.0746 3.224)" class="st2" width="2.6" height="2.6"/>
			
				<rect x="293.4" y="-212.5" transform="matrix(-0.7071 -0.7071 0.7071 -0.7071 652.3614 -152.2226)" class="st2" width="2.6" height="2.6"/>
			
				<rect x="456" y="-2" transform="matrix(-0.7071 -0.7071 0.7071 -0.7071 781.6991 323.4961)" class="st2" width="3.7" height="3.7"/>
			
				<rect x="622.8" y="-35.6" transform="matrix(-0.7071 -0.7071 0.7071 -0.7071 1089.6222 382.7342)" class="st2" width="2.6" height="2.6"/>
			
				<rect x="714.1" y="-84.1" transform="matrix(-0.7071 -0.7071 0.7071 -0.7071 1280.3309 365.8955)" class="st3" width="3.7" height="3.7"/>
			
				<rect x="570.9" y="-51.1" transform="matrix(-0.7071 -0.7071 0.7071 -0.7071 1012.0568 319.6119)" class="st3" width="2.6" height="2.6"/>
			
				<rect x="425.3" y="-128.6" transform="matrix(-0.7071 -0.7071 0.7071 -0.7071 818.2804 84.2599)" class="st2" width="2.6" height="2.6"/>
			
				<rect x="894.5" y="-21.9" transform="matrix(-0.7071 -0.7071 0.7071 -0.7071 1544.3698 599.6121)" class="st2" width="3.7" height="3.7"/>
			
				<rect x="598.3" y="-78.7" transform="matrix(-0.7071 -0.7071 0.7071 -0.7071 1078.3035 291.8909)" class="st3" width="2.6" height="2.6"/>
			
				<rect x="380.9" y="-146.6" transform="matrix(-0.7071 -0.7071 0.7071 -0.7071 755.2176 22.1255)" class="st2" width="2.6" height="2.6"/>
			
				<rect x="727.6" y="-42.5" transform="matrix(-0.7071 -0.7071 0.7071 -0.7071 1273.9287 446.3819)" class="st3" width="3.7" height="3.7"/>
			
				<rect x="782.7" y="-87.7" transform="matrix(-0.7071 -0.7071 0.7071 -0.7071 1399.7676 407.502)" class="st2" width="3.1" height="3.1"/>
			
				<rect x="737.8" y="-165.5" transform="matrix(-0.7071 -0.7071 0.7071 -0.7071 1378.3086 243.6455)" class="st2" width="3.7" height="3.7"/>
			
				<rect x="762.1" y="35.6" transform="matrix(-0.7071 -0.7071 0.7071 -0.7071 1277.6785 604.0725)" class="st2" width="3.7" height="3.7"/>
			
				<rect x="622.9" y="-168.7" transform="matrix(-0.7071 -0.7071 0.7071 -0.7071 1184.2607 156.2397)" class="st2" width="3.1" height="3.1"/>
			
				<rect x="583.3" y="-96.2" transform="matrix(-0.7071 -0.7071 0.7071 -0.7071 1065.1377 251.3074)" class="st2" width="2.6" height="2.6"/>
			
				<rect x="661.9" y="13.5" transform="matrix(-0.7071 -0.7071 0.7071 -0.7071 1121.6432 494.2812)" class="st2" width="2.6" height="2.6"/>
			
				<rect x="639.8" y="-77.5" transform="matrix(-0.7071 -0.7071 0.7071 -0.7071 1148.3116 323.281)" class="st2" width="2.6" height="2.6"/>
			
				<rect x="217.8" y="-172" transform="matrix(-0.7071 -0.7071 0.7071 -0.7071 494.6516 -136.5221)" class="st2" width="2.6" height="2.6"/>
			
				<rect x="551.9" y="-139.5" transform="matrix(-0.7071 -0.7071 0.7071 -0.7071 1042.6609 156.5245)" class="st2" width="3.7" height="3.7"/>
			
				<rect x="528.2" y="-76.8" transform="matrix(-0.7071 -0.7071 0.7071 -0.7071 957.3035 245.4857)" class="st2" width="2.6" height="2.6"/>
			
				<rect x="865.2" y="-148.9" transform="matrix(-0.7071 -0.7071 0.7071 -0.7071 1584.2015 362.1045)" class="st2" width="3.7" height="3.7"/>
			
				<rect x="848.8" y="-71.7" transform="matrix(-0.7071 -0.7071 0.7071 -0.7071 1500.7726 480.3557)" class="st2" width="2.1" height="2.1"/>
			
				<rect x="401.6" y="-79.2" transform="matrix(-0.7071 -0.7071 0.7071 -0.7071 743.4069 153.194)" class="st2" width="3.7" height="3.7"/>
			
				<rect x="485.6" y="-47" transform="matrix(-0.7071 -0.7071 0.7071 -0.7071 863.4758 266.0408)" class="st2" width="2.4" height="2.4"/>
			
				<rect x="219.8" y="-143.5" transform="matrix(-0.7071 -0.7071 0.7071 -0.7071 477.8896 -86.5761)" class="st2" width="2.4" height="2.4"/>
			
				<rect x="315" y="-120.5" transform="matrix(-0.7071 -0.7071 0.7071 -0.7071 624.1319 19.9627)" class="st2" width="2.4" height="2.4"/>
			
				<rect x="270.3" y="-83" transform="matrix(-0.7071 -0.7071 0.7071 -0.7071 521.3591 52.3168)" class="st2" width="2.4" height="2.4"/>
		</g>
		
			<linearGradient id="river_2_" gradientUnits="userSpaceOnUse" x1="544.2985" y1="35.3251" x2="627.0249" y2="-256.5586" gradientTransform="matrix(1 0 0 -1 0 270)">
			<stop  offset="7.882074e-02" style="stop-color:#C4807E"/>
			<stop  offset="0.3645" style="stop-color:#575F6C"/>
			<stop  offset="0.6989" style="stop-color:#32424C"/>
			<stop  offset="1" style="stop-color:#2D3A41"/>
		</linearGradient>
		<rect id="river_1_" x="361.1" y="287.7" class="st4" width="452.6" height="198.1"/>
		<g id="mountain_1_" class="st5">
			
				<linearGradient id="SVGID_3_" gradientUnits="userSpaceOnUse" x1="621.1" y1="-18.617" x2="621.1" y2="129.4896" gradientTransform="matrix(1 0 0 -1 0 270)">
				<stop  offset="0" style="stop-color:#4B5E6D"/>
				<stop  offset="1" style="stop-color:#334149"/>
			</linearGradient>
			<polygon class="st6" points="401.9,290.9 385.6,284.1 443.1,252.4 461.7,247.6 466.8,238.5 477.1,234.9 485.2,229.6 497.2,236.2 
				502.2,237.6 512,236.2 534.2,219.9 560.5,201.7 569.1,202.9 589.5,182.1 597.6,185.8 601.6,179.8 610.5,176.2 619.2,166.4 
				627.4,161.3 637.6,149.5 644.3,152.8 654.5,161.2 665.3,169.9 674.6,173.2 679.6,177.3 681.4,178 688.9,175.9 693.2,180.1 
				697.7,184.7 702.5,189.4 705.2,187.6 716.6,197 729.4,205.9 740.5,217.1 741.1,219.8 747.2,219.2 753.6,223.5 758.5,223.5 
				778.9,238.3 856.6,288.2 			"/>
			
				<linearGradient id="SVGID_4_" gradientUnits="userSpaceOnUse" x1="763.8304" y1="-26.8735" x2="858.013" y2="15.426" gradientTransform="matrix(1 0 0 -1 0 270)">
				<stop  offset="0" style="stop-color:#4B5E6D"/>
				<stop  offset="1" style="stop-color:#334149"/>
			</linearGradient>
			<polygon class="st7" points="878.6,288.6 874.1,281.4 866.4,268.5 827.2,247.7 808.2,235.5 797.9,238.3 779.3,252.8 767.9,260.3 
				750.9,271.2 737.2,277.8 716.6,287.8 719.4,288.6 			"/>
			<g class="st8">
				
					<linearGradient id="SVGID_5_" gradientUnits="userSpaceOnUse" x1="628.6" y1="96.4" x2="702.5" y2="96.4" gradientTransform="matrix(1 0 0 -1 0 270)">
					<stop  offset="0" style="stop-color:#FCD7CB"/>
					<stop  offset="1" style="stop-color:#E8B7AB"/>
				</linearGradient>
				<polygon class="st9" points="652.8,176 644.5,166.4 640.9,152.6 637.6,149.5 644.3,152.8 654.5,161.2 665.3,169.9 674.6,173.2 
					679.6,177.3 682.7,180.4 686.1,181.9 688.9,175.9 702.5,189.4 697,192.6 695.3,196.2 691.7,193.2 684.6,196 676.2,189.4 
					668.5,184.3 680.3,197.3 678.6,197.7 670.3,192.5 663.9,186 657,180.5 660,186.7 655.9,186.8 639.8,171.9 628.6,162.3 
					636.2,165.6 640.7,166.6 				"/>
				<polygon class="st10" points="656.1,197.3 660.8,203.4 655.8,200.9 647.3,198.7 656.1,207.5 663.7,212.3 663.7,212.3 
					664.7,213.3 671,210.7 673.5,209.7 				"/>
				
					<linearGradient id="SVGID_6_" gradientUnits="userSpaceOnUse" x1="698.0866" y1="58.3898" x2="777.0197" y2="7.33" gradientTransform="matrix(1 0 0 -1 0 270)">
					<stop  offset="0" style="stop-color:#FCD7CB"/>
					<stop  offset="1" style="stop-color:#E8B7AB"/>
				</linearGradient>
				<polygon class="st11" points="783.1,241 769.7,231.6 758.5,223.5 759.1,228.6 753.6,223.5 747.2,219.2 745.2,219.4 740.5,217.1 
					734,210.5 729.4,205.9 720.1,199.3 716.6,197 705.2,187.6 703.9,197.8 706,205.1 691.7,193.2 688.7,200.1 690.4,202.9 
					703.1,214.4 692.5,208.5 682.1,205.3 684.9,212.7 690.9,217 703.9,228.6 700.3,228.2 704.2,232.6 687.7,226.8 684.8,226.9 
					672,218.6 672.7,223.8 687.4,233.2 692.9,234 728,243.5 719.8,237.7 739.9,246.3 751.7,247.2 755.4,247.5 727.4,224 762.4,246 
					775.7,251.1 779.3,252.8 789.3,245 				"/>
				
					<linearGradient id="SVGID_7_" gradientUnits="userSpaceOnUse" x1="807.6" y1="18" x2="866.4" y2="18" gradientTransform="matrix(1 0 0 -1 0 270)">
					<stop  offset="0" style="stop-color:#FCD7CB"/>
					<stop  offset="1" style="stop-color:#BE8880"/>
				</linearGradient>
				<polygon class="st12" points="818.7,258.1 808.6,250.2 819,256 817.8,253.9 821.9,256.2 810,243 807.6,238.5 810,239.8 
					808.2,235.5 827.2,247.7 866.4,268.5 843.7,261.3 832.3,254.9 839.9,261.6 832.9,259.8 828.4,262.6 				"/>
			</g>
		</g>
		<g id="mountain_-_foreground_1_">
			
				<linearGradient id="SVGID_8_" gradientUnits="userSpaceOnUse" x1="384.5" y1="16.9" x2="726.7" y2="16.9" gradientTransform="matrix(1 0 0 -1 0 270)">
				<stop  offset="0" style="stop-color:#3A4851"/>
				<stop  offset="0.6358" style="stop-color:#3E505D"/>
				<stop  offset="0.9998" style="stop-color:#4D6271"/>
			</linearGradient>
			<polygon class="st13" points="726.7,288.8 677.6,261.2 658.6,250 643.9,241.2 638.8,238.3 628.8,230.4 616.4,220.6 612.7,220.6 
				607.7,217.4 596,225.1 594.2,223.8 575.3,234.6 572.4,234.6 566.8,237.2 566.8,239.6 562.4,241.6 554.5,246.5 548.2,249.7 
				541.2,253.2 539.8,253.9 532.1,255.7 521.2,250.5 513.3,245.3 504.5,236.7 501.3,237.6 497.2,236.2 485.2,229.6 477.1,234.9 
				466.8,238.5 461.7,247.6 443.8,252 384.5,284.7 401.7,288.8 			"/>
			
				<linearGradient id="SVGID_9_" gradientUnits="userSpaceOnUse" x1="614.4318" y1="42.1239" x2="662.2975" y2="4.263" gradientTransform="matrix(1 0 0 -1 0 270)">
				<stop  offset="2.882479e-02" style="stop-color:#FCD7CB"/>
				<stop  offset="0.4645" style="stop-color:#D7A398"/>
				<stop  offset="1" style="stop-color:#BE8880"/>
			</linearGradient>
			<polygon class="st14" points="680.9,263.1 652.8,246.9 638.6,237.4 629.8,231.2 616.4,220.6 621.7,230.3 615.1,226.9 
				615.9,228.3 615.7,229.6 617.6,231.3 622.1,236.4 633.2,244 634.1,247 619,236.4 614.4,233.8 603.1,226.4 604.3,228.9 
				594.2,223.8 595.4,226.3 598,228.7 599,231 599.1,233.1 628,250.4 632.7,252 625.3,245.8 638,252.3 648.4,255.2 661.1,258.2 
				653.7,252.2 666.4,259.5 			"/>
		</g>
		
			<linearGradient id="land-left_1_" gradientUnits="userSpaceOnUse" x1="253.8067" y1="-18.99" x2="561.7859" y2="-30.4981" gradientTransform="matrix(1 0 0 -1 0 270)">
			<stop  offset="0" style="stop-color:#3F4E58"/>
			<stop  offset="1" style="stop-color:#4D6271"/>
		</linearGradient>
		<polygon id="land-left" class="st15" points="564.8,301.4 556.6,300.3 546.2,295.5 539.8,293.3 562.6,295.4 582,289.4 
			571.5,289.4 550.8,285.1 525.8,288 489.3,281.8 461.8,282.5 442.5,286.7 424.3,280.2 393.5,283.1 372.8,279.5 346.6,279.5 
			322.1,279.5 295.4,270.6 274.8,274.3 245.7,274.3 262,303.7 330.5,311.8 387.5,307.3 410.8,307.8 419.9,306.3 439.8,306.3 
			450.1,306.9 480,316.1 494.9,312.4 489.5,307.6 494.9,306.9 534.8,306.4 562.6,306.4 571.6,305.2 569.5,303.6 		"/>
		
			<linearGradient id="land-left2_2_" gradientUnits="userSpaceOnUse" x1="452.398" y1="108.4258" x2="394.5344" y2="-34.626" gradientTransform="matrix(1 0 0 -1 0 270)">
			<stop  offset="0.1139" style="stop-color:#3C4D59"/>
			<stop  offset="1" style="stop-color:#384955"/>
		</linearGradient>
		<polygon id="land-left2_1_" class="st16" points="548.9,329.4 531.7,324.7 508,322.2 492.2,315.2 479.8,313.3 451.4,303.4 
			392,304.4 369.4,309.8 334.1,301.2 303.4,303.4 278.4,299.1 270.3,291.3 244,287.7 222.7,287.7 251.7,373.2 308.8,374.7 
			386,374.2 413,374.7 435,355.6 450.1,347.2 480.6,347.2 490.9,338.9 510.6,334.8 538.6,335.4 561.9,332.6 		"/>
		
			<linearGradient id="land-left1_2_" gradientUnits="userSpaceOnUse" x1="804.7236" y1="-97.8297" x2="370.6749" y2="-121.5383" gradientTransform="matrix(1 0 0 -1 0 270)">
			<stop  offset="4.998519e-04" style="stop-color:#2F3C44"/>
			<stop  offset="0.5639" style="stop-color:#334149"/>
			<stop  offset="0.9715" style="stop-color:#273840"/>
		</linearGradient>
		<polygon id="land-left1_1_" class="st17" points="516.6,381.3 490.5,377.9 465.6,364 443.1,353.7 407.4,345.9 381.4,351.6 
			336.7,348.7 272.5,328.9 251.6,331.4 251.6,331.3 354.9,441.7 389.7,458.5 421.2,430.6 428,414.6 442.1,405.2 466.5,405.2 
			493.5,403.3 493.5,398.1 510.8,396 525.6,397 540.8,397 563.1,395.3 539.4,387.3 		"/>
		<polygon id="land-right3_1_" class="st18" points="901.6,260.9 888.8,263.4 859.9,268.9 844.6,268.9 828.4,273.9 825.4,278.9 
			819.3,272.6 793.1,276.5 769,272.6 746.5,281.5 709.3,283.1 686.1,287.6 677.5,288.8 683.8,294.8 685.1,294.7 692.8,300.2 
			718.8,300.1 727.8,313.7 803.1,306 870.4,297.5 904.2,292.9 		"/>
		
			<linearGradient id="land-right2_2_" gradientUnits="userSpaceOnUse" x1="813.9893" y1="53.1594" x2="784.7682" y2="-26.9278" gradientTransform="matrix(1 0 0 -1 0 270)">
			<stop  offset="0" style="stop-color:#F3B39B"/>
			<stop  offset="0.3648" style="stop-color:#5A566B"/>
			<stop  offset="0.9951" style="stop-color:#3C4D59"/>
		</linearGradient>
		<polygon id="land-right2_1_" class="st19" points="898.5,249.6 882.5,261.7 859.9,263.8 849.7,270.1 831.2,274.5 808,277.6 
			794.2,283.9 783.8,277.5 773.6,283.9 765,281.5 754.8,283.9 752,291.3 732,295.2 724.2,300.9 715.4,306.8 713,308.6 681.2,316.4 
			695.6,318.3 782.8,316.7 795.7,321.9 862.9,321.9 		"/>
		
			<linearGradient id="land-right1_2_" gradientUnits="userSpaceOnUse" x1="794.29" y1="34.2525" x2="752.7834" y2="-68.8851" gradientTransform="matrix(1 0 0 -1 0 270)">
			<stop  offset="0" style="stop-color:#F5D49A"/>
			<stop  offset="0.1469" style="stop-color:#BDA299"/>
			<stop  offset="0.3744" style="stop-color:#676178"/>
			<stop  offset="0.6445" style="stop-color:#4B5E6D"/>
			<stop  offset="1" style="stop-color:#3A474F"/>
		</linearGradient>
		<polygon id="land-right1_1_" class="st20" points="887,289.2 871,283.7 852.9,293.4 833.2,297.9 811.6,302.6 797.1,305.9 
			779.4,301.1 766.1,307 744.7,325.2 723.2,335.2 711.5,339.9 697.5,339.9 678.3,346.2 664.9,346.8 647.3,357.7 638.1,357.7 
			629.3,361.9 693.7,362.8 683.6,367.3 673.3,367.3 664.7,370.9 651.2,372.8 664.7,375 681,379.1 693.7,379.1 705.8,379.1 
			714.9,384.1 734.6,390.3 746.2,390.3 756.1,390.3 765.1,390.6 768.1,391.3 786.5,394.5 798.6,397.2 798.6,396.7 		"/>
		<polygon class="st21" points="550.5,183.8 791,183.8 793.7,181 793.7,181 791,178.3 550.5,178.3 547.8,181 547.8,181 		"/>
		<polygon class="st21" points="648.6,132.4 859.1,132.4 865,126.5 865,126.5 859.1,120.6 648.6,120.6 642.7,126.5 642.7,126.5 		
			"/>
		<polygon class="st21" points="917,155.7 769.6,155.7 765.4,159.9 769.6,164.1 883.1,164.1 881.8,167.8 887.6,173.6 917,173.6 		
			"/>
		<polygon class="st21" points="572.2,138 215,138 215,149 572.2,149 577.7,143.5 		"/>
		<polygon class="st21" points="463,123.3 215,123.3 215,127.2 463,127.2 465,125.3 		"/>
		<polygon class="st21" points="489.2,161.4 215,161.4 215,171.7 489.2,171.7 494.3,166.6 		"/>
		<polygon class="st21" points="427.2,207.7 311.7,207.7 312.1,205.7 306.2,199.8 215,199.8 215,215.6 427.2,215.6 431.1,211.6 		
			"/>
		<polygon class="st21" points="315.2,221.9 215,221.9 215,229.8 315.2,229.8 319.2,225.8 		"/>
		<polygon class="st21" points="915,188.7 725.6,188.7 718.9,195.4 725.6,202.1 915,202.1 		"/>
		<polygon class="st21" points="915,206.1 756.3,206.1 752.6,209.7 756.3,213.4 915,213.4 		"/>
		<g id="yeti_in_spacesuit_1_">
			<g>
				<polygon class="st22" points="468.3,360 467,379.2 463.7,399.5 437.3,404.3 431.1,399.3 422.1,379.8 418.5,378.8 416.7,381.7 
					413.5,388.7 411.6,396.5 393.7,397.7 384.3,396.1 379.9,372.1 379.1,359.9 393,359.6 422.8,363.6 463.2,359.5 				"/>
				<polygon class="st23" points="378,355.9 378.4,358.2 379.4,363.8 385.2,364.9 389,366.5 435.7,370.2 464,366.8 467.9,364.8 
					468.3,359.2 468,357.1 436.1,361.9 391.4,358.2 				"/>
				<polygon class="st22" points="379.4,353 377.2,353.8 377.2,359.2 379,360.3 390.2,363.7 436.2,367.3 464,364 470.9,360 
					471.1,354.9 467.9,354.2 436.5,359 392.6,355.4 				"/>
				<polygon class="st24" points="468.3,355.1 469.5,355.9 469.9,360.6 470.9,360 471.1,354.9 469.3,354.3 				"/>
				<g>
					<polygon class="st22" points="376,341.5 379,354.2 392,358.5 434.9,361.2 449.1,360 460.5,357.2 467.1,354.5 468.1,350 
						460.5,325.5 393.3,315.5 377.7,321.1 					"/>
					<g>
						<polygon class="st22" points="436.2,351.2 421.3,350.1 422.5,349.7 436.2,350.6 446.8,350.1 452.1,348.6 453,349 446.8,350.7 
													"/>
					</g>
					<g>
						<polygon class="st22" points="432.1,356.3 410.1,354 411.2,353.5 432.1,355.7 447.6,355.1 459.8,351.4 460.7,351.8 
							447.7,355.6 						"/>
					</g>
				</g>
				<polygon class="st22" points="365.9,304.4 363,321.1 376.1,349 388.7,355.1 402.5,357.6 411.3,353.2 435.4,345.5 443,345.5 
					455.3,349.7 460.3,353.9 464,355.8 468.3,355.4 473.7,343.1 481.1,315.5 479,304 454,300.2 439,313.6 371.4,299 				"/>
				<polygon class="st25" points="382.6,363.6 382.9,369.6 380.6,374.9 379.9,371.8 379.3,361.6 				"/>
			</g>
			<g>
				<polygon class="st22" points="466,317.3 468.4,311.1 469.7,305.2 468.5,301.4 470.3,302.6 470.5,304.4 470,311.6 467.7,318 				
					"/>
				<polygon class="st22" points="462.7,316.4 460.9,321.2 457.6,330.6 468.5,333.1 471.8,329.5 474.6,323 473.6,318.9 465.7,315.7 
									"/>
				<polygon class="st22" points="475.1,300.4 475.6,305.7 475.4,310.5 474.8,313.8 473.7,318.4 470.7,325.7 464.8,322.7 
					467.9,315.7 469.2,312.4 469.9,309 470.6,304.6 469.4,299.9 				"/>
				<g>
					<polygon class="st22" points="469.8,309.7 475.2,311.2 475.4,310.7 469.9,309.1 					"/>
				</g>
				<g>
					<polygon class="st22" points="470.6,304.9 475.6,306.3 475.6,305.7 470.6,304.6 					"/>
				</g>
				<g>
					<polygon class="st22" points="468.9,313.4 474.4,315.5 474.6,315.1 469,313 					"/>
				</g>
				<polygon class="st22" points="473.7,321.1 464.8,318 461.9,325.2 465.1,331.1 470.3,329.3 				"/>
			</g>
			<g id="neck_tube_1_">
				<polygon class="st22" points="478.2,294.7 474.4,300 473.9,303 472.5,305.7 470.7,307.5 470.1,310.5 465,314.1 456.3,313.7 
					439.6,318.4 412.7,314.1 400.1,307.7 388,304.4 374.8,301.6 365.3,304.6 367.7,299 368.7,293.5 371.4,292 373.8,285.9 
					374.6,290 390.5,294 452.5,296.3 466.3,294.7 				"/>
				<polygon class="st26" points="474.9,296.1 472,299.5 471.5,302.4 472,304.2 470.7,307.5 472.5,305.7 473.9,303 474.4,300 
					478.2,294.7 				"/>
				<polygon class="st22" points="453.1,300.6 445.8,302 432.9,303.5 424.4,303.3 417.3,301.7 414.7,300.4 420,300.8 423.7,301.9 
					434.3,301.8 444.8,301.2 				"/>
				<polygon class="st22" points="410.3,305.9 422.8,306.4 439.5,308.9 440.9,310.7 435.9,310.6 426.3,308.2 417.4,307.5 
					409.6,307.4 401.2,305.1 				"/>
				<polygon class="st22" points="409.2,312.4 418.3,313 425.8,312.6 434.4,313.6 452.3,310.2 445.9,313 435.9,316.2 412.7,314.1 
									"/>
				<polygon class="st22" points="471.6,299 458.6,304.4 452.2,307.8 460.7,305.1 465.4,303.2 				"/>
			</g>
			<g>
				<path class="st22" d="M473.8,166.9c-0.5-3.6,1.4-3.4,3.7,0c2.1,3.1,4.1,8.4,4.7,11.2c2.2,10.5-1.8,19.5-12.3,26.7c0,0,0,0-0.1,0
					l0,0c0,0,0,0-0.1,0c-0.7,0.5-3.8-2.8-6.9-7.3c-3.1-4.5-5.1-8.6-4.4-9c0,0,0.1,0,0.2,0C466.3,183.2,475.2,177.4,473.8,166.9z"/>
				<path class="st22" d="M368.1,291.5v4.4c0,3.6,25,6.3,55.7,5.9s55.6-3.5,55.6-7.1v-4.4L368.1,291.5z"/>
				
					<ellipse transform="matrix(-9.883597e-03 -1 1 -9.883597e-03 137.0882 717.5895)" class="st22" cx="423.8" cy="290.9" rx="6.5" ry="55.7"/>
				<path class="st27" d="M483.9,198.5l-30.5-7.5l-39.9,11.2L389.9,224l1.7,26.8l21.6,8.3l7.4,22.2l11.9,1l26-0.3l19.3-3.3l0.7-0.1
					c8.4-9.1,15.8-26.9,15.6-44.6c-0.1-9.5-1.7-17.8-5-25.5L483.9,198.5z"/>
				<polygon class="st22" points="478.5,278.7 480.8,261 465.2,248.2 465.4,236.6 465.4,234.2 478,224.4 485.2,216.6 489,210.1 
					489.6,208.6 488.7,204.8 480.8,194.2 459.9,176 427.7,168.1 400.1,180.7 366.8,208.6 368,241.4 384.4,275.2 411.4,291.2 
					439.4,293.4 				"/>
				<path class="st22" d="M371.2,284l0.1,6.5c0,2.8,23.4,4.8,52.2,4.5s52.1-2.8,52.1-5.5l-0.1-6.5L371.2,284z"/>
				<path class="st22" d="M437.9,288.3c-36.9,0.4-66.7-1.6-66.8-4.3c-0.1-2.7,29.8-5.3,66.7-5.7C474.7,278,474.8,288,437.9,288.3z"
					/>
				<path class="st22" d="M475.2,283.7l-45.1-5.2l-25.9-33l2-3l38-57.4l26.4-1c-5.9-13.5-24.9-21.2-46.5-20
					c-36.5,2-66.4,33.4-66,69.9c0.1,7.4,1.9,14.6,4.9,21.5c3.2,7.3,11.4,20.6,11.4,20.6s6.1,4.7,8.6,7.1l5.9,3l1.7,0.9
					c-12-0.8-19.3-1.9-19.3-3.2l0.1,6.5c0,2.8,23.4,4.8,52.2,4.5c28.8-0.3,52.1-2.8,52.1-5.5l-0.1-6.5
					C475.4,283.2,475.3,283.4,475.2,283.7z"/>
				<polygon class="st22" points="366,215.9 358.3,216.9 355.8,218 361.6,221.5 366.9,221.4 				"/>
				<path class="st22" d="M382,219.8l62.2-34.7l26.4-1c-5.9-13.5-24.9-21.2-46.5-20c-36.5,2-66.4,33.4-66,69.9
					C358.2,241.4,382,219.8,382,219.8z"/>
				<path class="st22" d="M381.7,188.9c-2.1,1.3-4.7,4.1-6.9,7.5c-2.3,3.5-3.7,6.9-4.2,9.3l-1.3,2l2.2,1.5l0,0
					c2,0.9,6.4-2.7,10.1-8.3c3.7-5.6,5.2-11.1,3.7-12.5l0,0l-2.2-1.5L381.7,188.9z"/>
				
					<ellipse transform="matrix(-0.8352 -0.55 0.55 -0.8352 581.9034 569.099)" class="st22" cx="376.2" cy="197.4" rx="4.1" ry="12.5"/>
				<path class="st22" d="M365.9,168c0.4-3.6-1.5-3.4-3.7,0c-2.1,3.2-3.9,8.5-4.5,11.3c-2,10.6,2.2,19.5,12.9,26.5c0,0,0,0,0.1,0
					l0,0c0,0,0,0,0.1,0c0.7,0.5,3.7-2.9,6.7-7.4c3-4.6,4.9-8.6,4.2-9.1c0,0-0.1,0-0.2,0C373.7,184.1,364.8,178.5,365.9,168z"/>
				<polygon class="st22" points="370.8,269.3 373.7,283.7 379.2,284.9 387.5,285.6 379.5,279.6 374.6,275.6 				"/>
				<polygon class="st22" points="459.5,192.5 466.9,193.1 476.9,197.9 464.6,202.5 472.2,203.1 477.1,207.5 472.5,209.6 
					478.1,214.5 480.7,218.8 472.5,218.3 470.1,222.6 471.2,230.4 468.6,242.7 469.6,257 468.8,273.1 468.2,282.6 453.9,283.6 
					419.3,283.5 413.2,261.6 394.1,253.8 391.2,231.8 390.7,208.2 417.7,195.4 444.3,192.5 				"/>
				<polygon class="st22" points="404.3,259.1 402.4,244.4 401.2,234.8 405.6,224.1 412.1,218.7 426.4,210.8 441.3,206.8 447.3,204 
					453.6,211.3 457.5,206 462.1,206.6 468.4,205.1 474,206.5 477.2,207.5 472.6,203.1 464.7,202.5 477,197.9 467,193.1 
					458.2,192.3 449.2,192.7 441.2,193.3 428.1,197.3 389.3,212.8 391.1,234.2 392.7,253.6 				"/>
				<polygon class="st22" points="474.5,211.3 477.3,217.1 471,217.2 467.9,222.2 469,232.7 467,243.1 468.8,245.9 466.6,254 
					466.8,265.7 469.1,266.2 469.6,257 468.6,242.7 471.2,230.4 470.1,222.6 472.5,218.3 480.7,218.8 478.1,214.5 				"/>
				<g>
					<path class="st22" d="M444,269.7c-3.4,0-7.6-1.6-12.2-4.1l0.1-0.2c11.2,4,19,1.6,20.2,1.2l-1.8-3.6l0.2-0.1l2.9,4.4l0.2,1.1
						C453.6,268.3,449.2,269.6,444,269.7z"/>
				</g>
				<polyline class="st22" points="448.5,209.9 455,211.7 461.3,219 462.1,207.8 458.3,201.8 447.8,201.9 437.4,207.8 				"/>
				<g class="st5">
					<polygon class="st22" points="445.7,277.6 447.3,279.3 450.9,274.5 450.8,274.7 447.4,281.2 445.4,279.8 442.4,281.9 
						437.7,279.4 436.3,280.9 431.9,273.4 435.9,277.6 437.5,276.6 442.4,279.6 					"/>
				</g>
				<path class="st22" d="M355.8,218c0,0-3.7,6-4.6,9.1c-0.9,3.1-1.2,8.5-1.2,8.5l1,9.3l1.6,6.3l6.7,3.9l5.3-13.7l1.2-20h-4.2
					L355.8,218z"/>
				<polygon class="st22" points="391.6,250.9 413.2,259.2 420.6,281.4 432.6,282.4 458.6,282.1 478.5,278.7 475.4,283.7 458.1,287 
					431.6,287.5 415.9,285.8 408.7,262.2 386.3,252.5 				"/>
				<polygon class="st22" points="405.6,281.3 404.6,283.2 401.5,284 387.9,276 387.1,272.9 388.1,271.1 391.2,270.3 404.8,278.2 
									"/>
				<polygon class="st22" points="409.3,280.9 405.9,286.6 398.7,285 404.4,275.3 				"/>
				<path class="st22" d="M435.1,165.6l12.3,3l7.6,4.3l10.8,11.3l4.8-0.2c-5.9-13.5-24.9-21.2-46.5-20c-0.6,0-1.1,0.1-1.7,0.1
					L435.1,165.6z"/>
				<polygon class="st22" points="460.5,205.3 459.4,216.8 461.3,219 462.1,207.8 				"/>
				<path class="st27" d="M483.9,198.5l-30.5-7.5l-39.9,11.2L389.9,224l1.7,26.8l21.6,8.3l7.4,22.2l11.9,1l26-0.3l19.3-3.3l0.7-0.1
					c8.4-9.1,15.8-26.9,15.6-44.6c-0.1-9.5-1.7-17.8-5-25.5L483.9,198.5z"/>
				<g>
					<path class="st22" d="M376,212.1c-1.3,0-2.6,0.2-3.8,0.7l0,0l0,0c-0.1,0-0.1,0-0.2,0.1l-4.5,1.6v1.1c-5.7,5-9.4,14.8-9.3,26
						c0.1,10.7,3.7,19.9,9,25l1.3,1.8l4,1.5c0.1,0,0.2,0.1,0.3,0.1l0,0l0,0c1.2,0.4,2.5,0.6,3.8,0.6c10-0.1,17.9-13.3,17.8-29.5
						C394.2,225,385.9,212,376,212.1z"/>
					
						<ellipse transform="matrix(-9.883597e-03 -1 1 -9.883597e-03 133.5671 615.0981)" class="st22" cx="371.3" cy="241.4" rx="27.6" ry="17.1"/>
					<path class="st22" d="M368.4,227.1v3.3c-4.3,0-7.7,5.4-7.6,12c0.1,6.6,3.6,11.9,7.8,11.8v3.3c5.4-0.1,9.8-6.9,9.7-15.3
						C378.3,233.8,373.8,227.1,368.4,227.1z"/>
					<path class="st22" d="M449.1,170.2c-32.8-3.3-58.5,18.2-67.9,43.5c3.4,1.4,7,10.4,7,10.4l2.7,0.1l0,0
						c15.9-17.4,37.4-29.1,68-29.4c7.1-0.1,18.5,1.8,26.4,6.4l0,0l1.8,3.5l2.3,4.6c0,0,1.9-3,1-5.8
						C485.4,189.7,470.5,172.4,449.1,170.2z"/>
					<path class="st22" d="M449,168.4c-32.8-3.3-61.2,20.5-70.6,45.7c3.9,1.6,7.3,5.2,9.6,10c16-18.4,39.1-30.9,70.7-31.2
						c5.1-0.1,12.5,0.9,19.2,3.2c2.9,1,5.7,2.2,8,3.7c2,1.3,4.7,4.1,4.5,6.6c1.2-2.8-0.9-6-1.9-8C481.9,185.5,467.6,170.2,449,168.4
						z"/>
					<path class="st22" d="M488.6,198.4c-6.7-13-21-28.2-39.6-30c-1-0.1-1.9-0.2-2.8-0.2l12.3,4.8l12.5,8.8l9.3,10.4l3.6,6.4
						c0.8,0.4,1.5,0.8,2.2,1.2c2,1.3,4.7,4.1,4.5,6.6C491.7,203.5,489.6,200.4,488.6,198.4z"/>
				</g>
				<path class="st25" d="M489.1,208.5l-3.9-7.4l-3.5-1.7l4.7,9.2c3.4,7.7,4.9,16,5,25.5c0.2,17.7-7.2,35.5-15.6,44.6l-0.3,0.5
					l2.4-0.4l0.7-0.1c8.4-9.1,15.8-26.9,15.6-44.6C494.1,224.5,492.5,216.2,489.1,208.5z"/>
				<g>
					<path class="st28" d="M468.1,242.7l-8.1-0.9l-8.1,0.1l-7.3,2l-3.2-0.5l-2.7,0.1l-8-1.6l-15.4-0.2l-10.5,1.7l-2.6,1.6l0.3,2.3
						l3.7-1.1l1.3-0.1l0.6,2.6l2.4,8.5l1.6,1.5l3.2,1.1l8.6,0.2l8.8-1.4l3.3-1.7l1.2-3.3l1.6-6.3l2.8-0.8l1.7,0.5l0,0l3.2,0.4l0,0
						l2-1.6l3.9-1.5l7.1-0.3l5.1,0.9l1,1l0.1,1.4l-1.2,6.2l-1.2,1.2l-3.2,1.3l-7.3,0.2l-2.8-1l0.6,2l1.6,0.5l5.6,0.7l7.1-1.8
						l1.4-2.4l2.1-6.9l2.4-2.5l1.2-1.2L468.1,242.7z M433.1,255.8l-9.6,2l-8.4-0.3l-2.6-1.1l-2.8-9.3l1.2-1.8l10.9-1.6l10.6,1l2.9,1
						l-0.2,4.4L433.1,255.8z"/>
					<path class="st22" d="M426.1,245.9l-2,0.7l-0.9-2.9c-1.5,0.4-2.6,2.2-2.5,4.4c0,2.5,1.4,4.5,3.1,4.4s3.1-2,3.1-4.5
						c0-0.8-0.2-1.6-0.5-2.3L426.1,245.9z"/>
					<path class="st22" d="M456.5,245.6l-1.8,0.6l-0.8-2.6c-1.3,0.3-2.3,2-2.3,4c0,2.2,1.3,4,2.8,4s2.8-1.8,2.7-4
						c0-0.7-0.2-1.4-0.4-2H456.5z"/>
					<polygon class="st22" points="470.2,241.3 468.2,241.1 470.1,242.8 468.4,252.9 470.5,245.9 473.5,244.6 474.1,242.2 					"/>
					<path class="st22" d="M470.2,241.3l-8.1-0.9c0,0-5.8-0.1-8.1,0.1c-2.4,0.3-7.3,2-7.3,2s-1.7-0.5-3.2-0.5s-3.1,0.3-3.1,0.3
						s-8.5-3.3-23-2c-5.6,0.5-10.5,1.7-10.5,1.7l-5.8,2.1l0.3,3l6.8-2.3l1.3-0.1l0.6,2.6l2.4,8.5l1.7,2l3.1,0.6l8.6,0.2l8.8-1.4
						c0,0,1.8-0.5,2.9-1.7c1-1.2,1.6-3.3,1.6-3.3l1.3-6.3c0,0,1.7-0.8,3.2-0.8s2.3,0.8,2.3,0.8s1.5,5.7,2,6.7
						c0.5,1.1,0.8,1.8,1.9,2.8s4.5,1.2,4.5,1.2l5.4,0.3l7.1-1.8l1.4-2.4l2.1-6.9l3-1.3l0.6-2.4L470.2,241.3z M437,249.7
						c-0.2,1.7-0.6,3.9-1.8,4.7c-1.2,0.8-9.6,2-9.6,2l-8.4-0.3l-2.6-1.1c0,0-2.8-8-2.8-9.3s1.2-1.8,1.2-1.8s6.2-1.4,10.6-1.6
						c4.4-0.2,10.9,0.9,10.9,0.9l2.9,1C437.5,244.3,437.2,248.1,437,249.7z M465.3,253.4c-2.2,1.3-11.6,2.3-13.9,0.2
						c-1.5-1.4-3.1-6.7-3-7.7c0.1-1,2.1-1.8,2.1-1.8s1.7-0.7,3.9-1c2.2-0.3,7.1-0.3,7.1-0.3s4.8,0.3,6.1,1.9
						C468.5,245.7,467.4,252.1,465.3,253.4z"/>
				</g>
			</g>
			<g>
				<polygon class="st22" points="404.2,317 402.9,318.7 402.4,320.7 406.1,327.1 404.6,332.7 411.5,339.9 423.5,335.4 424.3,333.9 
					412.8,337 407.6,332.5 409.1,326.3 				"/>
				<polygon class="st22" points="365.3,304.6 363.5,311 364.2,315.2 366.7,306.3 377.6,304.6 383.8,305.5 389.3,307.3 395.5,310.5 
					400.7,314.3 406.6,319.8 408.6,319.5 411.6,319.1 401.9,308.5 394,304 387.1,301.9 379.4,300.8 371.7,302.3 				"/>
				<polygon class="st22" points="404.2,317 402.9,318.7 407.9,326.8 406,332.5 412,338.5 424.3,333.9 424.1,330.8 421.1,324.9 
					415.8,317 413.1,315.8 				"/>
				<polygon class="st22" points="385.4,300.1 393.1,301.3 399.2,304.1 404.6,307.4 408.9,311.9 413,316.5 415.7,321.4 410.3,322.4 
					401.2,312.5 397.5,309 391.2,305.6 383.7,303.2 377.3,302.4 365.3,304.6 374.7,301 				"/>
				<polygon class="st22" points="405.9,319.7 415.4,318.4 419.9,325.7 418.2,329.3 411.5,327.5 				"/>
				<g>
					<polygon class="st22" points="378,302.5 377.3,302.4 385.5,300.1 386,300.1 					"/>
				</g>
				<g>
					<polygon class="st22" points="384.3,303.4 383.7,303.2 393.1,301.3 393.5,301.5 					"/>
				</g>
				<g>
					<polygon class="st22" points="391.6,305.9 391.2,305.7 398.8,304 399.3,304.2 					"/>
				</g>
				<g>
					<polygon class="st22" points="398,309.4 397.5,309 404.6,307.4 404.9,307.8 					"/>
				</g>
				<g>
					<polygon class="st22" points="401.7,313.1 401.2,312.5 408.3,311.3 408.7,311.7 					"/>
				</g>
			</g>
			<g id="left_arm_1_">
				<polygon class="st22" points="475.4,302.7 475.1,301.3 480.3,303.7 484.2,306.2 487.6,313.6 488.6,326.1 487.8,333.6 
					483.4,340.5 476.9,345 466.3,349.1 454.1,348.2 441.9,343.8 430.6,336.2 440,329.2 445.7,323.7 458.3,321.7 467.5,322.7 
					471,323.7 473.7,316.1 474.3,313.6 475.2,309.9 475.6,305.1 				"/>
				<polygon class="st22" points="448.2,323.3 463.3,328.6 468.7,324.3 468.6,322.7 448.2,322 				"/>
				<polygon class="st22" points="454.5,318.9 468.6,322.7 463,326.9 448.2,322 				"/>
				<g>
					<path class="st22" d="M467.6,345.8l-4.5-2.5l13.3-5.9l4.2,2.8L467.6,345.8z M464.4,343.3l3.3,2l12.2-5.2l-3.6-2.2L464.4,343.3z
						"/>
				</g>
				<g>
					<polygon class="st22" points="475.4,301.4 481.4,305.2 482.5,307 484,312.1 486.8,320.7 488.3,323.7 488.8,323.6 488.2,315.6 
						484.9,305.2 480.6,301.2 					"/>
					<polygon class="st22" points="476.8,301.3 483,305.1 485.1,312 487.5,320.6 488.8,323.6 489.2,322.6 488.7,315.5 485.8,306.1 
						480.6,301.2 					"/>
				</g>
				<polygon class="st22" points="482.9,303.9 484.3,305.5 485.2,306.6 488.1,313.5 485.8,306.1 480.6,301.2 478.5,301.3 				"/>
				<path class="st22" d="M483.4,340.5l-6.7,3.2l-10.3,3.8l-11.4-0.6l-12.1-3.5l-3.4-1.1l2.5,1.7l12.2,4.4l12.2,0.9
					c0,0,10.6-4.1,10.7-4.2C477.2,344.8,483.4,340.5,483.4,340.5z"/>
				<polygon class="st22" points="436.5,340.2 443.6,334.8 452.7,324.9 457.4,326.6 448.1,336.2 439.4,342.2 				"/>
			</g>
			<g id="right_arm_1_">
				<polygon class="st22" points="368.3,324.5 372,332.2 385,346.2 406.2,355.8 427.1,353.2 443.6,339.9 452.3,328.7 459.6,323.2 
					454.9,321.5 442.4,317.3 428.2,318.9 409.2,324.1 406.9,319.6 401.4,312.5 387.2,305.4 374.1,306.2 366.9,311.9 				"/>
				<polygon class="st22" points="443.6,339.9 434.2,346 426.8,350.9 406.9,353.9 385,346.2 406.2,355.8 427.1,353.2 439.7,343.4 
									"/>
				<polygon class="st22" points="371.5,336.3 365.3,321.9 365.3,311.1 374.8,305.8 382.8,308 388.1,315.7 390.5,327.1 385.3,338.3 
					380.4,340.5 				"/>
				<polygon class="st22" points="365.4,328.7 364.2,323.1 365.3,311.1 374.8,305.8 381.5,307.7 381.5,307.7 386.8,316.3 388,326.9 
					383.2,336.8 380.2,338.8 371.5,336.3 				"/>
				<g>
					<path class="st22" d="M371.1,324.7c-1.6-4.8-1.2-9.3,2-10.7c1.4-0.6,2.7-0.3,3.8,0.5l-0.2,2.6c-0.9-0.6-1.7-0.9-2.8-0.5
						c-1.9,0.8-2.1,3.8-1.1,6.8c0.1,0.1,0.1,0.3,0.2,0.5c0.1-1.3,0.9-3.1,2.2-3.6c2-0.9,4.4,0.2,5.5,3.8c1,3.1,0.3,6.3-2.2,7.4
						C375.3,332.8,372.7,329.4,371.1,324.7z M378.8,325c-0.7-2-2.1-2.5-3.3-2c-0.9,0.4-1.6,1.6-1.8,3c0.7,1.8,2.1,3.6,3.8,2.8
						C379,328.2,379.3,326.3,378.8,325z"/>
				</g>
				<g>
					<polygon class="st22" points="429.8,345.5 429.4,335 427.7,332.4 424.1,329.1 425.1,328.7 428.2,331.7 430.2,334.7 
						430.7,344.9 					"/>
				</g>
				<polygon class="st22" points="434.4,318.1 442,324.5 444.3,330.6 444.6,336 443.7,339.9 452.7,328.4 459.7,323.2 451.9,317 
					442.7,316.2 				"/>
				<g>
					<path class="st22" d="M406.2,352.5l-15.8-6.7l7.5-3.2h0.1l15.7,7.1L406.2,352.5z M392,345.9l14.1,6l5.9-2.1l-14.1-6.5
						L392,345.9z"/>
				</g>
				<polygon class="st22" points="426.4,318 433,322.8 433,324.7 414.8,329.5 409.3,324.1 409.2,322.3 				"/>
				<polygon class="st22" points="426.4,318 433,322.8 414.8,327.4 409.2,322.3 				"/>
			</g>
			<polygon class="st29" points="428.9,378.8 438,382.8 443.3,396.9 435.8,396.5 433.8,388.7 430.7,381.7 			"/>
			<polygon class="st22" points="382.3,343.2 385,348.7 400.7,357.3 402.5,357.6 406.2,355.8 385,346.2 			"/>
			<path class="st22" d="M422.3,233.3c1.5-0.2,3,0.1,4.3,0.7c-1.1-2-2.8-3.3-4.6-3s-3.1,2-3.5,4.3
				C419.4,234.3,420.7,233.6,422.3,233.3z"/>
			<path class="st22" d="M457.3,233.3c1.6,0.2,2.9,0.8,4,1.8c-0.5-2.2-1.9-3.9-3.7-4.1s-3.5,1.1-4.5,3.2
				C454.3,233.5,455.8,233.1,457.3,233.3z"/>
			<polygon class="st22" points="482.9,304.6 500.7,304.6 497.3,314.3 491.4,331.1 485.8,331.1 484.7,338.5 476.9,340.5 
				476.6,324.1 			"/>
		</g>
		<path class="st30" d="M713.8,380.1c-14.7-0.5-27.5,5.7-34.3,13.5c-2.5,0.9-4.5,3.3-5.3,6.3c-9,1.2-15.6,4.4-16.2,8
			c-1.8,0.3-3.6,0.8-5.3,1.5c-4-1.7-8.5-2.5-13.3-2.4c-4.6,0.1-8.8,1.1-12.7,2.8c-2.2-6.3-7.5-10.7-13.7-10.6c-2.1,0-4,0.6-5.8,1.6
			c-3.8-7.5-12-12.6-21.4-12.3c-2.7,0.1-5.3,0.6-7.7,1.4c-5.6-4.7-14.5-7.7-24.5-7.5c-8.4,0.2-16,2.6-21.4,6.4
			c-2.7-3.7-6.8-6-11.3-5.9c-6,0.1-11.1,4.6-13.1,10.7c-3.4-1.2-7.2-1.8-11.2-1.7c-1.9,0-3.7,0.2-5.4,0.6c-2.3-2.2-5.1-3.8-8.2-4.6
			c-2.6-7.5-8-13.6-14.8-17c-3-13.5-19.3-23.6-38.8-23.2c-6.5,0.1-12.5,1.4-17.8,3.6c-1.4-2-3.4-3.5-5.9-4.2
			c-6.4-1.8-13.6,2.6-16.1,9.8c-0.3,1-0.6,1.9-0.7,2.9c-0.9,0-1.8,0-2.8,0c-5,0.1-9.8,0.7-14.3,1.8c5.4-5.2,8.7-11.8,8.5-19.1
			c-0.3-11.2-8.6-20.7-20.5-25.1c-3.6-16.8-19.3-29.3-37.8-28.9c-1.2,0-2.3,0.1-3.5,0.2c-2.2-2.3-4.7-4.4-7.5-6.2
			c1.3-2.1,2-4.5,1.9-7c-0.2-7-6.1-12.8-14.1-14.6c-4.5-10.1-17.4-17.3-32.4-16.9c-18.5,0.4-33.3,12.1-32.9,26c0,0.5,0,1,0.1,1.4
			c-2.9,1.7-5.2,3.7-6.8,5.9c-1,0-1.9,0-2.9,0c-16.5,0.4,21.5,131.3,45.1,132.7c6.2,7.6,16.2,13.3,28.1,15.9
			c2.6,11.4,11.2,20.4,22.1,23.1c13.9,25.7,279.9,37.4,399.7,22.2c10.6-1.3,19.3-11.5,19.2-16.5c-0.1-2.2-1.8-4.3-4.8-5.8
			c0.3-0.3,64.5-23.1,64.8-23.4C802.4,423.4,750.9,381.3,713.8,380.1z"/>
		<polygon class="st22" points="915,485 915,346.3 883,349.9 837.8,382 792.8,401.3 757.3,400 711,403.5 670.2,411.3 646.9,408 
			610.7,399 567.1,406.1 514.7,411.7 479.6,397 436.1,389 381.7,385.5 346.1,366.7 307.6,356.9 253.7,351.6 214,341.4 214,485 		"/>
		<g>
			
				<linearGradient id="SVGID_10_" gradientUnits="userSpaceOnUse" x1="499.7205" y1="229.007" x2="641.6529" y2="226.8425" gradientTransform="matrix(0.9493 -0.3142 -0.5233 -1.581 67.6136 543.2902)">
				<stop  offset="0" style="stop-color:#F2FAFE"/>
				<stop  offset="0.2092" style="stop-color:#F3C187"/>
				<stop  offset="0.4322" style="stop-color:#EB8D80"/>
				<stop  offset="0.4645" style="stop-color:#C77E75"/>
				<stop  offset="0.5125" style="stop-color:#996B66"/>
				<stop  offset="0.5623" style="stop-color:#705A59"/>
				<stop  offset="0.613" style="stop-color:#504C4E"/>
				<stop  offset="0.665" style="stop-color:#364146"/>
				<stop  offset="0.7187" style="stop-color:#243A41"/>
				<stop  offset="0.7754" style="stop-color:#19353D"/>
				<stop  offset="0.8399" style="stop-color:#16343C"/>
			</linearGradient>
			<path class="st31" d="M429.8,18.5c-2.5,0.8-5.1,1.7-7.6,2.5l-0.8,1.5l1.6,0.8c5.7-2,11.4-3.9,17.3-5.9
				c48.5-16.1,92.7-27.9,121-31.5C534.1-12.2,484.8,0.3,429.8,18.5z"/>
			
				<linearGradient id="SVGID_11_" gradientUnits="userSpaceOnUse" x1="549.9167" y1="381.3354" x2="677.8555" y2="379.3843" gradientTransform="matrix(0.9568 -0.2906 -0.2906 -0.9568 45.2246 484.482)">
				<stop  offset="0" style="stop-color:#F2FAFE"/>
				<stop  offset="0.2092" style="stop-color:#F3C187"/>
				<stop  offset="0.4322" style="stop-color:#EB8D80"/>
				<stop  offset="0.4645" style="stop-color:#C77E75"/>
				<stop  offset="0.5125" style="stop-color:#996B66"/>
				<stop  offset="0.5623" style="stop-color:#705A59"/>
				<stop  offset="0.613" style="stop-color:#504C4E"/>
				<stop  offset="0.665" style="stop-color:#364146"/>
				<stop  offset="0.7187" style="stop-color:#243A41"/>
				<stop  offset="0.7754" style="stop-color:#19353D"/>
				<stop  offset="0.8399" style="stop-color:#16343C"/>
			</linearGradient>
			<path class="st32" d="M467.8-44.4c-2.3,0.7-4.6,1.4-6.9,2.1l-0.9,1l1.3,0.3c5.2-1.6,10.4-3.3,15.8-4.9
				c44.2-13.4,83.9-23.5,109-28C562.2-70.5,517.9-59.6,467.8-44.4z"/>
			
				<linearGradient id="SVGID_12_" gradientUnits="userSpaceOnUse" x1="662.4787" y1="401.8222" x2="790.4175" y2="399.8711" gradientTransform="matrix(0.9568 -0.2906 -0.2906 -0.9568 45.2246 484.482)">
				<stop  offset="0" style="stop-color:#F2FAFE"/>
				<stop  offset="0.2092" style="stop-color:#F3C187"/>
				<stop  offset="0.4322" style="stop-color:#EB8D80"/>
				<stop  offset="0.4645" style="stop-color:#C77E75"/>
				<stop  offset="0.5125" style="stop-color:#996B66"/>
				<stop  offset="0.5623" style="stop-color:#705A59"/>
				<stop  offset="0.613" style="stop-color:#504C4E"/>
				<stop  offset="0.665" style="stop-color:#364146"/>
				<stop  offset="0.7187" style="stop-color:#243A41"/>
				<stop  offset="0.7754" style="stop-color:#19353D"/>
				<stop  offset="0.8399" style="stop-color:#16343C"/>
			</linearGradient>
			<path class="st33" d="M569.5-96.7c-2.3,0.7-4.6,1.4-6.9,2.1l-0.9,1l1.3,0.3c5.2-1.6,10.4-3.3,15.8-4.9
				c44.2-13.4,83.9-23.5,109-28C664-122.8,619.6-111.9,569.5-96.7z"/>
			
				<linearGradient id="SVGID_13_" gradientUnits="userSpaceOnUse" x1="737.794" y1="427.1053" x2="829.3099" y2="425.7096" gradientTransform="matrix(0.9568 -0.2906 -0.2906 -0.9568 45.2246 484.482)">
				<stop  offset="0" style="stop-color:#F2FAFE"/>
				<stop  offset="0.2092" style="stop-color:#F3C187"/>
				<stop  offset="0.4322" style="stop-color:#EB8D80"/>
				<stop  offset="0.4645" style="stop-color:#C77E75"/>
				<stop  offset="0.5125" style="stop-color:#996B66"/>
				<stop  offset="0.5623" style="stop-color:#705A59"/>
				<stop  offset="0.613" style="stop-color:#504C4E"/>
				<stop  offset="0.665" style="stop-color:#364146"/>
				<stop  offset="0.7187" style="stop-color:#243A41"/>
				<stop  offset="0.7754" style="stop-color:#19353D"/>
				<stop  offset="0.8399" style="stop-color:#16343C"/>
			</linearGradient>
			<path class="st34" d="M632.2-141.6c-1.7,0.5-3.3,1-4.9,1.5l-0.7,0.7l0.9,0.2c3.7-1.2,7.5-2.3,11.3-3.5c31.6-9.6,60-16.8,78-20
				C699.8-160.2,668-152.4,632.2-141.6z"/>
			
				<linearGradient id="SVGID_14_" gradientUnits="userSpaceOnUse" x1="655.3698" y1="439.8331" x2="746.8857" y2="438.4375" gradientTransform="matrix(0.9568 -0.2906 -0.2906 -0.9568 45.2246 484.482)">
				<stop  offset="0" style="stop-color:#F2FAFE"/>
				<stop  offset="0.2092" style="stop-color:#F3C187"/>
				<stop  offset="0.4322" style="stop-color:#EB8D80"/>
				<stop  offset="0.4645" style="stop-color:#C77E75"/>
				<stop  offset="0.5125" style="stop-color:#996B66"/>
				<stop  offset="0.5623" style="stop-color:#705A59"/>
				<stop  offset="0.613" style="stop-color:#504C4E"/>
				<stop  offset="0.665" style="stop-color:#364146"/>
				<stop  offset="0.7187" style="stop-color:#243A41"/>
				<stop  offset="0.7754" style="stop-color:#19353D"/>
				<stop  offset="0.8399" style="stop-color:#16343C"/>
			</linearGradient>
			<path class="st35" d="M549.6-129.8c-1.7,0.5-3.3,1-4.9,1.5l-0.7,0.7l0.9,0.2c3.7-1.2,7.5-2.3,11.3-3.5c31.6-9.6,60-16.8,78-20
				C617.2-148.5,585.5-140.7,549.6-129.8z"/>
			
				<linearGradient id="SVGID_15_" gradientUnits="userSpaceOnUse" x1="617.9487" y1="482.4267" x2="709.4646" y2="481.031" gradientTransform="matrix(0.9568 -0.2906 -0.2906 -0.9568 45.2246 484.482)">
				<stop  offset="0" style="stop-color:#F2FAFE"/>
				<stop  offset="0.2092" style="stop-color:#F3C187"/>
				<stop  offset="0.4322" style="stop-color:#EB8D80"/>
				<stop  offset="0.4645" style="stop-color:#C77E75"/>
				<stop  offset="0.5125" style="stop-color:#996B66"/>
				<stop  offset="0.5623" style="stop-color:#705A59"/>
				<stop  offset="0.613" style="stop-color:#504C4E"/>
				<stop  offset="0.665" style="stop-color:#364146"/>
				<stop  offset="0.7187" style="stop-color:#243A41"/>
				<stop  offset="0.7754" style="stop-color:#19353D"/>
				<stop  offset="0.8399" style="stop-color:#16343C"/>
			</linearGradient>
			<path class="st36" d="M501.5-159.7c-1.7,0.5-3.3,1-4.9,1.5l-0.7,0.7l0.9,0.2c3.7-1.2,7.5-2.3,11.3-3.5c31.6-9.6,60-16.8,78-20
				C569-178.3,537.3-170.6,501.5-159.7z"/>
			
				<linearGradient id="SVGID_16_" gradientUnits="userSpaceOnUse" x1="668.3269" y1="261.0541" x2="830.9756" y2="258.5736" gradientTransform="matrix(0.9493 -0.3142 -0.4075 -1.231 60.6539 522.221)">
				<stop  offset="0" style="stop-color:#F2FAFE"/>
				<stop  offset="0.2092" style="stop-color:#F3C187"/>
				<stop  offset="0.4322" style="stop-color:#EB8D80"/>
				<stop  offset="0.4645" style="stop-color:#C77E75"/>
				<stop  offset="0.5125" style="stop-color:#996B66"/>
				<stop  offset="0.5623" style="stop-color:#705A59"/>
				<stop  offset="0.613" style="stop-color:#504C4E"/>
				<stop  offset="0.665" style="stop-color:#364146"/>
				<stop  offset="0.7187" style="stop-color:#243A41"/>
				<stop  offset="0.7754" style="stop-color:#19353D"/>
				<stop  offset="0.8399" style="stop-color:#16343C"/>
			</linearGradient>
			<path class="st37" d="M597.5-15.4c-2.9,1-5.8,1.9-8.7,2.9l-1.1,1.5l1.7,0.6c6.5-2.2,13.1-4.5,19.9-6.7
				C665-35.5,715.4-48.9,747.5-54.3C717-50.7,660.7-36.4,597.5-15.4z"/>
			
				<linearGradient id="SVGID_17_" gradientUnits="userSpaceOnUse" x1="682.6222" y1="288.9492" x2="845.271" y2="286.4688" gradientTransform="matrix(0.9605 -0.2782 -0.3608 -1.2455 46.2497 490.5885)">
				<stop  offset="0" style="stop-color:#F2FAFE"/>
				<stop  offset="0.2092" style="stop-color:#F3C187"/>
				<stop  offset="0.4322" style="stop-color:#EB8D80"/>
				<stop  offset="0.4645" style="stop-color:#C77E75"/>
				<stop  offset="0.5125" style="stop-color:#996B66"/>
				<stop  offset="0.5623" style="stop-color:#705A59"/>
				<stop  offset="0.613" style="stop-color:#504C4E"/>
				<stop  offset="0.665" style="stop-color:#364146"/>
				<stop  offset="0.7187" style="stop-color:#243A41"/>
				<stop  offset="0.7754" style="stop-color:#19353D"/>
				<stop  offset="0.8399" style="stop-color:#16343C"/>
			</linearGradient>
			<path class="st38" d="M606.7-65.1c-3,0.9-5.9,1.7-8.8,2.6l-1.1,1.4l1.7,0.6c6.6-2,13.3-4,20.1-6c56.4-16.3,107.2-27.7,139.6-32
				C727.5-95.7,670.6-83.6,606.7-65.1z"/>
			
				<linearGradient id="SVGID_18_" gradientUnits="userSpaceOnUse" x1="464.9518" y1="371.2785" x2="627.6006" y2="368.798" gradientTransform="matrix(0.9493 -0.3142 -0.4075 -1.231 60.6539 522.221)">
				<stop  offset="0" style="stop-color:#F2FAFE"/>
				<stop  offset="0.2092" style="stop-color:#F3C187"/>
				<stop  offset="0.4322" style="stop-color:#EB8D80"/>
				<stop  offset="0.4645" style="stop-color:#C77E75"/>
				<stop  offset="0.5125" style="stop-color:#996B66"/>
				<stop  offset="0.5623" style="stop-color:#705A59"/>
				<stop  offset="0.613" style="stop-color:#504C4E"/>
				<stop  offset="0.665" style="stop-color:#364146"/>
				<stop  offset="0.7187" style="stop-color:#243A41"/>
				<stop  offset="0.7754" style="stop-color:#19353D"/>
				<stop  offset="0.8399" style="stop-color:#16343C"/>
			</linearGradient>
			<path class="st39" d="M359.5-87.2c-2.9,1-5.8,1.9-8.7,2.9l-1.1,1.5l1.7,0.6c6.5-2.2,13.1-4.5,19.9-6.7
				c55.7-18.4,106.1-31.8,138.2-37.2C479-122.4,422.7-108.1,359.5-87.2z"/>
			
				<linearGradient id="SVGID_19_" gradientUnits="userSpaceOnUse" x1="435.8202" y1="253.1248" x2="637.8913" y2="250.0431" gradientTransform="matrix(0.9493 -0.3142 -0.4075 -1.231 60.6539 522.221)">
				<stop  offset="0" style="stop-color:#F2FAFE"/>
				<stop  offset="0.2092" style="stop-color:#F3C187"/>
				<stop  offset="0.4322" style="stop-color:#EB8D80"/>
				<stop  offset="0.4645" style="stop-color:#C77E75"/>
				<stop  offset="0.5125" style="stop-color:#996B66"/>
				<stop  offset="0.5623" style="stop-color:#705A59"/>
				<stop  offset="0.613" style="stop-color:#504C4E"/>
				<stop  offset="0.665" style="stop-color:#364146"/>
				<stop  offset="0.7187" style="stop-color:#243A41"/>
				<stop  offset="0.7754" style="stop-color:#19353D"/>
				<stop  offset="0.8399" style="stop-color:#16343C"/>
			</linearGradient>
			<path class="st40" d="M382.3,66.4c-3.6,1.2-7.2,2.4-10.8,3.6l-1.3,1.8l2.2,0.7c8.1-2.8,16.3-5.6,24.7-8.3
				C466.2,41.3,528.8,23.8,568.6,17C530.5,21.7,460.7,40.5,382.3,66.4z"/>
			
				<linearGradient id="SVGID_20_" gradientUnits="userSpaceOnUse" x1="507.6726" y1="272.2023" x2="619.0815" y2="270.5033" gradientTransform="matrix(0.5996 -0.1985 -0.3142 -0.9493 308.5958 417.2212)">
				<stop  offset="0" style="stop-color:#F2FAFE"/>
				<stop  offset="0.2092" style="stop-color:#F3C187"/>
				<stop  offset="0.4322" style="stop-color:#EB8D80"/>
				<stop  offset="0.4645" style="stop-color:#C77E75"/>
				<stop  offset="0.5125" style="stop-color:#996B66"/>
				<stop  offset="0.5623" style="stop-color:#705A59"/>
				<stop  offset="0.613" style="stop-color:#504C4E"/>
				<stop  offset="0.665" style="stop-color:#364146"/>
				<stop  offset="0.7187" style="stop-color:#243A41"/>
				<stop  offset="0.7754" style="stop-color:#19353D"/>
				<stop  offset="0.8399" style="stop-color:#16343C"/>
			</linearGradient>
			<path class="st41" d="M531.2,55c-1.3,0.4-2.5,0.8-3.8,1.3L527,57l0.8,0.4c2.8-1,5.7-2,8.6-2.9c24.1-8,46-13.5,60.1-15.4
				C583,40.1,558.5,46,531.2,55z"/>
			
				<linearGradient id="SVGID_21_" gradientUnits="userSpaceOnUse" x1="973.114" y1="240.4077" x2="1084.5229" y2="238.7086" gradientTransform="matrix(0.5996 -0.1985 -0.3142 -0.9493 308.5958 417.2212)">
				<stop  offset="0" style="stop-color:#F2FAFE"/>
				<stop  offset="0.2092" style="stop-color:#F3C187"/>
				<stop  offset="0.4322" style="stop-color:#EB8D80"/>
				<stop  offset="0.4645" style="stop-color:#C77E75"/>
				<stop  offset="0.5125" style="stop-color:#996B66"/>
				<stop  offset="0.5623" style="stop-color:#705A59"/>
				<stop  offset="0.613" style="stop-color:#504C4E"/>
				<stop  offset="0.665" style="stop-color:#364146"/>
				<stop  offset="0.7187" style="stop-color:#243A41"/>
				<stop  offset="0.7754" style="stop-color:#19353D"/>
				<stop  offset="0.8399" style="stop-color:#16343C"/>
			</linearGradient>
			<path class="st42" d="M820.3-7.2c-1.3,0.4-2.5,0.8-3.8,1.3l-0.4,0.7l0.8,0.4c2.8-1,5.7-2,8.6-2.9c24.1-8,46-13.5,60.1-15.4
				C872.1-22.1,847.6-16.3,820.3-7.2z"/>
			
				<linearGradient id="SVGID_22_" gradientUnits="userSpaceOnUse" x1="918.6076" y1="320.676" x2="1030.0166" y2="318.977" gradientTransform="matrix(0.5996 -0.1985 -0.3142 -0.9493 308.5958 417.2212)">
				<stop  offset="0" style="stop-color:#F2FAFE"/>
				<stop  offset="0.2092" style="stop-color:#F3C187"/>
				<stop  offset="0.4322" style="stop-color:#EB8D80"/>
				<stop  offset="0.4645" style="stop-color:#C77E75"/>
				<stop  offset="0.5125" style="stop-color:#996B66"/>
				<stop  offset="0.5623" style="stop-color:#705A59"/>
				<stop  offset="0.613" style="stop-color:#504C4E"/>
				<stop  offset="0.665" style="stop-color:#364146"/>
				<stop  offset="0.7187" style="stop-color:#243A41"/>
				<stop  offset="0.7754" style="stop-color:#19353D"/>
				<stop  offset="0.8399" style="stop-color:#16343C"/>
			</linearGradient>
			<path class="st43" d="M762.4-72.6c-1.3,0.4-2.5,0.8-3.8,1.3l-0.4,0.7l0.8,0.4c2.8-1,5.7-2,8.6-2.9c24.1-8,46-13.5,60.1-15.4
				C814.2-87.4,789.7-81.6,762.4-72.6z"/>
			
				<linearGradient id="SVGID_23_" gradientUnits="userSpaceOnUse" x1="183.0904" y1="353.3661" x2="291.1786" y2="351.7177" gradientTransform="matrix(0.5996 -0.1985 -0.3142 -0.9493 308.5958 417.2212)">
				<stop  offset="0" style="stop-color:#F2FAFE"/>
				<stop  offset="0.2092" style="stop-color:#F3C187"/>
				<stop  offset="0.4322" style="stop-color:#EB8D80"/>
				<stop  offset="0.4645" style="stop-color:#C77E75"/>
				<stop  offset="0.5125" style="stop-color:#996B66"/>
				<stop  offset="0.5623" style="stop-color:#705A59"/>
				<stop  offset="0.613" style="stop-color:#504C4E"/>
				<stop  offset="0.665" style="stop-color:#364146"/>
				<stop  offset="0.7187" style="stop-color:#243A41"/>
				<stop  offset="0.7754" style="stop-color:#19353D"/>
				<stop  offset="0.8399" style="stop-color:#16343C"/>
			</linearGradient>
			<path class="st44" d="M311,42.5c-1.2,0.4-2.4,0.8-3.7,1.2l-0.4,0.7l0.8,0.3c2.7-1,5.5-1.9,8.3-2.8c23.4-7.7,44.6-13.1,58.3-14.9
				C361.2,28.1,337.5,33.8,311,42.5z"/>
			
				<linearGradient id="SVGID_24_" gradientUnits="userSpaceOnUse" x1="811.535" y1="182.298" x2="909.173" y2="180.8089" gradientTransform="matrix(0.5996 -0.1985 -0.3142 -0.9493 308.5958 417.2212)">
				<stop  offset="0" style="stop-color:#F2FAFE"/>
				<stop  offset="0.2092" style="stop-color:#F3C187"/>
				<stop  offset="0.4322" style="stop-color:#EB8D80"/>
				<stop  offset="0.4645" style="stop-color:#C77E75"/>
				<stop  offset="0.5125" style="stop-color:#996B66"/>
				<stop  offset="0.5623" style="stop-color:#705A59"/>
				<stop  offset="0.613" style="stop-color:#504C4E"/>
				<stop  offset="0.665" style="stop-color:#364146"/>
				<stop  offset="0.7187" style="stop-color:#243A41"/>
				<stop  offset="0.7754" style="stop-color:#19353D"/>
				<stop  offset="0.8399" style="stop-color:#16343C"/>
			</linearGradient>
			<path class="st45" d="M741.2,80.5c-1.1,0.4-2.2,0.7-3.3,1.1l-0.4,0.6l0.7,0.3c2.5-0.9,5-1.7,7.5-2.6c21.1-7,40.3-11.8,52.6-13.5
				C786.6,67.5,765.2,72.6,741.2,80.5z"/>
			
				<linearGradient id="SVGID_25_" gradientUnits="userSpaceOnUse" x1="702.4775" y1="12.4466" x2="831.8882" y2="10.4731" gradientTransform="matrix(1.7143 -0.5674 -1.5711 -4.7464 -592.5343 532.9323)">
				<stop  offset="0" style="stop-color:#F2FAFE"/>
				<stop  offset="0.2092" style="stop-color:#F3C187"/>
				<stop  offset="0.4322" style="stop-color:#EB8D80"/>
				<stop  offset="0.4645" style="stop-color:#C77E75"/>
				<stop  offset="0.5125" style="stop-color:#996B66"/>
				<stop  offset="0.5623" style="stop-color:#705A59"/>
				<stop  offset="0.613" style="stop-color:#504C4E"/>
				<stop  offset="0.665" style="stop-color:#364146"/>
				<stop  offset="0.7187" style="stop-color:#243A41"/>
				<stop  offset="0.7754" style="stop-color:#19353D"/>
				<stop  offset="0.8399" style="stop-color:#16343C"/>
			</linearGradient>
			<path class="st46" d="M605.6,69.3c-4.2,1.4-8.3,2.8-12.4,4.2l-1,3.8l3,2.5c9.2-3.3,18.6-6.6,28.2-9.8
				c79.2-26.2,151.7-49,197.2-59.1C772.4,16.4,695.3,39.6,605.6,69.3z"/>
			
				<linearGradient id="SVGID_26_" gradientUnits="userSpaceOnUse" x1="784.0518" y1="29.465" x2="913.1568" y2="27.496" gradientTransform="matrix(1.7143 -0.5674 -1.4939 -4.5131 -582.2287 564.0463)">
				<stop  offset="0" style="stop-color:#F2FAFE"/>
				<stop  offset="0.2092" style="stop-color:#F3C187"/>
				<stop  offset="0.4322" style="stop-color:#EB8D80"/>
				<stop  offset="0.4645" style="stop-color:#C77E75"/>
				<stop  offset="0.5125" style="stop-color:#996B66"/>
				<stop  offset="0.5623" style="stop-color:#705A59"/>
				<stop  offset="0.613" style="stop-color:#504C4E"/>
				<stop  offset="0.665" style="stop-color:#364146"/>
				<stop  offset="0.7187" style="stop-color:#243A41"/>
				<stop  offset="0.7754" style="stop-color:#19353D"/>
				<stop  offset="0.8399" style="stop-color:#16343C"/>
			</linearGradient>
			<path class="st47" d="M730.5-22.2c-4.2,1.4-8.3,2.8-12.4,4.2l-1,3.6l3,2.4c9.2-3.3,18.6-6.6,28.2-9.8
				C827.5-48,899.7-69,947.4-73.4C901-71.3,820.2-51.9,730.5-22.2z"/>
			
				<linearGradient id="SVGID_27_" gradientUnits="userSpaceOnUse" x1="552.4805" y1="61.1068" x2="682.7673" y2="59.1198" gradientTransform="matrix(1.7143 -0.5674 -1.7053 -5.1517 -565.6791 614.0296)">
				<stop  offset="0" style="stop-color:#F2FAFE"/>
				<stop  offset="0.2092" style="stop-color:#F3C187"/>
				<stop  offset="0.4322" style="stop-color:#EB8D80"/>
				<stop  offset="0.4645" style="stop-color:#C77E75"/>
				<stop  offset="0.5125" style="stop-color:#996B66"/>
				<stop  offset="0.5623" style="stop-color:#705A59"/>
				<stop  offset="0.613" style="stop-color:#504C4E"/>
				<stop  offset="0.665" style="stop-color:#364146"/>
				<stop  offset="0.7187" style="stop-color:#243A41"/>
				<stop  offset="0.7754" style="stop-color:#19353D"/>
				<stop  offset="0.8399" style="stop-color:#16343C"/>
			</linearGradient>
			<path class="st48" d="M290.5-20.8c-4.2,1.4-8.3,2.8-12.4,4.2l-0.9,4l3.1,2.8c9.2-3.4,18.6-6.6,28.2-9.8
				c79.2-26.2,152.9-50.1,200.1-55.7C459.7-71.6,380.2-50.5,290.5-20.8z"/>
		</g>
		<path id="moon_1_" class="st49" d="M653-2.4c1.5,1.7,2.4,3.9,2.4,6.3c0,5.3-4.3,9.6-9.6,9.6c-1.7,0-3.3-0.4-4.6-1.2
			c1.8,2,4.4,3.3,7.3,3.3c5.3,0,9.6-4.3,9.6-9.6C658,2.4,656-0.8,653-2.4z"/>
	</g>
</g>
</svg>
