<?xml version="1.0" encoding="utf-8"?>
<!-- Generator: Adobe Illustrator 19.1.0, SVG Export Plug-In . SVG Version: 6.00 Build 0)  -->
<svg version="1.1" id="Layer_1" xmlns="http://www.w3.org/2000/svg" xmlns:xlink="http://www.w3.org/1999/xlink" x="0px" y="0px"
	 width="700px" height="700px" viewBox="215 -215 700 700" style="enable-background:new 215 -215 700 700;" xml:space="preserve">
<style type="text/css">
	.st0{clip-path:url(#SVGID_2_);}
	.st1{fill:url(#sky_x2F_space_2_);}
	.st2{fill:#575B79;}
	.st3{fill:url(#river_1_);}
	.st4{opacity:0.9;}
	.st5{fill:url(#SVGID_3_);}
	.st6{fill:url(#SVGID_4_);}
	.st7{opacity:0.8;}
	.st8{fill:url(#SVGID_5_);}
	.st9{fill:#FCD7CB;}
	.st10{fill:url(#SVGID_6_);}
	.st11{fill:url(#SVGID_7_);}
	.st12{opacity:0.8;fill:url(#SVGID_8_);enable-background:new    ;}
	.st13{opacity:0.8;fill:url(#SVGID_9_);enable-background:new    ;}
	.st14{fill:url(#land-left3_1_);}
	.st15{fill:url(#land-left2_1_);}
	.st16{fill:url(#land-left1_1_);}
	.st17{fill:#4B5E6D;}
	.st18{fill:url(#land-right2_1_);}
	.st19{fill:url(#land-right1_2_);}
	.st20{opacity:0.8;fill:#FFF3CE;enable-background:new    ;}
	.st21{opacity:0.1;fill:#FFFFFF;enable-background:new    ;}
	.st22{opacity:0.61;fill:#F6996A;enable-background:new    ;}
	.st23{fill:#F68C20;}
	.st24{fill:#FBCD10;}
	.st25{fill:#FFFFFF;}
	.st26{fill:url(#SVGID_10_);}
	.st27{fill:url(#SVGID_11_);}
	.st28{fill:url(#SVGID_12_);}
	.st29{opacity:0.74;fill:#231F20;enable-background:new    ;}
	.st30{fill:url(#SVGID_13_);}
	.st31{fill:#0F1B21;}
	.st32{fill:url(#SVGID_14_);}
	.st33{fill:url(#SVGID_15_);}
	.st34{opacity:0.63;fill:url(#SVGID_16_);enable-background:new    ;}
	.st35{fill:url(#SVGID_17_);}
	.st36{fill:url(#SVGID_18_);}
	.st37{opacity:0.64;fill:#231F20;enable-background:new    ;}
	.st38{opacity:0.63;fill:#F6996A;enable-background:new    ;}
	.st39{fill:url(#SVGID_19_);}
	.st40{fill:url(#SVGID_20_);}
	.st41{opacity:0.3;fill:#FAAF40;enable-background:new    ;}
	.st42{opacity:0.3;fill:#ED954B;enable-background:new    ;}
	.st43{opacity:0.62;fill:#231F20;enable-background:new    ;}
	.st44{fill:#1E2E35;}
	.st45{fill:url(#SVGID_21_);}
	.st46{fill:url(#SVGID_22_);}
	.st47{fill:url(#SVGID_23_);}
	.st48{fill:url(#SVGID_24_);}
	.st49{fill:url(#SVGID_25_);}
	.st50{fill:url(#SVGID_26_);}
	.st51{fill:url(#SVGID_27_);}
	.st52{fill:url(#SVGID_28_);}
	.st53{opacity:0.44;fill:#0F1B21;enable-background:new    ;}
	.st54{fill:#A6A8AB;}
	.st55{fill:url(#SVGID_29_);}
	.st56{fill:url(#SVGID_30_);}
	.st57{opacity:0.23;fill:#FFFFFF;enable-background:new    ;}
</style>
<g>
	<defs>
		<circle id="SVGID_1_" cx="565.9" cy="134.5" r="343.8"/>
	</defs>
	<clipPath id="SVGID_2_">
		<use xlink:href="#SVGID_1_"  style="overflow:visible;"/>
	</clipPath>
	<g class="st0">
		
			<linearGradient id="sky_x2F_space_2_" gradientUnits="userSpaceOnUse" x1="581.493" y1="-20.7528" x2="552.6343" y2="-563.0846" gradientTransform="matrix(1 0 0 1 0 432)">
			<stop  offset="0" style="stop-color:#F3C187"/>
			<stop  offset="5.274168e-02" style="stop-color:#F4AA8D"/>
			<stop  offset="0.1315" style="stop-color:#D47A6D"/>
			<stop  offset="0.3231" style="stop-color:#4E5763"/>
			<stop  offset="0.5913" style="stop-color:#0C3C4C"/>
			<stop  offset="1" style="stop-color:#0E1C22"/>
		</linearGradient>
		<rect id="sky_x2F_space_1_" x="214" y="-215" class="st1" width="702" height="632.6"/>
		<g>
			
				<rect x="362.2" y="-126.1" transform="matrix(-0.7071 -0.7071 0.7071 -0.7071 708.4633 43.3119)" class="st2" width="2.1" height="2.1"/>
			
				<rect x="335.9" y="-94.9" transform="matrix(-0.7071 -0.7071 0.7071 -0.7071 641.5813 78.0893)" class="st2" width="2.1" height="2.1"/>
			
				<rect x="454.5" y="-11.2" transform="matrix(-0.7071 -0.7071 0.7071 -0.7071 785.3726 305.8564)" class="st2" width="3" height="3"/>
			
				<rect x="593.8" y="-65.7" transform="matrix(-0.7071 -0.7071 0.7071 -0.7071 1061.6501 311.3239)" class="st2" width="3" height="3"/>
			
				<rect x="370.3" y="-30.7" transform="matrix(-0.7071 -0.7071 0.7071 -0.7071 655.3077 213.0763)" class="st2" width="3" height="3"/>
			
				<rect x="684.1" y="-101.5" transform="matrix(-0.7071 -0.7071 0.7071 -0.7071 1240.8748 313.4528)" class="st2" width="2.5" height="2.5"/>
			
				<rect x="444.5" y="-145.4" transform="matrix(-0.7071 -0.7071 0.7071 -0.7071 862.6915 68.5542)" class="st2" width="2.1" height="2.1"/>
			
				<rect x="849.9" y="-47.1" transform="matrix(-0.7071 -0.7071 0.7071 -0.7071 1485.0425 522.5382)" class="st2" width="1.7" height="1.7"/>
			
				<rect x="722.4" y="-139.2" transform="matrix(-0.7071 -0.7071 0.7071 -0.7071 1332.8999 276.1338)" class="st2" width="2.5" height="2.5"/>
			
				<rect x="592.3" y="-5.9" transform="matrix(-0.7071 -0.7071 0.7071 -0.7071 1016.8333 412.4157)" class="st2" width="3" height="3"/>
			
				<rect x="851.5" y="-13.2" transform="matrix(-0.7071 -0.7071 0.7071 -0.7071 1464.4359 583.2141)" class="st2" width="3" height="3"/>
			
				<rect x="335.4" y="-13.5" transform="matrix(-0.7071 -0.7071 0.7071 -0.7071 583.6057 217.6652)" class="st2" width="3" height="3"/>
			
				<rect x="342.7" y="19.5" transform="matrix(-0.7071 -0.7071 0.7071 -0.7071 572.7715 279.1832)" class="st2" width="3" height="3"/>
			
				<rect x="844.7" y="44.4" transform="matrix(-0.7071 -0.7071 0.7071 -0.7071 1412.1483 676.7117)" class="st2" width="3" height="3"/>
			
				<rect x="622.7" y="-176.9" transform="matrix(-0.7071 -0.7071 0.7071 -0.7071 1189.342 141.3173)" class="st2" width="2.5" height="2.5"/>
			
				<rect x="779.8" y="2.9" transform="matrix(-0.7071 -0.7071 0.7071 -0.7071 1330.6587 559.9829)" class="st2" width="3" height="3"/>
			
				<rect x="639.2" y="-86.7" transform="matrix(-0.7071 -0.7071 0.7071 -0.7071 1154.0183 307.6041)" class="st2" width="3" height="3"/>
			
				<rect x="803.8" y="-26.4" transform="matrix(-0.7071 -0.7071 0.7071 -0.7071 1392.3212 526.9437)" class="st2" width="3" height="3"/>
			
				<rect x="677.6" y="-164" transform="matrix(-0.7071 -0.7071 0.7071 -0.7071 1274.1986 202.6933)" class="st2" width="3" height="3"/>
			
				<rect x="464.2" y="-154.6" transform="matrix(-0.7071 -0.7071 0.7071 -0.7071 903.3035 67.9717)" class="st2" width="3" height="3"/>
			
				<rect x="728.2" y="-56.3" transform="matrix(-0.7071 -0.7071 0.7071 -0.7071 1284.3917 422.3575)" class="st2" width="3" height="3"/>
			
				<rect x="611.2" y="-103.9" transform="matrix(-0.7071 -0.7071 0.7071 -0.7071 1118.4091 258.4385)" class="st2" width="3" height="3"/>
			
				<rect x="575.4" y="-135.4" transform="matrix(-0.7071 -0.7071 0.7071 -0.7071 1079.2722 178.6781)" class="st2" width="2.5" height="2.5"/>
			
				<rect x="402.7" y="-137.4" transform="matrix(-0.7071 -0.7071 0.7071 -0.7071 786.1707 53.8386)" class="st2" width="3" height="3"/>
			
				<rect x="475.2" y="-133.6" transform="matrix(-0.7071 -0.7071 0.7071 -0.7071 907.2538 111.5872)" class="st2" width="3" height="3"/>
			
				<rect x="525.2" y="-56.3" transform="matrix(-0.7071 -0.7071 0.7071 -0.7071 937.8372 278.8313)" class="st2" width="3" height="3"/>
			
				<rect x="524.4" y="-119.9" transform="matrix(-0.7071 -0.7071 0.7071 -0.7071 981.5792 169.7445)" class="st2" width="3" height="3"/>
			
				<rect x="616.6" y="-156.5" transform="matrix(-0.7071 -0.7071 0.7071 -0.7071 1164.5459 171.8)" class="st2" width="2.5" height="2.5"/>
			
				<rect x="387.6" y="-62.7" transform="matrix(-0.7071 -0.7071 0.7071 -0.7071 707.5836 170.6311)" class="st2" width="3" height="3"/>
			
				<rect x="726.1" y="17.4" transform="matrix(-0.7071 -0.7071 0.7071 -0.7071 1228.6929 546.7234)" class="st2" width="3" height="3"/>
			
				<rect x="694.7" y="-154.1" transform="matrix(-0.7071 -0.7071 0.7071 -0.7071 1296.3906 231.7643)" class="st2" width="3" height="3"/>
			
				<rect x="595.9" y="-16.3" transform="matrix(-0.7071 -0.7071 0.7071 -0.7071 1030.3232 397.2169)" class="st2" width="3" height="3"/>
			
				<rect x="822.9" y="-79.6" transform="matrix(-0.7071 -0.7071 0.7071 -0.7071 1461.929 447.991)" class="st2" width="1.7" height="1.7"/>
			
				<rect x="776.9" y="-79.8" transform="matrix(-0.7071 -0.7071 0.7071 -0.7071 1384.1633 416.7494)" class="st2" width="3" height="3"/>
			
				<rect x="744" y="-93" transform="matrix(-0.7071 -0.7071 0.7071 -0.7071 1337.3687 370.9562)" class="st2" width="3" height="3"/>
			
				<rect x="709.9" y="-95.8" transform="matrix(-0.7071 -0.7071 0.7071 -0.7071 1280.4574 340.4203)" class="st2" width="1.7" height="1.7"/>
			
				<rect x="427.5" y="17.4" transform="matrix(-0.7071 -0.7071 0.7071 -0.7071 718.9269 335.6122)" class="st2" width="3" height="3"/>
			
				<rect x="500.1" y="-15.7" transform="matrix(-0.7071 -0.7071 0.7071 -0.7071 866.3247 330.5243)" class="st2" width="3" height="3"/>
			
				<rect x="458.6" y="-31.6" transform="matrix(-0.7071 -0.7071 0.7071 -0.7071 806.6299 273.958)" class="st2" width="3" height="3"/>
			
				<rect x="688.7" y="9.6" transform="matrix(-0.7071 -0.7071 0.7071 -0.7071 1170.3944 506.928)" class="st2" width="3" height="3"/>
			
				<rect x="371.5" y="37.9" transform="matrix(-0.7071 -0.7071 0.7071 -0.7071 608.8423 331.0254)" class="st2" width="3" height="3"/>
			
				<rect x="306.1" y="36.9" transform="matrix(-0.7071 -0.7071 0.7071 -0.7071 498.0052 283.0285)" class="st2" width="3" height="3"/>
			
				<rect x="265.1" y="63.5" transform="matrix(-0.7071 -0.7071 0.7071 -0.7071 409.1329 299.4445)" class="st2" width="3" height="3"/>
			
				<rect x="318.5" y="-68.7" transform="matrix(-0.7071 -0.7071 0.7071 -0.7071 593.2104 110.3311)" class="st2" width="2" height="2"/>
			
				<rect x="567.7" y="-90.9" transform="matrix(-0.7071 -0.7071 0.7071 -0.7071 1034.351 248.59)" class="st2" width="2" height="2"/>
			
				<rect x="431.8" y="-76.7" transform="matrix(-0.7071 -0.7071 0.7071 -0.7071 792.3123 176.7995)" class="st2" width="2" height="2"/>
			
				<rect x="375" y="-87.2" transform="matrix(-0.7071 -0.7071 0.7071 -0.7071 702.8032 118.7539)" class="st2" width="2" height="2"/>
			
				<rect x="681.9" y="-10.9" transform="matrix(-0.7071 -0.7071 0.7071 -0.7071 1173.2769 467.2064)" class="st2" width="3" height="3"/>
			
				<rect x="646.2" y="-42.7" transform="matrix(-0.7071 -0.7071 0.7071 -0.7071 1134.8021 387.6787)" class="st2" width="3" height="3"/>
			
				<rect x="591.9" y="-184.6" transform="matrix(-0.7071 -0.7071 0.7071 -0.7071 1142.4048 107.0586)" class="st2" width="3" height="3"/>
			
				<rect x="407.4" y="-96.4" transform="matrix(-0.7071 -0.7071 0.7071 -0.7071 764.7703 125.9892)" class="st2" width="2.1" height="2.1"/>
			
				<rect x="605.9" y="-198.1" transform="matrix(-0.7071 -0.7071 0.7071 -0.7071 1175.4796 92.7534)" class="st2" width="2.1" height="2.1"/>
			
				<rect x="519.5" y="9.4" transform="matrix(-0.7071 -0.7071 0.7071 -0.7071 881.7075 386.9509)" class="st2" width="3" height="3"/>
			
				<rect x="494.5" y="-93.8" transform="matrix(-0.7071 -0.7071 0.7071 -0.7071 911.6097 192.0114)" class="st2" width="2.1" height="2.1"/>
			
				<rect x="876.8" y="-6.8" transform="matrix(-0.7071 -0.7071 0.7071 -0.7071 1503.1017 611.9717)" class="st2" width="3" height="3"/>
			
				<rect x="458.4" y="-108.5" transform="matrix(-0.7071 -0.7071 0.7071 -0.7071 860.3398 141.4916)" class="st2" width="2.1" height="2.1"/>
			
				<rect x="785.7" y="-60.4" transform="matrix(-0.7071 -0.7071 0.7071 -0.7071 1385.2633 455.4262)" class="st2" width="2.5" height="2.5"/>
			
				<rect x="749.1" y="-123.9" transform="matrix(-0.7071 -0.7071 0.7071 -0.7071 1367.9508 321.8271)" class="st2" width="3" height="3"/>
			
				<rect x="655.5" y="-126.4" transform="matrix(-0.7071 -0.7071 0.7071 -0.7071 1209.6809 250.7031)" class="st2" width="2.5" height="2.5"/>
			<rect x="278" y="8.7" transform="matrix(-0.7071 -0.7071 0.7071 -0.7071 469.9469 215.0817)" class="st2" width="3" height="3"/>
			
				<rect x="536.4" y="-180.1" transform="matrix(-0.7071 -0.7071 0.7071 -0.7071 1044.1425 74.3196)" class="st2" width="2.1" height="2.1"/>
			
				<rect x="504.1" y="-180.1" transform="matrix(-0.7071 -0.7071 0.7071 -0.7071 988.989 51.4947)" class="st2" width="2.1" height="2.1"/>
			
				<rect x="544.3" y="-165.1" transform="matrix(-0.7071 -0.7071 0.7071 -0.7071 1046.9771 105.5411)" class="st2" width="2.1" height="2.1"/>
			
				<rect x="597.7" y="-102.7" transform="matrix(-0.7071 -0.7071 0.7071 -0.7071 1094.4943 250.9672)" class="st2" width="3" height="3"/>
			
				<rect x="578.4" y="-51.6" transform="matrix(-0.7071 -0.7071 0.7071 -0.7071 1024.9329 323.4726)" class="st2" width="2.1" height="2.1"/>
			
				<rect x="611.7" y="-152" transform="matrix(-0.7071 -0.7071 0.7071 -0.7071 1153.2106 176.7628)" class="st2" width="3" height="3"/>
			
				<rect x="839.6" y="-47.4" transform="matrix(-0.7071 -0.7071 0.7071 -0.7071 1467.6444 514.8519)" class="st2" width="1.7" height="1.7"/>
			
				<rect x="386.2" y="-3.1" transform="matrix(-0.7071 -0.7071 0.7071 -0.7071 662.9201 271.3899)" class="st2" width="3" height="3"/>
			
				<rect x="297.5" y="-35.2" transform="matrix(-0.7071 -0.7071 0.7071 -0.7071 533.7075 152.7199)" class="st2" width="2" height="2"/>
			
				<rect x="327" y="-105.9" transform="matrix(-0.7071 -0.7071 0.7071 -0.7071 634.1238 52.8133)" class="st2" width="2" height="2"/>
			
				<rect x="404.6" y="-87.2" transform="matrix(-0.7071 -0.7071 0.7071 -0.7071 753.3694 139.6477)" class="st2" width="2" height="2"/>
			
				<rect x="368.2" y="-56.6" transform="matrix(-0.7071 -0.7071 0.7071 -0.7071 669.5688 166.076)" class="st2" width="2" height="2"/>
		</g>
		
			<linearGradient id="river_1_" gradientUnits="userSpaceOnUse" x1="558.8057" y1="-39.3712" x2="625.7115" y2="-275.4352" gradientTransform="matrix(1 0 0 -1 0 270)">
			<stop  offset="7.882074e-02" style="stop-color:#C4807E"/>
			<stop  offset="0.3645" style="stop-color:#575F6C"/>
			<stop  offset="0.6989" style="stop-color:#32424C"/>
			<stop  offset="1" style="stop-color:#2D3A41"/>
		</linearGradient>
		<rect id="river" x="369.4" y="345.4" class="st3" width="438.8" height="139.6"/>
		<g id="mountain" class="st4">
			
				<linearGradient id="SVGID_3_" gradientUnits="userSpaceOnUse" x1="633.85" y1="-85.4642" x2="633.85" y2="52.3334" gradientTransform="matrix(1 0 0 -1 0 270)">
				<stop  offset="0" style="stop-color:#4B5E6D"/>
				<stop  offset="1" style="stop-color:#334149"/>
			</linearGradient>
			<polygon class="st5" points="422.7,357.6 421.9,343.3 461,321.8 478.3,317.3 483.1,308.8 492.6,305.5 500.2,300.6 511.4,306.7 
				516,308 525.1,306.7 545.8,291.6 570.2,274.6 578.3,275.7 597.2,256.3 604.7,259.8 608.5,254.2 616.8,250.9 624.8,241.7 
				632.5,237 642,226 648.2,229.1 657.7,236.9 667.7,245 676.4,248.1 681,251.9 682.7,252.6 689.7,250.6 693.7,254.5 697.9,258.8 
				702.3,263.1 704.9,261.4 715.5,270.2 727.4,278.5 737.7,288.9 738.3,291.5 743.9,290.9 749.9,294.9 754.4,294.9 773.4,308.6 
				845.8,355 			"/>
			
				<linearGradient id="SVGID_4_" gradientUnits="userSpaceOnUse" x1="759.4083" y1="-93.1481" x2="847.0352" y2="-53.7928" gradientTransform="matrix(1 0 0 -1 0 270)">
				<stop  offset="0" style="stop-color:#4B5E6D"/>
				<stop  offset="1" style="stop-color:#334149"/>
			</linearGradient>
			<polygon class="st6" points="866.2,355.4 862,348.8 854.8,336.8 818.3,317.4 800.7,306 791.1,308.7 773.8,322.1 763.2,329.1 
				747.3,339.3 734.6,345.4 715.5,354.7 718,355.4 			"/>
			<g class="st7">
				
					<linearGradient id="SVGID_5_" gradientUnits="userSpaceOnUse" x1="633.6" y1="21.55" x2="702.3" y2="21.55" gradientTransform="matrix(1 0 0 -1 0 270)">
					<stop  offset="0" style="stop-color:#FCD7CB"/>
					<stop  offset="1" style="stop-color:#E8B7AB"/>
				</linearGradient>
				<polygon class="st8" points="656.1,250.7 648.4,241.8 645.1,228.9 642,226 648.2,229.1 657.7,236.9 667.7,245 676.4,248.1 
					681,251.9 684,254.8 687.1,256.1 689.7,250.6 702.3,263.1 697.2,266.1 695.7,269.5 692.3,266.7 685.7,269.3 677.9,263.1 
					670.7,258.5 681.7,270.5 680.1,270.9 672.4,266 666.4,260 660,254.9 662.8,260.7 658.9,260.7 644,246.8 633.6,237.9 640.6,241 
					644.9,241.9 				"/>
				<polygon class="st9" points="659.1,270.5 663.5,276.2 658.9,273.8 651,271.8 659.2,280 666.2,284.4 666.2,284.4 667.2,285.4 
					673,283 675.4,282 				"/>
				
					<linearGradient id="SVGID_6_" gradientUnits="userSpaceOnUse" x1="698.274" y1="-13.764" x2="771.713" y2="-61.2698" gradientTransform="matrix(1 0 0 -1 0 270)">
					<stop  offset="0" style="stop-color:#FCD7CB"/>
					<stop  offset="1" style="stop-color:#E8B7AB"/>
				</linearGradient>
				<polygon class="st10" points="777.3,311.2 764.9,302.4 754.4,294.9 755,299.6 749.9,294.9 743.9,290.9 742.1,291.1 737.7,288.9 
					731.7,282.8 727.4,278.5 718.7,272.4 715.5,270.2 704.9,261.4 703.7,271 705.6,277.8 692.3,266.7 689.5,273.1 691.1,275.7 
					702.9,286.4 693.1,280.9 683.3,277.9 686,284.8 691.6,288.8 703.6,299.7 700.3,299.3 703.9,303.3 688.6,297.9 685.9,298.1 
					674,290.3 674.6,295.1 688.3,303.9 693.4,304.6 726,313.5 718.4,308.1 737.2,316.1 748.1,317 751.5,317.2 725.5,295.4 
					758.1,315.8 770.5,320.6 773.8,322.1 783.1,314.9 				"/>
				
					<linearGradient id="SVGID_7_" gradientUnits="userSpaceOnUse" x1="800.1" y1="-51.4" x2="854.8" y2="-51.4" gradientTransform="matrix(1 0 0 -1 0 270)">
					<stop  offset="0" style="stop-color:#FCD7CB"/>
					<stop  offset="1" style="stop-color:#BE8880"/>
				</linearGradient>
				<polygon class="st11" points="810.5,327 801.1,319.7 810.8,325.1 809.6,323.2 813.5,325.3 802.3,313 800.1,308.9 802.3,310.1 
					800.7,306 818.3,317.4 854.8,336.8 833.7,330 823.1,324.1 830.2,330.3 823.7,328.6 819.5,331.3 				"/>
			</g>
		</g>
		<g id="mountain_-_foreground">
			
				<linearGradient id="SVGID_8_" gradientUnits="userSpaceOnUse" x1="421.2" y1="-52.4" x2="724.8" y2="-52.4" gradientTransform="matrix(1 0 0 -1 0 270)">
				<stop  offset="0" style="stop-color:#3A4851"/>
				<stop  offset="0.6358" style="stop-color:#3E505D"/>
				<stop  offset="0.9998" style="stop-color:#4D6271"/>
			</linearGradient>
			<polygon class="st12" points="724.8,355.6 679.2,329.9 661.5,319.5 647.8,311.4 643.1,308.6 633.8,301.3 622.2,292.2 
				618.8,292.1 614.2,289.2 603.3,296.4 601.6,295.2 584,305.2 581.3,305.2 576.1,307.6 576.1,309.9 572,311.7 564.6,316.3 
				558.8,319.2 552.3,322.5 551,323.2 543.8,324.9 533.7,320 526.3,315.1 518.1,307.2 515.2,308 511.4,306.7 500.2,300.6 
				492.6,305.5 483.1,308.8 478.3,317.3 461.7,321.4 421.2,343.7 422.4,355.6 			"/>
			
				<linearGradient id="SVGID_9_" gradientUnits="userSpaceOnUse" x1="620.3982" y1="-28.9627" x2="664.9322" y2="-64.1884" gradientTransform="matrix(1 0 0 -1 0 270)">
				<stop  offset="2.882479e-02" style="stop-color:#FCD7CB"/>
				<stop  offset="0.4645" style="stop-color:#D7A398"/>
				<stop  offset="1" style="stop-color:#BE8880"/>
			</linearGradient>
			<polygon class="st13" points="682.2,331.7 656.1,316.6 642.9,307.8 634.7,302.1 622.2,292.2 627.1,301.2 621.1,298 621.7,299.4 
				621.6,300.6 623.4,302.2 627.6,306.9 637.8,313.9 638.7,316.8 624.7,306.9 620.4,304.5 609.9,297.6 611,299.9 601.6,295.2 
				602.7,297.5 605.1,299.7 606,301.8 606.1,303.8 633,319.9 637.4,321.4 630.5,315.6 642.3,321.7 652,324.4 663.9,327.2 657,321.6 
				668.7,328.4 			"/>
		</g>
		
			<linearGradient id="land-left3_1_" gradientUnits="userSpaceOnUse" x1="232.3772" y1="-83.3757" x2="568.2349" y2="-95.9256" gradientTransform="matrix(1 0 0 -1 0 270)">
			<stop  offset="0" style="stop-color:#3F4E58"/>
			<stop  offset="1" style="stop-color:#4D6271"/>
		</linearGradient>
		<polygon id="land-left3" class="st14" points="573,367.1 564.8,366 554.5,361.2 548,359 570.9,361.1 590.2,355.1 579.8,355.1 
			559,350.8 534,353.7 497.5,347.5 470,348.2 450.7,352.4 432.5,345.9 401.7,348.8 381,345.2 354.8,345.2 330.3,345.2 317,340 
			283,340 239,340 223.7,332.9 232.3,368.9 338.7,377.5 395.7,373 419,373.5 428.1,372 448,372 458.4,372.6 488.2,381.8 
			503.1,378.1 497.7,373.3 503.1,372.6 543,372.1 570.9,372.1 579.8,370.9 577.7,369.3 		"/>
		
			<linearGradient id="land-left2_1_" gradientUnits="userSpaceOnUse" x1="450.6487" y1="50.7273" x2="392.7851" y2="-92.3245" gradientTransform="matrix(1 0 0 -1 0 270)">
			<stop  offset="0.1139" style="stop-color:#3C4D59"/>
			<stop  offset="1" style="stop-color:#384955"/>
		</linearGradient>
		<polygon id="land-left2" class="st15" points="547.1,387.1 529.9,382.4 506.3,379.8 490.4,372.9 478,371 449.7,361.1 390.3,362.1 
			367.7,367.5 332.3,358.9 301.7,361.1 276.7,356.8 268.5,349 242.2,345.4 221,345.4 249.9,430.9 307,432.4 384.2,431.9 
			411.2,432.3 433.3,413.3 448.4,404.9 478.8,404.9 489.2,396.5 508.8,392.5 536.8,393.1 560.1,390.3 		"/>
		
			<linearGradient id="land-left1_1_" gradientUnits="userSpaceOnUse" x1="862.6917" y1="-135.6739" x2="354.6352" y2="-163.4247" gradientTransform="matrix(1 0 0 -1 0 270)">
			<stop  offset="4.998519e-04" style="stop-color:#2F3C44"/>
			<stop  offset="0.5639" style="stop-color:#334149"/>
			<stop  offset="0.9715" style="stop-color:#213138"/>
		</linearGradient>
		<polygon id="land-left1" class="st16" points="528.9,452 498.8,430.6 473.8,421.6 451.3,411.4 415.7,403.6 389.6,409.3 
			344.9,406.4 280.7,386.6 259.9,389.1 259.8,389 216.1,378.8 332.8,477.9 364.3,477.9 411,472.8 427.2,477.1 450.3,472.9 
			474.7,482.9 501.7,481 501.7,481.8 519.1,484 533.8,485 549,485 582.3,483 547.7,454 		"/>
		<polygon id="land-right3" class="st17" points="915,335.2 904.6,332.4 895.7,335.9 881.2,336.8 875.9,339.4 864.2,330 854.2,332 
			831.7,339.4 819.8,339.4 807.1,343.3 804.7,347.2 800,342.3 779.5,345.4 760.8,342.3 743.2,349.3 714.3,350.5 696.1,354 
			689.4,355 694.4,359.6 695.3,359.6 701.4,363.9 721.6,363.8 728.6,374.3 787.3,368.4 839.8,361.7 915,351.7 		"/>
		
			<linearGradient id="land-right2_1_" gradientUnits="userSpaceOnUse" x1="838.0264" y1="-8.009" x2="808.3534" y2="-89.3351" gradientTransform="matrix(1 0 0 -1 0 270)">
			<stop  offset="0" style="stop-color:#F3B39B"/>
			<stop  offset="0.3648" style="stop-color:#5A566B"/>
			<stop  offset="0.9951" style="stop-color:#3C4D59"/>
		</linearGradient>
		<polygon id="land-right2" class="st18" points="915,308.1 906.7,307.3 890.8,319.4 868.2,321.5 858,327.8 839.5,332.2 
			816.2,335.3 802.4,341.6 792,335.2 781.8,341.6 773.2,339.1 763,341.6 760.3,349 740.3,352.9 732.5,358.6 723.6,364.5 
			721.2,366.3 689.4,374.1 703.8,375.9 791.1,374.4 803.9,379.6 871.2,379.6 915,378.3 		"/>
		
			<linearGradient id="land-right1_2_" gradientUnits="userSpaceOnUse" x1="844.8238" y1="-19.8274" x2="801.2704" y2="-128.0509" gradientTransform="matrix(1 0 0 -1 0 270)">
			<stop  offset="0" style="stop-color:#F5D49A"/>
			<stop  offset="0.1469" style="stop-color:#BDA299"/>
			<stop  offset="0.3744" style="stop-color:#676178"/>
			<stop  offset="0.6445" style="stop-color:#4B5E6D"/>
			<stop  offset="1" style="stop-color:#3A474F"/>
		</linearGradient>
		<polygon id="land-right1_1_" class="st19" points="915,335 902.7,330.9 879.6,345.7 865.8,340.4 850.2,349.7 833.2,354.1 
			814.6,358.6 802.1,361.8 786.9,357.1 775.4,362.8 757,380.4 738.4,390 728.4,394.5 716.3,394.5 699.7,400.6 688.2,401.2 
			673,411.7 665.1,411.7 657.6,415.7 713,416.6 704.3,421 695.4,421 688,424.4 676.4,426.3 688,428.4 702.1,432.3 713,432.3 
			723.4,432.3 731.3,437.2 748.3,443.2 758.2,443.2 766.8,443.2 774.5,443.4 777.2,444.1 793,447.2 803.4,449.8 803.4,449.3 
			825.5,453.7 859.2,455.7 902.6,453.7 915,454.8 		"/>
		<path id="moon" class="st20" d="M678.7-70.8c1.5,1.7,2.4,3.9,2.4,6.3c0,5.3-4.3,9.6-9.6,9.6c-1.7,0-3.3-0.4-4.6-1.2
			c1.8,2,4.4,3.3,7.3,3.3c5.3,0,9.6-4.3,9.6-9.6C683.7-66,681.7-69.2,678.7-70.8z"/>
		<g id="clouds">
			<polygon class="st21" points="160.1,162.3 418.8,162.3 423.3,157.7 423.3,157.7 418.8,153.2 160.1,153.2 155.6,157.7 
				155.6,157.7 			"/>
			<polygon class="st21" points="412.5,228.9 590.7,228.9 594.6,225 594.6,225 590.7,221 412.5,221 408.6,225 408.6,225 			"/>
			<polygon class="st21" points="605.4,179 845.8,179 848.6,176.2 848.6,176.2 845.8,173.5 605.4,173.5 602.7,176.2 602.7,176.2 			
				"/>
			<polygon class="st21" points="686.8,127.6 897.3,127.6 903.2,121.7 903.2,121.7 897.3,115.8 686.8,115.8 680.9,121.7 
				680.9,121.7 			"/>
			<polygon class="st21" points="403,106.2 38.7,106.2 38.7,117.2 403,117.2 408.5,111.7 			"/>
			<polygon class="st21" points="440.9,130.9 249.1,130.9 249.1,137.8 440.9,137.8 444.4,134.3 			"/>
			<polygon class="st21" points="435.4,202.9 320,202.9 320.3,200.9 314.4,195 216.1,195 216.1,210.8 435.4,210.8 439.3,206.8 			
				"/>
			<polygon class="st21" points="323.5,217.1 216.1,217.1 216.1,225 323.5,225 327.4,221 			"/>
			<polygon class="st21" points="915,138.9 777.8,138.9 773.6,143.1 777.8,147.3 891.4,147.3 890,151 895.8,156.9 915,156.9 			"/>
			<polygon class="st21" points="915,183.9 733.8,183.9 727.1,190.6 733.8,197.3 915,197.3 			"/>
			<polygon class="st21" points="915,222 692.1,222 689.8,224.4 692.1,226.7 915,226.7 			"/>
			<polygon class="st21" points="955,241.1 537.4,241.1 533.1,245.3 537.4,249.6 955,249.6 			"/>
		</g>
		<g>
			<g id="rocket_proplusion">
				<polygon class="st22" points="499.2,189.9 489.4,184.6 484.9,176.1 493.3,167.3 487.6,166 472.3,167.2 453.8,187.2 312.1,320.8 
					312.3,331 324.7,331.4 501.9,204.9 511,192.6 512.2,180 				"/>
				<polygon class="st23" points="480.5,173.9 475,173.9 466,183.3 463.6,191.2 395.5,252.4 316.7,322.2 317.3,329.2 418.2,255.3 
					478.2,213.9 493.1,205.6 498.7,200.5 500.4,194 499.2,189.9 486.8,175.1 				"/>
				<polygon class="st24" points="485.8,175.2 480.5,173.9 472.9,179.3 467.9,187.3 467.2,192.8 453.3,209 410.2,247.1 372.2,280.4 
					374.1,282.7 429.1,240.2 468.3,215 490.4,203.3 495.4,200 497.5,197.2 499.3,193.5 499.2,189.9 				"/>
				<polygon class="st25" points="485.8,175.2 480.8,175.6 475.3,180.8 472.1,187.1 471.9,195.1 467.6,202 318.5,324 317.2,328.3 
					471.4,205.7 483.2,199.8 490,198.7 495.1,195.9 497.2,192.9 499.2,189.9 				"/>
			</g>
			<g id="spaceship">
				
					<linearGradient id="SVGID_10_" gradientUnits="userSpaceOnUse" x1="719.8581" y1="167.8346" x2="679.085" y2="203.5683" gradientTransform="matrix(0.9972 -7.532216e-02 -7.532216e-02 -0.9972 13.8169 323.6455)">
					<stop  offset="0" style="stop-color:#F2C086"/>
					<stop  offset="8.108176e-02" style="stop-color:#F3A98C"/>
					<stop  offset="0.1841" style="stop-color:#D37A6D"/>
					<stop  offset="0.4162" style="stop-color:#4E5663"/>
					<stop  offset="0.6682" style="stop-color:#283841"/>
					<stop  offset="1" style="stop-color:#0D1C21"/>
				</linearGradient>
				<polygon class="st26" points="656.9,94.4 671.9,92.6 770.9,11.9 780.8,4.1 790.7,-3.9 811.1,-16.6 799.5,-1 790.2,9.6 
					780.9,18.1 678.3,109.2 663.7,109.2 647.8,100.8 570.5,158.1 546.1,160 645.8,89.9 				"/>
				
					<linearGradient id="SVGID_11_" gradientUnits="userSpaceOnUse" x1="842.0688" y1="263.368" x2="632.5579" y2="234.0098" gradientTransform="matrix(0.9972 -7.532216e-02 -7.532216e-02 -0.9972 13.8169 323.6455)">
					<stop  offset="0" style="stop-color:#F2C086"/>
					<stop  offset="8.108176e-02" style="stop-color:#F3A98C"/>
					<stop  offset="0.1841" style="stop-color:#D37A6D"/>
					<stop  offset="0.6682" style="stop-color:#CFD0D2"/>
					<stop  offset="1" style="stop-color:#CCD1D0"/>
				</linearGradient>
				<polygon class="st27" points="709.7,-27.5 750.2,-32.9 811.1,-16.6 790.7,-3.9 785.8,0 770.9,11.9 684.6,82.2 602.1,45.1 				
					"/>
				
					<linearGradient id="SVGID_12_" gradientUnits="userSpaceOnUse" x1="717.3348" y1="269.9948" x2="772.9158" y2="288.0753" gradientTransform="matrix(0.9972 -7.532216e-02 -7.532216e-02 -0.9972 13.8169 323.6455)">
					<stop  offset="0" style="stop-color:#0F1B21"/>
					<stop  offset="1" style="stop-color:#201C1D"/>
				</linearGradient>
				<polygon class="st28" points="650.4,12.5 685,24 718.9,4.2 746,12.6 796.5,-20.6 750.2,-32.9 709.7,-27.5 				"/>
				<polygon class="st29" points="715.5,6.2 742.2,15.7 746,12.6 718.9,4.2 				"/>
				<g>
					
						<linearGradient id="SVGID_13_" gradientUnits="userSpaceOnUse" x1="483.2832" y1="103.3299" x2="508.0175" y2="121.6265" gradientTransform="matrix(0.9972 -7.532216e-02 -7.532216e-02 -0.9972 13.8169 323.6455)">
						<stop  offset="0" style="stop-color:#F2C086"/>
						<stop  offset="8.108176e-02" style="stop-color:#F3A98C"/>
						<stop  offset="0.1841" style="stop-color:#D37A6D"/>
						<stop  offset="0.5136" style="stop-color:#4E5663"/>
						<stop  offset="0.7306" style="stop-color:#283841"/>
						<stop  offset="1" style="stop-color:#0D1C21"/>
					</linearGradient>
					<polygon class="st30" points="503.1,154.8 482.6,176.4 487.1,184.9 496.9,190.2 522.4,170.8 					"/>
					<polygon class="st31" points="500.1,160 501.6,162 485.4,178.4 484.7,176.9 					"/>
					<polygon class="st31" points="502.9,163.7 504.7,166 487.6,181.8 486.3,179.5 					"/>
					<polygon class="st31" points="505.9,167.3 509.4,168.9 490.9,184.5 488.5,183.2 					"/>
					<polygon class="st31" points="510.8,169.5 514.2,170.8 493.9,186.8 492.1,185.8 					"/>
					<polygon class="st31" points="515.2,171.4 518.1,172.8 496.8,188.4 495.4,187.6 					"/>
				</g>
				
					<linearGradient id="SVGID_14_" gradientUnits="userSpaceOnUse" x1="500.631" y1="177.8069" x2="686.928" y2="177.8069" gradientTransform="matrix(0.9972 -7.532216e-02 -7.532216e-02 -0.9972 13.8169 323.6455)">
					<stop  offset="0" style="stop-color:#F2C086"/>
					<stop  offset="8.108176e-02" style="stop-color:#F3A98C"/>
					<stop  offset="0.1841" style="stop-color:#D37A6D"/>
					<stop  offset="0.6682" style="stop-color:#CFD0D2"/>
					<stop  offset="1" style="stop-color:#CCD1D0"/>
				</linearGradient>
				<polygon class="st32" points="535.3,93.6 505.5,117.6 501.6,134.4 526.3,153 546.1,160 645.8,89.9 656.9,94.4 671.9,92.6 
					684.5,82.3 600.9,46.1 556.1,79.3 				"/>
				
					<linearGradient id="SVGID_15_" gradientUnits="userSpaceOnUse" x1="502.0085" y1="120.4632" x2="535.4673" y2="143.2021" gradientTransform="matrix(0.9972 -7.532216e-02 -7.532216e-02 -0.9972 13.8169 323.6455)">
					<stop  offset="0" style="stop-color:#F2C086"/>
					<stop  offset="8.108176e-02" style="stop-color:#F3A98C"/>
					<stop  offset="0.1841" style="stop-color:#D37A6D"/>
					<stop  offset="0.4162" style="stop-color:#4E5663"/>
					<stop  offset="0.6682" style="stop-color:#283841"/>
					<stop  offset="1" style="stop-color:#0D1C21"/>
				</linearGradient>
				<polygon class="st33" points="511.5,136.3 497.6,151 508,164.8 527.1,172.9 547,156.4 				"/>
				
					<linearGradient id="SVGID_16_" gradientUnits="userSpaceOnUse" x1="576.8514" y1="127.9192" x2="618.9758" y2="127.9192" gradientTransform="matrix(0.9972 -7.532216e-02 -7.532216e-02 -0.9972 13.8169 323.6455)">
					<stop  offset="0" style="stop-color:#F2C086"/>
					<stop  offset="0.1996" style="stop-color:#F3A98C"/>
					<stop  offset="0.4726" style="stop-color:#BDBCAA"/>
					<stop  offset="1" style="stop-color:#A28884"/>
				</linearGradient>
				<polygon class="st34" points="619.3,121.9 611.5,155 581.5,180.2 580.3,150.7 				"/>
				
					<linearGradient id="SVGID_17_" gradientUnits="userSpaceOnUse" x1="480.0075" y1="199.5972" x2="559.1239" y2="199.5972" gradientTransform="matrix(0.9972 -7.532216e-02 -7.532216e-02 -0.9972 13.8169 323.6455)">
					<stop  offset="0" style="stop-color:#F2C086"/>
					<stop  offset="8.108176e-02" style="stop-color:#F3A98C"/>
					<stop  offset="0.1841" style="stop-color:#D37A6D"/>
					<stop  offset="0.6682" style="stop-color:#CFD0D2"/>
					<stop  offset="1" style="stop-color:#CCD1D0"/>
				</linearGradient>
				<polygon class="st35" points="556.1,79.3 519.3,62 476.4,74.6 500.7,87.6 512.9,88.1 522.7,94.6 521.7,108.4 				"/>
				
					<linearGradient id="SVGID_18_" gradientUnits="userSpaceOnUse" x1="658.1833" y1="264.3434" x2="727.0247" y2="264.3434" gradientTransform="matrix(0.9972 -7.532216e-02 -7.532216e-02 -0.9972 13.8169 323.6455)">
					<stop  offset="0.339" style="stop-color:#0D1D24"/>
					<stop  offset="1" style="stop-color:#322E2F"/>
				</linearGradient>
				<polygon class="st36" points="718.9,4.2 680.8,-8 650.4,12.5 685,24 				"/>
				<polygon class="st37" points="709.7,-27.5 746,12.6 750.2,-32.9 				"/>
				<polygon class="st38" points="577,153.2 579.9,180.9 581.5,180.2 580.3,150.7 				"/>
				
					<linearGradient id="SVGID_19_" gradientUnits="userSpaceOnUse" x1="496.8402" y1="188.8062" x2="512.9398" y2="213.4694" gradientTransform="matrix(0.9972 -7.532216e-02 -7.532216e-02 -0.9972 13.8169 323.6455)">
					<stop  offset="0" style="stop-color:#F2C086"/>
					<stop  offset="0.3086" style="stop-color:#F3A98C"/>
					<stop  offset="0.5775" style="stop-color:#D37A6D"/>
					<stop  offset="1" style="stop-color:#A28884"/>
				</linearGradient>
				<polygon class="st39" points="476.4,74.6 474.6,76.2 496.6,89.7 511.5,90.4 519.4,96.1 519.2,110.1 521.7,108.4 522.7,94.6 
					512.9,88.1 500.7,87.6 				"/>
				
					<linearGradient id="SVGID_20_" gradientUnits="userSpaceOnUse" x1="505.7989" y1="161.2088" x2="647.7672" y2="161.2088" gradientTransform="matrix(0.9972 -7.532216e-02 -7.532216e-02 -0.9972 13.8169 323.6455)">
					<stop  offset="0" style="stop-color:#F2C086"/>
					<stop  offset="8.108176e-02" style="stop-color:#F3A98C"/>
					<stop  offset="0.1841" style="stop-color:#D37A6D"/>
					<stop  offset="0.4162" style="stop-color:#4E5663"/>
					<stop  offset="0.6682" style="stop-color:#283841"/>
					<stop  offset="1" style="stop-color:#0D1C21"/>
				</linearGradient>
				<polygon class="st40" points="645.8,89.9 623.3,77.7 587.9,80.4 507.1,138.6 526.3,153 546.1,160 				"/>
				<polygon class="st41" points="476.8,74 479.2,75.5 442.9,100.9 				"/>
				<polygon class="st41" points="579.3,174.9 579.9,180.9 497.7,248 				"/>
				<polygon class="st42" points="477.4,136 478.1,142 317.8,272.6 				"/>
				<polygon class="st43" points="650.4,12.5 685.1,24 679.1,27.5 645.3,16 				"/>
				<polygon class="st31" points="656.9,94.4 663.7,109.2 659.1,94.2 				"/>
				<polygon class="st44" points="671.9,92.7 678.3,109.2 673.6,91.2 				"/>
				
					<linearGradient id="SVGID_21_" gradientUnits="userSpaceOnUse" x1="581.2228" y1="196.4385" x2="607.5884" y2="230.5254" gradientTransform="matrix(0.9964 -8.499932e-02 -8.499932e-02 -0.9964 15.4737 330.91)">
					<stop  offset="0" style="stop-color:#F2C086"/>
					<stop  offset="8.108176e-02" style="stop-color:#F3A98C"/>
					<stop  offset="0.1841" style="stop-color:#D37A6D"/>
					<stop  offset="0.6682" style="stop-color:#CFD0D2"/>
					<stop  offset="1" style="stop-color:#CCD1D0"/>
				</linearGradient>
				<polygon class="st45" points="601,51.5 613.2,56.9 575.4,84.7 565.5,79.2 				"/>
				
					<linearGradient id="SVGID_22_" gradientUnits="userSpaceOnUse" x1="606.2953" y1="211.7827" x2="687.9854" y2="211.7827" gradientTransform="matrix(0.9972 -7.532216e-02 -7.532216e-02 -0.9972 13.8169 323.6455)">
					<stop  offset="0" style="stop-color:#929497"/>
					<stop  offset="1" style="stop-color:#A6A8AB"/>
				</linearGradient>
				<polygon class="st46" points="602.2,45.1 685.5,81.5 684.5,82.3 600.9,46.1 				"/>
				<polygon class="st44" points="684.5,82.3 685.5,81.5 690.7,98.2 				"/>
				
					<linearGradient id="SVGID_23_" gradientUnits="userSpaceOnUse" x1="570.9828" y1="182.3995" x2="571.1523" y2="194.089" gradientTransform="matrix(0.9972 -7.532216e-02 -7.532216e-02 -0.9972 13.8169 323.6455)">
					<stop  offset="0.2638" style="stop-color:#283841"/>
					<stop  offset="1" style="stop-color:#0D1C21"/>
				</linearGradient>
				<polygon class="st47" points="590.7,86.3 633.3,83.1 633.3,83.1 623.3,77.7 587.9,80.4 507.1,138.6 511.8,142.1 				"/>
				
					<linearGradient id="SVGID_24_" gradientUnits="userSpaceOnUse" x1="531.6181" y1="133.7359" x2="539.7499" y2="179.4775" gradientTransform="matrix(0.9972 -7.532216e-02 -7.532216e-02 -0.9972 13.8169 323.6455)">
					<stop  offset="0" style="stop-color:#F2C086"/>
					<stop  offset="8.108176e-02" style="stop-color:#F3A98C"/>
					<stop  offset="0.1841" style="stop-color:#D37A6D"/>
					<stop  offset="0.4162" style="stop-color:#A28884"/>
					<stop  offset="0.6682" style="stop-color:#96A2AA"/>
					<stop  offset="1" style="stop-color:#58595B"/>
				</linearGradient>
				<polygon class="st48" points="596.4,96.8 516.9,106.3 465.3,146.1 546.3,146.7 607.6,103.3 				"/>
				
					<linearGradient id="SVGID_25_" gradientUnits="userSpaceOnUse" x1="463.5544" y1="162.5421" x2="608.668" y2="162.5421" gradientTransform="matrix(0.9972 -7.532216e-02 -7.532216e-02 -0.9972 13.8169 323.6455)">
					<stop  offset="0" style="stop-color:#F2C086"/>
					<stop  offset="8.108176e-02" style="stop-color:#F3A98C"/>
					<stop  offset="0.1841" style="stop-color:#D37A6D"/>
					<stop  offset="0.4162" style="stop-color:#4E5663"/>
					<stop  offset="0.6682" style="stop-color:#283841"/>
					<stop  offset="1" style="stop-color:#0D1C21"/>
				</linearGradient>
				<polygon class="st49" points="607.6,103.3 520,112.1 471.4,145.9 465.3,146.1 516.9,106.3 596.4,96.8 				"/>
				
					<linearGradient id="SVGID_26_" gradientUnits="userSpaceOnUse" x1="585.0752" y1="194.2707" x2="611.0503" y2="227.8528" gradientTransform="matrix(0.9964 -8.499932e-02 -8.499932e-02 -0.9964 15.4737 330.91)">
					<stop  offset="0" style="stop-color:#F3A98C"/>
					<stop  offset="0.2348" style="stop-color:#D37A6D"/>
					<stop  offset="0.5708" style="stop-color:#4E5663"/>
					<stop  offset="1" style="stop-color:#808184"/>
				</linearGradient>
				<polygon class="st50" points="610.3,55.6 613.2,56.9 575.4,84.7 573.2,83.4 				"/>
				
					<linearGradient id="SVGID_27_" gradientUnits="userSpaceOnUse" x1="567.1222" y1="198.6394" x2="592.9222" y2="231.995" gradientTransform="matrix(0.9987 -5.187230e-02 -5.187230e-02 -0.9987 9.7776 306.5475)">
					<stop  offset="0" style="stop-color:#F2C086"/>
					<stop  offset="8.108176e-02" style="stop-color:#F3A98C"/>
					<stop  offset="0.1841" style="stop-color:#D37A6D"/>
					<stop  offset="0.6682" style="stop-color:#CFD0D2"/>
					<stop  offset="1" style="stop-color:#CCD1D0"/>
				</linearGradient>
				<polygon class="st51" points="591.2,46.1 599.3,50.3 562.6,77.9 556,73.2 				"/>
				
					<linearGradient id="SVGID_28_" gradientUnits="userSpaceOnUse" x1="569.2371" y1="196.8356" x2="595.1179" y2="230.2957" gradientTransform="matrix(0.9987 -5.187230e-02 -5.187230e-02 -0.9987 9.7776 306.5475)">
					<stop  offset="0" style="stop-color:#F3A98C"/>
					<stop  offset="0.2348" style="stop-color:#D37A6D"/>
					<stop  offset="0.5708" style="stop-color:#4E5663"/>
					<stop  offset="1" style="stop-color:#808184"/>
				</linearGradient>
				<polygon class="st52" points="596.4,48.9 599.3,50.3 562.6,77.9 560.4,76.6 				"/>
				<polygon class="st53" points="546.3,146.7 583,134 645.8,89.9 596.4,96.8 607.6,103.3 				"/>
				<g>
					<polygon class="st54" points="666.6,33.5 640.8,24.3 650.9,17.9 651.7,18.2 643.3,23.9 666.4,32 674.4,25.9 675.2,26.2 					
						"/>
				</g>
				<g>
					<polygon class="st54" points="662.1,71.7 660.4,71 697.2,42.8 721.5,52.2 720.9,52.7 697.4,45 					"/>
				</g>
				
					<linearGradient id="SVGID_29_" gradientUnits="userSpaceOnUse" x1="699.6931" y1="218.5283" x2="718.9454" y2="218.5283" gradientTransform="matrix(0.9972 -7.532216e-02 -7.532216e-02 -0.9972 13.8169 323.6455)">
					<stop  offset="0.339" style="stop-color:#0D1D24"/>
					<stop  offset="1" style="stop-color:#322E2F"/>
				</linearGradient>
				<polygon class="st55" points="694.9,50.5 698,47.9 714.4,53.6 710.1,56.8 				"/>
				<polygon class="st54" points="650,27 654.3,24.6 662.5,27.2 658,29.8 				"/>
				<g>
					
						<linearGradient id="SVGID_30_" gradientUnits="userSpaceOnUse" x1="640.5555" y1="227.4853" x2="677.1038" y2="227.4853" gradientTransform="matrix(0.9972 -7.532216e-02 -7.532216e-02 -0.9972 13.8169 323.6455)">
						<stop  offset="0.4162" style="stop-color:#4E5663"/>
						<stop  offset="0.6682" style="stop-color:#283841"/>
						<stop  offset="1" style="stop-color:#0D1C21"/>
					</linearGradient>
					<path class="st56" d="M643.4,55.6C635,50,632,42.5,639.1,36.8c3-2.4,6.6-3.5,10.2-3.5l1.9,4.2c-2.9,0-5.2,0.5-7.5,2.4
						c-4.1,3.3-1.9,8.3,3.2,11.7c0.3,0.2,0.5,0.4,0.8,0.6c-0.8-2.2-0.4-5.8,2.4-8.1c4.4-3.6,11.4-4.5,17.7-0.3
						c5.4,3.6,6.3,9.5,0.8,13.9C661.4,63.4,651.6,61,643.4,55.6z M663.6,47.3c-3.6-2.4-7.6-1.6-10.2,0.5c-2.1,1.7-2.8,4.2-1.9,6.6
						c3.4,1.9,8.6,3.2,12.3,0.2C667,52.1,665.9,48.9,663.6,47.3z"/>
				</g>
			</g>
		</g>
		<path class="st57" d="M884.5,300.2c-6.9,0-12.9,3.4-16.4,8.5c-1.1-0.3-2.3-0.4-3.5-0.4c-6.5,0-11.8,4.2-11.8,9.4
			c0,0.4,0,0.7,0.1,1.1c-0.3,0-0.7,0-1,0c-14.7,0-26.9,8.1-29.3,18.8c-7.7,2-13,6-13,10.8l0,0c-5.2,0.3-10,2.2-14,5.3
			c-5.9-2.2-12.5-3.4-19.6-3.4c-15.8,0-29.6,6.1-37.1,15.2c-2.7,1-4.9,3.8-5.8,7.5c-9.7,1.2-16.8,4.8-17.5,9.2
			c-2,0.4-3.9,0.9-5.7,1.6c-4.3-2.1-9.1-3.3-14.1-3.3c-4.9,0-9.5,1.1-13.6,3c-2.2-7.6-7.8-13-14.4-13c-2.2,0-4.3,0.6-6.2,1.7
			c-3.9-9.1-12.6-15.4-22.6-15.4c-2.9,0-5.7,0.5-8.3,1.5c-5.9-5.8-15.4-9.6-26.1-9.6c-9,0-17.2,2.7-23,7c-2.8-4.5-7.1-7.4-12-7.4
			c-6.4,0-12,5.2-14.3,12.5c-3.6-1.5-7.6-2.3-12-2.3c-2,0-3.9,0.2-5.8,0.5c-2.4-2.7-5.4-4.7-8.7-5.7c-2.6-9-8.2-16.5-15.5-20.8
			c-2.8-16.3-20.1-28.8-41-28.8c-6.9,0-13.5,1.4-19.2,3.8c-1.4-2.4-3.5-4.3-6.2-5.2c-6.8-2.3-14.7,2.8-17.5,11.3
			c-0.4,1.2-0.7,2.3-0.8,3.5c-1,0-2-0.1-2.9-0.1c-5.4,0-10.5,0.6-15.4,1.7c6-6,9.6-13.9,9.6-22.6c0-13.4-8.7-25.1-21.3-30.6
			c-3.5-20.3-20-35.6-39.8-35.6c-1.3,0-2.5,0.1-3.7,0.2c-2.3-2.8-4.9-5.4-7.9-7.6c1.4-2.5,2.2-5.4,2.2-8.4c0-8.4-6.2-15.5-14.8-17.8
			c-4.6-12.3-18.2-21.1-34.3-21.1c-19.8,0-35.9,13.6-35.9,30.3c0,0.6,0,1.2,0.1,1.7c-3.1,2-5.7,4.3-7.5,6.9c-1-0.1-2.1-0.1-3.1-0.1
			c-17.6,0-31.9,9.8-31.9,21.8c0,3,0.9,5.8,2.4,8.3c-6.6,6.8-10.4,15.7-10.4,25.5c0,21.5,18.5,39,41.7,39.6
			c-1.4,4.6-2.1,9.5-2.1,14.6c0,26.3,19.9,47.9,45.2,50.2c6.5,9.3,17.1,16.4,29.8,19.8c2.5,13.8,11.5,24.7,23.1,28.2
			c4.4,16,24,28.1,47.5,28.1c1.5,0,2.9-0.1,4.3-0.1c14.9,12.4,40.7,21,70.1,21.8c16.7,0.5,32.4,10.3,45.7,6.3
			c6,3.6,13.5-0.1,21.8,0.1c2.1,0.1,4.2,0,6.2-0.2c8.5,5.8,20.2,3.6,33.3,3.9c7.4,0.2,14.4-0.7,20.7-2.5c3.9,0.6,8.2,1,12.6,1.1
			c18.6,0.5,34.2-3.6,38.1-9.5c2.4,1.7,5.9,2.8,9.7,2.9c6.5,0.2,12-2.6,13.5-6.5c26.6,0.1,48.1-9.1,48.4-21.2c0-0.1,0-0.2,0-0.3
			c6.1-0.4,11.8-2.5,16.5-5.9c1.1-0.1,2.1-0.2,3.2-0.4c2.2,0.5,4.7,0.8,7.3,0.8c0.5,0,1,0,1.5,0c1.6,1.9,4.4,3.2,7.6,3.2
			c0.1,0,0.2,0,0.3,0c2.5,4.5,10.4,7.8,19.8,7.8c11.4,0,20.6-4.9,20.6-10.9c0-2.7-1.9-5.1-4.9-7c0.3-0.4,0.6-0.8,0.8-1.2
			c4.8-2.3,8.1-5.9,9-10c3.5-0.9,6.6-2.7,9.1-5.2c3.4,6.1,9.2,10.2,15.8,10.2c10.5,0,18.9-10.1,18.9-22.5c0-7.4-3-14-7.6-18.1
			c5-3.8,8.3-9.8,8.3-16.6c0-0.9-0.1-1.9-0.2-2.8c0.4,0,0.8,0,1.2,0c2.2,0,4.3-0.3,6.2-0.8c11.9-0.6,21.6-8.1,23.3-17.7
			c1-2.3,1.6-4.8,1.6-7.3c0-1.4-0.2-2.8-0.5-4.2c1.1,0.2,2.2,0.3,3.4,0.3c10.8,0,19.5-8.3,19.5-18.6S895.3,300.2,884.5,300.2z"/>
		<path class="st57" d="M881.7,342.2c-9.7,1.4-18.7,4.9-25.5,10c-2.1-0.9-4.5-1.7-6.9-2.2c-8.4-1.6-17.2-0.2-25.1,3.6
			c-1.6-4.1-5.1-7.3-10.1-8.3s-10.4,0.5-14.7,3.5c-2.9-0.9-5.9-1.7-9.1-2.3c-31.3-6.1-62.9,5.3-70.6,25.6c-1,2.6-1.5,5.2-1.7,7.7
			c-10.8,2.3-20.7,8.4-27.4,16.8c-4.5,0.2-8.9,1.5-12.7,3.5c-2.1-0.8-4.4-1.4-6.9-1.9c-5.2-1-10.5-1.2-15.4-0.6
			c-0.1-7.7-4.9-14-12.8-15.6c-5.9-1.2-12.2,0.6-17.3,4.4c-5.6-5.6-14.5-10.2-25.5-12.3c-13-2.6-26-1.1-35.4,3.1
			c-2.8-1.6-6-2.8-9.6-3.5c-12.3-2.4-25.2,1.7-33.3,9.6c-1.9-1.5-4.2-2.6-6.9-3.2c-8-1.6-16.9,2.4-22.4,9.2
			c-4.3-2.9-9.5-5.1-15.5-6.2c-6.2-1.2-12.5-1.2-18.5-0.2c-2-1.1-4.1-2.1-6.4-2.9c0.8-4.4-6.6-9.6-18-13.1c0.2-3.8-1.4-7.1-4.4-8.7
			c-5.8-10.7-20.3-19.9-39.6-23.7c-8.6-1.7-17.1-2.1-25.1-1.4c-3.7-4-8.9-7-15.1-8.5l0,0c1.8-4.6-3.2-9.9-11.9-13.6
			c1.1-10.9-10.8-21.8-28.7-25.3c-0.4-0.1-0.8-0.2-1.3-0.2c0.2-0.3,0.4-0.7,0.5-1.1c1.9-5.1-2.9-10.4-10.8-12
			c-1.5-0.3-2.9-0.4-4.4-0.4c-2.3-5.8-8.4-10.6-16.8-12.2c-13.1-2.6-26.8,3.5-30.6,13.5s3.7,20.2,16.8,22.8c1.4,0.3,2.8,0.4,4.2,0.5
			c-0.9,1.2-1.6,2.5-2.2,3.9c-1,2.5-1.2,5-0.7,7.5c-0.5,3.4,0.2,6.9,2.1,10c-2,1.9-3.6,4.2-4.5,6.6c-4.2,11.1,6,22.8,22.9,26.1
			c3.6,0.7,7.2,1,10.6,0.8c0.6,0.9,1.3,1.7,2.1,2.6c-7.1,2.9-13.2,8.6-15.9,15.8c-4.6,12.1,2,24,14.7,26.5c8.1,1.6,16.7-1,23-6.1
			c2.1,3.1,5.2,5.6,9.1,7.3c-0.5,4.2,2.3,8.5,7.2,11.9c0.2,0.5,0.3,0.9,0.6,1.4c-4.5,1.1-7.6,3.1-8.6,5.7
			c-2.2,5.8,7.2,12.8,21.1,15.5c8.8,1.7,17.2,1.3,22.8-0.7c-2.8,2.8-4.9,6.1-6.1,9.7c-4.7,13.6,4.8,26.9,21.1,29.7
			c9.8,1.7,19.9-0.8,27.4-6c-2.5,8.5,2,16.6,10.5,20.1h491V316.3C901.5,320,889.1,329.4,881.7,342.2z"/>
	</g>
</g>
</svg>
