<?xml version="1.0" encoding="utf-8"?>
<!-- Generator: Adobe Illustrator 18.0.0, SVG Export Plug-In . SVG Version: 6.00 Build 0)  -->
<!DOCTYPE svg PUBLIC "-//W3C//DTD SVG 1.1//EN" "http://www.w3.org/Graphics/SVG/1.1/DTD/svg11.dtd">
<svg version="1.1" id="Layer_1" xmlns="http://www.w3.org/2000/svg" xmlns:xlink="http://www.w3.org/1999/xlink" x="0px" y="0px"
	 viewBox="0 0 70 70" enable-background="new 0 0 70 70" xml:space="preserve">
<g>
	<g>
		
			<line fill="none" stroke="#01465D" stroke-width="3" stroke-linecap="round" stroke-linejoin="round" stroke-miterlimit="10" x1="43.8" y1="26.2" x2="8.8" y2="61.2"/>
		<polygon fill="none" stroke="#01465D" stroke-width="3" stroke-linecap="round" stroke-miterlimit="10" points="50.9,22.7 
			54.2,27.1 48.7,27.1 45.5,31.6 43.9,26.3 38.6,24.7 43.1,21.5 43,16 47.4,19.3 52.6,17.5 		"/>
		
			<circle fill="none" stroke="#01465D" stroke-width="3" stroke-linecap="round" stroke-miterlimit="10" cx="6.1" cy="63.9" r="2.9"/>
	</g>
	<g>
		<g>
			<path fill="#01465D" d="M28,14.5c1.6,0,1.6-2.5,0-2.5S26.4,14.5,28,14.5L28,14.5z"/>
		</g>
	</g>
	<g>
		<g>
			<path fill="#01465D" d="M37.4,5.9c2.4,0,2.4-3.8,0-3.8C35,2.1,35,5.9,37.4,5.9L37.4,5.9z"/>
		</g>
	</g>
	<g>
		<g>
			<path fill="#01465D" d="M50.3,3.3c1.6,0,1.6-2.5,0-2.5S48.7,3.3,50.3,3.3L50.3,3.3z"/>
		</g>
	</g>
	<g>
		<g>
			<path fill="#01465D" d="M62.1,9.9c2.4,0,2.4-3.8,0-3.8S59.7,9.9,62.1,9.9L62.1,9.9z"/>
		</g>
	</g>
	<g>
		<g>
			<path fill="#01465D" d="M68,21c1.6,0,1.6-2.5,0-2.5S66.4,21,68,21L68,21z"/>
		</g>
	</g>
	<g>
		<g>
			<path fill="#01465D" d="M65.8,34.6c2.4,0,2.4-3.7,0-3.7C63.4,30.9,63.4,34.6,65.8,34.6L65.8,34.6z"/>
		</g>
	</g>
	<g>
		<g>
			<path fill="#01465D" d="M56.5,43.3c1.6,0,1.6-2.5,0-2.5C54.9,40.8,54.9,43.3,56.5,43.3L56.5,43.3z"/>
		</g>
	</g>
</g>
</svg>
