<?xml version="1.0" encoding="utf-8"?>
<!-- Generator: Adobe Illustrator 17.0.2, SVG Export Plug-In . SVG Version: 6.00 Build 0)  -->
<!DOCTYPE svg PUBLIC "-//W3C//DTD SVG 1.1//EN" "http://www.w3.org/Graphics/SVG/1.1/DTD/svg11.dtd">
<svg version="1.1" id="Layer_1" xmlns="http://www.w3.org/2000/svg" xmlns:xlink="http://www.w3.org/1999/xlink" x="0px" y="0px"
	 width="524.057px" height="329.401px" viewBox="0 0 524.057 329.401" enable-background="new 0 0 524.057 329.401"
	 xml:space="preserve">
<g>
	<path fill="#CED4D7" d="M492.973,227.491H152.939h-10.585v10.585v8.146v8.248c0,5.846,4.739,10.585,10.585,10.585h340.034
		c5.846,0,10.585-4.739,10.585-10.585v-8.248v-8.146v-10.585H492.973z"/>
	<path fill="#78878C" d="M152.939,227.491h340.034h10.585v-10.585V31.263v-8.248c0-5.846-4.739-10.585-10.585-10.585H152.939
		c-5.846,0-10.585,4.739-10.585,10.585v8.248v185.643v10.585H152.939z"/>
</g>
<g>
	<path fill="#CED4D7" d="M369.692,260.096c0-18.934-35.016-6.386-46.736-1.642c-11.72-4.744-46.736-17.269-46.736,1.665
		c0,32.841-20.21,60.696-20.21,60.696h63.156h7.579h63.156C389.902,320.815,369.692,292.938,369.692,260.096z"/>
	<path fill="#CED4D6" d="M372.092,280.502H273.82c1.112-4.865,1.92-10.426,2.223-15.291h93.825
		C370.172,270.076,370.98,275.637,372.092,280.502z"/>
	<rect x="251.021" y="313.169" fill="#CED4D7" width="143.876" height="7.646"/>
	<path opacity="0.15" fill="#657275" d="M372.092,280.502H273.82c1.112-4.865,1.92-10.426,2.223-15.291h93.825
		C370.172,270.076,370.98,275.637,372.092,280.502z"/>
	<rect x="239.676" y="30.283" fill="#02526A" width="246.272" height="20.852"/>
	<rect x="251.021" y="313.169" fill="#9EADB2" width="143.876" height="7.646"/>
	<rect x="159.969" y="30.283" fill="#9EADB3" width="79.707" height="34.575"/>
</g>
<g>
	<rect x="239.676" y="51.135" fill="#FFFFFF" width="246.272" height="158.472"/>
	<g opacity="0.2">
		<rect x="250.393" y="38.972" fill="#ECECEC" width="43.996" height="3.475"/>
		<path fill="#ECECEC" d="M295.779,42.447c0,0.768-0.622,1.39-1.39,1.39h-43.996c-0.768,0-1.39-0.622-1.39-1.39v-3.475
			c0-0.768,0.622-1.39,1.39-1.39h43.996c0.768,0,1.39,0.622,1.39,1.39V42.447z M251.783,41.057h41.216v-0.695h-41.216V41.057z"/>
	</g>
	<g>
		<path fill="#ECECEC" d="M389.899,198.784c0,0.768-0.622,1.39-1.39,1.39H250.393c-0.768,0-1.39-0.622-1.39-1.39v-10.481
			c0-0.768,0.622-1.39,1.39-1.39h138.116c0.768,0,1.39,0.622,1.39,1.39V198.784z"/>
	</g>
	<g>
		<path fill="#02698B" d="M428.657,198.784c0,0.768-0.622,1.39-1.39,1.39h-31.261c-0.768,0-1.39-0.622-1.39-1.39v-10.481
			c0-0.768,0.622-1.39,1.39-1.39h31.261c0.768,0,1.39,0.622,1.39,1.39V198.784z"/>
	</g>
	<rect x="438.203" y="51.135" fill="#ECECEC" width="47.745" height="158.472"/>
	<rect x="159.969" y="64.319" fill="#CED4D7" width="79.707" height="145.288"/>
	<g>
		<rect x="250.393" y="67.711" fill="#ECECEC" width="16.681" height="16.681"/>
		<path fill="#ECECEC" d="M268.464,84.392c0,0.768-0.622,1.39-1.39,1.39h-16.681c-0.768,0-1.39-0.622-1.39-1.39V67.711
			c0-0.768,0.622-1.39,1.39-1.39h16.681c0.768,0,1.39,0.622,1.39,1.39V84.392z M251.783,83.697h13.901V69.101h-13.901V83.697z"/>
	</g>
	<g>
		<path fill="#FFFFFF" d="M264.022,76.405c0.072-0.373,0.11-0.76,0.11-1.156c0-1.681-0.797-3.535-1.706-4.482
			c-0.307-0.32-0.622-0.549-1.013-0.732c-0.813-0.381-1.579-0.407-2.43-0.407c-2.122,0-4.043,1.408-4.831,3.409
			c-0.268,0.681-0.317,1.425-0.317,2.213c0,0.147,0.016,1.1,0.016,1.1s-1.264,0.157-0.824,1.727c0,0,0.308,0.953,1.361,0.885
			c0.106,0.323,0.229,0.606,0.376,0.81l0,0.002c0.794,1.494,2.365,2.535,4.174,2.535c2.12,0,3.914-1.339,4.513-3.295h0
			c1.31,0.089,1.437-1.332,1.437-1.332C264.809,76.834,264.355,76.51,264.022,76.405z"/>
		<path fill="#78878C" d="M253.85,76.349c0,0,0.733,0.073,1.236-0.5c0.506-0.577,0.428-0.974,0.605-2.011
			c0,0,0.097-1.382,1.209-1.364c0.934,0.015,1.156,0.571,2.177,0.605c1.138,0.038,1.401-0.457,2.084-0.457
			c0.548,0,0.886,0.253,0.949,1.266c0.056,0.898,0.391,1.562,0.795,1.976c0.351,0.361,0.96,0.529,1.116,0.542
			c0,0,0.059-0.368,0.078-0.53c0.033-0.283,0.033-0.419,0.035-0.561c0.003-0.25-0.006-0.283-0.014-0.436
			c-0.015-0.293-0.046-0.515-0.088-0.743c-0.062-0.337-0.154-0.775-0.44-1.483c-0.421-1.042-0.984-1.789-1.562-2.243
			c-1.067-0.837-2.268-0.813-3.292-0.776c-0.818,0.03-2.057,0.319-3.069,1.261c-0.738,0.686-1.206,1.304-1.607,2.397
			c-0.089,0.243-0.149,0.577-0.186,0.961C253.812,74.908,253.82,75.699,253.85,76.349z"/>
	</g>
	
		<line fill="none" stroke="#ECECEC" stroke-width="3" stroke-linecap="round" stroke-miterlimit="10" x1="275.863" y1="68.962" x2="416.95" y2="68.962"/>
	
		<line opacity="0.5" fill="none" stroke="#ECECEC" stroke-width="3" stroke-linecap="round" stroke-miterlimit="10" x1="170.451" y1="77.86" x2="216.496" y2="77.86"/>
	
		<line fill="none" stroke="#ECECEC" stroke-width="3" stroke-linecap="round" stroke-miterlimit="10" x1="275.863" y1="79.247" x2="400.523" y2="79.247"/>
	<g>
		<rect x="250.393" y="102.855" fill="#ECECEC" width="16.681" height="16.681"/>
		<path fill="#ECECEC" d="M268.464,119.536c0,0.768-0.622,1.39-1.39,1.39h-16.681c-0.768,0-1.39-0.622-1.39-1.39v-16.681
			c0-0.768,0.622-1.39,1.39-1.39h16.681c0.768,0,1.39,0.622,1.39,1.39V119.536z M251.783,118.841h13.901v-14.596h-13.901V118.841z"
			/>
	</g>
	
		<line fill="none" stroke="#ECECEC" stroke-width="3" stroke-linecap="round" stroke-miterlimit="10" x1="275.863" y1="103.856" x2="382.201" y2="103.856"/>
	
		<line fill="none" stroke="#ECECEC" stroke-width="3" stroke-linecap="round" stroke-miterlimit="10" x1="275.863" y1="114.391" x2="391.9" y2="114.391"/>
	<g>
		<rect x="250.393" y="137.352" fill="#ECECEC" width="16.681" height="16.681"/>
		<path fill="#ECECEC" d="M268.464,154.033c0,0.768-0.622,1.39-1.39,1.39h-16.681c-0.768,0-1.39-0.622-1.39-1.39v-16.681
			c0-0.768,0.622-1.39,1.39-1.39h16.681c0.768,0,1.39,0.622,1.39,1.39V154.033z M251.783,153.338h13.901v-14.596h-13.901V153.338z"
			/>
	</g>
	<g>
		<path fill="#FFFFFF" d="M264.022,146.047c0.072-0.373,0.11-0.76,0.11-1.156c0-1.681-0.797-3.535-1.706-4.482
			c-0.307-0.32-0.622-0.549-1.013-0.732c-0.813-0.381-1.579-0.407-2.43-0.407c-2.122,0-4.043,1.408-4.831,3.409
			c-0.268,0.681-0.317,1.425-0.317,2.213c0,0.147,0.016,1.1,0.016,1.1s-1.264,0.157-0.824,1.727c0,0,0.308,0.953,1.361,0.885
			c0.106,0.323,0.229,0.606,0.376,0.81l0,0.002c0.794,1.494,2.365,2.535,4.174,2.535c2.12,0,3.914-1.339,4.513-3.295h0
			c1.31,0.089,1.437-1.332,1.437-1.332C264.809,146.475,264.355,146.152,264.022,146.047z"/>
		<path fill="#78878C" d="M253.85,145.99c0,0,0.733,0.073,1.236-0.5c0.506-0.577,0.428-0.974,0.605-2.011
			c0,0,0.097-1.382,1.209-1.364c0.934,0.015,1.156,0.571,2.177,0.605c1.138,0.038,1.401-0.457,2.084-0.457
			c0.548,0,0.886,0.253,0.949,1.266c0.056,0.898,0.391,1.562,0.795,1.976c0.351,0.361,0.96,0.529,1.116,0.542
			c0,0,0.059-0.368,0.078-0.53c0.033-0.283,0.033-0.419,0.035-0.561c0.003-0.25-0.006-0.283-0.014-0.436
			c-0.015-0.293-0.046-0.515-0.088-0.743c-0.062-0.337-0.154-0.775-0.44-1.483c-0.421-1.042-0.984-1.789-1.562-2.243
			c-1.067-0.837-2.268-0.813-3.292-0.776c-0.818,0.03-2.057,0.319-3.069,1.261c-0.738,0.686-1.206,1.304-1.607,2.397
			c-0.089,0.243-0.149,0.577-0.186,0.961C253.812,144.549,253.82,145.341,253.85,145.99z"/>
	</g>
	
		<line fill="none" stroke="#ECECEC" stroke-width="3" stroke-linecap="round" stroke-miterlimit="10" x1="275.863" y1="138.353" x2="382.201" y2="138.353"/>
	
		<line opacity="0.5" fill="none" stroke="#ECECEC" stroke-width="3" stroke-linecap="round" stroke-miterlimit="10" x1="170.451" y1="92.808" x2="210.163" y2="92.808"/>
	
		<line opacity="0.5" fill="none" stroke="#ECECEC" stroke-width="3" stroke-linecap="round" stroke-miterlimit="10" x1="170.451" y1="107.863" x2="212.413" y2="107.863"/>
	
		<line opacity="0.5" fill="none" stroke="#CED4D7" stroke-width="3" stroke-linecap="round" stroke-miterlimit="10" x1="446.951" y1="68.962" x2="472.98" y2="68.962"/>
	
		<line opacity="0.5" fill="none" stroke="#CED4D7" stroke-width="3" stroke-linecap="round" stroke-miterlimit="10" x1="446.951" y1="84.065" x2="466.647" y2="84.065"/>
	
		<line opacity="0.5" fill="none" stroke="#CED4D7" stroke-width="3" stroke-linecap="round" stroke-miterlimit="10" x1="446.951" y1="99.169" x2="468.897" y2="99.169"/>
	
		<line opacity="0.5" fill="none" stroke="#CED4D7" stroke-width="3" stroke-linecap="round" stroke-miterlimit="10" x1="446.951" y1="76.514" x2="466.647" y2="76.514"/>
	
		<line opacity="0.5" fill="none" stroke="#CED4D7" stroke-width="3" stroke-linecap="round" stroke-miterlimit="10" x1="446.951" y1="91.617" x2="468.897" y2="91.617"/>
	
		<line opacity="0.5" fill="none" stroke="#CED4D7" stroke-width="3" stroke-linecap="round" stroke-miterlimit="10" x1="446.951" y1="106.721" x2="472.98" y2="106.721"/>
	
		<line opacity="0.5" fill="none" stroke="#CED4D7" stroke-width="3" stroke-linecap="round" stroke-miterlimit="10" x1="446.951" y1="121.825" x2="466.647" y2="121.825"/>
	
		<line opacity="0.5" fill="none" stroke="#CED4D7" stroke-width="3" stroke-linecap="round" stroke-miterlimit="10" x1="446.951" y1="136.929" x2="468.897" y2="136.929"/>
	
		<line opacity="0.5" fill="none" stroke="#CED4D7" stroke-width="3" stroke-linecap="round" stroke-miterlimit="10" x1="446.951" y1="114.273" x2="466.647" y2="114.273"/>
	
		<line opacity="0.5" fill="none" stroke="#CED4D7" stroke-width="3" stroke-linecap="round" stroke-miterlimit="10" x1="446.951" y1="129.377" x2="468.897" y2="129.377"/>
	<path fill="#78868B" d="M264.073,115.743c0-1.57-1.988-2.028-1.988-2.028v5.77C263.085,118.657,264.073,117.313,264.073,115.743z"
		/>
	<path fill="#FFFFFF" d="M264.057,111.603c0.07-0.379,0.112-0.758,0.112-1.166c0-3.132-2.318-5.66-5.183-5.66
		c-2.865,0-5.183,2.528-5.183,5.66c0,0.155,0.014,1.11,0.014,1.11s-1.278,0.155-0.829,1.742c0,0,0.309,0.955,1.376,0.885
		c0.112,0.323,0.225,0.604,0.379,0.815l0,0c0.801,1.503,2.374,2.556,4.2,2.556c2.135,0,3.947-1.348,4.537-3.315l0,0
		c1.32,0.084,1.447-1.334,1.447-1.334C264.857,112.039,264.394,111.702,264.057,111.603z"/>
	<path fill="#78868B" d="M256.753,105.339c0,0,2.205,3.933-2.921,6.208c0,0-0.52-2.051,0.829-4.2
		C255.826,105.466,256.753,105.339,256.753,105.339z"/>
	<path fill="#78868B" d="M257.16,106.94c0,0,0.112,4.284,6.91,4.663c0,0,0.969-3.764-2.43-6.04c0,0-0.59-0.449-1.587-0.674
		c-0.927-0.211-2.205-0.211-3.287,0.435"/>
	
		<line fill="none" stroke="#CED4D7" stroke-width="3" stroke-linecap="round" stroke-miterlimit="10" x1="255.509" y1="193.334" x2="310.953" y2="193.334"/>
	<circle fill="#02698B" cx="226.558" cy="77.86" r="1.766"/>
	<circle fill="#9EADB3" cx="226.558" cy="92.99" r="1.766"/>
	<circle fill="#02698B" cx="226.558" cy="107.863" r="1.766"/>
	
		<line opacity="0.5" fill="none" stroke="#ECECEC" stroke-width="3" stroke-linecap="round" stroke-miterlimit="10" x1="170.451" y1="123.273" x2="216.496" y2="123.273"/>
	
		<line opacity="0.5" fill="none" stroke="#ECECEC" stroke-width="3" stroke-linecap="round" stroke-miterlimit="10" x1="170.451" y1="138.222" x2="210.163" y2="138.222"/>
	
		<line opacity="0.5" fill="none" stroke="#ECECEC" stroke-width="3" stroke-linecap="round" stroke-miterlimit="10" x1="170.451" y1="153.276" x2="212.413" y2="153.276"/>
	<circle fill="#9EADB3" cx="226.558" cy="123.273" r="1.766"/>
	<circle fill="#9EADB3" cx="226.558" cy="138.403" r="1.766"/>
	<circle fill="#02698B" cx="226.558" cy="153.276" r="1.766"/>
</g>
<g opacity="0.15">
	<path fill="#78878C" d="M90.683,107.825v157.23h93.915V117.09c0-5.095-4.17-9.265-9.265-9.265H90.683z"/>
</g>
<g>
	<g>
		<path fill="#657275" d="M168.506,107.826c5.097,0,9.268,4.17,9.268,9.268v194.453c0,5.097-4.17,9.268-9.268,9.268H31.37
			c-5.097,0-9.268-4.17-9.268-9.268V117.093c0-5.097,4.17-9.268,9.268-9.268L168.506,107.826L168.506,107.826z"/>
	</g>
	<rect x="37.948" y="129.962" fill="#FFFFFF" width="123.979" height="168.715"/>
	<g>
		<path fill="#9EADB2" d="M99.938,306.316c2.363,0,4.279,1.916,4.279,4.279l0,0c0,2.363-1.916,4.279-4.279,4.279l0,0
			c-2.363,0-4.279-1.916-4.279-4.279l0,0C95.659,308.231,97.574,306.316,99.938,306.316L99.938,306.316z"/>
	</g>
	<g>
		<path fill="#9EADB2" d="M108.496,120.926H91.38c-0.93,0-1.684-0.754-1.684-1.684c0-0.93,0.754-1.684,1.684-1.684h17.116
			c0.93,0,1.684,0.754,1.684,1.684C110.18,120.172,109.426,120.926,108.496,120.926z"/>
	</g>
	<rect x="37.949" y="129.963" fill="#02526A" width="123.978" height="14"/>
	<g opacity="0.2">
		<rect x="45.484" y="135.746" fill="#ECECEC" width="30.797" height="2.433"/>
		<path fill="#ECECEC" d="M77.254,138.179c0,0.537-0.436,0.973-0.973,0.973H45.484c-0.537,0-0.973-0.436-0.973-0.973v-2.433
			c0-0.537,0.436-0.973,0.973-0.973h30.797c0.537,0,0.973,0.436,0.973,0.973V138.179z M46.457,137.206h28.851v-0.487H46.457V137.206
			z"/>
	</g>
	<g>
		<path fill="#ECECEC" d="M94.805,289.928c0,0.537-0.436,0.973-0.973,0.973H45.726c-0.537,0-0.973-0.436-0.973-0.973v-7.337
			c0-0.537,0.436-0.973,0.973-0.973h48.106c0.537,0,0.973,0.436,0.973,0.973V289.928z"/>
	</g>
	<g>
		<path fill="#02698B" d="M121.936,289.928c0,0.537-0.436,0.973-0.973,0.973H99.081c-0.537,0-0.973-0.436-0.973-0.973v-7.337
			c0-0.537,0.436-0.973,0.973-0.973h21.882c0.537,0,0.973,0.436,0.973,0.973V289.928z"/>
	</g>
	<rect x="128.618" y="143.963" fill="#ECECEC" width="33.422" height="154.715"/>
	<g>
		<rect x="45.726" y="155.143" fill="#ECECEC" width="11.677" height="11.677"/>
		<path fill="#ECECEC" d="M58.376,166.82c0,0.537-0.436,0.973-0.973,0.973H45.726c-0.537,0-0.973-0.436-0.973-0.973v-11.677
			c0-0.537,0.436-0.973,0.973-0.973h11.677c0.537,0,0.973,0.436,0.973,0.973V166.82z M46.699,166.333h9.731v-10.217h-9.731V166.333z
			"/>
	</g>
	<g>
		<path fill="#FFFFFF" d="M55.266,161.229c0.05-0.261,0.077-0.532,0.077-0.809c0-1.177-0.558-2.474-1.194-3.137
			c-0.215-0.224-0.435-0.385-0.709-0.513c-0.569-0.267-1.105-0.285-1.701-0.285c-1.485,0-2.83,0.985-3.382,2.386
			c-0.188,0.477-0.222,0.997-0.222,1.549c0,0.103,0.011,0.77,0.011,0.77s-0.885,0.11-0.577,1.209c0,0,0.215,0.667,0.953,0.619
			c0.074,0.226,0.16,0.424,0.263,0.567l0,0.001c0.556,1.046,1.655,1.775,2.922,1.775c1.484,0,2.74-0.938,3.159-2.307h0
			c0.917,0.062,1.006-0.932,1.006-0.932C55.817,161.529,55.499,161.303,55.266,161.229z"/>
		<path fill="#78878C" d="M48.146,161.19c0,0,0.513,0.051,0.865-0.35c0.354-0.404,0.3-0.682,0.423-1.408
			c0,0,0.068-0.967,0.847-0.955c0.654,0.01,0.809,0.4,1.524,0.423c0.796,0.026,0.981-0.32,1.459-0.32
			c0.384,0,0.62,0.177,0.665,0.886c0.039,0.629,0.274,1.093,0.556,1.383c0.246,0.252,0.672,0.371,0.781,0.38
			c0,0,0.041-0.257,0.054-0.371c0.023-0.198,0.023-0.293,0.024-0.393c0.002-0.175-0.004-0.198-0.01-0.305
			c-0.011-0.205-0.032-0.361-0.062-0.52c-0.043-0.236-0.108-0.543-0.308-1.038c-0.295-0.729-0.688-1.252-1.094-1.57
			c-0.747-0.586-1.588-0.569-2.305-0.543c-0.573,0.021-1.44,0.224-2.148,0.882c-0.517,0.48-0.844,0.913-1.125,1.678
			c-0.062,0.17-0.104,0.404-0.13,0.672C48.119,160.181,48.124,160.735,48.146,161.19z"/>
	</g>
	
		<line fill="none" stroke="#ECECEC" stroke-width="2.1" stroke-linecap="round" stroke-miterlimit="10" x1="63.555" y1="156.019" x2="119.203" y2="156.019"/>
	
		<line fill="none" stroke="#ECECEC" stroke-width="2.1" stroke-linecap="round" stroke-miterlimit="10" x1="63.555" y1="163.218" x2="112.536" y2="163.218"/>
	<g>
		<rect x="45.726" y="179.744" fill="#ECECEC" width="11.677" height="11.677"/>
		<path fill="#ECECEC" d="M58.376,191.421c0,0.537-0.436,0.973-0.973,0.973H45.726c-0.537,0-0.973-0.436-0.973-0.973v-11.677
			c0-0.537,0.436-0.973,0.973-0.973h11.677c0.537,0,0.973,0.436,0.973,0.973V191.421z M46.699,190.934h9.731v-10.217h-9.731V190.934
			z"/>
	</g>
	
		<line fill="none" stroke="#ECECEC" stroke-width="2.1" stroke-linecap="round" stroke-miterlimit="10" x1="63.555" y1="180.445" x2="112.536" y2="180.445"/>
	
		<line fill="none" stroke="#ECECEC" stroke-width="2.1" stroke-linecap="round" stroke-miterlimit="10" x1="63.555" y1="187.819" x2="102.87" y2="187.819"/>
	<g>
		<rect x="45.726" y="203.892" fill="#ECECEC" width="11.677" height="11.677"/>
		<path fill="#ECECEC" d="M58.376,215.569c0,0.537-0.436,0.973-0.973,0.973H45.726c-0.537,0-0.973-0.436-0.973-0.973v-11.677
			c0-0.537,0.436-0.973,0.973-0.973h11.677c0.537,0,0.973,0.436,0.973,0.973V215.569z M46.699,215.082h9.731v-10.217h-9.731V215.082
			z"/>
	</g>
	<g>
		<path fill="#FFFFFF" d="M55.266,209.978c0.05-0.261,0.077-0.532,0.077-0.809c0-1.177-0.558-2.474-1.194-3.137
			c-0.215-0.224-0.435-0.385-0.709-0.513c-0.569-0.267-1.105-0.285-1.701-0.285c-1.485,0-2.83,0.985-3.382,2.386
			c-0.188,0.477-0.222,0.997-0.222,1.549c0,0.103,0.011,0.77,0.011,0.77s-0.885,0.11-0.577,1.209c0,0,0.215,0.667,0.953,0.619
			c0.074,0.226,0.16,0.424,0.263,0.567l0,0.001c0.556,1.046,1.655,1.775,2.922,1.775c1.484,0,2.74-0.938,3.159-2.307h0
			c0.917,0.062,1.006-0.932,1.006-0.932C55.817,210.278,55.499,210.052,55.266,209.978z"/>
		<path fill="#78878C" d="M48.146,209.939c0,0,0.513,0.051,0.865-0.35c0.354-0.404,0.3-0.682,0.423-1.408
			c0,0,0.068-0.967,0.847-0.955c0.654,0.01,0.809,0.4,1.524,0.423c0.796,0.026,0.981-0.32,1.459-0.32
			c0.384,0,0.62,0.177,0.665,0.886c0.039,0.629,0.274,1.093,0.556,1.383c0.246,0.252,0.672,0.371,0.781,0.38
			c0,0,0.041-0.257,0.054-0.371c0.023-0.198,0.023-0.293,0.024-0.393c0.002-0.175-0.004-0.198-0.01-0.305
			c-0.011-0.205-0.032-0.361-0.062-0.52c-0.043-0.236-0.108-0.543-0.308-1.038c-0.295-0.729-0.688-1.252-1.094-1.57
			c-0.747-0.586-1.588-0.569-2.305-0.543c-0.573,0.021-1.44,0.224-2.148,0.882c-0.517,0.48-0.844,0.913-1.125,1.678
			c-0.062,0.17-0.104,0.404-0.13,0.672C48.119,208.93,48.124,209.484,48.146,209.939z"/>
	</g>
	
		<line fill="none" stroke="#ECECEC" stroke-width="2.1" stroke-linecap="round" stroke-miterlimit="10" x1="63.555" y1="204.593" x2="119.203" y2="204.593"/>
	
		<line opacity="0.5" fill="none" stroke="#CED4D7" stroke-width="2.1" stroke-linecap="round" stroke-miterlimit="10" x1="134.742" y1="156.019" x2="152.962" y2="156.019"/>
	
		<line opacity="0.5" fill="none" stroke="#CED4D7" stroke-width="2.1" stroke-linecap="round" stroke-miterlimit="10" x1="134.742" y1="166.591" x2="148.529" y2="166.591"/>
	
		<line opacity="0.5" fill="none" stroke="#CED4D7" stroke-width="2.1" stroke-linecap="round" stroke-miterlimit="10" x1="134.742" y1="177.164" x2="150.104" y2="177.164"/>
	
		<line opacity="0.5" fill="none" stroke="#CED4D7" stroke-width="2.1" stroke-linecap="round" stroke-miterlimit="10" x1="134.742" y1="161.305" x2="148.529" y2="161.305"/>
	
		<line opacity="0.5" fill="none" stroke="#CED4D7" stroke-width="2.1" stroke-linecap="round" stroke-miterlimit="10" x1="134.742" y1="171.878" x2="150.104" y2="171.878"/>
	
		<line opacity="0.5" fill="none" stroke="#CED4D7" stroke-width="2.1" stroke-linecap="round" stroke-miterlimit="10" x1="134.742" y1="182.45" x2="152.962" y2="182.45"/>
	
		<line opacity="0.5" fill="none" stroke="#CED4D7" stroke-width="2.1" stroke-linecap="round" stroke-miterlimit="10" x1="134.742" y1="193.023" x2="148.529" y2="193.023"/>
	
		<line opacity="0.5" fill="none" stroke="#CED4D7" stroke-width="2.1" stroke-linecap="round" stroke-miterlimit="10" x1="134.742" y1="203.596" x2="150.104" y2="203.596"/>
	
		<line opacity="0.5" fill="none" stroke="#CED4D7" stroke-width="2.1" stroke-linecap="round" stroke-miterlimit="10" x1="134.742" y1="187.737" x2="148.529" y2="187.737"/>
	
		<line opacity="0.5" fill="none" stroke="#CED4D7" stroke-width="2.1" stroke-linecap="round" stroke-miterlimit="10" x1="134.742" y1="198.309" x2="150.104" y2="198.309"/>
	<path fill="#78868B" d="M55.302,188.766c0-1.099-1.391-1.42-1.391-1.42v4.039C54.61,190.805,55.302,189.865,55.302,188.766z"/>
	<path fill="#FFFFFF" d="M55.29,185.868c0.049-0.265,0.079-0.531,0.079-0.816c0-2.193-1.622-3.962-3.628-3.962
		s-3.628,1.77-3.628,3.962c0,0.108,0.01,0.777,0.01,0.777s-0.895,0.108-0.58,1.219c0,0,0.216,0.669,0.964,0.619
		c0.079,0.226,0.157,0.423,0.265,0.57l0,0c0.56,1.052,1.662,1.789,2.94,1.789c1.494,0,2.763-0.944,3.176-2.32l0,0
		c0.924,0.059,1.013-0.934,1.013-0.934C55.851,186.173,55.526,185.937,55.29,185.868z"/>
	<path fill="#78868B" d="M50.178,181.483c0,0,1.544,2.753-2.045,4.346c0,0-0.364-1.435,0.58-2.94
		C49.529,181.571,50.178,181.483,50.178,181.483z"/>
	<path fill="#78868B" d="M50.463,182.604c0,0,0.079,2.999,4.837,3.264c0,0,0.678-2.635-1.701-4.228c0,0-0.413-0.315-1.111-0.472
		c-0.649-0.147-1.544-0.147-2.301,0.305"/>
	
		<line fill="none" stroke="#CED4D7" stroke-width="2.1" stroke-linecap="round" stroke-miterlimit="10" x1="81.87" y1="286.114" x2="49.409" y2="286.114"/>
</g>
<g opacity="0.15">
	<path fill="#78878C" d="M234.104,168.704v95.924l55.725,0.041v-84.503c0-6.304-5.157-11.461-11.461-11.461H234.104z"/>
</g>
<g opacity="0.15">
	<path fill="#78878C" d="M286.582,264.874H226.25v55.396h51.067c5.095,0,9.265-4.17,9.265-9.265V264.874z"/>
</g>
<g>
	<g>
		<path fill="#78878C" d="M282.186,312.426c0,4.548-3.45,8.389-7.995,8.389h-63.903c-4.547,0-8.334-3.841-8.334-8.389V177.338
			c0-4.546,3.787-8.373,8.334-8.373h63.903c4.546,0,7.996,3.827,7.996,8.373V312.426L282.186,312.426z"/>
	</g>
	<g>
		<path fill="#9EADB2" d="M242.239,312.403c-3.378,0-6.125-2.748-6.125-6.124c0-3.378,2.747-6.126,6.125-6.126
			c3.376,0,6.125,2.748,6.125,6.126C248.363,309.655,245.615,312.403,242.239,312.403z"/>
	</g>
	<rect x="209.491" y="196.966" fill="#FFFFFF" width="65.694" height="95.849"/>
	<rect x="209.491" y="184.042" fill="#02526A" width="65.694" height="12.923"/>
	<g opacity="0.2">
		<rect x="214.96" y="188.956" fill="#ECECEC" width="30.797" height="2.433"/>
		<path fill="#ECECEC" d="M246.73,191.389c0,0.537-0.436,0.973-0.973,0.973H214.96c-0.537,0-0.973-0.436-0.973-0.973v-2.433
			c0-0.537,0.436-0.973,0.973-0.973h30.797c0.537,0,0.973,0.436,0.973,0.973V191.389z M215.933,190.416h28.851v-0.487h-28.851
			V190.416z"/>
	</g>
	<g>
		<path fill="#ECECEC" d="M257.839,287.719c0,0.537-0.436,0.973-0.973,0.973H214.96c-0.537,0-0.973-0.436-0.973-0.973v-7.337
			c0-0.537,0.436-0.973,0.973-0.973h41.906c0.537,0,0.973,0.436,0.973,0.973V287.719z"/>
	</g>
	<g>
		<path fill="#02698B" d="M269.344,287.572c0,0.537-0.436,0.973-0.973,0.973h-7.009c-0.537,0-0.973-0.436-0.973-0.973v-7.337
			c0-0.537,0.436-0.973,0.973-0.973h7.009c0.537,0,0.973,0.436,0.973,0.973V287.572z"/>
	</g>
	<g>
		<rect x="214.96" y="204.798" fill="#ECECEC" width="11.677" height="11.677"/>
		<path fill="#ECECEC" d="M227.61,216.475c0,0.537-0.436,0.973-0.973,0.973H214.96c-0.537,0-0.973-0.436-0.973-0.973v-11.677
			c0-0.537,0.436-0.973,0.973-0.973h11.677c0.537,0,0.973,0.436,0.973,0.973V216.475z M215.933,215.988h9.731v-10.217h-9.731
			V215.988z"/>
	</g>
	<g>
		<path fill="#FFFFFF" d="M224.5,210.884c0.05-0.261,0.077-0.532,0.077-0.809c0-1.177-0.558-2.474-1.194-3.137
			c-0.215-0.224-0.435-0.385-0.709-0.513c-0.569-0.267-1.105-0.285-1.701-0.285c-1.485,0-2.83,0.985-3.382,2.386
			c-0.188,0.477-0.222,0.997-0.222,1.549c0,0.103,0.011,0.77,0.011,0.77s-0.885,0.11-0.577,1.209c0,0,0.215,0.667,0.953,0.619
			c0.074,0.226,0.16,0.424,0.263,0.567l0,0.001c0.556,1.046,1.655,1.775,2.922,1.775c1.484,0,2.74-0.938,3.159-2.307h0
			c0.917,0.062,1.006-0.932,1.006-0.932C225.051,211.184,224.733,210.958,224.5,210.884z"/>
		<path fill="#78878C" d="M217.38,210.845c0,0,0.513,0.051,0.865-0.35c0.354-0.404,0.3-0.682,0.423-1.408
			c0,0,0.068-0.967,0.847-0.955c0.654,0.01,0.809,0.4,1.524,0.423c0.796,0.026,0.981-0.32,1.459-0.32
			c0.384,0,0.62,0.177,0.665,0.886c0.039,0.629,0.274,1.093,0.556,1.383c0.246,0.252,0.672,0.371,0.781,0.38
			c0,0,0.041-0.257,0.054-0.371c0.023-0.198,0.023-0.293,0.024-0.393c0.002-0.175-0.004-0.198-0.01-0.305
			c-0.011-0.205-0.032-0.361-0.062-0.52c-0.043-0.236-0.108-0.543-0.308-1.038c-0.295-0.729-0.688-1.252-1.094-1.57
			c-0.747-0.586-1.588-0.569-2.305-0.543c-0.573,0.021-1.44,0.224-2.148,0.882c-0.517,0.48-0.844,0.913-1.125,1.678
			c-0.062,0.17-0.104,0.404-0.13,0.672C217.353,209.836,217.359,210.39,217.38,210.845z"/>
	</g>
	
		<line fill="none" stroke="#ECECEC" stroke-width="2.1" stroke-linecap="round" stroke-miterlimit="10" x1="232.789" y1="205.674" x2="268.343" y2="205.674"/>
	
		<line fill="none" stroke="#ECECEC" stroke-width="2.1" stroke-linecap="round" stroke-miterlimit="10" x1="232.789" y1="217.216" x2="268.343" y2="217.216"/>
	
		<line fill="none" stroke="#ECECEC" stroke-width="2.1" stroke-linecap="round" stroke-miterlimit="10" x1="232.789" y1="210.871" x2="264.921" y2="210.871"/>
	<g>
		<rect x="214.96" y="229.399" fill="#ECECEC" width="11.677" height="11.677"/>
		<path fill="#ECECEC" d="M227.61,241.076c0,0.537-0.436,0.973-0.973,0.973H214.96c-0.537,0-0.973-0.436-0.973-0.973v-11.677
			c0-0.537,0.436-0.973,0.973-0.973h11.677c0.537,0,0.973,0.436,0.973,0.973V241.076z M215.933,240.589h9.731v-10.217h-9.731
			V240.589z"/>
	</g>
	
		<line fill="none" stroke="#ECECEC" stroke-width="2.1" stroke-linecap="round" stroke-miterlimit="10" x1="232.789" y1="230.099" x2="269.125" y2="230.099"/>
	
		<line fill="none" stroke="#ECECEC" stroke-width="2.1" stroke-linecap="round" stroke-miterlimit="10" x1="232.789" y1="235.472" x2="268.343" y2="235.472"/>
	
		<line fill="none" stroke="#ECECEC" stroke-width="2.1" stroke-linecap="round" stroke-miterlimit="10" x1="232.789" y1="241.888" x2="268.343" y2="241.888"/>
	<g>
		<rect x="214.96" y="253.547" fill="#ECECEC" width="11.677" height="11.677"/>
		<path fill="#ECECEC" d="M227.61,265.224c0,0.537-0.436,0.973-0.973,0.973H214.96c-0.537,0-0.973-0.436-0.973-0.973v-11.677
			c0-0.537,0.436-0.973,0.973-0.973h11.677c0.537,0,0.973,0.436,0.973,0.973V265.224z M215.933,264.737h9.731V254.52h-9.731V264.737
			z"/>
	</g>
	<g>
		<path fill="#FFFFFF" d="M224.5,259.633c0.05-0.261,0.077-0.532,0.077-0.809c0-1.177-0.558-2.474-1.194-3.137
			c-0.215-0.224-0.435-0.385-0.709-0.513c-0.569-0.267-1.105-0.285-1.701-0.285c-1.485,0-2.83,0.985-3.382,2.386
			c-0.188,0.477-0.222,0.997-0.222,1.549c0,0.103,0.011,0.77,0.011,0.77s-0.885,0.11-0.577,1.209c0,0,0.215,0.667,0.953,0.619
			c0.074,0.226,0.16,0.424,0.263,0.567l0,0.001c0.556,1.046,1.655,1.775,2.922,1.775c1.484,0,2.74-0.938,3.159-2.307h0
			c0.917,0.062,1.006-0.932,1.006-0.932C225.051,259.933,224.733,259.707,224.5,259.633z"/>
		<path fill="#78878C" d="M217.38,259.594c0,0,0.513,0.051,0.865-0.35c0.354-0.404,0.3-0.682,0.423-1.408
			c0,0,0.068-0.967,0.847-0.955c0.654,0.01,0.809,0.4,1.524,0.423c0.796,0.026,0.981-0.32,1.459-0.32
			c0.384,0,0.62,0.177,0.665,0.886c0.039,0.629,0.274,1.093,0.556,1.383c0.246,0.252,0.672,0.371,0.781,0.38
			c0,0,0.041-0.257,0.054-0.371c0.023-0.198,0.023-0.293,0.024-0.393c0.002-0.175-0.004-0.198-0.01-0.305
			c-0.011-0.205-0.032-0.361-0.062-0.52c-0.043-0.236-0.108-0.543-0.308-1.038c-0.295-0.729-0.688-1.252-1.094-1.57
			c-0.747-0.586-1.588-0.569-2.305-0.543c-0.573,0.021-1.44,0.224-2.148,0.882c-0.517,0.48-0.844,0.913-1.125,1.678
			c-0.062,0.17-0.104,0.404-0.13,0.672C217.353,258.585,217.359,259.139,217.38,259.594z"/>
	</g>
	
		<line fill="none" stroke="#ECECEC" stroke-width="2.1" stroke-linecap="round" stroke-miterlimit="10" x1="232.789" y1="254.248" x2="264.921" y2="254.248"/>
	
		<line fill="none" stroke="#ECECEC" stroke-width="2.1" stroke-linecap="round" stroke-miterlimit="10" x1="232.789" y1="259.27" x2="264.921" y2="259.27"/>
	<path fill="#78868B" d="M224.536,238.421c0-1.099-1.391-1.42-1.391-1.42v4.039C223.845,240.46,224.536,239.52,224.536,238.421z"/>
	<path fill="#FFFFFF" d="M224.525,235.523c0.049-0.265,0.079-0.531,0.079-0.816c0-2.193-1.622-3.962-3.628-3.962
		s-3.628,1.77-3.628,3.962c0,0.108,0.01,0.777,0.01,0.777s-0.895,0.108-0.58,1.219c0,0,0.216,0.669,0.964,0.619
		c0.079,0.226,0.157,0.423,0.265,0.57l0,0c0.56,1.052,1.662,1.789,2.94,1.789c1.494,0,2.763-0.944,3.176-2.32l0,0
		c0.924,0.059,1.013-0.934,1.013-0.934C225.085,235.828,224.76,235.592,224.525,235.523z"/>
	<path fill="#78868B" d="M219.412,231.138c0,0,1.544,2.753-2.045,4.346c0,0-0.364-1.435,0.58-2.94
		C218.763,231.226,219.412,231.138,219.412,231.138z"/>
	<path fill="#78868B" d="M219.697,232.259c0,0,0.079,2.999,4.837,3.264c0,0,0.678-2.635-1.701-4.228c0,0-0.413-0.315-1.111-0.472
		c-0.649-0.147-1.544-0.147-2.301,0.305"/>
	
		<line fill="none" stroke="#CED4D7" stroke-width="2.1" stroke-linecap="round" stroke-miterlimit="10" x1="218.541" y1="283.904" x2="247.42" y2="283.904"/>
</g>
</svg>
