<?xml version="1.0" encoding="utf-8"?>
<!-- Generator: Adobe Illustrator 17.0.2, SVG Export Plug-In . SVG Version: 6.00 Build 0)  -->
<!DOCTYPE svg PUBLIC "-//W3C//DTD SVG 1.1//EN" "http://www.w3.org/Graphics/SVG/1.1/DTD/svg11.dtd">
<svg version="1.1" id="Layer_1" xmlns="http://www.w3.org/2000/svg" xmlns:xlink="http://www.w3.org/1999/xlink" x="0px" y="0px"
	 width="524.057px" height="329.401px" viewBox="0 0 524.057 329.401" enable-background="new 0 0 524.057 329.401"
	 xml:space="preserve">
<g>
	<path fill="#CED4D7" d="M494.965,227.765H154.93h-10.585v10.585v8.146v8.248c0,5.846,4.739,10.585,10.585,10.585h340.034
		c5.846,0,10.585-4.739,10.585-10.585v-8.248v-8.146v-10.585H494.965z"/>
	<path fill="#78878C" d="M154.93,227.765h340.034h10.585V217.18V31.538V23.29c0-5.846-4.739-10.585-10.585-10.585H154.93
		c-5.846,0-10.585,4.739-10.585,10.585v8.248V217.18v10.585H154.93z"/>
</g>
<g>
	<path fill="#CED4D7" d="M371.68,260.645c0-18.934-35.016-6.386-46.736-1.642c-11.72-4.744-46.736-17.269-46.736,1.665
		c0,32.841-20.21,60.696-20.21,60.696h63.156h7.579h63.156C391.89,321.364,371.68,293.486,371.68,260.645z"/>
	<path fill="#CED4D6" d="M374.08,281.051h-98.271c1.112-4.865,1.92-10.426,2.223-15.291h93.825
		C372.16,270.625,372.969,276.185,374.08,281.051z"/>
	<rect x="253.01" y="313.718" fill="#CED4D7" width="143.876" height="7.646"/>
	<path opacity="0.15" fill="#657275" d="M374.08,281.051h-98.271c1.112-4.865,1.92-10.426,2.223-15.291h93.825
		C372.16,270.625,372.969,276.185,374.08,281.051z"/>
	<rect x="161.958" y="30.832" fill="#02526A" width="325.979" height="20.852"/>
	<rect x="253.01" y="313.718" fill="#9EADB2" width="143.876" height="7.646"/>
</g>
<g>
	<rect x="229.096" y="51.683" fill="#FFFFFF" width="258.841" height="158.472"/>
	<rect x="186.849" y="191.754" opacity="0.5" fill="#ECECEC" width="301.088" height="18.401"/>
	<g opacity="0.2">
		<rect x="349.843" y="39.926" fill="#ECECEC" width="43.996" height="3.475"/>
		<path fill="#ECECEC" d="M395.229,43.401c0,0.768-0.622,1.39-1.39,1.39h-43.996c-0.768,0-1.39-0.622-1.39-1.39v-3.475
			c0-0.768,0.622-1.39,1.39-1.39h43.996c0.768,0,1.39,0.622,1.39,1.39V43.401z M351.233,42.011h41.216v-0.695h-41.216V42.011z"/>
	</g>
	<rect x="186.849" y="30.832" fill="#CED4D7" width="66.212" height="179.323"/>
	
		<line opacity="0.5" fill="none" stroke="#ECECEC" stroke-width="3" stroke-linecap="round" stroke-miterlimit="10" x1="199.756" y1="46.492" x2="239.937" y2="46.492"/>
	
		<line opacity="0.5" fill="none" stroke="#ECECEC" stroke-width="3" stroke-linecap="round" stroke-miterlimit="10" x1="199.756" y1="61.44" x2="234.823" y2="61.44"/>
	
		<line opacity="0.5" fill="none" stroke="#ECECEC" stroke-width="3" stroke-linecap="round" stroke-miterlimit="10" x1="199.756" y1="76.495" x2="236.64" y2="76.495"/>
	
		<line opacity="0.5" fill="none" stroke="#ECECEC" stroke-width="3" stroke-linecap="round" stroke-miterlimit="10" x1="199.756" y1="91.905" x2="239.937" y2="91.905"/>
	
		<line opacity="0.5" fill="none" stroke="#ECECEC" stroke-width="3" stroke-linecap="round" stroke-miterlimit="10" x1="199.756" y1="107.804" x2="232.163" y2="107.804"/>
	
		<line opacity="0.5" fill="none" stroke="#ECECEC" stroke-width="3" stroke-linecap="round" stroke-miterlimit="10" x1="199.756" y1="122.753" x2="234.823" y2="122.753"/>
	
		<line opacity="0.5" fill="none" stroke="#ECECEC" stroke-width="3" stroke-linecap="round" stroke-miterlimit="10" x1="199.756" y1="137.807" x2="236.64" y2="137.807"/>
	
		<line opacity="0.5" fill="none" stroke="#ECECEC" stroke-width="3" stroke-linecap="round" stroke-miterlimit="10" x1="199.756" y1="153.217" x2="239.937" y2="153.217"/>
	<g>
		<path opacity="0.5" fill="#ECECEC" d="M264.258,114.628c0,0.768,0.622,1.39,1.39,1.39h50.751c0.768,0,1.39-0.622,1.39-1.39
			v-12.085h-53.531V114.628z"/>
		<path fill="#ECECEC" d="M316.399,65.507h-50.751c-0.768,0-1.39,0.622-1.39,1.39v35.646h53.531V66.897
			C317.789,66.129,317.167,65.507,316.399,65.507z"/>
	</g>
	<g>
		<path opacity="0.5" fill="#ECECEC" d="M327.32,114.628c0,0.768,0.622,1.39,1.39,1.39h50.751c0.768,0,1.39-0.622,1.39-1.39v-12.085
			H327.32V114.628z"/>
		<path fill="#ECECEC" d="M379.461,65.507H328.71c-0.768,0-1.39,0.622-1.39,1.39v35.646h53.531V66.897
			C380.851,66.129,380.228,65.507,379.461,65.507z"/>
	</g>
	<g>
		<path opacity="0.5" fill="#ECECEC" d="M390.381,114.628c0,0.768,0.622,1.39,1.39,1.39h50.751c0.768,0,1.39-0.622,1.39-1.39
			v-12.085h-53.531V114.628z"/>
		<path fill="#ECECEC" d="M442.522,65.507h-50.751c-0.768,0-1.39,0.622-1.39,1.39v35.646h53.531V66.897
			C443.912,66.129,443.29,65.507,442.522,65.507z"/>
	</g>
	<g>
		<path opacity="0.5" fill="#ECECEC" d="M264.258,174.172c0,0.768,0.622,1.39,1.39,1.39h50.751c0.768,0,1.39-0.622,1.39-1.39
			v-12.085h-53.531V174.172z"/>
		<path fill="#ECECEC" d="M316.399,125.051h-50.751c-0.768,0-1.39,0.622-1.39,1.39v35.646h53.531v-35.646
			C317.789,125.674,317.167,125.051,316.399,125.051z"/>
	</g>
	<g>
		<path opacity="0.5" fill="#ECECEC" d="M327.32,174.172c0,0.768,0.622,1.39,1.39,1.39h50.751c0.768,0,1.39-0.622,1.39-1.39v-12.085
			H327.32V174.172z"/>
		<path fill="#ECECEC" d="M379.461,125.051H328.71c-0.768,0-1.39,0.622-1.39,1.39v35.646h53.531v-35.646
			C380.851,125.674,380.228,125.051,379.461,125.051z"/>
	</g>
	<g>
		<path opacity="0.5" fill="#ECECEC" d="M390.381,174.172c0,0.768,0.622,1.39,1.39,1.39h50.751c0.768,0,1.39-0.622,1.39-1.39
			v-12.085h-53.531V174.172z"/>
		<path fill="#ECECEC" d="M442.522,125.051h-50.751c-0.768,0-1.39,0.622-1.39,1.39v35.646h53.531v-35.646
			C443.912,125.674,443.29,125.051,442.522,125.051z"/>
	</g>
	<rect x="161.958" y="30.832" fill="#9EADB3" width="24.891" height="179.323"/>
	<circle opacity="0.5" fill="#ECECEC" cx="174.403" cy="46.65" r="4.376"/>
	<polygon opacity="0.5" fill="#ECECEC" points="174.403,63.974 176.02,67.25 179.636,67.775 177.019,70.325 177.637,73.926 
		174.403,72.226 171.17,73.926 171.787,70.325 169.171,67.775 172.787,67.25 	"/>
	<g opacity="0.5">
		<path fill="#ECECEC" d="M178.253,89.739c-0.895-0.822-2.346-0.822-3.242,0l-0.608,0.558l-0.608-0.558
			c-0.895-0.822-2.346-0.822-3.241,0c-1.007,0.924-1.007,2.423,0,3.347l3.849,3.533l3.85-3.533
			C179.26,92.162,179.26,90.663,178.253,89.739z"/>
	</g>
	<g>
		<defs>
			<rect id="SVGID_1_" x="447.668" y="57.332" width="40.269" height="129.136"/>
		</defs>
		<clipPath id="SVGID_2_">
			<use xlink:href="#SVGID_1_"  overflow="visible"/>
		</clipPath>
		<g clip-path="url(#SVGID_2_)">
			<path opacity="0.5" fill="#ECECEC" d="M453.878,114.628c0,0.768,0.622,1.39,1.39,1.39h50.751c0.768,0,1.39-0.622,1.39-1.39
				v-12.085h-53.531V114.628z"/>
			<path fill="#ECECEC" d="M506.019,65.507h-50.751c-0.768,0-1.39,0.622-1.39,1.39v35.646h53.531V66.897
				C507.409,66.129,506.787,65.507,506.019,65.507z"/>
		</g>
		<g clip-path="url(#SVGID_2_)">
			<path opacity="0.5" fill="#ECECEC" d="M453.878,174.172c0,0.768,0.622,1.39,1.39,1.39h50.751c0.768,0,1.39-0.622,1.39-1.39
				v-12.085h-53.531V174.172z"/>
			<path fill="#ECECEC" d="M506.019,125.051h-50.751c-0.768,0-1.39,0.622-1.39,1.39v35.646h53.531v-35.646
				C507.409,125.674,506.787,125.051,506.019,125.051z"/>
		</g>
	</g>
</g>
<g opacity="0.15">
	<path fill="#78878C" d="M142.712,108.373V265.33h93.915V117.622c0-5.086-4.17-9.249-9.265-9.249H142.712z"/>
</g>
<g>
	<g>
		<path fill="#657275" d="M220.534,108.374c5.097,0,9.268,4.17,9.268,9.268v194.453c0,5.097-4.17,9.268-9.268,9.268H83.398
			c-5.097,0-9.268-4.17-9.268-9.268V117.641c0-5.097,4.17-9.268,9.268-9.268L220.534,108.374L220.534,108.374z"/>
	</g>
	<rect x="89.977" y="130.511" fill="#FFFFFF" width="123.979" height="168.715"/>
	<g>
		<path fill="#9EADB2" d="M151.966,306.864c2.363,0,4.279,1.916,4.279,4.279l0,0c0,2.363-1.916,4.279-4.279,4.279l0,0
			c-2.363,0-4.279-1.916-4.279-4.279l0,0C147.687,308.78,149.603,306.864,151.966,306.864L151.966,306.864z"/>
	</g>
	<g>
		<path fill="#9EADB2" d="M160.524,121.475h-17.116c-0.93,0-1.684-0.754-1.684-1.684c0-0.93,0.754-1.684,1.684-1.684h17.116
			c0.93,0,1.684,0.754,1.684,1.684C162.208,120.721,161.454,121.475,160.524,121.475z"/>
	</g>
	<rect x="89.977" y="130.511" fill="#02526A" width="123.978" height="14"/>
	<rect x="89.977" y="286.346" opacity="0.5" fill="#ECECEC" width="123.979" height="12.881"/>
	<g opacity="0.2">
		<rect x="154.413" y="136.591" fill="#ECECEC" width="30.797" height="2.433"/>
		<path fill="#ECECEC" d="M186.183,139.023c0,0.537-0.436,0.973-0.973,0.973h-30.797c-0.537,0-0.973-0.436-0.973-0.973v-2.433
			c0-0.537,0.436-0.973,0.973-0.973h30.797c0.537,0,0.973,0.436,0.973,0.973V139.023z M155.386,138.05h28.851v-0.487h-28.851V138.05
			z"/>
	</g>
	<rect x="89.977" y="130.511" fill="#CED4D7" width="35.838" height="168.715"/>
	
		<line opacity="0.5" fill="none" stroke="#ECECEC" stroke-width="2.1" stroke-linecap="round" stroke-miterlimit="10" x1="99.51" y1="141.473" x2="116.628" y2="141.473"/>
	
		<line opacity="0.5" fill="none" stroke="#ECECEC" stroke-width="2.1" stroke-linecap="round" stroke-miterlimit="10" x1="99.51" y1="151.937" x2="113.048" y2="151.937"/>
	
		<line opacity="0.5" fill="none" stroke="#ECECEC" stroke-width="2.1" stroke-linecap="round" stroke-miterlimit="10" x1="99.51" y1="162.475" x2="114.32" y2="162.475"/>
	
		<line opacity="0.5" fill="none" stroke="#ECECEC" stroke-width="2.1" stroke-linecap="round" stroke-miterlimit="10" x1="99.51" y1="173.263" x2="116.628" y2="173.263"/>
	
		<line opacity="0.5" fill="none" stroke="#ECECEC" stroke-width="2.1" stroke-linecap="round" stroke-miterlimit="10" x1="99.51" y1="184.392" x2="111.186" y2="184.392"/>
	
		<line opacity="0.5" fill="none" stroke="#ECECEC" stroke-width="2.1" stroke-linecap="round" stroke-miterlimit="10" x1="99.51" y1="194.856" x2="113.048" y2="194.856"/>
	
		<line opacity="0.5" fill="none" stroke="#ECECEC" stroke-width="2.1" stroke-linecap="round" stroke-miterlimit="10" x1="99.51" y1="205.394" x2="114.32" y2="205.394"/>
	
		<line opacity="0.5" fill="none" stroke="#ECECEC" stroke-width="2.1" stroke-linecap="round" stroke-miterlimit="10" x1="99.51" y1="216.181" x2="116.628" y2="216.181"/>
	<g>
		<path opacity="0.5" fill="#ECECEC" d="M130.005,185.453c0,0.537,0.436,0.973,0.973,0.973h35.526c0.537,0,0.973-0.436,0.973-0.973
			v-8.46h-37.472V185.453z"/>
		<path fill="#ECECEC" d="M166.504,151.068h-35.526c-0.537,0-0.973,0.436-0.973,0.973v24.952h37.472v-24.952
			C167.477,151.504,167.041,151.068,166.504,151.068z"/>
	</g>
	<g>
		<path opacity="0.5" fill="#ECECEC" d="M172.146,185.453c0,0.537,0.436,0.973,0.973,0.973h35.526c0.537,0,0.973-0.436,0.973-0.973
			v-8.46h-37.472V185.453z"/>
		<path fill="#ECECEC" d="M208.645,151.068H173.12c-0.537,0-0.973,0.436-0.973,0.973v24.952h37.472v-24.952
			C209.618,151.504,209.183,151.068,208.645,151.068z"/>
	</g>
	<g>
		<path opacity="0.5" fill="#ECECEC" d="M130.005,227.134c0,0.537,0.436,0.973,0.973,0.973h35.526c0.537,0,0.973-0.436,0.973-0.973
			v-8.46h-37.472V227.134z"/>
		<path fill="#ECECEC" d="M166.504,192.749h-35.526c-0.537,0-0.973,0.436-0.973,0.973v24.952h37.472v-24.952
			C167.477,193.185,167.041,192.749,166.504,192.749z"/>
	</g>
	<g>
		<path opacity="0.5" fill="#ECECEC" d="M172.146,227.134c0,0.537,0.436,0.973,0.973,0.973h35.526c0.537,0,0.973-0.436,0.973-0.973
			v-8.46h-37.472V227.134z"/>
		<path fill="#ECECEC" d="M208.645,192.749H173.12c-0.537,0-0.973,0.436-0.973,0.973v24.952h37.472v-24.952
			C209.618,193.185,209.183,192.749,208.645,192.749z"/>
	</g>
	<g>
		<path opacity="0.5" fill="#ECECEC" d="M130.005,269.27c0,0.537,0.436,0.973,0.973,0.973h35.526c0.537,0,0.973-0.436,0.973-0.973
			v-8.46h-37.472V269.27z"/>
		<path fill="#ECECEC" d="M166.504,234.886h-35.526c-0.537,0-0.973,0.436-0.973,0.973v24.952h37.472v-24.952
			C167.477,235.321,167.041,234.886,166.504,234.886z"/>
	</g>
	<g>
		<path opacity="0.5" fill="#ECECEC" d="M172.146,269.27c0,0.537,0.436,0.973,0.973,0.973h35.526c0.537,0,0.973-0.436,0.973-0.973
			v-8.46h-37.472V269.27z"/>
		<path fill="#ECECEC" d="M208.645,234.886H173.12c-0.537,0-0.973,0.436-0.973,0.973v24.952h37.472v-24.952
			C209.618,235.321,209.183,234.886,208.645,234.886z"/>
	</g>
	<g>
		<path fill="#ECECEC" d="M166.504,276.566h-35.526c-0.537,0-0.973,0.436-0.973,0.973v8.806h37.472v-8.806
			C167.477,277.002,167.041,276.566,166.504,276.566z"/>
	</g>
	<g>
		<path fill="#ECECEC" d="M208.645,276.566H173.12c-0.537,0-0.973,0.436-0.973,0.973v8.806h37.472v-8.806
			C209.618,277.002,209.183,276.566,208.645,276.566z"/>
	</g>
</g>
<g opacity="0.15">
	<path fill="#78878C" d="M107.615,312.974c0,4.548-3.45,8.389-7.995,8.389H35.716c-4.547,0-8.334-3.841-8.334-8.389V177.886
		c0-4.546,3.787-8.373,8.334-8.373h63.903c4.546,0,7.996,3.827,7.996,8.373V312.974L107.615,312.974z"/>
</g>
<g>
	<g>
		<path fill="#78878C" d="M100.481,312.974c0,4.548-3.45,8.389-7.995,8.389H28.582c-4.547,0-8.334-3.841-8.334-8.389V177.886
			c0-4.546,3.787-8.373,8.334-8.373h63.903c4.546,0,7.996,3.827,7.996,8.373V312.974L100.481,312.974z"/>
	</g>
	<g>
		<path fill="#9EADB2" d="M60.534,312.951c-3.378,0-6.125-2.748-6.125-6.124c0-3.378,2.747-6.126,6.125-6.126
			c3.376,0,6.125,2.748,6.125,6.126C66.659,310.203,63.91,312.951,60.534,312.951z"/>
	</g>
	<rect x="27.787" y="197.514" fill="#FFFFFF" width="65.694" height="95.849"/>
	<rect x="27.787" y="184.591" fill="#02526A" width="65.694" height="12.923"/>
	<rect x="27.787" y="280.439" opacity="0.5" fill="#ECECEC" width="65.694" height="12.923"/>
	<g>
		<path opacity="0.5" fill="#ECECEC" d="M33.868,251.972c0,0.768,0.622,1.39,1.39,1.39h50.751c0.768,0,1.39-0.622,1.39-1.39v-12.085
			H33.868V251.972z"/>
		<path fill="#ECECEC" d="M86.009,202.851H35.258c-0.768,0-1.39,0.622-1.39,1.39v35.646h53.531v-35.646
			C87.399,203.474,86.777,202.851,86.009,202.851z"/>
	</g>
	<g>
		<path fill="#ECECEC" d="M86.009,260.687H35.258c-0.768,0-1.39,0.622-1.39,1.39v18.363h53.531v-18.363
			C87.399,261.309,86.777,260.687,86.009,260.687z"/>
	</g>
	<g opacity="0.2">
		<rect x="47.068" y="190.704" fill="#ECECEC" width="26.593" height="2.101"/>
		<path fill="#ECECEC" d="M74.501,192.805c0,0.464-0.376,0.84-0.84,0.84H47.068c-0.464,0-0.84-0.376-0.84-0.84v-2.101
			c0-0.464,0.376-0.84,0.84-0.84h26.593c0.464,0,0.84,0.376,0.84,0.84V192.805z M47.908,191.964h24.913v-0.42H47.908V191.964z"/>
	</g>
</g>
</svg>
