<?xml version="1.0" encoding="utf-8"?>
<!-- Generator: Adobe Illustrator 17.0.2, SVG Export Plug-In . SVG Version: 6.00 Build 0)  -->
<!DOCTYPE svg PUBLIC "-//W3C//DTD SVG 1.1//EN" "http://www.w3.org/Graphics/SVG/1.1/DTD/svg11.dtd">
<svg version="1.1" id="Layer_1" xmlns="http://www.w3.org/2000/svg" xmlns:xlink="http://www.w3.org/1999/xlink" x="0px" y="0px"
	 width="524.057px" height="329.401px" viewBox="0 0 524.057 329.401" enable-background="new 0 0 524.057 329.401"
	 xml:space="preserve">
<g>
	<path fill="#CED4D7" d="M503.494,227.103H163.46h-10.585v10.585v8.146v8.248c0,5.846,4.739,10.585,10.585,10.585h340.034
		c5.846,0,10.585-4.739,10.585-10.585v-8.248v-8.146v-10.585H503.494z"/>
	<path fill="#78878C" d="M163.459,227.103h340.034h10.585v-10.585V30.876v-8.248c0-5.846-4.739-10.585-10.585-10.585H163.459
		c-5.846,0-10.585,4.739-10.585,10.585v8.248v185.643v10.585H163.459z"/>
</g>
<g>
	<path fill="#CED4D7" d="M380.209,259.983c0-18.934-35.016-6.386-46.736-1.642c-11.72-4.744-46.736-17.269-46.736,1.665
		c0,32.841-20.21,60.696-20.21,60.696h63.156h7.579h63.156C400.419,320.701,380.209,292.824,380.209,259.983z"/>
	<path fill="#CED4D6" d="M382.609,280.388h-98.271c1.112-4.865,1.92-10.426,2.223-15.291h93.825
		C380.689,269.963,381.498,275.523,382.609,280.388z"/>
	<rect x="261.539" y="313.056" fill="#CED4D7" width="143.876" height="7.646"/>
	<path opacity="0.15" fill="#657275" d="M382.609,280.388h-98.271c1.112-4.865,1.92-10.426,2.223-15.291h93.825
		C380.689,269.963,381.498,275.523,382.609,280.388z"/>
	<rect x="170.487" y="30.17" fill="#02526A" width="178.861" height="20.852"/>
	<rect x="349.348" y="30.17" fill="#9EADB3" width="147.118" height="20.852"/>
	<rect x="261.539" y="313.056" fill="#9EADB2" width="143.876" height="7.646"/>
</g>
<g>
	<rect x="170.487" y="51.021" fill="#FFFFFF" width="325.979" height="158.472"/>
	<g opacity="0.2">
		<rect x="180.471" y="38.858" fill="#ECECEC" width="43.996" height="3.475"/>
		<path fill="#ECECEC" d="M225.857,42.333c0,0.768-0.622,1.39-1.39,1.39h-43.996c-0.768,0-1.39-0.622-1.39-1.39v-3.475
			c0-0.768,0.622-1.39,1.39-1.39h43.996c0.768,0,1.39,0.622,1.39,1.39V42.333z M181.861,40.943h41.216v-0.695h-41.216V40.943z"/>
	</g>
	<rect x="349.348" y="51.021" fill="#ECECEC" width="147.118" height="158.472"/>
	<rect x="448.168" y="188.641" opacity="0.5" fill="#CED4D7" width="48.298" height="20.852"/>
	<rect x="398.758" y="188.641" opacity="0.5" fill="#CED4D7" width="48.298" height="20.852"/>
	<rect x="349.348" y="188.641" opacity="0.5" fill="#CED4D7" width="48.298" height="20.852"/>
	
		<line opacity="0.2" fill="none" stroke="#ECECEC" stroke-width="3" stroke-linecap="round" stroke-linejoin="round" stroke-miterlimit="10" x1="265.349" y1="42.333" x2="284.338" y2="42.333"/>
	
		<line opacity="0.2" fill="none" stroke="#ECECEC" stroke-width="3" stroke-linecap="round" stroke-linejoin="round" stroke-miterlimit="10" x1="292.659" y1="42.333" x2="311.648" y2="42.333"/>
	
		<line opacity="0.2" fill="none" stroke="#ECECEC" stroke-width="3" stroke-linecap="round" stroke-linejoin="round" stroke-miterlimit="10" x1="319.969" y1="42.333" x2="338.958" y2="42.333"/>
	<path opacity="0.5" fill="#FFFFFF" d="M415.902,64.845h-50.751c-0.768,0-1.39,0.622-1.39,1.39v35.646v12.085
		c0,0.768,0.622,1.39,1.39,1.39h50.751c0.768,0,1.39-0.622,1.39-1.39V101.88V66.235C417.292,65.467,416.67,64.845,415.902,64.845z"
		/>
	<path opacity="0.5" fill="#FFFFFF" d="M481.75,64.845h-50.751c-0.768,0-1.39,0.622-1.39,1.39v35.646v12.085
		c0,0.768,0.622,1.39,1.39,1.39h50.751c0.768,0,1.39-0.622,1.39-1.39V101.88V66.235C483.14,65.467,482.518,64.845,481.75,64.845z"/>
	<path opacity="0.5" fill="#FFFFFF" d="M415.902,124.389h-50.751c-0.768,0-1.39,0.622-1.39,1.39v35.646v12.085
		c0,0.768,0.622,1.39,1.39,1.39h50.751c0.768,0,1.39-0.622,1.39-1.39v-12.085v-35.646
		C417.292,125.011,416.67,124.389,415.902,124.389z"/>
	<path opacity="0.5" fill="#FFFFFF" d="M481.75,124.389h-50.751c-0.768,0-1.39,0.622-1.39,1.39v35.646v12.085
		c0,0.768,0.622,1.39,1.39,1.39h50.751c0.768,0,1.39-0.622,1.39-1.39v-12.085v-35.646
		C483.14,125.011,482.518,124.389,481.75,124.389z"/>
	<g>
		<defs>
			<rect id="SVGID_1_" x="170.487" y="51.021" width="178.861" height="158.472"/>
		</defs>
		<clipPath id="SVGID_2_">
			<use xlink:href="#SVGID_1_"  overflow="visible"/>
		</clipPath>
		<g opacity="0.5" clip-path="url(#SVGID_2_)">
			
				<line fill="none" stroke="#CED4D7" stroke-width="3" stroke-linecap="round" stroke-miterlimit="10" x1="221.661" y1="48.016" x2="289.806" y2="212.126"/>
			
				<line fill="none" stroke="#CED4D7" stroke-width="3" stroke-linecap="round" stroke-miterlimit="10" x1="168.064" y1="149.645" x2="352.847" y2="100.848"/>
			
				<line fill="none" stroke="#CED4D7" stroke-width="3" stroke-linecap="round" stroke-miterlimit="10" x1="293.89" y1="48.016" x2="309.714" y2="209.875"/>
			<path fill="none" stroke="#CED4D7" stroke-width="3" stroke-linecap="round" stroke-miterlimit="10" d="M166.277,90.109
				c0,0,37.773,19.914,85.756,3.318c49.503-17.123,62.786-52.832,62.786-52.832"/>
			<path fill="none" stroke="#CED4D7" stroke-width="3" stroke-linecap="round" stroke-miterlimit="10" d="M275.206,211.414
				c0,0-22.379-36.367-72.129-46.502c-51.327-10.456-80.934,13.522-80.934,13.522"/>
		</g>
		<g opacity="0.5" clip-path="url(#SVGID_2_)">
			<path fill="none" stroke="#CED4D7" stroke-width="3" stroke-linecap="round" stroke-miterlimit="10" d="M260.455,104.466
				c-2.319,0-4.199,1.88-4.199,4.199c0,4.009,4.199,9.238,4.199,9.238s4.199-5.229,4.199-9.238
				C264.654,106.346,262.774,104.466,260.455,104.466z"/>
		</g>
	</g>
</g>
<g>
	<g opacity="0.15">
		<path fill="#78878C" d="M135.937,165.087v99.58h93.915v-90.315c0-5.095-4.17-9.265-9.265-9.265H135.937z"/>
	</g>
	<g>
		<g>
			<path fill="#657275" d="M220.832,311.433c0,5.097-4.17,9.268-9.268,9.268H17.111c-5.097,0-9.268-4.17-9.268-9.268V174.297
				c0-5.097,4.17-9.268,9.268-9.268h194.454c5.097,0,9.268,4.17,9.268,9.268L220.832,311.433L220.832,311.433z"/>
		</g>
		<rect x="29.98" y="180.876" fill="#FFFFFF" width="168.715" height="123.979"/>
		<g>
			<path fill="#9EADB2" d="M22.342,242.865c0,2.363-1.916,4.279-4.279,4.279l0,0c-2.363,0-4.279-1.916-4.279-4.279l0,0
				c0-2.363,1.916-4.279,4.279-4.279l0,0C20.427,238.586,22.342,240.502,22.342,242.865L22.342,242.865z"/>
		</g>
		<g>
			<path fill="#9EADB2" d="M207.732,251.423v-17.116c0-0.93,0.754-1.684,1.684-1.684s1.684,0.754,1.684,1.684v17.116
				c0,0.93-0.754,1.684-1.684,1.684S207.732,252.353,207.732,251.423z"/>
		</g>
		<rect x="29.98" y="180.877" fill="#02526A" width="168.715" height="14"/>
		<rect x="117.331" y="180.876" fill="#9EADB3" width="81.365" height="14"/>
		<g>
			<rect x="29.98" y="195.164" fill="#FFFFFF" width="168.715" height="110.93"/>
			<g opacity="0.2">
				<rect x="36.969" y="186.65" fill="#ECECEC" width="30.797" height="2.433"/>
				<path fill="#ECECEC" d="M68.739,189.082c0,0.537-0.436,0.973-0.973,0.973H36.969c-0.537,0-0.973-0.436-0.973-0.973v-2.433
					c0-0.537,0.436-0.973,0.973-0.973h30.797c0.537,0,0.973,0.436,0.973,0.973V189.082z M37.942,188.109h28.851v-0.487H37.942
					V188.109z"/>
			</g>
			<rect x="117.331" y="194.877" fill="#ECECEC" width="81.365" height="111.217"/>
			<rect x="171.984" y="294.562" opacity="0.5" fill="#CED4D7" width="26.712" height="11.532"/>
			<rect x="144.658" y="294.562" opacity="0.5" fill="#CED4D7" width="26.712" height="11.532"/>
			<rect x="117.331" y="294.562" opacity="0.5" fill="#CED4D7" width="26.712" height="11.532"/>
			<path opacity="0.5" fill="#FFFFFF" d="M154.139,202.522h-28.068c-0.425,0-0.769,0.344-0.769,0.769v19.714v6.684
				c0,0.425,0.344,0.769,0.769,0.769h28.068c0.425,0,0.769-0.344,0.769-0.769v-6.684v-19.714
				C154.908,202.866,154.564,202.522,154.139,202.522z"/>
			<path opacity="0.5" fill="#FFFFFF" d="M190.557,202.522h-28.068c-0.425,0-0.769,0.344-0.769,0.769v19.714v6.684
				c0,0.425,0.344,0.769,0.769,0.769h28.068c0.425,0,0.769-0.344,0.769-0.769v-6.684v-19.714
				C191.326,202.866,190.981,202.522,190.557,202.522z"/>
			<path opacity="0.5" fill="#FFFFFF" d="M154.139,235.453h-28.068c-0.425,0-0.769,0.344-0.769,0.769v19.714v6.684
				c0,0.425,0.344,0.769,0.769,0.769h28.068c0.425,0,0.769-0.344,0.769-0.769v-6.684v-19.714
				C154.908,235.797,154.564,235.453,154.139,235.453z"/>
			<path opacity="0.5" fill="#FFFFFF" d="M190.557,235.453h-28.068c-0.425,0-0.769,0.344-0.769,0.769v19.714v6.684
				c0,0.425,0.344,0.769,0.769,0.769h28.068c0.425,0,0.769-0.344,0.769-0.769v-6.684v-19.714
				C191.326,235.797,190.981,235.453,190.557,235.453z"/>
			<g>
				<defs>
					<rect id="SVGID_3_" x="29.98" y="194.877" width="87.351" height="111.217"/>
				</defs>
				<clipPath id="SVGID_4_">
					<use xlink:href="#SVGID_3_"  overflow="visible"/>
				</clipPath>
				<g opacity="0.5" clip-path="url(#SVGID_4_)">
					
						<line fill="none" stroke="#CED4D7" stroke-width="2.1" stroke-linecap="round" stroke-miterlimit="10" x1="45.786" y1="193.06" x2="93.488" y2="307.938"/>
					
						<line fill="none" stroke="#CED4D7" stroke-width="2.1" stroke-linecap="round" stroke-miterlimit="10" x1="8.268" y1="264.2" x2="137.616" y2="230.043"/>
					
						<line fill="none" stroke="#CED4D7" stroke-width="2.1" stroke-linecap="round" stroke-miterlimit="10" x1="96.346" y1="193.06" x2="107.423" y2="306.362"/>
					<path fill="none" stroke="#CED4D7" stroke-width="2.1" stroke-linecap="round" stroke-miterlimit="10" d="M7.017,222.526
						c0,0,26.441,13.94,60.029,2.323c34.652-11.986,43.95-36.982,43.95-36.982"/>
					<path fill="none" stroke="#CED4D7" stroke-width="2.1" stroke-linecap="round" stroke-miterlimit="10" d="M83.267,307.439
						c0,0-15.666-25.457-50.49-32.552c-35.929-7.319-56.654,9.465-56.654,9.465"/>
				</g>
				<g opacity="0.5" clip-path="url(#SVGID_4_)">
					<path fill="none" stroke="#CED4D7" stroke-width="2.1" stroke-linecap="round" stroke-miterlimit="10" d="M72.942,232.575
						c-1.624,0-2.939,1.316-2.939,2.939c0,2.806,2.939,6.467,2.939,6.467s2.939-3.66,2.939-6.467
						C75.881,233.891,74.565,232.575,72.942,232.575z"/>
				</g>
			</g>
			<g>
				<defs>
					<rect id="SVGID_5_" x="121.662" y="266.995" width="74.625" height="27.567"/>
				</defs>
				<clipPath id="SVGID_6_">
					<use xlink:href="#SVGID_5_"  overflow="visible"/>
				</clipPath>
				<path opacity="0.5" clip-path="url(#SVGID_6_)" fill="#FFFFFF" d="M154.139,268.421h-28.068c-0.425,0-0.769,0.344-0.769,0.769
					v19.714v6.684c0,0.425,0.344,0.769,0.769,0.769h28.068c0.425,0,0.769-0.344,0.769-0.769v-6.684V269.19
					C154.908,268.765,154.564,268.421,154.139,268.421z"/>
				<path opacity="0.5" clip-path="url(#SVGID_6_)" fill="#FFFFFF" d="M190.557,268.421h-28.068c-0.425,0-0.769,0.344-0.769,0.769
					v19.714v6.684c0,0.425,0.344,0.769,0.769,0.769h28.068c0.425,0,0.769-0.344,0.769-0.769v-6.684V269.19
					C191.326,268.765,190.981,268.421,190.557,268.421z"/>
			</g>
		</g>
	</g>
</g>
<g opacity="0.15">
	<path fill="#78878C" d="M267.723,169.135v95.924l55.725,0.041v-84.503c0-6.304-5.157-11.461-11.461-11.461H267.723z"/>
</g>
<g opacity="0.15">
	<path fill="#78878C" d="M320.2,265.305h-60.332v55.396h51.067c5.095,0,9.265-4.17,9.265-9.265V265.305z"/>
</g>
<g>
	<g>
		<path fill="#78878C" d="M314.96,312.312c0,4.548-3.45,8.389-7.995,8.389h-63.903c-4.547,0-8.334-3.841-8.334-8.389V177.224
			c0-4.546,3.787-8.373,8.334-8.373h63.903c4.546,0,7.996,3.827,7.996,8.373V312.312L314.96,312.312z"/>
	</g>
	<g>
		<path fill="#9EADB2" d="M275.013,312.289c-3.378,0-6.125-2.748-6.125-6.124c0-3.378,2.747-6.126,6.125-6.126
			c3.376,0,6.125,2.748,6.125,6.126C281.138,309.541,278.389,312.289,275.013,312.289z"/>
	</g>
	<rect x="242.266" y="196.852" fill="#FFFFFF" width="65.694" height="95.849"/>
	<rect x="242.266" y="183.929" fill="#9EADB3" width="65.694" height="12.923"/>
	<rect x="242.266" y="196.852" fill="#ECECEC" width="65.694" height="95.849"/>
	<rect x="286.393" y="283.39" opacity="0.5" fill="#CED4D7" width="21.567" height="9.311"/>
	<rect x="264.329" y="283.39" opacity="0.5" fill="#CED4D7" width="21.567" height="9.311"/>
	<rect x="242.266" y="283.39" opacity="0.5" fill="#CED4D7" width="21.567" height="9.311"/>
	<path opacity="0.5" fill="#FFFFFF" d="M271.482,200.618h-23.701c-0.359,0-0.649,0.291-0.649,0.649v16.646v5.644
		c0,0.359,0.291,0.649,0.649,0.649h23.701c0.358,0,0.649-0.291,0.649-0.649v-5.644v-16.646
		C272.132,200.908,271.841,200.618,271.482,200.618z"/>
	<path opacity="0.5" fill="#FFFFFF" d="M302.233,200.618h-23.701c-0.359,0-0.649,0.291-0.649,0.649v16.646v5.644
		c0,0.359,0.291,0.649,0.649,0.649h23.701c0.358,0,0.649-0.291,0.649-0.649v-5.644v-16.646
		C302.883,200.908,302.592,200.618,302.233,200.618z"/>
	<path opacity="0.5" fill="#FFFFFF" d="M271.482,228.425h-23.701c-0.359,0-0.649,0.291-0.649,0.649v16.646v5.644
		c0,0.359,0.291,0.649,0.649,0.649h23.701c0.358,0,0.649-0.291,0.649-0.649v-5.644v-16.646
		C272.132,228.715,271.841,228.425,271.482,228.425z"/>
	<path opacity="0.5" fill="#FFFFFF" d="M302.233,228.425h-23.701c-0.359,0-0.649,0.291-0.649,0.649v16.646v5.644
		c0,0.359,0.291,0.649,0.649,0.649h23.701c0.358,0,0.649-0.291,0.649-0.649v-5.644v-16.646
		C302.883,228.715,302.592,228.425,302.233,228.425z"/>
	<path opacity="0.5" fill="#FFFFFF" d="M271.482,255.985h-23.701c-0.359,0-0.649,0.291-0.649,0.649v16.646v5.644
		c0,0.359,0.291,0.649,0.649,0.649h23.701c0.358,0,0.649-0.291,0.649-0.649v-5.644v-16.646
		C272.132,256.275,271.841,255.985,271.482,255.985z"/>
	<path opacity="0.5" fill="#FFFFFF" d="M302.233,255.985h-23.701c-0.359,0-0.649,0.291-0.649,0.649v16.646v5.644
		c0,0.359,0.291,0.649,0.649,0.649h23.701c0.358,0,0.649-0.291,0.649-0.649v-5.644v-16.646
		C302.883,256.275,302.592,255.985,302.233,255.985z"/>
</g>
</svg>
