<?xml version="1.0" encoding="utf-8"?>
<!-- Generator: Adobe Illustrator 17.0.2, SVG Export Plug-In . SVG Version: 6.00 Build 0)  -->
<!DOCTYPE svg PUBLIC "-//W3C//DTD SVG 1.1//EN" "http://www.w3.org/Graphics/SVG/1.1/DTD/svg11.dtd">
<svg version="1.1" id="Layer_1" xmlns="http://www.w3.org/2000/svg" xmlns:xlink="http://www.w3.org/1999/xlink" x="0px" y="0px"
	 width="524.057px" height="329.401px" viewBox="0 0 524.057 329.401" enable-background="new 0 0 524.057 329.401"
	 xml:space="preserve">
<g>
	<path fill="#CED4D7" d="M502.213,227.292H162.179h-10.585v10.585v8.146v8.248c0,5.846,4.739,10.585,10.585,10.585h340.034
		c5.846,0,10.585-4.739,10.585-10.585v-8.248v-8.146v-10.585H502.213z"/>
	<path fill="#78878C" d="M162.179,227.292h340.034h10.585v-10.585V31.065v-8.248c0-5.846-4.739-10.585-10.585-10.585H162.179
		c-5.846,0-10.585,4.739-10.585,10.585v8.248v185.643v10.585H162.179z"/>
</g>
<g>
	<path fill="#CED4D7" d="M378.928,260.172c0-18.934-35.016-6.386-46.736-1.642c-11.72-4.744-46.736-17.269-46.736,1.665
		c0,32.841-20.21,60.696-20.21,60.696h63.156h7.579h63.156C399.138,320.89,378.928,293.013,378.928,260.172z"/>
	<path fill="#CED4D6" d="M381.328,280.577h-98.271c1.112-4.865,1.92-10.426,2.223-15.291h93.825
		C379.408,270.151,380.217,275.712,381.328,280.577z"/>
	<rect x="260.258" y="313.245" fill="#CED4D7" width="143.876" height="7.646"/>
	<path opacity="0.15" fill="#657275" d="M381.328,280.577h-98.271c1.112-4.865,1.92-10.426,2.223-15.291h93.825
		C379.408,270.151,380.217,275.712,381.328,280.577z"/>
	<rect x="169.206" y="30.359" fill="#02526A" width="325.979" height="20.852"/>
	<rect x="260.258" y="313.245" fill="#9EADB2" width="143.876" height="7.646"/>
</g>
<g>
	<rect x="236.344" y="51.21" fill="#FFFFFF" width="258.841" height="158.472"/>
	<g opacity="0.2">
		<rect x="179.19" y="39.047" fill="#ECECEC" width="43.996" height="3.475"/>
		<path fill="#ECECEC" d="M224.576,42.522c0,0.768-0.622,1.39-1.39,1.39H179.19c-0.768,0-1.39-0.622-1.39-1.39v-3.475
			c0-0.768,0.622-1.39,1.39-1.39h43.996c0.768,0,1.39,0.622,1.39,1.39V42.522z M180.58,41.132h41.216v-0.695H180.58V41.132z"/>
	</g>
	<rect x="447.44" y="51.21" fill="#ECECEC" width="47.745" height="158.472"/>
	<rect x="447.44" y="51.21" opacity="0.5" fill="#CED4D7" width="47.745" height="32.931"/>
	<rect x="169.206" y="51.21" fill="#CED4D7" width="79.707" height="158.472"/>
	
		<line opacity="0.5" fill="none" stroke="#ECECEC" stroke-width="3" stroke-linecap="round" stroke-miterlimit="10" x1="195.123" y1="66.035" x2="232.302" y2="66.035"/>
	
		<line opacity="0.5" fill="none" stroke="#ECECEC" stroke-width="3" stroke-linecap="round" stroke-miterlimit="10" x1="195.123" y1="80.983" x2="227.188" y2="80.983"/>
	
		<line opacity="0.5" fill="none" stroke="#ECECEC" stroke-width="3" stroke-linecap="round" stroke-miterlimit="10" x1="195.123" y1="96.037" x2="229.005" y2="96.037"/>
	
		<line opacity="0.5" fill="none" stroke="#CED4D7" stroke-width="3" stroke-linecap="round" stroke-miterlimit="10" x1="456.462" y1="95.468" x2="482.491" y2="95.468"/>
	
		<line opacity="0.5" fill="none" stroke="#CED4D7" stroke-width="3" stroke-linecap="round" stroke-miterlimit="10" x1="456.462" y1="110.572" x2="476.157" y2="110.572"/>
	
		<line opacity="0.5" fill="none" stroke="#CED4D7" stroke-width="3" stroke-linecap="round" stroke-miterlimit="10" x1="456.462" y1="125.676" x2="478.407" y2="125.676"/>
	
		<line opacity="0.5" fill="none" stroke="#CED4D7" stroke-width="3" stroke-linecap="round" stroke-miterlimit="10" x1="456.462" y1="103.02" x2="476.157" y2="103.02"/>
	
		<line opacity="0.5" fill="none" stroke="#CED4D7" stroke-width="3" stroke-linecap="round" stroke-miterlimit="10" x1="456.462" y1="118.124" x2="478.407" y2="118.124"/>
	
		<line opacity="0.5" fill="none" stroke="#CED4D7" stroke-width="3" stroke-linecap="round" stroke-miterlimit="10" x1="456.462" y1="133.228" x2="482.491" y2="133.228"/>
	
		<line opacity="0.5" fill="none" stroke="#CED4D7" stroke-width="3" stroke-linecap="round" stroke-miterlimit="10" x1="456.462" y1="148.331" x2="476.157" y2="148.331"/>
	
		<line opacity="0.5" fill="none" stroke="#CED4D7" stroke-width="3" stroke-linecap="round" stroke-miterlimit="10" x1="456.462" y1="163.435" x2="478.407" y2="163.435"/>
	
		<line opacity="0.5" fill="none" stroke="#CED4D7" stroke-width="3" stroke-linecap="round" stroke-miterlimit="10" x1="456.462" y1="140.78" x2="476.157" y2="140.78"/>
	
		<line opacity="0.5" fill="none" stroke="#CED4D7" stroke-width="3" stroke-linecap="round" stroke-miterlimit="10" x1="456.462" y1="155.883" x2="478.407" y2="155.883"/>
	
		<line opacity="0.5" fill="none" stroke="#ECECEC" stroke-width="3" stroke-linecap="round" stroke-miterlimit="10" x1="195.123" y1="111.448" x2="232.302" y2="111.448"/>
	<circle opacity="0.5" fill="#ECECEC" cx="182.862" cy="66.035" r="4.376"/>
	<polygon opacity="0.5" fill="#ECECEC" points="182.862,75.352 184.479,78.628 188.094,79.153 185.478,81.703 186.096,85.304 
		182.862,83.604 179.628,85.304 180.246,81.703 177.63,79.153 181.245,78.628 	"/>
	<g opacity="0.5">
		<path fill="#ECECEC" d="M186.712,93.11c-0.895-0.822-2.346-0.822-3.242,0l-0.608,0.558l-0.608-0.558
			c-0.895-0.822-2.346-0.822-3.242,0c-1.007,0.924-1.007,2.423,0,3.347l3.85,3.533l3.85-3.533
			C187.719,95.533,187.719,94.034,186.712,93.11z"/>
	</g>
	<g>
		<path opacity="0.5" fill="#ECECEC" d="M258.24,114.155c0,0.768,0.622,1.39,1.39,1.39h50.751c0.768,0,1.39-0.622,1.39-1.39v-12.085
			H258.24V114.155z"/>
		<path fill="#ECECEC" d="M310.381,65.034H259.63c-0.768,0-1.39,0.622-1.39,1.39v35.646h53.531V66.424
			C311.771,65.656,311.149,65.034,310.381,65.034z"/>
	</g>
	<g>
		<path opacity="0.5" fill="#ECECEC" d="M321.301,114.155c0,0.768,0.622,1.39,1.39,1.39h50.751c0.768,0,1.39-0.622,1.39-1.39
			v-12.085h-53.531V114.155z"/>
		<path fill="#ECECEC" d="M373.443,65.034h-50.751c-0.768,0-1.39,0.622-1.39,1.39v35.646h53.531V66.424
			C374.833,65.656,374.21,65.034,373.443,65.034z"/>
	</g>
	<g>
		<path opacity="0.5" fill="#ECECEC" d="M384.363,114.155c0,0.768,0.622,1.39,1.39,1.39h50.751c0.768,0,1.39-0.622,1.39-1.39
			v-12.085h-53.531V114.155z"/>
		<path fill="#ECECEC" d="M436.504,65.034h-50.751c-0.768,0-1.39,0.622-1.39,1.39v35.646h53.531V66.424
			C437.894,65.656,437.272,65.034,436.504,65.034z"/>
	</g>
	<g>
		<path opacity="0.5" fill="#ECECEC" d="M258.24,173.699c0,0.768,0.622,1.39,1.39,1.39h50.751c0.768,0,1.39-0.622,1.39-1.39v-12.085
			H258.24V173.699z"/>
		<path fill="#ECECEC" d="M310.381,124.578H259.63c-0.768,0-1.39,0.622-1.39,1.39v35.646h53.531v-35.646
			C311.771,125.2,311.149,124.578,310.381,124.578z"/>
	</g>
	<g>
		<path opacity="0.5" fill="#ECECEC" d="M321.301,173.699c0,0.768,0.622,1.39,1.39,1.39h50.751c0.768,0,1.39-0.622,1.39-1.39
			v-12.085h-53.531V173.699z"/>
		<path fill="#ECECEC" d="M373.443,124.578h-50.751c-0.768,0-1.39,0.622-1.39,1.39v35.646h53.531v-35.646
			C374.833,125.2,374.21,124.578,373.443,124.578z"/>
	</g>
	<g>
		<path opacity="0.5" fill="#ECECEC" d="M384.363,173.699c0,0.768,0.622,1.39,1.39,1.39h50.751c0.768,0,1.39-0.622,1.39-1.39
			v-12.085h-53.531V173.699z"/>
		<path fill="#ECECEC" d="M436.504,124.578h-50.751c-0.768,0-1.39,0.622-1.39,1.39v35.646h53.531v-35.646
			C437.894,125.2,437.272,124.578,436.504,124.578z"/>
	</g>
	<rect x="169.206" y="189.473" fill="#9EADB3" width="325.979" height="20.209"/>
	<g opacity="0.5">
		
			<line fill="none" stroke="#ECECEC" stroke-width="3" stroke-linecap="round" stroke-miterlimit="10" x1="261.654" y1="199.577" x2="434.48" y2="199.577"/>
		<circle fill="#ECECEC" cx="434.48" cy="199.577" r="3.414"/>
	</g>
	
		<line fill="none" stroke="#ECECEC" stroke-width="3" stroke-linecap="round" stroke-miterlimit="10" x1="259.645" y1="199.577" x2="313.969" y2="199.577"/>
	<circle fill="#ECECEC" cx="261.654" cy="199.577" r="3.414"/>
</g>
<g opacity="0.15">
	<path fill="#78878C" d="M149.96,107.9v157.23h93.915V117.165c0-5.095-4.17-9.265-9.265-9.265H149.96z"/>
</g>
<g>
	<g>
		<path fill="#657275" d="M227.783,107.901c5.097,0,9.268,4.17,9.268,9.268v194.453c0,5.097-4.17,9.268-9.268,9.268H90.646
			c-5.097,0-9.268-4.17-9.268-9.268V117.168c0-5.097,4.17-9.268,9.268-9.268L227.783,107.901L227.783,107.901z"/>
	</g>
	<rect x="97.225" y="130.037" fill="#FFFFFF" width="123.979" height="168.715"/>
	<g>
		<path fill="#9EADB2" d="M159.215,306.391c2.363,0,4.279,1.916,4.279,4.279l0,0c0,2.363-1.916,4.279-4.279,4.279l0,0
			c-2.363,0-4.279-1.916-4.279-4.279l0,0C154.935,308.306,156.851,306.391,159.215,306.391L159.215,306.391z"/>
	</g>
	<g>
		<path fill="#9EADB2" d="M167.773,121.001h-17.116c-0.93,0-1.684-0.754-1.684-1.684c0-0.93,0.754-1.684,1.684-1.684h17.116
			c0.93,0,1.684,0.754,1.684,1.684C169.457,120.247,168.702,121.001,167.773,121.001z"/>
	</g>
	<rect x="97.226" y="130.038" fill="#02526A" width="123.978" height="14"/>
	<g opacity="0.2">
		<rect x="102.822" y="135.927" fill="#ECECEC" width="30.797" height="2.433"/>
		<path fill="#ECECEC" d="M134.592,138.36c0,0.537-0.436,0.973-0.973,0.973h-30.797c-0.537,0-0.973-0.436-0.973-0.973v-2.433
			c0-0.537,0.436-0.973,0.973-0.973h30.797c0.537,0,0.973,0.436,0.973,0.973V138.36z M103.795,137.386h28.851V136.9h-28.851V137.386
			z"/>
	</g>
	<rect x="187.782" y="144.038" fill="#ECECEC" width="33.422" height="154.988"/>
	<rect x="187.782" y="144.441" opacity="0.5" fill="#CED4D7" width="33.422" height="23.051"/>
	
		<line opacity="0.5" fill="none" stroke="#CED4D7" stroke-width="2.1" stroke-linecap="round" stroke-miterlimit="10" x1="194.097" y1="175.422" x2="212.317" y2="175.422"/>
	
		<line opacity="0.5" fill="none" stroke="#CED4D7" stroke-width="2.1" stroke-linecap="round" stroke-miterlimit="10" x1="194.097" y1="185.995" x2="207.884" y2="185.995"/>
	
		<line opacity="0.5" fill="none" stroke="#CED4D7" stroke-width="2.1" stroke-linecap="round" stroke-miterlimit="10" x1="194.097" y1="196.567" x2="209.459" y2="196.567"/>
	
		<line opacity="0.5" fill="none" stroke="#CED4D7" stroke-width="2.1" stroke-linecap="round" stroke-miterlimit="10" x1="194.097" y1="180.708" x2="207.884" y2="180.708"/>
	
		<line opacity="0.5" fill="none" stroke="#CED4D7" stroke-width="2.1" stroke-linecap="round" stroke-miterlimit="10" x1="194.097" y1="191.281" x2="209.459" y2="191.281"/>
	
		<line opacity="0.5" fill="none" stroke="#CED4D7" stroke-width="2.1" stroke-linecap="round" stroke-miterlimit="10" x1="194.097" y1="201.854" x2="212.317" y2="201.854"/>
	
		<line opacity="0.5" fill="none" stroke="#CED4D7" stroke-width="2.1" stroke-linecap="round" stroke-miterlimit="10" x1="194.097" y1="212.426" x2="207.884" y2="212.426"/>
	
		<line opacity="0.5" fill="none" stroke="#CED4D7" stroke-width="2.1" stroke-linecap="round" stroke-miterlimit="10" x1="194.097" y1="222.999" x2="209.459" y2="222.999"/>
	
		<line opacity="0.5" fill="none" stroke="#CED4D7" stroke-width="2.1" stroke-linecap="round" stroke-miterlimit="10" x1="194.097" y1="207.14" x2="207.884" y2="207.14"/>
	
		<line opacity="0.5" fill="none" stroke="#CED4D7" stroke-width="2.1" stroke-linecap="round" stroke-miterlimit="10" x1="194.097" y1="217.712" x2="209.459" y2="217.712"/>
	<g>
		<path opacity="0.5" fill="#ECECEC" d="M101.487,188.503c0,0.537,0.436,0.973,0.973,0.973h35.526c0.537,0,0.973-0.436,0.973-0.973
			v-8.46h-37.472V188.503z"/>
		<path fill="#ECECEC" d="M137.985,154.118H102.46c-0.537,0-0.973,0.436-0.973,0.973v24.952h37.472v-24.952
			C138.958,154.553,138.523,154.118,137.985,154.118z"/>
	</g>
	<g>
		<path opacity="0.5" fill="#ECECEC" d="M145.63,188.503c0,0.537,0.436,0.973,0.973,0.973h35.526c0.537,0,0.973-0.436,0.973-0.973
			v-8.46H145.63V188.503z"/>
		<path fill="#ECECEC" d="M182.128,154.118h-35.526c-0.537,0-0.973,0.436-0.973,0.973v24.952h37.472v-24.952
			C183.102,154.553,182.666,154.118,182.128,154.118z"/>
	</g>
	<g>
		<path opacity="0.5" fill="#ECECEC" d="M101.487,231.184c0,0.537,0.436,0.973,0.973,0.973h35.526c0.537,0,0.973-0.436,0.973-0.973
			v-8.46h-37.472V231.184z"/>
		<path fill="#ECECEC" d="M137.985,196.8H102.46c-0.537,0-0.973,0.436-0.973,0.973v24.952h37.472v-24.952
			C138.958,197.235,138.523,196.8,137.985,196.8z"/>
	</g>
	<g>
		<path opacity="0.5" fill="#ECECEC" d="M145.63,231.184c0,0.537,0.436,0.973,0.973,0.973h35.526c0.537,0,0.973-0.436,0.973-0.973
			v-8.46H145.63V231.184z"/>
		<path fill="#ECECEC" d="M182.128,196.8h-35.526c-0.537,0-0.973,0.436-0.973,0.973v24.952h37.472v-24.952
			C183.102,197.235,182.666,196.8,182.128,196.8z"/>
	</g>
	<g>
		<path opacity="0.5" fill="#ECECEC" d="M101.487,273.238c0,0.537,0.436,0.973,0.973,0.973h35.526c0.537,0,0.973-0.436,0.973-0.973
			v-8.46h-37.472V273.238z"/>
		<path fill="#ECECEC" d="M137.985,238.853H102.46c-0.537,0-0.973,0.436-0.973,0.973v24.952h37.472v-24.952
			C138.958,239.289,138.523,238.853,137.985,238.853z"/>
	</g>
	<g>
		<path opacity="0.5" fill="#ECECEC" d="M145.63,273.238c0,0.537,0.436,0.973,0.973,0.973h35.526c0.537,0,0.973-0.436,0.973-0.973
			v-8.46H145.63V273.238z"/>
		<path fill="#ECECEC" d="M182.128,238.853h-35.526c-0.537,0-0.973,0.436-0.973,0.973v24.952h37.472v-24.952
			C183.102,239.289,182.666,238.853,182.128,238.853z"/>
	</g>
	<rect x="97.225" y="284.88" fill="#9EADB3" width="123.978" height="14.146"/>
	<g opacity="0.5">
		
			<line fill="none" stroke="#ECECEC" stroke-width="2.1" stroke-linecap="round" stroke-miterlimit="10" x1="106.737" y1="291.953" x2="210.936" y2="291.953"/>
		<circle fill="#ECECEC" cx="210.704" cy="291.953" r="2.39"/>
	</g>
	
		<line fill="none" stroke="#ECECEC" stroke-width="2.1" stroke-linecap="round" stroke-miterlimit="10" x1="105.77" y1="291.953" x2="143.797" y2="291.953"/>
	<circle fill="#ECECEC" cx="107.176" cy="291.953" r="2.39"/>
</g>
<g>
	<g opacity="0.15">
		<path fill="#78878C" d="M27.353,320.89c-4.548,0-8.389-3.45-8.389-7.995v-63.903c0-4.547,3.841-8.334,8.389-8.334h135.088
			c4.546,0,8.373,3.787,8.373,8.334v63.903c0,4.546-3.827,7.996-8.373,7.996H27.353L27.353,320.89z"/>
	</g>
	<g>
		<path fill="#78878C" d="M20.348,320.89c-4.548,0-8.389-3.45-8.389-7.995v-63.903c0-4.547,3.841-8.334,8.389-8.334h135.088
			c4.546,0,8.373,3.787,8.373,8.334v63.903c0,4.546-3.827,7.996-8.373,7.996H20.348L20.348,320.89z"/>
	</g>
	<g>
		<path fill="#9EADB2" d="M20.371,280.943c0-3.378,2.748-6.125,6.124-6.125c3.378,0,6.126,2.747,6.126,6.125
			c0,3.376-2.748,6.125-6.126,6.125C23.119,287.068,20.371,284.319,20.371,280.943z"/>
	</g>
	<rect x="39.959" y="248.196" fill="#FFFFFF" width="95.849" height="65.694"/>
	<rect x="39.959" y="248.196" fill="#02526A" width="95.849" height="11.159"/>
	<g opacity="0.2">
		<rect x="45.496" y="252.725" fill="#ECECEC" width="26.593" height="2.101"/>
		<path fill="#ECECEC" d="M72.929,254.826c0,0.464-0.376,0.84-0.84,0.84H45.496c-0.464,0-0.84-0.376-0.84-0.84v-2.101
			c0-0.464,0.376-0.84,0.84-0.84h26.593c0.464,0,0.84,0.376,0.84,0.84V254.826z M46.336,253.986h24.913v-0.42H46.336V253.986z"/>
	</g>
	<g>
		<path opacity="0.5" fill="#ECECEC" d="M48.627,297.121c0,0.507,0.411,0.918,0.918,0.918H83.06c0.507,0,0.918-0.411,0.918-0.918
			v-7.981H48.627V297.121z"/>
		<path fill="#ECECEC" d="M83.06,264.682H49.545c-0.507,0-0.918,0.411-0.918,0.918v23.54h35.351V265.6
			C83.978,265.093,83.567,264.682,83.06,264.682z"/>
	</g>
	<g>
		<path opacity="0.5" fill="#ECECEC" d="M90.886,297.121c0,0.507,0.411,0.918,0.918,0.918h33.515c0.507,0,0.918-0.411,0.918-0.918
			v-7.981H90.886V297.121z"/>
		<path fill="#ECECEC" d="M125.319,264.682H91.804c-0.507,0-0.918,0.411-0.918,0.918v23.54h35.351V265.6
			C126.237,265.093,125.826,264.682,125.319,264.682z"/>
	</g>
	<rect x="39.959" y="302.724" fill="#9EADB3" width="95.849" height="11.166"/>
	<g opacity="0.5">
		
			<line fill="none" stroke="#ECECEC" stroke-width="1.6577" stroke-linecap="round" stroke-miterlimit="10" x1="47.789" y1="308.307" x2="84.995" y2="308.307"/>
		<circle fill="#ECECEC" cx="84.622" cy="308.307" r="1.886"/>
	</g>
	
		<line fill="none" stroke="#ECECEC" stroke-width="1.6577" stroke-linecap="round" stroke-miterlimit="10" x1="46.68" y1="308.307" x2="59.043" y2="308.307"/>
	<circle fill="#ECECEC" cx="45.903" cy="308.307" r="1.886"/>
</g>
</svg>
