<?xml version="1.0" encoding="utf-8"?>
<!-- Generator: Adobe Illustrator 17.0.2, SVG Export Plug-In . SVG Version: 6.00 Build 0)  -->
<!DOCTYPE svg PUBLIC "-//W3C//DTD SVG 1.1//EN" "http://www.w3.org/Graphics/SVG/1.1/DTD/svg11.dtd">
<svg version="1.1" id="Layer_1" xmlns="http://www.w3.org/2000/svg" xmlns:xlink="http://www.w3.org/1999/xlink" x="0px" y="0px"
	 width="524.057px" height="329.401px" viewBox="0 0 524.057 329.401" enable-background="new 0 0 524.057 329.401"
	 xml:space="preserve">
<g>
	<path fill="#CED4D7" d="M456.956,228.613H116.921h-10.585v10.585v8.146v8.248c0,5.846,4.739,10.585,10.585,10.585h340.034
		c5.846,0,10.585-4.739,10.585-10.585v-8.248v-8.146v-10.585L456.956,228.613L456.956,228.613z"/>
	<path fill="#78878C" d="M116.921,228.613h340.034h10.585v-10.585V32.385v-8.248c0-5.846-4.739-10.585-10.585-10.585H116.921
		c-5.846,0-10.585,4.739-10.585,10.585v8.248v185.643v10.585H116.921z"/>
</g>
<g>
	<path fill="#CED4D7" d="M333.668,260.85c0-18.934-35.016-6.386-46.736-1.642c-11.72-4.744-46.736-17.269-46.736,1.665
		c0,32.841-20.21,60.696-20.21,60.696h63.156h7.579h63.156C353.878,321.569,333.668,293.691,333.668,260.85z"/>
	<path fill="#CED4D6" d="M336.068,281.256h-98.271c1.112-4.865,1.92-10.426,2.223-15.291h93.825
		C334.148,270.83,334.957,276.39,336.068,281.256z"/>
	<rect x="214.998" y="313.923" fill="#CED4D7" width="143.876" height="7.646"/>
	<path opacity="0.15" fill="#657275" enable-background="new    " d="M336.068,281.256h-98.271
		c1.112-4.865,1.92-10.426,2.223-15.291h93.825C334.148,270.83,334.957,276.39,336.068,281.256z"/>
	<rect x="123.946" y="31.037" fill="#02526A" width="325.979" height="20.852"/>
	<rect x="214.998" y="313.923" fill="#9EADB2" width="143.876" height="7.646"/>
</g>
<g>
	<rect x="123.949" y="52.531" fill="#FFFFFF" width="325.979" height="158.472"/>
	<g opacity="0.2">
		<rect x="264.938" y="40.367" fill="#ECECEC" width="43.996" height="3.475"/>
		<path fill="#ECECEC" d="M310.324,43.843c0,0.768-0.622,1.39-1.39,1.39h-43.996c-0.768,0-1.39-0.622-1.39-1.39v-3.475
			c0-0.768,0.622-1.39,1.39-1.39h43.996c0.768,0,1.39,0.622,1.39,1.39V43.843z M266.328,42.453h41.216v-0.695h-41.216V42.453z"/>
	</g>
	
		<line opacity="0.2" fill="none" stroke="#ECECEC" stroke-width="3" stroke-linecap="round" stroke-linejoin="round" stroke-miterlimit="10" enable-background="new    " x1="133.318" y1="44.844" x2="140.975" y2="44.844"/>
	
		<line opacity="0.2" fill="none" stroke="#ECECEC" stroke-width="3" stroke-linecap="round" stroke-linejoin="round" stroke-miterlimit="10" enable-background="new    " x1="133.318" y1="39.978" x2="140.975" y2="39.978"/>
	<g>
		<path opacity="0.5" fill="#ECECEC" enable-background="new    " d="M139.011,148.55c0,0.768,0.622,1.39,1.39,1.39h70.767
			c0.768,0,1.39-0.622,1.39-1.39v-17.09h-73.547V148.55z"/>
		<path fill="#ECECEC" d="M211.168,70.571h-70.767c-0.768,0-1.39,0.622-1.39,1.39v39.017h73.547V71.961
			C212.558,71.194,211.936,70.571,211.168,70.571z"/>
	</g>
	<rect x="139.011" y="111.98" opacity="0.5" fill="#ECECEC" enable-background="new    " width="73.547" height="18.48"/>
	<g>
		<path fill="#ECECEC" d="M295.501,70.571h-70.767c-0.768,0-1.39,0.622-1.39,1.39v39.017h73.547V71.961
			C296.891,71.194,296.269,70.571,295.501,70.571z"/>
	</g>
	<rect x="223.344" y="111.98" opacity="0.5" fill="#ECECEC" enable-background="new    " width="73.547" height="18.48"/>
	<rect x="223.344" y="131.46" opacity="0.5" fill="#ECECEC" enable-background="new    " width="73.547" height="18.48"/>
	<rect x="223.344" y="150.995" opacity="0.5" fill="#ECECEC" enable-background="new    " width="73.547" height="18.48"/>
	<path opacity="0.5" fill="#ECECEC" enable-background="new    " d="M223.344,187.51c0,0.768,0.622,1.39,1.39,1.39h70.767
		c0.768,0,1.39-0.622,1.39-1.39v-17.089h-73.547V187.51z"/>
	<g>
		<path fill="#ECECEC" d="M380.479,70.571h-70.767c-0.768,0-1.39,0.622-1.39,1.39v39.017h73.547V71.961
			C381.869,71.194,381.247,70.571,380.479,70.571z"/>
	</g>
	<rect x="308.322" y="111.98" opacity="0.5" fill="#ECECEC" enable-background="new    " width="73.547" height="18.48"/>
	<rect x="308.322" y="131.46" opacity="0.5" fill="#ECECEC" enable-background="new    " width="73.547" height="18.48"/>
	<path opacity="0.5" fill="#ECECEC" enable-background="new    " d="M308.322,168.085c0,0.768,0.622,1.39,1.39,1.39h70.767
		c0.768,0,1.39-0.622,1.39-1.39v-17.089h-73.547L308.322,168.085L308.322,168.085z"/>
	<g>
		<path fill="#ECECEC" d="M449.929,70.575v40.4h-56.63v-39.01c0-0.77,0.62-1.39,1.39-1.39H449.929z"/>
	</g>
	<rect x="393.299" y="111.985" opacity="0.5" fill="#ECECEC" enable-background="new    " width="56.63" height="18.47"/>
	<rect x="393.299" y="131.465" opacity="0.5" fill="#ECECEC" enable-background="new    " width="56.63" height="18.48"/>
	<rect x="393.299" y="150.995" opacity="0.5" fill="#ECECEC" enable-background="new    " width="56.63" height="18.48"/>
	<path opacity="0.5" fill="#ECECEC" enable-background="new    " d="M449.929,170.425v18.48h-55.24c-0.77,0-1.39-0.63-1.39-1.39
		v-17.09H449.929z"/>
	
		<line fill="none" stroke="#ECECEC" stroke-width="3" stroke-linecap="round" stroke-miterlimit="10" x1="228.846" y1="118.18" x2="280.25" y2="118.18"/>
	
		<line fill="none" stroke="#ECECEC" stroke-width="3" stroke-linecap="round" stroke-miterlimit="10" x1="228.846" y1="124.711" x2="265.573" y2="124.711"/>
	
		<line fill="none" stroke="#ECECEC" stroke-width="3" stroke-linecap="round" stroke-miterlimit="10" x1="228.846" y1="137.439" x2="262.842" y2="137.439"/>
	
		<line fill="none" stroke="#ECECEC" stroke-width="3" stroke-linecap="round" stroke-miterlimit="10" x1="228.846" y1="156.698" x2="290.661" y2="156.698"/>
	
		<line fill="none" stroke="#ECECEC" stroke-width="3" stroke-linecap="round" stroke-miterlimit="10" x1="228.846" y1="163.23" x2="253.114" y2="163.23"/>
	
		<line fill="none" stroke="#ECECEC" stroke-width="3" stroke-linecap="round" stroke-miterlimit="10" x1="228.846" y1="175.957" x2="286.938" y2="175.957"/>
	
		<line fill="none" stroke="#ECECEC" stroke-width="3" stroke-linecap="round" stroke-miterlimit="10" x1="228.846" y1="182.489" x2="265.573" y2="182.489"/>
	
		<line fill="none" stroke="#ECECEC" stroke-width="3" stroke-linecap="round" stroke-miterlimit="10" x1="314.327" y1="118.18" x2="376.142" y2="118.18"/>
	
		<line fill="none" stroke="#ECECEC" stroke-width="3" stroke-linecap="round" stroke-miterlimit="10" x1="314.327" y1="156.698" x2="362.171" y2="156.698"/>
	
		<line fill="none" stroke="#ECECEC" stroke-width="3" stroke-linecap="round" stroke-miterlimit="10" x1="314.327" y1="124.711" x2="338.594" y2="124.711"/>
	
		<line fill="none" stroke="#ECECEC" stroke-width="3" stroke-linecap="round" stroke-miterlimit="10" x1="314.327" y1="137.439" x2="372.419" y2="137.439"/>
	
		<line fill="none" stroke="#ECECEC" stroke-width="3" stroke-linecap="round" stroke-miterlimit="10" x1="314.327" y1="143.971" x2="351.053" y2="143.971"/>
	
		<line fill="none" stroke="#ECECEC" stroke-width="3" stroke-linecap="round" stroke-miterlimit="10" x1="398.975" y1="118.18" x2="444.023" y2="118.18"/>
	
		<line fill="none" stroke="#ECECEC" stroke-width="3" stroke-linecap="round" stroke-miterlimit="10" x1="398.975" y1="124.711" x2="423.243" y2="124.711"/>
	
		<line fill="none" stroke="#ECECEC" stroke-width="3" stroke-linecap="round" stroke-miterlimit="10" x1="398.975" y1="137.439" x2="444.023" y2="137.439"/>
	
		<line fill="none" stroke="#ECECEC" stroke-width="3" stroke-linecap="round" stroke-miterlimit="10" x1="398.975" y1="143.971" x2="435.702" y2="143.971"/>
	
		<line fill="none" stroke="#ECECEC" stroke-width="3" stroke-linecap="round" stroke-miterlimit="10" x1="398.809" y1="157.044" x2="444.023" y2="157.044"/>
	
		<line fill="none" stroke="#ECECEC" stroke-width="3" stroke-linecap="round" stroke-miterlimit="10" x1="398.809" y1="163.576" x2="423.077" y2="163.576"/>
	
		<line fill="none" stroke="#ECECEC" stroke-width="3" stroke-linecap="round" stroke-miterlimit="10" x1="398.809" y1="176.303" x2="432.523" y2="176.303"/>
	
		<line fill="none" stroke="#ECECEC" stroke-width="3" stroke-linecap="round" stroke-miterlimit="10" x1="144.575" y1="137.439" x2="192.42" y2="137.439"/>
	
		<line fill="none" stroke="#ECECEC" stroke-width="3" stroke-linecap="round" stroke-miterlimit="10" x1="144.575" y1="118.18" x2="202.667" y2="118.18"/>
	
		<line fill="none" stroke="#ECECEC" stroke-width="3" stroke-linecap="round" stroke-miterlimit="10" x1="144.575" y1="124.711" x2="181.301" y2="124.711"/>
</g>
<g opacity="0.15">
	<path fill="#78878C" d="M386.23,165.955v100.01h-93.915V175.22c0-5.095,4.17-9.265,9.265-9.265H386.23z"/>
</g>
<g opacity="0.15">
	<path fill="#78878C" d="M296.422,265.965h100.01v55.604h-90.745c-5.095,0-9.265-4.17-9.265-9.265V265.965z"/>
</g>
<g>
	<g>
		<path fill="#657275" d="M513.928,312.301c0,5.097-4.17,9.268-9.268,9.268H310.207c-5.097,0-9.268-4.17-9.268-9.268V175.165
			c0-5.097,4.17-9.268,9.268-9.268h194.454c5.097,0,9.268,4.17,9.268,9.268L513.928,312.301L513.928,312.301z"/>
	</g>
	<rect x="323.076" y="181.743" fill="#FFFFFF" width="168.715" height="123.979"/>
	<g>
		<path fill="#9EADB2" d="M315.438,243.733c0,2.363-1.916,4.279-4.279,4.279l0,0c-2.363,0-4.279-1.916-4.279-4.279l0,0
			c0-2.363,1.916-4.279,4.279-4.279l0,0C313.523,239.453,315.438,241.369,315.438,243.733L315.438,243.733z"/>
	</g>
	<g>
		<path fill="#9EADB2" d="M500.828,252.291v-17.116c0-0.93,0.754-1.684,1.684-1.684s1.684,0.754,1.684,1.684v17.116
			c0,0.93-0.754,1.684-1.684,1.684S500.828,253.221,500.828,252.291z"/>
	</g>
	<rect x="323.076" y="181.744" fill="#02526A" width="168.715" height="14"/>
	<g>
		<path opacity="0.5" fill="#ECECEC" enable-background="new    " d="M328.903,263.033c0,0.595,0.482,1.077,1.077,1.077h54.811
			c0.595,0,1.077-0.482,1.077-1.077v-13.236h-56.965V263.033z"/>
		<path fill="#ECECEC" d="M384.791,202.636H329.98c-0.595,0-1.077,0.482-1.077,1.077v30.22h56.965v-30.22
			C385.868,203.118,385.385,202.636,384.791,202.636z"/>
	</g>
	<rect x="328.903" y="234.708" opacity="0.5" fill="#ECECEC" enable-background="new    " width="56.965" height="14.313"/>
	<g>
		<path fill="#ECECEC" d="M449.55,202.636h-54.811c-0.595,0-1.077,0.482-1.077,1.077v30.22h56.965v-30.22
			C450.626,203.118,450.144,202.636,449.55,202.636z"/>
	</g>
	<rect x="393.662" y="234.708" opacity="0.5" fill="#ECECEC" enable-background="new    " width="56.965" height="14.313"/>
	<rect x="393.662" y="249.797" opacity="0.5" fill="#ECECEC" enable-background="new    " width="56.965" height="14.313"/>
	<rect x="393.662" y="264.927" opacity="0.5" fill="#ECECEC" enable-background="new    " width="56.965" height="14.313"/>
	<path opacity="0.5" fill="#ECECEC" enable-background="new    " d="M393.662,293.209c0,0.595,0.482,1.077,1.077,1.077h54.811
		c0.595,0,1.077-0.482,1.077-1.077v-13.236h-56.965V293.209z"/>
	
		<line fill="none" stroke="#ECECEC" stroke-width="2.3236" stroke-linecap="round" stroke-miterlimit="10" x1="397.923" y1="239.51" x2="437.738" y2="239.51"/>
	
		<line fill="none" stroke="#ECECEC" stroke-width="2.3236" stroke-linecap="round" stroke-miterlimit="10" x1="397.923" y1="244.57" x2="426.369" y2="244.57"/>
	
		<line fill="none" stroke="#ECECEC" stroke-width="2.3236" stroke-linecap="round" stroke-miterlimit="10" x1="397.923" y1="254.427" x2="424.254" y2="254.427"/>
	
		<line fill="none" stroke="#ECECEC" stroke-width="2.3236" stroke-linecap="round" stroke-miterlimit="10" x1="397.923" y1="269.344" x2="445.801" y2="269.344"/>
	
		<line fill="none" stroke="#ECECEC" stroke-width="2.3236" stroke-linecap="round" stroke-miterlimit="10" x1="397.923" y1="274.403" x2="416.72" y2="274.403"/>
	
		<line fill="none" stroke="#ECECEC" stroke-width="2.3236" stroke-linecap="round" stroke-miterlimit="10" x1="397.923" y1="284.261" x2="442.918" y2="284.261"/>
	
		<line fill="none" stroke="#ECECEC" stroke-width="2.3236" stroke-linecap="round" stroke-miterlimit="10" x1="397.923" y1="289.32" x2="426.369" y2="289.32"/>
	
		<line fill="none" stroke="#ECECEC" stroke-width="2.3236" stroke-linecap="round" stroke-miterlimit="10" x1="333.212" y1="254.427" x2="370.27" y2="254.427"/>
	
		<line fill="none" stroke="#ECECEC" stroke-width="2.3236" stroke-linecap="round" stroke-miterlimit="10" x1="333.212" y1="239.51" x2="378.207" y2="239.51"/>
	
		<line fill="none" stroke="#ECECEC" stroke-width="2.3236" stroke-linecap="round" stroke-miterlimit="10" x1="333.212" y1="244.57" x2="361.658" y2="244.57"/>
	<g>
		<g>
			<defs>
				<rect id="SVGID_1_" x="454.178" y="200.469" width="37.614" height="97"/>
			</defs>
			<clipPath id="SVGID_2_">
				<use xlink:href="#SVGID_1_"  overflow="visible"/>
			</clipPath>
			<g clip-path="url(#SVGID_2_)">
				<path fill="#ECECEC" d="M502.512,202.639v31.291H458.65v-30.214c0-0.596,0.48-1.077,1.077-1.077H502.512z"/>
			</g>
		</g>
		<g>
			<defs>
				<rect id="SVGID_3_" x="454.178" y="200.469" width="37.614" height="97"/>
			</defs>
			<clipPath id="SVGID_4_">
				<use xlink:href="#SVGID_3_"  overflow="visible"/>
			</clipPath>
			
				<rect x="458.65" y="234.712" opacity="0.5" clip-path="url(#SVGID_4_)" fill="#ECECEC" enable-background="new    " width="43.862" height="14.306"/>
		</g>
		<g>
			<defs>
				<rect id="SVGID_5_" x="454.178" y="200.469" width="37.614" height="97"/>
			</defs>
			<clipPath id="SVGID_6_">
				<use xlink:href="#SVGID_5_"  overflow="visible"/>
			</clipPath>
			
				<rect x="458.65" y="249.8" opacity="0.5" clip-path="url(#SVGID_6_)" fill="#ECECEC" enable-background="new    " width="43.862" height="14.313"/>
		</g>
		<g>
			<defs>
				<rect id="SVGID_7_" x="454.178" y="200.469" width="37.614" height="97"/>
			</defs>
			<clipPath id="SVGID_8_">
				<use xlink:href="#SVGID_7_"  overflow="visible"/>
			</clipPath>
			
				<rect x="458.65" y="264.927" opacity="0.5" clip-path="url(#SVGID_8_)" fill="#ECECEC" enable-background="new    " width="43.862" height="14.313"/>
		</g>
		<g>
			<defs>
				<rect id="SVGID_9_" x="454.178" y="200.469" width="37.614" height="97"/>
			</defs>
			<clipPath id="SVGID_10_">
				<use xlink:href="#SVGID_9_"  overflow="visible"/>
			</clipPath>
			<path opacity="0.5" clip-path="url(#SVGID_10_)" fill="#ECECEC" enable-background="new    " d="M502.512,279.976v14.313h-42.785
				c-0.596,0-1.077-0.488-1.077-1.077v-13.237h43.862V279.976z"/>
		</g>
		<g>
			<defs>
				<rect id="SVGID_11_" x="454.178" y="200.469" width="37.614" height="97"/>
			</defs>
			<clipPath id="SVGID_12_">
				<use xlink:href="#SVGID_11_"  overflow="visible"/>
			</clipPath>
			
				<line clip-path="url(#SVGID_12_)" fill="none" stroke="#ECECEC" stroke-width="2.3236" stroke-linecap="round" stroke-miterlimit="10" x1="463.046" y1="239.51" x2="497.937" y2="239.51"/>
		</g>
		<g>
			<defs>
				<rect id="SVGID_13_" x="454.178" y="200.469" width="37.614" height="97"/>
			</defs>
			<clipPath id="SVGID_14_">
				<use xlink:href="#SVGID_13_"  overflow="visible"/>
			</clipPath>
			
				<line clip-path="url(#SVGID_14_)" fill="none" stroke="#ECECEC" stroke-width="2.3236" stroke-linecap="round" stroke-miterlimit="10" x1="463.046" y1="244.57" x2="481.842" y2="244.57"/>
		</g>
		<g>
			<defs>
				<rect id="SVGID_15_" x="454.178" y="200.469" width="37.614" height="97"/>
			</defs>
			<clipPath id="SVGID_16_">
				<use xlink:href="#SVGID_15_"  overflow="visible"/>
			</clipPath>
			
				<line clip-path="url(#SVGID_16_)" fill="none" stroke="#ECECEC" stroke-width="2.3236" stroke-linecap="round" stroke-miterlimit="10" x1="463.046" y1="254.427" x2="497.937" y2="254.427"/>
		</g>
		<g>
			<defs>
				<rect id="SVGID_17_" x="454.178" y="200.469" width="37.614" height="97"/>
			</defs>
			<clipPath id="SVGID_18_">
				<use xlink:href="#SVGID_17_"  overflow="visible"/>
			</clipPath>
			
				<line clip-path="url(#SVGID_18_)" fill="none" stroke="#ECECEC" stroke-width="2.3236" stroke-linecap="round" stroke-miterlimit="10" x1="463.046" y1="259.486" x2="491.492" y2="259.486"/>
		</g>
		<g>
			<defs>
				<rect id="SVGID_19_" x="454.178" y="200.469" width="37.614" height="97"/>
			</defs>
			<clipPath id="SVGID_20_">
				<use xlink:href="#SVGID_19_"  overflow="visible"/>
			</clipPath>
			
				<line clip-path="url(#SVGID_20_)" fill="none" stroke="#ECECEC" stroke-width="2.3236" stroke-linecap="round" stroke-miterlimit="10" x1="462.917" y1="269.612" x2="497.937" y2="269.612"/>
		</g>
		<g>
			<defs>
				<rect id="SVGID_21_" x="454.178" y="200.469" width="37.614" height="97"/>
			</defs>
			<clipPath id="SVGID_22_">
				<use xlink:href="#SVGID_21_"  overflow="visible"/>
			</clipPath>
			
				<line clip-path="url(#SVGID_22_)" fill="none" stroke="#ECECEC" stroke-width="2.3236" stroke-linecap="round" stroke-miterlimit="10" x1="462.917" y1="274.671" x2="481.714" y2="274.671"/>
		</g>
		<g>
			<defs>
				<rect id="SVGID_23_" x="454.178" y="200.469" width="37.614" height="97"/>
			</defs>
			<clipPath id="SVGID_24_">
				<use xlink:href="#SVGID_23_"  overflow="visible"/>
			</clipPath>
			
				<line clip-path="url(#SVGID_24_)" fill="none" stroke="#ECECEC" stroke-width="2.3236" stroke-linecap="round" stroke-miterlimit="10" x1="462.917" y1="284.529" x2="489.03" y2="284.529"/>
		</g>
	</g>
	<g opacity="0.2">
		<rect x="392.483" y="187.528" fill="#ECECEC" width="30.797" height="2.433"/>
		<path fill="#ECECEC" d="M424.253,189.961c0,0.537-0.436,0.973-0.973,0.973h-30.797c-0.537,0-0.973-0.436-0.973-0.973v-2.433
			c0-0.537,0.436-0.973,0.973-0.973h30.797c0.537,0,0.973,0.436,0.973,0.973V189.961z M393.456,188.987h28.851V188.5h-28.851
			V188.987z"/>
	</g>
	
		<line opacity="0.2" fill="none" stroke="#ECECEC" stroke-width="2.1" stroke-linecap="round" stroke-linejoin="round" stroke-miterlimit="10" enable-background="new    " x1="329.723" y1="190.36" x2="335.083" y2="190.36"/>
	
		<line opacity="0.2" fill="none" stroke="#ECECEC" stroke-width="2.1" stroke-linecap="round" stroke-linejoin="round" stroke-miterlimit="10" enable-background="new    " x1="329.723" y1="186.954" x2="335.083" y2="186.954"/>
</g>
<g>
	<g>
		<path fill="#78878C" d="M90.361,313.822c0,4.548-3.45,8.389-7.995,8.389H18.462c-4.547,0-8.334-3.841-8.334-8.389V178.734
			c0-4.546,3.787-8.373,8.334-8.373h63.903c4.546,0,7.996,3.827,7.996,8.373V313.822L90.361,313.822z"/>
	</g>
	<g>
		<path fill="#9EADB2" d="M50.414,313.799c-3.378,0-6.125-2.748-6.125-6.124c0-3.378,2.747-6.126,6.125-6.126
			c3.376,0,6.125,2.748,6.125,6.126C56.538,311.051,53.79,313.799,50.414,313.799z"/>
	</g>
	<rect x="17.667" y="198.362" fill="#FFFFFF" width="65.694" height="95.849"/>
	<rect x="17.667" y="185.438" fill="#02526A" width="65.694" height="12.923"/>
	<g>
		<g>
			<path fill="#ECECEC" d="M77.406,206.754H23.448c-0.585,0-1.06,0.475-1.06,1.06v29.749h56.077v-29.749
				C78.466,207.229,77.991,206.754,77.406,206.754z"/>
		</g>
		<rect x="22.388" y="238.327" opacity="0.5" fill="#ECECEC" enable-background="new    " width="56.077" height="14.09"/>
		<rect x="22.388" y="253.18" opacity="0.5" fill="#ECECEC" enable-background="new    " width="56.077" height="14.09"/>
		<path opacity="0.5" fill="#ECECEC" enable-background="new    " d="M22.388,281.105c0,0.585,0.474,1.06,1.06,1.06h53.957
			c0.585,0,1.06-0.475,1.06-1.06v-13.03H22.388V281.105z"/>
		
			<line fill="none" stroke="#ECECEC" stroke-width="2.2874" stroke-linecap="round" stroke-miterlimit="10" x1="26.967" y1="243.054" x2="74.099" y2="243.054"/>
		
			<line fill="none" stroke="#ECECEC" stroke-width="2.2874" stroke-linecap="round" stroke-miterlimit="10" x1="26.967" y1="272.423" x2="63.447" y2="272.423"/>
		
			<line fill="none" stroke="#ECECEC" stroke-width="2.2874" stroke-linecap="round" stroke-miterlimit="10" x1="26.967" y1="248.034" x2="45.47" y2="248.034"/>
		
			<line fill="none" stroke="#ECECEC" stroke-width="2.2874" stroke-linecap="round" stroke-miterlimit="10" x1="26.967" y1="257.738" x2="71.26" y2="257.738"/>
		
			<line fill="none" stroke="#ECECEC" stroke-width="2.2874" stroke-linecap="round" stroke-miterlimit="10" x1="26.967" y1="262.719" x2="54.97" y2="262.719"/>
	</g>
	<g opacity="0.2">
		<path fill="#ECECEC" d="M66.904,193.603c0,0.537-0.436,0.973-0.973,0.973H35.134c-0.537,0-0.973-0.436-0.973-0.973v-2.433
			c0-0.537,0.436-0.973,0.973-0.973h30.797c0.537,0,0.973,0.436,0.973,0.973V193.603z"/>
	</g>
	
		<line opacity="0.2" fill="none" stroke="#ECECEC" stroke-width="2.1" stroke-linecap="round" stroke-linejoin="round" stroke-miterlimit="10" enable-background="new    " x1="22.388" y1="193.603" x2="27.749" y2="193.603"/>
	
		<line opacity="0.2" fill="none" stroke="#ECECEC" stroke-width="2.1" stroke-linecap="round" stroke-linejoin="round" stroke-miterlimit="10" enable-background="new    " x1="22.388" y1="190.197" x2="27.749" y2="190.197"/>
</g>
</svg>
