<?xml version="1.0" encoding="utf-8"?>
<!-- Generator: Adobe Illustrator 19.1.0, SVG Export Plug-In . SVG Version: 6.00 Build 0)  -->
<svg version="1.1" id="Layer_1" xmlns="http://www.w3.org/2000/svg" xmlns:xlink="http://www.w3.org/1999/xlink" x="0px" y="0px"
	 width="401px" height="322.8px" viewBox="26 -171.8 401 322.8" style="enable-background:new 26 -171.8 401 322.8;"
	 xml:space="preserve">
<style type="text/css">
	.st0{opacity:0.2;enable-background:new    ;}
	.st1{fill:#78868B;}
	.st2{fill:#9DADB2;}
	.st3{fill:#05526A;}
	.st4{fill:#FFFFFF;}
	.st5{fill:#EBEBEB;}
	.st6{fill:none;stroke:#EBEBEB;stroke-width:3;stroke-linecap:round;stroke-miterlimit:10;}
	.st7{opacity:0.1;}
	.st8{fill:#231F20;}
	.st9{fill:#EAF6FD;}
	.st10{fill:#A0D5E9;}
	.st11{fill:#84C0CE;}
	.st12{fill:#CDEAF5;}
	.st13{fill:#5B5A5C;}
	.st14{fill:#4E4D50;}
	.st15{fill:#737F83;}
</style>
<g>
	<path class="st0" d="M326.1,123.1c-35.8,0-66.9,2.8-82.4,6.9c-9.2-0.5-19.2-0.7-29.7-0.7c-43.5,0-78.8,4.4-78.8,9.8
		s35.3,9.8,78.8,9.8c21.2,0,40.5-1,54.7-2.7c15.8,1.7,35.8,2.7,57.4,2.7c51.4,0,93.1-5.8,93.1-12.9S377.5,123.1,326.1,123.1z"/>
	<g>
		<g>
			<g>
				<g>
					<g>
						<g>
							<path class="st1" d="M383.3,123.4c0,7.1-5.4,13.1-12.5,13.1H271c-7.1,0-13-6-13-13.1v-211c0-7.1,5.9-13.1,13-13.1h99.8
								c7.1,0,12.5,6,12.5,13.1V123.4L383.3,123.4z"/>
						</g>
						<g>
							<path class="st2" d="M320.9,123.3c-5.3,0-9.6-4.3-9.6-9.6c0-5.3,4.3-9.6,9.6-9.6c5.3,0,9.6,4.3,9.6,9.6
								C330.5,119.1,326.2,123.3,320.9,123.3z"/>
						</g>
						<rect x="269.8" y="-77.1" class="st3" width="102.6" height="20.2"/>
					</g>
					<rect x="269.8" y="-57.5" class="st4" width="102.6" height="149.7"/>
					<rect x="269.8" y="-77.7" class="st3" width="102.6" height="20.2"/>
					<g>
						<rect x="310.7" y="-42.7" class="st5" width="50.8" height="4"/>
						<path class="st5" d="M363.2-38.7c0,0.9-0.7,1.6-1.6,1.6h-50.8c-0.9,0-1.6-0.7-1.6-1.6v-4c0-0.9,0.7-1.6,1.6-1.6h50.8
							c0.9,0,1.6,0.7,1.6,1.6V-38.7z M312.3-40.3H360v-0.8h-47.7V-40.3z"/>
					</g>
					<g>
						<rect x="310.7" y="-28.9" class="st5" width="45.9" height="4"/>
						<path class="st5" d="M358.2-24.9c0,0.9-0.7,1.6-1.6,1.6h-45.9c-0.9,0-1.6-0.7-1.6-1.6v-4c0-0.9,0.7-1.6,1.6-1.6h45.9
							c0.9,0,1.6,0.7,1.6,1.6V-24.9z M312.3-26.5h42.7v-0.8h-42.7V-26.5z"/>
					</g>
					<g>
						<rect x="281.8" y="-43.6" class="st5" width="19.1" height="19.1"/>
						<path class="st5" d="M302.4-24.5c0,0.9-0.7,1.6-1.6,1.6h-19.1c-0.9,0-1.6-0.7-1.6-1.6v-19.1c0-0.9,0.7-1.6,1.6-1.6h19.1
							c0.9,0,1.6,0.7,1.6,1.6V-24.5z M283.4-25.3h15.9V-42h-15.9V-25.3z"/>
					</g>
					<g>
						<path class="st4" d="M297.4-33.7c0.1-0.4,0.1-0.9,0.1-1.3c0-1.9-0.9-4-2-5.1c-0.4-0.4-0.7-0.6-1.2-0.8
							c-0.9-0.4-1.8-0.5-2.8-0.5c-2.4,0-4.6,1.6-5.5,3.9c-0.3,0.8-0.4,1.6-0.4,2.5c0,0.2,0,1.3,0,1.3s-1.4,0.2-0.9,2
							c0,0,0.4,1.1,1.6,1c0.1,0.4,0.3,0.7,0.4,0.9v0c0.9,1.7,2.7,2.9,4.8,2.9c2.4,0,4.5-1.5,5.2-3.8l0,0c1.5,0.1,1.6-1.5,1.6-1.5
							C298.3-33.2,297.8-33.5,297.4-33.7z"/>
						<path class="st1" d="M285.7-33.7c0,0,0.8,0.1,1.4-0.6c0.6-0.7,0.5-1.1,0.7-2.3c0,0,0.1-1.6,1.4-1.6c1.1,0,1.3,0.7,2.5,0.7
							c1.3,0,1.6-0.5,2.4-0.5c0.6,0,1,0.3,1.1,1.4c0.1,1,0.4,1.8,0.9,2.3c0.4,0.4,1.1,0.6,1.3,0.6c0,0,0.1-0.4,0.1-0.6
							c0-0.3,0-0.5,0-0.6c0-0.3,0-0.3,0-0.5c0-0.3-0.1-0.6-0.1-0.8c-0.1-0.4-0.2-0.9-0.5-1.7c-0.5-1.2-1.1-2-1.8-2.6
							c-1.2-1-2.6-0.9-3.8-0.9c-0.9,0-2.4,0.4-3.5,1.4c-0.8,0.8-1.4,1.5-1.8,2.7c-0.1,0.3-0.2,0.7-0.2,1.1
							C285.7-35.4,285.7-34.5,285.7-33.7z"/>
					</g>
					<line class="st6" x1="281" y1="-7.4" x2="363.2" y2="-7.4"/>
					<line class="st6" x1="281" y1="4.7" x2="356.6" y2="4.7"/>
					<line class="st6" x1="281" y1="16.7" x2="345.4" y2="16.7"/>
					<line class="st6" x1="281" y1="28.8" x2="356.6" y2="28.8"/>
					<line class="st6" x1="281" y1="40.8" x2="356.6" y2="40.8"/>
					<line class="st6" x1="281" y1="52.8" x2="356.6" y2="52.8"/>
					<line class="st6" x1="281" y1="64.9" x2="345.4" y2="64.9"/>
					<line class="st6" x1="281" y1="76.9" x2="356.6" y2="76.9"/>
				</g>
			</g>
		</g>
		<g>
			<g>
				<g class="st7">
					<path class="st8" d="M290,15.9c6.3-9.2,0.4-20.9,0.4-20.9s-2.4-6.8-5.2-10.4c2.8-1.7,2.3-4.2,2.3-4.2c-3.5-0.1-5.8-3.9-5.8-3.9
						c-0.9-1-2.4-2.7-2.4-2.7c2.9-2.2,1.9-6.4,1.9-6.4c-1.5,2-4.7,0-4.7,0c2.4-2.4,1.1-5.7,1.1-5.7c-4.7,3.1-8.4-6.3-8.4-6.3
						l-3.6-12.3c-3.1-7.8,2.2-18.6,2.2-18.6c-2.2-0.8-5.5-0.5-5.5-0.5c0-2.8,3-8.9,3-8.9c-3.3-0.8-8.4,0-8.4,0
						c0.5-2.5,2.8-9.3,2.8-9.3s-7.5-0.6-13.6,1.4c-6.5,2.1-10.2,5.8-10.2,5.8c-1.7-4.8-0.8-14.4-0.8-14.4
						c-13.9,4.6-22.2,25.3-22.2,25.3c-3-3.6-4.3-9.9-4.3-9.9c-10.1,11.4-5.3,26.5-5.3,26.5c-3,0-7.1-2.7-7.1-2.7
						c3.3,15.2,14.3,25,14.3,25s-1.2,9.9-0.6,15c0,0-2.2-0.6-5.5-0.5c-2.2,0-5,0.3-8.2,1.4l3,2.5c-7.5,3-9,11-9,11l0,0
						c-0.1,0-0.2-0.1-0.4-0.1c0,0,0,0-0.1,0c-0.1,0-0.2-0.1-0.3-0.1c0,0-0.1,0-0.1-0.1c-0.1-0.1-0.2-0.1-0.3-0.2
						c0,0-0.1-0.1-0.1-0.1c-0.1-0.1-0.2-0.1-0.2-0.2c-0.1,0-0.1-0.1-0.2-0.2c-0.1-0.1-0.1-0.1-0.2-0.2c-0.1-0.1-0.1-0.1-0.2-0.2
						c-0.1-0.1-0.1-0.1-0.2-0.2c-0.1-0.1-0.1-0.2-0.2-0.3c0-0.1-0.1-0.1-0.1-0.2c-0.1-0.2-0.2-0.4-0.3-0.6c0,0-0.3,3.1,0.8,5.1
						c0,0-11.8,4.1-17.3,11.9l2.9,1.7c0,0-9.1,0.5-15.1,8.3c0,0,3.4-1,5.6,0.1c0,0-7.5,6.3-5.2,17.8c0,0,2.7-2.3,4.4-2.3
						c2.3,3,2.7,5.4,2.7,5.4s1.4,4.7,1.6,8.5c0,0,2-0.9,3.3-2.2c0,0,3.5,10.6,15,10.1l1.4-3.1l0.6-0.3l1.7,0.2c0,0,1.1,6.7,3.6,10.7
						l2.9,1.2c0,0-0.9,2.6,0.5,5.6c0,0-5.6,13.7-8.2,22.6l2.2-0.6c0,0,7.2,7.5,11.6,8l1.9-5c0,0,9.9,12.4,16.3,13.8
						c0,0,0.1-3.6,0.9-4.8l5.8-0.5c0,0-3.6-4.6-4.2-7.5c0,0,5.2-2.9,7.8-2.2c0,0,0.1-3.1-0.1-4.3c0,0,6.4-1.7,8.4-1.6v0
						c3-0.3,2.5-0.4,3.9-0.6c3.1-5.8,7.7-10.8,7.7-10.8c6.7-8.7,10.7-16.4,13-22.4l3.3,1.8c1-3.6,0.9-10.4,0.8-14.1
						C276.6,36.5,278,30,278,30l-2.1-2c13.6,0.6,16.9-12.1,16.9-12.1C290.9,16.5,290,15.9,290,15.9z"/>
					<path class="st8" d="M221.6,123.9c-1.1-1.7-2-3.6-2.5-5.6c-1-0.4-2.3-0.6-4.1-0.3c-9,1.4-16.5,6.9-9.7,18.1c0,0,1.4,1.1,4.4,0
						s4-2,6.7-2s5.8-2.8,5.3-5.8C221.4,127.4,221.6,125.6,221.6,123.9z"/>
					<path class="st8" d="M216.2,117.9c0.4,0,0.7,0,1.1,0C216.9,117.9,216.5,117.9,216.2,117.9z"/>
					<path class="st8" d="M203.6,124.3c-1.5-0.4-3.2-0.6-4.7-0.4c-0.1,0.1-0.2,0.1-0.3,0.1c-1.4,0.3-2.8,0.6-4,1.5
						c-0.1,0.1-0.3,0.1-0.4,0.1c-0.9,0.5-1.8,1.1-2.6,1.8c3.9,1.9,8.8,1.6,10.9,1.4C202.5,127,202.9,125.5,203.6,124.3z"/>
					<path class="st8" d="M219.1,118.3c-0.5-0.2-1.1-0.4-1.8-0.4c-0.4,0-0.7,0-1.1,0c-0.4,0-0.8,0.1-1.2,0.1
						c-4.2,0.7-8,2.2-10.2,4.7c1.1,0.4,2.2,0.8,3.1,1.3c0.2,0.1,0.4,0.3,0.4,0.5l3.4,3l2-4.6c2.7,3.4,5.8,3.5,7.9,3.1
						c0-0.7,0.1-1.5,0.1-2.2C220.4,122.2,219.6,120.3,219.1,118.3z"/>
					<path class="st8" d="M175.2,129c0.4,3.4,0.4,6,4.4,6.9s6.4-1.2,7.8-3.5c1.3-2.3,0.5-9.9-5.4-10.5s-8.1,5.8-8.1,5.8l1.5,0.1
						L175.2,129z"/>
					<path class="st8" d="M181.1,129.3c0.6-2.2,1.7-5.1,3.8-6.2c3.2,2.3,3.4,7.5,2.4,9.4c-1.1,1.8-2.9,3.5-5.5,3.7
						C180.8,134,180.5,131.6,181.1,129.3z"/>
					<path class="st8" d="M206.7,95.2l-6.1,18.3c-1,1.5-4.4,2.2-4.4,2.2c0.4,1.9,2.6,3.4,2.6,3.4c-0.4,3.6-6.3,4-6.3,4
						c2.9,6.2,13.7,3.8,13.7,3.8l3.2-3.7l3.3,2.9l1.6-3.7c3.8,4.8,8.6,1.7,8.6,1.7c-2-1.9-1.9-4.4-1.9-4.4c0-0.9-0.1-1.8-0.1-2.7
						c0.2-1,0.5-1.9,0.9-2.7c1.1-2.9,2.5-5.6,4.3-8.1c0.2-0.3,0.4-0.4,0.7-0.4C223.2,97.6,215.7,91.5,206.7,95.2z"/>
					<path class="st8" d="M183.7,130.8c0.4,3.8,0.4,6.6,4.4,7.7s6.4-1.3,7.8-3.9c1.3-2.6,0.5-11-5.4-11.7c-5.9-0.7-8.1,6.4-8.1,6.4
						l1.5,0.1L183.7,130.8z"/>
					<path class="st8" d="M190.3,134.3c0-0.9,0.1-1.8,0.4-2.7c0.6-2.2,2.1-4.9,4-6.2c2,2.9,2.1,7.4,1.2,9.1c-0.9,1.8-2.4,3.5-4.6,4
						C190.8,137.1,190.5,135.7,190.3,134.3z"/>
					<path class="st8" d="M193.9,132.5c0.4,3.8,0.4,6.6,4.4,7.7s6.4-1.3,7.8-3.9c1.3-2.6,0.5-11-5.4-11.7c-5.9-0.7-8.1,6.4-8.1,6.4
						l1.5,0.1L193.9,132.5z"/>
					<path class="st8" d="M175.2,127.8l1.8,0l-1.8,1.2C175.2,129,175.1,128.3,175.2,127.8z"/>
					<polygon class="st8" points="182.4,131 185.5,131 183.6,132.3 					"/>
					<polygon class="st8" points="192.6,131 195.5,131.2 193.9,132.5 					"/>
					<path class="st8" d="M239.8,86c0,0,5.8,2.2,8.7,4.5c2.9,2.2,3.6,3.9,1.6,11.4c-2,7.6-4.4,13.4-4.6,20.4
						c-0.2,7,1.6,10.6-2.2,12.4s-8.7,4.6-14.7,5c-6,0.4-8.9-0.2-10.8,0c-1.9,0.2-3.6-2.4-3.4-5.2c0.2-2.9,3.9-3.6,3.9-3.6
						s0.6-4.5,5-4.6c0,0,2.1-9.3,1-16.8l-4.8-5C219.4,104.5,214.3,80.9,239.8,86z"/>
					<path class="st8" d="M250.2,95c-0.6-1.6-1.5-2.7-3.2-2.3c-4.4,1.1-6.5,4.7-8.2,8.5c-1.1,4.7-1,9.9-1.7,14.5
						c-0.6,4.3-1.6,8.7-3.9,12.5c-0.2,0.3-0.4,0.6-0.6,0.9c-0.6,2.5-2.3,6-0.8,8.3c0.5,0.7,1.2,1.1,2,1.3c3.6-1.1,6.7-2.7,9.3-4
						c3.9-1.9,2-5.5,2.2-12.4c0.2-7,2.6-12.8,4.6-20.4c0,0,0,0,0,0c0.2-1.6,0.3-3.3,0.5-4.9C250.5,96.3,250.4,95.6,250.2,95z"/>
					<path class="st8" d="M252.3,58.3c0.1-2.5-0.5-5-0.5-5c-1,2.1-2.8,4.2-4.9,6.2c-8,6.4-16.1,7.3-23.7,5.3l-3.1,1.5v-2.5
						c-8-2.1-11-5.8-15.8-9.9l0,0l-6-2.6l1.8-1.1v0c-4-4.3-7.8-8.7-10.6-12.4l0.2-0.2c-2-3.4-4-5.9-5.6-7.7l0,0v0
						c-2-2.2-3.2-3.2-3.2-3.2l-2.2,0.8c1.1-3,2.6-4.4,3.6-5.6c0.4-1.1,1.2-3.1,3.1-3.3l-2.2-3.1c4.1-4.4,8.5-5.9,8.5-5.9
						c0.3-2.5,0.1-4.5,0.1-4.5c0.9,0.2,1.8,0.4,2.5,0.6c1.2,0.5,3,2.5,4.3,4.5c0,0,4.8-1,8.8,5.6c0,0,0.7-0.7,1.9-2.7
						c0,0,2.9,7.6,2.6,11.9c0,0,5.9,1,12,4.2c2.4,0.7,4.6,2.2,6.7,3.5c1.3,0.8,2.1,1.6,3.6,3.7c-0.3-4.3-1.4-9.9-4.6-11.6
						c-2.6,1.6-4.2,2.7-4.2,2.7s-5.1-2.5-8.9-3.8l0.1,0c-1.3-6.5,2-15.9,2-15.9c-4.6,3.4-6.6,11.8-6.6,11.8v0.7c0-3-1-7.9-4.1-11.2
						c0,0-0.2,2.1-0.9,3.1c0,0-3.6-4.5-7.5-4.5c0,0-1.7-2.9-3.7-4.4c1.1-4.6,4-9.1,7.3-12.3c2.2-2.2,4.8-3.9,7.5-5
						c-0.2-1.3-0.4-2.6-0.5-3.9c-0.1-1.5-0.1-3.1-0.6-4.5c-0.1,0-0.3-0.1-0.4-0.1c0,0,0,0,0,0.1c-0.1,0.2-0.2,0.4-0.3,0.5
						c0.4,1.3,0.4,2.6,0.5,4c0.1,1.3,0,0.8,0.2,2.1c-2.7,1.1-5.2,2.7-7.5,4.9c-3.9,3.9-6.6,7.9-7.7,13.8c-1-0.5-3-0.3-4.5-0.6
						c0,0,0.2,3.5,0.5,6.3c0,0-4.3,0.7-8.3,5.1l-2.2,1.3c-1.9,0.2-7.9,3.2-8.3,4.2c2.5,0.2,5.9,1.6,7.8,2.9c0,0-2.8,4.4-3.7,8.5
						c0,0,1.4-0.4,2.9-0.6c1.9,1.6,4.8,4.4,7.2,9c1.9,3.4,4.3,7,4.3,7l0.3,0c0.7,0.8,1.5,1.7,1.7,1.9l-4.3,2.5l-0.1,0.3
						c0.2,0.6,2.7,6.7,4.9,12.2l1.6-1c0,0,0.9,4,2.9,5.9c0,0-1.9,4.1-3.1,7.3c1.3,1.2,2.5,2.5,4,3.6c2.2,1.5,5,2.3,7.4,3.4
						c5.3,2.3,10.3,3.4,16,3.8c4.3,0.3,8.7,0.5,13,1.1c1.7-0.2,3.6-0.4,5-0.3l2-0.3c1.1,0.5,1.1,0.5,1.8,0.8c3.6-7.5,8-12.7,8-12.7
						c0.2-0.2,0.2-0.2,0.4-0.4c3.6-2.7,6.1-7.9,8.6-13.6c0,0,0,0,0,0c0,0,1.5-2.8,2.2-4.7c0,0,0,0,0,0c0.7-1.3,1-2.4,1.6-3.7
						C258.6,56.5,252.3,58.3,252.3,58.3z"/>
					<path class="st8" d="M225.5,27.5c0,0,1.6-4.5,7.9-4.6c0,0-0.2-8,5.9-8.8c0,0,0.5-7,8.9-7.1S266,14,266,14s-3.2,7.7-11.4,7.3
						c0,0,2.2,1.6,3.5,4.5c0,0-4.2,7.4-12.3,5.6l3.3,6.1c0,0-8.1,6.8-12.5,0.2C236.5,37.8,233.4,28.6,225.5,27.5z"/>
					<path class="st8" d="M214.6,136.8c0,0-1.2-5.4,3.6-5.9c1.7,0,2.5,0.5,2.5,0.5s-0.9-1.6-1.9-1.7c0,0,1.1-2.4,4.3-3.4
						c0,0-2.8-1.9-5.9,3.1c0,0-5.6,0.8-4.7,8.7C212.7,138,214.3,137.3,214.6,136.8z"/>
					<path class="st8" d="M245.7,31.4c0,0-1-4.6-4.7-6c0,0,5.6,0.5,6.8,6.3C247.9,31.7,246.9,31.7,245.7,31.4z"/>
					<path class="st8" d="M242.1,87c0,0-5.6,0.7-9.4,2.5c0,0,0.2,2.6-1.3,4.9c0,0-4.3-0.2-6.7,0.8c0,0,3.6,6.4,5,8
						c0,0-5.2,1.2-7.1,0.7l-0.4,4l-2.3-2.6l1.7-15.1C221.7,90.1,237.1,83.8,242.1,87z"/>
					<path class="st8" d="M241.7,85.6c0,0-7.8-3.5-12-3.2l0.7-1.2c-7.9,1-13.9,0.7-21-2.4l0.9-1.6c0,0-8.2-4.1-13.1-10.5
						c0,0-8,18.4-8.8,24.2l2.2-0.6c0,0,5.4,7,11.8,8.9l1.6-1.9c0,0,8.9,9.4,16.2,10.1l1-5.2c0,0,3.8,0.2,5.8-0.5
						c0,0-3.6-5.3-4.2-7.5c0,0,3.4-1.4,6.4-1.6l1.6,0c0.8-2.7,0.6-4,0.6-4S235.8,86.6,241.7,85.6z"/>
					<path class="st8" d="M212-35.1c-0.3-2.6-0.8-6.3-3.3-7.7c-1.3,0.2-2.6,0.5-3.9,1.1c-7.4,3.3-10.1,10.4-10.1,10.4
						s8.9-3.2,17.6,0.3C212.3-32.3,212.2-33.7,212-35.1z"/>
					<path class="st8" d="M212-35.1c-0.1-0.6-0.2-1.2-0.3-1.9c-9.9-1.3-17.1,5.8-17.1,5.8s8.9-3.2,17.6,0.3
						C212.3-32.3,212.2-33.7,212-35.1z"/>
					<path class="st8" d="M290,15.9c6.3-9.2,0.4-20.9,0.4-20.9s-2.4-6.8-5.2-10.4c2.8-1.7,2.3-4.2,2.3-4.2c-3.5-0.1-5.8-3.9-5.8-3.9
						c-0.9-1-2.4-2.7-2.4-2.7c2.9-2.2,1.9-6.4,1.9-6.4c-1.5,2-4.7,0-4.7,0c2.4-2.4,1.1-5.7,1.1-5.7c-4.7,3.1-8.4-6.3-8.4-6.3
						l-3.6-12.3c-3.1-7.8,2.2-18.6,2.2-18.6c-2.2-0.8-5.5-0.5-5.5-0.5c0-2.8,3-8.9,3-8.9c-3.3-0.8-8.4,0-8.4,0
						c0.5-2.5,2.8-9.3,2.8-9.3s-7.5-0.6-13.6,1.4c-6.5,2.1-10.2,5.8-10.2,5.8c-1.7-4.8-0.8-14.4-0.8-14.4
						c-13.9,4.6-22.2,25.3-22.2,25.3c-3-3.6-4.3-9.9-4.3-9.9c-10.1,11.4-5.3,26.5-5.3,26.5c-3,0-7.1-2.7-7.1-2.7
						c3.3,15.2,14.3,25,14.3,25s-1.2,9.9-0.6,15c0,0-2.2-0.6-5.5-0.5c-2.2,0-5,0.3-8.2,1.4l3,2.5c-7.5,3-9,11-9,11l0,0
						c-0.1,0-0.2-0.1-0.4-0.1c0,0,0,0-0.1,0c-0.1,0-0.2-0.1-0.3-0.1c0,0-0.1,0-0.1-0.1c-0.1-0.1-0.2-0.1-0.3-0.2
						c0,0-0.1-0.1-0.1-0.1c-0.1-0.1-0.2-0.1-0.2-0.2c-0.1,0-0.1-0.1-0.2-0.2c-0.1-0.1-0.1-0.1-0.2-0.2c-0.1-0.1-0.1-0.1-0.2-0.2
						c-0.1-0.1-0.1-0.1-0.2-0.2c-0.1-0.1-0.1-0.2-0.2-0.3c0-0.1-0.1-0.1-0.1-0.2c-0.1-0.2-0.2-0.4-0.3-0.6c0,0-0.3,3.1,0.8,5.1
						c0,0-11.8,4.1-17.3,11.9l2.9,1.7c0,0-9.1,0.5-15.1,8.3c0,0,3.4-1,5.6,0.1c0,0-7.5,6.3-5.2,17.8c0,0,2.7-2.3,4.4-2.3
						c2.3,3,2.7,5.4,2.7,5.4s1.4,4.7,1.6,8.5c0,0,2-0.9,3.3-2.2c0,0,3.5,10.6,15,10.1l1.4-3.1l0.6-0.3l1.7,0.2c0,0,1.1,6.7,3.6,10.7
						l2.9,1.2c0,0-0.9,2.6,0.5,5.6c0,0-0.3-1.8-3,7.1c0,0,7.2,9.3,36.9,12.3c0,0,0.2,1.2,0,0c0,0,6.4-1.7,8.4-1.6v0
						c3-0.3,2.5-0.4,3.9-0.6c3.1-5.8,7.7-10.8,7.7-10.8c6.7-8.7,10.7-16.4,13-22.4l3.3,1.8c1-3.6,0.9-10.4,0.8-14.1
						C276.5,36.5,278,30,278,30l-2.1-2c13.6,0.6,16.9-12.1,16.9-12.1C290.9,16.5,290,15.9,290,15.9z"/>
					<path class="st8" d="M258.8-31.4c0,0,0-4.1-9-14.2c0,0-0.4-11.6-1.4-16.4c0,0-10.8-2.6-25.2,3.2c-0.7-2.3-2.9-2.3-2.9-2.3
						l-0.9,2.1c-2.7-2.4-5.2-1.1-5.2-1.1c1.4,1,2.4,4.5,2.4,4.5l0.6-0.4l0,0c-3.2,1.7-6.5,3.9-9.8,6.6c0,0,1.6,6.2,7.5,11.3
						c0,0-1.5,12.4,0,22.4c0,0,5.6-2.1,8.2-1.4c0,0,0.4,5.7,1.4,8.2c0,0,4.8-3,6.5-3.5c0,0,1.4,4,3.5,6.3c0,0,4.8-7.3,7.8-9.9
						c0,0,3.1,1.4,4,3.6c0,0,4.1-5.5,5.3-10.6c0,0,4.2-0.6,5.8,0.9c0,0,0.6-5.6-2.2-8.1C255-30.1,257.3-31.7,258.8-31.4z"/>
					<ellipse class="st8" cx="236.7" cy="-45.2" rx="3.8" ry="4.9"/>
					<ellipse class="st8" cx="236.4" cy="-46.5" rx="3.8" ry="4.8"/>
					<path class="st8" d="M237.4-49c0,0.1,0.1,0.2,0.1,0.4c0,0.7-0.4,1.2-1,1.2c-0.5,0-0.9-0.4-1-1c-0.3,0.4-0.5,1-0.5,1.6
						c0,1.2,0.8,2.3,1.8,2.3s1.8-1,1.8-2.3C238.6-47.8,238.1-48.7,237.4-49z"/>
					<path class="st8" d="M232.4-56.3c0,0,4.3-2.1,8.6-0.6C241-57,236.9-62.2,232.4-56.3z"/>
					<ellipse class="st8" cx="224.8" cy="-41.2" rx="3.8" ry="4.9"/>
					<ellipse class="st8" cx="224.4" cy="-42.5" rx="3.8" ry="4.8"/>
					<path class="st8" d="M225.4-45c0,0.1,0.1,0.2,0.1,0.4c0,0.7-0.4,1.2-1,1.2c-0.5,0-0.9-0.4-1-1c-0.3,0.4-0.5,1-0.5,1.6
						c0,1.2,0.8,2.3,1.8,2.3s1.8-1,1.8-2.3C226.7-43.9,226.2-44.7,225.4-45z"/>
					<path class="st8" d="M214.7-43.5c0,0,5.5-5.1,12.7-4.1c0,0,4.9-10.6,16.9-7.6l-2.5,1.9l3,2.7c0,0-7.1-2.8-16.6,5.6
						c0,0-7.7,0.4-11.9,4.9C216.2-40.1,215.6-41.6,214.7-43.5z"/>
					<path class="st8" d="M239-53.5c0.9,0,1.8-0.1,2.8,0.1l3-2.1c-12.1-3-18,5.4-18,5.4c-7.1-1-12.5,5.7-12.5,5.7
						c0.2,0.5,0.9,1.7,1.1,2.1c2.7-2.9,8.5-6.1,12.1-5.4C230.3-51.8,233.8-53.6,239-53.5z"/>
					<path class="st8" d="M215.6-49.1c0,0,3.4-3.4,8-3.4C223.6-52.5,218-56.1,215.6-49.1z"/>
					<path class="st8" d="M252.3,58.3c0.1-2.5-0.5-5-0.5-5c-1,2.1-2.8,4.2-4.9,6.2c-8,6.4-16.1,7.3-23.7,5.3l-3.1,1.5v-2.5
						c-8-2.1-11-5.8-15.8-9.9l0,0l-6-2.6l1.8-1.1v0c-4-4.3-7.8-8.7-10.6-12.4l0.2-0.2c-2-3.4-4-5.9-5.6-7.7l0,0v0
						c-2-2.2-3.2-3.2-3.2-3.2l-2.2,0.8c1.1-3,2.6-4.4,3.6-5.6c0.4-1.1,1.2-3.1,3.1-3.3l-2.2-3.1c4.1-4.4,8.5-5.9,8.5-5.9
						c0.3-2.5,0.1-4.5,0.1-4.5c0.9,0.2,1.8,0.4,2.5,0.6c1.2,0.5,3,2.5,4.3,4.5c0,0,4.8-1,8.8,5.6c0,0,0.7-0.7,1.9-2.7
						c0,0,2.9,7.6,2.6,11.9c0,0,5.9,1,12,4.2c2.4,0.7,4.6,2.2,6.7,3.5c1.3,0.8,2.1,1.6,3.6,3.7c-0.3-4.3-1.4-9.9-4.6-11.6
						c-2.6,1.6-4.2,2.7-4.2,2.7s-5.1-2.5-8.9-3.8l0.1,0c-1.3-6.5,2-15.9,2-15.9c-4.6,3.4-6.6,11.8-6.6,11.8v0.7c0-3-1-7.9-4.1-11.2
						c0,0-0.2,2.1-0.9,3.1c0,0-3.6-4.5-7.5-4.5c0,0-1.7-2.9-3.7-4.4c1.1-4.6,4-9.1,7.3-12.3c2.2-2.2,4.8-3.9,7.5-5
						c-0.2-1.3-0.4-2.6-0.5-3.9c-0.1-1.5-0.1-3.1-0.6-4.5c-0.1,0-0.3-0.1-0.4-0.1c0,0,0,0,0,0.1c-0.1,0.2-0.2,0.4-0.3,0.5
						c0.4,1.3,0.4,2.6,0.5,4c0.1,1.3,0,0.8,0.2,2.1c-2.7,1.1-5.2,2.7-7.5,4.9c-3.9,3.9-6.6,7.9-7.7,13.8c-1-0.5-3-0.3-4.5-0.6
						c0,0,0.2,3.5,0.5,6.3c0,0-4.3,0.7-8.3,5.1l-2.2,1.3c-1.9,0.2-7.9,3.2-8.3,4.2c2.5,0.2,5.9,1.6,7.8,2.9c0,0-2.8,4.4-3.7,8.5
						c0,0,1.4-0.4,2.9-0.6c1.9,1.6,4.8,4.4,7.2,9c1.9,3.4,4.3,7,4.3,7l0.3,0c0.7,0.8,1.5,1.7,1.7,1.9l-4.3,2.5l-0.1,0.3
						c0.2,0.6,2.7,6.7,4.9,12.2l1.6-1c0,0,0.9,4,2.9,5.9c0,0-1.9,4.1-3.1,7.3c1.3,1.2,2.5,2.5,4,3.6c2.2,1.5,5,2.3,7.4,3.4
						c5.3,2.3,10.3,3.4,16,3.8c4.3,0.3,8.7,0.5,13,1.1c1.7-0.2,3.6-0.4,5-0.3l2-0.3c1.1,0.5,1.1,0.5,1.8,0.8c3.6-7.5,8-12.7,8-12.7
						c0.2-0.2,0.2-0.2,0.4-0.4c3.6-2.7,6.1-7.9,8.6-13.6c0,0,0,0,0,0c0,0,1.5-2.8,2.2-4.7c0,0,0,0,0,0c0.7-1.3,1-2.4,1.6-3.7
						C258.6,56.5,252.3,58.3,252.3,58.3z"/>
					<path class="st8" d="M209.8-22.3c0,0,1.1,11.9,4,16.9c0,0,3.4-3.5,6.9-2.7c0,0,0.3,7,2.4,10.9c0,0,2.6-3.2,4.4-3.6
						c0,0,4.8,6,8.9,7.3c0,0,1.8-9.2,6.6-12.3c0,0,2.9,1.1,3.6,3.9c0,0,5.5-4.9,8.5-11.4c0,0,2.1-0.7,6.8,3.2c0,0,2.9-3,3.5-6
						c0,0,0.9,6.4-3,9.7c0,0-2.6-3.1-6.4-4.3c0,0-3.8,8.4-10.4,12.6c0,0,0-2.7-2.4-4.6c0,0-4.4,3.7-5.1,12.8c0,0-9.3-5-11.4-8.3
						c0,0-1.6,1-3.6,4c0,0-3.5-2.2-4.2-11.3c0,0-2.3-0.2-5.8,3.2c0,0-4.1-10.9-4.2-20.4L209.8-22.3z"/>
					<path class="st8" d="M246.9,11.4c0,0-0.5-6.1,4.3-11.1c0,0-2,5.3-0.8,12.4C250.4,12.7,248.1,13.1,246.9,11.4z"/>
					<path class="st8" d="M191.7,9.7c-0.1-0.5,0-0.6,0-1.1c-0.7-0.1-3,0-5.1,0.4c-7.3,1.4-10.2,10.1-10.2,10.1l5.6,3.1
						c0.8-2,3.4-3.5,3.4-3.5l-2.2-3.1C186.6,11.7,191.2,9.9,191.7,9.7z"/>
					<path class="st8" d="M225.5,27.5c0,0,1.6-4.5,7.9-4.6c0,0-0.2-8,5.9-8.8c0,0,0.5-7,8.9-7.1S266,14,266,14s-3.2,7.7-11.4,7.3
						c0,0,2.2,1.6,3.5,4.5c0,0-4.2,7.4-12.3,5.6l3.3,6.1c0,0-8.1,6.8-12.5,0.2C236.5,37.8,233.4,28.6,225.5,27.5z"/>
					<path class="st8" d="M254.5,21.4c0,0-3.3-4.1-7.6-5.4c0,0,7.1,0.6,10.3,5.2C257.2,21.2,256,21.3,254.5,21.4z"/>
					<path class="st8" d="M245.7,31.4c0,0-1-4.6-4.7-6c0,0,5.6,0.5,6.8,6.3C247.9,31.7,246.9,31.7,245.7,31.4z"/>
					<path class="st8" d="M267.8-60.7c-4.5-0.1-8.7,2.3-11.5,4.4c-0.4,3.2-0.3,6.8,1.3,9.6c0.8,1.3,1.7,2.5,2.8,3.4
						c0.8,0.3,1.2,0.4,1.3,0.3c0.2-0.3,0.9-1.4,0.9-1.4c6.1-10,18.6-10.7,18.6-10.7S275.9-60.5,267.8-60.7z"/>
					<path class="st8" d="M281.2-55.1c0,0-14.6-5.8-24.1,7.3c0.2,0.4,0.3,0.7,0.5,1.1c0.7,1.2,1.5,2.2,2.4,3.1l0,0
						c0.1,0.1,0.1,0.1,0.2,0.2c0,0,0,0,0.1,0.1c0,0,0,0,0,0c0,0,0.1,0.1,0.1,0.1c0.7,0.3,1.9,0.9,2.9,0.9c0,0-0.6-0.7-1.1-1.4
						c0.2-0.3,0.4-0.6,0.4-0.6C268.8-54.4,281.2-55.1,281.2-55.1z"/>
					<path class="st8" d="M223.2-30.8c0,0,0.2-2.4,1.3-3.8c0,0,2.2,1.6,3.2,4.1C227.7-30.6,224.4-30.5,223.2-30.8z"/>
					<path class="st8" d="M242-39.2c0.7,0.1,2.2,2.5,2.2,2.5c-1.2,1.1-3.8,2.6-6.7,3.8c0,0-7.2,2.9-15,2.1c0,0,9.5,3.5,22.6-4.7
						l0.9,1.4C246-38.6,242-39.2,242-39.2z"/>
					<path class="st8" d="M202.2,99.3"/>
				</g>
				<g>
					<g>
						<path class="st9" d="M285,15.9c6.3-9.2,0.4-20.9,0.4-20.9s-2.4-6.8-5.2-10.4c2.8-1.7,2.3-4.2,2.3-4.2
							c-3.5-0.1-5.8-3.9-5.8-3.9c-0.9-1-2.4-2.7-2.4-2.7c2.9-2.2,1.9-6.4,1.9-6.4c-1.5,2-4.7,0-4.7,0c2.4-2.4,1.1-5.7,1.1-5.7
							c-4.7,3.1-8.4-6.3-8.4-6.3l-3.6-12.3c-3.1-7.8,2.2-18.6,2.2-18.6c-2.2-0.8-5.5-0.5-5.5-0.5c0-2.8,3-8.9,3-8.9
							c-3.3-0.8-8.4,0-8.4,0c0.5-2.5,2.8-9.3,2.8-9.3s-7.5-0.6-13.6,1.4c-6.5,2.1-10.2,5.8-10.2,5.8c-1.7-4.8-0.8-14.4-0.8-14.4
							c-13.9,4.6-22.2,25.3-22.2,25.3c-3-3.6-4.3-9.9-4.3-9.9c-10.1,11.4-5.3,26.5-5.3,26.5c-3,0-7.1-2.7-7.1-2.7
							c3.3,15.2,14.3,25,14.3,25s-1.2,9.9-0.6,15c0,0-2.2-0.6-5.5-0.5c-2.2,0-5,0.3-8.2,1.4l3,2.5c-7.5,3-9,11-9,11l0,0
							c-0.1,0-0.2-0.1-0.4-0.1c0,0,0,0-0.1,0c-0.1,0-0.2-0.1-0.3-0.1c0,0-0.1,0-0.1-0.1c-0.1-0.1-0.2-0.1-0.3-0.2
							c0,0-0.1-0.1-0.1-0.1c-0.1-0.1-0.2-0.1-0.2-0.2c-0.1,0-0.1-0.1-0.2-0.2c-0.1-0.1-0.1-0.1-0.2-0.2c-0.1-0.1-0.1-0.1-0.2-0.2
							c-0.1-0.1-0.1-0.1-0.2-0.2c-0.1-0.1-0.1-0.2-0.2-0.3c0-0.1-0.1-0.1-0.1-0.2c-0.1-0.2-0.2-0.4-0.3-0.6c0,0-0.3,3.1,0.8,5.1
							c0,0-11.8,4.1-17.3,11.9l2.9,1.7c0,0-9.1,0.5-15.1,8.3c0,0,3.4-1,5.6,0.1c0,0-7.5,6.3-5.2,17.8c0,0,2.7-2.3,4.4-2.3
							c2.3,3,2.7,5.4,2.7,5.4s1.4,4.7,1.6,8.5c0,0,2-0.9,3.3-2.2c0,0,3.5,10.6,15,10.1l1.4-3.1l0.6-0.3l1.7,0.2
							c0,0,1.1,6.7,3.6,10.7l2.9,1.2c0,0-0.9,2.6,0.5,5.6c0,0-5.6,13.7-8.2,22.6l2.2-0.6c0,0,7.2,7.5,11.6,8l1.9-5
							c0,0,9.9,12.4,16.3,13.8c0,0,0.1-3.6,0.9-4.8l5.8-0.5c0,0-3.6-4.6-4.2-7.5c0,0,5.2-2.9,7.8-2.2c0,0,0.1-3.1-0.1-4.3
							c0,0,6.4-1.7,8.4-1.6v0c3-0.3,2.5-0.4,3.9-0.6c3.1-5.8,7.7-10.8,7.7-10.8c6.7-8.7,10.7-16.4,13-22.4l3.3,1.8
							c1-3.6,0.9-10.4,0.8-14.1C271.6,36.5,273,30,273,30l-2.1-2c13.6,0.6,16.9-12.1,16.9-12.1C285.9,16.5,285,15.9,285,15.9z"/>
						<path class="st10" d="M216.6,123.9c-1.1-1.7-2-3.6-2.5-5.6c-1-0.4-2.3-0.6-4.1-0.3c-9,1.4-16.5,6.9-9.7,18.1
							c0,0,1.4,1.1,4.4,0s4-2,6.7-2s5.8-2.8,5.3-5.8C216.4,127.4,216.6,125.6,216.6,123.9z"/>
						<g>
							<path class="st10" d="M211.2,117.9c0.4,0,0.7,0,1.1,0C211.9,117.9,211.5,117.9,211.2,117.9z"/>
							<path class="st11" d="M198.6,124.3c-1.5-0.4-3.2-0.6-4.7-0.4c-0.1,0.1-0.2,0.1-0.3,0.1c-1.4,0.3-2.8,0.6-4,1.5
								c-0.1,0.1-0.3,0.1-0.4,0.1c-0.9,0.5-1.8,1.1-2.6,1.8c3.9,1.9,8.8,1.6,10.9,1.4C197.5,127,197.9,125.5,198.6,124.3z"/>
							<path class="st11" d="M214.1,118.3c-0.5-0.2-1.1-0.4-1.8-0.4c-0.4,0-0.7,0-1.1,0c-0.4,0-0.8,0.1-1.2,0.1
								c-4.2,0.7-8,2.2-10.2,4.7c1.1,0.4,2.2,0.8,3.1,1.3c0.2,0.1,0.4,0.3,0.4,0.5l3.4,3l2-4.6c2.7,3.4,5.8,3.5,7.9,3.1
								c0-0.7,0.1-1.5,0.1-2.2C215.4,122.2,214.6,120.3,214.1,118.3z"/>
						</g>
						<path class="st10" d="M170.2,129c0.4,3.4,0.4,6,4.4,6.9s6.4-1.2,7.8-3.5c1.3-2.3,0.5-9.9-5.4-10.5s-8.1,5.8-8.1,5.8l1.5,0.1
							L170.2,129z"/>
						<path class="st11" d="M176.1,129.3c0.6-2.2,1.7-5.1,3.8-6.2c3.2,2.3,3.4,7.5,2.4,9.4c-1.1,1.8-2.9,3.5-5.5,3.7
							C175.8,134,175.5,131.6,176.1,129.3z"/>
						<path class="st12" d="M201.7,95.2l-6.1,18.3c-1,1.5-4.4,2.2-4.4,2.2c0.4,1.9,2.6,3.4,2.6,3.4c-0.4,3.6-6.3,4-6.3,4
							c2.9,6.2,13.7,3.8,13.7,3.8l3.2-3.7l3.3,2.9l1.6-3.7c3.8,4.8,8.6,1.7,8.6,1.7c-2-1.9-1.9-4.4-1.9-4.4c0-0.9-0.1-1.8-0.1-2.7
							c0.2-1,0.5-1.9,0.9-2.7c1.1-2.9,2.5-5.6,4.3-8.1c0.2-0.3,0.4-0.4,0.7-0.4C218.2,97.6,210.7,91.5,201.7,95.2z"/>
						<path class="st10" d="M178.7,130.8c0.4,3.8,0.4,6.6,4.4,7.7s6.4-1.3,7.8-3.9c1.3-2.6,0.5-11-5.4-11.7
							c-5.9-0.7-8.1,6.4-8.1,6.4l1.5,0.1L178.7,130.8z"/>
						<path class="st11" d="M185.3,134.3c0-0.9,0.1-1.8,0.4-2.7c0.6-2.2,2.1-4.9,4-6.2c2,2.9,2.1,7.4,1.2,9.1
							c-0.9,1.8-2.4,3.5-4.6,4C185.8,137.1,185.5,135.7,185.3,134.3z"/>
						<path class="st10" d="M188.9,132.5c0.4,3.8,0.4,6.6,4.4,7.7s6.4-1.3,7.8-3.9c1.3-2.6,0.5-11-5.4-11.7s-8.1,6.4-8.1,6.4
							l1.5,0.1L188.9,132.5z"/>
						<path class="st11" d="M170.2,127.8l1.8,0l-1.8,1.2C170.2,129,170.1,128.3,170.2,127.8z"/>
						<polygon class="st11" points="177.4,131 180.5,131 178.6,132.3 						"/>
						<polygon class="st11" points="187.6,131 190.5,131.2 188.9,132.5 						"/>
						<path class="st10" d="M234.8,86c0,0,5.8,2.2,8.7,4.5c2.9,2.2,3.6,3.9,1.6,11.4c-2,7.6-4.4,13.4-4.6,20.4
							c-0.2,7,1.6,10.6-2.2,12.4s-8.7,4.6-14.7,5c-6,0.4-8.9-0.2-10.8,0c-1.9,0.2-3.6-2.4-3.4-5.2c0.2-2.9,3.9-3.6,3.9-3.6
							s0.6-4.5,5-4.6c0,0,2.1-9.3,1-16.8l-4.8-5C214.4,104.5,209.3,80.9,234.8,86z"/>
						<path class="st11" d="M245.2,95c-0.6-1.6-1.5-2.7-3.2-2.3c-4.4,1.1-6.5,4.7-8.2,8.5c-1.1,4.7-1,9.9-1.7,14.5
							c-0.6,4.3-1.6,8.7-3.9,12.5c-0.2,0.3-0.4,0.6-0.6,0.9c-0.6,2.5-2.3,6-0.8,8.3c0.5,0.7,1.2,1.1,2,1.3c3.6-1.1,6.7-2.7,9.3-4
							c3.9-1.9,2-5.5,2.2-12.4c0.2-7,2.6-12.8,4.6-20.4c0,0,0,0,0,0c0.2-1.6,0.3-3.3,0.5-4.9C245.5,96.3,245.4,95.6,245.2,95z"/>
						<path class="st12" d="M247.3,58.3c0.1-2.5-0.5-5-0.5-5c-1,2.1-2.8,4.2-4.9,6.2c-8,6.4-16.1,7.3-23.7,5.3l-3.1,1.5v-2.5
							c-8-2.1-11-5.8-15.8-9.9l0,0l-6-2.6l1.8-1.1v0c-4-4.3-7.8-8.7-10.6-12.4l0.2-0.2c-2-3.4-4-5.9-5.6-7.7l0,0v0
							c-2-2.2-3.2-3.2-3.2-3.2l-2.2,0.8c1.1-3,2.6-4.4,3.6-5.6c0.4-1.1,1.2-3.1,3.1-3.3l-2.2-3.1c4.1-4.4,8.5-5.9,8.5-5.9
							c0.3-2.5,0.1-4.5,0.1-4.5c0.9,0.2,1.8,0.4,2.5,0.6c1.2,0.5,3,2.5,4.3,4.5c0,0,4.8-1,8.8,5.6c0,0,0.7-0.7,1.9-2.7
							c0,0,2.9,7.6,2.6,11.9c0,0,5.9,1,12,4.2c2.4,0.7,4.6,2.2,6.7,3.5c1.3,0.8,2.1,1.6,3.6,3.7c-0.3-4.3-1.4-9.9-4.6-11.6
							c-2.6,1.6-4.2,2.7-4.2,2.7s-5.1-2.5-8.9-3.8l0.1,0c-1.3-6.5,2-15.9,2-15.9c-4.6,3.4-6.6,11.8-6.6,11.8v0.7c0-3-1-7.9-4.1-11.2
							c0,0-0.2,2.1-0.9,3.1c0,0-3.6-4.5-7.5-4.5c0,0-1.7-2.9-3.7-4.4c1.1-4.6,4-9.1,7.3-12.3c2.2-2.2,4.8-3.9,7.5-5
							c-0.2-1.3-0.4-2.6-0.5-3.9c-0.1-1.5-0.1-3.1-0.6-4.5c-0.1,0-0.3-0.1-0.4-0.1c0,0,0,0,0,0.1c-0.1,0.2-0.2,0.4-0.3,0.5
							c0.4,1.3,0.4,2.6,0.5,4c0.1,1.3,0,0.8,0.2,2.1c-2.7,1.1-5.2,2.7-7.5,4.9c-3.9,3.9-6.6,7.9-7.7,13.8c-1-0.5-3-0.3-4.5-0.6
							c0,0,0.2,3.5,0.5,6.3c0,0-4.3,0.7-8.3,5.1l-2.2,1.3c-1.9,0.2-7.9,3.2-8.3,4.2c2.5,0.2,5.9,1.6,7.8,2.9c0,0-2.8,4.4-3.7,8.5
							c0,0,1.4-0.4,2.9-0.6c1.9,1.6,4.8,4.4,7.2,9c1.9,3.4,4.3,7,4.3,7l0.3,0c0.7,0.8,1.5,1.7,1.7,1.9l-4.3,2.5l-0.1,0.3
							c0.2,0.6,2.7,6.7,4.9,12.2l1.6-1c0,0,0.9,4,2.9,5.9c0,0-1.9,4.1-3.1,7.3c1.3,1.2,2.5,2.5,4,3.6c2.2,1.5,5,2.3,7.4,3.4
							c5.3,2.3,10.3,3.4,16,3.8c4.3,0.3,8.7,0.5,13,1.1c1.7-0.2,3.6-0.4,5-0.3l2-0.3c1.1,0.5,1.1,0.5,1.8,0.8c3.6-7.5,8-12.7,8-12.7
							c0.2-0.2,0.2-0.2,0.4-0.4c3.6-2.7,6.1-7.9,8.6-13.6c0,0,0,0,0,0c0,0,1.5-2.8,2.2-4.7c0,0,0,0,0,0c0.7-1.3,1-2.4,1.6-3.7
							C253.6,56.5,247.3,58.3,247.3,58.3z"/>
						<path class="st10" d="M220.5,27.5c0,0,1.6-4.5,7.9-4.6c0,0-0.2-8,5.9-8.8c0,0,0.5-7,8.9-7.1S261,14,261,14s-3.2,7.7-11.4,7.3
							c0,0,2.2,1.6,3.5,4.5c0,0-4.2,7.4-12.3,5.6l3.3,6.1c0,0-8.1,6.8-12.5,0.2C231.5,37.8,228.4,28.6,220.5,27.5z"/>
						<path class="st11" d="M209.6,136.8c0,0-1.2-5.4,3.6-5.9c1.7,0,2.5,0.5,2.5,0.5s-0.9-1.6-1.9-1.7c0,0,1.1-2.4,4.3-3.4
							c0,0-2.8-1.9-5.9,3.1c0,0-5.6,0.8-4.7,8.7C207.7,138,209.3,137.3,209.6,136.8z"/>
						<path class="st11" d="M240.7,31.4c0,0-1-4.6-4.7-6c0,0,5.6,0.5,6.8,6.3C242.9,31.7,241.9,31.7,240.7,31.4z"/>
						<path class="st11" d="M237.1,87c0,0-5.6,0.7-9.4,2.5c0,0,0.2,2.6-1.3,4.9c0,0-4.3-0.2-6.7,0.8c0,0,3.6,6.4,5,8
							c0,0-5.2,1.2-7.1,0.7l-0.4,4l-2.3-2.6l1.7-15.1C216.7,90.1,232.1,83.8,237.1,87z"/>
						<path class="st9" d="M236.7,85.6c0,0-7.8-3.5-12-3.2l0.7-1.2c-7.9,1-13.9,0.7-21-2.4l0.9-1.6c0,0-8.2-4.1-13.1-10.5
							c0,0-8,18.4-8.8,24.2l2.2-0.6c0,0,5.4,7,11.8,8.9l1.6-1.9c0,0,8.9,9.4,16.2,10.1l1-5.2c0,0,3.8,0.2,5.8-0.5
							c0,0-3.6-5.3-4.2-7.5c0,0,3.4-1.4,6.4-1.6l1.6,0c0.8-2.7,0.6-4,0.6-4S230.8,86.6,236.7,85.6z"/>
						<g>
							<g>
								<path class="st13" d="M207-35.1c-0.3-2.6-0.8-6.3-3.3-7.7c-1.3,0.2-2.6,0.5-3.9,1.1c-7.4,3.3-10.1,10.4-10.1,10.4
									s8.9-3.2,17.6,0.3C207.3-32.3,207.2-33.7,207-35.1z"/>
								<path class="st14" d="M207-35.1c-0.1-0.6-0.2-1.2-0.3-1.9c-9.9-1.3-17.1,5.8-17.1,5.8s8.9-3.2,17.6,0.3
									C207.3-32.3,207.2-33.7,207-35.1z"/>
								<path class="st9" d="M285,15.9c6.3-9.2,0.4-20.9,0.4-20.9s-2.4-6.8-5.2-10.4c2.8-1.7,2.3-4.2,2.3-4.2
									c-3.5-0.1-5.8-3.9-5.8-3.9c-0.9-1-2.4-2.7-2.4-2.7c2.9-2.2,1.9-6.4,1.9-6.4c-1.5,2-4.7,0-4.7,0c2.4-2.4,1.1-5.7,1.1-5.7
									c-4.7,3.1-8.4-6.3-8.4-6.3l-3.6-12.3c-3.1-7.8,2.2-18.6,2.2-18.6c-2.2-0.8-5.5-0.5-5.5-0.5c0-2.8,3-8.9,3-8.9
									c-3.3-0.8-8.4,0-8.4,0c0.5-2.5,2.8-9.3,2.8-9.3s-7.5-0.6-13.6,1.4c-6.5,2.1-10.2,5.8-10.2,5.8c-1.7-4.8-0.8-14.4-0.8-14.4
									c-13.9,4.6-22.2,25.3-22.2,25.3c-3-3.6-4.3-9.9-4.3-9.9c-10.1,11.4-5.3,26.5-5.3,26.5c-3,0-7.1-2.7-7.1-2.7
									c3.3,15.2,14.3,25,14.3,25s-1.2,9.9-0.6,15c0,0-2.2-0.6-5.5-0.5c-2.2,0-5,0.3-8.2,1.4l3,2.5c-7.5,3-9,11-9,11l0,0
									c-0.1,0-0.2-0.1-0.4-0.1c0,0,0,0-0.1,0c-0.1,0-0.2-0.1-0.3-0.1c0,0-0.1,0-0.1-0.1c-0.1-0.1-0.2-0.1-0.3-0.2
									c0,0-0.1-0.1-0.1-0.1c-0.1-0.1-0.2-0.1-0.2-0.2c-0.1,0-0.1-0.1-0.2-0.2c-0.1-0.1-0.1-0.1-0.2-0.2c-0.1-0.1-0.1-0.1-0.2-0.2
									c-0.1-0.1-0.1-0.1-0.2-0.2c-0.1-0.1-0.1-0.2-0.2-0.3c0-0.1-0.1-0.1-0.1-0.2c-0.1-0.2-0.2-0.4-0.3-0.6c0,0-0.3,3.1,0.8,5.1
									c0,0-11.8,4.1-17.3,11.9l2.9,1.7c0,0-9.1,0.5-15.1,8.3c0,0,3.4-1,5.6,0.1c0,0-7.5,6.3-5.2,17.8c0,0,2.7-2.3,4.4-2.3
									c2.3,3,2.7,5.4,2.7,5.4s1.4,4.7,1.6,8.5c0,0,2-0.9,3.3-2.2c0,0,3.5,10.6,15,10.1l1.4-3.1l0.6-0.3l1.7,0.2
									c0,0,1.1,6.7,3.6,10.7l2.9,1.2c0,0-0.9,2.6,0.5,5.6c0,0-0.3-1.8-3,7.1c0,0,7.2,9.3,36.9,12.3c0,0,0.2,1.2,0,0
									c0,0,6.4-1.7,8.4-1.6v0c3-0.3,2.5-0.4,3.9-0.6c3.1-5.8,7.7-10.8,7.7-10.8c6.7-8.7,10.7-16.4,13-22.4l3.3,1.8
									c1-3.6,0.9-10.4,0.8-14.1C271.5,36.5,273,30,273,30l-2.1-2c13.6,0.6,16.9-12.1,16.9-12.1C285.9,16.5,285,15.9,285,15.9z"/>
								<path class="st10" d="M253.8-31.4c0,0,0-4.1-9-14.2c0,0-0.4-11.6-1.4-16.4c0,0-10.8-2.6-25.2,3.2c-0.7-2.3-2.9-2.3-2.9-2.3
									l-0.9,2.1c-2.7-2.4-5.2-1.1-5.2-1.1c1.4,1,2.4,4.5,2.4,4.5l0.6-0.4l0,0c-3.2,1.7-6.5,3.9-9.8,6.6c0,0,1.6,6.2,7.5,11.3
									c0,0-1.5,12.4,0,22.4c0,0,5.6-2.1,8.2-1.4c0,0,0.4,5.7,1.4,8.2c0,0,4.8-3,6.5-3.5c0,0,1.4,4,3.5,6.3c0,0,4.8-7.3,7.8-9.9
									c0,0,3.1,1.4,4,3.6c0,0,4.1-5.5,5.3-10.6c0,0,4.2-0.6,5.8,0.9c0,0,0.6-5.6-2.2-8.1C250-30.1,252.3-31.7,253.8-31.4z"/>
								<ellipse class="st11" cx="231.7" cy="-45.2" rx="3.8" ry="4.9"/>
								<ellipse class="st4" cx="231.4" cy="-46.5" rx="3.8" ry="4.8"/>
								<path class="st14" d="M232.4-49c0,0.1,0.1,0.2,0.1,0.4c0,0.7-0.4,1.2-1,1.2c-0.5,0-0.9-0.4-1-1c-0.3,0.4-0.5,1-0.5,1.6
									c0,1.2,0.8,2.3,1.8,2.3s1.8-1,1.8-2.3C233.6-47.8,233.1-48.7,232.4-49z"/>
								<path class="st11" d="M227.4-56.3c0,0,4.3-2.1,8.6-0.6C236-57,231.9-62.2,227.4-56.3z"/>
								<ellipse class="st11" cx="219.8" cy="-41.2" rx="3.8" ry="4.9"/>
								<ellipse class="st4" cx="219.4" cy="-42.5" rx="3.8" ry="4.8"/>
								<path class="st14" d="M220.4-45c0,0.1,0.1,0.2,0.1,0.4c0,0.7-0.4,1.2-1,1.2c-0.5,0-0.9-0.4-1-1c-0.3,0.4-0.5,1-0.5,1.6
									c0,1.2,0.8,2.3,1.8,2.3s1.8-1,1.8-2.3C221.7-43.9,221.2-44.7,220.4-45z"/>
								<path class="st14" d="M209.7-43.5c0,0,5.5-5.1,12.7-4.1c0,0,4.9-10.6,16.9-7.6l-2.5,1.9l3,2.7c0,0-7.1-2.8-16.6,5.6
									c0,0-7.7,0.4-11.9,4.9C211.2-40.1,210.6-41.6,209.7-43.5z"/>
								<path class="st15" d="M234-53.5c0.9,0,1.8-0.1,2.8,0.1l3-2.1c-12.1-3-18,5.4-18,5.4c-7.1-1-12.5,5.7-12.5,5.7
									c0.2,0.5,0.9,1.7,1.1,2.1c2.7-2.9,8.5-6.1,12.1-5.4C225.3-51.8,228.8-53.6,234-53.5z"/>
								<path class="st11" d="M210.6-49.1c0,0,3.4-3.4,8-3.4C218.6-52.5,213-56.1,210.6-49.1z"/>
								<path class="st12" d="M247.3,58.3c0.1-2.5-0.5-5-0.5-5c-1,2.1-2.8,4.2-4.9,6.2c-8,6.4-16.1,7.3-23.7,5.3l-3.1,1.5v-2.5
									c-8-2.1-11-5.8-15.8-9.9l0,0l-6-2.6l1.8-1.1v0c-4-4.3-7.8-8.7-10.6-12.4l0.2-0.2c-2-3.4-4-5.9-5.6-7.7l0,0v0
									c-2-2.2-3.2-3.2-3.2-3.2l-2.2,0.8c1.1-3,2.6-4.4,3.6-5.6c0.4-1.1,1.2-3.1,3.1-3.3l-2.2-3.1c4.1-4.4,8.5-5.9,8.5-5.9
									c0.3-2.5,0.1-4.5,0.1-4.5c0.9,0.2,1.8,0.4,2.5,0.6c1.2,0.5,3,2.5,4.3,4.5c0,0,4.8-1,8.8,5.6c0,0,0.7-0.7,1.9-2.7
									c0,0,2.9,7.6,2.6,11.9c0,0,5.9,1,12,4.2c2.4,0.7,4.6,2.2,6.7,3.5c1.3,0.8,2.1,1.6,3.6,3.7c-0.3-4.3-1.4-9.9-4.6-11.6
									c-2.6,1.6-4.2,2.7-4.2,2.7s-5.1-2.5-8.9-3.8l0.1,0c-1.3-6.5,2-15.9,2-15.9c-4.6,3.4-6.6,11.8-6.6,11.8v0.7
									c0-3-1-7.9-4.1-11.2c0,0-0.2,2.1-0.9,3.1c0,0-3.6-4.5-7.5-4.5c0,0-1.7-2.9-3.7-4.4c1.1-4.6,4-9.1,7.3-12.3
									c2.2-2.2,4.8-3.9,7.5-5c-0.2-1.3-0.4-2.6-0.5-3.9c-0.1-1.5-0.1-3.1-0.6-4.5c-0.1,0-0.3-0.1-0.4-0.1c0,0,0,0,0,0.1
									c-0.1,0.2-0.2,0.4-0.3,0.5c0.4,1.3,0.4,2.6,0.5,4c0.1,1.3,0,0.8,0.2,2.1c-2.7,1.1-5.2,2.7-7.5,4.9
									c-3.9,3.9-6.6,7.9-7.7,13.8c-1-0.5-3-0.3-4.5-0.6c0,0,0.2,3.5,0.5,6.3c0,0-4.3,0.7-8.3,5.1l-2.2,1.3
									c-1.9,0.2-7.9,3.2-8.3,4.2c2.5,0.2,5.9,1.6,7.8,2.9c0,0-2.8,4.4-3.7,8.5c0,0,1.4-0.4,2.9-0.6c1.9,1.6,4.8,4.4,7.2,9
									c1.9,3.4,4.3,7,4.3,7l0.3,0c0.7,0.8,1.5,1.7,1.7,1.9l-4.3,2.5l-0.1,0.3c0.2,0.6,2.7,6.7,4.9,12.2l1.6-1c0,0,0.9,4,2.9,5.9
									c0,0-1.9,4.1-3.1,7.3c1.3,1.2,2.5,2.5,4,3.6c2.2,1.5,5,2.3,7.4,3.4c5.3,2.3,10.3,3.4,16,3.8c4.3,0.3,8.7,0.5,13,1.1
									c1.7-0.2,3.6-0.4,5-0.3l2-0.3c1.1,0.5,1.1,0.5,1.8,0.8c3.6-7.5,8-12.7,8-12.7c0.2-0.2,0.2-0.2,0.4-0.4
									c3.6-2.7,6.1-7.9,8.6-13.6c0,0,0,0,0,0c0,0,1.5-2.8,2.2-4.7c0,0,0,0,0,0c0.7-1.3,1-2.4,1.6-3.7
									C253.6,56.5,247.3,58.3,247.3,58.3z"/>
								<path class="st12" d="M204.8-22.3c0,0,1.1,11.9,4,16.9c0,0,3.4-3.5,6.9-2.7c0,0,0.3,7,2.4,10.9c0,0,2.6-3.2,4.4-3.6
									c0,0,4.8,6,8.9,7.3c0,0,1.8-9.2,6.6-12.3c0,0,2.9,1.1,3.6,3.9c0,0,5.5-4.9,8.5-11.4c0,0,2.1-0.7,6.8,3.2c0,0,2.9-3,3.5-6
									c0,0,0.9,6.4-3,9.7c0,0-2.6-3.1-6.4-4.3c0,0-3.8,8.4-10.4,12.6c0,0,0-2.7-2.4-4.6c0,0-4.4,3.7-5.1,12.8c0,0-9.3-5-11.4-8.3
									c0,0-1.6,1-3.6,4c0,0-3.5-2.2-4.2-11.3c0,0-2.3-0.2-5.8,3.2c0,0-4.1-10.9-4.2-20.4L204.8-22.3z"/>
								<path class="st12" d="M241.9,11.4c0,0-0.5-6.1,4.3-11.1c0,0-2,5.3-0.8,12.4C245.4,12.7,243.1,13.1,241.9,11.4z"/>
								<path class="st10" d="M186.7,9.7c-0.1-0.5,0-0.6,0-1.1c-0.7-0.1-3,0-5.1,0.4c-7.3,1.4-10.2,10.1-10.2,10.1l5.6,3.1
									c0.8-2,3.4-3.5,3.4-3.5l-2.2-3.1C181.6,11.7,186.2,9.9,186.7,9.7z"/>
								<path class="st10" d="M220.5,27.5c0,0,1.6-4.5,7.9-4.6c0,0-0.2-8,5.9-8.8c0,0,0.5-7,8.9-7.1S261,14,261,14
									s-3.2,7.7-11.4,7.3c0,0,2.2,1.6,3.5,4.5c0,0-4.2,7.4-12.3,5.6l3.3,6.1c0,0-8.1,6.8-12.5,0.2
									C231.5,37.8,228.4,28.6,220.5,27.5z"/>
								<path class="st11" d="M249.5,21.4c0,0-3.3-4.1-7.6-5.4c0,0,7.1,0.6,10.3,5.2C252.2,21.2,251,21.3,249.5,21.4z"/>
								<path class="st11" d="M240.7,31.4c0,0-1-4.6-4.7-6c0,0,5.6,0.5,6.8,6.3C242.9,31.7,241.9,31.7,240.7,31.4z"/>
								<path class="st15" d="M262.8-60.7c-4.5-0.1-8.7,2.3-11.5,4.4c-0.4,3.2-0.3,6.8,1.3,9.6c0.8,1.3,1.7,2.5,2.8,3.4
									c0.8,0.3,1.2,0.4,1.3,0.3c0.2-0.3,0.9-1.4,0.9-1.4c6.1-10,18.6-10.7,18.6-10.7S270.9-60.5,262.8-60.7z"/>
								<path class="st13" d="M276.2-55.1c0,0-14.6-5.8-24.1,7.3c0.2,0.4,0.3,0.7,0.5,1.1c0.7,1.2,1.5,2.2,2.4,3.1l0,0
									c0.1,0.1,0.1,0.1,0.2,0.2c0,0,0,0,0.1,0.1c0,0,0,0,0,0c0,0,0.1,0.1,0.1,0.1c0.7,0.3,1.9,0.9,2.9,0.9c0,0-0.6-0.7-1.1-1.4
									c0.2-0.3,0.4-0.6,0.4-0.6C263.8-54.4,276.2-55.1,276.2-55.1z"/>
								<path class="st4" d="M218.2-30.8c0,0,0.2-2.4,1.3-3.8c0,0,2.2,1.6,3.2,4.1C222.7-30.6,219.4-30.5,218.2-30.8z"/>
								<path class="st14" d="M237-39.2c0.7,0.1,2.2,2.5,2.2,2.5c-1.2,1.1-3.8,2.6-6.7,3.8c0,0-7.2,2.9-15,2.1c0,0,9.5,3.5,22.6-4.7
									l0.9,1.4C241-38.6,237-39.2,237-39.2z"/>
							</g>
							<path class="st9" d="M197.2,99.3"/>
						</g>
					</g>
				</g>
			</g>
		</g>
	</g>
</g>
</svg>
