<?xml version="1.0" encoding="utf-8"?>
<!-- Generator: Adobe Illustrator 17.0.2, SVG Export Plug-In . SVG Version: 6.00 Build 0)  -->
<!DOCTYPE svg PUBLIC "-//W3C//DTD SVG 1.1//EN" "http://www.w3.org/Graphics/SVG/1.1/DTD/svg11.dtd">
<svg version="1.1" id="Layer_1" xmlns="http://www.w3.org/2000/svg" xmlns:xlink="http://www.w3.org/1999/xlink" x="0px" y="0px"
	 width="720px" height="576px" viewBox="36 -38 720 576" enable-background="new 36 -38 720 576" xml:space="preserve">
<g>
	<g opacity="0.5">
		<g opacity="0.5">
			<path fill="#010101" d="M536.598,281.607H405.432c-4.95,0-8.909-3.96-8.909-8.909V163.186c0-4.95,3.96-8.909,8.909-8.909h131.166
				c4.95,0,8.909,3.96,8.909,8.909v109.511C545.507,277.647,541.548,281.607,536.598,281.607z"/>
		</g>
		<g>
			<g>
				<g>
					<path fill="#CFD5D6" d="M536.598,277.151H405.432c-4.95,0-8.909-3.96-8.909-8.909V158.731c0-4.95,3.96-8.909,8.909-8.909
						h131.166c4.95,0,8.909,3.96,8.909,8.909v109.511C545.507,273.192,541.548,277.151,536.598,277.151z"/>
				</g>
			</g>
		</g>
	</g>
	<g>
		<g opacity="0.5">
			
				<rect x="415.95" y="171.352" fill="none" stroke="#9FAEB4" stroke-width="3.281" stroke-linejoin="round" stroke-miterlimit="10" width="26.109" height="84.144"/>
		</g>
		<g opacity="0.5">
			
				<rect x="458.022" y="171.352" fill="none" stroke="#9FAEB4" stroke-width="3.281" stroke-linejoin="round" stroke-miterlimit="10" width="26.109" height="84.144"/>
		</g>
		<g opacity="0.5">
			
				<rect x="500.094" y="171.352" fill="none" stroke="#9FAEB4" stroke-width="3.281" stroke-linejoin="round" stroke-miterlimit="10" width="26.109" height="84.144"/>
		</g>
	</g>
</g>
<g>
	<g opacity="0.5">
		<g opacity="0.5">
			<path fill="#010101" d="M430.367,103.124H299.201c-4.95,0-8.909-3.96-8.909-8.909V-15.297c0-4.95,3.96-8.909,8.909-8.909h131.166
				c4.95,0,8.909,3.96,8.909,8.909V94.214C439.277,99.164,435.193,103.124,430.367,103.124z"/>
		</g>
		<g>
			<g>
				<path fill="#CFD5D6" d="M430.367,98.668H299.201c-4.95,0-8.909-3.96-8.909-8.909V-19.752c0-4.95,3.96-8.909,8.909-8.909h131.166
					c4.95,0,8.909,3.96,8.909,8.909V89.759C439.277,94.709,435.193,98.668,430.367,98.668z"/>
			</g>
		</g>
	</g>
	<g opacity="0.5">
		
			<rect x="304.275" y="16.628" fill="none" stroke="#9FAEB4" stroke-width="3.281" stroke-linejoin="round" stroke-miterlimit="10" width="31.306" height="36.751"/>
		<rect x="313.431" y="29.126" fill="none" width="28.337" height="20.418"/>
		<text transform="matrix(1 0 0 1 313.4194 41.4172)" fill="#9FAEB4" font-family="'ProximaNova-Black'" font-size="18.4772">C</text>
		
			<rect x="349.069" y="16.628" fill="none" stroke="#9FAEB4" stroke-width="3.281" stroke-linejoin="round" stroke-miterlimit="10" width="31.306" height="36.751"/>
		<rect x="358.226" y="29.126" fill="none" width="28.337" height="20.418"/>
		<text transform="matrix(1 0 0 1 358.1982 41.4172)" fill="#9FAEB4" font-family="'ProximaNova-Black'" font-size="18.4772">B</text>
		
			<rect x="393.863" y="16.628" fill="none" stroke="#9FAEB4" stroke-width="3.281" stroke-linejoin="round" stroke-miterlimit="10" width="31.306" height="36.751"/>
		<rect x="403.021" y="29.126" fill="none" width="14.849" height="20.418"/>
		<text transform="matrix(1 0 0 1 402.9673 41.4172)" fill="#9FAEB4" font-family="'ProximaNova-Black'" font-size="18.4772">A</text>
	</g>
</g>
<g>
	<g opacity="0.5">
		<g opacity="0.5">
			<path fill="#010101" d="M611.664-9.791h-49.868H523.56c-6.063,0-10.89,4.826-10.89,10.89v109.017
				c0,6.063,4.826,10.89,10.89,10.89H649.9c6.063,0,10.89-4.826,10.89-10.89V1.099c0-6.063-4.826-10.89-10.89-10.89
				C649.901-9.791,611.664-9.791,611.664-9.791z"/>
		</g>
		<g>
			<path fill="#CFD5D6" d="M611.664-14.247h-49.868H523.56c-6.063,0-10.89,4.826-10.89,10.89V105.66
				c0,6.063,4.826,10.89,10.89,10.89H649.9c6.063,0,10.89-4.826,10.89-10.89V-3.357c0-6.063-4.826-10.89-10.89-10.89H611.664
				L611.664-14.247z"/>
		</g>
	</g>
	<g opacity="0.5">
		<g>
			
				<rect x="533.46" y="66.309" fill="none" stroke="#9FAEB4" stroke-width="3.281" stroke-linecap="round" stroke-linejoin="round" stroke-miterlimit="10" width="48.011" height="22.026"/>
			
				<rect x="592.114" y="66.309" fill="none" stroke="#9FAEB4" stroke-width="3.281" stroke-linecap="round" stroke-linejoin="round" stroke-miterlimit="10" width="48.011" height="22.026"/>
		</g>
		
			<line fill="none" stroke="#9FAEB4" stroke-width="3.281" stroke-linecap="round" stroke-linejoin="round" stroke-miterlimit="10" x1="559.818" y1="13.967" x2="613.769" y2="13.967"/>
		
			<line fill="none" stroke="#9FAEB4" stroke-width="3.281" stroke-linecap="round" stroke-linejoin="round" stroke-miterlimit="10" x1="535.688" y1="29.188" x2="637.898" y2="29.188"/>
		
			<line fill="none" stroke="#9FAEB4" stroke-width="3.281" stroke-linecap="round" stroke-linejoin="round" stroke-miterlimit="10" x1="535.688" y1="40.695" x2="637.898" y2="40.695"/>
	</g>
</g>
<g opacity="0.5">
	<g>
		<g opacity="0.5">
			<path fill="#010101" d="M721.175,335.909H590.38c-4.95,0-8.909-3.96-8.909-8.909V217.736c0-4.95,3.96-8.909,8.909-8.909h130.919
				c4.95,0,8.909,3.96,8.909,8.909v109.387C730.084,331.949,726.125,335.909,721.175,335.909z"/>
		</g>
		<g>
			<g>
				<path fill="#CFD5D6" d="M721.175,331.455H590.38c-4.95,0-8.909-3.96-8.909-8.909V213.157c0-4.95,3.96-8.909,8.909-8.909h130.919
					c4.95,0,8.909,3.96,8.909,8.909v109.387C730.084,327.494,726.125,331.455,721.175,331.455z"/>
			</g>
		</g>
	</g>
	<g>
		
			<line fill="none" stroke="#9FAEB4" stroke-width="3.281" stroke-miterlimit="10" x1="581.471" y1="247.062" x2="730.084" y2="247.062"/>
		
			<line fill="none" stroke="#9FAEB4" stroke-width="3.281" stroke-miterlimit="10" x1="730.084" y1="288.763" x2="581.471" y2="288.763"/>
	</g>
	<g>
		<g>
			<rect x="603.744" y="220.953" fill="#9FAEB4" width="9.775" height="9.775"/>
			
				<line fill="none" stroke="#9FAEB4" stroke-width="3.281" stroke-linecap="round" stroke-miterlimit="10" x1="626.637" y1="225.779" x2="704.471" y2="225.779"/>
			<rect x="603.744" y="263.025" fill="#9FAEB4" width="9.775" height="9.775"/>
			
				<line fill="none" stroke="#9FAEB4" stroke-width="3.281" stroke-linecap="round" stroke-miterlimit="10" x1="626.637" y1="267.851" x2="704.471" y2="267.851"/>
			<rect x="603.744" y="305.097" fill="#9FAEB4" width="9.775" height="9.775"/>
			
				<line fill="none" stroke="#9FAEB4" stroke-width="3.281" stroke-linecap="round" stroke-miterlimit="10" x1="626.637" y1="310.047" x2="704.471" y2="310.047"/>
		</g>
	</g>
</g>
<g>
	<g opacity="0.5">
		<g opacity="0.5">
			<path fill="#010101" d="M530.103,359.938h-49.868h-38.236c-6.063,0-10.89,4.826-10.89,10.89v109.017
				c0,6.063,4.826,10.89,10.89,10.89h126.34c6.063,0,10.89-4.826,10.89-10.89V370.827c0-6.063-4.826-10.89-10.89-10.89
				L530.103,359.938L530.103,359.938z"/>
		</g>
		<g>
			<path fill="#CFD5D6" d="M530.103,355.483h-49.868h-38.236c-6.063,0-10.89,4.826-10.89,10.89v109.017
				c0,6.063,4.826,10.89,10.89,10.89h126.34c6.063,0,10.89-4.826,10.89-10.89V366.373c0-6.063-4.826-10.89-10.89-10.89
				L530.103,355.483L530.103,355.483z"/>
		</g>
	</g>
	<g opacity="0.5">
		<g>
			
				<rect x="451.898" y="436.039" fill="none" stroke="#9FAEB4" stroke-width="3.281" stroke-linecap="round" stroke-linejoin="round" stroke-miterlimit="10" width="48.011" height="22.026"/>
			
				<rect x="510.427" y="436.039" fill="none" stroke="#9FAEB4" stroke-width="3.281" stroke-linecap="round" stroke-linejoin="round" stroke-miterlimit="10" width="48.011" height="22.026"/>
		</g>
		
			<line fill="none" stroke="#9FAEB4" stroke-width="3.281" stroke-linecap="round" stroke-linejoin="round" stroke-miterlimit="10" x1="478.131" y1="383.696" x2="532.207" y2="383.696"/>
		
			<line fill="none" stroke="#9FAEB4" stroke-width="3.281" stroke-linecap="round" stroke-linejoin="round" stroke-miterlimit="10" x1="454.001" y1="398.916" x2="556.212" y2="398.916"/>
		
			<line fill="none" stroke="#9FAEB4" stroke-width="3.281" stroke-linecap="round" stroke-linejoin="round" stroke-miterlimit="10" x1="454.001" y1="410.424" x2="556.212" y2="410.424"/>
	</g>
</g>
<g>
	<g>
		<g opacity="0.2">
			<path fill="#010101" d="M63.597,310.006c3.465-0.247,52.467-2.475,80.06,32.544l-1.98-35.018
				C110.618,294.167,74.857,304.809,63.597,310.006z"/>
			<path fill="#010101" d="M141.677,307.531l-1.362-24.501c0,0-49.744-13.983-76.844,26.852c0,0,0.124,0,0.247,0
				C74.857,304.809,110.618,294.167,141.677,307.531z"/>
			<path fill="#010101" d="M488.649,319.287c-22.892-51.848-78.453-36.133-78.453-36.133l-3.341,27.099l-3.96,31.926
				c37.742-36.751,86.372-21.531,86.372-21.531C489.02,320.028,488.773,319.658,488.649,319.287z"/>
			<path fill="#010101" d="M410.073,283.03l-3.341,27.099c46.404-12.003,71.523,0.99,81.793,9.033
				C465.757,267.439,410.073,283.03,410.073,283.03z"/>
			<path fill="none" stroke="#010101" stroke-width="1.0937" stroke-miterlimit="10" d="M178.057,204.949
				c-1.362,0.495-2.599,0.99-3.96,1.485l4.826,5.816C178.924,212.126,178.428,209.528,178.057,204.949z"/>
			<path fill="none" stroke="#010101" stroke-width="1.0937" stroke-miterlimit="10" d="M158.878,212.126
				c-7.053,2.722-12.497,4.95-15.962,6.434c0.619,5.321,1.732,15.096,3.836,33.411c0.99,9.033,1.98,17.943,2.722,24.377
				c1.237,10.641,2.475,21.284,3.712,31.802l2.351,19.922c4.084-11.756,9.281-24.377,16.087-37.742
				C171.623,290.331,157.64,254.198,158.878,212.126z"/>
			<path fill="none" stroke="#010101" stroke-width="1.0937" stroke-miterlimit="10" d="M192.04,404.421
				c0,0-5.816-0.743-14.602,0.619c4.578,2.599,9.157,5.074,13.859,7.672C191.421,409.989,191.669,407.266,192.04,404.421z"/>
			<path fill="none" stroke="#010101" stroke-width="1.0937" stroke-miterlimit="10" d="M357.236,409.865c0,0,0.495,2.599,0.124,7.3
				c4.084-2.351,8.291-4.578,12.374-6.93C366.021,409.865,361.937,409.741,357.236,409.865z"/>
			<path fill="none" stroke="#010101" stroke-width="1.0937" stroke-miterlimit="10" d="M388.913,262.118l-13.488,52.342
				c0,0,14.478,18.437,22.15,43.929c0.743-6.063,1.362-12.25,2.103-18.314l3.465-30.193c1.362-11.137,2.599-22.397,3.96-33.534
				c0.743-6.559,1.732-15.591,2.846-24.872c1.98-18.066,3.094-27.718,3.712-32.915c-1.732-0.743-4.084-1.732-6.806-2.846
				C401.164,226.356,393.244,243.185,388.913,262.118z"/>
			<path fill="none" stroke="#010101" stroke-width="1.0937" stroke-miterlimit="10" d="M277.917,259.024
				c-8.538,20.17-16.705,39.721-25.12,59.644c8.415,0,16.828,0,25.12,0c9.775,0,19.552,0,29.451,0
				c-9.652-20.17-19.18-40.216-29.08-60.633C278.289,258.405,278.04,258.653,277.917,259.024z"/>
			<path fill="none" stroke="#010101" stroke-width="1.0937" stroke-miterlimit="10" d="M278.04,195.545
				c0,0.124-0.124,0.247-0.124,0.371c-28.955,64.469-57.788,128.692-86.743,192.913c0.743,0.124,0.99,0.124,1.362,0.124
				c9.775-0.124,19.552-0.371,29.451-0.495c1.485,0,2.103-0.619,2.722-1.98c5.197-13.24,10.518-26.481,15.839-39.721
				c0.619-1.485,1.362-1.98,2.846-1.856c11.508,0.124,23.14,0.247,34.648,0.247c0.619,0,1.113,0,1.732,0
				c12.374,0,24.624-0.247,36.999-0.371c1.732,0,2.475,0.619,3.218,2.103c5.816,13.488,11.631,26.976,17.447,40.464
				c0.371,0.99,0.743,1.609,2.103,1.609c9.157,0.124,18.19,0.247,27.347,0.371c0.619,0,1.237,0,2.228,0
				C338.55,324.731,308.482,260.386,278.04,195.545z M277.917,318.668c-8.291,0-16.705,0-25.12,0
				c8.415-19.799,16.581-39.474,25.12-59.644c0.124-0.371,0.247-0.743,0.495-1.113c9.775,20.541,19.303,40.464,29.08,60.633
				C297.592,318.668,287.817,318.668,277.917,318.668z"/>
			<path fill="#010101" d="M410.32,199.38c-5.816-2.228-13.116-5.074-22.026-8.415c5.94-13.983,19.056-30.317,19.056-30.317
				c-18.19-12.869-39.102-3.094-39.102-3.094c0.743-16.581,14.23-44.176,14.23-44.176c-22.274-1.113-70.532,19.675-70.532,19.675
				c0.247-10.024,21.284-58.282,21.284-58.282c-66.326,3.96-112.605,79.319-112.605,79.319c-6.559-7.425-6.806-46.404-6.806-46.404
				c-26.976,28.214-34.277,58.901-35.761,79.69c-5.444,2.103-5.94,2.228-10.518,3.96l-8.043-12.622
				c-0.124,1.113-4.207,16.21-4.331,17.324c-5.444,2.103-4.702,1.856-8.662,3.341c-16.581,6.559-22.397,8.909-20.418,16.581
				c0.495,2.969,2.599,22.397,4.331,37.989c0.99,9.157,1.98,18.066,2.722,24.501c1.237,10.641,2.475,21.284,3.712,31.926
				l3.094,26.852c1.485,12.622,2.969,25.367,4.331,37.989c-3.588,27.718-0.124,43.929-0.124,43.929
				c3.96-2.846,7.796-5.197,11.631-7.053c12.127,6.682,24.13,13.364,36.133,20.046c3.094,21.159,12.497,33.411,12.497,33.411
				c2.969-7.177,11.384-13.116,17.447-16.705c2.969,1.732,6.063,3.341,9.033,5.074c11.631,34.152,44.547,48.26,44.547,48.26
				c6.93-12.746,12.746-22.645,17.819-30.44c9.281-5.197,18.561-10.271,27.842-15.468c3.96,6.31,8.662,12.746,8.662,12.746
				c9.775-10.89,16.087-20.541,20.17-28.708c13.735-7.672,27.471-15.221,41.33-22.892c3.094,2.103,4.455,3.712,4.455,3.712
				c1.113-2.599,2.103-5.197,2.969-7.796c1.485-0.743,2.846-1.609,4.331-2.351c3.712-2.103,5.816-5.197,6.311-9.528
				c2.228-19.799,4.455-39.474,6.806-59.148l3.465-30.193c1.362-11.26,2.599-22.397,3.96-33.658
				c0.743-6.559,1.732-15.715,2.846-24.872c1.732-15.344,3.836-34.524,4.331-37.493C432.718,208.166,426.902,205.939,410.32,199.38z
				"/>
			<path fill="#010101" d="M163.579,396.625c38.236,21.159,76.596,42.443,114.833,63.727
				c38.236-21.284,76.472-42.443,114.833-63.727c2.103-19.056,4.331-38.112,6.559-57.169l3.465-30.193
				c1.362-11.137,2.599-22.397,3.96-33.534c0.743-6.559,1.732-15.591,2.846-24.872c1.98-18.066,3.094-27.718,3.712-32.915
				c-14.972-6.434-66.697-25.615-135.373-49.992h-0.124c-68.676,24.377-120.277,43.433-135.373,49.992
				c0.619,5.321,1.732,15.096,3.836,33.411c0.99,9.033,1.98,17.943,2.722,24.377c1.237,10.641,2.475,21.284,3.712,31.802
				l3.094,26.852C158.754,355.171,161.229,375.836,163.579,396.625z"/>
			<path fill="#010101" d="M364.784,387.839c-28.831-63.975-57.539-127.949-86.372-192.171
				c-28.831,64.222-57.539,128.073-86.372,192.171c0,0,0,0,0.124,0l-0.124,0.124h32.296l0.866-2.228
				c0-0.124,0.124-0.247,0.124-0.371c5.197-13.24,10.518-26.481,15.839-39.721v-0.124l0.866-1.98h36.38h36.256l0.866,1.98v0.124
				c5.197,13.24,10.518,26.481,15.839,39.721c0,0.124,0.124,0.247,0.124,0.371l0.866,2.228h32.296v-0.124
				C364.659,387.839,364.659,387.839,364.784,387.839z M278.412,317.802c-8.291,0-16.458,0-24.872,0
				c8.291-19.552,16.458-38.979,24.872-58.901c8.415,19.922,16.581,39.226,24.872,58.901
				C294.87,317.802,286.579,317.802,278.412,317.802z"/>
			<path opacity="0.2" fill="#010101" enable-background="new    " d="M278.412,167.95L278.412,167.95v292.402
				c38.236-21.284,76.472-42.443,114.833-63.727c2.103-19.056,4.331-38.112,6.559-57.169l3.465-30.193
				c1.362-11.137,2.599-22.397,3.96-33.534c0.743-6.559,1.732-15.591,2.846-24.872c1.98-18.066,3.094-27.718,3.712-32.915
				C398.689,211.384,347.088,192.327,278.412,167.95z"/>
		</g>
		<g>
			<g>
				<g>
					<g>
						<path fill="#44525A" d="M63.597,299.364c3.465-0.247,52.467-2.475,80.06,32.544l-1.98-35.018
							C110.618,283.525,74.857,294.167,63.597,299.364z"/>
						<g>
							<path fill="#9FAEB4" d="M141.677,296.889l-1.362-24.501c0,0-49.744-13.983-76.844,26.852c0,0,0.124,0,0.247,0
								C74.857,294.167,110.618,283.525,141.677,296.889z"/>
						</g>
						<g>
							<path fill="#44525A" d="M488.649,308.521c-22.892-51.848-78.453-36.133-78.453-36.133l-3.341,27.099l-3.96,31.926
								c37.742-36.751,86.372-21.531,86.372-21.531C489.02,309.387,488.773,309.016,488.649,308.521z"/>
							<path fill="#9FAEB4" d="M410.073,272.388l-3.341,27.099c46.404-12.003,71.523,0.99,81.793,9.033
								C465.757,256.673,410.073,272.388,410.073,272.388z"/>
						</g>
						<g>
							<g>
								<path fill="none" stroke="#06475E" stroke-width="1.0937" stroke-miterlimit="10" d="M178.057,194.183
									c-1.362,0.495-2.599,0.99-3.96,1.485l4.826,5.816C178.924,201.485,178.428,198.886,178.057,194.183z"/>
								<path fill="none" stroke="#06475E" stroke-width="1.0937" stroke-miterlimit="10" d="M158.878,201.485
									c-7.053,2.722-12.497,4.95-15.962,6.434c0.619,5.321,1.732,15.096,3.836,33.411c0.99,9.033,1.98,17.943,2.722,24.377
									c1.237,10.641,2.475,21.284,3.712,31.802l2.351,19.922c4.084-11.756,9.281-24.377,16.087-37.742
									C171.623,279.689,157.64,243.556,158.878,201.485z"/>
								<path fill="none" stroke="#06475E" stroke-width="1.0937" stroke-miterlimit="10" d="M192.04,393.779
									c0,0-5.816-0.743-14.602,0.619c4.578,2.599,9.157,5.074,13.859,7.672C191.421,399.347,191.669,396.625,192.04,393.779z"/>
								<path fill="none" stroke="#06475E" stroke-width="1.0937" stroke-miterlimit="10" d="M357.236,399.224
									c0,0,0.495,2.599,0.124,7.3c4.084-2.351,8.291-4.578,12.374-6.93C366.021,399.224,361.937,398.976,357.236,399.224z"/>
								<path fill="none" stroke="#06475E" stroke-width="1.0937" stroke-miterlimit="10" d="M388.913,251.476l-13.488,52.342
									c0,0,14.478,18.437,22.15,43.929c0.743-6.063,1.362-12.25,2.103-18.314l3.465-30.193c1.362-11.137,2.599-22.397,3.96-33.534
									c0.743-6.559,1.732-15.591,2.846-24.872c1.98-18.066,3.094-27.718,3.712-32.915c-1.732-0.743-4.084-1.732-6.806-2.846
									C401.164,215.715,393.244,232.419,388.913,251.476z"/>
							</g>
							<g>
								<g>
									<path fill="none" stroke="#06475E" stroke-width="1.0937" stroke-miterlimit="10" d="M277.917,248.383
										c-8.538,20.17-16.705,39.721-25.12,59.644c8.415,0,16.828,0,25.12,0c9.775,0,19.552,0,29.451,0
										c-9.652-20.17-19.18-40.216-29.08-60.633C278.289,247.64,278.04,248.011,277.917,248.383z"/>
									<path fill="none" stroke="#06475E" stroke-width="1.0937" stroke-miterlimit="10" d="M278.04,184.902
										c0,0.124-0.124,0.247-0.124,0.371c-28.955,64.469-57.788,128.692-86.743,192.914c0.743,0.124,0.99,0.124,1.362,0.124
										c9.775-0.124,19.552-0.371,29.451-0.495c1.485,0,2.103-0.619,2.722-1.98c5.197-13.24,10.518-26.481,15.839-39.721
										c0.619-1.485,1.362-1.98,2.846-1.856c11.508,0.124,23.14,0.247,34.648,0.247c0.619,0,1.113,0,1.732,0
										c12.374,0,24.624-0.247,36.999-0.371c1.732,0,2.475,0.619,3.218,2.103c5.816,13.488,11.631,26.976,17.447,40.464
										c0.371,0.99,0.743,1.609,2.103,1.609c9.157,0.124,18.19,0.247,27.347,0.371c0.619,0,1.237,0,2.228,0
										C338.55,313.965,308.482,249.62,278.04,184.902z M277.917,308.026c-8.291,0-16.705,0-25.12,0
										c8.415-19.799,16.581-39.474,25.12-59.644c0.124-0.371,0.247-0.743,0.495-1.113c9.775,20.541,19.303,40.464,29.08,60.633
										C297.592,308.026,287.817,308.026,277.917,308.026z"/>
								</g>
							</g>
						</g>
						<path fill="#E7F6FC" d="M410.32,188.615c-5.816-2.228-13.116-5.074-22.026-8.415c5.94-13.983,19.056-30.317,19.056-30.317
							c-18.19-12.869-39.102-3.094-39.102-3.094c0.743-16.581,14.23-44.176,14.23-44.176c-22.274-1.113-70.532,19.675-70.532,19.675
							c0.247-9.899,21.284-58.158,21.284-58.158c-66.326,3.96-112.605,79.319-112.605,79.319
							c-6.559-7.425-6.806-46.404-6.806-46.404c-26.976,28.214-34.277,58.901-35.761,79.69c-5.444,2.103-5.94,2.228-10.518,3.96
							l-8.043-12.622c-0.124,1.113-4.207,16.21-4.331,17.324c-5.444,2.103-4.702,1.856-8.662,3.341
							c-16.581,6.559-22.397,8.909-20.418,16.581c0.495,2.969,2.599,22.397,4.331,37.989c0.99,9.157,1.98,18.066,2.722,24.501
							c1.237,10.641,2.475,21.284,3.712,31.926l3.094,26.852c1.485,12.622,2.969,25.367,4.331,37.989
							c-3.588,27.718-0.124,43.929-0.124,43.929c3.96-2.846,7.796-5.197,11.631-7.053c12.127,6.682,24.13,13.364,36.133,20.046
							c3.094,21.159,12.497,33.411,12.497,33.411c2.969-7.177,11.384-13.116,17.447-16.705c2.969,1.732,6.063,3.341,9.033,5.074
							c11.631,34.152,44.547,48.26,44.547,48.26c6.93-12.746,12.746-22.645,17.819-30.44c9.281-5.197,18.561-10.271,27.842-15.468
							c3.96,6.31,8.662,12.746,8.662,12.746c9.775-10.89,16.087-20.541,20.17-28.708c13.735-7.672,27.471-15.221,41.33-22.892
							c3.094,2.103,4.455,3.712,4.455,3.712c1.113-2.599,2.103-5.197,2.969-7.796c1.485-0.743,2.846-1.609,4.331-2.351
							c3.712-2.103,5.816-5.197,6.311-9.528c2.228-19.799,4.455-39.474,6.806-59.148l3.465-30.193
							c1.362-11.26,2.599-22.397,3.96-33.658c0.743-6.559,1.732-15.715,2.846-24.872c1.732-15.344,3.836-34.524,4.331-37.493
							C432.718,197.525,426.902,195.173,410.32,188.615z"/>
						<g>
							<g>
								<g>
									<path fill="#08536B" d="M163.579,385.859c38.236,21.159,76.596,42.443,114.833,63.727
										c38.236-21.284,76.472-42.443,114.833-63.727c2.103-19.056,4.331-38.112,6.559-57.169l3.465-30.193
										c1.362-11.137,2.599-22.397,3.96-33.534c0.743-6.559,1.732-15.591,2.846-24.872c1.98-18.066,3.094-27.718,3.712-32.915
										c-14.972-6.434-66.697-25.615-135.373-49.992h-0.124c-68.676,24.377-120.277,43.433-135.373,49.992
										c0.619,5.321,1.732,15.096,3.836,33.411c0.99,9.033,1.98,17.943,2.722,24.377c1.237,10.641,2.475,21.284,3.712,31.802
										l3.094,26.852C158.754,344.53,161.229,365.195,163.579,385.859z"/>
								</g>
							</g>
						</g>
					</g>
				</g>
				<g>
					<path fill="#FFFFFF" d="M364.784,377.197c-28.831-64.098-57.539-127.949-86.372-192.171
						c-28.831,64.222-57.539,128.073-86.372,192.171c0,0,0,0,0.124,0l-0.124,0.124h32.296l0.866-2.228
						c0-0.124,0.124-0.247,0.124-0.371c5.197-13.24,10.518-26.481,15.839-39.721v-0.124l0.866-1.98h36.38h36.256l0.866,1.98v0.124
						c5.197,13.24,10.518,26.481,15.839,39.721c0,0.124,0.124,0.247,0.124,0.371l0.866,2.228h32.296v-0.124
						C364.659,377.197,364.659,377.197,364.784,377.197z M278.412,307.035c-8.291,0-16.458,0-24.872,0
						c8.291-19.552,16.458-38.979,24.872-58.901c8.415,19.922,16.581,39.226,24.872,58.901
						C294.87,307.035,286.579,307.035,278.412,307.035z"/>
				</g>
				<g>
					<path opacity="0.2" fill="#010101" enable-background="new    " d="M278.412,157.184L278.412,157.184v292.402
						c38.236-21.284,76.472-42.443,114.833-63.727c2.103-19.056,4.331-38.112,6.559-57.169l3.465-30.193
						c1.362-11.137,2.599-22.397,3.96-33.534c0.743-6.559,1.732-15.591,2.846-24.872c1.98-18.066,3.094-27.718,3.712-32.915
						C398.689,200.742,347.088,181.562,278.412,157.184z"/>
				</g>
			</g>
		</g>
	</g>
</g>
</svg>
