<?xml version="1.0" encoding="utf-8"?>
<!-- Generator: Adobe Illustrator 17.0.2, SVG Export Plug-In . SVG Version: 6.00 Build 0)  -->
<!DOCTYPE svg PUBLIC "-//W3C//DTD SVG 1.1//EN" "http://www.w3.org/Graphics/SVG/1.1/DTD/svg11.dtd">
<svg version="1.1" id="Layer_1" xmlns="http://www.w3.org/2000/svg" xmlns:xlink="http://www.w3.org/1999/xlink" x="0px" y="0px"
	 width="379.533px" height="347.786px" viewBox="179.487 66.759 379.533 347.786"
	 enable-background="new 179.487 66.759 379.533 347.786" xml:space="preserve">
<rect x="179.487" y="66.759" fill="#01526C" width="379.533" height="347.572"/>
<polygon opacity="0.1" fill="#78878C" enable-background="new    " points="559.02,414.545 180.893,66.759 559.02,66.759 "/>
<polygon opacity="0.1" fill="#78878C" enable-background="new    " points="180.892,414.545 559.02,66.759 559.02,414.545 "/>
<polygon opacity="0.1" fill="none" stroke="#FFFFFF" stroke-width="3" stroke-miterlimit="10" enable-background="new    " points="
	362.264,335.658 413.315,335.658 464.367,335.658 464.367,284.607 464.367,233.556 413.315,233.556 362.264,233.556 
	362.264,284.607 "/>
<path opacity="0.2" fill="none" stroke="#FFFFFF" stroke-width="3" stroke-miterlimit="10" enable-background="new    " d="
	M438.598,309.889c2.31-2.31,3.738-43.789,3.738-47.313s-1.429-45.003-3.738-47.313c-2.31-2.31-43.789-3.738-47.313-3.738
	s-45.003,1.429-47.313,3.738c-2.31,2.31-3.738,43.789-3.738,47.313s1.429,45.003,3.738,47.313c2.31,2.31,43.789,3.738,47.313,3.738
	S436.288,312.198,438.598,309.889z"/>
<path opacity="0.3" fill="none" stroke="#FFFFFF" stroke-width="3" stroke-miterlimit="10" enable-background="new    " d="
	M412.829,284.12c4.619-4.619,7.476-36.526,7.476-43.575s-2.857-38.956-7.476-43.575c-4.619-4.619-36.526-7.476-43.575-7.476
	s-38.956,2.857-43.575,7.476c-4.619,4.619-7.476,36.526-7.476,43.575s2.857,38.956,7.476,43.575
	c4.619,4.619,36.526,7.476,43.575,7.476C376.302,291.596,408.209,288.739,412.829,284.12z"/>
<path opacity="0.6" fill="none" stroke="#FFFFFF" stroke-width="3" stroke-miterlimit="10" enable-background="new    " d="
	M387.06,258.351c6.929-6.929,11.214-29.264,11.214-39.837s-4.286-32.908-11.214-39.837s-29.264-11.214-39.837-11.214
	s-32.908,4.286-39.837,11.214s-11.214,29.264-11.214,39.837s4.286,32.908,11.214,39.837c6.929,6.929,29.264,11.214,39.837,11.214
	S380.131,265.28,387.06,258.351z"/>
<path fill="none" stroke="#FFFFFF" stroke-width="3" stroke-miterlimit="10" d="M274.141,196.483
	c0,14.097,5.714,26.86,14.953,36.099c9.238,9.238,22.001,14.953,36.099,14.953s26.86-5.714,36.099-14.953
	c9.238-9.238,14.953-22.001,14.953-36.099c0-14.097-5.714-26.86-14.953-36.099c-9.238-9.238-22.001-14.953-36.099-14.953
	s-26.86,5.714-36.099,14.953C279.855,169.623,274.141,182.386,274.141,196.483z"/>
</svg>
