<?xml version="1.0" encoding="utf-8"?>
<!-- Generator: Adobe Illustrator 17.0.2, SVG Export Plug-In . SVG Version: 6.00 Build 0)  -->
<!DOCTYPE svg PUBLIC "-//W3C//DTD SVG 1.1//EN" "http://www.w3.org/Graphics/SVG/1.1/DTD/svg11.dtd">
<svg version="1.1" id="Layer_1" xmlns="http://www.w3.org/2000/svg" xmlns:xlink="http://www.w3.org/1999/xlink" x="0px" y="0px"
	 width="93.6px" height="93.6px" viewBox="0 0 93.6 93.6" enable-background="new 0 0 93.6 93.6" xml:space="preserve">
<path opacity="0.1" fill="none" stroke="#06475E" stroke-width="3" stroke-linecap="round" stroke-linejoin="round" stroke-miterlimit="10" d="
	M78.911,78.657c0.923-0.923,1.494-17.498,1.494-18.906c0-1.408-0.571-17.983-1.494-18.906c-0.923-0.923-17.498-1.494-18.906-1.494
	s-17.983,0.571-18.906,1.494c-0.923,0.923-1.494,17.498-1.494,18.906c0,1.408,0.571,17.983,1.494,18.906
	c0.923,0.923,17.498,1.494,18.906,1.494S77.988,79.58,78.911,78.657z"/>
<path opacity="0.3" fill="none" stroke="#06475E" stroke-width="3" stroke-linecap="round" stroke-linejoin="round" stroke-miterlimit="10" d="
	M68.614,68.36c1.846-1.846,2.987-14.596,2.987-17.412c0-2.817-1.142-15.566-2.987-17.412c-1.846-1.846-14.596-2.987-17.412-2.987
	c-2.817,0-15.566,1.142-17.412,2.987c-1.846,1.846-2.987,14.596-2.987,17.412c0,2.817,1.142,15.566,2.987,17.412
	c1.846,1.846,14.596,2.987,17.412,2.987C54.018,71.348,66.768,70.206,68.614,68.36z"/>
<path opacity="0.6" fill="none" stroke="#06475E" stroke-width="3" stroke-linecap="round" stroke-linejoin="round" stroke-miterlimit="10" d="
	M58.317,58.063c2.769-2.769,4.481-11.694,4.481-15.918s-1.712-13.15-4.481-15.918s-11.694-4.481-15.918-4.481
	s-13.15,1.712-15.918,4.481s-4.481,11.694-4.481,15.918s1.712,13.15,4.481,15.918s11.694,4.481,15.918,4.481
	S55.548,60.832,58.317,58.063z"/>
<path fill="none" stroke="#06475E" stroke-width="3" stroke-linecap="round" stroke-linejoin="round" stroke-miterlimit="10" d="
	M13.195,33.341c0,5.633,2.283,10.733,5.975,14.425c3.692,3.692,8.792,5.975,14.425,5.975c5.633,0,10.733-2.283,14.425-5.975
	c3.692-3.692,5.975-8.792,5.975-14.425s-2.283-10.733-5.975-14.425c-3.692-3.692-8.792-5.975-14.425-5.975
	c-5.633,0-10.733,2.283-14.425,5.975S13.195,27.708,13.195,33.341z"/>
</svg>
