<?xml version="1.0" encoding="utf-8"?>
<!-- Generator: Adobe Illustrator 17.0.2, SVG Export Plug-In . SVG Version: 6.00 Build 0)  -->
<!DOCTYPE svg PUBLIC "-//W3C//DTD SVG 1.1//EN" "http://www.w3.org/Graphics/SVG/1.1/DTD/svg11.dtd">
<svg version="1.1" id="Layer_1" xmlns="http://www.w3.org/2000/svg" xmlns:xlink="http://www.w3.org/1999/xlink" x="0px" y="0px"
	 width="93.6px" height="93.6px" viewBox="0 0 93.6 93.6" enable-background="new 0 0 93.6 93.6" xml:space="preserve">
<path fill="none" stroke="#06475E" stroke-width="3" stroke-linecap="round" stroke-linejoin="round" stroke-miterlimit="10" d="
	M78.982,24.014c0.103-0.354-0.174-0.405-0.421-0.489c-10.551-3.596-21.101-7.195-31.657-10.777
	c-0.291-0.099-0.678-0.096-0.968,0.007c-10.234,3.632-20.461,7.284-30.692,10.922c-0.421,0.15-0.665,0.302-0.517,0.807
	c0.094,0.319,0.086,0.667,0.124,1.003c0.494,4.309,0.984,8.618,1.482,12.926c0.498,4.308,1.004,8.616,1.504,12.924
	c0.546,4.707,1.092,9.414,1.623,14.123c0.039,0.345,0.169,0.537,0.467,0.702c8.689,4.808,17.374,9.624,26.054,14.447
	c0.319,0.177,0.561,0.185,0.884,0.006c8.458-4.692,16.923-9.374,25.386-14.058c1.546-0.856,1.518-0.861,1.727-2.599
	c0.452-3.748,0.935-7.492,1.405-11.237c0.464-3.698,0.926-7.396,1.39-11.094c0.468-3.73,0.937-7.459,1.405-11.189
	C78.446,28.304,78.712,26.168,78.982,24.014z"/>
<g>
	<path fill="none" stroke="#06475E" stroke-width="3" stroke-linecap="round" stroke-linejoin="round" stroke-miterlimit="10" d="
		M46.841,20.713c-6.39,14.217-12.741,28.346-19.107,42.512c0.152,0.018,0.219,0.035,0.286,0.033c2.157-0.04,4.313-0.089,6.47-0.118
		c0.335-0.004,0.472-0.14,0.59-0.438c1.151-2.915,2.324-5.821,3.474-8.736c0.127-0.322,0.289-0.424,0.63-0.419
		c2.666,0.036,5.332,0.072,7.999,0.069c2.71-0.003,5.421-0.041,8.131-0.087c0.384-0.006,0.55,0.124,0.696,0.466
		c1.266,2.969,2.554,5.929,3.829,8.894c0.094,0.218,0.177,0.363,0.463,0.365c2.005,0.016,4.01,0.054,6.015,0.084
		c0.133,0.002,0.266,0,0.491,0C60.142,49.11,53.514,34.959,46.841,20.713z M41.283,47.788c1.873-4.444,3.724-8.836,5.625-13.347
		c2.157,4.506,4.259,8.9,6.387,13.347C49.277,47.788,45.322,47.788,41.283,47.788z"/>
</g>
</svg>
