<?xml version="1.0" encoding="utf-8"?>
<!-- Generator: Adobe Illustrator 17.0.2, SVG Export Plug-In . SVG Version: 6.00 Build 0)  -->
<!DOCTYPE svg PUBLIC "-//W3C//DTD SVG 1.1//EN" "http://www.w3.org/Graphics/SVG/1.1/DTD/svg11.dtd">
<svg version="1.1" id="Layer_1" xmlns="http://www.w3.org/2000/svg" xmlns:xlink="http://www.w3.org/1999/xlink" x="0px" y="0px"
	 width="379.533px" height="347.572px" viewBox="180.159 66.759 379.533 347.572"
	 enable-background="new 180.159 66.759 379.533 347.572" xml:space="preserve">
<rect x="180.159" y="66.759" fill="#02698B" width="379.533" height="347.572"/>
<path fill="none" stroke="#FFFFFF" stroke-width="3" stroke-miterlimit="10" d="M456.264,183.486
	c0.278-0.95-0.467-1.087-1.132-1.314c-28.345-9.66-56.687-19.33-85.045-28.951c-0.782-0.265-1.821-0.257-2.599,0.02
	c-27.493,9.757-54.966,19.568-82.454,29.34c-1.132,0.402-1.787,0.812-1.389,2.169c0.251,0.857,0.23,1.793,0.333,2.694
	c1.326,11.576,2.644,23.152,3.981,34.726c1.337,11.574,2.698,23.146,4.04,34.72c1.466,12.646,2.935,25.291,4.36,37.941
	c0.105,0.928,0.453,1.443,1.255,1.887c23.342,12.918,46.673,25.854,69.993,38.812c0.856,0.476,1.507,0.498,2.375,0.016
	c22.723-12.606,45.462-25.183,68.198-37.767c4.152-2.298,4.077-2.312,4.64-6.982c1.214-10.068,2.511-20.126,3.773-30.188
	c1.246-9.934,2.489-19.869,3.735-29.803c1.257-10.02,2.518-20.039,3.775-30.058C454.825,195.01,455.54,189.272,456.264,183.486z"/>
<g>
	<path fill="none" stroke="#FFFFFF" stroke-width="3" stroke-miterlimit="10" d="M369.92,174.617
		c-17.166,38.193-34.227,76.151-51.331,114.206c0.408,0.049,0.589,0.093,0.769,0.09c5.794-0.109,11.587-0.24,17.382-0.316
		c0.9-0.012,1.268-0.375,1.584-1.177c3.092-7.83,6.243-15.637,9.332-23.468c0.341-0.864,0.776-1.138,1.692-1.125
		c7.162,0.098,14.325,0.193,21.488,0.186c7.281-0.008,14.562-0.111,21.842-0.234c1.031-0.017,1.477,0.333,1.869,1.253
		c3.401,7.977,6.861,15.928,10.286,23.894c0.252,0.586,0.474,0.975,1.245,0.982c5.386,0.044,10.772,0.145,16.158,0.226
		c0.358,0.005,0.715,0.001,1.32,0.001C405.652,250.905,387.846,212.889,369.92,174.617z M354.99,247.353
		c5.032-11.939,10.005-23.738,15.112-35.855c5.793,12.106,11.443,23.91,17.159,35.855
		C376.465,247.353,365.838,247.353,354.99,247.353z"/>
</g>
<rect x="180.159" y="66.759" opacity="0.1" fill="#FFFFFF" enable-background="new    " width="189.767" height="347.572"/>
</svg>
