<?xml version="1.0" encoding="utf-8"?>
<!-- Generator: Adobe Illustrator 17.0.2, SVG Export Plug-In . SVG Version: 6.00 Build 0)  -->
<!DOCTYPE svg PUBLIC "-//W3C//DTD SVG 1.1//EN" "http://www.w3.org/Graphics/SVG/1.1/DTD/svg11.dtd">
<svg version="1.1" id="Layer_1" xmlns="http://www.w3.org/2000/svg" xmlns:xlink="http://www.w3.org/1999/xlink" x="0px" y="0px"
	 width="792px" height="520px" viewBox="0 46 792 520" enable-background="new 0 46 792 520" xml:space="preserve">
<g>
	<g opacity="0.2">
		<path fill="#231F20" d="M701.712,178.035c19.347,74.335,38.808,148.783,58.155,223.118c1.584,5.883-4.752,6.675-13.577,2.942
			C545.122,317.88,343.954,521.877,142.786,509.544c14.482-113.369,28.851-226.738,43.334-340.107
			C357.984,209.942,529.848,60.706,701.712,178.035z"/>
		<path fill="#231F20" d="M216.782,174.867c-12.333,111.559-24.778,223.231-37.111,334.79
			c47.746-2.942,95.379-16.179,143.126-33.151c4.413-102.847,8.712-205.694,13.125-308.427
			C296.095,175.207,256.382,179.28,216.782,174.867z"/>
		<path fill="#231F20" d="M99.226,130.855c-19.46,111.559-38.808,223.118-58.155,334.676c-1.584,8.712,4.752,19.8,13.577,23.534
			c41.637,17.877,83.273,23.194,124.91,20.705c12.333-111.559,24.778-223.231,37.111-334.79
			C177.521,170.455,138.374,157.557,99.226,130.855z"/>
		<path fill="#231F20" d="M236.808,212.431c24.552,0.226,49.104-2.263,73.656-6.449c-0.113,2.263-0.226,4.526-0.339,6.902
			c-24.665,4.299-49.33,6.902-73.995,6.789C236.355,217.183,236.582,214.807,236.808,212.431z"/>
		<path fill="#231F20" d="M313.293,212.318c-0.113,1.471-1.584,3.055-3.394,3.281c-24.665,4.299-49.443,7.015-74.109,6.902
			c-1.81,0-3.168-1.358-2.942-2.942c0.226-2.376,0.453-4.865,0.679-7.241c0.113-1.584,1.697-2.829,3.507-2.829
			c24.552,0.339,48.991-2.263,73.543-6.336c1.81-0.339,3.168,0.679,3.055,2.15C313.519,207.679,313.406,209.942,313.293,212.318z"/>
		<path fill="#231F20" d="M231.264,269.229c26.362-0.566,52.725-4.413,79.2-9.843c-0.113,2.263-0.226,4.526-0.339,6.902
			c-26.475,5.544-52.951,9.504-79.539,10.183C230.698,273.981,230.925,271.605,231.264,269.229z"/>
		<path fill="#231F20" d="M313.406,265.495c-0.113,1.471-1.697,3.055-3.507,3.507c-26.589,5.657-53.064,9.617-79.653,10.296
			c-1.81,0-3.281-1.245-3.055-2.829c0.226-2.376,0.453-4.865,0.679-7.241c0.113-1.584,1.81-2.942,3.621-2.942
			c26.362-0.566,52.725-4.299,79.087-9.73c1.81-0.339,3.281,0.566,3.168,2.037C313.632,260.969,313.519,263.232,313.406,265.495z"/>
		<path fill="#231F20" d="M233.979,241.282c21.497-0.113,42.994-2.376,64.491-5.997c-0.113,2.263-0.339,4.639-0.453,6.902
			c-21.61,3.734-43.221,6.11-64.831,6.336C233.527,246.034,233.753,243.658,233.979,241.282z"/>
		<path fill="#231F20" d="M301.413,241.622c-0.113,1.471-1.697,3.055-3.507,3.394c-21.61,3.734-43.334,6.11-64.944,6.449
			c-1.81,0-3.168-1.245-3.055-2.829c0.226-2.376,0.453-4.865,0.679-7.241c0.113-1.584,1.81-2.829,3.621-2.942
			c21.497-0.113,42.994-2.376,64.378-5.883c1.81-0.339,3.168,0.679,3.168,2.15C301.639,236.983,301.526,239.246,301.413,241.622z"/>
		<path fill="#231F20" d="M228.435,297.062c19.913-0.792,39.939-3.281,59.853-7.015c-0.113,2.263-0.339,4.639-0.453,6.902
			c-20.026,3.847-40.053,6.449-60.079,7.241C227.983,301.927,228.209,299.551,228.435,297.062z"/>
		<path fill="#231F20" d="M291.23,296.383c-0.113,1.584-1.697,3.055-3.621,3.394c-20.026,3.847-40.166,6.562-60.192,7.354
			c-1.923,0.113-3.281-1.131-3.168-2.715c0.226-2.376,0.453-4.865,0.679-7.241c0.113-1.584,1.81-2.942,3.734-3.055
			c19.913-0.792,39.826-3.281,59.739-6.902c1.923-0.339,3.281,0.566,3.168,2.15C291.569,291.744,291.456,294.12,291.23,296.383z"/>
		<path fill="#231F20" d="M223.005,352.954c25.344-1.697,50.575-6.223,75.919-12.333c-0.113,2.263-0.226,4.639-0.453,6.902
			c-25.457,6.223-50.801,10.862-76.145,12.672C222.552,357.819,222.778,355.33,223.005,352.954z"/>
		<path fill="#231F20" d="M301.978,346.618c-0.113,1.471-1.697,3.168-3.734,3.621c-25.457,6.223-50.914,10.862-76.371,12.785
			c-1.923,0.113-3.394-1.018-3.281-2.602c0.226-2.376,0.453-4.865,0.679-7.241c0.113-1.584,1.81-2.942,3.847-3.055
			c25.231-1.697,50.575-6.11,75.806-12.219c1.923-0.453,3.394,0.339,3.394,1.923C302.318,342.093,302.091,344.355,301.978,346.618z"
			/>
		<path fill="#231F20" d="M225.72,325.008c22.629-1.245,45.144-4.639,67.773-9.504c-0.113,2.263-0.339,4.639-0.453,6.902
			c-22.629,4.978-45.37,8.486-67.999,9.843C225.267,329.873,225.494,327.497,225.72,325.008z"/>
		<path fill="#231F20" d="M296.547,321.727c-0.113,1.471-1.697,3.168-3.621,3.507c-22.742,4.978-45.37,8.599-68.112,9.957
			c-1.923,0.113-3.394-1.131-3.168-2.715c0.226-2.376,0.453-4.865,0.679-7.241c0.113-1.584,1.81-2.942,3.734-3.055
			c22.515-1.131,45.031-4.639,67.659-9.391c1.923-0.453,3.394,0.453,3.281,2.037C296.774,317.088,296.661,319.351,296.547,321.727z"
			/>
		<path fill="#231F20" d="M220.289,380.901c20.931-1.697,41.75-5.318,62.681-10.07c-0.113,2.263-0.339,4.639-0.453,6.902
			c-20.931,4.865-41.976,8.599-62.907,10.409C219.837,385.653,220.063,383.277,220.289,380.901z"/>
		<path fill="#231F20" d="M286.138,376.827c-0.113,1.584-1.81,3.168-3.734,3.621c-21.045,4.978-42.089,8.599-63.021,10.522
			c-2.037,0.226-3.507-1.018-3.281-2.602c0.226-2.376,0.453-4.865,0.679-7.241c0.113-1.584,1.923-3.055,3.847-3.168
			c20.818-1.697,41.75-5.205,62.568-10.07c1.923-0.453,3.507,0.453,3.394,1.923C286.365,372.189,286.251,374.565,286.138,376.827z"
			/>
		<path fill="#231F20" d="M214.745,436.68c26.475-2.942,52.951-8.712,79.426-16.179c-0.113,2.263-0.226,4.639-0.453,6.902
			c-26.589,7.581-53.177,13.464-79.766,16.519C214.293,441.545,214.519,439.169,214.745,436.68z"/>
		<path fill="#231F20" d="M297.453,426.384c-0.113,1.471-1.81,3.281-3.847,3.847c-26.589,7.581-53.177,13.577-79.879,16.632
			c-2.037,0.226-3.621-0.905-3.394-2.489c0.226-2.376,0.453-4.865,0.679-7.241c0.113-1.584,1.923-3.055,3.96-3.281
			c26.475-2.829,52.838-8.599,79.313-16.066c2.037-0.566,3.621,0.226,3.507,1.697C297.679,421.745,297.566,424.008,297.453,426.384z
			"/>
		<path fill="#231F20" d="M217.461,408.847c23.647-2.263,47.294-6.902,70.941-13.011c-0.113,2.263-0.339,4.639-0.453,6.902
			c-23.76,6.223-47.407,10.862-71.167,13.238C217.008,413.599,217.234,411.223,217.461,408.847z"/>
		<path fill="#231F20" d="M291.682,401.832c-0.113,1.471-1.81,3.168-3.847,3.734c-23.76,6.223-47.52,10.975-71.28,13.351
			c-2.037,0.226-3.507-0.905-3.394-2.489c0.226-2.376,0.453-4.865,0.679-7.241c0.113-1.584,1.923-3.055,3.96-3.168
			c23.647-2.263,47.181-6.789,70.827-12.898c2.037-0.453,3.507,0.339,3.394,1.81C291.909,397.193,291.795,399.456,291.682,401.832z"
			/>
		<path fill="#231F20" d="M132.603,191.386c12.672,5.544,25.344,9.957,38.016,13.125c-1.923,14.369-3.847,28.851-5.77,43.221
			c-13.011-3.055-25.91-7.128-38.921-12.559C128.078,220.69,130.341,205.982,132.603,191.386z"/>
		<path fill="#231F20" d="M168.017,248.523c-0.226,2.037-1.923,3.281-3.734,2.829c-13.011-3.055-26.023-7.128-39.034-12.446
			c-1.81-0.792-2.942-3.055-2.715-4.978c2.263-14.595,4.526-29.304,6.789-43.899c0.339-2.037,2.037-3.055,3.734-2.263
			c12.672,5.544,25.231,9.957,37.903,13.238c1.697,0.453,2.942,2.376,2.715,4.413C171.864,219.785,169.941,234.154,168.017,248.523z
			"/>
		<path fill="#231F20" d="M686.438,152.465c0,0-0.113-0.113-0.226-0.113c-0.339-0.226-0.566-0.453-0.905-0.679
			c-0.113-0.113-0.339-0.226-0.453-0.339c-0.226-0.113-0.453-0.339-0.679-0.453s-0.453-0.339-0.679-0.453l0,0
			c-188.722-117.103-377.445,77.955-566.28-39.374l0,0c-0.226-0.113-0.453-0.226-0.679-0.339s-0.453-0.226-0.679-0.339
			c-0.113-0.113-0.339-0.113-0.453-0.226c-0.339-0.113-0.566-0.226-0.905-0.339c-0.113,0-0.113,0-0.226,0
			c-6.11-2.15-11.654,1.018-13.011,8.599c-0.679,4.186-1.471,8.259-2.15,12.446c200.942,137.016,401.77-89.835,602.599,47.294
			c-0.679-2.715-1.471-5.544-2.15-8.259C698.318,164.798,692.547,157.33,686.438,152.465z"/>
		<path fill="#231F20" d="M118.8,128.026c-0.339,2.15-2.15,3.055-3.96,1.923c-1.81-1.131-2.942-3.734-2.602-5.883
			c0.339-2.15,2.15-2.942,3.96-1.923C117.895,123.274,119.139,125.877,118.8,128.026z"/>
		<path fill="#231F20" d="M128.87,133.797c-0.339,2.15-2.037,3.168-3.847,2.15s-2.942-3.621-2.602-5.77
			c0.339-2.15,2.15-3.055,3.847-2.037C128.078,129.045,129.209,131.647,128.87,133.797z"/>
		<path fill="#231F20" d="M139.053,138.888c-0.339,2.15-2.037,3.168-3.847,2.263s-3.055-3.394-2.715-5.544
			c0.339-2.15,2.037-3.168,3.847-2.263S139.392,136.738,139.053,138.888z"/>
		<path fill="none" stroke="#231F20" stroke-width="3" stroke-linecap="round" stroke-miterlimit="10" d="M122.307,250.56
			c13.464,5.544,26.928,9.73,40.392,12.785"/>
		<path fill="none" stroke="#231F20" stroke-width="3" stroke-linecap="round" stroke-miterlimit="10" d="M120.61,261.195
			c17.311,7.015,34.622,11.88,51.933,14.822"/>
		<path fill="#231F20" d="M116.537,296.609c13.464,5.091,26.815,8.938,40.279,11.654c-1.923,14.369-3.847,28.851-5.77,43.221
			c-13.69-2.489-27.494-6.11-41.184-10.975C112.011,325.913,114.274,311.205,116.537,296.609z"/>
		<path fill="#231F20" d="M154.44,352.049c-0.226,2.037-2.037,3.394-3.96,3.055c-13.803-2.489-27.494-5.997-41.297-10.975
			c-1.923-0.679-3.168-2.942-2.829-4.865c2.263-14.595,4.526-29.304,6.789-43.899c0.339-2.037,2.037-3.055,3.96-2.376
			c13.351,5.091,26.815,8.938,40.166,11.767c1.81,0.339,3.168,2.263,2.829,4.299C158.174,323.311,156.363,337.68,154.44,352.049z"/>
		<path fill="#231F20" d="M649.101,301.248c0.226,1.471-1.131,2.376-3.055,2.15c-69.47-8.259-138.939,10.975-208.409,34.282
			c-1.923,0.679-3.507-0.113-3.621-1.81c-0.905-43.899-1.81-87.799-2.715-131.585c0-1.697,1.358-3.394,3.168-3.847
			c63.473-15.953,126.946-28.059,190.419-14.935c1.81,0.339,3.394,1.81,3.734,3.281C635.41,226.234,642.199,263.685,649.101,301.248
			z"/>
		<path fill="none" stroke="#231F20" stroke-width="3" stroke-linecap="round" stroke-miterlimit="10" d="M106.241,354.878
			c14.256,5.091,28.512,8.825,42.768,11.201"/>
		<path fill="none" stroke="#231F20" stroke-width="3" stroke-linecap="round" stroke-miterlimit="10" d="M104.657,365.513
			c18.329,6.449,36.545,10.635,54.874,12.785"/>
		<path fill="#231F20" d="M100.584,400.814c14.143,4.752,28.399,8.033,42.542,10.183c-1.923,14.369-3.847,28.851-5.77,43.221
			c-14.482-1.923-28.965-4.978-43.447-9.504C96.058,430.118,98.321,415.522,100.584,400.814z"/>
		<path fill="#231F20" d="M140.976,454.67c-0.226,2.037-2.15,3.394-4.073,3.168c-14.482-1.923-29.078-4.978-43.56-9.504
			c-2.037-0.566-3.394-2.829-3.055-4.865c2.263-14.595,4.526-29.304,6.789-43.899c0.339-2.037,2.15-3.055,4.073-2.489
			c14.143,4.752,28.286,8.033,42.429,10.183c1.923,0.339,3.281,2.15,3.055,4.073C144.71,425.931,142.899,440.301,140.976,454.67z"/>
		<path fill="none" stroke="#231F20" stroke-width="3" stroke-linecap="round" stroke-miterlimit="10" d="M90.288,459.082
			c15.048,4.639,30.096,7.807,45.144,9.73"/>
		<path fill="none" stroke="#231F20" stroke-width="3" stroke-linecap="round" stroke-miterlimit="10" d="M88.704,469.831
			c19.234,5.883,38.582,9.278,57.816,10.749"/>
		<path fill="#231F20" d="M410.03,368.907c89.157-32.019,178.313-62.229,267.47-42.768c0.339,1.697,0.679,3.507,1.018,5.205
			c-89.496-19.234-178.992,11.427-268.488,43.786C410.03,373.094,410.03,370.944,410.03,368.907z"/>
		<path fill="#231F20" d="M682.138,332.136c0.226,1.131-1.245,1.697-3.281,1.245c-89.609-19.234-179.218,11.654-268.827,44.239
			c-2.037,0.792-3.621,0.226-3.734-1.245c0-2.15,0-4.186,0-6.336c0-1.358,1.584-3.168,3.621-3.847
			c89.043-31.793,177.974-61.889,267.017-42.315c2.037,0.453,3.847,1.81,4.073,2.942
			C681.459,328.742,681.799,330.439,682.138,332.136z"/>
		<path fill="#231F20" d="M472.032,356.009c-20.705,6.789-41.297,14.143-62.002,21.723c-2.037,0.792-3.621,0.226-3.734-1.245
			c0-2.15,0-4.186,0-6.336c0-1.358,1.584-3.168,3.621-3.847c20.479-7.354,41.071-14.595,61.55-21.158
			C471.693,348.768,471.919,352.389,472.032,356.009z"/>
		<path fill="none" stroke="#231F20" stroke-width="3" stroke-linecap="round" stroke-miterlimit="10" d="M471.579,345.147
			c0.113,3.507,0.339,7.015,0.453,10.522"/>
	</g>
	<g>
		<path fill="#EBEBEB" d="M701.712,169.889c19.347,74.335,38.808,148.783,58.155,223.118c1.584,5.883-4.752,6.675-13.577,2.942
			C545.122,309.734,343.954,513.73,142.786,501.398c14.482-113.369,28.851-226.738,43.334-340.107
			C357.984,201.795,529.848,52.56,701.712,169.889z"/>
		<path fill="#FFFFFF" d="M216.782,166.721c-12.333,111.559-24.778,223.231-37.111,334.79
			c47.746-2.942,95.379-16.179,143.126-33.151c4.413-102.847,8.712-205.694,13.125-308.427
			C296.095,167.061,256.382,171.134,216.782,166.721z"/>
		<path fill="#EBEBEB" d="M99.226,122.709C79.879,234.267,60.418,345.826,41.071,457.385c-1.584,8.712,4.752,19.8,13.577,23.534
			c41.637,17.877,83.273,23.194,124.91,20.705c12.333-111.559,24.778-223.231,37.111-334.79
			C177.521,162.309,138.374,149.41,99.226,122.709z"/>
		<g>
			<path fill="#EBEBEB" d="M236.808,204.285c24.552,0.226,49.104-2.263,73.656-6.449c-0.113,2.263-0.226,4.526-0.339,6.902
				c-24.665,4.299-49.33,6.902-73.995,6.789C236.355,209.037,236.582,206.661,236.808,204.285z"/>
			<path fill="#EBEBEB" d="M313.293,204.171c-0.113,1.471-1.584,3.055-3.394,3.281c-24.665,4.299-49.443,7.015-74.109,6.902
				c-1.81,0-3.168-1.358-2.942-2.942c0.226-2.376,0.453-4.865,0.679-7.241c0.113-1.584,1.697-2.829,3.507-2.829
				c24.552,0.339,48.991-2.263,73.543-6.336c1.81-0.339,3.168,0.679,3.055,2.15C313.519,199.533,313.406,201.795,313.293,204.171z"
				/>
		</g>
		<g>
			<path fill="#EBEBEB" d="M231.264,261.082c26.362-0.566,52.725-4.413,79.2-9.843c-0.113,2.263-0.226,4.526-0.339,6.902
				c-26.475,5.544-52.951,9.504-79.539,10.183C230.698,265.834,230.925,263.458,231.264,261.082z"/>
			<path fill="#EBEBEB" d="M313.406,257.349c-0.113,1.471-1.697,3.055-3.507,3.507c-26.589,5.657-53.064,9.617-79.653,10.296
				c-1.81,0-3.281-1.245-3.055-2.829c0.226-2.376,0.453-4.865,0.679-7.241c0.113-1.584,1.81-2.942,3.621-2.942
				c26.362-0.566,52.725-4.299,79.087-9.73c1.81-0.339,3.281,0.566,3.168,2.037C313.632,252.823,313.519,255.086,313.406,257.349z"
				/>
		</g>
		<g>
			<path fill="#EBEBEB" d="M233.979,233.136c21.497-0.113,42.994-2.376,64.491-5.997c-0.113,2.263-0.339,4.639-0.453,6.902
				c-21.61,3.734-43.221,6.11-64.831,6.336C233.527,237.888,233.753,235.512,233.979,233.136z"/>
			<path fill="#EBEBEB" d="M301.413,233.475c-0.113,1.471-1.697,3.055-3.507,3.394c-21.61,3.734-43.334,6.11-64.944,6.449
				c-1.81,0-3.168-1.245-3.055-2.829c0.226-2.376,0.453-4.865,0.679-7.241c0.113-1.584,1.81-2.829,3.621-2.942
				c21.497-0.113,42.994-2.376,64.378-5.883c1.81-0.339,3.168,0.679,3.168,2.15C301.639,228.837,301.526,231.099,301.413,233.475z"
				/>
		</g>
		<g>
			<path fill="#EBEBEB" d="M228.435,288.915c19.913-0.792,39.939-3.281,59.853-7.015c-0.113,2.263-0.339,4.639-0.453,6.902
				c-20.026,3.847-40.053,6.449-60.079,7.241C227.983,293.781,228.209,291.405,228.435,288.915z"/>
			<path fill="#EBEBEB" d="M291.23,288.237c-0.113,1.584-1.697,3.055-3.621,3.394c-20.026,3.847-40.166,6.562-60.192,7.354
				c-1.923,0.113-3.281-1.131-3.168-2.715c0.226-2.376,0.453-4.865,0.679-7.241c0.113-1.584,1.81-2.942,3.734-3.055
				c19.913-0.792,39.826-3.281,59.739-6.902c1.923-0.339,3.281,0.566,3.168,2.15C291.569,283.598,291.456,285.974,291.23,288.237z"
				/>
		</g>
		<g>
			<path fill="#EBEBEB" d="M223.005,344.808c25.344-1.697,50.575-6.223,75.919-12.333c-0.113,2.263-0.226,4.639-0.453,6.902
				c-25.457,6.223-50.801,10.862-76.145,12.672C222.552,349.673,222.778,347.184,223.005,344.808z"/>
			<path fill="#EBEBEB" d="M301.978,338.472c-0.113,1.471-1.697,3.168-3.734,3.621c-25.457,6.223-50.914,10.862-76.371,12.785
				c-1.923,0.113-3.394-1.018-3.281-2.602c0.226-2.376,0.453-4.865,0.679-7.241c0.113-1.584,1.81-2.942,3.847-3.055
				c25.231-1.697,50.575-6.11,75.806-12.219c1.923-0.453,3.394,0.339,3.394,1.923C302.318,333.946,302.091,336.209,301.978,338.472z
				"/>
		</g>
		<g>
			<path fill="#EBEBEB" d="M225.72,316.862c22.629-1.245,45.144-4.639,67.773-9.504c-0.113,2.263-0.339,4.639-0.453,6.902
				c-22.629,4.978-45.37,8.486-67.999,9.843C225.267,321.727,225.494,319.351,225.72,316.862z"/>
			<path fill="#EBEBEB" d="M296.547,313.581c-0.113,1.471-1.697,3.168-3.621,3.507c-22.742,4.978-45.37,8.599-68.112,9.957
				c-1.923,0.113-3.394-1.131-3.168-2.715c0.226-2.376,0.453-4.865,0.679-7.241c0.113-1.584,1.81-2.942,3.734-3.055
				c22.515-1.131,45.031-4.639,67.659-9.391c1.923-0.453,3.394,0.453,3.281,2.037C296.774,308.942,296.661,311.205,296.547,313.581z
				"/>
		</g>
		<g>
			<path fill="#EBEBEB" d="M220.289,372.754c20.931-1.697,41.75-5.318,62.681-10.07c-0.113,2.263-0.339,4.639-0.453,6.902
				c-20.931,4.865-41.976,8.599-62.907,10.409C219.837,377.506,220.063,375.13,220.289,372.754z"/>
			<path fill="#EBEBEB" d="M286.138,368.681c-0.113,1.584-1.81,3.168-3.734,3.621c-21.045,4.978-42.089,8.599-63.021,10.522
				c-2.037,0.226-3.507-1.018-3.281-2.602c0.226-2.376,0.453-4.865,0.679-7.241c0.113-1.584,1.923-3.055,3.847-3.168
				c20.818-1.697,41.75-5.205,62.568-10.07c1.923-0.453,3.507,0.453,3.394,1.923C286.365,364.042,286.251,366.418,286.138,368.681z"
				/>
		</g>
		<g>
			<path fill="#EBEBEB" d="M214.745,428.534c26.475-2.942,52.951-8.712,79.426-16.179c-0.113,2.263-0.226,4.639-0.453,6.902
				c-26.589,7.581-53.177,13.464-79.766,16.519C214.293,433.399,214.519,431.023,214.745,428.534z"/>
			<path fill="#EBEBEB" d="M297.453,418.238c-0.113,1.471-1.81,3.281-3.847,3.847c-26.589,7.581-53.177,13.577-79.879,16.632
				c-2.037,0.226-3.621-0.905-3.394-2.489c0.226-2.376,0.453-4.865,0.679-7.241c0.113-1.584,1.923-3.055,3.96-3.281
				c26.475-2.829,52.838-8.599,79.313-16.066c2.037-0.566,3.621,0.226,3.507,1.697C297.679,413.599,297.566,415.862,297.453,418.238
				z"/>
		</g>
		<g>
			<path fill="#EBEBEB" d="M217.461,400.701c23.647-2.263,47.294-6.902,70.941-13.011c-0.113,2.263-0.339,4.639-0.453,6.902
				c-23.76,6.223-47.407,10.862-71.167,13.238C217.008,405.453,217.234,403.077,217.461,400.701z"/>
			<path fill="#EBEBEB" d="M291.682,393.686c-0.113,1.471-1.81,3.168-3.847,3.734c-23.76,6.223-47.52,10.975-71.28,13.351
				c-2.037,0.226-3.507-0.905-3.394-2.489c0.226-2.376,0.453-4.865,0.679-7.241c0.113-1.584,1.923-3.055,3.96-3.168
				c23.647-2.263,47.181-6.789,70.827-12.898c2.037-0.453,3.507,0.339,3.394,1.81C291.909,389.047,291.795,391.31,291.682,393.686z"
				/>
		</g>
		<g>
			<path fill="#EBEBEB" d="M132.603,183.24c12.672,5.544,25.344,9.957,38.016,13.125c-1.923,14.369-3.847,28.851-5.77,43.221
				c-13.011-3.055-25.91-7.128-38.921-12.559C128.078,212.544,130.341,197.835,132.603,183.24z"/>
			<path fill="#CFD5D6" d="M168.017,240.377c-0.226,2.037-1.923,3.281-3.734,2.829c-13.011-3.055-26.023-7.128-39.034-12.446
				c-1.81-0.792-2.942-3.055-2.715-4.978c2.263-14.595,4.526-29.304,6.789-43.899c0.339-2.037,2.037-3.055,3.734-2.263
				c12.672,5.544,25.231,9.957,37.903,13.238c1.697,0.453,2.942,2.376,2.715,4.413C171.864,211.639,169.941,226.008,168.017,240.377
				z"/>
		</g>
		<g>
			<path fill="#0D5E7D" d="M686.438,144.319c0,0-0.113-0.113-0.226-0.113c-0.339-0.226-0.566-0.453-0.905-0.679
				c-0.113-0.113-0.339-0.226-0.453-0.339c-0.226-0.113-0.453-0.339-0.679-0.453c-0.226-0.113-0.453-0.339-0.679-0.453l0,0
				c-188.722-117.103-377.445,77.955-566.28-39.374l0,0c-0.226-0.113-0.453-0.226-0.679-0.339s-0.453-0.226-0.679-0.339
				c-0.113-0.113-0.339-0.113-0.453-0.226c-0.339-0.113-0.566-0.226-0.905-0.339c-0.113,0-0.113,0-0.226,0
				c-6.11-2.15-11.654,1.018-13.011,8.599c-0.679,4.186-1.471,8.259-2.15,12.446c200.829,137.129,401.77-89.722,602.599,47.407
				c-0.679-2.715-1.471-5.544-2.15-8.259C698.318,156.651,692.547,149.184,686.438,144.319z"/>
		</g>
		<path fill="#EBEBEB" d="M118.8,119.88c-0.339,2.15-2.15,3.055-3.96,1.923c-1.81-1.131-2.942-3.734-2.602-5.883
			c0.339-2.15,2.15-2.942,3.96-1.923C117.895,115.128,119.139,117.73,118.8,119.88z"/>
		<path fill="#EBEBEB" d="M128.87,125.65c-0.339,2.15-2.037,3.168-3.847,2.15c-1.81-1.018-2.942-3.621-2.602-5.77
			c0.339-2.15,2.15-3.055,3.847-2.037C128.078,120.898,129.209,123.501,128.87,125.65z"/>
		<path fill="#EBEBEB" d="M139.053,130.742c-0.339,2.15-2.037,3.168-3.847,2.263s-3.055-3.394-2.715-5.544
			c0.339-2.15,2.037-3.168,3.847-2.263S139.392,128.592,139.053,130.742z"/>
		<path fill="none" stroke="#CFD5D6" stroke-width="4" stroke-linecap="round" stroke-linejoin="round" stroke-miterlimit="10" d="
			M122.307,242.414c13.464,5.544,26.928,9.73,40.392,12.785"/>
		<path fill="none" stroke="#CFD5D6" stroke-width="4" stroke-linecap="round" stroke-linejoin="round" stroke-miterlimit="10" d="
			M120.61,253.049c17.311,7.015,34.622,11.88,51.933,14.822"/>
		<g>
			<path fill="#EBEBEB" d="M116.537,288.463c13.464,5.091,26.815,8.938,40.279,11.654c-1.923,14.369-3.847,28.851-5.77,43.221
				c-13.69-2.489-27.494-6.11-41.184-10.975C112.011,317.767,114.274,303.058,116.537,288.463z"/>
			<path fill="#CFD5D6" d="M154.44,343.903c-0.226,2.037-2.037,3.394-3.96,3.055c-13.803-2.489-27.494-5.997-41.297-10.975
				c-1.923-0.679-3.168-2.942-2.829-4.865c2.263-14.595,4.526-29.304,6.789-43.899c0.339-2.037,2.037-3.055,3.96-2.376
				c13.351,5.091,26.815,8.938,40.166,11.767c1.81,0.339,3.168,2.263,2.829,4.299C158.174,315.165,156.363,329.534,154.44,343.903z"
				/>
		</g>
		<path fill="#CFD5D6" d="M649.101,293.102c0.226,1.471-1.131,2.376-3.055,2.15c-69.47-8.259-138.939,10.975-208.409,34.282
			c-1.923,0.679-3.507-0.113-3.621-1.81c-0.905-43.899-1.81-87.799-2.715-131.585c0-1.697,1.358-3.394,3.168-3.847
			c63.473-15.953,126.946-28.059,190.419-14.935c1.81,0.339,3.394,1.81,3.734,3.281C635.41,218.088,642.199,255.538,649.101,293.102
			z"/>
		<path fill="none" stroke="#CFD5D6" stroke-width="4" stroke-linecap="round" stroke-linejoin="round" stroke-miterlimit="10" d="
			M106.241,346.731c14.256,5.091,28.512,8.825,42.768,11.201"/>
		<path fill="none" stroke="#CFD5D6" stroke-width="4" stroke-linecap="round" stroke-linejoin="round" stroke-miterlimit="10" d="
			M104.657,357.367c18.329,6.449,36.545,10.635,54.874,12.785"/>
		<g>
			<path fill="#EBEBEB" d="M100.584,392.667c14.143,4.752,28.399,8.033,42.542,10.183c-1.923,14.369-3.847,28.851-5.77,43.221
				c-14.482-1.923-28.965-4.978-43.447-9.504C96.058,421.971,98.321,407.376,100.584,392.667z"/>
			<path fill="#CFD5D6" d="M140.976,446.523c-0.226,2.037-2.15,3.394-4.073,3.168c-14.482-1.923-29.078-4.978-43.56-9.504
				c-2.037-0.566-3.394-2.829-3.055-4.865c2.263-14.595,4.526-29.304,6.789-43.899c0.339-2.037,2.15-3.055,4.073-2.489
				c14.143,4.752,28.286,8.033,42.429,10.183c1.923,0.339,3.281,2.15,3.055,4.073C144.71,417.785,142.899,432.154,140.976,446.523z"
				/>
		</g>
		<path fill="none" stroke="#CFD5D6" stroke-width="4" stroke-linecap="round" stroke-linejoin="round" stroke-miterlimit="10" d="
			M90.288,450.936c15.048,4.639,30.096,7.807,45.144,9.73"/>
		<path fill="none" stroke="#CFD5D6" stroke-width="4" stroke-linecap="round" stroke-linejoin="round" stroke-miterlimit="10" d="
			M88.704,461.685c19.234,5.883,38.582,9.278,57.816,10.749"/>
		<path fill="#CFD5D6" d="M410.03,360.761c89.157-32.019,178.313-62.229,267.47-42.768c0.339,1.697,0.679,3.507,1.018,5.205
			c-89.496-19.234-178.992,11.427-268.488,43.786C410.03,364.947,410.03,362.798,410.03,360.761z"/>
		<path fill="#CFD5D6" d="M682.138,323.99c0.226,1.131-1.245,1.697-3.281,1.245C589.248,306,499.639,336.888,410.03,369.473
			c-2.037,0.792-3.621,0.226-3.734-1.245c0-2.15,0-4.186,0-6.336c0-1.358,1.584-3.168,3.621-3.847
			c89.043-31.793,177.974-61.889,267.017-42.315c2.037,0.453,3.847,1.81,4.073,2.942
			C681.459,320.595,681.799,322.293,682.138,323.99z"/>
		<g>
			<path fill="#0D5E7D" d="M472.032,347.863c-20.705,6.789-41.297,14.143-62.002,21.723c-2.037,0.792-3.621,0.226-3.734-1.245
				c0-2.15,0-4.186,0-6.336c0-1.358,1.584-3.168,3.621-3.847c20.479-7.354,41.071-14.595,61.55-21.158
				C471.693,340.622,471.919,344.242,472.032,347.863z"/>
			<path fill="none" stroke="#0D5E7D" stroke-width="3" stroke-linecap="round" stroke-miterlimit="10" d="M471.579,337.001
				c0.113,3.507,0.339,7.015,0.453,10.522"/>
		</g>
	</g>
</g>
</svg>
