<?xml version="1.0" encoding="utf-8"?>
<!-- Generator: Adobe Illustrator 17.0.2, SVG Export Plug-In . SVG Version: 6.00 Build 0)  -->
<!DOCTYPE svg PUBLIC "-//W3C//DTD SVG 1.1//EN" "http://www.w3.org/Graphics/SVG/1.1/DTD/svg11.dtd">
<svg version="1.1" id="Layer_1" xmlns="http://www.w3.org/2000/svg" xmlns:xlink="http://www.w3.org/1999/xlink" x="0px" y="0px"
	 width="862px" height="460px" viewBox="0 0 862 460" enable-background="new 0 0 862 460" xml:space="preserve">
<g>
	<path fill="#5C5B5D" d="M44.005,181.39c-14.184,0.087-24.238,10.812-24.238,10.812s-1.047-10.615,6.028-19.424
		c4.991-6.212,13.572-8.391,18.202-9.136C43.666,169.54,43.518,175.461,44.005,181.39z"/>
	<path fill="#4F4E51" d="M44.005,181.39c-14.184,0.087-24.238,10.812-24.238,10.812s5.755-17.413,23.926-19.404
		C43.683,175.659,43.77,178.523,44.005,181.39z"/>
	<path fill="#EAF7FE" d="M114.678,309.76c-6.159,3.025-8.536-0.216-8.536-0.216l0,0c-1.081,3.566,1.223,9.798,1.223,9.798
		c-6.95,0.359-9.975-1.478-9.975-1.478s-5.619-1.621-10.589-4.675c-1.059,2.144,0.985,7.219,0.985,7.219
		c-19.574-6.113-24.914-19.013-24.914-19.013c-3.06,1.918-3.56,6.878-3.56,6.878c-8.65-13.418-3.886-25.037-3.886-25.037
		l-4.369,2.243c-9.098-12.847-8.283-30.593-8.283-30.593c-3.842-0.12-8.605-2.981-8.605-2.981c3,0.41,4.82-0.433,5.916-1.44
		c-0.138-0.094-8.599-8.151-8.688-19.733l-5.254,1.595c1.063-8.46,3.667-16.685,8.182-23.999c0.34-0.55,0.187-1.078-0.167-1.423
		c-0.044-0.105-0.105-0.203-0.19-0.288l-3.206-3.185c-0.364-0.362-0.351-0.961,0.033-1.302c5.76-5.111,10.656-7.168,12.719-7.872
		c0.528-0.18,0.761-0.785,0.492-1.274c-3.18-5.772-6.382-15.898-7.063-18.108c-0.084-0.272-0.29-0.484-0.558-0.578
		c-2.816-0.988-19.023-7.154-30.713-22.016c-0.198-0.252-0.229-0.55-0.151-0.812c1.526,0.01,7.024-0.036,10.075-1.143
		c0,0-13.979-14.272-9.34-35.498c0.053-0.203,0.17-0.359,0.316-0.472c1.535,2.255,6.172,8.516,11.455,10.365
		c0,0-0.14-1.998-0.126-5.135c0.163-5.814,1.038-17.311,5.117-27.554c0.428-0.878,0.712-1.555,0.876-2.061
		c1.77-3.928,4.052-7.595,7.005-10.579c0,0,1.714,11.292,9.818,18.1c0,0,8.752-14.263,27.076-21.771c0,0-0.657,7.508,0.801,12.37
		c0,0,4.931-3.558,10.796-5.402c0,0-1.846,8.319,0,14.478c0,0,4.021-2.493,8.602-3.925c0,0-2.144,13.651,7.625,24.081
		c0.001,0.002,0.003,0.003,0.004,0.004c0.239,0.263,0.484,0.521,0.74,0.769l8.748,8.362c0.176,0.169,0.276,0.402,0.061,1.295v107.99
		l0.215,54.624C105.385,290.37,106.79,299.009,114.678,309.76z"/>
	<path opacity="0.2" fill="#A1D4E9" d="M112.551,318.13c-2.202,2.031-11.171,0.941-11.171,0.941V122.896l14.341,13.385
		C115.721,136.281,114.753,316.099,112.551,318.13z"/>
	<path fill="#CDEAF5" d="M80.263,224.076c0,0,3.728,18.639-5.024,26.905c0,0,6.436,1.531,11.183,8.752c0,0-2.107,1.135-3.079,2.593
		c0,0,4.052,5.835,5.673,10.211l5.024-2.593l4.052-32.253c0,0-5.835,5.673-12.804,4.538
		C85.288,242.228,86.098,230.721,80.263,224.076z"/>
	<path fill="#A1D4E9" d="M105.17,165.255c-1.17-1.105-4.277-3.452-6.069-3.983c0,0,1.714-4.877,3.831-5.245
		c0,0-12.146-13.963-20.593-14.558c0,0-6.934-14.565-10.949-20.198c0,0-15.248,2.802-30.372,18.351
		c-2.152-2.573-4.978-1.337-4.978-1.337l0.095,3.193c-4.832-1.471-7.301,1.525-7.301,1.525c2.311,0.497,5.563,4.402,5.563,4.402
		l0.624-0.819h0.001c-3.099,4.009-6.1,8.636-8.861,13.972c0,0,5.575,7.009,15.927,10.216c0,0,6.386,16.307,13.992,28.332
		c0,0,5.953-5.867,9.712-6.392c0,0,3.713,7.097,6.392,9.712c0,0,4.508-6.557,6.292-8.107c0,0,3.999,4.31,8.037,6.133
		c0,0,1.055-10.92,3.391-15.945c0,0,3.616,0.869,5.994,3.237c0,0,4.825-9.855,3.529-17.073c0,0,3.573-1.076,5.743-1.296V165.255z"/>
	
		<ellipse transform="matrix(-0.4049 -0.9144 0.9144 -0.4049 -43.9278 270.2678)" fill="#85C1CE" cx="65.984" cy="149.428" rx="6.803" ry="5.375"/>
	
		<ellipse transform="matrix(-0.4049 -0.9144 0.9144 -0.4049 -44.2453 267.0251)" fill="#FFFFFF" cx="64.77" cy="147.91" rx="6.698" ry="5.292"/>
	<path fill="#4F4E51" d="M67.258,144.189c0.105,0.133,0.201,0.278,0.274,0.444c0.382,0.863,0.13,1.81-0.564,2.117
		c-0.616,0.273-1.371-0.054-1.8-0.735c-0.165,0.693-0.1,1.5,0.241,2.27c0.707,1.597,2.322,2.431,3.606,1.862
		c1.284-0.569,1.752-2.324,1.044-3.922C69.495,144.95,68.35,144.164,67.258,144.189z"/>
	<path fill="#85C1CE" d="M53.925,135.315c0,0,4.321-5.132,10.662-5.698C64.587,129.617,56.433,125.241,53.925,135.315z"/>
	
		<ellipse transform="matrix(-0.4049 -0.9144 0.9144 -0.4049 -73.0169 275.0122)" fill="#85C1CE" cx="52.983" cy="161.267" rx="6.803" ry="5.375"/>
	
		<ellipse transform="matrix(-0.4049 -0.9144 0.9144 -0.4049 -73.3346 271.7694)" fill="#FFFFFF" cx="51.769" cy="159.748" rx="6.698" ry="5.292"/>
	<path fill="#4F4E51" d="M54.257,156.028c0.105,0.133,0.201,0.278,0.274,0.444c0.382,0.863,0.13,1.81-0.564,2.117
		c-0.616,0.273-1.371-0.054-1.8-0.735c-0.165,0.693-0.1,1.5,0.241,2.27c0.707,1.597,2.322,2.431,3.606,1.862
		s1.752-2.324,1.044-3.922C56.494,156.789,55.349,156.003,54.257,156.028z"/>
	<path fill="#85C1CE" d="M34.127,156.067c0,0,3.414-5.776,9.574-7.381C43.701,148.686,34.936,145.718,34.127,156.067z"/>
	<path fill="#CDEAF5" d="M105.17,202.525c-1.17,1.71-0.751,1.927-0.943,2.218c0,0-1.328-3.495-5.402-4.542
		c0,0-2.376,6.07,1.79,18.098c0,0-14.62-1.089-19.18-4.2c0,0-1.426,2.171-2.355,7.143c0,0-4.642-2.115-11.064-12.384
		c0,0-3.714,1.459-6.262,7.719c0,0-11.912-7.196-18.587-22.327l1.389-0.307c0,0,9.439,14.103,15.908,18.84
		c0,0,2.774-7.22,7.65-8.138c0,0,4.381,8.704,9.258,12.625c0,0,1.44-5.575,3.612-7.107c0,0,9.481,4.93,15.553,4.332
		c0,0-3.751-11.691,0.504-18.39c0,0,3.635-0.241,6.206,2.991c0,0,0.753-1.365,1.923-4.735
		C105.17,194.361,105.17,202.525,105.17,202.525z"/>
	<path fill="#747F83" d="M92.231,109.187c-5.722,2.78-9.412,8.382-11.542,12.733c1.484,4.27,3.957,8.622,7.702,11.119
		c1.801,1.201,3.69,1.969,5.64,2.519c1.141-0.095,1.794-0.301,1.804-0.431c0.044-0.563,0.275-2.345,0.275-2.345
		c1.333-16.321,16.397-25.117,16.397-25.117S102.362,104.268,92.231,109.187z"/>
	<path fill="#FFFFFF" d="M59.501,173.847c0,0-1.311-2.896-0.556-5.228c0,0,3.725,0.848,6.333,3.506
		C65.278,172.126,61.287,173.654,59.501,173.847z"/>
	<path fill="#5C5B5D" d="M112.507,107.665c0,0-21.924,2.051-25.429,24.373c0.42,0.357,0.854,0.697,1.312,1.002
		c1.585,1.057,3.241,1.769,4.943,2.302l-0.004,0.008c0.115,0.036,0.23-0.68,0.345-0.645c0.044,0.013,0.088-0.705,0.132-0.705
		c0.003,0,0.005,0,0.008,0c0.083,0,0.165,0.798,0.248,0.821c1.06-0.01,2.913,0.252,4.158-0.354c0,0-1.166-0.339-2.232-0.886
		c0.063-0.525,0.12-0.892,0.12-0.892C97.443,116.368,112.507,107.665,112.507,107.665z"/>
	<path fill="#4F4E51" d="M77.322,152.633c0.913-0.311,3.876,1.917,3.876,1.917c-0.826,2.048-3.167,5.454-5.914,8.595
		c0,0-7.013,7.769-16.658,11.011c0,0,13.017-0.792,24.296-18.548l1.81,1.281C82.431,151.151,77.322,152.633,77.322,152.633z"/>
	<path fill="#4F4E51" d="M38.622,163.604c0,0,4.052-9.732,13.702-12.631c0,0-0.013-16.335,17.076-19.51l-2.142,3.884l5.345,1.679
		c0,0-10.595,0.601-17.793,16.757c0,0-9.532,4.987-12.304,13.239C42.507,167.023,40.806,165.516,38.622,163.604z"/>
	<path fill="#747F83" d="M63.693,136.812c1.124-0.478,2.317-1.15,3.565-1.464l2.582-4.352
		c-17.089,3.175-19.809,17.334-19.809,17.334c-9.65,2.899-12.533,14.571-12.533,14.571c0.517,0.525,2.151,1.645,2.624,2.03
		c1.755-5.248,7.222-12.707,12.203-13.958C53.657,143.957,56.976,139.669,63.693,136.812z"/>
</g>
<ellipse opacity="0.3" fill="#ECECEC" cx="433.86" cy="393.893" rx="377.036" ry="13.273"/>
<rect x="265.849" y="32.941" fill="#08536B" width="496.365" height="42.027"/>
<rect x="105.199" y="32.941" fill="#9FAEB4" width="160.65" height="69.687"/>
<rect x="265.849" y="74.967" fill="#FFFFFF" width="496.365" height="319.402"/>
<g opacity="0.2">
	<rect x="287.449" y="50.452" fill="#ECECEC" width="88.674" height="7.004"/>
	<path fill="#ECECEC" d="M378.925,57.456c0,1.547-1.254,2.802-2.802,2.802h-88.674c-1.547,0-2.802-1.254-2.802-2.802v-7.004
		c0-1.547,1.254-2.802,2.802-2.802h88.674c1.547,0,2.802,1.254,2.802,2.802V57.456z M290.251,54.654h83.07v-1.401h-83.07V54.654z"/>
</g>
<g>
	<path fill="#ECECEC" d="M568.625,372.555c0,1.547-1.254,2.802-2.802,2.802H287.449c-1.547,0-2.802-1.254-2.802-2.802V351.43
		c0-1.547,1.254-2.802,2.802-2.802h278.374c1.547,0,2.802,1.254,2.802,2.802V372.555z"/>
</g>
<g>
	<path fill="#096A8C" d="M646.743,372.555c0,1.547-1.254,2.802-2.802,2.802h-63.006c-1.547,0-2.802-1.254-2.802-2.802V351.43
		c0-1.547,1.254-2.802,2.802-2.802h63.006c1.547,0,2.802,1.254,2.802,2.802V372.555z"/>
</g>
<rect x="665.983" y="74.967" fill="#ECECEC" width="96.231" height="319.402"/>
<rect x="105.199" y="101.539" fill="#CFD5D8" width="160.65" height="292.829"/>
<g>
	<rect x="287.449" y="108.375" fill="#ECECEC" width="33.621" height="33.621"/>
	<path fill="#ECECEC" d="M323.872,141.997c0,1.547-1.254,2.802-2.802,2.802h-33.621c-1.547,0-2.802-1.254-2.802-2.802v-33.621
		c0-1.547,1.254-2.802,2.802-2.802h33.621c1.547,0,2.802,1.254,2.802,2.802V141.997z M290.251,140.596h28.018v-29.419h-28.018
		V140.596z"/>
</g>
<g>
	<path fill="#FFFFFF" d="M314.919,125.899c0.144-0.752,0.221-1.532,0.221-2.331c0-3.389-1.606-7.124-3.439-9.034
		c-0.62-0.646-1.253-1.107-2.041-1.476c-1.639-0.768-3.182-0.82-4.897-0.82c-4.276,0-8.149,2.837-9.737,6.87
		c-0.54,1.372-0.639,2.872-0.639,4.46c0,0.296,0.032,2.217,0.032,2.217s-2.547,0.316-1.661,3.481c0,0,0.62,1.921,2.743,1.783
		c0.214,0.65,0.462,1.221,0.759,1.633l0.001,0.003c1.6,3.01,4.766,5.11,8.413,5.11c4.273,0,7.889-2.7,9.095-6.641l0,0
		c2.641,0.179,2.897-2.684,2.897-2.684C316.505,126.763,315.589,126.112,314.919,125.899z"/>
	<path fill="#78888D" d="M294.417,125.785c0,0,1.478,0.147,2.491-1.008c1.02-1.162,0.864-1.963,1.219-4.054
		c0,0,0.196-2.785,2.438-2.749c1.883,0.03,2.331,1.151,4.388,1.219c2.293,0.076,2.824-0.921,4.201-0.921
		c1.105,0,1.785,0.511,1.913,2.551c0.114,1.81,0.789,3.147,1.601,3.982c0.707,0.727,1.934,1.067,2.25,1.093
		c0,0,0.118-0.741,0.156-1.068c0.066-0.57,0.067-0.844,0.07-1.13c0.006-0.503-0.012-0.571-0.028-0.879
		c-0.031-0.59-0.093-1.038-0.177-1.497c-0.124-0.678-0.31-1.562-0.886-2.989c-0.848-2.1-1.982-3.606-3.149-4.521
		c-2.151-1.686-4.572-1.639-6.636-1.563c-1.649,0.061-4.145,0.644-6.186,2.541c-1.488,1.383-2.43,2.629-3.239,4.831
		c-0.18,0.489-0.3,1.163-0.376,1.936C294.339,122.882,294.355,124.477,294.417,125.785z"/>
</g>
<line fill="none" stroke="#ECECEC" stroke-width="3" stroke-linecap="round" stroke-miterlimit="10" x1="338.785" y1="110.897" x2="623.146" y2="110.897"/>
<line opacity="0.5" fill="none" stroke="#ECECEC" stroke-width="3" stroke-linecap="round" stroke-miterlimit="10" enable-background="new    " x1="126.326" y1="128.831" x2="219.129" y2="128.831"/>
<line opacity="0.5" fill="none" stroke="#ECECEC" stroke-width="3" stroke-linecap="round" stroke-miterlimit="10" enable-background="new    " x1="142.826" y1="377.711" x2="235.629" y2="377.711"/>
<line fill="none" stroke="#ECECEC" stroke-width="3" stroke-linecap="round" stroke-miterlimit="10" x1="338.785" y1="131.626" x2="590.037" y2="131.626"/>
<g>
	<rect x="287.449" y="179.209" fill="#ECECEC" width="33.621" height="33.621"/>
	<path fill="#ECECEC" d="M323.872,212.83c0,1.547-1.254,2.802-2.802,2.802h-33.621c-1.547,0-2.802-1.254-2.802-2.802v-33.621
		c0-1.547,1.254-2.802,2.802-2.802h33.621c1.547,0,2.802,1.254,2.802,2.802V212.83z M290.251,211.429h28.018V182.01h-28.018V211.429
		z"/>
</g>
<line fill="none" stroke="#ECECEC" stroke-width="3" stroke-linecap="round" stroke-miterlimit="10" x1="338.785" y1="181.226" x2="553.109" y2="181.226"/>
<line fill="none" stroke="#ECECEC" stroke-width="3" stroke-linecap="round" stroke-miterlimit="10" x1="338.785" y1="202.46" x2="572.659" y2="202.46"/>
<g>
	<rect x="287.449" y="248.739" fill="#ECECEC" width="33.621" height="33.621"/>
	<path fill="#ECECEC" d="M323.872,282.36c0,1.547-1.254,2.802-2.802,2.802h-33.621c-1.547,0-2.802-1.254-2.802-2.802v-33.621
		c0-1.547,1.254-2.802,2.802-2.802h33.621c1.547,0,2.802,1.254,2.802,2.802V282.36z M290.251,280.959h28.018V251.54h-28.018V280.959
		z"/>
</g>
<g>
	<path fill="#FFFFFF" d="M314.919,266.263c0.144-0.752,0.221-1.532,0.221-2.331c0-3.389-1.606-7.124-3.439-9.034
		c-0.62-0.646-1.253-1.107-2.041-1.476c-1.639-0.768-3.182-0.82-4.897-0.82c-4.276,0-8.149,2.837-9.737,6.87
		c-0.54,1.372-0.639,2.872-0.639,4.46c0,0.296,0.032,2.217,0.032,2.217s-2.547,0.316-1.661,3.481c0,0,0.62,1.921,2.743,1.783
		c0.214,0.65,0.462,1.221,0.759,1.633l0.001,0.003c1.6,3.01,4.766,5.11,8.413,5.11c4.273,0,7.889-2.7,9.095-6.641l0,0
		c2.641,0.179,2.897-2.684,2.897-2.684C316.505,267.127,315.589,266.475,314.919,266.263z"/>
	<path fill="#78888D" d="M294.417,266.149c0,0,1.478,0.147,2.491-1.008c1.02-1.162,0.864-1.963,1.219-4.054
		c0,0,0.196-2.785,2.438-2.749c1.883,0.03,2.331,1.151,4.388,1.219c2.293,0.076,2.824-0.921,4.201-0.921
		c1.105,0,1.785,0.511,1.913,2.551c0.114,1.81,0.789,3.147,1.601,3.982c0.707,0.727,1.934,1.067,2.25,1.093
		c0,0,0.118-0.741,0.156-1.068c0.066-0.57,0.067-0.844,0.07-1.13c0.006-0.503-0.012-0.571-0.028-0.879
		c-0.031-0.59-0.093-1.038-0.177-1.497c-0.124-0.678-0.31-1.562-0.886-2.989c-0.848-2.1-1.982-3.606-3.149-4.521
		c-2.151-1.686-4.572-1.639-6.636-1.563c-1.649,0.061-4.145,0.644-6.186,2.541c-1.488,1.383-2.43,2.629-3.239,4.831
		c-0.18,0.489-0.3,1.163-0.376,1.936C294.339,263.245,294.355,264.84,294.417,266.149z"/>
</g>
<line fill="none" stroke="#ECECEC" stroke-width="3" stroke-linecap="round" stroke-miterlimit="10" x1="338.785" y1="250.756" x2="553.109" y2="250.756"/>
<line opacity="0.5" fill="none" stroke="#ECECEC" stroke-width="3" stroke-linecap="round" stroke-miterlimit="10" enable-background="new    " x1="126.326" y1="158.96" x2="206.364" y2="158.96"/>
<line opacity="0.5" fill="none" stroke="#ECECEC" stroke-width="3" stroke-linecap="round" stroke-miterlimit="10" enable-background="new    " x1="126.326" y1="189.302" x2="210.899" y2="189.302"/>
<line opacity="0.5" fill="none" stroke="#CFD5D8" stroke-width="3" stroke-linecap="round" stroke-miterlimit="10" enable-background="new    " x1="683.615" y1="110.897" x2="736.076" y2="110.897"/>
<line opacity="0.5" fill="none" stroke="#CFD5D8" stroke-width="3" stroke-linecap="round" stroke-miterlimit="10" enable-background="new    " x1="683.615" y1="141.339" x2="723.311" y2="141.339"/>
<line opacity="0.5" fill="none" stroke="#CFD5D8" stroke-width="3" stroke-linecap="round" stroke-miterlimit="10" enable-background="new    " x1="683.615" y1="171.781" x2="727.846" y2="171.781"/>
<line opacity="0.5" fill="none" stroke="#CFD5D8" stroke-width="3" stroke-linecap="round" stroke-miterlimit="10" enable-background="new    " x1="683.615" y1="126.118" x2="723.311" y2="126.118"/>
<line opacity="0.5" fill="none" stroke="#CFD5D8" stroke-width="3" stroke-linecap="round" stroke-miterlimit="10" enable-background="new    " x1="683.615" y1="156.56" x2="727.846" y2="156.56"/>
<line opacity="0.5" fill="none" stroke="#CFD5D8" stroke-width="3" stroke-linecap="round" stroke-miterlimit="10" enable-background="new    " x1="683.615" y1="187.001" x2="736.076" y2="187.001"/>
<line opacity="0.5" fill="none" stroke="#CFD5D8" stroke-width="3" stroke-linecap="round" stroke-miterlimit="10" enable-background="new    " x1="683.615" y1="217.443" x2="723.311" y2="217.443"/>
<line opacity="0.5" fill="none" stroke="#CFD5D8" stroke-width="3" stroke-linecap="round" stroke-miterlimit="10" enable-background="new    " x1="683.615" y1="247.885" x2="727.846" y2="247.885"/>
<line opacity="0.5" fill="none" stroke="#CFD5D8" stroke-width="3" stroke-linecap="round" stroke-miterlimit="10" enable-background="new    " x1="683.615" y1="202.222" x2="723.311" y2="202.222"/>
<line opacity="0.5" fill="none" stroke="#CFD5D8" stroke-width="3" stroke-linecap="round" stroke-miterlimit="10" enable-background="new    " x1="683.615" y1="232.664" x2="727.846" y2="232.664"/>
<path fill="#78868C" d="M315.021,205.185c0-3.165-4.006-4.088-4.006-4.088v11.629C313.03,211.058,315.021,208.351,315.021,205.185z"
	/>
<path fill="#FFFFFF" d="M314.988,196.842c0.142-0.764,0.226-1.529,0.226-2.35c0-6.313-4.671-11.409-10.446-11.409
	s-10.446,5.096-10.446,11.409c0,0.311,0.028,2.236,0.028,2.236s-2.576,0.311-1.67,3.51c0,0,0.623,1.925,2.774,1.783
	c0.226,0.651,0.453,1.217,0.764,1.642l0,0c1.614,3.029,4.784,5.152,8.464,5.152c4.303,0,7.955-2.718,9.144-6.681l0,0
	c2.661,0.17,2.916-2.689,2.916-2.689C316.602,197.72,315.668,197.04,314.988,196.842z"/>
<path fill="#78868C" d="M300.268,184.216c0,0,4.445,7.927-5.888,12.513c0,0-1.047-4.133,1.67-8.464
	C298.399,184.471,300.268,184.216,300.268,184.216z"/>
<path fill="#78868C" d="M301.089,187.443c0,0,0.226,8.634,13.928,9.399c0,0,1.953-7.587-4.897-12.173c0,0-1.189-0.906-3.199-1.359
	c-1.868-0.425-4.445-0.425-6.624,0.878"/>
<line fill="none" stroke="#CFD5D8" stroke-width="3" stroke-linecap="round" stroke-miterlimit="10" x1="297.761" y1="361.57" x2="409.509" y2="361.57"/>
<circle fill="#096A8C" cx="239.409" cy="128.831" r="3.559"/>
<circle fill="#9FAEB4" cx="239.409" cy="159.326" r="3.559"/>
<circle fill="#096A8C" cx="239.409" cy="189.302" r="3.559"/>
<line opacity="0.5" fill="none" stroke="#ECECEC" stroke-width="3" stroke-linecap="round" stroke-miterlimit="10" enable-background="new    " x1="126.326" y1="220.362" x2="219.129" y2="220.362"/>
<line opacity="0.5" fill="none" stroke="#ECECEC" stroke-width="3" stroke-linecap="round" stroke-miterlimit="10" enable-background="new    " x1="126.326" y1="250.492" x2="206.364" y2="250.492"/>
<line opacity="0.5" fill="none" stroke="#ECECEC" stroke-width="3" stroke-linecap="round" stroke-miterlimit="10" enable-background="new    " x1="126.326" y1="280.834" x2="210.899" y2="280.834"/>
<circle fill="#9FAEB4" cx="239.409" cy="220.362" r="3.559"/>
<circle fill="#9FAEB4" cx="239.409" cy="250.857" r="3.559"/>
<circle fill="#096A8C" cx="239.409" cy="280.834" r="3.559"/>
<path opacity="0.2" fill="#5C5B5D" d="M126.74,93.8c0,0.01-14.52-0.97-20.97,9.22c0,0-0.22-0.25-0.57-0.71V43.49
	c4.9-4.01,9.34-6.35,9.34-6.35s7.96,9.65,2.3,20.73c0,0,3.43-2.05,8.05-1.78c0,0,6.97,10.83-0.56,20.74l9.17-2.41
	C133.5,74.42,138.05,92.07,126.74,93.8z"/>
<path opacity="0.2" fill="#5C5B5D" d="M90.35,250.85v7.19C89.79,256.1,89.63,253.71,90.35,250.85z"/>
<path opacity="0.2" fill="#5C5B5D" d="M124.13,284.36c0,0-11.91-0.8-18.93,6.61v-58.94c3.77-2.76,6.74-4.33,6.74-4.33
	s7.96,9.64,2.29,20.72c0,0,3.43-2.04,8.05-1.78c0,0,6.97,10.84-0.55,20.74l9.16-2.4C130.89,264.98,135.45,282.63,124.13,284.36z"/>
<path fill="#A1D4E9" d="M105.385,96.035c0,0-6.794-7.115-3.057-15.192c0,0-7.425-2.963-4.794-11.152c0,0-8.446-4.882-3.433-15.583
	s19.777-18.011,19.777-18.011s7.711,8.776,2.225,18.86c0,0,3.32-1.863,7.792-1.62c0,0,6.752,9.855-0.533,18.871l9.701-0.478
	c0,0,3.583,14.348-7.375,15.923C125.688,87.655,111.63,86.763,105.385,96.035z"/>
<path fill="#85C1CE" d="M116.103,54.958c0,0-7.116,1.633-11.481,6.305c0,0,5.067-8.572,12.879-9.733
	C117.501,51.53,116.898,53.059,116.103,54.958z"/>
<path fill="#85C1CE" d="M123.362,72.209c0,0-6.455-1.598-10.473,2.215c0,0,4.123-6.761,12.149-4.727
	C125.037,69.697,124.421,70.821,123.362,72.209z"/>
<g>
	<g>
		<path fill="#85C1CE" d="M105.199,363.094c-1.824-0.009-3.645,0.035-5.462,0.157c0.108,0.094,0.173,0.147,0.173,0.147
			c-1.286,5.285-9.878,4.139-9.878,4.139c2.363,6.112,9.845,8.027,15.167,8.602V363.094z"/>
	</g>
	<path fill="#EAF7FE" d="M105.2,339.91v33.4c-1.2-0.14-2.5-0.35-3.82-0.67c-0.32-0.06-0.64-0.14-0.95-0.23
		c-4.21-1.13-8.43-3.35-10.1-7.67c0,0,8.59,1.15,9.88-4.14c0,0-3.35-2.71-3.77-5.58c0,0,2.65-0.17,4.94-0.97
		c1.03-0.36,1.99-0.86,2.59-1.53C103.97,352.52,104.03,347.75,105.2,339.91z"/>
	<path fill="#A1D4E9" d="M72.692,372.902c0.034,4.253-0.177,7.391,4.967,9.102s8.773-0.555,10.868-3.196
		c2.095-2.64,2.005-12.083-5.816-13.653c-7.822-1.57-11.646,5.975-11.646,5.975l2.024,0.32L72.692,372.902z"/>
	<path fill="#85C1CE" d="M80.627,374.06c1.048-2.678,3.007-6.002,5.925-7.102c3.922,3.315,3.646,9.744,1.975,11.85
		c-1.666,2.099-4.305,3.954-7.9,3.77C79.657,379.832,79.532,376.857,80.627,374.06z"/>
	<path fill="#A1D4E9" d="M83.96,376.215c-0.016,4.722-0.264,8.21,4.867,10.05c5.13,1.839,8.79-0.719,10.918-3.676
		c2.128-2.956,2.149-13.442-5.664-15.094s-11.73,6.772-11.73,6.772l2.022,0.332L83.96,376.215z"/>
	<path fill="#85C1CE" d="M92.236,381.536c0.153-1.129,0.421-2.236,0.846-3.301c1.056-2.645,3.405-5.783,6.229-7.023
		c2.344,3.829,1.889,9.356,0.434,11.377c-1.484,2.062-3.716,3.925-6.669,4.243C92.655,385.077,92.338,383.306,92.236,381.536z"/>
	<path fill="#A1D4E9" d="M105.2,370.83v19.58c-0.92-0.04-1.91-0.23-2.95-0.6c-0.31-0.11-0.6-0.23-0.87-0.35
		c-4.23-1.92-4.01-5.27-4-9.7l0.41-1.62l-2.02-0.33c0,0,1.56-3.34,4.66-5.4c0.3-0.2,0.62-0.39,0.95-0.56
		C102.49,371.27,103.76,370.88,105.2,370.83z"/>
	<polygon fill="#85C1CE" points="82.375,374.037 86.568,374.481 83.83,375.753 	"/>
	<polygon fill="#85C1CE" points="95.773,377.809 99.717,378.403 97.382,379.757 	"/>
</g>
<path fill="#A1D4E9" d="M131.173,261.686l-9.701,0.478c7.285-9.016,0.533-18.871,0.533-18.871c-4.472-0.243-7.792,1.62-7.792,1.62
	c5.486-10.085-2.225-18.86-2.225-18.86s-14.764,7.31-19.777,18.011s3.433,15.583,3.433,15.583
	c-2.631,8.188,4.794,11.152,4.794,11.152c-1.753,3.789-1.066,7.453,0.156,10.277l0,0c0,0,0.117,0.253,0.506,0.875
	c1.331,2.59,2.948,4.05,2.948,4.05h-0.236c0.902,2,1.54,2.564,1.54,3.122v-5.814c10-6.073,17.754-5.699,17.754-5.699
	C134.063,276.034,131.173,261.686,131.173,261.686z"/>
<path fill="#85C1CE" d="M112.862,244.912c0,0-7.116,1.633-11.481,6.305c0,0,5.067-8.572,12.879-9.733
	C114.259,241.484,113.657,243.013,112.862,244.912z"/>
<path fill="#85C1CE" d="M120.12,262.163c0,0-6.455-1.598-10.473,2.215c0,0,4.123-6.761,12.149-4.727
	C121.796,259.652,121.179,260.775,120.12,262.163z"/>
<g>
	<rect x="113.866" y="366.967" fill="#ECECEC" width="20.613" height="20.613"/>
	<path fill="#ECECEC" d="M136.196,387.58c0,0.949-0.769,1.718-1.718,1.718h-20.613c-0.949,0-1.718-0.769-1.718-1.718v-20.613
		c0-0.949,0.769-1.718,1.718-1.718h20.613c0.949,0,1.718,0.769,1.718,1.718V387.58z M115.583,386.721h17.177v-18.036h-17.177
		C115.583,368.685,115.583,386.721,115.583,386.721z"/>
</g>
<g>
	<path fill="#FFFFFF" d="M130.707,377.711c0.088-0.461,0.135-0.939,0.135-1.429c0-2.078-0.985-4.368-2.109-5.538
		c-0.38-0.396-0.768-0.679-1.251-0.905c-1.005-0.471-1.951-0.503-3.002-0.503c-2.622,0-4.996,1.739-5.97,4.212
		c-0.331,0.841-0.392,1.76-0.392,2.734c0,0.181,0.019,1.359,0.019,1.359s-1.562,0.194-1.019,2.134c0,0,0.38,1.178,1.681,1.093
		c0.131,0.399,0.283,0.749,0.465,1.001v0.002c0.981,1.846,2.922,3.133,5.158,3.133c2.62,0,4.836-1.655,5.576-4.072l0,0
		c1.619,0.11,1.776-1.646,1.776-1.646C131.679,378.241,131.118,377.841,130.707,377.711z"/>
	<path fill="#78888D" d="M118.138,377.641c0,0,0.906,0.09,1.527-0.618c0.626-0.713,0.529-1.204,0.747-2.485
		c0,0,0.12-1.708,1.494-1.686c1.155,0.018,1.429,0.705,2.69,0.747c1.406,0.047,1.731-0.565,2.576-0.565
		c0.678,0,1.094,0.313,1.173,1.564c0.07,1.11,0.484,1.93,0.982,2.442c0.434,0.446,1.186,0.654,1.38,0.67
		c0,0,0.073-0.454,0.096-0.655c0.041-0.35,0.041-0.518,0.043-0.693c0.004-0.308-0.007-0.35-0.017-0.539
		c-0.019-0.362-0.057-0.637-0.109-0.918c-0.076-0.416-0.19-0.958-0.543-1.832c-0.52-1.288-1.215-2.211-1.93-2.772
		c-1.319-1.034-2.803-1.005-4.068-0.958c-1.011,0.037-2.541,0.395-3.793,1.558c-0.912,0.848-1.49,1.612-1.986,2.962
		c-0.11,0.3-0.184,0.713-0.23,1.187C118.09,375.861,118.1,376.839,118.138,377.641z"/>
</g>
<g>
	<g>
		<g>
			<g opacity="0.2">
				<path fill="#010101" d="M745.789,59.115h-27.228h-5.597h-26.72h-0.508h-32.317c-0.648,0-1.172,0.462-1.172,1.032v23.745
					c0,0.57,0.525,1.032,1.172,1.032h32.317h0.508h26.72h5.597h27.228c0.647,0,1.172-0.463,1.172-1.032V60.147
					C746.961,59.577,746.436,59.115,745.789,59.115z"/>
			</g>
			<g>
				<g>
					<path fill="#FFFFFF" d="M742.189,55.515h-27.228h-5.597h-26.72h-0.508h-32.317c-0.648,0-1.172,0.462-1.172,1.032v23.745
						c0,0.57,0.525,1.032,1.172,1.032h32.317h0.508h26.72h5.597h27.228c0.647,0,1.172-0.463,1.172-1.032V56.547
						C743.361,55.977,742.836,55.515,742.189,55.515z"/>
				</g>
			</g>
		</g>
		<g>
			<g>
				<path fill="#CFD5D6" d="M730.372,72.558h-50.426c-0.86,0-1.557-0.697-1.557-1.557V70.97c0-0.86,0.697-1.557,1.557-1.557h50.426
					c0.86,0,1.557,0.697,1.557,1.557v0.031C731.929,71.861,731.232,72.558,730.372,72.558z"/>
				<path fill="#78868C" d="M710.08,66.35h-30.133c-0.86,0-1.557-0.697-1.557-1.557v-0.031c0-0.86,0.697-1.557,1.557-1.557h30.133
					c0.86,0,1.557,0.697,1.557,1.557v0.031C711.637,65.653,710.94,66.35,710.08,66.35z"/>
			</g>
			<path fill="#0D5E7D" d="M672.853,74.482c0,0.558-0.452,1.01-1.01,1.01h-12.125c-0.558,0-1.01-0.452-1.01-1.01V62.357
				c0-0.558,0.452-1.01,1.01-1.01h12.125c0.558,0,1.01,0.452,1.01,1.01V74.482z"/>
		</g>
	</g>
</g>
<path opacity="0.2" fill="#A1D4E9" d="M105.2,339.91v50.5c-0.92-0.04-1.91-0.23-2.95-0.6c-0.31-0.11-0.6-0.23-0.87-0.35v-35.41
	c1.03-0.36,1.99-0.86,2.59-1.53C103.97,352.52,104.03,347.75,105.2,339.91z"/>
</svg>
