<?xml version="1.0" encoding="utf-8"?>
<!-- Generator: Adobe Illustrator 17.0.2, SVG Export Plug-In . SVG Version: 6.00 Build 0)  -->
<!DOCTYPE svg PUBLIC "-//W3C//DTD SVG 1.1//EN" "http://www.w3.org/Graphics/SVG/1.1/DTD/svg11.dtd">
<svg version="1.1" id="Layer_1" xmlns="http://www.w3.org/2000/svg" xmlns:xlink="http://www.w3.org/1999/xlink" x="0px" y="0px"
	 width="143.999px" height="143.999px" viewBox="247.4 168.079 143.999 143.999"
	 enable-background="new 247.4 168.079 143.999 143.999" xml:space="preserve">
<path fill="#01526C" d="M297.604,168.079h43.591c14.456,0,21.684,0,29.465,2.46c8.495,3.092,15.187,9.784,18.279,18.279
	c2.46,7.781,2.46,15.009,2.46,29.465v43.591c0,14.456,0,21.684-2.46,29.465c-3.092,8.495-9.784,15.187-18.279,18.279
	c-7.781,2.46-15.009,2.46-29.465,2.46h-43.591c-14.456,0-21.684,0-29.465-2.46c-8.495-3.092-15.187-9.784-18.279-18.279
	c-2.46-7.781-2.46-15.009-2.46-29.465v-43.591c0-14.456,0-21.684,2.46-29.465c3.092-8.495,9.784-15.187,18.279-18.279
	C275.92,168.079,283.148,168.079,297.604,168.079L297.604,168.079"/>
<g>
	<polygon fill="none" stroke="#FFFFFF" stroke-width="3" stroke-linejoin="round" stroke-miterlimit="10" points="328.978,222.913 
		350.4,225.918 334.984,241.094 338.746,262.396 319.549,252.424 300.452,262.584 304.004,241.246 288.44,226.223 309.831,223.007 
		319.309,203.563 	"/>
	<g>
		<g>
			<path fill="#FFFFFF" d="M281.769,248.868c2.924,0,2.924-4.534,0-4.534S278.845,248.868,281.769,248.868L281.769,248.868z"/>
		</g>
	</g>
	<g>
		<g>
			<path fill="#FFFFFF" d="M295.716,207.426c2.924,0,2.924-4.534,0-4.534S292.792,207.426,295.716,207.426L295.716,207.426z"/>
		</g>
	</g>
	<g>
		<g>
			<path fill="#FFFFFF" d="M343.404,207.426c2.924,0,2.924-4.534,0-4.534C340.481,202.892,340.481,207.426,343.404,207.426
				L343.404,207.426z"/>
		</g>
	</g>
	<g>
		<g>
			<path fill="#FFFFFF" d="M319.44,276.073c2.924,0,2.924-4.534,0-4.534S316.516,276.073,319.44,276.073L319.44,276.073z"/>
		</g>
	</g>
	<g>
		<g>
			<path fill="#FFFFFF" d="M357.031,248.868c2.924,0,2.924-4.534,0-4.534S354.107,248.868,357.031,248.868L357.031,248.868z"/>
		</g>
	</g>
</g>
</svg>
