<?xml version="1.0" encoding="utf-8"?>
<!-- Generator: Adobe Illustrator 17.0.2, SVG Export Plug-In . SVG Version: 6.00 Build 0)  -->
<!DOCTYPE svg PUBLIC "-//W3C//DTD SVG 1.1//EN" "http://www.w3.org/Graphics/SVG/1.1/DTD/svg11.dtd">
<svg version="1.1" id="Layer_1" xmlns="http://www.w3.org/2000/svg" xmlns:xlink="http://www.w3.org/1999/xlink" x="0px" y="0px"
	 width="144px" height="144px" viewBox="0 0 144 144" enable-background="new 0 0 144 144" xml:space="preserve">
<path fill="#02698B" d="M50.205,0h43.591c14.456,0,21.684,0,29.465,2.46c8.495,3.092,15.187,9.784,18.279,18.279
	C144,28.52,144,35.748,144,50.205v43.591c0,14.456,0,21.684-2.46,29.465c-3.092,8.495-9.784,15.187-18.279,18.279
	C115.479,144,108.252,144,93.795,144H50.205c-14.456,0-21.684,0-29.465-2.46c-8.495-3.092-15.187-9.784-18.279-18.279
	C0,115.479,0,108.252,0,93.795V50.205C0,35.748,0,28.52,2.46,20.74C5.552,12.244,12.244,5.552,20.74,2.46C28.52,0,35.748,0,50.205,0
	L50.205,0"/>
<polygon fill="none" stroke="#FFFFFF" stroke-width="3" stroke-linejoin="round" stroke-miterlimit="10" points="40.102,78.475 
	101.472,38.063 90.401,98.358 69.791,89.579 63.962,98.358 58.695,85.998 "/>
<line fill="none" stroke="#FFFFFF" stroke-width="3" stroke-linejoin="round" stroke-miterlimit="10" x1="100.951" y1="40.459" x2="63.962" y2="98.358"/>
<line fill="none" stroke="#FFFFFF" stroke-width="3" stroke-linejoin="round" stroke-miterlimit="10" x1="58.695" y1="85.998" x2="101.472" y2="38.063"/>
</svg>
