<?xml version="1.0" encoding="utf-8"?>
<!-- Generator: Adobe Illustrator 17.0.2, SVG Export Plug-In . SVG Version: 6.00 Build 0)  -->
<!DOCTYPE svg PUBLIC "-//W3C//DTD SVG 1.1//EN" "http://www.w3.org/Graphics/SVG/1.1/DTD/svg11.dtd">
<svg version="1.1" id="Layer_1" xmlns="http://www.w3.org/2000/svg" xmlns:xlink="http://www.w3.org/1999/xlink" x="0px" y="0px"
	 width="143.999px" height="143.999px" viewBox="247.63 168.079 143.999 143.999"
	 enable-background="new 247.63 168.079 143.999 143.999" xml:space="preserve">
<path fill="#01465D" d="M297.834,168.079h43.591c14.456,0,21.684,0,29.465,2.46c8.495,3.092,15.187,9.784,18.279,18.279
	c2.46,7.781,2.46,15.009,2.46,29.465v43.591c0,14.456,0,21.684-2.46,29.465c-3.092,8.495-9.784,15.187-18.279,18.279
	c-7.781,2.46-15.009,2.46-29.465,2.46h-43.591c-14.456,0-21.684,0-29.465-2.46c-8.495-3.092-15.187-9.784-18.279-18.279
	c-2.46-7.781-2.46-15.009-2.46-29.465v-43.591c0-14.456,0-21.684,2.46-29.465c3.092-8.495,9.784-15.187,18.279-18.279
	C276.15,168.079,283.377,168.079,297.834,168.079L297.834,168.079"/>
<path fill="none" stroke="#FFFFFF" stroke-width="3" stroke-miterlimit="10" d="M343.075,256.775c0,1.98-1.62,3.6-3.6,3.6h-25.881
	l-11.184,6.699v-6.699c0,0-3.885,0-5.865,0h-5.922c-1.98,0-3.6-1.62-3.6-3.6v-31.084c0-1.98,1.62-3.6,3.6-3.6h48.852
	c1.98,0,3.6,1.62,3.6,3.6V256.775z"/>
<path fill="none" stroke="#FFFFFF" stroke-width="3" stroke-miterlimit="10" d="M297.031,222.091v-7.408c0-1.98,1.62-3.6,3.6-3.6
	h48.852c1.98,0,3.6,1.62,3.6,3.6v31.084c0,1.98-1.62,3.6-3.6,3.6h-6.408"/>
</svg>
