<?xml version="1.0" encoding="utf-8"?>
<!-- Generator: Adobe Illustrator 17.0.2, SVG Export Plug-In . SVG Version: 6.00 Build 0)  -->
<!DOCTYPE svg PUBLIC "-//W3C//DTD SVG 1.1//EN" "http://www.w3.org/Graphics/SVG/1.1/DTD/svg11.dtd">
<svg version="1.1" id="Layer_1" xmlns="http://www.w3.org/2000/svg" xmlns:xlink="http://www.w3.org/1999/xlink" x="0px" y="0px"
	 width="143.999px" height="143.999px" viewBox="247.222 168.079 143.999 143.999"
	 enable-background="new 247.222 168.079 143.999 143.999" xml:space="preserve">
<path fill="#0280AA" d="M297.426,168.079h43.591c14.456,0,21.684,0,29.465,2.46c8.495,3.092,15.187,9.784,18.279,18.279
	c2.46,7.781,2.46,15.009,2.46,29.465v43.591c0,14.456,0,21.684-2.46,29.465c-3.092,8.495-9.784,15.187-18.279,18.279
	c-7.781,2.46-15.009,2.46-29.465,2.46h-43.591c-14.456,0-21.684,0-29.465-2.46c-8.495-3.092-15.187-9.784-18.279-18.279
	c-2.46-7.781-2.46-15.009-2.46-29.465v-43.591c0-14.456,0-21.684,2.46-29.465c3.092-8.495,9.784-15.187,18.279-18.279
	C275.742,168.079,282.97,168.079,297.426,168.079L297.426,168.079"/>
<g>
	<path fill="none" stroke="#FFFFFF" stroke-width="2.3807" stroke-miterlimit="10" d="M320.014,256.06
		c-1.111,1.111-3.28,2.275-4.82,2.586l-15.724,3.179c-1.54,0.311-2.55-0.695-2.245-2.236l3.129-15.791
		c0.305-1.541,1.464-3.711,2.575-4.822l32.772-32.772c1.111-1.111,2.929-1.111,4.04,0l13.044,13.044c1.111,1.111,1.111,2.929,0,4.04
		L320.014,256.06z"/>
</g>
<line fill="none" stroke="#FFFFFF" stroke-width="3" stroke-miterlimit="10" x1="300.91" y1="240.996" x2="317.994" y2="258.08"/>
<line fill="none" stroke="#FFFFFF" stroke-width="3" stroke-miterlimit="10" x1="338.3" y1="215.056" x2="306.635" y2="246.721"/>
<line fill="none" stroke="#FFFFFF" stroke-width="3" stroke-miterlimit="10" x1="344.043" y1="220.798" x2="312.378" y2="252.463"/>
<polygon fill="#FFFFFF" points="297.101,254.025 304.116,262.1 295.134,263.999 "/>
<line fill="none" stroke="#FFFFFF" stroke-width="3" stroke-miterlimit="10" x1="332.634" y1="209.271" x2="349.718" y2="226.355"/>
</svg>
