<?xml version="1.0" encoding="utf-8"?>
<!-- Generator: Adobe Illustrator 17.0.2, SVG Export Plug-In . SVG Version: 6.00 Build 0)  -->
<!DOCTYPE svg PUBLIC "-//W3C//DTD SVG 1.1//EN" "http://www.w3.org/Graphics/SVG/1.1/DTD/svg11.dtd">
<svg version="1.1" id="Layer_1" xmlns="http://www.w3.org/2000/svg" xmlns:xlink="http://www.w3.org/1999/xlink" x="0px" y="0px"
	 width="143.999px" height="143.999px" viewBox="248.037 168.079 143.999 143.999"
	 enable-background="new 248.037 168.079 143.999 143.999" xml:space="preserve">
<path fill="#02698B" d="M298.241,168.079h43.591c14.456,0,21.684,0,29.465,2.46c8.495,3.092,15.187,9.784,18.279,18.279
	c2.46,7.781,2.46,15.009,2.46,29.465v43.591c0,14.456,0,21.684-2.46,29.465c-3.092,8.495-9.784,15.187-18.279,18.279
	c-7.781,2.46-15.009,2.46-29.465,2.46h-43.591c-14.456,0-21.684,0-29.465-2.46c-8.495-3.092-15.187-9.784-18.279-18.279
	c-2.46-7.781-2.46-15.009-2.46-29.465v-43.591c0-14.456,0-21.684,2.46-29.465c3.092-8.495,9.784-15.187,18.279-18.279
	C276.557,168.079,283.785,168.079,298.241,168.079L298.241,168.079"/>
<polyline fill="none" stroke="#FFFFFF" stroke-width="3" stroke-miterlimit="10" points="308.472,260.79 308.472,214.829 
	343.46,201.568 343.46,251.508 "/>
<circle fill="none" stroke="#FFFFFF" stroke-width="3" stroke-miterlimit="10" cx="333.567" cy="251.508" r="9.894"/>
<circle fill="none" stroke="#FFFFFF" stroke-width="3" stroke-miterlimit="10" cx="298.578" cy="260.79" r="9.894"/>
<line fill="none" stroke="#FFFFFF" stroke-width="3" stroke-miterlimit="10" x1="308.472" y1="222.987" x2="343.46" y2="209.726"/>
</svg>
