<?xml version="1.0" encoding="utf-8"?>
<!-- Generator: Adobe Illustrator 17.0.2, SVG Export Plug-In . SVG Version: 6.00 Build 0)  -->
<!DOCTYPE svg PUBLIC "-//W3C//DTD SVG 1.1//EN" "http://www.w3.org/Graphics/SVG/1.1/DTD/svg11.dtd">
<svg version="1.1" id="Layer_1" xmlns="http://www.w3.org/2000/svg" xmlns:xlink="http://www.w3.org/1999/xlink" x="0px" y="0px"
	 width="143.999px" height="143.999px" viewBox="247.444 168.079 143.999 143.999"
	 enable-background="new 247.444 168.079 143.999 143.999" xml:space="preserve">
<path fill="#01526C" d="M297.648,168.079h43.591c14.456,0,21.684,0,29.465,2.46c8.495,3.092,15.187,9.784,18.279,18.279
	c2.46,7.781,2.46,15.009,2.46,29.465v43.591c0,14.456,0,21.684-2.46,29.465c-3.092,8.495-9.784,15.187-18.279,18.279
	c-7.781,2.46-15.009,2.46-29.465,2.46h-43.591c-14.456,0-21.684,0-29.465-2.46c-8.495-3.092-15.187-9.784-18.279-18.279
	c-2.46-7.781-2.46-15.009-2.46-29.465v-43.591c0-14.456,0-21.684,2.46-29.465c3.092-8.495,9.784-15.187,18.279-18.279
	C275.964,168.079,283.192,168.079,297.648,168.079L297.648,168.079"/>
<g>
	<path fill="none" stroke="#FFFFFF" stroke-width="3" stroke-miterlimit="10" d="M351.249,257.47c0,1.772-1.45,3.222-3.222,3.222
		H290.86c-1.772,0-3.222-1.45-3.222-3.222v-36.783c0-1.772,1.45-3.222,3.222-3.222h57.167c1.772,0,3.222,1.45,3.222,3.222
		L351.249,257.47L351.249,257.47z"/>
</g>
<polyline fill="none" stroke="#FFFFFF" stroke-width="3" stroke-miterlimit="10" points="350.353,219.256 319.443,239.078 
	288.533,219.256 "/>
</svg>
