<?xml version="1.0" encoding="utf-8"?>
<!-- Generator: Adobe Illustrator 17.0.2, SVG Export Plug-In . SVG Version: 6.00 Build 0)  -->
<!DOCTYPE svg PUBLIC "-//W3C//DTD SVG 1.1//EN" "http://www.w3.org/Graphics/SVG/1.1/DTD/svg11.dtd">
<svg version="1.1" id="Layer_1" xmlns="http://www.w3.org/2000/svg" xmlns:xlink="http://www.w3.org/1999/xlink" x="0px" y="0px"
	 width="80px" height="56.774px" viewBox="0 0 80 56.774" enable-background="new 0 0 80 56.774" xml:space="preserve">
<g>
	
		<polygon fill="none" stroke="#01465D" stroke-width="3" stroke-linecap="round" stroke-linejoin="round" stroke-miterlimit="10" points="
		51.656,41.882 44.897,41.88 44.898,29.489 35.091,29.489 35.091,41.882 28.344,41.88 40.001,55.274 	"/>
</g>
<path fill="none" stroke="#01465D" stroke-width="3" stroke-linecap="round" stroke-linejoin="round" stroke-miterlimit="10" d="
	M56.148,41.769c8.191,0,14.829-6.491,14.829-14.497c0-8.005-6.638-14.496-14.829-14.496c-0.854,0-1.69,0.074-2.505,0.211
	C51.61,6.342,45.314,1.5,37.858,1.5c-9.101,0-16.477,7.212-16.477,16.109c0,0.794,0.062,1.575,0.175,2.338
	c-0.437-0.05-0.878-0.084-1.329-0.084c-6.188,0-11.205,4.904-11.205,10.953c0,6.049,5.017,10.953,11.205,10.953h3.04"/>
</svg>
