<?xml version="1.0" encoding="utf-8"?>
<!-- Generator: Adobe Illustrator 18.0.0, SVG Export Plug-In . SVG Version: 6.00 Build 0)  -->
<!DOCTYPE svg PUBLIC "-//W3C//DTD SVG 1.1//EN" "http://www.w3.org/Graphics/SVG/1.1/DTD/svg11.dtd">
<svg version="1.1" id="Layer_1" xmlns="http://www.w3.org/2000/svg" xmlns:xlink="http://www.w3.org/1999/xlink" x="0px" y="0px"
	 viewBox="0 0 70 70" enable-background="new 0 0 70 70" xml:space="preserve">
<g>
	<g>
		<g>
			<g>
				<path fill="none" stroke="#01465D" stroke-width="3" stroke-linecap="round" stroke-miterlimit="10" d="M35.7,46.3"/>
			</g>
			<g>
				
					<line fill="none" stroke="#01465D" stroke-width="3" stroke-linecap="round" stroke-linejoin="round" stroke-miterlimit="10" x1="60.9" y1="19.3" x2="38.9" y2="41.6"/>
				
					<circle fill="none" stroke="#01465D" stroke-width="3" stroke-linecap="round" stroke-miterlimit="10" cx="35.6" cy="44.9" r="4.2"/>
			</g>
		</g>
		
			<line fill="none" stroke="#01465D" stroke-width="3" stroke-linecap="round" stroke-miterlimit="10" x1="35.6" y1="18.3" x2="35.6" y2="13.8"/>
		
			<line fill="none" stroke="#01465D" stroke-width="3" stroke-linecap="round" stroke-miterlimit="10" x1="61.3" y1="51.8" x2="65.7" y2="53"/>
		
			<line fill="none" stroke="#01465D" stroke-width="3" stroke-linecap="round" stroke-miterlimit="10" x1="28.5" y1="19.1" x2="27.3" y2="14.7"/>
		
			<line fill="none" stroke="#01465D" stroke-width="3" stroke-linecap="round" stroke-miterlimit="10" x1="21.9" y1="21.7" x2="19.6" y2="17.7"/>
		
			<line fill="none" stroke="#01465D" stroke-width="3" stroke-linecap="round" stroke-miterlimit="10" x1="16.2" y1="25.9" x2="13" y2="22.7"/>
		
			<line fill="none" stroke="#01465D" stroke-width="3" stroke-linecap="round" stroke-miterlimit="10" x1="11.7" y1="31.4" x2="7.8" y2="29.1"/>
		
			<line fill="none" stroke="#01465D" stroke-width="3" stroke-linecap="round" stroke-miterlimit="10" x1="8.9" y1="37.9" x2="4.5" y2="36.7"/>
		
			<line fill="none" stroke="#01465D" stroke-width="3" stroke-linecap="round" stroke-miterlimit="10" x1="7.8" y1="44.9" x2="3.3" y2="44.9"/>
		
			<line fill="none" stroke="#01465D" stroke-width="3" stroke-linecap="round" stroke-miterlimit="10" x1="8.8" y1="52.1" x2="4.4" y2="53.3"/>
		<g>
			<g>
				<path fill="none" stroke="#01465D" stroke-width="3" stroke-linecap="round" stroke-miterlimit="10" d="M64.9,46.7
					c-0.2,0-0.5,0-0.7-0.1c-1-0.3-1.5-1.4-1.2-2.3c0-0.1,0-1.4,0-1.8c-0.8-10.5-7.7-19.7-17.5-23.5c-1-0.4-1.4-1.4-1.1-2.4
					c0.4-0.9,1.5-1.4,2.4-1c11.2,4.3,19,14.8,19.9,26.7c0,0.5,0,1,0,1.5l0,0.4c0,0.4-0.1,0.9-0.2,1.3C66.3,46.1,65.6,46.6,64.9,46.7
					z"/>
			</g>
		</g>
	</g>
	<g>
		<path fill="none" stroke="#01465D" stroke-width="3" stroke-linecap="round" stroke-miterlimit="10" d="M53.3,52.7
			c1-2.4,1.6-5,1.6-7.8c0-10.7-8.7-19.3-19.3-19.3s-19.3,8.7-19.3,19.3c0,2.8,0.6,5.4,1.6,7.8"/>
		<path fill="none" stroke="#01465D" stroke-width="3" stroke-linecap="round" stroke-miterlimit="10" d="M53.3,52.7"/>
		<path fill="none" stroke="#01465D" stroke-width="3" stroke-linecap="round" stroke-miterlimit="10" d="M17.9,52.7"/>
	</g>
</g>
</svg>
