<?xml version="1.0" encoding="utf-8"?>
<!-- Generator: Adobe Illustrator 17.0.2, SVG Export Plug-In . SVG Version: 6.00 Build 0)  -->
<!DOCTYPE svg PUBLIC "-//W3C//DTD SVG 1.1//EN" "http://www.w3.org/Graphics/SVG/1.1/DTD/svg11.dtd">
<svg version="1.1" id="Layer_1" xmlns="http://www.w3.org/2000/svg" xmlns:xlink="http://www.w3.org/1999/xlink" x="0px" y="0px"
	 width="792px" height="612px" viewBox="0 0 792 612" enable-background="new 0 0 792 612" xml:space="preserve">
<g>
	<g>
		<g opacity="0.2">
			<path fill="#010101" d="M740.181,140.925l-0.339,316.687c0,8.259-6.675,15.048-15.048,15.048h-381.97V140.925H740.181z"/>
			<rect x="201.394" y="141.038" fill="#010101" width="141.429" height="331.848"/>
			<path fill="#010101" d="M59.966,141.038l0.339,316.687c0,8.259,6.675,15.048,15.048,15.048h126.041V141.038H59.966z"/>
			<path fill="#010101" d="M641.973,187.879c0,1.584-1.245,2.942-2.715,2.942H442.728c-1.471,0-2.715-1.245-2.715-2.942v-7.241
				c0-1.584,1.245-2.942,2.715-2.942h196.529c1.471,0,2.715,1.245,2.715,2.942V187.879z"/>
			<path fill="#010101" d="M588.23,213.11c0,1.584-1.245,2.942-2.715,2.942H442.728c-1.471,0-2.715-1.245-2.715-2.942v-7.241
				c0-1.584,1.245-2.942,2.715-2.942h142.899c1.471,0,2.715,1.245,2.715,2.942v7.241H588.23z"/>
			<rect x="389.098" y="179.054" fill="#010101" width="33.943" height="33.943"/>
			<path fill="#010101" d="M425.87,212.997c0,1.584-1.245,2.829-2.829,2.829h-33.943c-1.584,0-2.829-1.245-2.829-2.829v-33.943
				c0-1.584,1.245-2.829,2.829-2.829h33.943c1.584,0,2.829,1.245,2.829,2.829V212.997z"/>
			<path fill="#010101" d="M416.818,196.817c0.113-0.792,0.226-1.584,0.226-2.376c0-3.394-1.584-7.128-3.507-9.051
				c-0.679-0.679-1.245-1.131-2.037-1.471c-1.697-0.792-3.168-0.792-4.978-0.792c-4.299,0-8.259,2.829-9.843,6.902
				c-0.566,1.358-0.679,2.942-0.679,4.526c0,0.339,0,2.263,0,2.263s-2.602,0.339-1.697,3.507c0,0,0.679,1.923,2.715,1.81
				c0.226,0.679,0.453,1.245,0.792,1.697l0,0c1.584,3.055,4.752,5.205,8.486,5.205c4.299,0,7.92-2.715,9.165-6.675l0,0
				c2.715,0.226,2.942-2.715,2.942-2.715C418.402,197.609,417.497,196.93,416.818,196.817z"/>
			<path fill="#010101" d="M396.113,196.704c0,0,1.471,0.113,2.489-1.018c1.018-1.131,0.905-1.923,1.245-4.073
				c0,0,0.226-2.829,2.489-2.715c1.923,0,2.376,1.131,4.413,1.245c2.263,0.113,2.829-0.905,4.186-0.905
				c1.131,0,1.81,0.566,1.923,2.602c0.113,1.81,0.792,3.168,1.584,3.96c0.679,0.679,1.923,1.131,2.263,1.131
				c0,0,0.113-0.792,0.113-1.131c0.113-0.566,0.113-0.905,0.113-1.131c0-0.453,0-0.566,0-0.905c0-0.566-0.113-1.018-0.226-1.471
				c-0.113-0.679-0.339-1.584-0.905-3.055c-0.905-2.15-2.037-3.621-3.168-4.526c-2.15-1.697-4.639-1.697-6.675-1.584
				c-1.697,0.113-4.186,0.679-6.223,2.602c-1.471,1.358-2.489,2.602-3.281,4.865c-0.226,0.453-0.339,1.131-0.339,1.923
				C396.113,193.762,396.113,195.346,396.113,196.704z"/>
			
				<line fill="none" stroke="#010101" stroke-width="3" stroke-linecap="round" stroke-miterlimit="10" x1="386.27" y1="250.447" x2="679.536" y2="250.447"/>
			
				<line fill="none" stroke="#010101" stroke-width="3" stroke-linecap="round" stroke-miterlimit="10" x1="386.27" y1="272.397" x2="691.982" y2="272.397"/>
			
				<line fill="none" stroke="#010101" stroke-width="3" stroke-linecap="round" stroke-miterlimit="10" x1="386.27" y1="294.346" x2="671.955" y2="294.346"/>
			
				<line fill="none" stroke="#010101" stroke-width="3" stroke-linecap="round" stroke-miterlimit="10" x1="386.27" y1="316.409" x2="691.982" y2="316.409"/>
			
				<line fill="none" stroke="#010101" stroke-width="3" stroke-linecap="round" stroke-miterlimit="10" x1="386.27" y1="338.359" x2="675.01" y2="338.359"/>
			
				<line fill="none" stroke="#010101" stroke-width="3" stroke-linecap="round" stroke-miterlimit="10" x1="386.27" y1="360.309" x2="691.982" y2="360.309"/>
			
				<line fill="none" stroke="#010101" stroke-width="3" stroke-linecap="round" stroke-miterlimit="10" x1="386.27" y1="382.258" x2="671.955" y2="382.258"/>
			
				<line fill="none" stroke="#010101" stroke-width="3" stroke-linecap="round" stroke-miterlimit="10" x1="386.27" y1="404.321" x2="675.01" y2="404.321"/>
			
				<line fill="none" stroke="#010101" stroke-width="3" stroke-linecap="round" stroke-miterlimit="10" x1="86.102" y1="279.298" x2="153.761" y2="279.298"/>
			<path fill="#010101" d="M177.747,285.069c0,0.566-0.453,0.905-0.905,0.905h-11.541c-0.566,0-0.905-0.453-0.905-0.905v-11.541
				c0-0.566,0.453-0.905,0.905-0.905h11.541c0.566,0,0.905,0.453,0.905,0.905V285.069z"/>
			
				<line fill="none" stroke="#010101" stroke-width="3" stroke-linecap="round" stroke-miterlimit="10" x1="86.102" y1="331.683" x2="153.761" y2="331.683"/>
			<path fill="#010101" d="M177.747,337.341c0,0.566-0.453,0.905-0.905,0.905h-11.541c-0.566,0-0.905-0.453-0.905-0.905V325.8
				c0-0.566,0.453-0.905,0.905-0.905h11.541c0.566,0,0.905,0.453,0.905,0.905V337.341z"/>
			<line fill="none" stroke="#010101" stroke-miterlimit="10" x1="201.394" y1="141.038" x2="201.394" y2="472.659"/>
			<line fill="none" stroke="#010101" stroke-miterlimit="10" x1="342.823" y1="141.038" x2="342.823" y2="472.659"/>
			<path fill="#010101" d="M728.187,114.562c-0.113,0-0.113,0-0.226,0c-0.339-0.113-0.679-0.113-1.018-0.113
				c-0.113,0-0.339-0.113-0.453-0.113c-0.226,0-0.566,0-0.792,0c-0.226,0-0.453,0-0.679,0l0,0H75.014l0,0c-0.226,0-0.453,0-0.792,0
				c-0.226,0-0.566,0-0.792,0s-0.339,0-0.566,0.113c-0.339,0-0.679,0.113-0.905,0.113c-0.113,0-0.113,0-0.226,0
				c-6.789,1.471-11.767,7.467-11.767,14.709v11.767h679.989v-11.767C739.954,122.03,734.976,116.033,728.187,114.562z"/>
			<circle fill="#010101" cx="75.806" cy="128.139" r="3.734"/>
			<circle fill="#010101" cx="87.346" cy="128.139" r="3.734"/>
			<circle fill="#010101" cx="98.887" cy="128.139" r="3.734"/>
			
				<line fill="none" stroke="#010101" stroke-width="3" stroke-linecap="round" stroke-miterlimit="10" x1="230.472" y1="177.696" x2="279.802" y2="177.696"/>
			
				<line fill="none" stroke="#010101" stroke-width="3" stroke-linecap="round" stroke-miterlimit="10" x1="230.472" y1="191.499" x2="306.957" y2="191.499"/>
			
				<line fill="none" stroke="#010101" stroke-width="3" stroke-linecap="round" stroke-miterlimit="10" x1="230.472" y1="238.68" x2="292.248" y2="238.68"/>
			
				<line fill="none" stroke="#010101" stroke-width="3" stroke-linecap="round" stroke-miterlimit="10" x1="230.472" y1="252.483" x2="313.745" y2="252.483"/>
			
				<line fill="none" stroke="#010101" stroke-width="3" stroke-linecap="round" stroke-miterlimit="10" x1="230.472" y1="299.664" x2="279.802" y2="299.664"/>
			
				<line fill="none" stroke="#010101" stroke-width="3" stroke-linecap="round" stroke-miterlimit="10" x1="230.472" y1="313.467" x2="306.957" y2="313.467"/>
			
				<line fill="none" stroke="#010101" stroke-width="3" stroke-linecap="round" stroke-miterlimit="10" x1="230.472" y1="360.648" x2="292.248" y2="360.648"/>
			
				<line fill="none" stroke="#010101" stroke-width="3" stroke-linecap="round" stroke-miterlimit="10" x1="230.472" y1="374.451" x2="313.745" y2="374.451"/>
			
				<line fill="none" stroke="#010101" stroke-width="3" stroke-linecap="round" stroke-miterlimit="10" x1="230.472" y1="421.632" x2="279.802" y2="421.632"/>
			
				<line fill="none" stroke="#010101" stroke-width="3" stroke-linecap="round" stroke-miterlimit="10" x1="230.472" y1="435.435" x2="306.957" y2="435.435"/>
			<path fill="#010101" d="M174.466,176.791h-10.409h-0.113H99h-0.113H88.478c-0.453,0-0.905,0.453-0.905,0.905v11.541
				c0,0.566,0.339,0.905,0.905,0.905h6.336h4.073h65.17h5.205h5.205c0.453,0,0.905-0.453,0.905-0.905v-11.427
				C175.371,177.243,174.919,176.791,174.466,176.791z"/>
			<path fill="#010101" d="M174.466,204.058h-10.409h-0.113H99h-0.113H88.478c-0.453,0-0.905,0.453-0.905,0.905v11.654
				c0,0.566,0.339,0.905,0.905,0.905h6.336h4.073h65.17h5.205h5.205c0.453,0,0.905-0.453,0.905-0.905v-11.541
				C175.371,204.511,174.919,204.058,174.466,204.058z"/>
			<path fill="#010101" d="M153.535,234.041h-7.92h-0.113H96.285h-0.113h-7.92c-0.339,0-0.679,0.453-0.679,0.905v11.541
				c0,0.566,0.339,0.905,0.679,0.905h4.752h3.168h49.443h3.96h3.96c0.339,0,0.679-0.453,0.679-0.905v-11.541
				C154.101,234.494,153.874,234.041,153.535,234.041z"/>
			<path fill="#010101" d="M153.535,386.897h-7.92h-0.113H96.285h-0.113h-7.92c-0.339,0-0.679,0.453-0.679,0.905v11.541
				c0,0.566,0.339,0.905,0.679,0.905h4.752h3.168h49.443h3.96h3.96c0.339,0,0.679-0.453,0.679-0.905v-11.541
				C154.101,387.35,153.874,386.897,153.535,386.897z"/>
			<path fill="#010101" d="M153.535,414.843h-7.92h-0.113H96.285h-0.113h-7.92c-0.339,0-0.679,0.453-0.679,0.905v11.541
				c0,0.566,0.339,0.905,0.679,0.905h4.752h3.168h49.443h3.96h3.96c0.339,0,0.679-0.453,0.679-0.905v-11.541
				C154.101,415.296,153.874,414.843,153.535,414.843z"/>
			<path fill="#010101" d="M174.466,357.706h-10.409h-0.113H99h-0.113H88.478c-0.453,0-0.905,0.453-0.905,0.905v11.541
				c0,0.566,0.339,0.905,0.905,0.905h6.336h4.073h65.17h5.205h5.205c0.453,0,0.905-0.453,0.905-0.905v-11.541
				C175.371,358.046,174.919,357.706,174.466,357.706z"/>
			
				<line fill="none" stroke="#010101" stroke-width="3" stroke-linecap="round" stroke-miterlimit="10" x1="386.27" y1="426.158" x2="671.955" y2="426.158"/>
		</g>
		<g>
			<g>
				<path fill="#EBEBEB" d="M740.181,134.475l-0.339,316.687c0,8.259-6.675,15.048-15.048,15.048h-381.97V134.475H740.181z"/>
				<rect x="201.394" y="134.589" fill="#EBEBEB" width="141.429" height="331.848"/>
				<path fill="#EBEBEB" d="M59.966,134.589l0.339,316.687c0,8.259,6.675,15.048,15.048,15.048h126.041V134.589H59.966z"/>
				<g>
					<path fill="#CFD5D6" d="M641.973,181.317c0,1.584-1.245,2.942-2.715,2.942H442.728c-1.471,0-2.715-1.245-2.715-2.942v-7.241
						c0-1.584,1.245-2.942,2.715-2.942h196.529c1.471,0,2.715,1.245,2.715,2.942V181.317z"/>
				</g>
				<g>
					<path fill="#CFD5D6" d="M588.23,206.547c0,1.584-1.245,2.942-2.715,2.942H442.728c-1.471,0-2.715-1.245-2.715-2.942v-7.241
						c0-1.584,1.245-2.942,2.715-2.942h142.899c1.471,0,2.715,1.245,2.715,2.942v7.241H588.23z"/>
				</g>
				<g opacity="0.75">
					<g>
						<rect x="389.098" y="172.605" fill="#EBEBEB" width="33.943" height="33.943"/>
						<path fill="#CFD5D6" d="M425.87,206.434c0,1.584-1.245,2.829-2.829,2.829h-33.943c-1.584,0-2.829-1.245-2.829-2.829v-33.943
							c0-1.584,1.245-2.829,2.829-2.829h33.943c1.584,0,2.829,1.245,2.829,2.829V206.434z"/>
					</g>
					<g>
						<path fill="#FFFFFF" d="M416.818,190.255c0.113-0.792,0.226-1.584,0.226-2.376c0-3.394-1.584-7.128-3.507-9.051
							c-0.679-0.679-1.245-1.131-2.037-1.471c-1.697-0.792-3.168-0.792-4.978-0.792c-4.299,0-8.259,2.829-9.843,6.902
							c-0.566,1.358-0.679,2.942-0.679,4.526c0,0.339,0,2.263,0,2.263s-2.602,0.339-1.697,3.507c0,0,0.679,1.923,2.715,1.81
							c0.226,0.679,0.453,1.245,0.792,1.697l0,0c1.584,3.055,4.752,5.205,8.486,5.205c4.299,0,7.92-2.715,9.165-6.675l0,0
							c2.715,0.226,2.942-2.715,2.942-2.715C418.402,191.16,417.497,190.481,416.818,190.255z"/>
						<path fill="#78868C" d="M396.113,190.142c0,0,1.471,0.113,2.489-1.018c1.018-1.131,0.905-1.923,1.245-4.073
							c0,0,0.226-2.829,2.489-2.715c1.923,0,2.376,1.131,4.413,1.245c2.263,0.113,2.829-0.905,4.186-0.905
							c1.131,0,1.81,0.566,1.923,2.602c0.113,1.81,0.792,3.168,1.584,3.96c0.679,0.679,1.923,1.131,2.263,1.131
							c0,0,0.113-0.792,0.113-1.131c0.113-0.566,0.113-0.905,0.113-1.131c0-0.453,0-0.566,0-0.905c0-0.566-0.113-1.018-0.226-1.471
							c-0.113-0.679-0.339-1.584-0.905-3.055c-0.905-2.15-2.037-3.621-3.168-4.526c-2.15-1.697-4.639-1.697-6.675-1.584
							c-1.697,0.113-4.186,0.679-6.223,2.602c-1.471,1.358-2.489,2.602-3.281,4.865c-0.226,0.453-0.339,1.131-0.339,1.923
							C396.113,187.2,396.113,188.784,396.113,190.142z"/>
					</g>
				</g>
				
					<line fill="none" stroke="#CFD5D6" stroke-width="3" stroke-linecap="round" stroke-miterlimit="10" x1="386.27" y1="243.885" x2="679.536" y2="243.885"/>
				
					<line fill="none" stroke="#CFD5D6" stroke-width="3" stroke-linecap="round" stroke-miterlimit="10" x1="386.27" y1="265.947" x2="691.982" y2="265.947"/>
				
					<line fill="none" stroke="#CFD5D6" stroke-width="3" stroke-linecap="round" stroke-miterlimit="10" x1="386.27" y1="287.897" x2="671.955" y2="287.897"/>
				
					<line fill="none" stroke="#CFD5D6" stroke-width="3" stroke-linecap="round" stroke-miterlimit="10" x1="386.27" y1="309.847" x2="691.982" y2="309.847"/>
				
					<line fill="none" stroke="#CFD5D6" stroke-width="3" stroke-linecap="round" stroke-miterlimit="10" x1="386.27" y1="331.797" x2="675.01" y2="331.797"/>
				
					<line fill="none" stroke="#CFD5D6" stroke-width="3" stroke-linecap="round" stroke-miterlimit="10" x1="386.27" y1="353.859" x2="691.982" y2="353.859"/>
				
					<line fill="none" stroke="#CFD5D6" stroke-width="3" stroke-linecap="round" stroke-miterlimit="10" x1="386.27" y1="375.809" x2="671.955" y2="375.809"/>
				
					<line fill="none" stroke="#CFD5D6" stroke-width="3" stroke-linecap="round" stroke-miterlimit="10" x1="386.27" y1="397.759" x2="675.01" y2="397.759"/>
				<g>
					<g>
						
							<line fill="none" stroke="#CFD5D6" stroke-width="3" stroke-linecap="round" stroke-miterlimit="10" x1="86.102" y1="272.736" x2="153.761" y2="272.736"/>
						<path fill="#CFD5D6" d="M177.747,278.506c0,0.566-0.453,0.905-0.905,0.905h-11.541c-0.566,0-0.905-0.453-0.905-0.905v-11.541
							c0-0.566,0.453-0.905,0.905-0.905h11.541c0.566,0,0.905,0.453,0.905,0.905V278.506z"/>
					</g>
				</g>
				<g>
					<g>
						
							<line fill="none" stroke="#CFD5D6" stroke-width="3" stroke-linecap="round" stroke-miterlimit="10" x1="86.102" y1="325.121" x2="153.761" y2="325.121"/>
						<path fill="#CFD5D6" d="M177.747,330.891c0,0.566-0.453,0.905-0.905,0.905h-11.541c-0.566,0-0.905-0.453-0.905-0.905v-11.541
							c0-0.566,0.453-0.905,0.905-0.905h11.541c0.566,0,0.905,0.453,0.905,0.905V330.891z"/>
					</g>
				</g>
				<line fill="none" stroke="#CFD5D6" stroke-miterlimit="10" x1="201.394" y1="134.589" x2="201.394" y2="466.21"/>
				<line fill="none" stroke="#CFD5D6" stroke-miterlimit="10" x1="342.823" y1="134.589" x2="342.823" y2="466.21"/>
				<g>
					<path fill="#0D5E7D" d="M728.187,108.113c-0.113,0-0.113,0-0.226,0C727.622,108,727.282,108,726.943,108
						c-0.113,0-0.339-0.113-0.453-0.113c-0.226,0-0.566,0-0.792,0c-0.226,0-0.453,0-0.679,0l0,0H75.014l0,0
						c-0.226,0-0.453,0-0.792,0c-0.226,0-0.566,0-0.792,0s-0.339,0-0.566,0.113c-0.339,0-0.679,0.113-0.905,0.113
						c-0.113,0-0.113,0-0.226,0c-6.789,1.471-11.767,7.467-11.767,14.709v11.767h679.989v-11.88
						C739.954,115.581,734.976,109.584,728.187,108.113z"/>
				</g>
				<circle fill="#EBEBEB" cx="75.806" cy="121.577" r="3.734"/>
				<circle fill="#EBEBEB" cx="87.346" cy="121.577" r="3.734"/>
				<circle fill="#EBEBEB" cx="98.887" cy="121.577" r="3.734"/>
				<g>
					
						<line fill="none" stroke="#CFD5D6" stroke-width="3" stroke-linecap="round" stroke-miterlimit="10" x1="230.472" y1="171.134" x2="279.802" y2="171.134"/>
					
						<line fill="none" stroke="#CFD5D6" stroke-width="3" stroke-linecap="round" stroke-miterlimit="10" x1="230.472" y1="185.05" x2="306.957" y2="185.05"/>
				</g>
				<g>
					
						<line fill="none" stroke="#CFD5D6" stroke-width="3" stroke-linecap="round" stroke-miterlimit="10" x1="230.472" y1="232.118" x2="292.248" y2="232.118"/>
					
						<line fill="none" stroke="#CFD5D6" stroke-width="3" stroke-linecap="round" stroke-miterlimit="10" x1="230.472" y1="246.034" x2="313.745" y2="246.034"/>
				</g>
				<g>
					
						<line fill="none" stroke="#CFD5D6" stroke-width="3" stroke-linecap="round" stroke-miterlimit="10" x1="230.472" y1="293.102" x2="279.802" y2="293.102"/>
					
						<line fill="none" stroke="#CFD5D6" stroke-width="3" stroke-linecap="round" stroke-miterlimit="10" x1="230.472" y1="307.018" x2="306.957" y2="307.018"/>
				</g>
				<g>
					
						<line fill="none" stroke="#CFD5D6" stroke-width="3" stroke-linecap="round" stroke-miterlimit="10" x1="230.472" y1="354.086" x2="292.248" y2="354.086"/>
					
						<line fill="none" stroke="#CFD5D6" stroke-width="3" stroke-linecap="round" stroke-miterlimit="10" x1="230.472" y1="368.002" x2="313.745" y2="368.002"/>
				</g>
				<g>
					
						<line fill="none" stroke="#CFD5D6" stroke-width="3" stroke-linecap="round" stroke-miterlimit="10" x1="230.472" y1="415.07" x2="279.802" y2="415.07"/>
					
						<line fill="none" stroke="#CFD5D6" stroke-width="3" stroke-linecap="round" stroke-miterlimit="10" x1="230.472" y1="428.986" x2="306.957" y2="428.986"/>
				</g>
				<path fill="#CFD5D6" d="M174.466,170.342h-10.409h-0.113H99h-0.113H88.478c-0.453,0-0.905,0.453-0.905,0.905v11.541
					c0,0.566,0.339,0.905,0.905,0.905h6.336h4.073h65.17h5.205h5.205c0.453,0,0.905-0.453,0.905-0.905v-11.541
					C175.371,170.794,174.919,170.342,174.466,170.342z"/>
				<path fill="#CFD5D6" d="M174.466,197.609h-10.409h-0.113H99h-0.113H88.478c-0.453,0-0.905,0.453-0.905,0.905v11.541
					c0,0.566,0.339,0.905,0.905,0.905h6.336h4.073h65.17h5.205h5.205c0.453,0,0.905-0.453,0.905-0.905v-11.541
					C175.371,197.949,174.919,197.609,174.466,197.609z"/>
				<path fill="#CFD5D6" d="M153.535,227.479h-7.92h-0.113H96.285h-0.113h-7.92c-0.339,0-0.679,0.453-0.679,0.905v11.541
					c0,0.566,0.339,0.905,0.679,0.905h4.752h3.168h49.443h3.96h3.96c0.339,0,0.679-0.453,0.679-0.905v-11.541
					C154.101,227.931,153.874,227.479,153.535,227.479z"/>
				<path fill="#CFD5D6" d="M153.535,380.448h-7.92h-0.113H96.285h-0.113h-7.92c-0.339,0-0.679,0.453-0.679,0.905v11.541
					c0,0.566,0.339,0.905,0.679,0.905h4.752h3.168h49.443h3.96h3.96c0.339,0,0.679-0.453,0.679-0.905v-11.541
					C154.101,380.787,153.874,380.448,153.535,380.448z"/>
				<path fill="#CFD5D6" d="M153.535,408.394h-7.92h-0.113H96.285h-0.113h-7.92c-0.339,0-0.679,0.453-0.679,0.905v11.541
					c0,0.566,0.339,0.905,0.679,0.905h4.752h3.168h49.443h3.96h3.96c0.339,0,0.679-0.453,0.679-0.905v-11.541
					C154.101,408.847,153.874,408.394,153.535,408.394z"/>
				<path fill="#CFD5D6" d="M174.466,351.144h-10.409h-0.113H99h-0.113H88.478c-0.453,0-0.905,0.453-0.905,0.905v11.541
					c0,0.566,0.339,0.905,0.905,0.905h6.336h4.073h65.17h5.205h5.205c0.453,0,0.905-0.453,0.905-0.905v-11.541
					C175.371,351.597,174.919,351.144,174.466,351.144z"/>
				
					<line fill="none" stroke="#CFD5D6" stroke-width="3" stroke-linecap="round" stroke-miterlimit="10" x1="386.27" y1="419.595" x2="671.955" y2="419.595"/>
			</g>
		</g>
	</g>
	
		<image overflow="visible" enable-background="new    " width="127" height="193" xlink:href="ED9C0565176FC0A9.png"  transform="matrix(2.5431 0 0 1.8242 239.047 214.9976)">
	</image>
	<g>
		<g>
			<g>
				<g opacity="0.25">
					<path fill="#010101" d="M528.038,435.775H279.802c-4.526,0-8.146-3.621-8.146-8.146V223.066c0-4.526,3.621-8.146,8.146-8.146
						h248.235c4.526,0,8.146,3.621,8.146,8.146v204.562C536.184,432.154,532.563,435.775,528.038,435.775z"/>
				</g>
				<g>
					<path fill="#FFFFFF" d="M528.038,430.91H279.802c-4.526,0-8.146-3.621-8.146-8.146V218.201c0-4.526,3.621-8.146,8.146-8.146
						h248.235c4.526,0,8.146,3.621,8.146,8.146v204.562C536.184,427.289,532.563,430.91,528.038,430.91z"/>
				</g>
			</g>
			<g>
				<path fill="none" stroke="#CFD5D6" stroke-miterlimit="10" d="M501.11,248.637H306.73c-2.263,0-4.073-1.81-4.073-4.073v-8.938
					c0-2.263,1.81-4.073,4.073-4.073h194.493c2.263,0,4.073,1.81,4.073,4.073v8.938C505.183,246.826,503.373,248.637,501.11,248.637
					z"/>
				<path fill="none" stroke="#CFD5D6" stroke-miterlimit="10" d="M501.11,380.448H306.73c-2.263,0-4.073-1.81-4.073-4.073V266.739
					c0-2.263,1.81-4.073,4.073-4.073h194.493c2.263,0,4.073,1.81,4.073,4.073v109.635
					C505.183,378.525,503.373,380.448,501.11,380.448z"/>
				<g>
					<path fill="#0D5E7D" d="M361.491,394.251H336.6h-4.073h-24.891c-2.037,0-3.621,1.81-3.621,3.96v9.843
						c0,2.15,1.584,3.96,3.621,3.96h24.891h4.073h24.891c2.037,0,3.621-1.81,3.621-3.96v-9.843
						C365.112,396.062,363.415,394.251,361.491,394.251z"/>
					<path fill="#CFD5D6" d="M428.019,394.251h-24.891h-4.073h-24.891c-2.037,0-3.621,1.81-3.621,3.96v9.843
						c0,2.15,1.584,3.96,3.621,3.96h24.891h4.073h24.891c2.037,0,3.621-1.81,3.621-3.96v-9.843
						C431.64,396.062,430.056,394.251,428.019,394.251z"/>
				</g>
			</g>
		</g>
	</g>
	<g>
		
			<image overflow="visible" opacity="0.5" enable-background="new    " width="127" height="193" xlink:href="ED9C0565176FC0AB.png"  transform="matrix(1.9295 0 0 0.5619 -40.9395 242.5944)">
		</image>
		<g>
			<g>
				<g>
					<g opacity="0.2">
						<path fill="#010101" d="M190.08,340.735H79.313c-2.15,0-3.96-1.471-3.96-3.281v-75.806c0-1.81,1.81-3.281,3.96-3.281H190.08
							c2.15,0,3.96,1.471,3.96,3.281v75.806C194.04,339.264,192.343,340.735,190.08,340.735z"/>
					</g>
					<g>
						<g>
							<path fill="#FFFFFF" d="M194.153,336.662H83.386c-2.15,0-3.96-1.471-3.96-3.281v-75.806c0-1.81,1.81-3.281,3.96-3.281
								h110.767c2.15,0,3.96,1.471,3.96,3.281v75.806C198.113,335.191,196.416,336.662,194.153,336.662z"/>
						</g>
					</g>
				</g>
				<g>
					<g>
						<path fill="#0D5E7D" d="M132.83,323.65h-31.68c-2.15,0-3.96-1.81-3.96-3.96v-9.843c0-2.15,1.81-3.96,3.96-3.96h31.68
							c2.15,0,3.96,1.81,3.96,3.96v9.843C136.79,321.84,135.093,323.65,132.83,323.65z"/>
						<g>
							<path fill="#CFD5D6" d="M176.39,323.424h-31.68c-2.15,0-3.96-1.81-3.96-3.96v-9.843c0-2.15,1.81-3.96,3.96-3.96h31.68
								c2.15,0,3.96,1.81,3.96,3.96v9.843C180.35,321.727,178.539,323.424,176.39,323.424z"/>
						</g>
					</g>
					<path fill="#CFD5D6" d="M181.368,283.145H96.285c-1.131,0-1.923-0.905-1.923-1.923l0,0c0-1.131,0.905-1.923,1.923-1.923h85.083
						c1.131,0,1.923,0.905,1.923,1.923l0,0C183.291,282.24,182.386,283.145,181.368,283.145z"/>
					<path fill="#CFD5D6" d="M176.616,291.065h-75.693c-1.131,0-1.923-0.905-1.923-1.923l0,0c0-1.131,0.905-1.923,1.923-1.923
						h75.693c1.131,0,1.923,0.905,1.923,1.923l0,0C178.653,290.16,177.747,291.065,176.616,291.065z"/>
					<path fill="#78868C" d="M157.042,271.265h-36.545c-1.131,0-1.923-0.905-1.923-1.923l0,0c0-1.131,0.905-1.923,1.923-1.923
						h36.545c1.131,0,1.923,0.905,1.923,1.923l0,0C159.079,270.36,158.174,271.265,157.042,271.265z"/>
				</g>
			</g>
		</g>
	</g>
	<g>
		
			<image overflow="visible" enable-background="new    " width="212" height="81" xlink:href="ED9C0565176FC0AE.png"  transform="matrix(1.1866 0 0 1.2296 576.4188 116.6852)">
		</image>
		<g>
			<g>
				<g opacity="0.2">
					<path fill="#010101" d="M719.589,154.389h-34.282h-7.015h-33.603h-0.679h-40.618c-0.792,0-1.471,0.566-1.471,1.245v29.87
						c0,0.679,0.679,1.245,1.471,1.245h40.618h0.679h33.603h7.015h34.282c0.792,0,1.471-0.566,1.471-1.245v-29.87
						C721.059,154.954,720.494,154.389,719.589,154.389z"/>
				</g>
				<g>
					<g>
						<path fill="#FFFFFF" d="M715.516,150.315h-34.282h-6.902h-33.603h-0.679h-40.618c-0.792,0-1.471,0.566-1.471,1.245v29.87
							c0,0.679,0.679,1.245,1.471,1.245h40.618h0.679h33.603h7.015h34.282c0.792,0,1.471-0.566,1.471-1.245v-29.87
							C716.986,150.881,716.421,150.315,715.516,150.315z"/>
					</g>
				</g>
			</g>
			<g>
				<g>
					<path fill="#CFD5D6" d="M700.694,171.699h-63.36c-1.131,0-1.923-0.905-1.923-1.923l0,0c0-1.131,0.905-1.923,1.923-1.923h63.36
						c1.131,0,1.923,0.905,1.923,1.923l0,0C702.617,170.794,701.825,171.699,700.694,171.699z"/>
					<path fill="#78868C" d="M675.237,163.893h-37.903c-1.131,0-1.923-0.905-1.923-1.923l0,0c0-1.131,0.905-1.923,1.923-1.923
						h37.903c1.131,0,1.923,0.905,1.923,1.923l0,0C677.16,162.987,676.255,163.893,675.237,163.893z"/>
				</g>
				<path fill="#0D5E7D" d="M628.395,174.075c0,0.679-0.566,1.245-1.245,1.245h-15.274c-0.679,0-1.245-0.566-1.245-1.245v-15.161
					c0-0.679,0.566-1.245,1.245-1.245h15.274c0.679,0,1.245,0.566,1.245,1.245V174.075z"/>
			</g>
		</g>
	</g>
</g>
</svg>
