<?xml version="1.0" encoding="utf-8"?>
<!-- Generator: Adobe Illustrator 18.0.0, SVG Export Plug-In . SVG Version: 6.00 Build 0)  -->
<!DOCTYPE svg PUBLIC "-//W3C//DTD SVG 1.1//EN" "http://www.w3.org/Graphics/SVG/1.1/DTD/svg11.dtd">
<svg version="1.1" id="Layer_1" xmlns="http://www.w3.org/2000/svg" xmlns:xlink="http://www.w3.org/1999/xlink" x="0px" y="0px"
	 viewBox="0 0 70 70" enable-background="new 0 0 70 70" xml:space="preserve">
<g>
	<path fill="none" stroke="#01465D" stroke-width="3" stroke-linecap="round" stroke-miterlimit="10" d="M11.5,49.8
		C22,39.3,34.2,35.9,34.2,35.9s-3.4,12.2-13.8,22.7c-6.9,6.9-11.2,7.3-13.7,4.8C4.3,61,4.6,56.7,11.5,49.8z"/>
	
		<line fill="none" stroke="#01465D" stroke-width="3" stroke-linecap="round" stroke-miterlimit="10" x1="33" y1="37.2" x2="64.7" y2="5.5"/>
	
		<line fill="none" stroke="#01465D" stroke-width="3" stroke-linecap="round" stroke-miterlimit="10" x1="40.6" y1="35.5" x2="34.6" y2="29.6"/>
	<g>
		<path fill="none" stroke="#01465D" stroke-width="3" stroke-linecap="round" stroke-miterlimit="10" d="M36.3,39.7l-5.9-5.9
			c0,0-16.2,4.5-20.2,8.5c-6.3,6.3-6.3,14.2-1.4,19c4.9,4.9,12.7,4.9,19-1.4C31.9,55.9,36.3,39.7,36.3,39.7z"/>
		<path fill="none" stroke="#01465D" stroke-width="3" stroke-linecap="round" stroke-miterlimit="10" d="M31.6,49.8"/>
		<path fill="none" stroke="#01465D" stroke-width="3" stroke-linecap="round" stroke-miterlimit="10" d="M20.4,38.5"/>
	</g>
	
		<line fill="none" stroke="#01465D" stroke-width="3" stroke-linecap="round" stroke-miterlimit="10" x1="9.5" y1="60.7" x2="31.5" y2="38.6"/>
</g>
</svg>
