<?xml version="1.0" encoding="utf-8"?>
<!-- Generator: Adobe Illustrator 17.0.2, SVG Export Plug-In . SVG Version: 6.00 Build 0)  -->
<!DOCTYPE svg PUBLIC "-//W3C//DTD SVG 1.1//EN" "http://www.w3.org/Graphics/SVG/1.1/DTD/svg11.dtd">
<svg version="1.1" id="Layer_1" xmlns="http://www.w3.org/2000/svg" xmlns:xlink="http://www.w3.org/1999/xlink" x="0px" y="0px"
	 width="93.6px" height="93.6px" viewBox="0 0 93.6 93.6" enable-background="new 0 0 93.6 93.6" xml:space="preserve">
<polygon fill="none" stroke="#06475E" stroke-width="3" stroke-linecap="round" stroke-linejoin="round" stroke-miterlimit="10" points="
	68.342,78.913 22.328,78.913 22.328,50.965 27.597,50.965 27.597,73.671 63.074,73.671 63.074,50.965 68.342,50.965 "/>
<rect x="33.286" y="62.236" fill="none" stroke="#06475E" stroke-width="3" stroke-linecap="round" stroke-linejoin="round" stroke-miterlimit="10" width="24.231" height="5.241"/>
<rect x="33.242" y="53.872" transform="matrix(0.9961 0.088 -0.088 0.9961 5.1475 -3.7722)" fill="none" stroke="#06475E" stroke-width="3" stroke-linecap="round" stroke-linejoin="round" stroke-miterlimit="10" width="24.227" height="5.242"/>
<polygon fill="none" stroke="#06475E" stroke-width="3" stroke-linecap="round" stroke-linejoin="round" stroke-miterlimit="10" points="
	57.926,53.091 34.606,46.544 36.037,41.496 59.357,48.047 "/>
<polygon fill="none" stroke="#06475E" stroke-width="3" stroke-linecap="round" stroke-linejoin="round" stroke-miterlimit="10" points="
	59.984,46.544 38.987,34.505 41.617,29.962 62.615,41.997 "/>
<polygon fill="none" stroke="#06475E" stroke-width="3" stroke-linecap="round" stroke-linejoin="round" stroke-miterlimit="10" points="
	64.09,40.95 50.072,21.287 54.366,18.252 68.387,37.919 "/>
<polygon fill="none" stroke="#06475E" stroke-width="3" stroke-linecap="round" stroke-linejoin="round" stroke-miterlimit="10" points="
	69.584,37.345 65.287,13.615 70.469,12.685 74.77,36.417 "/>
</svg>
