<?xml version="1.0" encoding="utf-8"?>
<!-- Generator: Adobe Illustrator 17.0.2, SVG Export Plug-In . SVG Version: 6.00 Build 0)  -->
<!DOCTYPE svg PUBLIC "-//W3C//DTD SVG 1.1//EN" "http://www.w3.org/Graphics/SVG/1.1/DTD/svg11.dtd">
<svg version="1.1" id="Layer_1" xmlns="http://www.w3.org/2000/svg" xmlns:xlink="http://www.w3.org/1999/xlink" x="0px" y="0px"
	 width="379.533px" height="347.572px" viewBox="180.02 66.857 379.533 347.572"
	 enable-background="new 180.02 66.857 379.533 347.572" xml:space="preserve">
<rect x="180.02" y="66.857" fill="#02698B" width="379.533" height="347.572"/>
<rect x="369.902" y="66.857" opacity="0.05" fill="#FFFFFF" enable-background="new    " width="189.651" height="174.009"/>
<rect x="180.02" y="240.42" opacity="0.05" fill="#FFFFFF" enable-background="new    " width="190.178" height="174.009"/>
<g>
	<g>
		
			<polygon fill="none" stroke="#FFFFFF" stroke-width="2.7468" stroke-linecap="round" stroke-linejoin="round" stroke-miterlimit="10" points="
			419.45,310.907 320.048,310.907 320.048,249.515 332.514,249.515 332.514,298.502 406.984,298.502 406.984,249.515 
			419.45,249.515 		"/>
		
			<rect x="341.239" y="276.183" fill="none" stroke="#FFFFFF" stroke-width="2.7468" stroke-linecap="round" stroke-linejoin="round" stroke-miterlimit="10" width="57.333" height="12.4"/>
		
			<rect x="341.13" y="256.388" transform="matrix(-0.9961 -0.088 0.088 -0.9961 715.0379 556.7024)" fill="none" stroke="#FFFFFF" stroke-width="2.7468" stroke-linecap="round" stroke-linejoin="round" stroke-miterlimit="10" width="57.322" height="12.403"/>
		
			<polygon fill="none" stroke="#FFFFFF" stroke-width="2.7468" stroke-linecap="round" stroke-linejoin="round" stroke-miterlimit="10" points="
			399.539,254.546 344.364,239.054 347.749,227.111 402.924,242.611 		"/>
		
			<polygon fill="none" stroke="#FFFFFF" stroke-width="2.7468" stroke-linecap="round" stroke-linejoin="round" stroke-miterlimit="10" points="
			404.41,239.054 354.729,210.571 360.951,199.821 410.635,228.295 		"/>
		
			<polygon fill="none" stroke="#FFFFFF" stroke-width="2.7468" stroke-linecap="round" stroke-linejoin="round" stroke-miterlimit="10" points="
			414.125,225.82 380.956,179.294 391.117,172.115 424.291,218.647 		"/>
		
			<polygon fill="none" stroke="#FFFFFF" stroke-width="2.7468" stroke-linecap="round" stroke-linejoin="round" stroke-miterlimit="10" points="
			427.123,217.29 416.956,161.143 429.218,158.942 439.394,215.095 		"/>
	</g>
	<g>
		
			<polygon fill="none" stroke="#FFFFFF" stroke-width="2.7468" stroke-linecap="round" stroke-linejoin="round" stroke-miterlimit="10" points="
			419.45,310.907 320.048,310.907 320.048,249.515 332.514,249.515 332.514,298.502 406.984,298.502 406.984,249.515 
			419.45,249.515 		"/>
		
			<rect x="341.239" y="276.183" fill="none" stroke="#FFFFFF" stroke-width="2.7468" stroke-linecap="round" stroke-linejoin="round" stroke-miterlimit="10" width="57.333" height="12.4"/>
		
			<rect x="341.13" y="256.388" transform="matrix(-0.9961 -0.088 0.088 -0.9961 715.0379 556.7024)" fill="none" stroke="#FFFFFF" stroke-width="2.7468" stroke-linecap="round" stroke-linejoin="round" stroke-miterlimit="10" width="57.322" height="12.403"/>
		
			<polygon fill="none" stroke="#FFFFFF" stroke-width="2.7468" stroke-linecap="round" stroke-linejoin="round" stroke-miterlimit="10" points="
			399.539,254.546 344.364,239.054 347.749,227.111 402.924,242.611 		"/>
		
			<polygon fill="none" stroke="#FFFFFF" stroke-width="2.7468" stroke-linecap="round" stroke-linejoin="round" stroke-miterlimit="10" points="
			404.41,239.054 354.729,210.571 360.951,199.821 410.635,228.295 		"/>
		
			<polygon fill="none" stroke="#FFFFFF" stroke-width="2.7468" stroke-linecap="round" stroke-linejoin="round" stroke-miterlimit="10" points="
			414.125,225.82 380.956,179.294 391.117,172.115 424.291,218.647 		"/>
		
			<polygon fill="none" stroke="#FFFFFF" stroke-width="2.7468" stroke-linecap="round" stroke-linejoin="round" stroke-miterlimit="10" points="
			427.123,217.29 416.956,161.143 429.218,158.942 439.394,215.095 		"/>
	</g>
</g>
</svg>
