<?xml version="1.0" encoding="utf-8"?>
<!-- Generator: Adobe Illustrator 17.0.2, SVG Export Plug-In . SVG Version: 6.00 Build 0)  -->
<!DOCTYPE svg PUBLIC "-//W3C//DTD SVG 1.1//EN" "http://www.w3.org/Graphics/SVG/1.1/DTD/svg11.dtd">
<svg version="1.1" id="Layer_1" xmlns="http://www.w3.org/2000/svg" xmlns:xlink="http://www.w3.org/1999/xlink" x="0px" y="0px"
	 width="93.6px" height="93.6px" viewBox="0 0 93.6 93.6" enable-background="new 0 0 93.6 93.6" xml:space="preserve">
<g id="_x35_151e0c8492e5103c096af88a5006e1e_1_">
	
		<path id="XMLID_2_" fill="none" stroke="#06475E" stroke-width="3" stroke-linecap="round" stroke-linejoin="round" stroke-miterlimit="10" d="
		M5.649,50.135c3.7-0.924,8.729-2.182,17.542-2.416c-0.243-0.487-0.464-0.991-0.658-1.511c-3.429-0.03-13.99,0.457-17.608,1.351
		c-0.021,0.006-0.043,0.008-0.064,0.008c-0.121,0-0.232-0.083-0.262-0.206c-0.035-0.143,0.054-0.29,0.198-0.327
		c3.585-0.886,13.891-1.378,17.542-1.368c-0.822-2.416-1.184-5.184-1.184-8.274c0-5.488,1.709-7.559,4.006-10.484
		c-1.756-6.255,0.63-10.531,0.63-10.531s3.69-0.765,10.666,4.23c3.781-1.62,13.862-1.755,18.631-0.359
		c2.928-1.935,8.281-4.681,10.443-3.913c0.584,0.943,1.844,3.687,0.763,9.719c0.735,1.323,4.546,4.141,4.562,12.107
		c-0.063,2.938-0.368,5.418-0.933,7.516c9.095-0.077,14.446,0.674,18.131,1.353c0.145,0.03,0.242,0.17,0.217,0.316
		c-0.025,0.129-0.138,0.221-0.264,0.221c-0.019,0-0.035-0.001-0.053-0.003c-3.679-0.681-9.039-1.429-18.188-1.346
		c-0.16,0.533-0.339,1.038-0.534,1.521c3.114,0.104,11.666,0.437,18.64,2.57c0.145,0.044,0.223,0.195,0.179,0.339
		c-0.035,0.115-0.142,0.19-0.257,0.19c-0.025,0-0.054-0.003-0.079-0.012C80.643,48.663,71.906,48.366,69,48.27
		c-2.529,5.556-7.716,7.63-16.102,8.492c2.717,1.711,3.497,3.856,3.497,9.663c0,5.806-0.079,6.585-0.06,7.92
		c0.028,2.191,3.239,3.241,3.12,3.946c-0.12,0.704-2.686,0.591-3.886,0.171c-3.399-1.184-3.06-4.012-3.06-4.012l-0.113-7.763
		c0,0,0.232-4.179-1.31-4.179c0,0.84,0,9.702,0,12.706c0,2.761,1.932,3.601,1.932,4.621c0,1.755-3.531-0.167-4.618-1.262
		c-1.659-1.665-1.471-5.196-1.43-7.989c0.038-2.697-0.025-8.596-0.025-8.596l-1.126,0.024c0,0,0.462,12.886-0.594,15.234
		c-1.365,3.014-5.482,4.052-5.482,2.678c0-0.924,1.015-0.63,1.575-2.7c0.479-1.761,0.316-14.899,0.316-14.899
		s-1.32,0.781-1.32,3.241c0,1.126-0.032,7.559-0.032,9.474c0,2.408-3.42,3.78-5.063,3.78c-0.833,0-1.868-0.041-1.868-0.482
		c0-1.114,3.128-1.767,3.128-4.085c0-2.009-0.044-7.177-0.044-7.177s-1.577,0.27-3.827,0.27c-5.671,0-7.465-3.619-8.318-5.644
		c-1.11-2.637-2.551-3.877-4.081-4.867c-0.94-0.608-1.156-1.326-0.069-1.53c5.02-0.946,6.304,5.693,9.656,6.75
		c2.392,0.756,5.468,0.429,6.998-0.561c0.203-2.028,1.664-3.781,2.881-4.705c-8.527-0.819-13.582-3.78-16.202-8.539
		c-8.92,0.214-13.981,1.479-17.691,2.406c-0.27,0.068-0.534,0.134-0.788,0.198c-0.022,0.005-0.044,0.006-0.066,0.006
		c-0.121,0-0.231-0.082-0.262-0.204c-0.036-0.145,0.054-0.292,0.198-0.328C5.118,50.268,5.38,50.204,5.649,50.135z"/>
</g>
</svg>
