<?xml version="1.0" encoding="utf-8"?>
<!-- Generator: Adobe Illustrator 17.0.2, SVG Export Plug-In . SVG Version: 6.00 Build 0)  -->
<!DOCTYPE svg PUBLIC "-//W3C//DTD SVG 1.1//EN" "http://www.w3.org/Graphics/SVG/1.1/DTD/svg11.dtd">
<svg version="1.1" id="Layer_1" xmlns="http://www.w3.org/2000/svg" xmlns:xlink="http://www.w3.org/1999/xlink" x="0px" y="0px"
	 width="93.6px" height="93.6px" viewBox="0 0 93.6 93.6" enable-background="new 0 0 93.6 93.6" xml:space="preserve">
<path fill="none" stroke="#06475E" stroke-width="3" stroke-linecap="round" stroke-linejoin="round" stroke-miterlimit="10" d="
	M82.16,26.813c-2.53,1.122-5.246,1.879-8.098,2.22c2.912-1.745,5.147-4.508,6.2-7.8c-2.725,1.615-5.742,2.789-8.953,3.421
	c-2.572-2.74-6.237-4.452-10.291-4.452c-7.786,0-14.099,6.312-14.099,14.098c0,1.105,0.124,2.181,0.365,3.212
	c-11.716-0.587-22.108-6.2-29.059-14.73c-1.214,2.083-1.91,4.504-1.91,7.088c0,4.891,2.489,9.206,6.272,11.735
	c-2.309-0.073-4.485-0.706-6.385-1.762C16.2,39.901,16.2,39.96,16.2,40.019c0,6.831,4.861,12.53,11.309,13.824
	c-1.182,0.322-2.428,0.495-3.714,0.495c-0.907,0-1.79-0.088-2.652-0.253c1.794,5.601,7.003,9.677,13.171,9.791
	c-4.826,3.782-10.904,6.036-17.509,6.036c-1.138,0-2.26-0.067-3.363-0.199c6.238,4.002,13.648,6.337,21.612,6.337
	c25.932,0,40.113-21.484,40.113-40.115c0-0.61-0.013-1.218-0.041-1.824C77.88,32.124,80.27,29.641,82.16,26.813z"/>
</svg>
