<?xml version="1.0" encoding="utf-8"?>
<!-- Generator: Adobe Illustrator 17.0.2, SVG Export Plug-In . SVG Version: 6.00 Build 0)  -->
<!DOCTYPE svg PUBLIC "-//W3C//DTD SVG 1.1//EN" "http://www.w3.org/Graphics/SVG/1.1/DTD/svg11.dtd">
<svg version="1.1" id="Layer_1" xmlns="http://www.w3.org/2000/svg" xmlns:xlink="http://www.w3.org/1999/xlink" x="0px" y="0px"
	 width="379.533px" height="347.572px" viewBox="180.014 66.857 379.533 347.572"
	 enable-background="new 180.014 66.857 379.533 347.572" xml:space="preserve">
<rect x="180.014" y="66.857" fill="#01526C" width="379.533" height="347.572"/>
<rect x="180.449" y="66.944" opacity="0.1" fill="#FFFFFF" enable-background="new    " width="378.664" height="115.857"/>
<rect x="180.449" y="182.801" opacity="0.05" fill="#FFFFFF" enable-background="new    " width="378.664" height="115.857"/>
<g id="_x35_151e0c8492e5103c096af88a5006e1e">
	
		<path id="XMLID_1_" fill="none" stroke="#FFFFFF" stroke-width="3" stroke-linecap="round" stroke-linejoin="round" stroke-miterlimit="10" d="
		M273.284,241.925c8.754-2.186,20.654-5.162,41.506-5.716c-0.576-1.152-1.097-2.346-1.558-3.576
		c-8.114-0.071-33.102,1.081-41.662,3.196c-0.049,0.014-0.101,0.019-0.152,0.019c-0.286,0-0.55-0.196-0.621-0.486
		c-0.082-0.338,0.127-0.687,0.468-0.774c8.482-2.096,32.868-3.259,41.506-3.238c-1.944-5.716-2.802-12.266-2.802-19.577
		c0-12.986,4.045-17.885,9.478-24.806c-4.156-14.8,1.491-24.917,1.491-24.917s8.73-1.81,25.237,10.009
		c8.947-3.833,32.798-4.152,44.082-0.85c6.927-4.579,19.594-11.076,24.709-9.259c1.383,2.23,4.364,8.723,1.806,22.995
		c1.739,3.13,10.757,9.797,10.793,28.645c-0.149,6.951-0.87,12.82-2.207,17.784c21.52-0.182,34.18,1.595,42.899,3.2
		c0.342,0.071,0.573,0.401,0.512,0.748c-0.059,0.305-0.328,0.524-0.624,0.524c-0.045,0-0.082-0.003-0.126-0.007
		c-8.704-1.612-21.386-3.382-43.033-3.186c-0.38,1.26-0.803,2.457-1.265,3.599c7.368,0.245,27.602,1.034,44.104,6.08
		c0.342,0.104,0.528,0.46,0.424,0.803c-0.082,0.271-0.335,0.449-0.609,0.449c-0.059,0-0.127-0.007-0.186-0.029
		c-16.733-5.114-37.406-5.817-44.282-6.044c-5.985,13.146-18.258,18.053-38.098,20.092c6.429,4.048,8.274,9.125,8.274,22.863
		c0,13.737-0.186,15.581-0.141,18.74c0.066,5.185,7.664,7.668,7.382,9.337c-0.283,1.666-6.356,1.397-9.195,0.406
		c-8.043-2.802-7.241-9.493-7.241-9.493l-0.267-18.367c0,0,0.55-9.887-3.099-9.887c0,1.988,0,22.955,0,30.064
		c0,6.533,4.572,8.52,4.572,10.935c0,4.152-8.355-0.394-10.928-2.985c-3.926-3.939-3.48-12.295-3.384-18.903
		c0.09-6.382-0.059-20.339-0.059-20.339l-2.665,0.056c0,0,1.093,30.489-1.405,36.045c-3.229,7.132-12.972,9.586-12.972,6.337
		c0-2.186,2.401-1.49,3.727-6.389c1.133-4.167,0.748-35.251,0.748-35.251s-3.122,1.848-3.122,7.668
		c0,2.665-0.075,17.885-0.075,22.417c0,5.698-8.091,8.943-11.98,8.943c-1.97,0-4.419-0.097-4.419-1.14
		c0-2.636,7.401-4.182,7.401-9.664c0-4.754-0.104-16.982-0.104-16.982s-3.732,0.638-9.054,0.638
		c-13.418,0-17.663-8.563-19.681-13.354c-2.627-6.24-6.035-9.172-9.656-11.515c-2.223-1.438-2.735-3.137-0.163-3.62
		c11.879-2.237,14.916,13.47,22.847,15.971c5.66,1.789,12.938,1.015,16.559-1.327c0.479-4.798,3.936-8.947,6.816-11.132
		c-20.175-1.937-32.136-8.943-38.336-20.205c-21.104,0.505-33.08,3.501-41.858,5.693c-0.639,0.16-1.263,0.316-1.865,0.469
		c-0.052,0.012-0.104,0.014-0.156,0.014c-0.286,0-0.546-0.193-0.621-0.484c-0.085-0.342,0.127-0.691,0.469-0.777
		C272.027,242.24,272.648,242.089,273.284,241.925z"/>
</g>
</svg>
