<?xml version="1.0" encoding="utf-8"?>
<!-- Generator: Adobe Illustrator 17.0.2, SVG Export Plug-In . SVG Version: 6.00 Build 0)  -->
<!DOCTYPE svg PUBLIC "-//W3C//DTD SVG 1.1//EN" "http://www.w3.org/Graphics/SVG/1.1/DTD/svg11.dtd">
<svg version="1.1" id="Layer_1" xmlns="http://www.w3.org/2000/svg" xmlns:xlink="http://www.w3.org/1999/xlink" x="0px" y="0px"
	 width="379.533px" height="347.786px" viewBox="179.823 65.857 379.533 347.786"
	 enable-background="new 179.823 65.857 379.533 347.786" xml:space="preserve">
<rect x="179.823" y="65.857" fill="#0280AA" width="379.533" height="347.572"/>
<polygon opacity="0.05" fill="#FFFFFF" enable-background="new    " points="558.654,413.643 180.526,65.857 558.654,65.857 "/>
<polygon opacity="0.05" fill="#FFFFFF" enable-background="new    " points="180.526,413.643 558.654,65.857 558.654,413.643 "/>
<path fill="none" stroke="#FFFFFF" stroke-width="2.8985" stroke-linecap="round" stroke-linejoin="round" stroke-miterlimit="10" d="
	M459.497,182.495c-5.985,2.654-12.413,4.446-19.161,5.254c6.89-4.128,12.178-10.666,14.67-18.455
	c-6.448,3.821-13.586,6.598-21.184,8.095c-6.085-6.484-14.756-10.533-24.349-10.533c-18.422,0-33.358,14.934-33.358,33.357
	c0,2.615,0.293,5.16,0.863,7.601c-27.722-1.389-52.309-14.67-68.757-34.853c-2.872,4.927-4.519,10.658-4.519,16.771
	c0,11.572,5.889,21.781,14.839,27.765c-5.464-0.173-10.611-1.671-15.109-4.17c-0.004,0.138-0.004,0.276-0.004,0.418
	c0,16.163,11.502,29.646,26.759,32.709c-2.796,0.763-5.744,1.172-8.788,1.172c-2.147,0-4.235-0.209-6.275-0.599
	c4.246,13.252,16.569,22.898,31.163,23.165c-11.419,8.949-25.799,14.282-41.429,14.282c-2.692,0-5.347-0.159-7.956-0.471
	c14.76,9.468,32.292,14.993,51.135,14.993c61.356,0,94.911-50.833,94.911-94.916c0-1.443-0.031-2.882-0.097-4.317
	C449.369,195.061,455.023,189.186,459.497,182.495z"/>
</svg>
