<?xml version="1.0" encoding="utf-8"?>
<!-- Generator: Adobe Illustrator 18.0.0, SVG Export Plug-In . SVG Version: 6.00 Build 0)  -->
<!DOCTYPE svg PUBLIC "-//W3C//DTD SVG 1.1//EN" "http://www.w3.org/Graphics/SVG/1.1/DTD/svg11.dtd">
<svg version="1.1" id="Layer_1" xmlns="http://www.w3.org/2000/svg" xmlns:xlink="http://www.w3.org/1999/xlink" x="0px" y="0px"
	 viewBox="0 0 70 70" enable-background="new 0 0 70 70" xml:space="preserve">
<g>
	<g>
		<polygon fill="none" stroke="#04465D" stroke-width="3" stroke-miterlimit="10" points="47.8,27.8 48.1,28.1 47.8,28.4 		"/>
		<polygon fill="none" stroke="#04465D" stroke-width="3" stroke-miterlimit="10" points="34.7,20.5 35,20.1 35.3,20.5 		"/>
		<g>
			<polygon fill="none" stroke="#04465D" stroke-width="3" stroke-miterlimit="10" points="22.2,27.8 21.9,28.1 22.2,28.4 			"/>
			<g>
				<path fill="#04455D" d="M35,26.4c0.8,0,1.5-0.7,1.5-1.5v-3.5c0-0.8-0.7-1.5-1.5-1.5s-1.5,0.7-1.5,1.5v3.5
					C33.5,25.7,34.2,26.4,35,26.4z"/>
				<path fill="#04455D" d="M34,38.3c-0.1-0.1-0.2-0.2-0.3-0.3C33.8,38.1,33.9,38.2,34,38.3z"/>
				<path fill="#04455D" d="M34.5,38.6c-0.1,0-0.2-0.1-0.3-0.2C34.2,38.4,34.3,38.5,34.5,38.6z"/>
				<path fill="#04455D" d="M34.7,38.6c0.1,0,0.2,0,0.2,0c-0.1,0-0.2,0-0.4-0.1C34.6,38.6,34.7,38.6,34.7,38.6z"/>
				<path fill="#04455D" d="M36.3,37.9C36.3,38,36.3,38,36.3,37.9C36.3,38,36.3,38,36.3,37.9z"/>
				<path fill="#04455D" d="M35.9,38.3C35.9,38.3,35.9,38.3,35.9,38.3C35.9,38.3,35.9,38.3,35.9,38.3z"/>
				<path fill="#04455D" d="M35.5,38.6C35.5,38.6,35.5,38.6,35.5,38.6C35.5,38.6,35.5,38.6,35.5,38.6z"/>
				<path fill="#04455D" d="M48.1,26.6C48.1,26.6,48.1,26.6,48.1,26.6c-2,0-3.9,0.3-5.6,0.8c-0.8,0.3-1.2,1.1-1,1.9
					c0.2,0.6,0.8,1,1.4,1c0.2,0,0.3,0,0.5-0.1c1.4-0.5,3-0.7,4.7-0.7c0,0,0,0,0,0c0.8,0,1.5-0.7,1.5-1.5
					C49.6,27.3,48.9,26.6,48.1,26.6z"/>
				<path fill="#04455D" d="M33.7,37.9c-0.1-0.1-0.1-0.3-0.2-0.4C33.6,37.6,33.6,37.8,33.7,37.9z"/>
				<path fill="#04455D" d="M34.9,38.7C35,38.7,35,38.7,34.9,38.7c0.2,0,0.3,0,0.4,0c0.1,0,0.1,0,0.2-0.1
					C35.3,38.6,35.2,38.7,34.9,38.7C35,38.7,35,38.7,34.9,38.7z"/>
				<path fill="#04455D" d="M36.3,38c-0.1,0.1-0.2,0.3-0.3,0.4C36.1,38.2,36.2,38.1,36.3,38z"/>
				<path fill="#04455D" d="M36.5,37.5c0,0.2-0.1,0.3-0.2,0.5C36.4,37.8,36.4,37.7,36.5,37.5z"/>
				<path fill="#04455D" d="M27.5,27.4c-1.7-0.6-3.6-0.8-5.6-0.8c0,0,0,0,0,0c-0.8,0-1.5,0.7-1.5,1.5c0,0.8,0.7,1.5,1.5,1.5h0
					c0,0,0,0,0,0c1.7,0,3.3,0.2,4.7,0.7c0.2,0.1,0.3,0.1,0.5,0.1c0.6,0,1.2-0.4,1.4-1C28.7,28.5,28.3,27.7,27.5,27.4z"/>
				<path fill="#04455D" d="M34.6,38.6c0,0-0.1,0-0.1,0C34.5,38.6,34.5,38.6,34.6,38.6z"/>
				<path fill="#04455D" d="M34.1,38.4C34.1,38.3,34,38.3,34.1,38.4C34,38.3,34.1,38.3,34.1,38.4z"/>
				<path fill="#04455D" d="M33.7,38C33.7,38,33.7,37.9,33.7,38C33.7,37.9,33.7,38,33.7,38z"/>
				<path fill="#04455D" d="M35.9,38.3c-0.1,0.1-0.3,0.2-0.4,0.2C35.7,38.5,35.8,38.4,35.9,38.3z"/>
				<path fill="#04455D" d="M39,30.9c-0.6-0.6-1.5-0.6-2.1,0c-0.1,0.1-0.2,0.2-0.3,0.4c-0.6,0.7-1.1,1.4-1.5,2
					c-0.4-0.7-0.9-1.4-1.5-2c-0.1-0.1-0.2-0.2-0.3-0.4c-0.6-0.6-1.5-0.6-2.1,0c-0.6,0.6-0.6,1.5,0,2.1c2,2.1,2.5,4.4,2.5,4.5
					c0,0,0,0,0,0c0,0.2,0.1,0.3,0.2,0.4c0,0,0,0,0,0.1c0.1,0.1,0.2,0.2,0.3,0.3c0,0,0.1,0,0.1,0.1c0.1,0.1,0.2,0.1,0.3,0.2
					c0,0,0.1,0,0.1,0c0.1,0,0.2,0.1,0.4,0.1c0,0,0,0,0.1,0c0.2,0,0.3,0,0.5-0.1c0,0,0,0,0,0c0.1-0.1,0.3-0.1,0.4-0.2c0,0,0,0,0,0
					c0.1-0.1,0.2-0.2,0.3-0.4c0,0,0,0,0,0c0.1-0.1,0.1-0.3,0.2-0.5c0,0,0,0,0,0c0,0,0.5-2.4,2.5-4.5C39.6,32.4,39.6,31.5,39,30.9z"
					/>
			</g>
		</g>
		<g>
			<circle fill="none" cx="35" cy="48" r="1.2"/>
			<path fill="#04455D" d="M36.5,44.1v-1.2c0-0.8-0.7-1.5-1.5-1.5s-1.5,0.7-1.5,1.5v1.2c-1.6,0.6-2.7,2.1-2.7,3.9
				c0,2.3,1.9,4.2,4.2,4.2s4.2-1.9,4.2-4.2C39.2,46.2,38.1,44.7,36.5,44.1z M35,46.8c0.7,0,1.2,0.5,1.2,1.2s-0.5,1.2-1.2,1.2
				s-1.2-0.5-1.2-1.2S34.3,46.8,35,46.8z"/>
		</g>
	</g>
	
		<rect x="12.8" y="12.5" transform="matrix(0.7071 -0.7071 0.7071 0.7071 -14.2475 34.8965)" fill="none" stroke="#04455D" stroke-width="3" stroke-linejoin="round" stroke-miterlimit="10" width="44.3" height="44.3"/>
</g>
</svg>
