<?xml version="1.0" encoding="utf-8"?>
<!-- Generator: Adobe Illustrator 17.0.2, SVG Export Plug-In . SVG Version: 6.00 Build 0)  -->
<!DOCTYPE svg PUBLIC "-//W3C//DTD SVG 1.1//EN" "http://www.w3.org/Graphics/SVG/1.1/DTD/svg11.dtd">
<svg version="1.1" id="Layer_1" xmlns="http://www.w3.org/2000/svg" xmlns:xlink="http://www.w3.org/1999/xlink" x="0px" y="0px"
	 width="325.979px" height="179.323px" viewBox="0 0 325.979 179.323" enable-background="new 0 0 325.979 179.323"
	 xml:space="preserve">
<g>
	<rect x="0" y="1.387" fill="#08536B" width="325.979" height="20.852"/>
</g>
<rect x="79.707" y="20.852" fill="#FFFFFF" width="246.272" height="158.472"/>
<g>
	<path fill="#ECECEC" d="M229.93,168.5c0,0.768-0.622,1.39-1.39,1.39H90.424c-0.768,0-1.39-0.622-1.39-1.39v-10.481
		c0-0.768,0.622-1.39,1.39-1.39h138.116c0.768,0,1.39,0.622,1.39,1.39V168.5z"/>
</g>
<g>
	<path fill="#096A8C" d="M268.688,168.5c0,0.768-0.622,1.39-1.39,1.39h-31.261c-0.768,0-1.39-0.622-1.39-1.39v-10.481
		c0-0.768,0.622-1.39,1.39-1.39h31.261c0.768,0,1.39,0.622,1.39,1.39V168.5z"/>
</g>
<rect x="278.234" y="20.852" fill="#ECECEC" width="47.745" height="158.472"/>
<g>
	<rect x="90.424" y="37.427" fill="#ECECEC" width="16.681" height="16.681"/>
	<path fill="#ECECEC" d="M108.495,54.108c0,0.768-0.622,1.39-1.39,1.39H90.424c-0.768,0-1.39-0.622-1.39-1.39V37.427
		c0-0.768,0.622-1.39,1.39-1.39h16.681c0.768,0,1.39,0.622,1.39,1.39V54.108z M91.814,53.413h13.901V38.817H91.814V53.413z"/>
</g>
<g>
	<path fill="#FFFFFF" d="M104.053,46.122c0.072-0.373,0.11-0.76,0.11-1.156c0-1.681-0.797-3.535-1.706-4.482
		c-0.307-0.32-0.622-0.549-1.013-0.732c-0.813-0.381-1.579-0.407-2.43-0.407c-2.122,0-4.043,1.408-4.831,3.409
		c-0.268,0.681-0.317,1.425-0.317,2.213c0,0.147,0.016,1.1,0.016,1.1s-1.264,0.157-0.824,1.727c0,0,0.308,0.953,1.361,0.885
		c0.106,0.323,0.229,0.606,0.376,0.81l0,0.002c0.794,1.494,2.365,2.535,4.174,2.535c2.12,0,3.914-1.339,4.513-3.295h0
		c1.31,0.089,1.437-1.332,1.437-1.332C104.84,46.55,104.386,46.227,104.053,46.122z"/>
	<path fill="#78888D" d="M93.881,46.065c0,0,0.733,0.073,1.236-0.5c0.506-0.577,0.428-0.974,0.605-2.011
		c0,0,0.097-1.382,1.209-1.364c0.934,0.015,1.156,0.571,2.177,0.605c1.138,0.038,1.401-0.457,2.084-0.457
		c0.548,0,0.886,0.253,0.949,1.266c0.056,0.898,0.391,1.562,0.795,1.976c0.351,0.361,0.96,0.529,1.116,0.542
		c0,0,0.059-0.368,0.078-0.53c0.033-0.283,0.033-0.419,0.035-0.561c0.003-0.25-0.006-0.283-0.014-0.436
		c-0.015-0.293-0.046-0.515-0.088-0.743c-0.062-0.337-0.154-0.775-0.44-1.483c-0.421-1.042-0.984-1.789-1.562-2.243
		c-1.067-0.837-2.268-0.813-3.292-0.776c-0.818,0.03-2.057,0.319-3.069,1.261c-0.738,0.686-1.205,1.304-1.607,2.397
		c-0.089,0.243-0.149,0.577-0.186,0.961C93.842,44.624,93.85,45.416,93.881,46.065z"/>
</g>
<line fill="none" stroke="#ECECEC" stroke-width="3" stroke-linecap="round" stroke-miterlimit="10" x1="115.894" y1="38.678" x2="256.98" y2="38.678"/>
<line fill="none" stroke="#ECECEC" stroke-width="3" stroke-linecap="round" stroke-miterlimit="10" x1="115.894" y1="48.963" x2="240.554" y2="48.963"/>
<g>
	<rect x="90.424" y="72.571" fill="#ECECEC" width="16.681" height="16.681"/>
	<path fill="#ECECEC" d="M108.495,89.253c0,0.768-0.622,1.39-1.39,1.39H90.424c-0.768,0-1.39-0.622-1.39-1.39V72.571
		c0-0.768,0.622-1.39,1.39-1.39h16.681c0.768,0,1.39,0.622,1.39,1.39V89.253z M91.814,88.558h13.901V73.962H91.814V88.558z"/>
</g>
<line fill="none" stroke="#ECECEC" stroke-width="3" stroke-linecap="round" stroke-miterlimit="10" x1="115.894" y1="73.572" x2="222.232" y2="73.572"/>
<line fill="none" stroke="#ECECEC" stroke-width="3" stroke-linecap="round" stroke-miterlimit="10" x1="115.894" y1="84.107" x2="231.931" y2="84.107"/>
<g>
	<rect x="90.424" y="107.069" fill="#ECECEC" width="16.681" height="16.681"/>
	<path fill="#ECECEC" d="M108.495,123.75c0,0.768-0.622,1.39-1.39,1.39H90.424c-0.768,0-1.39-0.622-1.39-1.39v-16.681
		c0-0.768,0.622-1.39,1.39-1.39h16.681c0.768,0,1.39,0.622,1.39,1.39V123.75z M91.814,123.055h13.901v-14.596H91.814V123.055z"/>
</g>
<g>
	<path fill="#FFFFFF" d="M104.053,115.763c0.072-0.373,0.11-0.76,0.11-1.156c0-1.681-0.797-3.535-1.706-4.482
		c-0.307-0.32-0.622-0.549-1.013-0.732c-0.813-0.381-1.579-0.407-2.43-0.407c-2.122,0-4.043,1.408-4.831,3.409
		c-0.268,0.681-0.317,1.425-0.317,2.213c0,0.147,0.016,1.1,0.016,1.1s-1.264,0.157-0.824,1.727c0,0,0.308,0.953,1.361,0.885
		c0.106,0.323,0.229,0.606,0.376,0.81l0,0.002c0.794,1.494,2.365,2.535,4.174,2.535c2.12,0,3.914-1.339,4.513-3.295h0
		c1.31,0.089,1.437-1.332,1.437-1.332C104.84,116.192,104.386,115.869,104.053,115.763z"/>
	<path fill="#78888D" d="M93.881,115.707c0,0,0.733,0.073,1.236-0.5c0.506-0.577,0.428-0.974,0.605-2.011
		c0,0,0.097-1.382,1.209-1.364c0.934,0.015,1.156,0.571,2.177,0.605c1.138,0.038,1.401-0.457,2.084-0.457
		c0.548,0,0.886,0.253,0.949,1.266c0.056,0.898,0.391,1.562,0.795,1.976c0.351,0.361,0.96,0.529,1.116,0.542
		c0,0,0.059-0.368,0.078-0.53c0.033-0.283,0.033-0.419,0.035-0.561c0.003-0.25-0.006-0.283-0.014-0.436
		c-0.015-0.293-0.046-0.515-0.088-0.743c-0.062-0.337-0.154-0.775-0.44-1.483c-0.421-1.042-0.984-1.789-1.562-2.243
		c-1.067-0.837-2.268-0.813-3.292-0.776c-0.818,0.03-2.057,0.319-3.069,1.261c-0.738,0.686-1.205,1.304-1.607,2.397
		c-0.089,0.243-0.149,0.577-0.186,0.961C93.842,114.266,93.85,115.057,93.881,115.707z"/>
</g>
<line fill="none" stroke="#ECECEC" stroke-width="3" stroke-linecap="round" stroke-miterlimit="10" x1="115.894" y1="108.069" x2="222.232" y2="108.069"/>
<line opacity="0.5" fill="none" stroke="#CFD5D8" stroke-width="3" stroke-linecap="round" stroke-miterlimit="10" x1="286.982" y1="38.678" x2="313.011" y2="38.678"/>
<line opacity="0.5" fill="none" stroke="#CFD5D8" stroke-width="3" stroke-linecap="round" stroke-miterlimit="10" x1="286.982" y1="53.782" x2="306.677" y2="53.782"/>
<line opacity="0.5" fill="none" stroke="#CFD5D8" stroke-width="3" stroke-linecap="round" stroke-miterlimit="10" x1="286.982" y1="68.886" x2="308.927" y2="68.886"/>
<line opacity="0.5" fill="none" stroke="#CFD5D8" stroke-width="3" stroke-linecap="round" stroke-miterlimit="10" x1="286.982" y1="46.23" x2="306.677" y2="46.23"/>
<line opacity="0.5" fill="none" stroke="#CFD5D8" stroke-width="3" stroke-linecap="round" stroke-miterlimit="10" x1="286.982" y1="61.334" x2="308.927" y2="61.334"/>
<line opacity="0.5" fill="none" stroke="#CFD5D8" stroke-width="3" stroke-linecap="round" stroke-miterlimit="10" x1="286.982" y1="76.438" x2="313.011" y2="76.438"/>
<line opacity="0.5" fill="none" stroke="#CFD5D8" stroke-width="3" stroke-linecap="round" stroke-miterlimit="10" x1="286.982" y1="91.541" x2="306.677" y2="91.541"/>
<line opacity="0.5" fill="none" stroke="#CFD5D8" stroke-width="3" stroke-linecap="round" stroke-miterlimit="10" x1="286.982" y1="106.645" x2="308.927" y2="106.645"/>
<line opacity="0.5" fill="none" stroke="#CFD5D8" stroke-width="3" stroke-linecap="round" stroke-miterlimit="10" x1="286.982" y1="83.99" x2="306.677" y2="83.99"/>
<line opacity="0.5" fill="none" stroke="#CFD5D8" stroke-width="3" stroke-linecap="round" stroke-miterlimit="10" x1="286.982" y1="99.093" x2="308.927" y2="99.093"/>
<path fill="#78868C" d="M104.104,85.46c0-1.57-1.988-2.028-1.988-2.028v5.77C103.116,88.374,104.104,87.03,104.104,85.46z"/>
<path fill="#FFFFFF" d="M104.087,81.32c0.07-0.379,0.112-0.758,0.112-1.166c0-3.132-2.318-5.66-5.183-5.66s-5.183,2.528-5.183,5.66
	c0,0.155,0.014,1.11,0.014,1.11s-1.278,0.155-0.829,1.742c0,0,0.309,0.955,1.376,0.885c0.112,0.323,0.225,0.604,0.379,0.815l0,0
	c0.801,1.503,2.374,2.556,4.2,2.556c2.135,0,3.947-1.348,4.537-3.315l0,0c1.32,0.084,1.447-1.334,1.447-1.334
	C104.888,81.755,104.424,81.418,104.087,81.32z"/>
<path fill="#78868C" d="M96.784,75.056c0,0,2.205,3.933-2.921,6.208c0,0-0.52-2.051,0.829-4.2
	C95.857,75.182,96.784,75.056,96.784,75.056z"/>
<path fill="#78868C" d="M97.191,76.657c0,0,0.112,4.284,6.91,4.663c0,0,0.969-3.764-2.43-6.04c0,0-0.59-0.449-1.587-0.674
	c-0.927-0.211-2.205-0.211-3.287,0.435"/>
<line fill="none" stroke="#CFD5D8" stroke-width="3" stroke-linecap="round" stroke-miterlimit="10" x1="95.54" y1="163.05" x2="150.984" y2="163.05"/>
<g>
	<g>
		<path fill="#CFD5D8" d="M324.979,1v177.323H1V1H324.979 M325.979,0H0v179.323h325.979V0L325.979,0z"/>
	</g>
</g>
<g>
	<rect x="79.707" y="0" fill="#08536B" width="246.272" height="20.852"/>
	<rect x="0" y="0" fill="#9FAEB4" width="79.707" height="34.575"/>
</g>
<g opacity="0.2">
	<rect x="90.424" y="8.688" fill="#ECECEC" width="43.996" height="3.475"/>
	<path fill="#ECECEC" d="M135.81,12.163c0,0.768-0.622,1.39-1.39,1.39H90.424c-0.768,0-1.39-0.622-1.39-1.39V8.688
		c0-0.768,0.622-1.39,1.39-1.39h43.996c0.768,0,1.39,0.622,1.39,1.39V12.163z M91.814,10.773h41.216v-0.695H91.814V10.773z"/>
</g>
<rect x="0" y="34.035" fill="#CFD5D8" width="79.707" height="145.288"/>
<line opacity="0.5" fill="none" stroke="#ECECEC" stroke-width="3" stroke-linecap="round" stroke-miterlimit="10" x1="10.482" y1="47.576" x2="56.527" y2="47.576"/>
<line opacity="0.5" fill="none" stroke="#ECECEC" stroke-width="3" stroke-linecap="round" stroke-miterlimit="10" x1="10.482" y1="62.525" x2="50.193" y2="62.525"/>
<line opacity="0.5" fill="none" stroke="#ECECEC" stroke-width="3" stroke-linecap="round" stroke-miterlimit="10" x1="10.482" y1="77.579" x2="52.443" y2="77.579"/>
<circle fill="#096A8C" cx="66.589" cy="47.576" r="1.766"/>
<circle fill="#9FAEB4" cx="66.589" cy="62.706" r="1.766"/>
<circle fill="#096A8C" cx="66.589" cy="77.579" r="1.766"/>
<line opacity="0.5" fill="none" stroke="#ECECEC" stroke-width="3" stroke-linecap="round" stroke-miterlimit="10" x1="10.482" y1="92.99" x2="56.527" y2="92.99"/>
<line opacity="0.5" fill="none" stroke="#ECECEC" stroke-width="3" stroke-linecap="round" stroke-miterlimit="10" x1="10.482" y1="107.938" x2="50.193" y2="107.938"/>
<line opacity="0.5" fill="none" stroke="#ECECEC" stroke-width="3" stroke-linecap="round" stroke-miterlimit="10" x1="10.482" y1="122.993" x2="52.443" y2="122.993"/>
<circle fill="#9FAEB4" cx="66.589" cy="92.99" r="1.766"/>
<circle fill="#9FAEB4" cx="66.589" cy="108.12" r="1.766"/>
<circle fill="#096A8C" cx="66.589" cy="122.993" r="1.766"/>
</svg>
