<?xml version="1.0" encoding="utf-8"?>
<!-- Generator: Adobe Illustrator 17.0.2, SVG Export Plug-In . SVG Version: 6.00 Build 0)  -->
<!DOCTYPE svg PUBLIC "-//W3C//DTD SVG 1.1//EN" "http://www.w3.org/Graphics/SVG/1.1/DTD/svg11.dtd">
<svg version="1.1" id="Layer_1" xmlns="http://www.w3.org/2000/svg" xmlns:xlink="http://www.w3.org/1999/xlink" x="0px" y="0px"
	 width="325.979px" height="179.323px" viewBox="0 0 325.979 179.323" enable-background="new 0 0 325.979 179.323"
	 xml:space="preserve">
<g>
	<rect x="61.693" y="20.852" fill="#FFFFFF" width="264.287" height="158.472"/>
	<g>
		<rect x="182.835" y="38.203" fill="#ECECEC" width="101.844" height="3.475"/>
		<path fill="#ECECEC" d="M286.069,41.679c0,0.768-0.622,1.39-1.39,1.39H182.835c-0.768,0-1.39-0.622-1.39-1.39v-3.475
			c0-0.768,0.622-1.39,1.39-1.39h101.844c0.768,0,1.39,0.622,1.39,1.39V41.679z M184.225,40.289h99.064v-0.695h-99.064V40.289z"/>
	</g>
	<g>
		<rect x="182.835" y="50.286" fill="#ECECEC" width="74.02" height="3.475"/>
		<path fill="#ECECEC" d="M258.245,53.762c0,0.768-0.622,1.39-1.39,1.39h-74.02c-0.768,0-1.39-0.622-1.39-1.39v-3.475
			c0-0.768,0.622-1.39,1.39-1.39h74.02c0.768,0,1.39,0.622,1.39,1.39V53.762z M184.225,52.372h71.24v-0.695h-71.24V52.372z"/>
	</g>
	<rect x="61.693" y="20.852" fill="#ECECEC" width="77.166" height="158.472"/>
	<rect x="0" y="20.852" fill="#CFD5D8" width="61.693" height="158.472"/>
	<g>
		<rect x="157.507" y="37.427" fill="#ECECEC" width="16.681" height="16.681"/>
		<path fill="#ECECEC" d="M175.578,54.108c0,0.768-0.622,1.39-1.39,1.39h-16.681c-0.768,0-1.39-0.622-1.39-1.39V37.427
			c0-0.768,0.622-1.39,1.39-1.39h16.681c0.768,0,1.39,0.622,1.39,1.39V54.108z M158.897,53.413h13.901V38.817h-13.901V53.413z"/>
	</g>
	<g>
		<path fill="#FFFFFF" d="M171.136,46.122c0.072-0.373,0.11-0.76,0.11-1.156c0-1.681-0.797-3.535-1.706-4.482
			c-0.307-0.32-0.622-0.549-1.013-0.732c-0.813-0.381-1.579-0.407-2.43-0.407c-2.122,0-4.043,1.408-4.831,3.409
			c-0.268,0.681-0.317,1.425-0.317,2.213c0,0.147,0.016,1.1,0.016,1.1s-1.264,0.157-0.824,1.727c0,0,0.308,0.953,1.361,0.885
			c0.106,0.323,0.229,0.606,0.376,0.81l0,0.002c0.794,1.494,2.365,2.535,4.174,2.535c2.12,0,3.914-1.339,4.513-3.295h0
			c1.31,0.089,1.437-1.332,1.437-1.332C171.923,46.55,171.469,46.227,171.136,46.122z"/>
		<path fill="#78888D" d="M160.964,46.065c0,0,0.733,0.073,1.236-0.5c0.506-0.577,0.428-0.974,0.605-2.011
			c0,0,0.097-1.382,1.209-1.364c0.934,0.015,1.156,0.571,2.177,0.605c1.138,0.038,1.401-0.457,2.084-0.457
			c0.548,0,0.886,0.253,0.949,1.266c0.056,0.898,0.391,1.562,0.795,1.976c0.351,0.361,0.96,0.529,1.116,0.542
			c0,0,0.059-0.368,0.078-0.53c0.033-0.283,0.033-0.419,0.035-0.561c0.003-0.25-0.006-0.283-0.014-0.436
			c-0.015-0.293-0.046-0.515-0.088-0.743c-0.062-0.337-0.154-0.775-0.44-1.483c-0.421-1.042-0.984-1.789-1.562-2.243
			c-1.067-0.837-2.268-0.813-3.292-0.776c-0.818,0.03-2.057,0.319-3.069,1.261c-0.738,0.686-1.206,1.304-1.607,2.397
			c-0.089,0.243-0.149,0.577-0.186,0.961C160.926,44.624,160.934,45.416,160.964,46.065z"/>
	</g>
	<line fill="none" stroke="#CFD5D8" stroke-miterlimit="10" x1="61.693" y1="48.467" x2="138.858" y2="48.467"/>
	<line fill="none" stroke="#CFD5D8" stroke-miterlimit="10" x1="61.693" y1="75.507" x2="138.858" y2="75.507"/>
	<line fill="none" stroke="#CFD5D8" stroke-miterlimit="10" x1="61.693" y1="102.548" x2="138.858" y2="102.548"/>
	<line fill="none" stroke="#CFD5D8" stroke-miterlimit="10" x1="61.693" y1="129.589" x2="138.858" y2="129.589"/>
	<line fill="none" stroke="#CFD5D8" stroke-miterlimit="10" x1="61.693" y1="156.629" x2="138.858" y2="156.629"/>
	
		<line fill="none" stroke="#ECECEC" stroke-width="3" stroke-linecap="round" stroke-miterlimit="10" x1="156.117" y1="72.725" x2="305.21" y2="72.725"/>
	
		<line opacity="0.5" fill="none" stroke="#ECECEC" stroke-width="3" stroke-linecap="round" stroke-miterlimit="10" x1="24.497" y1="38.797" x2="50.526" y2="38.797"/>
	
		<line fill="none" stroke="#ECECEC" stroke-width="3" stroke-linecap="round" stroke-miterlimit="10" x1="156.117" y1="83.26" x2="288.783" y2="83.26"/>
	
		<line fill="none" stroke="#ECECEC" stroke-width="3" stroke-linecap="round" stroke-miterlimit="10" x1="156.117" y1="93.795" x2="267.525" y2="93.795"/>
	
		<line fill="none" stroke="#ECECEC" stroke-width="3" stroke-linecap="round" stroke-miterlimit="10" x1="156.117" y1="104.33" x2="288.783" y2="104.33"/>
	
		<line fill="none" stroke="#ECECEC" stroke-width="3" stroke-linecap="round" stroke-miterlimit="10" x1="156.117" y1="114.866" x2="277.385" y2="114.866"/>
	
		<line fill="none" stroke="#ECECEC" stroke-width="3" stroke-linecap="round" stroke-miterlimit="10" x1="156.117" y1="125.401" x2="288.783" y2="125.401"/>
	
		<line fill="none" stroke="#ECECEC" stroke-width="3" stroke-linecap="round" stroke-miterlimit="10" x1="156.117" y1="135.936" x2="267.525" y2="135.936"/>
	
		<line fill="none" stroke="#ECECEC" stroke-width="3" stroke-linecap="round" stroke-miterlimit="10" x1="156.117" y1="146.471" x2="277.385" y2="146.471"/>
	<circle opacity="0.5" fill="#ECECEC" cx="13.356" cy="38.797" r="4.336"/>
	
		<line opacity="0.5" fill="none" stroke="#ECECEC" stroke-width="3" stroke-linecap="round" stroke-miterlimit="10" x1="24.497" y1="53.808" x2="44.193" y2="53.808"/>
	<circle opacity="0.5" fill="#ECECEC" cx="13.356" cy="53.808" r="4.336"/>
	
		<line opacity="0.5" fill="none" stroke="#ECECEC" stroke-width="3" stroke-linecap="round" stroke-miterlimit="10" x1="24.497" y1="68.819" x2="46.443" y2="68.819"/>
	<circle opacity="0.5" fill="#ECECEC" cx="13.356" cy="68.819" r="4.336"/>
</g>
<g>
	<g>
		<path fill="#CFD5D8" d="M324.979,1v177.323H1V1H324.979 M325.979,0H0v179.323h325.979V0L325.979,0z"/>
	</g>
</g>
<g>
	<rect y="0" fill="#08536B" width="325.979" height="20.852"/>
</g>
<g opacity="0.2">
	<rect x="11.346" y="8.688" fill="#ECECEC" width="43.996" height="3.475"/>
	<path fill="#ECECEC" d="M56.732,12.163c0,0.768-0.622,1.39-1.39,1.39H11.346c-0.768,0-1.39-0.622-1.39-1.39V8.688
		c0-0.768,0.622-1.39,1.39-1.39h43.996c0.768,0,1.39,0.622,1.39,1.39V12.163z M12.736,10.773h41.216v-0.695H12.736V10.773z"/>
</g>
</svg>
