<?xml version="1.0" encoding="utf-8"?>
<!-- Generator: Adobe Illustrator 17.0.2, SVG Export Plug-In . SVG Version: 6.00 Build 0)  -->
<!DOCTYPE svg PUBLIC "-//W3C//DTD SVG 1.1//EN" "http://www.w3.org/Graphics/SVG/1.1/DTD/svg11.dtd">
<svg version="1.1" id="Layer_1" xmlns="http://www.w3.org/2000/svg" xmlns:xlink="http://www.w3.org/1999/xlink" x="0px" y="0px"
	 width="325.979px" height="179.323px" viewBox="0 0 325.979 179.323" enable-background="new 0 0 325.979 179.323"
	 xml:space="preserve">
<rect x="79.707" y="20.852" fill="#FFFFFF" width="246.272" height="158.472"/>
<g>
	<g>
		<path fill="#CFD5D8" d="M324.979,1v177.323H1V1H324.979 M325.979,0H0v179.323h325.979V0L325.979,0z"/>
	</g>
</g>
<rect y="0" fill="#08536B" width="325.979" height="20.852"/>
<g>
	<rect x="67.138" y="20.852" fill="#FFFFFF" width="258.841" height="158.472"/>
	<g opacity="0.2">
		<rect x="9.984" y="8.688" fill="#ECECEC" width="43.996" height="3.475"/>
		<path fill="#ECECEC" d="M55.37,12.163c0,0.768-0.622,1.39-1.39,1.39H9.984c-0.768,0-1.39-0.622-1.39-1.39V8.688
			c0-0.768,0.622-1.39,1.39-1.39H53.98c0.768,0,1.39,0.622,1.39,1.39V12.163z M11.374,10.773h41.216v-0.695H11.374V10.773z"/>
	</g>
	<rect x="278.234" y="20.852" fill="#ECECEC" width="47.745" height="158.472"/>
	<rect x="278.234" y="20.852" opacity="0.5" fill="#CFD5D8" width="47.745" height="32.931"/>
	<rect x="0" y="20.852" fill="#CFD5D8" width="79.707" height="158.472"/>
	
		<line opacity="0.5" fill="none" stroke="#ECECEC" stroke-width="3" stroke-linecap="round" stroke-miterlimit="10" x1="25.917" y1="35.676" x2="63.096" y2="35.676"/>
	
		<line opacity="0.5" fill="none" stroke="#ECECEC" stroke-width="3" stroke-linecap="round" stroke-miterlimit="10" x1="25.917" y1="50.625" x2="57.982" y2="50.625"/>
	
		<line opacity="0.5" fill="none" stroke="#ECECEC" stroke-width="3" stroke-linecap="round" stroke-miterlimit="10" x1="25.917" y1="65.679" x2="59.799" y2="65.679"/>
	
		<line opacity="0.5" fill="none" stroke="#CFD5D8" stroke-width="3" stroke-linecap="round" stroke-miterlimit="10" x1="287.256" y1="65.11" x2="313.285" y2="65.11"/>
	
		<line opacity="0.5" fill="none" stroke="#CFD5D8" stroke-width="3" stroke-linecap="round" stroke-miterlimit="10" x1="287.256" y1="80.214" x2="306.951" y2="80.214"/>
	
		<line opacity="0.5" fill="none" stroke="#CFD5D8" stroke-width="3" stroke-linecap="round" stroke-miterlimit="10" x1="287.256" y1="95.317" x2="309.201" y2="95.317"/>
	
		<line opacity="0.5" fill="none" stroke="#CFD5D8" stroke-width="3" stroke-linecap="round" stroke-miterlimit="10" x1="287.256" y1="72.662" x2="306.951" y2="72.662"/>
	
		<line opacity="0.5" fill="none" stroke="#CFD5D8" stroke-width="3" stroke-linecap="round" stroke-miterlimit="10" x1="287.256" y1="87.765" x2="309.201" y2="87.765"/>
	
		<line opacity="0.5" fill="none" stroke="#CFD5D8" stroke-width="3" stroke-linecap="round" stroke-miterlimit="10" x1="287.256" y1="102.869" x2="313.285" y2="102.869"/>
	
		<line opacity="0.5" fill="none" stroke="#CFD5D8" stroke-width="3" stroke-linecap="round" stroke-miterlimit="10" x1="287.256" y1="117.973" x2="306.951" y2="117.973"/>
	
		<line opacity="0.5" fill="none" stroke="#CFD5D8" stroke-width="3" stroke-linecap="round" stroke-miterlimit="10" x1="287.256" y1="133.077" x2="309.201" y2="133.077"/>
	
		<line opacity="0.5" fill="none" stroke="#CFD5D8" stroke-width="3" stroke-linecap="round" stroke-miterlimit="10" x1="287.256" y1="110.421" x2="306.951" y2="110.421"/>
	
		<line opacity="0.5" fill="none" stroke="#CFD5D8" stroke-width="3" stroke-linecap="round" stroke-miterlimit="10" x1="287.256" y1="125.525" x2="309.201" y2="125.525"/>
	
		<line opacity="0.5" fill="none" stroke="#ECECEC" stroke-width="3" stroke-linecap="round" stroke-miterlimit="10" x1="25.917" y1="81.089" x2="63.096" y2="81.089"/>
	<circle opacity="0.5" fill="#ECECEC" cx="13.656" cy="35.676" r="4.376"/>
	<polygon opacity="0.5" fill="#ECECEC" points="13.656,44.993 15.273,48.269 18.888,48.794 16.272,51.345 16.89,54.945 
		13.656,53.245 10.422,54.945 11.04,51.345 8.424,48.794 12.039,48.269 	"/>
	<g opacity="0.5">
		<path fill="#ECECEC" d="M17.506,62.751c-0.895-0.822-2.346-0.822-3.242,0l-0.608,0.558l-0.608-0.558
			c-0.895-0.822-2.346-0.822-3.241,0c-1.007,0.924-1.007,2.423,0,3.347l3.85,3.533l3.85-3.533
			C18.513,65.174,18.513,63.676,17.506,62.751z"/>
	</g>
	<g>
		<path opacity="0.5" fill="#ECECEC" d="M89.034,83.796c0,0.768,0.622,1.39,1.39,1.39h50.751c0.768,0,1.39-0.622,1.39-1.39V71.711
			H89.034V83.796z"/>
		<path fill="#ECECEC" d="M141.175,34.675H90.424c-0.768,0-1.39,0.622-1.39,1.39v35.646h53.531V36.065
			C142.565,35.298,141.943,34.675,141.175,34.675z"/>
	</g>
	<g>
		<path opacity="0.5" fill="#ECECEC" d="M152.095,83.796c0,0.768,0.622,1.39,1.39,1.39h50.751c0.768,0,1.39-0.622,1.39-1.39V71.711
			h-53.531V83.796z"/>
		<path fill="#ECECEC" d="M204.236,34.675h-50.751c-0.768,0-1.39,0.622-1.39,1.39v35.646h53.531V36.065
			C205.627,35.298,205.004,34.675,204.236,34.675z"/>
	</g>
	<g>
		<path opacity="0.5" fill="#ECECEC" d="M215.157,83.796c0,0.768,0.622,1.39,1.39,1.39h50.751c0.768,0,1.39-0.622,1.39-1.39V71.711
			h-53.531V83.796z"/>
		<path fill="#ECECEC" d="M267.298,34.675h-50.751c-0.768,0-1.39,0.622-1.39,1.39v35.646h53.531V36.065
			C268.688,35.298,268.066,34.675,267.298,34.675z"/>
	</g>
	<g>
		<path opacity="0.5" fill="#ECECEC" d="M89.034,143.34c0,0.768,0.622,1.39,1.39,1.39h50.751c0.768,0,1.39-0.622,1.39-1.39v-12.085
			H89.034V143.34z"/>
		<path fill="#ECECEC" d="M141.175,94.219H90.424c-0.768,0-1.39,0.622-1.39,1.39v35.646h53.531V95.61
			C142.565,94.842,141.943,94.219,141.175,94.219z"/>
	</g>
	<g>
		<path opacity="0.5" fill="#ECECEC" d="M152.095,143.34c0,0.768,0.622,1.39,1.39,1.39h50.751c0.768,0,1.39-0.622,1.39-1.39v-12.085
			h-53.531V143.34z"/>
		<path fill="#ECECEC" d="M204.236,94.219h-50.751c-0.768,0-1.39,0.622-1.39,1.39v35.646h53.531V95.61
			C205.627,94.842,205.004,94.219,204.236,94.219z"/>
	</g>
	<g>
		<path opacity="0.5" fill="#ECECEC" d="M215.157,143.34c0,0.768,0.622,1.39,1.39,1.39h50.751c0.768,0,1.39-0.622,1.39-1.39v-12.085
			h-53.531V143.34z"/>
		<path fill="#ECECEC" d="M267.298,94.219h-50.751c-0.768,0-1.39,0.622-1.39,1.39v35.646h53.531V95.61
			C268.688,94.842,268.066,94.219,267.298,94.219z"/>
	</g>
	<rect x="0" y="159.115" fill="#9FAEB4" width="325.979" height="20.209"/>
	<g opacity="0.5">
		
			<line fill="none" stroke="#ECECEC" stroke-width="3" stroke-linecap="round" stroke-miterlimit="10" x1="92.448" y1="169.219" x2="265.274" y2="169.219"/>
		<circle fill="#ECECEC" cx="265.274" cy="169.219" r="3.414"/>
	</g>
	
		<line fill="none" stroke="#ECECEC" stroke-width="3" stroke-linecap="round" stroke-miterlimit="10" x1="90.439" y1="169.219" x2="144.763" y2="169.219"/>
	<circle fill="#ECECEC" cx="92.448" cy="169.219" r="3.414"/>
</g>
</svg>
