<?xml version="1.0" encoding="utf-8"?>
<!-- Generator: Adobe Illustrator 17.0.2, SVG Export Plug-In . SVG Version: 6.00 Build 0)  -->
<!DOCTYPE svg PUBLIC "-//W3C//DTD SVG 1.1//EN" "http://www.w3.org/Graphics/SVG/1.1/DTD/svg11.dtd">
<svg version="1.1" id="Layer_1" xmlns="http://www.w3.org/2000/svg" xmlns:xlink="http://www.w3.org/1999/xlink" x="0px" y="0px"
	 width="325.979px" height="179.323px" viewBox="0 0 325.979 179.323" enable-background="new 0 0 325.979 179.323"
	 xml:space="preserve">
<g>
	<path opacity="0.5" fill="#ECECEC" d="M15.065,117.512c0,0.768,0.622,1.39,1.39,1.39h70.767c0.768,0,1.39-0.622,1.39-1.39v-17.089
		H15.065V117.512z"/>
	<path fill="#ECECEC" d="M87.222,39.534H16.455c-0.768,0-1.39,0.622-1.39,1.39v39.017h73.547V40.924
		C88.612,40.157,87.99,39.534,87.222,39.534z"/>
</g>
<rect x="15.065" y="80.943" opacity="0.5" fill="#ECECEC" width="73.547" height="18.48"/>
<g>
	<path fill="#ECECEC" d="M171.555,39.534h-70.767c-0.768,0-1.39,0.622-1.39,1.39v39.017h73.547V40.924
		C172.945,40.157,172.323,39.534,171.555,39.534z"/>
</g>
<rect x="99.398" y="80.943" opacity="0.5" fill="#ECECEC" width="73.547" height="18.48"/>
<rect x="99.398" y="100.423" opacity="0.5" fill="#ECECEC" width="73.547" height="18.48"/>
<rect x="99.398" y="119.958" opacity="0.5" fill="#ECECEC" width="73.547" height="18.48"/>
<path opacity="0.5" fill="#ECECEC" d="M99.398,156.473c0,0.768,0.622,1.39,1.39,1.39h70.767c0.768,0,1.39-0.622,1.39-1.39v-17.089
	H99.398V156.473z"/>
<g>
	<path fill="#ECECEC" d="M256.533,39.534h-70.767c-0.768,0-1.39,0.622-1.39,1.39v39.017h73.547V40.924
		C257.923,40.157,257.301,39.534,256.533,39.534z"/>
</g>
<rect x="184.376" y="80.943" opacity="0.5" fill="#ECECEC" width="73.547" height="18.48"/>
<rect x="184.376" y="100.423" opacity="0.5" fill="#ECECEC" width="73.547" height="18.48"/>
<path opacity="0.5" fill="#ECECEC" d="M184.376,137.047c0,0.768,0.622,1.39,1.39,1.39h70.767c0.768,0,1.39-0.622,1.39-1.39v-17.089
	h-73.547V137.047z"/>
<g>
	<path fill="#ECECEC" d="M325.984,39.537v40.4h-56.63v-39.01c0-0.77,0.62-1.39,1.39-1.39H325.984z"/>
</g>
<rect x="269.353" y="80.947" opacity="0.5" fill="#ECECEC" width="56.63" height="18.47"/>
<rect x="269.353" y="100.427" opacity="0.5" fill="#ECECEC" width="56.63" height="18.48"/>
<rect x="269.353" y="119.957" opacity="0.5" fill="#ECECEC" width="56.63" height="18.48"/>
<path opacity="0.5" fill="#ECECEC" d="M325.984,139.387v18.48h-55.24c-0.77,0-1.39-0.63-1.39-1.39v-17.09H325.984z"/>
<line fill="none" stroke="#ECECEC" stroke-width="3" stroke-linecap="round" stroke-miterlimit="10" x1="104.9" y1="87.142" x2="156.305" y2="87.142"/>
<line fill="none" stroke="#ECECEC" stroke-width="3" stroke-linecap="round" stroke-miterlimit="10" x1="104.9" y1="93.674" x2="141.627" y2="93.674"/>
<line fill="none" stroke="#ECECEC" stroke-width="3" stroke-linecap="round" stroke-miterlimit="10" x1="104.9" y1="106.401" x2="138.896" y2="106.401"/>
<line fill="none" stroke="#ECECEC" stroke-width="3" stroke-linecap="round" stroke-miterlimit="10" x1="104.9" y1="125.66" x2="166.715" y2="125.66"/>
<line fill="none" stroke="#ECECEC" stroke-width="3" stroke-linecap="round" stroke-miterlimit="10" x1="104.9" y1="132.192" x2="129.168" y2="132.192"/>
<line fill="none" stroke="#ECECEC" stroke-width="3" stroke-linecap="round" stroke-miterlimit="10" x1="104.9" y1="144.919" x2="162.993" y2="144.919"/>
<line fill="none" stroke="#ECECEC" stroke-width="3" stroke-linecap="round" stroke-miterlimit="10" x1="104.9" y1="151.451" x2="141.627" y2="151.451"/>
<line fill="none" stroke="#ECECEC" stroke-width="3" stroke-linecap="round" stroke-miterlimit="10" x1="190.381" y1="87.142" x2="252.196" y2="87.142"/>
<line fill="none" stroke="#ECECEC" stroke-width="3" stroke-linecap="round" stroke-miterlimit="10" x1="190.381" y1="125.66" x2="238.226" y2="125.66"/>
<line fill="none" stroke="#ECECEC" stroke-width="3" stroke-linecap="round" stroke-miterlimit="10" x1="190.381" y1="93.674" x2="214.649" y2="93.674"/>
<line fill="none" stroke="#ECECEC" stroke-width="3" stroke-linecap="round" stroke-miterlimit="10" x1="190.381" y1="106.401" x2="248.473" y2="106.401"/>
<line fill="none" stroke="#ECECEC" stroke-width="3" stroke-linecap="round" stroke-miterlimit="10" x1="190.381" y1="112.933" x2="227.107" y2="112.933"/>
<line fill="none" stroke="#ECECEC" stroke-width="3" stroke-linecap="round" stroke-miterlimit="10" x1="275.029" y1="87.142" x2="320.077" y2="87.142"/>
<line fill="none" stroke="#ECECEC" stroke-width="3" stroke-linecap="round" stroke-miterlimit="10" x1="275.029" y1="93.674" x2="299.297" y2="93.674"/>
<line fill="none" stroke="#ECECEC" stroke-width="3" stroke-linecap="round" stroke-miterlimit="10" x1="275.029" y1="106.401" x2="320.077" y2="106.401"/>
<line fill="none" stroke="#ECECEC" stroke-width="3" stroke-linecap="round" stroke-miterlimit="10" x1="275.029" y1="112.933" x2="311.756" y2="112.933"/>
<line fill="none" stroke="#ECECEC" stroke-width="3" stroke-linecap="round" stroke-miterlimit="10" x1="274.863" y1="126.007" x2="320.077" y2="126.007"/>
<line fill="none" stroke="#ECECEC" stroke-width="3" stroke-linecap="round" stroke-miterlimit="10" x1="274.863" y1="132.539" x2="299.131" y2="132.539"/>
<line fill="none" stroke="#ECECEC" stroke-width="3" stroke-linecap="round" stroke-miterlimit="10" x1="274.863" y1="145.266" x2="308.577" y2="145.266"/>
<line fill="none" stroke="#ECECEC" stroke-width="3" stroke-linecap="round" stroke-miterlimit="10" x1="20.629" y1="106.401" x2="68.474" y2="106.401"/>
<line fill="none" stroke="#ECECEC" stroke-width="3" stroke-linecap="round" stroke-miterlimit="10" x1="20.629" y1="87.142" x2="78.721" y2="87.142"/>
<line fill="none" stroke="#ECECEC" stroke-width="3" stroke-linecap="round" stroke-miterlimit="10" x1="20.629" y1="93.674" x2="57.356" y2="93.674"/>
<g>
	<g>
		<path fill="#CFD5D8" d="M324.979,1v177.323H1V1H324.979 M325.979,0H0v179.323h325.979V0L325.979,0z"/>
	</g>
</g>
<g>
	<rect x="0" y="0" fill="#08536B" width="325.979" height="20.852"/>
</g>
<g opacity="0.2">
	<rect x="140.992" y="9.33" fill="#ECECEC" width="43.996" height="3.475"/>
	<path fill="#ECECEC" d="M186.378,12.806c0,0.768-0.622,1.39-1.39,1.39h-43.996c-0.768,0-1.39-0.622-1.39-1.39V9.33
		c0-0.768,0.622-1.39,1.39-1.39h43.996c0.768,0,1.39,0.622,1.39,1.39V12.806z M142.382,11.416h41.216V10.72h-41.216V11.416z"/>
</g>
<line opacity="0.2" fill="none" stroke="#ECECEC" stroke-width="3" stroke-linecap="round" stroke-linejoin="round" stroke-miterlimit="10" x1="9.372" y1="13.806" x2="17.029" y2="13.806"/>
<line opacity="0.2" fill="none" stroke="#ECECEC" stroke-width="3" stroke-linecap="round" stroke-linejoin="round" stroke-miterlimit="10" x1="9.372" y1="8.941" x2="17.029" y2="8.941"/>
</svg>
