<?xml version="1.0" encoding="utf-8"?>
<!-- Generator: Adobe Illustrator 17.0.2, SVG Export Plug-In . SVG Version: 6.00 Build 0)  -->
<!DOCTYPE svg PUBLIC "-//W3C//DTD SVG 1.1//EN" "http://www.w3.org/Graphics/SVG/1.1/DTD/svg11.dtd">
<svg version="1.1" id="Layer_1" xmlns="http://www.w3.org/2000/svg" xmlns:xlink="http://www.w3.org/1999/xlink" x="0px" y="0px"
	 width="792px" height="520px" viewBox="0 0 792 520" enable-background="new 0 0 792 520" xml:space="preserve">
<g id="iMac">
	<path fill="#78878C" d="M37.608,362.398H575h16.729V345.67V52.279V39.243c0-9.239-7.49-16.729-16.729-16.729H37.608
		c-9.238,0-16.728,7.49-16.728,16.729v13.035v293.391v16.728L37.608,362.398L37.608,362.398z"/>
	<path fill="#EBEBEB" d="M575,362.398H37.61H20.88v16.729v12.875v13.035c0,9.239,7.49,16.729,16.729,16.729h194.577
		c-2.911,48.434-31.683,88.124-31.683,88.124h99.812h11.978h99.812c0,0-28.759-39.702-31.681-88.124h194.576
		c9.238,0,16.728-7.49,16.728-16.729V392v-12.875v-16.729H575L575,362.398L575,362.398z"/>
	<rect x="192.618" y="497.805" fill="#9EADB2" width="227.382" height="12.083"/>
	<rect x="48.719" y="83.685" fill="#FFFFFF" width="515.179" height="250.45"/>
	<rect x="257.897" y="111.107" fill="#ECECEC" width="160.954" height="5.492"/>
	<path fill="#ECECEC" d="M421.048,116.6c0,1.214-0.984,2.197-2.197,2.197H257.897c-1.214,0-2.197-0.983-2.197-2.197v-5.492
		c0-1.214,0.984-2.197,2.197-2.197h160.954c1.214,0,2.197,0.984,2.197,2.197V116.6z M260.093,114.402h156.561v-1.099H260.093
		V114.402z"/>
	<rect x="257.897" y="130.203" fill="#ECECEC" width="116.981" height="5.492"/>
	<path fill="#ECECEC" d="M377.074,135.695c0,1.214-0.984,2.197-2.197,2.197h-116.98c-1.214,0-2.197-0.984-2.197-2.197v-5.492
		c0-1.214,0.984-2.197,2.197-2.197h116.981c1.214,0,2.197,0.984,2.197,2.197v5.492H377.074z M260.093,133.498H372.68V132.4H260.093
		V133.498z"/>
	<rect x="48.719" y="50.731" fill="#02526A" width="515.179" height="32.954"/>
	<rect x="48.719" y="83.685" fill="#ECECEC" width="139.676" height="250.45"/>
	<rect x="217.867" y="109.88" fill="#ECECEC" width="26.364" height="26.364"/>
	<path fill="#ECECEC" d="M246.428,136.244c0,1.214-0.984,2.197-2.197,2.197h-26.364c-1.214,0-2.197-0.984-2.197-2.197V109.88
		c0-1.214,0.984-2.197,2.197-2.197h26.364c1.214,0,2.197,0.983,2.197,2.197V136.244z M220.065,135.145h21.969v-23.068h-21.969
		V135.145z"/>
	<path fill="#FFFFFF" d="M239.407,123.622c0.113-0.59,0.173-1.201,0.173-1.827c0-2.657-1.26-5.587-2.697-7.084
		c-0.486-0.507-0.982-0.868-1.6-1.157c-1.286-0.601-2.495-0.643-3.84-0.643c-3.353,0-6.39,2.224-7.636,5.387
		c-0.424,1.076-0.502,2.252-0.502,3.497c0,0.233,0.025,1.738,0.025,1.738s-1.998,0.248-1.303,2.73c0,0,0.486,1.507,2.151,1.398
		c0.167,0.51,0.362,0.957,0.594,1.281v0.002c1.255,2.361,3.737,4.006,6.596,4.006c3.35,0,6.186-2.116,7.131-5.208l0,0
		c2.07,0.14,2.272-2.105,2.272-2.105C240.652,124.299,239.933,123.788,239.407,123.622z"/>
	<path fill="#78878C" d="M223.332,123.532c0,0,1.159,0.115,1.954-0.79c0.8-0.911,0.677-1.54,0.956-3.178
		c0,0,0.154-2.184,1.911-2.156c1.477,0.024,1.827,0.903,3.44,0.956c1.797,0.059,2.214-0.722,3.295-0.722c0.867,0,1.4,0.401,1.501,2
		c0.089,1.419,0.618,2.468,1.255,3.123c0.555,0.569,1.516,0.836,1.764,0.858c0,0,0.093-0.581,0.122-0.838
		c0.052-0.447,0.052-0.662,0.056-0.886c0.005-0.395-0.009-0.447-0.023-0.689c-0.024-0.463-0.074-0.814-0.139-1.173
		c-0.097-0.531-0.243-1.226-0.695-2.343c-0.666-1.647-1.554-2.828-2.469-3.545c-1.687-1.323-3.585-1.285-5.203-1.226
		c-1.293,0.047-3.251,0.504-4.851,1.992c-1.167,1.084-1.905,2.062-2.54,3.788c-0.141,0.384-0.235,0.912-0.294,1.519
		C223.27,121.255,223.283,122.505,223.332,123.532z"/>
	
		<line fill="none" stroke="#CED4D7" stroke-width="1.1864" stroke-miterlimit="10" x1="48.719" y1="127.328" x2="188.395" y2="127.328"/>
	
		<line fill="none" stroke="#CED4D7" stroke-width="1.1864" stroke-miterlimit="10" x1="48.719" y1="170.062" x2="188.395" y2="170.062"/>
	
		<line fill="none" stroke="#CED4D7" stroke-width="1.1864" stroke-miterlimit="10" x1="48.719" y1="212.798" x2="188.395" y2="212.798"/>
	
		<line fill="none" stroke="#CED4D7" stroke-width="1.1864" stroke-miterlimit="10" x1="48.719" y1="255.532" x2="188.395" y2="255.532"/>
	
		<line fill="none" stroke="#CED4D7" stroke-width="1.1864" stroke-miterlimit="10" x1="48.719" y1="298.268" x2="188.395" y2="298.268"/>
	
		<line fill="none" stroke="#ECECEC" stroke-width="3.5591" stroke-linecap="round" stroke-miterlimit="10" x1="215.671" y1="165.666" x2="530.614" y2="165.666"/>
	
		<line fill="none" stroke="#ECECEC" stroke-width="3.5591" stroke-linecap="round" stroke-miterlimit="10" x1="215.671" y1="182.315" x2="504.652" y2="182.315"/>
	
		<line fill="none" stroke="#ECECEC" stroke-width="3.5591" stroke-linecap="round" stroke-miterlimit="10" x1="215.671" y1="198.965" x2="471.055" y2="198.965"/>
	
		<line fill="none" stroke="#ECECEC" stroke-width="3.5591" stroke-linecap="round" stroke-miterlimit="10" x1="215.671" y1="215.614" x2="504.652" y2="215.614"/>
	
		<line fill="none" stroke="#ECECEC" stroke-width="3.5591" stroke-linecap="round" stroke-miterlimit="10" x1="215.671" y1="232.264" x2="486.64" y2="232.264"/>
	
		<line fill="none" stroke="#ECECEC" stroke-width="3.5591" stroke-linecap="round" stroke-miterlimit="10" x1="215.671" y1="248.914" x2="504.652" y2="248.914"/>
	
		<line fill="none" stroke="#ECECEC" stroke-width="3.5591" stroke-linecap="round" stroke-miterlimit="10" x1="215.671" y1="265.563" x2="471.055" y2="265.563"/>
	
		<line fill="none" stroke="#ECECEC" stroke-width="3.5591" stroke-linecap="round" stroke-miterlimit="10" x1="215.671" y1="282.214" x2="486.64" y2="282.214"/>
	<path opacity="0.2" fill="#78878C" enable-background="new    " d="M380.428,421.764H232.191c-0.18,2.994-0.46,5.954-0.826,8.874
		h149.889C380.89,427.718,380.61,424.758,380.428,421.764z"/>
</g>
<g id="iPad">
	<path opacity="0.2" fill="#78878C" enable-background="new    " d="M605.425,173.277v248.486H461.631V187.92
		c0-10.804,1.96-14.642,10.012-14.642H605.425z"/>
	<path fill="#586366" d="M700.496,173.279c8.055,0,14.647,6.59,14.647,14.647V495.24c0,8.056-6.59,14.647-14.647,14.647H483.765
		c-8.055,0-14.647-6.59-14.647-14.647V187.924c0-8.055,6.59-14.647,14.647-14.647L700.496,173.279L700.496,173.279z"/>
	<rect x="494.162" y="208.263" fill="#FFFFFF" width="195.936" height="266.639"/>
	<path fill="#9EADB2" d="M592.13,486.973c3.735,0,6.762,3.028,6.762,6.762l0,0c0,3.735-3.028,6.762-6.762,6.762l0,0
		c-3.735,0-6.762-3.028-6.762-6.762l0,0C585.367,490.001,588.395,486.973,592.13,486.973L592.13,486.973z"/>
	<path fill="#9EADB2" d="M605.656,193.982h-27.051c-1.47,0-2.661-1.192-2.661-2.661c0-1.47,1.192-2.661,2.661-2.661h27.051
		c1.47,0,2.661,1.192,2.661,2.661C608.317,192.791,607.124,193.982,605.656,193.982z"/>
	<rect x="610.678" y="251.814" fill="#ECECEC" width="62.599" height="5.492"/>
	<path fill="#ECECEC" d="M675.474,257.307c0,1.214-0.983,2.197-2.197,2.197h-62.599c-1.214,0-2.197-0.984-2.197-2.197v-5.492
		c0-1.214,0.983-2.197,2.197-2.197h62.599c1.214,0,2.197,0.984,2.197,2.197V257.307z M612.875,255.11h58.206v-1.099h-58.206V255.11z
		"/>
	<rect x="610.678" y="270.91" fill="#ECECEC" width="55.785" height="5.492"/>
	<path fill="#ECECEC" d="M668.659,276.403c0,1.214-0.983,2.197-2.197,2.197h-55.785c-1.214,0-2.197-0.984-2.197-2.197v-5.492
		c0-1.214,0.983-2.197,2.197-2.197h55.785c1.214,0,2.197,0.984,2.197,2.197V276.403z M612.875,274.206h51.39v-1.099h-51.39V274.206z
		"/>
	<rect x="494.162" y="230.39" fill="#ECECEC" width="60.22" height="244.512"/>
	<rect x="570.649" y="250.588" fill="#ECECEC" width="26.364" height="26.364"/>
	<path fill="#ECECEC" d="M599.209,276.951c0,1.214-0.983,2.197-2.197,2.197h-26.362c-1.214,0-2.197-0.984-2.197-2.197v-26.364
		c0-1.214,0.983-2.197,2.197-2.197h26.364c1.214,0,2.197,0.984,2.197,2.197L599.209,276.951L599.209,276.951z M572.846,275.853
		h21.969v-23.068h-21.969V275.853z"/>
	<path fill="#FFFFFF" d="M592.189,264.328c0.113-0.59,0.173-1.201,0.173-1.827c0-2.657-1.26-5.587-2.697-7.084
		c-0.486-0.507-0.982-0.868-1.6-1.157c-1.286-0.601-2.495-0.643-3.84-0.643c-3.353,0-6.39,2.224-7.635,5.387
		c-0.424,1.076-0.502,2.252-0.502,3.497c0,0.233,0.025,1.738,0.025,1.738s-1.998,0.248-1.303,2.73c0,0,0.486,1.507,2.151,1.398
		c0.167,0.51,0.362,0.957,0.594,1.281v0.001c1.255,2.361,3.738,4.008,6.597,4.008c3.35,0,6.186-2.116,7.131-5.208l0,0
		c2.07,0.14,2.272-2.105,2.272-2.105C593.432,265.006,592.715,264.496,592.189,264.328z"/>
	<path fill="#78878C" d="M576.114,264.239c0,0,1.159,0.115,1.954-0.79c0.8-0.911,0.677-1.54,0.955-3.178
		c0,0,0.154-2.184,1.911-2.156c1.477,0.024,1.827,0.903,3.44,0.956c1.797,0.059,2.214-0.723,3.295-0.723c0.867,0,1.4,0.401,1.501,2
		c0.089,1.419,0.618,2.468,1.255,3.123c0.555,0.569,1.516,0.836,1.764,0.858c0,0,0.093-0.581,0.122-0.838
		c0.052-0.447,0.052-0.662,0.056-0.886c0.005-0.395-0.009-0.447-0.023-0.689c-0.025-0.463-0.074-0.814-0.139-1.173
		c-0.097-0.531-0.243-1.225-0.695-2.343c-0.665-1.647-1.554-2.828-2.469-3.545c-1.687-1.323-3.585-1.285-5.203-1.226
		c-1.293,0.047-3.251,0.504-4.851,1.992c-1.167,1.084-1.905,2.062-2.54,3.788c-0.141,0.384-0.235,0.912-0.294,1.519
		C576.052,261.963,576.065,263.213,576.114,264.239z"/>
	
		<line fill="none" stroke="#CED4D7" stroke-width="1.1864" stroke-miterlimit="10" x1="494.162" y1="255.487" x2="554.382" y2="255.487"/>
	
		<line fill="none" stroke="#CED4D7" stroke-width="1.1864" stroke-miterlimit="10" x1="494.162" y1="284.208" x2="554.382" y2="284.208"/>
	
		<line fill="none" stroke="#CED4D7" stroke-width="1.1864" stroke-miterlimit="10" x1="494.162" y1="312.928" x2="554.382" y2="312.928"/>
	
		<line fill="none" stroke="#CED4D7" stroke-width="1.1864" stroke-miterlimit="10" x1="494.162" y1="341.648" x2="554.382" y2="341.648"/>
	
		<line fill="none" stroke="#CED4D7" stroke-width="1.1864" stroke-miterlimit="10" x1="494.162" y1="370.369" x2="554.382" y2="370.369"/>
	
		<line fill="none" stroke="#CED4D7" stroke-width="1.1864" stroke-miterlimit="10" x1="494.162" y1="399.089" x2="554.382" y2="399.089"/>
	
		<line fill="none" stroke="#CED4D7" stroke-width="1.1864" stroke-miterlimit="10" x1="494.162" y1="427.81" x2="554.382" y2="427.81"/>
	
		<line fill="none" stroke="#CED4D7" stroke-width="1.1864" stroke-miterlimit="10" x1="494.162" y1="456.529" x2="554.382" y2="456.529"/>
	
		<line fill="none" stroke="#ECECEC" stroke-width="3.5591" stroke-linecap="round" stroke-miterlimit="10" x1="569.549" y1="310.77" x2="675.474" y2="310.77"/>
	
		<line fill="none" stroke="#ECECEC" stroke-width="3.5591" stroke-linecap="round" stroke-miterlimit="10" x1="569.549" y1="327.42" x2="666.462" y2="327.42"/>
	
		<line fill="none" stroke="#ECECEC" stroke-width="3.5591" stroke-linecap="round" stroke-miterlimit="10" x1="569.549" y1="344.069" x2="650.878" y2="344.069"/>
	
		<line fill="none" stroke="#ECECEC" stroke-width="3.5591" stroke-linecap="round" stroke-miterlimit="10" x1="569.549" y1="360.719" x2="666.462" y2="360.719"/>
	
		<line fill="none" stroke="#ECECEC" stroke-width="3.5591" stroke-linecap="round" stroke-miterlimit="10" x1="569.549" y1="377.368" x2="666.462" y2="377.368"/>
	
		<line fill="none" stroke="#ECECEC" stroke-width="3.5591" stroke-linecap="round" stroke-miterlimit="10" x1="569.549" y1="394.018" x2="666.462" y2="394.018"/>
	
		<line fill="none" stroke="#ECECEC" stroke-width="3.5591" stroke-linecap="round" stroke-miterlimit="10" x1="569.549" y1="410.669" x2="650.878" y2="410.669"/>
	
		<line fill="none" stroke="#ECECEC" stroke-width="3.5591" stroke-linecap="round" stroke-miterlimit="10" x1="569.549" y1="427.318" x2="666.462" y2="427.318"/>
	<rect x="494.162" y="208.264" fill="#02526A" width="195.936" height="22.126"/>
</g>
<g id="iPhone">
	<path opacity="0.2" fill="#78878C" enable-background="new    " d="M731.682,270.353v239.47l-88.067,0.065V288.466
		c0-9.963,8.15-18.114,18.114-18.114H731.682z"/>
	<path fill="#78878C" d="M777.597,496.629c0,7.188-5.451,13.258-12.636,13.258H663.968c-7.186,0-13.171-6.071-13.171-13.258V283.136
		c0-7.185,5.985-13.233,13.171-13.233h100.993c7.185,0,12.636,6.047,12.636,13.233V496.629L777.597,496.629z"/>
	<path fill="#9EADB2" d="M714.464,496.592c-5.339,0-9.68-4.342-9.68-9.678c0-5.339,4.341-9.681,9.68-9.681
		c5.335,0,9.68,4.342,9.68,9.681C724.144,492.25,719.799,496.592,714.464,496.592z"/>
	<rect x="662.711" y="314.156" fill="#FFFFFF" width="103.823" height="151.479"/>
	<rect x="662.711" y="293.731" fill="#02526A" width="103.823" height="20.425"/>
	<rect x="704.178" y="329.11" fill="#ECECEC" width="51.448" height="4.019"/>
	<path fill="#ECECEC" d="M757.234,333.13c0,0.889-0.72,1.608-1.607,1.608h-51.448c-0.889,0-1.607-0.72-1.607-1.608v-4.019
		c0-0.889,0.72-1.608,1.607-1.608h51.448c0.889,0,1.607,0.72,1.607,1.608V333.13z M705.786,331.522h48.232v-0.804h-48.232V331.522z"
		/>
	<rect x="704.178" y="343.086" fill="#ECECEC" width="46.461" height="4.019"/>
	<path fill="#ECECEC" d="M752.247,347.106c0,0.889-0.72,1.608-1.607,1.608h-46.46c-0.889,0-1.608-0.72-1.608-1.608v-4.019
		c0-0.889,0.72-1.608,1.608-1.608h46.46c0.889,0,1.607,0.72,1.607,1.608V347.106z M705.786,345.498h43.245v-0.804h-43.245V345.498z"
		/>
	<rect x="674.882" y="328.212" fill="#ECECEC" width="19.295" height="19.295"/>
	<path fill="#ECECEC" d="M695.785,347.507c0,0.889-0.72,1.608-1.607,1.608h-19.295c-0.887,0-1.608-0.72-1.608-1.608v-19.295
		c0-0.889,0.72-1.608,1.608-1.608h19.295c0.887,0,1.607,0.72,1.607,1.608V347.507z M676.489,346.703h16.079V329.82h-16.079V346.703z
		"/>
	<path fill="#FFFFFF" d="M690.646,338.269c0.083-0.432,0.127-0.879,0.127-1.337c0-1.944-0.922-4.088-1.974-5.184
		c-0.356-0.37-0.719-0.636-1.171-0.847c-0.941-0.44-1.826-0.471-2.811-0.471c-2.455,0-4.677,1.628-5.588,3.942
		c-0.31,0.788-0.367,1.648-0.367,2.559c0,0.17,0.018,1.272,0.018,1.272s-1.462,0.182-0.954,1.998c0,0,0.356,1.102,1.574,1.024
		c0.122,0.373,0.265,0.701,0.435,0.937v0.001c0.918,1.727,2.736,2.933,4.829,2.933c2.452,0,4.527-1.549,5.22-3.812l0,0
		c1.515,0.103,1.662-1.54,1.662-1.54C691.556,338.765,691.031,338.391,690.646,338.269z"/>
	<path fill="#78878C" d="M678.88,338.204c0,0,0.848,0.084,1.43-0.579c0.586-0.667,0.496-1.127,0.7-2.326
		c0,0,0.113-1.598,1.399-1.578c1.081,0.017,1.337,0.661,2.517,0.7c1.316,0.044,1.621-0.529,2.411-0.529
		c0.635,0,1.025,0.293,1.099,1.464c0.065,1.039,0.453,1.806,0.919,2.285c0.406,0.418,1.11,0.612,1.291,0.628
		c0,0,0.068-0.425,0.09-0.613c0.038-0.327,0.038-0.484,0.04-0.649c0.004-0.288-0.007-0.327-0.017-0.504
		c-0.018-0.339-0.053-0.596-0.102-0.859c-0.071-0.389-0.178-0.897-0.509-1.716c-0.486-1.205-1.138-2.069-1.807-2.595
		c-1.235-0.968-2.623-0.941-3.808-0.897c-0.947,0.034-2.379,0.369-3.55,1.458c-0.854,0.794-1.394,1.509-1.859,2.773
		c-0.103,0.281-0.172,0.668-0.216,1.112C678.836,336.537,678.845,337.453,678.88,338.204z"/>
	
		<line fill="none" stroke="#ECECEC" stroke-width="3.5591" stroke-linecap="round" stroke-miterlimit="10" x1="674.077" y1="364.887" x2="757.234" y2="364.887"/>
	
		<line fill="none" stroke="#ECECEC" stroke-width="3.5591" stroke-linecap="round" stroke-miterlimit="10" x1="674.077" y1="377.072" x2="750.638" y2="377.072"/>
	
		<line fill="none" stroke="#ECECEC" stroke-width="3.5591" stroke-linecap="round" stroke-miterlimit="10" x1="674.077" y1="389.258" x2="739.232" y2="389.258"/>
	
		<line fill="none" stroke="#ECECEC" stroke-width="3.5591" stroke-linecap="round" stroke-miterlimit="10" x1="674.077" y1="401.444" x2="750.638" y2="401.444"/>
	
		<line fill="none" stroke="#ECECEC" stroke-width="3.5591" stroke-linecap="round" stroke-miterlimit="10" x1="674.077" y1="413.63" x2="750.638" y2="413.63"/>
	
		<line fill="none" stroke="#ECECEC" stroke-width="3.5591" stroke-linecap="round" stroke-miterlimit="10" x1="674.077" y1="425.815" x2="750.638" y2="425.815"/>
	
		<line fill="none" stroke="#ECECEC" stroke-width="3.5591" stroke-linecap="round" stroke-miterlimit="10" x1="674.077" y1="438.002" x2="739.232" y2="438.002"/>
	
		<line fill="none" stroke="#ECECEC" stroke-width="3.5591" stroke-linecap="round" stroke-miterlimit="10" x1="674.077" y1="450.187" x2="750.638" y2="450.187"/>
</g>
</svg>
