<?xml version="1.0" encoding="utf-8"?>
<!-- Generator: Adobe Illustrator 17.0.2, SVG Export Plug-In . SVG Version: 6.00 Build 0)  -->
<!DOCTYPE svg PUBLIC "-//W3C//DTD SVG 1.1//EN" "http://www.w3.org/Graphics/SVG/1.1/DTD/svg11.dtd">
<svg version="1.1" id="Layer_1" xmlns="http://www.w3.org/2000/svg" xmlns:xlink="http://www.w3.org/1999/xlink" x="0px" y="0px"
	 width="479.338px" height="381.166px" viewBox="0 0 479.338 381.166" enable-background="new 0 0 479.338 381.166"
	 xml:space="preserve">
<path fill="#5B5A5C" d="M266.245,153.671c-19.57-9.781-40.886-2.047-40.886-2.047s5.969-15.331,21.85-22.51
	c11.202-5.061,24.525-2.068,31.414,0.138C274.048,137.135,269.713,145.177,266.245,153.671z"/>
<path fill="#4E4D50" d="M266.245,153.671c-19.57-9.781-40.886-2.047-40.886-2.047s20.071-19.934,46.455-9.99
	C269.801,145.563,267.922,149.564,266.245,153.671z"/>
<g opacity="0.1">
	<ellipse cx="43.391" cy="375.298" rx="34.391" ry="5.868"/>
	<path d="M469.45,304.432c0,0,17.741,25.073-8,29.657c-25.741,4.583-80,14.583-104.5,16.083c-20.303,1.243-41.5,3.14-41.5,3.14
		s-17.064,17.922-27.033,18.422s-20.64-20.045-21.636-35.394c-0.995-15.349,6.589-11.669,6.589-11.669s-41.92,9-49.92,12v6l-6-3.155
		c0,0-18.033,10.488-14.35,22.155s-39,0-39,0l-86.117,3c0,0-2.533-34.244,67.967-38.661
		C216.45,321.594,469.45,304.432,469.45,304.432z"/>
	<ellipse cx="152.391" cy="369.422" rx="104.342" ry="10.25"/>
</g>
<path fill="#A0D5E9" d="M321.812,282.172l-3.362,60.167c0,0-5.741,10.667-20.871,9c0,0-0.525,9-11.16,13.333
	c0,0-14.302-4.333-16.969-22.333c0,0-11.333-5.333-9-17.667c0,0-4.262-16.88,1.202-26.107c0,0,4.797-7.227,12.131-9.56
	c0,0-1.333-9.667,0.333-12.333C274.116,276.672,299.95,266.672,321.812,282.172z"/>
<path fill="#EAF6FD" d="M479.241,270.755c-1.333,2.667-6.875,2.417-6.875,2.417c2.583-9.5-4.437-33.917-9.042-39.375
	c-1.5,0.75-1.02,1.077-3.625,1.625c5.997-17.83,1.083-46.417,1.083-46.417s-7.087,0.257-13.087-7.493c6.139-3.639,5-9,5-9
	c-7.618-0.232-38.667-9.333-38.667-9.333c6.333-4.667-0.853-13.713-0.853-13.713c-3.147,4.391-10.147,0-10.147,0
	c5.169-5.167,2.333-12.287,2.333-12.287c-8.718,5.781-15.794-8.219-17.682-12.447l-9.66-28.594
	c-6.79-16.796,4.881-40.025,4.881-40.025c-4.646-1.787-11.765-1.072-11.765-1.072c0-6.075,6.447-19.298,6.447-19.298
	c-7.147-1.787-18.218,0-18.218,0c1.072-5.36,6.079-20.013,6.079-20.013s-14.912,0.011-29.266,3.276
	c-14.097,3.207-22.19,12.088-22.19,12.088C310.415,20.73,312.205,0,312.205,0c-30.019,10.006-47.881,54.672-47.881,54.672
	c-6.433-7.862-9.28-21.453-9.28-21.453c-21.8,24.658-11.414,57.156-11.414,57.156c-6.433,0-15.322-5.763-15.322-5.763
	c7.147,32.878,30.823,53.873,30.823,53.873s-2.68,21.263-1.251,32.342c0,0-13.758-3.574-29.572,1.787l3.484,8.934
	c0,0-6.519,3.934-11.505,7.017c2.139,1.705,4.309,3.37,6.565,4.923c1.861,1.28,3.79,2.463,5.76,3.576l15.837,127.607h12
	c-2.333-13.667,1.202-26.107,1.202-26.107c6-6.333,12.131-9.56,12.131-9.56c-0.667-8.333,2-11.333,2-11.333
	c26.333-10.333,46.029,5.333,46.029,5.333c-5.305,3.667-21.362-2.272-21.362-2.272c0.667,7.061,5,9.606,5,9.606
	c-8.667,5.667-25.988,4.866-25.988,4.866c2.667,11.667,10.988,13.217,10.988,13.217c-10.333,4-10.667,19.583-10.667,19.583
	c5.667-4.333,11.333-1.333,11.333-1.333c-3.667,9.333,0,22,0,22c11.333-9.333,30.333-4,30.333-4v4
	c14-9.333,59.833-11.333,59.833-11.333c-0.667,3.667,2.592,4.667,2.592,4.667c4.758-8.667,19.575-9.333,19.575-9.333v3.333
	c0,0,35.865-3.312,56.865-8.646c21-5.333,14.157-44.312,14.157-44.312C480.431,281.38,479.241,270.755,479.241,270.755z"/>
<path fill="#A0D5E9" d="M366.116,156.672c0,0-8.35-20.333-21.932-36.144c0,0-0.804-24.926-2.948-35.379
	c0,0-23.316-5.599-54.358,6.885c-1.429-4.973-6.215-5.009-6.215-5.009l-1.876,4.556c-5.897-5.092-11.257-2.412-11.257-2.412
	c2.948,2.144,5.092,9.681,5.092,9.681l1.39-0.766l0.001,0c-6.875,3.719-13.998,8.369-21.225,14.17c0,0,3.484,13.366,16.082,24.355
	c0,0-3.753,31.786,2,53.42c0,0,12.061-4.556,17.69-2.948c0,0,0.804,12.329,2.948,17.69c0,0,10.453-6.433,13.937-7.505
	c0,0,2.948,8.577,7.505,13.669c0,0,10.309-15.741,16.741-21.37c0,0,6.683,2.949,8.559,7.773c0,0,8.811-11.917,11.491-22.906
	c0,0,9.041-1.268,12.525,1.948c0,0,1.34-10.542-4.824-15.786C357.442,160.595,362.9,155.868,366.116,156.672z"/>
<ellipse fill="#84C0CE" cx="315.911" cy="121.441" rx="8.291" ry="10.493"/>
<ellipse fill="#FFFFFF" cx="315.147" cy="118.542" rx="8.163" ry="10.331"/>
<path fill="#4E4D50" d="M317.314,113.216c0.065,0.253,0.11,0.518,0.11,0.798c0,1.455-0.948,2.634-2.118,2.634
	c-1.039,0-1.899-0.932-2.079-2.16c-0.666,0.874-1.078,2.053-1.078,3.353c0,2.695,1.756,4.879,3.922,4.879
	c2.166,0,3.922-2.184,3.922-4.879C319.993,115.687,318.87,113.863,317.314,113.216z"/>
<path fill="#84C0CE" d="M307.514,95.374c0,0,9.3-4.539,18.596-1.377C326.11,93.996,317.343,82.733,307.514,95.374z"/>
<ellipse fill="#84C0CE" cx="290.181" cy="130.018" rx="8.291" ry="10.493"/>
<ellipse fill="#FFFFFF" cx="289.416" cy="127.119" rx="8.163" ry="10.331"/>
<path fill="#4E4D50" d="M291.583,121.793c0.065,0.253,0.11,0.518,0.11,0.798c0,1.455-0.948,2.634-2.118,2.634
	c-1.039,0-1.899-0.932-2.079-2.16c-0.666,0.874-1.078,2.053-1.078,3.353c0,2.695,1.756,4.879,3.922,4.879
	c2.166,0,3.922-2.184,3.922-4.879C294.263,124.263,293.14,122.439,291.583,121.793z"/>
<path fill="#84C0CE" d="M271.535,114.312c0,0,5.894-8.506,15.549-10.292C287.084,104.021,273.93,98.481,271.535,114.312z"/>
<path fill="#CDEAF5" d="M257.88,170.827c0,0,2.405,30.657,8.569,41.378c0,0,7.355-7.474,14.804-5.723c0,0,0.736,15.009,5.165,23.586
	c0,0,5.501-6.969,9.521-7.773c0,0,10.271,12.865,19.207,15.814c0,0,3.967-19.851,14.152-26.641c0,0,6.165,2.323,7.773,8.488
	c0,0,11.9-10.617,18.442-24.514c0,0,4.602-1.603,14.602,6.897c0,0,6.252-6.412,7.592-12.845c0,0,1.876,13.793-6.433,21.03
	c0,0-5.577-6.773-13.886-9.185c0,0-8.257,18.082-22.462,27.194c0,0,0-5.897-5.092-9.917c0,0-9.386,7.969-11.023,27.535
	c0,0-20.062-10.721-24.549-17.958c0,0-3.428,2.144-7.844,8.577c0,0-7.644-4.764-9.095-24.303c0,0-4.97-0.355-12.475,6.882
	c0,0-8.85-28.568-9.115-48.953L257.88,170.827z"/>
<path fill="#737F83" d="M382.977,88.018c-9.811-0.171-18.797,4.96-24.764,9.459c-0.94,6.909-0.575,14.622,2.833,20.671
	c1.639,2.909,3.702,5.284,6,7.402c1.635,0.666,2.678,0.838,2.783,0.666c0.454-0.743,2.016-3.034,2.016-3.034
	c13.225-21.519,40.086-23.104,40.086-23.104S400.346,88.324,382.977,88.018z"/>
<path fill="#5B5A5C" d="M411.93,100.078c0,0-31.588-12.481-51.99,15.776c0.329,0.785,0.689,1.554,1.106,2.294
	c1.443,2.56,3.223,4.696,5.192,6.617l-0.011,0.009c0.133,0.129,0.269,0.255,0.403,0.382c0.052,0.049,0.1,0.102,0.152,0.151
	c0.004,0.001,0.008,0.003,0.012,0.004c0.097,0.091,0.192,0.184,0.29,0.274c1.465,0.727,4.092,1.866,6.228,1.901
	c0,0-1.236-1.537-2.321-3.033c0.453-0.678,0.853-1.272,0.853-1.272C385.069,101.662,411.93,100.078,411.93,100.078z"/>
<path fill="#CDEAF5" d="M321.812,283.005c0,0,6.725-6,3.181-12.333c0,0,4.79,3,7.456,6.167c0,0,1.958-7.833,3.979-9.5
	c0,0,17.28,4,19.354,15.667c0,0,4.667-7,1.667-11c0,0,26.333-5.667,34.667,7.667c0,0-9.167-27,6.833-47.5c0,0-14.134,7.833-17.5,33
	c0,0-13.5,0.333-26,1.833c0,0-14.271-4-18.185-8.415c0,0-5.395,4.749-6.481,9.415c0,0-3.27-3.167-10.636-2.5
	c0,0,4.465,9.306-3.697,14.333C316.45,279.839,319.507,281.339,321.812,283.005z"/>
<path fill="#CDEAF5" d="M258.638,181.692c-1.464-4.532-2.782-9.124-2.904-11.296c0,0-15.9-3.172-27.426,2.219l3.484,8.934
	l-6.434,3.905l26.632,14.885c0,0,4.221-5.083,8.129-6.471C259.379,189.851,258.901,185.795,258.638,181.692z"/>
<path fill="#CDEAF5" d="M261.652,298.565c0,0,3.031-3.725,7.769-6.766c-4.957-21.907,9.201-51.794,9.201-51.794
	c-17.84,15.333-17.84,51.333-17.84,51.333c-2.583,0.333-10.667-3.333-10.667-3.333c2.057,8.457,7.943,11.07,11.2,11.905
	C261.536,299.433,261.389,299.01,261.652,298.565z"/>
<path fill="#84C0CE" d="M269.45,342.339c0,0-1.669-10,0.667-16.5c0,0-4.671,4.167-4.671,13.682
	C265.445,339.521,267.95,342.005,269.45,342.339z"/>
<path fill="#84C0CE" d="M260.45,324.672c0,0,0.333-9.333,6-15.667c-0.83,0.015-6.132,1.706-6.765,7.836
	C259.684,316.841,259.45,321.005,260.45,324.672z"/>
<path fill="#FFFFFF" d="M285.701,151.371c0,0,0.389-5.271,2.856-8.136c0,0,4.792,3.43,6.914,8.768
	C295.47,152.003,288.357,152.162,285.701,151.371z"/>
<path fill="#4E4D50" d="M326.667,135.227c1.569,0.261,4.393,5.558,4.393,5.558c-2.658,2.192-8.507,5.107-14.772,7.352
	c0,0-15.821,5.388-32.364,2.569c0,0,19.819,8.73,48.948-7.167l1.781,3.126C335.265,137.043,326.667,135.227,326.667,135.227z"/>
<path fill="#4E4D50" d="M271.45,124.005c0,0,11.936-11.044,27.33-8.908c0,0,10.478-22.915,36.482-16.386l-5.499,4.071l6.417,5.789
	c0,0-15.243-5.966-35.718,12.066c0,0-16.571,0.868-25.761,10.659C274.7,131.296,273.283,128.089,271.45,124.005z"/>
<path fill="#737F83" d="M323.822,102.545c1.883,0.052,3.988-0.123,5.941,0.237l6.417-4.444
	c-26.003-6.529-38.916,11.579-38.916,11.579c-15.395-2.136-26.938,12.38-26.938,12.38c0.387,1.069,1.959,3.689,2.375,4.532
	c5.833-6.231,18.293-13.177,26.08-11.732C305.157,106.115,312.566,102.235,323.822,102.545z"/>
<path fill="#CED4D7" d="M44.14,313.708h204.021h6.351v6.351v4.888v4.949c0,3.508-2.844,6.351-6.351,6.351H44.14
	c-3.507,0-6.351-2.843-6.351-6.351v-4.949v-4.888v-6.351H44.14z"/>
<path fill="#78878C" d="M248.161,313.708H44.14h-6.351v-6.351V195.972v-4.949c0-3.508,2.844-6.351,6.351-6.351h204.021
	c3.507,0,6.351,2.843,6.351,6.351v4.949v111.386v6.351H248.161z"/>
<path fill="#CED4D7" d="M118.109,333.272c0-11.36,21.009-3.832,28.041-0.985c7.032-2.847,28.041-10.361,28.041,0.999
	c0,19.705,12.126,36.418,12.126,36.418h-37.894h-4.547h-37.894C105.983,369.703,118.109,352.976,118.109,333.272z"/>
<path fill="#CED4D6" d="M116.669,345.515h58.963c-0.667-2.919-1.152-6.255-1.334-9.175h-56.295
	C117.821,339.26,117.336,342.596,116.669,345.515z"/>
<rect x="102.986" y="365.116" fill="#CED4D7" width="86.325" height="4.587"/>
<path opacity="0.15" fill="#657275" d="M116.669,345.515h58.963c-0.667-2.919-1.152-6.255-1.334-9.175h-56.295
	C117.821,339.26,117.336,342.596,116.669,345.515z"/>
<rect x="48.355" y="195.384" fill="#02526A" width="195.588" height="12.511"/>
<rect x="102.986" y="365.116" fill="#9EADB2" width="86.325" height="4.587"/>
<rect x="48.355" y="207.895" fill="#FFFFFF" width="195.588" height="95.083"/>
<g>
	<g>
		<path fill="#78878C" d="M19.322,371.748c0,2.729,2.07,5.034,4.797,5.034h38.342c2.728,0,5-2.305,5-5.034v-81.053
			c0-2.728-2.272-5.024-5-5.024H24.119c-2.728,0-4.797,2.296-4.797,5.024V371.748L19.322,371.748z"/>
	</g>
	<g>
		<path fill="#9EADB2" d="M43.29,371.734c2.027,0,3.675-1.649,3.675-3.674c0-2.027-1.648-3.675-3.675-3.675
			c-2.026,0-3.675,1.649-3.675,3.675C39.615,370.086,41.264,371.734,43.29,371.734z"/>
	</g>
	<rect x="23.522" y="302.472" fill="#FFFFFF" width="39.416" height="57.509"/>
	<rect x="23.522" y="294.718" fill="#02526A" width="39.416" height="7.754"/>
</g>
<path fill="#A0D5E9" d="M75.243,167.582c-2.252,0.797-5.954,2.167-9.797,3.839l-4.997-3.001v5.005
	c-2.669,1.321-4.49,2.743-6.333,4.17c0,0-5,8.554,6,15.014c11,6.459,18-5.005,18-5.005s7.667-2.919,13.667-2.919h23.537
	C107.176,170.526,89.818,165.663,75.243,167.582z"/>
<path fill="#84C0CE" d="M89.325,167.672c-6.875,0.875-13.25,2.875-22.542,8c-0.125,0.07-0.05,0.941-0.167,1
	c-0.891,4.202-0.869,8.591,1.083,12.25c1.281,1.558,3.5,3.5,5.47,3.652c3.169-2.062,4.946-4.969,4.946-4.969
	s7.667-2.919,13.667-2.919h23.537C109.907,175.273,99.357,169.607,89.325,167.672z"/>
<path fill="#A0D5E9" d="M81.447,171.421c3.843-1.673,7.544-3.042,9.797-3.839c14.575-1.919,31.932,2.944,40.076,17.103h-23.537
	c-6,0-13.667,2.919-13.667,2.919s-7,11.464-18,5.005c-11-6.459-6-15.014-6-15.014c1.843-1.428,3.665-2.849,6.333-4.17
	L81.447,171.421z"/>
<path fill="#84C0CE" d="M105.325,167.672c-6.875,0.875-13.25,2.875-22.542,8c-0.125,0.07-0.05,0.941-0.167,1
	c-0.891,4.202-0.869,8.591,1.083,12.25c1.281,1.558,3.5,3.5,5.47,3.652c3.169-2.062,4.946-4.969,4.946-4.969
	s7.667-2.919,13.667-2.919h23.537C125.907,175.273,115.357,169.607,105.325,167.672z"/>
<path fill="#A0D5E9" d="M97.447,171.421c3.843-1.673,7.544-3.042,9.797-3.839c14.575-1.919,21.932,2.944,30.076,17.103h-13.537
	c-6,0-13.667,2.919-13.667,2.919s-7,11.464-18,5.005c-11-6.459-6-15.014-6-15.014c1.843-1.428,3.665-2.849,6.333-4.17
	L97.447,171.421z"/>
<path fill="#84C0CE" d="M131.946,176.472c-1.916,2.155-3.699,5.541-4.633,7.142c-0.208,0.356-0.405,0.714-0.603,1.071h12.11
	C136.967,181.464,134.616,178.754,131.946,176.472z"/>
<path fill="#A0D5E9" d="M129.866,184.672c0,0,6.376-14.201,18.548-11.302c12.172,2.898,8.984,11.302,8.984,11.302H129.866z"/>
</svg>
