<?xml version="1.0" encoding="UTF-8" standalone="no"?>
<svg width="44px" height="44px" viewBox="0 0 44 44" version="1.1" xmlns="http://www.w3.org/2000/svg" xmlns:xlink="http://www.w3.org/1999/xlink">
    <!-- Generator: Sketch 3.6.1 (26313) - http://www.bohemiancoding.com/sketch -->
    <title>gulp</title>
    <desc>Created with Sketch.</desc>
    <defs>
        <linearGradient x1="100%" y1="12.7747406%" x2="11.7424911%" y2="65.7311425%" id="linearGradient-1">
            <stop stop-color="#3D3D64" offset="0%"></stop>
            <stop stop-color="#88727D" offset="100%"></stop>
        </linearGradient>
    </defs>
    <g id="Page-1" stroke="none" stroke-width="1" fill="none" fill-rule="evenodd">
        <g id="gulp">
            <circle id="Oval-16" fill="#E8E8E8" cx="22" cy="22" r="22"></circle>
            <g transform="translate(15.000000, 6.000000)" id="Page-1" fill="url(#linearGradient-1)">
                <g>
                    <g>
                        <g id="gulp">
                            <g id="Gulp-Logo">
                                <path d="M6.9376,25.2633368 C5.13168,25.2633368 3.73624,24.9822176 3.0652,24.8146736 C2.60632,24.7001036 2.23784,24.5815544 1.95792,24.459772 L2.85288,26.0442694 L3.20296,30.9950674 C3.20296,31.5500933 4.9044,32 7.0032,32 C9.102,32 10.80344,31.5500933 10.80344,30.9950674 L11.08064,25.9903834 L11.92744,24.4551295 C11.64632,24.5785699 11.27456,24.6986943 10.80992,24.8146736 C10.13888,24.9822176 8.74344,25.2633368 6.9376,25.2633368 L6.9376,25.2633368 Z M11.95648,9.15324352 C10.63104,9.34507772 8.87192,9.4507772 7.0032,9.4507772 C5.13448,9.4507772 3.37536,9.34507772 2.04992,9.15324352 C1.39336,9.05823834 0.87392,8.94615544 0.506,8.82031088 C0.41824,8.79021762 0.26952,8.73890155 0.1264,8.65716062 L0.9476,16.4891192 C0.98576,16.3542383 1.02824,16.2195233 1.07536,16.0853057 C1.17176,15.8102383 1.28328,15.5413057 1.40984,15.2785907 C1.53648,15.0159585 1.67432,14.7676684 1.82336,14.5338031 C1.97232,14.3000207 2.13096,14.0847254 2.29904,13.888 C2.4672,13.6913575 2.63968,13.5222383 2.8168,13.3804767 C2.99384,13.2388808 3.17256,13.1281244 3.35296,13.0483731 C3.53344,12.9686218 3.71216,12.9286632 3.8892,12.9286632 C4.09312,12.9286632 4.2904,12.9864456 4.48096,13.1020104 C4.67144,13.2174922 4.84952,13.404601 5.01544,13.663171 C5.05352,13.7209534 5.07768,13.779399 5.08768,13.8385078 C5.09784,13.8976995 5.1028,13.9534093 5.1028,14.0056373 C5.1028,14.1294093 5.07424,14.2271503 5.01712,14.2986114 C4.96,14.3701554 4.89216,14.405886 4.81376,14.405886 C4.74192,14.405886 4.67528,14.3666736 4.61368,14.2883316 C4.552,14.2099067 4.48312,14.0978238 4.40688,13.952 C4.33512,13.8199378 4.25616,13.7244352 4.16992,13.6652435 C4.0836,13.6061347 3.99008,13.5765389 3.8892,13.5765389 C3.73232,13.5765389 3.5648,13.6439378 3.38664,13.7787358 C3.2084,13.9134508 3.03192,14.0916062 2.8572,14.3130363 C2.68232,14.5345492 2.5148,14.7875648 2.35456,15.0723316 C2.19432,15.3570155 2.05248,15.6485803 1.9292,15.9470259 C1.80592,16.2456373 1.708,16.5400207 1.63512,16.8301762 C1.56224,17.1203316 1.52584,17.3809741 1.52584,17.6120207 C1.52584,17.6891192 1.53096,17.7682902 1.54096,17.849285 C1.55112,17.9305285 1.57008,18.0040622 1.59816,18.0701347 C1.62608,18.1362073 1.66424,18.1904249 1.7124,18.2329534 C1.76064,18.2757306 1.82168,18.2969534 1.8956,18.2969534 C1.97856,18.2969534 2.07264,18.2681036 2.17808,18.2103212 C2.28336,18.1527047 2.39264,18.0769326 2.50576,17.9835026 C2.61896,17.8899067 2.73272,17.7840415 2.84704,17.665658 C2.96144,17.5474404 3.06784,17.4278135 3.1664,17.3066943 C3.26496,17.1857409 3.3524,17.0694301 3.42856,16.9580933 C3.5048,16.8466736 3.56192,16.7496788 3.60008,16.6671088 L3.91272,15.6974093 C3.9508,15.5929534 4.00064,15.5186736 4.06232,15.4746528 C4.12392,15.4306321 4.18728,15.4085803 4.25232,15.4085803 C4.2836,15.4085803 4.31496,15.4141347 4.3464,15.4250777 C4.37784,15.4361036 4.40576,15.4533472 4.43048,15.4766425 C4.45512,15.5001036 4.47472,15.5302798 4.48928,15.5675026 C4.50384,15.6045596 4.51112,15.6479171 4.51112,15.6974093 C4.51112,15.8294715 4.49992,15.9531606 4.47752,16.0688083 C4.45512,16.184456 4.42656,16.2971192 4.39176,16.4072124 C4.35704,16.5171399 4.31832,16.6278964 4.27576,16.7393161 C4.2332,16.8507358 4.19168,16.9669637 4.15144,17.0880829 C4.14248,17.1018446 4.12624,17.1450363 4.10264,17.2179067 C4.07912,17.290943 4.05064,17.3824663 4.01696,17.4923938 C3.98336,17.602487 3.94688,17.725513 3.90768,17.8617202 C3.8684,17.9979275 3.82816,18.1367876 3.78672,18.2784663 C3.7452,18.4201451 3.70544,18.5590881 3.66736,18.6952953 C3.6292,18.8314197 3.59496,18.9545285 3.5648,19.0646218 C3.53456,19.1745492 3.50936,19.2666528 3.48912,19.3410155 C3.46896,19.4152953 3.45664,19.4592332 3.45216,19.4731606 C3.44096,19.5170155 3.42296,19.5659275 3.3984,19.6194819 C3.37376,19.6731192 3.34464,19.7241036 3.31096,19.7721865 C3.27736,19.8202694 3.2404,19.8603109 3.2,19.8918135 C3.15968,19.923399 3.11824,19.9393161 3.0756,19.9393161 C3.00392,19.9393161 2.95176,19.9145285 2.91936,19.8651192 C2.8868,19.815544 2.87064,19.7247668 2.87064,19.5927876 L2.87064,19.5350052 C2.87064,19.5156891 2.87168,19.4949637 2.87392,19.4731606 C2.87608,19.429057 2.89296,19.346487 2.9244,19.2253679 C2.95576,19.1044145 2.99328,18.9676269 3.03704,18.8149223 C3.08072,18.6622176 3.12784,18.5040415 3.17824,18.3403109 C3.22856,18.1766632 3.274,18.0302591 3.3144,17.9009326 C3.19544,18.0385492 3.06672,18.1753368 2.92776,18.311544 C2.78872,18.4476684 2.6464,18.570114 2.5008,18.678715 C2.35504,18.787399 2.20824,18.8761036 2.0604,18.9449119 C1.91248,19.0136373 1.77016,19.0481244 1.63344,19.0481244 C1.47656,19.0481244 1.34152,19.0123109 1.22824,18.9407668 C1.20784,18.9277513 1.18856,18.9132435 1.16936,18.8988187 L1.62632,23.8636269 C1.74528,24.172601 3.9848,24.9317306 6.9376,24.9317306 C9.89176,24.9317306 12.13216,24.1718549 12.24904,23.8631295 L12.90544,17.9603731 C12.85112,18.0120207 12.79824,18.0625078 12.74768,18.1114197 C12.55936,18.2928912 12.38168,18.4489948 12.21472,18.5796477 C12.04784,18.7103005 11.88472,18.8115233 11.7256,18.8829016 C11.5664,18.9545285 11.39608,18.9902591 11.21456,18.9902591 C11.04424,18.9902591 10.91248,18.9517098 10.81952,18.8746943 C10.72656,18.7977617 10.68,18.6918964 10.68,18.5570155 L10.68,18.5260933 C10.68,18.5164767 10.68112,18.5047047 10.68344,18.490943 C10.69232,18.4085389 10.7272,18.3134508 10.78768,18.2062591 C10.84816,18.0989016 10.92096,17.9875648 11.00608,17.8720829 C11.09128,17.7565181 11.182,17.639544 11.2784,17.5212435 C11.3748,17.4030259 11.46392,17.290943 11.54576,17.1849119 C11.62752,17.0792124 11.69528,16.9822176 11.74904,16.8940933 C11.80296,16.8060518 11.82984,16.7345907 11.82984,16.679544 C11.82984,16.6465492 11.81856,16.6204352 11.79624,16.6010363 C11.77376,16.5819689 11.73672,16.5721865 11.68528,16.5721865 C11.5956,16.5721865 11.50312,16.5963109 11.408,16.6443938 C11.31264,16.6924767 11.2184,16.7573057 11.12544,16.8383834 C11.03248,16.919544 10.94168,17.0124767 10.85312,17.1169326 C10.76472,17.2214715 10.68176,17.3301554 10.6044,17.4428187 C10.52704,17.5557306 10.45656,17.6692228 10.39264,17.7833782 C10.32872,17.8975337 10.2744,18.0027358 10.22952,18.0989016 C10.21608,18.1292435 10.19704,18.1719378 10.17232,18.2268187 C10.14768,18.2818653 10.1208,18.3438756 10.09168,18.412601 C10.06248,18.4814093 10.03168,18.5522902 9.9992,18.6249948 C9.96672,18.6980311 9.93704,18.7668394 9.91016,18.8314197 C9.88328,18.8960829 9.8592,18.9536995 9.838,19.0046839 C9.81656,19.0555026 9.80144,19.0906528 9.79248,19.1099689 C9.78128,19.1346736 9.7628,19.1813472 9.73704,19.2501554 C9.71128,19.3189637 9.68152,19.3994611 9.648,19.4915648 C9.6144,19.5836684 9.57904,19.6806632 9.542,19.7825492 C9.5052,19.8841865 9.47032,19.980601 9.43784,20.0713782 C9.40528,20.1620725 9.37672,20.2419067 9.35216,20.310715 C9.32752,20.3793575 9.31168,20.4261969 9.30496,20.4509845 C9.28264,20.5225285 9.25624,20.5897617 9.22608,20.6532642 C9.19576,20.7164352 9.16112,20.7721451 9.12184,20.8203938 C9.08264,20.8684767 9.03784,20.906943 8.98736,20.9357927 C8.93688,20.9648083 8.88032,20.9791503 8.81768,20.9791503 C8.73688,20.9791503 8.67032,20.9590881 8.61752,20.9192953 C8.56496,20.8794197 8.53856,20.8029845 8.53856,20.6903212 C8.53856,20.6352746 8.54528,20.5789016 8.55872,20.5212021 C8.57216,20.4634197 8.58904,20.4062176 8.6092,20.3499275 C8.62936,20.2933886 8.65016,20.2385078 8.67144,20.1848705 C8.69264,20.1311503 8.71232,20.0796684 8.73016,20.0300933 C8.85128,19.7550259 8.97456,19.4792953 9.1,19.2027358 C9.22544,18.926342 9.34592,18.6526839 9.46144,18.3816788 C9.48544,18.3251399 9.50752,18.2697617 9.53096,18.2135544 C9.52392,18.2206839 9.51704,18.2281451 9.51016,18.2351088 C9.3644,18.3810155 9.21936,18.509513 9.0748,18.6209326 C8.93016,18.7323523 8.78672,18.821057 8.64456,18.8871295 C8.50216,18.9530363 8.36376,18.986114 8.2292,18.986114 C8.13736,18.986114 8.06064,18.9710259 7.99904,18.9407668 C7.93736,18.9104249 7.88816,18.8691399 7.85112,18.8169948 C7.81408,18.7647668 7.78768,18.7028394 7.772,18.6312953 C7.76672,18.6068394 7.76344,18.5813057 7.76,18.5558549 C7.72064,18.5876062 7.68096,18.6185285 7.64096,18.6478756 C7.502,18.749513 7.36528,18.8314197 7.2308,18.8932642 C7.0964,18.9551917 6.97528,18.986114 6.86784,18.986114 C6.76016,18.986114 6.6728,18.9489741 6.60544,18.8746943 C6.53824,18.8004974 6.50472,18.6739067 6.50472,18.495171 C6.50472,18.3684974 6.52264,18.2213472 6.5584,18.0536373 C6.50016,18.1609119 6.42736,18.2695959 6.34,18.3795233 C6.25248,18.4896166 6.1528,18.5900104 6.0408,18.6808705 C5.92856,18.7715648 5.80312,18.8451813 5.66424,18.9015544 C5.5252,18.9579275 5.37392,18.986114 5.2104,18.986114 C5.1364,18.986114 5.06528,18.9764974 4.99688,18.9572642 C4.92848,18.9379482 4.86856,18.9049534 4.81704,18.8581969 C4.76544,18.8115233 4.72408,18.7488497 4.69264,18.6705078 C4.66128,18.5921658 4.6456,18.4936788 4.6456,18.3754611 C4.6456,18.3727254 4.65008,18.3307772 4.65904,18.2495337 C4.668,18.1683731 4.69656,18.040456 4.7448,17.8657824 C4.79296,17.6911917 4.86752,17.4648705 4.96824,17.1869845 C5.0692,16.9091813 5.21152,16.5721865 5.39528,16.1761658 C5.44232,16.071544 5.49672,15.996601 5.55824,15.9512539 C5.62,15.9058238 5.68656,15.8831088 5.75824,15.8831088 C5.78968,15.8831088 5.82216,15.888 5.85576,15.8975337 C5.88952,15.9072332 5.9208,15.9223212 5.95,15.9429637 C5.97904,15.9636062 6.00264,15.9898031 6.02064,16.0213886 C6.0384,16.0529741 6.04752,16.0893679 6.04752,16.1306528 C6.04752,16.1581762 6.04408,16.184456 6.03736,16.2089948 C6.02608,16.256 6.002,16.3170155 5.9652,16.3926218 C5.92816,16.4683938 5.88496,16.5550259 5.8356,16.6526839 C5.7864,16.750342 5.73424,16.855544 5.67936,16.968456 C5.6244,17.0811192 5.57344,17.1980104 5.5264,17.3191295 C5.47936,17.4402487 5.43896,17.5632746 5.40536,17.688456 C5.37176,17.8136373 5.35264,17.9354197 5.34824,18.0536373 C5.34824,18.1031295 5.35936,18.1484767 5.38184,18.1897617 C5.40424,18.2310466 5.44128,18.2516062 5.4928,18.2516062 C5.6384,18.2516062 5.77736,18.2020311 5.90968,18.1031295 C6.04184,18.0040622 6.16392,17.8809534 6.27608,17.7338031 C6.38816,17.5866528 6.48952,17.4283938 6.58032,17.2591917 C6.67112,17.0899896 6.74672,16.9353782 6.8072,16.7950259 C6.84984,16.7015959 6.88736,16.6010363 6.91984,16.4938446 C6.95232,16.386487 6.98768,16.2875855 7.02576,16.1967254 C7.06392,16.1058653 7.10752,16.0302591 7.15688,15.9697409 C7.20608,15.9093057 7.26784,15.8789637 7.34168,15.8789637 C7.42248,15.8789637 7.48624,15.9106321 7.53344,15.973886 C7.58048,16.0372228 7.60392,16.112829 7.60392,16.2007876 C7.60392,16.2502798 7.58888,16.3185078 7.55856,16.4051399 C7.52824,16.491772 7.49016,16.5908394 7.44424,16.7022591 C7.39824,16.8136788 7.3484,16.9326425 7.29472,17.0590674 C7.24096,17.1857409 7.19096,17.3142383 7.1452,17.4449741 C7.09904,17.5756269 7.06112,17.703544 7.0308,17.8287254 C7.00048,17.9538238 6.98544,18.0701347 6.98544,18.1773264 C6.98544,18.2763938 7.03472,18.3259689 7.13328,18.3259689 C7.2028,18.3259689 7.28904,18.3011813 7.39216,18.2516062 C7.49528,18.2020311 7.60344,18.1326425 7.71656,18.0431917 C7.7448,18.0208912 7.77328,17.9975959 7.80152,17.9731399 C7.83312,17.8380933 7.87016,17.7132435 7.91328,17.5997513 C7.99168,17.3850363 8.07128,17.1719793 8.152,16.9601658 C8.23264,16.7483523 8.30656,16.5543627 8.37392,16.3782798 L9.39248,13.7168083 C9.4328,13.6095337 9.4872,13.5338446 9.55544,13.4898238 C9.62392,13.445886 9.6928,13.4238342 9.76232,13.4238342 C9.83168,13.4238342 9.89496,13.4472124 9.95216,13.4939689 C10.00936,13.5408083 10.038,13.6164145 10.038,13.7209534 C10.038,13.7704456 10.0284,13.8227565 10.00936,13.8777202 C9.99032,13.9327668 9.96624,13.9918756 9.93704,14.0551295 C9.88112,14.1845389 9.8144,14.3426321 9.73704,14.529658 C9.65968,14.7167668 9.57672,14.9203731 9.48824,15.1403938 C9.39968,15.3604974 9.30888,15.5894715 9.21592,15.827399 C9.12296,16.0654093 9.03216,16.2971192 8.9436,16.5226943 C8.8552,16.7483523 8.77216,16.9620725 8.6948,17.1643523 C8.61752,17.3665492 8.55096,17.5419689 8.4948,17.6904456 C8.47016,17.7536995 8.44608,17.827399 8.42264,17.9112953 C8.39904,17.9951088 8.38736,18.0701347 8.38736,18.1362073 C8.38736,18.1773264 8.39408,18.2103212 8.40752,18.2351088 C8.42096,18.2598964 8.44672,18.2723316 8.4848,18.2723316 C8.53184,18.2723316 8.59064,18.255171 8.66128,18.2206839 C8.73184,18.1863627 8.808,18.1408497 8.88984,18.0844767 C8.97176,18.0281865 9.05688,17.9635233 9.14528,17.8905699 C9.23392,17.8176995 9.32184,17.7420933 9.4092,17.6636684 C9.49672,17.5851606 9.58016,17.5068187 9.65968,17.4283938 C9.7392,17.3500518 9.81048,17.2778446 9.87328,17.211772 C9.888,17.1959378 9.9056,17.1847461 9.92496,17.1763731 C9.9628,17.0592332 9.99736,16.9444974 10.02784,16.8322487 C10.04576,16.7826736 10.07048,16.7126218 10.10184,16.6217617 C10.13312,16.5309016 10.16904,16.4415337 10.20936,16.3534922 C10.24968,16.2655337 10.2952,16.1890984 10.34544,16.1245181 C10.39592,16.0599378 10.45032,16.0275233 10.50856,16.0275233 C10.59824,16.0275233 10.66328,16.0489119 10.7036,16.0914404 C10.74392,16.1342176 10.76408,16.1967254 10.76408,16.2792953 C10.76408,16.2957927 10.76184,16.3219067 10.75736,16.3576373 C10.7528,16.3934508 10.74736,16.4313368 10.74064,16.4712124 C10.73392,16.5110052 10.72656,16.5488912 10.71872,16.5847047 C10.7108,16.6204352 10.7036,16.6465492 10.69688,16.6630466 C10.77968,16.5694508 10.86936,16.4766839 10.96576,16.3845803 C11.06216,16.2923938 11.16184,16.2089948 11.26496,16.1348808 C11.36816,16.0605181 11.47344,16.0001658 11.58112,15.9531606 C11.68856,15.9065699 11.79624,15.8831088 11.90376,15.8831088 C11.97768,15.8831088 12.05112,15.8941347 12.12392,15.9161865 C12.19672,15.9381554 12.26184,15.970487 12.31888,16.0130984 C12.37608,16.0558756 12.42264,16.1094301 12.4584,16.1740933 C12.49424,16.2386736 12.51216,16.3136166 12.51216,16.3989223 C12.51216,16.5118342 12.4848,16.6321244 12.42984,16.7600415 C12.37496,16.8879585 12.30608,17.0165389 12.22312,17.1456995 C12.14016,17.2751088 12.05048,17.4008705 11.95424,17.5233161 C11.85784,17.6457617 11.76768,17.7570984 11.6836,17.8574922 C11.59952,17.9580518 11.52888,18.0431917 11.47168,18.1133264 C11.41472,18.1836269 11.3848,18.2310466 11.38264,18.2558342 C11.38264,18.288829 11.3928,18.3156062 11.41296,18.3363316 C11.43312,18.3568912 11.46672,18.3672539 11.51376,18.3672539 C11.55184,18.3672539 11.608,18.3452021 11.68184,18.3011813 C11.75576,18.2571606 11.85952,18.1808912 11.9928,18.0722073 C12.12608,17.9635233 12.29544,17.8176995 12.50048,17.6347358 C12.64112,17.5093886 12.80576,17.3599171 12.99128,17.189886 L13.8804,8.65691192 C13.7372,8.73881865 13.58824,8.79021762 13.5004,8.82031088 C13.13256,8.94615544 12.61312,9.05823834 11.95648,9.15324352 L11.95648,9.15324352 Z M6.99792,7.12870466 C3.15403984,7.12870466 0.03792,7.57408338 0.03792,8.12352332 C0.03792,8.67296323 3.15403984,9.11834197 6.99792,9.11834197 C10.8418002,9.11834197 13.95792,8.67296323 13.95792,8.12352332 C13.95792,7.57408338 10.8418002,7.12870466 6.99792,7.12870466 L6.99792,7.12870466 Z M9.77696,8.41425907 C9.77696,8.54317098 9.40664,8.64770984 8.94976,8.64770984 C8.49296,8.64770984 8.12264,8.54317098 8.12264,8.41425907 C8.12264,8.28526425 8.49296,8.18072539 8.94976,8.18072539 C9.40664,8.18072539 9.77696,8.28526425 9.77696,8.41425907 L9.77696,8.41425907 Z" id="Cup"></path>
                                <path d="M8.2901404,8.31104611 C8.28603912,8.31782207 8.28392,8.32474107 8.28392,8.33177202 C8.28392,8.41525389 8.58208,8.48281865 8.94976,8.48281865 C9.31752,8.48281865 9.6156,8.41525389 9.6156,8.33177202 L10.48528,4.67763731 L13.9439237,0.893615665 C13.945053,0.892461186 13.9461453,0.89126645 13.9472,0.890031088 C14.0204,0.804227979 13.87184,0.538694301 13.62536,0.310963731 C13.37888,0.0832331606 13.11272,0.00613471503 13.03,0.0928497409 C13.0293817,0.0934982653 13.0287786,0.0941559511 13.0281906,0.0948227246 L9.338,4.11871503 L8.2901404,8.31104611 L8.2901404,8.31104611 Z" id="Straw"></path>
                            </g>
                        </g>
                    </g>
                </g>
            </g>
        </g>
    </g>
</svg>