<?xml version="1.0" encoding="UTF-8" standalone="no"?>
<svg width="44px" height="44px" viewBox="0 0 44 44" version="1.1" xmlns="http://www.w3.org/2000/svg" xmlns:xlink="http://www.w3.org/1999/xlink">
    <!-- Generator: Sketch 3.6.1 (26313) - http://www.bohemiancoding.com/sketch -->
    <title>html</title>
    <desc>Created with Sketch.</desc>
    <defs>
        <linearGradient x1="100%" y1="12.7747406%" x2="11.7424911%" y2="65.7311425%" id="linearGradient-1">
            <stop stop-color="#3D3D64" offset="0%"></stop>
            <stop stop-color="#88727D" offset="100%"></stop>
        </linearGradient>
    </defs>
    <g id="Page-1" stroke="none" stroke-width="1" fill="none" fill-rule="evenodd">
        <g id="html">
            <circle id="Oval-16" fill="#E8E8E8" cx="22" cy="22" r="22"></circle>
            <g id="fi-page" transform="translate(13.000000, 9.000000)" fill="url(#linearGradient-1)">
                <g id="Layer_1">
                    <path d="M17.7900968,1.91986364 L17.7886452,1.91986364 L17.7886452,0.732136364 C17.7886452,0.449681818 17.5639355,0.221 17.2863871,0.221 L16.5750968,0.221 L16.5750968,0.221 L8.24574194,0.221 L8.24574194,0.221 L7.74348387,0.221 L0.209612903,7.88804545 L0.209612903,8.61102273 L0.209612903,8.91031818 L0.209612903,24.5434091 L0.209612903,25.2663864 C0.209612903,25.5488409 0.434322581,25.7775227 0.711870968,25.7775227 L1.17116129,25.7775227 L16.8270968,25.7775227 L17.2863871,25.7775227 C17.5639355,25.7775227 17.7886452,25.5488409 17.7886452,25.2663864 L17.7886452,24.5431136 L17.7900968,24.5431136 L17.7900968,1.91986364 L17.7900968,1.91986364 Z M3.10035484,22.8362727 L3.10035484,8.91031818 L8.24574194,8.91031818 C8.52329032,8.91031818 8.748,8.68163636 8.748,8.39918182 L8.748,3.16284091 L14.8993548,3.16284091 L14.8993548,22.8362727 L3.10035484,22.8362727 L3.10035484,22.8362727 Z" id="Shape"></path>
                </g>
            </g>
        </g>
    </g>
</svg>