<?xml version="1.0" encoding="UTF-8" standalone="no"?>
<svg width="44px" height="44px" viewBox="0 0 44 44" version="1.1" xmlns="http://www.w3.org/2000/svg" xmlns:xlink="http://www.w3.org/1999/xlink">
    <!-- Generator: Sketch 3.6.1 (26313) - http://www.bohemiancoding.com/sketch -->
    <title>images</title>
    <desc>Created with Sketch.</desc>
    <defs>
        <linearGradient x1="100%" y1="12.7747406%" x2="11.7424911%" y2="65.7311425%" id="linearGradient-1">
            <stop stop-color="#3D3D64" offset="0%"></stop>
            <stop stop-color="#88727D" offset="100%"></stop>
        </linearGradient>
    </defs>
    <g id="Page-1" stroke="none" stroke-width="1" fill="none" fill-rule="evenodd">
        <g id="images">
            <circle id="Oval-16" fill="#E8E8E8" cx="22" cy="22" r="22"></circle>
            <g id="fi-photo" transform="translate(11.000000, 13.000000)" fill="url(#linearGradient-1)">
                <g id="Layer_1">
                    <g id="Group">
                        <path d="M21.7985,1.28378378 C21.7985,0.649594595 21.298,0.135567568 20.6805,0.135567568 C20.6235,0.135567568 20.56875,0.144297297 20.51375,0.15277027 L20.51375,0.128378378 L1.3125,0.128378378 L1.3125,0.135567568 C0.695,0.135567568 0.1945,0.649594595 0.1945,1.28378378 L0.1945,1.28404054 L0.1945,17.7159595 L0.1945,17.7162162 L0.1945,17.716473 L0.1945,17.8445946 L0.207,17.8445946 C0.27,18.4174189 0.73775,18.8644324 1.31225,18.8644324 L1.31225,18.8716216 L20.5135,18.8716216 L20.5135,18.8472297 C20.56825,18.8557027 20.623,18.8644324 20.68025,18.8644324 C21.255,18.8644324 21.72275,18.4176757 21.78575,17.8445946 L21.80525,17.8445946 L21.80525,1.28378378 L21.7985,1.28378378 L21.7985,1.28378378 Z M19.31625,16.3150946 L16.601,16.3150946 C16.5915,16.2752973 16.578,16.2370405 16.5595,16.2016081 L16.564,16.1990405 L10.88425,6.09566216 L10.882,6.09694595 C10.757,5.83325676 10.496,5.65018919 10.191,5.65018919 C9.87825,5.65018919 9.61,5.8425 9.48925,6.11774324 L5.7095,12.8411757 L4.784,11.1951081 L4.78275,11.1958784 C4.71675,11.0567162 4.57925,10.9601757 4.4185,10.9601757 C4.25375,10.9601757 4.1125,11.0615946 4.04875,11.2061486 L2.68375,13.6342973 L2.68375,2.69209459 L19.31625,2.69209459 L19.31625,16.3150946 L19.31625,16.3150946 Z" id="Shape"></path>
                        <ellipse id="Oval" cx="15.5305" cy="6.56886486" rx="2.525" ry="2.59324324"></ellipse>
                    </g>
                </g>
            </g>
        </g>
    </g>
</svg>