<?xml version="1.0" encoding="UTF-8" standalone="no"?>
<svg width="44px" height="44px" viewBox="0 0 44 44" version="1.1" xmlns="http://www.w3.org/2000/svg" xmlns:xlink="http://www.w3.org/1999/xlink">
    <!-- Generator: Sketch 3.6.1 (26313) - http://www.bohemiancoding.com/sketch -->
    <title>sass</title>
    <desc>Created with Sketch.</desc>
    <defs>
        <linearGradient x1="100%" y1="12.7747406%" x2="11.7424911%" y2="65.7311425%" id="linearGradient-1">
            <stop stop-color="#3D3D64" offset="0%"></stop>
            <stop stop-color="#88727D" offset="100%"></stop>
        </linearGradient>
    </defs>
    <g id="Page-1" stroke="none" stroke-width="1" fill="none" fill-rule="evenodd">
        <g id="sass">
            <circle id="Oval-16" fill="#E8E8E8" cx="22" cy="22" r="22"></circle>
            <g id="Sass-Logo---Seal-(Black)---Reversed" transform="translate(12.000000, 9.000000)" fill="url(#linearGradient-1)">
                <path d="M7.21678102,18.6075157 C7.45677372,19.5126297 7.43043796,20.3566715 7.18257664,21.1210574 C7.1550365,21.2059528 7.12468613,21.2899476 7.09176642,21.3729601 C7.05884672,21.4558088 7.02319708,21.537757 6.9849781,21.6186409 C6.79380292,22.0230605 6.53727007,22.4016104 6.22308759,22.7510159 C5.26472263,23.8170791 3.92569343,24.2201889 3.35152555,23.8805255 C2.73151095,23.5140919 3.04208029,22.0110262 4.15324088,20.8134856 C5.34862774,19.5249916 7.06856204,18.6965862 7.06856204,18.6965862 L7.06591241,18.6913468 C7.11545255,18.6641672 7.16579562,18.6361689 7.21678102,18.6075157 L7.21678102,18.6075157 Z M20.8415255,3.38545527 C20.0945693,0.398480607 15.2370657,-0.583424073 10.639708,1.08181881 C7.90375912,2.07297438 4.94186861,3.62843452 2.81220438,5.65945613 C0.280036496,8.07434893 -0.123751825,10.1761849 0.0426934307,11.0544468 C0.629788321,14.1534146 4.79429197,16.1790331 6.50627737,17.681935 L6.50627737,17.6910222 C6.00148175,17.9443985 2.30668613,19.8509014 1.4420219,21.7999748 C0.529664234,23.8562112 1.58727007,25.3317699 2.28741606,25.5303776 C4.45682482,26.1457667 6.683,25.0388522 7.87935036,23.2193731 C9.03386861,21.4635042 8.93775912,19.1961345 8.4360146,18.0682622 C9.12813139,17.8820982 9.9349854,17.7986764 10.9603942,17.920821 C13.8538759,18.2653963 14.4216204,20.1075523 14.3130657,20.8783237 C14.2045912,21.6493408 13.5976642,22.0732446 13.3947664,22.2012017 C13.1917883,22.3292406 13.1298832,22.3735303 13.1469854,22.4686589 C13.1715547,22.607013 13.2654964,22.6018554 13.4385255,22.5719742 C13.6766715,22.5310411 14.9578905,21.9448782 15.0126496,20.5217959 C15.0824234,18.7150062 13.3842482,16.6938904 10.3773942,16.7466941 C9.13905109,16.7684706 8.36037956,16.8885685 7.79793431,17.101994 C7.75634307,17.0536929 7.7140292,17.0056373 7.67027007,16.958073 C5.81135036,14.9358929 2.37493431,13.5054427 2.52066423,10.7869077 C2.57365693,9.79861743 2.91056204,7.19616889 9.12379562,4.03948533 C14.2135036,1.45357378 18.288,2.16515586 18.9921606,3.74222871 C19.9979781,5.99527179 16.814562,10.182898 11.5288613,10.7869077 C9.51505839,11.0171158 8.45472263,10.2212933 8.1909635,9.92493717 C7.91323358,9.61294461 7.87188321,9.5988636 7.76822628,9.65739802 C7.59929197,9.75277229 7.70632117,10.0282525 7.76822628,10.1924763 C7.926,10.6112226 8.57363504,11.353832 9.67772993,11.7232128 C10.6489416,12.0482221 13.0133796,12.2267726 15.8728175,11.099064 C19.0752628,9.83594848 21.5760365,6.32240962 20.8415255,3.38545527 L20.8415255,3.38545527 Z" id="Fill-4"></path>
            </g>
        </g>
    </g>
</svg>