<?xml version="1.0" encoding="UTF-8" standalone="no"?>
<svg width="44px" height="44px" viewBox="0 0 44 44" version="1.1" xmlns="http://www.w3.org/2000/svg" xmlns:xlink="http://www.w3.org/1999/xlink">
    <!-- Generator: Sketch 3.6.1 (26313) - http://www.bohemiancoding.com/sketch -->
    <title>server</title>
    <desc>Created with Sketch.</desc>
    <defs>
        <path id="path-1" d="M19.5934863,14.0025324 L19.5934863,0.00507772021 L0,0.00507772021 L0,14.0025324 L0,27.9999871 L19.5934863,27.9999871 L19.5934863,14.0025324 L19.5934863,14.0025324 Z"></path>
        <linearGradient x1="100%" y1="12.7747406%" x2="11.7424911%" y2="65.7311425%" id="linearGradient-3">
            <stop stop-color="#3D3D64" offset="0%"></stop>
            <stop stop-color="#88727D" offset="100%"></stop>
        </linearGradient>
    </defs>
    <g id="Page-1" stroke="none" stroke-width="1" fill="none" fill-rule="evenodd">
        <g id="server">
            <circle id="Oval-16" fill="#E8E8E8" cx="22" cy="22" r="22"></circle>
            <g id="logo-red" transform="translate(13.000000, 8.000000)">
                <mask id="mask-2" fill="white">
                    <use xlink:href="#path-1"></use>
                </mask>
                <g id="Clip-2"></g>
                <path d="M8.88297557,0.0490362694 L0.232124352,4.28798964 C0.0898593634,4.35769948 0,4.5001658 0,4.65597927 L0,23.3490259 C0,23.5049119 0.0898593634,23.6473782 0.232124352,23.7170881 L8.88297557,27.9560415 C9.16210215,28.0927772 9.49059956,27.8938756 9.49059956,27.5879793 L9.49059956,0.417098446 C9.49059956,0.111202073 9.16210215,-0.0877720207 8.88297557,0.0490362694" id="Fill-1" fill="url(#linearGradient-3)" mask="url(#mask-2)"></path>
                <path d="M10.7105107,27.9560415 L19.361436,23.7170881 C19.503701,23.6473782 19.5934863,23.5049119 19.5934863,23.3490259 L19.5934863,14.2568601 C19.5934863,14.1009741 19.503701,13.9585078 19.361436,13.8887979 L10.7105107,9.64984456 C10.4313842,9.51310881 10.1028868,9.71201036 10.1028868,10.0179067 L10.1028868,27.5879793 C10.1028868,27.8938756 10.4313842,28.0927772 10.7105107,27.9560415" id="Fill-3" fill="url(#linearGradient-3)" mask="url(#mask-2)"></path>
            </g>
        </g>
    </g>
</svg>