<?xml version="1.0" encoding="utf-8"?>
<!-- Generator: Adobe Illustrator 17.0.0, SVG Export Plug-In . SVG Version: 6.00 Build 0)  -->
<!DOCTYPE svg PUBLIC "-//W3C//DTD SVG 1.1//EN" "http://www.w3.org/Graphics/SVG/1.1/DTD/svg11.dtd">
<svg version="1.1" id="Layer_1" xmlns="http://www.w3.org/2000/svg" xmlns:xlink="http://www.w3.org/1999/xlink" x="0px" y="0px"
	 width="1279.066px" height="590.033px" viewBox="0 0 1279.066 590.033" enable-background="new 0 0 1279.066 590.033"
	 xml:space="preserve">
<circle display="none" opacity="0.1" fill="#FFFFFF" stroke="#FFFFFF" stroke-miterlimit="10" enable-background="new    " cx="857.504" cy="348.159" r="89.035"/>
<g opacity="0.7">
	<g>
		<g>
			
				<circle opacity="0.1" fill="#FFFFFF" stroke="#FFFFFF" stroke-miterlimit="10" enable-background="new    " cx="935.158" cy="485.176" r="92.842"/>
			
				<circle opacity="0.1" fill="#FFFFFF" stroke="#FFFFFF" stroke-miterlimit="10" enable-background="new    " cx="935.158" cy="485.175" r="82.797"/>
		</g>
	</g>
	<g>
		<g>
			<g>
				<path fill="#5B5A5D" d="M979.213,535.342c-0.738,2.583-3.455,4.094-6.039,3.356l-98.561-28.142
					c-2.583-0.738-4.094-3.455-3.356-6.039l19.847-69.509c0.738-2.583,3.455-4.094,6.039-3.356l98.561,28.141
					c2.583,0.738,4.094,3.455,3.356,6.039L979.213,535.342L979.213,535.342z"/>
				<path fill="none" stroke="#737F82" stroke-width="0.5" stroke-miterlimit="10" d="M979.213,535.342
					c-0.738,2.583-3.455,4.094-6.039,3.356l-98.561-28.142c-2.583-0.738-4.094-3.455-3.356-6.039l19.847-69.509
					c0.738-2.583,3.455-4.094,6.039-3.356l98.561,28.141c2.583,0.738,4.094,3.455,3.356,6.039L979.213,535.342L979.213,535.342z"/>
			</g>
			
				<rect x="888.847" y="451.169" transform="matrix(-0.9616 -0.2746 0.2746 -0.9616 1701.0006 1208.4003)" fill="#737F82" width="92.464" height="67.947"/>
		</g>
		<path fill="#3F4040" d="M888.832,471.949c-0.342,1.198-1.591,1.891-2.788,1.549l0,0c-1.198-0.342-1.891-1.591-1.549-2.788l0,0
			c0.342-1.198,1.591-1.891,2.788-1.549l0,0C888.48,469.503,889.174,470.75,888.832,471.949L888.832,471.949z"/>
		
			<line fill="none" stroke="#3F4040" stroke-width="2" stroke-linecap="round" stroke-miterlimit="10" x1="984.89" y1="494.685" x2="982.414" y2="503.36"/>
	</g>
	<g>
		<g>
			
				<rect x="899.108" y="454.595" transform="matrix(-0.9616 -0.2746 0.2746 -0.9616 1724.2731 1156.4259)" fill="#8B9799" width="87.939" height="5.863"/>
			
				<rect x="893.507" y="462.735" transform="matrix(-0.9616 -0.2746 0.2746 -0.9616 1707.8988 1193.3752)" fill="#8B9799" width="87.939" height="28.825"/>
			
				<rect x="886.776" y="485.875" transform="matrix(-0.9616 -0.2746 0.2746 -0.9616 1629.9456 1220.6409)" fill="#8B9799" width="27.264" height="20.723"/>
		</g>
		
			<rect x="916.453" y="494.273" transform="matrix(-0.9616 -0.2746 0.2746 -0.9616 1685.8512 1245.2631)" fill="#8B9799" width="27.264" height="20.723"/>
		
			<rect x="945.3" y="502.436" transform="matrix(-0.9616 -0.2746 0.2746 -0.9616 1740.1953 1269.1962)" fill="#8B9799" width="27.264" height="20.723"/>
	</g>
</g>
<g>
	<g>
		
			<circle opacity="0.1" fill="#FFFFFF" stroke="#FFFFFF" stroke-miterlimit="10" enable-background="new    " cx="1076.775" cy="197.687" r="177.332"/>
		
			<circle opacity="0.1" fill="#FFFFFF" stroke="#FFFFFF" stroke-miterlimit="10" enable-background="new    " cx="1076.775" cy="197.687" r="161.471"/>
	</g>
	<g>
		<g>
			<g>
				<path fill="#5B5A5D" stroke="#676767" stroke-miterlimit="10" d="M1173.537,255.078c2.449,5.033,0.334,11.156-4.699,13.605
					l-92.807,45.157c-5.033,2.449-11.156,0.334-13.605-4.699L973.901,127.2c-2.449-5.033-0.334-11.156,4.699-13.605l92.807-45.157
					c5.033-2.449,11.156-0.334,13.605,4.699L1173.537,255.078z"/>
			</g>
			
				<rect x="1023.092" y="118.351" transform="matrix(-0.8992 0.4375 -0.4375 -0.8992 2125.6445 -103.3007)" fill="#737F82" width="103.258" height="149.665"/>
			<path fill="#3F4040" d="M1122.334,273.152c1.893,3.889,0.274,8.577-3.617,10.469l0,0c-3.889,1.892-8.577,0.274-10.469-3.617l0,0
				c-1.893-3.889-0.274-8.577,3.617-10.469l0,0C1115.754,267.643,1120.441,269.262,1122.334,273.152L1122.334,273.152z"/>
			
				<line fill="none" stroke="#3F4040" stroke-width="2" stroke-linecap="round" stroke-miterlimit="10" x1="1020.576" y1="117.714" x2="1048.744" y2="104.008"/>
		</g>
		<g>
			
				<rect x="1021.252" y="143.632" transform="matrix(-0.8992 0.4375 -0.4375 -0.8992 2104.0449 -130.7299)" fill="#B3BBBB" width="91.656" height="66.698"/>
			<g>
				
					<rect x="1046.555" y="227.37" transform="matrix(-0.8992 0.4375 -0.4375 -0.8992 2115.9114 -14.3475)" fill="#B3BBBB" width="26.106" height="18.338"/>
				<g>
					
						<rect x="1072.096" y="206.385" transform="matrix(-0.8992 0.4375 -0.4375 -0.8992 2183.665 -83.3023)" fill="#B3BBBB" width="58.662" height="6.962"/>
					
						<rect x="1077.074" y="216.615" transform="matrix(-0.8992 0.4375 -0.4375 -0.8992 2197.5947 -66.0512)" fill="#B3BBBB" width="58.662" height="6.962"/>
				</g>
			</g>
			<g>
				
					<rect x="1057.625" y="250.121" transform="matrix(-0.8992 0.4375 -0.4375 -0.8992 2146.8884 24.0181)" fill="#B3BBBB" width="26.106" height="18.338"/>
				<g>
					
						<rect x="1083.166" y="229.134" transform="matrix(-0.8992 0.4375 -0.4375 -0.8992 2214.6414 -44.9404)" fill="#B3BBBB" width="58.662" height="6.962"/>
					
						<rect x="1088.142" y="239.364" transform="matrix(-0.8992 0.4375 -0.4375 -0.8992 2228.5684 -27.6873)" fill="#B3BBBB" width="58.662" height="6.962"/>
				</g>
			</g>
			
				<rect x="1001.014" y="131.725" transform="matrix(-0.8992 0.4375 -0.4375 -0.8992 2047.8457 -198.9845)" fill="#B3BBBB" width="91.656" height="9.311"/>
		</g>
	</g>
</g>
<g opacity="0.5">
	
		<circle opacity="0.1" fill="#FFFFFF" stroke="#FFFFFF" stroke-miterlimit="10" enable-background="new    " cx="727.896" cy="436.06" r="39.045"/>
	
		<circle opacity="0.1" fill="#FFFFFF" stroke="#FFFFFF" stroke-miterlimit="10" enable-background="new    " cx="727.896" cy="436.06" r="34.821"/>
	<g>
		<g>
			<path id="Shape_4_" fill="#5B5A5D" stroke="#676767" stroke-miterlimit="10" d="M746.481,421.865
				c-0.005-0.004-0.013-0.005-0.019-0.009c0.307-1.086-0.242-3.781-9.972-7.615c-10.606-4.178-12.246-2.076-12.495-1.215
				c-0.015-0.005-0.029-0.014-0.047-0.015l-14.696,37.391l0.016-0.001c-0.33,0.958,0.042,3.542,10.032,7.477
				c10.774,4.245,12.367,1.829,12.6,0.936L746.481,421.865L746.481,421.865L746.481,421.865L746.481,421.865z"/>
			
				<rect id="Rectangle_21_" x="717.182" y="418.166" transform="matrix(0.9304 0.3665 -0.3665 0.9304 210.3755 -236.4865)" fill="#3F4040" width="21.604" height="35.246"/>
			
				<rect id="Rectangle_20_" x="717.391" y="419.342" transform="matrix(0.9304 0.3665 -0.3665 0.9304 210.1961 -236.5999)" fill="#737F82" width="21.604" height="31.835"/>
			
				<rect id="Rectangle_19_" x="722.599" y="420.333" transform="matrix(0.9304 0.3665 -0.3665 0.9304 205.713 -239.4286)" fill="#8B9799" width="21.604" height="3.41"/>
			
				<rect id="Rectangle_18_" x="712.793" y="447.281" transform="matrix(0.9304 0.3665 -0.3665 0.9304 214.1054 -230.8735)" fill="#5B5A5D" width="4.548" height="2.274"/>
			
				<rect id="Rectangle_17_" x="719.139" y="449.783" transform="matrix(0.9304 0.3665 -0.3665 0.9304 215.4641 -233.0255)" fill="#5B5A5D" width="4.548" height="2.274"/>
			
				<rect id="Rectangle_15_" x="725.486" y="452.282" transform="matrix(0.9304 0.3665 -0.3665 0.9304 216.8215 -235.1779)" fill="#5B5A5D" width="4.548" height="2.274"/>
		</g>
	</g>
</g>
<g opacity="0.9">
	
		<circle opacity="0.1" fill="#FFFFFF" stroke="#FFFFFF" stroke-miterlimit="10" enable-background="new    " cx="125.686" cy="472.811" r="93.778"/>
	
		<circle opacity="0.1" fill="#FFFFFF" stroke="#FFFFFF" stroke-miterlimit="10" enable-background="new    " cx="125.686" cy="472.811" r="83.632"/>
	<g>
		<g>
			<path id="Shape_1_" fill="#5B5A5D" stroke="#676767" stroke-miterlimit="10" d="M130.073,416.811
				c-0.016,0.002-0.031,0.015-0.046,0.019c-1.451-2.29-7.153-5.625-29.602,5.639c-24.469,12.281-23.339,18.581-22.195,20.41
				c-0.033,0.019-0.072,0.031-0.101,0.059l43.342,86.21l0.022-0.031c1.184,2.125,6.403,5.601,29.454-5.967
				c24.86-12.474,23.091-19.192,21.865-21.042L130.073,416.811L130.073,416.811L130.073,416.811L130.073,416.811z"/>
			
				<rect id="Rectangle_13_" x="99.403" y="429.891" transform="matrix(0.8938 -0.4485 0.4485 0.8938 -198.487 106.3852)" fill="#3F4040" width="51.892" height="84.663"/>
			
				<rect id="Rectangle_12_" x="98.788" y="432.768" transform="matrix(0.8938 -0.4485 0.4485 0.8938 -198.0049 105.9801)" fill="#737F82" width="51.892" height="76.469"/>
			
				<rect id="Rectangle_11_" x="83.483" y="436.4" transform="matrix(0.8938 -0.4485 0.4485 0.8938 -185.9478 95.8745)" fill="#8B9799" width="51.892" height="8.192"/>
			
				<rect id="Rectangle_10_" x="121.782" y="512.84" transform="matrix(0.8938 -0.4485 0.4485 0.8938 -217.728 111.8397)" fill="#5B5A5D" width="10.922" height="5.46"/>
			
				<rect id="Rectangle_9_" x="136.428" y="505.495" transform="matrix(0.8938 -0.4485 0.4485 0.8938 -212.8778 117.6284)" fill="#5B5A5D" width="10.922" height="5.46"/>
			
				<rect id="Rectangle_1_" x="151.069" y="498.142" transform="matrix(0.8938 -0.4485 0.4485 0.8938 -208.0245 123.4142)" fill="#5B5A5D" width="10.922" height="5.46"/>
		</g>
	</g>
</g>
<g opacity="0.4">
	<g>
		
			<circle opacity="0.1" fill="#FFFFFF" stroke="#FFFFFF" stroke-miterlimit="10" enable-background="new    " cx="808.094" cy="303.277" r="60.813"/>
		
			<circle opacity="0.1" fill="#FFFFFF" stroke="#FFFFFF" stroke-miterlimit="10" enable-background="new    " cx="808.094" cy="303.277" r="55.372"/>
	</g>
	<g>
		<g>
			<g>
				<path fill="#5B5A5D" stroke="#676767" stroke-miterlimit="10" d="M838.4,327.15c0.606,1.822-0.39,3.808-2.21,4.414
					l-33.585,11.168c-1.822,0.606-3.808-0.39-4.414-2.21L776.3,274.681c-0.606-1.822,0.39-3.808,2.21-4.414l33.585-11.168
					c1.822-0.606,3.809,0.39,4.414,2.21L838.4,327.15z"/>
			</g>
			
				<rect x="789.894" y="275.989" transform="matrix(-0.9489 0.3155 -0.3155 -0.9489 1669.1199 333.0938)" fill="#737F82" width="35.409" height="51.326"/>
			<path fill="#3F4040" d="M820.179,330.987c0.468,1.406-0.294,2.927-1.7,3.395l0,0c-1.406,0.468-2.927-0.294-3.395-1.7l0,0
				c-0.468-1.406,0.294-2.927,1.7-3.395l0,0C818.19,328.816,819.711,329.578,820.179,330.987L820.179,330.987z"/>
			
				<line fill="none" stroke="#3F4040" stroke-width="2" stroke-linecap="round" stroke-miterlimit="10" x1="792.595" y1="273.556" x2="802.788" y2="270.168"/>
		</g>
		<g>
			
				<rect x="790.016" y="284.365" transform="matrix(-0.9489 0.3155 -0.3155 -0.9489 1663.6371 322.2801)" fill="#8B9799" width="31.431" height="22.874"/>
			<g>
				
					<rect x="796.029" y="312.568" transform="matrix(-0.9489 0.3155 -0.3155 -0.9489 1659.7323 362.7325)" fill="#8B9799" width="8.953" height="6.288"/>
				<g>
					
						<rect x="805.863" y="307.338" transform="matrix(-0.9489 0.3155 -0.3155 -0.9489 1687.5131 343.8741)" fill="#8B9799" width="20.118" height="2.386"/>
					
						<rect x="807.095" y="311.04" transform="matrix(-0.9489 0.3155 -0.3155 -0.9489 1691.0818 350.6999)" fill="#8B9799" width="20.118" height="2.386"/>
				</g>
			</g>
			<g>
				
					<rect x="798.766" y="320.8" transform="matrix(-0.9489 0.3155 -0.3155 -0.9489 1667.6649 377.9139)" fill="#8B9799" width="8.953" height="6.288"/>
				<g>
					
						<rect x="808.6" y="315.571" transform="matrix(-0.9489 0.3155 -0.3155 -0.9489 1695.4448 359.0553)" fill="#8B9799" width="20.118" height="2.386"/>
					
						<rect x="809.832" y="319.273" transform="matrix(-0.9489 0.3155 -0.3155 -0.9489 1699.014 365.8816)" fill="#8B9799" width="20.118" height="2.386"/>
				</g>
			</g>
			
				<rect x="784.965" y="279.491" transform="matrix(-0.9489 0.3155 -0.3155 -0.9489 1649.1499 295.1964)" fill="#8B9799" width="31.431" height="3.192"/>
		</g>
	</g>
</g>
</svg>
