<?xml version="1.0" encoding="utf-8"?>
<!-- Generator: Adobe Illustrator 17.0.0, SVG Export Plug-In . SVG Version: 6.00 Build 0)  -->
<!DOCTYPE svg PUBLIC "-//W3C//DTD SVG 1.1//EN" "http://www.w3.org/Graphics/SVG/1.1/DTD/svg11.dtd">
<svg version="1.1" id="Layer_1" xmlns="http://www.w3.org/2000/svg" xmlns:xlink="http://www.w3.org/1999/xlink" x="0px" y="0px"
	 viewBox="0 0 1264 736" enable-background="new 0 0 1264 736" xml:space="preserve">
<ellipse opacity="0.5" fill="#CCCCCC" enable-background="new    " cx="629.816" cy="651.467" rx="614.06" ry="58.533"/>
<rect x="1070.156" y="380.563" fill="#CCCCCC" width="19.304" height="4.64"/>
<rect x="1070.156" y="374.578" fill="#CCCCCC" width="19.304" height="4.64"/>
<rect x="1070.156" y="368.592" fill="#CCCCCC" width="19.304" height="4.64"/>
<g>
	<rect x="443.421" y="105.448" fill="#FFFFFF" width="127.992" height="95.272"/>
	<rect x="443.421" y="218.347" fill="#FFFFFF" width="127.992" height="95.272"/>
	<rect x="477.331" y="345.883" fill="#FFFFFF" width="249.794" height="168.816"/>
	<rect x="606.226" y="105.448" fill="#FFFFFF" width="294.172" height="207.815"/>
	<rect x="759.998" y="346.212" fill="#FFFFFF" width="95.272" height="168.487"/>
	<rect x="932.266" y="203.309" fill="#FFFFFF" width="170.556" height="126.955"/>
	<rect x="932.266" y="353.752" fill="#FFFFFF" width="170.556" height="126.955"/>
	<path fill="#1A9ABD" d="M900.398,313.263H606.226V105.448h294.172L900.398,313.263L900.398,313.263z M890.37,114.439H616.253
		v188.796H890.37V114.439z"/>
	<path fill="#29A6C9" d="M443.421,200.72v-95.272h127.992v95.272H443.421z M564.728,194.036v-81.901H450.107v81.901H564.728z"/>
	<path fill="#29A6C9" d="M727.125,514.698H477.331V345.883h249.794V514.698z M709.854,362.596H494.046v135.387h215.81V362.596
		H709.854z"/>
	<path fill="#1A9ABD" d="M759.998,346.212h95.272v168.487h-95.272V346.212z M770.371,504.191h74.869V356.095h-74.869V504.191z"/>
	<path fill="#1A9ABD" d="M443.421,313.619v-95.272h127.992v95.272C571.412,313.619,443.421,313.619,443.421,313.619z
		 M564.728,306.932v-81.899H450.107v81.901h114.621V306.932z"/>
	<rect x="627.397" y="121.606" fill="#CCCCCC" width="51.257" height="28.135"/>
	<rect x="627.397" y="156.427" fill="#CCCCCC" width="252.943" height="95.55"/>
	<rect x="627.397" y="257.828" fill="#CCCCCC" width="59.07" height="45.408"/>
	<rect x="691.768" y="257.828" fill="#CCCCCC" width="59.07" height="45.408"/>
	<rect x="756.898" y="257.828" fill="#CCCCCC" width="59.07" height="45.408"/>
	<rect x="821.271" y="257.828" fill="#CCCCCC" width="59.07" height="45.408"/>
	<rect x="756.898" y="141.663" fill="#CCCCCC" width="35.759" height="8.078"/>
	<rect x="800.74" y="141.663" fill="#CCCCCC" width="35.759" height="8.078"/>
	<rect x="844.581" y="141.663" fill="#CCCCCC" width="35.759" height="8.078"/>
	<rect x="777.808" y="362.367" fill="#CCCCCC" width="24.12" height="11.564"/>
	<rect x="776.645" y="379.164" fill="#CCCCCC" width="62.333" height="69.833"/>
	<rect x="826.668" y="370.7" fill="#CCCCCC" width="12.061" height="3.231"/>
	<rect x="826.668" y="366.534" fill="#CCCCCC" width="12.061" height="3.231"/>
	<rect x="826.668" y="362.367" fill="#CCCCCC" width="12.061" height="3.231"/>
	<rect x="776.645" y="452.894" fill="#CCCCCC" width="29.612" height="30.665"/>
	<rect x="809.367" y="452.894" fill="#CCCCCC" width="29.612" height="30.665"/>
	<rect x="776.645" y="496.508" fill="#CCCCCC" width="62.084" height="3.231"/>
	<rect x="776.645" y="492.342" fill="#CCCCCC" width="62.084" height="3.231"/>
	<rect x="776.645" y="488.175" fill="#CCCCCC" width="62.084" height="3.231"/>
	<rect x="591.74" y="367.969" fill="#CCCCCC" width="28.971" height="12.465"/>
	<rect x="504.075" y="384.907" fill="#CCCCCC" width="195.752" height="75.285"/>
	<rect x="504.075" y="477.534" fill="#CCCCCC" width="74.57" height="3.482"/>
	<rect x="504.075" y="472.432" fill="#CCCCCC" width="74.57" height="3.482"/>
	<rect x="504.075" y="467.33" fill="#CCCCCC" width="74.57" height="3.482"/>
	<rect x="584.167" y="466.876" fill="#CCCCCC" width="72.766" height="31.081"/>
	<rect x="664.214" y="466.876" fill="#CCCCCC" width="35.567" height="31.081"/>
	<rect x="504.075" y="492.843" fill="#CCCCCC" width="74.57" height="3.482"/>
	<rect x="504.075" y="487.741" fill="#CCCCCC" width="74.57" height="3.482"/>
	<rect x="504.075" y="482.636" fill="#CCCCCC" width="74.57" height="3.482"/>
	<rect x="452.905" y="229.483" fill="#CCCCCC" width="26.326" height="12.466"/>
	<rect x="453.313" y="246.917" fill="#CCCCCC" width="52.486" height="56.318"/>
	<rect x="509.034" y="246.917" fill="#CCCCCC" width="52.486" height="56.318"/>
	<rect x="546.899" y="238.466" fill="#CCCCCC" width="14.486" height="3.482"/>
	<rect x="546.899" y="233.975" fill="#CCCCCC" width="14.486" height="3.482"/>
	<rect x="546.899" y="229.483" fill="#CCCCCC" width="14.486" height="3.482"/>
	<rect x="452.986" y="125.785" fill="#CCCCCC" width="108.533" height="38.722"/>
	<rect x="452.612" y="167.849" fill="#CCCCCC" width="34.117" height="26.186"/>
	<rect x="489.789" y="167.849" fill="#CCCCCC" width="34.117" height="26.186"/>
	<rect x="527.405" y="167.849" fill="#CCCCCC" width="34.117" height="26.186"/>
	<rect x="491.315" y="115.787" fill="#CCCCCC" width="32.591" height="6.654"/>
	<path fill="#29A6C9" d="M932.266,330.264V203.309h170.556v126.955H932.266z M1093.914,321.357V212.219H941.176v109.138H1093.914z"
		/>
	<path fill="#1A9ABD" d="M932.266,480.707V353.752h170.556v126.955C1102.821,480.708,932.266,480.708,932.266,480.707z
		 M1093.914,471.797V362.662H941.176V471.8h152.738V471.797z"/>
	<rect x="944.904" y="368.592" fill="#CCCCCC" width="35.081" height="16.611"/>
	<rect x="945.448" y="391.824" fill="#CCCCCC" width="69.94" height="75.047"/>
	<rect x="1019.698" y="391.824" fill="#CCCCCC" width="69.94" height="75.047"/>
	<rect x="945.012" y="230.41" fill="#CCCCCC" width="144.627" height="51.599"/>
	<rect x="944.513" y="286.462" fill="#CCCCCC" width="45.462" height="34.895"/>
	<rect x="994.054" y="286.462" fill="#CCCCCC" width="45.462" height="34.895"/>
	<rect x="1044.179" y="286.462" fill="#CCCCCC" width="45.462" height="34.895"/>
	<rect x="996.087" y="217.086" fill="#CCCCCC" width="43.429" height="8.867"/>
</g>
<g>
	<path fill="#EAF6FD" d="M601.019,568.708c0.598,0.105,1.171,0.212,1.674,0.319c-0.459-0.797-0.927-1.59-1.406-2.376
		c-2.223-2.29-4.537-5.423-6.284-7.966c-2.743-6.176-7.289-13.5-15.613-18.811c2.006-0.286,4.289-0.468,4.289-0.468
		c-9.727-5.041-17.944-6.428-23.009-6.734c0.574-1.546,3.445-3.376,3.445-3.376c-6.886,0.27-21.023,3.094-27.493,4.451
		c-8.524,1.252-18.266,3.624-29.407,7.409c0.042-2.134,1.597-5.081,1.597-5.081c-10.378,4.061-25.7,13.7-30.253,16.626
		c-1.608,0.739-3.238,1.498-4.891,2.284c0,0-30.684-0.714-19.98,24.975c10.704,25.689,24.262,50.665,24.262,50.665l14.511-9.157
		c0,0,29.909-31.161,85.391-37.94l-1.427-4.995l14.272-1.07l-2.854-8.563l7.816-0.521
		C597.47,568.394,599.375,568.539,601.019,568.708z"/>
	<path fill="#4E4D50" d="M453.37,230.761c34.095-3.802,57.059-30.448,57.059-30.448s3.716,23.574-12.302,45.159
		c-11.302,15.222-31.689,22.297-42.736,25.149C455.524,257.287,455.211,243.952,453.37,230.761z"/>
	<path fill="#737F83" d="M453.37,230.761c34.095-3.802,57.059-30.448,57.059-30.448s-11.874,40.573-55.339,49.667
		C454.791,243.549,454.259,237.138,453.37,230.761z"/>
	<path fill="#EAF6FD" d="M492.92,191.085c-5.462,0.434-10.07,2.181-12.109,3.066c8.378-19.079,15.161-29.752,15.161-29.752
		c-6.592-4.661-17.275-5.894-28.134-5.599c-1.231-14.446,4.164-23.999,4.164-23.999c-15.699,0.476-43.29,9.99-43.29,9.99
		c0-8.563,5.709-19.504,5.709-19.504c-3.863,0-7.576,2.229-10.18,4.275l-2.665-15.693l-18.078,11.893
		c1.625-14.203,7.611-22.835,7.611-22.835c-45.669,4.757-63.746,17.602-63.746,17.602c-10.897-8.843-2.854-31.398-2.854-31.398
		c-47.573,27.116-66.822,69.63-66.822,69.63c-2.279-6.999-8.818-27.766-8.818-27.766s-16.52,24.281-26.287,58.575
		c-3.346,11.753-10.291,90.713-9.583,108.535c0,0-7.232-1.072-14.518,1.238c0,0,13.408,11.729,15.902,17.934
		c0.806,2,1.016,6.394,0.829,13.626c-0.079,0.005-0.158,0.01-0.238,0.014c2.854,75.997-15.239,204.777,37.044,240.548
		c20.46,13.999,44.106,24.443,61.11,28.276l-7.649,5.55c84.06,18.465,115.31-23.001,123.828-33.575
		c3.26-3.774,4.422-6.99,4.422-6.99c1.711,3.264-0.336,10.19-0.336,10.19c2.849-1.762,16.216-11.04,21.497-19.699
		c5.281-8.661,6.723-28.985,6.723-28.985c3.015,1.392,5.336,7.058,5.336,7.058s2.848-7.263,2.767-17.09
		c-0.081-9.826-5.796-27.909-6.736-31.119c-0.941-3.21-2.477-8.949-0.871-13.286c1.252-3.384,4.572-13.265,4.572-13.265
		s-7.647,5.451-9.748,2.16c-2.1-3.292-5.405-17.144-5.405-17.144c6.219,0.049,7.136-0.952,7.136-0.952
		c0.884,0.662-12.702-12.956-17.603-27.116c-2.063-5.958-2.854-31.398-2.854-31.398c5.233,3.33,11.894-0.475,11.894-0.475
		c-2.626-1.365-11.137-10.762-13.321-19.029c-1.261-4.774-2.723-22.586-5.431-37.123c0.217-9.589,1.466-30.164,8.286-36.614
		c0,0-3.263,1.125-6.153,2.989c3.608-28.318,10.33-56.513,17.845-76.434C479.119,202.541,492.92,191.085,492.92,191.085z"/>
	<path fill="#A0D5E9" d="M232.239,400.255c0,0-17.997-1.435-19.743,3.806c-2.141,6.422-7.849,39.961-13.558,45.669l9.277-1.427
		l-3.925,29.614c0,0-1.069,2.498-3.568,5.352c0,0-14.985-3.568-18.553,5.709c-3.568,9.277-1.784,11.417-1.784,11.417
		s-3.211-1.784-4.638-3.568s-1.427-1.784-1.427-1.784s-0.357,33.182,23.192,44.242l-3.925,0.714c0,0,4.995,1.784,10.704,1.784
		c0,0,18.91,13.558,28.543,14.985s20.337-3.925,23.548-19.98"/>
	<path fill="#91CADB" d="M232.239,400.255c0,0-0.686-0.054-1.794-0.103c-0.569,2.021-0.953,4.08-1.498,6.257
		c-0.898,3.59-1.742,7.194-2.482,10.821c-1.663,8.16-3.001,16.387-3.96,24.662c-0.372,3.208-0.691,6.422-0.978,9.639
		c-0.636,12.393-0.556,24.833,0.658,37.185c2.294,23.369,7.902,46.318,16.823,67.99c7.65-1.275,14.842-7.26,17.373-19.918
		L232.239,400.255z"/>
	<g>
		<path fill="#B2E1EE" d="M463.439,471.137c0.022,0.015,0.032-0.007,0.032-0.06C463.409,471.083,463.382,471.098,463.439,471.137z"
			/>
	</g>
	<path fill="#A0D5E9" d="M371.486,304.245c0,0-6.996-21.971-30.603-11.137c0,0,9.606-15.039,23.986-7.5
		C379.252,293.148,371.486,304.245,371.486,304.245z"/>
	<path fill="#A0D5E9" d="M374.535,282.623c0,0-4.626-13.619-17.228-9.68c0,0,6.065-8.557,14.307-3.612
		C379.855,274.276,374.535,282.623,374.535,282.623z"/>
	<path fill="#CDEAF5" d="M322.388,425.468c54.879,15.093,53.75,18.153,77.067,31.755c0,0,16.769-14.272,26.046-16.412l3.568-12.845
		l7.136,3.211c0,0,2.081-19.088,23.132-26.581l1.725,10.882c0,0-20.576,69.218-69.456,66.007
		C342.725,478.273,322.388,425.468,322.388,425.468z"/>
	<path fill="#A0D5E9" d="M406.347,323.094c0,0,10.832-10.815,25.001-3.637c0,0-5.225-10.475-17.297-7.321
		C401.975,315.291,406.347,323.094,406.347,323.094z"/>
	<path fill="#A0D5E9" d="M406.569,306.466c0,0,5.332-9.991,14.62-5.324c0,0-3.621-7.421-10.655-4.63
		C403.501,299.303,406.569,306.466,406.569,306.466z"/>
	<path fill="#B1DFF0" d="M414.744,420.636c0,0-10.41-4.57-16.047-4.443c0,0,0.923,11.993-3.479,18.776
		c0,0-13.663-8.482-25.424-7.143c0,0-1.838,6.998-6.28,10.27l0.042,0.07c-1.561,1.415-3.515,2.911-5.518,3.75
		c0,0-0.916-0.357-2.234-1.109c-0.318,2.719-0.797,5.422-1.201,8.135c1.682,2.1,3.734,4.031,6.237,5.521
		c0,0,6.797-4.977,11.119-11.764c1.33-1.861,2.677-3.989,3.224-5.621c0,0,19.437,9.095,21.317,15.937
		c0,0,10.262-14.373,12.824-24.486c0,0,8.778,1.126,11.387,2.401c0,0,4.711-12.12,4.293-22.217
		C425.002,408.713,418.354,417.826,414.744,420.636z"/>
	<path fill="#CDEAF5" d="M333.018,636.306l-4.208-0.546c-15.494-2.488-25.725-5.994-41.375-6.821
		c-16.768-0.886-33.056-1.73-49.777-2.169c-0.463,2.287-1.027,4.551-1.686,6.79c-0.078,1.186-0.159,1.93-0.159,1.93l-4.642,16.525
		c-1.379,1.933-4.046,5.225-6.544,5.724c0,0,2.142,2.67,4.571,1.299l-0.491,1.745c0,0-2.691,13.537,7.182,14.981l27.522,4.026
		c1.604,0.234,2.57,0.376,2.57,0.376l29.621,4.333l0.62-4.679l16.889,3.162l3.39-6.383l25.629,3.673
		C348.343,650.367,342.195,638.841,333.018,636.306z"/>
	<path fill="#4E4D50" d="M377.89,402.183c0.711-0.086-17.812-0.294-35.817-2.532c0,0-0.661-3.533-1.879-5.549
		c0,0-0.212,5.828-1.94,6.872c0,0,8.725,4.358,17.842,5.139c0,0-9.787-2.538-12.967-4.548
		C343.129,401.564,361.167,404.179,377.89,402.183z"/>
	
		<ellipse transform="matrix(-0.9954 -0.0955 0.0955 -0.9954 654.9909 750.6208)" fill="#CDEAF5" cx="345.457" cy="359.637" rx="15.462" ry="19.57"/>
	
		<ellipse transform="matrix(-0.9954 -0.0955 0.0955 -0.9954 810.2035 749.6396)" fill="#CDEAF5" cx="423.041" cy="355.431" rx="15.462" ry="19.568"/>
	
		<ellipse transform="matrix(-0.9954 -0.0955 0.0955 -0.9954 659.3582 740.3351)" fill="#FFFFFF" cx="347.393" cy="354.392" rx="15.224" ry="19.266"/>
	<path fill="#EAF6FD" d="M346.722,669.801c0.167-2.899,0.235-6.148,0.078-9.463l1.99,1.327c-0.333-6.322-3.455-12.638-3.876-13.462
		c-1.975-6.562-5.723-11.784-12.537-12.78l2.141-2.712c-6.422-2.372-9.633-4.068-20.694-3.052
		c23.548-5.762,44.482-23.725,44.482-23.725l-38.535-14.331c-11.893,15.817-62.32,39.898-62.32,39.898s1.429,0,18.079,0
		s25.926,8.908,25.926,8.908l0.1-0.492c1.179,0.92,5.214,4.455,7.847,12.462c0.256,1.845,1.718,13.208-0.574,16.812l2.937-0.751
		c0.018,4.177-0.325,8.88-1.189,14.209l11.989,1.71c0,0,2.506-16.371,0.675-29.812l3.25,0.519
		c-1.061-6.597-5.455-11.694-8.326-14.405c-0.758-0.87-1.6-1.616-2.556-2.17c0,0,24.262,0.329,19.681,40.837l4.164,0.608
		l10.531,1.94c-0.223-0.683-0.41-1.373-0.539-2.075C347.862,676.731,346.969,671.606,346.722,669.801z M309.496,652.594
		c0.645,2.011,1.203,4.286,1.603,6.868L309.496,652.594z"/>
	
		<ellipse transform="matrix(-0.9954 -0.0955 0.0955 -0.9954 812.1714 739.3667)" fill="#FFFFFF" cx="423.777" cy="350.25" rx="15.224" ry="19.267"/>
	<path fill="#4E4D50" d="M416.305,340.988c-0.166,0.458-0.297,0.942-0.347,1.462c-0.259,2.701,1.292,5.058,3.463,5.266
		c1.928,0.185,3.692-1.392,4.244-3.639c1.082,1.742,1.635,4.001,1.404,6.415c-0.48,5.004-4.13,8.744-8.151,8.358
		c-4.019-0.385-6.891-4.752-6.411-9.755C410.891,345.097,413.299,341.912,416.305,340.988z"/>
	<path fill="#CDEAF5" d="M271.249,526.797c8.563,6.661,10.941,3.806,10.941,3.806c-27.875-40.927-29.776-115.859-28.898-151.851
		c2.792-22.631,10.321-47.994,15.966-69.128c11.026-29.998,23.396-41.145,23.396-41.145l-7.999-3.199
		c8.261-16.558,17.228-29.915,17.228-29.915c-5.355-0.487-14.603,0-14.603,0c0-7.302,8.762-29.206,8.762-29.206
		c-9.863,0.789-29.314,5.415-36.334,7.14c2.76-24.323,5.427-36.87,5.427-36.87c-1.291,8.514,8.475,19.97,8.475,19.97
		c12.746-36.013,57.101-73.967,73.752-75.87c-10.467-10.941-2.854-31.398-2.854-31.398c-47.573,23.786-66.822,69.63-66.822,69.63
		c-2.279-6.999-8.818-30.62-8.818-30.62s-16.52,27.135-26.287,61.429c-3.346,11.753-10.291,90.713-9.583,108.535
		c0,0-7.232-1.072-14.518,1.238c0,0,6.33,5.538,11.101,11.016c1.629,7.726,1.111,19.845,1.111,19.845
		c-2.141-3.925-14.272-8.206-14.272-8.206c4.638,5.352,9.633,23.548,9.633,23.548l-9.908-0.357l14.354,26.165v78.07
		c0,4.286-2.979,11.218-5.553,13.15l6.586-1.475c0.793,35.099,7.981,60.079,15.521,77.007c0.67,2.536,2.707,10.191,2.707,12.952
		c0,2.666,2.172-0.459,3.023-1.812c7.391,12.957,13.91,18.463,13.91,18.463c-10.465-5.709-23.077-1.427-23.077-1.427
		c3.805,1.427,3.781,6.659,3.781,6.659s-14.328-3.33-12.427,7.613c0.145,0.831,0.273,1.845,0.387,2.994
		c0.702,1.891,0.998,3.901,1.194,5.932c0.471,1.458,0.768,2.97,0.987,4.315c0.794,4.891,1.498,9.923,1.653,14.874
		c0.247,7.96-0.712,15.737-2.753,23.246l21.012-0.934c16.16-3.571,29.265-10.556,39.222-17.702c0.675,1.966,1.452,4.143,1.452,4.143
		c9.477-8.056,15.49-17.155,18.461-22.364c2.112-2.492,3.185-4.039,3.185-4.039C293.131,575.321,271.249,526.797,271.249,526.797z"
		/>
	<path fill="#4E4D50" d="M289.89,348.516c0,0,6.552-1.938,12.992-3.153c1.811,11.196,4.934,25.543,4.934,25.543l0.06,0.445
		c0.219,0.719,0.421,1.42,0.642,2.181c1.642,5.619,3.148,8.893,8.592,10.614c5.348,1.695,17.845,2.861,30.389,2.833
		c4.663-0.01,9.926-0.579,15.222-1.642c7.855-1.583,14.902-4.1,17.529-6.27c3.823-3.156,5.555-10.674,6.701-15.649l0.344-1.467
		c0.407-1.695,0.746-3.475,1.075-5.199c0.47-2.475,0.955-5.031,1.438-5.93c0.088-0.16,0.506-0.71,2.233-1.059
		c1.197-0.239,2.72-0.326,4.531-0.255c1.364,0.055,1.367,0.055,1.762,1.362c0.153,0.502,0.309,0.999,0.523,1.521
		c0.079,0.209,0.372,1.416,0.571,2.233c1.391,5.809,4.296,17.898,9.621,21.128c5.661,3.434,12.109,4.895,29.88,2.798
		c2.484-0.293,4.782-0.642,6.785-1.045c10.63-2.137,13.618-5.578,14.762-10.1c1.327-5.309,2.195-14.114,2.227-14.488
		c0.156-1.856,0.61-2.84,1.691-3.638c1.505-1.103,3.493-2.433,3.472-5.15l-0.353-6.413c-0.162-2.046-0.394-3.943-1.436-5.316
		c-0.647-0.854-1.519-1.358-2.668-1.543c-4.755-0.763-14.858-1.984-29.069-1.601c-6.241,0.164-12.244,0.843-18.344,2.07
		c-5.615,1.128-10.065,2.474-13.647,3.555c-0.714,0.214-1.381,0.415-2.004,0.599c-2.008,0.592-3.303,0.953-4.4,1.176
		c-2.148,0.431-3.597,0.311-7.475-0.009l-1.89-0.153c-1.732-0.135-4.004-0.381-6.898-0.691c-9.691-1.04-25.913-2.781-44.736-2.737
		c-14.464,0.039-26.417,1.825-33.249,3.201c0,0-7.296,1.33-13.437,4.325L289.89,348.516z M418.608,339.319
		c0.369-0.074,0.743-0.146,1.126-0.217l0.812-0.146c4.641-0.851,16.973-3.118,25.628-3.001c4.447,0.058,9.154,0.288,10.344,1.566
		c0.093,0.1,0.311,0.332,0.396,1.162c0.414,4.009-1.052,24.484-2.104,26.321c-1.222,2.123-6.258,5.365-16.258,6.818
		c-10.537,1.521-20.478,1.174-23.649-0.02c-2.651-0.999-3.451-1.302-5.741-8.421c-2.105-6.555-3.1-11.715-3.13-16.24
		C406.015,343.73,410.484,340.956,418.608,339.319z M313.571,343.87c0.465-0.148,1.222-0.331,2.244-0.538
		c6.53-1.314,20.868-3.033,27.674-3.1c8.617-0.075,29.759,1.76,34.602,3.625c3.6,1.384,3.509,2.764,3.324,5.516l-0.011,0.134
		c-0.174,2.604-1.171,15.824-3.698,20.445c-2.449,4.464-3.339,5.592-11.598,7.451c-0.354,0.078-0.723,0.155-1.109,0.232
		c-8.921,1.797-25.327,2.91-34.606,1.639l-0.644-0.086c-9.47-1.309-12.803-1.908-13.929-4.771
		c-1.519-3.871-5.012-21.948-5.408-25.842C310.111,345.617,312.825,344.112,313.571,343.87z"/>
	<path fill="#4E4D50" d="M344.318,344.118c-0.166,0.459-0.297,0.942-0.346,1.462c-0.259,2.701,1.291,5.058,3.462,5.266
		c1.929,0.185,3.693-1.392,4.244-3.639c1.083,1.742,1.636,4.002,1.403,6.416c-0.479,5.003-4.128,8.743-8.149,8.358
		c-4.021-0.386-6.892-4.753-6.413-9.755C338.905,348.227,341.313,345.042,344.318,344.118z"/>
	<path fill="#4E4D50" d="M271.681,221.862c-1.339,0.208-5.646,0.672-5.646,0.672c-38.867,5.94-70.089-21.992-70.089-21.992
		s-0.626,23.856,18.057,43.182c18.69,19.325,53.4,20.044,53.4,20.044c1.516,4.753-0.018,15.758-0.018,15.758
		s9.15-11.96,9.972-33.266C277.939,231.331,272.511,221.733,271.681,221.862"/>
	<path fill="#737F83" d="M271.681,221.862c-1.291,0.181-5.646,0.672-5.646,0.672c-38.867,5.94-70.089-21.992-70.089-21.992
		s22.104,50.216,81.41,41.233C277.357,241.774,278.219,232.077,271.681,221.862"/>
	<path fill="#CAE8EF" d="M576.424,578.532c0,0-11.893-32.707-47.095-26.284c0,0,36.393-12.606,53.042,25.927L576.424,578.532z"/>
	<path fill="#CAE8EF" d="M587.842,568.899c0,0-9.752-29.732-43.766-28.305c0,0,35.679-6.422,49.476,27.83L587.842,568.899z"/>
	<path fill="#AADAE2" d="M468.055,504.793c-7.27,0.882-14.616,1.615-21.957,1.116c-8.472-0.576-16.865-2.128-25.242-3.36
		c-8.722-1.282-17.441-2.576-26.134-4.028c-17.543-2.934-35.19-6.091-51.791-12.16c-7.622-2.786-15.097-5.809-22.398-9.221
		c-6.57-3.068-13.279-6.141-20.569-7.441c-1.851,2.081-3.767,4.113-5.83,6.032c6.601,7.442,13.769,14.365,19.682,22.32
		c5.99,8.063,11.252,16.563,15.721,25.402c0.401,0.793,0.767,1.597,1.157,2.394c16.031,18.121,25.674,34.099,25.674,34.099
		l5.292-3.196c29.972,18.64,49.955,17.042,49.955,17.042l-2.35-5.858l8.227,0.531c14.694-6.39,48.194-48.992,48.194-48.992
		c8.23,1.597,22.921-2.131,22.921-2.131l-7.051-1.065c3.254-0.227,4.753-0.684,8.148-1.553c0.104-2.845,0.158-5.84-0.132-8.681
		C481.657,503.95,476.405,503.78,468.055,504.793z"/>
	<path fill="#EAF6FD" d="M541.038,478.134l4.606,0.521l-7.487,4.174c0,0-28.216,19.827-50.672,21.392l6.907,1.043
		c0,0-14.394,3.653-22.456,2.088c0,0-32.822,41.739-47.217,48.001l-8.063-0.521l2.305,5.739c0,0-19.58,1.565-48.946-16.697
		l-5.183,3.13c0,0-30.518-50.61-73.13-73.046l28.791-49.565c0,0,48.369,18.782,77.159,43.304c0,0,21.304-16.173,32.822-18.261
		l2.881-10.435l9.214,5.739c0,0-3.895-14.372,20.868-29.502l0.952,3.093c0,0,8.851-9.436,21.644-7.611
		c3.331,0.475,8.801,2.854,12.916,9.713l8.018-4.956c0,0,5.47-4.043,14.741,5.201c8.56,8.535,5.239,13.59,5.239,13.59
		s-0.489,1.27-1.748,2.753C525.202,437.022,530.805,439.461,541.038,478.134z"/>
	<path fill="#CAE8EF" d="M528.257,440.899c-12.131,9.277-33.539,15.966-33.539,15.966c22.835-11.596,30.484-19.844,30.484-19.844
		S526.384,437.688,528.257,440.899z"/>
	<path fill="#CAE8EF" d="M534.501,456.181c0,0-13.469,10.407-31.987,18.215c0,0,6.298-0.672,34.039-11.911l-0.952-3.39
		L534.501,456.181z"/>
	<path fill="#CAE8EF" d="M498.951,420.434c0,0-23.856,10.98-27.424,13.597c0,0,12.131-12.13,25.214-16.888
		C496.741,417.143,498.405,419.284,498.951,420.434z"/>
	<path fill="#CDEAF5" d="M495.629,621.248c-3.183,0.273-5.877-0.063-7.636-0.413c-9.851-2.63-18.843-12.69-18.843-12.69
		l10.942,1.904c-2.914-9.908-3.395-12.886-9.808-22.436c1.37-0.64,4.532-1.668,6.513-2.29c0.344-0.245,0.701-0.475,1.038-0.729
		c-8.496-2.486-19.307-13.463-19.307-13.463l0.944,1.363c-1.728-2.347-3.632-4.92-5.742-7.767
		c-39.682,51.725-98.278,42.23-98.278,42.23c-7.136,8.086-26.879,17.363-26.879,17.363c19.505,4.758,53.045-1.426,53.045-1.426
		c-1.902,3.806-6.661,7.611-6.661,7.611c41.863-4.281,61.368-25.689,61.368-25.689c10.941,4.757,20.932,25.214,22.835,29.495
		c1.902,4.282,5.709,10.941,8.563,9.514c1.349-0.675,6.943-5.7,12.471-10.817c5.377-3.965,11.226-7.409,15.646-9.813
		c1.062-0.648,2.142-1.265,3.229-1.872C497.924,621.382,496.777,621.375,495.629,621.248z"/>
	<path fill="#EAF6FD" d="M292.834,650.45l2.259-1.808c-3.434-3.688-9.391-4.743-12.537-5.047c-0.885-0.236-1.803-0.442-2.79-0.587
		c0,0,8.874,11.691,5.022,39.911l10.814,1.582C295.602,684.501,301.676,662.536,292.834,650.45z"/>
	<path fill="#AADAE2" d="M436.325,604.816c0,0,17.006-14.51,21.645-23.073c0,0-1.427,19.267-10.704,32.468
		C447.265,614.211,441.083,607.909,436.325,604.816z"/>
	<path fill="#AADAE2" d="M266.714,567.71c0,0,11.075,17.245,23.562,25.094c0,0-30.801,7.73-42.874-19.862
		c0,0-0.566-6.095-4.669-6.63C242.734,566.312,257.602,561.348,266.714,567.71z"/>
	<g>
		<path fill="#91CADB" d="M227.481,505.39l1.784-7.136c-4.282-2.498-11.417-1.07-11.417-1.07
			c-1.249-14.807-13.558-19.267-13.558-19.267c-1.783,3.686-3.568,5.352-3.568,5.352c7.468,0,10.509,9.158,11.718,15.494
			c-24.594,8.629-13.146,27.143-13.146,27.143c-1.962-17.483,13.915-21.229,13.915-21.229l-0.006-0.104
			c0.003,0.061,0.006,0.104,0.006,0.104C219.988,500.93,227.481,505.39,227.481,505.39z"/>
		<path fill="#91CADB" d="M234.617,516.093l-0.357-6.065c-25.154,8.563-13.558,27.295-13.558,27.295
			C218.739,519.84,234.617,516.093,234.617,516.093z"/>
	</g>
</g>
</svg>
