<?xml version="1.0" encoding="utf-8"?>
<!-- Generator: Adobe Illustrator 17.0.0, SVG Export Plug-In . SVG Version: 6.00 Build 0)  -->
<!DOCTYPE svg PUBLIC "-//W3C//DTD SVG 1.1//EN" "http://www.w3.org/Graphics/SVG/1.1/DTD/svg11.dtd">
<svg version="1.1" id="Layer_1" xmlns="http://www.w3.org/2000/svg" xmlns:xlink="http://www.w3.org/1999/xlink" x="0px" y="0px"
	 width="250px" height="250px" viewBox="0 0 250 250" enable-background="new 0 0 250 250" xml:space="preserve">
<path fill="#1A9ABD" d="M246.363,127.263H90.752V17.333h155.611V127.263z M241.058,22.089H96.056v99.869h145.002V22.089z"/>
<path fill="#29A6C9" d="M4.631,67.73V17.333h67.705V67.73H4.631z M68.8,64.194V20.87H8.168v43.324H68.8z"/>
<path fill="#29A6C9" d="M154.705,233.818H22.569v-89.3h132.136V233.818z M145.569,153.359H31.411v71.617h114.159V153.359z"/>
<path fill="#1A9ABD" d="M172.094,144.692h50.397v89.126h-50.397V144.692z M177.581,228.26h39.604v-78.34h-39.604V228.26z"/>
<path fill="#1A9ABD" d="M4.631,127.451V77.054h67.705v50.397H4.631z M68.8,123.914V80.591H8.168v43.324H68.8z"/>
<rect x="101.951" y="25.88" fill="#CCCCCC" width="27.114" height="14.883"/>
<rect x="101.951" y="44.3" fill="#CCCCCC" width="133.802" height="50.544"/>
<rect x="101.951" y="97.939" fill="#CCCCCC" width="31.247" height="24.02"/>
<rect x="136.002" y="97.939" fill="#CCCCCC" width="31.247" height="24.02"/>
<rect x="170.454" y="97.939" fill="#CCCCCC" width="31.247" height="24.02"/>
<rect x="204.506" y="97.939" fill="#CCCCCC" width="31.247" height="24.02"/>
<rect x="170.454" y="36.49" fill="#CCCCCC" width="18.916" height="4.273"/>
<rect x="193.646" y="36.49" fill="#CCCCCC" width="18.916" height="4.273"/>
<rect x="216.837" y="36.49" fill="#CCCCCC" width="18.916" height="4.273"/>
<rect x="181.515" y="153.238" fill="#CCCCCC" width="12.759" height="6.117"/>
<rect x="180.9" y="162.123" fill="#CCCCCC" width="32.973" height="36.94"/>
<rect x="207.361" y="157.646" fill="#CCCCCC" width="6.38" height="1.709"/>
<rect x="207.361" y="155.442" fill="#CCCCCC" width="6.38" height="1.709"/>
<rect x="207.361" y="153.238" fill="#CCCCCC" width="6.38" height="1.709"/>
<rect x="180.9" y="201.125" fill="#CCCCCC" width="15.664" height="16.221"/>
<rect x="198.209" y="201.125" fill="#CCCCCC" width="15.664" height="16.221"/>
<rect x="180.9" y="224.196" fill="#CCCCCC" width="32.841" height="1.709"/>
<rect x="180.9" y="221.992" fill="#CCCCCC" width="32.841" height="1.709"/>
<rect x="180.9" y="219.788" fill="#CCCCCC" width="32.841" height="1.709"/>
<rect x="83.089" y="156.201" fill="#CCCCCC" width="15.325" height="6.594"/>
<rect x="36.716" y="165.161" fill="#CCCCCC" width="103.549" height="39.824"/>
<rect x="36.716" y="214.159" fill="#CCCCCC" width="39.446" height="1.842"/>
<rect x="36.716" y="211.46" fill="#CCCCCC" width="39.446" height="1.842"/>
<rect x="36.716" y="208.761" fill="#CCCCCC" width="39.446" height="1.842"/>
<rect x="79.083" y="208.521" fill="#CCCCCC" width="38.492" height="16.441"/>
<rect x="121.426" y="208.521" fill="#CCCCCC" width="18.814" height="16.441"/>
<rect x="36.716" y="222.257" fill="#CCCCCC" width="39.446" height="1.842"/>
<rect x="36.716" y="219.558" fill="#CCCCCC" width="39.446" height="1.842"/>
<rect x="36.716" y="216.858" fill="#CCCCCC" width="39.446" height="1.842"/>
<rect x="9.648" y="82.945" fill="#CCCCCC" width="13.926" height="6.594"/>
<rect x="9.864" y="92.167" fill="#CCCCCC" width="27.764" height="29.791"/>
<rect x="39.339" y="92.167" fill="#CCCCCC" width="27.764" height="29.791"/>
<rect x="59.369" y="87.697" fill="#CCCCCC" width="7.663" height="1.842"/>
<rect x="59.369" y="85.321" fill="#CCCCCC" width="7.663" height="1.842"/>
<rect x="59.369" y="82.945" fill="#CCCCCC" width="7.663" height="1.842"/>
<rect x="9.691" y="28.091" fill="#CCCCCC" width="57.412" height="20.483"/>
<rect x="9.493" y="50.342" fill="#CCCCCC" width="18.047" height="13.852"/>
<rect x="29.159" y="50.342" fill="#CCCCCC" width="18.047" height="13.852"/>
<rect x="49.057" y="50.342" fill="#CCCCCC" width="18.047" height="13.852"/>
<rect x="29.966" y="22.802" fill="#CCCCCC" width="17.24" height="3.52"/>
</svg>
