<?xml version="1.0" encoding="utf-8"?>
<!-- Generator: Adobe Illustrator 19.1.0, SVG Export Plug-In . SVG Version: 6.00 Build 0)  -->
<svg version="1.1" id="Layer_1" xmlns="http://www.w3.org/2000/svg" xmlns:xlink="http://www.w3.org/1999/xlink" x="0px" y="0px"
	 width="915.3px" height="497.6px" viewBox="258 -113.6 915.3 497.6" style="enable-background:new 258 -113.6 915.3 497.6;"
	 xml:space="preserve">
<style type="text/css">
	.st0{clip-path:url(#SVGID_2_);}
	.st1{fill:url(#SVGID_3_);}
	.st2{fill:url(#SVGID_4_);}
	.st3{fill:url(#SVGID_5_);}
	.st4{fill:url(#SVGID_6_);}
	.st5{fill:url(#SVGID_7_);}
	.st6{fill:url(#SVGID_8_);}
	.st7{fill:url(#SVGID_9_);}
	.st8{fill:url(#SVGID_10_);}
	.st9{fill:url(#SVGID_11_);}
	.st10{fill:url(#SVGID_12_);}
	.st11{fill:url(#SVGID_13_);}
	.st12{fill:url(#SVGID_14_);}
	.st13{fill:url(#SVGID_15_);}
	.st14{fill:url(#SVGID_16_);}
	.st15{opacity:0.55;fill:url(#SVGID_17_);enable-background:new    ;}
	.st16{fill:url(#SVGID_18_);}
	.st17{fill:url(#SVGID_19_);}
	.st18{fill:url(#SVGID_20_);}
	.st19{fill:url(#SVGID_21_);}
	.st20{opacity:0.17;fill:#EFEFEF;enable-background:new    ;}
	.st21{fill:url(#SVGID_22_);}
	.st22{fill:url(#SVGID_23_);}
	.st23{fill:url(#SVGID_24_);}
	.st24{fill:url(#SVGID_25_);}
	.st25{fill:url(#SVGID_26_);}
	.st26{fill:url(#SVGID_27_);}
	.st27{fill:#273D44;}
	.st28{fill:url(#SVGID_28_);}
	.st29{fill:url(#SVGID_29_);}
	.st30{fill:url(#SVGID_30_);}
	.st31{fill:url(#SVGID_31_);}
	.st32{fill:url(#SVGID_32_);}
	.st33{fill:url(#SVGID_33_);}
	.st34{opacity:0.9;}
	.st35{fill:#939598;}
	.st36{opacity:0.8;}
	.st37{fill:#FFFFFF;}
	.st38{fill:url(#SVGID_34_);}
	.st39{fill:url(#SVGID_35_);}
	.st40{fill:url(#SVGID_36_);}
	.st41{opacity:0.6;fill:#4F4E51;enable-background:new    ;}
	.st42{opacity:0.21;fill:#231F20;enable-background:new    ;}
	.st43{fill:url(#SVGID_37_);}
	.st44{fill:url(#SVGID_38_);}
	.st45{opacity:0.39;fill:url(#SVGID_39_);enable-background:new    ;}
	.st46{opacity:0.39;fill:url(#SVGID_40_);enable-background:new    ;}
	.st47{fill:url(#SVGID_41_);}
	.st48{display:none;opacity:0.17;fill:#EFEFEF;enable-background:new    ;}
	.st49{fill:url(#SVGID_42_);}
	.st50{fill:url(#SVGID_43_);}
	.st51{fill:url(#SVGID_44_);}
	.st52{fill:url(#SVGID_45_);}
	.st53{fill:url(#SVGID_46_);}
	.st54{fill:url(#SVGID_47_);}
	.st55{opacity:0.45;fill:#F2C186;enable-background:new    ;}
	.st56{fill:url(#SVGID_48_);}
	.st57{fill:url(#SVGID_49_);}
	.st58{fill:url(#SVGID_50_);}
	.st59{fill:url(#SVGID_51_);}
	.st60{fill:url(#SVGID_52_);}
	.st61{fill:#293942;}
	.st62{fill:url(#SVGID_53_);}
	.st63{fill:url(#SVGID_54_);}
	.st64{fill:url(#SVGID_55_);}
	.st65{fill:url(#SVGID_56_);}
	.st66{fill:url(#SVGID_57_);}
	.st67{fill:url(#SVGID_58_);}
	.st68{fill:url(#SVGID_59_);}
	.st69{fill:url(#SVGID_60_);}
	.st70{fill:none;stroke:#FFFFFF;stroke-width:2.4049;stroke-miterlimit:10;}
	.st71{opacity:0.15;fill:#FFFFFF;enable-background:new    ;}
	.st72{opacity:0.25;}
	.st73{fill:#F26522;stroke:#F26522;stroke-width:0.9729;stroke-miterlimit:10;}
	.st74{fill:none;stroke:#FFFFFF;stroke-width:2.0001;stroke-miterlimit:10;}
	.st75{fill:none;stroke:#F26522;stroke-width:2.0001;stroke-miterlimit:10;}
	.st76{fill:url(#SVGID_61_);}
</style>
<g>
	<g>
		<g>
			<g>
				<defs>
					<rect id="SVGID_1_" x="258" y="-125" width="537.8" height="511.7"/>
				</defs>
				<clipPath id="SVGID_2_">
					<use xlink:href="#SVGID_1_"  style="overflow:visible;"/>
				</clipPath>
				<g id="yeti" class="st0">
					
						<linearGradient id="SVGID_3_" gradientUnits="userSpaceOnUse" x1="6241.6167" y1="-129.3742" x2="6292.7666" y2="11.4734" gradientTransform="matrix(-0.7937 -3.776829e-02 -4.753026e-02 0.9989 5595.4712 643.0534)">
						<stop  offset="0" style="stop-color:#F3C187"/>
						<stop  offset="9.101394e-02" style="stop-color:#957F7E"/>
						<stop  offset="0.3157" style="stop-color:#6E7173"/>
						<stop  offset="0.7166" style="stop-color:#A7A9AC"/>
						<stop  offset="0.7463" style="stop-color:#ABADB0"/>
						<stop  offset="0.8691" style="stop-color:#B6B8BA"/>
						<stop  offset="1" style="stop-color:#BABCBE"/>
					</linearGradient>
					<polygon class="st1" points="533.6,314 539,336.5 556.7,369.5 584.4,389.8 619.4,411.1 667.5,406.1 699.8,378.5 731,351.1 
						736.6,340.6 697.6,340.2 675.3,292.3 660.2,300 630.4,320.8 623.5,310.5 608.4,290.5 582.8,264.8 552.9,265.5 534.9,285.3 
											"/>
					<g>
						
							<linearGradient id="SVGID_4_" gradientUnits="userSpaceOnUse" x1="5281.0605" y1="-230.6164" x2="5150.6074" y2="-292.5524" gradientTransform="matrix(-1.1312 4.092877e-02 3.615890e-02 0.9993 6666.3984 316.9557)">
							<stop  offset="0" style="stop-color:#293942"/>
							<stop  offset="1" style="stop-color:#0F1C21"/>
						</linearGradient>
						<path class="st2" d="M769.9,279.8l4.3,16.8l6.5,11.6c0,0-10.9,3-12,5.8c-1.2,2.9-10.4,11-10.4,11s-12.9,20.7-13.6,21.2
							c-0.8,0.5-15.1,6.1-15.1,6.1l-9.2,8.1l-25.3-5.2l-24.4-14.9l-18.2-34.7l7.9-5.5l0.4-17.3l4.7-20.4l0-15.6l-0.8-9.6l8.1-0.9
							l9.2,2.6l9.7,10.9l0.4,17.8l7.9-23.9l13.5-15.6l15.5-4.2l16-1.4l21.8,10.7l-3.5,6.6c0,0-4.5,7-12.5,7.8
							c-5.1,0.5-14.7,3.2-14.7,3.2l-2.6,5.2l-3.5,6l3.5,1.7l6.1-4.5l12.1-3.1l14.6,13.5L764,280L769.9,279.8z"/>
						
							<linearGradient id="SVGID_5_" gradientUnits="userSpaceOnUse" x1="965.5355" y1="303.7769" x2="1001.8317" y2="296.7193" gradientTransform="matrix(1.1317 -4.766682e-03 -4.766682e-03 1.0002 -389.9389 14.9129)">
							<stop  offset="0" style="stop-color:#293942"/>
							<stop  offset="1" style="stop-color:#0F1C21"/>
						</linearGradient>
						<path class="st3" d="M737.5,267l-3.1,26.8l2.6,7.4l3.2,6.1l16.4-3.2l-0.1,9l2.9,2.5l2.6,0.9l-0.5,3.8l-3.2,5.1l-13.8,21
							l-21.4,6.2c0,0-24.7,1.6-25.5,0.9c-0.8-0.6-8.8-7.5-8.8-7.5l27.2-8.3l2.9-19l0.5-15.5l7-18.1c0,0,3.5-10.8,4-11.2
							s3.1-7.8,3.1-7.8L737.5,267z"/>
						<g>
							
								<linearGradient id="SVGID_6_" gradientUnits="userSpaceOnUse" x1="5193.522" y1="-241.181" x2="5239.5122" y2="-241.181" gradientTransform="matrix(-1.1312 4.092877e-02 3.615890e-02 0.9993 6666.3984 316.9557)">
								<stop  offset="0" style="stop-color:#293942"/>
								<stop  offset="1" style="stop-color:#243137"/>
							</linearGradient>
							<polygon class="st4" points="751.3,255.8 765.9,269.8 763.7,280.2 769.9,280 781.3,289.8 783.4,309.1 776.9,318.2 
								759.4,323.1 755.6,312.6 756.8,304 742.6,309.1 734.1,302.2 731.5,292.8 735.2,273.8 729.6,262 738.3,257.9 							"/>
							
								<linearGradient id="SVGID_7_" gradientUnits="userSpaceOnUse" x1="5288.6719" y1="-197.5622" x2="5288.8027" y2="-197.5622" gradientTransform="matrix(-1.1312 4.092877e-02 3.615890e-02 0.9993 6666.3984 316.9557)">
								<stop  offset="0" style="stop-color:#293942"/>
								<stop  offset="1" style="stop-color:#243137"/>
							</linearGradient>
							<path class="st5" d="M676.4,336L676.4,336L676.4,336z"/>
						</g>
					</g>
					
						<linearGradient id="SVGID_8_" gradientUnits="userSpaceOnUse" x1="457.6147" y1="301.6258" x2="497.9127" y2="420.5697" gradientTransform="matrix(1 0 0 1 0 0.8)">
						<stop  offset="0" style="stop-color:#4E5763"/>
						<stop  offset="0.6083" style="stop-color:#A7A9AC"/>
						<stop  offset="1" style="stop-color:#A7A9AC"/>
					</linearGradient>
					<polygon class="st6" points="314.5,283.5 307.9,308.8 310.6,335 318.7,362.5 340.8,387.1 369.8,402 403,400.1 431,397.1 
						495.1,385.3 515.1,389 546.2,397.5 559.6,408.3 569.3,410.2 580.5,409.3 596.6,382.8 616.1,309.6 612.3,288.8 598,272.5 
						544.2,269.1 504.6,304.5 343.9,266.5 					"/>
					<g>
						
							<linearGradient id="SVGID_9_" gradientUnits="userSpaceOnUse" x1="5229.6416" y1="1658.9977" x2="5196.1948" y2="1679.4473" gradientTransform="matrix(-0.8368 -0.5475 -0.5475 0.8368 5860.4697 1747.3032)">
							<stop  offset="0" style="stop-color:#939598"/>
							<stop  offset="1" style="stop-color:#293942"/>
						</linearGradient>
						<polygon class="st7" points="581.3,316.6 586.1,300.6 588.7,282.3 587.5,272 589.6,267.8 591.8,280.8 589.5,301.3 
							585.3,318.5 						"/>
						
							<linearGradient id="SVGID_10_" gradientUnits="userSpaceOnUse" x1="5163.4097" y1="1747.11" x2="5124.0107" y2="1792.2825" gradientTransform="matrix(-0.8223 -0.569 -0.569 0.8223 5824.1206 1818.9098)">
							<stop  offset="0" style="stop-color:#5B3528"/>
							<stop  offset="0.17" style="stop-color:#5B3528"/>
							<stop  offset="0.2068" style="stop-color:#753B22"/>
							<stop  offset="0.2534" style="stop-color:#90421C"/>
							<stop  offset="0.3012" style="stop-color:#A34617"/>
							<stop  offset="0.3502" style="stop-color:#AE4915"/>
							<stop  offset="0.4024" style="stop-color:#B24A14"/>
							<stop  offset="0.5719" style="stop-color:#5B3528"/>
						</linearGradient>
						<polygon class="st8" points="576.3,314.8 568.3,343.5 568.7,354 592.3,361.2 603.8,347 600.9,338.5 604.3,323.1 603.6,318.1 
							581.3,311.5 						"/>
						
							<linearGradient id="SVGID_11_" gradientUnits="userSpaceOnUse" x1="5066.8501" y1="1892.5244" x2="5024.5518" y2="1940.0168" gradientTransform="matrix(-0.7678 -0.6407 -0.6407 0.7678 5693.9209 2064.45)">
							<stop  offset="0" style="stop-color:#CFD1D2"/>
							<stop  offset="1" style="stop-color:#293942"/>
						</linearGradient>
						<polygon class="st9" points="604.4,272.8 604.9,284.1 604.4,297.8 602.3,310.5 599.5,319.5 593,340.2 579.6,332.5 585.2,313 
							588.2,304.5 590.1,293.6 591,280.6 589.6,267.8 						"/>
						<g>
							
								<linearGradient id="SVGID_12_" gradientUnits="userSpaceOnUse" x1="5050.7197" y1="1913.2271" x2="5040.9961" y2="1903.0477" gradientTransform="matrix(-0.7678 -0.6407 -0.6407 0.7678 5693.9209 2064.45)">
								<stop  offset="0.2638" style="stop-color:#465A65"/>
								<stop  offset="1" style="stop-color:#0F1C21"/>
							</linearGradient>
							<polygon class="st10" points="589.8,295.2 604,299.6 604.3,298 590.1,293.6 							"/>
						</g>
						<g>
							
								<linearGradient id="SVGID_13_" gradientUnits="userSpaceOnUse" x1="5058.5547" y1="1902.2201" x2="5049.0737" y2="1892.2943" gradientTransform="matrix(-0.7678 -0.6407 -0.6407 0.7678 5693.9209 2064.45)">
								<stop  offset="0.2638" style="stop-color:#465A65"/>
								<stop  offset="1" style="stop-color:#0F1C21"/>
							</linearGradient>
							<polygon class="st11" points="590.9,281.5 604.9,285.8 604.9,284.1 590.9,280.6 							"/>
						</g>
						<g>
							
								<linearGradient id="SVGID_14_" gradientUnits="userSpaceOnUse" x1="4714.5786" y1="2294.9675" x2="4704.3335" y2="2284.2419" gradientTransform="matrix(-0.6238 -0.7816 -0.7816 0.6238 5322.5317 2560.7114)">
								<stop  offset="0.2638" style="stop-color:#465A65"/>
								<stop  offset="1" style="stop-color:#0F1C21"/>
							</linearGradient>
							<polygon class="st12" points="587.9,305.8 602.1,311.6 602.3,310.5 588.2,304.5 							"/>
						</g>
						
							<linearGradient id="SVGID_15_" gradientUnits="userSpaceOnUse" x1="5158.7354" y1="1746.9299" x2="5137.3198" y2="1771.4838" gradientTransform="matrix(-0.8223 -0.569 -0.569 0.8223 5824.1206 1818.9098)">
							<stop  offset="0" style="stop-color:#283841"/>
							<stop  offset="1" style="stop-color:#0F1C21"/>
						</linearGradient>
						<polygon class="st13" points="600.4,322.5 582.4,317.2 577.5,333 583.7,344.8 595.4,339.8 						"/>
					</g>
					<g>
						<g id="neck_tube_3_">
							
								<linearGradient id="SVGID_16_" gradientUnits="userSpaceOnUse" x1="334.5306" y1="266.7283" x2="51.4675" y2="280.7412" gradientTransform="matrix(1 0 0 1 270.4788 0.8)">
								<stop  offset="0.2638" style="stop-color:#293942"/>
								<stop  offset="1" style="stop-color:#2A373E"/>
							</linearGradient>
							<polygon class="st14" points="608.4,257.6 598.8,272 597,279.6 593.2,287 588.7,291.8 586.9,299.5 573.5,309 550.3,308.1 
								514.6,314.8 499.8,319.5 434.8,309.1 401.5,292.5 371.3,279 346.9,275.2 325.3,278.8 314.5,283.5 323.1,272 318.3,254.5 
								325.2,250.3 331.6,234.3 333.6,245.3 375.9,255.8 540.2,262 577,257.6 							"/>
							
								<linearGradient id="SVGID_17_" gradientUnits="userSpaceOnUse" x1="322.7886" y1="271.5" x2="338.0942" y2="271.5" gradientTransform="matrix(1 0 0 1 270.4788 0.8)">
								<stop  offset="0" style="stop-color:#F3C187"/>
								<stop  offset="1" style="stop-color:#F1F2F2"/>
							</linearGradient>
							<polygon class="st15" points="599.7,261.5 593.7,272.2 593.2,287 597,279.6 598.8,272 608.4,257.6 							"/>
							
								<linearGradient id="SVGID_18_" gradientUnits="userSpaceOnUse" x1="169.6212" y1="276.2" x2="271.4212" y2="276.2" gradientTransform="matrix(1 0 0 1 270.4788 0.8)">
								<stop  offset="0" style="stop-color:#293942"/>
								<stop  offset="1" style="stop-color:#0F1C21"/>
							</linearGradient>
							<polygon class="st16" points="541.9,273.2 522.4,277 488.2,281.1 465.8,280.5 447.1,276.2 440.1,272.8 454,273.8 464,276.8 
								492.1,276.5 519.9,275 							"/>
							
								<linearGradient id="SVGID_19_" gradientUnits="userSpaceOnUse" x1="99.3212" y1="283.95" x2="216.3212" y2="283.95" gradientTransform="matrix(1 0 0 1 270.4788 0.8)">
								<stop  offset="0" style="stop-color:#293942"/>
								<stop  offset="1" style="stop-color:#162329"/>
							</linearGradient>
							<polygon class="st17" points="408.2,274 446.5,277.5 474.4,287 486.8,295.5 473.5,295.2 448.3,288.8 433.7,289 389.1,285 
								369.8,277.2 							"/>
							
								<linearGradient id="SVGID_20_" gradientUnits="userSpaceOnUse" x1="155.0212" y1="305.95" x2="269.3212" y2="305.95" gradientTransform="matrix(1 0 0 1 270.4788 0.8)">
								<stop  offset="0" style="stop-color:#293942"/>
								<stop  offset="1" style="stop-color:#0F1C21"/>
							</linearGradient>
							<polygon class="st18" points="425.5,304.5 449.6,306.2 469.5,305.1 492.5,308 539.8,298.8 522.8,306.2 496.4,314.8 
								434.8,309.1 							"/>
							
								<linearGradient id="SVGID_21_" gradientUnits="userSpaceOnUse" x1="269.1664" y1="279.95" x2="320.5137" y2="279.95" gradientTransform="matrix(1 0 0 1 270.4788 0.8)">
								<stop  offset="0" style="stop-color:#293942"/>
								<stop  offset="1" style="stop-color:#0F1C21"/>
							</linearGradient>
							<polygon class="st19" points="590.9,269.1 556.3,283.5 539.5,292.3 562,285.3 574.6,280.1 							"/>
						</g>
					</g>
					<g id="space_yeti">
						<path class="st20" d="M627.4-6.4l-84-17.2L433.7,7.2l-69.9,56.5l9.6,77.5l57.8,27.9l22,56.2l32.9,2.6l71.6-0.6l53-9.1l1.8-0.3
							c23.1-25,43.5-74,43.2-122.8c-0.3-26.3-2.6-46.9-11.8-68.1L627.4-6.4z"/>
						
							<linearGradient id="SVGID_22_" gradientUnits="userSpaceOnUse" x1="-1081.9462" y1="126.8" x2="-1065.567" y2="126.8" gradientTransform="matrix(1 0 0 1 1665.6588 0.8)">
							<stop  offset="0.339" style="stop-color:#0E1D24"/>
							<stop  offset="0.7571" style="stop-color:#322E2F"/>
						</linearGradient>
						<polygon class="st21" points="583.6,125.2 583.6,133.3 599.6,130.1 600,121.8 						"/>
						
							<linearGradient id="SVGID_23_" gradientUnits="userSpaceOnUse" x1="6720.9434" y1="-81.1534" x2="6783.3179" y2="-81.1534" gradientTransform="matrix(-1 9.884078e-03 9.884078e-03 1 7341.355 -25.8166)">
							<stop  offset="0" style="stop-color:#A77B5E"/>
							<stop  offset="0.291" style="stop-color:#4E5763"/>
							<stop  offset="0.5816" style="stop-color:#0E1C22"/>
						</linearGradient>
						<path class="st22" d="M596.6-86c-0.4-7.4,4.7-7.4,9.5-0.1c5.2,8.1,10.5,21.4,12,28.6c5.6,26.9-4.7,49.7-31.5,68.1
							c0,0-0.1,0-0.1,0.1l0,0l-0.1,0.1c-1.8,1.2-9.6-7.1-17.5-18.6c-7.9-11.4-12.9-21.8-11-23c0.1-0.1,0.3-0.1,0.4-0.1
							C577.5-44.2,597.9-61.9,596.6-86z"/>
						
							<linearGradient id="SVGID_24_" gradientUnits="userSpaceOnUse" x1="-1348.8545" y1="215.7771" x2="-1048.3354" y2="215.7771" gradientTransform="matrix(1 -9.884079e-03 9.884079e-03 1 1662.0492 30.3183)">
							<stop  offset="0" style="stop-color:#686D71"/>
							<stop  offset="0.356" style="stop-color:#273D44"/>
							<stop  offset="0.4785" style="stop-color:#3A484E"/>
							<stop  offset="0.6452" style="stop-color:#4D5458"/>
							<stop  offset="0.817" style="stop-color:#585B5E"/>
							<stop  offset="1" style="stop-color:#5C5D60"/>
						</linearGradient>
						<path class="st23" d="M315.2,244.6l0.1,12c0.1,9.7,67.5,16.9,150.4,16.1c83.1-0.8,150.3-9.4,150.1-19l-0.1-12.1L315.2,244.6z"
							/>
						
							<linearGradient id="SVGID_25_" gradientUnits="userSpaceOnUse" x1="-1038.3512" y1="200.9348" x2="-1353.2355" y2="200.9348" gradientTransform="matrix(1 -9.884079e-03 9.884079e-03 1 1662.0492 30.3183)">
							<stop  offset="0" style="stop-color:#939692"/>
							<stop  offset="0.3887" style="stop-color:#7A7979"/>
							<stop  offset="1" style="stop-color:#273D44"/>
						</linearGradient>
						<path class="st24" d="M615.7,241.6c0.1,9.7-67.1,18.2-150.1,19s-150.4-6.4-150.4-16.1c0-9.7,67.1-18.2,150.1-19
							S615.7,231.9,615.7,241.6z"/>
						
							<linearGradient id="SVGID_26_" gradientUnits="userSpaceOnUse" x1="-1103.3026" y1="54.3552" x2="-1024.5004" y2="68.4269" gradientTransform="matrix(1 -9.884079e-03 9.884079e-03 1 1662.0492 30.3183)">
							<stop  offset="0" style="stop-color:#0F1C21"/>
							<stop  offset="1" style="stop-color:#293942"/>
						</linearGradient>
						<polygon class="st25" points="613,217.7 617.8,168.2 575.7,136.1 577.6,96.4 577.6,90.1 611.7,63.4 631.2,42.5 641.5,24.9 
							643.1,21 640.5,10.5 619.4,-18.1 562.9,-67.1 476.1,-88.4 401.5,-54.4 311.4,20.9 314.9,109.4 359.2,200.8 431.9,244 
							507.6,249.7 						"/>
						
							<linearGradient id="SVGID_27_" gradientUnits="userSpaceOnUse" x1="-1344.8733" y1="196.4791" x2="-1060.4282" y2="196.4791" gradientTransform="matrix(1 -9.884079e-03 9.884079e-03 1 1662.0492 30.3183)">
							<stop  offset="0" style="stop-color:#F3C187"/>
							<stop  offset="9.101394e-02" style="stop-color:#D47A6D"/>
							<stop  offset="0.3157" style="stop-color:#CFD1D2"/>
							<stop  offset="0.9595" style="stop-color:#A7A9AC"/>
							<stop  offset="0.9634" style="stop-color:#B5AEA5"/>
							<stop  offset="0.9722" style="stop-color:#D0B697"/>
							<stop  offset="0.9811" style="stop-color:#E3BC8E"/>
							<stop  offset="0.9902" style="stop-color:#EEC088"/>
							<stop  offset="1" style="stop-color:#F2C186"/>
						</linearGradient>
						<path class="st26" d="M323.5,224.5l0.1,17.5c0.1,7.4,63.2,12.9,140.9,12.1s140.7-7.4,140.7-14.8l-0.1-17.5l-24.3,3.8
							l-23.5,2.7L323.5,224.5z"/>
						<path class="st27" d="M393,210.4c-42.5,3.2-69.8,7.9-69.7,12.7c0,4.9,27.3,9,69.7,11.2V210.4z"/>
						
							<linearGradient id="SVGID_28_" gradientUnits="userSpaceOnUse" x1="-1349.8759" y1="155.8554" x2="-1060.4525" y2="155.8554" gradientTransform="matrix(1 -9.884079e-03 9.884079e-03 1 1662.0492 30.3183)">
							<stop  offset="0" style="stop-color:#585C5F"/>
							<stop  offset="0.3157" style="stop-color:#CFD1D2"/>
							<stop  offset="0.9673" style="stop-color:#A7A9AC"/>
						</linearGradient>
						<path class="st28" d="M555.5,235.1l-102.7-5.4l-9.5-24.6L429,167.7l-28.3-13.9l-32.2-12.1l-50.4,36l11.2,16.9
							c0,0,18.3,18.8,25.1,25.1l18.3,4.5l15.7,3.6l3.6,6.1c-50-2.5-68.5-7.7-68.5-11.2l0.1,18.7c0.1,7.4,63.2,14.6,140.9,13.8
							c77.7-0.8,140.7-6.8,140.7-14.2l-0.1-19.9C604.8,222.3,555.9,234.5,555.5,235.1z"/>
						
							<linearGradient id="SVGID_29_" gradientUnits="userSpaceOnUse" x1="-1359.2295" y1="-123.3623" x2="-1217.325" y2="-21.8032" gradientTransform="matrix(1 -9.884079e-03 9.884079e-03 1 1662.0492 30.3183)">
							<stop  offset="0" style="stop-color:#494C4F"/>
							<stop  offset="0.6682" style="stop-color:#BEC0C2"/>
							<stop  offset="0.8462" style="stop-color:#CDD1D1"/>
							<stop  offset="1" style="stop-color:#A7A9AC"/>
						</linearGradient>
						<path class="st29" d="M352.7,51.1l167.8-93.7l71.2-2.6c-15.9-36.5-67.2-57.2-125.4-53.9c-98.5,5.3-179.1,90-178.2,188.6
							C288.4,109.4,352.7,51.1,352.7,51.1z"/>
						
							<linearGradient id="SVGID_30_" gradientUnits="userSpaceOnUse" x1="-1373.7396" y1="-83.484" x2="-1306.7416" y2="-83.484" gradientTransform="matrix(1 -9.884079e-03 9.884079e-03 1 1662.0492 30.3183)">
							<stop  offset="0" style="stop-color:#5A5C5D"/>
							<stop  offset="0.3203" style="stop-color:#4E5763"/>
							<stop  offset="1" style="stop-color:#0E1C22"/>
						</linearGradient>
						<path class="st30" d="M310.8-88.8c-0.1-6.6-4.9-7.5-10,0.1c-6,9-10.7,22.9-12.1,30.4c-5.3,28.5,6,52.5,34.7,71.5l1.4,0.9
							c1.9,1.3,11.7-7.1,19.9-19.5c8.1-12.3,11.2-23.9,9.4-25.1c-0.1-0.1-1.2-1-1.3-1C331.9-45.1,311.4-63.2,310.8-88.8z"/>
						
							<linearGradient id="SVGID_31_" gradientUnits="userSpaceOnUse" x1="-1341.1455" y1="164.4496" x2="-1275.6869" y2="164.4496" gradientTransform="matrix(1 -9.884079e-03 9.884079e-03 1 1662.0492 30.3183)">
							<stop  offset="0" style="stop-color:#4E5763"/>
							<stop  offset="0.6682" style="stop-color:#273D44"/>
							<stop  offset="1" style="stop-color:#273D44"/>
						</linearGradient>
						<path class="st31" d="M322.3,184.8c0,0,5.3,30.9,6,34.3c0.6,3.4,0.6,3.2,2.7,4.2c2.5,1,8.4,2.2,14.7,3
							c12.1,1.8,42.6,4.2,42.6,4.2v-2.3c0,0-26.5-7.5-38-14.9C334.3,202.6,322.3,184.8,322.3,184.8z"/>
						
							<linearGradient id="SVGID_32_" gradientUnits="userSpaceOnUse" x1="-1074.0625" y1="0.6025" x2="-1161.2821" y2="141.753" gradientTransform="matrix(1 0 0 1 1665.6588 0.8)">
							<stop  offset="0" style="stop-color:#273D44"/>
							<stop  offset="0.2046" style="stop-color:#ADA7A5"/>
							<stop  offset="0.3735" style="stop-color:#C6C8CA"/>
							<stop  offset="0.687" style="stop-color:#CDD1D1"/>
						</linearGradient>
						<path class="st32" d="M568.8,18.7l17.4-5.2l21.8,7L591.8,33l20.1,3.8l9.7,11.6l-16.4,7.3l-6.1,7.4c0,0-9.1,48.4-10,74.9
							c-0.9,26.4,2.1,86.2,2.1,86.2l-32,4.9h-70.1l-32.6-3.8l-21.2-62.9l-23.5-11.3c0,0-7.8-52.4-7.3-59s10-26.5,11.7-29.1
							c2.1-3.1,17.4-14.6,17.4-14.6S462.1,31,472.2,27c10-4,17.8-4.8,17.8-4.8l68.5-19.6L568.8,18.7z"/>
						
							<radialGradient id="SVGID_33_" cx="-1159.4985" cy="61.1929" r="119.0297" gradientTransform="matrix(1 -9.884079e-03 9.884079e-03 1 1662.0492 30.3183)" gradientUnits="userSpaceOnUse">
							<stop  offset="0" style="stop-color:#0F1C21;stop-opacity:0"/>
							<stop  offset="0.6763" style="stop-color:#0F1C21;stop-opacity:0.6512"/>
							<stop  offset="0.7625" style="stop-color:#1A282F;stop-opacity:0.7441"/>
							<stop  offset="0.8885" style="stop-color:#24343C;stop-opacity:0.8799"/>
							<stop  offset="1" style="stop-color:#283841"/>
						</radialGradient>
						<path class="st33" d="M412.8,157.3c0,0-9-58.8-8.1-65.4s9.4-25.6,11.7-29.1c2.3-3.5,17.4-14.6,17.4-14.6s29.4-17.7,38.7-21.5
							s40.4-10.8,40.4-10.8l43.7-2.1l12.2,4.8c0,0,12.7-1.9,18.5-2.1c5.6,0,20.9,3.8,20.9,3.8L592,32.8l20.1,3.8l9.7,11.6l-16.4,7.3
							l-6.1,7.4l-1.9,11.7l14.3-11.2l19.6-20.9L641.6,25l1-2.5L633-0.9l-35-18.2l-39.8-4l-24.3,1l-21.6,1.7L476.9-9.6l-104.8,42
							l-3.9,30.3l9.2,79.8L412.8,157.3z"/>
						<g class="st34">
							<polygon class="st35" points="508.9,205 504.2,209 497.9,198.9 497.4,199.5 503.4,213.9 509.1,210.8 516.4,217.1 
								529.3,211.5 532.8,215.9 545.9,197.2 534.5,207.2 530.6,204.3 516.9,210.9 							"/>
						</g>
						<g class="st36">
							<path class="st37" d="M561.6,149.1c3.9,0,7.5,0.6,10.3,1.8c0.1,0,0.3,0,0.5,0.1c3.9-3.2,6.5-9.4,6.5-16.5
								c0-10.5-5.7-19-12.9-19c-7.1,0-12.9,8.4-12.9,19c0,6,1.9,11.3,4.8,14.8C559,149.1,560.3,149.1,561.6,149.1z"/>
							
								<linearGradient id="SVGID_34_" gradientUnits="userSpaceOnUse" x1="-1105.7999" y1="134.85" x2="-1091.6685" y2="134.85" gradientTransform="matrix(1 0 0 1 1665.6588 0.8)">
								<stop  offset="0" style="stop-color:#293942"/>
								<stop  offset="1" style="stop-color:#0F1C21"/>
							</linearGradient>
							<ellipse class="st38" cx="566.8" cy="135.6" rx="7" ry="11.6"/>
							<ellipse class="st37" cx="564.2" cy="127.1" rx="2.6" ry="4.4"/>
						</g>
						<g class="st34">
							<path class="st37" d="M485.7,151.3c2.2,0,4.4,0.1,6.4,0.4c3.4-4.3,5.5-10.4,5.5-17.3c0-13-7.7-23.4-17-23.4
								c-9.4,0-17,10.5-17,23.4c0,7.9,2.9,14.9,7.3,19.2C474.9,152.2,480.1,151.3,485.7,151.3z"/>
							
								<linearGradient id="SVGID_35_" gradientUnits="userSpaceOnUse" x1="-1190.8804" y1="133.65" x2="-1172.5166" y2="133.65" gradientTransform="matrix(1 0 0 1 1665.6588 0.8)">
								<stop  offset="0" style="stop-color:#293942"/>
								<stop  offset="1" style="stop-color:#0F1C21"/>
							</linearGradient>
							<ellipse class="st39" cx="483.9" cy="134.4" rx="9.2" ry="13.5"/>
							<ellipse class="st37" cx="479.7" cy="124.6" rx="3.4" ry="5.1"/>
						</g>
						<path class="st35" d="M483,92.1c6.6,0.9,12.5,3.4,16.9,6.8c-2.2-7.3-8.2-12.9-15.9-14c-7.7-1-15.1,2.7-19.1,9.1
							C470.1,92,476.4,91.2,483,92.1z"/>
						
							<linearGradient id="SVGID_36_" gradientUnits="userSpaceOnUse" x1="-1112.3646" y1="99.8186" x2="-1084.1161" y2="99.8186" gradientTransform="matrix(1 0 0 1 1665.6588 0.8)">
							<stop  offset="0" style="stop-color:#A1A3A6"/>
							<stop  offset="1" style="stop-color:#9D867B"/>
						</linearGradient>
						<path class="st40" d="M566.2,100.3c5.3-1.4,10.7-1,15.2,0.5c-4.3-6-10.8-9.1-17-7.4c-6.2,1.6-10.4,7.5-11.2,14.8
							C556.4,104.5,560.9,101.6,566.2,100.3z"/>
						<path class="st41" d="M501.7,186.3c-0.9-0.4,14.7,0,39.4-4.5c0,0-0.3-1.9,0-4.2c0.1-1.3,0.5-2.7,1-3.8c0,0,2.2,8.2,4.4,9.7
							c0,0-4.7,4.7-16.8,6.8c0,0,6.6-2.9,9.2-4.9C539.3,185.1,512,190,501.7,186.3z"/>
						<path class="st42" d="M574.9,225.1l7.4-1.2l9-1.7c0,0-1.2-21.3-1.8-47.6c-0.3,1.9-0.5,3.9-0.8,5.7
							C585.6,200.7,581.3,217.4,574.9,225.1z"/>
						
							<radialGradient id="SVGID_37_" cx="-1179.6104" cy="218.2579" r="100.5788" gradientTransform="matrix(1 0 0 1.4143 1665.6588 -170.6136)" gradientUnits="userSpaceOnUse">
							<stop  offset="0" style="stop-color:#E6E7E8"/>
							<stop  offset="0.17" style="stop-color:#E3E4E5"/>
							<stop  offset="0.3163" style="stop-color:#D8DBDC"/>
							<stop  offset="0.4538" style="stop-color:#C6CBCD"/>
							<stop  offset="0.586" style="stop-color:#ADB5B7"/>
							<stop  offset="0.7143" style="stop-color:#8D989C"/>
							<stop  offset="0.8398" style="stop-color:#66757A"/>
							<stop  offset="0.9607" style="stop-color:#384C52"/>
							<stop  offset="1" style="stop-color:#273D44"/>
						</radialGradient>
						<path class="st43" d="M446.6,171.7l-11-26.1l-6.6-30.5l-2.6-27.4l8.1-22l7.8-11.6l14.4-11.2l14.3-9.6l19.4-11.2
							c0,0-2.5,0.4-5.7,1c-1.9,0.5-4.2,1.2-6,1.7c-5.7,1.6-10.7,4-10.7,4l-10,5.3L434,48c0,0-16,12-17.4,14.6s-11,21.1-11.9,29.1
							s7.3,59,7.3,59l23.5,11.3l20.8,61.7l21.1,3l17.5,0.8l-25.4-14.9L446.6,171.7z"/>
						<polygon class="st42" points="538.8,27.3 554.9,35.7 576.6,52.7 575.2,34 571.9,19.3 568.4,14.8 536.2,23.6 532.5,25.3 						
							"/>
						<g>
							
								<linearGradient id="SVGID_38_" gradientUnits="userSpaceOnUse" x1="-1077.3029" y1="-23.4754" x2="-1154.725" y2="-8.8278" gradientTransform="matrix(1 -9.884079e-03 9.884079e-03 1 1662.0492 30.3183)">
								<stop  offset="0" style="stop-color:#F3C187"/>
								<stop  offset="8.108176e-02" style="stop-color:#F4AA8D"/>
								<stop  offset="0.4658" style="stop-color:#CFD1D2"/>
							</linearGradient>
							<path class="st44" d="M540.3,26c0,0,11.7,2.7,17.8,6S576,46.6,576,46.6s-1.2-18.3-2.3-22c-1.6-4.4-3.6-11.6-9.2-17.9
								c-2.1-2.3-9.9-9.6-9.9-9.6s-23.8,3.8-28.8,4.6c-8.1,1.2-35.7,20.4-35.7,20.4"/>
						</g>
						<g class="st36">
							
								<linearGradient id="SVGID_39_" gradientUnits="userSpaceOnUse" x1="-1078.004" y1="139.8365" x2="-1252.402" y2="139.8365" gradientTransform="matrix(1 0 0 1 1665.6588 0.8)">
								<stop  offset="0" style="stop-color:#E6978C"/>
								<stop  offset="0.4658" style="stop-color:#A5A7AA"/>
								<stop  offset="0.7085" style="stop-color:#A9ADAE"/>
								<stop  offset="0.9757" style="stop-color:#293942"/>
							</linearGradient>
							<path class="st45" d="M558.8,125.3c6-0.9,15.7-0.8,15.7-0.8s10.8,1.7,15.3,4.5l0.6-7.9l-3.8-0.8l-10.7-1.8
								c0,0-12.2-0.5-18.6,0.1c-6.4,0.6-19.8,5.1-19.8,5.1s-4.7-1.4-8.7-1.4s-8.2,0.6-8.2,0.6s-10.7-10.8-49.7-7.5
								c-14.9,1.2-40.8,5.6-40.8,5.6l-22.4,4.4l1.4,8.6l29.4-5.5l3.6-0.3l1.2,8.1c0,0,4.5,18.5,5.8,22.1c1.3,3.8,7.4,6.5,13.6,7.1
								s18.1,0.9,18.1,0.9l23.8-3.4c0,0,4.9-1.2,7.8-4.4c2.9-3.2,4.4-8.8,4.4-8.8l2.9-16.8c0,0,5.2-2.9,9.2-3c0.9,0,1.7,0.1,2.3,0.4
								l0,0l8.2,2.3l4.3-2.7c1.6-1.4,4-2.2,4-2.2S552.7,126.2,558.8,125.3z M511.3,142.6c-0.5,4.5-1.8,10.4-4.9,12.6
								c-3.1,2.2-25.9,4.5-25.9,4.5l-17.8-1.2c0,0-5.3-1.2-6.4-4.3c-0.6-2.1-6-20.5-5.8-24c0-3.4,3.2-4.9,3.2-4.9s10.4-3.5,22.4-3.9
								s28.6,3.5,28.6,3.5s7.4,1.6,7.9,2.9C513.3,129.3,512,138.2,511.3,142.6z"/>
							
								<linearGradient id="SVGID_40_" gradientUnits="userSpaceOnUse" x1="-1071.8113" y1="162.4663" x2="-1142.8721" y2="140.2733" gradientTransform="matrix(1 0 0 1 1665.6588 0.8)">
								<stop  offset="0" style="stop-color:#E6978C"/>
								<stop  offset="0.4658" style="stop-color:#A5A7AA"/>
								<stop  offset="0.7085" style="stop-color:#A9ADAE"/>
								<stop  offset="0.9757" style="stop-color:#293942"/>
							</linearGradient>
							<path class="st46" d="M589.2,150.2c-0.6,0.8-5.8,2.9-6.5,3.2c-5.8,3.5-26.5,6-32.6,0.1c-0.1-0.1-5.6-4.4-5.7-4.5l3.4,11.4
								c2.6,0.5,10.1,1.7,10.1,1.7s7.4,0.6,11.3,0.4c3.1-0.1,16.1-3,20-4.4V150.2z"/>
						</g>
						
							<linearGradient id="SVGID_41_" gradientUnits="userSpaceOnUse" x1="-1257.6388" y1="238.6689" x2="-1061.8632" y2="238.6689" gradientTransform="matrix(0.9997 2.462571e-02 -2.462571e-02 0.9997 1670.7505 -73.2656)">
							<stop  offset="0.339" style="stop-color:#0E1D24"/>
							<stop  offset="0.7571" style="stop-color:#322E2F"/>
						</linearGradient>
						<path class="st47" d="M598.7,118.1c0,0-11-3.5-18.7-4.2s-15.1-0.6-23.3,0.6c-6.4,1-16,5.3-16,5.3s-3.8-1.9-7.8-1.9
							s-10.5,1.4-10.5,1.4s-7.9-12.1-46.9-8.8c-9.1,0.8-15.5,2.7-23.3,4c-5.1,0.9-10.8,2.1-19.6,3.4c-7.3,1-24.7,4.7-24.7,4.7
							l1.2,8.2l34.6-6.1l3.6-0.3c0,0,0.8,3.8,1.2,8.1c0.8,6.9,3.9,15.1,4.9,18.8c1.9,7,9.7,10,14.6,10.4s10.7,0.9,18.1,0.9
							s16.6-1.2,20.7-2.3c4-1.2,5.8-1.6,8.7-4.8s3.5-9.2,3.5-9.2l4.3-17c0,0,5.2-2.9,9.2-3c4,0,6.9,2.5,6.9,2.5s3.4,15.6,4.7,18.5
							s2.1,4.9,5.1,7.5s12.1,3.5,12.1,3.5s7.4,0.6,11.3,0.4c3.9-0.3,15.3-3.1,17-4.4c2.5-1.9,4.8-6.6,5.8-9.2c1-2.6,4-14.8,4-14.8
							l3-4.2c0,0,2.3-4.8,1.4-5.8C602.6,119.3,598.7,118.1,598.7,118.1z M513.9,138.9c-1.2,4.7-2.3,12.5-5.5,14.7
							c-3.9,2.7-23.3,2.7-23.3,2.7l-15.7-1c0,0-7-0.6-9-6.5c-0.8-2.1-4-14.8-4.4-22.4c-0.1-3.4,2.5-4.4,2.5-4.4s10.4-3.5,22.4-3.9
							s23.3,1.6,26.3,2.3c3.1,0.6,7.9,2.9,8.6,4C516.7,126.6,515,134.4,513.9,138.9z M585.7,150c-5.8,3.5-26.5,6-32.6,0.1
							c-4-3.9-7.7-18.8-7.3-21.4c0.4-2.6,5.3-4.2,5.3-4.2s4.5-2.3,10.5-3.2s10.3-0.9,15.3-0.4c5.7,0.5,10.8,1.6,14,3.2
							c3.5,1.8,2.6,3.8,1.8,7.5C591.7,136.9,589.8,147.4,585.7,150z"/>
						<path class="st48" d="M627.4-6.4l-84-17.2L433.7,7.2l-69.9,56.5l9.6,77.5l57.8,27.9l22,56.2l32.9,2.6l71.6-0.6l53-9.1l1.8-0.3
							c23.1-25,43.5-74,43.2-122.8c-0.3-26.3-2.6-46.9-11.8-68.1L627.4-6.4z"/>
						
							<linearGradient id="SVGID_42_" gradientUnits="userSpaceOnUse" x1="-1043.3523" y1="143.272" x2="-1292.6053" y2="147.5602" gradientTransform="matrix(1 -9.884079e-03 9.884079e-03 1 1662.0492 30.3183)">
							<stop  offset="0" style="stop-color:#F2C186"/>
							<stop  offset="0.3806" style="stop-color:#293942"/>
							<stop  offset="1" style="stop-color:#1F2C32"/>
						</linearGradient>
						<path class="st49" d="M378.6,134.9l56.8,27.3l20.8,61.7c0,0,21.8,2.7,38.6,3.8c16.8,1,47.6,0.3,64.2-0.6
							c16.8-0.9,53.8-9.2,53.8-9.2l-8.3,13.6c0,0-28.5,7.4-46.8,8.8s-48.9,2.6-71.5,1.3c-22.6-1.2-44.1-2.7-44.1-2.7l-20.9-68.4
							l-62.1-29.1L378.6,134.9z"/>
						
							<linearGradient id="SVGID_43_" gradientUnits="userSpaceOnUse" x1="-1485.5514" y1="-285.5588" x2="-1391.1012" y2="-285.5588" gradientTransform="matrix(0.9619 -9.226510e-02 9.727631e-02 1.0142 1747.9363 262.4251)">
							<stop  offset="0.2638" style="stop-color:#465A65"/>
							<stop  offset="1" style="stop-color:#1A262C"/>
						</linearGradient>
						<path class="st50" d="M328.3,30.1c-3.2,0.1-12,0.8-12,0.8l-7.8,10.5c-12.9,14.2-20,40.3-17.2,69.4c2.6,27.7,13.6,51.1,27.8,63
							l4.3,5.3c0,0,17.2,2.5,20.4,2.2c24.6-2.3,40.3-37.2,38.2-79.3C380.2,59.9,352.9,29.3,328.3,30.1z"/>
						
							<linearGradient id="SVGID_44_" gradientUnits="userSpaceOnUse" x1="-1849.5085" y1="-294.5926" x2="-1745.8687" y2="-220.343" gradientTransform="matrix(0.8946 -7.587446e-02 8.664025e-02 0.9962 1944.4867 220.0432)">
							<stop  offset="0" style="stop-color:#5E6260"/>
							<stop  offset="0.2439" style="stop-color:#7E8180"/>
							<stop  offset="0.5151" style="stop-color:#9B9D9F"/>
							<stop  offset="0.6682" style="stop-color:#A6A8AA"/>
							<stop  offset="0.7554" style="stop-color:#9B9FA3"/>
							<stop  offset="0.9074" style="stop-color:#7E8990"/>
							<stop  offset="0.9974" style="stop-color:#6A7983"/>
						</linearGradient>
						<path class="st51" d="M363.1,101.2c3.9,40.9-11.3,75.9-34.1,78.1s-44.5-29.2-48.4-70.2c-3.9-40.9,11.3-75.9,34.1-78.1
							S359.2,60.3,363.1,101.2z"/>
						
							<linearGradient id="SVGID_45_" gradientUnits="userSpaceOnUse" x1="-1325.0116" y1="104.4288" x2="-1372.2607" y2="111.6608" gradientTransform="matrix(1 0 0 1 1665.6588 0.8)">
							<stop  offset="0" style="stop-color:#4D6370"/>
							<stop  offset="1" style="stop-color:#212E34"/>
						</linearGradient>
						<path class="st52" d="M310.8,73l0.8,7.9c-9.7,0.9-16.5,14.4-15.1,30c1.6,15.7,10.7,27.6,20.5,26.6l0.8,7.9
							c12.5-1.2,21.2-18.5,19.2-38.5S323.2,71.9,310.8,73z"/>
						
							<linearGradient id="SVGID_46_" gradientUnits="userSpaceOnUse" x1="-932.8918" y1="-52.6091" x2="-1220.0148" y2="-52.6091" gradientTransform="matrix(1.0216 -1.009815e-02 9.884084e-03 0.9999 1595.3739 30.9785)">
							<stop  offset="0" style="stop-color:#5B3528"/>
							<stop  offset="1" style="stop-color:#1A262C"/>
						</linearGradient>
						<path class="st53" d="M531.2-82.7c-90.5-9-161.5,49.1-187.3,117.4c9.4,3.8,17.2,28.1,17.2,28.1l7.4,0.3c0,0,2.2-0.1,2.2-0.3
							c43.8-47,104.8-77.8,189.1-78.6c19.5-0.1,49.4,4.2,71.1,16.5h0.1l5.1,9.4l5.1,9.5l1.3,2.9c0,0,5.3-8.2,2.9-15.6
							C631.4-30.3,590.2-76.9,531.2-82.7z"/>
						
							<linearGradient id="SVGID_47_" gradientUnits="userSpaceOnUse" x1="-1178.4877" y1="55.7084" x2="-985.7188" y2="-115.2692" gradientTransform="matrix(1.0216 -1.009815e-02 9.884084e-03 0.9999 1595.3739 30.9785)">
							<stop  offset="0" style="stop-color:#273D44"/>
							<stop  offset="0.4874" style="stop-color:#F26522"/>
							<stop  offset="0.6685" style="stop-color:#F3903F"/>
							<stop  offset="0.8876" style="stop-color:#ED683C"/>
							<stop  offset="1" style="stop-color:#E93E3A"/>
						</linearGradient>
						<path class="st54" d="M531.1-87.8c-90.5-9-168.1,53.6-193.9,121.7c10.4,6.2,17.2,16,23.8,28.9c44.2-49.5,110-83.6,197.2-84.5
							c14-0.1,34.4,2.5,52.9,8.6c7.9,2.6,15.6,6,22.2,10c5.6,3.4,13,11,12.3,17.8c3.2-7.7-2.5-16.1-5.3-21.4
							C621.7-41.6,582.3-82.7,531.1-87.8z"/>
						<path class="st55" d="M642,21.4L631.1,0.8L626-1.9l-6.8-3l13.1,26.4c9.4,21.4,13.8,44.7,14,71.4
							c0.5,49.5-20.1,99.2-43.7,124.5l-2.6,3.1l10-2.1l2.7-0.6c23.5-25.3,43.5-75.5,43-125.1C655.6,66.1,651.3,42.9,642,21.4z"/>
					</g>
					<g>
						
							<linearGradient id="SVGID_48_" gradientUnits="userSpaceOnUse" x1="401.9824" y1="337.7" x2="453.6824" y2="337.7" gradientTransform="matrix(1 0 0 1 0 0.8)">
							<stop  offset="0" style="stop-color:#3C2415"/>
							<stop  offset="1" style="stop-color:#754C29"/>
						</linearGradient>
						<polygon class="st56" points="406.2,311.5 403.2,315.6 401.9,320.3 410.7,335.5 407.1,348.6 423.6,365.5 451.9,355 
							453.6,351.5 426.6,358.6 414.5,348.1 417.7,333.5 						"/>
						
							<linearGradient id="SVGID_49_" gradientUnits="userSpaceOnUse" x1="311.4" y1="294.95" x2="423.7" y2="294.95" gradientTransform="matrix(1 0 0 1 0 0.8)">
							<stop  offset="0" style="stop-color:#939598"/>
							<stop  offset="1" style="stop-color:#293942"/>
						</linearGradient>
						<polygon class="st57" points="315.7,283.2 311.4,296.6 313.1,307.1 319.1,288 343.3,282.2 358.1,284.5 371.1,288.5 
							385.9,296.2 398,305.2 412,318.1 416.6,317.5 423.7,316.5 400.8,291.5 382,280.8 365.9,275.8 347.7,273.3 329.3,277 						"/>
						
							<linearGradient id="SVGID_50_" gradientUnits="userSpaceOnUse" x1="431.8722" y1="356.9814" x2="425.4641" y2="308.4142" gradientTransform="matrix(1 0 0 1 0 0.8)">
							<stop  offset="0.4509" style="stop-color:#F26522"/>
							<stop  offset="0.7779" style="stop-color:#414042"/>
						</linearGradient>
						<polygon class="st58" points="406.2,311.5 403.2,315.6 415,334.6 410.3,348.1 424.9,362.5 453.6,351.5 453.2,344.2 446.3,330 
							433.7,311.5 427.5,308.8 						"/>
						
							<linearGradient id="SVGID_51_" gradientUnits="userSpaceOnUse" x1="315.7" y1="297.1" x2="433.3" y2="297.1" gradientTransform="matrix(1 0 0 1 0 0.8)">
							<stop  offset="0" style="stop-color:#FFFFFF"/>
							<stop  offset="1" style="stop-color:#293942"/>
						</linearGradient>
						<polygon class="st59" points="361.7,271.5 379.9,274.3 394.3,281 407.3,288.8 417.2,299.5 427,310.3 433.3,322 420.6,324.3 
							399.1,301 390.4,292.6 375.5,284.8 357.8,278.8 342.6,277.1 315.7,283.2 336.5,273.6 						"/>
						
							<linearGradient id="SVGID_52_" gradientUnits="userSpaceOnUse" x1="441.3213" y1="338.5363" x2="419.7358" y2="315.9391" gradientTransform="matrix(1 0 0 1 0 0.8)">
							<stop  offset="0.2638" style="stop-color:#465A65"/>
							<stop  offset="1" style="stop-color:#0F1C21"/>
						</linearGradient>
						<polygon class="st60" points="410.2,318 432.8,314.8 443.3,332.1 439.4,340.6 423.6,336.5 						"/>
						<g>
							<polygon class="st61" points="344.3,277.2 342.6,277.1 362,271.5 363.1,271.8 							"/>
						</g>
						<g>
							<polygon class="st61" points="359.1,279.3 357.8,278.8 379.9,274.3 381,274.8 							"/>
						</g>
						<g>
							<polygon class="st61" points="376.5,285.2 375.6,284.8 393.7,280.6 394.6,281.3 							"/>
						</g>
						<g>
							<polygon class="st61" points="391.5,293.6 390.4,292.6 407.3,288.8 408,289.8 							"/>
						</g>
						<g>
							<polygon class="st61" points="400.2,302.2 399.1,301 415.9,298 416.8,299 							"/>
						</g>
					</g>
					<g>
						
							<linearGradient id="SVGID_53_" gradientUnits="userSpaceOnUse" x1="313.1723" y1="657.2706" x2="483.4735" y2="543.345" gradientTransform="matrix(0.9943 0.1068 -0.1068 0.9943 76.8248 -293.7175)">
							<stop  offset="0" style="stop-color:#6B6C6F"/>
							<stop  offset="0.3157" style="stop-color:#CFD0D2"/>
							<stop  offset="0.7166" style="stop-color:#A6A8AB"/>
							<stop  offset="0.7463" style="stop-color:#AAACAF"/>
							<stop  offset="0.8691" style="stop-color:#B5B7B9"/>
							<stop  offset="1" style="stop-color:#B9BBBD"/>
						</linearGradient>
						<polygon class="st62" points="298.8,326 304.6,349 333.2,380.8 359.6,402.8 403.7,418.8 464.5,417.8 514.6,399.5 547.7,383.3 
							565.8,354.1 552.8,347.8 528.1,335.5 494.7,337.8 420.6,341.2 415.8,327.6 398.1,306.6 363.3,280.8 325.6,278.8 301.9,297.3 
													"/>
						
							<linearGradient id="SVGID_54_" gradientUnits="userSpaceOnUse" x1="513.4446" y1="958.0316" x2="601.3672" y2="958.0316" gradientTransform="matrix(0.9674 0.2533 -0.2533 0.9674 238.8693 -697.7778)">
							<stop  offset="0" style="stop-color:#293942"/>
							<stop  offset="1" style="stop-color:#0F1B21"/>
						</linearGradient>
						<path class="st63" d="M498.7,337c0,0,8.2,8.4,14.6,24.2c5.5,13.5,4.5,37.2,4.5,37.2l25.1,4.5l35.9-24.7l-28.9-35.9l-22.9-7
							L498.7,337z"/>
						
							<linearGradient id="SVGID_55_" gradientUnits="userSpaceOnUse" x1="5230.4258" y1="-506.1151" x2="5288.9941" y2="-506.1151" gradientTransform="matrix(-0.9447 0.3281 0.3281 0.9447 5591.9321 -899.8414)">
							<stop  offset="0" style="stop-color:#3B2314"/>
							<stop  offset="1" style="stop-color:#754C28"/>
						</linearGradient>
						<polygon class="st64" points="475.6,336.5 490.1,354.1 489,359 436.7,361 424,342 425.3,336.5 						"/>
						
							<linearGradient id="SVGID_56_" gradientUnits="userSpaceOnUse" x1="5243.624" y1="-496.6498" x2="5292.0566" y2="-473.5652" gradientTransform="matrix(-0.9479 0.3187 0.3187 0.9479 5604.9141 -872.9765)">
							<stop  offset="0" style="stop-color:#5B3427"/>
							<stop  offset="0.1638" style="stop-color:#914625"/>
							<stop  offset="0.3408" style="stop-color:#C55723"/>
							<stop  offset="0.4745" style="stop-color:#E56122"/>
							<stop  offset="0.5481" style="stop-color:#F16522"/>
							<stop  offset="0.7011" style="stop-color:#F28F3F"/>
							<stop  offset="0.8876" style="stop-color:#ED693C"/>
							<stop  offset="1" style="stop-color:#E83E39"/>
						</linearGradient>
						<polygon class="st65" points="475.6,336.5 490.1,354.1 438.1,355.6 425.3,336.5 						"/>
						<g>
							
								<linearGradient id="SVGID_57_" gradientUnits="userSpaceOnUse" x1="390.4446" y1="-39.1698" x2="459.8044" y2="-39.1698" gradientTransform="matrix(1.0143 -0.1482 0.1365 1.0315 -85.2855 430.9197)">
								<stop  offset="0" style="stop-color:#F3A98C"/>
								<stop  offset="0.8597" style="stop-color:#929497"/>
								<stop  offset="1" style="stop-color:#3E515C"/>
							</linearGradient>
							<polygon class="st66" points="328.3,367 304.8,328.1 301.7,298.5 326.4,279.5 349.5,281.5 367.7,301.3 375.9,324.2 
								377.2,333.3 368.6,367.1 355.6,375.3 							"/>
							
								<linearGradient id="SVGID_58_" gradientUnits="userSpaceOnUse" x1="286.4181" y1="609.3956" x2="358.3745" y2="570.1089" gradientTransform="matrix(0.9943 0.1068 -0.1068 0.9943 76.8248 -293.7175)">
								<stop  offset="0" style="stop-color:#E8CFBE"/>
								<stop  offset="0.6682" style="stop-color:#D0D2D3"/>
								<stop  offset="0.9974" style="stop-color:#BEB0AD"/>
							</linearGradient>
							<polygon class="st67" points="308,347.5 302.3,331.8 301.7,298.5 313.1,285.3 325.8,279.5 345.6,281 345.6,281 364.3,303.5 
								372,333.3 363.1,364 353.4,370.3 328.3,367 							"/>
							<g>
								
									<linearGradient id="SVGID_59_" gradientUnits="userSpaceOnUse" x1="304.5592" y1="588.87" x2="341.8473" y2="588.87" gradientTransform="matrix(0.9943 0.1068 -0.1068 0.9943 76.8248 -293.7175)">
									<stop  offset="0" style="stop-color:#4E5663"/>
									<stop  offset="0.6682" style="stop-color:#283841"/>
									<stop  offset="1" style="stop-color:#0F1B21"/>
								</linearGradient>
								<path class="st68" d="M322.7,334c-6.5-13-7.1-26.1,1.6-31.3c3.6-2.2,7.5-1.9,11-0.1l0.5,7.4c-2.7-1.4-5.3-1.9-8.1-0.3
									c-5.1,3-4.4,11.8-0.4,19.8c0.3,0.4,0.4,0.8,0.6,1.3c-0.1-3.9,1.3-9.1,4.8-11.3c5.3-3.2,12.5-1,17.3,8.6
									c4.2,8.3,3.2,17.8-3.4,22C337.9,355.2,329,346.5,322.7,334z M344.9,331.5c-2.7-5.6-6.9-6.4-10.1-4.4c-2.6,1.6-4,5.1-3.9,9.2
									c2.7,4.7,7.4,9.4,12,6.6C346.9,340.6,346.6,335.1,344.9,331.5z"/>
							</g>
						</g>
					</g>
				</g>
			</g>
		</g>
	</g>
</g>
<g>
	
		<linearGradient id="SVGID_60_" gradientUnits="userSpaceOnUse" x1="5449.7065" y1="210.0763" x2="5374.1895" y2="369.335" gradientTransform="matrix(-1 0 -0.364 1 6330.9741 0.8)">
		<stop  offset="0" style="stop-color:#1C292E"/>
		<stop  offset="1" style="stop-color:#0F1C21"/>
	</linearGradient>
	<polygon class="st69" points="642,252.2 645.1,256.6 600.4,356.5 999.6,356.5 1040.7,254.6 1068.9,254.6 1072,259 1027.8,356.5 
		1020.4,375 1017.5,382.3 564.9,386.8 561.8,382.3 563.5,378.3 572,356.5 613.8,252.2 	"/>
	<g>
		<path class="st70" d="M584.1,374h427.3l139.1-349.5c0.9-2.3-0.4-4.3-3-4.3H728.8c-2.1,0-4.4,1.6-5.1,3.4L584.1,374z"/>
		<path class="st71" d="M584.1,374h427.3l139.1-349.5c0.9-2.3-0.4-4.3-3-4.3H729.7c-2.6,0-5.3,1.9-6.2,4.2L584.1,374z"/>
		<g>
			<g class="st72">
				<polygon class="st73" points="963.8,338.5 985.8,338.5 1101.6,47.9 1079.7,47.9 				"/>
				<polygon class="st73" points="934.2,338.5 956.2,338.5 1072,47.9 1050,47.9 				"/>
				<polygon class="st73" points="904.6,338.5 926.7,338.5 1042.4,47.9 1020.4,47.9 				"/>
				<polygon class="st73" points="874.9,338.5 897,338.5 1012.7,47.9 990.7,47.9 				"/>
				<polygon class="st73" points="845.3,338.5 867.4,338.5 983.1,47.9 961.1,47.9 				"/>
				<polygon class="st73" points="815.6,338.5 837.7,338.5 953.4,47.9 931.5,47.9 				"/>
				<polygon class="st73" points="786.1,338.5 808.1,338.5 923.8,47.9 901.8,47.9 				"/>
				<polygon class="st73" points="756.5,338.5 778.5,338.5 894.2,47.9 872.2,47.9 				"/>
				<polygon class="st73" points="726.9,338.5 748.8,338.5 864.5,47.9 842.6,47.9 				"/>
				<polygon class="st73" points="697.2,338.5 719.2,338.5 834.9,47.9 812.9,47.9 				"/>
				<polygon class="st73" points="667.6,338.5 689.6,338.5 805.2,47.9 783.3,47.9 				"/>
				<polygon class="st73" points="638.1,338.5 659.9,338.5 775.7,47.9 753.6,47.9 				"/>
			</g>
			<g>
				<polygon class="st74" points="742.7,76.3 1090.3,76.3 1097.2,59.1 749.6,59.1 				"/>
				<polygon class="st75" points="1058.3,101.2 1080.3,101.2 1087.2,84.2 1065.1,84.2 				"/>
				<polygon class="st75" points="999.5,249.2 1021.4,249.2 1028.2,232.1 1006.2,232.1 				"/>
				<polygon class="st75" points="959.9,274 981.9,274 988.8,256.8 966.7,256.8 				"/>
				<polygon class="st75" points="920.4,298.8 942.5,298.8 949.3,281.5 927.3,281.5 				"/>
				<polygon class="st75" points="880.8,324 902.7,324 909.5,307 887.5,307 				"/>
				<polygon class="st74" points="732.5,101.2 1050.7,101.2 1057.4,84.2 739.2,84.2 				"/>
				<polygon class="st75" points="1018.7,126.3 1070.4,126.3 1077.2,109.3 1025.6,109.3 				"/>
				<polygon class="st74" points="722.4,126.3 1011.2,126.3 1017.9,109.3 729.2,109.3 				"/>
				<polygon class="st75" points="979.2,151.4 1060.4,151.4 1067.2,134.4 985.9,134.4 				"/>
				<polygon class="st74" points="712.4,151.4 971.5,151.4 978.3,134.4 719.2,134.4 				"/>
				<polygon class="st75" points="939.9,175.5 1050.8,175.5 1057.7,158.3 946.7,158.3 				"/>
				<polygon class="st74" points="702.9,175.5 932.3,175.5 939.1,158.3 709.7,158.3 				"/>
				<polygon class="st75" points="900.8,199.5 1041.3,199.5 1048.1,182.4 907.6,182.4 				"/>
				<polygon class="st74" points="693.3,199.5 893.1,199.5 899.9,182.4 700.1,182.4 				"/>
				<polygon class="st75" points="861.1,224.5 1031.3,224.5 1038.1,207.4 867.9,207.4 				"/>
				<polygon class="st74" points="683.3,224.5 853.5,224.5 860.2,207.4 690.1,207.4 				"/>
			</g>
		</g>
	</g>
	
		<linearGradient id="SVGID_61_" gradientUnits="userSpaceOnUse" x1="5164.9707" y1="320.9" x2="5625.5879" y2="320.9" gradientTransform="matrix(-1 0 -0.364 1 6330.9741 0.8)">
		<stop  offset="0" style="stop-color:#293942"/>
		<stop  offset="1" style="stop-color:#0F1C21"/>
	</linearGradient>
	<polygon class="st76" points="645.1,256.6 603.4,361 1002.7,361 1043.8,259 1072,259 1030.9,361 1023.5,379.5 1020.6,386.8 
		564.9,386.8 566.6,382.8 575.2,361 616.8,256.6 	"/>
</g>
</svg>
