<?xml version="1.0" encoding="utf-8"?>
<!-- Generator: Adobe Illustrator 17.0.2, SVG Export Plug-In . SVG Version: 6.00 Build 0)  -->
<!DOCTYPE svg PUBLIC "-//W3C//DTD SVG 1.1//EN" "http://www.w3.org/Graphics/SVG/1.1/DTD/svg11.dtd">
<svg version="1.1" id="Layer_1" xmlns="http://www.w3.org/2000/svg" xmlns:xlink="http://www.w3.org/1999/xlink" x="0px" y="0px"
	 width="224.3px" height="224.3px" viewBox="0 0 224.3 224.3" enable-background="new 0 0 224.3 224.3" xml:space="preserve">
<path fill="#028CB9" d="M112.2,0C50.2,0,0,50.2,0,112.2s50.2,112.2,112.2,112.2s112.2-50.3,112.2-112.2S174.1,0,112.2,0z"/>
<path fill="#2DAEBF" d="M3057.6,845.2c-62,0-112.2,50.2-112.2,112.2s50.2,112.2,112.2,112.2s112.2-50.3,112.2-112.2
	S3119.5,845.2,3057.6,845.2z"/>
<g>
	<path fill="#FFFFFF" d="M3046.9,980.8l-4,4c-3.5,3.5-9.2,3.5-12.7,0c-1.7-1.7-2.6-3.9-2.6-6.3c0-2.4,0.9-4.6,2.6-6.3l14.9-14.8
		c3.1-3.1,8.9-7.6,13.1-3.4c1.9,1.9,5.1,1.9,7,0s1.9-5.1,0-7c-7.2-7.1-17.8-5.8-27.1,3.4l-14.9,14.8c-3.6,3.5-5.5,8.3-5.5,13.3
		s2,9.7,5.5,13.3c3.7,3.7,8.5,5.5,13.3,5.5s9.7-1.8,13.3-5.5l4.1-4c1.9-1.9,2-5.1,0-7C3052,978.9,3048.9,978.9,3046.9,980.8z
		 M3092.1,923.4c-7.7-7.7-18.5-8.1-25.7-1l-5,5c-1.9,1.9-2,5.1,0,7c1.9,1.9,5.1,2,7,0l5-5c3.7-3.7,8.6-2.2,11.7,1
		c1.7,1.7,2.6,3.9,2.6,6.3c0,2.4-0.9,4.6-2.6,6.3l-15.9,15.8c-7.3,7.2-10.7,3.8-12.1,2.4c-1.9-1.9-5.1-1.9-7,0s-1.9,5.1,0,7
		c3.3,3.3,7.1,5,11.1,5c4.9,0,10.1-2.5,15-7.3l15.9-15.8c3.6-3.5,5.5-8.3,5.5-13.3C3097.6,931.6,3095.7,926.9,3092.1,923.4z"/>
</g>
<path fill="#FFFFFF" d="M140.034,90.081c-1.472,0-2.914,0.127-4.317,0.363c-3.504-11.453-14.356-19.8-27.208-19.8
	c-15.687,0-28.401,12.431-28.401,27.767c0,1.368,0.106,2.714,0.302,4.03c-0.753-0.086-1.514-0.144-2.29-0.144
	c-10.666,0-19.313,8.453-19.313,18.879c0,10.426,8.647,18.88,19.313,18.88h61.914c14.118,0,25.56-11.188,25.56-24.989
	C165.594,101.27,154.152,90.081,140.034,90.081z"/>
<g>
	<g>
		<path fill="#028CB9" d="M100.963,107.904c-0.47-0.442-1.106-0.442-1.576,0l-8.173,7.353l8.173,7.352
			c0.471,0.443,1.106,0.443,1.576,0c0.471-0.443,0.471-1.161,0-1.604l-6.345-5.748l6.345-5.748
			C101.434,109.066,101.434,108.348,100.963,107.904z"/>
		<path fill="#028CB9" d="M100.175,124.441c-0.664,0-1.308-0.263-1.815-0.738l-9.388-8.446l9.412-8.468
			c0.968-0.91,2.595-0.931,3.608,0.023c0.525,0.495,0.826,1.186,0.825,1.896c0,0.71-0.301,1.4-0.825,1.893l-5.139,4.656l5.118,4.637
			c0.545,0.513,0.846,1.203,0.846,1.914c0,0.71-0.301,1.4-0.825,1.894C101.484,124.178,100.84,124.441,100.175,124.441z"/>
	</g>
	<g>
		<path fill="#028CB9" d="M116.666,102.266c-0.628-0.15-1.179,0.166-1.368,0.784l-8.011,23.817c-0.15,0.629,0.166,1.18,0.784,1.368
			c0.618,0.188,1.242-0.169,1.392-0.798l8.001-23.779C117.652,103.04,117.295,102.417,116.666,102.266z"/>
		<path fill="#028CB9" d="M108.404,129.785L108.404,129.785c-0.26,0-0.52-0.039-0.771-0.116c-1.381-0.419-2.141-1.744-1.805-3.15
			l0.037-0.13l8.011-23.817c0.398-1.309,1.755-2.094,3.14-1.764c0.7,0.168,1.304,0.618,1.657,1.234
			c0.353,0.616,0.436,1.364,0.227,2.053l-7.998,23.771C110.593,128.999,109.577,129.785,108.404,129.785z"/>
	</g>
	<g>
		<path fill="#028CB9" d="M125.013,107.904c-0.471-0.442-1.106-0.442-1.576,0c-0.471,0.444-0.445,1.162,0.026,1.604l6.32,5.748
			l-6.32,5.748c-0.471,0.443-0.496,1.161-0.026,1.604c0.471,0.443,1.106,0.443,1.576,0l8.173-7.352L125.013,107.904z"/>
		<path fill="#028CB9" d="M124.224,124.441c-0.664,0-1.309-0.263-1.815-0.739c-0.524-0.494-0.813-1.158-0.813-1.871
			c0-0.718,0.306-1.417,0.838-1.918l5.119-4.656l-5.1-4.638c-0.552-0.518-0.856-1.217-0.857-1.934c0-0.713,0.288-1.378,0.812-1.872
			c1.018-0.956,2.619-0.954,3.633-0.002l9.389,8.446l-9.413,8.468C125.533,124.178,124.888,124.441,124.224,124.441z"/>
	</g>
</g>
</svg>
