<?xml version="1.0" encoding="utf-8"?>
<!-- Generator: Adobe Illustrator 17.0.2, SVG Export Plug-In . SVG Version: 6.00 Build 0)  -->
<!DOCTYPE svg PUBLIC "-//W3C//DTD SVG 1.1//EN" "http://www.w3.org/Graphics/SVG/1.1/DTD/svg11.dtd">
<svg version="1.1" xmlns="http://www.w3.org/2000/svg" xmlns:xlink="http://www.w3.org/1999/xlink" x="0px" y="0px"
	 width="718.848px" height="559.029px" viewBox="-0.091 0 718.848 559.029" enable-background="new -0.091 0 718.848 559.029"
	 xml:space="preserve">
<g id="Layer_1">
	<g>
		<path fill="#CED4D7" d="M654.809,441.5c0,9.1-7.4,16.5-16.5,16.5h-621.9c-9.1,0-16.5-7.5-16.5-16.5v-425c0-9.1,7.4-16.5,16.5-16.5
			h621.9c9.1,0,16.5,7.4,16.5,16.5V441.5z"/>
	</g>
	<path fill="#435159" d="M654.809,16.5v372.8h-654.9V16.5c0-9.1,7.4-16.5,16.5-16.5h621.9C647.409,0,654.809,7.4,654.809,16.5z"/>
	<path fill="#CED4D7" d="M412.2,448.8c0-34.3-63.5-11.5-84.7-2.9c-21.2-8.6-84.7-31.4-84.7,2.9c0,59.5-36.6,109.9-36.6,109.9h114.5
		h13.7h114.5C448.8,558.7,412.2,508.3,412.2,448.8z"/>
	<path fill="#CED4D7" d="M416.5,485.4H238.4c2-8.7,3.5-18,4-27.5h170.1C413,467.5,414.5,476.7,416.5,485.4z"/>
	<rect x="196.9" y="545" fill="#9EADB3" width="261" height="13.7"/>
	<path opacity="0.3" fill="#9EADB3" enable-background="new    " d="M416.5,485.4H238.4c2-8.7,3.5-18,4-27.5h170.1
		C413,467.5,414.5,476.7,416.5,485.4z"/>
	<rect x="31.859" y="31.8" fill="#FFFFFF" width="591" height="325.1"/>
</g>
<g id="Layer_2">
	<g>
		<defs>
			<rect id="SVGID_1_" x="36.95" y="40.167" width="577" height="316.733"/>
		</defs>
		<clipPath id="SVGID_2_">
			<use xlink:href="#SVGID_1_"  overflow="visible"/>
		</clipPath>
		<rect x="57.474" y="58.108" clip-path="url(#SVGID_2_)" fill="#ECECEC" width="538.878" height="400.625"/>
		<rect x="54.45" y="58.108" clip-path="url(#SVGID_2_)" fill="#CED4D6" width="541.903" height="24.972"/>
		<g clip-path="url(#SVGID_2_)">
			<path fill="#CED4D6" d="M86.43,237.573c0,3.37,2.9,6.259,6.284,6.259h459.198c3.384,0,6.284-2.889,6.284-6.259V120.465
				c0-3.37-2.9-6.259-6.284-6.259H92.714c-3.384,0-6.284,2.889-6.284,6.259L86.43,237.573L86.43,237.573z"/>
			<path fill="#CED4D6" d="M86.43,237.573c0,3.37,2.9,6.259,6.284,6.259h459.198c3.384,0,6.284-2.889,6.284-6.259V120.465
				c0-3.37-2.9-6.259-6.284-6.259H92.714c-3.384,0-6.284,2.889-6.284,6.259L86.43,237.573L86.43,237.573z"/>
		</g>
		
			<rect x="56.625" y="58.108" clip-path="url(#SVGID_2_)" fill="none" stroke="#CED4D6" stroke-width="9" stroke-linecap="round" stroke-linejoin="round" stroke-miterlimit="10" width="537.552" height="404.441"/>
		<ellipse clip-path="url(#SVGID_2_)" fill="#ECECEC" cx="75.17" cy="68.188" rx="5.424" ry="5.402"/>
		<ellipse clip-path="url(#SVGID_2_)" fill="#ECECEC" cx="91.853" cy="68.188" rx="5.424" ry="5.402"/>
		<ellipse clip-path="url(#SVGID_2_)" fill="#ECECEC" cx="108.536" cy="68.188" rx="5.424" ry="5.402"/>
		<path clip-path="url(#SVGID_2_)" fill="#CED4D6" d="M213.463,278.26c0-1.105-0.895-2-2-2h-75.002c-1.105,0-2,0.895-2,2v6
			c0,1.105,0.895,2,2,2h75.002c1.105,0,2-0.895,2-2V278.26z"/>
		<path clip-path="url(#SVGID_2_)" fill="#CED4D6" d="M203.471,314.26c0-1.105-0.895-2-2-2h-65.01c-1.105,0-2,0.895-2,2v6
			c0,1.105,0.895,2,2,2h65.01c1.105,0,2-0.895,2-2V314.26z"/>
		<path clip-path="url(#SVGID_2_)" fill="#CED4D6" d="M223.463,296.26c0-1.105-0.895-2-2-2h-85.002c-1.105,0-2,0.895-2,2v6
			c0,1.105,0.895,2,2,2h85.002c1.105,0,2-0.895,2-2V296.26z"/>
		<circle clip-path="url(#SVGID_2_)" fill="#CED4D6" cx="103.868" cy="290.979" r="17.439"/>
		<polygon clip-path="url(#SVGID_2_)" fill="#ECECEC" points="103.868,282.734 106.292,287.644 111.71,288.431 107.789,292.253 
			108.715,297.65 103.868,295.102 99.022,297.65 99.947,292.253 96.026,288.431 101.445,287.644 		"/>
		<path clip-path="url(#SVGID_2_)" fill="#CED4D6" d="M375.826,278.26c0-1.105-0.895-2-2-2h-75.002c-1.105,0-2,0.895-2,2v6
			c0,1.105,0.895,2,2,2h75.002c1.105,0,2-0.895,2-2V278.26z"/>
		<path clip-path="url(#SVGID_2_)" fill="#CED4D6" d="M365.834,314.26c0-1.105-0.895-2-2-2h-65.01c-1.105,0-2,0.895-2,2v6
			c0,1.105,0.895,2,2,2h65.01c1.105,0,2-0.895,2-2V314.26z"/>
		<path clip-path="url(#SVGID_2_)" fill="#CED4D6" d="M385.826,296.26c0-1.105-0.895-2-2-2h-85.002c-1.105,0-2,0.895-2,2v6
			c0,1.105,0.895,2,2,2h85.002c1.105,0,2-0.895,2-2V296.26z"/>
		<circle clip-path="url(#SVGID_2_)" fill="#CED4D6" cx="266.231" cy="290.979" r="17.439"/>
		<path clip-path="url(#SVGID_2_)" fill="#CED4D6" d="M537.87,278.76c0-1.105-0.895-2-2-2h-75.002c-1.105,0-2,0.895-2,2v6
			c0,1.105,0.895,2,2,2h75.002c1.105,0,2-0.895,2-2V278.76z"/>
		<path clip-path="url(#SVGID_2_)" fill="#CED4D6" d="M527.878,314.76c0-1.105-0.895-2-2-2h-65.01c-1.105,0-2,0.895-2,2v6
			c0,1.105,0.895,2,2,2h65.01c1.105,0,2-0.895,2-2V314.76z"/>
		<path clip-path="url(#SVGID_2_)" fill="#CED4D6" d="M547.87,296.76c0-1.105-0.895-2-2-2h-85.002c-1.105,0-2,0.895-2,2v6
			c0,1.105,0.895,2,2,2h85.002c1.105,0,2-0.895,2-2V296.76z"/>
		<circle clip-path="url(#SVGID_2_)" fill="#CED4D6" cx="428.275" cy="291.479" r="17.439"/>
		
			<rect x="261.487" y="286.235" transform="matrix(0.7071 -0.7071 0.7071 0.7071 -127.7761 273.4794)" clip-path="url(#SVGID_2_)" fill="#ECECEC" width="9.488" height="9.488"/>
		<g clip-path="url(#SVGID_2_)">
			<path fill="#ECECEC" d="M434.14,287.421c-1.364-1.252-3.575-1.252-4.939,0l-0.926,0.85l-0.926-0.85
				c-1.364-1.252-3.575-1.252-4.939,0c-1.535,1.408-1.535,3.692,0,5.1l5.866,5.383l5.866-5.383
				C435.675,291.113,435.675,288.829,434.14,287.421z"/>
		</g>
	</g>
</g>
<g id="Layer_3">
	<g opacity="0.3">
		<path fill="#9EAEB4" d="M691.214,288.381v168.904H559.16V302.97c0-8.049,7.169-15.469,15.343-15.469h114.07
			C689.579,287.375,689.956,288.13,691.214,288.381z"/>
	</g>
	<g>
		<g>
			<path fill="#44525A" d="M718.757,544.063c0,8.175-6.163,14.966-14.212,14.966h-114.07c-8.175,0-14.84-6.917-14.84-14.966V302.97
				c0-8.175,6.791-14.966,14.84-14.966h114.07c8.175,0,14.212,6.791,14.212,14.966V544.063L718.757,544.063z"/>
		</g>
		<g opacity="0.2">
			<path fill="#FFFFFF" d="M647.448,544.063c-6.037,0-10.942-4.905-10.942-10.942c0-6.037,4.905-10.942,10.942-10.942
				c6.037,0,10.942,4.905,10.942,10.942C658.389,539.158,653.484,544.063,647.448,544.063z"/>
		</g>
	</g>
	<g>
		<defs>
			<path id="SVGID_3_" d="M705.866,323.344c0-2.515-2.012-4.653-4.653-4.653H593.18c-2.515,0-4.653,2.012-4.653,4.653v181.103
				c0,2.515,2.012,4.653,4.653,4.653h108.033c2.515,0,4.653-2.012,4.653-4.653V323.344z"/>
		</defs>
		<clipPath id="SVGID_4_">
			<use xlink:href="#SVGID_3_"  overflow="visible"/>
		</clipPath>
		<rect x="583.499" y="314.35" clip-path="url(#SVGID_4_)" fill="#ECECEC" width="129.5" height="200.5"/>
		<rect x="588.531" y="318.691" clip-path="url(#SVGID_4_)" fill="#CED4D6" width="117.335" height="15.776"/>
		<g clip-path="url(#SVGID_4_)">
			<path fill="#CED4D6" d="M600.907,432.152c0,2.16,1.859,4.012,4.028,4.012h83.337c2.169,0,4.028-1.852,4.028-4.012v-81.479
				c0-2.16-1.859-4.012-4.028-4.012h-83.337c-2.169,0-4.028,1.852-4.028,4.012L600.907,432.152L600.907,432.152z"/>
			<path fill="#CED4D6" d="M600.907,432.152c0,2.16,1.859,4.012,4.028,4.012h83.337c2.169,0,4.028-1.852,4.028-4.012v-81.479
				c0-2.16-1.859-4.012-4.028-4.012h-83.337c-2.169,0-4.028,1.852-4.028,4.012L600.907,432.152L600.907,432.152z"/>
		</g>
		<ellipse clip-path="url(#SVGID_4_)" fill="#ECECEC" cx="599.92" cy="326.579" rx="3.292" ry="3.278"/>
		<ellipse clip-path="url(#SVGID_4_)" fill="#ECECEC" cx="610.045" cy="326.579" rx="3.292" ry="3.278"/>
		<ellipse clip-path="url(#SVGID_4_)" fill="#ECECEC" cx="620.169" cy="326.579" rx="3.292" ry="3.278"/>
		<path clip-path="url(#SVGID_4_)" fill="#CED4D6" d="M685.89,455.898c0-0.708-0.574-1.282-1.282-1.282h-52.565
			c-0.708,0-1.282,0.574-1.282,1.282v3.846c0,0.708,0.574,1.282,1.282,1.282h52.565c0.708,0,1.282-0.574,1.282-1.282V455.898z"/>
		<path clip-path="url(#SVGID_4_)" fill="#CED4D6" d="M679.485,478.973c0-0.708-0.574-1.282-1.282-1.282h-46.16
			c-0.708,0-1.282,0.574-1.282,1.282v3.846c0,0.708,0.574,1.282,1.282,1.282h46.16c0.708,0,1.282-0.574,1.282-1.282V478.973z"/>
		<path clip-path="url(#SVGID_4_)" fill="#CED4D6" d="M692.3,467.435c0-0.708-0.574-1.282-1.282-1.282h-58.974
			c-0.708,0-1.282,0.574-1.282,1.282v3.846c0,0.708,0.574,1.282,1.282,1.282h58.974c0.708,0,1.282-0.574,1.282-1.282V467.435z"/>
		<circle clip-path="url(#SVGID_4_)" fill="#CED4D6" cx="611.282" cy="464.051" r="11.178"/>
		<polygon clip-path="url(#SVGID_4_)" fill="#ECECEC" points="611.282,458.765 612.836,461.913 616.309,462.417 613.796,464.867 
			614.389,468.326 611.282,466.693 608.176,468.326 608.769,464.867 606.256,462.417 609.729,461.913 		"/>
	</g>
</g>
</svg>
