<?xml version="1.0" encoding="utf-8"?>
<!-- Generator: Adobe Illustrator 17.0.2, SVG Export Plug-In . SVG Version: 6.00 Build 0)  -->
<!DOCTYPE svg PUBLIC "-//W3C//DTD SVG 1.1//EN" "http://www.w3.org/Graphics/SVG/1.1/DTD/svg11.dtd">
<svg version="1.1" id="Layer_1" xmlns="http://www.w3.org/2000/svg" xmlns:xlink="http://www.w3.org/1999/xlink" x="0px" y="0px"
	 width="224.3px" height="224.3px" viewBox="0 0 224.3 224.3" enable-background="new 0 0 224.3 224.3" xml:space="preserve">
<path fill="#028CB9" d="M112.2,0C50.2,0,0,50.2,0,112.2s50.2,112.2,112.2,112.2s112.2-50.3,112.2-112.2S174.1,0,112.2,0z"/>
<path fill="#2DAEBF" d="M3057.6,845.2c-62,0-112.2,50.2-112.2,112.2s50.2,112.2,112.2,112.2s112.2-50.3,112.2-112.2
	S3119.5,845.2,3057.6,845.2z"/>
<g>
	<path fill="#FFFFFF" d="M3046.9,980.8l-4,4c-3.5,3.5-9.2,3.5-12.7,0c-1.7-1.7-2.6-3.9-2.6-6.3c0-2.4,0.9-4.6,2.6-6.3l14.9-14.8
		c3.1-3.1,8.9-7.6,13.1-3.4c1.9,1.9,5.1,1.9,7,0s1.9-5.1,0-7c-7.2-7.1-17.8-5.8-27.1,3.4l-14.9,14.8c-3.6,3.5-5.5,8.3-5.5,13.3
		s2,9.7,5.5,13.3c3.7,3.7,8.5,5.5,13.3,5.5s9.7-1.8,13.3-5.5l4.1-4c1.9-1.9,2-5.1,0-7C3052,978.9,3048.9,978.9,3046.9,980.8z
		 M3092.1,923.4c-7.7-7.7-18.5-8.1-25.7-1l-5,5c-1.9,1.9-2,5.1,0,7c1.9,1.9,5.1,2,7,0l5-5c3.7-3.7,8.6-2.2,11.7,1
		c1.7,1.7,2.6,3.9,2.6,6.3c0,2.4-0.9,4.6-2.6,6.3l-15.9,15.8c-7.3,7.2-10.7,3.8-12.1,2.4c-1.9-1.9-5.1-1.9-7,0s-1.9,5.1,0,7
		c3.3,3.3,7.1,5,11.1,5c4.9,0,10.1-2.5,15-7.3l15.9-15.8c3.6-3.5,5.5-8.3,5.5-13.3C3097.6,931.6,3095.7,926.9,3092.1,923.4z"/>
</g>
<g enable-background="new    ">
	<path fill="#FFFFFF" d="M87.386,120.833l-3.398-11.164l-3.36,11.164h-6.198l-5.339-18.034h5.899l2.913,11.052l3.547-11.052h5.116
		l3.547,11.052l2.875-11.052h5.937l-5.339,18.034H87.386z"/>
	<path fill="#FFFFFF" d="M120.205,120.833l-3.397-11.164l-3.36,11.164h-6.198l-5.339-18.034h5.899l2.913,11.052l3.547-11.052h5.115
		l3.547,11.052l2.875-11.052h5.937l-5.339,18.034H120.205z"/>
	<path fill="#FFFFFF" d="M153.023,120.833l-3.397-11.164l-3.36,11.164h-6.198l-5.339-18.034h5.899l2.912,11.052l3.547-11.052h5.115
		l3.548,11.052l2.875-11.052h5.937l-5.34,18.034H153.023z"/>
</g>
<path fill="none" stroke="#FFFFFF" stroke-width="5.1875" stroke-miterlimit="10" d="M169.641,83.675H63.736
	c-5.014,0-9.077,4.064-9.077,9.077v36.893c0,5.014,4.064,9.077,9.077,9.077h105.906"/>
</svg>
