<?xml version="1.0" encoding="utf-8"?>
<!-- Generator: Adobe Illustrator 19.1.0, SVG Export Plug-In . SVG Version: 6.00 Build 0)  -->
<svg version="1.1" id="Layer_1" xmlns="http://www.w3.org/2000/svg" xmlns:xlink="http://www.w3.org/1999/xlink" x="0px" y="0px"
	 viewBox="106 89.5 852 673.9" enable-background="new 106 89.5 852 673.9" xml:space="preserve">
<rect x="-150" y="35" fill="#183638" width="1197" height="810"/>
<g>
	<path fill="#178DBB" d="M414,194.5c47.4,57.6,38,141.7-20.9,188c-58.9,46.3-145.1,37.1-192.5-20.4s-38-141.7,20.9-188
		S366.7,137,414,194.5z"/>
	<path fill="#45A4C9" d="M246.7,216c-7.7,5.6-19.9,4.5-24.1-1s-1.4-14.5,6.4-20c7.7-5.6,17.3-5.6,21.4-0.2
		C254.5,200.3,254.4,210.4,246.7,216z"/>
	<path fill="#45A4C9" d="M432.8,303.8c-11.8,18.5-47.7,2.2-76.5-15.4c-28.8-17.5-40.1-37.4-28.2-56c11.8-18.5,49.1-33,77.8-15.4
		C434.8,234.7,444.7,285.2,432.8,303.8z"/>
	<path fill="#43525A" d="M315.6,265.4c-41-26.5-71.1-63.9-98.2-87.3c-1.2-0.7-2.1-2.6-1.5-3.7l13.6-10.8c0.8-1.1,2.7-2.1,3.8-1.4
		c28.6,23.6,53.5,59.4,94.6,84.3c41.7,25.3,78.2,49.4,113.1,64.1c0.2,0,0.9,0.6,1.1,1.5c0.2,0.6,0.1,1.3-0.3,1.9l-6.2,16.1
		c-0.4,1.1-1.4,1.7-2.6,1.3C397.5,318.3,333.6,277.1,315.6,265.4z"/>
	<path fill="#384449" d="M342.5,282.5l-7.1-4.7l12.1-16.9l2-0.5c0.9,0.7,9.5,4.7,8.7,5.4L342.5,282.5z"/>
	<polygon fill="#384449" points="417.2,323.8 410,321.4 423.4,303.5 429.2,305.8 	"/>
	<g>
		<path fill="#157CA3" d="M420.5,306.8l-3.3,10c-10.5,15.7-23.3,22.3-31.4,22.3c-8-0.1-30.4-12.3-38.2-19.5
			c-6.7-6.2-14.7-10.5-8.1-34.8"/>
		<path fill="#43525A" d="M372.6,329.3l-20.2-12.7c-14.2-9-18.3-27.5-9.1-41.3l6.3-9.5c9.2-13.8,28.2-17.8,42.3-8.9l20.2,12.7
			c14.2,9,18.3,27.5,9.1,41.3l-6.3,9.5C405.8,334.2,386.9,338.2,372.6,329.3z"/>
		<path fill="#DBE0E1" stroke="#DBE0E1" stroke-width="4" stroke-miterlimit="10" d="M379.6,318.6l-20-12.6
			c-9.1-5.8-11.8-17.7-5.9-26.6l4-6.1c5.9-8.9,18.2-11.5,27.3-5.7l20,12.6c9.1,5.8,11.8,17.7,5.9,26.6l-4,6.1
			C401,321.7,388.7,324.3,379.6,318.6z"/>
		<g>
			<g>
				<polygon fill="#E2E5E8" points="354.6,295.2 352.6,293.9 371.1,265.9 373.2,267.2 				"/>
				<polygon fill="#E2E5E8" points="362.5,300.1 360.5,298.8 379,270.8 381,272.1 				"/>
				<polygon fill="#E2E5E8" points="370.2,305 368.2,303.7 386.7,275.7 388.7,277 				"/>
				<polygon fill="#E2E5E8" points="378,309.9 375.9,308.6 394.5,280.6 396.5,281.9 				"/>
				<polygon fill="#E2E5E8" points="385.7,314.8 383.7,313.6 402.2,285.5 404.3,286.8 				"/>
				<polygon fill="#E2E5E8" points="393.5,319.7 391.5,318.4 410,290.4 412,291.7 				"/>
			</g>
			<g>
				<polygon fill="#E2E5E8" points="398.7,316.2 397.6,317.9 352.7,289.6 353.8,287.9 				"/>
				<polygon fill="#E2E5E8" points="403.2,309.5 402.1,311.3 357.1,282.9 358.3,281.2 				"/>
				<polygon fill="#E2E5E8" points="407.7,302.7 406.6,304.4 361.7,276.1 362.8,274.4 				"/>
				<polygon fill="#E2E5E8" points="412,295.9 410.9,297.6 366,269.3 367.1,267.6 				"/>
			</g>
		</g>
	</g>
	<path fill="#45A4C9" d="M216.2,232.5c-1.4,3.4-5.8,5.5-8.3,4.5c-2.5-1-3.5-4.6-2.2-7.9s4.6-5.4,7.1-4.4
		C215.5,225.6,217.6,229.1,216.2,232.5z"/>
	<path fill="#13749A" d="M247.1,394.9c-6.9-2.9-50.9-30.3-66.8-80.9c-13-41.4,2.9-81.1,8.9-90.8c-2.7,16.7-11.2,48.8-3,78.7
		C197,340.6,221.5,376.5,247.1,394.9z"/>
</g>
<g>
	<g>
		<circle opacity="0.1" fill="#FFFFFF" cx="158.4" cy="160.9" r="11.9"/>
		<circle fill="#FFFFFF" cx="158.4" cy="160.9" r="2.2"/>
	</g>
	<g>
		<circle opacity="0.1" fill="#FFFFFF" cx="478.4" cy="514.4" r="11.9"/>
		<circle fill="#FFFFFF" cx="478.4" cy="514.4" r="2.2"/>
	</g>
	<g>
		<circle opacity="0.1" fill="#FFFFFF" cx="491.8" cy="142" r="6.6"/>
		<circle fill="#FFFFFF" cx="491.8" cy="142" r="1.2"/>
	</g>
	<g>
		<circle opacity="0.1" fill="#FFFFFF" cx="155.8" cy="398.8" r="6.6"/>
		<circle fill="#FFFFFF" cx="155.8" cy="398.8" r="1.2"/>
	</g>
	<g>
		<circle opacity="0.1" fill="#FFFFFF" cx="491.4" cy="475.4" r="11.9"/>
		<circle fill="#FFFFFF" cx="491.4" cy="475.4" r="2.2"/>
	</g>
</g>
<g>
	<circle opacity="0.1" fill="#FFFFFF" cx="877.8" cy="422.7" r="12.9"/>
	<circle fill="#FFFFFF" cx="877.8" cy="422.7" r="2.4"/>
</g>
<g>
	<circle opacity="0.1" fill="#FFFFFF" cx="890.3" cy="146.9" r="7.1"/>
	<circle fill="#FFFFFF" cx="890.3" cy="146.9" r="1.3"/>
</g>
<g>
	<circle opacity="0.1" fill="#FFFFFF" cx="425.9" cy="733" r="12.9"/>
	<circle fill="#FFFFFF" cx="425.9" cy="733" r="2.4"/>
</g>
<g>
	<circle opacity="0.1" fill="#FFFFFF" cx="917.8" cy="528.7" r="12.9"/>
	<circle fill="#FFFFFF" cx="917.8" cy="528.7" r="2.4"/>
</g>
<g>
	<circle opacity="0.1" fill="#FFFFFF" cx="676" cy="247.5" r="8.9"/>
	<circle fill="#FFFFFF" cx="676" cy="247.5" r="1.7"/>
</g>
<g>
	<circle opacity="0.1" fill="#FFFFFF" cx="633" cy="350.5" r="4.9"/>
	<circle fill="#FFFFFF" cx="633" cy="350.5" r="0.9"/>
</g>
<path fill="#425356" d="M730,573.9c0,0,13.7-16.7,32.7,4.3s50.7-2.7,52.3,36c1.7,38.7-48.7,26.3-53.3,20
	C757,627.9,718.3,590.5,730,573.9z"/>
<path fill="#627377" d="M730.5,575.8c0,0,19.8,1.5,28.2,15s45,15,47.2,9.8s-5.8-8.5-13.2-9s-21.5-1.2-30.2-9.8
	S745,563.8,730.5,575.8z"/>
<path fill="#DDDDDD" d="M586,584.9c0,0-39.7-6-56.3,12c0,0-19.3,13.3-13.7,47.7c0,0,31.3,12.7,63,10.3c0,0,1.3-15.7-3.3-25.7
	c0,0,23,1.3,33.7-1.3C620,625.2,586,584.9,586,584.9z"/>
<path fill="#F4F4F4" d="M588.5,599.8c0,0-17.4-1.5-23.9,10c0,0,9.6,40-25.4,34.8c-32.8-5.5-21-31.5-21-31.5s4.8-16,12.8-17.8
	c0,0,10.5-16.6,55-10.4L588.5,599.8z"/>
<path fill="#DDDDDD" d="M675.3,633.2c0,0,51,45.7,72.3,35.7c21.3-10,16-11.3,20.3-21s4.7-63-37.7-70
	C688,570.9,675.3,633.2,675.3,633.2z"/>
<path fill="#C9C9C9" d="M717,604.9c0,0,33.7,21.7,36,42.3c0,0,10-31.5-26.3-55.5L717,604.9z"/>
<path fill="#627377" d="M516.3,437.7c1.5-5.2,7-20.7,1.2-30.5c-5.8-9.8-20.8-5-14.8,2.2c0,0,0.3,2.2,0,3.7c0,0-0.5-1.3-1.3-3.2
	c-0.7-1.3-1.6-2.4-2.3-3.7c-0.9-1.6-1.6-3.3-2.6-4.7c-2.2-3.1-5-5.4-7.4-8.2c-2-2.4-2.7-5.6-5.1-7.7c-1.9-1.8-4.2-2.9-6.5-4
	c-2-0.5-4.3-0.8-6.7-0.5c-11,1.3-13.7,14.3-4.2,14.7c0,0,7.6,6.1,8.2,16c-5.5-3.9-18.3-15.7-29.2-12.7c1,1.5,1.5,3.9,1.9,5.4
	c0.5,2.3,1.7,4.3,2.4,6.5c0.1,0.2,0.1,0.3,0.2,0.5c0.1-0.1,0.3-0.1,0.4-0.1c4.1,0.7,5.2,4.6,5.4,8.2c0,0.3-0.3,0.5-0.5,0.5
	c-0.1,0-0.2,0-0.2,0c0,0-0.1,0.1-0.1,0.1c0,0-13.5,1.3-18.2,8.5c-4.7,7.2-0.3,9.5-0.3,9.5s-3.7,3-3.7,7.1c0,4.2,3.2,5.6,8,8.4
	c5.1,3,13.2,4.5,15.4,1c0.2,1.9,0.8,2.8,0.8,2.8s4,13.2,17,13s43.8-20.8,43.8-20.8S514.8,442.9,516.3,437.7z"/>
<path fill="#ABB5B7" d="M474.5,482.6l-3.2-7.9c0,0,12.4-27.2,50.1-25.5l3.9,5.4L474.5,482.6z"/>
<path fill="#8E989B" d="M474.5,481.5c0,0,9.5-31.3,50.3-27.3c0,0,3.8,3.8-1.7,6.2C517.7,462.7,473.8,492.4,474.5,481.5z"/>
<path fill="#DDDDDD" d="M477.7,480.9c0,0,9.5-27.1,44.7-24.3l26.3,35.7c0,0,26.8,10.1,34.6,10.1c0,0,16.3,16.6,6,46.9
	c0,0-35.7,4.6-59.6-6.7C529.7,542.5,491.6,511.7,477.7,480.9z"/>
<g>
	<path fill="#F4F4F4" d="M591.8,528.7c0,0,0.1,0,0.1-0.1c0,0,0,0,0,0c0,0,0,0,0,0c0.4-0.1,0.7-0.3,1.1-0.4c-0.2-1.6-0.6-3-1-3.9
		c-0.8-1.9-1.4-4.1-2-6.4c-1.2-4.3-3-10.9-5.4-11c-8.8-0.4-33-9-35.7-10c-0.7-0.2-1.2-0.6-1.7-1.1c-9-8.4-22.1-28.1-26.5-34.7
		c-0.6,0-1.7,0-1.7,0h-0.2c-14.5,0-23.8,5.6-29.4,11.1c3.2,5,25.5,39.2,47.6,53.4c0,0,32,4.9,54.4,2.5
		C591.4,528,591.5,528,591.8,528.7z"/>
</g>
<path fill="#DDDDDD" d="M586.5,549.3c-2.5-6.3-12-35.2,13-47.9l-2.9-0.6c0,0-26.7,9.6-12.4,48.6H586.5z"/>
<path fill="#13A7C7" d="M722.3,449.2c0,0,15.7,22.7,17,81.3c0.9,39-17.7,101-86.7,108s-75.7-61-61-101c0,0-1.3-16-8-33.3
	C577.3,487.6,712.7,433.5,722.3,449.2z"/>
<path fill="#DDDDDD" d="M573.6,499.9c0,0-27.3,10.1-11.9,50.1h2.3c0,0-15.7-35,12.5-49.3L573.6,499.9z"/>
<path fill="#2BBFD8" d="M714,521.5l-10.9-41.8l-4.7-12.2l-1.9,1.4c0,0,9.3,12.1,14.5,48.4c5.2,35.9,1.8,56.8-16.3,80.8
	c-14.9,19.6-31.8,25.5-40.9,27.3c-1.8,0.5-3.7,1.2-5.6,1.6l1.7,1.2c21.5-2.2,38.5-16.2,46.8-28.8s17-26.6,18.5-45.1
	S714,521.5,714,521.5z"/>
<path fill="#1190A5" d="M702,465.5c0,0-15.1,16.3-5.9,34.3s12.6,18.9,21.6,20.2S702,465.5,702,465.5z"/>
<path fill="#626D70" d="M569,496.2l5.3,8.3c0,0,34.3,11.7,81.4-11.2c41.2-20.1,69.5-47.8,69.5-47.8l-1.6-10.5L569,496.2z"/>
<path fill="#1190A5" d="M698.4,467.5c0,0,19.1,43,17.1,79s-13.6,72.1-43,87.3l-2.2,1.5c0,0,74.6-12.6,69.4-118.4
	c-4.9-56.1-16.9-69-16.9-69S709.9,459.1,698.4,467.5z"/>
<path fill="#8E989B" d="M571.2,490c0,0-7.5,7.5,3.5,9.2s44.8,6.5,81.8-13.2s67.2-44.2,67.2-50s-7.8-6-7.8-6L571.2,490z"/>
<g>
	<path fill="#425356" d="M714.5,435.3c-6-15.5-17-42.8-48-93.2s-53-60.5-109-27.5s-42.5,61.5-22,99s41,78.2,41,78.2
		s35.8,9.8,80-14.8S714.5,435.3,714.5,435.3z"/>
	<path fill="#627377" d="M609.9,295.4c22.1,0,37.7,15.7,56.6,46.6c31,50.5,42,77.8,48,93.2c0,0-13.8,17.2-58,41.8
		c-24.6,13.6-46.6,16.7-61.3,16.7c-11.7,0-18.7-1.9-18.7-1.9s-20.5-40.8-41-78.2s-34-66,22-99C579.2,301.7,595.8,295.4,609.9,295.4
		 M609.9,291.4c-14.5,0-31.3,6.1-54.4,19.7c-27.2,16-40.4,32.2-41.6,51c-1.1,16.6,7.2,33.3,18.2,53.4c20.2,37,40.7,77.7,40.9,78.1
		l0.8,1.6l1.7,0.5c0.3,0.1,7.7,2.1,19.7,2.1c14.7,0,37.6-3,63.2-17.2c44.4-24.6,58.6-42,59.2-42.8l1.4-1.8l-0.8-2.1
		c-5.2-13.3-15.9-41.1-48.3-93.9c-10.6-17.2-19.2-28.3-28-35.8C632.1,295.5,621.6,291.4,609.9,291.4L609.9,291.4z"/>
</g>
<path fill="#425356" d="M559.7,423.7c0,0-12.5,9.6-29.2-1.1c0,0,14.8,29.3,37.5,15.9C568,438.5,563.3,427.4,559.7,423.7z"/>
<path opacity="0.3" fill="#718789" d="M622.6,297.4c0,0,2,14.7,1.6,23.8l-55.8,132.3l-7.8,7.2l-19.8-37.2c0,0-17.4-30.9-20.3-41.8
	c-2.9-10.9-9-30.1,15-51.9c19.4-17.1,42.6-26.8,51.1-29.9S611.9,292.8,622.6,297.4z"/>
<path fill="#627377" d="M552.1,438.7c5.3,0.1,9.7-2.1,13.7-5.1c-1.7-3.5-4.1-7.9-6.1-10c0,0-12.5,9.6-29.2-1.1c0,0,3.2,6,8.6,11.8
	C547.2,442,547,438.7,552.1,438.7z"/>
<path fill="#707070" d="M553,426.3c-4.6,1.3-3.2,6.6-1.4,9.7c1.7,2.9,4.4,5.1,7.5,5.7c2.8-0.4,5.8-1.4,8.9-3.2
	c0,0-4.7-11.2-8.3-14.8c0,0-2.4,1.7-6.5,2.5C553.1,426.2,553.1,426.3,553,426.3z"/>
<path fill="#929DA0" d="M553,426.3c-4.6,1.3-3.2,6.6-1.4,9.7c0.6,1,1.3,1.9,2,2.7c4.6-0.3,8.5-2.4,12.2-5c-1.7-3.5-4.1-7.9-6.1-10
	c0,0-2.4,1.7-6.5,2.5C553.1,426.2,553.1,426.3,553,426.3z"/>
<g>
	<path fill="#EAF6FD" d="M681.3,373.3c0.5,0.8,0.9,1.6,1.4,2.5C682.3,375,681.8,374.2,681.3,373.3z"/>
	<path fill="#EAF6FD" d="M683.6,377.4c0.3,0.6,0.7,1.3,1,1.9C684.3,378.7,684,378.1,683.6,377.4z"/>
	<path fill="#EAF6FD" d="M679.3,369.8c0.5,0.9,1.1,1.8,1.6,2.8C680.4,371.7,679.8,370.7,679.3,369.8z"/>
	<path fill="#F5FCFF" d="M617,490.3c-11.2-6.5,1-13.8-5.8-22c0,0,43.5-4.5,51-23.8c0,0,1.4,0.3,5.1,3c0.3-0.5,2.3-0.6,2.5-1.1
		c8.6-16.2,4-35.2,1.2-52.3c-0.1-0.4,2.8-1.4,0-0.8c0.7-5.9,0-11.1,3-16.3c1.5-2.6,3.3-4.9,5.3-7.1c-38.1-55-46.6-54.6-46.6-54.6
		c2,6,1.7,16,1.7,16C623,314.9,610,316.5,610,316.5c1.7,3.7,1.7,9,1.7,9c-11.7-10.7-35.3-7.7-35.3-7.7c8.7,13,10.7,33,10.7,33
		c-15.3-13.7-40-8.7-40-8.7l1.3,5c-5.7-1-8.8,0.3-8.8,0.3c12,9.7,14.5,31.7,14.5,31.7c-15.3-4-29.3,2-29.3,2s12,14.7,24.7,37.3
		c20.2,33.1,33.7,68.5,34.9,74.2C591.2,493.3,604.8,492.3,617,490.3z"/>
	<path fill="#D6EFFC" d="M682.7,375.8c0.3,0.5,0.6,1.1,0.9,1.6C683.3,376.9,683,376.3,682.7,375.8z"/>
	<polygon fill="#D6EFFC" points="679.3,369.8 679.3,369.8 679.3,369.8 	"/>
	<path fill="#D6EFFC" d="M684.7,379.3c0.7,1.3,1.3,2.5,2,3.9C686,381.9,685.3,380.6,684.7,379.3z"/>
	<path fill="#D6EFFC" d="M680.9,372.6c0.1,0.2,0.3,0.5,0.4,0.7C681.2,373.1,681.1,372.9,680.9,372.6z"/>
	<path fill="#E1EEF4" d="M668.7,393.6c0.3-0.2,0.7-0.1,0.8,0.3c2.9,17.1,7.2,36-1.4,52.2c-0.3,0.5-0.5,1-0.8,1.4
		c3.7,2.7,10,11.7,5,19c13.9-8.9,30.9-20.7,37.9-27.2c0.8-1,1.1-1.5,1.1-1.5s-1-8-24.7-54.7c-0.7-1.3-1.3-2.6-2-3.9
		c-0.3-0.6-0.7-1.3-1-1.9c-0.3-0.5-0.6-1.1-0.9-1.6c-0.5-0.8-0.9-1.7-1.4-2.5c-0.1-0.2-0.3-0.5-0.4-0.7c-0.5-0.9-1.1-1.9-1.6-2.8
		c0,0,0,0,0,0c-2,2.2-3.8,4.5-5.3,7.1C671,382.1,669.4,387.7,668.7,393.6z"/>
	<path fill="#4E4D50" d="M645,481.8C645.1,481.8,645.1,481.8,645,481.8"/>
</g>
<path fill="#E1EEF4" d="M656.3,345.4c4.1,6.3,6.2,13.8,7.4,21.3c3.5-1.5,6.8-3.5,10-5.6c-14-20.6-32.5-41.3-38.1-44.4
	C641.4,321.2,652.3,339.5,656.3,345.4z"/>
<path fill="#425356" d="M657.7,365.2c0,0-5.7,19,17.3,34.3l-2.3-11.7c0,0,33.7-18.3,9.3-65.3C682,322.5,680.7,355.2,657.7,365.2z"/>
<path fill="#627377" d="M670,395c-1.3-2.4-2.9-5.5-2.6-8.3c0.3-3,2.6-4.5,4.7-6.4c3.7-3.3,6.8-6.9,9.7-10.9
	c9.6-13.4,7.2-32.5,0.2-46.6c-0.2,3.8-2.8,32.9-24.3,42.2c0,0-4.9,16.6,13.1,31.3C670.5,396,670.3,395.5,670,395z"/>
<path fill="#707070" d="M682,379.6c-4.1,0.5-8.2-0.4-10.9-4.2c-3.9-5.4-5.6-12-2.7-17.8c-2.9,3.1-6.4,5.7-10.7,7.6
	c0,0-5.7,19,17.3,34.3l-2.3-11.7C672.7,387.9,677.4,385.3,682,379.6z"/>
<path fill="#929DA0" d="M672.1,380.4c0.8-0.7,1.5-1.4,2.2-2.1c-1.2-0.7-2.3-1.6-3.2-2.9c-3.9-5.4-5.6-12-2.7-17.8
	c-2.9,3.1-6.4,5.7-10.7,7.6c0,0-4.9,16.6,13.1,31.3c-0.3-0.5-0.5-0.9-0.8-1.4c-1.3-2.4-2.9-5.5-2.6-8.3
	C667.7,383.8,670,382.2,672.1,380.4z"/>
<path fill="#E1EEF4" d="M573.8,455.6c1.4,6.7,6.9,11.3,12.2,10.2c5.3-1.1,9.8-7.9,8.4-14.7c-1.4-6.7-8.2-10.9-13.5-9.7
	C575.6,442.5,572.4,448.8,573.8,455.6z"/>
<path fill="#E1EEF4" d="M611.2,437.6c1.4,6.7,7.5,11.1,12.8,10c5.3-1.1,9.5-7.8,8.1-14.5c-1.4-6.7-7.9-10.7-13.1-9.6
	C613.6,424.6,609.8,430.9,611.2,437.6z"/>
<path fill="#FFFFFF" d="M610.2,435.5c1.4,6.6,7.7,10.5,12.9,9.4c5.2-1.1,9.1-7.6,7.7-14.1c-1.4-6.6-7.5-10.7-12.7-9.6
	C612.9,422.2,608.8,428.9,610.2,435.5z"/>
<path fill="#FFFFFF" d="M573,453.2c1.4,6.6,7.8,10.9,13.1,9.8c5.2-1.1,9.4-7.7,8-14.3c-1.4-6.6-7.8-10.8-13.1-9.7
	C575.9,440.1,571.7,446.6,573,453.2z"/>
<path fill="#707070" d="M611.5,424.9c0.1,0.4,0.1,0.8,0.3,1.2c0.9,0.2,0.9-1,2.3-1.6c1.2-0.6,2-0.2,2.8,0c1.2,0.9,2.3,2.4,2.9,4.3
	c1.4,3.9,0.4,8.1-2,9.2c-2.5,1.2-5.6-1.1-7-5C609.6,429.9,610,426.7,611.5,424.9z"/>
<path opacity="0.6" fill="#FFFFFF" d="M618.1,429.4c1.1,2.8,0.7,5.8-0.9,6.7c-1.6,0.8-3.8-0.8-4.9-3.6c-1.1-2.8-0.7-5.8,0.9-6.7
	C614.8,425,617,426.6,618.1,429.4z"/>
<path fill="#BDDBE5" d="M584.5,420.3c0,0-17.8-2.5-23.2,6.8c0,0-3.2-10.2,6.5-14S584.5,420.3,584.5,420.3z"/>
<path fill="#BDDBE5" d="M599,405c0,0,3.5-14.8,15.5-19s16-1,16-1s-5-8.8-18-6.8S595,398,599,405z"/>
<path fill="#707070" d="M577.5,439.9c0.1,0.4,0.1,0.8,0.3,1.2c0.7,2.1,1.5-0.3,2.9-1c1.2-0.6,2.6,1.3,2.2-0.6
	c1.2,0.9,2.3,2.4,2.9,4.3c1.4,3.9,0.4,8.1-2,9.2c-2.5,1.2-5.6-1.1-7-5C575.6,444.9,576,441.7,577.5,439.9z"/>
<path opacity="0.6" fill="#FFFFFF" d="M584.1,444.4c1.1,2.8,0.7,5.8-0.9,6.7c-1.6,0.8-3.8-0.8-4.9-3.6c-1.1-2.8-0.7-5.8,0.9-6.7
	C580.8,440,583,441.6,584.1,444.4z"/>
<path fill="#707070" d="M645.4,415.6c-36.2,1.1-42.8,9.8-42.8,9.8l0,0c-3.8,3-3.4,5.8-5.5,6.5c-3.3,1.2-6.8-0.4-15.7,3.3
	c-19.5,8.2-21,18.5-21,18.5c0.5,2.2,2.5,5.5,5,6.7s4.6,7.8,7.8,10.5c3.2,2.7,8.5,2,17.5-1.3c9-3.3,10.3-7.7,10.8-11
	c0.5-3.3-2.3-14.3-2.3-14.3c1.8-1.5,4.5-1.5,4.5-1.5s2.3,3.1,4.8,6.6s4.9,7.9,8.5,7.6c3.7-0.3,11.2-1.8,23.8-7.3
	s10.7-12.3,10.7-12.3L648,421c3.8-0.7,17-0.3,17-0.3l0.2-4.7C661.5,414.9,654.1,414.9,645.4,415.6z M587.7,466.5
	c-8.2,2.7-12.5,2.7-15-2c-2.5-4.7-5.7-11.2-5.7-11.2s9.8-14.8,27-14.7c0,0,3.5,11.8,3.7,16.8C597.8,460.5,595.8,463.9,587.7,466.5z
	 M632.7,448.5c-14.5,5-15,5.1-17.6,2.2c-2.6-2.9-9.1-11.2-10.7-15.7c-1.7-4.5,8.7-9.3,16.3-11.3c7.7-2,17.2-2.8,22.2-2l4.3,17.2
	C647.2,438.9,647.2,443.5,632.7,448.5z"/>
<path fill="#737F83" d="M597.7,456.7c-0.2,4.4-2.5,7.4-10,9.9c-6.5,2.1-10.6,2.5-13.2,0.3c0.7,1,1.4,1.8,2.5,2.4
	c1.1,0.5,2.2,0.8,3.3,0.9c2.3,0,4.7-0.8,6.9-1.6c2.8-1.1,7.7-2.8,9.4-5.5C597.4,461.4,597.8,459,597.7,456.7z"/>
<path fill="#737F83" d="M616.4,452.1c0.5,0.7,1.1,1.2,1.7,1.6c6.7-0.6,13.2-2.3,19.3-5.3c3.9-1.9,8.6-4.4,11.3-8.1
	c-0.8-2.8-1.6-5.6-2.6-8.3c-0.8-2.1-1.5-4.3-2.3-6.5l3.4,13.4c0,0,0,4.7-14.5,9.7C620.9,452.6,618.3,453.4,616.4,452.1z"/>
<path fill="#425356" d="M575.5,489.8c0,0,24.8,9.8,69.2-9.2c44.3-19,68.8-47.2,68.8-47.2l1,2c0,0-24.5,28.2-68.8,47.2
	c-44.3,19-69.2,9.2-69.2,9.2L575.5,489.8z"/>
<path fill="#1190A5" d="M591.5,536.6c0,0,24-32.5,78.5-23.5c0,0-31.2-19.9-79.5,15.1L591.5,536.6z"/>
<path fill="#1190A5" d="M598.4,545.8c0,0,20-22.5,49-20.4c11.7,0.9,18.1,0.2,22-0.1c0.6,1.7,1.1,3.4,1.1,3.4l-4.2,9.6
	c0,0-30.5-13.8-61.3,10.5c0,0-2.4,6.5-1.7,9.9c4.3-2.5,39.3-13.5,54.9-2.8c16.2,11.1,18.8,32.5-3.1,42.9c-22,10.4-45.3,6.8-56.2,0.6
	c0,0-1.4-1.9-1.7-2.7c-0.7-1.9-0.7-4.3-0.7-6.8c0,0,18.1,8.6,33.8,5.9c15.7-2.7,29.7-7.8,29.4-18.8c-0.3-10.9-16.5-25.4-64.7-5.6
	c0,0-1-1.2-1.7-2.7C593.1,564.5,594.7,555.2,598.4,545.8z"/>
<path fill="#F4F4F4" d="M596.7,543.2c0,0,17-19.2,48.4-19.8c16.3-0.1,24.3,2,24.3,2l-3.8,10c0,0-30.6-11.5-62.2,10.9
	c0,0-2.4,6.5-1.7,9.9c4.3-2.5,39.3-13.5,54.9-2.8c16.2,11.1,18.8,32.5-3.1,42.9c-22,10.4-45.3,6.8-56.2,0.6c0,0-2.4-5.9-2.4-9.5
	c0,0,18.1,8.6,33.8,5.9c15.7-2.7,29.7-7.8,29.4-18.8s-16.5-25.4-64.7-5.6C593.2,568.7,591.8,555.7,596.7,543.2z"/>
<path fill="#627377" d="M637,501l-10,2.8l1,11.2c0,0-30,21.8-20,65.5c3.1,13.7,7.4,24.2,12.2,32.3c3.7,0,7.4-0.2,11-0.4
	c0.2-0.6,0.6-1,1-1.5c-6-8.3-11.2-19.2-13.9-33.4c-8-44.5,21-64.2,21-64.2L637,501z"/>
<path fill="#1190A5" d="M632.5,628.4c0,0-29.7,5.1-40.9-20.8c0,0,10.8,35.1,58.4,31.3L632.5,628.4z"/>
<path fill="#8E989B" d="M637,501l-10,2.8l1,11.2c0,0-30,21.8-20,65.5c3.2,13.9,7.5,24.5,12.4,32.7c0.3,0,0.7,0,1,0
	c2.6,0.1,5.2,0.1,7.8,0c0.5,0,1-0.1,1.5-0.1c0.2-0.2,0.4-0.5,0.6-0.8c0,0,0,0,0,0c0.2-0.5,0.6-0.9,0.8-1.4
	c-6.1-8.4-11.2-19.2-14-33.5c-8-44.5,21-64.2,21-64.2L637,501z"/>
<path fill="#626D70" d="M632.3,611.1c-6.1-8.4-11.3-19.3-14-33.6c-8-44.5,21-64.2,21-64.2L637,501l-2.8,0.5l2.2,10.8
	c0,0-29,19.9-20.5,64.3c3,15.8,8.7,27.6,15.1,36.3C631.4,612.4,631.8,611.7,632.3,611.1z"/>
<path fill="#F4F4F4" d="M621,550.4l-5.5,1c0,0-1,8.1-0.6,9.9l6.4-1.2L621,550.4z"/>
<path fill="#F4F4F4" d="M624.4,535.6l-4.6,1.6c0,0,2.5-7.8,5.7-10.9c0,0,4.8-1.2,5.7-1.3C631.9,525,624.4,535.6,624.4,535.6z"/>
<path fill="#0D747F" d="M714.5,515.5c0,0,12.5,7.3,25.4,7.8c0,0-0.1-9.8-1.3-16.6C737.5,499.9,714.5,515.5,714.5,515.5z"/>
<path fill="#F4F4F4" d="M626.3,593.5c0,0-3.5,0.2-4.4,0.1c0,0,2.1,6,4.2,9.1c0,0,5.4-0.4,6.6-0.7
	C633.5,601.8,626.3,593.5,626.3,593.5z"/>
<path fill="#DDDDDD" d="M814.6,448.8c-1.8-16.9-18.5-14.9-18.5-14.9c-14.4-3.8-29.3-1.9-41.8,1.6c-17.1,8-33.5,17.2-48.1,29.1
	c-9.7,12.4-9.5,24-4.7,36.1c2.9,7.4,7.5,12.1,12.7,14.5c3.3,0.9,7,0,10.4-1.2c0.5-0.1,0.9-0.3,1.3-0.5c0.9-0.4,1.7-0.8,2.7-1.4
	c3.6-1.9,7.2-3.8,10.8-5.8c6.7-3.8,13.2-8.6,21-9.7c0.6-0.6,0.9-1,0.9-1c1.9,8.1,8,15,8,15l57.1-15.8
	C828.9,464.4,814.6,448.8,814.6,448.8z"/>
<path fill="#F4F4F4" d="M748.2,442.6c0,0,5.2,1.8,5.9,6.2s-1.4,10.1-6.6,15.2c0,0,19.9-12.1,35.2-8.1c0,0-7.1,20.8,10.8,35
	c0,0,17.1-4.8,28.2-1.4c0,0,2-18-12-39.2c0,0,1.6-10.9-14.8-11.1C795,439.3,775.9,432.3,748.2,442.6z"/>
<path fill="#C9C9C9" d="M780.3,457.2c0,0-24.6,7-22.7,39.9c0.9-0.2,1.9-0.4,2.9-0.6l0.9-1C761.4,495.6,756.8,470.2,780.3,457.2z"/>
<path fill="#FFFFFF" d="M748.2,442.7c0,0,27.4-11.2,46.9-4c0,0,16.3-1.2,14.6,11.5c0,0,13.5,14.8,12.2,38.2c0,0-1.2-20.3-14.8-37.5
	c0,0,4.3-9.2-13.3-10.7C793.7,440.2,779,433.7,748.2,442.7z"/>
<polygon fill="#1190A5" points="614.9,561.3 616.6,564.2 618,560.8 "/>
<path fill="#1190A5" d="M624.2,535.7c0,0-3.3,1.1-4.4,1.5l0.9,2.2L624.2,535.7z"/>
<path fill="#1190A5" d="M630.8,602.4c0,0-4.3,0.3-4.8,0.4l2.7,2.5L630.8,602.4z"/>
<path fill="#626D70" d="M837.8,511.4l-2.5-8.7c0,0-1.5-13.8-29.2-10.7c-27.7,3.2-39,14.5-37,23.5S837.8,511.4,837.8,511.4z"/>
<path fill="#425356" d="M770.7,511.5c0,0,18.8-26,55.3-14c16.2,5.2,23.8,45.2-11.8,48.2S766.3,518.5,770.7,511.5z"/>
<path fill="#627377" d="M770.7,511.5c0,0-7.4,10-7.2,16.8s-9,11.5,2,22.8s16.2,10.2,19.8,17.5s9.5,8,26.2,1S828.8,557,832,545
	s6.8-37-11.5-43.8S786.3,492.8,770.7,511.5z"/>
<path fill="#566668" d="M805.2,528.9c0,0,15.7,11.6,19.6,25.6C824.9,554.5,828.2,534.5,805.2,528.9z"/>
<path fill="#1190A5" d="M713.9,562.8c0,0-15.1,61.6-65.1,64.6c0,0,8.9,6.2,17.6,9c0,0,12.6-2.8,16.9-5.8s35.5-45.8,35.1-62.1
	S713.9,562.8,713.9,562.8z"/>
<path fill="#2BBFD8" d="M591.6,536.6c0,0,11.4-16.2,36.4-22.2v0.5l-1.6,1.5c0,0-18,3.9-35.2,22.5L591.6,536.6z"/>
<path fill="#2BBFD8" d="M639,512.2c0,0,18.4-2.6,31,0.8c0,0-22.8-1.6-31.8,1l1-0.8L639,512.2z"/>
<path fill="#2BBFD8" d="M634,629.5c0,0-17.7,1.2-27.2-5s-12.6-11.4-12.6-11.4s12,11.8,21.2,13.7c8.8,1.8,9.8,1.6,17.2,1.6L634,629.5
	z"/>
<path fill="#7C8B8E" d="M466.7,384.4c0,0-4.7,2.4-4.2,5.4s2,4,4.9,4.2s8.9-3.1,10.8-5s3.5-4.5-1.3-5.7S469.3,382.6,466.7,384.4z"/>
<path fill="#627377" d="M446.2,409.9c0,0,4.5,1,8.2,5.4c5.5,16.5,16.2,1.2,20-4.2c-4.1-6.8-8-9.2-9.8-10.2c-2.5-1.4-4-3.9-6.7-5
	c-2.2-0.9-4.5-1.2-6.8-1.4c-1.9,0.2-3.9,0.6-5.8,1.6C436.3,400.6,438,412.6,446.2,409.9z"/>
<path fill="#7C8B8E" d="M442.8,400.4c0,0-3.2,3.5-1.9,5.9c1.3,2.4,2.9,2.8,5.5,2.1c2.5-0.7,6.6-5.4,7.6-7.6c1-2.2,1.6-4.9-2.8-4.4
	S444.5,398.1,442.8,400.4z"/>
<path fill="#7C8B8E" d="M474.7,402c0,0,2.3,6.1,2.6,8.9c0,0,13-3.8,18.4-3.6c0,0-3.5-9.4-8.1-11.5
	C487.5,395.8,483.3,400.3,474.7,402z"/>
<path fill="#7C8B8E" d="M466.9,406.3c0,0,4,3.4,5,6.4c0,0-6.2,2.6-13.6,6.4c0,0-1.2-3.6-2.4-4.6
	C455.9,414.4,462.6,411.3,466.9,406.3z"/>
<path fill="#7C8B8E" d="M498.5,410.9c-21.1,0-39.2,11-39.2,11s-1.3,6.5,5.2,12c4,3.4,3.1,6.6,1.8,8.6c0,0,0,0,0,0
	c0.5,5.8,8.2,4.3,12.6,2.4c4.6-21.2,20.9-21.9,20.9-21.9C502.9,414.1,498.5,410.9,498.5,410.9z"/>
<path fill="#99A8AA" d="M459.3,421.9c0,0,18.8-11.7,39.2-11C498.5,410.9,479.6,413.7,459.3,421.9z"/>
<path fill="#FFFFFF" d="M520.7,461c0,0-17.5-2.6-31.3,11.1c0,0,26.8,42.4,47.6,53.4c0,0-20.6-13-42.3-52.8
	C494.7,472.7,500.6,463.2,520.7,461z"/>
<path fill="#FFFFFF" d="M516.8,628.1c0,0,1.8,13.9,18.4,15.9c16.7,2,26.7,2.7,30.8-18.2c2.8-11.5-1.4-16.1-1.4-16.1s7-10.7,22-10.1
	c0,0-16.5-2.9-24.6,9.2c0,0,3.7,6.2,1.5,15.7c-2.2,9.8-2.8,20.7-28,17C518.8,638.3,516.8,628.1,516.8,628.1z"/>
<path fill="#7C8B8E" d="M802.6,506.9c0-7.6-7.2-7.6-15.9-5.1c-6.8,2-12.1,6.6-14,8.4c-2.4,1.8-4,4.1-4,4.1
	c-6.8,9.2-5.2,15.8-5.2,15.8c1-2.5,5.8-10.5,13.2-12.8c-5.8,3.7-10.4,13.1-11.8,16.2c-0.9,1.7-1.6,3.2-1.7,4.3c-0.5,4,7,7.5,20,0.5
	c6.2-3.3,10.3-6,12.3-8.8c0.1-0.1,0.3-0.3,0.4-0.4c1.6-1.7,3.4-5.1,4.7-8.8C802.2,516.9,802.6,512.2,802.6,506.9z"/>
<path fill="#627377" d="M787.6,517.9c0,0-3.7,0.7-5.7-0.2c-0.1-0.1-0.3-0.2-0.5-0.3c-4.9-2.5-10.5,3.2-10.5,3.2s-8,14-3.4,7.5
	s9.2-10.1,12.5-9.2s0,6.8,0,6.8s1.1-1.1,2.1-2.5C782.7,522.7,785.6,519.6,787.6,517.9z"/>
<path fill="#7C8B8E" d="M455.6,421.8c0,0-11.9,1.1-15.6,6.2s3.2,5.8,9.9,7.2s13.8,4.4,14.8,2.1s-10.8-8.4-17-8.5c0,0,6-0.4,7.8,0.1
	S457.6,425.3,455.6,421.8z"/>
<path fill="#7C8B8E" d="M438.4,439.8c0,0-1.2,1.1-2,2.7c-0.8,1.4-0.8,2.1,0.1,3.7c1,1.6,2.9,2.8,4.6,3.6c4.2,2,6.1,2.5,9.8,1.4
	c1.5-1,2.7-3,3.2-4.3C454.2,446.9,444,445.2,438.4,439.8z"/>
<path fill="#99A8AA" d="M455.6,421.8c0,0-8.9,0.6-13.9,4.4s-3.1,6.5,0.4,7.4c3.5,0.9,20.6,5.9,22.2,4.2c0.8-0.7,0.1-1.4,0.1-1.4
	s-0.8,1.2-6.1-0.1s-11.7-3.2-14.5-4.2c-2.8-0.9-4.8-2-1.2-4.8S450.5,422.9,455.6,421.8z"/>
<path fill="#7C8B8E" d="M503.3,422.3c0,0.1,0,0.2-0.1,0.3c3.8-0.5,7.7-0.1,11.5,0.5c0.3-1.6,0.5-3.2,0.6-4.6c0.8-4.2,1.2-8.9-0.2-11
	c-2.1-3.1-5.1-4.2-8.3-3.5s-3.8,1.9-3,3.4c0,0,1.8,2.4,0.6,7.1C503.6,417.9,503.3,420.9,503.3,422.3z"/>
<path fill="#99A8AA" d="M504.2,415.6c0,0,0.9-4.1,0.4-6.1c-0.6-2-2.8-4.1,1.4-5.2s9.8,0.1,10.2,7.3c0,5.4-1.2,11.1-1.2,11.1
	s0.8-10.6-0.5-13.7s-3.9-3.9-6.2-3.7s-3.6,0.4-2.9,2.5S504.2,415.6,504.2,415.6z"/>
<path fill="#99A8AA" d="M462.9,391.4c0,0-2.8-4.5,4.5-7.6s11.7,0.1,12.1,0.8c0,0-5-2.6-11.6,0.6S462.9,391.4,462.9,391.4z"/>
<path fill="#99A8AA" d="M441.8,407.6c0,0-3.9-3.6,2-8.6s10.2-2.8,10.8-1.8c0,0-3.6-1.2-9.5,3.1S441.8,407.6,441.8,407.6z"/>
<path fill="#99A8AA" d="M796.4,500.4c3.5,0.4,6.2,2,5.6,10.9c-0.4,5.9-2.7,11.1-3.5,12.8c-2.9,3.9-8.1,9.2-17,12.8
	c-10.3,4.1-20.5,6.2-14.4-4.8s6.9-10.8,10.4-13.1c0,0-7.2,2.7-12.3,13c-5.2,10.3,0.5,14.8,17.5,7c5.8-2.7,9.8-5.9,12.6-8.9
	c3-2.7,6.4-6.6,7.9-18.4C804.8,498.5,796.4,500.4,796.4,500.4z"/>
<path fill="#425356" d="M498,707.5c0,0-20-10-11-36.3c9-26.3,32-39.7,61.3-29l31,6.7c0,0,14.7,13.3,14,38L498,707.5z"/>
<path fill="#142B2A" d="M499.7,708.2c0,0-13-7.3-5-24c8-16.7,15.7-27,49-20.3s50.3,9.7,49.7,23c-0.7,13.3-13,26.3-54.3,13
	C539,699.9,518.3,716.2,499.7,708.2z"/>
<path fill="#99A8AA" d="M682.9,380.7c-6.1,1.1-12.7-3-15.4-8.5c-2.4-5-2.8-12.7,1-17.2l-0.2-0.4c-0.5,0.3-1,0.5-1.5,0.8
	c-1,0.7-2.1,1.3-3.2,1.9c-0.9,1.6-3.8,7.9,1.3,16.8c5.9,10.4,14.7,9,14.7,9l3.4-2.2L682.9,380.7z"/>
<path fill="#627377" d="M486.8,695.3c0,0-9.5-17.8,5.5-36.5s23.4-24.3,47.8-19.2c23.5,4.9,26.8,6.8,26.8,6.8s-36.2-5.7-47-3.2
	c-11,2.5-20.5,11.5-27.8,23.5S484.5,687.8,486.8,695.3z"/>
<path fill="#425356" d="M670.1,355.8l-1.7,1.8c0,0-3.1,6.4,0.2,13.1c3.5,6.4,8.7,9.7,12.4,8.8c1.5-0.5,1.8-0.9,1.8-0.9l1-1.4
	c0,0,1.3,1.2-0.2,3.2c-1.6,2.1-7.6,1.3-10.7-0.9c-3.1-2.2-6.2-5.1-7.8-11.9c-1.6-7.2,1.1-11.8,3.2-12.9c1.8-1.1,2.9-0.4,2.9-0.4
	L670.1,355.8z"/>
<path fill="#7C8B8E" d="M551.3,425.5c0,0-4.2,3-1,10.6s6.9,6.4,6.9,6.4l-2.8,0.7c0,0-3.9,0.1-6.4-7.9c-2-7.6,0.6-9.2,0.6-9.2
	L551.3,425.5z"/>
<path fill="#707070" d="M551.8,434.9c-2.4-6.1,0.3-8.1,1.1-8.5c0.2-0.1,0.3-0.2,0.5-0.2c0.1,0,0.1,0,0.2,0l0.1,0
	c-0.1-0.2-0.2-0.4-0.4-0.7c-0.6-0.2-1.3-0.2-2.1,0c-2.3,1.5-3.5,4.2-1.4,9.9c3.2,8.8,7.9,7.2,7.9,7.2l1.2-0.4
	c0.2-0.1,0.3-0.3,0.4-0.5C557.7,441.5,554.1,440.7,551.8,434.9z"/>
<g>
	<circle opacity="0.1" fill="#FFFFFF" cx="798" cy="288.5" r="8.9"/>
	<circle fill="#FFFFFF" cx="798" cy="288.5" r="1.7"/>
</g>
<g>
	<circle opacity="0.1" fill="#FFFFFF" cx="755" cy="391.5" r="4.9"/>
	<circle fill="#FFFFFF" cx="755" cy="391.5" r="0.9"/>
</g>
<g>
	<circle opacity="0.1" fill="#FFFFFF" cx="850" cy="724.5" r="8.9"/>
	<circle fill="#FFFFFF" cx="850" cy="724.5" r="1.7"/>
</g>
<g>
	<circle opacity="0.1" fill="#FFFFFF" cx="873" cy="694.5" r="4.9"/>
	<circle fill="#FFFFFF" cx="873" cy="694.5" r="0.9"/>
</g>
<g>
	<circle opacity="0.1" fill="#FFFFFF" cx="414" cy="639.5" r="8.9"/>
	<circle fill="#FFFFFF" cx="414" cy="639.5" r="1.7"/>
</g>
<g>
	<circle opacity="0.1" fill="#FFFFFF" cx="588" cy="474.5" r="4.9"/>
	<circle fill="#FFFFFF" cx="588" cy="474.5" r="0.9"/>
</g>
<path fill="#2BBFD8" d="M699.1,469.3c0,0-10.6,12.4-0.9,34.2c7.5,14,14.2,15.8,14.2,15.8l-0.8,1.6c0,0-8.4-3.2-14.9-16.6
	c-5.8-11.9-6.9-24.5,1.5-36.4L699.1,469.3z"/>
<path fill="#929DA0" d="M560.5,453.7c0,0,1.1-8.7,12.8-14.8s17-7.4,20.5-7l4.9-2.1c0,0,3.8-11.8,36.4-14.1
	c15.8-1.5,28.1-0.5,30.2,0.4c0,0-35.3-0.9-52.5,6.8c-11.9,5.2-13.2,10.6-13.2,10.6l-3.5,1.6c0,0-6.4-3.5-21.6,5.9
	s-12.4,15.8-12.4,15.8s-0.7-1.1-1-1.7C560.7,454.4,560.5,453.7,560.5,453.7z"/>
<path fill="#C9C9C9" d="M766.6,651.8c0,0,6.8-37.3-13.1-62.6c0,0,13.6,9.8,16.4,33.8S766.6,651.8,766.6,651.8z"/>
<path fill="#F4F4F4" d="M753,647.2c0,0,0-18.2-36-42.3l-1.7,2.1C715.3,607,746.7,627,753,647.2z"/>
<path fill="#1190A5" d="M633.2,630.4c0,0,0.6-1.1,2.7-1.4s13-2.5,17.1-0.8s13.9,8.1,13.9,8.1s-7.7,2.2-18.2,2.7
	C638.2,639.5,633.2,630.4,633.2,630.4z"/>
<path fill="#2BBFD8" d="M626,628.3c0,0,10.4,0.9,29.3-3.3l1,1.5c0,0-15,3.8-30.3,3V628.3z"/>
<polygon fill="#627377" points="538.3,427 551.7,452.4 555,450 540.9,423.6 "/>
<path fill="#DDDDDD" d="M552.6,494.9c0,0-27.3,10.1-11.9,50.1h2.3c0,0-15.7-35,12.5-49.3L552.6,494.9z"/>
<path fill="#DDDDDD" d="M543.8,489.2c0-0.4,0-0.7,0-1.1c-0.1-0.4-0.1-0.8-0.1-1.2c-7.4-0.6-27.1,1.2-35.2,34.7l1.9,1.3
	C510.4,523,516.5,489.2,543.8,489.2z"/>
<path fill="#DDDDDD" d="M533.5,476.1c0-0.4,0.1-0.7,0.2-1.1c0-0.4,0-0.8,0.1-1.2c-7.1-2-26.8-4.2-41.4,27l1.6,1.7
	C494.1,502.5,506.8,470.7,533.5,476.1z"/>
<path fill="#DDDDDD" d="M786.4,485.3c0,0,18.3-11,36.6-4.9v-2.2c0,0-15-7.3-38.3,5.1L786.4,485.3z"/>
<path fill="#DDDDDD" d="M781.5,474.6c0,0,19.4-14.8,37.4-7.7l1.1-1.9c0,0-15.2-9.6-39.2,7.4L781.5,474.6z"/>
<path fill="#DDDDDD" d="M780.8,464.3c19.1-16.5,35.5-7.6,33.2-8.6l-0.1-1.9c0,0-12.8-8.2-33.8,8.1L780.8,464.3z"/>
<path fill="#DDDDDD" d="M782.8,456c0,0,5.9-15.9,14.8-18.2l-3-0.9c0,0-8.6,2.6-14.2,19.4L782.8,456z"/>
<path fill="#DDDDDD" d="M776.4,436c0,0-7.5,5.2-3.1,19.8l-1.8,1.1c0,0-5-13.9,2.2-20.9H776.4z"/>
<path fill="#DDDDDD" d="M762.4,458.9c0,0-6.5-6.9-4.3-18.9H756c0,0-2.4,10.4,4.4,19.8L762.4,458.9z"/>
<path fill="#DDDDDD" d="M516.2,630.9c0,0,18.1-13.5,52,3.3l-0.7-2.7c0,0-23.7-16.3-52.3-5L516.2,630.9z"/>
<path fill="#DDDDDD" d="M519.4,609.8c0,0,32-11.3,48.4,6.5l1.9-2.6c0,0-13.6-17.2-48.8-7.3L519.4,609.8z"/>
<path fill="#DDDDDD" d="M531,595.3c0,0,29.1-8.1,37.9,11.8l1.9-0.8c0,0-5.6-20.6-37.9-13C532.9,593.2,532,593.9,531,595.3z"/>
<path fill="#DDDDDD" d="M553.4,584.6c0,0,22.2-2.1,26.6,17.1l2-0.7c0,0-2.9-17.9-23.3-17.1C558.8,583.9,556.6,584,553.4,584.6z"/>
</svg>
