<?xml version="1.0" encoding="utf-8"?>
<!-- Generator: Adobe Illustrator 19.1.0, SVG Export Plug-In . SVG Version: 6.00 Build 0)  -->
<svg version="1.1" id="Layer_1" xmlns="http://www.w3.org/2000/svg" xmlns:xlink="http://www.w3.org/1999/xlink" x="0px" y="0px"
	 viewBox="0 0 1000 700" enable-background="new 0 0 1000 700" xml:space="preserve">
<g>
	<g>
		<path fill="#CFD5D8" d="M827.7,522.5c0,10-8,18-18,18H132.2c-10,0-18-8-18-18v-463c0-10,8-18,18-18h677.5c10,0,18,8,18,18
			L827.7,522.5L827.7,522.5z"/>
	</g>
	<path fill="#44515A" d="M827.7,59.5v406.1H114.2V59.5c0-10,8-18,18-18h677.5C819.7,41.5,827.7,49.5,827.7,59.5z"/>
	<g>
		<path fill="#78888D" d="M792.7,412.7c0,10-8,18-18,18H167.1c-10,0-18-8-18-18V94.4c0-10,8-18,18-18h607.7c10,0,18,8,18,18
			L792.7,412.7L792.7,412.7z"/>
	</g>
	<rect x="214" y="91.4" opacity="0.5" fill="#F3F3F3" enable-background="new    " width="553.8" height="10"/>
	<path opacity="0.5" fill="#F3F3F3" enable-background="new    " d="M204,96.4c0-3-2-5-5-5l0,0c-3,0-5,2-5,5l0,0c0,3,2,5,5,5l0,0
		C202,101.4,204,98.9,204,96.4L204,96.4z"/>
	<path opacity="0.5" fill="#F3F3F3" enable-background="new    " d="M184.1,96.4c0-3-2-5-5-5l0,0c-3,0-5,2-5,5l0,0c0,3,2,5,5,5l0,0
		C182.1,101.4,184.1,98.9,184.1,96.4L184.1,96.4z"/>
	<g>
		<g>
			<g>
				<g>
					<defs>
						<path id="SVGID_1_" d="M792.7,412.7c0,10-8,18-18,18H167.1c-10,0-18-8-18-18V94.4c0-10,8-18,18-18h607.7c10,0,18,8,18,18
							L792.7,412.7L792.7,412.7z"/>
					</defs>
					<clipPath id="SVGID_2_">
						<use xlink:href="#SVGID_1_"  overflow="visible"/>
					</clipPath>
					
						<rect x="149.1" y="116.4" opacity="0.5" clip-path="url(#SVGID_2_)" fill="#F3F3F3" enable-background="new    " width="643.6" height="319.3"/>
				</g>
			</g>
		</g>
	</g>
	<path fill="#CFD5D8" d="M563.2,530.5c0-37.4-69.3-12.5-92.3-3c-23-9.5-92.3-34.4-92.3,3c0,64.9-39.9,119.7-39.9,119.7h124.7h15
		h124.7C603.1,650.2,563.2,595.3,563.2,530.5z"/>
	<path fill="#CFD5D8" d="M568.2,570.4H374.1c2-9.5,4-19.5,4.5-29.9h185.1C564.2,550.9,565.7,560.9,568.2,570.4z"/>
	<rect x="328.7" y="635.3" fill="#9FAEB4" width="284.4" height="15"/>
	<rect x="184.1" y="176.2" fill="#EEEEEE" width="573.8" height="254.4"/>
	<rect x="184.1" y="136.3" fill="#EEEEEE" width="74.8" height="20"/>
	<rect x="493.4" y="146.3" fill="#EEEEEE" width="54.9" height="10"/>
	<rect x="563.2" y="146.3" fill="#EEEEEE" width="54.9" height="10"/>
	<rect x="633.1" y="146.3" fill="#EEEEEE" width="54.9" height="10"/>
	<rect x="702.9" y="146.3" fill="#EEEEEE" width="54.9" height="10"/>
	<path opacity="0.3" fill="#9FAEB4" enable-background="new    " d="M568.2,570.4H374.1c2-9.5,4-19.5,4.5-29.9h185.1
		C564.2,550.9,565.7,560.9,568.2,570.4z"/>
</g>
<g>
	<g>
		<path fill="#78888D" d="M560.3,650.2c-10,0-18-8-18-18V269c0-10,8-18,18-18h293.4c10,0,18,8,18,18v363.2c0,10-8,18-18,18
			L560.3,650.2L560.3,650.2z"/>
	</g>
	<g>
		<g opacity="0.6">
			<path fill="#44515A" d="M560.3,650.2c-10,0-18-8-18-18V269c0-10,8-18,18-18h293.4c10,0,18,8,18,18v363.2c0,10-8,18-18,18
				L560.3,650.2L560.3,650.2z"/>
		</g>
		<rect x="577.3" y="296" fill="#78888D" width="254.4" height="39.9"/>
		<rect x="622.2" y="311" opacity="0.5" fill="#F3F3F3" enable-background="new    " width="194.1" height="10"/>
		<path opacity="0.5" fill="#F3F3F3" enable-background="new    " d="M612.2,315.9c0-3-2-5-5-5l0,0c-3,0-5,2-5,5l0,0c0,3,2,5,5,5
			l0,0C610.2,320.9,612.2,318.4,612.2,315.9L612.2,315.9z"/>
		<path opacity="0.5" fill="#F3F3F3" enable-background="new    " d="M597.3,315.9c0-3-2-5-5-5l0,0c-3,0-5,2-5,5l0,0c0,3,2,5,5,5
			l0,0C595.3,320.9,597.3,318.4,597.3,315.9L597.3,315.9z"/>
		<rect x="577.3" y="335.9" opacity="0.5" fill="#F3F3F3" enable-background="new    " width="254.4" height="264.4"/>
		<rect x="592.3" y="395.8" fill="#EEEEEE" width="224.5" height="204.6"/>
		<rect x="592.3" y="355.9" fill="#EEEEEE" width="44.9" height="20"/>
		<rect x="647.1" y="365.8" fill="#EEEEEE" width="34.9" height="10"/>
		<rect x="692" y="365.8" fill="#EEEEEE" width="34.9" height="10"/>
		<rect x="736.9" y="365.8" fill="#EEEEEE" width="34.9" height="10"/>
		<rect x="781.9" y="365.8" fill="#EEEEEE" width="34.9" height="10"/>
	</g>
</g>
<g>
	<g>
		<path fill="#44515A" d="M777.7,650.2c-10,0-18-8-18-18V433.7c0-10,8-18,18-18h118.7c10,0,18,8,18,18v198.6c0,10-8,18-18,18
			L777.7,650.2L777.7,650.2z"/>
	</g>
	<rect x="779.6" y="440.7" opacity="0.5" fill="#F3F3F3" enable-background="new    " width="114.8" height="184.6"/>
	<rect x="794.6" y="490.6" fill="#EEEEEE" width="84.8" height="134.7"/>
	<rect x="794.6" y="455.6" fill="#EEEEEE" width="44.9" height="20"/>
</g>
<image overflow="visible" width="445" height="463" xlink:href="hosted_ball.png"  transform="matrix(1 0 0 1 -2084.6714 131.2917)">
</image>
<path fill="#45A4C9" d="M1943.6,739.8"/>
<g>
	<circle fill="#178DBB" cx="2748.7" cy="464.8" r="186.5"/>
	<path fill="#45A4C9" d="M2748.7,326.2c46.4-22.7,153,36,149.9,70.7c-0.3,3.3-0.4,24.8-2.8,28.6c-12.1,19-144.5,32-185.5,0.8
		c0,0-14-21.1-8-52.1S2748.7,326.2,2748.7,326.2z"/>
	<path fill="#45A4C9" d="M2637.1,438.6c-6.3,11.3-22.2,16.7-30.5,12.1c-8.3-4.7-9.9-17.6-3.6-28.9s18.2-16.7,26.5-12.1
		C2637.8,414.3,2643.4,427.2,2637.1,438.6z"/>
	<path fill="#43525A" d="M2933.2,473.3c-59.7-6.7-121-14.6-183.9-23.7c-61.5-9-121.2-18.8-179.1-29.1c-1.3-0.2-2-0.7-2.4-1.1
		c-1.5-1.5-1.3-4.3-0.8-7.2l6.5-16.8c0.2-0.6,0.4-1.2,0.5-1.8c0.7-3.8,2.4-8,6.2-7.4c55.4,10.9,113.4,21,173.7,30.1
		c61.9,9.3,120.8,16.7,178.3,22.7c0.8,0.1,1.7,0.4,2.6,1.1c1.7,1.5,1,4.3,0.6,7.2l1.1,22.1C2936.6,471.7,2935.6,473.5,2933.2,473.3z
		"/>
	<polygon fill="#384449" points="2887.8,468.1 2882.5,467.6 2885.7,433.8 2891,434.3 	"/>
	
		<rect x="2768.9" y="419.1" transform="matrix(0.9864 0.1645 -0.1645 0.9864 109.476 -450.062)" fill="#384449" width="5.3" height="33.5"/>
	<g>
		<path fill="#157CA3" d="M2807.7,403.2"/>
		<path fill="#157CA3" d="M2884.3,436.6l0.5,18.4c1.5,21-17,35.7-27,39.7s-47,0.4-60.6-4.2c-11.8-4-24.2-10.3-25.7-41.5"/>
		<path fill="#43525A" d="M2841.3,491.7l-39.2-6.6c-20.8-3.5-34.8-23.1-31.3-43.9l3.8-22.4c3.5-20.8,23.1-34.8,43.9-31.3l39.2,6.6
			c20.8,3.5,34.8,23.1,31.3,43.9l-3.8,22.4C2881.8,481.2,2862.1,495.2,2841.3,491.7z"/>
		<path fill="#DBE0E1" stroke="#DBE0E1" stroke-width="4" stroke-miterlimit="10" d="M2841.1,473.8l-32.9-5.5
			c-14.4-2.4-24-16-21.6-30.3l1.8-10.9c2.4-14.4,16-24,30.3-21.6l32.9,5.5c14.4,2.4,24,16,21.6,30.3l-1.8,10.9
			C2869,466.5,2855.5,476.2,2841.1,473.8z"/>
		<g>
			<g>
				
					<rect x="2797.2" y="410.9" transform="matrix(0.9863 0.1652 -0.1652 0.9863 110.1817 -456.452)" fill="#E2E5E8" width="3.3" height="46.4"/>
				
					<rect x="2809.7" y="413" transform="matrix(0.9863 0.1652 -0.1652 0.9863 110.6972 -458.4798)" fill="#E2E5E8" width="3.3" height="46.4"/>
				
					<rect x="2822.1" y="415" transform="matrix(0.9863 0.1652 -0.1652 0.9863 111.2128 -460.5077)" fill="#E2E5E8" width="3.3" height="46.4"/>
				
					<rect x="2834.6" y="417.1" transform="matrix(0.9863 0.1652 -0.1652 0.9863 111.7284 -462.5356)" fill="#E2E5E8" width="3.3" height="46.4"/>
				
					<rect x="2847" y="419.2" transform="matrix(0.9863 0.1652 -0.1652 0.9863 112.2439 -464.5634)" fill="#E2E5E8" width="3.3" height="46.4"/>
				
					<rect x="2859.5" y="421.3" transform="matrix(0.9863 0.1652 -0.1652 0.9863 112.7595 -466.5912)" fill="#E2E5E8" width="3.3" height="46.4"/>
			</g>
			<g>
				
					<rect x="2825.7" y="419.5" transform="matrix(0.1652 -0.9863 0.9863 0.1652 1910.4725 3168.9163)" fill="#E2E5E8" width="2.9" height="72.9"/>
				
					<rect x="2827.6" y="408.4" transform="matrix(0.1652 -0.9863 0.9863 0.1652 1922.9303 3161.509)" fill="#E2E5E8" width="2.9" height="72.9"/>
				
					<rect x="2829.4" y="397.3" transform="matrix(0.1652 -0.9863 0.9863 0.1652 1935.3879 3154.1018)" fill="#E2E5E8" width="2.9" height="72.9"/>
				
					<rect x="2831.3" y="386.3" transform="matrix(0.1652 -0.9863 0.9863 0.1652 1947.8457 3146.6946)" fill="#E2E5E8" width="2.9" height="72.9"/>
			</g>
		</g>
	</g>
	<path fill="#45A4C9" d="M2613.9,481c0.2,5.1-4,10.2-7.7,10.3s-6.9-3.8-7.1-8.9c-0.2-5.1,2.6-9.3,6.4-9.5
		C2609.1,472.7,2613.7,475.9,2613.9,481z"/>
	<path fill="#13749A" d="M2786.7,643.5c-8.4,2.4-69.5,10.2-128.8-22.8c-48.5-27-71.8-73.3-75.6-86.2c13.1,16.7,35.4,51,69.4,71.3
		C2695.9,632,2748.8,645.8,2786.7,643.5z"/>
</g>
<g>
	<circle fill="#178DBB" cx="1943" cy="478.4" r="186.5"/>
	<path fill="#45A4C9" d="M1988,347.3c-36.5-36.6-156.4-15.7-164.8,18.2c-0.8,3.2-7.7,23.6-6.7,28c5.2,21.9,126.2,77.3,175.1,61
		c0,0,20.1-15.4,24.5-46.7S1988,347.3,1988,347.3z"/>
	<path fill="#45A4C9" d="M2057,489.8c2.3,12.8,15.6,23.1,24.9,21.4c9.4-1.7,15.1-13.4,12.8-26.2c-2.3-12.8-11.8-21.8-21.2-20.1
		C2064.2,466.6,2054.7,477.1,2057,489.8z"/>
	<path fill="#43525A" d="M1765.7,426.4c58.6,13.1,119.2,25.6,181.6,37.3c61.1,11.5,120.7,21.7,178.8,30.7c1.3,0.2,2.1,0,2.6-0.2
		c1.9-0.9,2.6-3.7,3.1-6.6l-0.7-18c0-0.6,0-1.2,0.1-1.8c0.6-3.8,0.3-8.3-3.4-9c-55.9-7.7-114-16.9-174.1-28
		c-61.6-11.3-119.7-23.4-176-36.5c-0.7-0.1-1.8-0.2-2.8,0.2c-2.1,0.9-2.4,3.7-2.9,6.6l-8.3,20.6
		C1763,423.8,1763.4,425.9,1765.7,426.4z"/>
	<polygon fill="#384449" points="1810.4,436.2 1815.6,437.5 1823.5,404.5 1818.3,403.2 	"/>
	
		<rect x="1928.1" y="426.8" transform="matrix(-0.9863 -0.165 0.165 -0.9863 3761.8762 1199.5585)" fill="#384449" width="5.3" height="33.5"/>
	<g>
		<path fill="#157CA3" d="M1907.2,401"/>
		<path fill="#157CA3" d="M1823.8,407.6l-6.5,17.2c-8.2,19.4,4.5,39.3,12.7,46.4c8.2,7.1,44.3,15.7,58.7,15.7
			c12.5,0,26.3-1.9,37.8-30.9"/>
		<path fill="#43525A" d="M1846.6,473.7l39.2,6.5c20.8,3.5,40.4-10.6,43.9-31.4l3.7-22.4c3.5-20.8-10.6-40.4-31.4-43.9l-39.2-6.5
			c-20.8-3.5-40.4,10.6-43.9,31.4l-3.7,22.4C1811.8,450.6,1825.8,470.2,1846.6,473.7z"/>
		<path fill="#DBE0E1" stroke="#DBE0E1" stroke-width="4" stroke-miterlimit="10" d="M1852.6,456.8l32.9,5.5
			c14.4,2.4,27.9-7.3,30.3-21.7l1.8-10.9c2.4-14.4-7.3-27.9-21.7-30.3l-32.9-5.5c-14.4-2.4-27.9,7.3-30.3,21.7l-1.8,10.9
			C1828.6,440.8,1838.3,454.4,1852.6,456.8z"/>
		<g>
			<g>
				
					<rect x="1903.9" y="409.8" transform="matrix(-0.9864 -0.1643 0.1643 -0.9864 3713.9258 1173.2289)" fill="#E2E5E8" width="3.3" height="46.4"/>
				
					<rect x="1891.4" y="407.7" transform="matrix(-0.9864 -0.1643 0.1643 -0.9864 3689.5374 1167.0637)" fill="#E2E5E8" width="3.3" height="46.4"/>
				
					<rect x="1879" y="405.6" transform="matrix(-0.9864 -0.1643 0.1643 -0.9864 3665.1487 1160.8986)" fill="#E2E5E8" width="3.3" height="46.4"/>
				
					<rect x="1866.5" y="403.6" transform="matrix(-0.9864 -0.1643 0.1643 -0.9864 3640.7603 1154.7334)" fill="#E2E5E8" width="3.3" height="46.4"/>
				
					<rect x="1854.1" y="401.5" transform="matrix(-0.9864 -0.1643 0.1643 -0.9864 3616.3716 1148.5681)" fill="#E2E5E8" width="3.3" height="46.4"/>
				
					<rect x="1841.6" y="399.4" transform="matrix(-0.9864 -0.1643 0.1643 -0.9864 3591.9829 1142.403)" fill="#E2E5E8" width="3.3" height="46.4"/>
			</g>
			<g>
				
					<rect x="1870.1" y="408" transform="matrix(0.1643 -0.9864 0.9864 0.1643 1125.6862 2217.5486)" fill="#E2E5E8" width="2.9" height="72.9"/>
				
					<rect x="1872" y="396.9" transform="matrix(0.1643 -0.9864 0.9864 0.1643 1138.1404 2210.1204)" fill="#E2E5E8" width="2.9" height="72.9"/>
				
					<rect x="1873.8" y="385.9" transform="matrix(0.1643 -0.9864 0.9864 0.1643 1150.5947 2202.6924)" fill="#E2E5E8" width="2.9" height="72.9"/>
				
					<rect x="1875.7" y="374.8" transform="matrix(0.1643 -0.9864 0.9864 0.1643 1163.049 2195.2642)" fill="#E2E5E8" width="2.9" height="72.9"/>
			</g>
		</g>
	</g>
	<path fill="#45A4C9" d="M2065.2,537.5c-1.9,4.7,0.5,10.9,3.9,12.3c3.5,1.4,7.8-1.4,9.7-6.1s0.5-9.7-2.9-11.1
		C2072.3,531.2,2067,532.8,2065.2,537.5z"/>
	<path fill="#13749A" d="M1848.9,635c7.1,5,62.5,32.2,129.2,20.3c54.7-9.8,91.7-46,99.5-56.9c-17.8,11.5-50.1,36.7-88.8,44.8
		C1938.5,653.6,1884,649.5,1848.9,635z"/>
</g>
<g>
	<path fill="#A1D4E8" d="M-666.1,586.5c-0.4-2.2-0.8-4.6-1-6.6c0.5-6.8-0.2-15.5-5.1-24.2c1.9,0.7,4.1,1.6,4.1,1.6
		c-6.3-9.1-13-14.2-17.4-16.9c1.2-1.1,4.7-1.4,4.7-1.4c-3.9-1.9-16-4.6-26-6.8l4.4-2.2l-18-1c-8.2-2.9-18.1-5.4-29.8-7.2
		c1-1.9,2.6-8.9,2.6-8.9c-11.2-1.3-28,1.4-33.4,1.9c-1.8-0.1-4.1,6.5-6,6.5c0,0-26.9-18-29.4,10.1c-1.9,21.2-2.2,42.8-2.2,52
		c7.5-0.6,15-0.5,22.4-0.1c10.2,0.5,20.4,1,30.6,1.8c3.2,0.2,6.3,0.5,9.4,0.9c14.3,0.9,43.2,4.3,62.8,7.1l0.3-3.9l1.9,0.3l12.2,0.9
		l0.5-3.4c0.1-0.7,0.1-1.3,0.1-1.7C-674.3,585.6-670.2,586.1-666.1,586.5z"/>
	<path fill="#84BFCD" d="M-678.3,585.2c1.8,0.1,3.6,0.3,5.4,0.5c2.2-35.4-31.3-46-31.3-46C-675.4,553.4-677.8,581.2-678.3,585.2z"/>
	<path fill="#EAF6FD" d="M-972.4,163.7c-10.3-17.5-18.2-28.3-18.2-28.3c15.2-14.8,43.8-9.8,43.8-9.8l-15.4-21.4l29.2-8.7
		c-3.3-13.6-17.2-26.6-17.2-26.6c55.4-15.8,91.8,11.9,91.8,11.9c-2.3-12.8-17.4-33.5-17.4-33.5c52.6,7.5,89.8,52.6,89.8,52.6
		c1.3-7.1-3-27.7-3-27.7s26.6,22.2,40.1,54.4c4.6,11,21.6,89.9,23.2,107.4c0,0,6.7-2,13.8-0.8c0,0-11.1,13.3-12.7,19.7
		c-1.6,6.4,6.9,47.9,10.8,55.1c3.8,7.2,8.9,11.5,11.4,12.8c0,0-4.5,7.3-8.9,7.7c0,0-0.7,24.2,1.8,29.4c2.5,5.3,10.2,13.8,14,16.6
		c0,0-9.4,9.4-15.2,9.4c0,0,4.9,11.6,6.9,14.6c1.9,3,7.7-2,7.7-2s-1.8,9.1-3,12.2c-1.5,4-0.1,9.3,0.8,12.2c0.9,3,5.9,22.5,6,31.6
		c0.1,9.1-2.6,15.7-2.6,15.7s-2.1-5.2-4.9-6.5c0,0-1.4,18.7-6.3,26.7c-4.9,8-12.1,16.5-14.7,18.1c0,0,1.9-6.4,0.3-9.4
		c0,0-5.7,15.6-27.7,17.1c-47.7,3.3-82.1,9.5-134.5-26.3c-48.7-33.3-33.7-141.4-45.1-211.8c-5.3-32.7-19.2-65.4-32.6-91
		c-9.2-13.4-23.6-22.7-23.6-22.7C-979,162.1-974.5,163.1-972.4,163.7z"/>
	<path fill="#84BFCD" d="M-685.7,576.6c-1.6-6.1-6.2-11.8-7.8-13.7c-10.1-16.7-29.4-19.7-29.4-19.7c34.5,10.8,29.7,45.9,29.7,45.9
		l1.9,0.3l3.7,0.3c0.3-6-0.1-9.6-0.9-13.5L-685.7,576.6z"/>
	<path fill="#4E4D50" d="M-749.5,165.9c33.5-9.1,52.3-39.3,52.3-39.3s7.4,23-5.3,47c-8.9,17-28.2,27.2-38.8,31.7
		C-743.3,192.1-745.7,178.8-749.5,165.9z"/>
	<path fill="#5B5A5D" d="M-749.5,165.9c33.5-9.1,52.3-39.3,52.3-39.3s-5.6,42.4-47.6,58.2C-746.1,178.5-747.7,172.1-749.5,165.9z"/>
	<g>
		<path fill="#A1D4E8" d="M-713.9,350.9c0,0,5-5,12.2-11.4c7.8-9.2,9.8-21,9.8-21c2,3,2,9.6,2,11.3c8.9-6.8,18.8-13.1,26.8-14.8
			c-4.1,1.6-7,3-7,3s6.1,1.4,11.5,1.8l-11.3,87.6l-31.6,11.8C-701.6,419.2-726.7,372.8-713.9,350.9z"/>
		<path fill="#A1D4E8" d="M-663.2,315c5.4-2.2,12.7-4.8,17.8-5.7c0,0-5.4,4.3-5.3,8.6c0,1.9-3.8,2.1-8,1.8l0.7-5.2
			C-659.6,314.4-661.3,314.6-663.2,315z"/>
		<path fill="#A1D4E8" d="M-663.2,315c1.8-0.4,3.6-0.6,5.2-0.5l-0.7,5.2c-5.4-0.4-11.5-1.8-11.5-1.8S-667.2,316.6-663.2,315z"/>
	</g>
	<path fill="#5B5A5D" d="M-695.1,382.3c-2.3,2.7-2.1,6.6,0.4,8.8l51.8,44.8c2.5,2.2,6.5,1.8,8.8-0.9l78.5-90.8
		c2.3-2.7,2.1-6.6-0.4-8.8l-51.8-44.8c-2.5-2.2-6.5-1.8-8.8,0.9L-695.1,382.3z"/>
	<polygon fill="#737F82" points="-622.5,309.2 -572.1,351.7 -629.3,420.9 -681.4,376.1 	"/>
	<path fill="#CCEBF6" d="M-777.3,137.4c-16.6-33.4-76.1-65.8-87-71.5c-5.1-9.7-11.6-18.6-11.6-18.6c52.6,7.5,89.8,52.6,89.8,52.6
		c1.3-7.1-3-27.7-3-27.7s26.6,22.2,40.1,54.4c4.6,11,21.6,89.9,23.2,107.4c0,0,6.7-2,13.8-0.8c0,0-11.1,13.3-12.7,19.7
		c-1.6,6.4,6.9,47.9,10.8,55.1c3.8,7.2,8.9,11.5,11.4,12.8c0,0-4.5,7.3-8.9,7.7c0,0-0.7,24.2,1.8,29.4c2.5,5.3,10.2,13.8,14,16.6
		c0,0-9.1,10.5-14.9,10.5c0,0,4.7,10.5,6.6,13.5c1.9,3,7.7-2,7.7-2s-1.8,9.1-3,12.2c-1.5,4-0.1,9.3,0.8,12.2c0.9,3,5.9,22.5,6,31.6
		c0.1,9.1-2.6,15.7-2.6,15.7s-2.1-5.2-4.9-6.5c0,0-1.4,18.7-6.3,26.7c-4.9,8-12.1,16.5-14.7,18.1c0,0,1.7-3.1,0.1-6.1
		c0,0-7.4,12.6-28.8,17.8c-18.4,4.4-33.2,5.5-52.2-1.7c-13.5-5.5-20.7-19.9-20.7-19.9c87.6,35,117.1-24.1,109.9-63.7
		c-3.5-19.1-22.8-52.2-22.8-52.2c9.9,3.6,16.4-5.2,16.4-5.2s-4.7-1.3-12.3-9.6c-7.6-8.3-2.6-49.9-2.6-49.9c3.6,1.5,7.3,2,8.3,2.1
		c0.2,0,0.2,0,0.2,0s-0.1,0-0.2,0c-0.7-0.2-3.1-2-6.8-14.4c1.2-0.5,2.4-1.2,3.6-1.8c0.3-0.2,0.5-0.5,0.4-0.9
		c-2.2-9.2-0.4-18.7-1.8-27.9c-0.4-2.4-0.9-6.2-3.1-7.8c-2.3-1.6-5-1.2-7.8-1c-1.2-6.9-2.5-14.8-3.9-23.6
		c-12.2-79.8-26.9-125-26.9-125C-769.8,123.5-777.3,137.4-777.3,137.4z"/>
	<path fill="#A1D4E8" d="M-672,352.6c26.5,23.3,58.8,7.6,58.8,7.6c-3.3-8.9-26-44.3-44.7-45.7C-658,314.6-686.5,323.7-672,352.6z"/>
	<path fill="#A1D4E8" d="M-656.6,378.3c37.1-8.1,68.2,3.2,68.2,3.2c14.7,4.7,8.6,21.3,1,33.7c0,0,0.1,0,0.1,0c0,0-7.3,15.4-7.6,19.7
		l-3.8-5c-9.1,8.9-23,15.4-41.6,2C-662.3,416.3-656.6,378.3-656.6,378.3z"/>
	
		<ellipse transform="matrix(-0.9973 -7.393128e-02 7.393128e-02 -0.9973 -1687.1354 522.3458)" fill="#CCEBF6" cx="-833.9" cy="292.4" rx="15.6" ry="19.8"/>
	
		<ellipse transform="matrix(-0.9973 -7.393128e-02 7.393128e-02 -0.9973 -1530.1942 516.2516)" fill="#CCEBF6" cx="-755.5" cy="286.4" rx="15.6" ry="19.8"/>
	
		<ellipse transform="matrix(-0.9973 -7.393128e-02 7.393128e-02 -0.9973 -1683.0603 511.8042)" fill="#FFFFFF" cx="-832.1" cy="287.1" rx="15.4" ry="19.5"/>
	
		<ellipse transform="matrix(-0.9973 -7.393128e-02 7.393128e-02 -0.9973 -1528.5431 505.8032)" fill="#FFFFFF" cx="-754.9" cy="281.2" rx="15.4" ry="19.5"/>
	<path fill="#4E4D50" d="M-762.7,272c-0.2,0.5-0.3,1-0.3,1.5c-0.2,2.7,1.4,5.1,3.6,5.2c2,0.1,3.7-1.5,4.2-3.8c1.1,1.7,1.7,4,1.6,6.5
		c-0.4,5.1-4,8.9-8.1,8.6c-4.1-0.3-7.1-4.7-6.7-9.7C-768.1,276.3-765.7,273-762.7,272z"/>
	<path fill="#5B5A5D" d="M-890.3,282.4c0,0,6.6-2.1,13.1-3.5c2.1,11.3,5.5,25.7,5.5,25.7l0.1,0.4c0.2,0.7,0.5,1.4,0.7,2.2
		c1.8,5.6,3.4,8.9,8.9,10.5c5.4,1.6,18.1,2.5,30.8,2.2c4.7-0.1,10-0.8,15.4-2c7.9-1.8,15-4.5,17.6-6.7c3.8-3.3,5.4-10.9,6.4-16
		l0.3-1.5c0.4-1.7,0.7-3.5,1-5.3c0.4-2.5,0.9-5.1,1.3-6c0.1-0.2,0.5-0.7,2.2-1.1c1.2-0.3,2.7-0.4,4.6-0.4c1.4,0,1.4,0,1.8,1.3
		c0.2,0.5,0.3,1,0.6,1.5c0.1,0.2,0.4,1.4,0.6,2.2c1.5,5.8,4.7,18,10.2,21.2c5.8,3.3,12.4,4.7,30.3,2.2c2.5-0.3,4.8-0.8,6.8-1.2
		c10.7-2.4,13.6-5.9,14.7-10.5c1.2-5.4,1.9-14.3,1.9-14.7c0.1-1.9,0.6-2.9,1.6-3.7c1.5-1.1,3.5-2.5,3.4-5.3l-0.5-6.5
		c-0.2-2.1-0.5-4-1.6-5.3c-0.7-0.8-1.6-1.3-2.7-1.5c-4.8-0.7-15.1-1.7-29.4-1c-6.3,0.3-12.4,1.1-18.5,2.5
		c-5.7,1.3-10.1,2.7-13.7,3.9c-0.7,0.2-1.4,0.4-2,0.6c-2,0.6-3.3,1-4.4,1.3c-2.2,0.5-3.6,0.4-7.6,0.2l-1.9-0.1
		c-1.8-0.1-4.1-0.3-7-0.5c-9.8-0.8-26.3-2.2-45.3-1.8c-14.6,0.4-26.7,2.4-33.6,4c0,0-7.3,1.5-13.5,4.7L-890.3,282.4z M-760.4,270.3
		c0.4-0.1,0.7-0.2,1.1-0.2l0.8-0.2c4.7-1,17.1-3.5,25.8-3.6c4.5,0,9.3,0.1,10.5,1.4c0.1,0.1,0.3,0.3,0.4,1.2
		c0.5,4-0.5,24.8-1.6,26.7c-1.2,2.2-6.2,5.6-16.3,7.2c-10.6,1.8-20.7,1.6-23.9,0.5c-2.7-1-3.5-1.2-6-8.4c-2.3-6.6-3.4-11.8-3.5-16.4
		C-773,275-768.6,272.1-760.4,270.3z M-866.5,277.2c0.5-0.2,1.2-0.4,2.3-0.6c6.6-1.5,21-3.5,27.9-3.7c8.7-0.3,30.1,1.1,35.1,2.9
		c3.7,1.3,3.6,2.7,3.5,5.5l0,0.1c-0.1,2.6-0.8,16-3.3,20.8c-2.4,4.6-3.3,5.7-11.6,7.8c-0.4,0.1-0.7,0.2-1.1,0.3
		c-9,2-25.5,3.5-35,2.4l-0.7-0.1c-9.6-1.1-13-1.6-14.2-4.5c-1.6-3.9-5.5-22.1-6-26C-869.9,279-867.2,277.4-866.5,277.2z"/>
	<path fill="#4E4D50" d="M-835.4,276.7c-0.2,0.5-0.3,1-0.3,1.5c-0.2,2.7,1.4,5.1,3.6,5.2c2,0.1,3.7-1.5,4.2-3.8
		c1.1,1.7,1.7,4,1.6,6.5c-0.4,5.1-4,8.9-8.1,8.6c-4.1-0.3-7.1-4.7-6.7-9.7C-840.8,281-838.4,277.7-835.4,276.7z"/>
	<path fill="#A1D4E8" d="M-818.2,216.7c0,0-26.4-13.7-39.4-2c0,0,0.9-12.5,17.7-10.6C-828.2,205.1-823.5,210-818.2,216.7z"/>
	<path fill="#A1D4E8" d="M-822.8,202.1c0,0-8.2-9.3-24-8.3c0,0,6.5-4.8,14.1-2.2C-827.9,193.2-824.9,196.5-822.8,202.1z"/>
	<path fill="#A1D4E8" d="M-742.1,230.7c0,0-14.4,4-21.2,13.1c0,0-0.9-8.3,7.2-12.1C-749.8,228.7-747.2,229.7-742.1,230.7z"/>
	<path fill="#A1D4E8" d="M-767.2,228.5c0,0,4.4-6,10.9-5.9c0,0-5.2-2.6-7.9-0.6C-765.4,222.9-767.5,224.8-767.2,228.5z"/>
	<path fill="#5B5A5D" d="M-781.3,331.6c0.7-0.2-17.8,2.7-36.1,3.5c0,0-1.3-3.4-2.8-5.2c0,0,0.8,5.8-0.8,7.2c0,0,9.4,2.9,18.7,2.1
		c0,0-10.2-0.9-13.7-2.3C-816.1,336.8-797.7,336.4-781.3,331.6z"/>
	<path fill="#CCEBF6" d="M-712.2,383.6c0,0-14.3,1.5-22.9-3.9c0,0-3,12.1-15,20.2c0,0-9.7-18.4-19.8-21.7c0,0-1.3,8.8-1.5,16.1
		c0,0-19.7-0.3-35.5-15.5c0,0,2.4,19.6,41.9,23.7c0,0-0.2-9.5,0.2-11.4c0,0,7.6,11.4,12.4,23.9c0,0,21.3-12.2,25.9-25.2
		c0,0,1.6,2.3,17.2,0.9L-712.2,383.6z"/>
	<path fill="#84BFCD" d="M-640.1,376.1c0,0,18.1,16.3,31,21.6c0,0-31.6-9.8-41.6-15.4c0,0,7.3,22.5,33,33.1c0,0-24.8-4.2-34.2-14.4
		c0,0,8.1,33.9,32.8,38.6c0,0-14.8,1.3-26.8-12.4c-12-13.7-12.8-39.3-10.7-48.9C-656.6,378.3-646.4,376.1-640.1,376.1z"/>
	<path fill="#84BFCD" d="M-670.3,354c0,0-6.2-4.3-9.1-7.9c0,0-0.8,7.2,5.7,11.5L-670.3,354z"/>
	<path fill="#84BFCD" d="M-728.7,526.6c0,0-24.4,11.4-57.7,5.9l1.3-11.6c0,0,19,1.8,37.3-3.4l-0.1,4.2l6-3.2l-0.7,4.5L-728.7,526.6z
		"/>
	<path fill="#CCEBF6" d="M-863,541l4.3,0.2c15.8,0.4,26.5-0.9,42.3,0.9c10,1.2,20.9,2.5,31.6,3.8c-5.6-4.8-7.8-8.4-12.8-15l-2.5,3.7
		c-1.7-2.7-4.8-10.6-6.4-14.2c-8.6-12.4-14.7-23.5-14.7-23.5l23.8,10.5c0.9,3.3,2.8,6.6,5.2,9.9c0.2,0.5,0.3,1,0.4,1.5
		c2.4-2.7,5.3-5,5.7-0.9c0.1,0.6,0.1,1.3,0.1,2c4.5,8.1,23.9,22.2,23.9,22.2c1.3,0.9,2.1,1.4,2.1,1.4l-4.4,0.9l0.5,4.4
		c0.1,0,0.3,0,0.4,0.1c0.1,2.1,0.4,4.1,0.7,6.2c-0.1,1-0.1,1.7-0.1,1.7l-0.7,15c1.1,1.9,3.3,5.2,5.7,6.1c0,0-2.5,2-4.7,0.4l0.2,1.6
		c0,0,0.7,12.3-9.4,11.9l-28-1.1c-1.6-0.1-2.6-0.1-2.6-0.1l-30.2-1.2l0.1-4.2l-17.3-0.1l-2.4-6.1l-26.1-1.1
		C-880.4,550.8-872.6,541.7-863,541z"/>
	<path fill="#EAF6FD" d="M-885.8,576.3c-0.2,0.6-0.5,1.2-0.8,1.7l10.8,0.1l4.2,0.2c1.4-36.2,25.6-32.4,25.6-32.4
		c-1,0.3-2,0.8-2.9,1.5c-3.3,1.9-8.4,5.6-10.4,11.2l3.3,0.1c-3.8,11.4-3.7,26.2-3.7,26.2l12.2,0.5c-0.1-4.8,0.3-9,0.9-12.6l2.8,1.1
		c-1.8-3.5,1.4-13.2,1.9-14.8c3.8-6.6,8.3-9,9.6-9.6l0,0.5c0,0,10.6-6.2,27.2-3.4c16.6,2.8,18,3,18,3s-2.1-1.3-5.6-3.6l11,0.4
		c-5.1-3.1-10.8-8.8-16.1-15.3c-0.9-1.1-1.4,1.1-2.5,2.8c-1.3-2.6-2.4-9.1-3.6-10.6c-10.4-14.1-18.6-28.7-18.6-28.7l-17.4,14.4
		c-1.5-1.7-2.7-3.3-3.6-4.7l-39.6-16.3c0,0,4,18.8,6.5,24l3.7-4.2c2.6,4.4,5.7,9.1,9.2,13.4l-1.2-0.8l2.7,7.4l2.5-1.9
		c5,5.5,10.6,10.2,16.6,12.6c-10.9-2.7-14.3-1.8-21.1-0.8l1.7,2.7c-6.9-0.3-11.4,3.7-14.4,9.1c-0.5,0.6-4.6,5.6-5.8,11.1l2.2-0.8
		c-0.6,2.9-1,5.7-1.3,8.3C-882.1,569.5-883.8,573.9-885.8,576.3z M-844.6,564.9c0.8-2.2,1.7-4.1,2.6-5.7L-844.6,564.9z"/>
	<path fill="#EAF6FD" d="M-825,560.1l-2-2c4-2.6,10.1-2.6,13.2-2.3c0.9-0.1,1.9-0.1,2.9,0c0,0-10.6,8.7-10.8,34l-11-0.4
		C-832.8,589.4-835.6,569.2-825,560.1z"/>
	<path fill="#5B5A5D" d="M-920.6,182.2c-1.3,0.4-5.5,1.6-5.5,1.6c-37.8,12.2-73.5-10.6-73.5-10.6s3.2,23.9,25,40.2
		c21.8,16.3,56.6,11.4,56.6,11.4c2.3,4.5,2.5,15.7,2.5,15.7s7.2-13.4,4.6-34.8C-912.8,190.6-919.8,181.9-920.6,182.2"/>
	<path fill="#737F82" d="M-920.6,182.2c-1.3,0.4-5.5,1.6-5.5,1.6c-37.8,12.2-73.5-10.6-73.5-10.6s30.2,46.5,88,28
		C-911.7,201.1-912.4,191.3-920.6,182.2"/>
</g>
<g>
	<circle fill="#178DBB" cx="-908.6" cy="463.4" r="143.9"/>
	<path fill="#45A4C9" d="M-930.8,358.7c31.4-24.6,121.3,2.7,124.5,29.4c0.3,2.5,3.7,18.8,2.5,22c-6.1,16.3-103.9,47.3-139.9,30.3
		c0,0-14-13.7-14.4-38.1C-958.5,378-930.8,358.7-930.8,358.7z"/>
	<path fill="#45A4C9" d="M-997,461.5c-3,9.6-14.1,16.2-21.1,14s-10.3-11.7-7.3-21.3c3-9.6,11.1-15.6,18.1-13.4
		C-1000.4,443-994.1,451.9-997,461.5z"/>
	<path fill="#43525A" d="M-767.9,440.2c-46.1,4.5-93.7,8.4-142.6,11.5c-47.9,3.1-94.5,5.3-139.8,6.7c-1,0.1-1.6-0.2-2-0.4
		c-1.4-0.9-1.6-3-1.8-5.3l2.2-13.7c0.1-0.5,0.1-0.9,0.1-1.4c-0.1-3,0.6-6.4,3.5-6.6c43.6-0.7,89-2.3,136-5.1
		c48.2-2.9,93.9-6.7,138.2-11.5c0.6,0,1.4,0,2.1,0.4c1.6,0.9,1.5,3.1,1.6,5.3l4.4,16.5C-765.6,438.4-766.1,440-767.9,440.2z"/>
	<polygon fill="#384449" points="-803.1,443.5 -807.2,444 -810.1,418 -806,417.5 	"/>
	
		<rect x="-898" y="424.9" transform="matrix(0.999 -4.389518e-02 4.389518e-02 0.999 -20.0819 -38.9069)" fill="#384449" width="4.1" height="25.8"/>
	<g>
		<path fill="#157CA3" d="M-873.9,407.4"/>
		<path fill="#157CA3" d="M-810.7,420.3l3.3,13.8c4.5,15.6-7.1,29.7-14.1,34.3c-6.9,4.7-35.4,7.9-46.4,6.5
			c-9.5-1.2-19.9-3.9-26.1-27.2"/>
		<path fill="#43525A" d="M-839.1,469l-21.1,0.9c-18.9,0.8-34.9-13.8-35.7-32.7l-0.3-7.9c-0.8-18.9,13.8-34.9,32.7-35.7l21.1-0.9
			c18.9-0.8,34.9,13.8,35.7,32.7l0.3,7.9C-805.6,452.2-820.2,468.2-839.1,469z"/>
		<path fill="#DBE0E1" stroke="#DBE0E1" stroke-width="4" stroke-miterlimit="10" d="M-839.1,455.4l-22.3,1
			c-12.2,0.5-22.4-8.9-23-21.1l-0.2-5.1c-0.5-12.2,8.9-22.4,21.1-23l22.3-1c12.2-0.5,22.4,8.9,23,21.1l0.2,5.1
			C-817.5,444.6-826.9,454.9-839.1,455.4z"/>
		<g>
			<g>
				
					<rect x="-876.9" y="414.2" transform="matrix(0.9991 -4.320005e-02 4.320005e-02 0.9991 -19.4856 -37.4236)" fill="#E2E5E8" width="2.5" height="35.8"/>
				
					<rect x="-867.2" y="413.8" transform="matrix(0.9991 -4.320005e-02 4.320005e-02 0.9991 -19.4584 -37.0036)" fill="#E2E5E8" width="2.5" height="35.8"/>
				
					<rect x="-857.4" y="413.4" transform="matrix(0.9991 -4.320005e-02 4.320005e-02 0.9991 -19.4311 -36.5836)" fill="#E2E5E8" width="2.5" height="35.8"/>
				
					<rect x="-847.7" y="413" transform="matrix(0.9991 -4.320005e-02 4.320005e-02 0.9991 -19.4038 -36.1636)" fill="#E2E5E8" width="2.5" height="35.8"/>
				
					<rect x="-838" y="412.5" transform="matrix(0.9991 -4.320005e-02 4.320005e-02 0.9991 -19.3766 -35.7436)" fill="#E2E5E8" width="2.5" height="35.8"/>
				
					<rect x="-828.2" y="412.1" transform="matrix(0.9991 -4.320005e-02 4.320005e-02 0.9991 -19.3493 -35.3236)" fill="#E2E5E8" width="2.5" height="35.8"/>
			</g>
			<g>
				
					<rect x="-851.9" y="415.9" transform="matrix(-4.320005e-02 -0.9991 0.9991 -4.320005e-02 -1331.1276 -386.7047)" fill="#E2E5E8" width="2.2" height="56.2"/>
				
					<rect x="-852.2" y="407.3" transform="matrix(-4.320005e-02 -0.9991 0.9991 -4.320005e-02 -1322.8771 -396.1006)" fill="#E2E5E8" width="2.2" height="56.2"/>
				
					<rect x="-852.6" y="398.6" transform="matrix(-4.320005e-02 -0.9991 0.9991 -4.320005e-02 -1314.6266 -405.4966)" fill="#E2E5E8" width="2.2" height="56.2"/>
				
					<rect x="-853" y="390" transform="matrix(-4.320005e-02 -0.9991 0.9991 -4.320005e-02 -1306.3761 -414.8925)" fill="#E2E5E8" width="2.2" height="56.2"/>
			</g>
		</g>
	</g>
	<path fill="#45A4C9" d="M-1007.7,497.2c1,3.8-1.4,8.3-4.2,9c-2.8,0.7-5.9-1.8-6.8-5.6s0.5-7.5,3.3-8.2S-1008.7,493.4-1007.7,497.2z
		"/>
	<path fill="#13749A" d="M-851.2,592.1c-5.9,3.1-50.9,18.8-100.9,3.4c-41-12.6-65.9-43.8-70.9-52.9c12.5,10.5,34.9,32.8,63.8,42.7
		C-921.6,598.1-879.5,600-851.2,592.1z"/>
</g>
<g>
	<path fill="#EAF6FD" stroke="#CCE9F3" stroke-width="0.5" stroke-miterlimit="10" d="M-885,302c-12.1-3-19.2-9.1-32.3-11.8
		c-12.8-2.6-25.3-4.9-37.4-6.9l-11.8,1.4l3.1,2.6c-6.4,3.2-12.3,6.9-17.3,11.2c0,0,0-0.1,0-0.1s-9,10.4-10,14.3c0,0,6.2-4.4,9.3-4.5
		c0,0,0.1,0,0.1,0c-0.2,9.4,0.4,24.9,3.6,35.9l18.9-2.9c9.7,0.1,20.7,0.7,27,2.6c2.3,0.7,4.4,1.7,6.3,3c1,0.3,2,0.6,3,1
		c2.3,0.7,4.7,1.3,6.6,2.8c1.9,1.5,2.6,4.2,3.2,6.4c1.2,4.5-0.4,9.5,0.5,14.1c0,0.2-0.1,0.4-0.1,0.6c0,0,0,0,0,0c0,0,0,0,0,0
		c-0.5,2.7-0.9,5.4-0.7,8c0.7,11.7,3.4,9.9,6.8,12.1c3.6-3.6,6.7-6.8,9.5-9.8c3.3,6.6,12.7,11.2,12.7,11.2s8.6-13.1,10.4-15.6
		c1.6-2.2,1.8-4.2,1.5-7.9c0.1-3,0-7.9-0.7-11.8l3.1,2c-5.4-13.7-5.7-16.5-7.3-19.6c0.8,0.1,1.7,0.2,2.4,0.3
		c8.4,3.4,20.9,8.8,30,13.4l7.7,4.2c0,0-0.5-1.1-1.3-2.9c-0.5-2.2-0.9-5.4-1.3-8.4c-0.8-4.4-3.7-8.6-7.5-12.4l2.7-1.6l-6.2-1.5l0,0
		c-2.5-1.6-5-3.3-7.6-5.4C-868.8,317.1-881,310-885,302z M-858.2,267.6 M-870.8,266.8c-0.2,0-0.4,0-0.5,0c0,0,0,0,0-0.1
		L-870.8,266.8z M-881.1,339.9c0,0.2,0,0.4,0,0.6c-0.1-0.2-0.2-0.4-0.3-0.6C-881.3,339.9-881.2,339.9-881.1,339.9z"/>
	<path fill="#CCEBF6" d="M-895.7,357.3c-1.6-5.7-3.5-16-6.2-21.9c1.1,1,2.1,2.1,3,3.2c3.3,5.1,6,12.5,7.5,20.2
		c2.2,10.3-5.5,22.8-5.5,22.8s-1.6-1.7-2.4-3.2l3.4-10.2C-895.9,368.2-893.6,364.8-895.7,357.3z"/>
	<g>
		<path fill="#CCEBF6" d="M-891,301.1c3.7,1.4,7.5,2,9.5,5.4c3.5,5.8-11,4.8-4.4,2.7c0,0-13.2-0.9-24.1-4.7
			c-13.9-7-23.1-11.7-35.1-14.6c0,0-0.6-0.5,1.1-1.4c0,0-2.2-0.2-4.2,0.4c0,0-9.6-2.3-13.7-1.9C-961.9,287.1-947.3,279.5-891,301.1z
			"/>
	</g>
</g>
<g>
	<path fill="#A1D4E8" d="M346.5,654.1c0.1-1.3,0.2-2.6,0.3-3.9l1.9,0.3l12.2,0.9l0.5-3.4c0.1-0.7,0.1,0.7,0.1,0.3
		c4.1,0.3,8.2,0.8,12.3,1.2c-0.4-2.2-0.8-6.6-1-8.6c0.5-6.8-0.2-15.5-5.1-24.2c1.9,0.7,4.1,1.6,4.1,1.6c-6.3-9.1-13-14.2-17.4-16.9
		c1.2-1.1,4.7-1.4,4.7-1.4c-3.9-1.9-16-4.6-26-6.8l4.4-2.2l-18-1c-8.2-2.9-18.1-5.4-29.8-7.2c1-1.9,2.6-8.9,2.6-8.9
		c-11.2-1.3-28,1.4-33.4,1.9c-1.8-0.1-4.1,6.5-6,6.5c0,0-14.2-9.5-22.9-3.9c-4.7,3-5.8,9.1-6.5,14c-1.5,10.7-3.2,32-2.2,56
		C263.6,648.8,304.6,648.8,346.5,654.1z"/>
	<path fill="#84BFCD" d="M361.6,648.2c1.8,0.1,3.6,0.3,5.4,0.5c2.2-35.4-31.3-48-31.3-48C364.5,614.4,362.2,644.2,361.6,648.2z"/>
	<path fill="#EAF6FD" d="M67.5,224.7c-10.3-17.5-18.2-28.3-18.2-28.3c15.2-14.8,43.8-9.8,43.8-9.8l-15.4-21.4l29.2-8.7
		c-3.3-13.6-17.2-26.6-17.2-26.6c55.4-15.8,91.8,11.9,91.8,11.9c-2.3-12.8-17.4-33.5-17.4-33.5c52.6,7.5,89.8,52.6,89.8,52.6
		c1.3-7.1-3-27.7-3-27.7s26.6,22.2,40.1,54.4c4.6,11,21.6,89.9,23.2,107.4c0,0,6.7-2,13.8-0.8c0,0-11.1,13.3-12.7,19.7
		c-1.6,6.4,6.9,47.9,10.8,55.1c3.8,7.2,8.9,11.5,11.4,12.8c0,0-4.5,7.3-8.9,7.7c0,0-0.7,24.2,1.8,29.4c2.5,5.3,10.2,13.8,14,16.6
		c0,0-9.4,9.4-15.2,9.4c0,0,4.9,11.6,6.9,14.6c1.9,3,7.7-2,7.7-2s-1.8,9.1-3,12.2c-1.5,4-0.1,9.3,0.8,12.2c0.9,3,5.9,22.5,6,31.6
		c0.1,9.1-2.6,15.7-2.6,15.7s-2.1-5.2-4.9-6.5c0,0-1.4,18.7-6.3,26.7c-4.9,8-12.1,16.5-14.7,18.1c0,0,1.9-6.4,0.3-9.4
		c0,0-5.7,15.6-27.7,17.1c-47.7,3.3-82.1,9.5-134.5-26.3c-48.7-33.3-33.7-141.4-45.1-211.8c-5.3-32.7-19.2-65.4-32.6-91
		c-9.2-13.4-23.6-22.7-23.6-22.7C60.9,223.1,65.5,224.1,67.5,224.7z"/>
	<path fill="#84BFCD" d="M354.2,637.7c-1.6-6.1-6.2-11.8-7.8-13.7c-10.1-16.7-29.4-19.7-29.4-19.7c34.5,10.8,29.7,45.9,29.7,45.9
		l1.9,0.3l3.7,0.3c0.3-6-0.1-9.6-0.9-13.5L354.2,637.7z"/>
	<path fill="#4E4D50" d="M290.4,226.9c33.5-9.1,52.3-39.3,52.3-39.3s7.4,23-5.3,47c-8.9,17-28.2,27.2-38.8,31.7
		C296.6,253.1,294.3,239.8,290.4,226.9z"/>
	<path fill="#5B5A5D" d="M290.4,226.9c33.5-9.1,52.3-39.3,52.3-39.3s-5.6,42.4-47.6,58.2C293.8,239.5,292.3,233.1,290.4,226.9z"/>
	<g>
		<path fill="#A1D4E8" d="M326,411.9c0,0,5-5,12.2-11.4c7.8-9.2,9.8-21,9.8-21c2,3,2,9.6,2,11.3c8.9-6.8,18.8-13.1,26.8-14.8
			c-4.1,1.6-7,3-7,3s6.1,1.4,11.5,1.8L370,468.4l-31.6,11.8C338.3,480.2,313.2,433.8,326,411.9z"/>
		<path fill="#A1D4E8" d="M376.8,376c5.4-2.2,12.7-4.8,17.8-5.7c0,0-5.4,4.3-5.3,8.6c0,1.9-3.8,2.1-8,1.8l0.7-5.2
			C380.3,375.4,378.6,375.6,376.8,376z"/>
		<path fill="#A1D4E8" d="M376.8,376c1.8-0.4,3.6-0.6,5.2-0.5l-0.7,5.2c-5.4-0.4-11.5-1.8-11.5-1.8S372.7,377.6,376.8,376z"/>
	</g>
	<path fill="#5B5A5D" d="M344.8,443.3c-2.3,2.7-2.1,6.6,0.4,8.8l51.8,44.8c2.5,2.2,6.5,1.8,8.8-0.9l78.5-90.8
		c2.3-2.7,2.1-6.6-0.4-8.8l-51.8-44.8c-2.5-2.2-6.5-1.8-8.8,0.9L344.8,443.3z"/>
	<polygon fill="#737F82" points="417.4,370.2 467.8,412.7 410.6,481.9 358.5,437.1 	"/>
	<path fill="#CCEBF6" d="M262.6,198.4c-16.6-33.4-76.1-65.8-87-71.5c-5.1-9.7-11.6-18.6-11.6-18.6c52.6,7.5,89.8,52.6,89.8,52.6
		c1.3-7.1-3-27.7-3-27.7s26.6,22.2,40.1,54.4c4.6,11,21.6,89.9,23.2,107.4c0,0,6.7-2,13.8-0.8c0,0-11.1,13.3-12.7,19.7
		c-1.6,6.4,6.9,47.9,10.8,55.1c3.8,7.2,8.9,11.5,11.4,12.8c0,0-4.5,7.3-8.9,7.7c0,0-0.7,24.2,1.8,29.4c2.5,5.3,10.2,13.8,14,16.6
		c0,0-9.1,10.5-14.9,10.5c0,0,4.7,10.5,6.6,13.5c1.9,3,7.7-2,7.7-2s-1.8,9.1-3,12.2c-1.5,4-0.1,9.3,0.8,12.2c0.9,3,5.9,22.5,6,31.6
		c0.1,9.1-2.6,15.7-2.6,15.7s-2.1-5.2-4.9-6.5c0,0-1.4,18.7-6.3,26.7c-4.9,8-12.1,16.5-14.7,18.1c0,0,1.7-3.1,0.1-6.1
		c0,0-7.4,12.6-28.8,17.8c-18.4,4.4-33.2,5.5-52.2-1.7c-13.5-5.5-20.7-19.9-20.7-19.9c87.6,35,117.1-24.1,109.9-63.7
		c-3.5-19.1-22.8-52.2-22.8-52.2c9.9,3.6,16.4-5.2,16.4-5.2s-4.7-1.3-12.3-9.6c-7.6-8.3-2.6-49.9-2.6-49.9c3.6,1.5,7.3,2,8.3,2.1
		c0.2,0,0.3,0,0.3,0s-0.1,0-0.3,0c-0.7-0.2-3.1-2-6.8-14.4c1.2-0.5,2.4-1.2,3.6-1.8c0.3-0.2,0.5-0.5,0.4-0.9
		c-2.2-9.2-0.4-18.7-1.8-27.9c-0.4-2.4-0.9-6.2-3.1-7.8c-2.3-1.6-5-1.2-7.8-1c-1.2-6.9-2.5-14.8-3.9-23.6
		c-12.2-79.8-26.9-125-26.9-125C270.2,184.5,262.6,198.4,262.6,198.4z"/>
	<path fill="#A1D4E8" d="M367.9,413.6c26.5,23.3,58.8,7.6,58.8,7.6c-3.3-8.9-26-44.3-44.7-45.7C381.9,375.6,353.4,384.7,367.9,413.6
		z"/>
	<path fill="#A1D4E8" d="M383.3,439.3c37.1-8.1,68.2,3.2,68.2,3.2c14.7,4.7,8.6,21.3,1,33.7c0,0,0.1,0,0.1,0c0,0-7.3,15.4-7.6,19.7
		l-3.8-5c-9.1,8.9-23,15.4-41.6,2C377.6,477.3,383.3,439.3,383.3,439.3z"/>
	
		<ellipse transform="matrix(-0.9973 -7.393128e-02 7.393128e-02 -0.9973 385.3478 721.0645)" fill="#CCEBF6" cx="206" cy="353.4" rx="15.6" ry="19.8"/>
	
		<ellipse transform="matrix(-0.9973 -7.393128e-02 7.393128e-02 -0.9973 542.289 714.9702)" fill="#CCEBF6" cx="284.4" cy="347.4" rx="15.6" ry="19.8"/>
	
		<ellipse transform="matrix(-0.9973 -7.393128e-02 7.393128e-02 -0.9973 389.4229 710.5228)" fill="#FFFFFF" cx="207.9" cy="348.1" rx="15.4" ry="19.5"/>
	
		<ellipse transform="matrix(-0.9973 -7.393128e-02 7.393128e-02 -0.9973 543.9401 704.5219)" fill="#FFFFFF" cx="285" cy="342.2" rx="15.4" ry="19.5"/>
	<path fill="#4E4D50" d="M277.3,333c-0.2,0.5-0.3,1-0.3,1.5c-0.2,2.7,1.4,5.1,3.6,5.2c2,0.1,3.7-1.5,4.2-3.8c1.1,1.7,1.7,4,1.6,6.5
		c-0.4,5.1-4,8.9-8.1,8.6c-4.1-0.3-7.1-4.7-6.7-9.7C271.9,337.3,274.2,334,277.3,333z"/>
	<path fill="#5B5A5D" d="M149.6,343.4c0,0,6.6-2.1,13.1-3.5c2.1,11.3,5.5,25.7,5.5,25.7l0.1,0.4c0.2,0.7,0.5,1.4,0.7,2.2
		c1.8,5.6,3.4,8.9,8.9,10.5c5.4,1.6,18.1,2.5,30.8,2.2c4.7-0.1,10-0.8,15.4-2c7.9-1.8,15-4.5,17.6-6.7c3.8-3.3,5.4-10.9,6.4-16
		l0.3-1.5c0.4-1.7,0.7-3.5,1-5.3c0.4-2.5,0.9-5.1,1.3-6c0.1-0.2,0.5-0.7,2.2-1.1c1.2-0.3,2.7-0.4,4.6-0.4c1.4,0,1.4,0,1.8,1.3
		c0.2,0.5,0.3,1,0.6,1.5c0.1,0.2,0.4,1.4,0.6,2.2c1.5,5.8,4.7,18,10.2,21.2c5.8,3.3,12.4,4.7,30.3,2.2c2.5-0.3,4.8-0.8,6.8-1.2
		c10.7-2.4,13.6-5.9,14.7-10.5c1.2-5.4,1.9-14.3,1.9-14.7c0.1-1.9,0.6-2.9,1.6-3.7c1.5-1.1,3.5-2.5,3.4-5.3l-0.5-6.5
		c-0.2-2.1-0.5-4-1.6-5.3c-0.7-0.8-1.6-1.3-2.7-1.5c-4.8-0.7-15.1-1.7-29.4-1c-6.3,0.3-12.4,1.1-18.5,2.5
		c-5.7,1.3-10.1,2.7-13.7,3.9c-0.7,0.2-1.4,0.4-2,0.6c-2,0.6-3.3,1-4.4,1.3c-2.2,0.5-3.6,0.4-7.6,0.2l-1.9-0.1
		c-1.8-0.1-4.1-0.3-7-0.5c-9.8-0.8-26.3-2.2-45.3-1.8c-14.6,0.4-26.7,2.4-33.6,4c0,0-7.3,1.5-13.5,4.7L149.6,343.4z M279.5,331.3
		c0.4-0.1,0.7-0.2,1.1-0.2l0.8-0.2c4.7-1,17.1-3.5,25.8-3.6c4.5,0,9.3,0.1,10.5,1.4c0.1,0.1,0.3,0.3,0.4,1.2
		c0.5,4-0.5,24.8-1.6,26.7c-1.2,2.2-6.2,5.6-16.3,7.2c-10.6,1.8-20.7,1.6-23.9,0.5c-2.7-1-3.5-1.2-6-8.4c-2.3-6.6-3.4-11.8-3.5-16.4
		C266.9,336,271.4,333.1,279.5,331.3z M173.4,338.2c0.5-0.2,1.2-0.4,2.3-0.6c6.6-1.5,21-3.5,27.9-3.7c8.7-0.3,30.1,1.1,35.1,2.9
		c3.7,1.3,3.6,2.7,3.5,5.5l0,0.1c-0.1,2.6-0.8,16-3.3,20.8c-2.4,4.6-3.3,5.7-11.6,7.8c-0.4,0.1-0.7,0.2-1.1,0.3
		c-9,2-25.5,3.5-35,2.4l-0.7-0.1c-9.6-1.1-13-1.6-14.2-4.5c-1.6-3.9-5.5-22.1-6-26C170,340,172.7,338.4,173.4,338.2z"/>
	<path fill="#4E4D50" d="M204.5,337.7c-0.2,0.5-0.3,1-0.3,1.5c-0.2,2.7,1.4,5.1,3.6,5.2c2,0.1,3.7-1.5,4.2-3.8
		c1.1,1.7,1.7,4,1.6,6.5c-0.4,5.1-4,8.9-8.1,8.6c-4.1-0.3-7.1-4.7-6.7-9.7C199.1,342,201.5,338.7,204.5,337.7z"/>
	<path fill="#A1D4E8" d="M221.8,277.7c0,0-26.4-13.7-39.4-2c0,0,0.9-12.5,17.7-10.6C211.8,266.1,216.5,271,221.8,277.7z"/>
	<path fill="#A1D4E8" d="M217.1,263.1c0,0-8.2-9.3-24-8.3c0,0,6.5-4.8,14.1-2.2C212,254.2,215,257.5,217.1,263.1z"/>
	<path fill="#A1D4E8" d="M297.9,291.7c0,0-14.4,4-21.2,13.1c0,0-0.9-8.3,7.2-12.1C290.1,289.7,292.7,290.7,297.9,291.7z"/>
	<path fill="#A1D4E8" d="M272.7,289.5c0,0,4.4-6,10.9-5.9c0,0-5.2-2.6-7.9-0.6C274.5,283.9,272.4,285.8,272.7,289.5z"/>
	<path fill="#5B5A5D" d="M258.6,392.6c0.7-0.2-17.8,2.7-36.1,3.5c0,0-1.3-3.4-2.8-5.2c0,0,0.8,5.8-0.8,7.2c0,0,9.4,2.9,18.7,2.1
		c0,0-10.2-0.9-13.7-2.3C223.8,397.8,242.3,397.4,258.6,392.6z"/>
	<path fill="#CCEBF6" d="M327.8,444.6c0,0-14.3,1.5-22.9-3.9c0,0-3,12.1-15,20.2c0,0-9.7-18.4-19.8-21.7c0,0-1.3,8.8-1.5,16.1
		c0,0-19.7-0.3-35.5-15.5c0,0,2.4,19.6,41.9,23.7c0,0-0.2-9.5,0.2-11.4c0,0,7.6,11.4,12.4,23.9c0,0,21.3-12.2,25.9-25.2
		c0,0,1.6,2.3,17.2,0.9L327.8,444.6z"/>
	<path fill="#84BFCD" d="M399.8,437.1c0,0,18.1,16.3,31,21.6c0,0-31.6-9.8-41.6-15.4c0,0,7.3,22.5,33,33.1c0,0-24.8-4.2-34.2-14.4
		c0,0,8.1,33.9,32.8,38.6c0,0-14.8,1.3-26.8-12.4c-12-13.7-12.8-39.3-10.7-48.9C383.3,439.3,393.5,437.1,399.8,437.1z"/>
	<path fill="#84BFCD" d="M369.6,415c0,0-6.2-4.3-9.1-7.9c0,0-0.8,7.2,5.7,11.5L369.6,415z"/>
	<path fill="#84BFCD" d="M311.2,587.6c0,0-24.4,11.4-57.7,5.9l1.3-11.6c0,0,19,1.8,37.3-3.4l-0.1,4.2l6-3.2l-0.7,4.5L311.2,587.6z"
		/>
	<path fill="#CCEBF6" d="M176.9,602l4.3,0.2c15.8,0.4,26.5-0.9,42.3,0.9c10,1.2,20.9,2.5,31.6,3.8c-5.6-4.8-7.8-8.4-12.8-15
		l-2.5,3.7c-1.7-2.7-4.8-10.6-6.4-14.2c-8.6-12.4-14.7-23.5-14.7-23.5l23.8,10.5c0.9,3.3,2.8,6.6,5.2,9.9c0.2,0.5,0.3,1,0.4,1.5
		c2.4-2.7,5.3-5,5.7-0.9c0.1,0.6,0.1,1.3,0.1,2c4.5,8.1,23.9,22.2,23.9,22.2c1.3,0.9,2.1,1.4,2.1,1.4l-4.4,0.9l0.5,4.4
		c0.1,0,0.3,0,0.4,0.1c0.1,2.1,0.4,4.1,0.7,6.2c-0.1,1-0.1,1.7-0.1,1.7l-0.7,15c1.1,1.9,3.3,5.2,5.7,6.1c0,0-2.5,2-4.7,0.4l0.2,1.6
		c0,0,0.7,12.3-9.4,11.9l-28-1.1c-1.6-0.1-2.6-0.1-2.6-0.1l-30.2-1.2l0.1-4.2l-17.3-0.1l-2.4-6.1l-26.1-1.1
		C159.5,611.8,167.3,602.7,176.9,602z"/>
	<path fill="#EAF6FD" d="M154.1,637.3c-0.2,0.6-0.5,1.2-0.8,1.7l10.8,0.1l4.2,0.2c1.4-36.2,25.6-32.4,25.6-32.4
		c-1,0.3-2,0.8-2.9,1.5c-3.3,1.9-8.4,5.6-10.4,11.2l3.3,0.1c-3.8,11.4-3.7,26.2-3.7,26.2l12.2,0.5c-0.1-4.8,0.3-9,0.9-12.6l2.8,1.1
		c-1.8-3.5,1.4-13.2,1.9-14.8c3.8-6.6,8.3-9,9.6-9.6l0,0.5c0,0,10.6-6.2,27.2-3.4c16.6,2.8,18,3,18,3s-2.1-1.3-5.6-3.6l11,0.4
		c-5.1-3.1-10.8-8.8-16.1-15.3c-0.9-1.1-1.4,1.1-2.5,2.8c-1.3-2.6-2.4-9.1-3.6-10.6c-10.4-14.1-18.6-28.7-18.6-28.7l-17.4,14.4
		c-1.5-1.7-2.7-3.3-3.6-4.7L157,548.9c0,0,4,18.8,6.5,24l3.7-4.2c2.6,4.4,5.7,9.1,9.2,13.4l-1.2-0.8l2.7,7.4l2.5-1.9
		c5,5.5,10.6,10.2,16.6,12.6c-10.9-2.7-14.3-1.8-21.1-0.8l1.7,2.7c-6.9-0.3-11.4,3.7-14.4,9.1c-0.5,0.6-4.6,5.6-5.8,11.1l2.2-0.8
		c-0.6,2.9-1,5.7-1.3,8.3C157.8,630.5,156.2,634.9,154.1,637.3z M195.4,625.9c0.8-2.2,1.7-4.1,2.6-5.7L195.4,625.9z"/>
	<path fill="#EAF6FD" d="M214.9,621.1l-2-2c4-2.6,10.1-2.6,13.2-2.3c0.9-0.1,1.9-0.1,2.9,0c0,0-10.6,8.7-10.8,34l-11-0.4
		C207.2,650.4,204.3,630.2,214.9,621.1z"/>
	<path fill="#5B5A5D" d="M119.3,243.2c-1.3,0.4-5.5,1.6-5.5,1.6c-37.8,12.2-73.5-10.6-73.5-10.6s3.2,23.9,25,40.2
		c21.8,16.3,56.6,11.4,56.6,11.4c2.3,4.5,2.5,15.7,2.5,15.7s7.2-13.4,4.6-34.8C127.1,251.6,120.1,242.9,119.3,243.2"/>
	<path fill="#737F82" d="M119.3,243.2c-1.3,0.4-5.5,1.6-5.5,1.6c-37.8,12.2-73.5-10.6-73.5-10.6s30.2,46.5,88,28
		C128.2,262.1,127.5,252.3,119.3,243.2"/>
</g>
<g>
	<circle fill="#178DBB" cx="148.6" cy="515.4" r="133.8"/>
	<path fill="#45A4C9" d="M125.1,418.7c28.5-23.7,112.8-0.9,116.5,23.9c0.4,2.3,3.9,17.4,2.9,20.4c-5.2,15.3-95.3,46.9-129.2,32
		c0,0-13.3-12.4-14.4-35S125.1,418.7,125.1,418.7z"/>
	<path fill="#45A4C9" d="M66.4,516c-2.5,9-12.7,15.5-19.2,13.6s-9.9-10.6-7.4-19.6c2.5-9,9.9-14.8,16.4-12.9
		C62.8,499,68.9,507.1,66.4,516z"/>
	<path fill="#43525A" d="M278.7,489.9c-42.7,5.5-86.8,10.4-132.2,14.7c-44.4,4.2-87.7,7.5-129.8,10.1c-0.9,0.1-1.5-0.2-1.8-0.3
		c-1.3-0.8-1.6-2.8-1.8-4.9l1.7-12.8c0.1-0.4,0.1-0.9,0.1-1.3c-0.2-2.8,0.3-6,3.1-6.2c40.5-1.8,82.6-4.6,126.2-8.5
		c44.8-4,87-8.8,128.2-14.5c0.5,0,1.3,0,2,0.3c1.5,0.8,1.4,2.8,1.6,4.9l4.5,15.3C280.8,488.2,280.4,489.7,278.7,489.9z"/>
	<polygon fill="#384449" points="246.2,494 242.4,494.6 238.9,470.5 242.7,469.9 	"/>
	
		<rect x="157.7" y="479.3" transform="matrix(0.9973 -7.351108e-02 7.351108e-02 0.9973 -35.6827 13.0652)" fill="#384449" width="3.8" height="24"/>
	<g>
		<path fill="#157CA3" d="M179.3,462.4"/>
		<path fill="#157CA3" d="M238.4,472.7l3.5,12.7c4.6,14.4-5.8,27.8-12.1,32.3c-6.3,4.5-32.7,8.3-43,7.3c-8.9-0.8-18.6-3.1-25-24.6"
			/>
		<path fill="#43525A" d="M217.8,518.4l-28.4,2.1c-15.1,1.1-28.2-10.2-29.3-25.3l-1.2-16.3c-1.1-15.1,10.2-28.2,25.3-29.3l28.4-2.1
			c15.1-1.1,28.2,10.2,29.3,25.3l1.2,16.3C244.2,504.2,232.9,517.3,217.8,518.4z"/>
		<path fill="#DBE0E1" stroke="#DBE0E1" stroke-width="2.8702" stroke-miterlimit="10" d="M214.6,505.9l-23.9,1.7
			c-10.4,0.8-19.5-7.1-20.2-17.5l-0.6-7.9c-0.8-10.4,7.1-19.5,17.5-20.2l23.9-1.7c10.4-0.8,19.5,7.1,20.2,17.5l0.6,7.9
			C232.8,496.1,225,505.2,214.6,505.9z"/>
		<g>
			<g>
				
					<rect x="177.2" y="468.8" transform="matrix(0.9973 -7.281715e-02 7.281715e-02 0.9973 -34.8742 14.2795)" fill="#E2E5E8" width="2.3" height="33.3"/>
				
					<rect x="186.3" y="468.1" transform="matrix(0.9973 -7.281715e-02 7.281715e-02 0.9973 -34.8022 14.9354)" fill="#E2E5E8" width="2.3" height="33.3"/>
				
					<rect x="195.3" y="467.5" transform="matrix(0.9973 -7.281715e-02 7.281715e-02 0.9973 -34.7302 15.5913)" fill="#E2E5E8" width="2.3" height="33.3"/>
				
					<rect x="204.3" y="466.8" transform="matrix(0.9973 -7.281715e-02 7.281715e-02 0.9973 -34.6582 16.2473)" fill="#E2E5E8" width="2.3" height="33.3"/>
				
					<rect x="213.4" y="466.1" transform="matrix(0.9973 -7.281715e-02 7.281715e-02 0.9973 -34.5862 16.9032)" fill="#E2E5E8" width="2.3" height="33.3"/>
				
					<rect x="222.4" y="465.5" transform="matrix(0.9973 -7.281715e-02 7.281715e-02 0.9973 -34.5142 17.5592)" fill="#E2E5E8" width="2.3" height="33.3"/>
			</g>
			<g>
				
					<rect x="200.8" y="469.7" transform="matrix(-7.281715e-02 -0.9973 0.9973 -7.281715e-02 -277.9475 733.256)" fill="#E2E5E8" width="2.1" height="52.3"/>
				
					<rect x="200.2" y="461.7" transform="matrix(-7.281715e-02 -0.9973 0.9973 -7.281715e-02 -270.5703 724.0597)" fill="#E2E5E8" width="2.1" height="52.3"/>
				
					<rect x="199.6" y="453.6" transform="matrix(-7.281715e-02 -0.9973 0.9973 -7.281715e-02 -263.193 714.8633)" fill="#E2E5E8" width="2.1" height="52.3"/>
				
					<rect x="199.1" y="445.6" transform="matrix(-7.281715e-02 -0.9973 0.9973 -7.281715e-02 -255.8158 705.6669)" fill="#E2E5E8" width="2.1" height="52.3"/>
			</g>
		</g>
	</g>
	<path fill="#45A4C9" d="M57.4,549.6c1,3.5-1.1,7.8-3.6,8.5c-2.6,0.7-5.5-1.5-6.5-5s0.3-7,2.8-7.7C52.7,544.6,56.4,546,57.4,549.6z"
		/>
	<path fill="#13749A" d="M205.5,633.5c-5.4,3.1-46.7,18.9-93.6,6c-38.4-10.6-62.5-38.9-67.3-47.3c12,9.4,33.3,29.5,60.5,37.9
		C140.2,640.9,179.5,641.5,205.5,633.5z"/>
</g>
<g>
	<path fill="#EAF6FD" stroke="#CCE9F3" stroke-width="0.5" stroke-miterlimit="10" d="M169.9,363c-12.1-3-19.2-9.1-32.3-11.8
		c-12.8-2.6-25.3-4.9-37.4-6.9l-11.8,1.4l3.1,2.6c-6.4,3.2-12.3,6.9-17.3,11.2c0,0,0-0.1,0-0.1s-9,10.4-10,14.3c0,0,6.2-4.4,9.3-4.5
		c0,0,0.1,0,0.1,0c-0.2,9.4,0.4,21.9,3.6,32.9l18.9,0.1c9.7,0.1,20.7,0.7,27,2.6c2.3,0.7,4.4,1.7,6.3,3c1,0.3,2,0.6,3,1
		c2.3,0.7,4.7,1.3,6.6,2.8c1.9,1.5,2.6,4.2,3.2,6.4c1.2,4.5-0.4,9.5,0.5,14.1c0,0.2-0.1,0.4-0.1,0.6c0,0,0,0,0,0c0,0,0,0,0,0
		c-0.5,2.7-0.9,5.4-0.7,8c0.7,11.7,3.4,9.9,6.8,12.1c3.6-3.6,6.7-6.8,9.5-9.8c3.3,6.6,12.7,11.2,12.7,11.2s8.6-13.1,10.4-15.6
		c1.6-2.2,1.8-4.2,1.5-7.9c0.1-3,0-7.9-0.7-11.8l3.1,2c-5.4-13.7-5.7-16.5-7.3-19.6c0.8,0.1,1.7,0.2,2.4,0.3
		c8.4,3.4,20.9,8.8,30,13.4l7.7,4.2c0,0-0.5-1.1-1.3-2.9c-0.5-2.2-0.9-5.4-1.3-8.4c-0.8-4.4-3.7-8.6-7.5-12.4l2.7-1.6l-6.2-1.5l0,0
		c-2.5-1.6-5-3.3-7.6-5.4C186.1,378.1,173.9,371.1,169.9,363z M196.7,328.6 M184.1,327.8c-0.2,0-0.4,0-0.5,0c0,0,0,0,0-0.1
		L184.1,327.8z M173.9,400.9c0,0.2,0,0.4,0,0.6c-0.1-0.2-0.2-0.4-0.3-0.6C173.7,400.9,173.8,400.9,173.9,400.9z"/>
	<path fill="#CCEBF6" d="M159.2,418.3c-1.6-5.7-3.5-16-6.2-21.9c1.1,1,2.1,2.1,3,3.2c3.3,5.1,6,12.5,7.5,20.2
		c2.2,10.3-5.5,22.8-5.5,22.8s-1.6-1.7-2.4-3.2l3.4-10.2C159,429.2,161.3,425.8,159.2,418.3z"/>
	<g>
		<path fill="#CCEBF6" d="M163.9,362.1c3.7,1.4,7.5,2,9.5,5.4c3.5,5.8-11,4.8-4.4,2.7c0,0-13.2-0.9-24.1-4.7
			c-13.9-7-23.1-11.7-35.1-14.6c0,0-0.6-0.5,1.1-1.4c0,0-2.2-0.2-4.2,0.4c0,0-9.6-2.3-13.7-1.9C93,348.1,107.6,340.5,163.9,362.1z"
			/>
	</g>
</g>
</svg>
