<svg xmlns="http://www.w3.org/2000/svg" version="1.2" viewBox="0 0 63.8 41"><g fill="#000"><path d="M35.8 11.3v.3c.2 1.4 1.1 4.5 5 4.7h.2c.9 0 4.8-.2 6.8-2.6 1.1-1.3 1.2-2.3 1.1-2.9-.1-.4-.3-.7-.3-.7-.3-.6-1.1-1.3-2.5-1.2 0 0-2.4.5-1.2 2.6 0 0 .4.4.3 1-1 1.9-2.6 1.7-3.1 1.6-.4-.1-.8-.4-1-.5-.6-.6-1.2-1.7-1.4-3.2v-.2-.4s0-.1.1-.1c0 0 3.9-1.5 4.5-4.9.5-1.9-.1-2.9-.4-3.2-.4-.6-1.2-1.1-2.8-.6 0 0-2.5.3-4.4 4.9 0 0-.9 2.6-.9 5.1v.3zm4.6-7.2s.9-.7 1 .4c0 0 .1 1.6-1.5 2.7l-.4.2V7c.1.1-.2-1.7.9-2.9zM22.3 25.7c-.1-1.7-.3-5.7-.2-6.4 0 0-.4-.9-.7.2 0 0-.1 1.8-.9 3.5-.8 1.2-2.2 2.6-2.2 2.6-.3.3-.2 1.2-.2 1.2.3 10.3-4 9.3-4 9.3C11 36 11 33.8 11 33.8c-.2-1.9.5-7.5.5-7.5.4-3.7 0-8.4 0-8.4-.8-4.4-5.4-2.3-5.4-2.3C2.1 17.1.6 20 .6 20c-.9 1.5-.6 2.6-.3 3.1 0 0 .4.6 1 .8.1 0 .3.1.4.1h.1s.2 0 .6-.3c0 0 .1 0 .1-.1l.3-.3c.1-.1.1-.2.2-.3l.9-1.4c.1-.1.1-.2.1-.2.1-.1.2-.3.3-.4.1-.1.4-.3.7-.4h.2c.4 0 .9 0 1.2.6.3.5.3 1.2.3 1.9-.1.7-.5 3.2-.5 3.4-.9 6.8-.7 9.6-.7 9.6 1.3 6.8 8.7 4.1 8.7 4.1 9.9-3.8 8.2-13.2 8.2-13.2l-.1-1.3zM41.7 32.2c-1-2.7-.1-13.2-.1-13.2 0-1.2-.4-1.3-.6-1.3-.2 0-.5 0-.7.1-.2 0-.3.1-.5.1h-.1c-.6.3-1.1.7-1.1.7-1 .8-.5 1.1-.5 1.1s.2 0 .3.2c.1.2.2.5.2.5.3 1.4.1 1.6-.1 3.2v.3c-.2 1.3-.4.6-.4.6-.3-.4-1.3-.3-1.3-.3-3 .4-4 6.1-4 6.1-.1.8-.1 1.5-.1 2.1-.4.4-.9.9-1.3 1 0 0-1 .5-.3-1.6 0 0 1.6-4.9 1-6.2-.2-.5-.8-.4-1.2-.3-.7.2-1.8.9-3.1 3.3 0 0-.8 1.1-.4-.5 0 0 .8-3.7-1.3-2.2 0 0-2.3 1.3-2.7 5.3l.1 4.6c0 .4.1 1.6 1.2 1.6 0 0 .7 0 1.2-.4.3-.3.5-.7.5-1.5 0 0-.1-1.3-.1-2.2 0-.2 0-.5.1-.9.2-.6.7-1.7 1.7-2.4 0 0 1-1.1.9.3s-.2 1.3-.8 2.7c0 .1-.3 1-.3 1.8 0 .3 0 1.2.7 2.1 0 0 0 .1.2.1h.4s.1 0 .3-.1c.4-.2 1.4-.7 2.4-2 .3-.4.7-.9 1-1.5.5 2.7 2.2 2.4 2.2 2.4 2.4-.2 3.2-3 3.2-3 .5-1.2.6.8.6.8.2 1.7 1.4 1.5 1.9 1.4h.2c.1-.1.3-.2.6-.4l.6-.4c.4-.3.2-.7 0-.9-.3-.4-.5-1.1-.5-1.1zm-3.5-4.1c0 1.8-1.4 4.2-1.4 4.2-1.2 2.1-1.2-1.4-1.2-1.4 0-2.8 1.7-4.2 1.7-4.2.9-1.3 1-.1 1-.1l-.1 1.5zM46.9 33c0-.1-.1-.2-.3-.3-.1 0-.2-.1-.2-.1-.3-.3-.9-1.1-.8-2.8 0 0 .3-2.2.5-3.8 0-.3.2-1.1.2-1.1v-.5s0-1.5-1.6-1c0 0-.6.2-1.1.5-.3.1-.5.2-.6.3-.2.1-.3.2-.4.4s0 .3.1.3h.1c.1 0 .1.1.2.2.2.4.1 1 .1 1s-.1 5.4-.2 5.9c0 0-.6 2.4 1.1 2.1 0 0 1.7-.2 2.9-.7-.1-.1.2-.1 0-.4zM43.3 20.7s-.1 2.1 1.6 1.8c0 0 2-.4 2-2.4 0 0 0-1.2-.7-1.6-.7-.4-1.7 0-1.7 0-1.1.5-1.2 1.5-1.2 2.2z"/><path d="M16.7 25.4s3.3 0 3.7-6.7c0 0 .3-2.7.3-4.9 0 0 .3-3.4.8-.7 0 0 .2 1.1.6 2.4 0 0 1.7 5.9 1.8 6.4.1.5.4 1 1 .9 0 0 1.8.2 2.2-2.2 0 0 .5-4.1 1.7-7.2 0 0 1-2.2 1 0 0 0 .2 5 3.2 7.9l.1.1s1.4 1.6 3.2 1.5c.6 0 1.2-.2 1.4-1 0 0 .4-1.2-.6-1.6 0 0-.1 0-.1-.1-.1-.1-.2-.1-.2-.2-.5-.4-.9-.9-.9-.9-.7-1.1-2.8-5.2-2-13.6 0 0 .1-.6.2-2.8l.1-1.3c.1-.5.1-1.4-.6-1.6 0 0-.5-.2-1.3 0-1.9.2-2.2.8-2.3 1.1-.2.4-.2 1.1-.2 1.1 0 .3-.1.7-.1 1.2 0 0 0 6.1-2.8 8.8 0 0-.7.8-1.3-1.3 0 0-1.3-4.2-1.3-7.4 0 0 .2-2.7-2.2-2.3 0 0-1.5.1-2.6.8-1.6.9-1.3 1.8-1.2 1.9 0 .2.2.5.7.6 0 0 .7 4.9-1.8 12.8 0 0-.4 1.7-1.1 2.9-.1.2-.3.4-.4.6-.8.6-1.4.1-1.4.1-.4-.3-.9-.6-1.3-.2 0 0-.9.7-.7 1.9-.1.1.1 3.7 4.4 3zM62.3 24.9s-2.8-2.1-2.8-3c0 0-.3-.8 0-.7 0 0 2.5.3 2.5-2 0 0-.2-1.5-2.2-1.2 0 0-3.1.3-3.1 3.5 0 0-.1 1.3.8 2.7-.2.5-.5 1.2-.9 1.9 0 .1-.1.1-.1.2-.2.3-.4.7-.6 1-.4.6-.9 1.1-1.2 1.3-1 .9-2.5 1.9-3.8 1.7 0 0-.6.1-.7-1.4 0 0 0-.4.2-.4 0 0 4.2-.7 4.7-4.3.1-.8.1-1.2 0-1.5-.1-.7-.7-1-.7-1-.2-.1-.4-.2-.8-.3-.9-.2-1.6.1-1.6.1-.8.2-2.1 1-3.5 3.1 0 0-3.5 5.8-.4 8.1 0 0 3.9 1.9 8.5-4.3 0 0 .1-.2.4-.5v-.1c.4-.6 1.1-1.6 1.5-2.6.3.3.7.9.9 1 0 0 2 2.1 1.9 3.3 0 0 0 .9-.9.9 0 0-1 .1-1.8-1 0 0-.9-1.4-2.1-.1 0 0-.9.9-.3 1.7 0 0 .7 1.4 3.5 1.1 0 0 3.6-.5 4.1-4.1 0 .3.1-1.7-1.5-3.1zm-11.8 1.7s.1-1.6 1.2-2.3c0 0 .8-.4.8.6 0 0-.2 1.4-1.7 2l-.3.1v-.4z"/></g></svg>
