<?xml version="1.0" encoding="utf-8"?>
<!-- Generator: Adobe Illustrator 19.1.0, SVG Export Plug-In . SVG Version: 6.00 Build 0)  -->
<svg version="1.1" id="Isolation_Mode" xmlns="http://www.w3.org/2000/svg" xmlns:xlink="http://www.w3.org/1999/xlink" x="0px"
	 y="0px" width="700px" height="77px" viewBox="150 97 700 77" style="enable-background:new 150 97 700 77;" xml:space="preserve">
<style type="text/css">
	.st0{fill:#E9BAA9;}
	.st1{fill:#DFA696;}
	.st2{fill:#CC7691;}
	.st3{fill:#FFFFFF;}
	.st4{fill:#3A3A3A;}
	.st5{fill:#B75978;}
	.st6{fill:#CB7690;}
	.st7{fill:#B65978;}
	.st8{fill:#E8B9A8;}
	.st9{fill:#DEA595;}
	.st10{fill:#FACCC5;}
	.st11{fill:#737F83;}
	.st12{fill:#8C989B;}
	.st13{fill:#3F3F3F;}
	.st14{fill:#5B5A5C;}
</style>
<g>
	<path class="st0" d="M839.8,83.7c13.8,8.2,27.6,1.4,27.6,1.4c-8.8-2.7-3.9-12.5-10.2-23.3c-6.1-10.8-21-4.3-21-4.3
		S826.1,75.6,839.8,83.7z"/>
	<path class="st1" d="M839.8,83.7c1.5,0.8,2.9,1.6,4.4,2.1c1-3.9,1.6-8.3,1.6-12.4c0-5.4-1.3-12.3-4.3-17.5c-3,0.6-5.2,1.6-5.2,1.6
		S826.1,75.6,839.8,83.7z"/>
	<path class="st2" d="M841.2,90.1c4.9-32.9-11-48.5-19.7-53.6c-8.7-5.1-15.7-9.3-25.9-1.2c-10.2,8.2-8.5,16.8-3.3,25.5
		c5.2,8.7,16.1,10.8,16.1,10.8s0.6,6.9-9.5,18.4c-12.5,13.4-8.7,25.5-8.7,25.5c-6.6,3.5-1.9,10.3-1.9,10.3s1.6,0.2,4.2,0.7
		c0.1,3.7,0.2,10.7,0.3,14.7c-0.9-1-2.1-1.6-3.6-1.6c-2.5,0-4.6,2.1-4.6,4.6s2.1,4.6,4.6,4.6c0.2,0,0.5,0,0.7-0.1
		c-0.8,4.6,0.1,9.8,4.2,13.8c0.5,2.7,2.4,13.3,1.4,20.7c14.5,0,27,0,40.8,0c-3.4-7.1-2.5-19.6-2.3-23.2c2.1-3.4,2.3-6.6,2.3-8.3
		c0.2,0,0.5,0.1,0.8,0.1c2.7,0,4.7-2.2,4.7-4.7c0-2.7-2.2-4.7-4.7-4.7c-1.4,0-2.7,0.6-3.6,1.6l-0.2-14.4c3-0.5,5.1-1.4,6-2.8
		c4.6-8-4.1-12.2-4.1-12.2C836.7,110.6,838.7,104.2,841.2,90.1z"/>
	
		<ellipse transform="matrix(0.9959 9.003267e-02 -9.003267e-02 0.9959 15.3541 -74.0557)" class="st3" cx="828.5" cy="133.2" rx="10.5" ry="10.1"/>
	
		<ellipse transform="matrix(0.9932 -0.1161 0.1161 0.9932 -9.9835 93.6046)" class="st3" cx="798.5" cy="132.5" rx="11.3" ry="10.8"/>
	<path class="st4" d="M799.3,129c-0.5,1.6-2.1,2.8-3.8,2.8c-2.1,0-3.7-1.5-4.1-3.5c-2.1,1-3.5,3.1-3.5,5.4c0,3.5,3,6.3,6.8,6.3
		c3.8,0,6.8-2.8,6.8-6.3C801.6,131.9,800.7,130.3,799.3,129z"/>
	<path class="st4" d="M829.8,126.9c-0.1,1.9-1.5,3.5-3.4,3.9c-2.2,0.5-4.3-0.6-5.1-2.7c-1.9,1.7-2.8,4.2-2.2,6.7
		c0.9,3.7,4.9,5.9,8.9,4.9c4.1-0.9,6.5-4.7,5.6-8.5C833,129.2,831.6,127.7,829.8,126.9z"/>
	<path class="st4" d="M786.4,129c-0.6,1.6-0.8,3.5-0.6,5.3c0.8,6.6,6.9,11.1,13.9,10.3c6.8-0.8,11.8-6.7,11.1-13.2
		c-0.2-1.6-0.7-3-1.5-4.4c0.8-0.5,3.4-1.6,8.5-0.2c-0.9,1.4-1.5,3-1.6,4.9c-0.6,6.6,4.6,12.3,11.5,12.9c6.9,0.6,13-4.2,13.5-10.8
		c0.1-1.6-0.1-3.4-0.6-4.9c0.5-0.1,3-0.5,3.7-3.7c0,0-1.7,2.5-4.7,1.6c-0.1-0.2-0.2-0.3-0.3-0.6c0.6-0.2,2.7-1.2,2.7-4.4
		c0,0-1,2.8-4.1,2.7c-0.2-0.2-0.3-0.3-0.5-0.5c0.5-0.3,2.3-1.7,1.6-4.9c0,0-0.5,3.1-3.6,3.6c-1.6-0.9-3.4-1.6-5.4-1.7
		c-4.2-0.3-8.1,1.3-10.7,4.1c-1.5-0.6-6.5-2.3-11.2,0c-2.7-2.9-6.6-4.5-10.9-4.1c-1.7,0.2-3.5,0.8-5,1.6c-3.1-0.5-3.6-3.6-3.6-3.6
		c-0.7,3,1,4.5,1.6,4.9c-0.2,0.2-0.5,0.3-0.6,0.5c-2.9,0.1-4.1-2.7-4.1-2.7c-0.1,3.1,1.9,4.2,2.5,4.4c-0.2,0.2-0.3,0.5-0.5,0.6
		c-2.9,0.9-4.6-1.6-4.6-1.6C783.7,128.4,785.8,128.9,786.4,129z M819.4,132c0.5-4.9,5-8.5,10.1-8s8.9,4.7,8.5,9.6
		c-0.5,4.9-5,8.7-10.1,8.2C822.7,141.4,819,136.8,819.4,132z M797.2,124c5.1-0.6,9.7,2.9,10.2,7.6c0.6,4.9-3,9.6-8.1,10.2
		c-5.1,0.6-9.7-3.2-10.3-8C788.6,129,792.3,124.7,797.2,124z"/>
	<path class="st5" d="M807.4,158.3c9.6,3.5,17.8-0.3,17.8-0.3C813.2,167.3,807.4,158.2,807.4,158.3z"/>
	<path class="st5" d="M819.4,115c5.4-2.7,15.7-0.6,15.7-0.6l0.6-1.7c-3.4-1.4-6.8-2.1-10.1-1.6C820.7,112.3,819.4,115,819.4,115z"/>
	<path class="st5" d="M789.8,112.6c0.1,0.9,0.2,2.2,0.5,2.8c0,0,7.6-3.7,17.6,0.2c0,0-0.3-0.8-1.5-1.6
		C801.3,110.8,794.9,110.3,789.8,112.6z"/>
	<path class="st0" d="M833.7,101c0,0,0.8-8.6-9.4-11.5c-11.3-3.4-18.8,3.7-18.8,3.7C828.4,90.9,833.7,101,833.7,101z"/>
	<path class="st0" d="M837.4,90.3c0,0,2.3-7.9-5.4-10.9c-9.1-3.7-16,2.7-16,2.7C832.8,79.3,837.4,90.3,837.4,90.3z"/>
	<path class="st0" d="M840.7,75c0,0,1.5-6.9-4.7-8.9c-9.3-2.9-14.7,3.4-14.7,3.4C836.3,67.2,840.2,75.1,840.7,75z"/>
	<path class="st0" d="M839,58.7c-0.5-1.5-1-2.8-1.6-4.1c-9.5-2.2-14,2.9-14,2.9S832.8,56.1,839,58.7z"/>
	<path class="st0" d="M831.2,44.8c-0.8-0.9-1.6-1.9-2.4-2.7c-3.8,0.1-4.7,4.2-4.7,4.2S826.5,44.8,831.2,44.8z"/>
	<path class="st0" d="M788.2,46.8c-0.3,2.4,0.1,4.9,0.9,7.3c2.9,0.5,6.6-0.1,6.6-0.1C790.9,53.6,788.8,48.8,788.2,46.8z"/>
	<path class="st0" d="M793.1,61.9c1.3,1.7,2.8,3.2,4.3,4.4c3.7-1.7,5.9-5.7,5.9-5.7C798.9,63.3,794.1,62.1,793.1,61.9z"/>
	<path class="st5" d="M802.5,69.4c6.8-10.8,2.9-21,2.9-21c4.5,5.1,3,23.2,3,23.2C804.9,70.7,802.3,69.4,802.5,69.4z"/>
	<path class="st4" d="M817.7,147.3c0,0,0.9,0.2,1.9,0.7l0.1,0.2c0,0.6-0.3,0.9-0.6,1.2c-0.8,0.3-4.3,1.2-9.1,0.2
		c0,0,3.2,2.2,8.5,1.2c0,0,0.5-0.1,0.9-0.2c0.2-0.1,0.5-0.2,0.6-0.3s0.2-0.2,0.3-0.2c0-0.1,0.1-0.1,0.1-0.1l0,0
		c0.2-0.2,0.5-0.6,0.5-1.3c0.5,0.3,1.2,0.9,1.6,1.6C822.2,150.1,822,146,817.7,147.3z"/>
</g>
<g>
	<path class="st6" d="M766.6,125.5c-0.3,0.4-1.1-0.1-1.4,0.3c-0.4-0.4-0.8-0.7-1.2-1s-0.8-0.6-1.2-1c-1.6-1-3.7-2.2-5.9-2.8
		c-2.8-1-5.5-0.6-8.4,1.2c-3.9,2.4-6.1,6.7-6.8,10.6c-4.2-3.2-10.7-4.4-14.9-7.6c1.1-1.5,3.8-4.6,5-5.5c11.5-8.9,17.3-6.2,25.7-2.5
		c0.4,0.2,0.8,0.3,1.2,0.5c1.5,0.9,2.9,1.9,4.2,3c0.1,0.1,0.2,0.2,0.3,0.4C764.1,122.2,765.7,124.2,766.6,125.5z"/>
	<path class="st7" d="M737.7,129.2c2.6-3.9,7.4-6.6,12.4-8.2l0,0c0.5-0.1,0.9-0.1,1.4-0.1c-1,0.3-2,0.8-3,1.4
		c-3.9,2.4-5.9,6.8-6.6,10.7C740.5,132,739.1,130.3,737.7,129.2z"/>
	<path class="st6" d="M760.5,119.2l-3.5,12.7c0,0,6.8,6.3,7.5,21.2c0.8,14.9,10.6,24.5,26.2,25.8c4.7,0.4,9,0.2,12.6-0.8
		c-2.4-2.4-4.8-4.9-7.2-7.3c-7.3,0.8-19.9-1.2-22-24.6c-0.2-2.7-0.7-5.3-1.3-7.7c-0.6-2.1-1.3-4.1-2.2-6c-0.9-2-2.3-4.5-3.8-6.8
		C764.9,123.3,762.9,121.1,760.5,119.2z"/>
	<path class="st6" d="M728.4,123.5c1.6,1.5,5.5,1.8,7.6,3c1.6,0.9,3.2,1.8,4.7,2.7c-0.2,0.6,0.2,1.2,0.7,1.7
		c-0.3-0.2,0.2,0.2,0.2,0.2c0.2,0.2,0.3,0.4,0.5,0.6c0,0,0,0,0.1,0.1c-0.1,0.6-0.2,1.3-0.2,1.9c-0.1,4.8,3.6,8.8,5.8,13.3
		c2.6,6.6-1.5,12.1-1.5,12.1c-1.2-3.3-2.8-5.3-4.8-7.1c-3.2-2.6-6.5-3.6-9.2-5.2c-0.2-0.1-0.5-0.3-0.7-0.5c-2.8-2.2-5.4-5.4-7.3-9.5
		C722.5,132.4,724.1,128.1,728.4,123.5z"/>
	<path class="st7" d="M746.2,159.1c0-0.1,0.4-1.7,0.4-1.9c2.6-7.8-8.1-14.6-9.9-22.6c-0.5-2.5,0.3-4.7,1.9-6.5c1,0.6,2,1.2,3.1,1.7
		c0.1,0.5,0.3,1,0.5,1.5c-0.2,0.8-0.3,1.6-0.3,2.4c-0.1,4.8,3.6,8.8,5.8,13.3C750.3,153.5,746.2,159.1,746.2,159.1z"/>
	<path class="st8" d="M725.5,139.3c0.8-0.8,2.9-2.4,6.6-2.2c0,0-3.9,1.5-5.4,4.1C726.2,140.5,725.9,140,725.5,139.3z"/>
	<path class="st8" d="M729.6,144.7C729.6,144.7,729.6,144.6,729.6,144.7c-0.1-0.1,1.4-3.3,4-4.3c0,0-1.9,2.7-2.3,5.8
		C730.8,145.8,730.2,145.3,729.6,144.7z"/>
	<path class="st8" d="M736.4,143.8c0,0,0.6,1.2-0.6,4.8c-0.5-0.2-1-0.5-1.5-0.7C735,147,736.1,145.2,736.4,143.8z"/>
	<path class="st6" d="M757,131.8c-4.5-3.9-8.8-7.5-13.9-6.9s4.1-7.2,4.1-7.2l8.7-0.5l4.6,4.5L757,131.8z"/>
	<path class="st9" d="M798.7,178.9c-2.5,0.2-5.2,0.2-8.1,0c-15.6-1.2-25.4-10.9-26.2-25.8c-0.8-14.9-7.5-21.2-7.5-21.2l-3.4-7.2
		c6,2.5,11.2,7.7,13.3,11.7c2,3.8,1.8,8.4,1.9,12.5c0.2,7.6,2,13.4,7.6,18.7c4.5,4.3,9.9,6.1,15.8,7.8
		C795.1,176.1,797.2,177.3,798.7,178.9z"/>
	<path class="st8" d="M787.6,178.5c-13.8-2.2-22.4-11.5-23.1-25.4c-0.8-14.9-7.5-21.2-7.5-21.2l0.6-2.1c0.1,0.3,0.8-2.1,1.1-1.8
		c4.1,3.2,7.9,6.8,8.9,13.9c0.7,6,0.7,13.9,3.1,19.6c2.2,5,5.9,9.6,10.6,12.1C783.8,174.8,785.4,176.8,787.6,178.5z"/>
	<path class="st10" d="M778.6,175.7c0-0.2,0-0.4,0.1-0.6c0.4-1.1,1.6-1.6,2.7-1.2c1.1,0.4,1.7,1.6,1.2,2.7c-0.1,0.2-0.2,0.4-0.4,0.6
		C781.1,176.8,779.8,176.3,778.6,175.7z"/>
	<ellipse class="st10" cx="762.9" cy="136" rx="2.1" ry="2.1"/>
	<ellipse class="st10" cx="764.8" cy="141.4" rx="2.1" ry="2.1"/>
	<path class="st10" d="M767.3,148.1c-0.4,1.1-1.6,1.6-2.7,1.2c-0.2-0.1-0.3-0.2-0.5-0.3c0-0.1,0-0.1,0-0.2c-0.1-0.9-0.3-1.8-0.5-2.7
		c0.5-0.7,1.5-1,2.5-0.7C767.1,145.8,767.7,147,767.3,148.1z"/>
	<path class="st10" d="M768,153.6c-0.4,1.1-1.6,1.6-2.7,1.2c-0.3-0.1-0.5-0.3-0.7-0.5c0-0.3,0-0.7-0.1-1c-0.1-0.6-0.1-1.1-0.1-1.7
		c0.5-0.7,1.5-1,2.4-0.6C767.9,151.3,768.5,152.5,768,153.6z"/>
	<path class="st10" d="M768.7,159.1c-0.4,1.1-1.6,1.6-2.7,1.2c-0.2-0.1-0.3-0.2-0.5-0.3c0-0.1,0-0.2-0.1-0.3
		c-0.2-0.8-0.3-1.5-0.5-2.3c0-0.1,0-0.1,0-0.2l0,0c0.5-0.8,1.6-1.2,2.5-0.8C768.6,156.8,769.1,158,768.7,159.1z"/>
	<path class="st10" d="M770.5,164.4c-0.4,1-1.6,1.6-2.7,1.2c-0.1-0.3-0.3-0.5-0.5-0.7c-0.3-0.6-0.6-1.3-0.8-1.9l0,0
		c0.4-1.1,1.6-1.6,2.7-1.2C770.4,162.1,770.9,163.3,770.5,164.4z"/>
	<path class="st10" d="M770.1,169.1c-0.3-0.4-0.5-0.8-0.8-1.1c0-0.1,0-0.2,0.1-0.4c0.4-1.1,1.6-1.6,2.7-1.2c1.1,0.4,1.7,1.6,1.2,2.7
		c-0.3,0.8-1.2,1.3-2.1,1.3c-0.1-0.1-0.1-0.1-0.2-0.2c-0.1-0.1-0.1-0.1-0.2-0.2c-0.1-0.1-0.2-0.2-0.3-0.2
		C770.5,169.5,770.3,169.3,770.1,169.1z"/>
	<path class="st10" d="M773.4,172.3c0-0.2,0-0.4,0.1-0.6c0.4-1.1,1.6-1.6,2.7-1.2c1.1,0.4,1.7,1.6,1.2,2.7c-0.2,0.6-0.7,1-1.3,1.2
		c-0.8-0.6-1.6-1.2-2.5-1.7C773.6,172.6,773.5,172.4,773.4,172.3z"/>
	<path class="st8" d="M741.6,125.2c4.4-3.2,9.5-1.6,11.7-0.7c1.9,0.8,3.7,2.1,5.9,3.7c0,0,1.1,6.3-2.3,3.5
		C753.6,129.1,749,125,741.6,125.2z"/>
</g>
<g>
	<path class="st11" d="M193.7,129.1c-0.3-0.4-14.7-0.2-15.1,0c-0.1,0.1-0.2,1.3-0.2,2.9c-0.9-0.4-3.5-1.8-3.7-1.3
		c-0.3,0.5,0.9,5.8,1.2,6c0.2,0.2,1.8-0.7,2.4-1.1c0.1,1.4,0.1,2.6,0.2,2.7c0.4,0.3,14.7,0.4,15.1,0C194,138,194,129.5,193.7,129.1z
		"/>
	<ellipse class="st12" cx="192.3" cy="135.1" rx="0.5" ry="0.9"/>
	<path class="st13" d="M192.3,134.2c-0.2,0-0.3,0.1-0.4,0.2c0.1,0,0.1-0.1,0.1-0.1c0.2,0,0.2,0.1,0.2,0.3s-0.1,0.3-0.2,0.3
		c-0.1,0-0.2-0.1-0.2-0.2c0,0.1,0,0.1,0,0.2c0,0.5,0.2,0.9,0.5,0.9c0.2,0,0.5-0.4,0.5-0.9C192.8,134.6,192.5,134.2,192.3,134.2z"/>
	<path class="st14" d="M193.7,129.2c-2.3,2.7-7.8,4.8-7.8,4.8c-3.8-1.3-7.4-4.8-7.4-4.8c1.6,1.8,2.9,2.9,4,3.8
		c-0.1-0.1-0.2-0.1-0.2-0.1c-0.5-0.2-0.8,0.2-0.8,0.8c0.1,0.5,0.1,1,0.2,1.6c-1.2,1.2-1.6,2-1.6,2c0.4-0.5,1-1.1,1.6-1.6
		c0.1,0.7,0.2,1.3,0.3,1.4c0.1,0.2,0.2,0.5,0.5,0.5c0.8-0.1,1.1-0.3,1.6-0.5c0.3-0.2,0.5-0.4,0.5-0.4s-2,0.8-2.3,0.5
		s-0.9-3.8-0.5-4.1c0.2-0.2,2.1,0.8,2.8,1.1c0.8,0.3,1.2,0.4,1.2,0.4c0.6-0.2,1.4-0.5,1.8-0.8l0,0c0,0,2.4,1.6,3.6,3.3
		c0,0-0.8-1.8-3.1-3.6C192.4,131.7,193.7,129.2,193.7,129.2z"/>
</g>
<g>
	<path class="st14" d="M271,125.5c-0.5-0.5-20.1-0.3-20.5,0c-0.2,0.1-0.3,1.8-0.3,3.9c-1.2-0.5-4.7-2.4-5-1.8
		c-0.4,0.6,1.2,7.9,1.6,8.3c0.3,0.3,2.5-0.9,3.4-1.5c0.1,2,0.2,3.5,0.3,3.8c0.5,0.5,20.2,0.5,20.5,0
		C271.4,137.6,271.4,126.1,271,125.5z"/>
	<ellipse class="st11" cx="269" cy="133.7" rx="0.7" ry="1.3"/>
	<path class="st13" d="M269,132.5c-0.2,0-0.4,0.1-0.5,0.3c0.1,0,0.1-0.1,0.1-0.1c0.2,0,0.3,0.2,0.3,0.5c0,0.2-0.2,0.5-0.3,0.5
		c-0.1,0-0.2-0.1-0.3-0.2c0,0.1,0,0.2,0,0.2c0,0.7,0.3,1.3,0.7,1.3c0.4,0,0.7-0.5,0.7-1.3C269.8,133,269.4,132.5,269,132.5z"/>
	<path class="st13" d="M271,125.7c-3.1,3.7-10.7,6.7-10.7,6.7c-5.1-1.8-10-6.7-10-6.7c2.2,2.4,4,4,5.5,5.2c-0.1-0.1-0.2-0.1-0.3-0.2
		c-0.8-0.3-1.1,0.3-1,1.1c0.1,0.6,0.1,1.4,0.3,2.2c-1.6,1.6-2.2,2.8-2.2,2.8c0.5-0.8,1.4-1.5,2.3-2.2c0.2,0.9,0.3,1.7,0.4,1.9
		c0.1,0.2,0.3,0.8,0.8,0.8c1-0.2,1.5-0.4,2.1-0.7c0.4-0.2,0.8-0.5,0.8-0.5s-2.7,1.1-3.1,0.8c-0.3-0.3-1.2-5.2-0.8-5.6
		c0.3-0.3,2.9,1,3.8,1.5c1,0.5,1.4,0.5,1.4,0.5c0.9-0.3,2.3-0.6,2.3-1l0,0c0,0,3.5,2.3,5.1,4.5c0,0-0.9-2.4-4.2-4.9
		C269.2,129.1,271,125.7,271,125.7z"/>
</g>
<g>
	<path class="st11" d="M258,131.8c-0.7-0.8-28.5-0.5-29.3,0c-0.2,0.2-0.4,2.6-0.5,5.6c-1.6-0.8-6.7-3.4-7.1-2.6
		c-0.5,0.9,1.6,11.3,2.4,11.8c0.5,0.4,3.5-1.3,4.8-2c0.1,2.8,0.2,5,0.5,5.3c0.8,0.7,28.6,0.8,29.3,0
		C258.6,149,258.7,132.6,258,131.8z"/>
	<ellipse class="st12" cx="255.3" cy="143.5" rx="1" ry="1.7"/>
	<path class="st13" d="M255.3,141.7c-0.3,0-0.5,0.2-0.8,0.5c0.1,0,0.1-0.1,0.2-0.1c0.3,0,0.5,0.3,0.5,0.6s-0.2,0.6-0.5,0.6
		c-0.2,0-0.3-0.1-0.5-0.3c0,0.1,0,0.2,0,0.3c0,1,0.5,1.7,1,1.7s1-0.8,1-1.7C256.3,142.5,255.8,141.7,255.3,141.7z"/>
	<path class="st14" d="M258.1,132.2c-4.5,5.3-15.3,9.4-15.3,9.4c-7.2-2.6-14.2-9.4-14.2-9.4c3.1,3.5,5.6,5.8,7.8,7.4
		c-0.2-0.1-0.3-0.2-0.5-0.2c-1.1-0.5-1.6,0.5-1.5,1.6c0.1,0.9,0.2,2,0.3,3.1c-2.3,2.2-3.1,4-3.1,4c0.9-1,2-2.2,3.2-3.1
		c0.2,1.3,0.5,2.4,0.5,2.7c0.1,0.3,0.5,1.2,1.1,1c1.5-0.3,2.1-0.5,3-1c0.5-0.3,1.1-0.8,1.1-0.8s-3.9,1.5-4.4,1.2s-1.7-7.4-1.3-7.9
		s4.1,1.5,5.5,2.2c1.5,0.6,2.2,0.8,2.2,0.8c1.3-0.5,2.4-0.9,3.4-1.5l0,0c0,0,4.7,3.2,7,6.4c0,0-1.3-3.5-6-7
		C255.5,136.9,258.1,132.2,258.1,132.2z"/>
</g>
</svg>
