<?xml version="1.0" encoding="utf-8"?>
<!-- Generator: Adobe Illustrator 19.1.0, SVG Export Plug-In . SVG Version: 6.00 Build 0)  -->
<svg version="1.1" id="Layer_1" xmlns="http://www.w3.org/2000/svg" xmlns:xlink="http://www.w3.org/1999/xlink" x="0px" y="0px"
	 width="700px" height="407px" viewBox="215 -68 700 407" style="enable-background:new 215 -68 700 407;" xml:space="preserve">
<style type="text/css">
	.st0{display:none;}
	.st1{display:inline;fill:#012B31;}
	.st2{fill:#737F83;}
	.st3{fill:#8C989B;}
	.st4{fill:#3F3F3F;}
	.st5{fill:#5B5A5C;}
	.st6{fill:#E9BAA9;}
	.st7{fill:#DFA696;}
	.st8{fill:#CC7691;}
	.st9{fill:#FFFFFF;}
	.st10{fill:#3A3A3A;}
	.st11{fill:#B75978;}
</style>
<g id="Bg" class="st0">
	<polygon class="st1" points="715.3,-313 652.3,-313 72.3,-313 72.3,279 392.3,279 392.3,387 715.3,387 715.3,37 1291.3,37 
		1291.3,-313 	"/>
</g>
<g>
	<path class="st2" d="M354.9,268.3c-0.4-0.5-18.7-0.3-19.2,0c-0.1,0.1-0.3,1.7-0.3,3.7c-1.1-0.5-4.4-2.3-4.7-1.7
		c-0.4,0.6,1.1,7.4,1.5,7.7c0.3,0.3,2.3-0.9,3.1-1.4c0.1,1.8,0.1,3.3,0.3,3.5c0.5,0.4,18.8,0.5,19.2,0
		C355.3,279.6,355.3,268.8,354.9,268.3z"/>
	<ellipse class="st3" cx="353.1" cy="276" rx="0.7" ry="1.2"/>
	<path class="st4" d="M353.1,274.8c-0.2,0-0.4,0.1-0.5,0.3c0.1,0,0.1-0.1,0.1-0.1c0.2,0,0.3,0.1,0.3,0.4c0,0.2-0.1,0.4-0.3,0.4
		c-0.1,0-0.2-0.1-0.3-0.2c0,0.1,0,0.1,0,0.2c0,0.7,0.3,1.2,0.7,1.2c0.3,0,0.7-0.5,0.7-1.2C353.7,275.3,353.4,274.8,353.1,274.8z"/>
	<path class="st5" d="M354.9,268.5c-2.9,3.4-9.9,6.1-9.9,6.1c-4.8-1.6-9.4-6.1-9.4-6.1c2,2.3,3.7,3.7,5.1,4.8
		c-0.1-0.1-0.2-0.1-0.3-0.1c-0.7-0.3-1,0.3-1,1c0.1,0.6,0.1,1.3,0.3,2c-1.5,1.5-2,2.6-2,2.6c0.5-0.7,1.3-1.4,2.1-2
		c0.1,0.9,0.3,1.6,0.4,1.8c0.1,0.2,0.3,0.7,0.7,0.7c1-0.1,1.4-0.4,2-0.7c0.4-0.2,0.7-0.5,0.7-0.5s-2.6,1-2.9,0.7s-1.1-4.8-0.7-5.2
		c0.3-0.3,2.7,1,3.6,1.4c1,0.4,1.5,0.5,1.5,0.5c0.8-0.3,1.8-0.6,2.3-1l0,0c0,0,3.1,2.1,4.6,4.2c0,0-1-2.3-3.9-4.6
		C353.2,271.6,354.9,268.5,354.9,268.5z"/>
</g>
<g>
	<path class="st5" d="M569.1,287.8c-0.6-0.7-25.6-0.4-26.2,0c-0.2,0.1-0.4,2.3-0.4,5c-1.5-0.7-6-3.1-6.4-2.3
		c-0.5,0.8,1.5,10.1,2.1,10.6c0.4,0.4,3.2-1.2,4.3-1.9c0.1,2.5,0.2,4.5,0.4,4.8c0.7,0.6,25.7,0.7,26.2,0S569.7,288.5,569.1,287.8z"
		/>
	<ellipse class="st2" cx="566.6" cy="298.2" rx="0.9" ry="1.6"/>
	<path class="st4" d="M566.6,296.7c-0.3,0-0.5,0.1-0.7,0.4c0.1,0,0.1-0.1,0.1-0.1c0.3,0,0.4,0.2,0.4,0.6c0,0.3-0.2,0.6-0.4,0.6
		c-0.1,0-0.3-0.1-0.4-0.3c0,0.1,0,0.2,0,0.3c0,0.9,0.4,1.6,0.9,1.6s0.9-0.7,0.9-1.6C567.5,297.3,567.1,296.7,566.6,296.7z"/>
	<path class="st4" d="M569.2,288.1c-4,4.7-13.6,8.5-13.6,8.5c-6.5-2.3-12.7-8.5-12.7-8.5c2.8,3.1,5.1,5.1,7,6.6
		c-0.1-0.1-0.3-0.1-0.4-0.2c-1-0.4-1.4,0.4-1.3,1.4c0.1,0.8,0.1,1.8,0.4,2.8c-2,2-2.8,3.6-2.8,3.6c0.7-1,1.8-1.9,2.9-2.8
		c0.2,1.2,0.4,2.2,0.5,2.4c0.1,0.3,0.4,1,1,1c1.3-0.2,1.9-0.5,2.7-0.9c0.5-0.3,1-0.7,1-0.7s-3.5,1.4-4,1s-1.5-6.6-1-7.1
		c0.4-0.4,3.7,1.3,4.9,1.9c1.3,0.6,1.8,0.7,1.8,0.7c1.1-0.4,2.9-0.8,2.9-1.3l0,0c0,0,4.4,2.9,6.5,5.8c0,0-1.1-3.1-5.3-6.3
		C566.8,292.3,569.2,288.1,569.2,288.1z"/>
</g>
<g>
	<path class="st5" d="M453.4,263.7c-0.6-0.7-25.6-0.4-26.2,0c-0.2,0.1-0.4,2.3-0.4,5c-1.5-0.7-6-3.1-6.4-2.3
		c-0.5,0.8,1.5,10.1,2.1,10.6c0.4,0.4,3.2-1.2,4.3-1.9c0.1,2.5,0.2,4.5,0.4,4.8c0.7,0.6,25.7,0.7,26.2,0S454,264.5,453.4,263.7z"/>
	<ellipse class="st2" cx="450.9" cy="274.2" rx="0.9" ry="1.6"/>
	<path class="st4" d="M450.9,272.7c-0.3,0-0.5,0.1-0.7,0.4c0.1,0,0.1-0.1,0.1-0.1c0.3,0,0.4,0.2,0.4,0.6c0,0.3-0.2,0.6-0.4,0.6
		c-0.1,0-0.3-0.1-0.4-0.3c0,0.1,0,0.2,0,0.3c0,0.9,0.4,1.6,0.9,1.6s0.9-0.7,0.9-1.6C451.9,273.3,451.4,272.7,450.9,272.7z"/>
	<path class="st4" d="M453.5,264c-4,4.7-13.6,8.5-13.6,8.5c-6.5-2.3-12.7-8.5-12.7-8.5c2.8,3.1,5.1,5.1,7,6.6
		c-0.1-0.1-0.3-0.1-0.4-0.2c-1-0.4-1.4,0.4-1.3,1.4c0.1,0.8,0.1,1.8,0.4,2.8c-2,2-2.8,3.6-2.8,3.6c0.7-1,1.8-1.9,2.9-2.8
		c0.2,1.2,0.4,2.2,0.5,2.4c0.1,0.3,0.4,1,1,1c1.3-0.2,1.9-0.5,2.7-0.9c0.5-0.3,1-0.7,1-0.7s-3.5,1.4-4,1c-0.4-0.4-1.5-6.6-1-7.1
		c0.4-0.4,3.7,1.3,4.9,1.9c1.3,0.6,1.8,0.7,1.8,0.7c1.1-0.4,2.9-0.8,2.9-1.3l0,0c0,0,4.4,2.9,6.5,5.8c0,0-1.1-3.1-5.3-6.3
		C451.1,268.3,453.5,264,453.5,264z"/>
</g>
<g>
	<path class="st6" d="M845.6,184.7c21.6,13,43.3,2.1,43.3,2.1c-13.9-4.1-6.2-19.6-16-36.6c-9.7-17-33-6.7-33-6.7
		S823.9,171.9,845.6,184.7z"/>
	<path class="st7" d="M845.5,184.7c2.3,1.3,4.6,2.5,6.9,3.3c1.7-6.2,2.5-13.1,2.5-19.5c0-8.6-2-19.4-6.7-27.5
		c-4.8,1-8.2,2.5-8.2,2.5S823.9,171.9,845.5,184.7z"/>
	<path class="st8" d="M847.7,194.7c7.7-51.8-17.3-76.3-31-84.3s-24.7-14.6-40.8-1.9s-13.5,26.4-5.2,40c8.3,13.6,25.3,17,25.3,17
		s1,11-15,28.9c-19.6,21.2-13.6,40-13.6,40c-10.3,5.4-2.9,16.3-2.9,16.3s2.5,0.4,6.6,1.1c0.2,5.9,0.3,16.7,0.5,23.1
		c-1.4-1.6-3.3-2.6-5.6-2.6c-4,0-7.2,3.2-7.2,7.2s3.2,7.2,7.2,7.2c0.4,0,0.8,0,1.1-0.1c-1.2,7.3,0.2,15.5,6.5,21.6
		c0.7,4.2,3.8,21,2.1,32.6c22.8,0,42.5,0,64.1,0c-5.3-11.2-4-30.8-3.7-36.5c3.2-5.2,3.7-10.3,3.7-13.1c0.4,0,0.8,0.1,1.2,0.1
		c4.2,0,7.5-3.4,7.5-7.5c0-4.2-3.4-7.5-7.5-7.5c-2.2,0-4.2,1-5.6,2.5l-0.4-22.6c4.7-0.8,8.1-2.1,9.4-4.4c7.2-12.6-6.4-19.1-6.4-19.1
		C840.7,226.9,843.8,217,847.7,194.7z"/>
	
		<ellipse transform="matrix(0.9959 9.001845e-02 -9.001845e-02 0.9959 26.9776 -73.4509)" class="st9" cx="827.8" cy="262.4" rx="16.6" ry="15.8"/>
	
		<ellipse transform="matrix(0.9932 -0.1161 0.1161 0.9932 -25.086 92.3906)" class="st9" cx="780.5" cy="261.5" rx="17.9" ry="16.9"/>
	<path class="st10" d="M781.8,256c-0.8,2.5-3.2,4.3-6,4.3c-3.2,0-5.8-2.4-6.3-5.5c-3.2,1.7-5.4,4.9-5.4,8.6c0,5.4,4.7,9.8,10.7,9.8
		s10.7-4.4,10.7-9.8C785.5,260.4,784,257.9,781.8,256z"/>
	<path class="st10" d="M829.7,252.6c-0.2,2.9-2.3,5.5-5.3,6.2c-3.4,0.8-6.8-0.9-8-4.2c-3,2.7-4.4,6.6-3.5,10.5
		c1.4,5.8,7.6,9.2,14,7.6c6.3-1.5,10.2-7.5,8.8-13.3C834.9,256.3,832.6,253.9,829.7,252.6z"/>
	<path class="st10" d="M761.5,255.9c-0.9,2.6-1.3,5.4-0.9,8.3c1.3,10.3,11,17.5,21.8,16.3c10.8-1.3,18.6-10.6,17.4-20.8
		c-0.3-2.5-1.1-4.7-2.3-6.9c1.3-0.8,5.3-2.6,13.3-0.3c-1.4,2.2-2.3,4.8-2.5,7.6c-0.9,10.3,7.2,19.4,18,20.3
		c10.9,1,20.4-6.6,21.4-16.9c0.2-2.6-0.2-5.3-1-7.7c0.8-0.1,4.7-0.8,5.8-5.8c0,0-2.8,4-7.5,2.5c-0.2-0.3-0.3-0.6-0.6-0.9
		c0.9-0.3,4.2-1.9,4.1-7c0,0-1.7,4.4-6.4,4.2c-0.3-0.3-0.6-0.5-0.8-0.8c0.8-0.5,3.7-2.7,2.6-7.7c0,0-0.7,4.9-5.7,5.6
		c-2.5-1.5-5.3-2.5-8.5-2.7c-6.6-0.5-12.7,2-16.7,6.4c-2.4-1-10.2-3.7-17.6,0c-4.1-4.6-10.3-7.1-17.1-6.4c-2.8,0.3-5.5,1.3-7.9,2.6
		c-4.9-0.7-5.6-5.6-5.6-5.6c-1.1,4.8,1.6,7.1,2.5,7.7c-0.3,0.3-0.7,0.6-0.9,0.8c-4.6,0.2-6.3-4.2-6.3-4.2c-0.1,4.9,2.9,6.6,4,7
		c-0.3,0.3-0.5,0.7-0.7,1c-4.6,1.4-7.3-2.5-7.3-2.5C757.2,255.1,760.6,255.8,761.5,255.9z M813.4,260.6c0.7-7.6,7.9-13.3,15.8-12.5
		c8,0.8,14,7.5,13.3,15.2c-0.7,7.6-7.9,13.7-15.8,13C818.6,275.5,812.8,268.2,813.4,260.6z M778.6,248c8-0.9,15.3,4.6,16.1,12.1
		c0.9,7.6-4.8,15.1-12.8,16s-15.3-5.1-16.2-12.6C764.9,256,770.8,249.1,778.6,248z"/>
	<path class="st11" d="M794.5,302c15.1,5.4,28-0.6,28-0.6C803.7,316.3,794.5,301.9,794.5,302z"/>
	<path class="st11" d="M813.4,233.8c8.5-4.1,24.8-1,24.8-1l1-2.8c-5.2-2.2-10.7-3.3-15.8-2.5C815.6,229.7,813.3,233.8,813.4,233.8z"
		/>
	<path class="st11" d="M766.8,230c0.1,1.4,0.3,3.5,0.7,4.3c0,0,12.1-5.8,27.7,0.3c0,0-0.5-1.3-2.4-2.6
		C784.9,227.4,774.9,226.4,766.8,230z"/>
	<path class="st6" d="M836,220.7c0,0,1.3-13.5-14.8-18c-17.9-5.2-29.5,5.8-29.5,5.8C827.5,204.9,836,220.7,836,220.7z"/>
	<path class="st6" d="M841.8,195.1c0,0,3.6-12.3-8.6-17.2c-14.4-5.8-25.1,4.2-25.1,4.2C834.4,177.7,841.8,195.1,841.8,195.1z"/>
	<path class="st6" d="M846.8,170.9c0,0,2.3-10.9-7.5-14.1c-14.5-4.6-23.2,5.3-23.2,5.3C840,158.7,846.2,171.1,846.8,170.9z"/>
	<path class="st6" d="M844.3,145.3c-0.8-2.3-1.7-4.4-2.6-6.4c-14.9-3.6-22.1,4.4-22.1,4.4S834.4,141.1,844.3,145.3z"/>
	<path class="st6" d="M831.9,123.4c-1.3-1.4-2.6-3-3.9-4.2c-6,0.2-7.5,6.6-7.5,6.6S824.7,123.4,831.9,123.4z"/>
	<path class="st6" d="M764.4,126.6c-0.5,3.8,0.2,7.6,1.4,11.4c4.6,0.7,10.4-0.2,10.4-0.2C768.6,137.4,765.3,129.7,764.4,126.6z"/>
	<path class="st6" d="M772,150.3c2,2.8,4.3,5.1,6.8,7c5.9-2.7,9.3-8.9,9.3-8.9C781.1,152.5,773.7,150.7,772,150.3z"/>
	<path class="st11" d="M786.7,162.1c10.8-17,4.6-32.9,4.6-32.9c7.1,8.1,4.7,36.4,4.7,36.4C790.6,164.2,786.6,162.1,786.7,162.1z"/>
	<path class="st10" d="M810.8,284.7c0,0,1.4,0.3,3,1.1l0.1,0.3c0,1-0.6,1.5-1,1.8c-1.3,0.5-6.8,1.9-14.4,0.4c0,0,5.1,3.4,13.3,1.8
		c0,0,0.7-0.1,1.4-0.4c0.3-0.2,0.7-0.3,1-0.5c0.2-0.1,0.3-0.3,0.5-0.4c0-0.1,0.1-0.1,0.1-0.1l0,0c0.3-0.4,0.7-1,0.8-2
		c0.8,0.6,1.8,1.4,2.5,2.5C817.9,289.1,817.5,282.7,810.8,284.7z"/>
</g>
<g>
	<path class="st2" d="M436.9,271.8c-0.9-1-36.4-0.6-37.3,0c-0.3,0.2-0.5,3.3-0.7,7.2c-2.1-1-8.5-4.3-9.1-3.3c-0.7,1.2,2.1,14.4,3,15
		c0.7,0.5,4.5-1.6,6.1-2.6c0.1,3.6,0.3,6.4,0.7,6.7c1,0.9,36.5,1,37.3,0C437.6,293.7,437.8,272.8,436.9,271.8z"/>
	<ellipse class="st3" cx="433.4" cy="286.7" rx="1.3" ry="2.2"/>
	<path class="st4" d="M433.4,284.4c-0.4,0-0.7,0.3-1,0.7c0.1,0,0.1-0.1,0.2-0.1c0.4,0,0.7,0.4,0.7,0.8s-0.3,0.8-0.7,0.8
		c-0.2,0-0.4-0.1-0.6-0.4c0,0.1,0,0.3,0,0.4c0,1.3,0.6,2.2,1.3,2.2c0.7,0,1.3-1,1.3-2.2C434.7,285.4,434.1,284.4,433.4,284.4z"/>
	<path class="st5" d="M437,272.2c-5.7,6.7-19.5,12-19.5,12c-9.2-3.3-18.1-12-18.1-12c3.9,4.4,7.2,7.4,9.9,9.4
		c-0.2-0.1-0.4-0.2-0.6-0.3c-1.4-0.6-2,0.7-1.9,2c0.1,1.1,0.2,2.5,0.4,3.9c-2.9,2.8-3.9,5.1-3.9,5.1c1.1-1.3,2.6-2.8,4.1-4
		c0.3,1.6,0.6,3.1,0.7,3.4c0.1,0.4,0.7,1.5,1.4,1.3c1.9-0.4,2.7-0.7,3.8-1.3c0.7-0.4,1.4-1,1.4-1s-5,1.9-5.6,1.5s-2.2-9.4-1.6-10.1
		c0.5-0.6,5.2,1.9,7,2.8c1.9,0.8,2.8,1,2.8,1c1.6-0.6,3-1.2,4.3-1.9l0,0c0,0,6,4.1,8.9,8.2c0,0-1.7-4.4-7.7-8.9
		C433.7,278.2,437,272.2,437,272.2z"/>
</g>
<g>
	<path class="st2" d="M603,247.3c-0.9-1-36.4-0.6-37.3,0c-0.3,0.2-0.5,3.3-0.7,7.2c-2.1-1-8.5-4.3-9.1-3.3c-0.7,1.2,2.1,14.4,3,15
		c0.7,0.5,4.5-1.6,6.1-2.6c0.1,3.6,0.3,6.4,0.7,6.7c1,0.9,36.5,1,37.3,0C603.7,269.3,603.9,248.4,603,247.3z"/>
	<ellipse class="st3" cx="599.5" cy="262.2" rx="1.3" ry="2.2"/>
	<path class="st4" d="M599.5,260c-0.4,0-0.7,0.3-1,0.7c0.1,0,0.1-0.1,0.2-0.1c0.4,0,0.7,0.4,0.7,0.8s-0.3,0.8-0.7,0.8
		c-0.2,0-0.4-0.1-0.6-0.4c0,0.1,0,0.3,0,0.4c0,1.3,0.6,2.2,1.3,2.2s1.3-1,1.3-2.2C600.8,261,600.2,260,599.5,260z"/>
	<path class="st5" d="M603.2,247.8c-5.7,6.7-19.5,12-19.5,12c-9.2-3.3-18.1-12-18.1-12c3.9,4.4,7.2,7.4,9.9,9.4
		c-0.2-0.1-0.4-0.2-0.6-0.3c-1.4-0.6-2,0.7-1.9,2c0.1,1.1,0.2,2.5,0.4,3.9c-2.9,2.8-3.9,5.1-3.9,5.1c1.1-1.3,2.6-2.8,4.1-4
		c0.3,1.6,0.6,3.1,0.7,3.4c0.1,0.4,0.7,1.5,1.4,1.3c1.9-0.4,2.7-0.7,3.8-1.3c0.7-0.4,1.4-1,1.4-1s-5,1.9-5.6,1.5s-2.2-9.4-1.5-10.1
		c0.5-0.6,5.2,1.9,7,2.8c1.9,0.8,2.8,1,2.8,1c1.6-0.6,3-1.2,4.3-1.9l0,0c0,0,6,4.1,8.9,8.2c0,0-1.7-4.4-7.7-8.9
		C599.8,253.7,603.2,247.8,603.2,247.8z"/>
</g>
<g>
	<path class="st2" d="M510.8,290.9c-0.6-0.7-25.6-0.4-26.2,0c-0.2,0.1-0.4,2.3-0.4,5c-1.5-0.7-6-3.1-6.4-2.3
		c-0.5,0.8,1.5,10.1,2.1,10.6c0.4,0.4,3.2-1.2,4.3-1.9c0.1,2.5,0.2,4.5,0.4,4.8c0.7,0.6,25.7,0.7,26.2,0
		C511.2,306.3,511.4,291.7,510.8,290.9z"/>
	<ellipse class="st3" cx="508.2" cy="301.4" rx="0.9" ry="1.6"/>
	<path class="st4" d="M508.2,299.8c-0.3,0-0.5,0.1-0.7,0.4c0.1,0,0.1-0.1,0.1-0.1c0.3,0,0.4,0.2,0.4,0.6c0,0.3-0.2,0.6-0.4,0.6
		c-0.1,0-0.3-0.1-0.4-0.3c0,0.1,0,0.2,0,0.3c0,0.9,0.4,1.6,0.9,1.6s0.9-0.7,0.9-1.6C509.1,300.5,508.8,299.8,508.2,299.8z"/>
	<path class="st5" d="M510.8,291.2c-4,4.7-13.6,8.5-13.6,8.5c-6.5-2.3-12.7-8.5-12.7-8.5c2.8,3.1,5.1,5.1,7,6.6
		c-0.1-0.1-0.3-0.1-0.4-0.2c-1-0.4-1.4,0.4-1.3,1.4c0.1,0.8,0.1,1.8,0.4,2.8c-2,2-2.8,3.6-2.8,3.6c0.7-1,1.8-1.9,2.9-2.8
		c0.2,1.2,0.4,2.2,0.5,2.4c0.1,0.3,0.4,1,1,1c1.3-0.2,1.9-0.5,2.7-0.9c0.5-0.3,1-0.7,1-0.7s-3.5,1.4-4,1s-1.5-6.6-1-7.1
		c0.4-0.4,3.7,1.3,4.9,1.9c1.3,0.6,2,0.7,2,0.7c1.1-0.4,2.4-0.8,3.1-1.3l0,0c0,0,4.2,2.9,6.3,5.8c0,0-1.3-3.1-5.4-6.3
		C508.5,295.4,510.8,291.2,510.8,291.2z"/>
</g>
<g>
	<path class="st2" d="M499.8,255.2c-0.4-0.4-17.1-0.3-17.5,0c-0.1,0.1-0.2,1.6-0.3,3.4c-1-0.5-4-2-4.2-1.6c-0.4,0.5,1,6.8,1.4,7.1
		c0.3,0.2,2.2-0.8,2.9-1.2c0.1,1.7,0.1,3.1,0.3,3.2c0.4,0.4,17.2,0.4,17.5,0C500.1,265.5,500.2,255.7,499.8,255.2z"/>
	<ellipse class="st3" cx="498.1" cy="262.2" rx="0.6" ry="1"/>
	<path class="st4" d="M498.1,261.1c-0.1,0-0.3,0.1-0.4,0.3h0.1c0.1,0,0.3,0.1,0.3,0.4c0,0.2-0.1,0.4-0.3,0.4c-0.1,0-0.2-0.1-0.3-0.2
		c0,0.1,0,0.1,0,0.2c0,0.6,0.3,1,0.6,1s0.6-0.4,0.6-1C498.6,261.6,498.5,261.1,498.1,261.1z"/>
	<path class="st5" d="M499.9,255.4c-2.7,3.1-9.2,5.7-9.2,5.7c-4.3-1.6-8.6-5.7-8.6-5.7c1.9,2.1,3.4,3.4,4.7,4.4
		c-0.1-0.1-0.2-0.1-0.3-0.1c-0.7-0.3-0.9,0.3-0.9,1c0,0.5,0.1,1.2,0.2,1.9c-1.3,1.3-1.9,2.4-1.9,2.4c0.5-0.7,1.2-1.3,1.9-1.9
		c0.1,0.7,0.3,1.4,0.3,1.6c0.1,0.2,0.3,0.7,0.7,0.6c0.9-0.1,1.3-0.4,1.8-0.6c0.4-0.2,0.7-0.4,0.7-0.4s-2.3,0.9-2.6,0.7
		c-0.3-0.2-1-4.4-0.7-4.8c0.2-0.3,2.5,0.9,3.3,1.3c0.9,0.4,1.1,0.4,1.1,0.4c0.7-0.3,1.8-0.6,1.8-0.9l0,0c0,0,3.1,1.9,4.5,3.9
		c0,0-0.7-2.1-3.5-4.2C498.2,258.2,499.9,255.4,499.9,255.4z"/>
</g>
<g>
	<path class="st5" d="M699.8,255c-0.5-0.6-20.8-0.3-21.4,0c-0.2,0.1-0.3,1.9-0.4,4.1c-1.2-0.6-4.9-2.5-5.2-1.9
		c-0.4,0.7,1.2,8.3,1.7,8.6c0.4,0.3,2.6-1,3.5-1.5c0.1,2.1,0.2,3.7,0.4,3.9c0.6,0.5,21,0.6,21.4,0
		C700.3,267.6,700.4,255.6,699.8,255z"/>
	<ellipse class="st2" cx="697.8" cy="263.6" rx="0.7" ry="1.3"/>
	<path class="st4" d="M697.8,262.3c-0.2,0-0.4,0.1-0.5,0.4c0.1,0,0.1-0.1,0.1-0.1c0.2,0,0.4,0.2,0.4,0.5c0,0.2-0.2,0.5-0.4,0.5
		c-0.1,0-0.2-0.1-0.4-0.2c0,0.1,0,0.2,0,0.2c0,0.7,0.4,1.3,0.7,1.3c0.4,0,0.7-0.6,0.7-1.3C698.6,262.8,698.3,262.3,697.8,262.3z"/>
	<path class="st4" d="M700,255.2c-3.3,3.8-11.1,6.9-11.1,6.9c-5.3-1.9-10.4-6.9-10.4-6.9c2.2,2.5,4.1,4.2,5.7,5.4
		c-0.1-0.1-0.2-0.1-0.4-0.2c-0.8-0.3-1.2,0.4-1.1,1.2c0.1,0.7,0.1,1.5,0.3,2.2c-1.6,1.6-2.2,2.9-2.2,2.9c0.6-0.8,1.5-1.6,2.4-2.2
		c0.2,1,0.4,1.8,0.4,1.9c0.1,0.2,0.4,0.9,0.9,0.8c1-0.2,1.5-0.4,2.2-0.7c0.4-0.2,0.8-0.5,0.8-0.5s-2.9,1.2-3.2,0.9
		c-0.4-0.3-1.2-5.3-0.9-5.8c0.3-0.4,3,1,4,1.6c1,0.5,1.5,0.5,1.5,0.5c0.9-0.4,2.4-0.7,2.4-1l0,0c0,0,3.6,2.4,5.3,4.7
		c0,0-0.9-2.5-4.3-5.1C698,258.7,700,255.2,700,255.2z"/>
</g>
<g>
	<path class="st2" d="M675.9,275.3c-0.7-0.9-29.7-0.5-30.4,0c-0.2,0.2-0.4,2.7-0.5,5.8c-1.7-0.9-6.9-3.5-7.4-2.7
		c-0.6,1,1.7,11.7,2.4,12.2c0.5,0.4,3.7-1.3,5-2.1c0.1,2.9,0.2,5.2,0.5,5.5c0.9,0.7,29.8,0.9,30.4,0
		C676.5,293.3,676.6,276.2,675.9,275.3z"/>
	<ellipse class="st3" cx="673" cy="287.5" rx="1.1" ry="1.8"/>
	<path class="st4" d="M673,285.7c-0.3,0-0.5,0.2-0.8,0.5c0.1,0,0.1-0.1,0.2-0.1c0.3,0,0.5,0.3,0.5,0.7s-0.2,0.7-0.5,0.7
		c-0.2,0-0.4-0.1-0.5-0.4c0,0.1,0,0.2,0,0.4c0,1,0.5,1.8,1.1,1.8s1.1-0.9,1.1-1.8C674,286.5,673.6,285.7,673,285.7z"/>
	<path class="st5" d="M676,275.7c-4.6,5.5-15.9,9.8-15.9,9.8c-7.5-2.7-14.8-9.8-14.8-9.8c3.2,3.6,5.9,6,8.1,7.7
		c-0.2-0.1-0.4-0.2-0.5-0.2c-1.2-0.5-1.6,0.5-1.5,1.6c0.1,0.9,0.2,2.1,0.4,3.2c-2.4,2.3-3.2,4.1-3.2,4.1c0.9-1.1,2.1-2.2,3.3-3.2
		c0.2,1.3,0.5,2.5,0.6,2.7c0.1,0.4,0.5,1.2,1.2,1.1c1.5-0.3,2.2-0.6,3.1-1c0.6-0.3,1.2-0.8,1.2-0.8s-4.1,1.6-4.6,1.2
		s-1.8-7.7-1.3-8.3c0.4-0.5,4.3,1.5,5.7,2.2c1.5,0.7,2.3,0.8,2.3,0.8c1.3-0.5,2.4-1,3.5-1.5l0,0c0,0,4.9,3.3,7.3,6.7
		c0,0-1.4-3.6-6.3-7.2C673.2,280.6,676,275.7,676,275.7z"/>
</g>
<g>
	<path class="st5" d="M611.3,239.3c-0.4-0.4-16.3-0.2-16.7,0c-0.1,0.1-0.2,1.5-0.3,3.2c-0.9-0.4-3.8-1.9-4.1-1.5
		c-0.3,0.5,1,6.4,1.3,6.7c0.3,0.2,2-0.7,2.8-1.2c0.1,1.6,0.1,2.9,0.3,3c0.4,0.4,16.3,0.4,16.7,0S611.6,239.8,611.3,239.3z"/>
	<ellipse class="st2" cx="609.7" cy="246" rx="0.6" ry="1"/>
	<path class="st4" d="M609.7,245c-0.1,0-0.3,0.1-0.4,0.3h0.1c0.1,0,0.3,0.1,0.3,0.4s-0.1,0.4-0.3,0.4c-0.1,0-0.2-0.1-0.3-0.1
		c0,0.1,0,0.1,0,0.2c0,0.6,0.3,1,0.6,1s0.6-0.4,0.6-1C610.3,245.4,610,245,609.7,245z"/>
	<path class="st4" d="M611.3,239.5c-2.5,3-8.7,5.4-8.7,5.4c-4.1-1.5-8.1-5.4-8.1-5.4c1.7,1.9,3.2,3.3,4.5,4.2
		c-0.1-0.1-0.2-0.1-0.3-0.1c-0.6-0.2-0.9,0.3-0.8,0.9c0,0.5,0.1,1.1,0.2,1.7c-1.3,1.3-1.7,2.2-1.7,2.2c0.5-0.6,1.2-1.2,1.9-1.8
		c0.1,0.7,0.3,1.3,0.3,1.5c0.1,0.2,0.3,0.7,0.7,0.6c0.8-0.1,1.2-0.4,1.7-0.6c0.2-0.1,0.5-0.3,0.5-0.3s-2.2,0.9-2.5,0.7
		c-0.3-0.2-1-4.2-0.7-4.5c0.2-0.3,2.4,0.8,3.1,1.3c0.8,0.4,1.3,0.4,1.3,0.4c0.7-0.3,2-0.5,2-0.8l0,0c0,0,2.6,1.9,4,3.7
		c0,0-0.8-1.9-3.4-4C609.9,242.1,611.3,239.5,611.3,239.5z"/>
</g>
</svg>
