<?xml version="1.0" encoding="utf-8"?>
<!-- Generator: Adobe Illustrator 19.1.0, SVG Export Plug-In . SVG Version: 6.00 Build 0)  -->
<svg version="1.1" id="Layer_1" xmlns="http://www.w3.org/2000/svg" xmlns:xlink="http://www.w3.org/1999/xlink" x="0px" y="0px"
	 width="457.3px" height="411.3px" viewBox="-195.3 245.7 457.3 411.3" style="enable-background:new -195.3 245.7 457.3 411.3;"
	 xml:space="preserve">
<style type="text/css">
	.st0{display:none;}
	.st1{display:inline;fill:#012B31;}
	.st2{fill:#E8A2B0;}
	.st3{fill:#E9BAA9;}
	.st4{fill:#DD90A2;}
	.st5{fill:#DFA696;}
	.st6{fill:#FECDC5;}
	.st7{fill:#FFC2D6;}
	.st8{fill:#CC7691;}
	.st9{fill:#B75978;}
	.st10{fill:#FFFFFF;}
	.st11{fill:#3A3A3A;}
	.st12{fill:none;}
	.st13{fill:#EFEFEF;}
	.st14{opacity:0.1;enable-background:new    ;}
</style>
<g id="Bg" class="st0">
	<polygon class="st1" points="479,233.7 416,233.7 -164,233.7 -164,825.7 156,825.7 156,933.7 479,933.7 479,583.7 1055,583.7 
		1055,233.7 	"/>
</g>
<path class="st2" d="M164.3,533.8c1.7-1.6,3.2-3.3,4.4-5.2c3.8-7.2,3.1-16.9,2.4-22.6c-1.3-10.4-0.2-15.9-0.2-15.9
	c-5,5.8,0.8,23-12.8,35.3c-13.6,12.4-41.9,0.8-41.9,0.8s-5.9-7.3-13.3-16.7c-0.8,1.7-1.4,2.3-2.5,3.9c-0.5,0.7-1.8-0.1-1.3-0.9
	c1.2-1.7,1.9-2.4,2.8-4.2c-10.8-13.8-24.1-31.5-26.5-37.4c-4.2-10.3-31.2,19.8-26.5,28.4c5.9,10.8,3.2,23.9,3.2,23.9L33,506.1
	c-2.9,25.1,14.6,32.8,14.6,32.8c-2.9,9.4-13.1,14.9-33.8,32.5C-6.9,589.1-7.5,598-5.1,617c2.5,18.8,15.1,28.3,14.8,27.8
	c-0.3-0.5-10.2-24.8-8-40.5c2.2-15.7,18-24.2,40.3-37.6c22.3-13.3,21.7-25.4,21.7-25.4c2.6,0.2,5.8-0.5,5.8-0.5
	c1.1,7.2-1.1,19.3-1.1,19.3c-5,25.2-29.2,21.5-29.2,21.5s-3.9,7.2,15.3,7.7c19.1,0.5,24.2-17.3,24.2-17.3c7.3-0.6,17-0.8,20.2-4.8
	c2.7-3.4,1.3-6.9-4.2-10.8c-5.5-3.9-11.9,1.1-11.9,1.1c1-7.1-0.6-20.2-0.6-20.2c5-1.4,9.3-5.6,9.3-5.6c6.6,4.7,9.3,7.7,27,12.2
	c11.5,2.9,26.3,0.2,37.9-4.9C159.1,537.5,161.9,536.1,164.3,533.8z"/>
<path class="st3" d="M164.3,533.8c1.7-1.6,3.2-3.3,4.4-5.2c3.8-7.2,3.1-16.9,2.4-22.6c-1.3-10.4-0.2-15.9-0.2-15.9
	c-5,5.8,0.8,23-12.8,35.3c-13.6,12.4-41.9,0.8-41.9,0.8s-5.9-7.3-13.3-16.7c-0.8,1.7-1.4,2.3-2.5,3.9c-0.5,0.7-1.8-0.1-1.3-0.9
	c1.2-1.7,1.9-2.4,2.8-4.2c-10.8-13.8-24.1-31.5-26.5-37.4c-4.2-10.3-31.2,19.8-26.5,28.4c5.9,10.8,3.2,23.9,3.2,23.9L33,506.1
	c-2.9,25.1,14.6,32.8,14.6,32.8c-2.9,9.4-13.1,14.9-33.8,32.5C-6.9,589.1-7.5,598-5.1,617c2.5,18.8,15.1,28.3,14.8,27.8
	c-0.3-0.5-10.2-24.8-8-40.5c2.2-15.7,18-24.2,40.3-37.6c22.3-13.3,21.7-25.4,21.7-25.4c2.6,0.2,5.8-0.5,5.8-0.5
	c1.1,7.2-1.1,19.3-1.1,19.3c-5,25.2-29.2,21.5-29.2,21.5s-3.9,7.2,15.3,7.7c19.1,0.5,24.2-17.3,24.2-17.3c7.3-0.6,17-0.8,20.2-4.8
	c2.7-3.4,1.3-6.9-4.2-10.8c-5.5-3.9-11.9,1.1-11.9,1.1c1-7.1-0.6-20.2-0.6-20.2c5-1.4,9.3-5.6,9.3-5.6c6.6,4.7,9.3,7.7,27,12.2
	c11.5,2.9,26.3,0.2,37.9-4.9C159.1,537.5,161.9,536.1,164.3,533.8z"/>
<path class="st4" d="M123,542.8c-0.5-0.1-1.7-0.4-2.9-0.7c-1.1-0.2-2.3-0.5-3.4-0.9c-0.2,0-0.4,0-0.6-0.1c-0.2,0-0.4-0.1-0.5-0.3
	c-0.1,0-0.3-0.1-0.4-0.1c0,2,0.1,0.4-0.1,2.4c1.1,0.3,2.2,0.6,3.4,0.9c6,1.5,12.9,1.5,19.7,0.4C133.1,544.3,127.9,543.9,123,542.8z"
	/>
<path class="st5" d="M51.7,506.5c0.7-1,1.4-2,2.2-3c1.1-1.4,2.3-2.7,3.8-3.7c0.3-0.2,2.3-1.8,3.2-2.2s1-0.6,1.5-0.7
	c0.4,1.1,1.6,4.1,2,5.2c2.8-3.6,7.5-6.2,11.9-6.4c0.5,0.7,2.2,3.3,3.1,4.4c3.7,3.8,4.2,4.2,7.6,6.3c2.2-3,4.6-5.9,7-8.8
	c-8.5-11.2-16.6-22.4-18.4-26.9c-4.2-10.3-31.2,19.8-26.5,28.4C50.3,501.6,51.1,504.1,51.7,506.5z"/>
<path class="st5" d="M70.9,573.5c7.4-9.4,11.7-22.4,11.3-34.4c0-0.2,0-0.3,0.1-0.4c0-0.2-0.1-0.5-0.1-0.7c-0.2-0.1-0.3-0.2-0.5-0.4
	c-0.1-0.1-0.1-0.1-0.1-0.2c-3.9,1.6-8.1,2.5-12.2,3.2c0,0.1-0.1,0.2-0.1,0.2c0.1,0,0.1,0,0.1,0c1.1,7.2-1.1,19.3-1.1,19.3
	c-5,25.2-30.4,21.1-30.4,21.1s0.1,1,0.9,1.2C49.1,588,64.2,582,70.9,573.5z"/>
<path class="st5" d="M96.1,555.2c-1.7-1.2-4.9-0.2-6.6-0.1c-5,2.7-10.5,11.3-8,16.7c12.6-1.4,14.7-1.2,17.4-4.5
	C101.7,563.9,101.6,559,96.1,555.2z"/>
<path class="st5" d="M1.7,616.1c-1.6-10.2,0.2-21.4,5.6-30.2c6-9.7,15.3-13.8,25.6-17.7c6-2.2,11.9-4.8,17.1-8.5
	c3.6-2.6,7-5.6,10.1-8.8c3.1-4.6,3.5-8.4,3.6-9.5c-5.4,0.2-11.4,0-16.1-2.5c-3.2,9-13.6,15.2-33.8,32.5C-6.9,589.1-7.5,598-5.1,617
	c2.5,18.8,15.1,28.3,14.8,27.8c-0.2-0.3-5.4-13.1-7.5-26.1C2,617.9,1.9,617,1.7,616.1z"/>
<path class="st5" d="M115.5,541c-1.1-0.1-2.3-0.3-3.4-0.7c-0.2-0.1-0.3-0.2-0.4-0.4c-1.5-0.5-2.9-1.1-4-2.3c-0.7-0.8-1.4-1.5-2-2.3
	c-2.4-2.6-3.1-6.3-3.3-10.1c-0.1-1.3-0.1-2.5,0-3.5c0-0.5,0-1.1,0.1-1.6c-0.9-2.9,1-5.2,3.5-6.8c-1-1.2-2-2.5-3-3.8
	c-0.4,0.8-0.7,1.5-1.1,2.2c0,0,0,0,0,0c-0.3,4.7-1,7.1-3.3,11c-1.7,2.3-3.1,4.3-4.7,6.2c-0.8,0.8-1.9,2.1-2.4,2.8
	c6.1,4.3,9.2,7.4,24.3,11.5C115.7,542.5,115.6,541.8,115.5,541z"/>
<path class="st3" d="M-15.3,384.7c0,0,4.5,3.4,5.9,7.5s0.6,11.1-6.4,15.1c-3.8,2.2-14,5.3-17.5,17c-3.5,11.7-4,30.8,3.4,41.3
	c7.4,10.4,31.3,24.6,51.2,17.5c0,0-32.1,1.4-41.4-20.9c-9.3-22.3-4.5-31,0.3-38.1c4.8-7.1,18-11.6,18.6-18
	C-0.5,399.8-5.5,383.1-15.3,384.7"/>
<path class="st5" d="M-16.3,384.6c0,0,5.6,3.5,7,7.7c1.4,4.2,0.6,11.1-6.4,15.1c-3.8,2.2-14,5.3-17.5,17c-1.9,6.4-3,15.1-2.2,23.4
	c0.7-2.3,1.6-4.6,2.6-6.7c2.6-5.3,6.2-11.3,11.3-14.6c0.1-0.1,0.3-0.1,0.4-0.1c0.5-0.7,0.9-1.4,1.4-2.1c4.8-7.1,18-11.6,18.6-18
	C-0.5,399.8-6.5,383-16.3,384.6z"/>
<path class="st3" d="M145.6,391.4c0,0-5.5,3.5-5.5,7.9c0,4.3,6.1,10.1,12.7,13.2s17.5,14.9,15.9,33.4c-1.6,18.5-8.5,36.8-33.6,41.4
	c0,0,10.1,22-8.7,26c0,0,9.2-9.6,4.2-16.9c-5-7.2-16.1-6.3-26,3.9l-8.8-7.5c0,0,12.7-11.7,35.2-15.7s27.9-21,25.9-33.6
	c-2.1-12.5-6.1-18.3-16.1-24.1C130.8,413.6,132.7,389.5,145.6,391.4z"/>
<path class="st5" d="M132.1,490.7c3.8,4.5,4.7,11.2,3.4,17.1c4.1-5.9,1.8-14.5,0.5-18.5c-4.9-5.5-12.4-8.4-20.1-8.2
	c-6.9,2.7-12.2,5.7-15.5,8.1c0.1,0.1,0.1,0.2,0.2,0.2C110.3,486.2,124.4,481.6,132.1,490.7z"/>
<path class="st5" d="M140.8,419.4c5.1,3,8.7,6,11.2,9.8c0.1,0,0.3,0,0.5,0.1c9.1,5.9,6.5,20.4,15,25.5c0.6-3,1-6,1.3-8.9
	c1.6-18.5-9.3-30.3-15.9-33.4s-12.7-8.8-12.7-13.2c0-4.3,5.5-7.9,5.5-7.9C132.7,389.5,130.8,413.6,140.8,419.4z"/>
<path class="st3" d="M197.3,493.4c0,0,0.8,4.5-4,4.2c-2.9-0.3,0.5-4.8-1.1-7.9s-1.3-6.3-9.8-5.6
	C173.9,484.7,197.1,474.9,197.3,493.4"/>
<path class="st5" d="M192.4,494c0.7,1.6,2.5,2.6,4.3,2.4c1-1.2,0.6-3,0.6-3c-0.2-18.5-23.4-8.7-14.9-9.3c8.5-0.6,8.2,2.6,9.8,5.6
	C192.8,491,192.6,492.6,192.4,494z"/>
<path class="st3" d="M-66.1,501c0,0,7.5-0.6,18.4,6.4s15.8,9.6,32.3,8.8c16.5-0.9,19.5-9.8,18.4-10.1c-1.1-0.2-23.8,0.9-34.3-4.1
	C-41.7,497.1-54.1,495.4-66.1,501"/>
<path class="st5" d="M-63.7,501.1c9.4-2.7,16.2,2.1,25.8,7.7c5.6,3.3,11.1,4.7,19.9,4.8c5,0.1,10.6-0.7,15.6-0.7
	c5.2-2.9,6.2-6.7,5.5-6.8c-1.1-0.2-23.8,0.9-34.3-4.1s-22.9-6.6-34.9-1.1C-66.1,501-65.2,500.9-63.7,501.1z"/>
<path class="st3" d="M17,517.3c0,0-12.4,15.6-8.6,42.6c3.9,27,15.6,54.4,21.6,61.4c6,7.1,9.2,4.3,6.4-2.1
	c-2.8-6.4-18-41.3-15.6-73.2c2.4-31.9,16.7-37.9,16.7-37.9S37.8,490.5,17,517.3z"/>
<path class="st5" d="M34,505.5c0.1-1,0.2-2,0.4-3c-2.7-0.4-7.8,2.5-17.4,14.8c0,0-5.5,7-8.1,19.6c1-1.1,2-2.1,3.3-2.9
	c3.6-2.5,7.5-4.4,11.7-5.6c2.5-8.5,6-13.6,8.8-16.5c0.1-1.9,0.3-3.8,0.5-5.7C33.2,505.7,33.6,505.4,34,505.5z"/>
<path class="st2" d="M-19.4,575.7c-1.4-6.2-6.6-7.6-8.7-6.7c1.3,2.2,2.5,4.3,3.3,6.6c1.4,2.7,1.7,6,0.9,12.4
	c-0.1,0.7-0.2,1.1-0.4,1.8c-0.5,1.8-1.4,3.3-2.5,4.7c-1.7,2-3.7,3.9-6.3,4.3c-1.9,0.3-3.8,0.6-5.8,0.5c-4.1-0.3-6.1-2-7.5-4.6
	c-0.9-1.1-1.6-2.5-2-3.9c-1.1-2.2-1.9-4.4-4.2-3.9c-1,0.2-1.6,0.7-2,1.3c-0.4,1.4-0.6,2.9-0.6,4.3c0.1,0.6,0.2,1.1,0.2,1.1
	c6,15.8,22.3,14.3,31.3,9C-14.7,597.1-17.3,584.9-19.4,575.7z"/>
<path class="st4" d="M-19.4,575.7c-1.4-6.2-6.6-7.6-8.7-6.7c1.3,2.2,2.5,4.3,3.3,6.6c0.8,1.5,1.2,3.2,1.3,5.6c2,6.7-1,15.2-7.7,17.7
	c-4.8,1.8-9.9,1.9-14.3-1c-3.9-2.5-7.1-6.1-8.1-10.7c-0.5,0.2-0.8,0.6-1.1,0.9c-0.4,1.4-0.6,2.9-0.6,4.3c0.1,0.6,0.2,1.1,0.2,1.1
	c6,15.8,22.3,14.3,31.3,9C-14.7,597.1-17.3,584.9-19.4,575.7z"/>
<path class="st4" d="M68.4,525.2c0,0,1.1-10.1,0-14.3c0,0,4.2,7.1,9,9.5C77.4,520.4,74.6,523.9,68.4,525.2z"/>
<path class="st3" d="M93.7,568.5c0,0-3.7-2.2-3.3-5.5c0,0-3.7,2.1-1.7,5.5c2,3.3,0,0,0,0S91.3,569.3,93.7,568.5"/>
<path class="st3" d="M35.2,288.4c0,0-19.3-8.6-27.4,5.6c-8.1,14.1-1.7,27-13.3,30.4c0,0,18,9,36-1.7C48.5,312,35.2,288.4,35.2,288.4
	z"/>
<path class="st5" d="M35.2,288.4c0,0-2.9-1.3-6.8-2c-3.9,6.7-5.6,15.6-5.6,22.8c0,5.3,0.6,11.1,2,16.2c1.9-0.7,3.8-1.6,5.7-2.8
	C48.5,312,35.2,288.4,35.2,288.4z"/>
<path class="st3" d="M138.2,400.4c1-0.2,1.3,0.8,1.5,2.2c0.3,1.4,0.7,2.7-0.3,2.9c-1,0.2-3.1-0.7-3.3-2.1
	C135.8,402,137.2,400.6,138.2,400.4z"/>
<ellipse transform="matrix(-0.9161 -0.4009 0.4009 -0.9161 51.8331 1023.7688)" class="st6" cx="133" cy="506.5" rx="1.1" ry="2.1"/>
<ellipse transform="matrix(-0.728 -0.6856 0.6856 -0.728 -126.1964 972.9379)" class="st7" cx="129.9" cy="511.5" rx="1.1" ry="2.1"/>
<path class="st8" d="M192.3,477.9c-0.4-0.2-0.8-0.3-1.2-0.4c-7.1-2-16.4-2.7-22.8-0.6c-1.5,0.8-3,1.8-4.4,3c-5,6.2-5.7,16.1-3.9,25
	c1.6,8,1.7,12.2-0.5,15.3c-0.7,1.4-1.8,2.6-3,3.6c-2.1,1.9-4.9,3.4-7.8,4.2c-1.3,0.4-2.7,0.6-4.1,0.8c-12.1,2.6-27.9-5.6-27.9-5.6
	l0,0.1c-0.5-2.2-1.1-4.3-1.7-6.5c-2.3-8.6-9.7-17.4-16.2-23.9c0.9-1.2,1.9-2.1,2.9-2.8c7.1-4.7,23.1-11.3,30.2-2.1
	c7.1,9.2,3.9,21-3.9,24c-4.1,1.9-5.8,4.3-4.5,5.4c1.3,1.1,7.3,0.4,12.6-5.6c5.4-6,8.2-16.4-0.6-26.5c-1.4-1.7-1.9-2.5-3.8-3.6
	c7.5-1.7,21.6-9.5,25.4-24.2c3.7-16.9,2.5-22.3-0.9-28.1c-1.2-2.9-3.6-4.8-4.5-5.3c-12.1-6.1-13.8-11.4-13.2-16.3
	c0-0.7,0-1.5,0.2-2.3c0.5-2.7,1.2-6,2.7-8.5c1.6-3.7,4.8-5.4,9.8-5.7c7.5-0.4,15.5,4.2,20.6,9.3c6.4,6.5,7.7,15,11.3,23
	c5.8,11.1,16.8,15.2,16.8,15.2c-4.7-4.3-2.8-17.3-1.1-23.1c1.7-5.8,0.9-15-3.9-25s-7.7-13.7-29.1-15c-21.4-1.3-24.8,5.4-29.1,17.1
	c-4.3,11.8-6.4,23.5,3.9,29.3c3.4,1.9,7.4,5.5,9.6,7.7c4.8,6.2,5.8,16.7,2,26.7c-3.9,10.3-16.1,19.5-32.3,19.1
	c-16.3-0.4-28.7-8.8-31-19.1c-2.1-9.2,0.6-27.4,1.2-31.2c5.3-5.1,6.5-11.9,5.4-17.9c0.3,0,0.6,0.1,0.9,0.1c3.3,0,6-2.7,6-6
	s-2.7-6-6-6c-1.9,0-3.5,0.9-4.6,2.2c0.1-5.3,0.3-14.3,0.4-19.2c3.4-0.6,5.5-1,5.5-1s6.2-9-2.4-13.5c0,0,4.9-15.6-11.3-33.2
	c-13.3-14.8-12.4-24-12.4-24s14.1-2.8,21-14.1c6.9-11.3,9-22.7-4.3-33.2c-13.3-10.5-22.5-5.1-33.8,1.5c-11.3,6.6-32.1,27-25.7,70
	c3.2,18.6,5.8,26.8,7.9,31.7c0,0-11.3,5.4-5.4,15.8c1.1,1.9,3.9,3,7.8,3.7l-0.3,18.8c-1.1-1.3-2.8-2.1-4.6-2.1
	c-3.4,0-6.2,2.8-6.2,6.2s2.8,6.2,6.2,6.2c0.3,0,0.7,0,1-0.1c0,2.3,0.5,6.7,3.1,10.9c0.3,5.2,0.9,26.5-5.4,34.4
	c-7.3,9-22,22.7-37.9,13.9c-15.8-8.8-17.1-16.9-16.3-30.2c0.9-13.3,5.4-18.8,15.6-24.6c10.3-5.8,8.1-17.6,3.9-29.3
	c-4.3-11.8-7.7-18.4-29.1-17.1s-24.4,4.9-29.1,15c-4.7,10.1-5.6,19.3-3.9,25c1.7,5.8,3.6,18.8-1.1,23.1c0,0,11-4.1,16.8-15.2
	c3.6-8,4.9-16.5,11.3-23c5.1-5.1,13.1-9.7,20.6-9.3c5,0.3,8.2,2,9.8,5.7c1.5,2.5,2.3,5.8,2.7,8.5c0.1,0.8,0.2,1.5,0.2,2.3
	c0.7,4.9-1.1,10.1-13.2,16.3c-13.5,6.9-11.1,35.3-9.2,40.2c1.9,4.9,20.8,39.8,54.8,21.8c0,0-6.8,8.7-14.7,15.6
	c-3.8,4.6-10,6.6-15.7,7.4c-3.7,0.5-7.1,0.9-10.4,0.6c-2.9,0.2-5.8,0-8.6-0.4c-8.1-1.2-14.6-4.4-21.9-7.8c-9-4.2-19.3-3.2-28.6-0.6
	c-4.3,1.2-8.3,2.7-11.2,6.3c-1.7,2.1-2.6,4.4-3.3,6.9c-0.2,1.6-0.2,3.3-0.1,5.2c0.9,15.2,6.6,18.8,16.7,20.8s13.7-3,15.4-6.9
	c1.7-3.9-1.9-6.4-6-3.2c0,0-0.1,0-0.1,0.1c-2,1.6-4.1,2.5-6.2,2.3c-0.6,0.1-1.3,0.1-1.9,0c-3.4-0.6-6.2-3.2-7.8-6.2
	c-3.8-7.3-1.2-15,6.7-17.1c0.4-0.2,0.8-0.3,1.2-0.4c11.6-3.6,18.2-4.1,36,2.4c11.8,4.7,30.2,3.2,30.2,3.2s0,0,0,0
	c-0.3,0.1-0.6,0.3-0.9,0.4c0,0-16.5,4.9-29.2,12.1c-0.1,0.1-0.2,0.1-0.4,0.2c-2.4,2.1-4.5,4.5-6.3,7.1c-1.1,2.3-1.8,4.8-2.2,7.3
	c-1,7,1.1,14.5,4.1,20.9c2.8,6,7.6,11.6,10.4,17.6c3.2,5.3,5.1,9.4,5.1,14.4c0,7.3-3.5,15.1-11.4,16.5c-9.6,1.8-18.2-0.9-23-12.5
	c-0.1,1.3,0,2.5,0.1,3.8c0.8,3.6,2.9,8.4,8.8,10.8c9.5,3.8,17.8,3.9,25.2-2.7c5.5-4.7,6.5-10.7,6.6-13.6c0.5-3.5,0.5-7.1,0.3-10.3
	c-0.5-6.2-2.5-11.5-5.8-16.8c-2.2-3.5-5.4-6.7-7-10.5c-1.9-2.6-2.9-5.3-2.4-9.2c1.3-10.3,12.4-10.1,20.3-13.1
	c7.9-3,34.5-12.8,42-23.8c0,0,0.4,13.7,15.6,20.6c15.2,6.9,29.3,1.5,35.5-6.9c2.6-3.6,4.9-8.7,7.3-13.7c2.9,2.5,5.7,5,8.2,8
	c10.1,12.2,10.5,28.7,8.6,36.8c-1.7,7.3-5.8,11.4-6.7,12.1c-0.4,0.5-0.8,0.9-1.1,1.3c-1.8,1.8-6,5.3-10.4,4.8c-0.1,0-0.2,0-0.2,0
	c-2.9-0.1-6.3-1.9-6.5-5.2c-0.1-2.1,0.6-4.9,2.7-5.8c0.5-0.9,1.3-1.7,2.5-2.4c2.7-1.4,6.2-3,8.3,0.1c0.2,0.3,0.4,0.6,0.6,0.9
	c1.7,1.7,2.6,4.4,2.1,6.6c0.2-0.3,0.3-0.6,0.5-0.9c-0.1-0.2-0.1-0.4,0-0.6c0.3-0.5,0.6-0.9,0.9-1.4c-2.8-12.8-13.7-8.5-16.9-5.9
	c-3.1,2.5-14.8,15.4,1.3,24c1.2,0.6,2.3,1.1,3.4,1.5c-1.2,1.4-4.9,5.4-7.5,5.9c-3.2,0.6,0.6,4.1,4.3,2.8c3-1.1,8-5.7,11-9
	c8.5-1.3,13.6-9.1,18.8-18.2c5.2-9.1,5-20.4,2.8-32.1c6,2.9,18.2,7,31.8,1.9c19.3-7.3,20.1-23.8,20.1-28s-4.5-17.3,11.6-19.7
	c14.3-2.1,15.5,8.7,15.6,11.1c0,0.1,0.1,0.2,0.1,0.3C199.2,491,199.4,482.8,192.3,477.9z M67.2,524.7c-16.2,2.6-21-8.8-19.9-20.1
	c1.1-11.2,19.3-24.9,25.2-31.3c0,0-1.8,19.1,14.8,29.2C87.3,502.6,83.5,522.1,67.2,524.7z M95.3,489.4c-3.9-3.6-6.9-6-7.6-6.5
	c1.9,1.1,3.8,1.9,5.9,2.2c1.6,0.3,3.5,0.4,6.5,0.1c-0.4,0.4-2,1-2.5,1.4C96.8,487.5,96.1,488.4,95.3,489.4z"/>
<path class="st9" d="M97.3,505.3c-0.5,1.5-1,3.1-1.6,4.6c1.4,1.3,2.7,2.7,3.9,4.1c2.9,3.5,4.7,5.5,6.2,9.4c1.2-3.6,1.8-5.5,2.4-9.3
	c0.4-2.6,1.5-4.7,2.5-7c-2.6-4.2-5.9-8.2-9.2-11.7C99.6,498.5,98.4,501.9,97.3,505.3z"/>
<path class="st9" d="M9,521c0,0-10.6,30.2,1.6,63.9c12.2,33.7,20.9,42.1,25,40.5c0,0-4.9-0.9-11.8-15.4
	C17,595.4,7.1,565.4,9.3,547.7s4.9-24.6,10.5-32.8L9,521z"/>
<path class="st9" d="M-3.1,622.8c-4-15.9-1.6-32.9,11.8-44.3c0.6-0.6,1.3-1.3,1.9-1.9c-0.6-1.8-1.1-3.6-1.4-5.4
	c-9,8.1-16.6,20-18,32.8c-1.9,17.8,2.6,31.7,9.8,39c7.3,7.3,9.6,4.9,8.6,1.9C9.7,644.9,0.9,639.1-3.1,622.8z"/>
<path class="st9" d="M21.4,566.4c3.6-3.3,7.2-6.5,10.6-9.9c-1,0.5-2.2,1.6-3.2,2.1c-2.6,1.7-5.3,3.3-7.8,4.5
	C21.2,564.3,21.3,565.3,21.4,566.4z"/>
<path class="st9" d="M83,555.7c1.1-1,3-2.2,4.5-2.8c0-9.9-2.4-17-2.4-17l-3.6,1.7c0.4,1.6,0.7,3.2,0.9,5.4
	C83,547.2,83.3,551.4,83,555.7z"/>
<path class="st9" d="M79,572.8c-0.2-0.1-0.5-0.2-0.7-0.3c-1.2,3.7-3.4,6.9-6.4,9.5c-2.7,3.1-6.2,5.2-10.9,6.1
	c-11.6,2.1-19.5,0.4-23.5-7.7c-4.1-8.1,2.6-10.7,4.7-11.3c2.1-0.6,3.4-8.8-7.1-3c-10.5,5.8-3.2,21.6,5.8,26.5
	c9,4.9,32.4,3.9,41.2-16.1c0-0.1-0.5-2-0.5-2.1C80.8,574,79.8,573.5,79,572.8z"/>
<ellipse transform="matrix(9.000375e-02 0.9959 -0.9959 9.000375e-02 425.8279 307.4718)" class="st10" cx="44.7" cy="386.8" rx="14.3" ry="15"/>
<ellipse transform="matrix(-0.1161 0.9932 -0.9932 -0.1161 478.8402 347.851)" class="st10" cx="84.6" cy="387" rx="13.9" ry="14.6"/>
<path class="st11" d="M56.1,381.8c-0.7,2.1-2.6,3.6-5,3.6c-2.7,0-4.8-2-5.2-4.5c-2.7,1.4-4.5,4.1-4.5,7.1c0,4.5,4,8.2,8.9,8.2
	c4.9,0,8.9-3.7,8.9-8.2C59.2,385.5,58,383.3,56.1,381.8z"/>
<path class="st11" d="M85.1,379c-0.2,2.4-1.8,4.5-4.3,5.2c-2.8,0.7-5.7-0.8-6.7-3.5c-2.5,2.2-3.7,5.5-2.9,8.8
	c1.2,4.8,6.4,7.6,11.6,6.3s8.5-6.2,7.3-11C89.4,382.1,87.5,380.1,85.1,379z"/>
<path class="st11" d="M104.8,376.9c0,0-2.3,3.3-6.1,2.1c-0.2-0.3-0.4-0.6-0.6-0.9c0.9-0.4,3.4-1.8,3.3-5.8c0,0-1.3,3.7-5.2,3.6
	c-0.2-0.2-0.5-0.5-0.8-0.7c0.8-0.5,3-2.4,2.1-6.4c0,0-0.6,4-4.6,4.6c-1.9-1.1-4.1-1.9-6.5-2.2c-5.6-0.7-10.9,1.5-14.3,5.2
	c-6.3-3.1-12.7-0.8-14.6,0c-3.3-3.7-8.4-5.8-13.8-5.3c-2.6,0.2-4.9,1-7,2.2c-4.1-0.5-4.7-4.6-4.7-4.6c-0.9,4.2,1.5,6,2.2,6.4
	c-0.2,0.2-0.5,0.4-0.7,0.7c-4,0.2-5.4-3.6-5.4-3.6c-0.1,4.2,2.6,5.5,3.4,5.8c-0.2,0.3-0.4,0.5-0.5,0.8c-3.9,1.3-6.2-2.1-6.2-2.1
	c1,4.2,4.1,4.7,4.9,4.8c-0.7,2-1,4.2-0.8,6.4c0.8,8.5,8.7,14.8,17.7,14c9-0.8,15.6-8.4,14.9-16.9c-0.2-2.3-1-4.5-2.1-6.4
	c6.7-1.9,10-0.4,11.1,0.3c-1,1.7-1.6,3.6-1.9,5.7c-1,8.5,5.5,16.3,14.4,17.3c9,1,17-5,18-13.5c0.3-2.4,0-4.7-0.8-6.8
	C100.9,381.6,103.8,381,104.8,376.9z M46.1,398.6c-6.7,0.6-12.6-4.5-13.1-10.8c-0.6-6.3,4.4-12,11-12.6c6.7-0.6,12.6,4.1,13.1,10.4
	C57.8,391.9,52.8,398,46.1,398.6z M96.7,388.1c-0.7,6.3-6.8,11.2-13.5,10.5c-6.6-0.8-11.4-7-10.6-13.3s6.7-10.8,13.4-10
	C92.6,376,97.4,381.8,96.7,388.1z"/>
<path class="st9" d="M-12.8,475.4c0,0,33.6,18.7,54.8-19.7l-13.6,24.2C28.4,479.9,8.1,493.2-12.8,475.4z"/>
<path class="st9" d="M72.8,463c-1.2,2.4-3.1,4.5-4.7,6.7c-3.6,4.7-7.7,9-11.5,13.5c-5.3,6.3-12.3,14.4-13.3,22.9
	c0.1,2.3,0.6,4.6,1.4,6.9c4,10.9,12.7,12,16.1,12c0,0-15.4-1-13.3-20.1c1.3-10.6,18.7-25.4,25-31.2C72.5,473.7,72.1,471.3,72.8,463z
	"/>
<path class="st9" d="M55.5,465.5c-0.7,0.8-1.4,1.6-2.1,2.3c-2.1,2.7-4.2,5.3-6.6,7.8c-1.6,1.7-3.2,3.3-4.8,5
	c-1.4,1.8-2.6,3.6-3.8,5.5c-3.7,5.8-5.6,12.7-9.4,16.8c-3.4,3.6-7.7,6.6-12.2,8.7c-5.1,3.4-11.5,6.6-19,9.5
	c-14.1,5.5-22,6.7-26.8,13.3C-32,541-29,548.2-29,548.2c-1-13.8,14.2-14.7,24.2-19.3c35.2-14.3,37.7-22.3,37.7-22.3
	c0-12.8,8.7-24.4,15.6-31.5c3.4-3.5,6.8-8.1,9.3-11.8C57,464.1,56.1,464.8,55.5,465.5z"/>
<path class="st9" d="M1.3,501.9c-4.4,2.6-8.3,4.1-13.2,5.3c-0.5,0.2-0.9,0.3-1.4,0.4c6.9,0.2,12-0.2,12-0.2s8.1-3.6,12.7-9.7
	C8.4,499.8,4.8,501.1,1.3,501.9z"/>
<path class="st9" d="M-54.5,522.1C-54.5,522.1-54.5,522.1-54.5,522.1c0.8,0.8,1,1.9-0.2,3.4c-0.7,0.9-1.6,1.6-2.5,2.3
	c-0.5,0.5-1.1,0.8-1.6,1.2c-5.4,4-13.2,3.3-18.3-0.3c-6.9-4.9-9.4-14.1-8-22.3c-0.2,0.5-0.3,1.1-0.4,1.6c-2.7,17.5,5,22.3,13,25.1
	c8.7,3.1,13.8,0.6,18.1-4.2C-50.1,524.1-54.5,522.1-54.5,522.1z"/>
<path class="st9" d="M88.5,499.8c-10.6-6.6-15-16.6-15-16.6c0.9,7.1,3.7,12.1,13.8,20.2C87.6,502.1,88,500.9,88.5,499.8z"/>
<path class="st9" d="M93.4,502.6c-0.6,1.3-1.3,2.7-2,4c21.1,16.4,17.3,41,17.3,41C113.5,527.5,104.9,509.9,93.4,502.6z"/>
<path class="st9" d="M146.7,472.5c-3.1,2.5-7,4.4-11,5.2c-4.8,1-9.6,0.3-14.5,0.1c-0.7,0-1.5,0.1-2.2,0.1c-3,0.4-6,0.9-9,1.7
	c-3.5,1-7,1.2-10.5,0c-3.3-1.1-6.7-2.7-9.3-5.1c-2.4-2.2-3.6-4.8-5.2-7.5c-0.2,3.8-1.1,12.5,3.1,16.4c0,0,6.5,3.2,11.7,2.1
	c0,0,18-12.2,32.2-4c0,0,18-3.6,24.6-22.7C154.2,463.8,151.2,468.9,146.7,472.5z"/>
<path class="st9" d="M97.3,553.6c-5.3-4-12.9,2.6-15.5,7.4c-1.9,3.5,0.4,6.6,4.2,8.4c3.2,1.1,6.8,0.3,9.8-1.4
	c-2.7,0.8-5.1,1-7.1,0.5c-2.3-0.2-4.3-2.4-4.4-4.4c-0.2-3.7,2.8-6.3,5.8-7.8c3.5-1.6,8.6-2.6,9.6,8.7c0,0,0,0.2,0,0.2
	c0.1-0.1,0.6-0.6,0.9-0.9c0.9-1,1.1-1.2,1.1-1.2S102.6,557.6,97.3,553.6z"/>
<path class="st9" d="M54.6,418.7c0,0,10.8,5,23.3,0.5C77.8,419.2,70.1,431.1,54.6,418.7z"/>
<path class="st9" d="M48.9,358.1c-4.3-0.7-8.9,0.2-13.1,2l0.9,2.3c0,0,13.5-2.5,20.6,0.9C57.3,363.4,55.4,360,48.9,358.1z"/>
<path class="st9" d="M74.3,361.8c-1.5,1.2-1.9,2.2-1.9,2.2c12.9-5.1,23-0.2,23-0.2c0.3-0.8,0.5-2.4,0.6-3.6
	C89.1,357.2,80.8,358,74.3,361.8z"/>
<g>
	<path class="st9" d="M177.4,480.7c-11.7,2.4-12.2,11.2-11.7,21.5c0.5,10.3-4.6,25.3-21,26.5c-0.1,0-0.3,0-0.4,0
		c-2.4,0.2-4.8,0.2-7.2-0.1c-14-1-20.6-7-20.6-7l1.6,8.2c0,0,6,3.5,14.2,4.5c2.9,0.3,5.2,0.4,8.2,0.4c5.7-0.1,12.9-1,17.9-4.2
		c7.1-4.6,10.4-13.4,11.6-20.9c0-0.1,0.1-0.2,0.1-0.3c2.6-11.6-4.5-21.5,9.2-24.6c13-2.9,17.1,4.6,17.9,9.7c0.1,0.1,0.1,0.3,0.2,0.4
		C197.7,492.4,200.1,475.8,177.4,480.7z"/>
</g>
<path class="st3" d="M111.4,490.4c-2.4,1.5-4.1,2.3-5.3,2.9c-0.7-2.3-2.1-4.4-5-2.9c-5.6,2.9-13.5,23.9-13.5,23.9
	s-5.8,23.4-0.5,20.9c5.4-2.5,12.4-8.8,14-17.8c0.8-4.5,2.2-9.3,3.4-13c1.5-3.3,4.9-9.1,10.7-11.5c8.2-3.4,8.2-3.4,8.2-3.4
	S118,486.2,111.4,490.4z"/>
<path class="st9" d="M97.2,575.8c-3.8,0.9-7.6,0.5-10.8-0.3c-3.7-1.1-8.2-3.3-9.3-7.5c0,0,0,9.9,10.9,12.1c0.5,0.1-1.7-0.5-1.7-0.5
	c-1.4,1.7-3.3,4.3-5.3,4.7c-2,0.3-3.3,4.3,1.9,5.2c5.2,0.9,13.1-8.8,13.1-8.8c9.1,0.2,18.5-17.4,18.5-17.4S106.8,573.6,97.2,575.8z"
	/>
<path class="st9" d="M178.4,398.8c-5.7-6.3-16.5-9.2-26.1-7.8c7.1,0,14.6,4.4,19.5,9.3c6.4,6.5,7.7,15.1,11.3,23
	c3.1,5.9,7.6,9.8,11.1,12.1c-3.5-3.7-5.7-8.5-7.3-13.5c-1.3-4.2-2.3-8.4-3.6-12.6C182.2,405.7,181.1,401.7,178.4,398.8z"/>
<path class="st12" d="M93.6,485.2c-2-0.4-4-1.1-5.9-2.2c0.6,0.5,3.7,2.9,7.6,6.5c0.7-1,1.5-1.9,2.4-2.7c0.4-0.4,2-1.1,2.5-1.4
	C97.1,485.5,95.2,485.4,93.6,485.2z"/>
<path class="st12" d="M72.5,473.3c-5.9,6.4-24.1,20.1-25.2,31.3c-1.1,11.2,3.7,22.6,19.9,20.1s20.1-22.2,20.1-22.2
	C70.8,492.4,72.5,473.3,72.5,473.3z"/>
<path class="st3" d="M75.2,342.4c0,0-9.6-9.2-24.5-4.9c-13.3,3.9-12.3,14.9-12.3,14.9S45.5,339.4,75.2,342.4z"/>
<path class="st3" d="M61.6,320.5c0,0-8.9-8.3-20.9-3.5c-10.1,4-7.1,14.3-7.1,14.3S39.8,316.8,61.6,320.5z"/>
<path class="st3" d="M55,303.8c0,0-7.2-8.2-19.3-4.3c-8.2,2.6-6.3,11.7-6.3,11.7C30,311.3,35.1,301.1,55,303.8z"/>
<path class="st3" d="M52.1,288.2c0,0-6-6.6-18.3-3.7c-0.8,1.7-1.5,3.5-2.2,5.4C39.7,286.4,52.1,288.2,52.1,288.2z"/>
<path class="st3" d="M51.3,273.7c0,0-1.3-5.3-6.3-5.5c-1.1,1.1-2.2,2.3-3.2,3.6C47.8,271.7,51.3,273.7,51.3,273.7z"/>
<path class="st3" d="M88,283.8c0,0,4.9,0.7,8.7,0.2c1.1-3.2,1.6-6.4,1.2-9.5C97.1,277,94.4,283.4,88,283.8z"/>
<path class="st3" d="M78.2,292.5c0,0,2.8,5.1,7.7,7.3c2-1.6,4-3.5,5.6-5.8C90.1,294.4,84,295.8,78.2,292.5z"/>
<path class="st9" d="M71.6,306.7c0,0-1.9-23.4,4-30.2c0,0-5.1,13.2,3.9,27.3C79.4,303.8,76.1,305.5,71.6,306.7z"/>
<path class="st12" d="M93.6,485.2c-2-0.4-4-1.1-5.9-2.2c0.6,0.5,3.7,2.9,7.6,6.5c0.7-1,1.5-1.9,2.4-2.7c0.4-0.4,2-1.1,2.5-1.4
	C97.1,485.5,95.2,485.4,93.6,485.2z"/>
<path class="st12" d="M72.5,473.3c-5.9,6.4-24.1,20.1-25.2,31.3c-1.1,11.2,3.7,22.6,19.9,20.1s20.1-22.2,20.1-22.2
	C70.8,492.4,72.5,473.3,72.5,473.3z"/>
<path class="st3" d="M180.3,387.2c5.3-3.7,9.5-3.4,11.4-3c0.9,1.2,1.7,2.6,2.4,4.2C188.4,386.8,180.3,387.2,180.3,387.2z"/>
<path class="st3" d="M195.8,392.2c0.5,1.2,1,2.4,1.4,3.6c-4.3-1.5-9.3-2.2-9.3-2.2C191.3,392,194,391.9,195.8,392.2z"/>
<path class="st3" d="M198.6,400.4c0.3,1.1,0.5,2.1,0.6,3.2c-3.5-1.8-7.6-2.9-7.6-2.9C194.7,399.6,197,399.9,198.6,400.4z"/>
<path class="st11" d="M74.2,405.5c0,0,1.2,0.3,2.4,1l0.1,0.3c0,0.9-0.5,1.3-0.9,1.4c-1.1,0.5-5.6,1.5-12,0.4c0,0,4.2,2.8,11,1.5
	c0,0,0.6-0.1,1.1-0.4c0.3-0.1,0.6-0.3,0.9-0.4c0.1-0.1,0.3-0.2,0.4-0.3c0,0,0.1-0.1,0.1-0.1l0,0c0.3-0.4,0.6-0.9,0.7-1.6
	c0.7,0.5,1.5,1.1,2,2.1C80,409.3,79.7,404,74.2,405.5z"/>
<ellipse transform="matrix(0.1896 0.9819 -0.9819 0.1896 582.4288 363.3459)" class="st6" cx="71.1" cy="534.5" rx="3.7" ry="4.2"/>
<ellipse transform="matrix(0.9956 -9.379917e-02 9.379917e-02 0.9956 -50.8828 9.557)" class="st3" cx="76.2" cy="546" rx="3.7" ry="4.2"/>
<ellipse transform="matrix(0.5115 -0.8593 0.8593 0.5115 -405.7268 347.0733)" class="st3" cx="102.4" cy="530.4" rx="4.4" ry="4.9"/>
<ellipse transform="matrix(0.9949 0.1007 -0.1007 0.9949 56.5241 -4.831)" class="st3" cx="76.1" cy="557.5" rx="3.8" ry="4.3"/>
<ellipse transform="matrix(0.9409 0.3387 -0.3387 0.9409 196.9694 8.8903)" class="st3" cx="73" cy="568.8" rx="3.8" ry="4.3"/>
<ellipse transform="matrix(0.7045 0.7097 -0.7097 0.7045 429.818 123.6854)" class="st3" cx="66.4" cy="578" rx="3.8" ry="4.3"/>
<ellipse transform="matrix(0.2921 0.9564 -0.9564 0.2921 598.1457 359.0648)" class="st3" cx="56.5" cy="583.6" rx="3.3" ry="3.7"/>
<ellipse transform="matrix(-3.779944e-02 0.9993 -0.9993 -3.779944e-02 633.5388 560.3154)" class="st3" cx="47" cy="585.2" rx="2.9" ry="3.3"/>
<ellipse transform="matrix(-7.239825e-02 0.9974 -0.9974 -7.239825e-02 598.2264 515.2039)" class="st6" cx="59.5" cy="535.8" rx="3.7" ry="4.2"/>
<ellipse transform="matrix(-0.4057 0.914 -0.914 -0.4057 554.7546 705.3692)" class="st6" cx="48.1" cy="533" rx="3.6" ry="4"/>
<ellipse transform="matrix(-0.7068 0.7074 -0.7074 -0.7068 440.4604 870.1451)" class="st6" cx="39.9" cy="526.3" rx="3" ry="3.4"/>
<path class="st6" d="M35.8,522c1-0.8,1-2.5,0.1-4.1c-0.7-1.3-1.8-2-2.9-1.9c0,0,0.3,3.2,1.3,6.3C34.7,522.4,35.2,522.3,35.8,522z"/>
<ellipse transform="matrix(0.5778 0.8162 -0.8162 0.5778 467.4744 155.87)" class="st6" cx="83.1" cy="529.8" rx="3.9" ry="4.4"/>
<ellipse transform="matrix(0.8507 0.5257 -0.5257 0.8507 287.5581 29.4653)" class="st6" cx="91.9" cy="520.9" rx="4.1" ry="4.6"/>
<ellipse transform="matrix(-0.1999 0.9798 -0.9798 -0.1999 678.3892 523.8577)" class="st6" cx="125.3" cy="538.9" rx="3.7" ry="4.1"/>
<ellipse transform="matrix(7.499877e-02 0.9972 -0.9972 7.499877e-02 665.4855 362.4814)" class="st6" cx="137.4" cy="539.9" rx="3.3" ry="3.7"/>
<path class="st6" d="M151.4,541.1c0.4-0.6,0.5-1.5,0.4-2.2c-0.3-1.8-2.2-2.9-4.2-2.6c-2,0.4-3.4,2.1-3.1,3.9c0.2,1,1,1.9,1.9,2.4
	C148.5,542,149.4,541.8,151.4,541.1z"/>
<path class="st6" d="M155.7,539.4c2.1-0.8,4.2-2.1,6.1-3.5c0-0.2-0.1-0.4-0.2-0.6c-0.7-1.7-2.9-2.3-4.7-1.5c-1.9,0.8-2.8,2.9-2,4.5
	C154.9,538.7,155.3,539.1,155.7,539.4z"/>
<path class="st6" d="M168.8,528.3c-0.2-0.3-0.3-0.5-0.6-0.7c-1.4-1.1-3.6-0.8-4.9,0.8c-1.3,1.6-1.2,3.8,0.2,5
	c0.2,0.2,0.4,0.3,0.6,0.4C166,532,167.4,531,168.8,528.3z"/>
<path class="st6" d="M171.1,522c0.2-1.2,0.3-2.5,0.4-3.6c-1.4,0.1-2.6,1.1-3.2,2.6c-0.6,1.8,0.2,3.7,1.7,4.4
	C170.5,524.3,170.9,523.1,171.1,522z"/>
<path class="st7" d="M171.5,510.5c-0.5,0.6-0.8,1.3-0.9,2.1c-0.1,1.2,0.3,2.3,1,3.1C171.8,513.8,171.9,512.3,171.5,510.5z"/>
<path class="st3" d="M67.8,478c-1.2,1.1-2.5,2.3-3.7,3.4c-0.8,0.7-1.6,1.6-2.5,2.5c1,0.9,2.6,1.6,4,1.3c2.3-0.5,3.7-2.7,3.2-5.1
	C68.7,479.3,68.2,478.5,67.8,478z"/>
<path class="st3" d="M55.6,490.3c-1,1.2-2.1,2.6-3.1,3.9c-0.7,0.8-1.3,2-2,2.9c1.1,0.8,2.7,1.1,4.1,0.6c2.1-0.8,3.2-3.3,2.3-5.5
	C56.8,491.5,56.1,490.8,55.6,490.3z"/>
<ellipse transform="matrix(0.9096 -0.4155 0.4155 0.9096 -198.3939 72.6707)" class="st3" cx="67.8" cy="492.2" rx="4" ry="4.2"/>
<ellipse transform="matrix(0.8762 -0.482 0.482 0.8762 -233.5499 97.4333)" class="st6" cx="72.9" cy="503.3" rx="4" ry="4.2"/>
<ellipse transform="matrix(0.9844 -0.1758 0.1758 0.9844 -88.0974 18.2702)" class="st6" cx="59.1" cy="506.3" rx="4" ry="4.2"/>
<ellipse transform="matrix(0.9998 -1.800068e-02 1.800068e-02 0.9998 -9.3098 1.1759)" class="st6" cx="60.7" cy="517.7" rx="4" ry="4.2"/>
<ellipse transform="matrix(0.8451 0.5346 -0.5346 0.8451 300.701 56.7198)" class="st3" cx="52.5" cy="547.3" rx="4" ry="4.2"/>
<ellipse transform="matrix(0.6336 0.7737 -0.7737 0.6336 445.5795 168.9952)" class="st3" cx="44.4" cy="554.9" rx="3.9" ry="4.2"/>
<path class="st3" d="M37.2,565.1c0.7-0.3,1.4-0.6,2.1-0.8c0.6-1.3,0.6-2.8-0.2-4c-1.2-1.8-3.8-2.2-5.7-0.9c-1.9,1.3-2.4,3.8-1.2,5.6
	c0.6,0.8,1.4,1.3,2.3,1.5C35.3,565.9,36.2,565.5,37.2,565.1z"/>
<ellipse transform="matrix(0.5674 0.8234 -0.8234 0.5674 480.6931 223.8623)" class="st3" cx="27.3" cy="569.4" rx="3.6" ry="3.8"/>
<ellipse transform="matrix(0.8066 0.591 -0.591 0.8066 347.9969 109.5328)" class="st3" cx="6.6" cy="586.6" rx="2.6" ry="3.3"/>
<path class="st6" d="M81.5,515.5c1.1-1.5,2-2.7,2.9-4.7c0,0,0.1-0.3,0.1-0.3c-0.2-0.7-0.5-1.2-1.1-1.8c-1.6-1.6-4.2-1.7-5.8-0.1
	c-1.6,1.6-1.5,4.2,0.1,5.8C78.8,515.5,80.2,515.8,81.5,515.5z"/>
<ellipse transform="matrix(0.9185 0.3955 -0.3955 0.9185 209.3309 3.274)" class="st6" cx="96.7" cy="509.4" rx="3.6" ry="4"/>
<ellipse transform="matrix(0.883 0.4694 -0.4694 0.883 246.0279 10.6351)" class="st6" cx="101.7" cy="498.8" rx="3.1" ry="3.5"/>
<ellipse transform="matrix(0.5514 0.8342 -0.8342 0.5514 458.8154 129.4913)" class="st6" cx="109" cy="491.4" rx="2.8" ry="3.2"/>
<ellipse transform="matrix(3.100060e-02 0.9995 -0.9995 3.100060e-02 601.8409 354.9048)" class="st6" cx="117.9" cy="487.9" rx="2.9" ry="3.1"/>
<ellipse transform="matrix(-0.4164 0.9092 -0.9092 -0.4164 623.5967 576.9647)" class="st6" cx="126.6" cy="488.6" rx="2.6" ry="2.8"/>
<path class="st2" d="M119.5,485.4c-0.5-0.3-1-0.4-1.7-0.4c-0.7,0-1.3,0.2-1.8,0.6C116,485.6,117.1,485.4,119.5,485.4z"/>
<path class="st2" d="M129.3,488.1c-0.2-0.7-0.8-1.4-1.6-1.8c-0.8-0.4-1.7-0.4-2.4-0.1C125.3,486.2,127,486.8,129.3,488.1z"/>
<ellipse transform="matrix(-0.8668 0.4986 -0.4986 -0.8668 492.7563 856.0898)" class="st6" cx="132.1" cy="493.9" rx="1.8" ry="2.5"/>
<ellipse transform="matrix(-1 9.799530e-03 -9.799530e-03 -1 272.9885 999.2064)" class="st6" cx="134" cy="500.3" rx="1.3" ry="2.1"/>
<ellipse transform="matrix(0.3706 0.9288 -0.9288 0.3706 536.7786 174.2128)" class="st6" cx="139.8" cy="483.2" rx="2.2" ry="2.8"/>
<ellipse transform="matrix(0.5739 0.8189 -0.8189 0.5739 455.2112 83.2424)" class="st6" cx="147.6" cy="479.1" rx="2.3" ry="2.8"/>
<ellipse transform="matrix(0.7541 0.6568 -0.6568 0.7541 348.9004 15.3239)" class="st6" cx="154" cy="473.6" rx="2.5" ry="2.9"/>
<ellipse transform="matrix(0.8349 0.5505 -0.5505 0.8349 283.1582 -10.6657)" class="st6" cx="159.4" cy="466.6" rx="2.7" ry="2.9"/>
<ellipse transform="matrix(0.9746 0.2239 -0.2239 0.9746 106.823 -24.6574)" class="st6" cx="162.1" cy="458.7" rx="2.7" ry="2.9"/>
<ellipse transform="matrix(0.9923 0.1242 -0.1242 0.9923 57.2198 -16.8674)" class="st6" cx="163.9" cy="450.5" rx="2.7" ry="2.8"/>
<path class="st3" d="M164.3,447.7c-0.8-0.1-1.5,0.1-2,0.6c0.6,1.2,1.1,2.4,1.9,3.5c0.3,0.4,0.7,0.9,1.1,1.3c0.7-0.4,1.3-1.2,1.4-2.2
	C166.8,449.3,165.7,447.9,164.3,447.7z"/>
<ellipse transform="matrix(0.9999 1.000050e-02 -1.000050e-02 0.9999 4.4296 -1.6245)" class="st3" cx="164.7" cy="442.1" rx="2.8" ry="2.9"/>
<ellipse transform="matrix(0.9755 -0.2201 0.2201 0.9755 -91.4798 46.6548)" class="st3" cx="163.6" cy="433.9" rx="2.7" ry="2.8"/>
<ellipse transform="matrix(0.8773 -0.48 0.48 0.8773 -184.7972 129.274)" class="st3" cx="160.4" cy="426" rx="2.8" ry="2.9"/>
<ellipse transform="matrix(0.5745 -0.8185 0.8185 0.5745 -277.4362 305.2472)" class="st3" cx="154.9" cy="419.5" rx="2.8" ry="2.9"/>
<ellipse transform="matrix(0.5745 -0.8185 0.8185 0.5745 -276.4539 297.5033)" class="st3" cx="147.9" cy="414.7" rx="2.6" ry="2.9"/>
<path class="st3" d="M140.6,406.9c1-0.7,2.2-0.2,3.1,1c0.9,1.2,1,2.7,0,3.4c-1,0.7-2.5,0.3-3.3-0.9
	C139.5,409.2,139.6,407.6,140.6,406.9z"/>
<path class="st3" d="M-3.8,399.2c-0.1-0.5-0.1-0.9-0.2-1.4c-0.4-0.6-1.1-1.1-1.6-1.2c-1-0.2-1.3,0.8-1.5,2.3c-0.3,1.5-0.7,2.8,0.3,3
	c0.8,0.2,2.5-0.5,3.1-1.6C-3.7,400-3.8,399.6-3.8,399.2z"/>
<path class="st6" d="M-4.6,482.6c-0.2-0.8-0.9-1.4-1.8-1.8c-1-0.4-1.9-0.3-2.6,0.2C-7.7,481.7-6.2,482.1-4.6,482.6z"/>
<path class="st6" d="M-12.6,479.3c0.5-1.1,0.1-2.5-1.1-3.4c-1.3-0.9-2.9-0.8-3.7,0.3c-0.1,0.1-0.1,0.2-0.2,0.3
	C-15.8,477.6-14.4,478.4-12.6,479.3z"/>
<path class="st6" d="M-21.8,473.6c0.5,0.4,1.2,0.8,1.7,1.2c0.2-0.1,0.4-0.2,0.6-0.4c1-0.9,1-2.7,0-3.9c-1-1.2-2.7-1.5-3.8-0.5
	c-0.5,0.4-0.8,1.1-0.8,1.8C-23.2,472.5-22.6,473-21.8,473.6z"/>
<path class="st6" d="M-28.3,462.6c-1.3,0.9-1.6,2.7-0.7,4c0.9,1.4,2.6,1.8,3.8,0.9c1.3-0.9,1.6-2.7,0.7-4
	C-25.3,462.1-27.1,461.7-28.3,462.6z"/>
<path class="st6" d="M-30.2,454c-1.5,0.3-2.4,1.9-2,3.5c0.4,1.6,1.8,2.6,3.3,2.3c1.5-0.3,2.4-1.9,2-3.5
	C-27.2,454.6-28.7,453.6-30.2,454z"/>
<path class="st6" d="M-31.6,445.5c-1.5,0.2-2.5,1.6-2.3,3.3s1.6,2.8,3,2.6c1.5-0.2,2.5-1.6,2.3-3.3
	C-28.8,446.5-30.2,445.3-31.6,445.5z"/>
<ellipse transform="matrix(1 -9.699544e-03 9.699544e-03 1 -4.2669 -0.29)" class="st3" cx="-32" cy="439.8" rx="2.8" ry="3"/>
<path class="st3" d="M-30.4,428.4c-1.5-0.3-2.9,0.7-3.3,2.2c-0.3,1.6,0.5,3.1,2,3.5c1.5,0.3,2.9-0.7,3.3-2.2
	C-28,430.3-28.9,428.7-30.4,428.4z"/>
<path class="st3" d="M-26.4,420.5c-1.3-0.8-3-0.2-3.8,1.3c-0.8,1.5-0.3,3.2,1,4c1.3,0.8,3,0.2,3.8-1.3
	C-24.6,423.1-25.1,421.3-26.4,420.5z"/>
<path class="st3" d="M-19.9,414.7c-0.9-1.3-2.7-1.6-4-0.6c-1.3,1-1.7,2.8-0.8,4.1c0.9,1.3,2.6,1.6,4,0.6
	C-19.3,417.8-19,416-19.9,414.7z"/>
<path class="st3" d="M-12.9,409.7c-0.8-1.2-2.6-1.4-3.9-0.5s-1.7,2.7-0.9,3.9c0.8,1.2,2.6,1.4,3.9,0.5
	C-12.5,412.7-12.1,410.9-12.9,409.7z"/>
<path class="st3" d="M-8,403.4c-1-0.7-2.2-0.2-3.1,1c-0.9,1.2-1,2.7,0,3.5c1,0.7,2.5,0.3,3.3-0.9C-6.9,405.8-7,404.2-8,403.4z"/>
<ellipse transform="matrix(0.9249 0.3801 -0.3801 0.9249 226.2109 43.9767)" class="st3" cx="1.8" cy="594.8" rx="2" ry="3.1"/>
<ellipse transform="matrix(0.9881 0.1539 -0.1539 0.9881 92.762 7.3069)" class="st3" cx="-0.8" cy="602.8" rx="1.9" ry="2.8"/>
<ellipse transform="matrix(0.9985 -5.440104e-02 5.440104e-02 0.9985 -33.2378 0.8314)" class="st3" cx="-1.3" cy="610.9" rx="1.9" ry="2.8"/>
<ellipse transform="matrix(0.9816 -0.1911 0.1911 0.9816 -118.1955 11.3238)" class="st3" cx="-0.4" cy="618.5" rx="1.9" ry="2.8"/>
<ellipse transform="matrix(0.9639 -0.2664 0.2664 0.9639 -166.7378 23.0172)" class="st3" cx="1.5" cy="626.1" rx="1.9" ry="2.8"/>
<path class="st3" d="M5.5,632.7c-0.2-0.5-0.3-0.9-0.4-1.5c-0.6-0.5-1.2-0.7-1.8-0.5c-0.9,0.4-1.1,1.8-0.5,3.1
	c0.6,1.3,1.8,2.1,2.7,1.7c0.3-0.1,0.5-0.4,0.7-0.7C5.9,634.1,5.7,633.4,5.5,632.7z"/>
<path class="st3" d="M6.7,636.6c-0.1,0-0.3,0.1-0.4,0.1c-0.7,0.5-0.7,1.7-0.1,2.8c0.5,0.8,1.3,1.3,1.9,1.3
	C7.7,639.6,7.3,638.4,6.7,636.6z"/>
<ellipse transform="matrix(0.9953 9.680037e-02 -9.680037e-02 0.9953 52.1764 0.9421)" class="st6" cx="16.4" cy="538.2" rx="3.2" ry="4.2"/>
<ellipse transform="matrix(0.9999 -1.080045e-02 1.080045e-02 0.9999 -5.9371 0.1977)" class="st6" cx="15.3" cy="549.8" rx="3.2" ry="4.2"/>
<ellipse transform="matrix(0.9918 -0.1279 0.1279 0.9918 -71.6208 6.5417)" class="st6" cx="15.1" cy="561" rx="3.2" ry="4.2"/>
<ellipse transform="matrix(0.9754 -0.2205 0.2205 0.9754 -125.8198 17.8715)" class="st6" cx="17.1" cy="572.5" rx="3.1" ry="4.2"/>
<ellipse transform="matrix(0.9633 -0.2685 0.2685 0.9633 -156.0256 26.7692)" class="st6" cx="19.9" cy="583.8" rx="3.1" ry="3.9"/>
<ellipse transform="matrix(0.9633 -0.2685 0.2685 0.9633 -158.7529 28.0204)" class="st6" cx="23.1" cy="594.4" rx="2.8" ry="3.3"/>
<ellipse transform="matrix(0.9457 -0.325 0.325 0.9457 -194.8105 41.3752)" class="st6" cx="26.4" cy="603.8" rx="2.6" ry="3.3"/>
<ellipse transform="matrix(0.8801 -0.4748 0.4748 0.8801 -287.0119 87.546)" class="st6" cx="29.8" cy="612" rx="2.3" ry="2.6"/>
<ellipse transform="matrix(0.8801 -0.4748 0.4748 0.8801 -289.8179 90.2415)" class="st6" cx="33.8" cy="618.9" rx="1.9" ry="2.5"/>
<ellipse transform="matrix(0.9478 0.3189 -0.3189 0.9478 169.071 21.3704)" class="st3" cx="19.3" cy="527" rx="3.3" ry="3.8"/>
<path class="st3" d="M19.9,517.2c0.1,1.4,0.8,2.7,2,3.1c1.7,0.6,3.8-0.6,4.6-2.7c0.6-1.6,0.3-3.2-0.6-4.2
	C23.5,515,21.9,516,19.9,517.2z"/>
<path class="st3" d="M-13.4,511.7c-0.3-1.6-1.8-2.4-3.7-2.4c-2.1,0-3.8,1.5-3.8,3.4c0,0.7,0.2,1.2,0.7,1.8
	C-18,513.5-16.1,512.7-13.4,511.7z"/>
<ellipse transform="matrix(-0.1692 0.9856 -0.9856 -0.1692 471.6093 624.5007)" class="st3" cx="-27.4" cy="511" rx="3.1" ry="3.6"/>
<ellipse transform="matrix(-0.4341 0.9009 -0.9009 -0.4341 402.9809 761.6977)" class="st3" cx="-37.8" cy="507.4" rx="3.1" ry="3.8"/>
<ellipse transform="matrix(-0.364 0.9314 -0.9314 -0.364 402.0538 731.3735)" class="st3" cx="-48.7" cy="503" rx="2.5" ry="3.2"/>
<path class="st3" d="M-55.7,499.3c-1.9,0.1-3.9,0.2-5.7,0.9c-0.1,0.2-0.1,0.4-0.1,0.6c0,0.3,0.1,0.5,0.2,0.7
	c1.2,0.2,2.3,0.4,3.5,0.8c0.5,0.1,0.9,0.3,1.2,0.6c1-0.4,1.6-1.2,1.6-2.1C-55,500-55.2,499.7-55.7,499.3z"/>
<path class="st2" d="M-23.7,586.5c-0.1,1-0.2,1.8-0.4,2.6c-0.3,1.3-0.6,2.5-1.1,3.7c1.3,0.2,2.7-0.9,3.1-2.6
	C-21.8,588.6-22.5,586.9-23.7,586.5z"/>
<path class="st2" d="M-26.1,595.9c-0.2-0.2-0.4-0.4-0.7-0.5c-0.3,0.7-1.3,1.3-1.8,1.7c-1,0.7-2,1.3-3.1,1.8c0,0.4,0.2,0.7,0.4,1
	c0.9,1.1,2.7,1.1,4.2,0C-25.7,598.8-25.2,597-26.1,595.9z"/>
<path class="st2" d="M-34.9,599c-1.9,0.4-3.8,0.7-5.7,0.5c-0.1,0.2-0.2,0.4-0.2,0.6c-0.1,1.4,1.2,2.7,3,2.8c1.8,0.2,3.4-0.8,3.5-2.2
	C-34.2,600.1-34.4,599.5-34.9,599z"/>
<path class="st2" d="M-46.3,595.2c-1-0.1-1.9,0.2-2.4,0.9c-0.8,1.2-0.2,2.9,1.2,4c1.5,1,3.3,0.9,4.2-0.2c0.2-0.3,0.3-0.6,0.3-0.9
	C-44.5,598.2-45.8,597-46.3,595.2z"/>
<ellipse transform="matrix(-0.9121 0.4099 -0.4099 -0.9121 144.5822 1151.8842)" class="st2" cx="-51.2" cy="591.4" rx="1.9" ry="2.5"/>
<g id="_x32_">
</g>
<g id="_x33_">
</g>
<g id="_x34_">
</g>
<g id="_x35__1_">
</g>
<g id="_x36_">
</g>
<g id="_x37_">
</g>
<rect x="-134.8" y="406.7" class="st13" width="149.5" height="181.3"/>
<rect x="-95.3" y="425" class="st14" width="21" height="7.7"/>
<rect x="-62.3" y="426.3" class="st14" width="37.8" height="5"/>
<rect x="-95.7" y="576" class="st14" width="71.2" height="5"/>
<rect x="-135" y="406.7" class="st14" width="149.6" height="13.4"/>
<rect x="-95.3" y="484" class="st14" width="68.3" height="3.1"/>
<rect x="-95.3" y="490" class="st14" width="65" height="3.1"/>
<rect x="-95.3" y="550.4" class="st14" width="27" height="3.1"/>
<rect x="-95.3" y="556.4" class="st14" width="30.3" height="3.1"/>
<rect x="-95.3" y="562.4" class="st14" width="33.3" height="3.1"/>
<rect x="-56.7" y="550.4" class="st14" width="32.3" height="3.1"/>
<rect x="-56.7" y="556.4" class="st14" width="30.3" height="3.1"/>
<rect x="-56.7" y="562.4" class="st14" width="28.3" height="3.1"/>
<rect x="-95.3" y="496.1" class="st14" width="56" height="3.1"/>
<rect x="-95.3" y="502.7" class="st14" width="68.3" height="3.1"/>
<rect x="-95.3" y="508.7" class="st14" width="65" height="3.1"/>
<rect x="-95.3" y="514.8" class="st14" width="56" height="3.1"/>
<rect x="-95.5" y="437.7" class="st14" width="71" height="41.7"/>
<rect x="-95.5" y="523" class="st14" width="34.7" height="24"/>
<rect x="-57.2" y="523" class="st14" width="32.7" height="24"/>
<g>
	<path class="st8" d="M-48.3,416.9c3.5-7.8,4.8-16.3,11-22.7v-24.7c-15.8,1.6-18.7,5.5-22.9,14.5c-4.7,10.1-5.6,19.3-3.9,25
		c1.7,5.8,3.6,18.8-1.1,23.1C-65.1,432.1-54.1,428-48.3,416.9z"/>
</g>
<path class="st9" d="M-43.7,390.9c-8.7,12.5-5.8,32.8-20.8,40.6c-0.2,0.2-0.3,0.4-0.5,0.5c0,0,11-4.1,16.8-15.2
	c3.6-8,4.9-16.5,11.3-23c5.1-5.1,13.1-9.7,20.6-9.3c1.7,0.1,3.2,0.4,4.5,0.9c-0.5-0.4-1-0.7-1.5-1.1c0,0,0,0,0,0
	C-23.4,380.9-37,381.3-43.7,390.9z"/>
<path class="st3" d="M-45.3,380.7c-5.3-3.7-9.5-3.4-11.4-3c-0.9,1.2-1.7,2.7-2.4,4.2C-53.4,380.3-45.3,380.7-45.3,380.7z"/>
<path class="st3" d="M-60.9,385.7c-0.5,1.2-1,2.4-1.4,3.6c4.3-1.5,9.3-2.2,9.3-2.2C-56.3,385.5-59,385.4-60.9,385.7z"/>
<path class="st3" d="M-63.6,393.9c-0.3,1.1-0.5,2.1-0.6,3.2c3.5-1.8,7.6-2.9,7.6-2.9C-59.7,393.2-62.1,393.4-63.6,393.9z"/>
</svg>
