<?xml version="1.0" encoding="utf-8"?>
<!-- Generator: Adobe Illustrator 19.1.0, SVG Export Plug-In . SVG Version: 6.00 Build 0)  -->
<svg version="1.1" id="Layer_1" xmlns="http://www.w3.org/2000/svg" xmlns:xlink="http://www.w3.org/1999/xlink" x="0px" y="0px"
	 width="507.1px" height="420px" viewBox="-120.1 241 507.1 420" style="enable-background:new -120.1 241 507.1 420;"
	 xml:space="preserve">
<style type="text/css">
	.st0{fill:#FFFFFF;stroke:#E5E5E5;stroke-miterlimit:10;}
	.st1{clip-path:url(#SVGID_2_);fill:#5C5B5D;}
	.st2{fill:#747F83;}
	.st3{fill:#ED432E;}
	.st4{fill:#FFFFFF;}
	.st5{fill:#098DBA;}
	.st6{fill:#48AC64;}
	.st7{fill:#F0EFEF;}
	.st8{fill:none;stroke:#E5E5E5;stroke-miterlimit:10;}
	.st9{opacity:0.5;}
	.st10{fill:#869296;}
</style>
<path class="st0" d="M247.3,627.1c0,6.6-5.4,12-12,12H35.9c-6.6,0-12-5.4-12-12V275.7c0-6.6,5.4-12,12-12h199.4c6.6,0,12,5.4,12,12
	L247.3,627.1L247.3,627.1z"/>
<g>
	<g>
		<defs>
			<rect id="SVGID_1_" x="-2.4" y="254.7" width="290.8" height="38.3"/>
		</defs>
		<clipPath id="SVGID_2_">
			<use xlink:href="#SVGID_1_"  style="overflow:visible;"/>
		</clipPath>
		<path class="st1" d="M247.3,627.1c0,6.6-5.4,12-12,12H35.9c-6.6,0-12-5.4-12-12V275.7c0-6.6,5.4-12,12-12h199.4
			c6.6,0,12,5.4,12,12L247.3,627.1L247.3,627.1z"/>
	</g>
</g>
<g>
	<g>
		<g>
			<path class="st2" d="M48.3,466v-12h4.9c2,0,3.3,1.2,3.3,3.1c0,1.5-1,2.5-2.1,2.8c1.3,0.2,2.3,1.5,2.3,3c0,2-1.3,3.2-3.4,3.2H48.3
				z M55.5,457.2c0-1.2-0.8-2.2-2.4-2.2h-3.8v4.4h3.8C54.7,459.4,55.5,458.4,55.5,457.2z M55.7,462.7c0-1.2-0.8-2.4-2.5-2.4h-3.9
				v4.8h3.9C54.8,465.1,55.7,464.2,55.7,462.7z"/>
			<path class="st2" d="M65.2,466v-1.3c-0.7,0.8-1.9,1.5-3.1,1.5c-1.8,0-2.7-0.8-2.7-2.8v-6.1h0.9v5.9c0,1.7,0.8,2.2,2.1,2.2
				c1.1,0,2.2-0.7,2.8-1.4v-6.6h0.9v8.7H65.2L65.2,466z"/>
			<path class="st2" d="M69.2,464.4v-6.2h-1.4v-0.8h1.4V455h1v2.4H72v0.8h-1.8v6c0,0.7,0.3,1.2,0.9,1.2c0.4,0,0.8-0.2,1-0.4l0.4,0.7
				c-0.3,0.3-0.8,0.5-1.5,0.5C69.8,466.3,69.2,465.6,69.2,464.4z"/>
			<path class="st2" d="M74.2,464.4v-6.2h-1.4v-0.8h1.4V455h1v2.4h1.8v0.8h-1.8v6c0,0.7,0.3,1.2,0.9,1.2c0.4,0,0.8-0.2,1-0.4
				l0.4,0.7c-0.3,0.3-0.8,0.5-1.5,0.5C74.7,466.3,74.2,465.6,74.2,464.4z"/>
			<path class="st2" d="M78.5,461.7c0-2.5,1.6-4.6,4.2-4.6c2.6,0,4.2,2,4.2,4.6s-1.6,4.6-4.2,4.6C80.1,466.3,78.5,464.2,78.5,461.7z
				 M85.8,461.7c0-1.9-1.1-3.7-3.2-3.7c-2,0-3.2,1.8-3.2,3.7c0,1.9,1.2,3.7,3.2,3.7C84.7,465.4,85.8,463.6,85.8,461.7z"/>
			<path class="st2" d="M95.1,466v-5.9c0-1.7-0.8-2.2-2.1-2.2c-1.1,0-2.3,0.7-2.8,1.5v6.6h-0.9v-8.7h0.9v1.3
				c0.6-0.8,1.9-1.5,3.1-1.5c1.8,0,2.7,0.9,2.7,2.8v6.1L95.1,466L95.1,466z"/>
			<path class="st2" d="M98.2,464.9l0.6-0.7c0.6,0.7,1.6,1.3,2.8,1.3c1.5,0,2.3-0.8,2.3-1.8c0-2.4-5.5-1-5.5-4.2
				c0-1.3,1.1-2.4,3.1-2.4c1.5,0,2.5,0.6,3.1,1.3l-0.5,0.7c-0.5-0.7-1.4-1.2-2.6-1.2c-1.4,0-2.2,0.7-2.2,1.6c0,2.2,5.5,0.8,5.5,4.2
				c0,1.4-1.1,2.6-3.3,2.6C100.1,466.3,99.1,465.8,98.2,464.9z"/>
		</g>
		<g>
			<g>
				<path class="st3" d="M227.3,522.9c0,1.7-1.3,3-3,3h-49.8c-1.7,0-3-1.3-3-3v-11.3c0-1.7,1.3-3,3-3h49.8c1.7,0,3,1.3,3,3V522.9z"
					/>
				<rect x="186.9" y="516.2" class="st4" width="25" height="2"/>
			</g>
			<g>
				<path class="st5" d="M102.6,522.9c0,1.7-1.3,3-3,3H49.8c-1.7,0-3-1.3-3-3v-11.3c0-1.7,1.3-3,3-3h49.8c1.7,0,3,1.3,3,3V522.9z"/>
				<rect x="62.2" y="516.2" class="st4" width="25" height="2"/>
			</g>
			<g>
				<path class="st6" d="M165,522.9c0,1.7-1.3,3-3,3h-49.8c-1.7,0-3-1.3-3-3v-11.3c0-1.7,1.3-3,3-3H162c1.7,0,3,1.3,3,3V522.9z"/>
				<rect x="124.5" y="516.2" class="st4" width="25" height="2"/>
			</g>
		</g>
		<g>
			<g>
				<path class="st5" d="M91.2,498.4c0,1.3-1.1,2.4-2.4,2.4H49.2c-1.3,0-2.4-1.1-2.4-2.4v-9c0-1.3,1.1-2.4,2.4-2.4h39.6
					c1.3,0,2.4,1.1,2.4,2.4V498.4z"/>
				<rect x="56.5" y="493.3" class="st4" width="25" height="1.2"/>
			</g>
			<g>
				<path class="st7" d="M142.4,498.4c0,1.3-1.1,2.4-2.4,2.4h-39.6c-1.3,0-2.4-1.1-2.4-2.4v-9c0-1.3,1.1-2.4,2.4-2.4H140
					c1.3,0,2.4,1.1,2.4,2.4V498.4z"/>
				<rect x="107.7" y="493.3" class="st4" width="25" height="1.2"/>
			</g>
		</g>
	</g>
	<line class="st8" x1="46.8" y1="546" x2="231" y2="546"/>
	<line class="st8" x1="46.8" y1="433.9" x2="231" y2="433.9"/>
	<g>
		<g>
			<path class="st2" d="M51.7,580.8v-12h1v11.1h5.8v0.9H51.7z"/>
			<path class="st2" d="M65.9,580.8v-1c-0.8,0.8-1.7,1.2-3,1.2c-1.5,0-3-1-3-2.9c0-1.9,1.5-2.9,3-2.9c1.2,0,2.2,0.4,3,1.2v-1.8
				c0-1.3-1-2-2.3-2c-1.1,0-1.9,0.4-2.7,1.3l-0.5-0.6c0.9-1,1.9-1.5,3.3-1.5c1.8,0,3.2,0.8,3.2,2.8v6.1H65.9L65.9,580.8z
				 M65.9,579.1v-1.9c-0.6-0.8-1.6-1.2-2.6-1.2c-1.4,0-2.4,0.9-2.4,2.2c0,1.2,1,2.1,2.4,2.1C64.3,580.2,65.3,579.8,65.9,579.1z"/>
			<path class="st2" d="M69.7,580.8v-12h0.9v4.7c0.7-1,1.8-1.6,3-1.6c2.3,0,3.9,1.8,3.9,4.6c0,2.8-1.6,4.6-3.9,4.6
				c-1.3,0-2.4-0.7-3-1.6v1.4H69.7L69.7,580.8z M73.5,580.1c1.9,0,3-1.6,3-3.7c0-2.1-1.1-3.7-3-3.7c-1.2,0-2.4,0.8-2.9,1.6v4.3
				C71.2,579.4,72.3,580.1,73.5,580.1z"/>
			<path class="st2" d="M79.5,576.4c0-2.5,1.8-4.6,4.2-4.6c2.6,0,4.1,2.1,4.1,4.6v0.3h-7.3c0.1,1.9,1.4,3.5,3.4,3.5
				c1.1,0,2.1-0.4,2.8-1.2l0.5,0.6c-0.9,0.9-2,1.4-3.4,1.4C81.3,581,79.5,579.1,79.5,576.4z M83.7,572.7c-2.1,0-3.1,1.8-3.2,3.3h6.3
				C86.8,574.5,85.9,572.7,83.7,572.7z"/>
			<path class="st2" d="M90.2,580.8v-12h0.9v12H90.2z"/>
			<path class="st2" d="M93.3,579.6l0.6-0.7c0.6,0.7,1.6,1.3,2.8,1.3c1.5,0,2.3-0.8,2.3-1.8c0-2.4-5.5-1-5.5-4.2
				c0-1.3,1.1-2.4,3.1-2.4c1.5,0,2.5,0.6,3.1,1.3l-0.5,0.7c-0.5-0.7-1.4-1.2-2.6-1.2c-1.4,0-2.2,0.7-2.2,1.6c0,2.2,5.5,0.8,5.5,4.2
				c0,1.4-1.1,2.6-3.3,2.6C95.2,581,94.2,580.6,93.3,579.6z"/>
		</g>
		<g>
			<path class="st5" d="M103.5,601.6c0,3.6-2.9,6.6-6.6,6.6H58c-3.6,0-6.6-2.9-6.6-6.6l0,0c0-3.6,2.9-6.6,6.6-6.6h39
				C100.6,595,103.5,598,103.5,601.6L103.5,601.6z"/>
			<rect x="65" y="600.6" class="st4" width="25" height="2"/>
		</g>
		<g>
			<path class="st6" d="M164.5,601.3c0,3.6-2.9,6.6-6.6,6.6h-39c-3.6,0-6.6-2.9-6.6-6.6l0,0c0-3.6,2.9-6.6,6.6-6.6h39
				C161.6,594.8,164.5,597.7,164.5,601.3L164.5,601.3z"/>
			<rect x="125.9" y="600.3" class="st4" width="25" height="2"/>
		</g>
		<g>
			<path class="st3" d="M225.5,601.3c0,3.6-2.9,6.6-6.6,6.6h-39c-3.6,0-6.6-2.9-6.6-6.6l0,0c0-3.6,2.9-6.6,6.6-6.6h39
				C222.5,594.8,225.5,597.7,225.5,601.3L225.5,601.3z"/>
			<rect x="186.9" y="600.3" class="st4" width="25" height="2"/>
		</g>
	</g>
</g>
<g class="st9">
	<path class="st2" d="M71.3,360.5v-5.3c0-1.5-0.8-1.9-1.9-1.9c-1,0-2,0.6-2.5,1.3v5.8h-0.8v-10.7h0.8v4.1c0.6-0.7,1.7-1.4,2.8-1.4
		c1.6,0,2.4,0.7,2.4,2.5v5.4H71.3z"/>
	<path class="st2" d="M76.2,360.5v-9.4l-1.7,1.8l-0.6-0.6l2.4-2.5h0.8v10.7C77.1,360.5,76.2,360.5,76.2,360.5z"/>
	<path class="st2" d="M79.4,360c0-0.4,0.3-0.7,0.7-0.7s0.7,0.3,0.7,0.7c0,0.4-0.3,0.7-0.7,0.7C79.8,360.7,79.4,360.4,79.4,360z"/>
	<path class="st2" d="M90.7,360.5l-4.4-10.7h1.1l3.9,9.7l3.9-9.7h1.1l-4.4,10.7C91.8,360.5,90.7,360.5,90.7,360.5z"/>
	<path class="st2" d="M96.3,356.7c0-2.2,1.6-4.1,3.7-4.1c2.4,0,3.7,1.9,3.7,4.1v0.2h-6.5c0.1,1.7,1.2,3.1,3,3.1c1,0,1.9-0.4,2.5-1.1
		l0.4,0.5c-0.8,0.8-1.7,1.2-3,1.2C97.9,360.7,96.3,359,96.3,356.7z M100,353.3c-1.8,0-2.7,1.6-2.8,2.9h5.6
		C102.8,355,102,353.3,100,353.3z"/>
	<path class="st2" d="M105.8,360.5v-7.7h0.8v1.3c0.7-0.9,1.5-1.5,2.6-1.5v0.9c-0.1,0-0.3,0-0.4,0c-0.8,0-1.8,0.7-2.2,1.4v5.6
		L105.8,360.5L105.8,360.5z"/>
	<path class="st2" d="M110.5,362.8c0.2,0.1,0.5,0.1,0.7,0.1c0.5,0,0.9-0.2,1.2-0.9l0.6-1.4l-3.3-7.8h0.9l2.8,6.8l2.8-6.8h0.9l-4,9.4
		c-0.4,1-1.1,1.4-2,1.4c-0.3,0-0.6,0-0.8-0.1L110.5,362.8z"/>
	<path class="st2" d="M122.8,360.5v-10.7h0.8v10.7L122.8,360.5L122.8,360.5z"/>
	<path class="st2" d="M131.1,360.5v-0.9c-0.7,0.8-1.6,1.1-2.6,1.1c-1.3,0-2.7-0.9-2.7-2.6c0-1.7,1.4-2.6,2.7-2.6
		c1.1,0,2,0.4,2.6,1.1v-1.6c0-1.2-0.9-1.8-2.1-1.8c-1,0-1.7,0.3-2.4,1.1l-0.5-0.6c0.8-0.9,1.7-1.3,3-1.3c1.6,0,2.8,0.8,2.8,2.5v5.4
		C131.9,360.5,131.1,360.5,131.1,360.5z M131.1,359v-1.7c-0.5-0.7-1.4-1.1-2.3-1.1c-1.3,0-2.1,0.8-2.1,1.9c0,1.1,0.8,1.9,2.1,1.9
		C129.7,360.1,130.6,359.7,131.1,359z"/>
	<path class="st2" d="M134.5,360.5v-7.7h0.8v1.3c0.7-0.9,1.5-1.5,2.6-1.5v0.9c-0.1,0-0.3,0-0.4,0c-0.8,0-1.8,0.7-2.2,1.4v5.6
		L134.5,360.5L134.5,360.5z"/>
	<path class="st2" d="M139.6,362.5l0.5-0.7c0.7,0.8,1.4,1.1,2.6,1.1c1.4,0,2.6-0.7,2.6-2.5v-1.2c-0.5,0.8-1.5,1.5-2.7,1.5
		c-2.1,0-3.4-1.6-3.4-4c0-2.5,1.4-4.1,3.4-4.1c1.1,0,2.1,0.6,2.7,1.4v-1.2h0.8v7.7c0,2.4-1.6,3.2-3.5,3.2
		C141.4,363.7,140.5,363.4,139.6,362.5z M145.3,358.5v-3.8c-0.4-0.8-1.5-1.4-2.5-1.4c-1.7,0-2.7,1.4-2.7,3.3c0,1.9,1,3.3,2.7,3.3
		C143.8,359.9,144.9,359.3,145.3,358.5z"/>
	<path class="st2" d="M148.3,356.7c0-2.2,1.6-4.1,3.7-4.1c2.4,0,3.7,1.9,3.7,4.1v0.2h-6.5c0.1,1.7,1.2,3.1,3,3.1
		c1,0,1.9-0.4,2.5-1.1l0.4,0.5c-0.8,0.8-1.7,1.2-3,1.2C149.9,360.7,148.3,359,148.3,356.7z M152,353.3c-1.8,0-2.7,1.6-2.8,2.9h5.6
		C154.8,355,153.9,353.3,152,353.3z"/>
	<path class="st2" d="M167.2,360.5v-5.3c0-1.5-0.8-1.9-1.9-1.9c-1,0-2,0.6-2.5,1.3v5.8H162v-10.7h0.8v4.1c0.6-0.7,1.7-1.4,2.8-1.4
		c1.6,0,2.4,0.7,2.4,2.5v5.4H167.2z"/>
	<path class="st2" d="M170.2,356.7c0-2.2,1.6-4.1,3.7-4.1c2.4,0,3.7,1.9,3.7,4.1v0.2h-6.5c0.1,1.7,1.2,3.1,3,3.1
		c1,0,1.9-0.4,2.5-1.1l0.4,0.5c-0.8,0.8-1.7,1.2-3,1.2C171.8,360.7,170.2,359,170.2,356.7z M173.9,353.3c-1.8,0-2.7,1.6-2.8,2.9h5.6
		C176.7,355,175.8,353.3,173.9,353.3z"/>
	<path class="st2" d="M184.6,360.5v-0.9c-0.7,0.8-1.6,1.1-2.6,1.1c-1.3,0-2.7-0.9-2.7-2.6c0-1.7,1.4-2.6,2.7-2.6
		c1.1,0,2,0.4,2.6,1.1v-1.6c0-1.2-0.9-1.8-2.1-1.8c-1,0-1.7,0.3-2.4,1.1l-0.5-0.6c0.8-0.9,1.7-1.3,3-1.3c1.6,0,2.8,0.8,2.8,2.5v5.4
		C185.5,360.5,184.6,360.5,184.6,360.5z M184.6,359v-1.7c-0.5-0.7-1.4-1.1-2.3-1.1c-1.3,0-2.1,0.8-2.1,1.9c0,1.1,0.8,1.9,2.1,1.9
		C183.2,360.1,184.1,359.7,184.6,359z"/>
	<path class="st2" d="M193.8,360.5v-1.2c-0.5,0.8-1.5,1.4-2.7,1.4c-2.1,0-3.4-1.6-3.4-4.1c0-2.5,1.4-4.1,3.4-4.1
		c1.1,0,2.1,0.6,2.7,1.4v-4.2h0.8v10.7L193.8,360.5L193.8,360.5z M193.8,358.6v-3.8c-0.4-0.8-1.5-1.4-2.5-1.4
		c-1.7,0-2.7,1.4-2.7,3.3c0,1.9,1,3.3,2.7,3.3C192.3,360,193.3,359.3,193.8,358.6z"/>
	<path class="st2" d="M196.8,356.7c0-2.2,1.6-4.1,3.7-4.1c2.4,0,3.7,1.9,3.7,4.1v0.2h-6.5c0.1,1.7,1.2,3.1,3,3.1
		c1,0,1.9-0.4,2.5-1.1l0.4,0.5c-0.8,0.8-1.7,1.2-3,1.2C198.4,360.7,196.8,359,196.8,356.7z M200.5,353.3c-1.8,0-2.7,1.6-2.8,2.9h5.6
		C203.3,355,202.4,353.3,200.5,353.3z"/>
	<path class="st2" d="M206.3,360.5v-7.7h0.8v1.3c0.7-0.9,1.5-1.5,2.6-1.5v0.9c-0.1,0-0.3,0-0.4,0c-0.8,0-1.8,0.7-2.2,1.4v5.6
		L206.3,360.5L206.3,360.5z"/>
	<path class="st2" d="M70.4,377.5V373c0-1.3-0.6-1.6-1.6-1.6c-0.9,0-1.7,0.5-2.2,1.1v5h-0.7v-9.2h0.7v3.5c0.5-0.6,1.4-1.2,2.4-1.2
		c1.3,0,2.1,0.6,2.1,2.1v4.7H70.4z"/>
	<path class="st2" d="M73,377.5v-0.6c3.1-2.5,5.2-4.3,5.2-6.1c0-1.3-1.1-1.9-2.1-1.9c-1.1,0-2,0.5-2.5,1.2l-0.5-0.5
		c0.6-0.9,1.8-1.4,3-1.4c1.3,0,2.9,0.8,2.9,2.6c0,2-2.1,3.9-4.8,6H79v0.7C79,377.5,73,377.5,73,377.5z"/>
	<path class="st2" d="M81.1,377.1c0-0.3,0.3-0.6,0.6-0.6s0.6,0.3,0.6,0.6c0,0.3-0.3,0.6-0.6,0.6S81.1,377.4,81.1,377.1z"/>
	<path class="st2" d="M87.7,377.5v-9.2h0.8v8.4H93v0.7H87.7z"/>
	<path class="st2" d="M98.5,377.5v-0.8c-0.6,0.6-1.3,0.9-2.3,0.9c-1.1,0-2.3-0.8-2.3-2.2c0-1.4,1.2-2.2,2.3-2.2
		c0.9,0,1.7,0.3,2.3,0.9v-1.3c0-1-0.8-1.5-1.8-1.5c-0.8,0-1.5,0.3-2.1,1l-0.4-0.5c0.7-0.7,1.5-1.1,2.6-1.1c1.3,0,2.4,0.6,2.4,2.1
		v4.7L98.5,377.5L98.5,377.5z M98.5,376.2v-1.5c-0.5-0.6-1.2-0.9-2-0.9c-1.1,0-1.8,0.7-1.8,1.6c0,0.9,0.7,1.6,1.8,1.6
		C97.3,377.1,98.1,376.8,98.5,376.2z"/>
	<path class="st2" d="M101.5,377.5v-6.6h0.7v1.1c0.6-0.7,1.3-1.3,2.2-1.3v0.8c-0.1,0-0.2,0-0.4,0c-0.7,0-1.6,0.6-1.9,1.2v4.8
		L101.5,377.5L101.5,377.5z"/>
	<path class="st2" d="M105.8,379.2l0.4-0.6c0.6,0.7,1.2,0.9,2.2,0.9c1.2,0,2.3-0.6,2.3-2.1v-1.1c-0.5,0.7-1.3,1.2-2.3,1.2
		c-1.8,0-3-1.3-3-3.5c0-2.1,1.2-3.5,3-3.5c0.9,0,1.8,0.5,2.3,1.2v-1.1h0.7v6.6c0,2-1.4,2.7-3,2.7C107.3,380.2,106.6,380,105.8,379.2
		z M110.7,375.8v-3.2c-0.4-0.6-1.3-1.2-2.2-1.2c-1.5,0-2.3,1.2-2.3,2.8c0,1.6,0.9,2.8,2.3,2.8C109.4,377,110.3,376.5,110.7,375.8z"
		/>
	<path class="st2" d="M113.3,374.2c0-1.9,1.3-3.5,3.2-3.5c2,0,3.1,1.6,3.1,3.5v0.2H114c0.1,1.4,1,2.6,2.6,2.6c0.8,0,1.6-0.3,2.2-0.9
		l0.4,0.5c-0.7,0.7-1.5,1.1-2.6,1.1C114.6,377.7,113.3,376.3,113.3,374.2z M116.4,371.4c-1.6,0-2.3,1.4-2.4,2.5h4.8
		C118.8,372.8,118.1,371.4,116.4,371.4z"/>
	<path class="st2" d="M129.4,377.5V373c0-1.3-0.6-1.6-1.6-1.6c-0.9,0-1.7,0.5-2.2,1.1v5H125v-9.2h0.7v3.5c0.5-0.6,1.4-1.2,2.4-1.2
		c1.3,0,2.1,0.6,2.1,2.1v4.7H129.4z"/>
	<path class="st2" d="M132,374.2c0-1.9,1.3-3.5,3.2-3.5c2,0,3.1,1.6,3.1,3.5v0.2h-5.5c0.1,1.4,1,2.6,2.6,2.6c0.8,0,1.6-0.3,2.2-0.9
		l0.4,0.5c-0.7,0.7-1.5,1.1-2.6,1.1C133.4,377.7,132,376.3,132,374.2z M135.2,371.4c-1.6,0-2.3,1.4-2.4,2.5h4.8
		C137.6,372.8,136.8,371.4,135.2,371.4z"/>
	<path class="st2" d="M144.4,377.5v-0.8c-0.6,0.6-1.3,0.9-2.3,0.9c-1.1,0-2.3-0.8-2.3-2.2c0-1.4,1.2-2.2,2.3-2.2
		c0.9,0,1.7,0.3,2.3,0.9v-1.3c0-1-0.8-1.5-1.8-1.5c-0.8,0-1.5,0.3-2.1,1l-0.4-0.5c0.7-0.7,1.5-1.1,2.6-1.1c1.3,0,2.4,0.6,2.4,2.1
		v4.7L144.4,377.5L144.4,377.5z M144.4,376.2v-1.5c-0.5-0.6-1.2-0.9-2-0.9c-1.1,0-1.8,0.7-1.8,1.6c0,0.9,0.7,1.6,1.8,1.6
		C143.2,377.1,143.9,376.8,144.4,376.2z"/>
	<path class="st2" d="M152.2,377.5v-1.1c-0.5,0.7-1.3,1.2-2.3,1.2c-1.8,0-3-1.3-3-3.5c0-2.1,1.2-3.5,3-3.5c0.9,0,1.8,0.5,2.3,1.2
		v-3.6h0.7v9.2L152.2,377.5L152.2,377.5z M152.2,375.9v-3.3c-0.4-0.6-1.2-1.2-2.2-1.2c-1.5,0-2.3,1.2-2.3,2.8c0,1.6,0.9,2.8,2.3,2.8
		C151,377.1,151.8,376.5,152.2,375.9z"/>
	<path class="st2" d="M154.8,374.2c0-1.9,1.3-3.5,3.2-3.5c2,0,3.1,1.6,3.1,3.5v0.2h-5.5c0.1,1.4,1,2.6,2.6,2.6
		c0.8,0,1.6-0.3,2.2-0.9l0.4,0.5c-0.7,0.7-1.5,1.1-2.6,1.1C156.2,377.7,154.8,376.3,154.8,374.2z M158,371.4c-1.6,0-2.3,1.4-2.4,2.5
		h4.8C160.4,372.8,159.6,371.4,158,371.4z"/>
	<path class="st2" d="M162.9,377.5v-6.6h0.7v1.1c0.6-0.7,1.3-1.3,2.2-1.3v0.8c-0.1,0-0.2,0-0.4,0c-0.7,0-1.6,0.6-1.9,1.2v4.8
		L162.9,377.5L162.9,377.5z"/>
	<path class="st10" d="M69.5,394.5v-3.8c0-1.1-0.5-1.4-1.3-1.4c-0.7,0-1.4,0.4-1.8,1v4.2h-0.6v-7.6h0.6v2.9c0.4-0.5,1.2-1,2-1
		c1.1,0,1.7,0.5,1.7,1.8v3.9L69.5,394.5L69.5,394.5z"/>
	<path class="st10" d="M71.4,393.4l0.4-0.4c0.4,0.6,1.2,1.1,2.1,1.1c1.2,0,1.9-0.6,1.9-1.6c0-1.1-0.9-1.6-2-1.6c-0.3,0-0.6,0-0.7,0
		v-0.6c0.1,0,0.4,0,0.7,0c1,0,1.9-0.4,1.9-1.5c0-0.9-0.8-1.5-1.8-1.5c-0.9,0-1.5,0.3-2,1l-0.4-0.4c0.5-0.7,1.4-1.2,2.5-1.2
		c1.3,0,2.5,0.7,2.5,2c0,1.2-1,1.7-1.6,1.8c0.7,0.1,1.8,0.6,1.8,1.9s-0.9,2.2-2.6,2.2C72.7,394.7,71.8,394.1,71.4,393.4z"/>
	<path class="st10" d="M78,394.1c0-0.3,0.2-0.5,0.5-0.5c0.3,0,0.5,0.2,0.5,0.5c0,0.3-0.2,0.5-0.5,0.5S78,394.4,78,394.1z"/>
	<path class="st10" d="M90.1,394.5v-6.8l-2.8,6.8h-0.3l-2.8-6.8v6.8h-0.7v-7.6h1l2.6,6.4l2.6-6.4h1v7.6H90.1z"/>
	<path class="st10" d="M92.3,391.8c0-1.6,1.1-2.9,2.7-2.9c1.7,0,2.6,1.3,2.6,2.9v0.2H93c0.1,1.2,0.9,2.2,2.2,2.2
		c0.7,0,1.3-0.3,1.8-0.8l0.3,0.4c-0.5,0.6-1.2,0.9-2.2,0.9C93.5,394.7,92.3,393.5,92.3,391.8z M95,389.4c-1.3,0-2,1.1-2,2.1h4
		C97,390.5,96.4,389.4,95,389.4z"/>
	<path class="st10" d="M103.2,394.5v-0.9c-0.4,0.6-1.1,1-1.9,1c-1.5,0-2.5-1.1-2.5-2.9c0-1.8,1-2.9,2.5-2.9c0.8,0,1.5,0.4,1.9,1v-3
		h0.6v7.6H103.2z M103.2,393.1v-2.7c-0.3-0.5-1-1-1.8-1c-1.2,0-1.9,1-1.9,2.4c0,1.3,0.7,2.4,1.9,2.4
		C102.2,394.1,102.9,393.7,103.2,393.1z"/>
	<path class="st10" d="M105.5,387.7c0-0.3,0.2-0.4,0.5-0.4c0.3,0,0.5,0.2,0.5,0.4c0,0.3-0.2,0.5-0.5,0.5
		C105.7,388.1,105.5,387.9,105.5,387.7z M105.7,394.5V389h0.6v5.5H105.7z"/>
	<path class="st10" d="M111.8,394.5v-0.8c-0.4,0.5-1.2,1-2,1c-1.1,0-1.7-0.5-1.7-1.8V389h0.6v3.8c0,1.1,0.5,1.4,1.3,1.4
		c0.7,0,1.4-0.4,1.8-0.9V389h0.6v5.5H111.8L111.8,394.5z"/>
	<path class="st10" d="M120.9,394.5v-3.9c0-0.8-0.3-1.3-1.1-1.3c-0.6,0-1.3,0.4-1.6,0.9v4.2h-0.6v-3.9c0-0.8-0.3-1.3-1.1-1.3
		c-0.6,0-1.3,0.4-1.6,1v4.2h-0.6V389h0.6v0.8c0.2-0.4,1-1,1.8-1c0.9,0,1.3,0.5,1.5,1c0.3-0.5,1.1-1,1.8-1c1,0,1.5,0.6,1.5,1.7v4
		L120.9,394.5L120.9,394.5z"/>
	<path class="st10" d="M130,394.5v-3.8c0-1.1-0.5-1.4-1.3-1.4c-0.7,0-1.4,0.4-1.8,1v4.2h-0.6v-7.6h0.6v2.9c0.4-0.5,1.2-1,2-1
		c1.1,0,1.7,0.5,1.7,1.8v3.9L130,394.5L130,394.5z"/>
	<path class="st10" d="M132.2,391.8c0-1.6,1.1-2.9,2.7-2.9c1.7,0,2.6,1.3,2.6,2.9v0.2h-4.6c0.1,1.2,0.9,2.2,2.2,2.2
		c0.7,0,1.3-0.3,1.8-0.8l0.3,0.4c-0.5,0.6-1.2,0.9-2.2,0.9C133.3,394.7,132.2,393.5,132.2,391.8z M134.8,389.4c-1.3,0-2,1.1-2,2.1h4
		C136.8,390.5,136.2,389.4,134.8,389.4z"/>
	<path class="st10" d="M142.5,394.5v-0.7c-0.5,0.5-1.1,0.8-1.9,0.8c-1,0-1.9-0.7-1.9-1.8c0-1.2,1-1.8,1.9-1.8c0.8,0,1.4,0.3,1.9,0.8
		v-1.1c0-0.8-0.7-1.3-1.5-1.3c-0.7,0-1.2,0.2-1.7,0.8l-0.3-0.4c0.6-0.6,1.2-0.9,2.1-0.9c1.1,0,2,0.5,2,1.8v3.9L142.5,394.5
		L142.5,394.5z M142.5,393.4v-1.2c-0.4-0.5-1-0.8-1.7-0.8c-0.9,0-1.5,0.6-1.5,1.4c0,0.8,0.6,1.4,1.5,1.4
		C141.5,394.2,142.1,393.9,142.5,393.4z"/>
	<path class="st10" d="M149,394.5v-0.9c-0.4,0.6-1.1,1-1.9,1c-1.5,0-2.5-1.1-2.5-2.9c0-1.8,1-2.9,2.5-2.9c0.8,0,1.5,0.4,1.9,1v-3
		h0.6v7.6H149z M149,393.1v-2.7c-0.3-0.5-1-1-1.8-1c-1.2,0-1.9,1-1.9,2.4c0,1.3,0.7,2.4,1.9,2.4C147.9,394.1,148.7,393.7,149,393.1z
		"/>
	<path class="st10" d="M151.1,391.8c0-1.6,1.1-2.9,2.7-2.9c1.7,0,2.6,1.3,2.6,2.9v0.2h-4.6c0.1,1.2,0.9,2.2,2.2,2.2
		c0.7,0,1.3-0.3,1.8-0.8l0.3,0.4c-0.5,0.6-1.2,0.9-2.2,0.9C152.3,394.7,151.1,393.5,151.1,391.8z M153.8,389.4c-1.3,0-2,1.1-2,2.1h4
		C155.8,390.5,155.2,389.4,153.8,389.4z"/>
	<path class="st10" d="M157.9,394.5V389h0.6v0.9c0.5-0.6,1.1-1.1,1.9-1.1v0.7c-0.1,0-0.2,0-0.3,0c-0.6,0-1.3,0.5-1.6,1v4H157.9z"/>
	<path class="st2" d="M68.8,408.5v-3.3c0-0.9-0.5-1.2-1.2-1.2c-0.6,0-1.2,0.4-1.6,0.8v3.6h-0.5v-6.6h0.5v2.5c0.3-0.4,1-0.8,1.7-0.8
		c1,0,1.5,0.5,1.5,1.5v3.4L68.8,408.5L68.8,408.5z"/>
	<path class="st2" d="M73.6,408.5v-1.8h-3.1v-0.5l2.9-4.3h0.8v4.3h1v0.5h-1v1.8H73.6L73.6,408.5z M73.6,402.5l-2.5,3.7h2.5V402.5z"
		/>
	<path class="st2" d="M76.2,408.2c0-0.2,0.2-0.4,0.4-0.4s0.4,0.2,0.4,0.4c0,0.2-0.2,0.4-0.4,0.4C76.4,408.6,76.2,408.4,76.2,408.2z"
		/>
	<path class="st2" d="M86.7,408.5v-5.9l-2.4,5.9h-0.2l-2.4-5.9v5.9h-0.6v-6.6h0.8l2.3,5.5l2.2-5.5h0.9v6.6H86.7z"/>
	<path class="st2" d="M88.6,406.1c0-1.4,0.9-2.5,2.3-2.5c1.4,0,2.3,1.1,2.3,2.5c0,1.4-0.9,2.5-2.3,2.5
		C89.5,408.6,88.6,407.5,88.6,406.1z M92.7,406.1c0-1.1-0.6-2-1.8-2c-1.1,0-1.7,1-1.7,2c0,1.1,0.6,2.1,1.7,2.1
		C92.1,408.2,92.7,407.2,92.7,406.1z"/>
	<path class="st2" d="M98.1,408.5v-0.8c-0.3,0.5-1,0.9-1.7,0.9c-1.3,0-2.1-1-2.1-2.5c0-1.5,0.9-2.5,2.1-2.5c0.7,0,1.3,0.3,1.7,0.9
		v-2.6h0.5v6.6L98.1,408.5L98.1,408.5z M98.1,407.3V405c-0.3-0.5-0.9-0.9-1.6-0.9c-1.1,0-1.7,0.9-1.7,2.1c0,1.2,0.6,2,1.7,2
		C97.2,408.2,97.8,407.8,98.1,407.3z"/>
	<path class="st2" d="M100,406.1c0-1.4,1-2.5,2.3-2.5c1.5,0,2.3,1.1,2.3,2.5v0.1h-4c0,1,0.7,1.9,1.9,1.9c0.6,0,1.2-0.2,1.6-0.7
		l0.3,0.3c-0.5,0.5-1.1,0.8-1.9,0.8C101,408.6,100,407.6,100,406.1z M102.3,404.1c-1.1,0-1.7,1-1.7,1.8h3.5
		C104,405.1,103.5,404.1,102.3,404.1z"/>
	<path class="st2" d="M105.9,408.5v-4.8h0.5v0.8c0.4-0.5,1-0.9,1.6-0.9v0.6c-0.1,0-0.2,0-0.3,0c-0.5,0-1.1,0.4-1.4,0.9v3.5
		L105.9,408.5L105.9,408.5z"/>
	<path class="st2" d="M112,408.5V408c-0.4,0.5-1,0.7-1.6,0.7c-0.8,0-1.7-0.6-1.7-1.6c0-1,0.8-1.6,1.7-1.6c0.7,0,1.2,0.2,1.6,0.7v-1
		c0-0.7-0.6-1.1-1.3-1.1c-0.6,0-1.1,0.2-1.5,0.7l-0.3-0.4c0.5-0.5,1.1-0.8,1.8-0.8c1,0,1.7,0.5,1.7,1.5v3.4H112z M112,407.6v-1.1
		c-0.3-0.4-0.9-0.7-1.4-0.7c-0.8,0-1.3,0.5-1.3,1.2c0,0.7,0.5,1.2,1.3,1.2C111.2,408.2,111.7,408,112,407.6z"/>
	<path class="st2" d="M114.3,407.6v-3.4h-0.8v-0.5h0.8v-1.3h0.5v1.3h1v0.5h-1v3.3c0,0.4,0.2,0.7,0.5,0.7c0.2,0,0.4-0.1,0.5-0.2
		l0.2,0.4c-0.2,0.2-0.4,0.3-0.8,0.3C114.6,408.6,114.3,408.3,114.3,407.6z"/>
	<path class="st2" d="M116.6,406.1c0-1.4,1-2.5,2.3-2.5c1.5,0,2.3,1.1,2.3,2.5v0.1h-4c0,1,0.7,1.9,1.9,1.9c0.6,0,1.2-0.2,1.6-0.7
		l0.3,0.3c-0.5,0.5-1.1,0.8-1.9,0.8C117.6,408.6,116.6,407.6,116.6,406.1z M118.9,404.1c-1.1,0-1.7,1-1.7,1.8h3.5
		C120.6,405.1,120.1,404.1,118.9,404.1z"/>
	<path class="st2" d="M128.3,408.5v-3.3c0-0.9-0.5-1.2-1.2-1.2c-0.6,0-1.2,0.4-1.6,0.8v3.6h-0.5v-6.6h0.5v2.5c0.3-0.4,1-0.8,1.7-0.8
		c1,0,1.5,0.5,1.5,1.5v3.4L128.3,408.5L128.3,408.5z"/>
	<path class="st2" d="M130.2,406.1c0-1.4,1-2.5,2.3-2.5c1.5,0,2.3,1.1,2.3,2.5v0.1h-4c0,1,0.7,1.9,1.9,1.9c0.6,0,1.2-0.2,1.6-0.7
		l0.3,0.3c-0.5,0.5-1.1,0.8-1.9,0.8C131.2,408.6,130.2,407.6,130.2,406.1z M132.5,404.1c-1.1,0-1.7,1-1.7,1.8h3.5
		C134.2,405.1,133.7,404.1,132.5,404.1z"/>
	<path class="st2" d="M139.1,408.5V408c-0.4,0.5-1,0.7-1.6,0.7c-0.8,0-1.7-0.6-1.7-1.6c0-1,0.8-1.6,1.7-1.6c0.7,0,1.2,0.2,1.6,0.7
		v-1c0-0.7-0.6-1.1-1.3-1.1c-0.6,0-1.1,0.2-1.5,0.7l-0.3-0.4c0.5-0.5,1.1-0.8,1.8-0.8c1,0,1.7,0.5,1.7,1.5v3.4H139.1z M139.1,407.6
		v-1.1c-0.3-0.4-0.9-0.7-1.4-0.7c-0.8,0-1.3,0.5-1.3,1.2c0,0.7,0.5,1.2,1.3,1.2C138.2,408.2,138.8,408,139.1,407.6z"/>
	<path class="st2" d="M144.8,408.5v-0.8c-0.3,0.5-1,0.9-1.7,0.9c-1.3,0-2.1-1-2.1-2.5c0-1.5,0.9-2.5,2.1-2.5c0.7,0,1.3,0.3,1.7,0.9
		v-2.6h0.5v6.6L144.8,408.5L144.8,408.5z M144.8,407.3V405c-0.3-0.5-0.9-0.9-1.6-0.9c-1.1,0-1.7,0.9-1.7,2.1c0,1.2,0.6,2,1.7,2
		C143.8,408.2,144.5,407.8,144.8,407.3z"/>
	<path class="st2" d="M146.6,406.1c0-1.4,1-2.5,2.3-2.5c1.5,0,2.3,1.1,2.3,2.5v0.1h-4c0,1,0.7,1.9,1.9,1.9c0.6,0,1.2-0.2,1.6-0.7
		l0.3,0.3c-0.5,0.5-1.1,0.8-1.9,0.8C147.6,408.6,146.6,407.6,146.6,406.1z M148.9,404.1c-1.1,0-1.7,1-1.7,1.8h3.5
		C150.6,405.1,150.1,404.1,148.9,404.1z"/>
	<path class="st2" d="M152.5,408.5v-4.8h0.5v0.8c0.4-0.5,1-0.9,1.6-0.9v0.6c-0.1,0-0.2,0-0.3,0c-0.5,0-1.1,0.4-1.4,0.9v3.5
		L152.5,408.5L152.5,408.5z"/>
	<path class="st2" d="M67.9,422.5V420c0-0.7-0.4-0.9-0.9-0.9c-0.5,0-1,0.3-1.2,0.6v2.8h-0.4v-5.1h0.4v2c0.3-0.3,0.8-0.6,1.3-0.6
		c0.7,0,1.2,0.4,1.2,1.2v2.6L67.9,422.5L67.9,422.5z"/>
	<path class="st2" d="M69.5,421.8l0.3-0.3c0.3,0.5,0.8,0.7,1.4,0.7c0.7,0,1.3-0.5,1.3-1.2c0-0.8-0.5-1.2-1.3-1.2
		c-0.5,0-0.9,0.2-1.2,0.5l-0.3-0.1v-2.7h2.9v0.4h-2.5v2c0.3-0.2,0.7-0.5,1.2-0.5c0.9,0,1.6,0.6,1.6,1.6c0,1-0.8,1.6-1.7,1.6
		C70.4,422.6,69.8,422.3,69.5,421.8z"/>
	<path class="st2" d="M73.9,422.3c0-0.2,0.2-0.3,0.3-0.3s0.3,0.2,0.3,0.3c0,0.2-0.2,0.3-0.3,0.3S73.9,422.4,73.9,422.3z"/>
	<path class="st2" d="M77.4,421.8l0.3-0.3c0.3,0.4,0.9,0.7,1.6,0.7c1,0,1.3-0.6,1.3-1c0-1.5-3.1-0.7-3.1-2.5c0-0.8,0.7-1.4,1.7-1.4
		c0.8,0,1.3,0.3,1.7,0.7l-0.3,0.3c-0.4-0.4-0.9-0.6-1.5-0.6c-0.7,0-1.2,0.4-1.2,0.9c0,1.3,3.1,0.6,3.1,2.5c0,0.7-0.4,1.4-1.8,1.4
		C78.4,422.6,77.8,422.3,77.4,421.8z"/>
	<path class="st2" d="M86.5,422.5V420c0-0.5-0.2-0.8-0.7-0.8c-0.4,0-0.8,0.3-1.1,0.6v2.8h-0.4V420c0-0.5-0.2-0.8-0.7-0.8
		c-0.4,0-0.8,0.3-1.1,0.6v2.8h-0.4v-3.7h0.4v0.6c0.2-0.2,0.7-0.6,1.2-0.6c0.6,0,0.9,0.3,1,0.7c0.2-0.3,0.7-0.7,1.2-0.7
		c0.7,0,1,0.4,1,1.1v2.7L86.5,422.5L86.5,422.5z"/>
	<path class="st2" d="M90.4,422.5v-0.4c-0.3,0.4-0.7,0.5-1.3,0.5c-0.6,0-1.3-0.4-1.3-1.2c0-0.8,0.6-1.2,1.3-1.2
		c0.5,0,0.9,0.2,1.3,0.5V420c0-0.5-0.4-0.8-1-0.8c-0.5,0-0.8,0.2-1.2,0.5l-0.2-0.3c0.4-0.4,0.8-0.6,1.4-0.6c0.7,0,1.3,0.4,1.3,1.2
		v2.6L90.4,422.5L90.4,422.5z M90.4,421.8V421c-0.3-0.3-0.7-0.5-1.1-0.5c-0.6,0-1,0.4-1,0.9c0,0.5,0.4,0.9,1,0.9
		C89.8,422.3,90.2,422.1,90.4,421.8z"/>
	<path class="st2" d="M92.1,422.5v-5.1h0.4v5.1H92.1z"/>
	<path class="st2" d="M93.7,422.5v-5.1h0.4v5.1H93.7z"/>
	<path class="st2" d="M101,422.5v-2.4h-3.2v2.4h-0.4v-5.1h0.4v2.3h3.2v-2.3h0.4v5.1H101z"/>
	<path class="st2" d="M102.5,420.7c0-1.1,0.7-1.9,1.8-1.9c1.1,0,1.7,0.9,1.7,2v0.1h-3.1c0,0.8,0.6,1.5,1.4,1.5
		c0.5,0,0.9-0.2,1.2-0.5l0.2,0.3c-0.4,0.4-0.8,0.6-1.4,0.6C103.2,422.6,102.5,421.8,102.5,420.7z M104.2,419.1
		c-0.9,0-1.3,0.8-1.3,1.4h2.7C105.5,419.9,105.1,419.1,104.2,419.1z"/>
	<path class="st2" d="M109.3,422.5v-0.4c-0.3,0.4-0.7,0.5-1.3,0.5c-0.6,0-1.3-0.4-1.3-1.2c0-0.8,0.6-1.2,1.3-1.2
		c0.5,0,0.9,0.2,1.3,0.5V420c0-0.5-0.4-0.8-1-0.8c-0.5,0-0.8,0.2-1.2,0.5l-0.2-0.3c0.4-0.4,0.8-0.6,1.4-0.6c0.7,0,1.3,0.4,1.3,1.2
		v2.6L109.3,422.5L109.3,422.5z M109.3,421.8V421c-0.3-0.3-0.7-0.5-1.1-0.5c-0.6,0-1,0.4-1,0.9c0,0.5,0.4,0.9,1,0.9
		C108.7,422.3,109.1,422.1,109.3,421.8z"/>
	<path class="st2" d="M113.7,422.5v-0.6c-0.3,0.4-0.7,0.7-1.3,0.7c-1,0-1.6-0.7-1.6-1.9c0-1.2,0.7-1.9,1.6-1.9c0.5,0,1,0.3,1.3,0.7
		v-2h0.4v5.1H113.7z M113.7,421.6v-1.8c-0.2-0.4-0.7-0.7-1.2-0.7c-0.8,0-1.3,0.7-1.3,1.6c0,0.9,0.5,1.6,1.3,1.6
		C113,422.3,113.5,422,113.7,421.6z"/>
	<path class="st2" d="M115.1,420.7c0-1.1,0.7-1.9,1.8-1.9c1.1,0,1.7,0.9,1.7,2v0.1h-3.1c0,0.8,0.6,1.5,1.4,1.5
		c0.5,0,0.9-0.2,1.2-0.5l0.2,0.3c-0.4,0.4-0.8,0.6-1.4,0.6C115.9,422.6,115.1,421.8,115.1,420.7z M116.9,419.1
		c-0.9,0-1.3,0.8-1.3,1.4h2.7C118.2,419.9,117.8,419.1,116.9,419.1z"/>
	<path class="st2" d="M119.6,422.5v-3.7h0.4v0.6c0.3-0.4,0.7-0.7,1.2-0.7v0.4c-0.1,0-0.1,0-0.2,0c-0.4,0-0.9,0.3-1,0.7v2.7H119.6z"
		/>
</g>
<g>
	<path class="st2" d="M51.4,331v-11.1h-3.9v-0.9h8.9v0.9h-3.9V331H51.4z"/>
	<path class="st2" d="M56.8,333.5c0.2,0.1,0.5,0.1,0.8,0.1c0.6,0,1-0.2,1.3-1.1l0.7-1.5l-3.7-8.8h1l3.2,7.6l3.1-7.6h1.1l-4.5,10.6
		c-0.5,1.1-1.2,1.6-2.2,1.6c-0.3,0-0.7-0.1-0.9-0.1L56.8,333.5z"/>
	<path class="st2" d="M66.8,329.5v4.7h-0.9v-12h0.9v1.4c0.6-0.9,1.7-1.6,3-1.6c2.3,0,3.9,1.8,3.9,4.6c0,2.8-1.6,4.6-3.9,4.6
		C68.6,331.2,67.5,330.5,66.8,329.5z M72.7,326.6c0-2.1-1.1-3.7-3-3.7c-1.2,0-2.4,0.7-2.9,1.5v4.3c0.5,0.8,1.7,1.6,2.9,1.6
		C71.6,330.3,72.7,328.7,72.7,326.6z"/>
	<path class="st2" d="M75.6,326.6c0-2.5,1.6-4.6,4.2-4.6c2.6,0,4.2,2,4.2,4.6s-1.6,4.6-4.2,4.6C77.2,331.2,75.6,329.1,75.6,326.6z
		 M82.9,326.6c0-1.9-1.1-3.7-3.2-3.7c-2,0-3.2,1.8-3.2,3.7c0,1.9,1.2,3.7,3.2,3.7C81.8,330.3,82.9,328.5,82.9,326.6z"/>
	<path class="st2" d="M86.4,333.2l0.5-0.8c0.8,0.9,1.6,1.2,2.9,1.2c1.6,0,3-0.8,3-2.8v-1.4c-0.6,0.9-1.7,1.6-3,1.6
		c-2.3,0-3.9-1.7-3.9-4.5c0-2.8,1.6-4.6,3.9-4.6c1.2,0,2.3,0.6,3,1.6v-1.4h1v8.6c0,2.6-1.8,3.6-3.9,3.6
		C88.3,334.5,87.4,334.2,86.4,333.2z M92.7,328.7v-4.2c-0.5-0.8-1.7-1.6-2.9-1.6c-1.9,0-3,1.6-3,3.7s1.1,3.7,3,3.7
		C91.1,330.3,92.2,329.5,92.7,328.7z"/>
	<path class="st2" d="M96.6,331v-8.7h0.9v1.5c0.7-1,1.7-1.7,2.9-1.7v1c-0.2,0-0.3,0-0.5,0c-0.9,0-2.1,0.8-2.5,1.5v6.3H96.6z"/>
	<path class="st2" d="M107.8,331v-1c-0.8,0.8-1.7,1.2-3,1.2c-1.5,0-3-1-3-2.9c0-1.9,1.5-2.9,3-2.9c1.2,0,2.2,0.4,3,1.2v-1.8
		c0-1.3-1-2-2.3-2c-1.1,0-1.9,0.4-2.7,1.3l-0.5-0.6c0.9-1,1.9-1.5,3.3-1.5c1.8,0,3.2,0.8,3.2,2.8v6.1C108.8,331,107.8,331,107.8,331
		z M107.8,329.2v-1.9c-0.6-0.8-1.6-1.2-2.6-1.2c-1.4,0-2.4,0.9-2.4,2.2c0,1.2,1,2.1,2.4,2.1C106.2,330.4,107.2,330,107.8,329.2z"/>
	<path class="st2" d="M112.6,329.5v4.7h-0.9v-12h0.9v1.4c0.6-0.9,1.7-1.6,3-1.6c2.3,0,3.9,1.8,3.9,4.6c0,2.8-1.6,4.6-3.9,4.6
		C114.4,331.2,113.3,330.5,112.6,329.5z M118.5,326.6c0-2.1-1.1-3.7-3-3.7c-1.2,0-2.4,0.7-2.9,1.5v4.3c0.5,0.8,1.7,1.6,2.9,1.6
		C117.4,330.3,118.5,328.7,118.5,326.6z"/>
	<path class="st2" d="M127.8,331V325c0-1.7-0.8-2.1-2.1-2.1c-1.1,0-2.3,0.7-2.8,1.5v6.6h-0.9v-12h0.9v4.6c0.6-0.8,1.9-1.5,3.1-1.5
		c1.8,0,2.7,0.8,2.7,2.8v6.1L127.8,331L127.8,331z"/>
	<path class="st2" d="M131.2,333.5c0.2,0.1,0.5,0.1,0.8,0.1c0.6,0,1-0.2,1.3-1.1l0.7-1.5l-3.7-8.8h1l3.2,7.6l3.1-7.6h1.1l-4.5,10.6
		c-0.5,1.1-1.2,1.6-2.2,1.6c-0.3,0-0.7-0.1-0.9-0.1L131.2,333.5z"/>
</g>
<g>
	<rect x="38.4" y="277.9" class="st4" width="14.9" height="2.2"/>
	<rect x="38.4" y="283.3" class="st4" width="14.9" height="2.2"/>
	<rect x="38.4" y="272.6" class="st4" width="14.9" height="2.2"/>
</g>
</svg>
