<?xml version="1.0" encoding="utf-8"?>
<!-- Generator: Adobe Illustrator 19.1.0, SVG Export Plug-In . SVG Version: 6.00 Build 0)  -->
<svg version="1.1" id="Layer_1" xmlns="http://www.w3.org/2000/svg" xmlns:xlink="http://www.w3.org/1999/xlink" x="0px" y="0px"
	 width="492px" height="474px" viewBox="-337 207 492 474" style="enable-background:new -337 207 492 474;" xml:space="preserve">
<style type="text/css">
	.st0{display:none;}
	.st1{display:inline;fill:#012B31;}
	.st2{fill:#E9BAA9;}
	.st3{fill:#DFA696;}
	.st4{fill:#E8A2B0;}
	.st5{fill:#DD90A2;}
	.st6{fill:#FFC2D6;}
	.st7{fill:#CC7691;}
	.st8{fill:#B75978;}
	.st9{fill:#FFFFFF;}
	.st10{fill:#3A3A3A;}
	.st11{fill:none;}
	.st12{fill:#FECDC5;}
	.st13{fill:#EFEFEF;}
	.st14{opacity:0.1;enable-background:new    ;}
</style>
<g id="Bg" class="st0">
	<polygon class="st1" points="183,558 120,558 -460,558 -460,1150 -140,1150 -140,1258 183,1258 183,908 759,908 759,558 	"/>
</g>
<g id="_x31_">
	<path class="st2" d="M-191.9,382.5c0,0,5.4,4,7.2,9.2c1.7,5.1,0.8,13.4-7.8,18.4c-4.7,2.6-17,6.4-21.2,20.5
		c-4.2,14.2-4.8,37.4,4,50c8.9,12.6,38,29.7,62.1,21.2c0,0-38.9,1.7-50.1-25.2s-5.4-37.5,0.3-46.1c5.8-8.6,21.8-14,22.6-21.8
		S-180,380.7-191.9,382.5"/>
	<path class="st3" d="M-193.3,382.4c0,0,6.7,4.2,8.4,9.3c1.7,5.1,0.8,13.4-7.8,18.4c-4.7,2.6-17,6.4-21.2,20.5
		c-2.3,7.8-3.6,18.4-2.6,28.3c0.9-2.8,1.9-5.4,3.1-8.1c3.1-6.4,7.5-13.7,13.7-17.7c0.2-0.2,0.3-0.2,0.5-0.2c0.6-0.9,1.1-1.7,1.7-2.5
		c5.9-8.6,21.8-14,22.6-21.8S-181.3,380.5-193.3,382.4z"/>
	<path class="st2" d="M3,390.8c0,0-6.5,4.4-6.5,9.5c0,5.1,7.5,12.3,15.4,15.9s21.2,18.1,19.3,40.5s-10.3,44.5-40.6,50.1
		c0,0,12.3,26.6-10.6,31.4c0,0,11-11.7,5-20.4s-19.5-7.6-31.4,4.7l-10.7-9.2c0,0,15.4-14.2,42.6-19c27.2-4.8,33.9-25.5,31.3-40.6
		s-7.5-22.1-19.5-29.3S-12.6,388.4,3,390.8z"/>
	<path class="st3" d="M-13.3,511.1c4.7,5.4,5.8,13.5,4,20.7c5-7.2,2.2-17.6,0.6-22.4c-5.9-6.7-15.1-10.1-24.3-10
		c-8.4,3.3-14.8,7-18.8,9.8c0.2,0.2,0.2,0.2,0.3,0.3C-39.8,505.5-22.7,499.9-13.3,511.1z"/>
	<path class="st3" d="M-2.8,424.5c6.2,3.6,10.4,7.2,13.5,12c0.2,0,0.3,0,0.6,0.2c11,7.2,7.9,24.6,18.2,31c0.8-3.6,1.2-7.3,1.6-10.9
		C33,434.3,20,420,11.9,416.3c-8.1-3.7-15.4-10.7-15.4-15.9c0-5.1,6.5-9.5,6.5-9.5C-12.6,388.4-14.9,417.5-2.8,424.5z"/>
	<path class="st2" d="M-253.5,523.5c0,0,9-0.8,22.3,7.8s19.1,11.7,39.2,10.6c20.1-1.1,23.7-12,22.3-12.1c-1.2-0.3-28.8,1.1-41.6-5
		C-223.9,518.9-238.9,516.7-253.5,523.5"/>
	<path class="st3" d="M-250.5,523.5c11.4-3.3,19.6,2.5,31.3,9.3c6.7,3.9,13.4,5.6,24.1,5.9c6.1,0.2,12.9-0.9,19-0.8
		c6.2-3.6,7.5-8.1,6.7-8.2c-1.2-0.3-28.8,1.1-41.6-5c-12.8-5.9-27.7-8.1-42.3-1.2C-253.5,523.5-252.4,523.4-250.5,523.5z"/>
	<path class="st4" d="M-196.8,613.9c-1.7-7.5-8.1-9.2-10.4-8.2c1.6,2.6,3,5.3,4,7.9c1.7,3.3,2,7.3,1.1,14.9
		c-0.2,0.9-0.3,1.2-0.5,2.2c-0.6,2.2-1.7,4-3.1,5.8c-2,2.3-4.5,4.7-7.6,5.3c-2.3,0.5-4.7,0.8-7,0.6c-5-0.3-7.3-2.5-9-5.6
		c-1.1-1.4-1.9-3-2.3-4.8c-1.2-2.6-2.2-5.3-5.1-4.7c-1.2,0.3-1.9,0.8-2.5,1.6c-0.5,1.7-0.6,3.4-0.6,5.1c0.2,0.8,0.3,1.2,0.3,1.2
		c7.3,19.1,26.9,17.4,37.8,10.9C-191.2,639.9-194.3,625.2-196.8,613.9z"/>
	<path class="st5" d="M-196.8,613.9c-1.7-7.5-8.1-9.2-10.4-8.2c1.6,2.6,3,5.3,4,7.9c0.9,1.9,1.6,3.9,1.6,6.7
		c2.3,8.1-1.2,18.5-9.3,21.5c-5.8,2.2-12,2.3-17.3-1.2c-4.7-3.1-8.6-7.5-9.8-12.9c-0.6,0.3-0.9,0.6-1.2,1.1
		c-0.5,1.7-0.6,3.4-0.6,5.1c0.2,0.8,0.3,1.2,0.3,1.2c7.3,19.1,26.9,17.4,37.8,10.9S-194.3,625.2-196.8,613.9z"/>
	<path class="st2" d="M-130.7,266c0,0-23.3-10.4-33.1,6.7s-2,32.7-16,36.9c0,0,21.8,10.9,43.6-2C-114.7,294.4-130.7,266-130.7,266z"
		/>
	<path class="st3" d="M-130.7,266c0,0-3.4-1.6-8.2-2.5c-4.7,8.1-6.7,19-6.8,27.7c0,6.4,0.8,13.4,2.5,19.6c2.3-0.9,4.7-2,6.8-3.4
		C-114.7,294.4-130.7,266-130.7,266z"/>
	<path class="st2" d="M-5.9,401.5c1.2-0.2,1.6,0.9,1.9,2.8c0.3,1.7,0.8,3.3-0.3,3.6c-1.2,0.2-3.7-0.8-4-2.5
		C-8.8,403.5-7.1,401.8-5.9,401.5z"/>
	<ellipse transform="matrix(0.728 0.6856 -0.6856 0.728 363.2904 156.7899)" class="st6" cx="-15.9" cy="536.2" rx="1.2" ry="2.6"/>
	<path class="st7" d="M-31.9,550.1L-31.9,550.1c-0.6-2.5-1.4-5.1-2-7.8c-2.8-10.4-11.8-21.2-19.6-28.9c1.1-1.4,2.3-2.6,3.6-3.4
		c8.6-5.8,28-13.7,36.6-2.6s4.7,25.4-4.7,29.1c-5,2.3-7,5.1-5.4,6.5c1.6,1.2,8.9,0.5,15.3-6.7c6.5-7.3,10-19.9-0.8-32.2
		c-1.7-2-2.3-3-4.7-4.4c9.2-2,26.1-11.5,30.8-29.4c4.5-20.5,3-27.1-1.1-34.1c-1.4-3.6-4.4-5.8-5.4-6.4C-4,422.4-6.2,416-5.4,410.1
		c0-0.9,0-1.7,0.2-2.8c0.6-3.3,1.4-7.2,3.3-10.3c1.9-4.5,5.8-6.5,11.8-6.8c9-0.5,18.8,5,24.9,11.2c7.8,7.8,9.3,18.2,13.7,27.9
		c7.2,13.5,20.4,18.5,20.4,18.5c-5.8-5.1-3.4-21-1.2-28c2.2-7,1.1-18.2-4.7-30.3s-9.3-16.7-35.3-18.2s-30,6.5-35.3,20.7
		c-5.1,14.3-7.8,28.5,4.7,35.5c4,2.3,8.9,6.7,11.7,9.3c5.9,7.6,7,20.2,2.5,32.4c-4.7,12.5-19.5,23.7-39.2,23
		c-19.8-0.5-34.7-10.6-37.7-23c-2.5-11,0.6-33.1,1.4-37.8c6.4-6.2,7.8-14.5,6.5-21.8c0.3,0,0.8,0.2,1.1,0.2c4,0,7.3-3.3,7.3-7.3
		c0-4-3.3-7.3-7.3-7.3c-2.2,0-4.2,1.1-5.6,2.6c0.2-6.4,0.3-17.3,0.5-23.2c4-0.8,6.7-1.2,6.7-1.2s7.5-10.9-2.8-16.3
		c0,0,5.9-19-13.7-40.2c-16-17.9-15.1-29.1-15.1-29.1s17.1-3.4,25.4-17.1s10.9-27.5-5.1-40.2c-16-12.8-27.2-6.2-40.9,1.9
		s-38.9,32.7-31.1,84.8c3.9,22.6,7,32.4,9.6,38.4c0,0-13.7,6.5-6.5,19.1c1.2,2.3,4.7,3.7,9.3,4.5l-0.5,22.7
		c-1.4-1.6-3.4-2.6-5.6-2.6c-4.2,0-7.5,3.4-7.5,7.5s3.4,7.5,7.5,7.5c0.5,0,0.8,0,1.2-0.2c0,2.8,0.6,8.1,3.7,13.2
		c0.3,6.4,1.1,32.1-6.5,41.7c-8.9,10.9-26.8,27.5-45.9,16.8c-19.1-10.6-20.7-20.5-19.8-36.6c1.1-16,6.5-22.9,19-29.9
		c12.5-7,9.8-21.3,4.7-35.5c-5.1-14.3-9.3-22.3-35.3-20.7s-29.6,5.9-35.3,18.2c-5.8,12.1-6.7,23.3-4.7,30.3c2,7,4.4,22.9-1.2,28
		c0,0,13.2-5,20.4-18.4c4.4-9.6,5.9-20.1,13.7-27.9c6.2-6.2,15.9-11.8,24.9-11.2c6.1,0.3,10,2.5,11.8,6.8c1.9,3.1,2.8,7,3.3,10.3
		c0.2,0.9,0.2,1.9,0.2,2.8c0.8,5.9-1.4,12.3-16,19.8c-16.3,8.2-13.5,42.8-11.2,48.7c2.3,5.9,25.2,48.2,66.5,26.5
		c0,0-8.2,10.6-17.7,19c-4.7,5.4-12.1,8.1-19,9c-4.5,0.6-8.6,1.1-12.6,0.8c-3.4,0.2-7,0-10.4-0.5c-9.8-1.4-17.6-5.3-26.5-9.5
		c-10.9-5.1-23.3-3.9-34.6-0.8c-5.1,1.4-10,3.3-13.5,7.6c-2,2.5-3.3,5.3-3.9,8.2c-0.2,1.9-0.3,4-0.2,6.4
		c1.1,18.4,8.1,22.9,20.2,25.2s16.7-3.6,18.7-8.2c2-4.7-2.3-7.8-7.3-3.9c0,0,0,0-0.2,0c-2.5,1.9-5,3-7.5,2.8c-0.8,0.2-1.6,0.2-2.3,0
		c-4.2-0.6-7.6-3.9-9.5-7.5c-4.7-8.9-1.4-18.2,8.1-20.7c0.5-0.2,0.9-0.3,1.4-0.5c14-4.4,22.1-5,43.6,2.8c14.3,5.8,36.6,3.9,36.6,3.9
		l0,0c-0.3,0.2-0.8,0.3-1.1,0.5c0,0-19.9,5.9-35.3,14.6c-0.2,0.2-0.3,0.2-0.5,0.3c-3,2.5-5.4,5.4-7.6,8.6c-1.2,2.8-2.2,5.8-2.6,8.9
		c-1.2,8.4,1.4,17.6,5,25.2c3.4,7.2,9.2,14.2,12.6,21.3c3.9,6.4,6.2,11.5,6.2,17.4c0,8.9-4.2,18.2-13.9,20.1
		c-11.7,2.2-22.1-1.1-27.9-15.3c-0.2,1.6,0,3.1,0.2,4.7c0.9,4.4,3.4,10.3,10.7,13.1c11.5,4.7,21.5,4.7,30.5-3.3
		c6.7-5.8,7.9-12.9,8.1-16.5c0.6-4.2,0.6-8.6,0.3-12.5c-0.6-7.6-3-14-7-20.4c-2.6-4.2-6.5-8.1-8.6-12.8c-2.2-3.1-3.4-6.5-3-11
		c1.6-12.5,15.1-12.1,24.6-15.9c9.6-3.6,41.7-15.6,50.9-28.8c0,0,0.5,16.7,19,24.9c18.4,8.2,35.5,1.9,43.1-8.2
		c3.3-4.4,6.1-10.6,8.9-16.7c3.4,3,6.8,6.1,9.8,9.6 M-91.9,552.2c-19.6,3.1-25.5-10.7-24.1-24.3c1.4-13.5,23.3-30.2,30.5-38
		c0,0-2.2,23.2,17.9,35.5C-67.7,525.4-72.3,549.1-91.9,552.2z M-57.9,509.4c-4.7-4.4-8.4-7.2-9.2-7.8c2.3,1.4,4.7,2.3,7.2,2.8
		c1.9,0.3,4.2,0.5,7.9,0c-0.5,0.5-2.5,1.2-3,1.7C-56,507.2-57.1,508.3-57.9,509.4z"/>
	<path class="st8" d="M-55.5,528.7c-0.6,1.9-1.2,3.7-1.9,5.6c1.7,1.6,3.3,3.3,4.7,5c3.4,4.2,5.6,6.7,7.5,11.4
		c1.4-4.4,2.2-6.5,3-11.2c0.5-3.1,1.9-5.8,3-8.6c-3.1-5.1-7.2-10-11.2-14.2C-52.7,520.4-54.1,524.6-55.5,528.7z"/>
	
		<ellipse transform="matrix(-9.000747e-02 -0.9959 0.9959 -9.000747e-02 -513.4963 300.8037)" class="st9" cx="-119.3" cy="385" rx="17.3" ry="18.2"/>
	
		<ellipse transform="matrix(0.1161 -0.9932 0.9932 0.1161 -445.2524 270.2848)" class="st9" cx="-70.8" cy="385.3" rx="16.8" ry="17.7"/>
	<path class="st10" d="M-111.4,383.3c-0.8,2.5-3.3,4.4-6.1,4.4c-3.3,0-5.9-2.3-6.2-5.4c-3.3,1.7-5.4,5-5.4,8.6c0,5.4,4.8,10,10.7,10
		c5.9,0,10.7-4.4,10.7-10C-107.7,387.8-109.1,385.2-111.4,383.3z"/>
	<path class="st10" d="M-64.9,380c-0.2,3-2.2,5.4-5.3,6.2c-3.4,0.8-6.8-0.9-8.1-4.2c-3,2.6-4.5,6.7-3.6,10.6c1.4,5.8,7.8,9.2,14,7.6
		c6.4-1.6,10.3-7.6,8.9-13.4C-59.6,383.8-61.9,381.3-64.9,380z"/>
	<path class="st10" d="M-46.3,373.2c0,0-2.8,3.9-7.3,2.5c-0.2-0.3-0.5-0.8-0.6-1.1c1.1-0.5,4-2.2,4-7c0,0-1.6,4.5-6.4,4.4
		c-0.3-0.3-0.6-0.6-0.9-0.9c0.9-0.6,3.7-2.8,2.5-7.8c0,0-0.8,4.8-5.6,5.6c-2.3-1.4-5-2.3-7.9-2.6c-6.8-0.8-13.2,1.7-17.3,6.4
		c-7.6-3.7-15.4-0.9-17.7,0c-4-4.5-10.1-7-16.8-6.4c-3.1,0.3-5.9,1.2-8.4,2.6c-5-0.6-5.8-5.6-5.8-5.6c-1.1,5,1.9,7.3,2.6,7.8
		c-0.3,0.3-0.6,0.5-0.9,0.8c-4.8,0.2-6.5-4.4-6.5-4.4c0,5.1,3.1,6.7,4.2,7.2c-0.2,0.3-0.5,0.6-0.6,0.9c-4.7,1.6-7.5-2.5-7.5-2.5
		c1.2,5.1,5,5.8,5.9,5.8c-0.9,2.5-1.2,5-1.1,7.8c0.9,10.3,10.6,17.9,21.5,17s19-10.1,18.1-20.5c-0.3-2.8-1.2-5.4-2.6-7.8
		c8.1-2.3,12.1-0.5,13.4,0.3c-1.2,2-2,4.4-2.3,6.8c-1.2,10.3,6.7,19.8,17.4,21c10.9,1.2,20.7-6.1,21.8-16.3c0.3-3,0-5.8-0.9-8.2
		C-51.2,378.8-47.6,378-46.3,373.2z M-117.5,399.3c-8.1,0.8-15.3-5.4-15.9-13.1c-0.6-7.6,5.3-14.5,13.4-15.3s15.3,5,15.9,12.6
		C-103.5,391.2-109.4,398.7-117.5,399.3z M-56.3,386.7c-0.9,7.6-8.2,13.5-16.3,12.6s-13.9-8.4-12.9-16c0.9-7.6,8.2-13.1,16.2-12.1
		C-61.1,372.1-55.4,378.9-56.3,386.7z"/>
	<path class="st8" d="M-188.9,492.4c0,0,40.8,22.6,66.5-23.8l-16.5,29.4C-138.9,498-163.5,514-188.9,492.4z"/>
	<path class="st8" d="M-106.1,480.4c-0.9,0.9-1.7,1.9-2.6,2.8c-2.5,3.3-5,6.5-7.9,9.5c-2,2-3.9,4-5.8,6.1c-1.7,2.2-3.3,4.4-4.7,6.7
		c-4.5,7-6.7,15.4-11.4,20.4c-4,4.4-9.3,8.1-14.8,10.6c-6.2,4.2-13.9,8.1-23,11.5c-17.1,6.5-26.6,8.1-32.5,16.2
		c-3.4,7.9,0.3,16.7,0.3,16.7c-1.2-16.8,17.3-17.7,29.3-23.3c42.6-17.3,45.8-27.1,45.8-27.1c0-15.6,10.4-29.6,18.8-38.1
		c4.2-4.2,8.2-9.8,11.2-14.3C-104.4,478.9-105.5,479.6-106.1,480.4z"/>
	<path class="st8" d="M-171.8,524.6c-5.3,3.1-10.1,5-16,6.4c-0.6,0.2-1.1,0.3-1.7,0.5c8.4,0.2,14.5-0.3,14.5-0.3s9.8-4.4,15.4-11.8
		C-163.2,522.1-167.6,523.7-171.8,524.6z"/>
	<path class="st8" d="M-239.3,549.1L-239.3,549.1c1.1,0.9,1.2,2.3-0.3,4c-0.9,1.1-1.9,1.9-3.1,2.8c-0.6,0.5-1.2,0.9-2,1.4
		c-6.5,4.8-16,3.9-22.3-0.5c-8.4-5.9-11.4-17.1-9.8-27.1c-0.2,0.6-0.3,1.2-0.5,2c-3.3,21.2,6.1,26.9,15.7,30.5
		c10.6,3.7,16.8,0.8,21.9-5S-239.3,549.1-239.3,549.1z"/>
	<path class="st8" d="M-66.1,522c-12.8-7.9-18.2-20.1-18.2-20.1c1.1,8.6,4.5,14.6,16.7,24.4C-67.2,524.8-66.7,523.4-66.1,522z"/>
	<path class="st8" d="M-60.2,525.4c-0.8,1.6-1.6,3.3-2.5,4.8"/>
	<path class="st8" d="M4.4,488.8c-3.7,3-8.6,5.4-13.2,6.4c-5.8,1.2-11.7,0.5-17.4,0.2c-0.9,0-1.7,0.2-2.6,0.2
		c-3.7,0.5-7.3,1.1-10.9,2.2c-4.2,1.2-8.6,1.4-12.8,0c-4-1.4-8.1-3.3-11.2-6.2c-3-2.6-4.4-5.8-6.4-9.2c-0.3,4.7-1.2,15.1,3.7,19.9
		c0,0,7.9,3.9,14.2,2.5c0,0,21.8-14.8,39.1-4.8c0,0,21.8-4.4,29.9-27.5C13.4,478.4,9.8,484.5,4.4,488.8z"/>
	<path class="st8" d="M-107.3,429.1c0,0,13.1,6.1,28.2,0.6C-79,429.5-88.4,444-107.3,429.1z"/>
	<path class="st8" d="M-114,350.3c-5.1-0.8-10.7,0.3-15.9,2.5l1.1,2.8c0,0,16.3-3.1,24.9,1.1C-103.9,356.7-106.3,352.6-114,350.3z"
		/>
	<path class="st8" d="M-83.4,354.8c-1.9,1.4-2.3,2.6-2.3,2.6c15.7-6.1,27.9-0.3,27.9-0.3c0.5-0.9,0.6-3,0.6-4.4
		C-65.3,349.2-75.4,350.2-83.4,354.8z"/>
	<path class="st2" d="M-38.4,510.6c-3,1.9-5,2.8-6.4,3.4c-0.8-2.8-2.5-5.3-6.1-3.4c-6.8,3.4-16.3,28.9-16.3,28.9s-7.2,28.3-0.6,25.2
		c6.5-3.1,14.9-10.7,17-21.6c0.9-5.4,2.6-11.2,4-15.7c1.9-4,5.9-11,13.1-14c10-4,10-4,10-4S-30.5,505.5-38.4,510.6z"/>
	<path class="st8" d="M-226.3,390c-10.4,15.1-7,39.7-25.2,49.2c-0.2,0.2-0.3,0.5-0.6,0.6c0,0,13.2-5,20.4-18.4
		c4.4-9.6,5.9-20.1,13.7-27.9c6.2-6.2,15.9-11.8,24.9-11.2c2,0.2,3.9,0.5,5.4,1.1c-0.6-0.5-1.2-0.9-1.9-1.2l0,0
		C-201.7,378-218.3,378.5-226.3,390z"/>
	<path class="st8" d="M42.8,399.6c-7-7.6-20.1-11.2-31.6-9.5c8.7,0,17.7,5.3,23.7,11.2c7.8,7.8,9.3,18.2,13.7,27.9
		c3.7,7.2,9.2,11.8,13.5,14.6c-4.2-4.5-7-10.3-8.9-16.3c-1.6-5-2.8-10.1-4.4-15.3C47.4,408,46,403.1,42.8,399.6z"/>
	<path class="st11" d="M-59.9,504.2c-2.5-0.5-4.8-1.4-7.2-2.8c0.8,0.6,4.5,3.4,9.2,7.8c0.9-1.1,1.9-2.3,2.8-3.3
		c0.5-0.5,2.5-1.2,3-1.7C-55.7,504.7-58,504.5-59.9,504.2z"/>
	<path class="st11" d="M-85.6,489.9c-7.2,7.8-29.3,24.3-30.5,38s4.5,27.4,24.1,24.3c19.6-3.1,24.3-26.8,24.3-26.8
		C-87.6,513.1-85.6,489.9-85.6,489.9z"/>
	<path class="st2" d="M-82.3,331.3c0,0-11.7-11.2-29.7-5.9c-16.2,4.7-14.9,18.1-14.9,18.1S-118.2,327.6-82.3,331.3z"/>
	<path class="st2" d="M-98.8,304.7c0,0-10.7-10-25.2-4.4c-12.3,4.8-8.6,17.3-8.6,17.3S-125.2,300.3-98.8,304.7z"/>
	<path class="st2" d="M-106.7,284.5c0,0-8.7-10-23.3-5.3c-10,3.1-7.6,14.2-7.6,14.2C-137.1,293.7-130.8,281.2-106.7,284.5z"/>
	<path class="st2" d="M-110.3,265.6c0,0-7.3-8.1-22.3-4.4c-0.9,2-1.9,4.2-2.6,6.5C-125.2,263.5-110.3,265.6-110.3,265.6z"/>
	<path class="st2" d="M-111.2,248.1c0,0-1.6-6.4-7.6-6.7c-1.2,1.2-2.6,2.8-3.9,4.4C-115.4,245.7-111.2,248.1-111.2,248.1z"/>
	<path class="st2" d="M-66.9,260.4c0,0,5.9,0.9,10.6,0.2c1.2-3.9,1.9-7.6,1.6-11.5C-55.7,251.9-59.1,259.7-66.9,260.4z"/>
	<path class="st2" d="M-78.6,270.8c0,0,3.4,6.2,9.3,8.9c2.5-1.9,4.8-4.2,6.8-7C-64.2,273.1-71.7,274.8-78.6,270.8z"/>
	<path class="st8" d="M-86.6,288.1c0,0-2.3-28.3,4.8-36.6c0,0-6.2,15.9,4.7,33C-77.2,284.6-81.2,286.7-86.6,288.1z"/>
	<path class="st11" d="M-59.9,504.2c-2.5-0.5-4.8-1.4-7.2-2.8c0.8,0.6,4.5,3.4,9.2,7.8c0.9-1.1,1.9-2.3,2.8-3.3
		c0.5-0.5,2.5-1.2,3-1.7C-55.7,504.7-58,504.5-59.9,504.2z"/>
	<path class="st2" d="M-228.3,377.7c-6.4-4.5-11.5-4.2-13.9-3.6c-1.1,1.6-2,3.3-3,5.1C-238.1,377.2-228.3,377.7-228.3,377.7z"/>
	<path class="st2" d="M-247.1,383.8c-0.6,1.4-1.2,3-1.7,4.4c5.3-1.9,11.4-2.6,11.4-2.6C-241.7,383.6-244.9,383.5-247.1,383.8z"/>
	<path class="st2" d="M-250.5,393.7c-0.3,1.2-0.6,2.6-0.8,3.9c4.2-2.2,9.2-3.6,9.2-3.6C-245.7,392.8-248.7,393.1-250.5,393.7z"/>
	<path class="st2" d="M45,385.5c6.4-4.5,11.5-4.2,13.9-3.6c1.1,1.6,2,3.3,3,5.1C54.8,385.2,45,385.5,45,385.5z"/>
	<path class="st2" d="M63.8,391.6c0.6,1.4,1.2,3,1.7,4.4c-5.3-1.9-11.4-2.6-11.4-2.6C58.4,391.4,61.7,391.2,63.8,391.6z"/>
	<path class="st2" d="M67.3,401.5c0.3,1.2,0.6,2.6,0.8,3.9c-4.2-2.2-9.2-3.6-9.2-3.6C62.4,400.7,65.4,400.9,67.3,401.5z"/>
	<path class="st10" d="M-83.5,407.7c0,0,1.4,0.3,3,1.2v0.3c0,1.1-0.6,1.6-1.1,1.7c-1.4,0.6-6.8,1.9-14.5,0.5c0,0,5,3.4,13.4,1.9
		c0,0,0.8-0.2,1.4-0.5c0.3-0.2,0.8-0.3,1.1-0.5c0.2-0.2,0.3-0.3,0.5-0.5l0.2-0.2l0,0c0.3-0.5,0.8-1.1,0.8-2c0.9,0.6,1.7,1.4,2.5,2.5
		C-76.4,412.4-76.8,405.9-83.5,407.7z"/>
	<path class="st4" d="M-28.6,504.5c-0.6-0.3-1.2-0.5-2-0.5c-0.8,0-1.6,0.3-2.2,0.8C-32.8,504.7-31.6,504.5-28.6,504.5z"/>
	
		<ellipse transform="matrix(-0.3706 -0.9288 0.9288 -0.3706 -471.647 684.2232)" class="st12" cx="-4" cy="501.9" rx="2.8" ry="3.4"/>
	
		<ellipse transform="matrix(-0.5739 -0.8189 0.8189 -0.5739 -398.265 786.5468)" class="st12" cx="5.5" cy="496.9" rx="2.8" ry="3.4"/>
	
		<ellipse transform="matrix(-0.7541 -0.6568 0.6568 -0.7541 -298.9879 868.6515)" class="st12" cx="13.1" cy="490.3" rx="3.1" ry="3.4"/>
	
		<ellipse transform="matrix(-0.8349 -0.5505 0.5505 -0.8349 -229.0791 895.0112)" class="st12" cx="19.7" cy="481.9" rx="3.3" ry="3.4"/>
	
		<ellipse transform="matrix(-0.9746 -0.2239 0.2239 -0.9746 -60.3143 937.5646)" class="st12" cx="23" cy="472.2" rx="3.3" ry="3.4"/>
	
		<ellipse transform="matrix(-0.9923 -0.1242 0.1242 -0.9923 -7.0216 924.1167)" class="st12" cx="25.3" cy="462.3" rx="3.3" ry="3.4"/>
	<path class="st2" d="M25.6,458.9c-0.9-0.2-1.7,0.2-2.5,0.6c0.6,1.4,1.4,3,2.3,4.2c0.5,0.5,0.8,1.1,1.2,1.6c0.9-0.5,1.6-1.6,1.7-2.6
		C28.7,460.8,27.4,459.1,25.6,458.9z"/>
	
		<ellipse transform="matrix(-0.9999 -1.000100e-02 1.000100e-02 -0.9999 47.5632 904.5868)" class="st2" cx="26" cy="452.2" rx="3.4" ry="3.6"/>
	
		<ellipse transform="matrix(-0.9755 0.2201 -0.2201 -0.9755 146.4551 867.851)" class="st2" cx="24.9" cy="442.1" rx="3.3" ry="3.4"/>
	<ellipse transform="matrix(-0.8773 0.48 -0.48 -0.8773 247.1731 802.1562)" class="st2" cx="21" cy="432.7" rx="3.3" ry="3.6"/>
	
		<ellipse transform="matrix(-0.5745 0.8185 -0.8185 -0.5745 370.1615 656.9778)" class="st2" cx="14.3" cy="424.7" rx="3.3" ry="3.6"/>
	
		<ellipse transform="matrix(-0.5745 0.8185 -0.8185 -0.5745 352.0484 654.8189)" class="st2" cx="5.8" cy="418.9" rx="3.1" ry="3.6"/>
	<path class="st2" d="M-3.1,409.4c1.2-0.8,2.6-0.3,3.7,1.1c1.1,1.4,1.2,3.3,0,4s-3,0.3-4-1.1C-4.5,412.1-4.2,410.4-3.1,409.4z"/>
	<path class="st2" d="M-178,400.1c-0.2-0.6-0.2-1.1-0.3-1.7c-0.5-0.8-1.2-1.2-1.9-1.4c-1.2-0.2-1.6,0.9-1.9,2.8
		c-0.3,1.9-0.8,3.4,0.3,3.6c1.1,0.2,3-0.6,3.7-2C-177.8,401-178,400.6-178,400.1z"/>
	<path class="st12" d="M-179.1,501.1c-0.3-0.9-1.1-1.7-2.2-2.2c-1.2-0.5-2.3-0.3-3.1,0.2C-182.7,500-181,500.5-179.1,501.1z"/>
	<path class="st12" d="M-188.6,497.2c0.5-1.2,0-3.1-1.4-4c-1.6-1.1-3.6-0.9-4.4,0.3c-0.2,0.2-0.2,0.3-0.2,0.3
		C-192.5,495-190.9,496.1-188.6,497.2z"/>
	<path class="st12" d="M-199.8,490.2c0.6,0.5,1.4,1.1,2,1.6c0.3-0.2,0.5-0.3,0.8-0.5c1.2-1.1,1.2-3.3,0-4.8
		c-1.2-1.6-3.3-1.9-4.5-0.6c-0.6,0.5-0.9,1.4-0.9,2.2C-201.5,489-200.7,489.6-199.8,490.2z"/>
	<path class="st12" d="M-207.7,476.8c-1.6,1.1-1.9,3.3-0.8,4.8c1.1,1.7,3.1,2.2,4.7,1.1c1.6-1.1,1.9-3.3,0.8-4.8
		C-204.2,476.4-206.2,475.9-207.7,476.8z"/>
	<path class="st12" d="M-209.9,466.6c-1.7,0.5-2.8,2.3-2.5,4.4c0.5,1.9,2.2,3.1,4,2.8c1.7-0.5,2.8-2.3,2.5-4.4
		C-206.3,467.3-208.2,466.1-209.9,466.6z"/>
	<path class="st12" d="M-211.8,456.3c-1.9,0.2-3.1,2-2.8,3.9c0.3,2,1.9,3.3,3.7,3.1c1.9-0.2,3.1-2,2.8-3.9
		C-208.4,457.4-209.9,456-211.8,456.3z"/>
	
		<ellipse transform="matrix(-1 9.699088e-03 -9.699088e-03 -1 -419.9431 900.6955)" class="st2" cx="-212.2" cy="449.3" rx="3.4" ry="3.6"/>
	<path class="st2" d="M-210.2,435.4c-1.7-0.5-3.6,0.8-3.9,2.8c-0.5,1.9,0.6,3.7,2.5,4.2c1.9,0.5,3.6-0.8,3.9-2.8
		C-207.4,437.8-208.5,435.9-210.2,435.4z"/>
	<path class="st2" d="M-205.4,425.9c-1.6-0.9-3.7-0.2-4.7,1.6s-0.3,3.9,1.2,4.8c1.6,0.9,3.7,0.2,4.7-1.6S-203.8,426.9-205.4,425.9z"
		/>
	<path class="st2" d="M-197.5,418.9c-1.1-1.6-3.3-1.9-4.8-0.8c-1.6,1.1-2,3.4-0.9,5c1.1,1.6,3.3,1.9,4.8,0.8
		C-196.8,422.7-196.4,420.5-197.5,418.9z"/>
	<path class="st2" d="M-189.1,412.9c-0.9-1.6-3.1-1.7-4.7-0.6c-1.6,1.1-2,3.3-1.1,4.8c0.9,1.6,3.1,1.7,4.7,0.6
		C-188.4,416.5-188,414.3-189.1,412.9z"/>
	<path class="st2" d="M-183.1,405.2c-1.2-0.9-2.6-0.3-3.7,1.2c-1.1,1.6-1.2,3.3,0,4.2s3,0.3,4-1.1
		C-181.7,408-181.9,406.2-183.1,405.2z"/>
	<path class="st2" d="M-189.5,536.4c-0.3-1.9-2.2-3-4.5-3c-2.5,0-4.7,1.9-4.5,4c0,0.8,0.3,1.6,0.8,2.2
		C-195.3,538.6-192.9,537.7-189.5,536.4z"/>
	
		<ellipse transform="matrix(0.1692 -0.9856 0.9856 0.1692 -699.6413 241.3628)" class="st2" cx="-206.7" cy="535.7" rx="3.7" ry="4.4"/>
	
		<ellipse transform="matrix(0.4341 -0.9009 0.9009 0.4341 -602.6915 103.2782)" class="st2" cx="-219.1" cy="531.3" rx="3.7" ry="4.7"/>
	<ellipse transform="matrix(0.364 -0.9314 0.9314 0.364 -637.5695 118.0681)" class="st2" cx="-232.3" cy="525.9" rx="3" ry="3.9"/>
	<path class="st2" d="M-240.9,521.3c-2.3,0.2-4.8,0.3-7,1.1c0,0.2-0.2,0.5-0.2,0.8c0,0.3,0.2,0.6,0.2,0.9c1.4,0.3,2.8,0.5,4.2,0.9
		c0.6,0.2,1.1,0.5,1.6,0.6c1.2-0.5,2-1.6,2-2.6C-240.1,522.3-240.3,521.8-240.9,521.3z"/>
	<path class="st4" d="M-202.1,627c0,1.2-0.3,2.2-0.5,3.3c-0.3,1.6-0.8,3-1.4,4.5c1.6,0.3,3.3-1.1,3.7-3.1
		C-199.8,629.5-200.7,627.6-202.1,627z"/>
	<path class="st4" d="M-205.1,638.4c-0.2-0.3-0.5-0.5-0.8-0.6c-0.5,0.9-1.6,1.6-2.2,2c-1.2,0.8-2.5,1.6-3.7,2.2
		c0,0.5,0.2,0.9,0.5,1.2c1.1,1.4,3.3,1.4,5,0C-204.5,642-204,639.8-205.1,638.4z"/>
	<path class="st4" d="M-215.7,642.3c-2.3,0.5-4.5,0.8-6.8,0.6c-0.2,0.3-0.2,0.5-0.2,0.8c-0.2,1.7,1.6,3.3,3.7,3.4
		c2.2,0.2,4-1.1,4.2-2.6C-214.9,643.5-215.2,642.9-215.7,642.3z"/>
	<path class="st4" d="M-229.5,637.6c-1.2-0.2-2.3,0.2-3,1.1c-0.9,1.4-0.3,3.6,1.6,4.8c1.9,1.2,4,1.1,5-0.3c0.2-0.3,0.3-0.8,0.5-1.1
		C-227.3,641.2-228.9,639.8-229.5,637.6z"/>
	<ellipse transform="matrix(0.9121 -0.4099 0.4099 0.9121 -280.1782 -40.8686)" class="st4" cx="-235.4" cy="633" rx="2.3" ry="3"/>
</g>
<g id="_x31__1_">
	<path class="st2" d="M69.9,523.5c-14.5-6.7-29.6-4.7-42.3,1.2c-12.8,5.9-40.2,4.7-41.6,5c-1.2,0.3,2.3,11.2,22.3,12.1
		c19.9,0.9,26-2,39.2-10.6S69.9,523.5,69.9,523.5"/>
	<path class="st3" d="M69.9,523.5c-14.5-6.7-29.6-4.7-42.3,1.2c-12.8,5.9-40.2,4.7-41.6,5c-0.8,0.2,0.3,4.7,6.7,8.2
		c6.1,0,12.9,0.9,19,0.8c10.7-0.2,17.4-1.9,24.1-5.9c11.7-6.8,19.8-12.6,31.3-9.3C68.8,523.4,69.9,523.5,69.9,523.5z"/>
	<path class="st4" d="M18.6,646.5c10.9,6.5,30.7,8.2,37.8-10.9c0,0,0.2-0.5,0.3-1.2c0-1.7-0.3-3.4-0.6-5.1c-0.5-0.8-1.2-1.4-2.5-1.6
		c-2.8-0.6-3.7,2-5.1,4.7c-0.5,1.7-1.2,3.4-2.3,4.8c-1.7,3.1-4,5.3-9,5.6c-2.3,0.2-4.7-0.2-7-0.6c-3.1-0.5-5.6-2.8-7.6-5.3
		c-1.4-1.7-2.5-3.6-3.1-5.8c-0.3-0.8-0.3-1.2-0.5-2.2c-1.1-7.6-0.6-11.8,1.1-14.9c0.9-2.6,2.5-5.3,4-7.9c-2.5-1.1-8.7,0.6-10.4,8.2
		C10.8,625.2,7.7,639.9,18.6,646.5z"/>
	<path class="st5" d="M18.6,646.5c10.9,6.5,30.7,8.2,37.8-10.9c0,0,0.2-0.5,0.3-1.2c0-1.7-0.3-3.4-0.6-5.1c-0.3-0.5-0.8-0.8-1.2-1.1
		c-1.2,5.6-5.1,9.8-9.8,12.9c-5.3,3.4-11.5,3.3-17.3,1.2c-8.1-3-11.7-13.4-9.3-21.5c0.2-2.8,0.6-5,1.6-6.7c0.9-2.6,2.5-5.3,4-7.9
		c-2.5-1.1-8.7,0.6-10.4,8.2C10.8,625.2,7.7,639.9,18.6,646.5z"/>
	<path class="st7" d="M-50.2,529.8C-41.2,543-9,555,0.7,558.5s23,3.4,24.6,15.9c0.6,4.7-0.6,7.9-3,11c-2,4.7-5.9,8.6-8.6,12.8
		c-4,6.4-6.4,12.8-7,20.4c-0.3,3.9-0.3,8.2,0.3,12.5c0.2,3.4,1.4,10.7,8.1,16.5c8.9,7.9,19,7.9,30.5,3.3c7.2-3,9.8-8.7,10.7-13.1
		c0.2-1.6,0.3-3.1,0.2-4.7c-5.8,14.2-16.2,17.3-27.9,15.3c-9.6-1.7-13.9-11.2-13.9-20.1c0-6.1,2.3-11,6.2-17.4
		c3.4-7.2,9.2-14.2,12.6-21.3c3.7-7.8,6.2-16.8,5-25.2c-0.5-3.1-1.4-6.1-2.6-8.9c-2.2-3.1-4.7-6.1-7.6-8.6c-0.2-0.2-0.3-0.2-0.5-0.3
		c-15.4-8.7-35.3-14.6-35.3-14.6c-0.3-0.2-0.8-0.3-1.1-0.5l0,0c0,0,22.3,1.9,36.6-3.9c21.5-7.8,29.6-7.3,43.6-2.8
		c0.5,0.2,0.9,0.3,1.4,0.5c9.5,2.6,12.8,11.8,8.1,20.7c-1.9,3.7-5.3,6.8-9.5,7.5c-0.8,0.2-1.6,0.2-2.3,0c-2.6,0.3-5.1-0.8-7.5-2.8
		c0,0,0,0-0.2,0c-5-3.9-9.3-0.8-7.3,3.9c2,4.7,6.5,10.6,18.7,8.2c12.1-2.3,19.1-6.7,20.2-25.2c0.2-2.3,0-4.4-0.2-6.4
		c-0.8-3-1.9-5.8-3.9-8.2c-3.6-4.4-8.4-6.1-13.5-7.6c-11.2-3.1-23.7-4.4-34.6,0.8c-8.9,4.2-16.7,7.9-26.5,9.5
		c-3.4,0.5-6.8,0.6-10.4,0.5c-3.9,0.3-8.1-0.2-12.6-0.8c-6.8-0.9-14.5-3.4-19-9"/>
	<path class="st8" d="M-49.9,530.2c0,0,3.1,9.6,45.8,27.1c12.1,5.6,30.5,6.7,29.3,23.3c0,0,3.6-8.7,0.3-16.7
		c-5.9-7.9-15.4-9.5-32.5-16.2c-9.2-3.6-16.8-7.5-23-11.5c-5.6-2.5-10.7-6.2-14.8-10.6"/>
	<path class="st8" d="M-23.8,519.5c5.4,7.5,15.4,11.8,15.4,11.8s6.1,0.5,14.5,0.3c-0.6-0.2-1.1-0.3-1.7-0.5
		c-5.9-1.4-10.7-3.3-16-6.4C-16,523.7-20.3,522.1-23.8,519.5z"/>
	<path class="st8" d="M55.9,557.3c5.3,5.9,11.5,8.7,21.9,5c9.8-3.4,19-9.2,15.7-30.5c-0.2-0.6-0.3-1.4-0.5-2c1.6,10-1.4,21-9.8,27.1
		c-6.2,4.4-15.7,5.3-22.3,0.5c-0.8-0.5-1.4-0.9-2-1.4c-1.1-0.8-2.2-1.7-3-2.8c-1.6-1.9-1.2-3.1-0.3-4l0,0
		C55.9,549.1,50.6,551.4,55.9,557.3z"/>
	<path class="st2" d="M14.4,539.7c0.5-0.6,0.8-1.2,0.8-2.2c0-2.2-2-4-4.5-4c-2.3,0-4,0.9-4.5,3C9.4,537.7,11.7,538.6,14.4,539.7z"/>
	<ellipse transform="matrix(0.9856 -0.1692 0.1692 0.9856 -90.2951 11.6148)" class="st2" cx="23" cy="535.6" rx="4.4" ry="3.7"/>
	
		<ellipse transform="matrix(0.9009 -0.4341 0.4341 0.9009 -227.0765 68.0637)" class="st2" cx="35.5" cy="531.2" rx="4.7" ry="3.7"/>
	<ellipse transform="matrix(0.9314 -0.364 0.364 0.9314 -188.0784 53.8604)" class="st2" cx="48.9" cy="525.9" rx="3.9" ry="3"/>
	<path class="st2" d="M56.5,523.1c0,1.1,0.8,2,2,2.6c0.5-0.3,0.9-0.5,1.6-0.6c1.4-0.5,2.8-0.8,4.2-0.9c0.2-0.3,0.2-0.6,0.2-0.9
		c0-0.3,0-0.5-0.2-0.8c-2.2-0.8-4.7-0.9-7-1.1C56.7,521.8,56.5,522.3,56.5,523.1z"/>
	<path class="st4" d="M16.7,631.5c0.5,2,2.2,3.4,3.7,3.1c-0.6-1.4-0.9-3-1.4-4.5c-0.3-1.1-0.5-2-0.5-3.3
		C17.2,627.6,16.2,629.5,16.7,631.5z"/>
	<path class="st4" d="M22.8,643.4c1.7,1.4,4,1.4,5,0c0.3-0.3,0.5-0.8,0.5-1.2c-1.2-0.6-2.5-1.4-3.7-2.2c-0.6-0.5-1.9-1.2-2.2-2
		c-0.3,0.2-0.6,0.3-0.8,0.6C20.4,639.8,21,642,22.8,643.4z"/>
	<path class="st4" d="M31.3,644.3c0.2,1.7,2,3,4.2,2.6c2.2-0.2,3.9-1.7,3.7-3.4c0-0.3-0.2-0.5-0.2-0.8c-2.3,0.3-4.7-0.2-6.8-0.6
		C31.6,642.9,31.3,643.5,31.3,644.3z"/>
	<path class="st4" d="M41.9,642.1c0,0.5,0.2,0.8,0.5,1.1c0.9,1.4,3.3,1.6,5,0.3c1.9-1.2,2.5-3.4,1.6-4.8c-0.6-0.9-1.7-1.2-3-1.1
		C45.3,639.8,43.8,641.2,41.9,642.1z"/>
	<ellipse transform="matrix(0.4099 -0.9121 0.9121 0.4099 -546.8253 420.8646)" class="st4" cx="51.9" cy="633.1" rx="3" ry="2.3"/>
</g>
<g id="_x32_">
</g>
<g id="_x33_">
</g>
<g id="_x34_">
</g>
<g id="_x35__1_">
</g>
<g id="_x36_">
</g>
<g id="_x37_">
</g>
<rect x="-253.3" y="424.2" class="st13" width="323.1" height="211.2"/>
<rect x="-253.3" y="424.2" class="st14" width="322.9" height="18.7"/>
<rect x="-253.3" y="448.4" class="st14" width="80.2" height="187.1"/>
<rect x="-168.5" y="448.4" class="st14" width="238.1" height="104"/>
<rect x="-163.8" y="453.2" class="st14" width="107.5" height="3.7"/>
<rect x="-163.8" y="462.2" class="st14" width="131.5" height="3.7"/>
<rect x="-163.8" y="471.2" class="st14" width="124.2" height="3.7"/>
<rect x="-163.8" y="480.3" class="st14" width="118" height="3.7"/>
<rect x="-163.8" y="507.3" class="st14" width="107.5" height="3.7"/>
<rect x="-163.8" y="516.4" class="st14" width="131.5" height="3.7"/>
<rect x="-163.8" y="543.4" class="st14" width="131.5" height="3.7"/>
<rect x="-163.8" y="525.4" class="st14" width="124.2" height="3.7"/>
<rect x="-163.8" y="534.4" class="st14" width="118" height="3.7"/>
<rect x="-163.8" y="596.8" class="st14" width="226" height="3.7"/>
<rect x="-163.8" y="623.9" class="st14" width="226" height="3.7"/>
<rect x="-163.8" y="605.9" class="st14" width="213.5" height="3.7"/>
<rect x="-163.8" y="614.9" class="st14" width="202.8" height="3.7"/>
<rect x="-163.8" y="489.3" class="st14" width="124.7" height="3.7"/>
<rect x="-163.8" y="498.3" class="st14" width="124.7" height="3.7"/>
<rect x="-243.7" y="453.2" class="st14" width="50.3" height="3.7"/>
<rect x="-243.7" y="462.2" class="st14" width="61.5" height="3.7"/>
<rect x="-243.7" y="471.2" class="st14" width="58.1" height="3.7"/>
<rect x="-243.7" y="480.3" class="st14" width="55.2" height="3.7"/>
<rect x="-243.7" y="507.3" class="st14" width="50.3" height="3.7"/>
<rect x="-243.7" y="516.4" class="st14" width="61.5" height="3.7"/>
<rect x="-243.7" y="543.4" class="st14" width="61.5" height="3.7"/>
<rect x="-243.7" y="525.4" class="st14" width="58.1" height="3.7"/>
<rect x="-243.7" y="534.4" class="st14" width="55.2" height="3.7"/>
<rect x="-243.7" y="489.3" class="st14" width="58.4" height="3.7"/>
<rect x="-243.7" y="498.3" class="st14" width="58.4" height="3.7"/>
<rect x="-18.3" y="453.2" class="st14" width="14.9" height="3.7"/>
<rect x="-18.3" y="462.2" class="st14" width="18.2" height="3.7"/>
<rect x="-18.3" y="471.2" class="st14" width="17.3" height="3.7"/>
<rect x="-18.3" y="480.3" class="st14" width="16.3" height="3.7"/>
<rect x="-18.3" y="507.3" class="st14" width="14.9" height="3.7"/>
<rect x="-18.3" y="516.4" class="st14" width="18.2" height="3.7"/>
<rect x="-18.3" y="543.4" class="st14" width="18.2" height="3.7"/>
<rect x="-18.3" y="525.4" class="st14" width="17.3" height="3.7"/>
<rect x="-18.3" y="534.4" class="st14" width="16.3" height="3.7"/>
<rect x="-18.3" y="489.3" class="st14" width="17.3" height="3.7"/>
<rect x="-18.3" y="498.3" class="st14" width="17.3" height="3.7"/>
<rect x="21.8" y="453.2" class="st14" width="31.4" height="3.7"/>
<rect x="21.8" y="462.2" class="st14" width="38.4" height="3.7"/>
<rect x="21.8" y="471.2" class="st14" width="36.4" height="3.7"/>
<rect x="21.8" y="480.3" class="st14" width="34.6" height="3.7"/>
<rect x="21.8" y="507.3" class="st14" width="31.4" height="3.7"/>
<rect x="21.8" y="516.4" class="st14" width="38.4" height="3.7"/>
<rect x="21.8" y="543.4" class="st14" width="38.4" height="3.7"/>
<rect x="21.8" y="525.4" class="st14" width="36.4" height="3.7"/>
<rect x="21.8" y="534.4" class="st14" width="34.6" height="3.7"/>
<rect x="21.8" y="489.3" class="st14" width="36.6" height="3.7"/>
<rect x="21.8" y="498.3" class="st14" width="36.6" height="3.7"/>
<rect x="-168.5" y="557.1" class="st14" width="238.1" height="78.3"/>
<rect x="-163.8" y="580.3" class="st14" width="36.9" height="3.7"/>
<rect x="-163.8" y="562.3" class="st14" width="34.9" height="3.7"/>
<rect x="-163.8" y="571.3" class="st14" width="33.1" height="3.7"/>
<g>
	<path class="st7" d="M-151.5,550.1L-151.5,550.1C-151.4,550.1-151.4,550.3-151.5,550.1L-151.5,550.1z"/>
	<path class="st7" d="M54.7,554.3c-2-4.7,2.3-7.8,7.3-3.9c0,0,0,0,0.2,0c2.5,1.9,5,3,7.5,2.8c0.8,0.2,1.6,0.2,2.3,0
		c0.6-0.2,1.2-0.3,1.7-0.5l1.9,7c-0.2,0-0.2,0-0.3,0C63.1,562.1,56.7,559,54.7,554.3z"/>
</g>
<g>
	<path class="st7" d="M-31.9,550.1L-31.9,550.1C-32,550.1-32,550.3-31.9,550.1L-31.9,550.1z"/>
	<path class="st7" d="M45.5,421.6c0.9,2.5,1.9,5.1,3,7.6c7.2,13.5,20.4,18.5,20.4,18.5c-5.3-4.8-3.7-18.4-1.9-26.1H45.5z"/>
	<path class="st7" d="M-238.1,554.3c2-4.7-2.3-7.8-7.3-3.9c0,0,0,0-0.2,0c-2.5,1.9-5,3-7.5,2.8c-0.8,0.2-1.6,0.2-2.3,0
		c-0.6-0.2-1.2-0.3-1.7-0.5l-1.9,7c0.2,0,0.2,0,0.3,0C-246.5,562.1-240.3,559-238.1,554.3z"/>
	<path class="st7" d="M-231.9,421.6H-249c0.8,7,0.5,14.9-3.3,18.4C-252.1,440-239,435-231.9,421.6z"/>
</g>
<g>
	<path class="st8" d="M-253.3,564c5.9,0.2,10.1-2.5,13.9-6.7c5.3-5.9,0-8.1,0-8.1l0,0c1.1,0.9,1.2,2.3-0.3,4
		c-0.9,1.1-1.9,1.9-3.1,2.8c-0.6,0.5-1.2,0.9-2,1.4c-2.5,1.9-5.6,3-8.6,3.1C-253.3,560.6-253.3,564-253.3,564z"/>
	<path class="st8" d="M48.4,429.4c3.7,7.2,9.2,11.8,13.5,14.6c-4.2-4.5-7-10.3-8.9-16.3c-0.6-2-1.2-4-1.7-6.1h-5.9
		C46.4,424.2,47.4,426.7,48.4,429.4z"/>
	<path class="st8" d="M-231.9,421.6h-5.8c-2.6,7.3-6.4,13.7-14,17.6c-0.2,0.2-0.3,0.5-0.6,0.6C-252.1,440-239,435-231.9,421.6z"/>
</g>
<g>
	<path class="st8" d="M69.8,564c-5.9,0.2-10.1-2.5-13.9-6.7c-5.3-5.9,0-8.1,0-8.1l0,0c-1.1,0.9-1.2,2.3,0.3,4c0.9,1.1,1.9,1.9,3,2.8
		c0.6,0.5,1.2,0.9,2,1.4c2.5,1.9,5.6,3,8.6,3.1C69.8,560.6,69.8,564,69.8,564z"/>
</g>
</svg>
