<?xml version="1.0" encoding="UTF-8" standalone="no"?>
<svg width="600px" height="372px" viewBox="0 0 600 372" version="1.1" xmlns="http://www.w3.org/2000/svg" xmlns:xlink="http://www.w3.org/1999/xlink">
    <!-- Generator: Sketch 3.6.1 (26313) - http://www.bohemiancoding.com/sketch -->
    <title>Artboard 1 Copy</title>
    <desc>Created with Sketch.</desc>
    <defs></defs>
    <g id="Page-1" stroke="none" stroke-width="1" fill="none" fill-rule="evenodd">
        <g id="Artboard-1-Copy">
            <g id="templates" transform="translate(-244.000000, -75.000000)">
                <rect id="Rectangle-path" fill="#F9F9F9" x="470.5" y="75.4" width="165.3" height="150.9"></rect>
                <g id="Group" opacity="0.3" transform="translate(470.000000, 75.000000)">
                    <rect id="Rectangle-path" stroke="#D1D1D1" stroke-width="0.7692" fill="#F9F9F9" x="0.5" y="0.4" width="165.3" height="150.9"></rect>
                    <rect id="Rectangle-path" fill="#CACACA" x="4.6" y="4.9" width="157.1" height="15.6"></rect>
                    <rect id="Rectangle-path" fill="#D7D7D7" x="21" y="88.3" width="124.4" height="46.1"></rect>
                    <rect id="Rectangle-path" fill="#EBEBEB" x="21" y="25.8" width="124.4" height="9.2"></rect>
                    <rect id="Rectangle-path" fill="#EBEBEB" x="21" y="40.1" width="124.4" height="4"></rect>
                    <rect id="Rectangle-path" fill="#EBEBEB" x="21" y="47.8" width="124.4" height="4"></rect>
                    <rect id="Rectangle-path" fill="#EBEBEB" x="21" y="55.4" width="124.4" height="4"></rect>
                    <rect id="Rectangle-path" fill="#EBEBEB" x="21" y="63.1" width="124.4" height="4"></rect>
                    <rect id="Rectangle-path" fill="#EBEBEB" x="21" y="70.8" width="124.4" height="4"></rect>
                    <rect id="Rectangle-path" fill="#EBEBEB" x="21" y="78.5" width="62.2" height="4"></rect>
                </g>
                <g id="_x32_" transform="translate(299.000000, 0.000000)"></g>
                <g id="_x33_" transform="translate(299.000000, 0.000000)"></g>
                <g id="_x34_" transform="translate(299.000000, 0.000000)"></g>
                <g id="_x35__1_" transform="translate(299.000000, 0.000000)"></g>
                <g id="_x36_" transform="translate(299.000000, 0.000000)"></g>
                <g id="_x37_" transform="translate(299.000000, 0.000000)"></g>
                <rect id="Rectangle-path" fill="#F9F9F9" x="557.1" y="134.3" width="165.3" height="150.9"></rect>
                <g id="Group" opacity="0.5" transform="translate(557.000000, 134.000000)">
                    <rect id="Rectangle-path" stroke="#D1D1D1" stroke-width="0.7692" fill="#F9F9F9" x="0.1" y="0.3" width="165.3" height="150.9"></rect>
                    <rect id="Rectangle-path" fill="#CACACA" x="4.3" y="4.7" width="157.1" height="15.6"></rect>
                    <rect id="Rectangle-path" fill="#D7D7D7" x="20.6" y="38" width="124.4" height="34.2"></rect>
                    <rect id="Rectangle-path" fill="#D7D7D7" x="20.6" y="123" width="124.4" height="14.6"></rect>
                    <g transform="translate(20.000000, 25.000000)" id="Rectangle-path" fill="#EBEBEB">
                        <rect x="0.6" y="0.7" width="124.4" height="9.2"></rect>
                        <rect x="0.6" y="51.2" width="124.4" height="4"></rect>
                        <rect x="0.6" y="58.9" width="124.4" height="4"></rect>
                        <rect x="0.6" y="66.6" width="124.4" height="4"></rect>
                        <rect x="0.6" y="74.3" width="124.4" height="4"></rect>
                        <rect x="0.6" y="82" width="124.4" height="4"></rect>
                        <rect x="0.6" y="89.7" width="62.2" height="4"></rect>
                    </g>
                </g>
                <rect id="Rectangle-path" fill="#F9F9F9" x="377.6" y="112.4" width="165.3" height="150.9"></rect>
                <g id="Group" opacity="0.5" transform="translate(377.000000, 112.000000)">
                    <rect id="Rectangle-path" stroke="#D1D1D1" stroke-width="0.7692" fill="#F9F9F9" x="0.6" y="0.4" width="165.3" height="150.9"></rect>
                    <rect id="Rectangle-path" fill="#CACACA" x="4.8" y="4.9" width="157.1" height="15.6"></rect>
                    <rect id="Rectangle-path" fill="#D7D7D7" x="87.5" y="25.8" width="58.1" height="77.1"></rect>
                    <rect id="Rectangle-path" fill="#D7D7D7" x="87.5" y="107.6" width="58.1" height="19.7"></rect>
                    <rect id="Rectangle-path" fill="#EBEBEB" x="21.2" y="25.8" width="52.2" height="9.2"></rect>
                    <rect id="Rectangle-path" fill="#EBEBEB" x="21.2" y="38.7" width="62.1" height="4"></rect>
                    <rect id="Rectangle-path" fill="#EBEBEB" x="21.2" y="46.4" width="62.1" height="4"></rect>
                    <rect id="Rectangle-path" fill="#EBEBEB" x="21.2" y="54.1" width="62.1" height="4"></rect>
                    <rect id="Rectangle-path" fill="#EBEBEB" x="21.2" y="61.8" width="62.1" height="4"></rect>
                    <rect id="Rectangle-path" fill="#EBEBEB" x="21.2" y="69.5" width="62.1" height="4"></rect>
                    <rect id="Rectangle-path" fill="#EBEBEB" x="21.2" y="77.2" width="31.1" height="4"></rect>
                    <rect id="Rectangle-path" fill="#EBEBEB" x="21.2" y="91" width="62.1" height="4"></rect>
                    <rect id="Rectangle-path" fill="#EBEBEB" x="21.2" y="98.7" width="62.1" height="4"></rect>
                    <rect id="Rectangle-path" fill="#EBEBEB" x="21.2" y="106.4" width="62.1" height="4"></rect>
                    <rect id="Rectangle-path" fill="#EBEBEB" x="21.2" y="114.1" width="31.1" height="4"></rect>
                </g>
                <rect id="Rectangle-path" fill="#F9F9F9" x="427.9" y="170.3" width="165.3" height="150.9"></rect>
                <g id="Group" opacity="0.7" transform="translate(427.000000, 170.000000)">
                    <rect id="Rectangle-path" stroke="#D1D1D1" stroke-width="0.7692" fill="#F9F9F9" x="0.9" y="0.3" width="165.3" height="150.9"></rect>
                    <rect id="Rectangle-path" fill="#CACACA" x="5.1" y="4.8" width="157.1" height="15.6"></rect>
                    <rect id="Rectangle-path" fill="#D7D7D7" x="21.4" y="38" width="124.4" height="34.2"></rect>
                    <rect id="Rectangle-path" fill="#D7D7D7" x="87.8" y="76.3" width="58.1" height="42.7"></rect>
                    <rect id="Rectangle-path" fill="#D7D7D7" x="87.8" y="123" width="58.1" height="14.6"></rect>
                    <g transform="translate(21.000000, 25.000000)" id="Rectangle-path" fill="#EBEBEB">
                        <rect x="0.4" y="0.7" width="124.4" height="9.2"></rect>
                        <rect x="0.4" y="51.3" width="62.1" height="4"></rect>
                        <rect x="0.4" y="59" width="62.1" height="4"></rect>
                        <rect x="0.4" y="66.7" width="62.1" height="4"></rect>
                        <rect x="0.4" y="74.4" width="62.1" height="4"></rect>
                        <rect x="0.4" y="82.1" width="62.1" height="4"></rect>
                        <rect x="0.4" y="89.7" width="31.1" height="4"></rect>
                    </g>
                </g>
                <g id="Group" transform="translate(339.000000, 205.000000)">
                    <rect id="Rectangle-path" stroke="#D1D1D1" stroke-width="0.7692" fill="#F9F9F9" x="0.7" y="0.5" width="165.3" height="150.9"></rect>
                    <rect id="Rectangle-path" fill="#CACACA" x="4.9" y="4.9" width="157.1" height="15.6"></rect>
                    <rect id="Rectangle-path" fill="#D7D7D7" x="87.5" y="25.9" width="58.1" height="77.1"></rect>
                    <rect id="Rectangle-path" fill="#D7D7D7" x="87.5" y="107.7" width="58.1" height="19.7"></rect>
                    <rect id="Rectangle-path" fill="#EBEBEB" x="21.2" y="25.9" width="52.2" height="9.2"></rect>
                    <rect id="Rectangle-path" fill="#EBEBEB" x="21.2" y="38.8" width="62.1" height="4"></rect>
                    <rect id="Rectangle-path" fill="#EBEBEB" x="21.2" y="46.5" width="62.1" height="4"></rect>
                    <rect id="Rectangle-path" fill="#EBEBEB" x="21.2" y="54.2" width="62.1" height="4"></rect>
                    <rect id="Rectangle-path" fill="#EBEBEB" x="21.2" y="61.8" width="62.1" height="4"></rect>
                    <rect id="Rectangle-path" fill="#EBEBEB" x="21.2" y="69.5" width="62.1" height="4"></rect>
                    <rect id="Rectangle-path" fill="#EBEBEB" x="21.2" y="77.2" width="31.1" height="4"></rect>
                    <rect id="Rectangle-path" fill="#EBEBEB" x="21.2" y="91.1" width="62.1" height="4"></rect>
                    <rect id="Rectangle-path" fill="#EBEBEB" x="21.2" y="98.8" width="62.1" height="4"></rect>
                    <rect id="Rectangle-path" fill="#EBEBEB" x="21.2" y="106.5" width="62.1" height="4"></rect>
                    <rect id="Rectangle-path" fill="#EBEBEB" x="21.2" y="114.1" width="31.1" height="4"></rect>
                </g>
                <g id="Group" transform="translate(580.000000, 206.000000)">
                    <rect id="Rectangle-path" stroke="#D1D1D1" stroke-width="0.7692" fill="#F9F9F9" x="0.5" y="0.4" width="165.3" height="150.9"></rect>
                    <rect id="Rectangle-path" fill="#CACACA" x="4.6" y="4.9" width="157.1" height="15.6"></rect>
                    <rect id="Rectangle-path" fill="#D7D7D7" x="21" y="88.3" width="124.4" height="46.1"></rect>
                    <rect id="Rectangle-path" fill="#EBEBEB" x="21" y="25.8" width="124.4" height="9.2"></rect>
                    <rect id="Rectangle-path" fill="#EBEBEB" x="21" y="40.1" width="124.4" height="4"></rect>
                    <rect id="Rectangle-path" fill="#EBEBEB" x="21" y="47.8" width="124.4" height="4"></rect>
                    <rect id="Rectangle-path" fill="#EBEBEB" x="21" y="55.4" width="124.4" height="4"></rect>
                    <rect id="Rectangle-path" fill="#EBEBEB" x="21" y="63.1" width="124.4" height="4"></rect>
                    <rect id="Rectangle-path" fill="#EBEBEB" x="21" y="70.8" width="124.4" height="4"></rect>
                    <rect id="Rectangle-path" fill="#EBEBEB" x="21" y="78.5" width="62.2" height="4"></rect>
                </g>
                <g id="Group" transform="translate(545.000000, 258.000000)">
                    <rect id="Rectangle-path" stroke="#D1D1D1" stroke-width="0.7692" fill="#F9F9F9" x="0.8" y="0.9" width="165.3" height="150.9"></rect>
                    <rect id="Rectangle-path" fill="#CACACA" x="5" y="5.4" width="157.1" height="15.6"></rect>
                    <rect id="Rectangle-path" fill="#D7D7D7" x="21.3" y="38.6" width="124.4" height="34.2"></rect>
                    <rect id="Rectangle-path" fill="#D7D7D7" x="21.3" y="123.6" width="124.4" height="14.6"></rect>
                    <g transform="translate(21.000000, 26.000000)" id="Rectangle-path" fill="#EBEBEB">
                        <rect x="0.3" y="0.3" width="124.4" height="9.2"></rect>
                        <rect x="0.3" y="50.9" width="124.4" height="4"></rect>
                        <rect x="0.3" y="58.6" width="124.4" height="4"></rect>
                        <rect x="0.3" y="66.3" width="124.4" height="4"></rect>
                        <rect x="0.3" y="74" width="124.4" height="4"></rect>
                        <rect x="0.3" y="81.7" width="124.4" height="4"></rect>
                        <rect x="0.3" y="89.3" width="62.2" height="4"></rect>
                    </g>
                </g>
                <g id="Group" transform="translate(418.000000, 294.000000)">
                    <rect id="Rectangle-path" stroke="#D1D1D1" stroke-width="0.7692" fill="#F9F9F9" x="0.8" y="0.8" width="165.3" height="150.9"></rect>
                    <rect id="Rectangle-path" fill="#AFAFAF" x="5" y="5.3" width="157.1" height="15.6"></rect>
                    <rect id="Rectangle-path" fill="#AFAFAF" x="87.7" y="26.2" width="58.1" height="77.1"></rect>
                    <rect id="Rectangle-path" fill="#AFAFAF" x="87.7" y="108" width="58.1" height="19.7"></rect>
                    <rect id="Rectangle-path" fill="#D1D1D1" x="21.4" y="26.2" width="52.2" height="9.2"></rect>
                    <rect id="Rectangle-path" fill="#D1D1D1" x="21.4" y="39.1" width="62.1" height="4"></rect>
                    <rect id="Rectangle-path" fill="#D1D1D1" x="21.4" y="46.8" width="62.1" height="4"></rect>
                    <rect id="Rectangle-path" fill="#D1D1D1" x="21.4" y="54.5" width="62.1" height="4"></rect>
                    <rect id="Rectangle-path" fill="#D1D1D1" x="21.4" y="62.2" width="62.1" height="4"></rect>
                    <rect id="Rectangle-path" fill="#D1D1D1" x="21.4" y="69.9" width="62.1" height="4"></rect>
                    <rect id="Rectangle-path" fill="#D1D1D1" x="21.4" y="77.6" width="31.1" height="4"></rect>
                    <rect id="Rectangle-path" fill="#D1D1D1" x="21.4" y="91.4" width="62.1" height="4"></rect>
                    <rect id="Rectangle-path" fill="#D1D1D1" x="21.4" y="99.1" width="62.1" height="4"></rect>
                    <rect id="Rectangle-path" fill="#D1D1D1" x="21.4" y="106.8" width="62.1" height="4"></rect>
                    <rect id="Rectangle-path" fill="#D1D1D1" x="21.4" y="114.5" width="31.1" height="4"></rect>
                </g>
            </g>
        </g>
    </g>
</svg>