<?xml version="1.0" encoding="utf-8"?>
<!-- Generator: Adobe Illustrator 19.1.0, SVG Export Plug-In . SVG Version: 6.00 Build 0)  -->
<svg version="1.1" id="Layer_1" xmlns="http://www.w3.org/2000/svg" xmlns:xlink="http://www.w3.org/1999/xlink" x="0px" y="0px"
	 width="610px" height="513.6px" viewBox="-334 194.2 610 513.6" style="enable-background:new -334 194.2 610 513.6;"
	 xml:space="preserve">
<style type="text/css">
	.st0{display:none;}
	.st1{display:inline;fill:#012B31;}
	.st2{fill:#E9BAA9;}
	.st3{fill:#DFA696;}
	.st4{fill:#CC7691;}
	.st5{fill:#B75978;}
	.st6{fill:#FECDC5;}
	.st7{fill:#FFFFFF;}
	.st8{fill:#3A3A3A;}
	.st9{fill:#737F83;}
	.st10{fill:#8C989B;}
	.st11{fill:#5B5A5C;}
	.st12{fill:#3F3F3F;}
</style>
<g id="Bg" class="st0">
	<polygon class="st1" points="-383.7,275 -446.7,275 -1026.7,275 -1026.7,867 -706.7,867 -706.7,975 -383.7,975 -383.7,625 
		192.3,625 192.3,275 	"/>
</g>
<g id="_x31_">
</g>
<g id="_x32_">
</g>
<g id="_x33_">
</g>
<g id="_x34_">
</g>
<g id="_x35__1_">
</g>
<g id="_x36_">
</g>
<g>
	<g>
		<g>
			<path class="st2" d="M-135.8,535.5c-4.5,4-8.9,8-13,12.4c7.2,12.1,20.1,26,33.7,32.6c4.6-3.2,8.4-7.5,11.2-12.4
				C-127.8,557-133.4,545.8-135.8,535.5z"/>
			<path class="st3" d="M-173.5,487.7c0,0,9.2-2.1,14.9,0.7c5.7,2.8,11.9,10.6,8.8,21.9c-1.7,6.1-8.8,19.6-0.5,35.1
				c4.6,8.5,12.4,18.4,21.5,26c-1.6-3.1-3-6.2-4.2-9.5c-2.8-8.1-5.2-17.8-3.3-26.3c0.1-0.2,0.2-0.4,0.3-0.5
				c-0.3-1.2-0.5-2.4-0.7-3.5c-2.3-12.1,6.5-30,0.7-37.2C-141.9,487.1-165.1,476.1-173.5,487.7z"/>
			<path class="st4" d="M-173.1,552.9c-4.5-11.7-11.9-21.8-11.9-34.9c0-10.4,3.5-23.2,11.5-30.3c5.3-4.8,10.4-6.3,15.7-4.2
				c4.1,1,8.2,3.6,11.4,5.9c1,0.7,1.8,1.4,2.5,2.1c5.6,4.3,9.2,11.4,3.2,29.9c-6.7,20.7,24.6,47.2,31.6,50.3
				c0.5,0.2,1.3,0.5,2.3,0.9c1.9-2.4,3.5-5.1,4.8-7.9c-7.7-2.5-13.5-8-20.1-15.6c-12.6-14.4-13.7-24.6-9.1-40.9
				c4.6-16.3-9.6-26.1-25.9-33.7c-16.3-7.6-26.5-10.9-47,12.2c-20.5,23.1-19.8,29.8-14.4,44.8s13.9,25.2,21.5,29.4
				c7.6,4.1,22.8,15.5,22.4,24.6C-174.7,585.4-167.7,570.1-173.1,552.9z"/>
			<path class="st5" d="M-194.8,521.9c3.9,21.5,27.5,39.2,20.1,62.5c0,0.4,0.1,0.7,0.1,1.1c0,0,7-15.3,1.6-32.5
				c-4.5-11.7-11.9-21.8-11.9-34.9c0-10.4,3.5-23.2,11.5-30.3c1.9-1.7,3.7-2.9,5.5-3.8c-0.9,0.1-1.7,0.2-2.6,0.4c0,0,0,0-0.1,0
				C-184.3,491.1-197.8,505.4-194.8,521.9z"/>
			<path class="st2" d="M-206.9,513.2c-9.1,1.6-13.1,6.2-14.6,8.5c0.4,2.2,1,4.4,1.8,6.8C-215.5,521-206.9,513.2-206.9,513.2z"/>
			<path class="st2" d="M-217.6,534.1c0.7,1.8,1.5,3.5,2.2,5.1c2.8-6,7.3-11.7,7.3-11.7C-213.1,529.3-216,531.9-217.6,534.1z"/>
			<path class="st2" d="M-212.1,545.2c0.8,1.4,1.7,2.7,2.6,3.9c1.7-5.3,4.8-10.7,4.8-10.7C-208.9,540.5-211,543.1-212.1,545.2z"/>
			<path class="st2" d="M-147.3,488.8c-0.1,0-0.1-0.1-0.2-0.2c-1.1-0.2-2.1,0-2.7,0.4c-1.2,0.8-0.4,2.1,0.8,3.9
				c1.3,1.8,2.2,3.5,3.4,2.7c1-0.7,2.1-3,1.6-4.7C-145.4,490.2-146.3,489.5-147.3,488.8z"/>
			<path class="st6" d="M-112.6,578.6c1.2-1,2.3-2.1,3.4-3.2c0.2-1.5-0.6-3.2-2.1-4.2c-2-1.3-4.5-0.8-5.7,1.1
				c-1.1,1.9-0.4,4.4,1.5,5.6C-114.6,578.5-113.6,578.7-112.6,578.6z"/>
			<path class="st6" d="M-127.1,565.2c-1.3,1.7-0.9,4.2,1,5.7c1.8,1.4,4.4,1.2,5.7-0.5s0.9-4.2-1-5.7
				C-123.2,563.3-125.8,563.5-127.1,565.2z"/>
			
				<ellipse transform="matrix(0.714 0.7002 -0.7002 0.714 353.7188 253.4581)" class="st2" cx="-133.4" cy="559.7" rx="4.3" ry="4"/>
			<path class="st2" d="M-143.2,546.5c-1.8,1.1-2.3,3.6-1,5.6c1.3,2,3.7,2.6,5.6,1.5c1.8-1.1,2.3-3.6,1-5.6
				C-138.9,546-141.4,545.4-143.2,546.5z"/>
			<path class="st2" d="M-147.2,534.4c-2.1,0.6-3.3,2.9-2.6,5.2c0.7,2.3,3,3.6,5.1,3c2.1-0.6,3.3-2.9,2.6-5.2
				C-142.8,535.2-145,533.8-147.2,534.4z"/>
			<path class="st2" d="M-146.5,521.8c-2.2-0.4-4.3,1.1-4.6,3.4c-0.4,2.3,1.1,4.5,3.3,4.9c2.2,0.4,4.3-1.1,4.6-3.4
				C-142.8,524.5-144.3,522.2-146.5,521.8z"/>
			<path class="st2" d="M-144.4,509.7c-2.1-0.4-4.1,1.1-4.4,3.5c-0.4,2.3,1,4.5,3.1,4.9c2.1,0.4,4.1-1.1,4.4-3.5
				C-141,512.3-142.3,510.1-144.4,509.7z"/>
			<path class="st2" d="M-145.8,498.4c-1.7,0.3-2.5,2-2.1,4.1c0.4,2.1,1.7,3.8,3.5,3.6c1.7-0.3,2.8-2.2,2.5-4.3
				C-142.4,499.6-144.1,498.1-145.8,498.4z"/>
		</g>
		<g>
			<path class="st2" d="M99.8,596.1c4.5,4,8.9,8,13,12.4c-7.2,12.1-20.1,26-33.7,32.6c-4.6-3.2-8.4-7.5-11.2-12.4
				C91.7,617.6,97.3,606.4,99.8,596.1z"/>
			<path class="st3" d="M137.4,548.3c0,0-9.2-2.1-14.9,0.7c-5.7,2.8-11.9,10.6-8.8,21.9c1.7,6.1,8.8,19.6,0.5,35.1
				c-4.6,8.5-12.4,18.4-21.5,26c1.6-3.1,3-6.2,4.2-9.5c2.8-8.1,5.2-17.8,3.3-26.3c-0.1-0.2-0.2-0.4-0.3-0.5c0.3-1.2,0.5-2.4,0.7-3.5
				c2.3-12.1-6.5-30-0.7-37.2C105.9,547.7,129.1,536.7,137.4,548.3z"/>
			<path class="st4" d="M137,613.5c4.5-11.7,11.9-21.8,11.9-34.9c0-10.4-3.5-23.2-11.5-30.3c-5.3-4.8-10.4-6.3-15.7-4.2
				c-4.1,1-8.2,3.6-11.4,5.9c-1,0.7-1.8,1.4-2.5,2.1c-5.6,4.3-9.2,11.4-3.2,29.9c6.7,20.7-24.6,47.2-31.6,50.3
				c-0.5,0.2-1.3,0.5-2.3,0.9c-1.9-2.4-3.5-5.1-4.8-7.9c7.7-2.5,13.5-8,20.1-15.6c12.6-14.4,13.7-24.6,9.1-40.9
				c-4.6-16.3,9.6-26.1,25.9-33.7c16.3-7.6,26.5-10.9,47,12.2c20.5,23.1,19.8,29.8,14.4,44.8c-5.4,15-13.9,25.2-21.5,29.4
				c-7.6,4.1-22.8,15.5-22.4,24.6C138.6,646,131.6,630.7,137,613.5z"/>
			<path class="st5" d="M158.8,582.5c-3.9,21.5-27.5,39.2-20.1,62.5c0,0.4-0.1,0.7-0.1,1.1c0,0-7-15.3-1.6-32.5
				c4.5-11.7,11.9-21.8,11.9-34.9c0-10.4-3.5-23.2-11.5-30.3c-1.9-1.7-3.7-2.9-5.5-3.8c0.9,0.1,1.7,0.2,2.6,0.4c0,0,0,0,0.1,0
				C148.3,551.7,161.8,566,158.8,582.5z"/>
			<path class="st2" d="M170.8,573.8c9.1,1.6,13.1,6.2,14.6,8.5c-0.4,2.2-1,4.4-1.8,6.8C179.4,581.7,170.8,573.8,170.8,573.8z"/>
			<path class="st2" d="M181.6,594.7c-0.7,1.8-1.5,3.5-2.2,5.1c-2.8-6-7.3-11.7-7.3-11.7C177.1,589.9,179.9,592.5,181.6,594.7z"/>
			<path class="st2" d="M176,605.8c-0.8,1.4-1.7,2.7-2.6,3.9c-1.7-5.3-4.8-10.7-4.8-10.7C172.8,601.1,174.9,603.8,176,605.8z"/>
			<path class="st2" d="M111.3,549.4c0.1,0,0.1-0.1,0.2-0.2c1.1-0.2,2.1,0,2.7,0.4c1.2,0.8,0.4,2.1-0.8,3.9
				c-1.3,1.8-2.2,3.5-3.4,2.7c-1-0.7-2.1-3-1.6-4.7C109.3,550.8,110.3,550.1,111.3,549.4z"/>
			<path class="st6" d="M76.6,639.2c-1.2-1-2.3-2.1-3.4-3.2c-0.2-1.5,0.6-3.2,2.1-4.2c2-1.3,4.5-0.8,5.7,1.1
				c1.1,1.9,0.4,4.4-1.5,5.6C78.5,639.1,77.5,639.3,76.6,639.2z"/>
			<path class="st6" d="M91,625.8c1.3,1.7,0.9,4.2-1,5.7c-1.8,1.4-4.4,1.2-5.7-0.5c-1.3-1.7-0.9-4.2,1-5.7
				C87.2,623.9,89.7,624.1,91,625.8z"/>
			
				<ellipse transform="matrix(-0.714 0.7002 -0.7002 -0.714 601.1271 995.0505)" class="st2" cx="97.3" cy="620.3" rx="4.3" ry="4"/>
			<path class="st2" d="M107.2,607.1c1.8,1.1,2.3,3.6,1,5.6c-1.3,2-3.7,2.6-5.6,1.5s-2.3-3.6-1-5.6
				C102.9,606.6,105.4,606,107.2,607.1z"/>
			<path class="st2" d="M111.1,595c2.1,0.6,3.3,2.9,2.6,5.2c-0.7,2.3-3,3.6-5.1,3s-3.3-2.9-2.6-5.2C106.7,595.8,109,594.4,111.1,595
				z"/>
			<path class="st2" d="M110.4,582.4c2.2-0.4,4.3,1.1,4.6,3.4c0.4,2.3-1.1,4.5-3.3,4.9c-2.2,0.4-4.3-1.1-4.6-3.4
				C106.7,585.1,108.2,582.9,110.4,582.4z"/>
			<path class="st2" d="M108.4,570.3c2.1-0.4,4.1,1.1,4.4,3.5c0.4,2.3-1,4.5-3.1,4.9c-2.1,0.4-4.1-1.1-4.4-3.5
				C104.9,572.9,106.3,570.7,108.4,570.3z"/>
			<path class="st2" d="M109.8,559c1.7,0.3,2.5,2,2.1,4.1c-0.4,2.1-1.7,3.8-3.5,3.6c-1.7-0.3-2.8-2.2-2.5-4.3
				C106.3,560.2,108,558.7,109.8,559z"/>
		</g>
	</g>
	<g>
		<g id="_x37_">
			<path class="st2" d="M-73.5,303.1c0,0-35.5-15.8-50.5,10.2c-15,26-3.2,49.7-24.4,56c0,0,33.1,16.6,66.2-3.2
				C-49.1,346.4-73.5,303.1-73.5,303.1z"/>
			<path class="st3" d="M-73.5,303.1c0,0-5.3-2.3-12.6-3.7c-7.1,12.3-10.2,28.8-10.3,42c0,9.7,1.2,20.4,3.7,29.8
				c3.5-1.3,7-3,10.5-5.1C-49.1,346.4-73.5,303.1-73.5,303.1z"/>
			<path class="st4" d="M-70.8,439.5c0,0-20.9,9.9-9.9,29.2c2,3.4,7.1,5.6,14.3,6.8l-0.6,34.5c-2.1-2.4-5.1-3.9-8.5-3.9
				c-6.3,0-11.4,5.1-11.4,11.4c0,6.3,5.1,11.4,11.4,11.4c0.6,0,1.2-0.1,1.9-0.2c0,4.2,0.8,12.3,5.8,20.1c0.4,8.6,2.4,38.7-5.8,55.8
				c32.9,0,63.1,0,98,0c-2.6-17.6,2.2-43.3,3.3-49.9c9.7-9.4,11.9-21.9,10-33c0.5,0.1,1.1,0.2,1.7,0.2c6.1,0,11-4.9,11-11
				s-4.9-11-11-11c-3.4,0-6.4,1.6-8.5,4c0.3-9.8,0.6-26.3,0.8-35.4c6.3-1.1,10.1-1.8,10.1-1.8s11.4-16.6-4.3-24.8
				c0,0,9.1-28.8-20.9-61.1c-24.4-27.2-22.9-44.1-22.9-44.1s26-5.1,38.6-26c12.6-20.9,16.6-41.8-7.9-61.1s-41.4-9.5-62.3,2.8
				c-20.9,12.2-59.1,49.7-47.3,128.9C-79.4,415.4-74.7,430.4-70.8,439.5z"/>
			
				<ellipse transform="matrix(9.000375e-02 0.9959 -0.9959 9.000375e-02 432.7296 495.615)" class="st7" cx="-54.8" cy="484.6" rx="24.1" ry="25.3"/>
			
				<ellipse transform="matrix(-0.1161 0.9932 -0.9932 -0.1161 499.5596 522.2518)" class="st7" cx="17.4" cy="483.4" rx="25.9" ry="27.3"/>
			<path class="st8" d="M-44.9,482c-1.3,3.9-4.9,6.7-9.1,6.7c-4.9,0-8.9-3.6-9.5-8.4c-4.9,2.6-8.3,7.5-8.3,13.1
				c0,8.3,7.3,15,16.3,15s16.3-6.7,16.3-15C-39.2,488.9-41.4,484.8-44.9,482z"/>
			<path class="st8" d="M28.4,476.8c-0.3,4.4-3.4,8.4-8,9.5c-5.2,1.3-10.4-1.5-12.4-6.4c-4.6,4.1-6.8,10.1-5.4,16.1
				c2.2,8.8,11.8,14.1,21.3,11.7c9.6-2.4,15.6-11.5,13.4-20.3C36.3,482.6,32.8,478.8,28.4,476.8z"/>
			<path class="st8" d="M54.7,466.1c0,0-4.1,6-11.1,3.9c-0.3-0.5-0.7-1.1-1.1-1.6c1.7-0.7,6.2-3.2,6.1-10.7c0,0-2.5,6.7-9.6,6.6
				c-0.5-0.5-0.9-0.9-1.4-1.3c1.4-0.9,5.5-4.4,3.9-11.8c0,0-1.1,7.4-8.5,8.5c-3.6-2.1-7.7-3.5-12.1-4c-10.3-1.2-20,2.7-26.3,9.6
				c-11.5-5.7-23.3-1.5-27,0.1c-6.1-6.8-15.4-10.7-25.5-9.8c-4.7,0.4-9.1,1.9-12.9,4.1c-7.6-1-8.7-8.5-8.7-8.5
				c-1.7,7.6,2.7,11,4,11.8c-0.5,0.4-0.9,0.8-1.3,1.2c-7.3,0.3-9.8-6.6-9.8-6.6c-0.1,7.7,4.8,10.2,6.3,10.8c-0.3,0.5-0.7,1-1,1.5
				c-7.1,2.3-11.4-3.8-11.4-3.8c1.9,7.8,7.6,8.7,9,8.9c-1.3,3.7-1.9,7.7-1.5,11.8c1.4,15.7,16,27.2,32.5,25.8
				c16.5-1.5,28.8-15.5,27.4-31.2c-0.4-4.3-1.8-8.3-3.9-11.7c12.4-3.5,18.4-0.8,20.4,0.5c-1.8,3.1-3,6.7-3.5,10.5
				c-1.8,15.7,10.1,29.9,26.6,31.9c16.5,1.9,31.4-9.2,33.2-24.9c0.5-4.4-0.1-8.7-1.5-12.6C47.6,474.7,52.9,473.5,54.7,466.1z
				 M-53.3,505.9c-12.3,1.1-23.1-8.2-24.2-19.9c-1.1-11.7,8.1-22,20.3-23.2c12.3-1.1,23.1,7.5,24.2,19.1
				C-32,493.7-41.1,504.8-53.3,505.9z M39.8,486.6c-1.4,11.6-12.6,20.7-24.8,19.3c-12.2-1.4-21-12.8-19.6-24.4
				c1.4-11.6,12.4-19.9,24.7-18.5C32.3,464.4,41.1,475,39.8,486.6z"/>
			<path class="st5" d="M-37.8,543.1c0,0,19.8,9.2,42.9,0.9C5,543.9-9.2,565.8-37.8,543.1z"/>
			<path class="st5" d="M-48.2,431.5c-7.9-1.3-16.3,0.4-24.2,3.8l1.6,4.3c0,0,24.9-4.6,37.9,1.6C-32.8,441.1-36.4,434.8-48.2,431.5z
				"/>
			<path class="st5" d="M-1.5,438.2c-2.7,2.2-3.5,4-3.5,4c23.8-9.3,42.3-0.4,42.3-0.4c0.6-1.4,0.9-4.5,1.1-6.7
				C25.8,429.8,10.5,431.2-1.5,438.2z"/>
			<path class="st2" d="M0.2,402.4c0,0-17.6-17-45.1-9c-24.5,7.1-22.7,27.5-22.7,27.5S-54.6,396.9,0.2,402.4z"/>
			<path class="st2" d="M-24.8,362.1c0,0-16.4-15.2-38.4-6.5c-18.6,7.4-13,26.3-13,26.3S-65,355.3-24.8,362.1z"/>
			<path class="st2" d="M-37,331.4c0,0-13.3-15.1-35.5-8C-87.5,328.1-84,345-84,345C-83.1,345.3-73.6,326.3-37,331.4z"/>
			<path class="st2" d="M-42.4,302.7c0,0-11-12.2-33.7-6.7c-1.4,3.1-2.8,6.4-4,9.9C-65.2,299.4-42.4,302.7-42.4,302.7z"/>
			<path class="st2" d="M-43.8,275.9c0,0-2.4-9.8-11.6-10.1c-2,2-4,4.2-6,6.6C-50.3,272.3-43.8,275.9-43.8,275.9z"/>
			<path class="st2" d="M23.6,294.6c0,0,9,1.3,16,0.3c2-5.9,2.9-11.7,2.3-17.5C40.5,282,35.5,293.8,23.6,294.6z"/>
			<path class="st2" d="M5.7,310.6c0,0,5.2,9.4,14.3,13.5c3.7-2.9,7.3-6.5,10.3-10.7C27.6,314.1,16.3,316.8,5.7,310.6z"/>
			<path class="st5" d="M-6.5,336.8c0,0-3.5-43.1,7.3-55.6c0,0-9.5,24.2,7.1,50.3C7.9,331.5,1.9,334.5-6.5,336.8z"/>
			<path class="st8" d="M-1.6,518.7c0,0,2.1,0.6,4.5,1.8l0.1,0.5c0,1.6-1,2.3-1.7,2.6c-2,0.9-10.4,2.8-22.1,0.7
				c0,0,7.7,5.2,20.3,2.7c0,0,1.1-0.2,2.1-0.6c0.6-0.2,1.1-0.5,1.6-0.8c0.3-0.2,0.5-0.4,0.8-0.6c0.1-0.1,0.1-0.1,0.2-0.2l0,0
				c0.6-0.6,1.1-1.6,1.2-3c1.4,1,2.7,2.1,3.7,3.9C9.1,525.7,8.5,515.9-1.6,518.7z"/>
		</g>
		<g>
			<path class="st9" d="M122.8,669c0,7.6-6.2,13.8-13.8,13.8h-254.1c-7.6,0-13.8-6.2-13.8-13.8V549.9c0-7.6,6.2-13.8,13.8-13.8H109
				c7.6,0,13.8,6.2,13.8,13.8L122.8,669L122.8,669z"/>
		</g>
		<path id="Shape_38_" class="st10" d="M-8,599.6l-25,8.1l-2.5,0.7c-4.3,0.8-8.2,4.4-7.6,10.1c0.7,5.8,5.8,8.1,10.7,7.8l39.7,0.3
			l0.1-9.9l-35-0.3l25-7.9l2.5-0.7c4.3-0.8,8.3-4.5,7.6-10.2c-0.7-5.8-5.8-7.8-10.7-7.9l-40.3-0.3l-0.1,9.9L-8,599.6L-8,599.6
			L-8,599.6L-8,599.6z"/>
	</g>
</g>
<g>
	<path class="st11" d="M-246.5,365.7c0.5,0.8,27.5,0.7,28.2,0c0.3-0.2,0.4-2.4,0.5-5.1c1.2,0.7,4.1,2.4,4.6,2
		c0.6-0.5,2.8-10.5,2.2-11.4c-0.5-0.7-5.3,1.7-6.9,2.5c-0.1-2.9-0.2-5.2-0.5-5.4c-0.7-0.4-27.6-0.8-28.2,0
		C-247.1,349-247,364.9-246.5,365.7z"/>
	<ellipse class="st9" cx="-243.8" cy="359.6" rx="1" ry="1.7"/>
	<path class="st12" d="M-244.8,359.6c0,0.9,0.4,1.7,1,1.7c0.6,0,1-0.8,1-1.7c0-0.1,0-0.2,0-0.3c-0.1,0.2-0.2,0.3-0.4,0.3
		c-0.3,0-0.5-0.3-0.5-0.6c0-0.3,0.2-0.6,0.5-0.6c0.1,0,0.1,0,0.2,0c-0.2-0.3-0.4-0.5-0.7-0.5C-244.4,357.8-244.8,358.6-244.8,359.6z
		"/>
	<path class="st12" d="M-236.3,357.1c-4.5,3.4-6,6.7-6,6.7c2.2-3.1,6.4-6.2,6.4-6.2c0,0,0,0,0,0c1.9,0.5,2.5,0.9,3.6,1.4
		c0,0,1.1-0.1,2.5-0.7c1.3-0.7,4.9-2.5,5.3-2.1c0.5,0.5-0.7,7.3-1.1,7.6c-0.5,0.4-4.2-1.1-4.2-1.1s0.5,0.4,1.1,0.7
		c0.9,0.4,1.5,0.7,2.9,1c0.6,0.1,1-0.7,1.1-1c0.1-0.2,0.3-1.3,0.5-2.5c1.1,0.9,2.3,2,3.1,3c0,0-0.8-1.7-3-3.8c0.2-1,0.3-2.1,0.4-3
		c0.1-1-0.4-1.9-1.4-1.5c-0.1,0.1-0.3,0.1-0.5,0.2c2.1-1.5,4.6-3.8,7.5-7.1c0,0-6.8,6.7-13.8,9.1c0,0-10.4-4-14.7-9.1
		C-246.6,348.6-244.3,353.1-236.3,357.1z"/>
</g>
<g>
	<path class="st9" d="M-284.2,329c1.5,2,73.1,1.7,75.1,0c0.7-0.6,1.1-6.3,1.3-13.6c3.2,1.9,11,6.3,12.3,5.2c1.7-1.3,7.4-27.9,6-30.3
		c-1.2-2-14.2,4.5-18.3,6.7c-0.2-7.7-0.7-14-1.3-14.4c-1.7-1.2-73.4-2-75.1,0C-286,284.7-285.7,326.9-284.2,329z"/>
	<ellipse class="st10" cx="-277.1" cy="312.7" rx="2.7" ry="4.6"/>
	<path class="st12" d="M-279.8,312.7c0,2.5,1.2,4.6,2.7,4.6c1.5,0,2.7-2,2.7-4.6c0-0.3,0-0.6-0.1-0.9c-0.2,0.5-0.7,0.8-1.2,0.8
		c-0.8,0-1.4-0.7-1.4-1.6c0-0.9,0.6-1.6,1.4-1.6c0.2,0,0.3,0,0.5,0.1c-0.5-0.9-1.2-1.4-1.9-1.4
		C-278.6,308.1-279.8,310.2-279.8,312.7z"/>
	<path class="st11" d="M-256.7,306.1c-11.9,9-15.4,17.8-15.4,17.8c5.9-8.3,18-16.6,18-16.6c0,0,0,0,0,0c1.9,1.3,5.6,2.5,8.8,3.7
		c0,0,2-0.2,5.7-1.9c3.5-1.8,13-6.7,14.1-5.6c1.3,1.5-1.8,19.3-3.1,20.3c-1.3,1-11.3-3-11.3-3s1.3,1.1,2.9,1.9c2.3,1,4,1.9,7.7,2.6
		c1.6,0.2,2.7-1.8,2.9-2.7c0.2-0.6,0.8-3.4,1.4-6.7c3,2.5,6,5.2,8.2,8c0,0-2-4.4-7.9-10.2c0.5-2.7,0.8-5.6,1-7.9
		c0.2-2.7-1-5.2-3.8-4c-0.4,0.1-0.8,0.3-1.2,0.5c5.5-4.1,12.2-10.1,20-18.9c0,0-18,17.7-36.6,24.3c0,0-27.7-10.8-39.2-24.3
		C-284.5,283.5-277.8,295.5-256.7,306.1z"/>
</g>
<g>
	<path class="st9" d="M226.3,313.7c-0.6-0.6-23.3-0.4-23.9,0c-0.2,0.1-0.3,2.1-0.4,4.6c-1.3-0.7-5.4-2.8-5.8-2.1
		c-0.5,0.8,1.4,9.2,1.9,9.6c0.4,0.3,2.9-1.1,3.9-1.7c0.1,2.3,0.2,4.1,0.4,4.3c0.6,0.6,23.4,0.6,23.9,0
		C226.8,327.8,226.9,314.3,226.3,313.7z"/>
	<ellipse class="st10" cx="224.1" cy="323.2" rx="0.8" ry="1.4"/>
	<path class="st12" d="M224.1,321.8c-0.2,0-0.5,0.2-0.6,0.4c0,0,0.1,0,0.2,0c0.2,0,0.4,0.2,0.4,0.5s-0.2,0.5-0.4,0.5
		c-0.2,0-0.3-0.1-0.4-0.3c0,0.1,0,0.2,0,0.3c0,0.8,0.4,1.4,0.8,1.4s0.8-0.6,0.8-1.4C224.9,322.4,224.6,321.8,224.1,321.8z"/>
	<path class="st11" d="M226.4,314c-3.6,4.3-12.4,7.7-12.4,7.7c-5.9-2.1-11.6-7.7-11.6-7.7c2.5,2.8,4.6,4.7,6.4,6
		c-0.1-0.1-0.3-0.1-0.4-0.2c-0.9-0.4-1.3,0.4-1.2,1.3c0,0.7,0.2,1.6,0.3,2.5c-1.9,1.8-2.5,3.2-2.5,3.2c0.7-0.9,1.7-1.8,2.6-2.5
		c0.2,1.1,0.4,1.9,0.5,2.1c0.1,0.3,0.4,0.9,0.9,0.9c1.2-0.2,1.7-0.5,2.4-0.8c0.5-0.3,0.9-0.6,0.9-0.6s-3.2,1.3-3.6,1
		c-0.4-0.3-1.4-6-1-6.5c0.3-0.4,3.4,1.2,4.5,1.8c1.2,0.5,1.7,0.6,1.7,0.6c1-0.4,2.7-0.8,2.7-1.2c0,0,0,0,0,0s3.9,2.6,5.8,5.3
		c0,0-1.1-2.8-4.9-5.7C224.3,317.8,226.4,314,226.4,314z"/>
</g>
<g>
	<path class="st11" d="M212,345.5c-1.4-1.7-59.8-0.9-61.2,0c-0.5,0.4-0.9,5.4-1.1,11.7c-3.4-1.8-13.9-7.1-14.9-5.4
		c-1.2,1.9,3.5,23.6,4.9,24.7c1.1,0.9,7.5-2.8,10.1-4.3c0.1,5.9,0.5,10.6,1.1,11.1c1.7,1.4,60,1.7,61.2,0
		C213.2,381.6,213.4,347.2,212,345.5z"/>
	<ellipse class="st9" cx="206.2" cy="370" rx="2.2" ry="3.7"/>
	<path class="st12" d="M206.2,366.3c-0.6,0-1.2,0.4-1.6,1.1c0.1-0.1,0.2-0.1,0.4-0.1c0.6,0,1.1,0.6,1.1,1.3c0,0.7-0.5,1.3-1.1,1.3
		c-0.4,0-0.8-0.3-1-0.7c0,0.2,0,0.5,0,0.7c0,2.1,1,3.7,2.2,3.7c1.2,0,2.2-1.7,2.2-3.7C208.4,367.9,207.4,366.3,206.2,366.3z"/>
	<path class="st12" d="M212.3,346.2c-9.4,11-31.9,19.8-31.9,19.8c-15.1-5.3-29.8-19.8-29.8-19.8c6.4,7.2,11.9,12.1,16.3,15.4
		c-0.4-0.2-0.7-0.3-1-0.4c-2.3-0.9-3.2,1.1-3.1,3.3c0.1,1.9,0.4,4.2,0.8,6.4c-4.8,4.7-6.4,8.3-6.4,8.3c1.8-2.3,4.3-4.5,6.7-6.5
		c0.5,2.7,1,5,1.2,5.5c0.2,0.7,1,2.4,2.4,2.2c3-0.6,4.4-1.3,6.3-2.1c1.3-0.7,2.3-1.6,2.3-1.6s-8.2,3.2-9.2,2.4
		c-1-0.8-3.6-15.4-2.5-16.6c0.9-1,8.6,3,11.5,4.5c3,1.4,5.1,1.6,5.1,1.6c2.6-1,4.8-2,7.6-3c0,0,0,0,0,0c0,0,9.4,6.7,14.2,13.5
		c0,0-3.1-7.2-12.8-14.5C207,356,212.3,346.2,212.3,346.2z"/>
</g>
<g>
	<path class="st9" d="M-219.9,265.6c1.2,1.6,57.9,1.4,59.5,0c0.6-0.5,0.9-5,1-10.7c2.5,1.5,8.7,5,9.8,4.2c1.3-1,5.9-22.1,4.7-24
		c-1-1.6-11.2,3.6-14.5,5.3c-0.2-6.1-0.5-11.1-1-11.4c-1.4-0.9-58.1-1.6-59.5,0C-221.3,230.6-221.1,264-219.9,265.6z"/>
	<ellipse class="st10" cx="-214.3" cy="252.8" rx="2.1" ry="3.6"/>
	<path class="st12" d="M-216.4,252.8c0,2,0.9,3.6,2.1,3.6c1.2,0,2.1-1.6,2.1-3.6c0-0.2,0-0.5,0-0.7c-0.2,0.4-0.5,0.7-0.9,0.7
		c-0.6,0-1.1-0.6-1.1-1.3c0-0.7,0.5-1.3,1.1-1.3c0.1,0,0.3,0,0.4,0.1c-0.4-0.7-0.9-1.1-1.5-1.1
		C-215.5,249.1-216.4,250.8-216.4,252.8z"/>
	<path class="st11" d="M-198.3,247.5c-9.4,7.1-12.4,14.1-12.4,14.1c4.7-6.6,14-13.1,14-13.1c0,0,0,0,0,0c1,1,4.7,2,7.2,2.9
		c0,0,1.8-0.2,4.8-1.5c2.8-1.5,10.3-5.3,11.1-4.4c1,1.2-1.4,15.3-2.4,16.1c-1,0.8-8.9-2.4-8.9-2.4s1,0.9,2.3,1.5
		c1.8,0.8,3.2,1.5,6.1,2c1.3,0.2,2.1-1.4,2.3-2.1c0.2-0.5,0.6-2.7,1.1-5.3c2.4,1.9,4.8,4.1,6.5,6.3c0,0-1.6-3.5-6.2-8
		c0.4-2.1,0.7-4.4,0.8-6.2c0.1-2.1-0.8-4.1-3-3.2c-0.3,0.1-0.6,0.3-1,0.4c4.3-3.2,9.7-8,15.9-15c0,0-14.3,14-29,19.2
		c0,0-21.9-8.5-31-19.2C-220.2,229.6-215,239.1-198.3,247.5z"/>
</g>
<g>
	<path class="st9" d="M189.7,259.6c-1.4-1.6-58.9-0.9-60.3,0c-0.5,0.3-0.9,5.3-1,11.6c-3.4-1.7-13.7-7-14.7-5.4
		c-1.2,1.9,3.4,23.2,4.8,24.3c1.1,0.8,7.4-2.7,9.9-4.2c0.1,5.8,0.5,10.4,1.1,10.9c1.6,1.4,59.1,1.6,60.3,0
		C190.9,295.2,191.1,261.3,189.7,259.6z"/>
	<ellipse class="st10" cx="184" cy="283.8" rx="2.1" ry="3.7"/>
	<path class="st12" d="M184,280.1c-0.6,0-1.1,0.4-1.5,1.1c0.1-0.1,0.2-0.1,0.4-0.1c0.6,0,1.1,0.6,1.1,1.3c0,0.7-0.5,1.3-1.1,1.3
		c-0.4,0-0.8-0.3-0.9-0.7c0,0.2,0,0.5,0,0.7c0,2,1,3.7,2.1,3.7s2.1-1.6,2.1-3.7C186.2,281.7,185.2,280.1,184,280.1z"/>
	<path class="st11" d="M190,260.3c-9.2,10.8-31.5,19.5-31.5,19.5c-14.9-5.3-29.4-19.5-29.4-19.5c6.3,7.1,11.7,11.9,16.1,15.2
		c-0.4-0.2-0.7-0.3-1-0.4c-2.3-0.9-3.2,1.1-3.1,3.2c0.1,1.8,0.4,4.1,0.8,6.3c-4.7,4.6-6.3,8.2-6.3,8.2c1.8-2.2,4.2-4.4,6.6-6.4
		c0.5,2.7,1,4.9,1.1,5.4c0.2,0.7,1,2.4,2.4,2.2c3-0.6,4.3-1.2,6.2-2.1c1.2-0.7,2.3-1.5,2.3-1.5s-8,3.2-9.1,2.4
		c-1-0.8-3.5-15.2-2.5-16.3c0.9-1,8.5,3,11.3,4.5c3,1.4,3.9,1.6,3.9,1.6c2.5-1,5.4-1.9,6.4-3c0,0,0,0,0,0c0,0,10.4,6.6,15.2,13.3
		c0,0-2.5-7.1-12-14.3C184.2,270,190,260.3,190,260.3z"/>
</g>
</svg>
