<?xml version="1.0" encoding="utf-8"?>
<!-- Generator: Adobe Illustrator 19.1.0, SVG Export Plug-In . SVG Version: 6.00 Build 0)  -->
<svg version="1.1" id="Layer_1" xmlns="http://www.w3.org/2000/svg" xmlns:xlink="http://www.w3.org/1999/xlink" x="0px" y="0px"
	 width="700px" height="407px" viewBox="215 -68 700 407" style="enable-background:new 215 -68 700 407;" xml:space="preserve">
<style type="text/css">
	.st0{display:none;}
	.st1{display:inline;fill:#012B31;}
	.st2{fill:#737F83;}
	.st3{fill:#8C989B;}
	.st4{fill:#3F3F3F;}
	.st5{fill:#5B5A5C;}
	.st6{fill:#E9BAA9;}
	.st7{fill:#DFA696;}
	.st8{fill:#CC7691;}
	.st9{fill:#FFFFFF;}
	.st10{fill:#3A3A3A;}
	.st11{fill:#B75978;}
</style>
<g id="Bg" class="st0">
	<polygon class="st1" points="1360.3,-517 1297.3,-517 717.3,-517 717.3,75 1037.3,75 1037.3,183 1360.3,183 1360.3,-167 
		1936.3,-167 1936.3,-517 	"/>
</g>
<g>
	<path class="st2" d="M479.8,279.3c-0.3-0.4-13.3-0.2-13.7,0c-0.1,0.1-0.2,1.2-0.2,2.6c-0.8-0.4-3.2-1.6-3.3-1.2
		c-0.3,0.5,0.8,5.2,1.1,5.5c0.2,0.2,1.6-0.6,2.2-1c0.1,1.3,0.1,2.3,0.2,2.5c0.4,0.3,13.3,0.4,13.7,0
		C480,287.3,480,279.7,479.8,279.3z"/>
	<ellipse class="st3" cx="478.5" cy="284.8" rx="0.5" ry="0.8"/>
	<path class="st4" d="M478.5,283.9c-0.2,0-0.3,0.1-0.4,0.2c0.1,0,0.1-0.1,0.1-0.1c0.2,0,0.2,0.1,0.2,0.3c0,0.2-0.1,0.3-0.2,0.3
		s-0.2-0.1-0.2-0.2c0,0.1,0,0.1,0,0.2c0,0.5,0.2,0.8,0.5,0.8c0.2,0,0.5-0.4,0.5-0.8C479,284.3,478.7,283.9,478.5,283.9z"/>
	<path class="st5" d="M479.8,279.4c-2.1,2.4-7,4.3-7,4.3c-3.4-1.2-6.7-4.3-6.7-4.3c1.4,1.6,2.6,2.6,3.6,3.4
		c-0.1-0.1-0.2-0.1-0.2-0.1c-0.5-0.2-0.7,0.2-0.7,0.7c0.1,0.5,0.1,0.9,0.2,1.4c-1.1,1.1-1.4,1.9-1.4,1.9c0.4-0.5,0.9-1,1.5-1.4
		c0.1,0.6,0.2,1.2,0.3,1.3c0.1,0.2,0.2,0.5,0.5,0.5c0.7-0.1,1-0.3,1.4-0.5c0.3-0.2,0.5-0.4,0.5-0.4s-1.9,0.7-2.1,0.5
		s-0.8-3.4-0.5-3.7c0.2-0.2,1.9,0.7,2.5,1c0.7,0.3,1.1,0.4,1.1,0.4c0.5-0.2,1.3-0.5,1.6-0.7l0,0c0,0,2.2,1.5,3.2,3
		c0,0-0.7-1.6-2.8-3.2C478.6,281.7,479.8,279.4,479.8,279.4z"/>
</g>
<g>
	<path class="st5" d="M506,293.2c-0.5-0.5-18.2-0.3-18.6,0c-0.2,0.1-0.3,1.6-0.3,3.5c-1.1-0.5-4.2-2.2-4.6-1.6
		c-0.4,0.5,1.1,7.2,1.5,7.6c0.3,0.3,2.3-0.8,3.1-1.4c0.1,1.8,0.2,3.2,0.3,3.4c0.5,0.5,18.3,0.5,18.6,0
		C506.3,304.2,506.4,293.6,506,293.2z"/>
	<ellipse class="st2" cx="504.2" cy="300.6" rx="0.6" ry="1.2"/>
	<path class="st4" d="M504.2,299.5c-0.2,0-0.4,0.1-0.5,0.3c0.1,0,0.1-0.1,0.1-0.1c0.2,0,0.3,0.2,0.3,0.5c0,0.2-0.2,0.5-0.3,0.5
		c-0.1,0-0.2-0.1-0.3-0.2c0,0.1,0,0.2,0,0.2c0,0.6,0.3,1.2,0.6,1.2c0.4,0,0.6-0.5,0.6-1.2C504.8,299.9,504.5,299.5,504.2,299.5z"/>
	<path class="st4" d="M506.1,293.4c-2.9,3.3-9.6,6-9.6,6c-4.6-1.6-9-6-9-6c2,2.2,3.6,3.6,5,4.7c-0.1-0.1-0.2-0.1-0.3-0.2
		c-0.7-0.3-1,0.3-0.9,1c0.1,0.5,0.1,1.3,0.3,2c-1.4,1.4-2,2.5-2,2.5c0.5-0.7,1.3-1.4,2.1-2c0.2,0.8,0.3,1.5,0.4,1.7s0.3,0.7,0.7,0.7
		c0.9-0.2,1.4-0.4,1.9-0.6c0.4-0.2,0.7-0.5,0.7-0.5s-2.5,1-2.9,0.7s-1.1-4.7-0.7-5c0.3-0.3,2.6,0.9,3.5,1.4s1.3,0.5,1.3,0.5
		c0.8-0.3,2.1-0.5,2.1-0.9l0,0c0,0,3.2,2.1,4.6,4.1c0,0-0.8-2.2-3.8-4.5C504.3,296.3,506.1,293.4,506.1,293.4z"/>
</g>
<g>
	<path class="st6" d="M652.4,259.5c11.1,6.6,22.3,1.1,22.3,1.1c-7.2-2.1-3.2-10.1-8.2-18.8c-5-8.7-17-3.5-17-3.5
		S641.3,252.9,652.4,259.5z"/>
	<path class="st7" d="M652.4,259.5c1.1,0.7,2.4,1.3,3.5,1.6c0.9-3.2,1.3-6.7,1.3-10c0-4.4-1-10-3.5-14.2c-2.5,0.5-4.2,1.3-4.2,1.3
		S641.3,252.9,652.4,259.5z"/>
	<path class="st8" d="M653.5,264.7c4-26.7-8.9-39.3-16-43.4s-12.7-7.5-21-0.9c-8.3,6.6-7,13.5-2.7,20.6c4.3,7,12.9,8.7,12.9,8.7
		s0.5,5.7-7.7,14.8c-10.1,10.9-7,20.6-7,20.6c-5.3,2.8-1.6,8.5-1.6,8.5s1.3,0.3,3.5,0.6c0.1,3,0.2,8.5,0.3,11.9
		c-0.7-0.8-1.6-1.3-2.9-1.3c-2.1,0-3.7,1.6-3.7,3.7c0,2.1,1.6,3.7,3.7,3.7c0.3,0,0.4,0,0.6-0.1c-0.7,3.8,0.1,7.9,3.4,11.1
		c0.3,2.2,2,10.8,1.1,16.7c11.7,0,21.8,0,33,0c-2.8-5.7-2.1-15.8-1.9-18.8c1.6-2.7,1.9-5.3,1.9-6.7c0.3,0,0.4,0.1,0.7,0.1
		c2.2,0,3.9-1.7,3.9-3.9c0-2.2-1.7-3.9-3.9-3.9c-1.1,0-2.2,0.5-2.9,1.3l-0.3-11.7c2.4-0.4,4.1-1.1,4.8-2.2c3.7-6.5-3.3-9.8-3.3-9.8
		C649.9,281.2,651.5,276.1,653.5,264.7z"/>
	
		<ellipse transform="matrix(-9.002916e-02 0.9959 -0.9959 -9.002916e-02 999.4286 -314.2421)" class="st9" cx="643.3" cy="299.5" rx="8.1" ry="8.5"/>
	
		<ellipse transform="matrix(0.1161 0.9932 -0.9932 0.1161 843.9734 -350.5081)" class="st9" cx="618.9" cy="298.9" rx="8.7" ry="9.2"/>
	<path class="st10" d="M619.6,296.2c-0.4,1.3-1.6,2.2-3.1,2.2c-1.6,0-2.9-1.2-3.3-2.8c-1.6,0.9-2.8,2.5-2.8,4.4c0,2.8,2.4,5,5.5,5
		s5.5-2.2,5.5-5C621.5,298.4,620.7,297.2,619.6,296.2z"/>
	<path class="st10" d="M644.3,294.4c-0.1,1.6-1.1,2.8-2.8,3.2c-1.7,0.4-3.5-0.4-4.1-2.2c-1.6,1.4-2.2,3.5-1.8,5.4
		c0.7,2.9,3.9,4.7,7.2,3.9c3.3-0.8,5.3-3.9,4.5-6.8C646.9,296.2,645.8,295,644.3,294.4z"/>
	<path class="st10" d="M609.2,296.1c-0.4,1.3-0.7,2.8-0.4,4.3c0.7,5.3,5.7,9,11.2,8.5c5.6-0.7,9.6-5.4,8.9-10.7
		c-0.2-1.3-0.6-2.4-1.1-3.5c0.7-0.4,2.8-1.3,6.8-0.2c-0.7,1.1-1.1,2.5-1.3,3.9c-0.4,5.3,3.7,10,9.3,10.4c5.6,0.5,10.5-3.5,11-8.7
		c0.1-1.3-0.1-2.8-0.5-4c0.4-0.1,2.4-0.4,2.9-2.9c0,0-1.5,2.1-3.9,1.3c-0.1-0.2-0.2-0.3-0.3-0.4c0.4-0.2,2.2-0.9,2.1-3.6
		c0,0-0.9,2.2-3.3,2.2c-0.2-0.2-0.3-0.3-0.4-0.4c0.4-0.3,1.9-1.4,1.3-4c0,0-0.3,2.5-2.9,2.9c-1.3-0.8-2.8-1.3-4.3-1.4
		c-3.5-0.3-6.6,1-8.5,3.3c-1.2-0.5-5.3-1.9-9.1,0c-2.1-2.4-5.3-3.6-8.8-3.3c-1.5,0.2-2.8,0.7-4.1,1.3c-2.5-0.3-2.9-2.9-2.9-2.9
		c-0.6,2.5,0.8,3.6,1.3,4c-0.2,0.2-0.3,0.3-0.4,0.4c-2.4,0.1-3.3-2.2-3.3-2.2c-0.1,2.5,1.6,3.5,2.1,3.6c-0.2,0.2-0.3,0.3-0.3,0.5
		c-2.4,0.7-3.8-1.3-3.8-1.3C607,295.7,608.7,296.1,609.2,296.1z M635.8,298.6c0.3-3.9,4.1-6.8,8.1-6.5c4.1,0.4,7.2,3.9,6.8,7.9
		c-0.3,3.9-4.1,7.1-8.1,6.6C638.5,306.2,635.6,302.5,635.8,298.6z M618,292c4.1-0.4,7.9,2.4,8.3,6.2c0.4,3.9-2.5,7.8-6.6,8.2
		s-7.9-2.6-8.4-6.5C610.9,296.2,613.9,292.6,618,292z"/>
	<path class="st11" d="M626.2,319.8c7.8,2.8,14.3-0.3,14.3-0.3C630.8,327.1,626.2,319.7,626.2,319.8z"/>
	<path class="st11" d="M635.8,284.8c4.3-2.1,12.8-0.5,12.8-0.5l0.5-1.5c-2.7-1.1-5.5-1.6-8.1-1.3C637,282.6,635.7,284.8,635.8,284.8
		z"/>
	<path class="st11" d="M611.9,282.8c0.1,0.7,0.2,1.8,0.3,2.2c0,0,6.2-2.9,14.2,0.2c0,0-0.3-0.7-1.2-1.3
		C621.2,281.4,616.1,280.9,611.9,282.8z"/>
	<path class="st6" d="M647.5,278c0,0,0.7-7-7.6-9.3c-9.2-2.7-15.2,2.9-15.2,2.9C643.1,269.8,647.5,278,647.5,278z"/>
	<path class="st6" d="M650.4,264.8c0,0,1.9-6.3-4.4-8.9c-7.4-2.9-12.9,2.2-12.9,2.2C646.6,255.9,650.4,264.8,650.4,264.8z"/>
	<path class="st6" d="M653,252.4c0,0,1.1-5.6-3.9-7.2c-7.5-2.4-11.9,2.8-11.9,2.8C649.6,246.1,652.7,252.5,653,252.4z"/>
	<path class="st6" d="M651.7,239.2c-0.4-1.1-0.9-2.2-1.3-3.3c-7.7-1.9-11.4,2.2-11.4,2.2S646.6,237,651.7,239.2z"/>
	<path class="st6" d="M645.3,228c-0.7-0.7-1.3-1.6-2.1-2.2c-3.1,0.1-3.9,3.5-3.9,3.5S641.6,228,645.3,228z"/>
	<path class="st6" d="M610.6,229.6c-0.3,2,0.1,3.9,0.7,5.9c2.4,0.3,5.4-0.1,5.4-0.1C612.9,235.1,611.1,231.2,610.6,229.6z"/>
	<path class="st6" d="M614.6,241.8c1,1.5,2.2,2.6,3.5,3.6c3-1.4,4.7-4.6,4.7-4.6C619.3,242.9,615.5,242,614.6,241.8z"/>
	<path class="st11" d="M622.1,247.9c5.6-8.7,2.4-16.9,2.4-16.9c3.6,4.1,2.4,18.7,2.4,18.7C624.1,248.9,622,247.9,622.1,247.9z"/>
	<path class="st10" d="M634.5,310.8c0,0,0.7,0.2,1.6,0.6l0.1,0.2c0,0.5-0.3,0.8-0.5,0.9c-0.7,0.3-3.5,0.9-7.4,0.3
		c0,0,2.6,1.7,6.8,0.9c0,0,0.3-0.1,0.7-0.3c0.2-0.1,0.3-0.2,0.5-0.3c0.1-0.1,0.2-0.2,0.3-0.3c0-0.1,0.1-0.1,0.1-0.1l0,0
		c0.2-0.3,0.3-0.5,0.4-1c0.4,0.3,0.9,0.7,1.3,1.3C638.2,313.2,638,309.9,634.5,310.8z"/>
</g>
<g>
	<path class="st2" d="M530.1,264.4c-0.6-0.7-25.8-0.5-26.5,0c-0.2,0.2-0.4,2.3-0.5,5.1c-1.5-0.7-6-3.1-6.5-2.3
		c-0.5,0.8,1.5,10.3,2.2,10.6c0.5,0.4,3.2-1.2,4.3-1.9c0.1,2.5,0.2,4.6,0.5,4.8c0.7,0.6,25.9,0.7,26.5,0
		C530.5,280,530.7,265.2,530.1,264.4z"/>
	<ellipse class="st3" cx="527.6" cy="275" rx="0.9" ry="1.5"/>
	<path class="st4" d="M527.6,273.4c-0.3,0-0.5,0.2-0.7,0.5c0.1,0,0.1-0.1,0.2-0.1c0.3,0,0.5,0.3,0.5,0.5s-0.2,0.5-0.5,0.5
		c-0.2,0-0.3-0.1-0.5-0.3c0,0.1,0,0.2,0,0.3c0,0.9,0.5,1.5,0.9,1.5s0.9-0.7,0.9-1.5C528.5,274.1,528,273.4,527.6,273.4z"/>
	<path class="st5" d="M530.2,264.7c-4.1,4.8-13.9,8.6-13.9,8.6c-6.6-2.3-12.9-8.6-12.9-8.6c2.8,3.2,5.1,5.2,7,6.7
		c-0.2-0.1-0.3-0.2-0.5-0.2c-1-0.5-1.4,0.5-1.4,1.4c0.1,0.8,0.2,1.8,0.3,2.8c-2.1,2-2.8,3.6-2.8,3.6c0.8-0.9,1.9-2,2.9-2.9
		c0.2,1.2,0.5,2.2,0.5,2.4c0.1,0.3,0.5,1.1,1,0.9c1.4-0.3,1.9-0.5,2.7-0.9c0.5-0.3,1-0.7,1-0.7s-3.5,1.4-4,1.1s-1.5-6.7-1.1-7.2
		s3.7,1.4,5,2c1.4,0.5,2,0.7,2,0.7c1.2-0.5,2.2-0.8,3.1-1.4l0,0c0,0,4.2,2.9,6.3,5.9c0,0-1.2-3.2-5.5-6.3
		C527.8,269,530.2,264.7,530.2,264.7z"/>
</g>
<g>
	<path class="st5" d="M589.9,269.9c-0.4-0.5-14.8-0.2-15.2,0c-0.2,0.1-0.2,1.4-0.3,2.9c-0.8-0.5-3.5-1.8-3.7-1.4
		c-0.3,0.5,0.8,5.9,1.2,6.1c0.3,0.2,1.9-0.7,2.5-1.1c0.1,1.5,0.2,2.6,0.3,2.8c0.5,0.4,14.9,0.5,15.2,0
		C590.2,278.8,590.2,270.3,589.9,269.9z"/>
	<ellipse class="st2" cx="588.4" cy="276" rx="0.5" ry="0.9"/>
	<path class="st4" d="M588.4,275.1c-0.2,0-0.3,0.1-0.4,0.3c0.1,0,0.1-0.1,0.1-0.1c0.2,0,0.3,0.2,0.3,0.4c0,0.2-0.2,0.4-0.3,0.4
		s-0.2-0.1-0.3-0.2c0,0.1,0,0.2,0,0.2c0,0.5,0.3,0.9,0.5,0.9c0.3,0,0.5-0.5,0.5-0.9C589,275.4,588.8,275.1,588.4,275.1z"/>
	<path class="st4" d="M590,270c-2.3,2.7-7.9,4.9-7.9,4.9c-3.8-1.4-7.4-4.9-7.4-4.9c1.5,1.8,2.9,3,4.1,3.9c-0.1-0.1-0.2-0.1-0.3-0.2
		c-0.5-0.2-0.8,0.3-0.8,0.8c0.1,0.5,0.1,1.1,0.2,1.5c-1.2,1.2-1.5,2.1-1.5,2.1c0.5-0.5,1.1-1.2,1.7-1.5c0.2,0.7,0.3,1.3,0.3,1.4
		c0.1,0.2,0.3,0.6,0.6,0.5c0.7-0.2,1.1-0.3,1.5-0.5c0.3-0.2,0.5-0.4,0.5-0.4s-2.1,0.8-2.3,0.6c-0.3-0.2-0.8-3.8-0.6-4.1
		c0.2-0.3,2.2,0.7,2.9,1.2c0.7,0.4,1.1,0.4,1.1,0.4c0.6-0.3,1.7-0.5,1.7-0.7l0,0c0,0,2.5,1.7,3.8,3.3c0,0-0.6-1.8-3.1-3.6
		C588.5,272.5,590,270,590,270z"/>
</g>
<g>
	<path class="st2" d="M572.9,284.3c-0.5-0.6-21.1-0.4-21.6,0c-0.2,0.2-0.3,1.9-0.4,4.1c-1.2-0.6-4.9-2.5-5.2-1.9
		c-0.5,0.7,1.2,8.3,1.7,8.6c0.4,0.3,2.6-0.9,3.5-1.5c0.1,2.1,0.2,3.7,0.4,3.9c0.6,0.5,21.2,0.6,21.6,0
		C573.3,297.1,573.3,284.9,572.9,284.3z"/>
	<ellipse class="st3" cx="570.8" cy="292.9" rx="0.8" ry="1.3"/>
	<path class="st4" d="M570.8,291.7c-0.2,0-0.4,0.2-0.5,0.4c0.1,0,0.1-0.1,0.2-0.1c0.2,0,0.4,0.2,0.4,0.5c0,0.4-0.2,0.5-0.4,0.5
		s-0.3-0.1-0.4-0.3c0,0.1,0,0.2,0,0.3c0,0.7,0.4,1.3,0.8,1.3s0.8-0.6,0.8-1.3C571.5,292.3,571.2,291.7,570.8,291.7z"/>
	<path class="st5" d="M573,284.5c-3.2,3.9-11.3,6.9-11.3,6.9c-5.3-1.9-10.5-6.9-10.5-6.9c2.3,2.5,4.2,4.2,5.8,5.5
		c-0.2-0.1-0.3-0.2-0.4-0.2c-0.8-0.4-1.2,0.4-1.1,1.2c0.1,0.6,0.2,1.5,0.3,2.3c-1.7,1.6-2.3,2.9-2.3,2.9c0.6-0.8,1.5-1.5,2.3-2.3
		c0.2,0.9,0.4,1.8,0.5,1.9c0.1,0.3,0.4,0.8,0.8,0.8c1.1-0.2,1.5-0.5,2.2-0.7c0.5-0.2,0.8-0.5,0.8-0.5s-2.9,1.2-3.2,0.8
		c-0.4-0.3-1.3-5.5-0.9-5.9c0.3-0.4,3.1,1.1,4.1,1.5c1.1,0.5,1.6,0.5,1.6,0.5c0.9-0.4,1.7-0.7,2.5-1.1l0,0c0,0,3.5,2.3,5.2,4.8
		c0,0-1-2.5-4.5-5.1C571,288.1,573,284.5,573,284.5z"/>
</g>
<g>
	<path class="st5" d="M536,258.7c-0.3-0.3-11.6-0.2-11.9,0c-0.1,0.1-0.2,1.1-0.2,2.3c-0.6-0.3-2.7-1.4-2.9-1.1
		c-0.2,0.4,0.7,4.6,0.9,4.8c0.2,0.2,1.4-0.5,2-0.8c0.1,1.2,0.1,2.1,0.2,2.2c0.3,0.3,11.6,0.3,11.9,0
		C536.2,265.6,536.1,259.1,536,258.7z"/>
	<ellipse class="st2" cx="534.8" cy="263.5" rx="0.5" ry="0.7"/>
	<path class="st4" d="M534.8,262.8c-0.1,0-0.2,0.1-0.3,0.2h0.1c0.1,0,0.2,0.1,0.2,0.3c0,0.2-0.1,0.3-0.2,0.3c-0.1,0-0.2-0.1-0.2-0.1
		c0,0.1,0,0.1,0,0.2c0,0.5,0.2,0.7,0.5,0.7c0.2,0,0.5-0.3,0.5-0.7C535.2,263,535.1,262.8,534.8,262.8z"/>
	<path class="st4" d="M536,258.9c-1.8,2.2-6.2,3.9-6.2,3.9c-2.9-1.1-5.8-3.9-5.8-3.9c1.2,1.4,2.3,2.3,3.2,3
		c-0.1-0.1-0.2-0.1-0.2-0.1c-0.5-0.2-0.6,0.2-0.5,0.6c0,0.4,0.1,0.8,0.2,1.2c-0.9,0.9-1.2,1.5-1.2,1.5c0.4-0.5,0.8-0.8,1.4-1.3
		c0.1,0.5,0.2,0.9,0.2,1.1c0.1,0.2,0.2,0.5,0.5,0.5c0.5-0.1,0.8-0.3,1.2-0.5c0.2-0.1,0.4-0.2,0.4-0.2s-1.5,0.6-1.8,0.5
		c-0.2-0.2-0.7-3-0.5-3.2s1.7,0.5,2.2,0.9c0.5,0.3,0.9,0.3,0.9,0.3c0.5-0.2,1.4-0.4,1.4-0.5l0,0c0,0,1.9,1.4,2.9,2.6
		c0,0-0.5-1.4-2.4-2.9C535,260.7,536,258.9,536,258.9z"/>
</g>
</svg>
