<?xml version="1.0" encoding="utf-8"?>
<!-- Generator: Adobe Illustrator 19.2.0, SVG Export Plug-In . SVG Version: 6.00 Build 0)  -->
<svg version="1.1" id="Layer_1" xmlns="http://www.w3.org/2000/svg" xmlns:xlink="http://www.w3.org/1999/xlink" x="0px" y="0px"
	 width="1780px" height="850px" viewBox="0 0 1780 850" style="enable-background:new 0 0 1780 850;" xml:space="preserve">
<style type="text/css">
	.st0{fill:url(#sky_x2F_space_3_);}
	.st1{fill:url(#sky_x2F_space_4_);}
	.st2{fill:#1B1B38;}
	.st3{fill:url(#SVGID_1_);}
	.st4{fill:url(#SVGID_2_);}
	.st5{fill:url(#SVGID_3_);}
	.st6{fill:url(#SVGID_4_);}
	.st7{fill:url(#SVGID_5_);}
	.st8{fill:url(#SVGID_6_);}
	.st9{fill:url(#SVGID_7_);}
	.st10{fill:url(#SVGID_8_);}
	.st11{opacity:0.4;fill:#3F3C5B;enable-background:new    ;}
	.st12{opacity:0.7;fill:#423C60;enable-background:new    ;}
	.st13{opacity:0.5;fill:#433D60;enable-background:new    ;}
	.st14{opacity:0.3;fill:#3F3C5B;enable-background:new    ;}
	.st15{fill:#423C60;}
	.st16{opacity:0.5;fill:#3F3C5B;enable-background:new    ;}
	.st17{opacity:0.5;fill:#3C3659;enable-background:new    ;}
	.st18{fill:url(#SVGID_9_);}
	.st19{fill:url(#SVGID_10_);}
	.st20{fill:url(#SVGID_11_);}
	.st21{fill:#1A1A33;}
	.st22{fill:#474368;}
	.st23{fill:#2A274A;}
	.st24{fill:#363051;}
	.st25{fill:#444468;}
	.st26{fill:#322E4C;}
	.st27{fill:#504C72;}
	.st28{fill:#393456;}
	.st29{fill:#131328;}
</style>
<radialGradient id="sky_x2F_space_3_" cx="1391.6406" cy="765.0895" r="2265.053" gradientTransform="matrix(1 -2.141860e-04 4.850171e-04 0.3638 -0.1193 -242.6904)" gradientUnits="userSpaceOnUse">
	<stop  offset="0" style="stop-color:#F3C187"/>
	<stop  offset="5.274168e-02" style="stop-color:#F4AA8D"/>
	<stop  offset="0.1279" style="stop-color:#C08886"/>
	<stop  offset="0.3193" style="stop-color:#404067"/>
	<stop  offset="0.5913" style="stop-color:#232547"/>
	<stop  offset="1" style="stop-color:#212440"/>
</radialGradient>
<rect id="sky_x2F_space_2_" x="5.6" y="-3.4" class="st0" width="1788.6" height="853.7"/>
<radialGradient id="sky_x2F_space_4_" cx="985.3721" cy="-824.597" r="639.4071" gradientTransform="matrix(1 0 0 -0.1635 0 544.4416)" gradientUnits="userSpaceOnUse">
	<stop  offset="5.102041e-03" style="stop-color:#39365D"/>
	<stop  offset="1" style="stop-color:#232547"/>
</radialGradient>
<rect id="sky_x2F_space_1_" x="5.6" y="557.4" class="st1" width="1788.6" height="288.8"/>
<path class="st2" d="M5.6,626h457.6l-7.1-4.7l-31.7-6.5l-4.4-0.9l-9.8-7.7l-12-11h-12l-8.2,2.3l-13.2-11.1l-21.3,6.3l-8.8-2.4
	l-18.6-8l-25.2,3.7c0,0-15.3,11-15.3,12.1c0,1.1-25.2,4.1-25.2,4.1l-22.4,0.5l-7.1-0.6l-35.6-5.1l-14.8,6.3l-13.1-4.2l-11-12.1
	l-62.3,11.3l-21.9-3l-9.8-3.3l-11.6-4.1h-9.2l-9.8-13.1L5.6,562.3V626L5.6,626z"/>
<linearGradient id="SVGID_1_" gradientUnits="userSpaceOnUse" x1="1808.3416" y1="235.2971" x2="1410.3412" y2="265.2971" gradientTransform="matrix(1 0 0 -1 0 852)">
	<stop  offset="0.2371" style="stop-color:#4F466F;stop-opacity:0"/>
	<stop  offset="1" style="stop-color:#4F466F;stop-opacity:0.6"/>
</linearGradient>
<path class="st3" d="M1786.8,588.9l-8.6,2l-5.6,1.6l-9.6-4l-2.5-2.4v-2.7l-2-2.5l-6.6,0.3l-4.1,3.4l-4.6,3.1l-5.1,4.4l-4.6-2.4
	l-2.4,1.6v-3.1l-13-10.4l-6-0.4l-8.2-1l-8.6,6.4l-4.7,1.6l-12.3-12.1l-6.1-3h-14.2l-4.6,2.7l-4.1,4.2v4.3l-6.1,2.1l-8.6,0.3
	l-4.6,0.9l-6.1,3.1l-11.2,2.1l-4.1,2.6l-3.9,4.2l-9.4-1.8l-3.8-3.1l-1.9-3.9l-5.4-2.4l-6.1-2.7v-4.6l-5.6-0.5l-7.1,0.4v2.9v4.3
	l-7.1,3.9l-1.4,2.2l-4.3,2.7l2.5,3.8l-6.8,3.8l-3-2.2l-5.6-6.7v-4.7l-5.6-1.3l-6.1,2.1l-3,4l-7.1,5.7l-2.5,5l-3,1l-3.6-0.3l-5.6-1
	c0,0-5.6,0.1-7.1,0.1s-4.6,1.7-4.6,1.7l-8,7.8l-58,12.5h-3.7v0.1h377.5v-35.1L1786.8,588.9z"/>
<linearGradient id="SVGID_2_" gradientUnits="userSpaceOnUse" x1="5.55" y1="210.0001" x2="726.55" y2="210.0001" gradientTransform="matrix(1 0 0 -1 0 852)">
	<stop  offset="0.2371" style="stop-color:#170B2A;stop-opacity:0"/>
	<stop  offset="1" style="stop-color:#11162A;stop-opacity:0.7"/>
</linearGradient>
<path class="st4" d="M683.2,686l-9.9-7.6l-51.8-15.2l-24.2-0.6l-3.9-5.5l-23.7-10l-16.5,11.2l-53.4,5.1l-17.1,10.9l-15.4-9.4
	l-14.3-6.9l-34.1,4.9l-11-3.5l-4.9-5.5l-59.9-17.8l-60.6,11.3L266,634.8c0,0-27-3-27.5-3.9c-0.6-0.8,1.1-7.9,0-8.7
	c-1.1-0.8-6-5.2-6-5.2l-13.8-8.2l-13.2,3l-3.3,5.5l-6.5,3.5l-11.7-3.2l-8.3-11.4l-36.3-7.1l-30.9,0.1l-12.7,0.7l-30.2,2.5L26,586
	l-20.4,6.7l1.8,14.2v91h719.2L683.2,686z"/>
<linearGradient id="SVGID_3_" gradientUnits="userSpaceOnUse" x1="1430.4042" y1="886.8232" x2="1435.3612" y2="387.8081" gradientTransform="matrix(1 0 0 1 0 -388)">
	<stop  offset="0" style="stop-color:#F3C187;stop-opacity:0"/>
	<stop  offset="1" style="stop-color:#F3DDC0;stop-opacity:0.2"/>
</linearGradient>
<polygon class="st5" points="1447.4,508.4 1039.5,508.4 1418.2,-3.3 1826.2,-3.3 "/>
<linearGradient id="SVGID_4_" gradientUnits="userSpaceOnUse" x1="1064.6992" y1="763.5682" x2="1068.4497" y2="386.0139" gradientTransform="matrix(1 0 0 1 0 -388)">
	<stop  offset="0.3791" style="stop-color:#F3C187;stop-opacity:0"/>
	<stop  offset="1" style="stop-color:#F3C187;stop-opacity:0.2"/>
</linearGradient>
<polygon class="st6" points="1186.6,381.7 661.6,381.7 946.6,-3.3 1471.6,-3.3 "/>
<linearGradient id="SVGID_5_" gradientUnits="userSpaceOnUse" x1="1311.7041" y1="886.8239" x2="1316.6613" y2="387.8088" gradientTransform="matrix(1 0 0 1 0 -388)">
	<stop  offset="0.2409" style="stop-color:#F3C187;stop-opacity:0"/>
	<stop  offset="1" style="stop-color:#F3DDC0;stop-opacity:0.3"/>
</linearGradient>
<polygon class="st7" points="1328.8,508.4 920.8,508.4 1299.5,-3.3 1707.6,-3.3 "/>
<linearGradient id="SVGID_6_" gradientUnits="userSpaceOnUse" x1="823.6646" y1="764.6268" x2="827.3843" y2="390.1653" gradientTransform="matrix(1 0 0 1 0 -388)">
	<stop  offset="0.4158" style="stop-color:#F3C187;stop-opacity:0"/>
	<stop  offset="1" style="stop-color:#F4DFBB;stop-opacity:0.3"/>
</linearGradient>
<polygon class="st8" points="783.5,384.3 582.6,384.3 867.6,-0.7 1068.5,-0.7 "/>
<linearGradient id="SVGID_7_" gradientUnits="userSpaceOnUse" x1="1680.8049" y1="900.5644" x2="1685.8618" y2="391.5131" gradientTransform="matrix(1 0 0 1 0 -388)">
	<stop  offset="0.4158" style="stop-color:#F3C187;stop-opacity:0"/>
	<stop  offset="1" style="stop-color:#F4DFBB;stop-opacity:0.3"/>
</linearGradient>
<polygon class="st9" points="1590.9,523.4 1390.2,523.4 1775.6,-0.7 1976.4,-0.7 "/>
<linearGradient id="SVGID_8_" gradientUnits="userSpaceOnUse" x1="1011.436" y1="932.9709" x2="1016.8348" y2="389.4993" gradientTransform="matrix(1 0 0 1 0 -388)">
	<stop  offset="0.4425" style="stop-color:#F5E2B9;stop-opacity:0"/>
	<stop  offset="1" style="stop-color:#F6E5AD;stop-opacity:0.5"/>
</linearGradient>
<polygon class="st10" points="884.5,556.8 729.1,556.8 1143.8,-3.3 1299.2,-3.3 "/>
<path class="st11" d="M180.9,431.4h514.1l4.5-5.5l0,0l-4.5-5.5H180.9l-4.5,5.5l0,0L180.9,431.4z"/>
<path class="st12" d="M1423.1,456.4h284.2l2.5-5.5l0,0l-2.5-5.5h-284.2l-2.5,5.5l0,0L1423.1,456.4z"/>
<polygon class="st13" points="98.8,406 570.2,406 575.2,398.9 575.2,398.9 570.2,392.1 98.8,392.1 93.6,398.9 93.6,398.9 "/>
<path class="st14" d="M250.7,559.4h613.8l5.4-6.6l0,0l-5.4-6.6H250.7l-5.4,6.6l0,0L250.7,559.4z"/>
<path class="st15" d="M1263.5,423.4h284l2.5-5.5l0,0l-2.5-5.5h-284l-2.5,5.5l0,0L1263.5,423.4z"/>
<path class="st16" d="M1171.6,496.7h490.5l4.3-6.6l0,0l-4.3-6.6h-490.5l-4.3,6.6l0,0L1171.6,496.7z"/>
<polygon class="st17" points="482.2,525.6 1045.1,525.6 1051.1,517.1 1051.1,517.1 1045.1,509 482.2,509 476,517.1 476,517.1 "/>
<linearGradient id="SVGID_9_" gradientUnits="userSpaceOnUse" x1="1754.4861" y1="164.6001" x2="1222.3263" y2="164.6001" gradientTransform="matrix(1 0 0 -1 0 852)">
	<stop  offset="0.2371" style="stop-color:#4F466F;stop-opacity:0"/>
	<stop  offset="1" style="stop-color:#4F466F;stop-opacity:0.6"/>
</linearGradient>
<path class="st18" d="M1228.8,683.3l6.9-2.5l9.6-1.6l7.3,0.9l7.3,1.6l11.2-0.9l6.9-6.1c0,0,8.5-3.1,9.6-3.1s14.7,0,14.7,0l3.1-2.9
	h15.8h8.5l3.5-2l5-3.4l9.3-2.4h7.3l3.5-3.8l15.4,0.2l2.3,6.1l6.9,2.5l15.4,2l1.9,1l13.5,1.6l2.3-3.2l19.3-0.7l6.6-2.7l6.9-1.4
	l11.9,0.7l6.9,2.9l10,0.4l1.6-4l17.7-7.6l11.2,2l3.1-3.1l23.5-2.5l12.3,4.5l3.5,1.4l4.6-5.2l3.1-5.2l5.8-1.6l5-1.4h9.6l4.6-1.3
	l2.7-4.1l11.6,1.4l2.3,5.4l2.3,2.4l11.6,2l5.8,4l12.7,1.8l50.9-2.9c0,0,1.6,0.9,2.7,0.9s8.9,0.5,8.9,0.5l7.3-4.9l20.9-0.4l1.6,4.9
	l6.2,1.8l9.6,0.7l4.6,3.2v32.2l-180.4,44.9l-0.7-25.7l-91.8-5l-56-1l-57.2,1l-35.5-5.7l-16.5,1.1l-48.2-2.7l-42.5-6.9L1228.8,683.3z
	"/>
<linearGradient id="SVGID_10_" gradientUnits="userSpaceOnUse" x1="1260.9086" y1="0.1096" x2="1243.5824" y2="115.3293" gradientTransform="matrix(1 0 0 -1 0 852)">
	<stop  offset="0.2371" style="stop-color:#25274A"/>
	<stop  offset="1" style="stop-color:#443B60"/>
</linearGradient>
<path class="st19" d="M783.5,818.7l9.5-11.4l33.2-3.8l33.2,7.6h16.6l4.7-14.5c0,0,33.2,2.6,36.4,0c3.2-2.6,36.4,7.3,36.4,7.3
	l26.9-4.1l10.3-22.7l49-0.6l38,1.9l9.5-21.5l67.3-25.9l20.6,5.7l26.1,2.8l16.6,9.8l11.9-9.8l51.5,5.1l26.9,7.3l19-7.3l18-12.5
	l24,7.5c0,0,6.3,5.4,8.7,5s11.9,4.1,11.9,4.1l10.3-15.2l5.5-12l22.9-10.7l27.7,8.2l107.6-22.1l34,3.8l15.8-19.6l13.5-18.9l19-6.9
	l44.3,0.7l7.6-15.7l8.2-12.7l11.9-1.9l80.4-39.9l11.2,76.2l1.6,175.8H681.4V817L783.5,818.7z"/>
<linearGradient id="SVGID_11_" gradientUnits="userSpaceOnUse" x1="505.6694" y1="84.0771" x2="567.6539" y2="199.5934" gradientTransform="matrix(1 0 0 -1 0 852)">
	<stop  offset="0.2371" style="stop-color:#171737"/>
	<stop  offset="1" style="stop-color:#443B60"/>
</linearGradient>
<polygon class="st20" points="5.6,694.9 5.6,686.9 15.5,655.7 55.6,621.1 93.6,620.3 144.3,607.3 168.7,620.3 202.6,624.6 
	249.6,656.8 293.2,647.9 323.6,666.5 346.2,687.4 387.1,670.6 429.1,687.4 469.2,697.9 516.6,723.6 585.6,750.7 655.9,745.3 
	700.5,748.2 766.2,787.2 830.2,780.5 899.9,801.1 917.2,811.7 964.6,819.7 1014.1,846.2 952.9,848.4 5.6,848.4 "/>
<path class="st21" d="M854.4,839.2l47.9-8.6c0,0,12.9-8.4,15.9-8.4s24.9,0,24.9,0l20.8,10.7l36.8,5.8l20.5-3.8l8.4-8.5l21.9-4.2
	l38.8-0.8l28.4-13.4l30.3-23.5l45.7,15.1l123.3-5.8l24.9-11.7l117.4-18.4l35.8,28.3h27.8l15.9-15.7l20.9-17.6l24.9-14.2l13.9-12.6
	l14.9-12.6l45.7-31.8l26.8,10.9l33.8-10.9l76.7-37.8l1.8,33.6v19.3v149.1l-1018.3-1.9L854.4,839.2z"/>
<g>
	<path class="st22" d="M1027.5,667.5c0.7-0.8,28.7-0.5,29.4,0c0.2,0.2,0.5,2.6,0.5,5.7c1.6-0.9,6.7-3.4,7.2-2.6
		c0.5,0.9-1.7,11.3-2.3,11.9c-0.5,0.4-3.6-1.3-4.8-2c-0.1,2.9-0.2,5-0.5,5.4c-0.8,0.7-28.9,0.8-29.4,0
		C1026.9,684.9,1026.8,668.3,1027.5,667.5z"/>
	<path class="st23" d="M1030.2,677.5c0.3,0,0.5,0.2,0.8,0.5c-0.1,0-0.2-0.1-0.2-0.1c-0.3,0-0.5,0.3-0.5,0.6c0,0.4,0.2,0.6,0.5,0.6
		c0.2,0,0.4-0.2,0.5-0.3c0,0.1,0,0.2,0,0.3c0,1-0.5,1.8-1,1.8s-1-0.8-1-1.8S1029.7,677.5,1030.2,677.5z"/>
	<path class="st24" d="M1027.4,667.9c4.5,5.3,15.4,9.6,15.4,9.6c7.3-2.6,14.4-9.6,14.4-9.6c-3.1,3.5-5.7,5.8-7.8,7.5
		c0.2-0.1,0.3-0.2,0.5-0.2c1.1-0.5,1.6,0.5,1.5,1.6c-0.1,0.9-0.2,2-0.4,3.1c2.3,2.3,3.1,4,3.1,4c-0.9-1.1-2-2.2-3.3-3.1
		c-0.2,1.3-0.5,2.4-0.5,2.6c-0.1,0.3-0.5,1.2-1.2,1.1c-1.5-0.3-2.1-0.6-3-1c-0.6-0.3-1.1-0.8-1.1-0.8s4,1.6,4.4,1.2
		c0.5-0.4,1.7-7.4,1.2-8c-0.4-0.5-4.1,1.5-5.5,2.2c-1.5,0.7-2.2,0.8-2.2,0.8c-1.2-0.5-2.6-0.9-3.3-1.5l0,0c0,0-4.8,3.3-7.1,6.5
		c0,0,1.3-3.5,6-7C1030,672.5,1027.4,667.9,1027.4,667.9z"/>
</g>
<g>
	<path class="st25" d="M1074.1,614.8c0.7-0.9,29.5-0.5,30.2,0c0.2,0.2,0.5,2.6,0.5,5.8c1.7-0.9,6.9-3.5,7.4-2.7
		c0.6,0.9-1.7,11.6-2.4,12.2c-0.5,0.4-3.7-1.4-5-2.1c-0.1,2.9-0.2,5.2-0.5,5.4c-0.9,0.7-29.7,0.9-30.2,0
		C1073.5,632.7,1073.4,615.7,1074.1,614.8z"/>
	<path class="st23" d="M1076.9,625.1c0.3,0,0.5,0.2,0.8,0.5c-0.1,0-0.2-0.1-0.2-0.1c-0.3,0-0.5,0.3-0.5,0.6c0,0.4,0.2,0.6,0.5,0.6
		c0.2,0,0.4-0.2,0.5-0.3c0,0.1,0,0.2,0,0.4c0,1-0.5,1.9-1.1,1.9s-1.1-0.9-1.1-1.9S1076.2,625.1,1076.9,625.1z"/>
	<path class="st26" d="M1073.9,615.2c4.7,5.4,15.8,9.8,15.8,9.8c7.5-2.6,14.8-9.8,14.8-9.8c-3.2,3.6-5.8,6-8.1,7.6
		c0.2-0.1,0.4-0.2,0.5-0.2c1.2-0.5,1.6,0.5,1.6,1.6c-0.1,0.9-0.2,2.1-0.4,3.2c2.3,2.3,3.2,4.1,3.2,4.1c-0.9-1.1-2.1-2.3-3.3-3.2
		c-0.2,1.3-0.5,2.5-0.5,2.7c-0.1,0.4-0.5,1.2-1.2,1.1c-1.5-0.3-2.2-0.6-3.1-1c-0.6-0.3-1.2-0.8-1.2-0.8s4,1.6,4.6,1.2
		c0.5-0.4,1.8-7.6,1.2-8.2c-0.5-0.5-4.3,1.5-5.7,2.3c-1.5,0.7-2.1,0.8-2.1,0.8c-1.2-0.5-2.6-1-3.3-1.5l0,0c0,0-5,3.3-7.4,6.7
		c0,0,1.3-3.6,6.1-7.1C1076.7,620,1073.9,615.2,1073.9,615.2z"/>
</g>
<g>
	<path class="st27" d="M1132.1,628.2c1-1.2,40.8-0.6,41.9,0c0.4,0.2,0.6,3.7,0.7,8c2.3-1.2,9.6-4.8,10.2-3.7
		c0.9,1.3-2.4,16.2-3.3,16.8c-0.8,0.6-5.1-1.9-6.9-3c-0.1,4-0.3,7.2-0.7,7.5c-1.2,1-41,1.2-41.9,0
		C1131.2,652.9,1131.1,629.3,1132.1,628.2z"/>
	<path class="st28" d="M1132,628.6c6.4,7.5,21.8,13.5,21.8,13.5c10.3-3.6,20.4-13.5,20.4-13.5c-4.3,4.9-8.1,8.2-11.2,10.6
		c0.2-0.2,0.5-0.2,0.7-0.3c1.6-0.6,2.3,0.8,2.1,2.3c-0.1,1.2-0.3,2.9-0.5,4.3c3.3,3.2,4.3,5.7,4.3,5.7c-1.2-1.6-3-3.1-4.6-4.4
		c-0.3,1.9-0.7,3.4-0.8,3.7c-0.2,0.5-0.7,1.6-1.6,1.5c-2-0.4-3-0.9-4.3-1.5c-0.9-0.5-1.6-1.1-1.6-1.1s5.6,2.3,6.3,1.7
		c0.7-0.5,2.4-10.5,1.7-11.3c-0.6-0.7-5.9,2.1-7.8,3.1c-2,0.9-3.2,1.1-3.2,1.1c-1.8-0.7-3.3-1.3-4.9-2.1l0,0c0,0-6.8,4.6-10,9.2
		c0,0,1.9-5,8.6-9.9C1135.7,635.3,1132,628.6,1132,628.6z"/>
	<path class="st23" d="M1136.1,642.4c0.2,0,0.4,0.1,0.5,0.2c-0.4,0.2-0.6,0.6-0.6,1.2c0,0.7,0.4,1.3,0.9,1.3c0.2,0,0.5-0.1,0.6-0.3
		v0.1c0,1.4-0.7,2.6-1.5,2.6c-0.9,0-1.5-1.2-1.5-2.6C1134.6,643.5,1135.2,642.4,1136.1,642.4z"/>
</g>
<path class="st29" d="M7.6,622.2l32.8-14h16.2l8.8,14l7.3,22.5h26.5l10.3,14l25,21.6l28,5.6l13.2,14l30.8,10.3l11.8,16l19.1,18.8
	l33.8,9.7h20.6L340,749l41.4-9.6c0,0,5.8-2.8,11.8-4.7c5.8-1.9,26.5,12.2,26.5,12.2l23.5,20.7l25-12.8l45.6,11l19.1,15.1
	c0,0,32.3,16,36.8,13.1c4.5-2.8,48.5-0.9,48.5-0.9v9.4l44.1-5.6l17.6-6.5l27.9,3.7l14.7,11.2l23.5-5.6l67.6,12.2l44.1,14l48,9.4
	h53.4l13.2,6.3l36.8,11.7L7.5,852.2L7.6,622.2L7.6,622.2z"/>
</svg>
