<?xml version="1.0" encoding="UTF-8" standalone="no"?>
<svg width="1785px" height="840px" viewBox="0 0 1785 840" version="1.1" xmlns="http://www.w3.org/2000/svg" xmlns:xlink="http://www.w3.org/1999/xlink">
    <!-- Generator: Sketch 3.6.1 (26313) - http://www.bohemiancoding.com/sketch -->
    <title>Slice 1</title>
    <desc>Created with Sketch.</desc>
    <defs>
        <radialGradient cx="77.5099137%" cy="4.5333365%" fx="77.5099137%" fy="4.5333365%" r="126.63832%" id="radialGradient-1">
            <stop stop-color="#F3C187" offset="0%"></stop>
            <stop stop-color="#F4AA8D" offset="5.274168%"></stop>
            <stop stop-color="#C08886" offset="12.79%"></stop>
            <stop stop-color="#404067" offset="31.93%"></stop>
            <stop stop-color="#232547" offset="59.13%"></stop>
            <stop stop-color="#212440" offset="100%"></stop>
        </radialGradient>
        <radialGradient cx="54.7815051%" cy="42.1791075%" fx="54.7815051%" fy="42.1791075%" r="35.7490272%" id="radialGradient-2">
            <stop stop-color="#39365D" offset="0.5102041%"></stop>
            <stop stop-color="#232547" offset="100%"></stop>
        </radialGradient>
        <linearGradient x1="102.40906%" y1="85.5640145%" x2="-3.02150993%" y2="31.3144665%" id="linearGradient-3">
            <stop stop-color="#4F466F" stop-opacity="0" offset="23.71%"></stop>
            <stop stop-color="#4F466F" stop-opacity="0.6" offset="100%"></stop>
        </linearGradient>
        <linearGradient x1="0.00359223301%" y1="49.9693476%" x2="100.003592%" y2="49.9693476%" id="linearGradient-4">
            <stop stop-color="#170B2A" stop-opacity="0" offset="23.71%"></stop>
            <stop stop-color="#11162A" stop-opacity="0.7" offset="100%"></stop>
        </linearGradient>
        <linearGradient x1="49.6923742%" y1="98.1187219%" x2="50.3224072%" y2="0.597693961%" id="linearGradient-5">
            <stop stop-color="#F3C187" stop-opacity="0" offset="0%"></stop>
            <stop stop-color="#F3DDC0" stop-opacity="0.2" offset="100%"></stop>
        </linearGradient>
        <linearGradient x1="49.7746667%" y1="98.3944156%" x2="50.2376914%" y2="0.32838961%" id="linearGradient-6">
            <stop stop-color="#F3C187" stop-opacity="0" offset="37.91%"></stop>
            <stop stop-color="#F3C187" stop-opacity="0.2" offset="100%"></stop>
        </linearGradient>
        <linearGradient x1="49.6923869%" y1="98.1188587%" x2="50.3224199%" y2="0.59783076%" id="linearGradient-7">
            <stop stop-color="#F3C187" stop-opacity="0" offset="24.09%"></stop>
            <stop stop-color="#F3DDC0" stop-opacity="0.3" offset="100%"></stop>
        </linearGradient>
        <linearGradient x1="49.6275159%" y1="97.9940519%" x2="50.3930644%" y2="0.731324675%" id="linearGradient-8">
            <stop stop-color="#F3C187" stop-opacity="0" offset="41.58%"></stop>
            <stop stop-color="#F4DFBB" stop-opacity="0.3" offset="100%"></stop>
        </linearGradient>
        <linearGradient x1="49.5788504%" y1="97.923049%" x2="50.441344%" y2="0.794390384%" id="linearGradient-9">
            <stop stop-color="#F3C187" stop-opacity="0" offset="41.58%"></stop>
            <stop stop-color="#F4DFBB" stop-opacity="0.3" offset="100%"></stop>
        </linearGradient>
        <linearGradient x1="49.537204%" y1="97.8791644%" x2="50.4841958%" y2="0.84799143%" id="linearGradient-10">
            <stop stop-color="#F5E2B9" stop-opacity="0" offset="44.25%"></stop>
            <stop stop-color="#F6E5AD" stop-opacity="0.5" offset="100%"></stop>
        </linearGradient>
        <linearGradient x1="101.822239%" y1="49.9648621%" x2="1.18687595%" y2="49.9648621%" id="linearGradient-11">
            <stop stop-color="#4F466F" stop-opacity="0" offset="23.71%"></stop>
            <stop stop-color="#4F466F" stop-opacity="0.6" offset="100%"></stop>
        </linearGradient>
        <linearGradient x1="51.3001328%" y1="105.569802%" x2="49.7665693%" y2="59.8476984%" id="linearGradient-12">
            <stop stop-color="#25274A" offset="23.71%"></stop>
            <stop stop-color="#443B60" offset="100%"></stop>
        </linearGradient>
        <linearGradient x1="49.5909965%" y1="66.6014517%" x2="55.7372038%" y2="18.6892576%" id="linearGradient-13">
            <stop stop-color="#171737" offset="23.71%"></stop>
            <stop stop-color="#443B60" offset="100%"></stop>
        </linearGradient>
    </defs>
    <g id="Page-1" stroke="none" stroke-width="1" fill="none" fill-rule="evenodd">
        <g id="foundationemails-home-hero">
            <rect id="sky_x2F_space_2_" fill="url(#radialGradient-1)" x="0.5" y="0.7" width="1788.6" height="853.7"></rect>
            <rect id="sky_x2F_space_1_" fill="url(#radialGradient-2)" x="0.5" y="561.5" width="1788.6" height="288.8"></rect>
            <path d="M0.5,630.1 L458.1,630.1 L451,625.4 L419.3,618.9 L414.9,618 L405.1,610.3 L393.1,599.3 L381.1,599.3 L372.9,601.6 L359.7,590.5 L338.4,596.8 L329.6,594.4 L311,586.4 L285.8,590.1 C285.8,590.1 270.5,601.1 270.5,602.2 C270.5,603.3 245.3,606.3 245.3,606.3 L222.9,606.8 L215.8,606.2 L180.2,601.1 L165.4,607.4 L152.3,603.2 L141.3,591.1 L79,602.4 L57.1,599.4 L47.3,596.1 L35.7,592 L26.5,592 L16.7,578.9 L0.5,566.4 L0.5,630.1 L0.5,630.1 L0.5,630.1 Z" id="Shape" fill="#1B1B38"></path>
            <path d="M1781.7,593 L1773.1,595 L1767.5,596.6 L1757.9,592.6 L1755.4,590.2 L1755.4,587.5 L1753.4,585 L1746.8,585.3 L1742.7,588.7 L1738.1,591.8 L1733,596.2 L1728.4,593.8 L1726,595.4 L1726,592.3 L1713,581.9 L1707,581.5 L1698.8,580.5 L1690.2,586.9 L1685.5,588.5 L1673.2,576.4 L1667.1,573.4 L1652.9,573.4 L1648.3,576.1 L1644.2,580.3 L1644.2,584.6 L1638.1,586.7 L1629.5,587 L1624.9,587.9 L1618.8,591 L1607.6,593.1 L1603.5,595.7 L1599.6,599.9 L1590.2,598.1 L1586.4,595 L1584.5,591.1 L1579.1,588.7 L1573,586 L1573,581.4 L1567.4,580.9 L1560.3,581.3 L1560.3,584.2 L1560.3,588.5 L1553.2,592.4 L1551.8,594.6 L1547.5,597.3 L1550,601.1 L1543.2,604.9 L1540.2,602.7 L1534.6,596 L1534.6,591.3 L1529,590 L1522.9,592.1 L1519.9,596.1 L1512.8,601.8 L1510.3,606.8 L1507.3,607.8 L1503.7,607.5 L1498.1,606.5 C1498.1,606.5 1492.5,606.6 1491,606.6 C1489.5,606.6 1486.4,608.3 1486.4,608.3 L1478.4,616.1 L1420.4,628.6 L1416.7,628.6 L1416.7,628.7 L1794.2,628.7 L1794.2,593.6 L1781.7,593 L1781.7,593 Z" id="Shape" fill="url(#linearGradient-3)"></path>
            <path d="M678.1,690.1 L668.2,682.5 L616.4,667.3 L592.2,666.7 L588.3,661.2 L564.6,651.2 L548.1,662.4 L494.7,667.5 L477.6,678.4 L462.2,669 L447.9,662.1 L413.8,667 L402.8,663.5 L397.9,658 L338,640.2 L277.4,651.5 L260.9,638.9 C260.9,638.9 233.9,635.9 233.4,635 C232.8,634.2 234.5,627.1 233.4,626.3 C232.3,625.5 227.4,621.1 227.4,621.1 L213.6,612.9 L200.4,615.9 L197.1,621.4 L190.6,624.9 L178.9,621.7 L170.6,610.3 L134.3,603.2 L103.4,603.3 L90.7,604 L60.5,606.5 L20.9,590.1 L0.5,596.8 L2.3,611 L2.3,702 L721.5,702 L678.1,690.1 L678.1,690.1 Z" id="Shape" fill="url(#linearGradient-4)"></path>
            <path d="M1442.4,512.5 L1034.4,512.5 L1413.2,0.8 L1821.2,0.8 L1442.4,512.5 Z" id="Shape" fill="url(#linearGradient-5)"></path>
            <path d="M1181.5,385.8 L656.5,385.8 L941.5,0.8 L1466.5,0.8 L1181.5,385.8 Z" id="Shape" fill="url(#linearGradient-6)"></path>
            <path d="M1323.7,512.5 L915.7,512.5 L1294.4,0.8 L1702.5,0.8 L1323.7,512.5 Z" id="Shape" fill="url(#linearGradient-7)"></path>
            <path d="M778.4,388.4 L577.5,388.4 L862.5,3.4 L1063.4,3.4 L778.4,388.4 Z" id="Shape" fill="url(#linearGradient-8)"></path>
            <path d="M1585.9,527.5 L1385.1,527.5 L1770.5,3.4 L1971.4,3.4 L1585.9,527.5 Z" id="Shape" fill="url(#linearGradient-9)"></path>
            <path d="M879.4,560.9 L724,560.9 L1138.7,0.8 L1294.1,0.8 L879.4,560.9 Z" id="Shape" fill="url(#linearGradient-10)"></path>
            <path d="M175.8,435.5 L689.9,435.5 L694.4,430 L694.4,430 L689.9,424.5 L175.8,424.5 L171.3,430 L171.3,430 L175.8,435.5 L175.8,435.5 Z" id="Shape" fill="#3F3C5B" opacity="0.4"></path>
            <path d="M1418,460.5 L1702.2,460.5 L1704.7,455 L1704.7,455 L1702.2,449.5 L1418,449.5 L1415.5,455 L1415.5,455 L1418,460.5 L1418,460.5 Z" id="Shape" fill="#423C60" opacity="0.7"></path>
            <path d="M93.7,410.1 L565.2,410.1 L570.2,403 L570.2,403 L565.2,396.2 L93.7,396.2 L88.5,403 L88.5,403 L93.7,410.1 Z" id="Shape" fill="#433D60" opacity="0.5"></path>
            <path d="M245.6,563.5 L859.4,563.5 L864.8,556.9 L864.8,556.9 L859.4,550.3 L245.6,550.3 L240.2,556.9 L240.2,556.9 L245.6,563.5 L245.6,563.5 Z" id="Shape" fill="#3F3C5B" opacity="0.3"></path>
            <path d="M1258.4,427.5 L1542.4,427.5 L1544.9,422 L1544.9,422 L1542.4,416.5 L1258.4,416.5 L1255.9,422 L1255.9,422 L1258.4,427.5 L1258.4,427.5 Z" id="Shape" fill="#423C60"></path>
            <path d="M1166.5,500.8 L1657,500.8 L1661.3,494.2 L1661.3,494.2 L1657,487.6 L1166.5,487.6 L1162.2,494.2 L1162.2,494.2 L1166.5,500.8 L1166.5,500.8 Z" id="Shape" fill="#3F3C5B" opacity="0.5"></path>
            <path d="M477.1,529.7 L1040,529.7 L1046,521.2 L1046,521.2 L1040,513.1 L477.1,513.1 L470.9,521.2 L470.9,521.2 L477.1,529.7 Z" id="Shape" fill="#3C3659" opacity="0.5"></path>
            <path d="M1223.7,687.4 L1230.6,684.9 L1240.2,683.3 L1247.5,684.2 L1254.8,685.8 L1266,684.9 L1272.9,678.8 C1272.9,678.8 1281.4,675.7 1282.5,675.7 L1297.2,675.7 L1300.3,672.8 L1316.1,672.8 L1324.6,672.8 L1328.1,670.8 L1333.1,667.4 L1342.4,665 L1349.7,665 L1353.2,661.2 L1368.6,661.4 L1370.9,667.5 L1377.8,670 L1393.2,672 L1395.1,673 L1408.6,674.6 L1410.9,671.4 L1430.2,670.7 L1436.8,668 L1443.7,666.6 L1455.6,667.3 L1462.5,670.2 L1472.5,670.6 L1474.1,666.6 L1491.8,659 L1503,661 L1506.1,657.9 L1529.6,655.4 L1541.9,659.9 L1545.4,661.3 L1550,656.1 L1553.1,650.9 L1558.9,649.3 L1563.9,647.9 L1573.5,647.9 L1578.1,646.6 L1580.8,642.5 L1592.4,643.9 L1594.7,649.3 L1597,651.7 L1608.6,653.7 L1614.4,657.7 L1627.1,659.5 L1678,656.6 C1678,656.6 1679.6,657.5 1680.7,657.5 C1681.8,657.5 1689.6,658 1689.6,658 L1696.9,653.1 L1717.8,652.7 L1719.4,657.6 L1725.6,659.4 L1735.2,660.1 L1739.8,663.3 L1739.8,695.5 L1559.4,740.4 L1558.7,714.7 L1466.9,709.7 L1410.9,708.7 L1353.7,709.7 L1318.2,704 L1301.7,705.1 L1253.5,702.4 L1211,695.5 L1223.7,687.4 L1223.7,687.4 Z" id="Shape" fill="url(#linearGradient-11)"></path>
            <path d="M778.4,822.8 L787.9,811.4 L821.1,807.6 L854.3,815.2 L870.9,815.2 L875.6,800.7 C875.6,800.7 908.8,803.3 912,800.7 C915.2,798.1 930.2,793.1 930.2,793.1 L948.4,808 L975.3,803.9 L985.6,781.2 L1034.6,780.6 L1072.6,782.5 L1082.1,761 L1149.4,735.1 L1170,740.8 L1196.1,743.6 L1212.7,753.4 L1224.6,743.6 L1276.1,748.7 L1303,756 L1322,748.7 L1340,736.2 L1364,743.7 C1364,743.7 1370.3,749.1 1372.7,748.7 C1375.1,748.3 1384.6,752.8 1384.6,752.8 L1394.9,737.6 L1400.4,725.6 L1423.3,714.9 L1451,723.1 L1558.6,701 L1592.6,704.8 L1608.4,685.2 L1621.9,666.3 L1640.9,659.4 L1685.2,660.1 L1692.8,644.4 L1701,631.7 L1712.9,629.8 L1793.3,589.9 L1804.5,666.1 L1806.1,841.9 L676.3,841.9 L676.3,821.1 L778.4,822.8 L778.4,822.8 Z" id="Shape" fill="url(#linearGradient-12)"></path>
            <path d="M0.5,699 L0.5,691 L10.4,659.8 L50.5,625.2 L88.5,624.4 L139.2,611.4 L163.6,624.4 L197.5,628.7 L244.5,660.9 L288.1,652 L318.5,670.6 L341.1,691.5 L382,674.7 L424,691.5 L464.1,702 L511.5,727.7 L580.5,754.8 L650.8,749.4 L695.4,752.3 L761.2,791.3 L825.1,784.6 L894.8,805.2 L912.2,815.8 L959.5,823.8 L1009,850.3 L947.8,852.5 L0.5,852.5 L0.5,699 Z" id="Shape" fill="url(#linearGradient-13)"></path>
            <g id="Group" transform="translate(422.000000, 354.000000)">
                <path d="M60.3,0.9 C59.2,-0.4 14.3,0.2 13.2,0.9 C12.8,1.1 12.6,5 12.4,9.9 C9.8,8.5 1.7,4.5 0.9,5.7 C-9.00390873e-14,7.2 3.6,23.8 4.6,24.7 C5.4,25.3 10.4,22.6 12.4,21.4 C12.5,25.9 12.8,29.5 13.2,29.9 C14.5,31 59.4,31.2 60.3,29.9 C61.2,28.6 61.3,2.1 60.3,0.9 L60.3,0.9 Z" id="Shape" fill="#4F466F"></path>
                <path d="M55.8,16.8 C55.3,16.8 54.9,17.1 54.6,17.7 C54.7,17.7 54.8,17.6 54.9,17.6 C55.4,17.6 55.8,18.1 55.8,18.7 C55.8,19.3 55.4,19.8 54.9,19.8 C54.6,19.8 54.3,19.6 54.2,19.3 L54.2,19.9 C54.2,21.5 54.9,22.7 55.9,22.7 C56.9,22.7 57.6,21.4 57.6,19.9 C57.6,18.4 56.7,16.8 55.8,16.8 L55.8,16.8 Z" id="Shape" fill="#2A274A"></path>
                <path d="M60.4,1.3 C53.2,9.8 35.9,16.5 35.9,16.5 C24.2,12.4 13,1.3 13,1.3 C17.9,6.8 22.2,10.6 25.6,13.1 C25.3,12.9 25,12.9 24.8,12.8 C23,12.1 22.3,13.7 22.4,15.3 C22.5,16.8 22.7,18.5 23,20.2 C19.4,23.8 18.1,26.6 18.1,26.6 C19.5,24.9 21.3,23.1 23.3,21.6 C23.7,23.7 24.1,25.4 24.2,25.8 C24.4,26.4 25,27.7 26.1,27.5 C28.4,27 29.5,26.5 30.9,25.9 C31.9,25.4 32.7,24.7 32.7,24.7 C32.7,24.7 26.4,27.2 25.7,26.6 C25,26 22.9,14.8 23.8,13.9 C24.4,13.2 30.4,16.2 32.6,17.4 C34.9,18.5 36.2,18.6 36.2,18.6 C38.1,17.9 40,17.1 41.7,16.3 L41.7,16.3 C41.7,16.3 49.3,21.5 53,26.7 C53,26.7 50.8,21.1 43.4,15.5 C56.2,8.9 60.4,1.3 60.4,1.3 L60.4,1.3 Z" id="Shape" fill="#423C60"></path>
            </g>
            <g id="Group" transform="translate(354.000000, 445.000000)">
                <path d="M54.8,0.7 C53.7,-0.4 13,-4.60742555e-14 12,0.7 C11.6,1 11.4,4.5 11.3,8.9 C8.9,7.7 1.6,4 0.9,5 C0.1,6.3 3.4,21.5 4.3,22.2 C5,22.8 9.5,20.3 11.3,19.2 C11.4,23.3 11.7,26.6 12,26.9 C13.1,28 54,28 54.8,26.9 C55.7,25.9 55.7,1.9 54.8,0.7 L54.8,0.7 Z" id="Shape" fill="#615A84"></path>
                <path d="M50.7,15.2 C50.3,15.2 49.9,15.5 49.6,16 C49.7,16 49.8,15.9 49.9,15.9 C50.3,15.9 50.7,16.3 50.7,16.9 C50.7,17.4 50.3,17.9 49.9,17.9 C49.6,17.9 49.4,17.6 49.2,17.5 L49.2,18 C49.2,19.5 49.9,20.5 50.8,20.5 C51.6,20.5 52.4,19.4 52.4,18 C52.3,16.5 51.6,15.2 50.7,15.2 L50.7,15.2 Z" id="Shape" fill="#2A274A"></path>
                <path d="M55,1.2 C48.4,8.9 32.7,15 32.7,15 C22.1,11.3 11.8,1.2 11.8,1.2 C16.3,6.2 20.1,9.6 23.2,11.9 C22.9,11.7 22.7,11.6 22.5,11.6 C20.9,10.9 20.2,12.4 20.3,13.9 C20.4,15.2 20.6,16.9 20.9,18.4 C17.6,21.7 16.4,24.2 16.4,24.2 C17.6,22.6 19.4,21 21.1,19.6 C21.5,21.5 21.8,23 21.9,23.5 C22.1,24 22.6,25.2 23.6,25.1 C25.7,24.7 26.7,24.2 27.9,23.6 C28.8,23.2 29.5,22.5 29.5,22.5 C29.5,22.5 23.8,24.8 23.1,24.2 C22.4,23.6 20.6,13.5 21.3,12.6 C21.9,11.9 27.4,14.7 29.3,15.8 C31.4,16.8 32.5,16.9 32.5,16.9 C34.3,16.2 35.9,15.5 37.5,14.8 L37.5,14.8 C37.5,14.8 44.4,19.5 47.8,24.2 C47.8,24.2 45.8,19.1 39,14 C51.2,8 55,1.2 55,1.2 L55,1.2 Z" id="Shape" fill="#4F466F"></path>
            </g>
            <g id="Group" transform="translate(412.000000, 295.000000)">
                <path d="M40.1,1 C39.4,0.1 9.3,0.5 8.6,1 C8.4,1.2 8.1,3.8 8,7.1 C6.2,6.2 0.8,3.5 0.3,4.3 C-0.3,5.3 2.1,16.4 2.8,17 C3.4,17.4 6.7,15.5 8,14.8 C8.1,17.8 8.2,20.2 8.6,20.5 C9.5,21.2 39.5,21.4 40.1,20.5 C40.7,19.6 40.9,1.9 40.1,1 L40.1,1 Z" id="Shape" fill="#55537A"></path>
                <path d="M37.1,11.7 C36.8,11.7 36.5,11.9 36.3,12.3 C36.4,12.3 36.5,12.2 36.5,12.2 C36.8,12.2 37.1,12.5 37.1,12.8 C37.1,13.2 36.9,13.4 36.5,13.4 C36.3,13.4 36.1,13.2 36,13.1 L36,13.5 C36,14.6 36.5,15.4 37.1,15.4 C37.7,15.4 38.2,14.5 38.2,13.5 C38.2,12.5 37.8,11.7 37.1,11.7 L37.1,11.7 Z" id="Shape" fill="#2A274A"></path>
                <path d="M40.2,1.4 C35.3,7.1 23.8,11.6 23.8,11.6 C16,8.8 8.4,1.4 8.4,1.4 C11.7,5.1 14.5,7.6 16.8,9.3 C16.6,9.2 16.4,9.1 16.3,9.1 C15.1,8.6 14.6,9.7 14.7,10.8 C14.8,11.8 14.9,13 15.1,14.1 C12.7,16.5 11.8,18.4 11.8,18.4 C12.8,17.3 14,16.1 15.3,15.1 C15.5,16.5 15.8,17.7 15.9,17.9 C16,18.3 16.5,19.1 17.1,19 C18.6,18.7 19.4,18.4 20.3,17.9 C20.9,17.6 21.5,17.1 21.5,17.1 C21.5,17.1 17.3,18.8 16.7,18.4 C16.1,18 14.8,10.5 15.4,9.9 C15.9,9.4 19.9,11.4 21.3,12.2 C22.8,12.9 23.3,13 23.3,13 C24.6,12.5 25.9,11.9 26.7,11.5 L26.7,11.5 C26.7,11.5 32.1,15 34.6,18.5 C34.6,18.5 33.3,14.8 28.3,11 C37.3,6.4 40.2,1.4 40.2,1.4 L40.2,1.4 Z" id="Shape" fill="#423C60"></path>
            </g>
            <path d="M849.3,843.3 L897.2,834.7 C897.2,834.7 910.1,826.3 913.1,826.3 L938,826.3 L958.8,837 L995.6,842.8 L1016.1,839 L1024.5,830.5 L1046.4,826.3 L1085.2,825.5 L1113.6,812.1 L1143.9,788.6 L1189.6,803.7 L1312.9,797.9 L1337.8,786.2 L1455.2,767.8 L1491,796.1 L1518.8,796.1 L1534.7,780.4 L1555.6,762.8 L1580.5,748.6 L1594.4,736 L1609.3,723.4 L1655,691.6 L1681.8,702.5 L1715.6,691.6 L1792.3,653.8 L1794.1,687.4 L1794.1,706.7 L1794.1,855.8 L775.8,853.9 L849.3,843.3 L849.3,843.3 Z" id="Shape" fill="#1A1A33"></path>
            <g id="Group" transform="translate(296.000000, 329.000000)">
                <path d="M77.6,1.9 C76.2,0.3 18.3,0.9 16.8,1.9 C16.3,2.3 15.9,7.3 15.7,13.5 C12.3,11.7 1.8,6.5 0.9,8.1 C-0.2,10 4.3,31.5 5.7,32.6 C6.8,33.5 13.2,29.9 15.7,28.3 C15.9,34.2 16.2,38.8 16.8,39.3 C18.4,40.7 76.4,40.9 77.6,39.3 C78.8,37.7 79,3.5 77.6,1.9 L77.6,1.9 Z" id="Shape" fill="#615A84"></path>
                <path d="M77.8,2.5 C68.5,13.5 46.1,22.2 46.1,22.2 C31.1,16.9 16.4,2.5 16.4,2.5 C22.7,9.6 28.2,14.5 32.5,17.8 C32.1,17.6 31.8,17.5 31.4,17.4 C29.1,16.4 28.2,18.5 28.3,20.6 C28.4,22.4 28.7,24.8 29.1,27 C24.4,31.7 22.7,35.2 22.7,35.2 C24.5,32.9 27,30.7 29.4,28.7 C29.9,31.4 30.5,33.6 30.5,34.1 C30.8,34.8 31.6,36.5 32.9,36.3 C35.9,35.7 37.2,35.1 39,34.3 C40.2,33.6 41.3,32.7 41.3,32.7 C41.3,32.7 33.2,35.9 32.2,35.2 C31.1,34.4 28.7,19.9 29.7,18.7 C30.6,17.7 38.3,21.7 41.1,23.2 C44.1,24.6 45.7,24.8 45.7,24.8 C48.2,23.8 50.6,22.8 52.7,21.8 L52.7,21.8 C52.7,21.8 62.4,28.5 67.3,35.2 C67.3,35.2 64.4,28.1 54.8,20.8 C72.4,12.3 77.8,2.5 77.8,2.5 L77.8,2.5 Z" id="Shape" fill="#4F466F"></path>
                <path d="M71.9,22.5 C71.6,22.5 71.3,22.6 71.1,22.8 C71.6,23.1 72.1,23.8 72.1,24.6 C72.1,25.7 71.5,26.5 70.7,26.5 C70.4,26.5 70.1,26.3 69.8,26.1 L69.8,26.3 C69.8,28.3 70.8,30 71.9,30 C73,30 74,28.4 74,26.3 C74,24.2 73,22.5 71.9,22.5 L71.9,22.5 Z" id="Shape" fill="#2A274A"></path>
            </g>
            <g id="Group" transform="translate(1021.000000, 671.000000)">
                <path d="M1.4,0.6 C2.1,-0.2 30.1,0.1 30.8,0.6 C31,0.8 31.3,3.2 31.3,6.3 C32.9,5.4 38,2.9 38.5,3.7 C39,4.6 36.8,15 36.2,15.6 C35.7,16 32.6,14.3 31.4,13.6 C31.3,16.5 31.2,18.6 30.9,19 C30.1,19.7 2,19.8 1.5,19 C0.8,18 0.7,1.4 1.4,0.6 L1.4,0.6 Z" id="Shape" fill="#474368"></path>
                <path d="M4.2,10.6 C4.5,10.6 4.7,10.8 5,11.1 C4.9,11.1 4.8,11 4.8,11 C4.5,11 4.3,11.3 4.3,11.6 C4.3,12 4.5,12.2 4.8,12.2 C5,12.2 5.2,12 5.3,11.9 L5.3,12.2 C5.3,13.2 4.8,14 4.3,14 C3.8,14 3.3,13.2 3.3,12.2 C3.3,11.2 3.6,10.6 4.2,10.6 L4.2,10.6 Z" id="Shape" fill="#2A274A"></path>
                <path d="M1.3,1 C5.8,6.3 16.7,10.6 16.7,10.6 C24,8 31.1,1 31.1,1 C28,4.5 25.4,6.8 23.3,8.5 C23.5,8.4 23.6,8.3 23.8,8.3 C24.9,7.8 25.4,8.8 25.3,9.9 C25.2,10.8 25.1,11.9 24.9,13 C27.2,15.3 28,17 28,17 C27.1,15.9 26,14.8 24.7,13.9 C24.5,15.2 24.2,16.3 24.2,16.5 C24.1,16.8 23.7,17.7 23,17.6 C21.5,17.3 20.9,17 20,16.6 C19.4,16.3 18.9,15.8 18.9,15.8 C18.9,15.8 22.9,17.4 23.3,17 C23.8,16.6 25,9.6 24.5,9 C24.1,8.5 20.4,10.5 19,11.2 C17.5,11.9 16.8,12 16.8,12 C15.6,11.5 14.2,11.1 13.5,10.5 L13.5,10.5 C13.5,10.5 8.7,13.8 6.4,17 C6.4,17 7.7,13.5 12.4,10 C3.9,5.6 1.3,1 1.3,1 L1.3,1 Z" id="Shape" fill="#363051"></path>
            </g>
            <g id="Group" transform="translate(1068.000000, 618.000000)">
                <path d="M1,0.9 C1.7,-8.12683254e-14 30.5,0.4 31.2,0.9 C31.4,1.1 31.7,3.5 31.7,6.7 C33.4,5.8 38.6,3.2 39.1,4 C39.7,4.9 37.4,15.6 36.7,16.2 C36.2,16.6 33,14.8 31.7,14.1 C31.6,17 31.5,19.3 31.2,19.5 C30.3,20.2 1.5,20.4 1,19.5 C0.4,18.8 0.3,1.8 1,0.9 L1,0.9 Z" id="Shape" fill="#444468"></path>
                <path d="M3.8,11.2 C4.1,11.2 4.3,11.4 4.6,11.7 C4.5,11.7 4.4,11.6 4.4,11.6 C4.1,11.6 3.9,11.9 3.9,12.2 C3.9,12.6 4.1,12.8 4.4,12.8 C4.6,12.8 4.8,12.6 4.9,12.5 L4.9,12.9 C4.9,13.9 4.4,14.8 3.8,14.8 C3.2,14.8 2.7,13.9 2.7,12.9 C2.7,11.9 3.2,11.2 3.8,11.2 L3.8,11.2 Z" id="Shape" fill="#2A274A"></path>
                <path d="M0.8,1.3 C5.5,6.7 16.6,11.1 16.6,11.1 C24.1,8.5 31.4,1.3 31.4,1.3 C28.2,4.9 25.6,7.3 23.3,8.9 C23.5,8.8 23.7,8.7 23.8,8.7 C25,8.2 25.4,9.2 25.4,10.3 C25.3,11.2 25.2,12.4 25,13.5 C27.3,15.8 28.2,17.6 28.2,17.6 C27.3,16.5 26.1,15.3 24.9,14.4 C24.7,15.7 24.4,16.9 24.4,17.1 C24.3,17.5 23.9,18.3 23.2,18.2 C21.7,17.9 21,17.6 20.1,17.2 C19.5,16.9 18.9,16.4 18.9,16.4 C18.9,16.4 22.9,18 23.5,17.6 C24,17.2 25.3,10 24.7,9.4 C24.2,8.9 20.4,10.9 19,11.7 C17.5,12.4 16.9,12.5 16.9,12.5 C15.7,12 14.3,11.5 13.6,11 L13.6,11 C13.6,11 8.6,14.3 6.2,17.7 C6.2,17.7 7.5,14.1 12.3,10.6 C3.6,6.1 0.8,1.3 0.8,1.3 L0.8,1.3 Z" id="Shape" fill="#322E4C"></path>
            </g>
            <g id="Group" transform="translate(1126.000000, 631.000000)">
                <path d="M1,1.3 C2,0.1 41.8,0.7 42.9,1.3 C43.3,1.5 43.5,5 43.6,9.3 C45.9,8.1 53.2,4.5 53.8,5.6 C54.7,6.9 51.4,21.8 50.5,22.4 C49.7,23 45.4,20.5 43.6,19.4 C43.5,23.4 43.3,26.6 42.9,26.9 C41.7,27.9 1.9,28.1 1,26.9 C0.2,26 3.33066907e-15,2.4 1,1.3 L1,1.3 Z" id="Shape" fill="#504C72"></path>
                <path d="M0.9,1.7 C7.3,9.2 22.7,15.2 22.7,15.2 C33,11.6 43.1,1.7 43.1,1.7 C38.8,6.6 35,9.9 31.9,12.3 C32.1,12.1 32.4,12.1 32.6,12 C34.2,11.4 34.9,12.8 34.7,14.3 C34.6,15.5 34.4,17.2 34.2,18.6 C37.5,21.8 38.5,24.3 38.5,24.3 C37.3,22.7 35.5,21.2 33.9,19.9 C33.6,21.8 33.2,23.3 33.1,23.6 C32.9,24.1 32.4,25.2 31.5,25.1 C29.5,24.7 28.5,24.2 27.2,23.6 C26.3,23.1 25.6,22.5 25.6,22.5 C25.6,22.5 31.2,24.8 31.9,24.2 C32.6,23.7 34.3,13.7 33.6,12.9 C33,12.2 27.7,15 25.8,16 C23.8,16.9 22.6,17.1 22.6,17.1 C20.8,16.4 19.3,15.8 17.7,15 L17.7,15 C17.7,15 10.9,19.6 7.7,24.2 C7.7,24.2 9.6,19.2 16.3,14.3 C4.6,8.4 0.9,1.7 0.9,1.7 L0.9,1.7 Z" id="Shape" fill="#393456"></path>
                <path d="M5,15.5 C5.2,15.5 5.4,15.6 5.5,15.7 C5.1,15.9 4.9,16.3 4.9,16.9 C4.9,17.6 5.3,18.2 5.8,18.2 C6,18.2 6.3,18.1 6.4,17.9 L6.4,18 C6.4,19.4 5.7,20.6 4.9,20.6 C4,20.6 3.4,19.4 3.4,18 C3.5,16.6 4.1,15.5 5,15.5 L5,15.5 Z" id="Shape" fill="#2A274A"></path>
            </g>
            <path d="M2.5,626.3 L35.3,612.3 L51.5,612.3 L60.3,626.3 L67.6,648.8 L94.1,648.8 L104.4,662.8 L129.4,684.4 L157.4,690 L170.6,704 L201.4,714.3 L213.2,730.3 L232.3,749.1 L266.1,758.8 L286.7,758.8 L335,753.1 L376.4,743.5 C376.4,743.5 382.2,740.7 388.2,738.8 C394,736.9 414.7,751 414.7,751 L438.2,771.7 L463.2,758.9 L508.8,769.9 L527.9,785 C527.9,785 560.2,801 564.7,798.1 C569.2,795.3 613.2,797.2 613.2,797.2 L613.2,806.6 L657.3,801 L674.9,794.5 L702.8,798.2 L717.5,809.4 L741,803.8 L808.6,816 L852.7,830 L900.7,839.4 L954.1,839.4 L967.3,845.7 L1004.1,857.4 L2.5,856.2 L2.5,626.3 L2.5,626.3 L2.5,626.3 Z" id="Shape" fill="#131328"></path>
        </g>
    </g>
</svg>