<?xml version="1.0" encoding="UTF-8" standalone="no"?>
<svg width="165px" height="259px" viewBox="0 0 165 259" version="1.1" xmlns="http://www.w3.org/2000/svg" xmlns:xlink="http://www.w3.org/1999/xlink">
    <!-- Generator: Sketch 42 (36781) - http://www.bohemiancoding.com/sketch -->
    <title>Artboard</title>
    <desc>Created with Sketch.</desc>
    <defs></defs>
    <g id="Page-1" stroke="none" stroke-width="1" fill="none" fill-rule="evenodd">
        <g id="Artboard" fill-rule="nonzero">
            <g id="Group" transform="translate(24.000000, 20.000000)">
                <path d="M89.6,83.7 C111.2,96.7 132.9,85.8 132.9,85.8 C119,81.7 126.7,66.2 116.9,49.2 C107.2,32.2 83.9,42.5 83.9,42.5 C83.9,42.5 67.9,70.9 89.6,83.7 Z" id="Shape" fill="#E9BAA9"></path>
                <path d="M89.5,83.7 C91.8,85 94.1,86.2 96.4,87 C98.1,80.8 98.9,73.9 98.9,67.5 C98.9,58.9 96.9,48.1 92.2,40 C87.4,41 84,42.5 84,42.5 C84,42.5 67.9,70.9 89.5,83.7 Z" id="Shape" fill="#DFA696"></path>
                <path d="M91.7,93.7 C99.4,41.9 74.4,17.4 60.7,9.4 C47,1.4 36,-5.2 19.9,7.5 C3.8,20.2 6.4,33.9 14.7,47.5 C23,61.1 40,64.5 40,64.5 C40,64.5 41,75.5 25,93.4 C5.4,114.6 11.4,133.4 11.4,133.4 C1.1,138.8 8.5,149.7 8.5,149.7 C8.5,149.7 11,150.1 15.1,150.8 C15.3,156.7 15.4,167.5 15.6,173.9 C14.2,172.3 12.3,171.3 10,171.3 C6,171.3 2.8,174.5 2.8,178.5 C2.8,182.5 6,185.7 10,185.7 C10.4,185.7 10.8,185.7 11.1,185.6 C9.9,192.9 11.3,201.1 17.6,207.2 C18.3,211.4 21.4,228.2 19.7,239.8 L83.8,239.8 C78.5,228.6 79.8,209 80.1,203.3 C83.3,198.1 83.8,193 83.8,190.2 C84.2,190.2 84.6,190.3 85,190.3 C89.2,190.3 92.5,186.9 92.5,182.8 C92.5,178.6 89.1,175.3 85,175.3 C82.8,175.3 80.8,176.3 79.4,177.8 L79,155.2 C83.7,154.4 87.1,153.1 88.4,150.8 C95.6,138.2 82,131.7 82,131.7 C84.7,125.9 87.8,116 91.7,93.7 Z" id="Shape" fill="#CC7691"></path>
                <ellipse id="Oval" fill="#FFFFFF" transform="translate(71.762779, 161.390533) rotate(5.164875) translate(-71.762779, -161.390533) " cx="71.7627787" cy="161.390533" rx="16.5993371" ry="15.799369"></ellipse>
                <ellipse id="Oval" fill="#FFFFFF" transform="translate(24.466750, 160.496350) rotate(-6.667325) translate(-24.466750, -160.496350) " cx="24.46675" cy="160.49635" rx="17.8993328" ry="16.89937"></ellipse>
                <path d="M25.8,155 C25,157.5 22.6,159.3 19.8,159.3 C16.6,159.3 14,156.9 13.5,153.8 C10.3,155.5 8.1,158.7 8.1,162.4 C8.1,167.8 12.8,172.2 18.8,172.2 C24.8,172.2 29.5,167.8 29.5,162.4 C29.5,159.4 28,156.9 25.8,155 Z" id="Shape" fill="#3A3A3A"></path>
                <path d="M73.7,151.6 C73.5,154.5 71.4,157.1 68.4,157.8 C65,158.6 61.6,156.9 60.4,153.6 C57.4,156.3 56,160.2 56.9,164.1 C58.3,169.9 64.5,173.3 70.9,171.7 C77.2,170.2 81.1,164.2 79.7,158.4 C78.9,155.3 76.6,152.9 73.7,151.6 Z" id="Shape" fill="#3A3A3A"></path>
                <path d="M5.5,154.9 C4.6,157.5 4.2,160.3 4.6,163.2 C5.9,173.5 15.6,180.7 26.4,179.5 C37.2,178.2 45,168.9 43.8,158.7 C43.5,156.2 42.7,154 41.5,151.8 C42.8,151 46.8,149.2 54.8,151.5 C53.4,153.7 52.5,156.3 52.3,159.1 C51.4,169.4 59.5,178.5 70.3,179.4 C81.2,180.4 90.7,172.8 91.7,162.5 C91.9,159.9 91.5,157.2 90.7,154.8 C91.5,154.7 95.4,154 96.5,149 C96.5,149 93.7,153 89,151.5 C88.8,151.2 88.7,150.9 88.4,150.6 C89.3,150.3 92.6,148.7 92.5,143.6 C92.5,143.6 90.8,148 86.1,147.8 C85.8,147.5 85.5,147.3 85.3,147 C86.1,146.5 89,144.3 87.9,139.3 C87.9,139.3 87.2,144.2 82.2,144.9 C79.7,143.4 76.9,142.4 73.7,142.2 C67.1,141.7 61,144.2 57,148.6 C54.6,147.6 46.8,144.9 39.4,148.6 C35.3,144 29.1,141.5 22.3,142.2 C19.5,142.5 16.8,143.5 14.4,144.8 C9.5,144.1 8.8,139.2 8.8,139.2 C7.7,144 10.4,146.3 11.3,146.9 C11,147.2 10.6,147.5 10.4,147.7 C5.8,147.9 4.1,143.5 4.1,143.5 C4,148.4 7,150.1 8.1,150.5 C7.8,150.8 7.6,151.2 7.4,151.5 C2.8,152.9 0.1,149 0.1,149 C1.2,154.1 4.6,154.8 5.5,154.9 Z M57.4,159.6 C58.1,152 65.3,146.3 73.2,147.1 C81.2,147.9 87.2,154.6 86.5,162.3 C85.8,169.9 78.6,176 70.7,175.3 C62.6,174.5 56.8,167.2 57.4,159.6 Z M22.6,147 C30.6,146.1 37.9,151.6 38.7,159.1 C39.6,166.7 33.9,174.2 25.9,175.1 C17.9,176 10.6,170 9.7,162.5 C8.9,155 14.8,148.1 22.6,147 Z" id="Shape" fill="#3A3A3A"></path>
                <path d="M38.5,201 C53.6,206.4 66.5,200.4 66.5,200.4 C47.7,215.3 38.5,200.9 38.5,201 Z" id="Shape" fill="#B75978"></path>
                <path d="M57.4,132.8 C65.9,128.7 82.2,131.8 82.2,131.8 L83.2,129 C78,126.8 72.5,125.7 67.4,126.5 C59.6,128.7 57.3,132.8 57.4,132.8 Z" id="Shape" fill="#B75978"></path>
                <path d="M10.8,129 C10.9,130.4 11.1,132.5 11.5,133.3 C11.5,133.3 23.6,127.5 39.2,133.6 C39.2,133.6 38.7,132.3 36.8,131 C28.9,126.4 18.9,125.4 10.8,129 Z" id="Shape" fill="#B75978"></path>
                <path d="M80,119.7 C80,119.7 81.3,106.2 65.2,101.7 C47.3,96.5 35.7,107.5 35.7,107.5 C71.5,103.9 80,119.7 80,119.7 Z" id="Shape" fill="#E9BAA9"></path>
                <path d="M85.8,94.1 C85.8,94.1 89.4,81.8 77.2,76.9 C62.8,71.1 52.1,81.1 52.1,81.1 C78.4,76.7 85.8,94.1 85.8,94.1 Z" id="Shape" fill="#E9BAA9"></path>
                <path d="M90.8,69.9 C90.8,69.9 93.1,59 83.3,55.8 C68.8,51.2 60.1,61.1 60.1,61.1 C84,57.7 90.2,70.1 90.8,69.9 Z" id="Shape" fill="#E9BAA9"></path>
                <path d="M88.3,44.3 C87.5,42 86.6,39.9 85.7,37.9 C70.8,34.3 63.6,42.3 63.6,42.3 C63.6,42.3 78.4,40.1 88.3,44.3 Z" id="Shape" fill="#E9BAA9"></path>
                <path d="M75.9,22.4 C74.6,21 73.3,19.4 72,18.2 C66,18.4 64.5,24.8 64.5,24.8 C64.5,24.8 68.7,22.4 75.9,22.4 Z" id="Shape" fill="#E9BAA9"></path>
                <path d="M8.4,25.6 C7.9,29.4 8.6,33.2 9.8,37 C14.4,37.7 20.2,36.8 20.2,36.8 C12.6,36.4 9.3,28.7 8.4,25.6 Z" id="Shape" fill="#E9BAA9"></path>
                <path d="M16,49.3 C18,52.1 20.3,54.4 22.8,56.3 C28.7,53.6 32.1,47.4 32.1,47.4 C25.1,51.5 17.7,49.7 16,49.3 Z" id="Shape" fill="#E9BAA9"></path>
                <path d="M30.7,61.1 C41.5,44.1 35.3,28.2 35.3,28.2 C42.4,36.3 40,64.6 40,64.6 C34.6,63.2 30.6,61.1 30.7,61.1 Z" id="Shape" fill="#B75978"></path>
                <path d="M54.8,183.7 C54.8,183.7 56.2,184 57.8,184.8 L57.9,185.1 C57.9,186.1 57.3,186.6 56.9,186.9 C55.6,187.4 50.1,188.8 42.5,187.3 C42.5,187.3 47.6,190.7 55.8,189.1 C55.8,189.1 56.5,189 57.2,188.7 C57.5,188.5 57.9,188.4 58.2,188.2 C58.4,188.1 58.5,187.9 58.7,187.8 C58.7,187.7 58.8,187.7 58.8,187.7 L58.8,187.7 C59.1,187.3 59.5,186.7 59.6,185.7 C60.4,186.3 61.4,187.1 62.1,188.2 C61.9,188.1 61.5,181.7 54.8,183.7 Z" id="Shape" fill="#3A3A3A"></path>
            </g>
        </g>
    </g>
</svg>