<?xml version="1.0" encoding="UTF-8" standalone="no"?>
<svg width="106px" height="106px" viewBox="0 0 106 106" version="1.1" xmlns="http://www.w3.org/2000/svg" xmlns:xlink="http://www.w3.org/1999/xlink">
    <!-- Generator: Sketch 3.6.1 (26313) - http://www.bohemiancoding.com/sketch -->
    <title>marketing</title>
    <desc>Created with Sketch.</desc>
    <defs></defs>
    <g id="Page-1" stroke="none" stroke-width="1" fill="none" fill-rule="evenodd">
        <g id="marketing">
            <circle id="Oval-1" stroke="#CC7691" stroke-width="4" cx="53" cy="53" r="50"></circle>
            <g id="fi-shopping-bag" transform="translate(29.000000, 32.000000)" fill="#CC7691">
                <g id="Layer_1">
                    <path d="M48.3993915,13.1154172 C48.2796647,12.028321 47.3696292,11.1801161 46.2504933,11.1801161 L46.2504933,11.1801161 L42.8216996,11.1801161 C39.2771137,4.52938037 32.2745051,-1.42108547e-14 24.2117808,-1.42108547e-14 C16.1484945,-1.42108547e-14 9.14644792,4.52938037 5.6013,11.1806782 L2.17306832,11.1806782 C1.05449461,11.1806782 0.143896919,12.0294452 0.0241701856,13.1159793 L-1.77635684e-14,13.1159793 L-1.77635684e-14,36.8280556 L-1.77635684e-14,36.8280556 C-1.77635684e-14,38.0275714 0.972990496,38.9999998 2.17250622,38.9999998 L2.17250622,38.9999998 L46.2504933,38.9999998 L46.2504933,38.9999998 L46.2510554,38.9999998 C47.4511333,39.0005619 48.4241238,38.0275714 48.4235617,36.8280556 L48.4235617,13.1154172 L48.3993915,13.1154172 L48.3993915,13.1154172 Z M12.305435,11.1801161 C15.1490854,7.76481266 19.4300188,5.58668546 24.2117808,5.58668546 C28.9929808,5.58668546 33.2739142,7.76481266 36.1175646,11.1801161 L12.305435,11.1801161 L12.305435,11.1801161 Z" id="Shape"></path>
                </g>
            </g>
        </g>
    </g>
</svg>