<?xml version="1.0" encoding="UTF-8" standalone="no"?>
<svg width="106px" height="106px" viewBox="0 0 106 106" version="1.1" xmlns="http://www.w3.org/2000/svg" xmlns:xlink="http://www.w3.org/1999/xlink">
    <!-- Generator: Sketch 3.6.1 (26313) - http://www.bohemiancoding.com/sketch -->
    <title>transactional</title>
    <desc>Created with Sketch.</desc>
    <defs></defs>
    <g id="Page-1" stroke="none" stroke-width="1" fill="none" fill-rule="evenodd">
        <g id="transactional">
            <g id="Group-2" transform="translate(3.000000, 3.000000)">
                <circle id="Oval-1" stroke="#CC7691" stroke-width="4" cx="50" cy="50" r="50"></circle>
                <g id="fi-comments" transform="translate(26.000000, 32.000000)" fill="#CC7691">
                    <g id="Layer_1">
                        <g id="Group">
                            <path d="M47.9861333,1.50008571 C47.9184,0.835671429 47.3674667,0.315557143 46.6832,0.296528571 L46.6832,0.292828571 L18.4661333,0.292828571 C17.7648,0.292828571 17.1946667,0.823514286 17.1258667,1.50008571 L17.112,1.50008571 L17.112,8.44498571 L29.0277333,8.44498571 C29.6538667,8.44498571 30.1621333,8.91858571 30.224,9.52274286 L30.2362667,9.52274286 L30.2362667,24.9739429 L36.1077333,24.9739429 L39.568,28.4027857 C39.8112,28.7606286 40.2234667,28.9958429 40.6912,28.9958429 C41.4389333,28.9958429 42.0448,28.3953857 42.0448,27.6548571 L42.0448,24.9739429 L46.6837333,24.9739429 L46.6837333,24.9697143 C47.3221333,24.9522714 47.8506667,24.4998143 47.9728,23.8983 L48,23.8983 L48,1.50008571 L47.9861333,1.50008571 L47.9861333,1.50008571 Z" id="Shape"></path>
                            <path d="M26.368,11.0809714 L1.17546667,11.0809714 L1.17546667,11.0841429 C0.565333333,11.1005286 0.0730666667,11.5651429 0.0122666667,12.1587286 L0,12.1587286 L0,32.1572286 L0.0245333333,32.1572286 C0.133866667,32.6937286 0.605866667,33.0975571 1.17546667,33.1134143 L1.17546667,33.1165857 L5.3168,33.1165857 L5.3168,35.5104857 C5.3168,36.1712 5.85813333,36.7077 6.52533333,36.7077 C6.94293333,36.7077 7.31146667,36.4973286 7.528,36.1780714 L10.6170667,33.1165857 L26.368,33.1165857 C26.9525333,33.1165857 27.4405333,32.7043 27.552,32.1572286 L27.576,32.1572286 L27.576,12.1587286 L27.5637333,12.1587286 C27.5029333,11.5540429 26.9941333,11.0809714 26.368,11.0809714 L26.368,11.0809714 Z" id="Shape"></path>
                        </g>
                    </g>
                </g>
            </g>
        </g>
    </g>
</svg>