<?xml version="1.0" encoding="utf-8"?>
<!-- Generator: Adobe Illustrator 19.1.0, SVG Export Plug-In . SVG Version: 6.00 Build 0)  -->
<svg version="1.1" id="Layer_1" xmlns="http://www.w3.org/2000/svg" xmlns:xlink="http://www.w3.org/1999/xlink" x="0px" y="0px"
	 width="400px" height="270px" viewBox="0 0 400 270" style="enable-background:new 0 0 400 270;" xml:space="preserve">
<style type="text/css">
	.st0{fill:#DEDEDD;}
</style>
<rect x="9.3" y="11.2" class="st0" width="381.7" height="32"/>
<rect x="9.3" y="49.9" class="st0" width="42.9" height="187"/>
<rect x="348.1" y="49.9" class="st0" width="42.9" height="62"/>
<rect x="60.4" y="49.9" class="st0" width="24.3" height="24.3"/>
<rect x="92.5" y="49.9" class="st0" width="247" height="24.3"/>
<rect x="60.4" y="80.9" class="st0" width="24.3" height="24.3"/>
<rect x="92.5" y="80.9" class="st0" width="247" height="24.3"/>
<rect x="60.4" y="111.9" class="st0" width="24.3" height="24.3"/>
<rect x="92.5" y="111.9" class="st0" width="247" height="24.3"/>
<rect x="60.4" y="142.9" class="st0" width="24.3" height="24.3"/>
<rect x="92.5" y="142.9" class="st0" width="247" height="24.3"/>
<rect x="60.4" y="173.9" class="st0" width="24.3" height="24.3"/>
<rect x="92.5" y="173.9" class="st0" width="247" height="24.3"/>
<rect x="60.4" y="204.9" class="st0" width="24.3" height="24.3"/>
<rect x="92.5" y="204.9" class="st0" width="247" height="24.3"/>
<rect x="60.4" y="235.8" class="st0" width="24.3" height="24.3"/>
<rect x="92.5" y="235.8" class="st0" width="247" height="24.3"/>
<rect x="348.1" y="119.6" class="st0" width="42.9" height="93.1"/>
</svg>
