<?xml version="1.0" encoding="utf-8"?>
<!-- Generator: Adobe Illustrator 19.1.0, SVG Export Plug-In . SVG Version: 6.00 Build 0)  -->
<svg version="1.1" id="Layer_1" xmlns="http://www.w3.org/2000/svg" xmlns:xlink="http://www.w3.org/1999/xlink" x="0px" y="0px"
	 width="400px" height="270px" viewBox="0 0 400 270" style="enable-background:new 0 0 400 270;" xml:space="preserve">
<style type="text/css">
	.st0{fill:#FFFFFF;stroke:#E2E2E2;stroke-miterlimit:10;}
	.st1{opacity:0.5;fill:none;stroke:#EBEBEB;stroke-width:4.3124;stroke-linecap:round;stroke-miterlimit:10;}
	.st2{fill:#05526A;stroke:#05526A;stroke-miterlimit:10;}
	.st3{opacity:0.5;fill:#EBEBEB;}
	.st4{opacity:0.1;fill:#EBEBEB;}
	.st5{fill:#CED4D6;}
	.st6{fill:#9DADB3;}
	.st7{fill:#05526A;}
	.st8{opacity:0.75;fill:#05526A;}
	.st9{fill:#ECECEC;}
	.st10{opacity:0.25;fill:#EBEBEB;}
	.st11{fill:#FFFFFF;}
	.st12{fill:#CED4D6;stroke:#CED4D6;stroke-miterlimit:10;}
	.st13{fill:#CED4D6;stroke:#E2E2E2;stroke-miterlimit:10;}
</style>
<g>
	<g>
		<rect x="1.8" y="26.9" class="st5" width="396.8" height="50.1"/>
		<path class="st0" d="M1.8,75.4v186.1c0,2.9,2.2,5.2,5,5.2h386.8c2.8,0,5-2.3,5-5.2V75.4C368.3,75.4,42,75.4,1.8,75.4z"/>
	</g>
	<line class="st1" x1="171" y1="29.4" x2="229.3" y2="29.4"/>
	<g>
		<path class="st2" d="M395.8,4.4H4.5c-1.7,0-3,0.9-3,2.1V17v6.4v10.7h397.3V23.4V17V6.5C398.8,5.3,397.4,4.4,395.8,4.4z"/>
		<path class="st3" d="M81.5,15H17.7c-1.1,0-2,0.9-2,2v5c0,1.1,0.9,2,2,2h63.8c1.1,0,2-0.9,2-2v-5C83.5,15.9,82.6,15,81.5,15z"/>
		<path class="st4" d="M135.3,15H97.1c-0.7,0-1.2,0.9-1.2,2v5c0,1.1,0.5,2,1.2,2h38.2c0.7,0,1.2-0.9,1.2-2v-5
			C136.5,15.9,135.9,15,135.3,15z"/>
		<path class="st4" d="M183.2,15H145c-0.7,0-1.2,0.9-1.2,2v5c0,1.1,0.5,2,1.2,2h38.2c0.7,0,1.2-0.9,1.2-2v-5
			C184.4,15.9,183.8,15,183.2,15z"/>
		<path class="st4" d="M343.8,15H312c-0.6,0-1,0.9-1,2v5c0,1.1,0.5,2,1,2h31.9c0.6,0,1-0.9,1-2v-5C344.8,15.9,344.4,15,343.8,15z"/>
		<path class="st4" d="M382.9,15H351c-0.6,0-1,0.9-1,2v5c0,1.1,0.5,2,1,2h31.9c0.6,0,1-0.9,1-2v-5C383.9,15.9,383.4,15,382.9,15z"/>
		<path class="st4" d="M265.7,15h-31.9c-0.6,0-1,0.9-1,2v5c0,1.1,0.5,2,1,2h31.9c0.6,0,1-0.9,1-2v-5C266.8,15.9,266.3,15,265.7,15z"
			/>
		<path class="st4" d="M304.8,15h-31.9c-0.6,0-1,0.9-1,2v5c0,1.1,0.5,2,1,2h31.9c0.6,0,1-0.9,1-2v-5C305.8,15.9,305.3,15,304.8,15z"
			/>
	</g>
	<path class="st5" d="M305.9,105.2h-38.2h-47.2h-2.6h-35.6h-2.6h-47.2H94.4c-1.7,0-3.2,1.4-3.2,3.2v60.6c0,1.7,1.4,3.2,3.2,3.2h38.2
		h47.2h2.6h35.6h2.6h47.2h38.2c1.7,0,3.2-1.4,3.2-3.2v-60.6C309.1,106.6,307.6,105.2,305.9,105.2z"/>
	<path class="st6" d="M241.2,90.6h-9.7h-24.5h-0.7h-9.7h-2.4h-22.2h-12.8c-1.1,0-2,0.9-2,2v5c0,1.1,0.9,2,2,2h12.8h22.2h2.4h9.7h0.7
		h24.5h9.7c1.1,0,2-0.9,2-2v-5C243.2,91.5,242.3,90.6,241.2,90.6z"/>
	<path class="st11" d="M257.6,49.6h-9.7h-23.2h-1.3h-0.7h-7.7h-2h-2.4h-20.2h-0.7h-1.3H180h-2.4h-2h-20.2h-12.8c-1.1,0-2,0.9-2,2v5
		c0,1.1,0.9,2,2,2h12.8h20.2h2h2.4h8.4h1.3h0.7h20.2h2.4h2h7.7h0.7h1.3h23.2h9.7c1.1,0,2-0.9,2-2v-5
		C259.6,50.5,258.7,49.6,257.6,49.6z"/>
	<g>
		<path class="st9" d="M306.4,178.7h-9.7h-24.5h-12.8c-0.2,0-0.5,0-0.7,0.1c-0.2-0.1-0.4-0.1-0.7-0.1h-9.7h-24.5H219h-8.1h-1.7
			h-24.5H180h-8.1h-1.7h-24.5H141h-8.1h-1.7h-24.5H93.9c-1.1,0-2,0.9-2,2v5c0,1.1,0.9,2,2,2h12.8h24.5h1.7h8.1h4.7h24.5h1.7h8.1h4.7
			h24.5h1.7h8.1h4.7h24.5h9.7c0.2,0,0.5,0,0.7-0.1c0.2,0.1,0.4,0.1,0.7,0.1h12.8h24.5h9.7c1.1,0,2-0.9,2-2v-5
			C308.4,179.6,307.5,178.7,306.4,178.7z"/>
		<path class="st9" d="M297,192.1h-9.7h-24.5H258h-8.1h-1.7h-24.5H219h-8.1h-1.7h-24.5H180h-8.1h-1.7h-24.5H141h-8.1h-1.7h-24.5
			H93.9c-1.1,0-2,0.9-2,2v5c0,1.1,0.9,2,2,2h12.8h24.5h1.7h8.1h4.7h24.5h1.7h8.1h4.7h24.5h1.7h8.1h4.7h24.5h1.7h8.1h4.7h24.5h9.7
			c1.1,0,2-0.9,2-2v-5C299,193,298.1,192.1,297,192.1z"/>
	</g>
	<g>
		<path class="st6" d="M241.2,227h-9.7h-24.5h-0.7h-9.7h-2.4h-22.2h-12.8c-1.1,0-2,0.9-2,2v5c0,1.1,0.9,2,2,2h12.8h22.2h2.4h9.7h0.7
			h24.5h9.7c1.1,0,2-0.9,2-2v-5C243.2,227.9,242.3,227,241.2,227z"/>
	</g>
	<g>
		<path class="st5" d="M309.1,244.8c0-1.7-1.4-3.2-3.2-3.2h-38.2h-47.2h-2.6h-35.6h-2.6h-47.2H94.4c-1.7,0-3.2,1.4-3.2,3.2v21.7
			h217.8V244.8z"/>
	</g>
</g>
</svg>
