<?xml version="1.0" encoding="utf-8"?>
<!-- Generator: Adobe Illustrator 19.1.0, SVG Export Plug-In . SVG Version: 6.00 Build 0)  -->
<svg version="1.1" id="Layer_1" xmlns="http://www.w3.org/2000/svg" xmlns:xlink="http://www.w3.org/1999/xlink" x="0px" y="0px"
	 width="400px" height="270px" viewBox="0 0 400 270" style="enable-background:new 0 0 400 270;" xml:space="preserve">
<style type="text/css">
	.st0{fill:#FFFFFF;stroke:#E2E2E2;stroke-miterlimit:10;}
	.st1{opacity:0.5;fill:none;stroke:#EBEBEB;stroke-width:4.3124;stroke-linecap:round;stroke-miterlimit:10;}
	.st2{fill:#05526A;stroke:#05526A;stroke-miterlimit:10;}
	.st3{opacity:0.5;fill:#EBEBEB;}
	.st4{opacity:0.1;fill:#EBEBEB;}
	.st5{fill:#CED4D6;}
	.st6{fill:#9DADB3;}
	.st7{fill:#05526A;}
	.st8{opacity:0.75;fill:#05526A;}
	.st9{fill:#ECECEC;}
	.st10{opacity:0.25;fill:#EBEBEB;}
	.st11{fill:#FFFFFF;}
	.st12{fill:#CED4D6;stroke:#CED4D6;stroke-miterlimit:10;}
	.st13{fill:#CED4D6;stroke:#E2E2E2;stroke-miterlimit:10;}
</style>
<g>
	<path class="st0" d="M7.3,18.3H394c2.8,0,5,2.3,5,5.2v238c0,2.9-2.2,5.2-5,5.2H7.3c-2.8,0-5-2.3-5-5.2v-238
		C2.3,20.7,4.5,18.3,7.3,18.3z"/>
	<line class="st1" x1="60.9" y1="29.5" x2="119.2" y2="29.5"/>
	<g>
		<path class="st2" d="M396.3,4.4H5c-1.7,0-3,0.9-3,2.1V17v6.4v10.7h397.3V23.4V17V6.5C399.3,5.4,397.9,4.4,396.3,4.4z"/>
		<path class="st3" d="M82,15.1H18.2c-1.1,0-2,0.9-2,2v5c0,1.1,0.9,2,2,2H82c1.1,0,2-0.9,2-2v-5C84,16,83.1,15.1,82,15.1z"/>
		<path class="st4" d="M135.8,15.1H97.6c-0.7,0-1.2,0.9-1.2,2v5c0,1.1,0.5,2,1.2,2h38.2c0.7,0,1.2-0.9,1.2-2v-5
			C137,16,136.4,15.1,135.8,15.1z"/>
		<path class="st4" d="M183.7,15.1h-38.2c-0.7,0-1.2,0.9-1.2,2v5c0,1.1,0.5,2,1.2,2h38.2c0.7,0,1.2-0.9,1.2-2v-5
			C184.9,16,184.3,15.1,183.7,15.1z"/>
		<path class="st4" d="M344.3,15.1h-31.9c-0.6,0-1,0.9-1,2v5c0,1.1,0.5,2,1,2h31.9c0.6,0,1-0.9,1-2v-5
			C345.3,16,344.9,15.1,344.3,15.1z"/>
		<path class="st4" d="M383.4,15.1h-31.9c-0.6,0-1,0.9-1,2v5c0,1.1,0.5,2,1,2h31.9c0.6,0,1-0.9,1-2v-5
			C384.4,16,383.9,15.1,383.4,15.1z"/>
		<path class="st4" d="M266.2,15.1h-31.9c-0.6,0-1,0.9-1,2v5c0,1.1,0.5,2,1,2h31.9c0.6,0,1-0.9,1-2v-5
			C267.3,16,266.8,15.1,266.2,15.1z"/>
		<path class="st4" d="M305.3,15.1h-31.9c-0.6,0-1,0.9-1,2v5c0,1.1,0.5,2,1,2h31.9c0.6,0,1-0.9,1-2v-5
			C306.3,16,305.8,15.1,305.3,15.1z"/>
	</g>
	<path class="st5" d="M380.8,51.8h-47.1h-26.5h-41.4h28.2h-26.5H209h-9.3h-64.2H94.1h-9.3H20.5c-1.1,0-2,0.8-2,1.8v3.5v9.7v3.5V80
		v3.5v9.7v3.5v2v3.5v9.7v3.5v9.7v3.5v9.7v3.5c0,1,0.9,1.8,2,1.8h64.2h9.3h41.4h64.2h9.3h58.5h26.5h-28.2h41.4h26.5h47.1
		c1.1,0,2-0.8,2-1.8v-3.5v-9.7v-3.5v-9.7V112v-9.7v-3.5v-2v-3.5v-9.7V80v-9.7v-3.5v-9.7v-3.5C382.8,52.6,381.9,51.8,380.8,51.8z"/>
	<g>
		<path class="st6" d="M361.1,97.8v-7.5c0-0.8,0.9-1.3,1.6-0.9l6.5,3.7l6.5,3.7c0.7,0.4,0.7,1.5,0,1.9l-6.5,3.7l-6.5,3.7
			c-0.7,0.4-1.6-0.1-1.6-0.9V97.8z"/>
		<path class="st6" d="M48.4,97.8v7.5c0,0.8-0.9,1.3-1.6,0.9l-6.5-3.7l-6.5-3.7c-0.7-0.4-0.7-1.5,0-1.9l6.5-3.7l6.5-3.7
			c0.7-0.4,1.6,0.1,1.6,0.9V97.8z"/>
	</g>
	<g>
		<g>
			<path class="st8" d="M67.9,233.4c0-0.6-1.5-1.1-3.4-1.1H23.5c-1.9,0-3.4,0.5-3.4,1.1v12.7c0,0.6,1.5,1.1,3.4,1.1h40.9
				c1.9,0,3.4-0.5,3.4-1.1V233.4z"/>
		</g>
		<path class="st9" d="M79.6,200.4H22.1c-1.1,0-2,0.9-2,2v5c0,1.1,0.9,2,2,2h57.5c1.1,0,2-0.9,2-2v-5
			C81.6,201.3,80.7,200.4,79.6,200.4z"/>
		<path class="st9" d="M72.2,213.2H59.5H34.9H22.1c-1.1,0-2,0.9-2,2v5c0,1.1,0.9,2,2,2h12.8h24.5h12.8c1.1,0,2-0.9,2-2v-5
			C74.2,214.1,73.3,213.2,72.2,213.2z"/>
		<path class="st5" d="M66.2,163.6c0-0.9-0.7-1.5-1.5-1.5H21.7c-0.9,0-1.5,0.7-1.5,1.5v29.6c0,0.9,0.7,1.5,1.5,1.5h42.9
			c0.9,0,1.5-0.7,1.5-1.5V163.6z"/>
	</g>
	<g>
		<g>
			<path class="st8" d="M168,233.4c0-0.6-1.5-1.1-3.4-1.1h-40.9c-1.9,0-3.4,0.5-3.4,1.1v12.7c0,0.6,1.5,1.1,3.4,1.1h40.9
				c1.9,0,3.4-0.5,3.4-1.1V233.4z"/>
		</g>
		<path class="st9" d="M179.8,200.4h-57.5c-1.1,0-2,0.9-2,2v5c0,1.1,0.9,2,2,2h57.5c1.1,0,2-0.9,2-2v-5
			C181.8,201.3,180.9,200.4,179.8,200.4z"/>
		<path class="st9" d="M172.4,213.2h-12.8h-24.5h-12.8c-1.1,0-2,0.9-2,2v5c0,1.1,0.9,2,2,2h12.8h24.5h12.8c1.1,0,2-0.9,2-2v-5
			C174.4,214.1,173.5,213.2,172.4,213.2z"/>
		<path class="st5" d="M166.3,163.6c0-0.9-0.7-1.5-1.5-1.5h-42.9c-0.9,0-1.5,0.7-1.5,1.5v29.6c0,0.9,0.7,1.5,1.5,1.5h42.9
			c0.9,0,1.5-0.7,1.5-1.5V163.6z"/>
	</g>
	<g>
		<g>
			<path class="st8" d="M268.2,233.4c0-0.6-1.5-1.1-3.4-1.1h-40.9c-1.9,0-3.4,0.5-3.4,1.1v12.7c0,0.6,1.5,1.1,3.4,1.1h40.9
				c1.9,0,3.4-0.5,3.4-1.1V233.4z"/>
		</g>
		<path class="st9" d="M280,200.4h-57.5c-1.1,0-2,0.9-2,2v5c0,1.1,0.9,2,2,2H280c1.1,0,2-0.9,2-2v-5
			C282,201.3,281.1,200.4,280,200.4z"/>
		<path class="st9" d="M272.6,213.2h-12.8h-24.5h-12.8c-1.1,0-2,0.9-2,2v5c0,1.1,0.9,2,2,2h12.8h24.5h12.8c1.1,0,2-0.9,2-2v-5
			C274.6,214.1,273.7,213.2,272.6,213.2z"/>
		<path class="st5" d="M266.5,163.6c0-0.9-0.7-1.5-1.5-1.5H222c-0.9,0-1.5,0.7-1.5,1.5v29.6c0,0.9,0.7,1.5,1.5,1.5H265
			c0.9,0,1.5-0.7,1.5-1.5V163.6z"/>
	</g>
	<g>
		<g>
			<path class="st8" d="M368.4,233.4c0-0.6-1.5-1.1-3.4-1.1h-40.9c-1.9,0-3.4,0.5-3.4,1.1v12.7c0,0.6,1.5,1.1,3.4,1.1H365
				c1.9,0,3.4-0.5,3.4-1.1V233.4z"/>
		</g>
		<path class="st9" d="M380.2,200.4h-57.5c-1.1,0-2,0.9-2,2v5c0,1.1,0.9,2,2,2h57.5c1.1,0,2-0.9,2-2v-5
			C382.2,201.3,381.3,200.4,380.2,200.4z"/>
		<path class="st9" d="M372.8,213.2H360h-24.5h-12.8c-1.1,0-2,0.9-2,2v5c0,1.1,0.9,2,2,2h12.8H360h12.8c1.1,0,2-0.9,2-2v-5
			C374.8,214.1,373.9,213.2,372.8,213.2z"/>
		<path class="st5" d="M366.7,163.6c0-0.9-0.7-1.5-1.5-1.5h-42.9c-0.9,0-1.5,0.7-1.5,1.5v29.6c0,0.9,0.7,1.5,1.5,1.5h42.9
			c0.9,0,1.5-0.7,1.5-1.5V163.6z"/>
	</g>
</g>
</svg>
