<?xml version="1.0" encoding="utf-8"?>
<!-- Generator: Adobe Illustrator 19.1.0, SVG Export Plug-In . SVG Version: 6.00 Build 0)  -->
<svg version="1.1" id="Layer_1" xmlns="http://www.w3.org/2000/svg" xmlns:xlink="http://www.w3.org/1999/xlink" x="0px" y="0px"
	 width="400px" height="270px" viewBox="0 0 400 270" style="enable-background:new 0 0 400 270;" xml:space="preserve">
<style type="text/css">
	.st0{fill:#FFFFFF;stroke:#E2E2E2;stroke-miterlimit:10;}
	.st1{opacity:0.5;fill:none;stroke:#EBEBEB;stroke-width:4.3124;stroke-linecap:round;stroke-miterlimit:10;}
	.st2{fill:#05526A;stroke:#05526A;stroke-miterlimit:10;}
	.st3{opacity:0.5;fill:#EBEBEB;}
	.st4{opacity:0.1;fill:#EBEBEB;}
	.st5{fill:#CED4D6;}
	.st6{fill:#9DADB3;}
	.st7{fill:#05526A;}
	.st8{opacity:0.75;fill:#05526A;}
	.st9{fill:#ECECEC;}
	.st10{opacity:0.25;fill:#EBEBEB;}
	.st11{fill:#FFFFFF;}
	.st12{fill:#CED4D6;stroke:#CED4D6;stroke-miterlimit:10;}
	.st13{fill:#CED4D6;stroke:#E2E2E2;stroke-miterlimit:10;}
</style>
<g>
	<path class="st0" d="M8.3,17.6H395c2.8,0,5,2.3,5,5.2v238c0,2.9-2.2,5.2-5,5.2H8.3c-2.8,0-5-2.3-5-5.2v-238
		C3.3,19.9,5.5,17.6,8.3,17.6z"/>
	<line class="st1" x1="61.9" y1="28.7" x2="120.2" y2="28.7"/>
	<g>
		<path class="st2" d="M397.3,3.7H6c-1.7,0-3,0.9-3,2.1v10.5v6.4v10.7h397.3V22.7v-6.4V5.8C400.3,4.6,398.9,3.7,397.3,3.7z"/>
		<path class="st3" d="M83,14.3H19.2c-1.1,0-2,0.9-2,2v5c0,1.1,0.9,2,2,2H83c1.1,0,2-0.9,2-2v-5C85,15.2,84.1,14.3,83,14.3z"/>
		<path class="st4" d="M136.8,14.3H98.6c-0.7,0-1.2,0.9-1.2,2v5c0,1.1,0.5,2,1.2,2h38.2c0.7,0,1.2-0.9,1.2-2v-5
			C138,15.2,137.4,14.3,136.8,14.3z"/>
		<path class="st4" d="M184.7,14.3h-38.2c-0.7,0-1.2,0.9-1.2,2v5c0,1.1,0.5,2,1.2,2h38.2c0.7,0,1.2-0.9,1.2-2v-5
			C185.9,15.2,185.3,14.3,184.7,14.3z"/>
		<path class="st4" d="M345.3,14.3h-31.9c-0.6,0-1,0.9-1,2v5c0,1.1,0.5,2,1,2h31.9c0.6,0,1-0.9,1-2v-5
			C346.3,15.2,345.9,14.3,345.3,14.3z"/>
		<path class="st4" d="M384.4,14.3h-31.9c-0.6,0-1,0.9-1,2v5c0,1.1,0.5,2,1,2h31.9c0.6,0,1-0.9,1-2v-5
			C385.4,15.2,384.9,14.3,384.4,14.3z"/>
		<path class="st4" d="M267.2,14.3h-31.9c-0.6,0-1,0.9-1,2v5c0,1.1,0.5,2,1,2h31.9c0.6,0,1-0.9,1-2v-5
			C268.3,15.2,267.8,14.3,267.2,14.3z"/>
		<path class="st4" d="M306.3,14.3h-31.9c-0.6,0-1,0.9-1,2v5c0,1.1,0.5,2,1,2h31.9c0.6,0,1-0.9,1-2v-5
			C307.3,15.2,306.8,14.3,306.3,14.3z"/>
	</g>
	<path class="st5" d="M381.8,51h-47.1h-26.5h-41.4h28.2h-26.5H210h-9.3h-64.2H95.1h-9.3H21.5c-1.1,0-2,0.8-2,1.8v3.5V66v3.5v9.7v3.5
		v9.7v3.5v2v3.5v9.7v3.5v9.7v3.5v9.7v3.5c0,1,0.9,1.8,2,1.8h64.2h9.3h41.4h64.2h9.3h58.5h26.5h-28.2h41.4h26.5h47.1
		c1.1,0,2-0.8,2-1.8v-3.5v-9.7v-3.5v-9.7v-3.5v-9.7V98v-2v-3.5v-9.7v-3.5v-9.7V66v-9.7v-3.5C383.8,51.8,382.9,51,381.8,51z"/>
	<g>
		<path class="st6" d="M362.1,97v-7.5c0-0.8,0.9-1.3,1.6-0.9l6.5,3.7l6.5,3.7c0.7,0.4,0.7,1.5,0,1.9l-6.5,3.7l-6.5,3.7
			c-0.7,0.4-1.6-0.1-1.6-0.9V97z"/>
		<path class="st6" d="M49.4,97v7.5c0,0.8-0.9,1.3-1.6,0.9l-6.5-3.7L34.9,98c-0.7-0.4-0.7-1.5,0-1.9l6.5-3.7l6.5-3.7
			c0.7-0.4,1.6,0.1,1.6,0.9V97z"/>
	</g>
	<g>
		<path class="st7" d="M199.3,184.6c0-0.6-1.5-1.1-3.4-1.1H155c-1.9,0-3.4,0.5-3.4,1.1v12.7c0,0.6,1.5,1.1,3.4,1.1h40.9
			c1.9,0,3.4-0.5,3.4-1.1V184.6z"/>
		<path class="st8" d="M252.7,184.6c0-0.6-1.5-1.1-3.4-1.1h-40.9c-1.9,0-3.4,0.5-3.4,1.1v12.7c0,0.6,1.5,1.1,3.4,1.1h40.9
			c1.9,0,3.4-0.5,3.4-1.1V184.6z"/>
	</g>
	<path class="st9" d="M84.3,224.2H26.9c-1.1,0-2,0.9-2,2v5c0,1.1,0.9,2,2,2h57.5c1.1,0,2-0.9,2-2v-5
		C86.4,225.1,85.5,224.2,84.3,224.2z"/>
	<path class="st9" d="M76.9,239H64.2H39.6H26.9c-1.1,0-2,0.9-2,2v5c0,1.1,0.9,2,2,2h12.8h24.5h12.8c1.1,0,2-0.9,2-2v-5
		C79,239.9,78.1,239,76.9,239z"/>
	<path class="st9" d="M185.9,239h-9.1h-3.7H164h-15.5h-9.1h-3.7h-9.1c-1.1,0-2,0.9-2,2v5c0,1.1,0.9,2,2,2h9.1h3.7h9.1H164h9.1h3.7
		h9.1c1.1,0,2-0.9,2-2v-5C187.9,239.9,187,239,185.9,239z"/>
	<path class="st9" d="M176.8,224.4H164h-24.5h-12.8c-1.1,0-2,0.9-2,2v5c0,1.1,0.9,2,2,2h12.8H164h12.8c1.1,0,2-0.9,2-2v-5
		C178.8,225.3,177.9,224.4,176.8,224.4z"/>
	<path class="st6" d="M251.6,154.6h-42.4h-15.1h-42.4c-1.1,0-2,0.9-2,2v5c0,1.1,0.9,2,2,2h42.4h15.1h42.4c1.1,0,2-0.9,2-2v-5
		C253.6,155.5,252.7,154.6,251.6,154.6z"/>
	<path class="st9" d="M273.4,168.4h-20.2h-17.1h-14.5h-5.7h-17.7h-13.9h-17.1h-6.3h-31c-1.1,0-2,0.9-2,2v5c0,1.1,0.9,2,2,2h31h6.3
		h17.1h13.9h17.7h5.7h14.5h17.1h20.2c1.1,0,2-0.9,2-2v-5C275.4,169.3,274.5,168.4,273.4,168.4z"/>
	<path class="st9" d="M283.4,224.2h-57.5c-1.1,0-2,0.9-2,2v5c0,1.1,0.9,2,2,2h57.5c1.1,0,2-0.9,2-2v-5
		C285.4,225.1,284.5,224.2,283.4,224.2z"/>
	<path class="st9" d="M279.7,239h-16.5h-20.8h-16.5c-1.1,0-2,0.9-2,2v5c0,1.1,0.9,2,2,2h16.5h20.8h16.5c1.1,0,2-0.9,2-2v-5
		C281.7,239.9,280.8,239,279.7,239z"/>
	<path class="st9" d="M377.8,239h-15.1h-22.2h-15.1c-1.1,0-2,0.9-2,2v5c0,1.1,0.9,2,2,2h15.1h22.2h15.1c1.1,0,2-0.9,2-2v-5
		C379.8,239.9,378.9,239,377.8,239z"/>
	<path class="st9" d="M325.4,232.9h37.3c1.1,0,2-0.9,2-2v-5c0-1.1-0.9-2-2-2h-37.3c-1.1,0-2,0.9-2,2v5
		C323.4,232,324.3,232.9,325.4,232.9z"/>
</g>
</svg>
