<?xml version="1.0" encoding="utf-8"?>
<!-- Generator: Adobe Illustrator 19.1.0, SVG Export Plug-In . SVG Version: 6.00 Build 0)  -->
<svg version="1.1" id="Layer_1" xmlns="http://www.w3.org/2000/svg" xmlns:xlink="http://www.w3.org/1999/xlink" x="0px" y="0px"
	 width="400px" height="270px" viewBox="0 0 400 270" style="enable-background:new 0 0 400 270;" xml:space="preserve">
<style type="text/css">
	.st0{fill:#FFFFFF;stroke:#E2E2E2;stroke-miterlimit:10;}
	.st1{opacity:0.5;fill:none;stroke:#EBEBEB;stroke-width:4.3124;stroke-linecap:round;stroke-miterlimit:10;}
	.st2{fill:#05526A;stroke:#05526A;stroke-miterlimit:10;}
	.st3{opacity:0.5;fill:#EBEBEB;}
	.st4{opacity:0.1;fill:#EBEBEB;}
	.st5{fill:#CED4D6;}
	.st6{fill:#9DADB3;}
	.st7{fill:#05526A;}
	.st8{opacity:0.75;fill:#05526A;}
	.st9{fill:#ECECEC;}
	.st10{opacity:0.25;fill:#EBEBEB;}
	.st11{fill:#FFFFFF;}
	.st12{fill:#CED4D6;stroke:#CED4D6;stroke-miterlimit:10;}
	.st13{fill:#CED4D6;stroke:#E2E2E2;stroke-miterlimit:10;}
</style>
<path class="st0" d="M1.8,74.3v186.1c0,2.9,2.2,5.2,5,5.2h386.8c2.8,0,5-2.3,5-5.2V74.3c0-2.9-2.2-5.2-5-5.2H6.8
	C4,69.1,1.8,71.5,1.8,74.3z"/>
<line class="st1" x1="60.4" y1="28.4" x2="118.7" y2="28.4"/>
<path class="st5" d="M238.8,104.2h-38.2h-47.2h-2.6h-35.6h-2.6H65.5H27.3c-1.7,0-3.2,1.4-3.2,3.2v60.6c0,1.7,1.4,3.2,3.2,3.2h38.2
	h47.2h2.6h35.6h2.6h47.2h38.2c1.7,0,3.2-1.4,3.2-3.2v-60.6C242,105.6,240.6,104.2,238.8,104.2z"/>
<g>
	<path class="st6" d="M357.7,90.9h-31.3c-1.1,0-2,0.9-2,2v5c0,1.1,0.9,2,2,2h31.3c1.1,0,2-0.9,2-2v-5
		C359.7,91.8,358.8,90.9,357.7,90.9z"/>
	<path class="st9" d="M373.7,105.7h-9.7h-24.5h-12.8c-1.1,0-2,0.9-2,2v5c0,1.1,0.9,2,2,2h12.8h24.5h9.7c1.1,0,2-0.9,2-2v-5
		C375.7,106.6,374.8,105.7,373.7,105.7z"/>
	<path class="st6" d="M109.5,89.5h-9.7H75.2h-0.7h-9.7h-2.4H40.2H27.4c-1.1,0-2,0.9-2,2v5c0,1.1,0.9,2,2,2h12.8h22.2h2.4h9.7h0.7
		h24.5h9.7c1.1,0,2-0.9,2-2v-5C111.5,90.4,110.6,89.5,109.5,89.5z"/>
	<path class="st9" d="M373.7,119.1h-9.7h-24.5h-12.8c-1.1,0-2,0.9-2,2v5c0,1.1,0.9,2,2,2h12.8h24.5h9.7c1.1,0,2-0.9,2-2v-5
		C375.7,120,374.8,119.1,373.7,119.1z"/>
	<g>
		<path class="st9" d="M239.9,177.6h-9.7h-24.5h-12.8c-0.2,0-0.5,0-0.7,0.1c-0.2-0.1-0.4-0.1-0.7-0.1h-9.7h-24.5h-4.7h-8.1h-1.7
			h-24.5h-4.7h-8.1h-1.7H79.2h-4.7h-8.1h-1.7H40.2H27.4c-1.1,0-2,0.9-2,2v5c0,1.1,0.9,2,2,2h12.8h24.5h1.7h8.1h4.7h24.5h1.7h8.1h4.7
			h24.5h1.7h8.1h4.7h24.5h9.7c0.2,0,0.5,0,0.7-0.1c0.2,0.1,0.4,0.1,0.7,0.1h12.8h24.5h9.7c1.1,0,2-0.9,2-2v-5
			C241.9,178.5,241,177.6,239.9,177.6z"/>
		<path class="st9" d="M230.5,191.1h-9.7h-24.5h-4.7h-8.1h-1.7h-24.5h-4.7h-8.1h-1.7h-24.5h-4.7h-8.1h-1.7H79.2h-4.7h-8.1h-1.7H40.2
			H27.4c-1.1,0-2,0.9-2,2v5c0,1.1,0.9,2,2,2h12.8h24.5h1.7h8.1h4.7h24.5h1.7h8.1h4.7h24.5h1.7h8.1h4.7h24.5h1.7h8.1h4.7h24.5h9.7
			c1.1,0,2-0.9,2-2v-5C232.5,192,231.6,191.1,230.5,191.1z"/>
	</g>
	<path class="st9" d="M373.7,132.6h-9.7h-24.5h-12.8c-1.1,0-2,0.9-2,2v5c0,1.1,0.9,2,2,2h12.8h24.5h9.7c1.1,0,2-0.9,2-2v-5
		C375.7,133.5,374.8,132.6,373.7,132.6z"/>
	<path class="st9" d="M373.7,146h-9.7h-24.5h-12.8c-1.1,0-2,0.9-2,2v5c0,1.1,0.9,2,2,2h12.8h24.5h9.7c1.1,0,2-0.9,2-2v-5
		C375.7,146.9,374.8,146,373.7,146z"/>
</g>
<g>
	<path class="st6" d="M112.5,225.9h-9.7H78.2h-0.7h-9.7h-2.4H43.2H30.5c-1.1,0-2,0.9-2,2v5c0,1.1,0.9,2,2,2h12.8h22.2h2.4h9.7h0.7
		h24.5h9.7c1.1,0,2-0.9,2-2v-5C114.5,226.8,113.6,225.9,112.5,225.9z"/>
</g>
<g>
	<path class="st5" d="M245,243.7c0-1.7-1.4-3.2-3.2-3.2h-38.2h-47.2h-2.6h-35.6h-2.6H68.5H30.4c-1.7,0-3.2,1.4-3.2,3.2v21.7H245
		V243.7z"/>
</g>
<polygon class="st12" points="398.5,49.4 398.3,49.4 398.3,25.8 1.6,25.8 1.6,72.4 398.3,72.4 "/>
<g>
	<path class="st2" d="M395.3,3.3H4.8c-1.7,0-3,0.9-3,2.1v10.5v6.4V33h396.6V22.3v-6.4V5.4C398.3,4.3,397,3.3,395.3,3.3z"/>
	<path class="st3" d="M81.5,14H17.7c-1.1,0-2,0.9-2,2v5c0,1.1,0.9,2,2,2h63.8c1.1,0,2-0.9,2-2v-5C83.5,14.9,82.6,14,81.5,14z"/>
	<path class="st4" d="M135.3,14H97.1c-0.7,0-1.2,0.9-1.2,2v5c0,1.1,0.5,2,1.2,2h38.2c0.7,0,1.2-0.9,1.2-2v-5
		C136.5,14.9,135.9,14,135.3,14z"/>
	<path class="st4" d="M183.2,14H145c-0.7,0-1.2,0.9-1.2,2v5c0,1.1,0.5,2,1.2,2h38.2c0.7,0,1.2-0.9,1.2-2v-5
		C184.4,14.9,183.8,14,183.2,14z"/>
	<path class="st4" d="M343.8,14H312c-0.6,0-1,0.9-1,2v5c0,1.1,0.5,2,1,2h31.9c0.6,0,1-0.9,1-2v-5C344.8,14.9,344.4,14,343.8,14z"/>
	<path class="st4" d="M382.9,14H351c-0.6,0-1,0.9-1,2v5c0,1.1,0.5,2,1,2h31.9c0.6,0,1-0.9,1-2v-5C383.9,14.9,383.4,14,382.9,14z"/>
	<path class="st4" d="M265.7,14h-31.9c-0.6,0-1,0.9-1,2v5c0,1.1,0.5,2,1,2h31.9c0.6,0,1-0.9,1-2v-5C266.7,14.9,266.3,14,265.7,14z"
		/>
	<path class="st4" d="M304.8,14h-31.9c-0.6,0-1,0.9-1,2v5c0,1.1,0.5,2,1,2h31.9c0.6,0,1-0.9,1-2v-5C305.8,14.9,305.3,14,304.8,14z"
		/>
</g>
</svg>
