<?xml version="1.0" encoding="utf-8"?>
<!-- Generator: Adobe Illustrator 19.1.0, SVG Export Plug-In . SVG Version: 6.00 Build 0)  -->
<svg version="1.1" id="Layer_1" xmlns="http://www.w3.org/2000/svg" xmlns:xlink="http://www.w3.org/1999/xlink" x="0px" y="0px"
	 width="400px" height="270px" viewBox="0 0 400 270" style="enable-background:new 0 0 400 270;" xml:space="preserve">
<style type="text/css">
	.st0{fill:#FFFFFF;stroke:#E2E2E2;stroke-miterlimit:10;}
	.st1{opacity:0.5;fill:none;stroke:#EBEBEB;stroke-width:4.3124;stroke-linecap:round;stroke-miterlimit:10;}
	.st2{fill:#05526A;stroke:#05526A;stroke-miterlimit:10;}
	.st3{opacity:0.5;fill:#EBEBEB;}
	.st4{opacity:0.1;fill:#EBEBEB;}
	.st5{fill:#CED4D6;}
	.st6{fill:#9DADB3;}
	.st7{fill:#05526A;}
	.st8{opacity:0.75;fill:#05526A;}
	.st9{fill:#ECECEC;}
	.st10{opacity:0.25;fill:#EBEBEB;}
	.st11{fill:#FFFFFF;}
	.st12{fill:#CED4D6;stroke:#CED4D6;stroke-miterlimit:10;}
	.st13{fill:#CED4D6;stroke:#E2E2E2;stroke-miterlimit:10;}
</style>
<g>
	<path class="st0" d="M6.3,17.8H393c2.8,0,5,2.3,5,5.2v238c0,2.9-2.2,5.2-5,5.2H6.3c-2.8,0-5-2.3-5-5.2V23
		C1.3,20.1,3.5,17.8,6.3,17.8z"/>
	<line class="st1" x1="60.2" y1="28.9" x2="118.4" y2="28.9"/>
	<g>
		<path class="st2" d="M395.3,3.4H4c-1.7,0-3,0.9-3,2.1V16v6.4v10.7h397.3V22.4V16V5.5C398.3,4.3,396.9,3.4,395.3,3.4z"/>
		<path class="st3" d="M81,14H17.2c-1.1,0-2,0.9-2,2v5c0,1.1,0.9,2,2,2H81c1.1,0,2-0.9,2-2v-5C83,14.9,82.1,14,81,14z"/>
		<path class="st4" d="M134.8,14H96.6c-0.7,0-1.2,0.9-1.2,2v5c0,1.1,0.5,2,1.2,2h38.2c0.7,0,1.2-0.9,1.2-2v-5
			C136,14.9,135.4,14,134.8,14z"/>
		<path class="st4" d="M182.7,14h-38.2c-0.7,0-1.2,0.9-1.2,2v5c0,1.1,0.5,2,1.2,2h38.2c0.7,0,1.2-0.9,1.2-2v-5
			C183.9,14.9,183.3,14,182.7,14z"/>
		<path class="st4" d="M343.3,14h-31.9c-0.6,0-1,0.9-1,2v5c0,1.1,0.5,2,1,2h31.9c0.6,0,1-0.9,1-2v-5C344.3,14.9,343.9,14,343.3,14z"
			/>
		<path class="st4" d="M382.4,14h-31.9c-0.6,0-1,0.9-1,2v5c0,1.1,0.5,2,1,2h31.9c0.6,0,1-0.9,1-2v-5C383.4,14.9,382.9,14,382.4,14z"
			/>
		<path class="st4" d="M265.2,14h-31.9c-0.6,0-1,0.9-1,2v5c0,1.1,0.5,2,1,2h31.9c0.6,0,1-0.9,1-2v-5C266.3,14.9,265.8,14,265.2,14z"
			/>
		<path class="st4" d="M304.3,14h-31.9c-0.6,0-1,0.9-1,2v5c0,1.1,0.5,2,1,2h31.9c0.6,0,1-0.9,1-2v-5C305.3,14.9,304.8,14,304.3,14z"
			/>
	</g>
	<g>
		<path class="st7" d="M194.9,83.6c0-0.6-1.5-1.1-3.4-1.1h-40.9c-1.9,0-3.4,0.5-3.4,1.1v12.7c0,0.6,1.5,1.1,3.4,1.1h40.9
			c1.9,0,3.4-0.5,3.4-1.1V83.6z"/>
		<path class="st8" d="M248.3,83.6c0-0.6-1.5-1.1-3.4-1.1H204c-1.9,0-3.4,0.5-3.4,1.1v12.7c0,0.6,1.5,1.1,3.4,1.1h40.9
			c1.9,0,3.4-0.5,3.4-1.1V83.6z"/>
	</g>
	<path class="st6" d="M247.1,53.6h-42.4h-15.1h-42.4c-1.1,0-2,0.9-2,2v5c0,1.1,0.9,2,2,2h42.4h15.1h42.4c1.1,0,2-0.9,2-2v-5
		C249.2,54.5,248.3,53.6,247.1,53.6z"/>
	<path class="st9" d="M269,67.4h-20.2h-17.1h-14.5h-5.7h-17.7h-13.9h-17.1h-6.3h-31c-1.1,0-2,0.9-2,2v5c0,1.1,0.9,2,2,2h31h6.3h17.1
		h13.9h17.7h5.7h14.5h17.1H269c1.1,0,2-0.9,2-2v-5C271,68.3,270.1,67.4,269,67.4z"/>
	<path class="st5" d="M375.5,121.2h-38.2h-49.8h-38.2c-1.7,0-3.2,1.4-3.2,3.2v60.6c0,1.7,1.4,3.2,3.2,3.2h38.2h49.8h38.2
		c1.7,0,3.2-1.4,3.2-3.2v-60.6C378.7,122.6,377.3,121.2,375.5,121.2z"/>
	<g>
		<path class="st9" d="M23.1,134.3h29.1h4.1h6.2h14.1h8.7h6.2h4.1h10h4.1h6.2h8.7h14.1h6.2h4.1h29.1c1,0,1.9-0.9,1.9-2v-5
			c0-1.1-0.8-2-1.9-2H149H145h-6.2h-14.1h-8.7h-6.2h-4.1h-10h-4.1h-6.2h-8.7H62.5h-6.2h-4.1H23.1c-1,0-1.9,0.9-1.9,2v5
			C21.2,133.4,22.1,134.3,23.1,134.3z"/>
		<path class="st9" d="M23.1,152.1h28.8h0.2h4.1h1.6h15.9H81h4.1h0.2h1.3h0.2h4.1h11.9h0.3h3.7h1.6h0.1h5.6h0.8h0.7h0.8h3.2h0.2h0.3
			h1.6h7.9h2.4h1.6h1.6h0.6h1.6h0.1h6.5h1.6h3.2h0.5h0.3h1.2h7.9h4h1.6h4.1h10.3h18.7c1,0,1.9-0.9,1.9-2v-5c0-1.1-0.8-2-1.9-2h-18.7
			h-10.3h-4.1h-1.6h-4h-7.9h-1.2h-0.3h-0.5h-3.2H144h-6.5h-0.1h-1.6h-0.6h-1.6h-1.6h-2.4h-7.9h-1.6H120h-0.2h-3.2h-0.8H115h-0.8
			h-5.6h-0.1h-1.6h-3.7h-0.3H90.9h-4.1h-0.2h-1.3h-0.2H81h-7.3H57.8h-1.6h-4.1h-0.2H23.1c-1,0-1.9,0.9-1.9,2v5
			C21.2,151.2,22.1,152.1,23.1,152.1z"/>
		<path class="st9" d="M218.7,160.5h-18.7h-10.3h-4.1H184h-13.1h-0.3h-3.7h-1.6h-6.5h-2.3H155h-4.1h-2.1h-7.3h-3.7h-0.3h-1.2h-0.3
			h-3.7h-2.4h-7.9H120h-0.2h-4.1h-1.6h-5.7h-1.6h-3.7h-0.3H90.9h-4.1h-0.2h-1.3h-0.2H81h-7.3H57.8h-1.6h-4.1h-0.2H23.1
			c-1,0-1.9,0.9-1.9,2v5c0,1.1,0.8,2,1.9,2h28.8h0.2h4.1h1.6h15.9H81h4.1h0.2h1.3h0.2h4.1h11.9h0.3h3.7h1.6h5.7h1.6h4.1h0.2h1.9h7.9
			h2.4h3.7h0.3h1.2h0.3h3.7h7.3h2.1h4.1h1.6h2.3h6.5h1.6h3.7h0.3H184h1.6h4.1h10.3h18.7c1,0,1.9-0.9,1.9-2v-5
			C220.6,161.4,219.7,160.5,218.7,160.5z"/>
	</g>
	<g>
		<path class="st6" d="M72.8,217.2H41.6c-1.1,0-2,0.9-2,2v5c0,1.1,0.9,2,2,2h31.3c1.1,0,2-0.9,2-2v-5
			C74.9,218.1,74,217.2,72.8,217.2z"/>
		<path class="st9" d="M80.7,232H71H46.5H33.7c-1.1,0-2,0.9-2,2v5c0,1.1,0.9,2,2,2h12.8H71h9.7c1.1,0,2-0.9,2-2v-5
			C82.8,232.9,81.9,232,80.7,232z"/>
	</g>
	<g>
		<path class="st6" d="M170.7,217.2h-31.3c-1.1,0-2,0.9-2,2v5c0,1.1,0.9,2,2,2h31.3c1.1,0,2-0.9,2-2v-5
			C172.7,218.1,171.8,217.2,170.7,217.2z"/>
		<path class="st9" d="M178.6,232h-9.7h-24.5h-12.8c-1.1,0-2,0.9-2,2v5c0,1.1,0.9,2,2,2h12.8h24.5h9.7c1.1,0,2-0.9,2-2v-5
			C180.6,232.9,179.7,232,178.6,232z"/>
	</g>
	<g>
		<path class="st6" d="M268.5,217.2h-31.3c-1.1,0-2,0.9-2,2v5c0,1.1,0.9,2,2,2h31.3c1.1,0,2-0.9,2-2v-5
			C270.5,218.1,269.6,217.2,268.5,217.2z"/>
		<path class="st9" d="M276.4,232h-9.7h-24.5h-12.8c-1.1,0-2,0.9-2,2v5c0,1.1,0.9,2,2,2h12.8h24.5h9.7c1.1,0,2-0.9,2-2v-5
			C278.4,232.9,277.5,232,276.4,232z"/>
	</g>
	<g>
		<path class="st6" d="M366.3,217.2h-31.3c-1.1,0-2,0.9-2,2v5c0,1.1,0.9,2,2,2h31.3c1.1,0,2-0.9,2-2v-5
			C368.3,218.1,367.4,217.2,366.3,217.2z"/>
		<path class="st9" d="M374.2,232h-9.7h-24.5h-12.8c-1.1,0-2,0.9-2,2v5c0,1.1,0.9,2,2,2h12.8h24.5h9.7c1.1,0,2-0.9,2-2v-5
			C376.2,232.9,375.3,232,374.2,232z"/>
	</g>
</g>
</svg>
