<?xml version="1.0" encoding="utf-8"?>
<!-- Generator: Adobe Illustrator 19.1.0, SVG Export Plug-In . SVG Version: 6.00 Build 0)  -->
<svg version="1.1" id="Layer_1" xmlns="http://www.w3.org/2000/svg" xmlns:xlink="http://www.w3.org/1999/xlink" x="0px" y="0px"
	 width="400px" height="270px" viewBox="0 0 400 270" style="enable-background:new 0 0 400 270;" xml:space="preserve">
<style type="text/css">
	.st0{fill:#DEDEDD;}
</style>
<rect x="14.3" y="13" class="st0" width="372.6" height="15.3"/>
<rect x="19.4" y="245.6" class="st0" width="362.8" height="11.9"/>
<rect x="19.4" y="34.8" class="st0" width="77" height="39.7"/>
<rect x="306" y="34.8" class="st0" width="76.3" height="39.7"/>
<rect x="102.3" y="34.8" class="st0" width="197" height="39.7"/>
<rect x="19.4" y="81.1" class="st0" width="180.6" height="39.7"/>
<rect x="271.3" y="81.1" class="st0" width="111" height="39.7"/>
<rect x="205.7" y="81.1" class="st0" width="59.5" height="39.7"/>
<rect x="19.4" y="127.2" class="st0" width="110.9" height="64.8"/>
<rect x="271.3" y="127.2" class="st0" width="111" height="64.8"/>
<rect x="137.1" y="127.2" class="st0" width="128.1" height="64.8"/>
<rect x="19.4" y="198.5" class="st0" width="180.6" height="39.7"/>
<rect x="205.7" y="198.5" class="st0" width="93.7" height="39.7"/>
<rect x="306" y="198.5" class="st0" width="76.3" height="39.7"/>
</svg>
