<?xml version="1.0" encoding="utf-8"?>
<!-- Generator: Adobe Illustrator 19.1.0, SVG Export Plug-In . SVG Version: 6.00 Build 0)  -->
<svg version="1.1" id="Layer_1" xmlns="http://www.w3.org/2000/svg" xmlns:xlink="http://www.w3.org/1999/xlink" x="0px" y="0px"
	 width="400px" height="270px" viewBox="0 0 400 270" style="enable-background:new 0 0 400 270;" xml:space="preserve">
<style type="text/css">
	.st0{fill:#DEDEDD;}
</style>
<rect y="14" class="st0" width="400" height="14.3"/>
<rect x="15.5" y="242.3" class="st0" width="370.6" height="14.3"/>
<rect x="15.5" y="33.7" class="st0" width="370.6" height="48"/>
<rect x="15.5" y="118.9" class="st0" width="370.6" height="24.5"/>
<rect x="15.5" y="88.2" class="st0" width="79" height="24.2"/>
<rect x="15.5" y="212" class="st0" width="104" height="24.2"/>
<rect x="15.5" y="150.1" class="st0" width="88" height="13.9"/>
<rect x="112.7" y="88.2" class="st0" width="79" height="24.2"/>
<rect x="209.9" y="88.2" class="st0" width="79" height="24.2"/>
<rect x="203.9" y="150.1" class="st0" width="182.2" height="54.5"/>
<rect x="307.1" y="88.2" class="st0" width="79" height="24.2"/>
<rect x="15.5" y="169.8" class="st0" width="88" height="13.9"/>
<rect x="15.5" y="190.7" class="st0" width="88" height="13.9"/>
<rect x="109.3" y="150.1" class="st0" width="88" height="13.9"/>
<rect x="109.3" y="169.8" class="st0" width="88" height="13.9"/>
<rect x="109.3" y="190.7" class="st0" width="88" height="13.9"/>
<rect x="138.2" y="212" class="st0" width="104" height="24.2"/>
<rect x="262.1" y="212" class="st0" width="124" height="24.2"/>
</svg>
