<?xml version="1.0" encoding="utf-8"?>
<!-- Generator: Adobe Illustrator 17.0.2, SVG Export Plug-In . SVG Version: 6.00 Build 0)  -->
<!DOCTYPE svg PUBLIC "-//W3C//DTD SVG 1.1//EN" "http://www.w3.org/Graphics/SVG/1.1/DTD/svg11.dtd">
<svg version="1.1" id="Layer_1" xmlns="http://www.w3.org/2000/svg" xmlns:xlink="http://www.w3.org/1999/xlink" x="0px" y="0px"
	 width="72px" height="72px" viewBox="0 0 72 72" style="enable-background:new 0 0 72 72;" xml:space="preserve">
<circle style="fill:#31A5C8;" cx="36" cy="36" r="36"/>
<path style="fill:#E6E7E7;stroke:#E6E7E7;stroke-width:0.3897;stroke-linecap:round;stroke-linejoin:round;stroke-miterlimit:10;" d="
	M32.7,41.5l0-3.7c5.1,0,9.6-2.9,11.3-0.3c-0.5-0.5-2.7-0.8-2.7,0.7c0,0.7,0.6,1.3,1.3,1.3c0,0,2.4,0,3.1,0c0.7,0,1-0.4,1-0.7
	s0-2,0-2c2.2,0.4,2.8,2.4,3.9,2.7l0,1.1c-0.7,0.4-1.9,0.8-3.1,0.8C45.7,41.4,32.7,41.5,32.7,41.5z"/>
<path style="fill:#BBBDBF;" d="M46.8,41h-5.3c0,0,1.2-0.8,2.7-0.8C45.6,40.1,46.8,41,46.8,41z"/>
<g>
	<path style="fill:none;stroke:#E6E7E7;stroke-width:1.6993;stroke-linecap:round;stroke-miterlimit:10;" d="M35.7,43.7
		c0,0,2,0.5,2.9,0.7"/>
	<path style="fill:none;stroke:#E6E7E7;stroke-width:1.6993;stroke-linecap:round;stroke-miterlimit:10;" d="M38.3,45.3
		c0,0,0.8-2.4,2.3-2c1.4,0.3,1.3,1.9,1.3,1.9"/>
	<path style="fill:none;stroke:#E6E7E7;stroke-width:1.6993;stroke-linecap:round;stroke-miterlimit:10;" d="M41.6,46.1
		c0,0,0.8-2.4,2.3-2c1.4,0.3,1.3,1.9,1.3,1.9"/>
	<g>
		<path style="fill:#E6E7E7;" d="M44.2,46.6c0,0,0.1-0.2,0.2-0.4c0.1-0.2,0.3-0.5,0.6-0.9c0.3-0.3,0.7-0.8,1.3-1
			c0.3-0.1,0.7-0.1,1,0c0.3,0.1,0.5,0.2,0.8,0.4c0.3,0.2,0.5,0.5,0.6,0.8c0.1,0.3,0.1,0.6,0.1,0.8c0,0.1,0,0.2,0,0.3
			c0,0,0,0.2,0,0.3c0,0.1,0.2,0.3,0.3,0.3c0.1,0.1,0.3,0,0.4,0c0.1,0,0.2-0.1,0.3-0.2c0.2-0.2,0.2-0.3,0.2-0.3S50.1,47,50,47.2
			c-0.1,0.1-0.2,0.2-0.3,0.3c-0.1,0.1-0.3,0.2-0.6,0.1c-0.2,0-0.5-0.1-0.6-0.4c-0.1-0.1-0.1-0.2-0.1-0.4c0-0.1,0-0.2-0.1-0.4
			c0-0.2-0.1-0.4-0.2-0.6c-0.1-0.1-0.2-0.3-0.4-0.3c-0.1-0.1-0.5-0.1-0.6-0.1c-0.2,0-0.3,0-0.4,0.1c-0.2,0.2-0.4,0.4-0.6,0.7
			c-0.1,0.3-0.2,0.5-0.3,0.7c-0.1,0.2-0.1,0.3-0.1,0.3c-0.2,0.4-0.6,0.7-1.1,0.5C44.2,47.6,44,47.1,44.2,46.6z"/>
	</g>
</g>
<g>
	<path style="fill:#BBBDBF;" d="M45.5,25c0,0,0.1,0.9,0.7,1.1l0,0l10.1,3.7c0,0-2.6,1.8-5,1.1c-0.8-0.2-10.1-3.2-10.6-3.4
		c-0.5-0.2-0.4-2.1-1.5-2.6c-1.1-0.5-8-3.7-8-3.7L32,20L45.5,25z"/>
	<path style="fill:#E6E7E7;" d="M45.3,27.7c0,0,0.2-0.9,0.9-1l0,0L56.8,25c0,0-2.2-2.2-4.7-2c-0.8,0.1-10.5,1.3-11,1.4
		c-0.5,0.1-0.8,2-2,2.3c-1.2,0.3-8.5,2.2-8.5,2.2l0.4,1.3L45.3,27.7z"/>
	<circle style="fill:#BBBDBF;" cx="43" cy="26" r="0.8"/>
</g>
<g>
	<path style="fill:#E6E7E7;" d="M47.8,20.3c-2.8,1.1-14.7,5.8-14.7,5.8l-1.9-4.9c0,0,9.8-3.9,13.9-5.5s8.1-1.2,8.1-1.2
		S50.6,19.2,47.8,20.3z"/>
	<path style="fill:#BBBDBF;" d="M42.7,17.7l4.9-1.9c0,0-0.7,1.4-2.1,1.9C44.2,18.3,42.7,17.7,42.7,17.7z"/>
</g>
<path style="fill:#BBBDBF;stroke:#BBBDBF;stroke-width:1.2745;stroke-linecap:round;stroke-linejoin:round;stroke-miterlimit:10;" d="
	M35.2,52.9c0.1,2.8-2.6,5-6,5l0,0c-3.4,0-6.1-2.3-6-5l1-30.4c0.1-2.8,2.4-5,5.1-5l0,0c2.7,0,5,2.3,5.1,5L35.2,52.9z"/>
<path style="fill:#C5C6C7;stroke:#E6E7E7;stroke-width:1.2745;stroke-linecap:round;stroke-linejoin:round;stroke-miterlimit:10;" d="
	M36.1,52.9c0.1,2.8-2.6,5-6,5l0,0c-3.4,0-6.1-2.3-6-5l1-30.4c0.1-2.8,2.4-5,5.1-5l0,0c2.7,0,5,2.3,5.1,5L36.1,52.9z"/>
<path style="fill:#DE382E;" d="M37,53.2c0.1,2.8-2.7,5.1-6.3,5.1l0,0c-3.6,0-6.4-2.3-6.3-5.1l1-31c0.1-2.8,2.5-5.1,5.3-5.1l0,0
	c2.8,0,5.2,2.3,5.3,5.1L37,53.2z"/>
<circle style="fill:#BBBDBF;" cx="30.8" cy="20.3" r="1.5"/>
<path style="fill:none;stroke:#E6E7E7;stroke-width:1.2745;stroke-linecap:round;stroke-linejoin:round;stroke-miterlimit:10;" d="
	M30.9,20c1-0.6,1.7-1.7,1.7-2.9c0-1.8-1.5-3.3-3.3-3.3c-1.8,0-3.3,1.5-3.3,3.3c0,0.5,0.2,1.1,0.4,1.4"/>
<path style="fill:none;stroke:#FFFFFF;stroke-width:0.75;stroke-linecap:round;stroke-linejoin:round;stroke-miterlimit:10;" d="
	M34,32.7l-3.4,1.1l-3.1-1.1c0,0,0.3-0.9,0.3-2.4c0-1.5-0.3-2.6-0.3-2.6l2.4-0.9l0.8,0.6l0.8-0.6l2.5,0.9c0,0-0.3,1.1-0.3,2.6
	C33.7,31.8,34,32.7,34,32.7z"/>
<g>
	<path style="fill:#FFFFFF;" d="M29.7,32v-3.3h2.5v0.9h-1.5v0.3h1.1v0.9h-1.1V32H29.7z"/>
</g>
</svg>
