<?xml version="1.0" encoding="utf-8"?>
<!-- Generator: Adobe Illustrator 17.0.2, SVG Export Plug-In . SVG Version: 6.00 Build 0)  -->
<!DOCTYPE svg PUBLIC "-//W3C//DTD SVG 1.1//EN" "http://www.w3.org/Graphics/SVG/1.1/DTD/svg11.dtd">
<svg version="1.1" id="Layer_1" xmlns="http://www.w3.org/2000/svg" xmlns:xlink="http://www.w3.org/1999/xlink" x="0px" y="0px"
	 width="72px" height="72px" viewBox="0 0 72 72" style="enable-background:new 0 0 72 72;" xml:space="preserve">
<circle style="fill:#36AEBE;" cx="36" cy="36" r="36"/>
<g>
	<g>
		<path style="fill:none;stroke:#231F20;stroke-miterlimit:10;" d="M27.2,46.1c0.1-0.5,0.6-1,1.2-1l1.2,0c0.5,0,1.1,0.4,1.2,1
			l1.3,7.1c0.1,0.5-0.2,1.2-0.7,1.5l-1.6,1c-0.5,0.3-1.2,0.3-1.7,0l-1.7-1.1c-0.5-0.3-0.8-1-0.7-1.5L27.2,46.1z"/>
	</g>
	<line style="fill:none;stroke:#231F20;stroke-miterlimit:10;" x1="29" y1="37.7" x2="28.9" y2="56.3"/>
	<g>
		<path style="fill:none;stroke:#231F20;stroke-miterlimit:10;" d="M22.4,46.1c0.1-0.5,0.6-1,1.2-1l1.2,0c0.5,0,1.1,0.4,1.2,1
			l1.3,7.1c0.1,0.5-0.2,1.2-0.7,1.5l-1.6,1c-0.5,0.3-1.2,0.3-1.7,0l-1.7-1.1c-0.5-0.3-0.8-1-0.7-1.5L22.4,46.1z"/>
	</g>
	<line style="fill:none;stroke:#231F20;stroke-miterlimit:10;" x1="24.2" y1="37.7" x2="24.1" y2="56.3"/>
	<path style="fill:#FFFFFF;" d="M31.1,52.8c0.8-0.3,2.4-0.4,2.6,0.8c0.2,1.2-0.5,1.3-1.1,1.9c-0.5,0.6-0.2,1.1-0.3,1.7
		c-0.3,1.3-1.7,1.6-2.8,1.9c-1.2,0.3-2.4,1-1.6,1.8c-1-0.3-2.5-0.1-3.3-1c-0.2-0.3-0.3-0.4-0.3-0.8c0-0.3,0.2-0.7,0.2-0.9
		c-0.2-1.1-1.1-0.3-1.8-0.5c-1.4-0.4,0.2-1.1-1-1.6c-0.6-0.2-2.5-0.7-2.3-2.3c0.1-0.9,1.3-1.2,2.1-1.1c1.2,0,3.3,1,4.4,0.7
		c1.4-0.3,2.3-0.8,3.4-0.4C30.3,53.3,30.3,53.1,31.1,52.8z"/>
	<path style="fill:none;" d="M42.4,19.1c-6.5,0-8.1,2.3-8.1,3.9c0,1.6,3.6,1.8,8.1,1.8s8-0.2,8-1.8C50.5,21.4,48.9,19.1,42.4,19.1z"
		/>
	<path style="fill:#C6235F;" d="M47,14.8c-3.2-0.5-13.7-0.6-17.7,0C24.9,15.5,18.8,18,18.8,26v0.5c8.6,0,12.5,0.3,12.5,12.1
		c2.8-0.4,3.4-2.1,4.2-3.2c1.2-1.5,3.5-1.3,7-1.3c3.2,0,7.5,0,7.5,0c2.9,0,5.3-2.4,5.3-5.3v-5.1C55.3,19.2,51.2,15.5,47,14.8z
		 M42.4,24.7c-4.4,0-8.1-0.2-8.1-1.8c0-1.6,1.6-3.9,8.1-3.9c6.5,0,8,2.3,8,3.9C50.5,24.5,46.9,24.7,42.4,24.7z"/>
	<path style="fill:#D2D3D4;" d="M18.8,26.5v6.8c0,2.9,2.4,5.3,5.3,5.3c0,0,2.1,0,6,0c0.5,0,0.9,0,1.2-0.1
		C31.2,26.8,27.4,26.5,18.8,26.5z"/>
	<circle style="fill:#620B31;" cx="50" cy="29.1" r="1.6"/>
	<g>
		<defs>
			<path id="SVGID_1_" d="M18.8,26.5v6.8c0,2.9,2.4,5.3,5.3,5.3c0,0,2.1,0,6,0c0.5,0,0.9,0,1.2-0.1C31.2,26.8,27.4,26.5,18.8,26.5z"
				/>
		</defs>
		<clipPath id="SVGID_2_">
			<use xlink:href="#SVGID_1_"  style="overflow:visible;"/>
		</clipPath>
		<g style="opacity:0.7;clip-path:url(#SVGID_2_);">
			<path style="fill:#FFFFFF;" d="M26.4,30.8H17c-0.3,0-0.6-0.3-0.6-0.6c0-0.3,0.3-0.6,0.6-0.6h9.4c0.3,0,0.6,0.3,0.6,0.6
				C27,30.6,26.7,30.8,26.4,30.8z"/>
		</g>
		<g style="opacity:0.7;clip-path:url(#SVGID_2_);">
			<path style="fill:#FFFFFF;" d="M27,33.6H16.9c-0.3,0-0.6-0.3-0.6-0.6c0-0.3,0.3-0.6,0.6-0.6H27c0.3,0,0.6,0.3,0.6,0.6
				C27.7,33.3,27.4,33.6,27,33.6z"/>
		</g>
		<g style="opacity:0.7;clip-path:url(#SVGID_2_);">
			<path style="fill:#FFFFFF;" d="M27.7,36.3h-9.2c-0.3,0-0.6-0.3-0.6-0.6c0-0.3,0.3-0.6,0.6-0.6h9.2c0.3,0,0.6,0.3,0.6,0.6
				C28.3,36,28.1,36.3,27.7,36.3z"/>
		</g>
	</g>
</g>
</svg>
