<?xml version="1.0" encoding="utf-8"?>
<!-- Generator: Adobe Illustrator 17.0.2, SVG Export Plug-In . SVG Version: 6.00 Build 0)  -->
<!DOCTYPE svg PUBLIC "-//W3C//DTD SVG 1.1//EN" "http://www.w3.org/Graphics/SVG/1.1/DTD/svg11.dtd">
<svg version="1.1" id="Layer_1" xmlns="http://www.w3.org/2000/svg" xmlns:xlink="http://www.w3.org/1999/xlink" x="0px" y="0px"
	 width="72px" height="72px" viewBox="0 0 72 72" style="enable-background:new 0 0 72 72;" xml:space="preserve">
<circle style="fill:#31A5C8;" cx="36" cy="36" r="36"/>
<g>
	<polygon style="fill:#96D2E2;" points="26.8,56.4 22,58.4 22,17.7 26.8,15.8 	"/>
	<polygon style="fill:#90C4D3;" points="26.8,56.4 31.6,58.4 31.6,17.7 26.8,15.8 	"/>
	<polygon style="fill:#96D2E2;" points="36.4,25.7 31.6,27.6 31.6,17.7 36.4,15.8 	"/>
	<polygon style="fill:#90C4D3;" points="36.4,25.7 41.2,27.6 41.2,17.7 36.4,15.8 	"/>
	<polygon style="fill:#96D2E2;" points="46,25.7 41.2,27.6 41.2,17.7 46,15.8 	"/>
	<polygon style="fill:#90C4D3;" points="46,25.7 50.8,27.6 50.8,17.7 46,15.8 	"/>
	<polygon style="fill:#96D2E2;" points="36.4,41 31.6,43 31.6,33.1 36.4,31.1 	"/>
	<polygon style="fill:#90C4D3;" points="36.4,41 41.2,43 41.2,33.1 36.4,31.1 	"/>
	<polygon style="fill:#96D2E2;" points="46,41 41.2,43 41.2,33.1 46,31.1 	"/>
	<polygon style="fill:#90C4D3;" points="46,41 50.8,43 50.8,33.1 46,31.1 	"/>
	<path style="fill:none;" d="M36,72C16.1,72,0,55.9,0,36C0,16.1,16.1,0,36,0c19.9,0,36,16.1,36,36C72,55.9,55.9,72,36,72z"/>
</g>
</svg>
