<?xml version="1.0" encoding="utf-8"?>
<!-- Generator: Adobe Illustrator 17.0.2, SVG Export Plug-In . SVG Version: 6.00 Build 0)  -->
<!DOCTYPE svg PUBLIC "-//W3C//DTD SVG 1.1//EN" "http://www.w3.org/Graphics/SVG/1.1/DTD/svg11.dtd">
<svg version="1.1" id="Layer_1" xmlns="http://www.w3.org/2000/svg" xmlns:xlink="http://www.w3.org/1999/xlink" x="0px" y="0px"
	 width="48px" height="48px" viewBox="0 0 48 48" style="enable-background:new 0 0 48 48;" xml:space="preserve">
<path style="fill:#CDD5D8;" d="M48,24c0,13.2-10.8,24-24,24S0,37.2,0,24S10.8,0,24,0S48,10.8,48,24z"/>
<g>
	<path style="fill:#FFFFFF;" d="M17.6,19.1c0-0.4-0.2-0.8-0.5-1.1c-0.6-0.6-1.6-0.6-2.1,0L8.2,24L15,30c0.3,0.3,0.7,0.4,1.1,0.4
		c0.4,0,0.8-0.2,1.1-0.4c0.3-0.3,0.5-0.7,0.5-1.1c0-0.4-0.2-0.8-0.5-1.1L12.9,24l4.2-3.8C17.4,19.9,17.6,19.5,17.6,19.1z"/>
	<path style="fill:#FFFFFF;" d="M27.9,13.5c-0.8-0.2-1.6,0.3-1.9,1.1l-6.1,18c-0.2,0.8,0.3,1.6,1.1,1.9c0.1,0,0.3,0.1,0.5,0.1
		c0.7,0,1.3-0.5,1.5-1.1l6-17.9c0.1-0.4,0.1-0.8-0.1-1.2C28.6,13.9,28.3,13.6,27.9,13.5z"/>
	<path style="fill:#FFFFFF;" d="M33.5,18c-0.6-0.6-1.5-0.6-2.1,0c-0.3,0.3-0.5,0.7-0.5,1.1c0,0.4,0.2,0.8,0.5,1.1l4.2,3.8l-4.2,3.8
		c-0.3,0.3-0.5,0.7-0.5,1.1c0,0.4,0.2,0.8,0.5,1.1c0.3,0.3,0.7,0.4,1.1,0.4c0.4,0,0.8-0.2,1.1-0.4l6.7-6.1L33.5,18z"/>
</g>
</svg>
