<?xml version="1.0" encoding="utf-8"?>
<!-- Generator: Adobe Illustrator 17.0.2, SVG Export Plug-In . SVG Version: 6.00 Build 0)  -->
<!DOCTYPE svg PUBLIC "-//W3C//DTD SVG 1.1//EN" "http://www.w3.org/Graphics/SVG/1.1/DTD/svg11.dtd">
<svg version="1.1" id="Layer_1" xmlns="http://www.w3.org/2000/svg" xmlns:xlink="http://www.w3.org/1999/xlink" x="0px" y="0px"
	 width="72px" height="71.7px" viewBox="0 0 72 71.7" style="enable-background:new 0 0 72 71.7;" xml:space="preserve">
<circle style="fill:#0E4F68;" cx="36" cy="36" r="36"/>
<path style="fill:#77CACE;" d="M15.4,27.8c0.8-1,35.7-0.6,36.5,0c0.3,0.2,0.5,3.2,0.6,7c2-1.1,8.3-4.2,8.9-3.3
	c0.7,1.2-2.1,14.1-2.9,14.7c-0.7,0.5-4.5-1.6-6-2.6c-0.1,3.5-0.3,6.3-0.6,6.6c-1,0.9-35.8,1-36.5,0S14.5,28.7,15.4,27.8z"/>
<ellipse style="fill:#FFFFFF;" cx="19.1" cy="38.8" rx="2.2" ry="2.8"/>
<ellipse cx="18.4" cy="38.8" rx="1" ry="1.3"/>
<g style="opacity:0.4;">
	<path style="fill:#5C5B5D;" d="M29.7,39.8C29.7,39.8,29.7,39.8,29.7,39.8c2,0.6,2.9,1.2,4.4,1.8c0,0,1-0.1,2.8-0.9
		c1.7-0.9,6-2.5,6.5-2c0.6,0.7-0.6,7.9-1.2,8.3c-0.6,0.5-5.3-0.6-5.3-0.6s0.6,0.5,1.4,0.9c1.1,0.5,1.9,0.9,3.7,1.3
		c0.8,0.1,1.3-0.9,1.4-1.3c0.8-2.7,1.3-7,1.4-8.2c0.1-1.3-0.5-2.5-1.9-2c-0.2,0.1-0.4,0.2-0.6,0.3c2.7-2,5.9-4.9,9.7-9.2
		c0,0-8.8,8.6-17.8,11.8c0,0-13.5-5.2-19.1-11.8c0,0,3.1,5.8,13.3,11L29.7,39.8z"/>
	<path style="fill:#5C5B5D;" d="M28.9,38.7c0,0-4,5.9-8.1,8.8c0,0,4.8-2.1,9.2-7.9"/>
	<path style="fill:#5C5B5D;" d="M44,43.6c1.3,1.4,2.7,2.8,4.2,3.9c0,0-1.9-0.8-4.4-2.8"/>
</g>
<g style="opacity:0.15;">
	<path style="fill:#5C5B5D;" d="M53.1,36.4l6.5-1.9l-6.3,2.6c-0.2,0.1-0.4,0-0.5-0.2C52.8,36.7,52.9,36.5,53.1,36.4
		C53.1,36.4,53.1,36.4,53.1,36.4z"/>
</g>
<g style="opacity:0.15;">
	<path style="fill:#5C5B5D;" d="M53.2,38.1l6.4-0.5l-6.3,1.3c-0.2,0-0.4-0.1-0.4-0.3C52.8,38.3,53,38.1,53.2,38.1
		C53.2,38.1,53.2,38.1,53.2,38.1z"/>
</g>
<g style="opacity:0.15;">
	<path style="fill:#5C5B5D;" d="M53.3,39.8l5.8,0.8l-5.9-0.1c-0.2,0-0.4-0.2-0.4-0.4C52.9,39.9,53,39.8,53.3,39.8
		C53.2,39.8,53.3,39.8,53.3,39.8z"/>
</g>
<g style="opacity:0.15;">
	<path style="fill:#5C5B5D;" d="M53.4,41.5l4.8,2.1l-5-1.4c-0.2-0.1-0.3-0.3-0.3-0.5S53.1,41.4,53.4,41.5
		C53.3,41.5,53.4,41.5,53.4,41.5z"/>
</g>
<path style="fill:#77CACE;" d="M37.5,34c1.5-1.7,6.1-7.5,5.3-8.3c-1-1-14.3-0.9-15.1-0.2c-0.6,0.5,0.6,4.7,1.1,6.4"/>
<g style="opacity:0.4;">
	<g style="opacity:0.4;">
		<path style="fill:#5C5B5D;" d="M29.1,27.9l0.1-2.2l0.7,2.1c0.1,0.2,0,0.4-0.2,0.5c-0.2,0.1-0.4,0-0.5-0.2
			C29.1,27.9,29.1,27.9,29.1,27.9z"/>
	</g>
	<g style="opacity:0.4;">
		<path style="fill:#5C5B5D;" d="M31.1,27.8l0.5-2.2l0.3,2.2c0,0.2-0.1,0.4-0.3,0.4c-0.2,0-0.4-0.1-0.4-0.3
			C31.1,27.9,31.1,27.8,31.1,27.8z"/>
	</g>
	<g style="opacity:0.4;">
		<path style="fill:#5C5B5D;" d="M33.2,27.7l0.8-2.1l-0.1,2.3c0,0.2-0.2,0.4-0.4,0.4c-0.2,0-0.4-0.2-0.4-0.4
			C33.2,27.8,33.2,27.8,33.2,27.7z"/>
	</g>
	<g style="opacity:0.4;">
		<path style="fill:#5C5B5D;" d="M35.2,27.7l1.2-2l-0.5,2.3c0,0.2-0.2,0.3-0.5,0.3c-0.2,0-0.3-0.2-0.3-0.5
			C35.2,27.7,35.2,27.7,35.2,27.7z"/>
	</g>
	<g style="opacity:0.4;">
		<path style="fill:#5C5B5D;" d="M37.3,27.6l1.6-2L37.9,28c-0.1,0.2-0.3,0.3-0.5,0.2C37.2,28.1,37.1,27.9,37.3,27.6
			C37.2,27.7,37.2,27.7,37.3,27.6z"/>
	</g>
	<g style="opacity:0.4;">
		<path style="fill:#5C5B5D;" d="M39.3,27.6l1.9-2L39.9,28c-0.1,0.2-0.3,0.2-0.5,0.1C39.2,28.1,39.2,27.9,39.3,27.6
			C39.3,27.6,39.3,27.6,39.3,27.6z"/>
	</g>
</g>
<circle style="opacity:0.4;fill:#77CACE;" cx="20.2" cy="21.7" r="2.4"/>
<circle style="opacity:0.4;fill:#77CACE;" cx="29.4" cy="17" r="2"/>
<circle style="opacity:0.4;fill:#77CACE;" cx="24.4" cy="13.7" r="1.8"/>
</svg>
