<?xml version="1.0" encoding="UTF-8" standalone="no"?>
<svg width="254px" height="253px" viewBox="0 0 254 253" version="1.1" xmlns="http://www.w3.org/2000/svg" xmlns:xlink="http://www.w3.org/1999/xlink">
    <!-- Generator: Sketch 3.6.1 (26313) - http://www.bohemiancoding.com/sketch -->
    <title>support-forum-gs</title>
    <desc>Created with Sketch.</desc>
    <defs>
        <linearGradient x1="50%" y1="100%" x2="50%" y2="0%" id="linearGradient-1">
            <stop stop-color="#303156" offset="0%"></stop>
            <stop stop-color="#87737D" offset="100%"></stop>
        </linearGradient>
    </defs>
    <g id="Page-1" stroke="none" stroke-width="1" fill="none" fill-rule="evenodd">
        <g id="support-forum-gs" transform="translate(0.000000, -1.000000)">
            <g id="Group" fill="url(#linearGradient-1)">
                <g id="Oval">
                    <circle cx="127.2" cy="127.4" r="126.3"></circle>
                </g>
            </g>
            <path d="M183.6,71.6 C183.6,71.6 175,85.9 159.9,95.5 C159.9,93.2 160,91.3 159.9,90 C159,90.8 157.1,92.3 153.3,95.2 C152,89.9 150.4,85.5 150.4,85.5 C150.4,85.5 147.3,90.5 144.5,89.7 C141.9,88.8 139.9,85.5 146.7,82.5 C133.4,82.5 117.1,89.2 117.1,89.2 C117.1,89.2 115.6,84.3 116.2,82.8 C110.8,84.9 106.7,89 104.2,91.7 C102.5,91.5 102.5,87.1 103.9,85 C101,86.4 96.8,91 95,96.2 C79.6,86.6 70.7,71.7 70.7,71.7 C70.7,71.7 62.8,80 63.7,92.6 C64.3,100.5 69.3,107.1 72.8,110.9 C72.1,112.8 71.7,114.9 71.7,117 L71.7,156.9 C71.7,166.7 79.7,174.8 89.6,174.8 L136.8,174.8 L145.5,181.7 L148.4,184 C150.9,185.9 153.6,186.9 156.3,186.9 C159.8,186.9 163,185.2 165.1,182.3 C166.5,180.2 167.3,177.7 167.3,174.8 L167.3,174.8 C176.5,174 183.8,166.4 183.8,156.9 L183.8,117.1 C183.8,114.6 183.2,112.2 182.4,110 C185.8,106.1 190.1,100.1 190.6,92.7 C191.6,80 183.6,71.6 183.6,71.6 L183.6,71.6 Z M175.2,156.8 C175.2,161.9 171,166.1 165.9,166.1 L158.7,166.1 L158.7,167.2 L158.7,174.8 C158.7,177 157.8,178.2 156.4,178.2 C155.6,178.2 154.8,177.8 153.8,177.2 L150.9,174.9 C148.3,172.8 143.9,169.3 141.3,167.2 L139.9,166.1 L89.7,166.1 C84.6,166.1 80.4,161.9 80.4,156.8 L80.4,116.9 C80.4,111.8 84.6,107.6 89.7,107.6 L166,107.6 C171.1,107.6 175.3,111.8 175.3,116.9 L175.2,156.8 L175.2,156.8 L175.2,156.8 Z" id="Shape" stroke="#FFFFFF" stroke-width="3"></path>
        </g>
    </g>
</svg>