<?xml version="1.0" encoding="UTF-8" standalone="no"?>
<svg width="253px" height="253px" viewBox="0 0 253 253" version="1.1" xmlns="http://www.w3.org/2000/svg" xmlns:xlink="http://www.w3.org/1999/xlink">
    <!-- Generator: Sketch 3.6.1 (26313) - http://www.bohemiancoding.com/sketch -->
    <title>support-github</title>
    <desc>Created with Sketch.</desc>
    <defs>
        <linearGradient x1="50%" y1="100%" x2="50%" y2="0%" id="linearGradient-1">
            <stop stop-color="#303156" offset="0%"></stop>
            <stop stop-color="#87737D" offset="100%"></stop>
        </linearGradient>
    </defs>
    <g id="Page-1" stroke="none" stroke-width="1" fill="none" fill-rule="evenodd">
        <g id="support-github" transform="translate(-1.000000, 0.000000)">
            <g id="Group" fill="url(#linearGradient-1)">
                <circle id="Oval" cx="127.053" cy="126.908" r="126"></circle>
            </g>
            <g id="_x35_151e0c8492e5103c096af88a5006e1e" transform="translate(60.000000, 75.000000)" stroke="#FFFFFF" stroke-width="2.5">
                <path d="M1.95,55.918 C8.014,54.404 16.258,52.342 30.703,51.958 C30.304,51.16 29.943,50.333 29.624,49.481 C24.003,49.432 6.693,50.23 0.763,51.695 C0.729,51.705 0.693,51.708 0.658,51.708 C0.46,51.708 0.277,51.572 0.228,51.371 C0.171,51.137 0.316,50.895 0.552,50.835 C6.428,49.383 23.321,48.577 29.305,48.592 C27.958,44.632 27.364,40.095 27.364,35.03 C27.364,26.034 30.166,22.64 33.93,17.846 C31.051,7.593 34.963,0.585 34.963,0.585 C34.963,0.585 41.011,-0.669 52.446,7.519 C58.644,4.864 75.167,4.643 82.984,6.93 C87.783,3.758 96.558,-0.743 100.101,0.516 C101.059,2.061 103.124,6.559 101.352,16.446 C102.557,18.614 108.804,23.233 108.829,36.29 C108.726,41.105 108.226,45.171 107.3,48.61 C122.208,48.484 130.978,49.715 137.018,50.827 C137.255,50.876 137.415,51.105 137.373,51.345 C137.332,51.556 137.146,51.708 136.941,51.708 C136.91,51.708 136.884,51.706 136.854,51.703 C130.824,50.586 122.039,49.36 107.043,49.496 C106.78,50.369 106.487,51.198 106.167,51.989 C111.271,52.159 125.288,52.705 136.72,56.201 C136.957,56.273 137.086,56.52 137.014,56.757 C136.957,56.945 136.782,57.068 136.592,57.068 C136.551,57.068 136.504,57.063 136.463,57.048 C124.871,53.505 110.55,53.018 105.787,52.861 C101.641,61.968 93.139,65.367 79.395,66.78 C83.849,69.584 85.127,73.101 85.127,82.618 C85.127,92.134 84.998,93.412 85.029,95.6 C85.075,99.192 90.338,100.912 90.143,102.068 C89.947,103.222 85.74,103.036 83.773,102.349 C78.201,100.408 78.757,95.773 78.757,95.773 L78.572,83.049 C78.572,83.049 78.953,76.2 76.425,76.2 L76.425,97.027 C76.425,101.553 79.592,102.929 79.592,104.602 C79.592,107.478 73.804,104.329 72.022,102.534 C69.302,99.805 69.611,94.017 69.678,89.439 C69.74,85.018 69.637,75.349 69.637,75.349 L67.791,75.388 C67.791,75.388 68.548,96.509 66.818,100.358 C64.581,105.299 57.832,106.999 57.832,104.748 C57.832,103.234 59.495,103.716 60.414,100.322 C61.199,97.435 60.932,75.902 60.932,75.902 C60.932,75.902 58.769,77.182 58.769,81.214 C58.769,83.06 58.717,93.604 58.717,96.743 C58.717,100.69 53.112,102.938 50.418,102.938 C49.053,102.938 47.357,102.871 47.357,102.148 C47.357,100.322 52.484,99.251 52.484,95.453 C52.484,92.16 52.412,83.689 52.412,83.689 C52.412,83.689 49.827,84.131 46.14,84.131 C36.845,84.131 33.904,78.199 32.506,74.88 C30.686,70.557 28.325,68.526 25.817,66.903 C24.277,65.907 23.922,64.73 25.704,64.395 C33.933,62.845 36.037,73.726 41.531,75.459 C45.452,76.698 50.494,76.162 53.002,74.54 C53.334,71.216 55.729,68.342 57.724,66.828 C43.748,65.486 35.462,60.633 31.167,52.831 C16.547,53.181 8.251,55.256 2.17,56.775 C1.727,56.886 1.295,56.994 0.878,57.1 C0.842,57.108 0.806,57.11 0.77,57.11 C0.572,57.11 0.392,56.976 0.34,56.775 C0.281,56.538 0.428,56.296 0.665,56.237 C1.079,56.136 1.509,56.031 1.95,55.918 L1.95,55.918 Z" id="XMLID_1_"></path>
            </g>
        </g>
    </g>
</svg>