<?xml version="1.0" encoding="UTF-8" standalone="no"?>
<svg width="253px" height="253px" viewBox="0 0 253 253" version="1.1" xmlns="http://www.w3.org/2000/svg" xmlns:xlink="http://www.w3.org/1999/xlink">
    <!-- Generator: Sketch 3.6.1 (26313) - http://www.bohemiancoding.com/sketch -->
    <title>templates</title>
    <desc>Created with Sketch.</desc>
    <defs>
        <linearGradient x1="19.6109747%" y1="90.1282738%" x2="81.8149058%" y2="10.9786582%" id="linearGradient-1">
            <stop stop-color="#303156" offset="0%"></stop>
            <stop stop-color="#87737D" offset="100%"></stop>
        </linearGradient>
    </defs>
    <g id="Page-1" stroke="none" stroke-width="1" fill="none" fill-rule="evenodd">
        <g id="templates" transform="translate(-1.000000, 0.000000)">
            <g id="Group" fill="url(#linearGradient-1)">
                <circle id="Oval" cx="127.053" cy="126.908" r="126"></circle>
            </g>
            <rect id="Rectangle-path" stroke="#FFFFFF" stroke-width="3" x="89.342" y="74.746" width="75.997" height="101.329"></rect>
            <path d="M84.833,164.916 L76.268,164.916 L76.268,79.18 L84.833,79.18" id="Shape" stroke="#FFFFFF" stroke-width="3"></path>
            <rect id="Rectangle-path" fill="#FFFFFF" x="68.5" y="82.25" width="3" height="72.97"></rect>
            <path d="M170.176,164.381 L178.741,164.381 L178.741,78.645 L170.176,78.645" id="Shape" stroke="#FFFFFF" stroke-width="3"></path>
            <rect id="Rectangle-path" fill="#FFFFFF" x="183.509" y="81.715" width="3" height="72.97"></rect>
            <rect id="Rectangle-path" stroke="#FFFFFF" stroke-width="3" x="95.75" y="83.833" width="61.75" height="37.68"></rect>
            <rect id="Rectangle-path" stroke="#FFFFFF" stroke-width="3" x="95.75" y="127.76" width="16.25" height="16.25"></rect>
            <rect id="Rectangle-path" stroke="#FFFFFF" stroke-width="3" x="118.5" y="127.375" width="16.25" height="16.25"></rect>
            <rect id="Rectangle-path" stroke="#FFFFFF" stroke-width="3" x="141.25" y="127.76" width="16.25" height="16.25"></rect>
            <rect id="Rectangle-path" fill="#FFFFFF" x="94.015" y="148.333" width="64.985" height="3"></rect>
            <rect id="Rectangle-path" fill="#FFFFFF" x="94.015" y="154.08" width="64.985" height="3"></rect>
            <rect id="Rectangle-path" fill="#FFFFFF" x="94.015" y="159.827" width="64.985" height="3"></rect>
            <rect id="Rectangle-path" fill="#FFFFFF" x="94.015" y="165.575" width="64.985" height="3"></rect>
        </g>
    </g>
</svg>