<?xml version="1.0" encoding="UTF-8" standalone="no"?>
<svg width="253px" height="253px" viewBox="0 0 253 253" version="1.1" xmlns="http://www.w3.org/2000/svg" xmlns:xlink="http://www.w3.org/1999/xlink">
    <!-- Generator: Sketch 3.6.1 (26313) - http://www.bohemiancoding.com/sketch -->
    <title>support-twitter</title>
    <desc>Created with Sketch.</desc>
    <defs>
        <linearGradient x1="90.287748%" y1="81.6554315%" x2="11.1381324%" y2="19.4515005%" id="linearGradient-1">
            <stop stop-color="#303156" offset="0%"></stop>
            <stop stop-color="#87737D" offset="100%"></stop>
        </linearGradient>
    </defs>
    <g id="Page-1" stroke="none" stroke-width="1" fill="none" fill-rule="evenodd">
        <g id="support-twitter" transform="translate(-1.000000, 0.000000)">
            <g id="Group" fill="url(#linearGradient-1)">
                <circle id="Oval" cx="127.053" cy="126.908" r="126"></circle>
            </g>
            <path d="M189.229,86.616 C184.538,88.698 179.499,90.105 174.201,90.738 C179.609,87.5 183.751,82.369 185.707,76.263 C180.656,79.262 175.056,81.44 169.087,82.612 C164.316,77.527 157.514,74.352 149.987,74.352 C135.541,74.352 123.825,86.063 123.825,100.517 C123.825,102.566 124.056,104.563 124.5,106.481 C102.753,105.388 83.474,94.971 70.569,79.142 C68.316,83.008 67.025,87.503 67.025,92.298 C67.025,101.375 71.645,109.383 78.665,114.074 C74.376,113.94 70.342,112.763 66.812,110.803 L66.812,111.134 C66.812,123.813 75.83,134.385 87.8,136.789 C85.601,137.392 83.293,137.706 80.905,137.706 C79.217,137.706 77.579,137.547 75.979,137.245 C79.309,147.637 88.971,155.201 100.419,155.415 C91.464,162.435 80.18,166.619 67.925,166.619 C65.814,166.619 63.729,166.493 61.68,166.246 C73.261,173.673 87.013,178.007 101.789,178.007 C149.915,178.007 176.236,138.136 176.236,103.56 C176.236,102.425 176.211,101.298 176.156,100.176 C181.283,96.472 185.723,91.865 189.229,86.616 L189.229,86.616 Z" id="Shape" stroke="#FFFFFF" stroke-width="2.5"></path>
        </g>
    </g>
</svg>