<?xml version="1.0" encoding="iso-8859-1"?>
<!-- Generator: Adobe Illustrator 17.1.0, SVG Export Plug-In . SVG Version: 6.00 Build 0)  -->
<!DOCTYPE svg PUBLIC "-//W3C//DTD SVG 1.1//EN" "http://www.w3.org/Graphics/SVG/1.1/DTD/svg11.dtd">
<svg version="1.1" id="Layer_1" xmlns="http://www.w3.org/2000/svg" xmlns:xlink="http://www.w3.org/1999/xlink" x="0px" y="0px"
	 viewBox="0 0 215 75.882" style="enable-background:new 0 0 215 75.882;" xml:space="preserve">
<g>
	<g>
		<defs>
			<path id="SVGID_1_" d="M215,70.824c0,2.782-2.276,5.059-5.059,5.059H5.059C2.276,75.882,0,73.606,0,70.824V5.059
				C0,2.276,2.276,0,5.059,0h204.882C212.724,0,215,2.276,215,5.059V70.824z"/>
		</defs>
		<clipPath id="SVGID_2_">
			<use xlink:href="#SVGID_1_"  style="overflow:visible;"/>
		</clipPath>
		<g style="clip-path:url(#SVGID_2_);">
			<g>
				<path style="fill:#E7EAEB;" d="M215,70.824c0,2.782-2.276,5.059-5.059,5.059H5.059C2.276,75.882,0,73.606,0,70.824V5.059
					C0,2.276,2.276,0,5.059,0h204.882C212.724,0,215,2.276,215,5.059V70.824z"/>
			</g>
		</g>
		<g style="clip-path:url(#SVGID_2_);">
			<rect x="13.118" y="10.189" style="fill:#C3CBCF;" width="28.493" height="6.704"/>
		</g>
		<g style="clip-path:url(#SVGID_2_);">
			<rect x="13.118" y="23.189" style="fill:#78888D;" width="47.298" height="16.138"/>
		</g>
		<g style="clip-path:url(#SVGID_2_);">
			<rect x="13.118" y="45.914" style="fill:#78888D;" width="72.334" height="6.704"/>
		</g>
		<g style="clip-path:url(#SVGID_2_);">
			<rect x="95.167" y="45.914" style="fill:#78888D;" width="106.167" height="6.704"/>
		</g>
		<g style="clip-path:url(#SVGID_2_);">
			<rect x="68.618" y="23.189" style="fill:#C3CBCF;" width="132.715" height="16.138"/>
		</g>
		<g style="clip-path:url(#SVGID_2_);">
			<rect x="112.333" y="58.621" style="fill:#78888D;" width="89" height="18.975"/>
		</g>
		<g style="clip-path:url(#SVGID_2_);">
			<rect x="13.118" y="58.621" style="fill:#C3CBCF;" width="89.286" height="19.638"/>
		</g>
		<g style="clip-path:url(#SVGID_2_);">
			<rect x="49.667" y="10.189" style="fill:#C3CBCF;" width="151.667" height="6.704"/>
		</g>
	</g>
</g>
</svg>
