<?xml version="1.0" encoding="iso-8859-1"?>
<!-- Generator: Adobe Illustrator 17.1.0, SVG Export Plug-In . SVG Version: 6.00 Build 0)  -->
<!DOCTYPE svg PUBLIC "-//W3C//DTD SVG 1.1//EN" "http://www.w3.org/Graphics/SVG/1.1/DTD/svg11.dtd">
<svg version="1.1" id="Layer_1" xmlns="http://www.w3.org/2000/svg" xmlns:xlink="http://www.w3.org/1999/xlink" x="0px" y="0px"
	 viewBox="0 0 215 75.882" style="enable-background:new 0 0 215 75.882;" xml:space="preserve">
<g>
	<defs>
		<rect id="SVGID_1_" x="0" y="0" width="215" height="75.882"/>
	</defs>
	<clipPath id="SVGID_2_">
		<use xlink:href="#SVGID_1_"  style="overflow:visible;"/>
	</clipPath>
	<g style="opacity:0.5;clip-path:url(#SVGID_2_);">
		<g>
			<path style="fill:#CED4D7;" d="M215,71.98c0,2.146-1.742,3.903-3.87,3.903H3.87C1.742,75.882,0,74.126,0,71.98V3.903
				C0,1.756,1.742,0,3.87,0h207.26c2.128,0,3.87,1.756,3.87,3.903V71.98z"/>
		</g>
	</g>
	<g style="opacity:0.5;clip-path:url(#SVGID_2_);">
		<rect x="105.593" y="11.995" style="fill:#9EADB3;" width="141.063" height="67.225"/>
	</g>
	<g style="clip-path:url(#SVGID_2_);">
		<rect x="110.999" y="30.164" style="fill:#F2F2F2;" width="128.616" height="49.056"/>
	</g>
	<g style="clip-path:url(#SVGID_2_);">
		<rect x="110.999" y="17.446" style="fill:#F2F2F2;" width="25.774" height="7.268"/>
	</g>
	<g style="opacity:0.5;clip-path:url(#SVGID_2_);">
		<rect x="120.325" y="58.815" style="fill:#9EADB3;" width="60.108" height="3.209"/>
	</g>
	<g style="opacity:0.5;clip-path:url(#SVGID_2_);">
		<rect x="120.325" y="38.02" style="fill:#9EADB3;" width="60.108" height="13.602"/>
	</g>
	<g style="opacity:0.5;clip-path:url(#SVGID_2_);">
		<rect x="120.325" y="65.323" style="fill:#9EADB3;" width="43.288" height="3.209"/>
	</g>
	<g style="clip-path:url(#SVGID_2_);">
		<rect x="160.984" y="21.504" style="fill:#F2F2F2;" width="15.743" height="3.209"/>
	</g>
	<g style="clip-path:url(#SVGID_2_);">
		<rect x="181.946" y="21.504" style="fill:#F2F2F2;" width="15.743" height="3.209"/>
	</g>
	<g style="clip-path:url(#SVGID_2_);">
		<rect x="202.909" y="21.504" style="fill:#F2F2F2;" width="15.743" height="3.209"/>
	</g>
	<g style="clip-path:url(#SVGID_2_);">
		<rect x="223.871" y="21.504" style="fill:#F2F2F2;" width="15.743" height="3.209"/>
	</g>
	<g style="clip-path:url(#SVGID_2_);">
		<g>
			<g>
				<path style="fill:#F16A22;" d="M123.844,48.082c-2.9,0-5.26-2.36-5.26-5.261c0-2.901,2.36-5.261,5.26-5.261
					c2.901,0,5.261,2.36,5.261,5.261C129.105,45.721,126.745,48.082,123.844,48.082z M123.844,39.787
					c-1.673,0-3.034,1.361-3.034,3.034c0,1.673,1.361,3.034,3.034,3.034c1.673,0,3.034-1.361,3.034-3.034
					C126.878,41.148,125.516,39.787,123.844,39.787z"/>
			</g>
		</g>
		<g>
			<g>
				<g>
					<path style="fill:#F16A22;" d="M123.844,51.821c-4.963,0-9-4.037-9-9s4.037-9,9-9c4.963,0,9,4.037,9,9
						S128.806,51.821,123.844,51.821z M123.844,35.491c-4.042,0-7.33,3.288-7.33,7.33s3.288,7.33,7.33,7.33
						c4.042,0,7.33-3.288,7.33-7.33S127.886,35.491,123.844,35.491z"/>
				</g>
			</g>
		</g>
	</g>
	<g style="clip-path:url(#SVGID_2_);">
		<rect x="17.226" y="19.328" style="fill:#78888D;" width="76.329" height="44.042"/>
	</g>
	<g style="clip-path:url(#SVGID_2_);">
		<polygon style="fill:#78888D;" points="99.833,41.349 96.106,44.425 92.378,47.502 92.378,41.349 92.378,35.196 96.106,38.273 		
			"/>
	</g>
	<g style="clip-path:url(#SVGID_2_);">
		<g>
			<rect x="24.997" y="26.914" style="fill:#F2F2F2;" width="60.108" height="3.209"/>
		</g>
		<g>
			<rect x="24.997" y="33.423" style="fill:#F2F2F2;" width="43.288" height="3.209"/>
		</g>
		<g>
			<rect x="24.997" y="44.439" style="fill:#F2F2F2;" width="60.108" height="3.209"/>
		</g>
		<g>
			<rect x="24.997" y="50.948" style="fill:#F2F2F2;" width="43.288" height="3.209"/>
		</g>
	</g>
</g>
</svg>
