<?xml version="1.0" encoding="iso-8859-1"?>
<!-- Generator: Adobe Illustrator 17.1.0, SVG Export Plug-In . SVG Version: 6.00 Build 0)  -->
<!DOCTYPE svg PUBLIC "-//W3C//DTD SVG 1.1//EN" "http://www.w3.org/Graphics/SVG/1.1/DTD/svg11.dtd">
<svg version="1.1" id="Layer_1" xmlns="http://www.w3.org/2000/svg" xmlns:xlink="http://www.w3.org/1999/xlink" x="0px" y="0px"
	 viewBox="0 0 215 75.882" style="enable-background:new 0 0 215 75.882;" xml:space="preserve">
<g>
	<g>
		<path style="fill:#E7EAEB;" d="M215,70.824c0,2.782-2.276,5.059-5.059,5.059H5.059C2.276,75.882,0,73.606,0,70.824V5.059
			C0,2.276,2.276,0,5.059,0h204.882C212.724,0,215,2.276,215,5.059V70.824z"/>
	</g>
	<g>
		<g>
			<g style="opacity:0.5;">
				<rect x="84.794" y="13.869" style="fill:#9EADB3;" width="45.413" height="62.014"/>
			</g>
			<g>
				<rect x="90.717" y="30.629" style="fill:#78888D;" width="15.084" height="21.104"/>
			</g>
			<g>
				<rect x="109.199" y="30.629" style="fill:#F2F2F2;" width="15.084" height="21.104"/>
			</g>
			<g>
				<rect x="90.717" y="54.778" style="fill:#F2F2F2;" width="15.084" height="21.104"/>
			</g>
			<g>
				<rect x="109.199" y="54.778" style="fill:#F2F2F2;" width="15.084" height="21.104"/>
			</g>
			<g>
				<rect x="90.717" y="18.897" style="fill:#F2F2F2;" width="33.566" height="6.704"/>
			</g>
		</g>
		<g>
			<g style="opacity:0.5;">
				<rect x="23.109" y="13.869" style="fill:#9EADB3;" width="45.413" height="62.014"/>
			</g>
			<g>
				<rect x="29.033" y="30.629" style="fill:#F2F2F2;" width="33.566" height="45.253"/>
			</g>
			<g>
				<rect x="29.033" y="18.897" style="fill:#F2F2F2;" width="17.77" height="6.704"/>
			</g>
			<g style="opacity:0.5;">
				<rect x="33.33" y="50.059" style="fill:#9EADB3;" width="24.89" height="2.961"/>
			</g>
			<g style="opacity:0.5;">
				<rect x="33.33" y="55.063" style="fill:#9EADB3;" width="17.925" height="2.961"/>
			</g>
			<g>
				<rect x="33.33" y="61.128" style="fill:#F16A22;" width="18.758" height="7.123"/>
			</g>
		</g>
		<g>
			<g style="opacity:0.5;">
				<rect x="146.478" y="13.869" style="fill:#9EADB3;" width="45.413" height="62.014"/>
			</g>
			<g>
				<rect x="152.401" y="40.795" style="fill:#F2F2F2;" width="33.566" height="7.123"/>
			</g>
			<g>
				<rect x="152.401" y="50.962" style="fill:#F2F2F2;" width="33.566" height="7.123"/>
			</g>
			<g>
				<rect x="152.401" y="61.128" style="fill:#F16A22;" width="18.758" height="7.123"/>
			</g>
			<g>
				<rect x="152.401" y="18.897" style="fill:#F2F2F2;" width="17.77" height="6.704"/>
			</g>
		</g>
	</g>
</g>
</svg>
